<?xml version="1.0" encoding="utf-8" standalone="no"?>
<!DOCTYPE svg PUBLIC "-//W3C//DTD SVG 1.1//EN"
  "http://www.w3.org/Graphics/SVG/1.1/DTD/svg11.dtd">
<!-- Created with matplotlib (https://matplotlib.org/) -->
<svg height="473.76pt" version="1.1" viewBox="0 0 864 473.76" width="864pt" xmlns="http://www.w3.org/2000/svg" xmlns:xlink="http://www.w3.org/1999/xlink">
 <defs>
  <style type="text/css">
*{stroke-linecap:butt;stroke-linejoin:round;}
  </style>
 </defs>
 <g id="figure_1">
  <g id="patch_1">
   <path d="M 0 473.76 
L 864 473.76 
L 864 0 
L 0 0 
z
" style="fill:#ffffff;"/>
  </g>
  <g id="axes_1">
   <g id="patch_2">
    <path d="M 108 421.6464 
L 777.6 421.6464 
L 777.6 56.8512 
L 108 56.8512 
z
" style="fill:#ffffff;"/>
   </g>
   <g id="patch_3">
    <path clip-path="url(#p1aa560012e)" d="M 138.436364 421.6464 
L 164.902767 421.6464 
L 164.902767 416.364305 
L 138.436364 416.364305 
z
" style="fill:#a6a6a6;stroke:#000000;stroke-linejoin:miter;stroke-width:3;"/>
   </g>
   <g id="patch_4">
    <path clip-path="url(#p1aa560012e)" d="M 244.301976 421.6464 
L 270.768379 421.6464 
L 270.768379 419.02412 
L 244.301976 419.02412 
z
" style="fill:#a6a6a6;stroke:#000000;stroke-linejoin:miter;stroke-width:3;"/>
   </g>
   <g id="patch_5">
    <path clip-path="url(#p1aa560012e)" d="M 350.167589 421.6464 
L 376.633992 421.6464 
L 376.633992 418.475201 
L 350.167589 418.475201 
z
" style="fill:#a6a6a6;stroke:#000000;stroke-linejoin:miter;stroke-width:3;"/>
   </g>
   <g id="patch_6">
    <path clip-path="url(#p1aa560012e)" d="M 456.033202 421.6464 
L 482.499605 421.6464 
L 482.499605 418.899302 
L 456.033202 418.899302 
z
" style="fill:#a6a6a6;stroke:#000000;stroke-linejoin:miter;stroke-width:3;"/>
   </g>
   <g id="patch_7">
    <path clip-path="url(#p1aa560012e)" d="M 561.898814 421.6464 
L 588.365217 421.6464 
L 588.365217 416.218706 
L 561.898814 416.218706 
z
" style="fill:#a6a6a6;stroke:#000000;stroke-linejoin:miter;stroke-width:3;"/>
   </g>
   <g id="patch_8">
    <path clip-path="url(#p1aa560012e)" d="M 667.764427 421.6464 
L 694.23083 421.6464 
L 694.23083 416.170648 
L 667.764427 416.170648 
z
" style="fill:#a6a6a6;stroke:#000000;stroke-linejoin:miter;stroke-width:3;"/>
   </g>
   <g id="patch_9">
    <path clip-path="url(#p1aa560012e)" d="M 164.902767 421.6464 
L 191.36917 421.6464 
L 191.36917 403.950695 
L 164.902767 403.950695 
z
" style="fill:#ff5964;stroke:#000000;stroke-linejoin:miter;stroke-width:3;"/>
   </g>
   <g id="patch_10">
    <path clip-path="url(#p1aa560012e)" d="M 270.768379 421.6464 
L 297.234783 421.6464 
L 297.234783 417.084927 
L 270.768379 417.084927 
z
" style="fill:#ff5964;stroke:#000000;stroke-linejoin:miter;stroke-width:3;"/>
   </g>
   <g id="patch_11">
    <path clip-path="url(#p1aa560012e)" d="M 376.633992 421.6464 
L 403.100395 421.6464 
L 403.100395 417.40212 
L 376.633992 417.40212 
z
" style="fill:#ff5964;stroke:#000000;stroke-linejoin:miter;stroke-width:3;"/>
   </g>
   <g id="patch_12">
    <path clip-path="url(#p1aa560012e)" d="M 482.499605 421.6464 
L 508.966008 421.6464 
L 508.966008 417.445338 
L 482.499605 417.445338 
z
" style="fill:#ff5964;stroke:#000000;stroke-linejoin:miter;stroke-width:3;"/>
   </g>
   <g id="patch_13">
    <path clip-path="url(#p1aa560012e)" d="M 588.365217 421.6464 
L 614.831621 421.6464 
L 614.831621 415.234308 
L 588.365217 415.234308 
z
" style="fill:#ff5964;stroke:#000000;stroke-linejoin:miter;stroke-width:3;"/>
   </g>
   <g id="patch_14">
    <path clip-path="url(#p1aa560012e)" d="M 694.23083 421.6464 
L 720.697233 421.6464 
L 720.697233 414.758567 
L 694.23083 414.758567 
z
" style="fill:#ff5964;stroke:#000000;stroke-linejoin:miter;stroke-width:3;"/>
   </g>
   <g id="patch_15">
    <path clip-path="url(#p1aa560012e)" d="M 191.36917 421.6464 
L 217.835573 421.6464 
L 217.835573 406.872851 
L 191.36917 406.872851 
z
" style="fill:#ff70de;stroke:#000000;stroke-linejoin:miter;stroke-width:3;"/>
   </g>
   <g id="patch_16">
    <path clip-path="url(#p1aa560012e)" d="M 297.234783 421.6464 
L 323.701186 421.6464 
L 323.701186 356.819541 
L 297.234783 356.819541 
z
" style="fill:#ff70de;stroke:#000000;stroke-linejoin:miter;stroke-width:3;"/>
   </g>
   <g id="patch_17">
    <path clip-path="url(#p1aa560012e)" d="M 403.100395 421.6464 
L 429.566798 421.6464 
L 429.566798 77.566666 
L 403.100395 77.566666 
z
" style="fill:#ff70de;stroke:#000000;stroke-linejoin:miter;stroke-width:3;"/>
   </g>
   <g id="patch_18">
    <path clip-path="url(#p1aa560012e)" d="M 508.966008 421.6464 
L 535.432411 421.6464 
L 535.432411 95.477309 
L 508.966008 95.477309 
z
" style="fill:#ff70de;stroke:#000000;stroke-linejoin:miter;stroke-width:3;"/>
   </g>
   <g id="patch_19">
    <path clip-path="url(#p1aa560012e)" d="M 614.831621 421.6464 
L 641.298024 421.6464 
L 641.298024 118.280051 
L 614.831621 118.280051 
z
" style="fill:#ff70de;stroke:#000000;stroke-linejoin:miter;stroke-width:3;"/>
   </g>
   <g id="patch_20">
    <path clip-path="url(#p1aa560012e)" d="M 720.697233 421.6464 
L 747.163636 421.6464 
L 747.163636 77.934818 
L 720.697233 77.934818 
z
" style="fill:#ff70de;stroke:#000000;stroke-linejoin:miter;stroke-width:3;"/>
   </g>
   <g id="LineCollection_1">
    <path clip-path="url(#p1aa560012e)" d="M 151.669565 416.887162 
L 151.669565 415.841448 
" style="fill:none;stroke:#000000;stroke-width:2;"/>
    <path clip-path="url(#p1aa560012e)" d="M 257.535178 419.176351 
L 257.535178 418.87189 
" style="fill:none;stroke:#000000;stroke-width:2;"/>
    <path clip-path="url(#p1aa560012e)" d="M 363.400791 418.982722 
L 363.400791 417.96768 
" style="fill:none;stroke:#000000;stroke-width:2;"/>
    <path clip-path="url(#p1aa560012e)" d="M 469.266403 419.264573 
L 469.266403 418.534031 
" style="fill:none;stroke:#000000;stroke-width:2;"/>
    <path clip-path="url(#p1aa560012e)" d="M 575.132016 417.816322 
L 575.132016 414.62109 
" style="fill:none;stroke:#000000;stroke-width:2;"/>
    <path clip-path="url(#p1aa560012e)" d="M 680.997628 416.939741 
L 680.997628 415.401555 
" style="fill:none;stroke:#000000;stroke-width:2;"/>
   </g>
   <g id="LineCollection_2">
    <path clip-path="url(#p1aa560012e)" d="M 178.135968 404.743782 
L 178.135968 403.157608 
" style="fill:none;stroke:#000000;stroke-width:2;"/>
    <path clip-path="url(#p1aa560012e)" d="M 284.001581 417.382406 
L 284.001581 416.787448 
" style="fill:none;stroke:#000000;stroke-width:2;"/>
    <path clip-path="url(#p1aa560012e)" d="M 389.867194 417.67152 
L 389.867194 417.13272 
" style="fill:none;stroke:#000000;stroke-width:2;"/>
    <path clip-path="url(#p1aa560012e)" d="M 495.732806 417.555656 
L 495.732806 417.335021 
" style="fill:none;stroke:#000000;stroke-width:2;"/>
    <path clip-path="url(#p1aa560012e)" d="M 601.598419 416.525361 
L 601.598419 413.943255 
" style="fill:none;stroke:#000000;stroke-width:2;"/>
    <path clip-path="url(#p1aa560012e)" d="M 707.464032 415.837729 
L 707.464032 413.679405 
" style="fill:none;stroke:#000000;stroke-width:2;"/>
   </g>
   <g id="LineCollection_3">
    <path clip-path="url(#p1aa560012e)" d="M 204.602372 408.618928 
L 204.602372 405.126774 
" style="fill:none;stroke:#000000;stroke-width:2;"/>
    <path clip-path="url(#p1aa560012e)" d="M 310.467984 360.908868 
L 310.467984 352.730214 
" style="fill:none;stroke:#000000;stroke-width:2;"/>
    <path clip-path="url(#p1aa560012e)" d="M 416.333597 80.083907 
L 416.333597 75.049424 
" style="fill:none;stroke:#000000;stroke-width:2;"/>
    <path clip-path="url(#p1aa560012e)" d="M 522.199209 98.848248 
L 522.199209 92.106371 
" style="fill:none;stroke:#000000;stroke-width:2;"/>
    <path clip-path="url(#p1aa560012e)" d="M 628.064822 124.252692 
L 628.064822 112.30741 
" style="fill:none;stroke:#000000;stroke-width:2;"/>
    <path clip-path="url(#p1aa560012e)" d="M 733.930435 81.647236 
L 733.930435 74.2224 
" style="fill:none;stroke:#000000;stroke-width:2;"/>
   </g>
   <g id="line2d_1">
    <defs>
     <path d="M 5 0 
L -5 -0 
" id="m1477430d43" style="stroke:#000000;stroke-width:2;"/>
    </defs>
    <g clip-path="url(#p1aa560012e)">
     <use style="stroke:#000000;stroke-width:2;" x="151.669565" xlink:href="#m1477430d43" y="416.887162"/>
     <use style="stroke:#000000;stroke-width:2;" x="257.535178" xlink:href="#m1477430d43" y="419.176351"/>
     <use style="stroke:#000000;stroke-width:2;" x="363.400791" xlink:href="#m1477430d43" y="418.982722"/>
     <use style="stroke:#000000;stroke-width:2;" x="469.266403" xlink:href="#m1477430d43" y="419.264573"/>
     <use style="stroke:#000000;stroke-width:2;" x="575.132016" xlink:href="#m1477430d43" y="417.816322"/>
     <use style="stroke:#000000;stroke-width:2;" x="680.997628" xlink:href="#m1477430d43" y="416.939741"/>
    </g>
   </g>
   <g id="line2d_2">
    <g clip-path="url(#p1aa560012e)">
     <use style="stroke:#000000;stroke-width:2;" x="151.669565" xlink:href="#m1477430d43" y="415.841448"/>
     <use style="stroke:#000000;stroke-width:2;" x="257.535178" xlink:href="#m1477430d43" y="418.87189"/>
     <use style="stroke:#000000;stroke-width:2;" x="363.400791" xlink:href="#m1477430d43" y="417.96768"/>
     <use style="stroke:#000000;stroke-width:2;" x="469.266403" xlink:href="#m1477430d43" y="418.534031"/>
     <use style="stroke:#000000;stroke-width:2;" x="575.132016" xlink:href="#m1477430d43" y="414.62109"/>
     <use style="stroke:#000000;stroke-width:2;" x="680.997628" xlink:href="#m1477430d43" y="415.401555"/>
    </g>
   </g>
   <g id="line2d_3">
    <g clip-path="url(#p1aa560012e)">
     <use style="stroke:#000000;stroke-width:2;" x="178.135968" xlink:href="#m1477430d43" y="404.743782"/>
     <use style="stroke:#000000;stroke-width:2;" x="284.001581" xlink:href="#m1477430d43" y="417.382406"/>
     <use style="stroke:#000000;stroke-width:2;" x="389.867194" xlink:href="#m1477430d43" y="417.67152"/>
     <use style="stroke:#000000;stroke-width:2;" x="495.732806" xlink:href="#m1477430d43" y="417.555656"/>
     <use style="stroke:#000000;stroke-width:2;" x="601.598419" xlink:href="#m1477430d43" y="416.525361"/>
     <use style="stroke:#000000;stroke-width:2;" x="707.464032" xlink:href="#m1477430d43" y="415.837729"/>
    </g>
   </g>
   <g id="line2d_4">
    <g clip-path="url(#p1aa560012e)">
     <use style="stroke:#000000;stroke-width:2;" x="178.135968" xlink:href="#m1477430d43" y="403.157608"/>
     <use style="stroke:#000000;stroke-width:2;" x="284.001581" xlink:href="#m1477430d43" y="416.787448"/>
     <use style="stroke:#000000;stroke-width:2;" x="389.867194" xlink:href="#m1477430d43" y="417.13272"/>
     <use style="stroke:#000000;stroke-width:2;" x="495.732806" xlink:href="#m1477430d43" y="417.335021"/>
     <use style="stroke:#000000;stroke-width:2;" x="601.598419" xlink:href="#m1477430d43" y="413.943255"/>
     <use style="stroke:#000000;stroke-width:2;" x="707.464032" xlink:href="#m1477430d43" y="413.679405"/>
    </g>
   </g>
   <g id="line2d_5">
    <g clip-path="url(#p1aa560012e)">
     <use style="stroke:#000000;stroke-width:2;" x="204.602372" xlink:href="#m1477430d43" y="408.618928"/>
     <use style="stroke:#000000;stroke-width:2;" x="310.467984" xlink:href="#m1477430d43" y="360.908868"/>
     <use style="stroke:#000000;stroke-width:2;" x="416.333597" xlink:href="#m1477430d43" y="80.083907"/>
     <use style="stroke:#000000;stroke-width:2;" x="522.199209" xlink:href="#m1477430d43" y="98.848248"/>
     <use style="stroke:#000000;stroke-width:2;" x="628.064822" xlink:href="#m1477430d43" y="124.252692"/>
     <use style="stroke:#000000;stroke-width:2;" x="733.930435" xlink:href="#m1477430d43" y="81.647236"/>
    </g>
   </g>
   <g id="line2d_6">
    <g clip-path="url(#p1aa560012e)">
     <use style="stroke:#000000;stroke-width:2;" x="204.602372" xlink:href="#m1477430d43" y="405.126774"/>
     <use style="stroke:#000000;stroke-width:2;" x="310.467984" xlink:href="#m1477430d43" y="352.730214"/>
     <use style="stroke:#000000;stroke-width:2;" x="416.333597" xlink:href="#m1477430d43" y="75.049424"/>
     <use style="stroke:#000000;stroke-width:2;" x="522.199209" xlink:href="#m1477430d43" y="92.106371"/>
     <use style="stroke:#000000;stroke-width:2;" x="628.064822" xlink:href="#m1477430d43" y="112.30741"/>
     <use style="stroke:#000000;stroke-width:2;" x="733.930435" xlink:href="#m1477430d43" y="74.2224"/>
    </g>
   </g>
   <g id="matplotlib.axis_1">
    <g id="xtick_1">
     <g id="line2d_7">
      <defs>
       <path d="M 0 0 
L 0 2 
" id="m1fdce301af" style="stroke:#000000;"/>
      </defs>
      <g>
       <use style="stroke:#000000;" x="178.135968" xlink:href="#m1fdce301af" y="421.6464"/>
      </g>
     </g>
     <g id="text_1">
      <!-- WT -->
      <defs>
       <path d="M 3.328125 72.90625 
L 13.28125 72.90625 
L 28.609375 11.28125 
L 43.890625 72.90625 
L 54.984375 72.90625 
L 70.3125 11.28125 
L 85.59375 72.90625 
L 95.609375 72.90625 
L 77.296875 0 
L 64.890625 0 
L 49.515625 63.28125 
L 33.984375 0 
L 21.578125 0 
z
" id="DejaVuSans-87"/>
       <path d="M -0.296875 72.90625 
L 61.375 72.90625 
L 61.375 64.59375 
L 35.5 64.59375 
L 35.5 0 
L 25.59375 0 
L 25.59375 64.59375 
L -0.296875 64.59375 
z
" id="DejaVuSans-84"/>
      </defs>
      <g transform="translate(163.740187 440.823588)scale(0.18 -0.18)">
       <use xlink:href="#DejaVuSans-87"/>
       <use x="98.876953" xlink:href="#DejaVuSans-84"/>
      </g>
     </g>
    </g>
    <g id="xtick_2">
     <g id="line2d_8">
      <g>
       <use style="stroke:#000000;" x="284.001581" xlink:href="#m1fdce301af" y="421.6464"/>
      </g>
     </g>
     <g id="text_2">
      <!-- 4NB1 -->
      <defs>
       <path d="M 37.796875 64.3125 
L 12.890625 25.390625 
L 37.796875 25.390625 
z
M 35.203125 72.90625 
L 47.609375 72.90625 
L 47.609375 25.390625 
L 58.015625 25.390625 
L 58.015625 17.1875 
L 47.609375 17.1875 
L 47.609375 0 
L 37.796875 0 
L 37.796875 17.1875 
L 4.890625 17.1875 
L 4.890625 26.703125 
z
" id="DejaVuSans-52"/>
       <path d="M 9.8125 72.90625 
L 23.09375 72.90625 
L 55.421875 11.921875 
L 55.421875 72.90625 
L 64.984375 72.90625 
L 64.984375 0 
L 51.703125 0 
L 19.390625 60.984375 
L 19.390625 0 
L 9.8125 0 
z
" id="DejaVuSans-78"/>
       <path d="M 19.671875 34.8125 
L 19.671875 8.109375 
L 35.5 8.109375 
Q 43.453125 8.109375 47.28125 11.40625 
Q 51.125 14.703125 51.125 21.484375 
Q 51.125 28.328125 47.28125 31.5625 
Q 43.453125 34.8125 35.5 34.8125 
z
M 19.671875 64.796875 
L 19.671875 42.828125 
L 34.28125 42.828125 
Q 41.5 42.828125 45.03125 45.53125 
Q 48.578125 48.25 48.578125 53.8125 
Q 48.578125 59.328125 45.03125 62.0625 
Q 41.5 64.796875 34.28125 64.796875 
z
M 9.8125 72.90625 
L 35.015625 72.90625 
Q 46.296875 72.90625 52.390625 68.21875 
Q 58.5 63.53125 58.5 54.890625 
Q 58.5 48.1875 55.375 44.234375 
Q 52.25 40.28125 46.1875 39.3125 
Q 53.46875 37.75 57.5 32.78125 
Q 61.53125 27.828125 61.53125 20.40625 
Q 61.53125 10.640625 54.890625 5.3125 
Q 48.25 0 35.984375 0 
L 9.8125 0 
z
" id="DejaVuSans-66"/>
       <path d="M 12.40625 8.296875 
L 28.515625 8.296875 
L 28.515625 63.921875 
L 10.984375 60.40625 
L 10.984375 69.390625 
L 28.421875 72.90625 
L 38.28125 72.90625 
L 38.28125 8.296875 
L 54.390625 8.296875 
L 54.390625 0 
L 12.40625 0 
z
" id="DejaVuSans-49"/>
      </defs>
      <g transform="translate(259.641112 440.823588)scale(0.18 -0.18)">
       <use xlink:href="#DejaVuSans-52"/>
       <use x="63.623047" xlink:href="#DejaVuSans-78"/>
       <use x="138.427734" xlink:href="#DejaVuSans-66"/>
       <use x="207.03125" xlink:href="#DejaVuSans-49"/>
      </g>
     </g>
    </g>
    <g id="xtick_3">
     <g id="line2d_9">
      <g>
       <use style="stroke:#000000;" x="389.867194" xlink:href="#m1fdce301af" y="421.6464"/>
      </g>
     </g>
     <g id="text_3">
      <!-- 4NB2.1 -->
      <defs>
       <path d="M 19.1875 8.296875 
L 53.609375 8.296875 
L 53.609375 0 
L 7.328125 0 
L 7.328125 8.296875 
Q 12.9375 14.109375 22.625 23.890625 
Q 32.328125 33.6875 34.8125 36.53125 
Q 39.546875 41.84375 41.421875 45.53125 
Q 43.3125 49.21875 43.3125 52.78125 
Q 43.3125 58.59375 39.234375 62.25 
Q 35.15625 65.921875 28.609375 65.921875 
Q 23.96875 65.921875 18.8125 64.3125 
Q 13.671875 62.703125 7.8125 59.421875 
L 7.8125 69.390625 
Q 13.765625 71.78125 18.9375 73 
Q 24.125 74.21875 28.421875 74.21875 
Q 39.75 74.21875 46.484375 68.546875 
Q 53.21875 62.890625 53.21875 53.421875 
Q 53.21875 48.921875 51.53125 44.890625 
Q 49.859375 40.875 45.40625 35.40625 
Q 44.1875 33.984375 37.640625 27.21875 
Q 31.109375 20.453125 19.1875 8.296875 
z
" id="DejaVuSans-50"/>
       <path d="M 10.6875 12.40625 
L 21 12.40625 
L 21 0 
L 10.6875 0 
z
" id="DejaVuSans-46"/>
      </defs>
      <g transform="translate(356.920162 440.823588)scale(0.18 -0.18)">
       <use xlink:href="#DejaVuSans-52"/>
       <use x="63.623047" xlink:href="#DejaVuSans-78"/>
       <use x="138.427734" xlink:href="#DejaVuSans-66"/>
       <use x="207.03125" xlink:href="#DejaVuSans-50"/>
       <use x="270.654297" xlink:href="#DejaVuSans-46"/>
       <use x="302.441406" xlink:href="#DejaVuSans-49"/>
      </g>
     </g>
    </g>
    <g id="xtick_4">
     <g id="line2d_10">
      <g>
       <use style="stroke:#000000;" x="495.732806" xlink:href="#m1fdce301af" y="421.6464"/>
      </g>
     </g>
     <g id="text_4">
      <!-- 4NB2.2 -->
      <g transform="translate(462.785775 440.823588)scale(0.18 -0.18)">
       <use xlink:href="#DejaVuSans-52"/>
       <use x="63.623047" xlink:href="#DejaVuSans-78"/>
       <use x="138.427734" xlink:href="#DejaVuSans-66"/>
       <use x="207.03125" xlink:href="#DejaVuSans-50"/>
       <use x="270.654297" xlink:href="#DejaVuSans-46"/>
       <use x="302.441406" xlink:href="#DejaVuSans-50"/>
      </g>
     </g>
    </g>
    <g id="xtick_5">
     <g id="line2d_11">
      <g>
       <use style="stroke:#000000;" x="601.598419" xlink:href="#m1fdce301af" y="421.6464"/>
      </g>
     </g>
     <g id="text_5">
      <!-- 4NB2.3 -->
      <defs>
       <path d="M 40.578125 39.3125 
Q 47.65625 37.796875 51.625 33 
Q 55.609375 28.21875 55.609375 21.1875 
Q 55.609375 10.40625 48.1875 4.484375 
Q 40.765625 -1.421875 27.09375 -1.421875 
Q 22.515625 -1.421875 17.65625 -0.515625 
Q 12.796875 0.390625 7.625 2.203125 
L 7.625 11.71875 
Q 11.71875 9.328125 16.59375 8.109375 
Q 21.484375 6.890625 26.8125 6.890625 
Q 36.078125 6.890625 40.9375 10.546875 
Q 45.796875 14.203125 45.796875 21.1875 
Q 45.796875 27.640625 41.28125 31.265625 
Q 36.765625 34.90625 28.71875 34.90625 
L 20.21875 34.90625 
L 20.21875 43.015625 
L 29.109375 43.015625 
Q 36.375 43.015625 40.234375 45.921875 
Q 44.09375 48.828125 44.09375 54.296875 
Q 44.09375 59.90625 40.109375 62.90625 
Q 36.140625 65.921875 28.71875 65.921875 
Q 24.65625 65.921875 20.015625 65.03125 
Q 15.375 64.15625 9.8125 62.3125 
L 9.8125 71.09375 
Q 15.4375 72.65625 20.34375 73.4375 
Q 25.25 74.21875 29.59375 74.21875 
Q 40.828125 74.21875 47.359375 69.109375 
Q 53.90625 64.015625 53.90625 55.328125 
Q 53.90625 49.265625 50.4375 45.09375 
Q 46.96875 40.921875 40.578125 39.3125 
z
" id="DejaVuSans-51"/>
      </defs>
      <g transform="translate(568.651388 440.823588)scale(0.18 -0.18)">
       <use xlink:href="#DejaVuSans-52"/>
       <use x="63.623047" xlink:href="#DejaVuSans-78"/>
       <use x="138.427734" xlink:href="#DejaVuSans-66"/>
       <use x="207.03125" xlink:href="#DejaVuSans-50"/>
       <use x="270.654297" xlink:href="#DejaVuSans-46"/>
       <use x="302.441406" xlink:href="#DejaVuSans-51"/>
      </g>
     </g>
    </g>
    <g id="xtick_6">
     <g id="line2d_12">
      <g>
       <use style="stroke:#000000;" x="707.464032" xlink:href="#m1fdce301af" y="421.6464"/>
      </g>
     </g>
     <g id="text_6">
      <!-- 4NB2.4 -->
      <g transform="translate(674.517 440.823588)scale(0.18 -0.18)">
       <use xlink:href="#DejaVuSans-52"/>
       <use x="63.623047" xlink:href="#DejaVuSans-78"/>
       <use x="138.427734" xlink:href="#DejaVuSans-66"/>
       <use x="207.03125" xlink:href="#DejaVuSans-50"/>
       <use x="270.654297" xlink:href="#DejaVuSans-46"/>
       <use x="302.441406" xlink:href="#DejaVuSans-52"/>
      </g>
     </g>
    </g>
    <g id="text_7">
     <!-- Sensor -->
     <defs>
      <path d="M 53.515625 70.515625 
L 53.515625 60.890625 
Q 47.90625 63.578125 42.921875 64.890625 
Q 37.9375 66.21875 33.296875 66.21875 
Q 25.25 66.21875 20.875 63.09375 
Q 16.5 59.96875 16.5 54.203125 
Q 16.5 49.359375 19.40625 46.890625 
Q 22.3125 44.4375 30.421875 42.921875 
L 36.375 41.703125 
Q 47.40625 39.59375 52.65625 34.296875 
Q 57.90625 29 57.90625 20.125 
Q 57.90625 9.515625 50.796875 4.046875 
Q 43.703125 -1.421875 29.984375 -1.421875 
Q 24.8125 -1.421875 18.96875 -0.25 
Q 13.140625 0.921875 6.890625 3.21875 
L 6.890625 13.375 
Q 12.890625 10.015625 18.65625 8.296875 
Q 24.421875 6.59375 29.984375 6.59375 
Q 38.421875 6.59375 43.015625 9.90625 
Q 47.609375 13.234375 47.609375 19.390625 
Q 47.609375 24.75 44.3125 27.78125 
Q 41.015625 30.8125 33.5 32.328125 
L 27.484375 33.5 
Q 16.453125 35.6875 11.515625 40.375 
Q 6.59375 45.0625 6.59375 53.421875 
Q 6.59375 63.09375 13.40625 68.65625 
Q 20.21875 74.21875 32.171875 74.21875 
Q 37.3125 74.21875 42.625 73.28125 
Q 47.953125 72.359375 53.515625 70.515625 
z
" id="DejaVuSans-83"/>
      <path d="M 56.203125 29.59375 
L 56.203125 25.203125 
L 14.890625 25.203125 
Q 15.484375 15.921875 20.484375 11.0625 
Q 25.484375 6.203125 34.421875 6.203125 
Q 39.59375 6.203125 44.453125 7.46875 
Q 49.3125 8.734375 54.109375 11.28125 
L 54.109375 2.78125 
Q 49.265625 0.734375 44.1875 -0.34375 
Q 39.109375 -1.421875 33.890625 -1.421875 
Q 20.796875 -1.421875 13.15625 6.1875 
Q 5.515625 13.8125 5.515625 26.8125 
Q 5.515625 40.234375 12.765625 48.109375 
Q 20.015625 56 32.328125 56 
Q 43.359375 56 49.78125 48.890625 
Q 56.203125 41.796875 56.203125 29.59375 
z
M 47.21875 32.234375 
Q 47.125 39.59375 43.09375 43.984375 
Q 39.0625 48.390625 32.421875 48.390625 
Q 24.90625 48.390625 20.390625 44.140625 
Q 15.875 39.890625 15.1875 32.171875 
z
" id="DejaVuSans-101"/>
      <path d="M 54.890625 33.015625 
L 54.890625 0 
L 45.90625 0 
L 45.90625 32.71875 
Q 45.90625 40.484375 42.875 44.328125 
Q 39.84375 48.1875 33.796875 48.1875 
Q 26.515625 48.1875 22.3125 43.546875 
Q 18.109375 38.921875 18.109375 30.90625 
L 18.109375 0 
L 9.078125 0 
L 9.078125 54.6875 
L 18.109375 54.6875 
L 18.109375 46.1875 
Q 21.34375 51.125 25.703125 53.5625 
Q 30.078125 56 35.796875 56 
Q 45.21875 56 50.046875 50.171875 
Q 54.890625 44.34375 54.890625 33.015625 
z
" id="DejaVuSans-110"/>
      <path d="M 44.28125 53.078125 
L 44.28125 44.578125 
Q 40.484375 46.53125 36.375 47.5 
Q 32.28125 48.484375 27.875 48.484375 
Q 21.1875 48.484375 17.84375 46.4375 
Q 14.5 44.390625 14.5 40.28125 
Q 14.5 37.15625 16.890625 35.375 
Q 19.28125 33.59375 26.515625 31.984375 
L 29.59375 31.296875 
Q 39.15625 29.25 43.1875 25.515625 
Q 47.21875 21.78125 47.21875 15.09375 
Q 47.21875 7.46875 41.1875 3.015625 
Q 35.15625 -1.421875 24.609375 -1.421875 
Q 20.21875 -1.421875 15.453125 -0.5625 
Q 10.6875 0.296875 5.421875 2 
L 5.421875 11.28125 
Q 10.40625 8.6875 15.234375 7.390625 
Q 20.0625 6.109375 24.8125 6.109375 
Q 31.15625 6.109375 34.5625 8.28125 
Q 37.984375 10.453125 37.984375 14.40625 
Q 37.984375 18.0625 35.515625 20.015625 
Q 33.0625 21.96875 24.703125 23.78125 
L 21.578125 24.515625 
Q 13.234375 26.265625 9.515625 29.90625 
Q 5.8125 33.546875 5.8125 39.890625 
Q 5.8125 47.609375 11.28125 51.796875 
Q 16.75 56 26.8125 56 
Q 31.78125 56 36.171875 55.265625 
Q 40.578125 54.546875 44.28125 53.078125 
z
" id="DejaVuSans-115"/>
      <path d="M 30.609375 48.390625 
Q 23.390625 48.390625 19.1875 42.75 
Q 14.984375 37.109375 14.984375 27.296875 
Q 14.984375 17.484375 19.15625 11.84375 
Q 23.34375 6.203125 30.609375 6.203125 
Q 37.796875 6.203125 41.984375 11.859375 
Q 46.1875 17.53125 46.1875 27.296875 
Q 46.1875 37.015625 41.984375 42.703125 
Q 37.796875 48.390625 30.609375 48.390625 
z
M 30.609375 56 
Q 42.328125 56 49.015625 48.375 
Q 55.71875 40.765625 55.71875 27.296875 
Q 55.71875 13.875 49.015625 6.21875 
Q 42.328125 -1.421875 30.609375 -1.421875 
Q 18.84375 -1.421875 12.171875 6.21875 
Q 5.515625 13.875 5.515625 27.296875 
Q 5.515625 40.765625 12.171875 48.375 
Q 18.84375 56 30.609375 56 
z
" id="DejaVuSans-111"/>
      <path d="M 41.109375 46.296875 
Q 39.59375 47.171875 37.8125 47.578125 
Q 36.03125 48 33.890625 48 
Q 26.265625 48 22.1875 43.046875 
Q 18.109375 38.09375 18.109375 28.8125 
L 18.109375 0 
L 9.078125 0 
L 9.078125 54.6875 
L 18.109375 54.6875 
L 18.109375 46.1875 
Q 20.953125 51.171875 25.484375 53.578125 
Q 30.03125 56 36.53125 56 
Q 37.453125 56 38.578125 55.875 
Q 39.703125 55.765625 41.0625 55.515625 
z
" id="DejaVuSans-114"/>
     </defs>
     <g transform="translate(408.521875 463.7639)scale(0.2 -0.2)">
      <use xlink:href="#DejaVuSans-83"/>
      <use x="63.476562" xlink:href="#DejaVuSans-101"/>
      <use x="125" xlink:href="#DejaVuSans-110"/>
      <use x="188.378906" xlink:href="#DejaVuSans-115"/>
      <use x="240.478516" xlink:href="#DejaVuSans-111"/>
      <use x="301.660156" xlink:href="#DejaVuSans-114"/>
     </g>
    </g>
   </g>
   <g id="matplotlib.axis_2">
    <g id="ytick_1">
     <g id="line2d_13">
      <defs>
       <path d="M 0 0 
L -2 0 
" id="mda71da2271" style="stroke:#000000;"/>
      </defs>
      <g>
       <use style="stroke:#000000;" x="108" xlink:href="#mda71da2271" y="421.6464"/>
      </g>
     </g>
     <g id="text_8">
      <!-- 0 -->
      <defs>
       <path d="M 31.78125 66.40625 
Q 24.171875 66.40625 20.328125 58.90625 
Q 16.5 51.421875 16.5 36.375 
Q 16.5 21.390625 20.328125 13.890625 
Q 24.171875 6.390625 31.78125 6.390625 
Q 39.453125 6.390625 43.28125 13.890625 
Q 47.125 21.390625 47.125 36.375 
Q 47.125 51.421875 43.28125 58.90625 
Q 39.453125 66.40625 31.78125 66.40625 
z
M 31.78125 74.21875 
Q 44.046875 74.21875 50.515625 64.515625 
Q 56.984375 54.828125 56.984375 36.375 
Q 56.984375 17.96875 50.515625 8.265625 
Q 44.046875 -1.421875 31.78125 -1.421875 
Q 19.53125 -1.421875 13.0625 8.265625 
Q 6.59375 17.96875 6.59375 36.375 
Q 6.59375 54.828125 13.0625 64.515625 
Q 19.53125 74.21875 31.78125 74.21875 
z
" id="DejaVuSans-48"/>
      </defs>
      <g transform="translate(91.0475 428.484994)scale(0.18 -0.18)">
       <use xlink:href="#DejaVuSans-48"/>
      </g>
     </g>
    </g>
    <g id="ytick_2">
     <g id="line2d_14">
      <g>
       <use style="stroke:#000000;" x="108" xlink:href="#mda71da2271" y="352.569913"/>
      </g>
     </g>
     <g id="text_9">
      <!-- 1 -->
      <g transform="translate(91.0475 359.408507)scale(0.18 -0.18)">
       <use xlink:href="#DejaVuSans-49"/>
      </g>
     </g>
    </g>
    <g id="ytick_3">
     <g id="line2d_15">
      <g>
       <use style="stroke:#000000;" x="108" xlink:href="#mda71da2271" y="283.493426"/>
      </g>
     </g>
     <g id="text_10">
      <!-- 2 -->
      <g transform="translate(91.0475 290.33202)scale(0.18 -0.18)">
       <use xlink:href="#DejaVuSans-50"/>
      </g>
     </g>
    </g>
    <g id="ytick_4">
     <g id="line2d_16">
      <g>
       <use style="stroke:#000000;" x="108" xlink:href="#mda71da2271" y="214.41694"/>
      </g>
     </g>
     <g id="text_11">
      <!-- 3 -->
      <g transform="translate(91.0475 221.255533)scale(0.18 -0.18)">
       <use xlink:href="#DejaVuSans-51"/>
      </g>
     </g>
    </g>
    <g id="ytick_5">
     <g id="line2d_17">
      <g>
       <use style="stroke:#000000;" x="108" xlink:href="#mda71da2271" y="145.340453"/>
      </g>
     </g>
     <g id="text_12">
      <!-- 4 -->
      <g transform="translate(91.0475 152.179047)scale(0.18 -0.18)">
       <use xlink:href="#DejaVuSans-52"/>
      </g>
     </g>
    </g>
    <g id="ytick_6">
     <g id="line2d_18">
      <g>
       <use style="stroke:#000000;" x="108" xlink:href="#mda71da2271" y="76.263966"/>
      </g>
     </g>
     <g id="text_13">
      <!-- 5 -->
      <defs>
       <path d="M 10.796875 72.90625 
L 49.515625 72.90625 
L 49.515625 64.59375 
L 19.828125 64.59375 
L 19.828125 46.734375 
Q 21.96875 47.46875 24.109375 47.828125 
Q 26.265625 48.1875 28.421875 48.1875 
Q 40.625 48.1875 47.75 41.5 
Q 54.890625 34.8125 54.890625 23.390625 
Q 54.890625 11.625 47.5625 5.09375 
Q 40.234375 -1.421875 26.90625 -1.421875 
Q 22.3125 -1.421875 17.546875 -0.640625 
Q 12.796875 0.140625 7.71875 1.703125 
L 7.71875 11.625 
Q 12.109375 9.234375 16.796875 8.0625 
Q 21.484375 6.890625 26.703125 6.890625 
Q 35.15625 6.890625 40.078125 11.328125 
Q 45.015625 15.765625 45.015625 23.390625 
Q 45.015625 31 40.078125 35.4375 
Q 35.15625 39.890625 26.703125 39.890625 
Q 22.75 39.890625 18.8125 39.015625 
Q 14.890625 38.140625 10.796875 36.28125 
z
" id="DejaVuSans-53"/>
      </defs>
      <g transform="translate(91.0475 83.10256)scale(0.18 -0.18)">
       <use xlink:href="#DejaVuSans-53"/>
      </g>
     </g>
    </g>
    <g id="text_14">
     <!-- $(RFU/OD) \times 10^4$ -->
     <defs>
      <path d="M 31 75.875 
Q 24.46875 64.65625 21.28125 53.65625 
Q 18.109375 42.671875 18.109375 31.390625 
Q 18.109375 20.125 21.3125 9.0625 
Q 24.515625 -2 31 -13.1875 
L 23.1875 -13.1875 
Q 15.875 -1.703125 12.234375 9.375 
Q 8.59375 20.453125 8.59375 31.390625 
Q 8.59375 42.28125 12.203125 53.3125 
Q 15.828125 64.359375 23.1875 75.875 
z
" id="DejaVuSans-40"/>
      <path d="M 25.203125 64.796875 
L 20.21875 38.921875 
L 32.90625 38.921875 
Q 40.375 38.921875 44.984375 43.046875 
Q 49.609375 47.171875 49.609375 53.8125 
Q 49.609375 59.125 46.5 61.953125 
Q 43.40625 64.796875 37.59375 64.796875 
z
M 43.3125 35.015625 
Q 46.4375 34.28125 48.515625 31.390625 
Q 50.59375 28.515625 53.328125 19.921875 
L 59.515625 0 
L 49.125 0 
L 43.40625 18.703125 
Q 41.21875 25.921875 38.328125 28.359375 
Q 35.453125 30.8125 29.5 30.8125 
L 18.609375 30.8125 
L 12.59375 0 
L 2.6875 0 
L 16.890625 72.90625 
L 39.109375 72.90625 
Q 49.21875 72.90625 54.609375 68.328125 
Q 60.015625 63.765625 60.015625 55.171875 
Q 60.015625 47.5625 55.421875 41.984375 
Q 50.828125 36.421875 43.3125 35.015625 
z
" id="DejaVuSans-Oblique-82"/>
      <path d="M 16.890625 72.90625 
L 58.6875 72.90625 
L 57.078125 64.59375 
L 25.09375 64.59375 
L 20.90625 43.109375 
L 49.8125 43.109375 
L 48.1875 34.8125 
L 19.28125 34.8125 
L 12.5 0 
L 2.6875 0 
z
" id="DejaVuSans-Oblique-70"/>
      <path d="M 15.484375 72.90625 
L 25.390625 72.90625 
L 16.796875 28.609375 
Q 16.265625 25.640625 16.046875 23.703125 
Q 15.828125 21.78125 15.828125 20.3125 
Q 15.828125 13.578125 19.578125 10.078125 
Q 23.34375 6.59375 30.609375 6.59375 
Q 40.046875 6.59375 45.28125 11.765625 
Q 50.53125 16.9375 52.78125 28.609375 
L 61.375 72.90625 
L 71.296875 72.90625 
L 62.5 27.390625 
Q 59.625 12.640625 51.5625 5.609375 
Q 43.5 -1.421875 29.5 -1.421875 
Q 18.5625 -1.421875 12.1875 4.078125 
Q 5.8125 9.578125 5.8125 19 
Q 5.8125 20.703125 6.046875 22.828125 
Q 6.296875 24.953125 6.78125 27.390625 
z
" id="DejaVuSans-Oblique-85"/>
      <path d="M 25.390625 72.90625 
L 33.6875 72.90625 
L 8.296875 -9.28125 
L 0 -9.28125 
z
" id="DejaVuSans-47"/>
      <path d="M 45.609375 66.21875 
Q 37.5 66.21875 31.296875 62.28125 
Q 25.09375 58.34375 20.515625 50.296875 
Q 17.578125 45.171875 16.03125 39.40625 
Q 14.5 33.640625 14.5 27.78125 
Q 14.5 17.625 19.359375 12.109375 
Q 24.21875 6.59375 33.109375 6.59375 
Q 41.109375 6.59375 47.375 10.5625 
Q 53.65625 14.546875 58.109375 22.40625 
Q 61.078125 27.6875 62.640625 33.46875 
Q 64.203125 39.265625 64.203125 45.015625 
Q 64.203125 55.125 59.3125 60.671875 
Q 54.4375 66.21875 45.609375 66.21875 
z
M 32.8125 -1.421875 
Q 19.390625 -1.421875 11.6875 6.53125 
Q 4 14.5 4 28.328125 
Q 4 36.234375 7 44.484375 
Q 10.015625 52.734375 15.28125 59.1875 
Q 21.484375 66.75 29.09375 70.484375 
Q 36.71875 74.21875 45.90625 74.21875 
Q 59.28125 74.21875 66.984375 66.328125 
Q 74.703125 58.453125 74.703125 44.828125 
Q 74.703125 36.421875 71.765625 28.3125 
Q 68.84375 20.21875 63.375 13.625 
Q 57.125 6 49.578125 2.28125 
Q 42.046875 -1.421875 32.8125 -1.421875 
z
" id="DejaVuSans-Oblique-79"/>
      <path d="M 16.890625 72.90625 
L 38.09375 72.90625 
Q 54.984375 72.90625 63.59375 65.75 
Q 72.21875 58.59375 72.21875 44.484375 
Q 72.21875 35.15625 68.9375 26.53125 
Q 65.671875 17.921875 59.90625 12.015625 
Q 54.109375 5.953125 45.171875 2.96875 
Q 36.234375 0 24.03125 0 
L 2.6875 0 
z
M 25.203125 64.796875 
L 14.203125 8.109375 
L 27.09375 8.109375 
Q 43.65625 8.109375 52.734375 17.625 
Q 61.8125 27.15625 61.8125 44.484375 
Q 61.8125 54.984375 55.953125 59.890625 
Q 50.09375 64.796875 37.59375 64.796875 
z
" id="DejaVuSans-Oblique-68"/>
      <path d="M 8.015625 75.875 
L 15.828125 75.875 
Q 23.140625 64.359375 26.78125 53.3125 
Q 30.421875 42.28125 30.421875 31.390625 
Q 30.421875 20.453125 26.78125 9.375 
Q 23.140625 -1.703125 15.828125 -13.1875 
L 8.015625 -13.1875 
Q 14.5 -2 17.703125 9.0625 
Q 20.90625 20.125 20.90625 31.390625 
Q 20.90625 42.671875 17.703125 53.65625 
Q 14.5 64.65625 8.015625 75.875 
z
" id="DejaVuSans-41"/>
      <path d="M 70.125 53.71875 
L 47.796875 31.296875 
L 70.125 8.984375 
L 64.3125 3.078125 
L 41.890625 25.484375 
L 19.484375 3.078125 
L 13.71875 8.984375 
L 35.984375 31.296875 
L 13.71875 53.71875 
L 19.484375 59.625 
L 41.890625 37.203125 
L 64.3125 59.625 
z
" id="DejaVuSans-215"/>
     </defs>
     <g transform="translate(82.472187 323.5088)rotate(-90)scale(0.22 -0.22)">
      <use transform="translate(0 0.684375)" xlink:href="#DejaVuSans-40"/>
      <use transform="translate(39.013672 0.684375)" xlink:href="#DejaVuSans-Oblique-82"/>
      <use transform="translate(108.496094 0.684375)" xlink:href="#DejaVuSans-Oblique-70"/>
      <use transform="translate(166.015625 0.684375)" xlink:href="#DejaVuSans-Oblique-85"/>
      <use transform="translate(239.208984 0.684375)" xlink:href="#DejaVuSans-47"/>
      <use transform="translate(272.900391 0.684375)" xlink:href="#DejaVuSans-Oblique-79"/>
      <use transform="translate(351.611328 0.684375)" xlink:href="#DejaVuSans-Oblique-68"/>
      <use transform="translate(428.613281 0.684375)" xlink:href="#DejaVuSans-41"/>
      <use transform="translate(487.109375 0.684375)" xlink:href="#DejaVuSans-215"/>
      <use transform="translate(590.380859 0.684375)" xlink:href="#DejaVuSans-49"/>
      <use transform="translate(654.003906 0.684375)" xlink:href="#DejaVuSans-48"/>
      <use transform="translate(718.583984 38.965625)scale(0.7)" xlink:href="#DejaVuSans-52"/>
     </g>
    </g>
   </g>
   <g id="patch_21">
    <path d="M 108 421.6464 
L 108 56.8512 
" style="fill:none;stroke:#000000;stroke-linecap:square;stroke-linejoin:miter;stroke-width:0.8;"/>
   </g>
   <g id="patch_22">
    <path d="M 108 421.6464 
L 777.6 421.6464 
" style="fill:none;stroke:#000000;stroke-linecap:square;stroke-linejoin:miter;stroke-width:0.8;"/>
   </g>
   <g id="text_15">
    <!-- Selectivity of evolved sensors -->
    <defs>
     <path d="M 9.421875 75.984375 
L 18.40625 75.984375 
L 18.40625 0 
L 9.421875 0 
z
" id="DejaVuSans-108"/>
     <path d="M 48.78125 52.59375 
L 48.78125 44.1875 
Q 44.96875 46.296875 41.140625 47.34375 
Q 37.3125 48.390625 33.40625 48.390625 
Q 24.65625 48.390625 19.8125 42.84375 
Q 14.984375 37.3125 14.984375 27.296875 
Q 14.984375 17.28125 19.8125 11.734375 
Q 24.65625 6.203125 33.40625 6.203125 
Q 37.3125 6.203125 41.140625 7.25 
Q 44.96875 8.296875 48.78125 10.40625 
L 48.78125 2.09375 
Q 45.015625 0.34375 40.984375 -0.53125 
Q 36.96875 -1.421875 32.421875 -1.421875 
Q 20.0625 -1.421875 12.78125 6.34375 
Q 5.515625 14.109375 5.515625 27.296875 
Q 5.515625 40.671875 12.859375 48.328125 
Q 20.21875 56 33.015625 56 
Q 37.15625 56 41.109375 55.140625 
Q 45.0625 54.296875 48.78125 52.59375 
z
" id="DejaVuSans-99"/>
     <path d="M 18.3125 70.21875 
L 18.3125 54.6875 
L 36.8125 54.6875 
L 36.8125 47.703125 
L 18.3125 47.703125 
L 18.3125 18.015625 
Q 18.3125 11.328125 20.140625 9.421875 
Q 21.96875 7.515625 27.59375 7.515625 
L 36.8125 7.515625 
L 36.8125 0 
L 27.59375 0 
Q 17.1875 0 13.234375 3.875 
Q 9.28125 7.765625 9.28125 18.015625 
L 9.28125 47.703125 
L 2.6875 47.703125 
L 2.6875 54.6875 
L 9.28125 54.6875 
L 9.28125 70.21875 
z
" id="DejaVuSans-116"/>
     <path d="M 9.421875 54.6875 
L 18.40625 54.6875 
L 18.40625 0 
L 9.421875 0 
z
M 9.421875 75.984375 
L 18.40625 75.984375 
L 18.40625 64.59375 
L 9.421875 64.59375 
z
" id="DejaVuSans-105"/>
     <path d="M 2.984375 54.6875 
L 12.5 54.6875 
L 29.59375 8.796875 
L 46.6875 54.6875 
L 56.203125 54.6875 
L 35.6875 0 
L 23.484375 0 
z
" id="DejaVuSans-118"/>
     <path d="M 32.171875 -5.078125 
Q 28.375 -14.84375 24.75 -17.8125 
Q 21.140625 -20.796875 15.09375 -20.796875 
L 7.90625 -20.796875 
L 7.90625 -13.28125 
L 13.1875 -13.28125 
Q 16.890625 -13.28125 18.9375 -11.515625 
Q 21 -9.765625 23.484375 -3.21875 
L 25.09375 0.875 
L 2.984375 54.6875 
L 12.5 54.6875 
L 29.59375 11.921875 
L 46.6875 54.6875 
L 56.203125 54.6875 
z
" id="DejaVuSans-121"/>
     <path id="DejaVuSans-32"/>
     <path d="M 37.109375 75.984375 
L 37.109375 68.5 
L 28.515625 68.5 
Q 23.6875 68.5 21.796875 66.546875 
Q 19.921875 64.59375 19.921875 59.515625 
L 19.921875 54.6875 
L 34.71875 54.6875 
L 34.71875 47.703125 
L 19.921875 47.703125 
L 19.921875 0 
L 10.890625 0 
L 10.890625 47.703125 
L 2.296875 47.703125 
L 2.296875 54.6875 
L 10.890625 54.6875 
L 10.890625 58.5 
Q 10.890625 67.625 15.140625 71.796875 
Q 19.390625 75.984375 28.609375 75.984375 
z
" id="DejaVuSans-102"/>
     <path d="M 45.40625 46.390625 
L 45.40625 75.984375 
L 54.390625 75.984375 
L 54.390625 0 
L 45.40625 0 
L 45.40625 8.203125 
Q 42.578125 3.328125 38.25 0.953125 
Q 33.9375 -1.421875 27.875 -1.421875 
Q 17.96875 -1.421875 11.734375 6.484375 
Q 5.515625 14.40625 5.515625 27.296875 
Q 5.515625 40.1875 11.734375 48.09375 
Q 17.96875 56 27.875 56 
Q 33.9375 56 38.25 53.625 
Q 42.578125 51.265625 45.40625 46.390625 
z
M 14.796875 27.296875 
Q 14.796875 17.390625 18.875 11.75 
Q 22.953125 6.109375 30.078125 6.109375 
Q 37.203125 6.109375 41.296875 11.75 
Q 45.40625 17.390625 45.40625 27.296875 
Q 45.40625 37.203125 41.296875 42.84375 
Q 37.203125 48.484375 30.078125 48.484375 
Q 22.953125 48.484375 18.875 42.84375 
Q 14.796875 37.203125 14.796875 27.296875 
z
" id="DejaVuSans-100"/>
    </defs>
    <g transform="translate(278.815781 50.8512)scale(0.22 -0.22)">
     <use xlink:href="#DejaVuSans-83"/>
     <use x="63.476562" xlink:href="#DejaVuSans-101"/>
     <use x="125" xlink:href="#DejaVuSans-108"/>
     <use x="152.783203" xlink:href="#DejaVuSans-101"/>
     <use x="214.306641" xlink:href="#DejaVuSans-99"/>
     <use x="269.287109" xlink:href="#DejaVuSans-116"/>
     <use x="308.496094" xlink:href="#DejaVuSans-105"/>
     <use x="336.279297" xlink:href="#DejaVuSans-118"/>
     <use x="395.458984" xlink:href="#DejaVuSans-105"/>
     <use x="423.242188" xlink:href="#DejaVuSans-116"/>
     <use x="462.451172" xlink:href="#DejaVuSans-121"/>
     <use x="521.630859" xlink:href="#DejaVuSans-32"/>
     <use x="553.417969" xlink:href="#DejaVuSans-111"/>
     <use x="614.599609" xlink:href="#DejaVuSans-102"/>
     <use x="649.804688" xlink:href="#DejaVuSans-32"/>
     <use x="681.591797" xlink:href="#DejaVuSans-101"/>
     <use x="743.115234" xlink:href="#DejaVuSans-118"/>
     <use x="802.294922" xlink:href="#DejaVuSans-111"/>
     <use x="863.476562" xlink:href="#DejaVuSans-108"/>
     <use x="891.259766" xlink:href="#DejaVuSans-118"/>
     <use x="950.439453" xlink:href="#DejaVuSans-101"/>
     <use x="1011.962891" xlink:href="#DejaVuSans-100"/>
     <use x="1075.439453" xlink:href="#DejaVuSans-32"/>
     <use x="1107.226562" xlink:href="#DejaVuSans-115"/>
     <use x="1159.326172" xlink:href="#DejaVuSans-101"/>
     <use x="1220.849609" xlink:href="#DejaVuSans-110"/>
     <use x="1284.228516" xlink:href="#DejaVuSans-115"/>
     <use x="1336.328125" xlink:href="#DejaVuSans-111"/>
     <use x="1397.509766" xlink:href="#DejaVuSans-114"/>
     <use x="1438.623047" xlink:href="#DejaVuSans-115"/>
    </g>
   </g>
   <g id="legend_1">
    <g id="patch_23">
     <path d="M 122 159.691825 
L 404.30625 159.691825 
Q 408.30625 159.691825 408.30625 155.691825 
L 408.30625 70.8512 
Q 408.30625 66.8512 404.30625 66.8512 
L 122 66.8512 
Q 118 66.8512 118 70.8512 
L 118 155.691825 
Q 118 159.691825 122 159.691825 
z
" style="fill:#ffffff;opacity:0.8;stroke:#cccccc;stroke-linejoin:miter;"/>
    </g>
    <g id="patch_24">
     <path d="M 126 89.65745 
L 166 89.65745 
L 166 75.65745 
L 126 75.65745 
z
" style="fill:#a6a6a6;stroke:#000000;stroke-linejoin:miter;"/>
    </g>
    <g id="text_16">
     <!-- DMSO -->
     <defs>
      <path d="M 14.265625 8.296875 
L 31.734375 8.296875 
Q 49.421875 8.296875 53.21875 26.765625 
Q 54.109375 31.25 54.109375 37.015625 
Q 54.109375 61.921875 37.015625 65.234375 
Q 34.46875 65.71875 31.734375 65.71875 
L 14.265625 65.71875 
z
M 4.890625 0 
L 4.890625 74.03125 
L 33.40625 74.03125 
Q 49.90625 74.03125 57.90625 60.640625 
Q 63.578125 51.265625 63.578125 37.109375 
Q 63.578125 15.921875 51.765625 6.15625 
Q 44.34375 0 33.40625 0 
z
" id="Gargi-68"/>
      <path d="M 44.828125 0 
L 34.859375 0 
L 13.875 62.015625 
L 13.875 0 
L 4.890625 0 
L 4.890625 74.03125 
L 17.96875 74.03125 
L 39.9375 9.578125 
L 61.421875 74.03125 
L 74.515625 74.03125 
L 74.515625 0 
L 65.625 0 
L 65.625 62.015625 
z
" id="Gargi-77"/>
      <path d="M 58.59375 53.90625 
L 49.609375 53.90625 
Q 49.609375 64.84375 38.484375 67.78125 
Q 35.0625 68.65625 31.15625 68.65625 
Q 20.515625 68.5625 16.40625 62.40625 
Q 14.65625 59.765625 14.65625 56.34375 
Q 14.65625 50.59375 20.125 47.953125 
Q 22.5625 46.78125 26.765625 45.515625 
L 45.40625 40.71875 
Q 57.515625 37.40625 60.453125 27.734375 
Q 61.140625 25.484375 61.140625 22.46875 
Q 61.140625 14.15625 55.28125 7.8125 
L 53.03125 5.859375 
Q 45.609375 0.296875 32.125 0.296875 
Q 15.234375 0.296875 7.328125 10.640625 
Q 2.9375 16.40625 2.9375 25.6875 
L 11.8125 25.6875 
L 12.203125 21.875 
Q 12.890625 17.78125 15.71875 14.546875 
Q 21.09375 8.40625 32.8125 8.40625 
Q 41.796875 8.40625 46.390625 11.625 
Q 50.875 14.75 51.5625 20.21875 
Q 51.65625 21 51.65625 21.578125 
Q 51.65625 28.90625 40.53125 32.625 
Q 39.359375 33.015625 38.09375 33.296875 
L 19.734375 38.09375 
Q 5.171875 41.890625 5.171875 55.078125 
Q 5.171875 67.484375 15.71875 72.953125 
Q 22.265625 76.375 31.453125 76.375 
Q 49.421875 76.375 55.765625 65.234375 
Q 58.59375 60.359375 58.59375 53.90625 
z
" id="Gargi-83"/>
      <path d="M 38.578125 68.171875 
Q 25.203125 68.171875 17.96875 58.015625 
Q 12.3125 50.09375 12.3125 38.28125 
Q 12.3125 22.65625 21.96875 14.359375 
Q 28.90625 8.40625 38.375 8.40625 
Q 38.484375 8.40625 38.671875 8.40625 
Q 51.65625 8.40625 59.078125 18.359375 
Q 64.9375 26.265625 64.9375 37.890625 
Q 64.9375 54.390625 54.984375 62.59375 
Q 48.25 68.171875 38.578125 68.171875 
z
M 38.578125 76.375 
Q 56.25 76.375 66.015625 64.15625 
Q 74.421875 53.71875 74.421875 37.703125 
Q 74.421875 22.953125 66.015625 12.5 
Q 63.96875 9.859375 61.625 7.90625 
Q 52.34375 0.296875 38.671875 0.296875 
Q 21.78125 0.296875 11.71875 12.015625 
Q 2.9375 22.265625 2.9375 38.28125 
Q 2.9375 56.734375 14.15625 67.28125 
Q 23.828125 76.375 38.578125 76.375 
z
" id="Gargi-79"/>
     </defs>
     <g transform="translate(182 89.65745)scale(0.2 -0.2)">
      <use xlink:href="#Gargi-68"/>
      <use x="68.457031" xlink:href="#Gargi-77"/>
      <use x="147.851562" xlink:href="#Gargi-83"/>
      <use x="211.914062" xlink:href="#Gargi-79"/>
     </g>
    </g>
    <g id="patch_25">
     <path d="M 126 118.466825 
L 166 118.466825 
L 166 104.466825 
L 126 104.466825 
z
" style="fill:#ff5964;stroke:#000000;stroke-linejoin:miter;"/>
    </g>
    <g id="text_17">
     <!-- Norbelladine -->
     <defs>
      <path d="M 62.796875 74.03125 
L 62.796875 0 
L 52.15625 0 
L 13.875 60.0625 
L 13.875 0 
L 4.890625 0 
L 4.890625 74.03125 
L 15.140625 74.03125 
L 53.8125 13.484375 
L 53.8125 74.03125 
z
" id="Gargi-78"/>
      <path d="M 27.046875 49.21875 
Q 17.578125 49.21875 13.765625 39.9375 
Q 11.8125 35.0625 11.8125 28.515625 
Q 11.8125 14.65625 19.734375 9.765625 
Q 22.859375 7.8125 27.046875 7.8125 
Q 36.234375 7.8125 40.140625 16.796875 
Q 42.28125 21.578125 42.28125 28.21875 
Q 42.28125 42.96875 33.984375 47.65625 
Q 30.859375 49.21875 27.046875 49.21875 
z
M 26.953125 57.125 
Q 42.28125 57.125 48.140625 43.953125 
Q 51.078125 37.3125 51.078125 28.125 
Q 51.078125 11.140625 40.71875 4 
Q 35.0625 0 27.046875 0 
Q 12.40625 0 6.34375 12.109375 
Q 2.9375 18.953125 2.9375 28.515625 
Q 2.9375 46.1875 13.671875 53.328125 
Q 19.234375 57.125 26.953125 57.125 
z
" id="Gargi-111"/>
      <path d="M 4.890625 53.21875 
L 12.703125 53.21875 
L 12.703125 43.5625 
Q 18.5625 53.03125 24.421875 54.390625 
Q 25.78125 54.78125 27.25 54.78125 
Q 28.328125 54.78125 30.46875 54.390625 
L 30.46875 45.796875 
Q 23.140625 45.703125 20.015625 43.5625 
L 19.34375 43.171875 
Q 13.375 38.765625 13.375 27.640625 
L 13.375 0 
L 4.890625 0 
z
" id="Gargi-114"/>
      <path d="M 26.171875 49.03125 
Q 17.78125 49.03125 13.765625 40.53125 
Q 11.328125 35.359375 11.328125 28.421875 
Q 11.328125 15.71875 18.359375 10.453125 
Q 21.78125 7.8125 26.171875 7.8125 
Q 34.765625 7.8125 38.96875 15.828125 
Q 41.703125 21 41.703125 28.125 
Q 41.703125 41.015625 34.46875 46.390625 
Q 30.859375 49.03125 26.171875 49.03125 
z
M 2.9375 76.265625 
L 11.328125 76.265625 
L 11.328125 48.25 
Q 17.1875 57.03125 27.828125 57.03125 
Q 40.828125 57.03125 46.78125 46 
Q 50.59375 39.15625 50.59375 29.109375 
Q 50.59375 12.703125 41.3125 4.890625 
Q 35.546875 -0.09375 27.4375 -0.09375 
Q 16.609375 -0.09375 10.546875 9.078125 
L 10.546875 2.25 
L 2.9375 2.25 
z
" id="Gargi-98"/>
      <path d="M 11.921875 32.90625 
L 41.796875 32.90625 
Q 41.890625 33.109375 41.890625 33.5 
Q 41.890625 41.703125 35.9375 46.1875 
Q 32.03125 49.125 27.15625 49.125 
Q 18.5625 49.125 14.359375 41.5 
Q 12.3125 37.890625 11.921875 32.90625 
z
M 50.984375 25.984375 
L 11.71875 25.984375 
Q 11.8125 18.65625 14.546875 14.65625 
Q 18.953125 7.71875 27.34375 7.71875 
Q 37.703125 7.71875 41.3125 18.359375 
L 49.8125 18.359375 
Q 47.5625 6.15625 37.015625 1.765625 
Q 32.515625 -0.09375 27.046875 -0.09375 
Q 13.28125 -0.09375 6.84375 11.03125 
Q 2.9375 17.96875 2.9375 28.125 
Q 2.9375 44.234375 12.40625 52.046875 
Q 18.5625 57.03125 27.25 57.03125 
Q 38.96875 57.03125 45.515625 48.640625 
Q 47.5625 46.09375 48.828125 42.96875 
Q 50.984375 37.40625 50.984375 25.984375 
z
" id="Gargi-101"/>
      <path d="M 15.328125 74.03125 
L 15.328125 0 
L 6.84375 0 
L 6.84375 74.03125 
z
" id="Gargi-108"/>
      <path d="M 38.1875 19.140625 
L 38.1875 28.609375 
Q 34.859375 27.15625 26.5625 25.984375 
Q 25.6875 25.875 24.515625 25.6875 
Q 13.765625 24.21875 12.109375 18.65625 
Q 11.71875 17.484375 11.71875 15.921875 
Q 11.71875 9.375 18.5625 7.8125 
Q 20.125 7.421875 22.171875 7.421875 
Q 29.203125 7.421875 34.765625 12.203125 
Q 38.1875 15.140625 38.1875 19.140625 
z
M 52.9375 7.328125 
L 52.9375 0.875 
Q 49.421875 0 47.171875 0 
Q 39.9375 0 38.671875 6.453125 
L 38.484375 7.8125 
Q 29.59375 0 20.40625 0 
Q 9.1875 0 4.78125 7.625 
Q 2.9375 11.140625 2.9375 15.71875 
Q 2.9375 26.078125 12.203125 29.984375 
Q 15.921875 31.453125 25.484375 32.71875 
L 29.296875 33.203125 
Q 36.71875 34.1875 37.796875 37.109375 
Q 38.1875 37.890625 38.1875 39.0625 
L 38.1875 41.3125 
Q 38.1875 47.859375 29.890625 49.03125 
Q 28.21875 49.21875 26.265625 49.21875 
Q 15.828125 49.21875 14.0625 41.609375 
Q 13.875 40.71875 13.765625 39.84375 
L 5.28125 39.84375 
Q 5.5625 47.171875 8.890625 50.875 
Q 14.453125 57.125 26.5625 57.125 
Q 44.4375 57.125 46.390625 45.3125 
Q 46.578125 43.953125 46.578125 42.578125 
L 46.578125 11.328125 
Q 46.578125 7.125 51.171875 7.125 
Q 52.046875 7.125 52.9375 7.328125 
z
" id="Gargi-97"/>
      <path d="M 31.15625 49.03125 
Q 22.46875 49.03125 18.359375 40.71875 
Q 15.71875 35.640625 15.71875 28.421875 
Q 15.71875 16.015625 22.75 10.546875 
Q 26.46875 7.8125 31.25 7.8125 
Q 39.65625 7.8125 43.65625 16.109375 
Q 46 21.1875 46 28.21875 
Q 46 41.5 38.765625 46.78125 
Q 35.359375 49.03125 31.15625 49.03125 
z
M 54.5 76.265625 
L 54.5 2.25 
L 46.96875 2.25 
L 46.96875 9.28125 
Q 41.109375 0 32.328125 0 
Q 31.25 0 29.984375 -0.09375 
Q 29.109375 -0.203125 28.125 -0.203125 
Q 16.796875 -0.203125 10.75 11.328125 
Q 6.84375 18.453125 6.84375 29 
Q 6.84375 44.625 15.921875 52.25 
Q 21.6875 57.03125 29.6875 57.03125 
Q 40.625 57.03125 46 48.734375 
L 46 76.265625 
z
" id="Gargi-100"/>
      <path d="M 15.328125 74.03125 
L 15.328125 63.375 
L 6.84375 63.375 
L 6.84375 74.03125 
z
M 15.328125 53.21875 
L 15.328125 0 
L 6.9375 0 
L 6.9375 53.21875 
z
" id="Gargi-105"/>
      <path d="M 4.890625 53.21875 
L 12.703125 53.21875 
L 12.703125 44.234375 
Q 18.171875 52.9375 25.875 54.296875 
Q 27.9375 54.78125 30.375 54.78125 
Q 41.015625 54.78125 45.3125 47.65625 
Q 47.171875 44.34375 47.171875 40.234375 
L 47.171875 0 
L 38.765625 0 
L 38.765625 36.921875 
Q 38.765625 43.953125 32.8125 46.390625 
Q 30.5625 47.359375 27.828125 47.359375 
Q 19.234375 47.359375 15.53125 39.546875 
Q 13.375 35.25 13.375 29.390625 
L 13.375 0 
L 4.890625 0 
z
" id="Gargi-110"/>
     </defs>
     <g transform="translate(182 118.466825)scale(0.2 -0.2)">
      <use xlink:href="#Gargi-78"/>
      <use x="67.675781" xlink:href="#Gargi-111"/>
      <use x="121.679688" xlink:href="#Gargi-114"/>
      <use x="157.03125" xlink:href="#Gargi-98"/>
      <use x="216.40625" xlink:href="#Gargi-101"/>
      <use x="272.265625" xlink:href="#Gargi-108"/>
      <use x="294.433594" xlink:href="#Gargi-108"/>
      <use x="316.601562" xlink:href="#Gargi-97"/>
      <use x="374.414062" xlink:href="#Gargi-100"/>
      <use x="431.835938" xlink:href="#Gargi-105"/>
      <use x="454.003906" xlink:href="#Gargi-110"/>
      <use x="506.054688" xlink:href="#Gargi-101"/>
     </g>
    </g>
    <g id="patch_26">
     <path d="M 126 147.6887 
L 166 147.6887 
L 166 133.6887 
L 126 133.6887 
z
" style="fill:#ff70de;stroke:#000000;stroke-linejoin:miter;"/>
    </g>
    <g id="text_18">
     <!-- 4-Omethyl-norbelladine -->
     <defs>
      <path d="M 37.203125 25.296875 
L 37.203125 56.734375 
L 14.65625 25.296875 
z
M 37.203125 17.28125 
L 6.84375 17.28125 
L 6.84375 26.765625 
L 39.546875 71.96875 
L 46.1875 71.96875 
L 46.1875 25.296875 
L 56.84375 25.296875 
L 56.84375 17.28125 
L 46.1875 17.28125 
L 46.1875 0 
L 37.203125 0 
z
" id="Gargi-52"/>
      <path d="M 28.8125 31.640625 
L 28.8125 24.421875 
L 4.6875 24.421875 
L 4.6875 31.640625 
z
" id="Gargi-45"/>
      <path d="M 4.890625 53.21875 
L 12.703125 53.21875 
L 12.703125 45.703125 
Q 18.171875 53.421875 25.6875 54.5 
Q 27.25 54.78125 29 54.78125 
Q 38.09375 54.78125 42.484375 48.140625 
Q 42.96875 47.46875 43.359375 46.578125 
Q 48.828125 53.21875 55.28125 54.296875 
Q 57.234375 54.78125 59.671875 54.78125 
Q 72.078125 54.78125 74.609375 44.828125 
Q 75.09375 42.578125 75.09375 39.9375 
L 75.09375 0 
L 66.609375 0 
L 66.609375 36.625 
Q 66.609375 44.921875 60.25 46.78125 
Q 58.59375 47.359375 56.734375 47.359375 
Q 50.484375 47.359375 46.6875 41.609375 
Q 44.234375 37.984375 44.234375 33.40625 
L 44.234375 0 
L 35.75 0 
L 35.75 36.625 
Q 35.75 45.515625 28.515625 47.078125 
Q 27.34375 47.359375 25.875 47.359375 
Q 19.734375 47.359375 15.921875 41.796875 
Q 13.375 38.09375 13.375 33.40625 
L 13.375 0 
L 4.890625 0 
z
" id="Gargi-109"/>
      <path d="M 30.171875 55.46875 
L 30.171875 48.53125 
L 21.484375 48.53125 
L 21.484375 12.109375 
Q 21.484375 8.203125 23.734375 7.625 
Q 24.609375 7.328125 26.171875 7.328125 
Q 28.71875 7.328125 30.171875 7.71875 
L 30.171875 0.59375 
Q 26.265625 -0.09375 23.25 -0.09375 
Q 14.265625 -0.09375 13.09375 6.734375 
Q 12.984375 7.421875 12.984375 8.296875 
L 12.984375 48.53125 
L 5.859375 48.53125 
L 5.859375 55.46875 
L 12.984375 55.46875 
L 12.984375 70.125 
L 21.484375 70.125 
L 21.484375 55.46875 
z
" id="Gargi-116"/>
      <path d="M 4.890625 74.03125 
L 13.28125 74.03125 
L 13.28125 45.90625 
Q 18.75 53.03125 25.484375 54.296875 
Q 27.640625 54.78125 30.375 54.78125 
Q 41.5 54.78125 45.515625 47.265625 
Q 47.078125 44.140625 47.078125 40.234375 
L 47.078125 0 
L 38.671875 0 
L 38.671875 36.921875 
Q 38.671875 42.484375 35.25 44.921875 
Q 31.9375 47.359375 27.734375 47.359375 
Q 19.140625 47.359375 15.4375 39.546875 
Q 13.28125 35.25 13.28125 29.390625 
L 13.28125 0 
L 4.890625 0 
z
" id="Gargi-104"/>
      <path d="M 39.359375 55.671875 
L 48.4375 55.671875 
L 24.8125 -8.6875 
Q 22.5625 -14.546875 19.046875 -17.1875 
Q 15.53125 -19.734375 11.03125 -19.734375 
Q 7.90625 -19.734375 5.375 -18.359375 
L 5.375 -10.75 
Q 8.109375 -11.328125 9.859375 -11.328125 
Q 14.453125 -11.328125 16.21875 -7.328125 
Q 16.5 -6.84375 16.703125 -6.15625 
L 19.921875 2.25 
L 1.953125 55.671875 
L 10.9375 55.671875 
L 24.609375 14.265625 
z
" id="Gargi-121"/>
     </defs>
     <g transform="translate(182 147.6887)scale(0.2 -0.2)">
      <use xlink:href="#Gargi-52"/>
      <use x="63.671875" xlink:href="#Gargi-45"/>
      <use x="116.601562" xlink:href="#Gargi-79"/>
      <use x="193.945312" xlink:href="#Gargi-109"/>
      <use x="273.925781" xlink:href="#Gargi-101"/>
      <use x="329.785156" xlink:href="#Gargi-116"/>
      <use x="365.820312" xlink:href="#Gargi-104"/>
      <use x="419.726562" xlink:href="#Gargi-121"/>
      <use x="470.117188" xlink:href="#Gargi-108"/>
      <use x="492.285156" xlink:href="#Gargi-45"/>
      <use x="545.214844" xlink:href="#Gargi-110"/>
      <use x="597.265625" xlink:href="#Gargi-111"/>
      <use x="651.269531" xlink:href="#Gargi-114"/>
      <use x="686.621094" xlink:href="#Gargi-98"/>
      <use x="745.996094" xlink:href="#Gargi-101"/>
      <use x="801.855469" xlink:href="#Gargi-108"/>
      <use x="824.023438" xlink:href="#Gargi-108"/>
      <use x="846.191406" xlink:href="#Gargi-97"/>
      <use x="904.003906" xlink:href="#Gargi-100"/>
      <use x="961.425781" xlink:href="#Gargi-105"/>
      <use x="983.59375" xlink:href="#Gargi-110"/>
      <use x="1035.644531" xlink:href="#Gargi-101"/>
     </g>
    </g>
   </g>
  </g>
 </g>
 <defs>
  <clipPath id="p1aa560012e">
   <rect height="364.7952" width="669.6" x="108" y="56.8512"/>
  </clipPath>
 </defs>
</svg>
