<?xml version="1.0" encoding="utf-8" standalone="no"?>
<!DOCTYPE svg PUBLIC "-//W3C//DTD SVG 1.1//EN"
  "http://www.w3.org/Graphics/SVG/1.1/DTD/svg11.dtd">
<!-- Created with matplotlib (https://matplotlib.org/) -->
<svg height="473.76pt" version="1.1" viewBox="0 0 864 473.76" width="864pt" xmlns="http://www.w3.org/2000/svg" xmlns:xlink="http://www.w3.org/1999/xlink">
 <defs>
  <style type="text/css">
*{stroke-linecap:butt;stroke-linejoin:round;}
  </style>
 </defs>
 <g id="figure_1">
  <g id="patch_1">
   <path d="M 0 473.76 
L 864 473.76 
L 864 0 
L 0 0 
z
" style="fill:#ffffff;"/>
  </g>
  <g id="axes_1">
   <g id="patch_2">
    <path d="M 108 421.6464 
L 777.6 421.6464 
L 777.6 56.8512 
L 108 56.8512 
z
" style="fill:#ffffff;"/>
   </g>
   <g id="patch_3">
    <path clip-path="url(#p8ea71dd7d6)" d="M 138.436364 421.6464 
L 171.519368 421.6464 
L 171.519368 417.657216 
L 138.436364 417.657216 
z
" style="fill:#3399ff;stroke:#000000;stroke-linejoin:miter;stroke-width:3;"/>
   </g>
   <g id="patch_4">
    <path clip-path="url(#p8ea71dd7d6)" d="M 297.234783 421.6464 
L 330.317787 421.6464 
L 330.317787 417.429483 
L 297.234783 417.429483 
z
" style="fill:#3399ff;stroke:#000000;stroke-linejoin:miter;stroke-width:3;"/>
   </g>
   <g id="patch_5">
    <path clip-path="url(#p8ea71dd7d6)" d="M 456.033202 421.6464 
L 489.116206 421.6464 
L 489.116206 417.392241 
L 456.033202 417.392241 
z
" style="fill:#3399ff;stroke:#000000;stroke-linejoin:miter;stroke-width:3;"/>
   </g>
   <g id="patch_6">
    <path clip-path="url(#p8ea71dd7d6)" d="M 614.831621 421.6464 
L 647.914625 421.6464 
L 647.914625 418.312757 
L 614.831621 418.312757 
z
" style="fill:#3399ff;stroke:#000000;stroke-linejoin:miter;stroke-width:3;"/>
   </g>
   <g id="patch_7">
    <path clip-path="url(#p8ea71dd7d6)" d="M 171.519368 421.6464 
L 204.602372 421.6464 
L 204.602372 417.721082 
L 171.519368 417.721082 
z
" style="fill:#ffff33;stroke:#000000;stroke-linejoin:miter;stroke-width:3;"/>
   </g>
   <g id="patch_8">
    <path clip-path="url(#p8ea71dd7d6)" d="M 330.317787 421.6464 
L 363.400791 421.6464 
L 363.400791 399.615119 
L 330.317787 399.615119 
z
" style="fill:#ffff33;stroke:#000000;stroke-linejoin:miter;stroke-width:3;"/>
   </g>
   <g id="patch_9">
    <path clip-path="url(#p8ea71dd7d6)" d="M 489.116206 421.6464 
L 522.199209 421.6464 
L 522.199209 393.441308 
L 489.116206 393.441308 
z
" style="fill:#ffff33;stroke:#000000;stroke-linejoin:miter;stroke-width:3;"/>
   </g>
   <g id="patch_10">
    <path clip-path="url(#p8ea71dd7d6)" d="M 647.914625 421.6464 
L 680.997628 421.6464 
L 680.997628 395.119323 
L 647.914625 395.119323 
z
" style="fill:#ffff33;stroke:#000000;stroke-linejoin:miter;stroke-width:3;"/>
   </g>
   <g id="patch_11">
    <path clip-path="url(#p8ea71dd7d6)" d="M 204.602372 421.6464 
L 237.685375 421.6464 
L 237.685375 417.104291 
L 204.602372 417.104291 
z
" style="fill:#ffaa17;stroke:#000000;stroke-linejoin:miter;stroke-width:3;"/>
   </g>
   <g id="patch_12">
    <path clip-path="url(#p8ea71dd7d6)" d="M 363.400791 421.6464 
L 396.483794 421.6464 
L 396.483794 340.487649 
L 363.400791 340.487649 
z
" style="fill:#ffaa17;stroke:#000000;stroke-linejoin:miter;stroke-width:3;"/>
   </g>
   <g id="patch_13">
    <path clip-path="url(#p8ea71dd7d6)" d="M 522.199209 421.6464 
L 555.282213 421.6464 
L 555.282213 320.265521 
L 522.199209 320.265521 
z
" style="fill:#ffaa17;stroke:#000000;stroke-linejoin:miter;stroke-width:3;"/>
   </g>
   <g id="patch_14">
    <path clip-path="url(#p8ea71dd7d6)" d="M 680.997628 421.6464 
L 714.080632 421.6464 
L 714.080632 232.521171 
L 680.997628 232.521171 
z
" style="fill:#ffaa17;stroke:#000000;stroke-linejoin:miter;stroke-width:3;"/>
   </g>
   <g id="patch_15">
    <path clip-path="url(#p8ea71dd7d6)" d="M 237.685375 421.6464 
L 270.768379 421.6464 
L 270.768379 410.741071 
L 237.685375 410.741071 
z
" style="fill:#ff1f17;stroke:#000000;stroke-linejoin:miter;stroke-width:3;"/>
   </g>
   <g id="patch_16">
    <path clip-path="url(#p8ea71dd7d6)" d="M 396.483794 421.6464 
L 429.566798 421.6464 
L 429.566798 289.93849 
L 396.483794 289.93849 
z
" style="fill:#ff1f17;stroke:#000000;stroke-linejoin:miter;stroke-width:3;"/>
   </g>
   <g id="patch_17">
    <path clip-path="url(#p8ea71dd7d6)" d="M 555.282213 421.6464 
L 588.365217 421.6464 
L 588.365217 264.542505 
L 555.282213 264.542505 
z
" style="fill:#ff1f17;stroke:#000000;stroke-linejoin:miter;stroke-width:3;"/>
   </g>
   <g id="patch_18">
    <path clip-path="url(#p8ea71dd7d6)" d="M 714.080632 421.6464 
L 747.163636 421.6464 
L 747.163636 94.115691 
L 714.080632 94.115691 
z
" style="fill:#ff1f17;stroke:#000000;stroke-linejoin:miter;stroke-width:3;"/>
   </g>
   <g id="LineCollection_1">
    <path clip-path="url(#p8ea71dd7d6)" d="M 154.977866 417.800991 
L 154.977866 417.513442 
" style="fill:none;stroke:#000000;stroke-width:2;"/>
    <path clip-path="url(#p8ea71dd7d6)" d="M 313.776285 417.574591 
L 313.776285 417.284376 
" style="fill:none;stroke:#000000;stroke-width:2;"/>
    <path clip-path="url(#p8ea71dd7d6)" d="M 472.574704 417.553679 
L 472.574704 417.230804 
" style="fill:none;stroke:#000000;stroke-width:2;"/>
    <path clip-path="url(#p8ea71dd7d6)" d="M 631.373123 418.396422 
L 631.373123 418.229092 
" style="fill:none;stroke:#000000;stroke-width:2;"/>
   </g>
   <g id="LineCollection_2">
    <path clip-path="url(#p8ea71dd7d6)" d="M 188.06087 417.879608 
L 188.06087 417.562556 
" style="fill:none;stroke:#000000;stroke-width:2;"/>
    <path clip-path="url(#p8ea71dd7d6)" d="M 346.859289 401.402781 
L 346.859289 397.827457 
" style="fill:none;stroke:#000000;stroke-width:2;"/>
    <path clip-path="url(#p8ea71dd7d6)" d="M 505.657708 396.254896 
L 505.657708 390.627721 
" style="fill:none;stroke:#000000;stroke-width:2;"/>
    <path clip-path="url(#p8ea71dd7d6)" d="M 664.456126 406.391316 
L 664.456126 383.84733 
" style="fill:none;stroke:#000000;stroke-width:2;"/>
   </g>
   <g id="LineCollection_3">
    <path clip-path="url(#p8ea71dd7d6)" d="M 221.143874 417.518868 
L 221.143874 416.689714 
" style="fill:none;stroke:#000000;stroke-width:2;"/>
    <path clip-path="url(#p8ea71dd7d6)" d="M 379.942292 340.673903 
L 379.942292 340.301395 
" style="fill:none;stroke:#000000;stroke-width:2;"/>
    <path clip-path="url(#p8ea71dd7d6)" d="M 538.740711 323.809252 
L 538.740711 316.721789 
" style="fill:none;stroke:#000000;stroke-width:2;"/>
    <path clip-path="url(#p8ea71dd7d6)" d="M 697.53913 246.614529 
L 697.53913 218.427812 
" style="fill:none;stroke:#000000;stroke-width:2;"/>
   </g>
   <g id="LineCollection_4">
    <path clip-path="url(#p8ea71dd7d6)" d="M 254.226877 412.022559 
L 254.226877 409.459584 
" style="fill:none;stroke:#000000;stroke-width:2;"/>
    <path clip-path="url(#p8ea71dd7d6)" d="M 413.025296 291.754607 
L 413.025296 288.122374 
" style="fill:none;stroke:#000000;stroke-width:2;"/>
    <path clip-path="url(#p8ea71dd7d6)" d="M 571.823715 268.988161 
L 571.823715 260.09685 
" style="fill:none;stroke:#000000;stroke-width:2;"/>
    <path clip-path="url(#p8ea71dd7d6)" d="M 730.622134 114.008982 
L 730.622134 74.2224 
" style="fill:none;stroke:#000000;stroke-width:2;"/>
   </g>
   <g id="line2d_1">
    <defs>
     <path d="M 5 0 
L -5 -0 
" id="m9af6bbec58" style="stroke:#000000;stroke-width:2;"/>
    </defs>
    <g clip-path="url(#p8ea71dd7d6)">
     <use style="stroke:#000000;stroke-width:2;" x="154.977866" xlink:href="#m9af6bbec58" y="417.800991"/>
     <use style="stroke:#000000;stroke-width:2;" x="313.776285" xlink:href="#m9af6bbec58" y="417.574591"/>
     <use style="stroke:#000000;stroke-width:2;" x="472.574704" xlink:href="#m9af6bbec58" y="417.553679"/>
     <use style="stroke:#000000;stroke-width:2;" x="631.373123" xlink:href="#m9af6bbec58" y="418.396422"/>
    </g>
   </g>
   <g id="line2d_2">
    <g clip-path="url(#p8ea71dd7d6)">
     <use style="stroke:#000000;stroke-width:2;" x="154.977866" xlink:href="#m9af6bbec58" y="417.513442"/>
     <use style="stroke:#000000;stroke-width:2;" x="313.776285" xlink:href="#m9af6bbec58" y="417.284376"/>
     <use style="stroke:#000000;stroke-width:2;" x="472.574704" xlink:href="#m9af6bbec58" y="417.230804"/>
     <use style="stroke:#000000;stroke-width:2;" x="631.373123" xlink:href="#m9af6bbec58" y="418.229092"/>
    </g>
   </g>
   <g id="line2d_3">
    <g clip-path="url(#p8ea71dd7d6)">
     <use style="stroke:#000000;stroke-width:2;" x="188.06087" xlink:href="#m9af6bbec58" y="417.879608"/>
     <use style="stroke:#000000;stroke-width:2;" x="346.859289" xlink:href="#m9af6bbec58" y="401.402781"/>
     <use style="stroke:#000000;stroke-width:2;" x="505.657708" xlink:href="#m9af6bbec58" y="396.254896"/>
     <use style="stroke:#000000;stroke-width:2;" x="664.456126" xlink:href="#m9af6bbec58" y="406.391316"/>
    </g>
   </g>
   <g id="line2d_4">
    <g clip-path="url(#p8ea71dd7d6)">
     <use style="stroke:#000000;stroke-width:2;" x="188.06087" xlink:href="#m9af6bbec58" y="417.562556"/>
     <use style="stroke:#000000;stroke-width:2;" x="346.859289" xlink:href="#m9af6bbec58" y="397.827457"/>
     <use style="stroke:#000000;stroke-width:2;" x="505.657708" xlink:href="#m9af6bbec58" y="390.627721"/>
     <use style="stroke:#000000;stroke-width:2;" x="664.456126" xlink:href="#m9af6bbec58" y="383.84733"/>
    </g>
   </g>
   <g id="line2d_5">
    <g clip-path="url(#p8ea71dd7d6)">
     <use style="stroke:#000000;stroke-width:2;" x="221.143874" xlink:href="#m9af6bbec58" y="417.518868"/>
     <use style="stroke:#000000;stroke-width:2;" x="379.942292" xlink:href="#m9af6bbec58" y="340.673903"/>
     <use style="stroke:#000000;stroke-width:2;" x="538.740711" xlink:href="#m9af6bbec58" y="323.809252"/>
     <use style="stroke:#000000;stroke-width:2;" x="697.53913" xlink:href="#m9af6bbec58" y="246.614529"/>
    </g>
   </g>
   <g id="line2d_6">
    <g clip-path="url(#p8ea71dd7d6)">
     <use style="stroke:#000000;stroke-width:2;" x="221.143874" xlink:href="#m9af6bbec58" y="416.689714"/>
     <use style="stroke:#000000;stroke-width:2;" x="379.942292" xlink:href="#m9af6bbec58" y="340.301395"/>
     <use style="stroke:#000000;stroke-width:2;" x="538.740711" xlink:href="#m9af6bbec58" y="316.721789"/>
     <use style="stroke:#000000;stroke-width:2;" x="697.53913" xlink:href="#m9af6bbec58" y="218.427812"/>
    </g>
   </g>
   <g id="line2d_7">
    <g clip-path="url(#p8ea71dd7d6)">
     <use style="stroke:#000000;stroke-width:2;" x="254.226877" xlink:href="#m9af6bbec58" y="412.022559"/>
     <use style="stroke:#000000;stroke-width:2;" x="413.025296" xlink:href="#m9af6bbec58" y="291.754607"/>
     <use style="stroke:#000000;stroke-width:2;" x="571.823715" xlink:href="#m9af6bbec58" y="268.988161"/>
     <use style="stroke:#000000;stroke-width:2;" x="730.622134" xlink:href="#m9af6bbec58" y="114.008982"/>
    </g>
   </g>
   <g id="line2d_8">
    <g clip-path="url(#p8ea71dd7d6)">
     <use style="stroke:#000000;stroke-width:2;" x="254.226877" xlink:href="#m9af6bbec58" y="409.459584"/>
     <use style="stroke:#000000;stroke-width:2;" x="413.025296" xlink:href="#m9af6bbec58" y="288.122374"/>
     <use style="stroke:#000000;stroke-width:2;" x="571.823715" xlink:href="#m9af6bbec58" y="260.09685"/>
     <use style="stroke:#000000;stroke-width:2;" x="730.622134" xlink:href="#m9af6bbec58" y="74.2224"/>
    </g>
   </g>
   <g id="matplotlib.axis_1">
    <g id="xtick_1">
     <g id="line2d_9">
      <defs>
       <path d="M 0 0 
L 0 2 
" id="m852f3ddfaf" style="stroke:#000000;"/>
      </defs>
      <g>
       <use style="stroke:#000000;" x="204.602372" xlink:href="#m852f3ddfaf" y="421.6464"/>
      </g>
     </g>
     <g id="text_1">
      <!-- TAA -->
      <defs>
       <path d="M -0.296875 72.90625 
L 61.375 72.90625 
L 61.375 64.59375 
L 35.5 64.59375 
L 35.5 0 
L 25.59375 0 
L 25.59375 64.59375 
L -0.296875 64.59375 
z
" id="DejaVuSans-84"/>
       <path d="M 34.1875 63.1875 
L 20.796875 26.90625 
L 47.609375 26.90625 
z
M 28.609375 72.90625 
L 39.796875 72.90625 
L 67.578125 0 
L 57.328125 0 
L 50.6875 18.703125 
L 17.828125 18.703125 
L 11.1875 0 
L 0.78125 0 
z
" id="DejaVuSans-65"/>
      </defs>
      <g transform="translate(186.799247 440.823588)scale(0.18 -0.18)">
       <use xlink:href="#DejaVuSans-84"/>
       <use x="60.974609" xlink:href="#DejaVuSans-65"/>
       <use x="129.414062" xlink:href="#DejaVuSans-65"/>
      </g>
     </g>
    </g>
    <g id="xtick_2">
     <g id="line2d_10">
      <g>
       <use style="stroke:#000000;" x="363.400791" xlink:href="#m852f3ddfaf" y="421.6464"/>
      </g>
     </g>
     <g id="text_2">
      <!-- 4OMT_weak -->
      <defs>
       <path d="M 37.796875 64.3125 
L 12.890625 25.390625 
L 37.796875 25.390625 
z
M 35.203125 72.90625 
L 47.609375 72.90625 
L 47.609375 25.390625 
L 58.015625 25.390625 
L 58.015625 17.1875 
L 47.609375 17.1875 
L 47.609375 0 
L 37.796875 0 
L 37.796875 17.1875 
L 4.890625 17.1875 
L 4.890625 26.703125 
z
" id="DejaVuSans-52"/>
       <path d="M 39.40625 66.21875 
Q 28.65625 66.21875 22.328125 58.203125 
Q 16.015625 50.203125 16.015625 36.375 
Q 16.015625 22.609375 22.328125 14.59375 
Q 28.65625 6.59375 39.40625 6.59375 
Q 50.140625 6.59375 56.421875 14.59375 
Q 62.703125 22.609375 62.703125 36.375 
Q 62.703125 50.203125 56.421875 58.203125 
Q 50.140625 66.21875 39.40625 66.21875 
z
M 39.40625 74.21875 
Q 54.734375 74.21875 63.90625 63.9375 
Q 73.09375 53.65625 73.09375 36.375 
Q 73.09375 19.140625 63.90625 8.859375 
Q 54.734375 -1.421875 39.40625 -1.421875 
Q 24.03125 -1.421875 14.8125 8.828125 
Q 5.609375 19.09375 5.609375 36.375 
Q 5.609375 53.65625 14.8125 63.9375 
Q 24.03125 74.21875 39.40625 74.21875 
z
" id="DejaVuSans-79"/>
       <path d="M 9.8125 72.90625 
L 24.515625 72.90625 
L 43.109375 23.296875 
L 61.8125 72.90625 
L 76.515625 72.90625 
L 76.515625 0 
L 66.890625 0 
L 66.890625 64.015625 
L 48.09375 14.015625 
L 38.1875 14.015625 
L 19.390625 64.015625 
L 19.390625 0 
L 9.8125 0 
z
" id="DejaVuSans-77"/>
       <path d="M 50.984375 -16.609375 
L 50.984375 -23.578125 
L -0.984375 -23.578125 
L -0.984375 -16.609375 
z
" id="DejaVuSans-95"/>
       <path d="M 4.203125 54.6875 
L 13.1875 54.6875 
L 24.421875 12.015625 
L 35.59375 54.6875 
L 46.1875 54.6875 
L 57.421875 12.015625 
L 68.609375 54.6875 
L 77.59375 54.6875 
L 63.28125 0 
L 52.6875 0 
L 40.921875 44.828125 
L 29.109375 0 
L 18.5 0 
z
" id="DejaVuSans-119"/>
       <path d="M 56.203125 29.59375 
L 56.203125 25.203125 
L 14.890625 25.203125 
Q 15.484375 15.921875 20.484375 11.0625 
Q 25.484375 6.203125 34.421875 6.203125 
Q 39.59375 6.203125 44.453125 7.46875 
Q 49.3125 8.734375 54.109375 11.28125 
L 54.109375 2.78125 
Q 49.265625 0.734375 44.1875 -0.34375 
Q 39.109375 -1.421875 33.890625 -1.421875 
Q 20.796875 -1.421875 13.15625 6.1875 
Q 5.515625 13.8125 5.515625 26.8125 
Q 5.515625 40.234375 12.765625 48.109375 
Q 20.015625 56 32.328125 56 
Q 43.359375 56 49.78125 48.890625 
Q 56.203125 41.796875 56.203125 29.59375 
z
M 47.21875 32.234375 
Q 47.125 39.59375 43.09375 43.984375 
Q 39.0625 48.390625 32.421875 48.390625 
Q 24.90625 48.390625 20.390625 44.140625 
Q 15.875 39.890625 15.1875 32.171875 
z
" id="DejaVuSans-101"/>
       <path d="M 34.28125 27.484375 
Q 23.390625 27.484375 19.1875 25 
Q 14.984375 22.515625 14.984375 16.5 
Q 14.984375 11.71875 18.140625 8.90625 
Q 21.296875 6.109375 26.703125 6.109375 
Q 34.1875 6.109375 38.703125 11.40625 
Q 43.21875 16.703125 43.21875 25.484375 
L 43.21875 27.484375 
z
M 52.203125 31.203125 
L 52.203125 0 
L 43.21875 0 
L 43.21875 8.296875 
Q 40.140625 3.328125 35.546875 0.953125 
Q 30.953125 -1.421875 24.3125 -1.421875 
Q 15.921875 -1.421875 10.953125 3.296875 
Q 6 8.015625 6 15.921875 
Q 6 25.140625 12.171875 29.828125 
Q 18.359375 34.515625 30.609375 34.515625 
L 43.21875 34.515625 
L 43.21875 35.40625 
Q 43.21875 41.609375 39.140625 45 
Q 35.0625 48.390625 27.6875 48.390625 
Q 23 48.390625 18.546875 47.265625 
Q 14.109375 46.140625 10.015625 43.890625 
L 10.015625 52.203125 
Q 14.9375 54.109375 19.578125 55.046875 
Q 24.21875 56 28.609375 56 
Q 40.484375 56 46.34375 49.84375 
Q 52.203125 43.703125 52.203125 31.203125 
z
" id="DejaVuSans-97"/>
       <path d="M 9.078125 75.984375 
L 18.109375 75.984375 
L 18.109375 31.109375 
L 44.921875 54.6875 
L 56.390625 54.6875 
L 27.390625 29.109375 
L 57.625 0 
L 45.90625 0 
L 18.109375 26.703125 
L 18.109375 0 
L 9.078125 0 
z
" id="DejaVuSans-107"/>
      </defs>
      <g transform="translate(309.202509 440.823588)scale(0.18 -0.18)">
       <use xlink:href="#DejaVuSans-52"/>
       <use x="63.623047" xlink:href="#DejaVuSans-79"/>
       <use x="142.333984" xlink:href="#DejaVuSans-77"/>
       <use x="228.613281" xlink:href="#DejaVuSans-84"/>
       <use x="289.697266" xlink:href="#DejaVuSans-95"/>
       <use x="339.697266" xlink:href="#DejaVuSans-119"/>
       <use x="421.484375" xlink:href="#DejaVuSans-101"/>
       <use x="483.007812" xlink:href="#DejaVuSans-97"/>
       <use x="544.287109" xlink:href="#DejaVuSans-107"/>
      </g>
     </g>
    </g>
    <g id="xtick_3">
     <g id="line2d_11">
      <g>
       <use style="stroke:#000000;" x="522.199209" xlink:href="#m852f3ddfaf" y="421.6464"/>
      </g>
     </g>
     <g id="text_3">
      <!-- 4OMT_medium -->
      <defs>
       <path d="M 52 44.1875 
Q 55.375 50.25 60.0625 53.125 
Q 64.75 56 71.09375 56 
Q 79.640625 56 84.28125 50.015625 
Q 88.921875 44.046875 88.921875 33.015625 
L 88.921875 0 
L 79.890625 0 
L 79.890625 32.71875 
Q 79.890625 40.578125 77.09375 44.375 
Q 74.3125 48.1875 68.609375 48.1875 
Q 61.625 48.1875 57.5625 43.546875 
Q 53.515625 38.921875 53.515625 30.90625 
L 53.515625 0 
L 44.484375 0 
L 44.484375 32.71875 
Q 44.484375 40.625 41.703125 44.40625 
Q 38.921875 48.1875 33.109375 48.1875 
Q 26.21875 48.1875 22.15625 43.53125 
Q 18.109375 38.875 18.109375 30.90625 
L 18.109375 0 
L 9.078125 0 
L 9.078125 54.6875 
L 18.109375 54.6875 
L 18.109375 46.1875 
Q 21.1875 51.21875 25.484375 53.609375 
Q 29.78125 56 35.6875 56 
Q 41.65625 56 45.828125 52.96875 
Q 50 49.953125 52 44.1875 
z
" id="DejaVuSans-109"/>
       <path d="M 45.40625 46.390625 
L 45.40625 75.984375 
L 54.390625 75.984375 
L 54.390625 0 
L 45.40625 0 
L 45.40625 8.203125 
Q 42.578125 3.328125 38.25 0.953125 
Q 33.9375 -1.421875 27.875 -1.421875 
Q 17.96875 -1.421875 11.734375 6.484375 
Q 5.515625 14.40625 5.515625 27.296875 
Q 5.515625 40.1875 11.734375 48.09375 
Q 17.96875 56 27.875 56 
Q 33.9375 56 38.25 53.625 
Q 42.578125 51.265625 45.40625 46.390625 
z
M 14.796875 27.296875 
Q 14.796875 17.390625 18.875 11.75 
Q 22.953125 6.109375 30.078125 6.109375 
Q 37.203125 6.109375 41.296875 11.75 
Q 45.40625 17.390625 45.40625 27.296875 
Q 45.40625 37.203125 41.296875 42.84375 
Q 37.203125 48.484375 30.078125 48.484375 
Q 22.953125 48.484375 18.875 42.84375 
Q 14.796875 37.203125 14.796875 27.296875 
z
" id="DejaVuSans-100"/>
       <path d="M 9.421875 54.6875 
L 18.40625 54.6875 
L 18.40625 0 
L 9.421875 0 
z
M 9.421875 75.984375 
L 18.40625 75.984375 
L 18.40625 64.59375 
L 9.421875 64.59375 
z
" id="DejaVuSans-105"/>
       <path d="M 8.5 21.578125 
L 8.5 54.6875 
L 17.484375 54.6875 
L 17.484375 21.921875 
Q 17.484375 14.15625 20.5 10.265625 
Q 23.53125 6.390625 29.59375 6.390625 
Q 36.859375 6.390625 41.078125 11.03125 
Q 45.3125 15.671875 45.3125 23.6875 
L 45.3125 54.6875 
L 54.296875 54.6875 
L 54.296875 0 
L 45.3125 0 
L 45.3125 8.40625 
Q 42.046875 3.421875 37.71875 1 
Q 33.40625 -1.421875 27.6875 -1.421875 
Q 18.265625 -1.421875 13.375 4.4375 
Q 8.5 10.296875 8.5 21.578125 
z
M 31.109375 56 
z
" id="DejaVuSans-117"/>
      </defs>
      <g transform="translate(454.637334 440.823588)scale(0.18 -0.18)">
       <use xlink:href="#DejaVuSans-52"/>
       <use x="63.623047" xlink:href="#DejaVuSans-79"/>
       <use x="142.333984" xlink:href="#DejaVuSans-77"/>
       <use x="228.613281" xlink:href="#DejaVuSans-84"/>
       <use x="289.697266" xlink:href="#DejaVuSans-95"/>
       <use x="339.697266" xlink:href="#DejaVuSans-109"/>
       <use x="437.109375" xlink:href="#DejaVuSans-101"/>
       <use x="498.632812" xlink:href="#DejaVuSans-100"/>
       <use x="562.109375" xlink:href="#DejaVuSans-105"/>
       <use x="589.892578" xlink:href="#DejaVuSans-117"/>
       <use x="653.271484" xlink:href="#DejaVuSans-109"/>
      </g>
     </g>
    </g>
    <g id="xtick_4">
     <g id="line2d_12">
      <g>
       <use style="stroke:#000000;" x="680.997628" xlink:href="#m852f3ddfaf" y="421.6464"/>
      </g>
     </g>
     <g id="text_4">
      <!-- 4OMT_strong -->
      <defs>
       <path d="M 44.28125 53.078125 
L 44.28125 44.578125 
Q 40.484375 46.53125 36.375 47.5 
Q 32.28125 48.484375 27.875 48.484375 
Q 21.1875 48.484375 17.84375 46.4375 
Q 14.5 44.390625 14.5 40.28125 
Q 14.5 37.15625 16.890625 35.375 
Q 19.28125 33.59375 26.515625 31.984375 
L 29.59375 31.296875 
Q 39.15625 29.25 43.1875 25.515625 
Q 47.21875 21.78125 47.21875 15.09375 
Q 47.21875 7.46875 41.1875 3.015625 
Q 35.15625 -1.421875 24.609375 -1.421875 
Q 20.21875 -1.421875 15.453125 -0.5625 
Q 10.6875 0.296875 5.421875 2 
L 5.421875 11.28125 
Q 10.40625 8.6875 15.234375 7.390625 
Q 20.0625 6.109375 24.8125 6.109375 
Q 31.15625 6.109375 34.5625 8.28125 
Q 37.984375 10.453125 37.984375 14.40625 
Q 37.984375 18.0625 35.515625 20.015625 
Q 33.0625 21.96875 24.703125 23.78125 
L 21.578125 24.515625 
Q 13.234375 26.265625 9.515625 29.90625 
Q 5.8125 33.546875 5.8125 39.890625 
Q 5.8125 47.609375 11.28125 51.796875 
Q 16.75 56 26.8125 56 
Q 31.78125 56 36.171875 55.265625 
Q 40.578125 54.546875 44.28125 53.078125 
z
" id="DejaVuSans-115"/>
       <path d="M 18.3125 70.21875 
L 18.3125 54.6875 
L 36.8125 54.6875 
L 36.8125 47.703125 
L 18.3125 47.703125 
L 18.3125 18.015625 
Q 18.3125 11.328125 20.140625 9.421875 
Q 21.96875 7.515625 27.59375 7.515625 
L 36.8125 7.515625 
L 36.8125 0 
L 27.59375 0 
Q 17.1875 0 13.234375 3.875 
Q 9.28125 7.765625 9.28125 18.015625 
L 9.28125 47.703125 
L 2.6875 47.703125 
L 2.6875 54.6875 
L 9.28125 54.6875 
L 9.28125 70.21875 
z
" id="DejaVuSans-116"/>
       <path d="M 41.109375 46.296875 
Q 39.59375 47.171875 37.8125 47.578125 
Q 36.03125 48 33.890625 48 
Q 26.265625 48 22.1875 43.046875 
Q 18.109375 38.09375 18.109375 28.8125 
L 18.109375 0 
L 9.078125 0 
L 9.078125 54.6875 
L 18.109375 54.6875 
L 18.109375 46.1875 
Q 20.953125 51.171875 25.484375 53.578125 
Q 30.03125 56 36.53125 56 
Q 37.453125 56 38.578125 55.875 
Q 39.703125 55.765625 41.0625 55.515625 
z
" id="DejaVuSans-114"/>
       <path d="M 30.609375 48.390625 
Q 23.390625 48.390625 19.1875 42.75 
Q 14.984375 37.109375 14.984375 27.296875 
Q 14.984375 17.484375 19.15625 11.84375 
Q 23.34375 6.203125 30.609375 6.203125 
Q 37.796875 6.203125 41.984375 11.859375 
Q 46.1875 17.53125 46.1875 27.296875 
Q 46.1875 37.015625 41.984375 42.703125 
Q 37.796875 48.390625 30.609375 48.390625 
z
M 30.609375 56 
Q 42.328125 56 49.015625 48.375 
Q 55.71875 40.765625 55.71875 27.296875 
Q 55.71875 13.875 49.015625 6.21875 
Q 42.328125 -1.421875 30.609375 -1.421875 
Q 18.84375 -1.421875 12.171875 6.21875 
Q 5.515625 13.875 5.515625 27.296875 
Q 5.515625 40.765625 12.171875 48.375 
Q 18.84375 56 30.609375 56 
z
" id="DejaVuSans-111"/>
       <path d="M 54.890625 33.015625 
L 54.890625 0 
L 45.90625 0 
L 45.90625 32.71875 
Q 45.90625 40.484375 42.875 44.328125 
Q 39.84375 48.1875 33.796875 48.1875 
Q 26.515625 48.1875 22.3125 43.546875 
Q 18.109375 38.921875 18.109375 30.90625 
L 18.109375 0 
L 9.078125 0 
L 9.078125 54.6875 
L 18.109375 54.6875 
L 18.109375 46.1875 
Q 21.34375 51.125 25.703125 53.5625 
Q 30.078125 56 35.796875 56 
Q 45.21875 56 50.046875 50.171875 
Q 54.890625 44.34375 54.890625 33.015625 
z
" id="DejaVuSans-110"/>
       <path d="M 45.40625 27.984375 
Q 45.40625 37.75 41.375 43.109375 
Q 37.359375 48.484375 30.078125 48.484375 
Q 22.859375 48.484375 18.828125 43.109375 
Q 14.796875 37.75 14.796875 27.984375 
Q 14.796875 18.265625 18.828125 12.890625 
Q 22.859375 7.515625 30.078125 7.515625 
Q 37.359375 7.515625 41.375 12.890625 
Q 45.40625 18.265625 45.40625 27.984375 
z
M 54.390625 6.78125 
Q 54.390625 -7.171875 48.1875 -13.984375 
Q 42 -20.796875 29.203125 -20.796875 
Q 24.46875 -20.796875 20.265625 -20.09375 
Q 16.0625 -19.390625 12.109375 -17.921875 
L 12.109375 -9.1875 
Q 16.0625 -11.328125 19.921875 -12.34375 
Q 23.78125 -13.375 27.78125 -13.375 
Q 36.625 -13.375 41.015625 -8.765625 
Q 45.40625 -4.15625 45.40625 5.171875 
L 45.40625 9.625 
Q 42.625 4.78125 38.28125 2.390625 
Q 33.9375 0 27.875 0 
Q 17.828125 0 11.671875 7.65625 
Q 5.515625 15.328125 5.515625 27.984375 
Q 5.515625 40.671875 11.671875 48.328125 
Q 17.828125 56 27.875 56 
Q 33.9375 56 38.28125 53.609375 
Q 42.625 51.21875 45.40625 46.390625 
L 45.40625 54.6875 
L 54.390625 54.6875 
z
" id="DejaVuSans-103"/>
      </defs>
      <g transform="translate(621.586378 440.505775)scale(0.18 -0.18)">
       <use xlink:href="#DejaVuSans-52"/>
       <use x="63.623047" xlink:href="#DejaVuSans-79"/>
       <use x="142.333984" xlink:href="#DejaVuSans-77"/>
       <use x="228.613281" xlink:href="#DejaVuSans-84"/>
       <use x="289.697266" xlink:href="#DejaVuSans-95"/>
       <use x="339.697266" xlink:href="#DejaVuSans-115"/>
       <use x="391.796875" xlink:href="#DejaVuSans-116"/>
       <use x="431.005859" xlink:href="#DejaVuSans-114"/>
       <use x="472.087891" xlink:href="#DejaVuSans-111"/>
       <use x="533.269531" xlink:href="#DejaVuSans-110"/>
       <use x="596.648438" xlink:href="#DejaVuSans-103"/>
      </g>
     </g>
    </g>
    <g id="text_5">
     <!-- Expression construct -->
     <defs>
      <path d="M 9.8125 72.90625 
L 55.90625 72.90625 
L 55.90625 64.59375 
L 19.671875 64.59375 
L 19.671875 43.015625 
L 54.390625 43.015625 
L 54.390625 34.71875 
L 19.671875 34.71875 
L 19.671875 8.296875 
L 56.78125 8.296875 
L 56.78125 0 
L 9.8125 0 
z
" id="DejaVuSans-69"/>
      <path d="M 54.890625 54.6875 
L 35.109375 28.078125 
L 55.90625 0 
L 45.3125 0 
L 29.390625 21.484375 
L 13.484375 0 
L 2.875 0 
L 24.125 28.609375 
L 4.6875 54.6875 
L 15.28125 54.6875 
L 29.78125 35.203125 
L 44.28125 54.6875 
z
" id="DejaVuSans-120"/>
      <path d="M 18.109375 8.203125 
L 18.109375 -20.796875 
L 9.078125 -20.796875 
L 9.078125 54.6875 
L 18.109375 54.6875 
L 18.109375 46.390625 
Q 20.953125 51.265625 25.265625 53.625 
Q 29.59375 56 35.59375 56 
Q 45.5625 56 51.78125 48.09375 
Q 58.015625 40.1875 58.015625 27.296875 
Q 58.015625 14.40625 51.78125 6.484375 
Q 45.5625 -1.421875 35.59375 -1.421875 
Q 29.59375 -1.421875 25.265625 0.953125 
Q 20.953125 3.328125 18.109375 8.203125 
z
M 48.6875 27.296875 
Q 48.6875 37.203125 44.609375 42.84375 
Q 40.53125 48.484375 33.40625 48.484375 
Q 26.265625 48.484375 22.1875 42.84375 
Q 18.109375 37.203125 18.109375 27.296875 
Q 18.109375 17.390625 22.1875 11.75 
Q 26.265625 6.109375 33.40625 6.109375 
Q 40.53125 6.109375 44.609375 11.75 
Q 48.6875 17.390625 48.6875 27.296875 
z
" id="DejaVuSans-112"/>
      <path id="DejaVuSans-32"/>
      <path d="M 48.78125 52.59375 
L 48.78125 44.1875 
Q 44.96875 46.296875 41.140625 47.34375 
Q 37.3125 48.390625 33.40625 48.390625 
Q 24.65625 48.390625 19.8125 42.84375 
Q 14.984375 37.3125 14.984375 27.296875 
Q 14.984375 17.28125 19.8125 11.734375 
Q 24.65625 6.203125 33.40625 6.203125 
Q 37.3125 6.203125 41.140625 7.25 
Q 44.96875 8.296875 48.78125 10.40625 
L 48.78125 2.09375 
Q 45.015625 0.34375 40.984375 -0.53125 
Q 36.96875 -1.421875 32.421875 -1.421875 
Q 20.0625 -1.421875 12.78125 6.34375 
Q 5.515625 14.109375 5.515625 27.296875 
Q 5.515625 40.671875 12.859375 48.328125 
Q 20.21875 56 33.015625 56 
Q 37.15625 56 41.109375 55.140625 
Q 45.0625 54.296875 48.78125 52.59375 
z
" id="DejaVuSans-99"/>
     </defs>
     <g transform="translate(338.170313 464.264525)scale(0.2 -0.2)">
      <use xlink:href="#DejaVuSans-69"/>
      <use x="63.183594" xlink:href="#DejaVuSans-120"/>
      <use x="122.363281" xlink:href="#DejaVuSans-112"/>
      <use x="185.839844" xlink:href="#DejaVuSans-114"/>
      <use x="226.921875" xlink:href="#DejaVuSans-101"/>
      <use x="288.445312" xlink:href="#DejaVuSans-115"/>
      <use x="340.544922" xlink:href="#DejaVuSans-115"/>
      <use x="392.644531" xlink:href="#DejaVuSans-105"/>
      <use x="420.427734" xlink:href="#DejaVuSans-111"/>
      <use x="481.609375" xlink:href="#DejaVuSans-110"/>
      <use x="544.988281" xlink:href="#DejaVuSans-32"/>
      <use x="576.775391" xlink:href="#DejaVuSans-99"/>
      <use x="631.755859" xlink:href="#DejaVuSans-111"/>
      <use x="692.9375" xlink:href="#DejaVuSans-110"/>
      <use x="756.316406" xlink:href="#DejaVuSans-115"/>
      <use x="808.416016" xlink:href="#DejaVuSans-116"/>
      <use x="847.625" xlink:href="#DejaVuSans-114"/>
      <use x="888.738281" xlink:href="#DejaVuSans-117"/>
      <use x="952.117188" xlink:href="#DejaVuSans-99"/>
      <use x="1007.097656" xlink:href="#DejaVuSans-116"/>
     </g>
    </g>
   </g>
   <g id="matplotlib.axis_2">
    <g id="ytick_1">
     <g id="line2d_13">
      <defs>
       <path d="M 0 0 
L -2 0 
" id="mca5a5edb10" style="stroke:#000000;"/>
      </defs>
      <g>
       <use style="stroke:#000000;" x="108" xlink:href="#mca5a5edb10" y="421.6464"/>
      </g>
     </g>
     <g id="text_6">
      <!-- 0.0 -->
      <defs>
       <path d="M 31.78125 66.40625 
Q 24.171875 66.40625 20.328125 58.90625 
Q 16.5 51.421875 16.5 36.375 
Q 16.5 21.390625 20.328125 13.890625 
Q 24.171875 6.390625 31.78125 6.390625 
Q 39.453125 6.390625 43.28125 13.890625 
Q 47.125 21.390625 47.125 36.375 
Q 47.125 51.421875 43.28125 58.90625 
Q 39.453125 66.40625 31.78125 66.40625 
z
M 31.78125 74.21875 
Q 44.046875 74.21875 50.515625 64.515625 
Q 56.984375 54.828125 56.984375 36.375 
Q 56.984375 17.96875 50.515625 8.265625 
Q 44.046875 -1.421875 31.78125 -1.421875 
Q 19.53125 -1.421875 13.0625 8.265625 
Q 6.59375 17.96875 6.59375 36.375 
Q 6.59375 54.828125 13.0625 64.515625 
Q 19.53125 74.21875 31.78125 74.21875 
z
" id="DejaVuSans-48"/>
       <path d="M 10.6875 12.40625 
L 21 12.40625 
L 21 0 
L 10.6875 0 
z
" id="DejaVuSans-46"/>
      </defs>
      <g transform="translate(73.874375 428.484994)scale(0.18 -0.18)">
       <use xlink:href="#DejaVuSans-48"/>
       <use x="63.623047" xlink:href="#DejaVuSans-46"/>
       <use x="95.410156" xlink:href="#DejaVuSans-48"/>
      </g>
     </g>
    </g>
    <g id="ytick_2">
     <g id="line2d_14">
      <g>
       <use style="stroke:#000000;" x="108" xlink:href="#mca5a5edb10" y="373.531359"/>
      </g>
     </g>
     <g id="text_7">
      <!-- 0.5 -->
      <defs>
       <path d="M 10.796875 72.90625 
L 49.515625 72.90625 
L 49.515625 64.59375 
L 19.828125 64.59375 
L 19.828125 46.734375 
Q 21.96875 47.46875 24.109375 47.828125 
Q 26.265625 48.1875 28.421875 48.1875 
Q 40.625 48.1875 47.75 41.5 
Q 54.890625 34.8125 54.890625 23.390625 
Q 54.890625 11.625 47.5625 5.09375 
Q 40.234375 -1.421875 26.90625 -1.421875 
Q 22.3125 -1.421875 17.546875 -0.640625 
Q 12.796875 0.140625 7.71875 1.703125 
L 7.71875 11.625 
Q 12.109375 9.234375 16.796875 8.0625 
Q 21.484375 6.890625 26.703125 6.890625 
Q 35.15625 6.890625 40.078125 11.328125 
Q 45.015625 15.765625 45.015625 23.390625 
Q 45.015625 31 40.078125 35.4375 
Q 35.15625 39.890625 26.703125 39.890625 
Q 22.75 39.890625 18.8125 39.015625 
Q 14.890625 38.140625 10.796875 36.28125 
z
" id="DejaVuSans-53"/>
      </defs>
      <g transform="translate(73.874375 380.369953)scale(0.18 -0.18)">
       <use xlink:href="#DejaVuSans-48"/>
       <use x="63.623047" xlink:href="#DejaVuSans-46"/>
       <use x="95.410156" xlink:href="#DejaVuSans-53"/>
      </g>
     </g>
    </g>
    <g id="ytick_3">
     <g id="line2d_15">
      <g>
       <use style="stroke:#000000;" x="108" xlink:href="#mca5a5edb10" y="325.416318"/>
      </g>
     </g>
     <g id="text_8">
      <!-- 1.0 -->
      <defs>
       <path d="M 12.40625 8.296875 
L 28.515625 8.296875 
L 28.515625 63.921875 
L 10.984375 60.40625 
L 10.984375 69.390625 
L 28.421875 72.90625 
L 38.28125 72.90625 
L 38.28125 8.296875 
L 54.390625 8.296875 
L 54.390625 0 
L 12.40625 0 
z
" id="DejaVuSans-49"/>
      </defs>
      <g transform="translate(73.874375 332.254912)scale(0.18 -0.18)">
       <use xlink:href="#DejaVuSans-49"/>
       <use x="63.623047" xlink:href="#DejaVuSans-46"/>
       <use x="95.410156" xlink:href="#DejaVuSans-48"/>
      </g>
     </g>
    </g>
    <g id="ytick_4">
     <g id="line2d_16">
      <g>
       <use style="stroke:#000000;" x="108" xlink:href="#mca5a5edb10" y="277.301278"/>
      </g>
     </g>
     <g id="text_9">
      <!-- 1.5 -->
      <g transform="translate(73.874375 284.139871)scale(0.18 -0.18)">
       <use xlink:href="#DejaVuSans-49"/>
       <use x="63.623047" xlink:href="#DejaVuSans-46"/>
       <use x="95.410156" xlink:href="#DejaVuSans-53"/>
      </g>
     </g>
    </g>
    <g id="ytick_5">
     <g id="line2d_17">
      <g>
       <use style="stroke:#000000;" x="108" xlink:href="#mca5a5edb10" y="229.186237"/>
      </g>
     </g>
     <g id="text_10">
      <!-- 2.0 -->
      <defs>
       <path d="M 19.1875 8.296875 
L 53.609375 8.296875 
L 53.609375 0 
L 7.328125 0 
L 7.328125 8.296875 
Q 12.9375 14.109375 22.625 23.890625 
Q 32.328125 33.6875 34.8125 36.53125 
Q 39.546875 41.84375 41.421875 45.53125 
Q 43.3125 49.21875 43.3125 52.78125 
Q 43.3125 58.59375 39.234375 62.25 
Q 35.15625 65.921875 28.609375 65.921875 
Q 23.96875 65.921875 18.8125 64.3125 
Q 13.671875 62.703125 7.8125 59.421875 
L 7.8125 69.390625 
Q 13.765625 71.78125 18.9375 73 
Q 24.125 74.21875 28.421875 74.21875 
Q 39.75 74.21875 46.484375 68.546875 
Q 53.21875 62.890625 53.21875 53.421875 
Q 53.21875 48.921875 51.53125 44.890625 
Q 49.859375 40.875 45.40625 35.40625 
Q 44.1875 33.984375 37.640625 27.21875 
Q 31.109375 20.453125 19.1875 8.296875 
z
" id="DejaVuSans-50"/>
      </defs>
      <g transform="translate(73.874375 236.02483)scale(0.18 -0.18)">
       <use xlink:href="#DejaVuSans-50"/>
       <use x="63.623047" xlink:href="#DejaVuSans-46"/>
       <use x="95.410156" xlink:href="#DejaVuSans-48"/>
      </g>
     </g>
    </g>
    <g id="ytick_6">
     <g id="line2d_18">
      <g>
       <use style="stroke:#000000;" x="108" xlink:href="#mca5a5edb10" y="181.071196"/>
      </g>
     </g>
     <g id="text_11">
      <!-- 2.5 -->
      <g transform="translate(73.874375 187.90979)scale(0.18 -0.18)">
       <use xlink:href="#DejaVuSans-50"/>
       <use x="63.623047" xlink:href="#DejaVuSans-46"/>
       <use x="95.410156" xlink:href="#DejaVuSans-53"/>
      </g>
     </g>
    </g>
    <g id="ytick_7">
     <g id="line2d_19">
      <g>
       <use style="stroke:#000000;" x="108" xlink:href="#mca5a5edb10" y="132.956155"/>
      </g>
     </g>
     <g id="text_12">
      <!-- 3.0 -->
      <defs>
       <path d="M 40.578125 39.3125 
Q 47.65625 37.796875 51.625 33 
Q 55.609375 28.21875 55.609375 21.1875 
Q 55.609375 10.40625 48.1875 4.484375 
Q 40.765625 -1.421875 27.09375 -1.421875 
Q 22.515625 -1.421875 17.65625 -0.515625 
Q 12.796875 0.390625 7.625 2.203125 
L 7.625 11.71875 
Q 11.71875 9.328125 16.59375 8.109375 
Q 21.484375 6.890625 26.8125 6.890625 
Q 36.078125 6.890625 40.9375 10.546875 
Q 45.796875 14.203125 45.796875 21.1875 
Q 45.796875 27.640625 41.28125 31.265625 
Q 36.765625 34.90625 28.71875 34.90625 
L 20.21875 34.90625 
L 20.21875 43.015625 
L 29.109375 43.015625 
Q 36.375 43.015625 40.234375 45.921875 
Q 44.09375 48.828125 44.09375 54.296875 
Q 44.09375 59.90625 40.109375 62.90625 
Q 36.140625 65.921875 28.71875 65.921875 
Q 24.65625 65.921875 20.015625 65.03125 
Q 15.375 64.15625 9.8125 62.3125 
L 9.8125 71.09375 
Q 15.4375 72.65625 20.34375 73.4375 
Q 25.25 74.21875 29.59375 74.21875 
Q 40.828125 74.21875 47.359375 69.109375 
Q 53.90625 64.015625 53.90625 55.328125 
Q 53.90625 49.265625 50.4375 45.09375 
Q 46.96875 40.921875 40.578125 39.3125 
z
" id="DejaVuSans-51"/>
      </defs>
      <g transform="translate(73.874375 139.794749)scale(0.18 -0.18)">
       <use xlink:href="#DejaVuSans-51"/>
       <use x="63.623047" xlink:href="#DejaVuSans-46"/>
       <use x="95.410156" xlink:href="#DejaVuSans-48"/>
      </g>
     </g>
    </g>
    <g id="ytick_8">
     <g id="line2d_20">
      <g>
       <use style="stroke:#000000;" x="108" xlink:href="#mca5a5edb10" y="84.841114"/>
      </g>
     </g>
     <g id="text_13">
      <!-- 3.5 -->
      <g transform="translate(73.874375 91.679708)scale(0.18 -0.18)">
       <use xlink:href="#DejaVuSans-51"/>
       <use x="63.623047" xlink:href="#DejaVuSans-46"/>
       <use x="95.410156" xlink:href="#DejaVuSans-53"/>
      </g>
     </g>
    </g>
    <g id="text_14">
     <!-- $(RFU/OD) \times 10^4$ -->
     <defs>
      <path d="M 31 75.875 
Q 24.46875 64.65625 21.28125 53.65625 
Q 18.109375 42.671875 18.109375 31.390625 
Q 18.109375 20.125 21.3125 9.0625 
Q 24.515625 -2 31 -13.1875 
L 23.1875 -13.1875 
Q 15.875 -1.703125 12.234375 9.375 
Q 8.59375 20.453125 8.59375 31.390625 
Q 8.59375 42.28125 12.203125 53.3125 
Q 15.828125 64.359375 23.1875 75.875 
z
" id="DejaVuSans-40"/>
      <path d="M 25.203125 64.796875 
L 20.21875 38.921875 
L 32.90625 38.921875 
Q 40.375 38.921875 44.984375 43.046875 
Q 49.609375 47.171875 49.609375 53.8125 
Q 49.609375 59.125 46.5 61.953125 
Q 43.40625 64.796875 37.59375 64.796875 
z
M 43.3125 35.015625 
Q 46.4375 34.28125 48.515625 31.390625 
Q 50.59375 28.515625 53.328125 19.921875 
L 59.515625 0 
L 49.125 0 
L 43.40625 18.703125 
Q 41.21875 25.921875 38.328125 28.359375 
Q 35.453125 30.8125 29.5 30.8125 
L 18.609375 30.8125 
L 12.59375 0 
L 2.6875 0 
L 16.890625 72.90625 
L 39.109375 72.90625 
Q 49.21875 72.90625 54.609375 68.328125 
Q 60.015625 63.765625 60.015625 55.171875 
Q 60.015625 47.5625 55.421875 41.984375 
Q 50.828125 36.421875 43.3125 35.015625 
z
" id="DejaVuSans-Oblique-82"/>
      <path d="M 16.890625 72.90625 
L 58.6875 72.90625 
L 57.078125 64.59375 
L 25.09375 64.59375 
L 20.90625 43.109375 
L 49.8125 43.109375 
L 48.1875 34.8125 
L 19.28125 34.8125 
L 12.5 0 
L 2.6875 0 
z
" id="DejaVuSans-Oblique-70"/>
      <path d="M 15.484375 72.90625 
L 25.390625 72.90625 
L 16.796875 28.609375 
Q 16.265625 25.640625 16.046875 23.703125 
Q 15.828125 21.78125 15.828125 20.3125 
Q 15.828125 13.578125 19.578125 10.078125 
Q 23.34375 6.59375 30.609375 6.59375 
Q 40.046875 6.59375 45.28125 11.765625 
Q 50.53125 16.9375 52.78125 28.609375 
L 61.375 72.90625 
L 71.296875 72.90625 
L 62.5 27.390625 
Q 59.625 12.640625 51.5625 5.609375 
Q 43.5 -1.421875 29.5 -1.421875 
Q 18.5625 -1.421875 12.1875 4.078125 
Q 5.8125 9.578125 5.8125 19 
Q 5.8125 20.703125 6.046875 22.828125 
Q 6.296875 24.953125 6.78125 27.390625 
z
" id="DejaVuSans-Oblique-85"/>
      <path d="M 25.390625 72.90625 
L 33.6875 72.90625 
L 8.296875 -9.28125 
L 0 -9.28125 
z
" id="DejaVuSans-47"/>
      <path d="M 45.609375 66.21875 
Q 37.5 66.21875 31.296875 62.28125 
Q 25.09375 58.34375 20.515625 50.296875 
Q 17.578125 45.171875 16.03125 39.40625 
Q 14.5 33.640625 14.5 27.78125 
Q 14.5 17.625 19.359375 12.109375 
Q 24.21875 6.59375 33.109375 6.59375 
Q 41.109375 6.59375 47.375 10.5625 
Q 53.65625 14.546875 58.109375 22.40625 
Q 61.078125 27.6875 62.640625 33.46875 
Q 64.203125 39.265625 64.203125 45.015625 
Q 64.203125 55.125 59.3125 60.671875 
Q 54.4375 66.21875 45.609375 66.21875 
z
M 32.8125 -1.421875 
Q 19.390625 -1.421875 11.6875 6.53125 
Q 4 14.5 4 28.328125 
Q 4 36.234375 7 44.484375 
Q 10.015625 52.734375 15.28125 59.1875 
Q 21.484375 66.75 29.09375 70.484375 
Q 36.71875 74.21875 45.90625 74.21875 
Q 59.28125 74.21875 66.984375 66.328125 
Q 74.703125 58.453125 74.703125 44.828125 
Q 74.703125 36.421875 71.765625 28.3125 
Q 68.84375 20.21875 63.375 13.625 
Q 57.125 6 49.578125 2.28125 
Q 42.046875 -1.421875 32.8125 -1.421875 
z
" id="DejaVuSans-Oblique-79"/>
      <path d="M 16.890625 72.90625 
L 38.09375 72.90625 
Q 54.984375 72.90625 63.59375 65.75 
Q 72.21875 58.59375 72.21875 44.484375 
Q 72.21875 35.15625 68.9375 26.53125 
Q 65.671875 17.921875 59.90625 12.015625 
Q 54.109375 5.953125 45.171875 2.96875 
Q 36.234375 0 24.03125 0 
L 2.6875 0 
z
M 25.203125 64.796875 
L 14.203125 8.109375 
L 27.09375 8.109375 
Q 43.65625 8.109375 52.734375 17.625 
Q 61.8125 27.15625 61.8125 44.484375 
Q 61.8125 54.984375 55.953125 59.890625 
Q 50.09375 64.796875 37.59375 64.796875 
z
" id="DejaVuSans-Oblique-68"/>
      <path d="M 8.015625 75.875 
L 15.828125 75.875 
Q 23.140625 64.359375 26.78125 53.3125 
Q 30.421875 42.28125 30.421875 31.390625 
Q 30.421875 20.453125 26.78125 9.375 
Q 23.140625 -1.703125 15.828125 -13.1875 
L 8.015625 -13.1875 
Q 14.5 -2 17.703125 9.0625 
Q 20.90625 20.125 20.90625 31.390625 
Q 20.90625 42.671875 17.703125 53.65625 
Q 14.5 64.65625 8.015625 75.875 
z
" id="DejaVuSans-41"/>
      <path d="M 70.125 53.71875 
L 47.796875 31.296875 
L 70.125 8.984375 
L 64.3125 3.078125 
L 41.890625 25.484375 
L 19.484375 3.078125 
L 13.71875 8.984375 
L 35.984375 31.296875 
L 13.71875 53.71875 
L 19.484375 59.625 
L 41.890625 37.203125 
L 64.3125 59.625 
z
" id="DejaVuSans-215"/>
     </defs>
     <g transform="translate(65.299062 323.5088)rotate(-90)scale(0.22 -0.22)">
      <use transform="translate(0 0.684375)" xlink:href="#DejaVuSans-40"/>
      <use transform="translate(39.013672 0.684375)" xlink:href="#DejaVuSans-Oblique-82"/>
      <use transform="translate(108.496094 0.684375)" xlink:href="#DejaVuSans-Oblique-70"/>
      <use transform="translate(166.015625 0.684375)" xlink:href="#DejaVuSans-Oblique-85"/>
      <use transform="translate(239.208984 0.684375)" xlink:href="#DejaVuSans-47"/>
      <use transform="translate(272.900391 0.684375)" xlink:href="#DejaVuSans-Oblique-79"/>
      <use transform="translate(351.611328 0.684375)" xlink:href="#DejaVuSans-Oblique-68"/>
      <use transform="translate(428.613281 0.684375)" xlink:href="#DejaVuSans-41"/>
      <use transform="translate(487.109375 0.684375)" xlink:href="#DejaVuSans-215"/>
      <use transform="translate(590.380859 0.684375)" xlink:href="#DejaVuSans-49"/>
      <use transform="translate(654.003906 0.684375)" xlink:href="#DejaVuSans-48"/>
      <use transform="translate(718.583984 38.965625)scale(0.7)" xlink:href="#DejaVuSans-52"/>
     </g>
    </g>
   </g>
   <g id="patch_19">
    <path d="M 108 421.6464 
L 108 56.8512 
" style="fill:none;stroke:#000000;stroke-linecap:square;stroke-linejoin:miter;stroke-width:0.8;"/>
   </g>
   <g id="patch_20">
    <path d="M 108 421.6464 
L 777.6 421.6464 
" style="fill:none;stroke:#000000;stroke-linecap:square;stroke-linejoin:miter;stroke-width:0.8;"/>
   </g>
   <g id="text_15">
    <!-- 4NB2 sensor response to 4OMT expressed with norbelladine -->
    <defs>
     <path d="M 9.8125 72.90625 
L 23.09375 72.90625 
L 55.421875 11.921875 
L 55.421875 72.90625 
L 64.984375 72.90625 
L 64.984375 0 
L 51.703125 0 
L 19.390625 60.984375 
L 19.390625 0 
L 9.8125 0 
z
" id="DejaVuSans-78"/>
     <path d="M 19.671875 34.8125 
L 19.671875 8.109375 
L 35.5 8.109375 
Q 43.453125 8.109375 47.28125 11.40625 
Q 51.125 14.703125 51.125 21.484375 
Q 51.125 28.328125 47.28125 31.5625 
Q 43.453125 34.8125 35.5 34.8125 
z
M 19.671875 64.796875 
L 19.671875 42.828125 
L 34.28125 42.828125 
Q 41.5 42.828125 45.03125 45.53125 
Q 48.578125 48.25 48.578125 53.8125 
Q 48.578125 59.328125 45.03125 62.0625 
Q 41.5 64.796875 34.28125 64.796875 
z
M 9.8125 72.90625 
L 35.015625 72.90625 
Q 46.296875 72.90625 52.390625 68.21875 
Q 58.5 63.53125 58.5 54.890625 
Q 58.5 48.1875 55.375 44.234375 
Q 52.25 40.28125 46.1875 39.3125 
Q 53.46875 37.75 57.5 32.78125 
Q 61.53125 27.828125 61.53125 20.40625 
Q 61.53125 10.640625 54.890625 5.3125 
Q 48.25 0 35.984375 0 
L 9.8125 0 
z
" id="DejaVuSans-66"/>
     <path d="M 54.890625 33.015625 
L 54.890625 0 
L 45.90625 0 
L 45.90625 32.71875 
Q 45.90625 40.484375 42.875 44.328125 
Q 39.84375 48.1875 33.796875 48.1875 
Q 26.515625 48.1875 22.3125 43.546875 
Q 18.109375 38.921875 18.109375 30.90625 
L 18.109375 0 
L 9.078125 0 
L 9.078125 75.984375 
L 18.109375 75.984375 
L 18.109375 46.1875 
Q 21.34375 51.125 25.703125 53.5625 
Q 30.078125 56 35.796875 56 
Q 45.21875 56 50.046875 50.171875 
Q 54.890625 44.34375 54.890625 33.015625 
z
" id="DejaVuSans-104"/>
     <path d="M 48.6875 27.296875 
Q 48.6875 37.203125 44.609375 42.84375 
Q 40.53125 48.484375 33.40625 48.484375 
Q 26.265625 48.484375 22.1875 42.84375 
Q 18.109375 37.203125 18.109375 27.296875 
Q 18.109375 17.390625 22.1875 11.75 
Q 26.265625 6.109375 33.40625 6.109375 
Q 40.53125 6.109375 44.609375 11.75 
Q 48.6875 17.390625 48.6875 27.296875 
z
M 18.109375 46.390625 
Q 20.953125 51.265625 25.265625 53.625 
Q 29.59375 56 35.59375 56 
Q 45.5625 56 51.78125 48.09375 
Q 58.015625 40.1875 58.015625 27.296875 
Q 58.015625 14.40625 51.78125 6.484375 
Q 45.5625 -1.421875 35.59375 -1.421875 
Q 29.59375 -1.421875 25.265625 0.953125 
Q 20.953125 3.328125 18.109375 8.203125 
L 18.109375 0 
L 9.078125 0 
L 9.078125 75.984375 
L 18.109375 75.984375 
z
" id="DejaVuSans-98"/>
     <path d="M 9.421875 75.984375 
L 18.40625 75.984375 
L 18.40625 0 
L 9.421875 0 
z
" id="DejaVuSans-108"/>
    </defs>
    <g transform="translate(110.287188 50.8512)scale(0.22 -0.22)">
     <use xlink:href="#DejaVuSans-52"/>
     <use x="63.623047" xlink:href="#DejaVuSans-78"/>
     <use x="138.427734" xlink:href="#DejaVuSans-66"/>
     <use x="207.03125" xlink:href="#DejaVuSans-50"/>
     <use x="270.654297" xlink:href="#DejaVuSans-32"/>
     <use x="302.441406" xlink:href="#DejaVuSans-115"/>
     <use x="354.541016" xlink:href="#DejaVuSans-101"/>
     <use x="416.064453" xlink:href="#DejaVuSans-110"/>
     <use x="479.443359" xlink:href="#DejaVuSans-115"/>
     <use x="531.542969" xlink:href="#DejaVuSans-111"/>
     <use x="592.724609" xlink:href="#DejaVuSans-114"/>
     <use x="633.837891" xlink:href="#DejaVuSans-32"/>
     <use x="665.625" xlink:href="#DejaVuSans-114"/>
     <use x="706.707031" xlink:href="#DejaVuSans-101"/>
     <use x="768.230469" xlink:href="#DejaVuSans-115"/>
     <use x="820.330078" xlink:href="#DejaVuSans-112"/>
     <use x="883.806641" xlink:href="#DejaVuSans-111"/>
     <use x="944.988281" xlink:href="#DejaVuSans-110"/>
     <use x="1008.367188" xlink:href="#DejaVuSans-115"/>
     <use x="1060.466797" xlink:href="#DejaVuSans-101"/>
     <use x="1121.990234" xlink:href="#DejaVuSans-32"/>
     <use x="1153.777344" xlink:href="#DejaVuSans-116"/>
     <use x="1192.986328" xlink:href="#DejaVuSans-111"/>
     <use x="1254.167969" xlink:href="#DejaVuSans-32"/>
     <use x="1285.955078" xlink:href="#DejaVuSans-52"/>
     <use x="1349.578125" xlink:href="#DejaVuSans-79"/>
     <use x="1428.289062" xlink:href="#DejaVuSans-77"/>
     <use x="1514.568359" xlink:href="#DejaVuSans-84"/>
     <use x="1575.652344" xlink:href="#DejaVuSans-32"/>
     <use x="1607.439453" xlink:href="#DejaVuSans-101"/>
     <use x="1668.947266" xlink:href="#DejaVuSans-120"/>
     <use x="1728.126953" xlink:href="#DejaVuSans-112"/>
     <use x="1791.603516" xlink:href="#DejaVuSans-114"/>
     <use x="1832.685547" xlink:href="#DejaVuSans-101"/>
     <use x="1894.208984" xlink:href="#DejaVuSans-115"/>
     <use x="1946.308594" xlink:href="#DejaVuSans-115"/>
     <use x="1998.408203" xlink:href="#DejaVuSans-101"/>
     <use x="2059.931641" xlink:href="#DejaVuSans-100"/>
     <use x="2123.408203" xlink:href="#DejaVuSans-32"/>
     <use x="2155.195312" xlink:href="#DejaVuSans-119"/>
     <use x="2236.982422" xlink:href="#DejaVuSans-105"/>
     <use x="2264.765625" xlink:href="#DejaVuSans-116"/>
     <use x="2303.974609" xlink:href="#DejaVuSans-104"/>
     <use x="2367.353516" xlink:href="#DejaVuSans-32"/>
     <use x="2399.140625" xlink:href="#DejaVuSans-110"/>
     <use x="2462.519531" xlink:href="#DejaVuSans-111"/>
     <use x="2523.701172" xlink:href="#DejaVuSans-114"/>
     <use x="2564.814453" xlink:href="#DejaVuSans-98"/>
     <use x="2628.291016" xlink:href="#DejaVuSans-101"/>
     <use x="2689.814453" xlink:href="#DejaVuSans-108"/>
     <use x="2717.597656" xlink:href="#DejaVuSans-108"/>
     <use x="2745.380859" xlink:href="#DejaVuSans-97"/>
     <use x="2806.660156" xlink:href="#DejaVuSans-100"/>
     <use x="2870.136719" xlink:href="#DejaVuSans-105"/>
     <use x="2897.919922" xlink:href="#DejaVuSans-110"/>
     <use x="2961.298828" xlink:href="#DejaVuSans-101"/>
    </g>
   </g>
   <g id="legend_1">
    <g id="patch_21">
     <path d="M 122 188.0887 
L 251.55 188.0887 
Q 255.55 188.0887 255.55 184.0887 
L 255.55 70.8512 
Q 255.55 66.8512 251.55 66.8512 
L 122 66.8512 
Q 118 66.8512 118 70.8512 
L 118 184.0887 
Q 118 188.0887 122 188.0887 
z
" style="fill:#ffffff;opacity:0.8;stroke:#cccccc;stroke-linejoin:miter;"/>
    </g>
    <g id="patch_22">
     <path d="M 126 89.65745 
L 166 89.65745 
L 166 75.65745 
L 126 75.65745 
z
" style="fill:#3399ff;stroke:#000000;stroke-linejoin:miter;"/>
    </g>
    <g id="text_16">
     <!-- 0 uM -->
     <defs>
      <path d="M 41.890625 37.5 
Q 41.890625 66.5 27.4375 66.5 
Q 12.984375 66.5 12.984375 37.203125 
Q 12.984375 7.515625 27.25 7.515625 
Q 39.265625 7.515625 41.3125 27.046875 
Q 41.890625 31.734375 41.890625 37.5 
z
M 27.4375 74.421875 
Q 37.890625 74.421875 44.046875 66.5 
Q 50.984375 56.9375 50.984375 36.625 
Q 50.984375 9.1875 37.015625 2.15625 
Q 32.71875 0.09375 27.4375 0.09375 
Q 9.578125 0.09375 5.171875 22.078125 
Q 3.90625 28.71875 3.90625 37.3125 
Q 3.90625 57.125 10.84375 66.5 
Q 16.40625 74.421875 25.984375 74.421875 
z
" id="Gargi-48"/>
      <path id="Gargi-32"/>
      <path d="M 47.171875 2.25 
L 39.546875 2.25 
L 39.546875 9.671875 
Q 33.890625 1.65625 26.375 0.296875 
Q 24.3125 -0.09375 21.78125 -0.09375 
Q 10.9375 -0.09375 6.734375 7.03125 
Q 4.890625 10.25 4.890625 14.453125 
L 4.890625 55.46875 
L 13.28125 55.46875 
L 13.28125 17.78125 
Q 13.28125 10.640625 19.234375 8.203125 
Q 21.484375 7.328125 24.21875 7.328125 
Q 32.90625 7.328125 36.71875 15.234375 
Q 38.765625 19.53125 38.765625 25.296875 
L 38.765625 55.46875 
L 47.171875 55.46875 
z
" id="Gargi-117"/>
      <path d="M 44.828125 0 
L 34.859375 0 
L 13.875 62.015625 
L 13.875 0 
L 4.890625 0 
L 4.890625 74.03125 
L 17.96875 74.03125 
L 39.9375 9.578125 
L 61.421875 74.03125 
L 74.515625 74.03125 
L 74.515625 0 
L 65.625 0 
L 65.625 62.015625 
z
" id="Gargi-77"/>
     </defs>
     <g transform="translate(182 89.65745)scale(0.2 -0.2)">
      <use xlink:href="#Gargi-48"/>
      <use x="54.882812" xlink:href="#Gargi-32"/>
      <use x="79.296875" xlink:href="#Gargi-117"/>
      <use x="131.347656" xlink:href="#Gargi-77"/>
     </g>
    </g>
    <g id="patch_23">
     <path d="M 126 118.466825 
L 166 118.466825 
L 166 104.466825 
L 126 104.466825 
z
" style="fill:#ffff33;stroke:#000000;stroke-linejoin:miter;"/>
    </g>
    <g id="text_17">
     <!-- 10 uM -->
     <defs>
      <path d="M 22.75 51.265625 
L 6.84375 51.265625 
L 6.84375 57.71875 
Q 17.1875 58.984375 20.21875 61.328125 
Q 23.34375 63.578125 25.390625 70.796875 
L 25.875 71.96875 
L 31.734375 71.96875 
L 31.734375 0 
L 22.75 0 
z
" id="Gargi-49"/>
     </defs>
     <g transform="translate(182 118.466825)scale(0.2 -0.2)">
      <use xlink:href="#Gargi-49"/>
      <use x="36.621094" xlink:href="#Gargi-48"/>
      <use x="91.503906" xlink:href="#Gargi-32"/>
      <use x="115.917969" xlink:href="#Gargi-117"/>
      <use x="167.96875" xlink:href="#Gargi-77"/>
     </g>
    </g>
    <g id="patch_24">
     <path d="M 126 147.2762 
L 166 147.2762 
L 166 133.2762 
L 126 133.2762 
z
" style="fill:#ffaa17;stroke:#000000;stroke-linejoin:miter;"/>
    </g>
    <g id="text_18">
     <!-- 50 uM -->
     <defs>
      <path d="M 51.65625 74.21875 
L 51.65625 65.4375 
L 21.6875 65.4375 
L 18.84375 45.3125 
Q 24.8125 49.703125 32.125 49.703125 
Q 44.34375 49.703125 50.875 40.828125 
Q 55.46875 34.671875 55.46875 25.6875 
Q 55.46875 12.59375 46.578125 5.28125 
Q 40.046875 -0.09375 30.765625 -0.09375 
Q 19.34375 -0.09375 12.796875 6.734375 
Q 11.921875 7.625 11.234375 8.5 
Q 8.5 11.921875 6.84375 19.921875 
L 15.828125 19.921875 
Q 18.953125 7.8125 30.5625 7.8125 
Q 40.828125 7.8125 44.625 16.015625 
Q 46.296875 19.734375 46.296875 24.515625 
Q 46.296875 35.546875 38.578125 39.84375 
Q 35.15625 41.796875 30.5625 41.796875 
Q 24.03125 41.796875 19.4375 37.40625 
L 17.390625 35.0625 
L 9.078125 35.0625 
L 14.453125 74.21875 
z
" id="Gargi-53"/>
     </defs>
     <g transform="translate(182 147.2762)scale(0.2 -0.2)">
      <use xlink:href="#Gargi-53"/>
      <use x="62.304688" xlink:href="#Gargi-48"/>
      <use x="117.1875" xlink:href="#Gargi-32"/>
      <use x="141.601562" xlink:href="#Gargi-117"/>
      <use x="193.652344" xlink:href="#Gargi-77"/>
     </g>
    </g>
    <g id="patch_25">
     <path d="M 126 176.085575 
L 166 176.085575 
L 166 162.085575 
L 126 162.085575 
z
" style="fill:#ff1f17;stroke:#000000;stroke-linejoin:miter;"/>
    </g>
    <g id="text_19">
     <!-- 200 uM -->
     <defs>
      <path d="M 54.78125 8.796875 
L 54.78125 0 
L 6.84375 0 
Q 6.84375 12.984375 12.703125 19.828125 
Q 17.96875 25.984375 27.046875 31.15625 
L 36.421875 36.421875 
Q 46.1875 42.09375 46.1875 50.6875 
Q 46.1875 58.015625 40.046875 61.921875 
Q 36.53125 64.15625 31.9375 64.15625 
Q 24.3125 64.15625 20.3125 58.40625 
L 19.53125 57.234375 
Q 17.484375 53.90625 17.484375 47.078125 
L 8.5 47.078125 
Q 8.5 57.234375 12.40625 62.703125 
Q 19.046875 71.96875 32.234375 71.96875 
Q 42.28125 71.96875 48.640625 66.3125 
Q 55.28125 60.25 55.28125 50.875 
Q 55.28125 37.5 40.046875 29.109375 
L 29.890625 23.640625 
Q 20.703125 18.265625 18.265625 13.28125 
Q 17.28125 11.234375 16.890625 8.796875 
z
" id="Gargi-50"/>
     </defs>
     <g transform="translate(182 176.085575)scale(0.2 -0.2)">
      <use xlink:href="#Gargi-50"/>
      <use x="62.109375" xlink:href="#Gargi-48"/>
      <use x="116.992188" xlink:href="#Gargi-48"/>
      <use x="171.875" xlink:href="#Gargi-32"/>
      <use x="196.289062" xlink:href="#Gargi-117"/>
      <use x="248.339844" xlink:href="#Gargi-77"/>
     </g>
    </g>
   </g>
  </g>
 </g>
 <defs>
  <clipPath id="p8ea71dd7d6">
   <rect height="364.7952" width="669.6" x="108" y="56.8512"/>
  </clipPath>
 </defs>
</svg>
