<?xml version="1.0" encoding="utf-8" standalone="no"?>
<!DOCTYPE svg PUBLIC "-//W3C//DTD SVG 1.1//EN"
  "http://www.w3.org/Graphics/SVG/1.1/DTD/svg11.dtd">
<!-- Created with matplotlib (https://matplotlib.org/) -->
<svg height="473.76pt" version="1.1" viewBox="0 0 864 473.76" width="864pt" xmlns="http://www.w3.org/2000/svg" xmlns:xlink="http://www.w3.org/1999/xlink">
 <defs>
  <style type="text/css">
*{stroke-linecap:butt;stroke-linejoin:round;}
  </style>
 </defs>
 <g id="figure_1">
  <g id="patch_1">
   <path d="M 0 473.76 
L 864 473.76 
L 864 0 
L 0 0 
z
" style="fill:#ffffff;"/>
  </g>
  <g id="axes_1">
   <g id="patch_2">
    <path d="M 108 421.6464 
L 777.6 421.6464 
L 777.6 56.8512 
L 108 56.8512 
z
" style="fill:#ffffff;"/>
   </g>
   <g id="patch_3">
    <path clip-path="url(#p45033f14ff)" d="M 138.436364 421.6464 
L 160.4917 421.6464 
L 160.4917 416.76584 
L 138.436364 416.76584 
z
" style="fill:#919191;stroke:#000000;stroke-linejoin:miter;stroke-width:3;"/>
   </g>
   <g id="patch_4">
    <path clip-path="url(#p45033f14ff)" d="M 297.234783 421.6464 
L 319.290119 421.6464 
L 319.290119 417.932694 
L 297.234783 417.932694 
z
" style="fill:#919191;stroke:#000000;stroke-linejoin:miter;stroke-width:3;"/>
   </g>
   <g id="patch_5">
    <path clip-path="url(#p45033f14ff)" d="M 456.033202 421.6464 
L 478.088538 421.6464 
L 478.088538 414.470686 
L 456.033202 414.470686 
z
" style="fill:#919191;stroke:#000000;stroke-linejoin:miter;stroke-width:3;"/>
   </g>
   <g id="patch_6">
    <path clip-path="url(#p45033f14ff)" d="M 614.831621 421.6464 
L 636.886957 421.6464 
L 636.886957 407.612722 
L 614.831621 407.612722 
z
" style="fill:#919191;stroke:#000000;stroke-linejoin:miter;stroke-width:3;"/>
   </g>
   <g id="patch_7">
    <path clip-path="url(#p45033f14ff)" d="M 160.4917 421.6464 
L 182.547036 421.6464 
L 182.547036 174.802336 
L 160.4917 174.802336 
z
" style="fill:#a600ff;stroke:#000000;stroke-linejoin:miter;stroke-width:3;"/>
   </g>
   <g id="patch_8">
    <path clip-path="url(#p45033f14ff)" d="M 319.290119 421.6464 
L 341.345455 421.6464 
L 341.345455 122.737652 
L 319.290119 122.737652 
z
" style="fill:#a600ff;stroke:#000000;stroke-linejoin:miter;stroke-width:3;"/>
   </g>
   <g id="patch_9">
    <path clip-path="url(#p45033f14ff)" d="M 478.088538 421.6464 
L 500.143874 421.6464 
L 500.143874 77.791396 
L 478.088538 77.791396 
z
" style="fill:#a600ff;stroke:#000000;stroke-linejoin:miter;stroke-width:3;"/>
   </g>
   <g id="patch_10">
    <path clip-path="url(#p45033f14ff)" d="M 636.886957 421.6464 
L 658.942292 421.6464 
L 658.942292 130.141205 
L 636.886957 130.141205 
z
" style="fill:#a600ff;stroke:#000000;stroke-linejoin:miter;stroke-width:3;"/>
   </g>
   <g id="patch_11">
    <path clip-path="url(#p45033f14ff)" d="M 182.547036 421.6464 
L 204.602372 421.6464 
L 204.602372 329.452701 
L 182.547036 329.452701 
z
" style="fill:#3b5bff;stroke:#000000;stroke-linejoin:miter;stroke-width:3;"/>
   </g>
   <g id="patch_12">
    <path clip-path="url(#p45033f14ff)" d="M 341.345455 421.6464 
L 363.400791 421.6464 
L 363.400791 237.82754 
L 341.345455 237.82754 
z
" style="fill:#3b5bff;stroke:#000000;stroke-linejoin:miter;stroke-width:3;"/>
   </g>
   <g id="patch_13">
    <path clip-path="url(#p45033f14ff)" d="M 500.143874 421.6464 
L 522.199209 421.6464 
L 522.199209 175.56562 
L 500.143874 175.56562 
z
" style="fill:#3b5bff;stroke:#000000;stroke-linejoin:miter;stroke-width:3;"/>
   </g>
   <g id="patch_14">
    <path clip-path="url(#p45033f14ff)" d="M 658.942292 421.6464 
L 680.997628 421.6464 
L 680.997628 141.235428 
L 658.942292 141.235428 
z
" style="fill:#3b5bff;stroke:#000000;stroke-linejoin:miter;stroke-width:3;"/>
   </g>
   <g id="patch_15">
    <path clip-path="url(#p45033f14ff)" d="M 204.602372 421.6464 
L 226.657708 421.6464 
L 226.657708 389.056729 
L 204.602372 389.056729 
z
" style="fill:#3bff69;stroke:#000000;stroke-linejoin:miter;stroke-width:3;"/>
   </g>
   <g id="patch_16">
    <path clip-path="url(#p45033f14ff)" d="M 363.400791 421.6464 
L 385.456126 421.6464 
L 385.456126 316.59301 
L 363.400791 316.59301 
z
" style="fill:#3bff69;stroke:#000000;stroke-linejoin:miter;stroke-width:3;"/>
   </g>
   <g id="patch_17">
    <path clip-path="url(#p45033f14ff)" d="M 522.199209 421.6464 
L 544.254545 421.6464 
L 544.254545 239.533016 
L 522.199209 239.533016 
z
" style="fill:#3bff69;stroke:#000000;stroke-linejoin:miter;stroke-width:3;"/>
   </g>
   <g id="patch_18">
    <path clip-path="url(#p45033f14ff)" d="M 680.997628 421.6464 
L 703.052964 421.6464 
L 703.052964 193.739251 
L 680.997628 193.739251 
z
" style="fill:#3bff69;stroke:#000000;stroke-linejoin:miter;stroke-width:3;"/>
   </g>
   <g id="patch_19">
    <path clip-path="url(#p45033f14ff)" d="M 226.657708 421.6464 
L 248.713043 421.6464 
L 248.713043 412.925831 
L 226.657708 412.925831 
z
" style="fill:#f7d600;stroke:#000000;stroke-linejoin:miter;stroke-width:3;"/>
   </g>
   <g id="patch_20">
    <path clip-path="url(#p45033f14ff)" d="M 385.456126 421.6464 
L 407.511462 421.6464 
L 407.511462 394.594263 
L 385.456126 394.594263 
z
" style="fill:#f7d600;stroke:#000000;stroke-linejoin:miter;stroke-width:3;"/>
   </g>
   <g id="patch_21">
    <path clip-path="url(#p45033f14ff)" d="M 544.254545 421.6464 
L 566.309881 421.6464 
L 566.309881 339.814393 
L 544.254545 339.814393 
z
" style="fill:#f7d600;stroke:#000000;stroke-linejoin:miter;stroke-width:3;"/>
   </g>
   <g id="patch_22">
    <path clip-path="url(#p45033f14ff)" d="M 703.052964 421.6464 
L 725.1083 421.6464 
L 725.1083 301.611733 
L 703.052964 301.611733 
z
" style="fill:#f7d600;stroke:#000000;stroke-linejoin:miter;stroke-width:3;"/>
   </g>
   <g id="patch_23">
    <path clip-path="url(#p45033f14ff)" d="M 248.713043 421.6464 
L 270.768379 421.6464 
L 270.768379 415.282298 
L 248.713043 415.282298 
z
" style="fill:#1c8501;stroke:#000000;stroke-linejoin:miter;stroke-width:3;"/>
   </g>
   <g id="patch_24">
    <path clip-path="url(#p45033f14ff)" d="M 407.511462 421.6464 
L 429.566798 421.6464 
L 429.566798 411.040406 
L 407.511462 411.040406 
z
" style="fill:#1c8501;stroke:#000000;stroke-linejoin:miter;stroke-width:3;"/>
   </g>
   <g id="patch_25">
    <path clip-path="url(#p45033f14ff)" d="M 566.309881 421.6464 
L 588.365217 421.6464 
L 588.365217 394.088593 
L 566.309881 394.088593 
z
" style="fill:#1c8501;stroke:#000000;stroke-linejoin:miter;stroke-width:3;"/>
   </g>
   <g id="patch_26">
    <path clip-path="url(#p45033f14ff)" d="M 725.1083 421.6464 
L 747.163636 421.6464 
L 747.163636 328.921419 
L 725.1083 328.921419 
z
" style="fill:#1c8501;stroke:#000000;stroke-linejoin:miter;stroke-width:3;"/>
   </g>
   <g id="LineCollection_1">
    <path clip-path="url(#p45033f14ff)" d="M 149.464032 416.98674 
L 149.464032 416.544939 
" style="fill:none;stroke:#000000;stroke-width:2;"/>
    <path clip-path="url(#p45033f14ff)" d="M 308.262451 418.127069 
L 308.262451 417.738318 
" style="fill:none;stroke:#000000;stroke-width:2;"/>
    <path clip-path="url(#p45033f14ff)" d="M 467.06087 414.535271 
L 467.06087 414.406102 
" style="fill:none;stroke:#000000;stroke-width:2;"/>
    <path clip-path="url(#p45033f14ff)" d="M 625.859289 407.772886 
L 625.859289 407.452557 
" style="fill:none;stroke:#000000;stroke-width:2;"/>
   </g>
   <g id="LineCollection_2">
    <path clip-path="url(#p45033f14ff)" d="M 171.519368 177.254624 
L 171.519368 172.350048 
" style="fill:none;stroke:#000000;stroke-width:2;"/>
    <path clip-path="url(#p45033f14ff)" d="M 330.317787 127.642028 
L 330.317787 117.833276 
" style="fill:none;stroke:#000000;stroke-width:2;"/>
    <path clip-path="url(#p45033f14ff)" d="M 489.116206 81.360393 
L 489.116206 74.2224 
" style="fill:none;stroke:#000000;stroke-width:2;"/>
    <path clip-path="url(#p45033f14ff)" d="M 647.914625 133.339427 
L 647.914625 126.942982 
" style="fill:none;stroke:#000000;stroke-width:2;"/>
   </g>
   <g id="LineCollection_3">
    <path clip-path="url(#p45033f14ff)" d="M 193.574704 332.55468 
L 193.574704 326.350722 
" style="fill:none;stroke:#000000;stroke-width:2;"/>
    <path clip-path="url(#p45033f14ff)" d="M 352.373123 241.464052 
L 352.373123 234.191029 
" style="fill:none;stroke:#000000;stroke-width:2;"/>
    <path clip-path="url(#p45033f14ff)" d="M 511.171542 181.30764 
L 511.171542 169.8236 
" style="fill:none;stroke:#000000;stroke-width:2;"/>
    <path clip-path="url(#p45033f14ff)" d="M 669.96996 147.061556 
L 669.96996 135.409299 
" style="fill:none;stroke:#000000;stroke-width:2;"/>
   </g>
   <g id="LineCollection_4">
    <path clip-path="url(#p45033f14ff)" d="M 215.63004 389.247165 
L 215.63004 388.866293 
" style="fill:none;stroke:#000000;stroke-width:2;"/>
    <path clip-path="url(#p45033f14ff)" d="M 374.428458 318.042354 
L 374.428458 315.143666 
" style="fill:none;stroke:#000000;stroke-width:2;"/>
    <path clip-path="url(#p45033f14ff)" d="M 533.226877 241.396598 
L 533.226877 237.669434 
" style="fill:none;stroke:#000000;stroke-width:2;"/>
    <path clip-path="url(#p45033f14ff)" d="M 692.025296 197.208166 
L 692.025296 190.270337 
" style="fill:none;stroke:#000000;stroke-width:2;"/>
   </g>
   <g id="LineCollection_5">
    <path clip-path="url(#p45033f14ff)" d="M 237.685375 413.089786 
L 237.685375 412.761877 
" style="fill:none;stroke:#000000;stroke-width:2;"/>
    <path clip-path="url(#p45033f14ff)" d="M 396.483794 395.106094 
L 396.483794 394.082431 
" style="fill:none;stroke:#000000;stroke-width:2;"/>
    <path clip-path="url(#p45033f14ff)" d="M 555.282213 341.369133 
L 555.282213 338.259653 
" style="fill:none;stroke:#000000;stroke-width:2;"/>
    <path clip-path="url(#p45033f14ff)" d="M 714.080632 303.734636 
L 714.080632 299.488831 
" style="fill:none;stroke:#000000;stroke-width:2;"/>
   </g>
   <g id="LineCollection_6">
    <path clip-path="url(#p45033f14ff)" d="M 259.740711 415.323916 
L 259.740711 415.240679 
" style="fill:none;stroke:#000000;stroke-width:2;"/>
    <path clip-path="url(#p45033f14ff)" d="M 418.53913 411.35177 
L 418.53913 410.729043 
" style="fill:none;stroke:#000000;stroke-width:2;"/>
    <path clip-path="url(#p45033f14ff)" d="M 577.337549 394.645887 
L 577.337549 393.531299 
" style="fill:none;stroke:#000000;stroke-width:2;"/>
    <path clip-path="url(#p45033f14ff)" d="M 736.135968 331.105281 
L 736.135968 326.737558 
" style="fill:none;stroke:#000000;stroke-width:2;"/>
   </g>
   <g id="line2d_1">
    <defs>
     <path d="M 5 0 
L -5 -0 
" id="m6aabd16359" style="stroke:#000000;stroke-width:2;"/>
    </defs>
    <g clip-path="url(#p45033f14ff)">
     <use style="stroke:#000000;stroke-width:2;" x="149.464032" xlink:href="#m6aabd16359" y="416.98674"/>
     <use style="stroke:#000000;stroke-width:2;" x="308.262451" xlink:href="#m6aabd16359" y="418.127069"/>
     <use style="stroke:#000000;stroke-width:2;" x="467.06087" xlink:href="#m6aabd16359" y="414.535271"/>
     <use style="stroke:#000000;stroke-width:2;" x="625.859289" xlink:href="#m6aabd16359" y="407.772886"/>
    </g>
   </g>
   <g id="line2d_2">
    <g clip-path="url(#p45033f14ff)">
     <use style="stroke:#000000;stroke-width:2;" x="149.464032" xlink:href="#m6aabd16359" y="416.544939"/>
     <use style="stroke:#000000;stroke-width:2;" x="308.262451" xlink:href="#m6aabd16359" y="417.738318"/>
     <use style="stroke:#000000;stroke-width:2;" x="467.06087" xlink:href="#m6aabd16359" y="414.406102"/>
     <use style="stroke:#000000;stroke-width:2;" x="625.859289" xlink:href="#m6aabd16359" y="407.452557"/>
    </g>
   </g>
   <g id="line2d_3">
    <g clip-path="url(#p45033f14ff)">
     <use style="stroke:#000000;stroke-width:2;" x="171.519368" xlink:href="#m6aabd16359" y="177.254624"/>
     <use style="stroke:#000000;stroke-width:2;" x="330.317787" xlink:href="#m6aabd16359" y="127.642028"/>
     <use style="stroke:#000000;stroke-width:2;" x="489.116206" xlink:href="#m6aabd16359" y="81.360393"/>
     <use style="stroke:#000000;stroke-width:2;" x="647.914625" xlink:href="#m6aabd16359" y="133.339427"/>
    </g>
   </g>
   <g id="line2d_4">
    <g clip-path="url(#p45033f14ff)">
     <use style="stroke:#000000;stroke-width:2;" x="171.519368" xlink:href="#m6aabd16359" y="172.350048"/>
     <use style="stroke:#000000;stroke-width:2;" x="330.317787" xlink:href="#m6aabd16359" y="117.833276"/>
     <use style="stroke:#000000;stroke-width:2;" x="489.116206" xlink:href="#m6aabd16359" y="74.2224"/>
     <use style="stroke:#000000;stroke-width:2;" x="647.914625" xlink:href="#m6aabd16359" y="126.942982"/>
    </g>
   </g>
   <g id="line2d_5">
    <g clip-path="url(#p45033f14ff)">
     <use style="stroke:#000000;stroke-width:2;" x="193.574704" xlink:href="#m6aabd16359" y="332.55468"/>
     <use style="stroke:#000000;stroke-width:2;" x="352.373123" xlink:href="#m6aabd16359" y="241.464052"/>
     <use style="stroke:#000000;stroke-width:2;" x="511.171542" xlink:href="#m6aabd16359" y="181.30764"/>
     <use style="stroke:#000000;stroke-width:2;" x="669.96996" xlink:href="#m6aabd16359" y="147.061556"/>
    </g>
   </g>
   <g id="line2d_6">
    <g clip-path="url(#p45033f14ff)">
     <use style="stroke:#000000;stroke-width:2;" x="193.574704" xlink:href="#m6aabd16359" y="326.350722"/>
     <use style="stroke:#000000;stroke-width:2;" x="352.373123" xlink:href="#m6aabd16359" y="234.191029"/>
     <use style="stroke:#000000;stroke-width:2;" x="511.171542" xlink:href="#m6aabd16359" y="169.8236"/>
     <use style="stroke:#000000;stroke-width:2;" x="669.96996" xlink:href="#m6aabd16359" y="135.409299"/>
    </g>
   </g>
   <g id="line2d_7">
    <g clip-path="url(#p45033f14ff)">
     <use style="stroke:#000000;stroke-width:2;" x="215.63004" xlink:href="#m6aabd16359" y="389.247165"/>
     <use style="stroke:#000000;stroke-width:2;" x="374.428458" xlink:href="#m6aabd16359" y="318.042354"/>
     <use style="stroke:#000000;stroke-width:2;" x="533.226877" xlink:href="#m6aabd16359" y="241.396598"/>
     <use style="stroke:#000000;stroke-width:2;" x="692.025296" xlink:href="#m6aabd16359" y="197.208166"/>
    </g>
   </g>
   <g id="line2d_8">
    <g clip-path="url(#p45033f14ff)">
     <use style="stroke:#000000;stroke-width:2;" x="215.63004" xlink:href="#m6aabd16359" y="388.866293"/>
     <use style="stroke:#000000;stroke-width:2;" x="374.428458" xlink:href="#m6aabd16359" y="315.143666"/>
     <use style="stroke:#000000;stroke-width:2;" x="533.226877" xlink:href="#m6aabd16359" y="237.669434"/>
     <use style="stroke:#000000;stroke-width:2;" x="692.025296" xlink:href="#m6aabd16359" y="190.270337"/>
    </g>
   </g>
   <g id="line2d_9">
    <g clip-path="url(#p45033f14ff)">
     <use style="stroke:#000000;stroke-width:2;" x="237.685375" xlink:href="#m6aabd16359" y="413.089786"/>
     <use style="stroke:#000000;stroke-width:2;" x="396.483794" xlink:href="#m6aabd16359" y="395.106094"/>
     <use style="stroke:#000000;stroke-width:2;" x="555.282213" xlink:href="#m6aabd16359" y="341.369133"/>
     <use style="stroke:#000000;stroke-width:2;" x="714.080632" xlink:href="#m6aabd16359" y="303.734636"/>
    </g>
   </g>
   <g id="line2d_10">
    <g clip-path="url(#p45033f14ff)">
     <use style="stroke:#000000;stroke-width:2;" x="237.685375" xlink:href="#m6aabd16359" y="412.761877"/>
     <use style="stroke:#000000;stroke-width:2;" x="396.483794" xlink:href="#m6aabd16359" y="394.082431"/>
     <use style="stroke:#000000;stroke-width:2;" x="555.282213" xlink:href="#m6aabd16359" y="338.259653"/>
     <use style="stroke:#000000;stroke-width:2;" x="714.080632" xlink:href="#m6aabd16359" y="299.488831"/>
    </g>
   </g>
   <g id="line2d_11">
    <g clip-path="url(#p45033f14ff)">
     <use style="stroke:#000000;stroke-width:2;" x="259.740711" xlink:href="#m6aabd16359" y="415.323916"/>
     <use style="stroke:#000000;stroke-width:2;" x="418.53913" xlink:href="#m6aabd16359" y="411.35177"/>
     <use style="stroke:#000000;stroke-width:2;" x="577.337549" xlink:href="#m6aabd16359" y="394.645887"/>
     <use style="stroke:#000000;stroke-width:2;" x="736.135968" xlink:href="#m6aabd16359" y="331.105281"/>
    </g>
   </g>
   <g id="line2d_12">
    <g clip-path="url(#p45033f14ff)">
     <use style="stroke:#000000;stroke-width:2;" x="259.740711" xlink:href="#m6aabd16359" y="415.240679"/>
     <use style="stroke:#000000;stroke-width:2;" x="418.53913" xlink:href="#m6aabd16359" y="410.729043"/>
     <use style="stroke:#000000;stroke-width:2;" x="577.337549" xlink:href="#m6aabd16359" y="393.531299"/>
     <use style="stroke:#000000;stroke-width:2;" x="736.135968" xlink:href="#m6aabd16359" y="326.737558"/>
    </g>
   </g>
   <g id="matplotlib.axis_1">
    <g id="xtick_1">
     <g id="line2d_13">
      <defs>
       <path d="M 0 0 
L 0 2 
" id="ma3ff5cdd8a" style="stroke:#000000;"/>
      </defs>
      <g>
       <use style="stroke:#000000;" x="204.602372" xlink:href="#ma3ff5cdd8a" y="421.6464"/>
      </g>
     </g>
     <g id="text_1">
      <!-- WT -->
      <defs>
       <path d="M 3.328125 72.90625 
L 13.28125 72.90625 
L 28.609375 11.28125 
L 43.890625 72.90625 
L 54.984375 72.90625 
L 70.3125 11.28125 
L 85.59375 72.90625 
L 95.609375 72.90625 
L 77.296875 0 
L 64.890625 0 
L 49.515625 63.28125 
L 33.984375 0 
L 21.578125 0 
z
" id="DejaVuSans-87"/>
       <path d="M -0.296875 72.90625 
L 61.375 72.90625 
L 61.375 64.59375 
L 35.5 64.59375 
L 35.5 0 
L 25.59375 0 
L 25.59375 64.59375 
L -0.296875 64.59375 
z
" id="DejaVuSans-84"/>
      </defs>
      <g transform="translate(188.607059 442.343275)scale(0.2 -0.2)">
       <use xlink:href="#DejaVuSans-87"/>
       <use x="98.876953" xlink:href="#DejaVuSans-84"/>
      </g>
     </g>
    </g>
    <g id="xtick_2">
     <g id="line2d_14">
      <g>
       <use style="stroke:#000000;" x="363.400791" xlink:href="#ma3ff5cdd8a" y="421.6464"/>
      </g>
     </g>
     <g id="text_2">
      <!-- FEN1 -->
      <defs>
       <path d="M 9.8125 72.90625 
L 51.703125 72.90625 
L 51.703125 64.59375 
L 19.671875 64.59375 
L 19.671875 43.109375 
L 48.578125 43.109375 
L 48.578125 34.8125 
L 19.671875 34.8125 
L 19.671875 0 
L 9.8125 0 
z
" id="DejaVuSans-70"/>
       <path d="M 9.8125 72.90625 
L 55.90625 72.90625 
L 55.90625 64.59375 
L 19.671875 64.59375 
L 19.671875 43.015625 
L 54.390625 43.015625 
L 54.390625 34.71875 
L 19.671875 34.71875 
L 19.671875 8.296875 
L 56.78125 8.296875 
L 56.78125 0 
L 9.8125 0 
z
" id="DejaVuSans-69"/>
       <path d="M 9.8125 72.90625 
L 23.09375 72.90625 
L 55.421875 11.921875 
L 55.421875 72.90625 
L 64.984375 72.90625 
L 64.984375 0 
L 51.703125 0 
L 19.390625 60.984375 
L 19.390625 0 
L 9.8125 0 
z
" id="DejaVuSans-78"/>
       <path d="M 12.40625 8.296875 
L 28.515625 8.296875 
L 28.515625 63.921875 
L 10.984375 60.40625 
L 10.984375 69.390625 
L 28.421875 72.90625 
L 38.28125 72.90625 
L 38.28125 8.296875 
L 54.390625 8.296875 
L 54.390625 0 
L 12.40625 0 
z
" id="DejaVuSans-49"/>
      </defs>
      <g transform="translate(337.486728 442.343275)scale(0.2 -0.2)">
       <use xlink:href="#DejaVuSans-70"/>
       <use x="57.519531" xlink:href="#DejaVuSans-69"/>
       <use x="120.703125" xlink:href="#DejaVuSans-78"/>
       <use x="195.507812" xlink:href="#DejaVuSans-49"/>
      </g>
     </g>
    </g>
    <g id="xtick_3">
     <g id="line2d_15">
      <g>
       <use style="stroke:#000000;" x="522.199209" xlink:href="#ma3ff5cdd8a" y="421.6464"/>
      </g>
     </g>
     <g id="text_3">
      <!-- FEN2 -->
      <defs>
       <path d="M 19.1875 8.296875 
L 53.609375 8.296875 
L 53.609375 0 
L 7.328125 0 
L 7.328125 8.296875 
Q 12.9375 14.109375 22.625 23.890625 
Q 32.328125 33.6875 34.8125 36.53125 
Q 39.546875 41.84375 41.421875 45.53125 
Q 43.3125 49.21875 43.3125 52.78125 
Q 43.3125 58.59375 39.234375 62.25 
Q 35.15625 65.921875 28.609375 65.921875 
Q 23.96875 65.921875 18.8125 64.3125 
Q 13.671875 62.703125 7.8125 59.421875 
L 7.8125 69.390625 
Q 13.765625 71.78125 18.9375 73 
Q 24.125 74.21875 28.421875 74.21875 
Q 39.75 74.21875 46.484375 68.546875 
Q 53.21875 62.890625 53.21875 53.421875 
Q 53.21875 48.921875 51.53125 44.890625 
Q 49.859375 40.875 45.40625 35.40625 
Q 44.1875 33.984375 37.640625 27.21875 
Q 31.109375 20.453125 19.1875 8.296875 
z
" id="DejaVuSans-50"/>
      </defs>
      <g transform="translate(496.285147 442.343275)scale(0.2 -0.2)">
       <use xlink:href="#DejaVuSans-70"/>
       <use x="57.519531" xlink:href="#DejaVuSans-69"/>
       <use x="120.703125" xlink:href="#DejaVuSans-78"/>
       <use x="195.507812" xlink:href="#DejaVuSans-50"/>
      </g>
     </g>
    </g>
    <g id="xtick_4">
     <g id="line2d_16">
      <g>
       <use style="stroke:#000000;" x="680.997628" xlink:href="#ma3ff5cdd8a" y="421.6464"/>
      </g>
     </g>
     <g id="text_4">
      <!-- FEN3 -->
      <defs>
       <path d="M 40.578125 39.3125 
Q 47.65625 37.796875 51.625 33 
Q 55.609375 28.21875 55.609375 21.1875 
Q 55.609375 10.40625 48.1875 4.484375 
Q 40.765625 -1.421875 27.09375 -1.421875 
Q 22.515625 -1.421875 17.65625 -0.515625 
Q 12.796875 0.390625 7.625 2.203125 
L 7.625 11.71875 
Q 11.71875 9.328125 16.59375 8.109375 
Q 21.484375 6.890625 26.8125 6.890625 
Q 36.078125 6.890625 40.9375 10.546875 
Q 45.796875 14.203125 45.796875 21.1875 
Q 45.796875 27.640625 41.28125 31.265625 
Q 36.765625 34.90625 28.71875 34.90625 
L 20.21875 34.90625 
L 20.21875 43.015625 
L 29.109375 43.015625 
Q 36.375 43.015625 40.234375 45.921875 
Q 44.09375 48.828125 44.09375 54.296875 
Q 44.09375 59.90625 40.109375 62.90625 
Q 36.140625 65.921875 28.71875 65.921875 
Q 24.65625 65.921875 20.015625 65.03125 
Q 15.375 64.15625 9.8125 62.3125 
L 9.8125 71.09375 
Q 15.4375 72.65625 20.34375 73.4375 
Q 25.25 74.21875 29.59375 74.21875 
Q 40.828125 74.21875 47.359375 69.109375 
Q 53.90625 64.015625 53.90625 55.328125 
Q 53.90625 49.265625 50.4375 45.09375 
Q 46.96875 40.921875 40.578125 39.3125 
z
" id="DejaVuSans-51"/>
      </defs>
      <g transform="translate(655.083566 442.343275)scale(0.2 -0.2)">
       <use xlink:href="#DejaVuSans-70"/>
       <use x="57.519531" xlink:href="#DejaVuSans-69"/>
       <use x="120.703125" xlink:href="#DejaVuSans-78"/>
       <use x="195.507812" xlink:href="#DejaVuSans-51"/>
      </g>
     </g>
    </g>
    <g id="text_5">
     <!-- Sensor -->
     <defs>
      <path d="M 53.515625 70.515625 
L 53.515625 60.890625 
Q 47.90625 63.578125 42.921875 64.890625 
Q 37.9375 66.21875 33.296875 66.21875 
Q 25.25 66.21875 20.875 63.09375 
Q 16.5 59.96875 16.5 54.203125 
Q 16.5 49.359375 19.40625 46.890625 
Q 22.3125 44.4375 30.421875 42.921875 
L 36.375 41.703125 
Q 47.40625 39.59375 52.65625 34.296875 
Q 57.90625 29 57.90625 20.125 
Q 57.90625 9.515625 50.796875 4.046875 
Q 43.703125 -1.421875 29.984375 -1.421875 
Q 24.8125 -1.421875 18.96875 -0.25 
Q 13.140625 0.921875 6.890625 3.21875 
L 6.890625 13.375 
Q 12.890625 10.015625 18.65625 8.296875 
Q 24.421875 6.59375 29.984375 6.59375 
Q 38.421875 6.59375 43.015625 9.90625 
Q 47.609375 13.234375 47.609375 19.390625 
Q 47.609375 24.75 44.3125 27.78125 
Q 41.015625 30.8125 33.5 32.328125 
L 27.484375 33.5 
Q 16.453125 35.6875 11.515625 40.375 
Q 6.59375 45.0625 6.59375 53.421875 
Q 6.59375 63.09375 13.40625 68.65625 
Q 20.21875 74.21875 32.171875 74.21875 
Q 37.3125 74.21875 42.625 73.28125 
Q 47.953125 72.359375 53.515625 70.515625 
z
" id="DejaVuSans-83"/>
      <path d="M 56.203125 29.59375 
L 56.203125 25.203125 
L 14.890625 25.203125 
Q 15.484375 15.921875 20.484375 11.0625 
Q 25.484375 6.203125 34.421875 6.203125 
Q 39.59375 6.203125 44.453125 7.46875 
Q 49.3125 8.734375 54.109375 11.28125 
L 54.109375 2.78125 
Q 49.265625 0.734375 44.1875 -0.34375 
Q 39.109375 -1.421875 33.890625 -1.421875 
Q 20.796875 -1.421875 13.15625 6.1875 
Q 5.515625 13.8125 5.515625 26.8125 
Q 5.515625 40.234375 12.765625 48.109375 
Q 20.015625 56 32.328125 56 
Q 43.359375 56 49.78125 48.890625 
Q 56.203125 41.796875 56.203125 29.59375 
z
M 47.21875 32.234375 
Q 47.125 39.59375 43.09375 43.984375 
Q 39.0625 48.390625 32.421875 48.390625 
Q 24.90625 48.390625 20.390625 44.140625 
Q 15.875 39.890625 15.1875 32.171875 
z
" id="DejaVuSans-101"/>
      <path d="M 54.890625 33.015625 
L 54.890625 0 
L 45.90625 0 
L 45.90625 32.71875 
Q 45.90625 40.484375 42.875 44.328125 
Q 39.84375 48.1875 33.796875 48.1875 
Q 26.515625 48.1875 22.3125 43.546875 
Q 18.109375 38.921875 18.109375 30.90625 
L 18.109375 0 
L 9.078125 0 
L 9.078125 54.6875 
L 18.109375 54.6875 
L 18.109375 46.1875 
Q 21.34375 51.125 25.703125 53.5625 
Q 30.078125 56 35.796875 56 
Q 45.21875 56 50.046875 50.171875 
Q 54.890625 44.34375 54.890625 33.015625 
z
" id="DejaVuSans-110"/>
      <path d="M 44.28125 53.078125 
L 44.28125 44.578125 
Q 40.484375 46.53125 36.375 47.5 
Q 32.28125 48.484375 27.875 48.484375 
Q 21.1875 48.484375 17.84375 46.4375 
Q 14.5 44.390625 14.5 40.28125 
Q 14.5 37.15625 16.890625 35.375 
Q 19.28125 33.59375 26.515625 31.984375 
L 29.59375 31.296875 
Q 39.15625 29.25 43.1875 25.515625 
Q 47.21875 21.78125 47.21875 15.09375 
Q 47.21875 7.46875 41.1875 3.015625 
Q 35.15625 -1.421875 24.609375 -1.421875 
Q 20.21875 -1.421875 15.453125 -0.5625 
Q 10.6875 0.296875 5.421875 2 
L 5.421875 11.28125 
Q 10.40625 8.6875 15.234375 7.390625 
Q 20.0625 6.109375 24.8125 6.109375 
Q 31.15625 6.109375 34.5625 8.28125 
Q 37.984375 10.453125 37.984375 14.40625 
Q 37.984375 18.0625 35.515625 20.015625 
Q 33.0625 21.96875 24.703125 23.78125 
L 21.578125 24.515625 
Q 13.234375 26.265625 9.515625 29.90625 
Q 5.8125 33.546875 5.8125 39.890625 
Q 5.8125 47.609375 11.28125 51.796875 
Q 16.75 56 26.8125 56 
Q 31.78125 56 36.171875 55.265625 
Q 40.578125 54.546875 44.28125 53.078125 
z
" id="DejaVuSans-115"/>
      <path d="M 30.609375 48.390625 
Q 23.390625 48.390625 19.1875 42.75 
Q 14.984375 37.109375 14.984375 27.296875 
Q 14.984375 17.484375 19.15625 11.84375 
Q 23.34375 6.203125 30.609375 6.203125 
Q 37.796875 6.203125 41.984375 11.859375 
Q 46.1875 17.53125 46.1875 27.296875 
Q 46.1875 37.015625 41.984375 42.703125 
Q 37.796875 48.390625 30.609375 48.390625 
z
M 30.609375 56 
Q 42.328125 56 49.015625 48.375 
Q 55.71875 40.765625 55.71875 27.296875 
Q 55.71875 13.875 49.015625 6.21875 
Q 42.328125 -1.421875 30.609375 -1.421875 
Q 18.84375 -1.421875 12.171875 6.21875 
Q 5.515625 13.875 5.515625 27.296875 
Q 5.515625 40.765625 12.171875 48.375 
Q 18.84375 56 30.609375 56 
z
" id="DejaVuSans-111"/>
      <path d="M 41.109375 46.296875 
Q 39.59375 47.171875 37.8125 47.578125 
Q 36.03125 48 33.890625 48 
Q 26.265625 48 22.1875 43.046875 
Q 18.109375 38.09375 18.109375 28.8125 
L 18.109375 0 
L 9.078125 0 
L 9.078125 54.6875 
L 18.109375 54.6875 
L 18.109375 46.1875 
Q 20.953125 51.171875 25.484375 53.578125 
Q 30.03125 56 36.53125 56 
Q 37.453125 56 38.578125 55.875 
Q 39.703125 55.765625 41.0625 55.515625 
z
" id="DejaVuSans-114"/>
     </defs>
     <g transform="translate(398.238438 470.258587)scale(0.26 -0.26)">
      <use xlink:href="#DejaVuSans-83"/>
      <use x="63.476562" xlink:href="#DejaVuSans-101"/>
      <use x="125" xlink:href="#DejaVuSans-110"/>
      <use x="188.378906" xlink:href="#DejaVuSans-115"/>
      <use x="240.478516" xlink:href="#DejaVuSans-111"/>
      <use x="301.660156" xlink:href="#DejaVuSans-114"/>
     </g>
    </g>
   </g>
   <g id="matplotlib.axis_2">
    <g id="ytick_1">
     <g id="line2d_17">
      <defs>
       <path d="M 0 0 
L -2 0 
" id="md883f2a763" style="stroke:#000000;"/>
      </defs>
      <g>
       <use style="stroke:#000000;" x="108" xlink:href="#md883f2a763" y="421.6464"/>
      </g>
     </g>
     <g id="text_6">
      <!-- 0.0 -->
      <defs>
       <path d="M 31.78125 66.40625 
Q 24.171875 66.40625 20.328125 58.90625 
Q 16.5 51.421875 16.5 36.375 
Q 16.5 21.390625 20.328125 13.890625 
Q 24.171875 6.390625 31.78125 6.390625 
Q 39.453125 6.390625 43.28125 13.890625 
Q 47.125 21.390625 47.125 36.375 
Q 47.125 51.421875 43.28125 58.90625 
Q 39.453125 66.40625 31.78125 66.40625 
z
M 31.78125 74.21875 
Q 44.046875 74.21875 50.515625 64.515625 
Q 56.984375 54.828125 56.984375 36.375 
Q 56.984375 17.96875 50.515625 8.265625 
Q 44.046875 -1.421875 31.78125 -1.421875 
Q 19.53125 -1.421875 13.0625 8.265625 
Q 6.59375 17.96875 6.59375 36.375 
Q 6.59375 54.828125 13.0625 64.515625 
Q 19.53125 74.21875 31.78125 74.21875 
z
" id="DejaVuSans-48"/>
       <path d="M 10.6875 12.40625 
L 21 12.40625 
L 21 0 
L 10.6875 0 
z
" id="DejaVuSans-46"/>
      </defs>
      <g transform="translate(67.513125 430.004681)scale(0.22 -0.22)">
       <use xlink:href="#DejaVuSans-48"/>
       <use x="63.623047" xlink:href="#DejaVuSans-46"/>
       <use x="95.410156" xlink:href="#DejaVuSans-48"/>
      </g>
     </g>
    </g>
    <g id="ytick_2">
     <g id="line2d_18">
      <g>
       <use style="stroke:#000000;" x="108" xlink:href="#md883f2a763" y="361.255733"/>
      </g>
     </g>
     <g id="text_7">
      <!-- 0.5 -->
      <defs>
       <path d="M 10.796875 72.90625 
L 49.515625 72.90625 
L 49.515625 64.59375 
L 19.828125 64.59375 
L 19.828125 46.734375 
Q 21.96875 47.46875 24.109375 47.828125 
Q 26.265625 48.1875 28.421875 48.1875 
Q 40.625 48.1875 47.75 41.5 
Q 54.890625 34.8125 54.890625 23.390625 
Q 54.890625 11.625 47.5625 5.09375 
Q 40.234375 -1.421875 26.90625 -1.421875 
Q 22.3125 -1.421875 17.546875 -0.640625 
Q 12.796875 0.140625 7.71875 1.703125 
L 7.71875 11.625 
Q 12.109375 9.234375 16.796875 8.0625 
Q 21.484375 6.890625 26.703125 6.890625 
Q 35.15625 6.890625 40.078125 11.328125 
Q 45.015625 15.765625 45.015625 23.390625 
Q 45.015625 31 40.078125 35.4375 
Q 35.15625 39.890625 26.703125 39.890625 
Q 22.75 39.890625 18.8125 39.015625 
Q 14.890625 38.140625 10.796875 36.28125 
z
" id="DejaVuSans-53"/>
      </defs>
      <g transform="translate(67.513125 369.614014)scale(0.22 -0.22)">
       <use xlink:href="#DejaVuSans-48"/>
       <use x="63.623047" xlink:href="#DejaVuSans-46"/>
       <use x="95.410156" xlink:href="#DejaVuSans-53"/>
      </g>
     </g>
    </g>
    <g id="ytick_3">
     <g id="line2d_19">
      <g>
       <use style="stroke:#000000;" x="108" xlink:href="#md883f2a763" y="300.865066"/>
      </g>
     </g>
     <g id="text_8">
      <!-- 1.0 -->
      <g transform="translate(67.513125 309.223348)scale(0.22 -0.22)">
       <use xlink:href="#DejaVuSans-49"/>
       <use x="63.623047" xlink:href="#DejaVuSans-46"/>
       <use x="95.410156" xlink:href="#DejaVuSans-48"/>
      </g>
     </g>
    </g>
    <g id="ytick_4">
     <g id="line2d_20">
      <g>
       <use style="stroke:#000000;" x="108" xlink:href="#md883f2a763" y="240.4744"/>
      </g>
     </g>
     <g id="text_9">
      <!-- 1.5 -->
      <g transform="translate(67.513125 248.832681)scale(0.22 -0.22)">
       <use xlink:href="#DejaVuSans-49"/>
       <use x="63.623047" xlink:href="#DejaVuSans-46"/>
       <use x="95.410156" xlink:href="#DejaVuSans-53"/>
      </g>
     </g>
    </g>
    <g id="ytick_5">
     <g id="line2d_21">
      <g>
       <use style="stroke:#000000;" x="108" xlink:href="#md883f2a763" y="180.083733"/>
      </g>
     </g>
     <g id="text_10">
      <!-- 2.0 -->
      <g transform="translate(67.513125 188.442014)scale(0.22 -0.22)">
       <use xlink:href="#DejaVuSans-50"/>
       <use x="63.623047" xlink:href="#DejaVuSans-46"/>
       <use x="95.410156" xlink:href="#DejaVuSans-48"/>
      </g>
     </g>
    </g>
    <g id="ytick_6">
     <g id="line2d_22">
      <g>
       <use style="stroke:#000000;" x="108" xlink:href="#md883f2a763" y="119.693066"/>
      </g>
     </g>
     <g id="text_11">
      <!-- 2.5 -->
      <g transform="translate(67.513125 128.051347)scale(0.22 -0.22)">
       <use xlink:href="#DejaVuSans-50"/>
       <use x="63.623047" xlink:href="#DejaVuSans-46"/>
       <use x="95.410156" xlink:href="#DejaVuSans-53"/>
      </g>
     </g>
    </g>
    <g id="ytick_7">
     <g id="line2d_23">
      <g>
       <use style="stroke:#000000;" x="108" xlink:href="#md883f2a763" y="59.302399"/>
      </g>
     </g>
     <g id="text_12">
      <!-- 3.0 -->
      <g transform="translate(67.513125 67.66068)scale(0.22 -0.22)">
       <use xlink:href="#DejaVuSans-51"/>
       <use x="63.623047" xlink:href="#DejaVuSans-46"/>
       <use x="95.410156" xlink:href="#DejaVuSans-48"/>
      </g>
     </g>
    </g>
    <g id="text_13">
     <!-- $(RFU/OD) \times 10^4$ -->
     <defs>
      <path d="M 31 75.875 
Q 24.46875 64.65625 21.28125 53.65625 
Q 18.109375 42.671875 18.109375 31.390625 
Q 18.109375 20.125 21.3125 9.0625 
Q 24.515625 -2 31 -13.1875 
L 23.1875 -13.1875 
Q 15.875 -1.703125 12.234375 9.375 
Q 8.59375 20.453125 8.59375 31.390625 
Q 8.59375 42.28125 12.203125 53.3125 
Q 15.828125 64.359375 23.1875 75.875 
z
" id="DejaVuSans-40"/>
      <path d="M 25.203125 64.796875 
L 20.21875 38.921875 
L 32.90625 38.921875 
Q 40.375 38.921875 44.984375 43.046875 
Q 49.609375 47.171875 49.609375 53.8125 
Q 49.609375 59.125 46.5 61.953125 
Q 43.40625 64.796875 37.59375 64.796875 
z
M 43.3125 35.015625 
Q 46.4375 34.28125 48.515625 31.390625 
Q 50.59375 28.515625 53.328125 19.921875 
L 59.515625 0 
L 49.125 0 
L 43.40625 18.703125 
Q 41.21875 25.921875 38.328125 28.359375 
Q 35.453125 30.8125 29.5 30.8125 
L 18.609375 30.8125 
L 12.59375 0 
L 2.6875 0 
L 16.890625 72.90625 
L 39.109375 72.90625 
Q 49.21875 72.90625 54.609375 68.328125 
Q 60.015625 63.765625 60.015625 55.171875 
Q 60.015625 47.5625 55.421875 41.984375 
Q 50.828125 36.421875 43.3125 35.015625 
z
" id="DejaVuSans-Oblique-82"/>
      <path d="M 16.890625 72.90625 
L 58.6875 72.90625 
L 57.078125 64.59375 
L 25.09375 64.59375 
L 20.90625 43.109375 
L 49.8125 43.109375 
L 48.1875 34.8125 
L 19.28125 34.8125 
L 12.5 0 
L 2.6875 0 
z
" id="DejaVuSans-Oblique-70"/>
      <path d="M 15.484375 72.90625 
L 25.390625 72.90625 
L 16.796875 28.609375 
Q 16.265625 25.640625 16.046875 23.703125 
Q 15.828125 21.78125 15.828125 20.3125 
Q 15.828125 13.578125 19.578125 10.078125 
Q 23.34375 6.59375 30.609375 6.59375 
Q 40.046875 6.59375 45.28125 11.765625 
Q 50.53125 16.9375 52.78125 28.609375 
L 61.375 72.90625 
L 71.296875 72.90625 
L 62.5 27.390625 
Q 59.625 12.640625 51.5625 5.609375 
Q 43.5 -1.421875 29.5 -1.421875 
Q 18.5625 -1.421875 12.1875 4.078125 
Q 5.8125 9.578125 5.8125 19 
Q 5.8125 20.703125 6.046875 22.828125 
Q 6.296875 24.953125 6.78125 27.390625 
z
" id="DejaVuSans-Oblique-85"/>
      <path d="M 25.390625 72.90625 
L 33.6875 72.90625 
L 8.296875 -9.28125 
L 0 -9.28125 
z
" id="DejaVuSans-47"/>
      <path d="M 45.609375 66.21875 
Q 37.5 66.21875 31.296875 62.28125 
Q 25.09375 58.34375 20.515625 50.296875 
Q 17.578125 45.171875 16.03125 39.40625 
Q 14.5 33.640625 14.5 27.78125 
Q 14.5 17.625 19.359375 12.109375 
Q 24.21875 6.59375 33.109375 6.59375 
Q 41.109375 6.59375 47.375 10.5625 
Q 53.65625 14.546875 58.109375 22.40625 
Q 61.078125 27.6875 62.640625 33.46875 
Q 64.203125 39.265625 64.203125 45.015625 
Q 64.203125 55.125 59.3125 60.671875 
Q 54.4375 66.21875 45.609375 66.21875 
z
M 32.8125 -1.421875 
Q 19.390625 -1.421875 11.6875 6.53125 
Q 4 14.5 4 28.328125 
Q 4 36.234375 7 44.484375 
Q 10.015625 52.734375 15.28125 59.1875 
Q 21.484375 66.75 29.09375 70.484375 
Q 36.71875 74.21875 45.90625 74.21875 
Q 59.28125 74.21875 66.984375 66.328125 
Q 74.703125 58.453125 74.703125 44.828125 
Q 74.703125 36.421875 71.765625 28.3125 
Q 68.84375 20.21875 63.375 13.625 
Q 57.125 6 49.578125 2.28125 
Q 42.046875 -1.421875 32.8125 -1.421875 
z
" id="DejaVuSans-Oblique-79"/>
      <path d="M 16.890625 72.90625 
L 38.09375 72.90625 
Q 54.984375 72.90625 63.59375 65.75 
Q 72.21875 58.59375 72.21875 44.484375 
Q 72.21875 35.15625 68.9375 26.53125 
Q 65.671875 17.921875 59.90625 12.015625 
Q 54.109375 5.953125 45.171875 2.96875 
Q 36.234375 0 24.03125 0 
L 2.6875 0 
z
M 25.203125 64.796875 
L 14.203125 8.109375 
L 27.09375 8.109375 
Q 43.65625 8.109375 52.734375 17.625 
Q 61.8125 27.15625 61.8125 44.484375 
Q 61.8125 54.984375 55.953125 59.890625 
Q 50.09375 64.796875 37.59375 64.796875 
z
" id="DejaVuSans-Oblique-68"/>
      <path d="M 8.015625 75.875 
L 15.828125 75.875 
Q 23.140625 64.359375 26.78125 53.3125 
Q 30.421875 42.28125 30.421875 31.390625 
Q 30.421875 20.453125 26.78125 9.375 
Q 23.140625 -1.703125 15.828125 -13.1875 
L 8.015625 -13.1875 
Q 14.5 -2 17.703125 9.0625 
Q 20.90625 20.125 20.90625 31.390625 
Q 20.90625 42.671875 17.703125 53.65625 
Q 14.5 64.65625 8.015625 75.875 
z
" id="DejaVuSans-41"/>
      <path d="M 70.125 53.71875 
L 47.796875 31.296875 
L 70.125 8.984375 
L 64.3125 3.078125 
L 41.890625 25.484375 
L 19.484375 3.078125 
L 13.71875 8.984375 
L 35.984375 31.296875 
L 13.71875 53.71875 
L 19.484375 59.625 
L 41.890625 37.203125 
L 64.3125 59.625 
z
" id="DejaVuSans-215"/>
      <path d="M 37.796875 64.3125 
L 12.890625 25.390625 
L 37.796875 25.390625 
z
M 35.203125 72.90625 
L 47.609375 72.90625 
L 47.609375 25.390625 
L 58.015625 25.390625 
L 58.015625 17.1875 
L 47.609375 17.1875 
L 47.609375 0 
L 37.796875 0 
L 37.796875 17.1875 
L 4.890625 17.1875 
L 4.890625 26.703125 
z
" id="DejaVuSans-52"/>
     </defs>
     <g transform="translate(58.105937 338.8288)rotate(-90)scale(0.26 -0.26)">
      <use transform="translate(0 0.684375)" xlink:href="#DejaVuSans-40"/>
      <use transform="translate(39.013672 0.684375)" xlink:href="#DejaVuSans-Oblique-82"/>
      <use transform="translate(108.496094 0.684375)" xlink:href="#DejaVuSans-Oblique-70"/>
      <use transform="translate(166.015625 0.684375)" xlink:href="#DejaVuSans-Oblique-85"/>
      <use transform="translate(239.208984 0.684375)" xlink:href="#DejaVuSans-47"/>
      <use transform="translate(272.900391 0.684375)" xlink:href="#DejaVuSans-Oblique-79"/>
      <use transform="translate(351.611328 0.684375)" xlink:href="#DejaVuSans-Oblique-68"/>
      <use transform="translate(428.613281 0.684375)" xlink:href="#DejaVuSans-41"/>
      <use transform="translate(487.109375 0.684375)" xlink:href="#DejaVuSans-215"/>
      <use transform="translate(590.380859 0.684375)" xlink:href="#DejaVuSans-49"/>
      <use transform="translate(654.003906 0.684375)" xlink:href="#DejaVuSans-48"/>
      <use transform="translate(718.583984 38.965625)scale(0.7)" xlink:href="#DejaVuSans-52"/>
     </g>
    </g>
   </g>
   <g id="patch_27">
    <path d="M 108 421.6464 
L 108 56.8512 
" style="fill:none;stroke:#000000;stroke-linecap:square;stroke-linejoin:miter;stroke-width:0.8;"/>
   </g>
   <g id="patch_28">
    <path d="M 108 421.6464 
L 777.6 421.6464 
" style="fill:none;stroke:#000000;stroke-linecap:square;stroke-linejoin:miter;stroke-width:0.8;"/>
   </g>
   <g id="text_14">
    <!-- Selectivity of evolved fenchol sensors -->
    <defs>
     <path d="M 9.421875 75.984375 
L 18.40625 75.984375 
L 18.40625 0 
L 9.421875 0 
z
" id="DejaVuSans-108"/>
     <path d="M 48.78125 52.59375 
L 48.78125 44.1875 
Q 44.96875 46.296875 41.140625 47.34375 
Q 37.3125 48.390625 33.40625 48.390625 
Q 24.65625 48.390625 19.8125 42.84375 
Q 14.984375 37.3125 14.984375 27.296875 
Q 14.984375 17.28125 19.8125 11.734375 
Q 24.65625 6.203125 33.40625 6.203125 
Q 37.3125 6.203125 41.140625 7.25 
Q 44.96875 8.296875 48.78125 10.40625 
L 48.78125 2.09375 
Q 45.015625 0.34375 40.984375 -0.53125 
Q 36.96875 -1.421875 32.421875 -1.421875 
Q 20.0625 -1.421875 12.78125 6.34375 
Q 5.515625 14.109375 5.515625 27.296875 
Q 5.515625 40.671875 12.859375 48.328125 
Q 20.21875 56 33.015625 56 
Q 37.15625 56 41.109375 55.140625 
Q 45.0625 54.296875 48.78125 52.59375 
z
" id="DejaVuSans-99"/>
     <path d="M 18.3125 70.21875 
L 18.3125 54.6875 
L 36.8125 54.6875 
L 36.8125 47.703125 
L 18.3125 47.703125 
L 18.3125 18.015625 
Q 18.3125 11.328125 20.140625 9.421875 
Q 21.96875 7.515625 27.59375 7.515625 
L 36.8125 7.515625 
L 36.8125 0 
L 27.59375 0 
Q 17.1875 0 13.234375 3.875 
Q 9.28125 7.765625 9.28125 18.015625 
L 9.28125 47.703125 
L 2.6875 47.703125 
L 2.6875 54.6875 
L 9.28125 54.6875 
L 9.28125 70.21875 
z
" id="DejaVuSans-116"/>
     <path d="M 9.421875 54.6875 
L 18.40625 54.6875 
L 18.40625 0 
L 9.421875 0 
z
M 9.421875 75.984375 
L 18.40625 75.984375 
L 18.40625 64.59375 
L 9.421875 64.59375 
z
" id="DejaVuSans-105"/>
     <path d="M 2.984375 54.6875 
L 12.5 54.6875 
L 29.59375 8.796875 
L 46.6875 54.6875 
L 56.203125 54.6875 
L 35.6875 0 
L 23.484375 0 
z
" id="DejaVuSans-118"/>
     <path d="M 32.171875 -5.078125 
Q 28.375 -14.84375 24.75 -17.8125 
Q 21.140625 -20.796875 15.09375 -20.796875 
L 7.90625 -20.796875 
L 7.90625 -13.28125 
L 13.1875 -13.28125 
Q 16.890625 -13.28125 18.9375 -11.515625 
Q 21 -9.765625 23.484375 -3.21875 
L 25.09375 0.875 
L 2.984375 54.6875 
L 12.5 54.6875 
L 29.59375 11.921875 
L 46.6875 54.6875 
L 56.203125 54.6875 
z
" id="DejaVuSans-121"/>
     <path id="DejaVuSans-32"/>
     <path d="M 37.109375 75.984375 
L 37.109375 68.5 
L 28.515625 68.5 
Q 23.6875 68.5 21.796875 66.546875 
Q 19.921875 64.59375 19.921875 59.515625 
L 19.921875 54.6875 
L 34.71875 54.6875 
L 34.71875 47.703125 
L 19.921875 47.703125 
L 19.921875 0 
L 10.890625 0 
L 10.890625 47.703125 
L 2.296875 47.703125 
L 2.296875 54.6875 
L 10.890625 54.6875 
L 10.890625 58.5 
Q 10.890625 67.625 15.140625 71.796875 
Q 19.390625 75.984375 28.609375 75.984375 
z
" id="DejaVuSans-102"/>
     <path d="M 45.40625 46.390625 
L 45.40625 75.984375 
L 54.390625 75.984375 
L 54.390625 0 
L 45.40625 0 
L 45.40625 8.203125 
Q 42.578125 3.328125 38.25 0.953125 
Q 33.9375 -1.421875 27.875 -1.421875 
Q 17.96875 -1.421875 11.734375 6.484375 
Q 5.515625 14.40625 5.515625 27.296875 
Q 5.515625 40.1875 11.734375 48.09375 
Q 17.96875 56 27.875 56 
Q 33.9375 56 38.25 53.625 
Q 42.578125 51.265625 45.40625 46.390625 
z
M 14.796875 27.296875 
Q 14.796875 17.390625 18.875 11.75 
Q 22.953125 6.109375 30.078125 6.109375 
Q 37.203125 6.109375 41.296875 11.75 
Q 45.40625 17.390625 45.40625 27.296875 
Q 45.40625 37.203125 41.296875 42.84375 
Q 37.203125 48.484375 30.078125 48.484375 
Q 22.953125 48.484375 18.875 42.84375 
Q 14.796875 37.203125 14.796875 27.296875 
z
" id="DejaVuSans-100"/>
     <path d="M 54.890625 33.015625 
L 54.890625 0 
L 45.90625 0 
L 45.90625 32.71875 
Q 45.90625 40.484375 42.875 44.328125 
Q 39.84375 48.1875 33.796875 48.1875 
Q 26.515625 48.1875 22.3125 43.546875 
Q 18.109375 38.921875 18.109375 30.90625 
L 18.109375 0 
L 9.078125 0 
L 9.078125 75.984375 
L 18.109375 75.984375 
L 18.109375 46.1875 
Q 21.34375 51.125 25.703125 53.5625 
Q 30.078125 56 35.796875 56 
Q 45.21875 56 50.046875 50.171875 
Q 54.890625 44.34375 54.890625 33.015625 
z
" id="DejaVuSans-104"/>
    </defs>
    <g transform="translate(234.901719 50.8512)scale(0.22 -0.22)">
     <use xlink:href="#DejaVuSans-83"/>
     <use x="63.476562" xlink:href="#DejaVuSans-101"/>
     <use x="125" xlink:href="#DejaVuSans-108"/>
     <use x="152.783203" xlink:href="#DejaVuSans-101"/>
     <use x="214.306641" xlink:href="#DejaVuSans-99"/>
     <use x="269.287109" xlink:href="#DejaVuSans-116"/>
     <use x="308.496094" xlink:href="#DejaVuSans-105"/>
     <use x="336.279297" xlink:href="#DejaVuSans-118"/>
     <use x="395.458984" xlink:href="#DejaVuSans-105"/>
     <use x="423.242188" xlink:href="#DejaVuSans-116"/>
     <use x="462.451172" xlink:href="#DejaVuSans-121"/>
     <use x="521.630859" xlink:href="#DejaVuSans-32"/>
     <use x="553.417969" xlink:href="#DejaVuSans-111"/>
     <use x="614.599609" xlink:href="#DejaVuSans-102"/>
     <use x="649.804688" xlink:href="#DejaVuSans-32"/>
     <use x="681.591797" xlink:href="#DejaVuSans-101"/>
     <use x="743.115234" xlink:href="#DejaVuSans-118"/>
     <use x="802.294922" xlink:href="#DejaVuSans-111"/>
     <use x="863.476562" xlink:href="#DejaVuSans-108"/>
     <use x="891.259766" xlink:href="#DejaVuSans-118"/>
     <use x="950.439453" xlink:href="#DejaVuSans-101"/>
     <use x="1011.962891" xlink:href="#DejaVuSans-100"/>
     <use x="1075.439453" xlink:href="#DejaVuSans-32"/>
     <use x="1107.226562" xlink:href="#DejaVuSans-102"/>
     <use x="1142.431641" xlink:href="#DejaVuSans-101"/>
     <use x="1203.955078" xlink:href="#DejaVuSans-110"/>
     <use x="1267.333984" xlink:href="#DejaVuSans-99"/>
     <use x="1322.314453" xlink:href="#DejaVuSans-104"/>
     <use x="1385.693359" xlink:href="#DejaVuSans-111"/>
     <use x="1446.875" xlink:href="#DejaVuSans-108"/>
     <use x="1474.658203" xlink:href="#DejaVuSans-32"/>
     <use x="1506.445312" xlink:href="#DejaVuSans-115"/>
     <use x="1558.544922" xlink:href="#DejaVuSans-101"/>
     <use x="1620.068359" xlink:href="#DejaVuSans-110"/>
     <use x="1683.447266" xlink:href="#DejaVuSans-115"/>
     <use x="1735.546875" xlink:href="#DejaVuSans-111"/>
     <use x="1796.728516" xlink:href="#DejaVuSans-114"/>
     <use x="1837.841797" xlink:href="#DejaVuSans-115"/>
    </g>
   </g>
   <g id="legend_1">
    <g id="patch_29">
     <path d="M 122 245.70745 
L 318.640625 245.70745 
Q 322.640625 245.70745 322.640625 241.70745 
L 322.640625 70.8512 
Q 322.640625 66.8512 318.640625 66.8512 
L 122 66.8512 
Q 118 66.8512 118 70.8512 
L 118 241.70745 
Q 118 245.70745 122 245.70745 
z
" style="fill:#ffffff;opacity:0.8;stroke:#cccccc;stroke-linejoin:miter;"/>
    </g>
    <g id="patch_30">
     <path d="M 126 89.65745 
L 166 89.65745 
L 166 75.65745 
L 126 75.65745 
z
" style="fill:#919191;stroke:#000000;stroke-linejoin:miter;"/>
    </g>
    <g id="text_15">
     <!-- DMSO -->
     <defs>
      <path d="M 14.265625 8.296875 
L 31.734375 8.296875 
Q 49.421875 8.296875 53.21875 26.765625 
Q 54.109375 31.25 54.109375 37.015625 
Q 54.109375 61.921875 37.015625 65.234375 
Q 34.46875 65.71875 31.734375 65.71875 
L 14.265625 65.71875 
z
M 4.890625 0 
L 4.890625 74.03125 
L 33.40625 74.03125 
Q 49.90625 74.03125 57.90625 60.640625 
Q 63.578125 51.265625 63.578125 37.109375 
Q 63.578125 15.921875 51.765625 6.15625 
Q 44.34375 0 33.40625 0 
z
" id="Gargi-68"/>
      <path d="M 44.828125 0 
L 34.859375 0 
L 13.875 62.015625 
L 13.875 0 
L 4.890625 0 
L 4.890625 74.03125 
L 17.96875 74.03125 
L 39.9375 9.578125 
L 61.421875 74.03125 
L 74.515625 74.03125 
L 74.515625 0 
L 65.625 0 
L 65.625 62.015625 
z
" id="Gargi-77"/>
      <path d="M 58.59375 53.90625 
L 49.609375 53.90625 
Q 49.609375 64.84375 38.484375 67.78125 
Q 35.0625 68.65625 31.15625 68.65625 
Q 20.515625 68.5625 16.40625 62.40625 
Q 14.65625 59.765625 14.65625 56.34375 
Q 14.65625 50.59375 20.125 47.953125 
Q 22.5625 46.78125 26.765625 45.515625 
L 45.40625 40.71875 
Q 57.515625 37.40625 60.453125 27.734375 
Q 61.140625 25.484375 61.140625 22.46875 
Q 61.140625 14.15625 55.28125 7.8125 
L 53.03125 5.859375 
Q 45.609375 0.296875 32.125 0.296875 
Q 15.234375 0.296875 7.328125 10.640625 
Q 2.9375 16.40625 2.9375 25.6875 
L 11.8125 25.6875 
L 12.203125 21.875 
Q 12.890625 17.78125 15.71875 14.546875 
Q 21.09375 8.40625 32.8125 8.40625 
Q 41.796875 8.40625 46.390625 11.625 
Q 50.875 14.75 51.5625 20.21875 
Q 51.65625 21 51.65625 21.578125 
Q 51.65625 28.90625 40.53125 32.625 
Q 39.359375 33.015625 38.09375 33.296875 
L 19.734375 38.09375 
Q 5.171875 41.890625 5.171875 55.078125 
Q 5.171875 67.484375 15.71875 72.953125 
Q 22.265625 76.375 31.453125 76.375 
Q 49.421875 76.375 55.765625 65.234375 
Q 58.59375 60.359375 58.59375 53.90625 
z
" id="Gargi-83"/>
      <path d="M 38.578125 68.171875 
Q 25.203125 68.171875 17.96875 58.015625 
Q 12.3125 50.09375 12.3125 38.28125 
Q 12.3125 22.65625 21.96875 14.359375 
Q 28.90625 8.40625 38.375 8.40625 
Q 38.484375 8.40625 38.671875 8.40625 
Q 51.65625 8.40625 59.078125 18.359375 
Q 64.9375 26.265625 64.9375 37.890625 
Q 64.9375 54.390625 54.984375 62.59375 
Q 48.25 68.171875 38.578125 68.171875 
z
M 38.578125 76.375 
Q 56.25 76.375 66.015625 64.15625 
Q 74.421875 53.71875 74.421875 37.703125 
Q 74.421875 22.953125 66.015625 12.5 
Q 63.96875 9.859375 61.625 7.90625 
Q 52.34375 0.296875 38.671875 0.296875 
Q 21.78125 0.296875 11.71875 12.015625 
Q 2.9375 22.265625 2.9375 38.28125 
Q 2.9375 56.734375 14.15625 67.28125 
Q 23.828125 76.375 38.578125 76.375 
z
" id="Gargi-79"/>
     </defs>
     <g transform="translate(182 89.65745)scale(0.2 -0.2)">
      <use xlink:href="#Gargi-68"/>
      <use x="68.457031" xlink:href="#Gargi-77"/>
      <use x="147.851562" xlink:href="#Gargi-83"/>
      <use x="211.914062" xlink:href="#Gargi-79"/>
     </g>
    </g>
    <g id="patch_31">
     <path d="M 126 118.466825 
L 166 118.466825 
L 166 104.466825 
L 126 104.466825 
z
" style="fill:#a600ff;stroke:#000000;stroke-linejoin:miter;"/>
    </g>
    <g id="text_16">
     <!-- CAMPHOR -->
     <defs>
      <path d="M 65.234375 52.546875 
L 55.671875 52.546875 
Q 54.109375 59.96875 50.296875 63.578125 
Q 44.734375 68.0625 36.03125 68.0625 
Q 35.84375 68.0625 35.640625 68.0625 
Q 22.75 68.0625 16.40625 56.640625 
Q 12.40625 49.421875 12.40625 37.984375 
Q 12.40625 21 21.96875 13.1875 
Q 27.9375 8.296875 36.140625 8.296875 
Q 36.234375 8.296875 36.421875 8.296875 
Q 47.5625 8.296875 52.734375 16.015625 
Q 53.328125 16.890625 53.71875 17.671875 
Q 56.15625 23.4375 57.03125 29 
L 66.796875 29 
Q 63.484375 0.203125 36.328125 0.203125 
Q 21.875 0.203125 13.671875 8.59375 
Q 2.9375 19.53125 2.9375 37.890625 
Q 2.9375 56.15625 13.28125 67.1875 
Q 21.578125 76.265625 36.71875 76.265625 
Q 59.375 76.265625 64.84375 54.5 
z
" id="Gargi-67"/>
      <path d="M 48.640625 30.171875 
L 37.203125 63.875 
L 25.09375 30.171875 
z
M 51.265625 22.265625 
L 22.75 22.265625 
L 14.9375 0 
L 4.890625 0 
L 31.25 74.03125 
L 43.453125 74.03125 
L 69.4375 0 
L 58.890625 0 
z
" id="Gargi-65"/>
      <path d="M 14.265625 39.75 
L 33.984375 39.75 
Q 44.34375 39.75 47.359375 47.265625 
Q 48.4375 49.703125 48.4375 52.734375 
Q 48.4375 61.8125 40.4375 64.65625 
Q 37.59375 65.71875 33.984375 65.71875 
L 14.265625 65.71875 
z
M 14.265625 31.34375 
L 14.265625 0 
L 4.890625 0 
L 4.890625 74.03125 
L 35.453125 74.03125 
Q 51.765625 74.03125 56.546875 62.015625 
Q 58.296875 57.90625 58.296875 52.34375 
Q 58.296875 42.484375 51.859375 36.625 
Q 46 31.34375 37.59375 31.34375 
z
" id="Gargi-80"/>
      <path d="M 52.4375 33.6875 
L 14.453125 33.6875 
L 14.453125 0 
L 4.890625 0 
L 4.890625 74.03125 
L 14.359375 74.03125 
L 14.359375 42.09375 
L 52.4375 42.09375 
L 52.4375 74.03125 
L 61.921875 74.03125 
L 61.921875 0 
L 52.4375 0 
z
" id="Gargi-72"/>
      <path d="M 14.265625 40.234375 
L 37.109375 40.234375 
Q 49.421875 40.234375 51.265625 48.921875 
Q 51.65625 50.6875 51.65625 52.9375 
Q 51.65625 59.578125 47.859375 62.890625 
Q 44.53125 65.71875 37.109375 65.71875 
L 14.265625 65.71875 
z
M 14.265625 31.9375 
L 14.265625 0 
L 4.890625 0 
L 4.890625 74.03125 
L 38.96875 74.03125 
Q 56.25 74.03125 60.453125 61.8125 
Q 61.53125 58.5 61.53125 54.203125 
Q 61.53125 44.234375 54.203125 39.0625 
Q 52.25 37.796875 49.8125 36.53125 
Q 56.15625 33.796875 58.109375 29.78125 
Q 59.859375 25.984375 59.859375 17.28125 
Q 59.859375 7.515625 61.8125 4.78125 
Q 62.796875 3.421875 64.359375 2.34375 
L 64.359375 0 
L 52.9375 0 
Q 50.875 4.890625 50.875 12.109375 
L 50.875 18.65625 
Q 50.875 29.78125 42.78125 31.453125 
Q 40.921875 31.9375 38.671875 31.9375 
z
" id="Gargi-82"/>
     </defs>
     <g transform="translate(182 118.466825)scale(0.2 -0.2)">
      <use xlink:href="#Gargi-67"/>
      <use x="69.726562" xlink:href="#Gargi-65"/>
      <use x="144.042969" xlink:href="#Gargi-77"/>
      <use x="223.4375" xlink:href="#Gargi-80"/>
      <use x="286.621094" xlink:href="#Gargi-72"/>
      <use x="353.417969" xlink:href="#Gargi-79"/>
      <use x="430.761719" xlink:href="#Gargi-82"/>
     </g>
    </g>
    <g id="patch_32">
     <path d="M 126 147.2762 
L 166 147.2762 
L 166 133.2762 
L 126 133.2762 
z
" style="fill:#3b5bff;stroke:#000000;stroke-linejoin:miter;"/>
    </g>
    <g id="text_17">
     <!-- BORNEOL -->
     <defs>
      <path d="M 14.359375 8.296875 
L 37.40625 8.296875 
Q 44.046875 8.296875 47.265625 11.921875 
Q 50.6875 15.53125 50.6875 21 
Q 50.6875 26.5625 47.265625 30.28125 
Q 44.046875 33.796875 37.40625 33.796875 
L 14.359375 33.796875 
z
M 14.359375 42.1875 
L 32.625 42.1875 
Q 39.9375 42.1875 43.359375 44.828125 
Q 47.46875 47.953125 47.46875 53.953125 
Q 47.46875 59.96875 43.359375 63.09375 
Q 39.9375 65.71875 32.625 65.71875 
L 14.359375 65.71875 
z
M 4.890625 0 
L 4.890625 74.03125 
L 34.96875 74.03125 
Q 45.40625 74.03125 50.984375 68.84375 
Q 56.9375 63.578125 56.9375 55.28125 
Q 56.9375 43.84375 46.6875 39.0625 
Q 57.328125 34.96875 59.46875 26.859375 
Q 60.15625 24.3125 60.15625 21.09375 
Q 60.15625 12.203125 54.5 6.15625 
Q 48.640625 0 38.28125 0 
z
" id="Gargi-66"/>
      <path d="M 62.796875 74.03125 
L 62.796875 0 
L 52.15625 0 
L 13.875 60.0625 
L 13.875 0 
L 4.890625 0 
L 4.890625 74.03125 
L 15.140625 74.03125 
L 53.8125 13.484375 
L 53.8125 74.03125 
z
" id="Gargi-78"/>
      <path d="M 14.265625 33.6875 
L 14.265625 8.296875 
L 58.015625 8.296875 
L 58.015625 0 
L 4.890625 0 
L 4.890625 74.03125 
L 56.15625 74.03125 
L 56.15625 65.71875 
L 14.265625 65.71875 
L 14.265625 42.09375 
L 54.59375 42.09375 
L 54.59375 33.6875 
z
" id="Gargi-69"/>
      <path d="M 14.359375 74.03125 
L 14.359375 8.296875 
L 50.875 8.296875 
L 50.875 0 
L 4.890625 0 
L 4.890625 74.03125 
z
" id="Gargi-76"/>
     </defs>
     <g transform="translate(182 147.2762)scale(0.2 -0.2)">
      <use xlink:href="#Gargi-66"/>
      <use x="63.085938" xlink:href="#Gargi-79"/>
      <use x="140.429688" xlink:href="#Gargi-82"/>
      <use x="209.667969" xlink:href="#Gargi-78"/>
      <use x="277.34375" xlink:href="#Gargi-69"/>
      <use x="340.234375" xlink:href="#Gargi-79"/>
      <use x="417.578125" xlink:href="#Gargi-76"/>
     </g>
    </g>
    <g id="patch_33">
     <path d="M 126 176.085575 
L 166 176.085575 
L 166 162.085575 
L 126 162.085575 
z
" style="fill:#3bff69;stroke:#000000;stroke-linejoin:miter;"/>
    </g>
    <g id="text_18">
     <!-- FENCHOL -->
     <defs>
      <path d="M 14.265625 33.6875 
L 14.265625 0 
L 4.890625 0 
L 4.890625 74.03125 
L 54.5 74.03125 
L 54.5 65.71875 
L 14.265625 65.71875 
L 14.265625 42.09375 
L 49.609375 42.09375 
L 49.609375 33.6875 
z
" id="Gargi-70"/>
     </defs>
     <g transform="translate(182 176.085575)scale(0.2 -0.2)">
      <use xlink:href="#Gargi-70"/>
      <use x="59.375" xlink:href="#Gargi-69"/>
      <use x="122.265625" xlink:href="#Gargi-78"/>
      <use x="189.941406" xlink:href="#Gargi-67"/>
      <use x="259.667969" xlink:href="#Gargi-72"/>
      <use x="326.464844" xlink:href="#Gargi-79"/>
      <use x="403.808594" xlink:href="#Gargi-76"/>
     </g>
    </g>
    <g id="patch_34">
     <path d="M 126 204.89495 
L 166 204.89495 
L 166 190.89495 
L 126 190.89495 
z
" style="fill:#f7d600;stroke:#000000;stroke-linejoin:miter;"/>
    </g>
    <g id="text_19">
     <!-- EUCALYPTOL -->
     <defs>
      <path d="M 52.34375 75 
L 61.8125 75 
L 61.8125 24.125 
Q 61.8125 11.140625 51.265625 4.6875 
Q 43.953125 0.203125 33.296875 0.203125 
Q 16.5 0.203125 9.078125 10.25 
Q 4.890625 15.921875 4.890625 24.125 
L 4.890625 75 
L 14.359375 75 
L 14.359375 24.125 
Q 14.359375 16.3125 19.734375 12.109375 
Q 25.09375 8.296875 33.296875 8.296875 
Q 45.90625 8.296875 50.390625 16.3125 
Q 52.34375 19.828125 52.34375 24.125 
z
" id="Gargi-85"/>
      <path d="M 39.84375 29 
L 39.84375 0 
L 30.46875 0 
L 30.46875 29 
L 1.953125 74.03125 
L 13.578125 74.03125 
L 35.359375 37.984375 
L 56.453125 74.03125 
L 67.671875 74.03125 
z
" id="Gargi-89"/>
      <path d="M 38.671875 65.71875 
L 38.671875 0 
L 29.203125 0 
L 29.203125 65.71875 
L 4.890625 65.71875 
L 4.890625 74.03125 
L 62.984375 74.03125 
L 62.984375 65.71875 
z
" id="Gargi-84"/>
     </defs>
     <g transform="translate(182 204.89495)scale(0.2 -0.2)">
      <use xlink:href="#Gargi-69"/>
      <use x="62.890625" xlink:href="#Gargi-85"/>
      <use x="129.589844" xlink:href="#Gargi-67"/>
      <use x="199.316406" xlink:href="#Gargi-65"/>
      <use x="273.632812" xlink:href="#Gargi-76"/>
      <use x="329.394531" xlink:href="#Gargi-89"/>
      <use x="399.023438" xlink:href="#Gargi-80"/>
      <use x="462.207031" xlink:href="#Gargi-84"/>
      <use x="530.078125" xlink:href="#Gargi-79"/>
      <use x="607.421875" xlink:href="#Gargi-76"/>
     </g>
    </g>
    <g id="patch_35">
     <path d="M 126 233.704325 
L 166 233.704325 
L 166 219.704325 
L 126 219.704325 
z
" style="fill:#1c8501;stroke:#000000;stroke-linejoin:miter;"/>
    </g>
    <g id="text_20">
     <!-- CAMPHENE -->
     <g transform="translate(182 233.704325)scale(0.2 -0.2)">
      <use xlink:href="#Gargi-67"/>
      <use x="69.726562" xlink:href="#Gargi-65"/>
      <use x="144.042969" xlink:href="#Gargi-77"/>
      <use x="223.4375" xlink:href="#Gargi-80"/>
      <use x="286.621094" xlink:href="#Gargi-72"/>
      <use x="353.417969" xlink:href="#Gargi-69"/>
      <use x="416.308594" xlink:href="#Gargi-78"/>
      <use x="483.984375" xlink:href="#Gargi-69"/>
     </g>
    </g>
   </g>
  </g>
 </g>
 <defs>
  <clipPath id="p45033f14ff">
   <rect height="364.7952" width="669.6" x="108" y="56.8512"/>
  </clipPath>
 </defs>
</svg>
