<?xml version="1.0" encoding="utf-8" standalone="no"?>
<!DOCTYPE svg PUBLIC "-//W3C//DTD SVG 1.1//EN"
  "http://www.w3.org/Graphics/SVG/1.1/DTD/svg11.dtd">
<!-- Created with matplotlib (https://matplotlib.org/) -->
<svg height="473.76pt" version="1.1" viewBox="0 0 648 473.76" width="648pt" xmlns="http://www.w3.org/2000/svg" xmlns:xlink="http://www.w3.org/1999/xlink">
 <defs>
  <style type="text/css">
*{stroke-linecap:butt;stroke-linejoin:round;}
  </style>
 </defs>
 <g id="figure_1">
  <g id="patch_1">
   <path d="M 0 473.76 
L 648 473.76 
L 648 0 
L 0 0 
z
" style="fill:#ffffff;"/>
  </g>
  <g id="axes_1">
   <g id="patch_2">
    <path d="M 81 421.6464 
L 583.2 421.6464 
L 583.2 56.8512 
L 81 56.8512 
z
" style="fill:#ffffff;"/>
   </g>
   <g id="patch_3">
    <path clip-path="url(#p7012e1bed3)" d="M 103.827273 421.6464 
L 113.752174 421.6464 
L 113.752174 419.973357 
L 103.827273 419.973357 
z
" style="stroke:#000000;stroke-linejoin:miter;stroke-width:2.5;"/>
   </g>
   <g id="patch_4">
    <path clip-path="url(#p7012e1bed3)" d="M 203.076285 421.6464 
L 213.001186 421.6464 
L 213.001186 420.033275 
L 203.076285 420.033275 
z
" style="stroke:#000000;stroke-linejoin:miter;stroke-width:2.5;"/>
   </g>
   <g id="patch_5">
    <path clip-path="url(#p7012e1bed3)" d="M 302.325296 421.6464 
L 312.250198 421.6464 
L 312.250198 414.748089 
L 302.325296 414.748089 
z
" style="stroke:#000000;stroke-linejoin:miter;stroke-width:2.5;"/>
   </g>
   <g id="patch_6">
    <path clip-path="url(#p7012e1bed3)" d="M 401.574308 421.6464 
L 411.499209 421.6464 
L 411.499209 418.067894 
L 401.574308 418.067894 
z
" style="stroke:#000000;stroke-linejoin:miter;stroke-width:2.5;"/>
   </g>
   <g id="patch_7">
    <path clip-path="url(#p7012e1bed3)" d="M 500.82332 421.6464 
L 510.748221 421.6464 
L 510.748221 418.44036 
L 500.82332 418.44036 
z
" style="stroke:#000000;stroke-linejoin:miter;stroke-width:2.5;"/>
   </g>
   <g id="patch_8">
    <path clip-path="url(#p7012e1bed3)" d="M 113.752174 421.6464 
L 123.677075 421.6464 
L 123.677075 364.364693 
L 113.752174 364.364693 
z
" style="fill:#ca42ff;stroke:#000000;stroke-linejoin:miter;stroke-width:2.5;"/>
   </g>
   <g id="patch_9">
    <path clip-path="url(#p7012e1bed3)" d="M 213.001186 421.6464 
L 222.926087 421.6464 
L 222.926087 419.892166 
L 213.001186 419.892166 
z
" style="fill:#ca42ff;stroke:#000000;stroke-linejoin:miter;stroke-width:2.5;"/>
   </g>
   <g id="patch_10">
    <path clip-path="url(#p7012e1bed3)" d="M 312.250198 421.6464 
L 322.175099 421.6464 
L 322.175099 414.553824 
L 312.250198 414.553824 
z
" style="fill:#ca42ff;stroke:#000000;stroke-linejoin:miter;stroke-width:2.5;"/>
   </g>
   <g id="patch_11">
    <path clip-path="url(#p7012e1bed3)" d="M 411.499209 421.6464 
L 421.424111 421.6464 
L 421.424111 411.615947 
L 411.499209 411.615947 
z
" style="fill:#ca42ff;stroke:#000000;stroke-linejoin:miter;stroke-width:2.5;"/>
   </g>
   <g id="patch_12">
    <path clip-path="url(#p7012e1bed3)" d="M 510.748221 421.6464 
L 520.673123 421.6464 
L 520.673123 410.375205 
L 510.748221 410.375205 
z
" style="fill:#ca42ff;stroke:#000000;stroke-linejoin:miter;stroke-width:2.5;"/>
   </g>
   <g id="patch_13">
    <path clip-path="url(#p7012e1bed3)" d="M 123.677075 421.6464 
L 133.601976 421.6464 
L 133.601976 419.917393 
L 123.677075 419.917393 
z
" style="fill:#fff200;stroke:#000000;stroke-linejoin:miter;stroke-width:2.5;"/>
   </g>
   <g id="patch_14">
    <path clip-path="url(#p7012e1bed3)" d="M 222.926087 421.6464 
L 232.850988 421.6464 
L 232.850988 316.44453 
L 222.926087 316.44453 
z
" style="fill:#fff200;stroke:#000000;stroke-linejoin:miter;stroke-width:2.5;"/>
   </g>
   <g id="patch_15">
    <path clip-path="url(#p7012e1bed3)" d="M 322.175099 421.6464 
L 332.1 421.6464 
L 332.1 414.416396 
L 322.175099 414.416396 
z
" style="fill:#fff200;stroke:#000000;stroke-linejoin:miter;stroke-width:2.5;"/>
   </g>
   <g id="patch_16">
    <path clip-path="url(#p7012e1bed3)" d="M 421.424111 421.6464 
L 431.349012 421.6464 
L 431.349012 416.109943 
L 421.424111 416.109943 
z
" style="fill:#fff200;stroke:#000000;stroke-linejoin:miter;stroke-width:2.5;"/>
   </g>
   <g id="patch_17">
    <path clip-path="url(#p7012e1bed3)" d="M 520.673123 421.6464 
L 530.598024 421.6464 
L 530.598024 417.223975 
L 520.673123 417.223975 
z
" style="fill:#fff200;stroke:#000000;stroke-linejoin:miter;stroke-width:2.5;"/>
   </g>
   <g id="patch_18">
    <path clip-path="url(#p7012e1bed3)" d="M 133.601976 421.6464 
L 143.526877 421.6464 
L 143.526877 419.839319 
L 133.601976 419.839319 
z
" style="fill:#ff1717;stroke:#000000;stroke-linejoin:miter;stroke-width:2.5;"/>
   </g>
   <g id="patch_19">
    <path clip-path="url(#p7012e1bed3)" d="M 232.850988 421.6464 
L 242.775889 421.6464 
L 242.775889 419.855355 
L 232.850988 419.855355 
z
" style="fill:#ff1717;stroke:#000000;stroke-linejoin:miter;stroke-width:2.5;"/>
   </g>
   <g id="patch_20">
    <path clip-path="url(#p7012e1bed3)" d="M 332.1 421.6464 
L 342.024901 421.6464 
L 342.024901 329.451456 
L 332.1 329.451456 
z
" style="fill:#ff1717;stroke:#000000;stroke-linejoin:miter;stroke-width:2.5;"/>
   </g>
   <g id="patch_21">
    <path clip-path="url(#p7012e1bed3)" d="M 431.349012 421.6464 
L 441.273913 421.6464 
L 441.273913 409.191249 
L 431.349012 409.191249 
z
" style="fill:#ff1717;stroke:#000000;stroke-linejoin:miter;stroke-width:2.5;"/>
   </g>
   <g id="patch_22">
    <path clip-path="url(#p7012e1bed3)" d="M 530.598024 421.6464 
L 540.522925 421.6464 
L 540.522925 413.279529 
L 530.598024 413.279529 
z
" style="fill:#ff1717;stroke:#000000;stroke-linejoin:miter;stroke-width:2.5;"/>
   </g>
   <g id="patch_23">
    <path clip-path="url(#p7012e1bed3)" d="M 143.526877 421.6464 
L 153.451779 421.6464 
L 153.451779 419.868992 
L 143.526877 419.868992 
z
" style="fill:#3bff5b;stroke:#000000;stroke-linejoin:miter;stroke-width:2.5;"/>
   </g>
   <g id="patch_24">
    <path clip-path="url(#p7012e1bed3)" d="M 242.775889 421.6464 
L 252.700791 421.6464 
L 252.700791 419.060072 
L 242.775889 419.060072 
z
" style="fill:#3bff5b;stroke:#000000;stroke-linejoin:miter;stroke-width:2.5;"/>
   </g>
   <g id="patch_25">
    <path clip-path="url(#p7012e1bed3)" d="M 342.024901 421.6464 
L 351.949802 421.6464 
L 351.949802 411.930644 
L 342.024901 411.930644 
z
" style="fill:#3bff5b;stroke:#000000;stroke-linejoin:miter;stroke-width:2.5;"/>
   </g>
   <g id="patch_26">
    <path clip-path="url(#p7012e1bed3)" d="M 441.273913 421.6464 
L 451.198814 421.6464 
L 451.198814 203.372533 
L 441.273913 203.372533 
z
" style="fill:#3bff5b;stroke:#000000;stroke-linejoin:miter;stroke-width:2.5;"/>
   </g>
   <g id="patch_27">
    <path clip-path="url(#p7012e1bed3)" d="M 540.522925 421.6464 
L 550.447826 421.6464 
L 550.447826 258.663081 
L 540.522925 258.663081 
z
" style="fill:#3bff5b;stroke:#000000;stroke-linejoin:miter;stroke-width:2.5;"/>
   </g>
   <g id="patch_28">
    <path clip-path="url(#p7012e1bed3)" d="M 153.451779 421.6464 
L 163.37668 421.6464 
L 163.37668 419.228779 
L 153.451779 419.228779 
z
" style="fill:#ffc72e;stroke:#000000;stroke-linejoin:miter;stroke-width:2.5;"/>
   </g>
   <g id="patch_29">
    <path clip-path="url(#p7012e1bed3)" d="M 252.700791 421.6464 
L 262.625692 421.6464 
L 262.625692 409.322907 
L 252.700791 409.322907 
z
" style="fill:#ffc72e;stroke:#000000;stroke-linejoin:miter;stroke-width:2.5;"/>
   </g>
   <g id="patch_30">
    <path clip-path="url(#p7012e1bed3)" d="M 351.949802 421.6464 
L 361.874704 421.6464 
L 361.874704 394.261478 
L 351.949802 394.261478 
z
" style="fill:#ffc72e;stroke:#000000;stroke-linejoin:miter;stroke-width:2.5;"/>
   </g>
   <g id="patch_31">
    <path clip-path="url(#p7012e1bed3)" d="M 451.198814 421.6464 
L 461.123715 421.6464 
L 461.123715 413.896512 
L 451.198814 413.896512 
z
" style="fill:#ffc72e;stroke:#000000;stroke-linejoin:miter;stroke-width:2.5;"/>
   </g>
   <g id="patch_32">
    <path clip-path="url(#p7012e1bed3)" d="M 550.447826 421.6464 
L 560.372727 421.6464 
L 560.372727 78.877812 
L 550.447826 78.877812 
z
" style="fill:#ffc72e;stroke:#000000;stroke-linejoin:miter;stroke-width:2.5;"/>
   </g>
   <g id="LineCollection_1">
    <path clip-path="url(#p7012e1bed3)" d="M 108.789723 419.987128 
L 108.789723 419.959585 
" style="fill:none;stroke:#000000;stroke-width:1.5;"/>
    <path clip-path="url(#p7012e1bed3)" d="M 208.038735 420.06044 
L 208.038735 420.006111 
" style="fill:none;stroke:#000000;stroke-width:1.5;"/>
    <path clip-path="url(#p7012e1bed3)" d="M 307.287747 415.013786 
L 307.287747 414.482393 
" style="fill:none;stroke:#000000;stroke-width:1.5;"/>
    <path clip-path="url(#p7012e1bed3)" d="M 406.536759 418.085444 
L 406.536759 418.050345 
" style="fill:none;stroke:#000000;stroke-width:1.5;"/>
    <path clip-path="url(#p7012e1bed3)" d="M 505.785771 418.465368 
L 505.785771 418.415352 
" style="fill:none;stroke:#000000;stroke-width:1.5;"/>
   </g>
   <g id="LineCollection_2">
    <path clip-path="url(#p7012e1bed3)" d="M 118.714625 366.54778 
L 118.714625 362.181605 
" style="fill:none;stroke:#000000;stroke-width:1.5;"/>
    <path clip-path="url(#p7012e1bed3)" d="M 217.963636 419.925874 
L 217.963636 419.858457 
" style="fill:none;stroke:#000000;stroke-width:1.5;"/>
    <path clip-path="url(#p7012e1bed3)" d="M 317.212648 414.703787 
L 317.212648 414.403861 
" style="fill:none;stroke:#000000;stroke-width:1.5;"/>
    <path clip-path="url(#p7012e1bed3)" d="M 416.46166 411.840821 
L 416.46166 411.391073 
" style="fill:none;stroke:#000000;stroke-width:1.5;"/>
    <path clip-path="url(#p7012e1bed3)" d="M 515.710672 410.976593 
L 515.710672 409.773817 
" style="fill:none;stroke:#000000;stroke-width:1.5;"/>
   </g>
   <g id="LineCollection_3">
    <path clip-path="url(#p7012e1bed3)" d="M 128.639526 419.931501 
L 128.639526 419.903285 
" style="fill:none;stroke:#000000;stroke-width:1.5;"/>
    <path clip-path="url(#p7012e1bed3)" d="M 227.888538 318.124539 
L 227.888538 314.764521 
" style="fill:none;stroke:#000000;stroke-width:1.5;"/>
    <path clip-path="url(#p7012e1bed3)" d="M 327.137549 414.614632 
L 327.137549 414.218161 
" style="fill:none;stroke:#000000;stroke-width:1.5;"/>
    <path clip-path="url(#p7012e1bed3)" d="M 426.386561 416.33424 
L 426.386561 415.885647 
" style="fill:none;stroke:#000000;stroke-width:1.5;"/>
    <path clip-path="url(#p7012e1bed3)" d="M 525.635573 417.38979 
L 525.635573 417.05816 
" style="fill:none;stroke:#000000;stroke-width:1.5;"/>
   </g>
   <g id="LineCollection_4">
    <path clip-path="url(#p7012e1bed3)" d="M 138.564427 419.845753 
L 138.564427 419.832886 
" style="fill:none;stroke:#000000;stroke-width:1.5;"/>
    <path clip-path="url(#p7012e1bed3)" d="M 237.813439 419.857415 
L 237.813439 419.853295 
" style="fill:none;stroke:#000000;stroke-width:1.5;"/>
    <path clip-path="url(#p7012e1bed3)" d="M 337.062451 332.797761 
L 337.062451 326.105151 
" style="fill:none;stroke:#000000;stroke-width:1.5;"/>
    <path clip-path="url(#p7012e1bed3)" d="M 436.311462 409.439389 
L 436.311462 408.943109 
" style="fill:none;stroke:#000000;stroke-width:1.5;"/>
    <path clip-path="url(#p7012e1bed3)" d="M 535.560474 413.741715 
L 535.560474 412.817342 
" style="fill:none;stroke:#000000;stroke-width:1.5;"/>
   </g>
   <g id="LineCollection_5">
    <path clip-path="url(#p7012e1bed3)" d="M 148.489328 419.919446 
L 148.489328 419.818539 
" style="fill:none;stroke:#000000;stroke-width:1.5;"/>
    <path clip-path="url(#p7012e1bed3)" d="M 247.73834 419.129129 
L 247.73834 418.991015 
" style="fill:none;stroke:#000000;stroke-width:1.5;"/>
    <path clip-path="url(#p7012e1bed3)" d="M 346.987352 412.181433 
L 346.987352 411.679855 
" style="fill:none;stroke:#000000;stroke-width:1.5;"/>
    <path clip-path="url(#p7012e1bed3)" d="M 446.236364 206.560846 
L 446.236364 200.184221 
" style="fill:none;stroke:#000000;stroke-width:1.5;"/>
    <path clip-path="url(#p7012e1bed3)" d="M 545.485375 266.823464 
L 545.485375 250.502699 
" style="fill:none;stroke:#000000;stroke-width:1.5;"/>
   </g>
   <g id="LineCollection_6">
    <path clip-path="url(#p7012e1bed3)" d="M 158.414229 419.257507 
L 158.414229 419.200052 
" style="fill:none;stroke:#000000;stroke-width:1.5;"/>
    <path clip-path="url(#p7012e1bed3)" d="M 257.663241 410.534554 
L 257.663241 408.111259 
" style="fill:none;stroke:#000000;stroke-width:1.5;"/>
    <path clip-path="url(#p7012e1bed3)" d="M 356.912253 396.393616 
L 356.912253 392.12934 
" style="fill:none;stroke:#000000;stroke-width:1.5;"/>
    <path clip-path="url(#p7012e1bed3)" d="M 456.161265 414.140564 
L 456.161265 413.652461 
" style="fill:none;stroke:#000000;stroke-width:1.5;"/>
    <path clip-path="url(#p7012e1bed3)" d="M 555.410277 83.533223 
L 555.410277 74.2224 
" style="fill:none;stroke:#000000;stroke-width:1.5;"/>
   </g>
   <g id="line2d_1">
    <defs>
     <path d="M 5 0 
L -5 -0 
" id="m67aeda3803" style="stroke:#000000;stroke-width:1.5;"/>
    </defs>
    <g clip-path="url(#p7012e1bed3)">
     <use style="stroke:#000000;stroke-width:1.5;" x="108.789723" xlink:href="#m67aeda3803" y="419.987128"/>
     <use style="stroke:#000000;stroke-width:1.5;" x="208.038735" xlink:href="#m67aeda3803" y="420.06044"/>
     <use style="stroke:#000000;stroke-width:1.5;" x="307.287747" xlink:href="#m67aeda3803" y="415.013786"/>
     <use style="stroke:#000000;stroke-width:1.5;" x="406.536759" xlink:href="#m67aeda3803" y="418.085444"/>
     <use style="stroke:#000000;stroke-width:1.5;" x="505.785771" xlink:href="#m67aeda3803" y="418.465368"/>
    </g>
   </g>
   <g id="line2d_2">
    <g clip-path="url(#p7012e1bed3)">
     <use style="stroke:#000000;stroke-width:1.5;" x="108.789723" xlink:href="#m67aeda3803" y="419.959585"/>
     <use style="stroke:#000000;stroke-width:1.5;" x="208.038735" xlink:href="#m67aeda3803" y="420.006111"/>
     <use style="stroke:#000000;stroke-width:1.5;" x="307.287747" xlink:href="#m67aeda3803" y="414.482393"/>
     <use style="stroke:#000000;stroke-width:1.5;" x="406.536759" xlink:href="#m67aeda3803" y="418.050345"/>
     <use style="stroke:#000000;stroke-width:1.5;" x="505.785771" xlink:href="#m67aeda3803" y="418.415352"/>
    </g>
   </g>
   <g id="line2d_3">
    <g clip-path="url(#p7012e1bed3)">
     <use style="stroke:#000000;stroke-width:1.5;" x="118.714625" xlink:href="#m67aeda3803" y="366.54778"/>
     <use style="stroke:#000000;stroke-width:1.5;" x="217.963636" xlink:href="#m67aeda3803" y="419.925874"/>
     <use style="stroke:#000000;stroke-width:1.5;" x="317.212648" xlink:href="#m67aeda3803" y="414.703787"/>
     <use style="stroke:#000000;stroke-width:1.5;" x="416.46166" xlink:href="#m67aeda3803" y="411.840821"/>
     <use style="stroke:#000000;stroke-width:1.5;" x="515.710672" xlink:href="#m67aeda3803" y="410.976593"/>
    </g>
   </g>
   <g id="line2d_4">
    <g clip-path="url(#p7012e1bed3)">
     <use style="stroke:#000000;stroke-width:1.5;" x="118.714625" xlink:href="#m67aeda3803" y="362.181605"/>
     <use style="stroke:#000000;stroke-width:1.5;" x="217.963636" xlink:href="#m67aeda3803" y="419.858457"/>
     <use style="stroke:#000000;stroke-width:1.5;" x="317.212648" xlink:href="#m67aeda3803" y="414.403861"/>
     <use style="stroke:#000000;stroke-width:1.5;" x="416.46166" xlink:href="#m67aeda3803" y="411.391073"/>
     <use style="stroke:#000000;stroke-width:1.5;" x="515.710672" xlink:href="#m67aeda3803" y="409.773817"/>
    </g>
   </g>
   <g id="line2d_5">
    <g clip-path="url(#p7012e1bed3)">
     <use style="stroke:#000000;stroke-width:1.5;" x="128.639526" xlink:href="#m67aeda3803" y="419.931501"/>
     <use style="stroke:#000000;stroke-width:1.5;" x="227.888538" xlink:href="#m67aeda3803" y="318.124539"/>
     <use style="stroke:#000000;stroke-width:1.5;" x="327.137549" xlink:href="#m67aeda3803" y="414.614632"/>
     <use style="stroke:#000000;stroke-width:1.5;" x="426.386561" xlink:href="#m67aeda3803" y="416.33424"/>
     <use style="stroke:#000000;stroke-width:1.5;" x="525.635573" xlink:href="#m67aeda3803" y="417.38979"/>
    </g>
   </g>
   <g id="line2d_6">
    <g clip-path="url(#p7012e1bed3)">
     <use style="stroke:#000000;stroke-width:1.5;" x="128.639526" xlink:href="#m67aeda3803" y="419.903285"/>
     <use style="stroke:#000000;stroke-width:1.5;" x="227.888538" xlink:href="#m67aeda3803" y="314.764521"/>
     <use style="stroke:#000000;stroke-width:1.5;" x="327.137549" xlink:href="#m67aeda3803" y="414.218161"/>
     <use style="stroke:#000000;stroke-width:1.5;" x="426.386561" xlink:href="#m67aeda3803" y="415.885647"/>
     <use style="stroke:#000000;stroke-width:1.5;" x="525.635573" xlink:href="#m67aeda3803" y="417.05816"/>
    </g>
   </g>
   <g id="line2d_7">
    <g clip-path="url(#p7012e1bed3)">
     <use style="stroke:#000000;stroke-width:1.5;" x="138.564427" xlink:href="#m67aeda3803" y="419.845753"/>
     <use style="stroke:#000000;stroke-width:1.5;" x="237.813439" xlink:href="#m67aeda3803" y="419.857415"/>
     <use style="stroke:#000000;stroke-width:1.5;" x="337.062451" xlink:href="#m67aeda3803" y="332.797761"/>
     <use style="stroke:#000000;stroke-width:1.5;" x="436.311462" xlink:href="#m67aeda3803" y="409.439389"/>
     <use style="stroke:#000000;stroke-width:1.5;" x="535.560474" xlink:href="#m67aeda3803" y="413.741715"/>
    </g>
   </g>
   <g id="line2d_8">
    <g clip-path="url(#p7012e1bed3)">
     <use style="stroke:#000000;stroke-width:1.5;" x="138.564427" xlink:href="#m67aeda3803" y="419.832886"/>
     <use style="stroke:#000000;stroke-width:1.5;" x="237.813439" xlink:href="#m67aeda3803" y="419.853295"/>
     <use style="stroke:#000000;stroke-width:1.5;" x="337.062451" xlink:href="#m67aeda3803" y="326.105151"/>
     <use style="stroke:#000000;stroke-width:1.5;" x="436.311462" xlink:href="#m67aeda3803" y="408.943109"/>
     <use style="stroke:#000000;stroke-width:1.5;" x="535.560474" xlink:href="#m67aeda3803" y="412.817342"/>
    </g>
   </g>
   <g id="line2d_9">
    <g clip-path="url(#p7012e1bed3)">
     <use style="stroke:#000000;stroke-width:1.5;" x="148.489328" xlink:href="#m67aeda3803" y="419.919446"/>
     <use style="stroke:#000000;stroke-width:1.5;" x="247.73834" xlink:href="#m67aeda3803" y="419.129129"/>
     <use style="stroke:#000000;stroke-width:1.5;" x="346.987352" xlink:href="#m67aeda3803" y="412.181433"/>
     <use style="stroke:#000000;stroke-width:1.5;" x="446.236364" xlink:href="#m67aeda3803" y="206.560846"/>
     <use style="stroke:#000000;stroke-width:1.5;" x="545.485375" xlink:href="#m67aeda3803" y="266.823464"/>
    </g>
   </g>
   <g id="line2d_10">
    <g clip-path="url(#p7012e1bed3)">
     <use style="stroke:#000000;stroke-width:1.5;" x="148.489328" xlink:href="#m67aeda3803" y="419.818539"/>
     <use style="stroke:#000000;stroke-width:1.5;" x="247.73834" xlink:href="#m67aeda3803" y="418.991015"/>
     <use style="stroke:#000000;stroke-width:1.5;" x="346.987352" xlink:href="#m67aeda3803" y="411.679855"/>
     <use style="stroke:#000000;stroke-width:1.5;" x="446.236364" xlink:href="#m67aeda3803" y="200.184221"/>
     <use style="stroke:#000000;stroke-width:1.5;" x="545.485375" xlink:href="#m67aeda3803" y="250.502699"/>
    </g>
   </g>
   <g id="line2d_11">
    <g clip-path="url(#p7012e1bed3)">
     <use style="stroke:#000000;stroke-width:1.5;" x="158.414229" xlink:href="#m67aeda3803" y="419.257507"/>
     <use style="stroke:#000000;stroke-width:1.5;" x="257.663241" xlink:href="#m67aeda3803" y="410.534554"/>
     <use style="stroke:#000000;stroke-width:1.5;" x="356.912253" xlink:href="#m67aeda3803" y="396.393616"/>
     <use style="stroke:#000000;stroke-width:1.5;" x="456.161265" xlink:href="#m67aeda3803" y="414.140564"/>
     <use style="stroke:#000000;stroke-width:1.5;" x="555.410277" xlink:href="#m67aeda3803" y="83.533223"/>
    </g>
   </g>
   <g id="line2d_12">
    <g clip-path="url(#p7012e1bed3)">
     <use style="stroke:#000000;stroke-width:1.5;" x="158.414229" xlink:href="#m67aeda3803" y="419.200052"/>
     <use style="stroke:#000000;stroke-width:1.5;" x="257.663241" xlink:href="#m67aeda3803" y="408.111259"/>
     <use style="stroke:#000000;stroke-width:1.5;" x="356.912253" xlink:href="#m67aeda3803" y="392.12934"/>
     <use style="stroke:#000000;stroke-width:1.5;" x="456.161265" xlink:href="#m67aeda3803" y="413.652461"/>
     <use style="stroke:#000000;stroke-width:1.5;" x="555.410277" xlink:href="#m67aeda3803" y="74.2224"/>
    </g>
   </g>
   <g id="matplotlib.axis_1">
    <g id="xtick_1">
     <g id="line2d_13">
      <defs>
       <path d="M 0 0 
L 0 2 
" id="m3a9849e071" style="stroke:#000000;"/>
      </defs>
      <g>
       <use style="stroke:#000000;" x="133.601976" xlink:href="#m3a9849e071" y="421.6464"/>
      </g>
     </g>
     <g id="text_1">
      <!-- GLAU2 -->
      <defs>
       <path d="M 59.515625 10.40625 
L 59.515625 29.984375 
L 43.40625 29.984375 
L 43.40625 38.09375 
L 69.28125 38.09375 
L 69.28125 6.78125 
Q 63.578125 2.734375 56.6875 0.65625 
Q 49.8125 -1.421875 42 -1.421875 
Q 24.90625 -1.421875 15.25 8.5625 
Q 5.609375 18.5625 5.609375 36.375 
Q 5.609375 54.25 15.25 64.234375 
Q 24.90625 74.21875 42 74.21875 
Q 49.125 74.21875 55.546875 72.453125 
Q 61.96875 70.703125 67.390625 67.28125 
L 67.390625 56.78125 
Q 61.921875 61.421875 55.765625 63.765625 
Q 49.609375 66.109375 42.828125 66.109375 
Q 29.4375 66.109375 22.71875 58.640625 
Q 16.015625 51.171875 16.015625 36.375 
Q 16.015625 21.625 22.71875 14.15625 
Q 29.4375 6.6875 42.828125 6.6875 
Q 48.046875 6.6875 52.140625 7.59375 
Q 56.25 8.5 59.515625 10.40625 
z
" id="DejaVuSans-71"/>
       <path d="M 9.8125 72.90625 
L 19.671875 72.90625 
L 19.671875 8.296875 
L 55.171875 8.296875 
L 55.171875 0 
L 9.8125 0 
z
" id="DejaVuSans-76"/>
       <path d="M 34.1875 63.1875 
L 20.796875 26.90625 
L 47.609375 26.90625 
z
M 28.609375 72.90625 
L 39.796875 72.90625 
L 67.578125 0 
L 57.328125 0 
L 50.6875 18.703125 
L 17.828125 18.703125 
L 11.1875 0 
L 0.78125 0 
z
" id="DejaVuSans-65"/>
       <path d="M 8.6875 72.90625 
L 18.609375 72.90625 
L 18.609375 28.609375 
Q 18.609375 16.890625 22.84375 11.734375 
Q 27.09375 6.59375 36.625 6.59375 
Q 46.09375 6.59375 50.34375 11.734375 
Q 54.59375 16.890625 54.59375 28.609375 
L 54.59375 72.90625 
L 64.5 72.90625 
L 64.5 27.390625 
Q 64.5 13.140625 57.4375 5.859375 
Q 50.390625 -1.421875 36.625 -1.421875 
Q 22.796875 -1.421875 15.734375 5.859375 
Q 8.6875 13.140625 8.6875 27.390625 
z
" id="DejaVuSans-85"/>
       <path d="M 19.1875 8.296875 
L 53.609375 8.296875 
L 53.609375 0 
L 7.328125 0 
L 7.328125 8.296875 
Q 12.9375 14.109375 22.625 23.890625 
Q 32.328125 33.6875 34.8125 36.53125 
Q 39.546875 41.84375 41.421875 45.53125 
Q 43.3125 49.21875 43.3125 52.78125 
Q 43.3125 58.59375 39.234375 62.25 
Q 35.15625 65.921875 28.609375 65.921875 
Q 23.96875 65.921875 18.8125 64.3125 
Q 13.671875 62.703125 7.8125 59.421875 
L 7.8125 69.390625 
Q 13.765625 71.78125 18.9375 73 
Q 24.125 74.21875 28.421875 74.21875 
Q 39.75 74.21875 46.484375 68.546875 
Q 53.21875 62.890625 53.21875 53.421875 
Q 53.21875 48.921875 51.53125 44.890625 
Q 49.859375 40.875 45.40625 35.40625 
Q 44.1875 33.984375 37.640625 27.21875 
Q 31.109375 20.453125 19.1875 8.296875 
z
" id="DejaVuSans-50"/>
      </defs>
      <g transform="translate(109.910258 437.784213)scale(0.14 -0.14)">
       <use xlink:href="#DejaVuSans-71"/>
       <use x="77.490234" xlink:href="#DejaVuSans-76"/>
       <use x="133.234375" xlink:href="#DejaVuSans-65"/>
       <use x="201.642578" xlink:href="#DejaVuSans-85"/>
       <use x="274.835938" xlink:href="#DejaVuSans-50"/>
      </g>
     </g>
    </g>
    <g id="xtick_2">
     <g id="line2d_14">
      <g>
       <use style="stroke:#000000;" x="232.850988" xlink:href="#m3a9849e071" y="421.6464"/>
      </g>
     </g>
     <g id="text_2">
      <!-- NOS2 -->
      <defs>
       <path d="M 9.8125 72.90625 
L 23.09375 72.90625 
L 55.421875 11.921875 
L 55.421875 72.90625 
L 64.984375 72.90625 
L 64.984375 0 
L 51.703125 0 
L 19.390625 60.984375 
L 19.390625 0 
L 9.8125 0 
z
" id="DejaVuSans-78"/>
       <path d="M 39.40625 66.21875 
Q 28.65625 66.21875 22.328125 58.203125 
Q 16.015625 50.203125 16.015625 36.375 
Q 16.015625 22.609375 22.328125 14.59375 
Q 28.65625 6.59375 39.40625 6.59375 
Q 50.140625 6.59375 56.421875 14.59375 
Q 62.703125 22.609375 62.703125 36.375 
Q 62.703125 50.203125 56.421875 58.203125 
Q 50.140625 66.21875 39.40625 66.21875 
z
M 39.40625 74.21875 
Q 54.734375 74.21875 63.90625 63.9375 
Q 73.09375 53.65625 73.09375 36.375 
Q 73.09375 19.140625 63.90625 8.859375 
Q 54.734375 -1.421875 39.40625 -1.421875 
Q 24.03125 -1.421875 14.8125 8.828125 
Q 5.609375 19.09375 5.609375 36.375 
Q 5.609375 53.65625 14.8125 63.9375 
Q 24.03125 74.21875 39.40625 74.21875 
z
" id="DejaVuSans-79"/>
       <path d="M 53.515625 70.515625 
L 53.515625 60.890625 
Q 47.90625 63.578125 42.921875 64.890625 
Q 37.9375 66.21875 33.296875 66.21875 
Q 25.25 66.21875 20.875 63.09375 
Q 16.5 59.96875 16.5 54.203125 
Q 16.5 49.359375 19.40625 46.890625 
Q 22.3125 44.4375 30.421875 42.921875 
L 36.375 41.703125 
Q 47.40625 39.59375 52.65625 34.296875 
Q 57.90625 29 57.90625 20.125 
Q 57.90625 9.515625 50.796875 4.046875 
Q 43.703125 -1.421875 29.984375 -1.421875 
Q 24.8125 -1.421875 18.96875 -0.25 
Q 13.140625 0.921875 6.890625 3.21875 
L 6.890625 13.375 
Q 12.890625 10.015625 18.65625 8.296875 
Q 24.421875 6.59375 29.984375 6.59375 
Q 38.421875 6.59375 43.015625 9.90625 
Q 47.609375 13.234375 47.609375 19.390625 
Q 47.609375 24.75 44.3125 27.78125 
Q 41.015625 30.8125 33.5 32.328125 
L 27.484375 33.5 
Q 16.453125 35.6875 11.515625 40.375 
Q 6.59375 45.0625 6.59375 53.421875 
Q 6.59375 63.09375 13.40625 68.65625 
Q 20.21875 74.21875 32.171875 74.21875 
Q 37.3125 74.21875 42.625 73.28125 
Q 47.953125 72.359375 53.515625 70.515625 
z
" id="DejaVuSans-83"/>
      </defs>
      <g transform="translate(213.206144 437.784213)scale(0.14 -0.14)">
       <use xlink:href="#DejaVuSans-78"/>
       <use x="74.804688" xlink:href="#DejaVuSans-79"/>
       <use x="153.515625" xlink:href="#DejaVuSans-83"/>
       <use x="216.992188" xlink:href="#DejaVuSans-50"/>
      </g>
     </g>
    </g>
    <g id="xtick_3">
     <g id="line2d_15">
      <g>
       <use style="stroke:#000000;" x="332.1" xlink:href="#m3a9849e071" y="421.6464"/>
      </g>
     </g>
     <g id="text_3">
      <!-- PAP2 -->
      <defs>
       <path d="M 19.671875 64.796875 
L 19.671875 37.40625 
L 32.078125 37.40625 
Q 38.96875 37.40625 42.71875 40.96875 
Q 46.484375 44.53125 46.484375 51.125 
Q 46.484375 57.671875 42.71875 61.234375 
Q 38.96875 64.796875 32.078125 64.796875 
z
M 9.8125 72.90625 
L 32.078125 72.90625 
Q 44.34375 72.90625 50.609375 67.359375 
Q 56.890625 61.8125 56.890625 51.125 
Q 56.890625 40.328125 50.609375 34.8125 
Q 44.34375 29.296875 32.078125 29.296875 
L 19.671875 29.296875 
L 19.671875 0 
L 9.8125 0 
z
" id="DejaVuSans-80"/>
      </defs>
      <g transform="translate(314.422813 437.784213)scale(0.14 -0.14)">
       <use xlink:href="#DejaVuSans-80"/>
       <use x="60.208984" xlink:href="#DejaVuSans-65"/>
       <use x="128.617188" xlink:href="#DejaVuSans-80"/>
       <use x="188.919922" xlink:href="#DejaVuSans-50"/>
      </g>
     </g>
    </g>
    <g id="xtick_4">
     <g id="line2d_16">
      <g>
       <use style="stroke:#000000;" x="431.349012" xlink:href="#m3a9849e071" y="421.6464"/>
      </g>
     </g>
     <g id="text_4">
      <!-- ROTU2 -->
      <defs>
       <path d="M 44.390625 34.1875 
Q 47.5625 33.109375 50.5625 29.59375 
Q 53.5625 26.078125 56.59375 19.921875 
L 66.609375 0 
L 56 0 
L 46.6875 18.703125 
Q 43.0625 26.03125 39.671875 28.421875 
Q 36.28125 30.8125 30.421875 30.8125 
L 19.671875 30.8125 
L 19.671875 0 
L 9.8125 0 
L 9.8125 72.90625 
L 32.078125 72.90625 
Q 44.578125 72.90625 50.734375 67.671875 
Q 56.890625 62.453125 56.890625 51.90625 
Q 56.890625 45.015625 53.6875 40.46875 
Q 50.484375 35.9375 44.390625 34.1875 
z
M 19.671875 64.796875 
L 19.671875 38.921875 
L 32.078125 38.921875 
Q 39.203125 38.921875 42.84375 42.21875 
Q 46.484375 45.515625 46.484375 51.90625 
Q 46.484375 58.296875 42.84375 61.546875 
Q 39.203125 64.796875 32.078125 64.796875 
z
" id="DejaVuSans-82"/>
       <path d="M -0.296875 72.90625 
L 61.375 72.90625 
L 61.375 64.59375 
L 35.5 64.59375 
L 35.5 0 
L 25.59375 0 
L 25.59375 64.59375 
L -0.296875 64.59375 
z
" id="DejaVuSans-84"/>
      </defs>
      <g transform="translate(407.122449 437.784213)scale(0.14 -0.14)">
       <use xlink:href="#DejaVuSans-82"/>
       <use x="69.482422" xlink:href="#DejaVuSans-79"/>
       <use x="148.193359" xlink:href="#DejaVuSans-84"/>
       <use x="209.277344" xlink:href="#DejaVuSans-85"/>
       <use x="282.470703" xlink:href="#DejaVuSans-50"/>
      </g>
     </g>
    </g>
    <g id="xtick_5">
     <g id="line2d_17">
      <g>
       <use style="stroke:#000000;" x="530.598024" xlink:href="#m3a9849e071" y="421.6464"/>
      </g>
     </g>
     <g id="text_5">
      <!-- THP2 -->
      <defs>
       <path d="M 9.8125 72.90625 
L 19.671875 72.90625 
L 19.671875 43.015625 
L 55.515625 43.015625 
L 55.515625 72.90625 
L 65.375 72.90625 
L 65.375 0 
L 55.515625 0 
L 55.515625 34.71875 
L 19.671875 34.71875 
L 19.671875 0 
L 9.8125 0 
z
" id="DejaVuSans-72"/>
      </defs>
      <g transform="translate(512.383805 437.784213)scale(0.14 -0.14)">
       <use xlink:href="#DejaVuSans-84"/>
       <use x="61.083984" xlink:href="#DejaVuSans-72"/>
       <use x="136.279297" xlink:href="#DejaVuSans-80"/>
       <use x="196.582031" xlink:href="#DejaVuSans-50"/>
      </g>
     </g>
    </g>
    <g id="text_6">
     <!-- RamR variant -->
     <defs>
      <path d="M 34.28125 27.484375 
Q 23.390625 27.484375 19.1875 25 
Q 14.984375 22.515625 14.984375 16.5 
Q 14.984375 11.71875 18.140625 8.90625 
Q 21.296875 6.109375 26.703125 6.109375 
Q 34.1875 6.109375 38.703125 11.40625 
Q 43.21875 16.703125 43.21875 25.484375 
L 43.21875 27.484375 
z
M 52.203125 31.203125 
L 52.203125 0 
L 43.21875 0 
L 43.21875 8.296875 
Q 40.140625 3.328125 35.546875 0.953125 
Q 30.953125 -1.421875 24.3125 -1.421875 
Q 15.921875 -1.421875 10.953125 3.296875 
Q 6 8.015625 6 15.921875 
Q 6 25.140625 12.171875 29.828125 
Q 18.359375 34.515625 30.609375 34.515625 
L 43.21875 34.515625 
L 43.21875 35.40625 
Q 43.21875 41.609375 39.140625 45 
Q 35.0625 48.390625 27.6875 48.390625 
Q 23 48.390625 18.546875 47.265625 
Q 14.109375 46.140625 10.015625 43.890625 
L 10.015625 52.203125 
Q 14.9375 54.109375 19.578125 55.046875 
Q 24.21875 56 28.609375 56 
Q 40.484375 56 46.34375 49.84375 
Q 52.203125 43.703125 52.203125 31.203125 
z
" id="DejaVuSans-97"/>
      <path d="M 52 44.1875 
Q 55.375 50.25 60.0625 53.125 
Q 64.75 56 71.09375 56 
Q 79.640625 56 84.28125 50.015625 
Q 88.921875 44.046875 88.921875 33.015625 
L 88.921875 0 
L 79.890625 0 
L 79.890625 32.71875 
Q 79.890625 40.578125 77.09375 44.375 
Q 74.3125 48.1875 68.609375 48.1875 
Q 61.625 48.1875 57.5625 43.546875 
Q 53.515625 38.921875 53.515625 30.90625 
L 53.515625 0 
L 44.484375 0 
L 44.484375 32.71875 
Q 44.484375 40.625 41.703125 44.40625 
Q 38.921875 48.1875 33.109375 48.1875 
Q 26.21875 48.1875 22.15625 43.53125 
Q 18.109375 38.875 18.109375 30.90625 
L 18.109375 0 
L 9.078125 0 
L 9.078125 54.6875 
L 18.109375 54.6875 
L 18.109375 46.1875 
Q 21.1875 51.21875 25.484375 53.609375 
Q 29.78125 56 35.6875 56 
Q 41.65625 56 45.828125 52.96875 
Q 50 49.953125 52 44.1875 
z
" id="DejaVuSans-109"/>
      <path id="DejaVuSans-32"/>
      <path d="M 2.984375 54.6875 
L 12.5 54.6875 
L 29.59375 8.796875 
L 46.6875 54.6875 
L 56.203125 54.6875 
L 35.6875 0 
L 23.484375 0 
z
" id="DejaVuSans-118"/>
      <path d="M 41.109375 46.296875 
Q 39.59375 47.171875 37.8125 47.578125 
Q 36.03125 48 33.890625 48 
Q 26.265625 48 22.1875 43.046875 
Q 18.109375 38.09375 18.109375 28.8125 
L 18.109375 0 
L 9.078125 0 
L 9.078125 54.6875 
L 18.109375 54.6875 
L 18.109375 46.1875 
Q 20.953125 51.171875 25.484375 53.578125 
Q 30.03125 56 36.53125 56 
Q 37.453125 56 38.578125 55.875 
Q 39.703125 55.765625 41.0625 55.515625 
z
" id="DejaVuSans-114"/>
      <path d="M 9.421875 54.6875 
L 18.40625 54.6875 
L 18.40625 0 
L 9.421875 0 
z
M 9.421875 75.984375 
L 18.40625 75.984375 
L 18.40625 64.59375 
L 9.421875 64.59375 
z
" id="DejaVuSans-105"/>
      <path d="M 54.890625 33.015625 
L 54.890625 0 
L 45.90625 0 
L 45.90625 32.71875 
Q 45.90625 40.484375 42.875 44.328125 
Q 39.84375 48.1875 33.796875 48.1875 
Q 26.515625 48.1875 22.3125 43.546875 
Q 18.109375 38.921875 18.109375 30.90625 
L 18.109375 0 
L 9.078125 0 
L 9.078125 54.6875 
L 18.109375 54.6875 
L 18.109375 46.1875 
Q 21.34375 51.125 25.703125 53.5625 
Q 30.078125 56 35.796875 56 
Q 45.21875 56 50.046875 50.171875 
Q 54.890625 44.34375 54.890625 33.015625 
z
" id="DejaVuSans-110"/>
      <path d="M 18.3125 70.21875 
L 18.3125 54.6875 
L 36.8125 54.6875 
L 36.8125 47.703125 
L 18.3125 47.703125 
L 18.3125 18.015625 
Q 18.3125 11.328125 20.140625 9.421875 
Q 21.96875 7.515625 27.59375 7.515625 
L 36.8125 7.515625 
L 36.8125 0 
L 27.59375 0 
Q 17.1875 0 13.234375 3.875 
Q 9.28125 7.765625 9.28125 18.015625 
L 9.28125 47.703125 
L 2.6875 47.703125 
L 2.6875 54.6875 
L 9.28125 54.6875 
L 9.28125 70.21875 
z
" id="DejaVuSans-116"/>
     </defs>
     <g transform="translate(263.8375 459.89265)scale(0.2 -0.2)">
      <use xlink:href="#DejaVuSans-82"/>
      <use x="69.451172" xlink:href="#DejaVuSans-97"/>
      <use x="130.730469" xlink:href="#DejaVuSans-109"/>
      <use x="228.142578" xlink:href="#DejaVuSans-82"/>
      <use x="297.625" xlink:href="#DejaVuSans-32"/>
      <use x="329.412109" xlink:href="#DejaVuSans-118"/>
      <use x="388.591797" xlink:href="#DejaVuSans-97"/>
      <use x="449.871094" xlink:href="#DejaVuSans-114"/>
      <use x="490.984375" xlink:href="#DejaVuSans-105"/>
      <use x="518.767578" xlink:href="#DejaVuSans-97"/>
      <use x="580.046875" xlink:href="#DejaVuSans-110"/>
      <use x="643.425781" xlink:href="#DejaVuSans-116"/>
     </g>
    </g>
   </g>
   <g id="matplotlib.axis_2">
    <g id="ytick_1">
     <g id="line2d_18">
      <defs>
       <path d="M 0 0 
L -2 0 
" id="m4824787059" style="stroke:#000000;"/>
      </defs>
      <g>
       <use style="stroke:#000000;" x="81" xlink:href="#m4824787059" y="421.6464"/>
      </g>
     </g>
     <g id="text_7">
      <!-- 0 -->
      <defs>
       <path d="M 31.78125 66.40625 
Q 24.171875 66.40625 20.328125 58.90625 
Q 16.5 51.421875 16.5 36.375 
Q 16.5 21.390625 20.328125 13.890625 
Q 24.171875 6.390625 31.78125 6.390625 
Q 39.453125 6.390625 43.28125 13.890625 
Q 47.125 21.390625 47.125 36.375 
Q 47.125 51.421875 43.28125 58.90625 
Q 39.453125 66.40625 31.78125 66.40625 
z
M 31.78125 74.21875 
Q 44.046875 74.21875 50.515625 64.515625 
Q 56.984375 54.828125 56.984375 36.375 
Q 56.984375 17.96875 50.515625 8.265625 
Q 44.046875 -1.421875 31.78125 -1.421875 
Q 19.53125 -1.421875 13.0625 8.265625 
Q 6.59375 17.96875 6.59375 36.375 
Q 6.59375 54.828125 13.0625 64.515625 
Q 19.53125 74.21875 31.78125 74.21875 
z
" id="DejaVuSans-48"/>
      </defs>
      <g transform="translate(64.0475 428.484994)scale(0.18 -0.18)">
       <use xlink:href="#DejaVuSans-48"/>
      </g>
     </g>
    </g>
    <g id="ytick_2">
     <g id="line2d_19">
      <g>
       <use style="stroke:#000000;" x="81" xlink:href="#m4824787059" y="368.380201"/>
      </g>
     </g>
     <g id="text_8">
      <!-- 1 -->
      <defs>
       <path d="M 12.40625 8.296875 
L 28.515625 8.296875 
L 28.515625 63.921875 
L 10.984375 60.40625 
L 10.984375 69.390625 
L 28.421875 72.90625 
L 38.28125 72.90625 
L 38.28125 8.296875 
L 54.390625 8.296875 
L 54.390625 0 
L 12.40625 0 
z
" id="DejaVuSans-49"/>
      </defs>
      <g transform="translate(64.0475 375.218795)scale(0.18 -0.18)">
       <use xlink:href="#DejaVuSans-49"/>
      </g>
     </g>
    </g>
    <g id="ytick_3">
     <g id="line2d_20">
      <g>
       <use style="stroke:#000000;" x="81" xlink:href="#m4824787059" y="315.114002"/>
      </g>
     </g>
     <g id="text_9">
      <!-- 2 -->
      <g transform="translate(64.0475 321.952596)scale(0.18 -0.18)">
       <use xlink:href="#DejaVuSans-50"/>
      </g>
     </g>
    </g>
    <g id="ytick_4">
     <g id="line2d_21">
      <g>
       <use style="stroke:#000000;" x="81" xlink:href="#m4824787059" y="261.847803"/>
      </g>
     </g>
     <g id="text_10">
      <!-- 3 -->
      <defs>
       <path d="M 40.578125 39.3125 
Q 47.65625 37.796875 51.625 33 
Q 55.609375 28.21875 55.609375 21.1875 
Q 55.609375 10.40625 48.1875 4.484375 
Q 40.765625 -1.421875 27.09375 -1.421875 
Q 22.515625 -1.421875 17.65625 -0.515625 
Q 12.796875 0.390625 7.625 2.203125 
L 7.625 11.71875 
Q 11.71875 9.328125 16.59375 8.109375 
Q 21.484375 6.890625 26.8125 6.890625 
Q 36.078125 6.890625 40.9375 10.546875 
Q 45.796875 14.203125 45.796875 21.1875 
Q 45.796875 27.640625 41.28125 31.265625 
Q 36.765625 34.90625 28.71875 34.90625 
L 20.21875 34.90625 
L 20.21875 43.015625 
L 29.109375 43.015625 
Q 36.375 43.015625 40.234375 45.921875 
Q 44.09375 48.828125 44.09375 54.296875 
Q 44.09375 59.90625 40.109375 62.90625 
Q 36.140625 65.921875 28.71875 65.921875 
Q 24.65625 65.921875 20.015625 65.03125 
Q 15.375 64.15625 9.8125 62.3125 
L 9.8125 71.09375 
Q 15.4375 72.65625 20.34375 73.4375 
Q 25.25 74.21875 29.59375 74.21875 
Q 40.828125 74.21875 47.359375 69.109375 
Q 53.90625 64.015625 53.90625 55.328125 
Q 53.90625 49.265625 50.4375 45.09375 
Q 46.96875 40.921875 40.578125 39.3125 
z
" id="DejaVuSans-51"/>
      </defs>
      <g transform="translate(64.0475 268.686397)scale(0.18 -0.18)">
       <use xlink:href="#DejaVuSans-51"/>
      </g>
     </g>
    </g>
    <g id="ytick_5">
     <g id="line2d_22">
      <g>
       <use style="stroke:#000000;" x="81" xlink:href="#m4824787059" y="208.581604"/>
      </g>
     </g>
     <g id="text_11">
      <!-- 4 -->
      <defs>
       <path d="M 37.796875 64.3125 
L 12.890625 25.390625 
L 37.796875 25.390625 
z
M 35.203125 72.90625 
L 47.609375 72.90625 
L 47.609375 25.390625 
L 58.015625 25.390625 
L 58.015625 17.1875 
L 47.609375 17.1875 
L 47.609375 0 
L 37.796875 0 
L 37.796875 17.1875 
L 4.890625 17.1875 
L 4.890625 26.703125 
z
" id="DejaVuSans-52"/>
      </defs>
      <g transform="translate(64.0475 215.420198)scale(0.18 -0.18)">
       <use xlink:href="#DejaVuSans-52"/>
      </g>
     </g>
    </g>
    <g id="ytick_6">
     <g id="line2d_23">
      <g>
       <use style="stroke:#000000;" x="81" xlink:href="#m4824787059" y="155.315405"/>
      </g>
     </g>
     <g id="text_12">
      <!-- 5 -->
      <defs>
       <path d="M 10.796875 72.90625 
L 49.515625 72.90625 
L 49.515625 64.59375 
L 19.828125 64.59375 
L 19.828125 46.734375 
Q 21.96875 47.46875 24.109375 47.828125 
Q 26.265625 48.1875 28.421875 48.1875 
Q 40.625 48.1875 47.75 41.5 
Q 54.890625 34.8125 54.890625 23.390625 
Q 54.890625 11.625 47.5625 5.09375 
Q 40.234375 -1.421875 26.90625 -1.421875 
Q 22.3125 -1.421875 17.546875 -0.640625 
Q 12.796875 0.140625 7.71875 1.703125 
L 7.71875 11.625 
Q 12.109375 9.234375 16.796875 8.0625 
Q 21.484375 6.890625 26.703125 6.890625 
Q 35.15625 6.890625 40.078125 11.328125 
Q 45.015625 15.765625 45.015625 23.390625 
Q 45.015625 31 40.078125 35.4375 
Q 35.15625 39.890625 26.703125 39.890625 
Q 22.75 39.890625 18.8125 39.015625 
Q 14.890625 38.140625 10.796875 36.28125 
z
" id="DejaVuSans-53"/>
      </defs>
      <g transform="translate(64.0475 162.153999)scale(0.18 -0.18)">
       <use xlink:href="#DejaVuSans-53"/>
      </g>
     </g>
    </g>
    <g id="ytick_7">
     <g id="line2d_24">
      <g>
       <use style="stroke:#000000;" x="81" xlink:href="#m4824787059" y="102.049206"/>
      </g>
     </g>
     <g id="text_13">
      <!-- 6 -->
      <defs>
       <path d="M 33.015625 40.375 
Q 26.375 40.375 22.484375 35.828125 
Q 18.609375 31.296875 18.609375 23.390625 
Q 18.609375 15.53125 22.484375 10.953125 
Q 26.375 6.390625 33.015625 6.390625 
Q 39.65625 6.390625 43.53125 10.953125 
Q 47.40625 15.53125 47.40625 23.390625 
Q 47.40625 31.296875 43.53125 35.828125 
Q 39.65625 40.375 33.015625 40.375 
z
M 52.59375 71.296875 
L 52.59375 62.3125 
Q 48.875 64.0625 45.09375 64.984375 
Q 41.3125 65.921875 37.59375 65.921875 
Q 27.828125 65.921875 22.671875 59.328125 
Q 17.53125 52.734375 16.796875 39.40625 
Q 19.671875 43.65625 24.015625 45.921875 
Q 28.375 48.1875 33.59375 48.1875 
Q 44.578125 48.1875 50.953125 41.515625 
Q 57.328125 34.859375 57.328125 23.390625 
Q 57.328125 12.15625 50.6875 5.359375 
Q 44.046875 -1.421875 33.015625 -1.421875 
Q 20.359375 -1.421875 13.671875 8.265625 
Q 6.984375 17.96875 6.984375 36.375 
Q 6.984375 53.65625 15.1875 63.9375 
Q 23.390625 74.21875 37.203125 74.21875 
Q 40.921875 74.21875 44.703125 73.484375 
Q 48.484375 72.75 52.59375 71.296875 
z
" id="DejaVuSans-54"/>
      </defs>
      <g transform="translate(64.0475 108.887799)scale(0.18 -0.18)">
       <use xlink:href="#DejaVuSans-54"/>
      </g>
     </g>
    </g>
    <g id="text_14">
     <!-- $(RFU/OD) \times 10^4$ -->
     <defs>
      <path d="M 31 75.875 
Q 24.46875 64.65625 21.28125 53.65625 
Q 18.109375 42.671875 18.109375 31.390625 
Q 18.109375 20.125 21.3125 9.0625 
Q 24.515625 -2 31 -13.1875 
L 23.1875 -13.1875 
Q 15.875 -1.703125 12.234375 9.375 
Q 8.59375 20.453125 8.59375 31.390625 
Q 8.59375 42.28125 12.203125 53.3125 
Q 15.828125 64.359375 23.1875 75.875 
z
" id="DejaVuSans-40"/>
      <path d="M 25.203125 64.796875 
L 20.21875 38.921875 
L 32.90625 38.921875 
Q 40.375 38.921875 44.984375 43.046875 
Q 49.609375 47.171875 49.609375 53.8125 
Q 49.609375 59.125 46.5 61.953125 
Q 43.40625 64.796875 37.59375 64.796875 
z
M 43.3125 35.015625 
Q 46.4375 34.28125 48.515625 31.390625 
Q 50.59375 28.515625 53.328125 19.921875 
L 59.515625 0 
L 49.125 0 
L 43.40625 18.703125 
Q 41.21875 25.921875 38.328125 28.359375 
Q 35.453125 30.8125 29.5 30.8125 
L 18.609375 30.8125 
L 12.59375 0 
L 2.6875 0 
L 16.890625 72.90625 
L 39.109375 72.90625 
Q 49.21875 72.90625 54.609375 68.328125 
Q 60.015625 63.765625 60.015625 55.171875 
Q 60.015625 47.5625 55.421875 41.984375 
Q 50.828125 36.421875 43.3125 35.015625 
z
" id="DejaVuSans-Oblique-82"/>
      <path d="M 16.890625 72.90625 
L 58.6875 72.90625 
L 57.078125 64.59375 
L 25.09375 64.59375 
L 20.90625 43.109375 
L 49.8125 43.109375 
L 48.1875 34.8125 
L 19.28125 34.8125 
L 12.5 0 
L 2.6875 0 
z
" id="DejaVuSans-Oblique-70"/>
      <path d="M 15.484375 72.90625 
L 25.390625 72.90625 
L 16.796875 28.609375 
Q 16.265625 25.640625 16.046875 23.703125 
Q 15.828125 21.78125 15.828125 20.3125 
Q 15.828125 13.578125 19.578125 10.078125 
Q 23.34375 6.59375 30.609375 6.59375 
Q 40.046875 6.59375 45.28125 11.765625 
Q 50.53125 16.9375 52.78125 28.609375 
L 61.375 72.90625 
L 71.296875 72.90625 
L 62.5 27.390625 
Q 59.625 12.640625 51.5625 5.609375 
Q 43.5 -1.421875 29.5 -1.421875 
Q 18.5625 -1.421875 12.1875 4.078125 
Q 5.8125 9.578125 5.8125 19 
Q 5.8125 20.703125 6.046875 22.828125 
Q 6.296875 24.953125 6.78125 27.390625 
z
" id="DejaVuSans-Oblique-85"/>
      <path d="M 25.390625 72.90625 
L 33.6875 72.90625 
L 8.296875 -9.28125 
L 0 -9.28125 
z
" id="DejaVuSans-47"/>
      <path d="M 45.609375 66.21875 
Q 37.5 66.21875 31.296875 62.28125 
Q 25.09375 58.34375 20.515625 50.296875 
Q 17.578125 45.171875 16.03125 39.40625 
Q 14.5 33.640625 14.5 27.78125 
Q 14.5 17.625 19.359375 12.109375 
Q 24.21875 6.59375 33.109375 6.59375 
Q 41.109375 6.59375 47.375 10.5625 
Q 53.65625 14.546875 58.109375 22.40625 
Q 61.078125 27.6875 62.640625 33.46875 
Q 64.203125 39.265625 64.203125 45.015625 
Q 64.203125 55.125 59.3125 60.671875 
Q 54.4375 66.21875 45.609375 66.21875 
z
M 32.8125 -1.421875 
Q 19.390625 -1.421875 11.6875 6.53125 
Q 4 14.5 4 28.328125 
Q 4 36.234375 7 44.484375 
Q 10.015625 52.734375 15.28125 59.1875 
Q 21.484375 66.75 29.09375 70.484375 
Q 36.71875 74.21875 45.90625 74.21875 
Q 59.28125 74.21875 66.984375 66.328125 
Q 74.703125 58.453125 74.703125 44.828125 
Q 74.703125 36.421875 71.765625 28.3125 
Q 68.84375 20.21875 63.375 13.625 
Q 57.125 6 49.578125 2.28125 
Q 42.046875 -1.421875 32.8125 -1.421875 
z
" id="DejaVuSans-Oblique-79"/>
      <path d="M 16.890625 72.90625 
L 38.09375 72.90625 
Q 54.984375 72.90625 63.59375 65.75 
Q 72.21875 58.59375 72.21875 44.484375 
Q 72.21875 35.15625 68.9375 26.53125 
Q 65.671875 17.921875 59.90625 12.015625 
Q 54.109375 5.953125 45.171875 2.96875 
Q 36.234375 0 24.03125 0 
L 2.6875 0 
z
M 25.203125 64.796875 
L 14.203125 8.109375 
L 27.09375 8.109375 
Q 43.65625 8.109375 52.734375 17.625 
Q 61.8125 27.15625 61.8125 44.484375 
Q 61.8125 54.984375 55.953125 59.890625 
Q 50.09375 64.796875 37.59375 64.796875 
z
" id="DejaVuSans-Oblique-68"/>
      <path d="M 8.015625 75.875 
L 15.828125 75.875 
Q 23.140625 64.359375 26.78125 53.3125 
Q 30.421875 42.28125 30.421875 31.390625 
Q 30.421875 20.453125 26.78125 9.375 
Q 23.140625 -1.703125 15.828125 -13.1875 
L 8.015625 -13.1875 
Q 14.5 -2 17.703125 9.0625 
Q 20.90625 20.125 20.90625 31.390625 
Q 20.90625 42.671875 17.703125 53.65625 
Q 14.5 64.65625 8.015625 75.875 
z
" id="DejaVuSans-41"/>
      <path d="M 70.125 53.71875 
L 47.796875 31.296875 
L 70.125 8.984375 
L 64.3125 3.078125 
L 41.890625 25.484375 
L 19.484375 3.078125 
L 13.71875 8.984375 
L 35.984375 31.296875 
L 13.71875 53.71875 
L 19.484375 59.625 
L 41.890625 37.203125 
L 64.3125 59.625 
z
" id="DejaVuSans-215"/>
     </defs>
     <g transform="translate(55.888125 315.8488)rotate(-90)scale(0.2 -0.2)">
      <use transform="translate(0 0.684375)" xlink:href="#DejaVuSans-40"/>
      <use transform="translate(39.013672 0.684375)" xlink:href="#DejaVuSans-Oblique-82"/>
      <use transform="translate(108.496094 0.684375)" xlink:href="#DejaVuSans-Oblique-70"/>
      <use transform="translate(166.015625 0.684375)" xlink:href="#DejaVuSans-Oblique-85"/>
      <use transform="translate(239.208984 0.684375)" xlink:href="#DejaVuSans-47"/>
      <use transform="translate(272.900391 0.684375)" xlink:href="#DejaVuSans-Oblique-79"/>
      <use transform="translate(351.611328 0.684375)" xlink:href="#DejaVuSans-Oblique-68"/>
      <use transform="translate(428.613281 0.684375)" xlink:href="#DejaVuSans-41"/>
      <use transform="translate(487.109375 0.684375)" xlink:href="#DejaVuSans-215"/>
      <use transform="translate(590.380859 0.684375)" xlink:href="#DejaVuSans-49"/>
      <use transform="translate(654.003906 0.684375)" xlink:href="#DejaVuSans-48"/>
      <use transform="translate(718.583984 38.965625)scale(0.7)" xlink:href="#DejaVuSans-52"/>
     </g>
    </g>
   </g>
   <g id="patch_33">
    <path d="M 81 421.6464 
L 81 56.8512 
" style="fill:none;stroke:#000000;stroke-linecap:square;stroke-linejoin:miter;stroke-width:0.8;"/>
   </g>
   <g id="patch_34">
    <path d="M 81 421.6464 
L 583.2 421.6464 
" style="fill:none;stroke:#000000;stroke-linecap:square;stroke-linejoin:miter;stroke-width:0.8;"/>
   </g>
   <g id="text_15">
    <!-- Orthogonality of second generation sensors -->
    <defs>
     <path d="M 54.890625 33.015625 
L 54.890625 0 
L 45.90625 0 
L 45.90625 32.71875 
Q 45.90625 40.484375 42.875 44.328125 
Q 39.84375 48.1875 33.796875 48.1875 
Q 26.515625 48.1875 22.3125 43.546875 
Q 18.109375 38.921875 18.109375 30.90625 
L 18.109375 0 
L 9.078125 0 
L 9.078125 75.984375 
L 18.109375 75.984375 
L 18.109375 46.1875 
Q 21.34375 51.125 25.703125 53.5625 
Q 30.078125 56 35.796875 56 
Q 45.21875 56 50.046875 50.171875 
Q 54.890625 44.34375 54.890625 33.015625 
z
" id="DejaVuSans-104"/>
     <path d="M 30.609375 48.390625 
Q 23.390625 48.390625 19.1875 42.75 
Q 14.984375 37.109375 14.984375 27.296875 
Q 14.984375 17.484375 19.15625 11.84375 
Q 23.34375 6.203125 30.609375 6.203125 
Q 37.796875 6.203125 41.984375 11.859375 
Q 46.1875 17.53125 46.1875 27.296875 
Q 46.1875 37.015625 41.984375 42.703125 
Q 37.796875 48.390625 30.609375 48.390625 
z
M 30.609375 56 
Q 42.328125 56 49.015625 48.375 
Q 55.71875 40.765625 55.71875 27.296875 
Q 55.71875 13.875 49.015625 6.21875 
Q 42.328125 -1.421875 30.609375 -1.421875 
Q 18.84375 -1.421875 12.171875 6.21875 
Q 5.515625 13.875 5.515625 27.296875 
Q 5.515625 40.765625 12.171875 48.375 
Q 18.84375 56 30.609375 56 
z
" id="DejaVuSans-111"/>
     <path d="M 45.40625 27.984375 
Q 45.40625 37.75 41.375 43.109375 
Q 37.359375 48.484375 30.078125 48.484375 
Q 22.859375 48.484375 18.828125 43.109375 
Q 14.796875 37.75 14.796875 27.984375 
Q 14.796875 18.265625 18.828125 12.890625 
Q 22.859375 7.515625 30.078125 7.515625 
Q 37.359375 7.515625 41.375 12.890625 
Q 45.40625 18.265625 45.40625 27.984375 
z
M 54.390625 6.78125 
Q 54.390625 -7.171875 48.1875 -13.984375 
Q 42 -20.796875 29.203125 -20.796875 
Q 24.46875 -20.796875 20.265625 -20.09375 
Q 16.0625 -19.390625 12.109375 -17.921875 
L 12.109375 -9.1875 
Q 16.0625 -11.328125 19.921875 -12.34375 
Q 23.78125 -13.375 27.78125 -13.375 
Q 36.625 -13.375 41.015625 -8.765625 
Q 45.40625 -4.15625 45.40625 5.171875 
L 45.40625 9.625 
Q 42.625 4.78125 38.28125 2.390625 
Q 33.9375 0 27.875 0 
Q 17.828125 0 11.671875 7.65625 
Q 5.515625 15.328125 5.515625 27.984375 
Q 5.515625 40.671875 11.671875 48.328125 
Q 17.828125 56 27.875 56 
Q 33.9375 56 38.28125 53.609375 
Q 42.625 51.21875 45.40625 46.390625 
L 45.40625 54.6875 
L 54.390625 54.6875 
z
" id="DejaVuSans-103"/>
     <path d="M 9.421875 75.984375 
L 18.40625 75.984375 
L 18.40625 0 
L 9.421875 0 
z
" id="DejaVuSans-108"/>
     <path d="M 32.171875 -5.078125 
Q 28.375 -14.84375 24.75 -17.8125 
Q 21.140625 -20.796875 15.09375 -20.796875 
L 7.90625 -20.796875 
L 7.90625 -13.28125 
L 13.1875 -13.28125 
Q 16.890625 -13.28125 18.9375 -11.515625 
Q 21 -9.765625 23.484375 -3.21875 
L 25.09375 0.875 
L 2.984375 54.6875 
L 12.5 54.6875 
L 29.59375 11.921875 
L 46.6875 54.6875 
L 56.203125 54.6875 
z
" id="DejaVuSans-121"/>
     <path d="M 37.109375 75.984375 
L 37.109375 68.5 
L 28.515625 68.5 
Q 23.6875 68.5 21.796875 66.546875 
Q 19.921875 64.59375 19.921875 59.515625 
L 19.921875 54.6875 
L 34.71875 54.6875 
L 34.71875 47.703125 
L 19.921875 47.703125 
L 19.921875 0 
L 10.890625 0 
L 10.890625 47.703125 
L 2.296875 47.703125 
L 2.296875 54.6875 
L 10.890625 54.6875 
L 10.890625 58.5 
Q 10.890625 67.625 15.140625 71.796875 
Q 19.390625 75.984375 28.609375 75.984375 
z
" id="DejaVuSans-102"/>
     <path d="M 44.28125 53.078125 
L 44.28125 44.578125 
Q 40.484375 46.53125 36.375 47.5 
Q 32.28125 48.484375 27.875 48.484375 
Q 21.1875 48.484375 17.84375 46.4375 
Q 14.5 44.390625 14.5 40.28125 
Q 14.5 37.15625 16.890625 35.375 
Q 19.28125 33.59375 26.515625 31.984375 
L 29.59375 31.296875 
Q 39.15625 29.25 43.1875 25.515625 
Q 47.21875 21.78125 47.21875 15.09375 
Q 47.21875 7.46875 41.1875 3.015625 
Q 35.15625 -1.421875 24.609375 -1.421875 
Q 20.21875 -1.421875 15.453125 -0.5625 
Q 10.6875 0.296875 5.421875 2 
L 5.421875 11.28125 
Q 10.40625 8.6875 15.234375 7.390625 
Q 20.0625 6.109375 24.8125 6.109375 
Q 31.15625 6.109375 34.5625 8.28125 
Q 37.984375 10.453125 37.984375 14.40625 
Q 37.984375 18.0625 35.515625 20.015625 
Q 33.0625 21.96875 24.703125 23.78125 
L 21.578125 24.515625 
Q 13.234375 26.265625 9.515625 29.90625 
Q 5.8125 33.546875 5.8125 39.890625 
Q 5.8125 47.609375 11.28125 51.796875 
Q 16.75 56 26.8125 56 
Q 31.78125 56 36.171875 55.265625 
Q 40.578125 54.546875 44.28125 53.078125 
z
" id="DejaVuSans-115"/>
     <path d="M 56.203125 29.59375 
L 56.203125 25.203125 
L 14.890625 25.203125 
Q 15.484375 15.921875 20.484375 11.0625 
Q 25.484375 6.203125 34.421875 6.203125 
Q 39.59375 6.203125 44.453125 7.46875 
Q 49.3125 8.734375 54.109375 11.28125 
L 54.109375 2.78125 
Q 49.265625 0.734375 44.1875 -0.34375 
Q 39.109375 -1.421875 33.890625 -1.421875 
Q 20.796875 -1.421875 13.15625 6.1875 
Q 5.515625 13.8125 5.515625 26.8125 
Q 5.515625 40.234375 12.765625 48.109375 
Q 20.015625 56 32.328125 56 
Q 43.359375 56 49.78125 48.890625 
Q 56.203125 41.796875 56.203125 29.59375 
z
M 47.21875 32.234375 
Q 47.125 39.59375 43.09375 43.984375 
Q 39.0625 48.390625 32.421875 48.390625 
Q 24.90625 48.390625 20.390625 44.140625 
Q 15.875 39.890625 15.1875 32.171875 
z
" id="DejaVuSans-101"/>
     <path d="M 48.78125 52.59375 
L 48.78125 44.1875 
Q 44.96875 46.296875 41.140625 47.34375 
Q 37.3125 48.390625 33.40625 48.390625 
Q 24.65625 48.390625 19.8125 42.84375 
Q 14.984375 37.3125 14.984375 27.296875 
Q 14.984375 17.28125 19.8125 11.734375 
Q 24.65625 6.203125 33.40625 6.203125 
Q 37.3125 6.203125 41.140625 7.25 
Q 44.96875 8.296875 48.78125 10.40625 
L 48.78125 2.09375 
Q 45.015625 0.34375 40.984375 -0.53125 
Q 36.96875 -1.421875 32.421875 -1.421875 
Q 20.0625 -1.421875 12.78125 6.34375 
Q 5.515625 14.109375 5.515625 27.296875 
Q 5.515625 40.671875 12.859375 48.328125 
Q 20.21875 56 33.015625 56 
Q 37.15625 56 41.109375 55.140625 
Q 45.0625 54.296875 48.78125 52.59375 
z
" id="DejaVuSans-99"/>
     <path d="M 45.40625 46.390625 
L 45.40625 75.984375 
L 54.390625 75.984375 
L 54.390625 0 
L 45.40625 0 
L 45.40625 8.203125 
Q 42.578125 3.328125 38.25 0.953125 
Q 33.9375 -1.421875 27.875 -1.421875 
Q 17.96875 -1.421875 11.734375 6.484375 
Q 5.515625 14.40625 5.515625 27.296875 
Q 5.515625 40.1875 11.734375 48.09375 
Q 17.96875 56 27.875 56 
Q 33.9375 56 38.25 53.625 
Q 42.578125 51.265625 45.40625 46.390625 
z
M 14.796875 27.296875 
Q 14.796875 17.390625 18.875 11.75 
Q 22.953125 6.109375 30.078125 6.109375 
Q 37.203125 6.109375 41.296875 11.75 
Q 45.40625 17.390625 45.40625 27.296875 
Q 45.40625 37.203125 41.296875 42.84375 
Q 37.203125 48.484375 30.078125 48.484375 
Q 22.953125 48.484375 18.875 42.84375 
Q 14.796875 37.203125 14.796875 27.296875 
z
" id="DejaVuSans-100"/>
    </defs>
    <g transform="translate(90.717031 50.8512)scale(0.22 -0.22)">
     <use xlink:href="#DejaVuSans-79"/>
     <use x="78.710938" xlink:href="#DejaVuSans-114"/>
     <use x="119.824219" xlink:href="#DejaVuSans-116"/>
     <use x="159.033203" xlink:href="#DejaVuSans-104"/>
     <use x="222.412109" xlink:href="#DejaVuSans-111"/>
     <use x="283.59375" xlink:href="#DejaVuSans-103"/>
     <use x="347.070312" xlink:href="#DejaVuSans-111"/>
     <use x="408.251953" xlink:href="#DejaVuSans-110"/>
     <use x="471.630859" xlink:href="#DejaVuSans-97"/>
     <use x="532.910156" xlink:href="#DejaVuSans-108"/>
     <use x="560.693359" xlink:href="#DejaVuSans-105"/>
     <use x="588.476562" xlink:href="#DejaVuSans-116"/>
     <use x="627.685547" xlink:href="#DejaVuSans-121"/>
     <use x="686.865234" xlink:href="#DejaVuSans-32"/>
     <use x="718.652344" xlink:href="#DejaVuSans-111"/>
     <use x="779.833984" xlink:href="#DejaVuSans-102"/>
     <use x="815.039062" xlink:href="#DejaVuSans-32"/>
     <use x="846.826172" xlink:href="#DejaVuSans-115"/>
     <use x="898.925781" xlink:href="#DejaVuSans-101"/>
     <use x="960.449219" xlink:href="#DejaVuSans-99"/>
     <use x="1015.429688" xlink:href="#DejaVuSans-111"/>
     <use x="1076.611328" xlink:href="#DejaVuSans-110"/>
     <use x="1139.990234" xlink:href="#DejaVuSans-100"/>
     <use x="1203.466797" xlink:href="#DejaVuSans-32"/>
     <use x="1235.253906" xlink:href="#DejaVuSans-103"/>
     <use x="1298.730469" xlink:href="#DejaVuSans-101"/>
     <use x="1360.253906" xlink:href="#DejaVuSans-110"/>
     <use x="1423.632812" xlink:href="#DejaVuSans-101"/>
     <use x="1485.15625" xlink:href="#DejaVuSans-114"/>
     <use x="1526.269531" xlink:href="#DejaVuSans-97"/>
     <use x="1587.548828" xlink:href="#DejaVuSans-116"/>
     <use x="1626.757812" xlink:href="#DejaVuSans-105"/>
     <use x="1654.541016" xlink:href="#DejaVuSans-111"/>
     <use x="1715.722656" xlink:href="#DejaVuSans-110"/>
     <use x="1779.101562" xlink:href="#DejaVuSans-32"/>
     <use x="1810.888672" xlink:href="#DejaVuSans-115"/>
     <use x="1862.988281" xlink:href="#DejaVuSans-101"/>
     <use x="1924.511719" xlink:href="#DejaVuSans-110"/>
     <use x="1987.890625" xlink:href="#DejaVuSans-115"/>
     <use x="2039.990234" xlink:href="#DejaVuSans-111"/>
     <use x="2101.171875" xlink:href="#DejaVuSans-114"/>
     <use x="2142.285156" xlink:href="#DejaVuSans-115"/>
    </g>
   </g>
   <g id="legend_1">
    <g id="patch_35">
     <path d="M 91.5 198.493387 
L 182.8875 198.493387 
Q 185.8875 198.493387 185.8875 195.493387 
L 185.8875 67.3512 
Q 185.8875 64.3512 182.8875 64.3512 
L 91.5 64.3512 
Q 88.5 64.3512 88.5 67.3512 
L 88.5 195.493387 
Q 88.5 198.493387 91.5 198.493387 
z
" style="fill:#ffffff;opacity:0.8;stroke:#cccccc;stroke-linejoin:miter;"/>
    </g>
    <g id="patch_36">
     <path d="M 94.5 81.455887 
L 124.5 81.455887 
L 124.5 70.955887 
L 94.5 70.955887 
z
" style="stroke:#000000;stroke-linejoin:miter;"/>
    </g>
    <g id="text_16">
     <!-- DMSO -->
     <defs>
      <path d="M 14.265625 8.296875 
L 31.734375 8.296875 
Q 49.421875 8.296875 53.21875 26.765625 
Q 54.109375 31.25 54.109375 37.015625 
Q 54.109375 61.921875 37.015625 65.234375 
Q 34.46875 65.71875 31.734375 65.71875 
L 14.265625 65.71875 
z
M 4.890625 0 
L 4.890625 74.03125 
L 33.40625 74.03125 
Q 49.90625 74.03125 57.90625 60.640625 
Q 63.578125 51.265625 63.578125 37.109375 
Q 63.578125 15.921875 51.765625 6.15625 
Q 44.34375 0 33.40625 0 
z
" id="Gargi-68"/>
      <path d="M 44.828125 0 
L 34.859375 0 
L 13.875 62.015625 
L 13.875 0 
L 4.890625 0 
L 4.890625 74.03125 
L 17.96875 74.03125 
L 39.9375 9.578125 
L 61.421875 74.03125 
L 74.515625 74.03125 
L 74.515625 0 
L 65.625 0 
L 65.625 62.015625 
z
" id="Gargi-77"/>
      <path d="M 58.59375 53.90625 
L 49.609375 53.90625 
Q 49.609375 64.84375 38.484375 67.78125 
Q 35.0625 68.65625 31.15625 68.65625 
Q 20.515625 68.5625 16.40625 62.40625 
Q 14.65625 59.765625 14.65625 56.34375 
Q 14.65625 50.59375 20.125 47.953125 
Q 22.5625 46.78125 26.765625 45.515625 
L 45.40625 40.71875 
Q 57.515625 37.40625 60.453125 27.734375 
Q 61.140625 25.484375 61.140625 22.46875 
Q 61.140625 14.15625 55.28125 7.8125 
L 53.03125 5.859375 
Q 45.609375 0.296875 32.125 0.296875 
Q 15.234375 0.296875 7.328125 10.640625 
Q 2.9375 16.40625 2.9375 25.6875 
L 11.8125 25.6875 
L 12.203125 21.875 
Q 12.890625 17.78125 15.71875 14.546875 
Q 21.09375 8.40625 32.8125 8.40625 
Q 41.796875 8.40625 46.390625 11.625 
Q 50.875 14.75 51.5625 20.21875 
Q 51.65625 21 51.65625 21.578125 
Q 51.65625 28.90625 40.53125 32.625 
Q 39.359375 33.015625 38.09375 33.296875 
L 19.734375 38.09375 
Q 5.171875 41.890625 5.171875 55.078125 
Q 5.171875 67.484375 15.71875 72.953125 
Q 22.265625 76.375 31.453125 76.375 
Q 49.421875 76.375 55.765625 65.234375 
Q 58.59375 60.359375 58.59375 53.90625 
z
" id="Gargi-83"/>
      <path d="M 38.578125 68.171875 
Q 25.203125 68.171875 17.96875 58.015625 
Q 12.3125 50.09375 12.3125 38.28125 
Q 12.3125 22.65625 21.96875 14.359375 
Q 28.90625 8.40625 38.375 8.40625 
Q 38.484375 8.40625 38.671875 8.40625 
Q 51.65625 8.40625 59.078125 18.359375 
Q 64.9375 26.265625 64.9375 37.890625 
Q 64.9375 54.390625 54.984375 62.59375 
Q 48.25 68.171875 38.578125 68.171875 
z
M 38.578125 76.375 
Q 56.25 76.375 66.015625 64.15625 
Q 74.421875 53.71875 74.421875 37.703125 
Q 74.421875 22.953125 66.015625 12.5 
Q 63.96875 9.859375 61.625 7.90625 
Q 52.34375 0.296875 38.671875 0.296875 
Q 21.78125 0.296875 11.71875 12.015625 
Q 2.9375 22.265625 2.9375 38.28125 
Q 2.9375 56.734375 14.15625 67.28125 
Q 23.828125 76.375 38.578125 76.375 
z
" id="Gargi-79"/>
     </defs>
     <g transform="translate(136.5 81.455887)scale(0.15 -0.15)">
      <use xlink:href="#Gargi-68"/>
      <use x="68.457031" xlink:href="#Gargi-77"/>
      <use x="147.851562" xlink:href="#Gargi-83"/>
      <use x="211.914062" xlink:href="#Gargi-79"/>
     </g>
    </g>
    <g id="patch_37">
     <path d="M 94.5 103.062919 
L 124.5 103.062919 
L 124.5 92.562919 
L 94.5 92.562919 
z
" style="fill:#ca42ff;stroke:#000000;stroke-linejoin:miter;"/>
    </g>
    <g id="text_17">
     <!-- GLAU -->
     <defs>
      <path d="M 70.40625 40.828125 
L 70.40625 2.25 
L 64.453125 2.25 
L 62.109375 11.921875 
Q 51.5625 0.296875 36.8125 0.296875 
Q 21.390625 0.296875 11.71875 11.71875 
Q 2.9375 22.078125 2.9375 38.09375 
Q 2.9375 55.46875 13.28125 66.609375 
Q 14.75 68.171875 16.3125 69.4375 
Q 25 76.375 38.484375 76.375 
Q 56.734375 76.375 64.84375 64.65625 
Q 68.171875 59.859375 69.4375 53.125 
L 59.765625 53.125 
Q 57.625 62.796875 48.046875 66.5 
Q 43.65625 68.171875 38.375 68.171875 
Q 24.90625 68.0625 17.78125 57.8125 
Q 12.3125 50.09375 12.3125 38.578125 
Q 12.3125 26.5625 18.5625 17.671875 
Q 19.140625 16.796875 20.21875 15.828125 
Q 28.21875 8.40625 38.578125 8.40625 
Q 38.765625 8.40625 38.875 8.40625 
Q 50.203125 8.40625 57.125 16.5 
Q 62.109375 22.359375 62.109375 30.765625 
L 62.109375 32.71875 
L 39.546875 32.71875 
L 39.546875 40.828125 
z
" id="Gargi-71"/>
      <path d="M 14.359375 74.03125 
L 14.359375 8.296875 
L 50.875 8.296875 
L 50.875 0 
L 4.890625 0 
L 4.890625 74.03125 
z
" id="Gargi-76"/>
      <path d="M 48.640625 30.171875 
L 37.203125 63.875 
L 25.09375 30.171875 
z
M 51.265625 22.265625 
L 22.75 22.265625 
L 14.9375 0 
L 4.890625 0 
L 31.25 74.03125 
L 43.453125 74.03125 
L 69.4375 0 
L 58.890625 0 
z
" id="Gargi-65"/>
      <path d="M 52.34375 75 
L 61.8125 75 
L 61.8125 24.125 
Q 61.8125 11.140625 51.265625 4.6875 
Q 43.953125 0.203125 33.296875 0.203125 
Q 16.5 0.203125 9.078125 10.25 
Q 4.890625 15.921875 4.890625 24.125 
L 4.890625 75 
L 14.359375 75 
L 14.359375 24.125 
Q 14.359375 16.3125 19.734375 12.109375 
Q 25.09375 8.296875 33.296875 8.296875 
Q 45.90625 8.296875 50.390625 16.3125 
Q 52.34375 19.828125 52.34375 24.125 
z
" id="Gargi-85"/>
     </defs>
     <g transform="translate(136.5 103.062919)scale(0.15 -0.15)">
      <use xlink:href="#Gargi-71"/>
      <use x="75.292969" xlink:href="#Gargi-76"/>
      <use x="131.054688" xlink:href="#Gargi-65"/>
      <use x="205.371094" xlink:href="#Gargi-85"/>
     </g>
    </g>
    <g id="patch_38">
     <path d="M 94.5 124.66995 
L 124.5 124.66995 
L 124.5 114.16995 
L 94.5 114.16995 
z
" style="fill:#fff200;stroke:#000000;stroke-linejoin:miter;"/>
    </g>
    <g id="text_18">
     <!-- NOS -->
     <defs>
      <path d="M 62.796875 74.03125 
L 62.796875 0 
L 52.15625 0 
L 13.875 60.0625 
L 13.875 0 
L 4.890625 0 
L 4.890625 74.03125 
L 15.140625 74.03125 
L 53.8125 13.484375 
L 53.8125 74.03125 
z
" id="Gargi-78"/>
     </defs>
     <g transform="translate(136.5 124.66995)scale(0.15 -0.15)">
      <use xlink:href="#Gargi-78"/>
      <use x="67.675781" xlink:href="#Gargi-79"/>
      <use x="145.019531" xlink:href="#Gargi-83"/>
     </g>
    </g>
    <g id="patch_39">
     <path d="M 94.5 146.276981 
L 124.5 146.276981 
L 124.5 135.776981 
L 94.5 135.776981 
z
" style="fill:#ff1717;stroke:#000000;stroke-linejoin:miter;"/>
    </g>
    <g id="text_19">
     <!-- PAP -->
     <defs>
      <path d="M 14.265625 39.75 
L 33.984375 39.75 
Q 44.34375 39.75 47.359375 47.265625 
Q 48.4375 49.703125 48.4375 52.734375 
Q 48.4375 61.8125 40.4375 64.65625 
Q 37.59375 65.71875 33.984375 65.71875 
L 14.265625 65.71875 
z
M 14.265625 31.34375 
L 14.265625 0 
L 4.890625 0 
L 4.890625 74.03125 
L 35.453125 74.03125 
Q 51.765625 74.03125 56.546875 62.015625 
Q 58.296875 57.90625 58.296875 52.34375 
Q 58.296875 42.484375 51.859375 36.625 
Q 46 31.34375 37.59375 31.34375 
z
" id="Gargi-80"/>
     </defs>
     <g transform="translate(136.5 146.276981)scale(0.15 -0.15)">
      <use xlink:href="#Gargi-80"/>
      <use x="63.183594" xlink:href="#Gargi-65"/>
      <use x="137.5" xlink:href="#Gargi-80"/>
     </g>
    </g>
    <g id="patch_40">
     <path d="M 94.5 167.884012 
L 124.5 167.884012 
L 124.5 157.384012 
L 94.5 157.384012 
z
" style="fill:#3bff5b;stroke:#000000;stroke-linejoin:miter;"/>
    </g>
    <g id="text_20">
     <!-- ROTU -->
     <defs>
      <path d="M 14.265625 40.234375 
L 37.109375 40.234375 
Q 49.421875 40.234375 51.265625 48.921875 
Q 51.65625 50.6875 51.65625 52.9375 
Q 51.65625 59.578125 47.859375 62.890625 
Q 44.53125 65.71875 37.109375 65.71875 
L 14.265625 65.71875 
z
M 14.265625 31.9375 
L 14.265625 0 
L 4.890625 0 
L 4.890625 74.03125 
L 38.96875 74.03125 
Q 56.25 74.03125 60.453125 61.8125 
Q 61.53125 58.5 61.53125 54.203125 
Q 61.53125 44.234375 54.203125 39.0625 
Q 52.25 37.796875 49.8125 36.53125 
Q 56.15625 33.796875 58.109375 29.78125 
Q 59.859375 25.984375 59.859375 17.28125 
Q 59.859375 7.515625 61.8125 4.78125 
Q 62.796875 3.421875 64.359375 2.34375 
L 64.359375 0 
L 52.9375 0 
Q 50.875 4.890625 50.875 12.109375 
L 50.875 18.65625 
Q 50.875 29.78125 42.78125 31.453125 
Q 40.921875 31.9375 38.671875 31.9375 
z
" id="Gargi-82"/>
      <path d="M 38.671875 65.71875 
L 38.671875 0 
L 29.203125 0 
L 29.203125 65.71875 
L 4.890625 65.71875 
L 4.890625 74.03125 
L 62.984375 74.03125 
L 62.984375 65.71875 
z
" id="Gargi-84"/>
     </defs>
     <g transform="translate(136.5 167.884012)scale(0.15 -0.15)">
      <use xlink:href="#Gargi-82"/>
      <use x="69.238281" xlink:href="#Gargi-79"/>
      <use x="146.582031" xlink:href="#Gargi-84"/>
      <use x="214.453125" xlink:href="#Gargi-85"/>
     </g>
    </g>
    <g id="patch_41">
     <path d="M 94.5 189.491044 
L 124.5 189.491044 
L 124.5 178.991044 
L 94.5 178.991044 
z
" style="fill:#ffc72e;stroke:#000000;stroke-linejoin:miter;"/>
    </g>
    <g id="text_21">
     <!-- THP -->
     <defs>
      <path d="M 52.4375 33.6875 
L 14.453125 33.6875 
L 14.453125 0 
L 4.890625 0 
L 4.890625 74.03125 
L 14.359375 74.03125 
L 14.359375 42.09375 
L 52.4375 42.09375 
L 52.4375 74.03125 
L 61.921875 74.03125 
L 61.921875 0 
L 52.4375 0 
z
" id="Gargi-72"/>
     </defs>
     <g transform="translate(136.5 189.491044)scale(0.15 -0.15)">
      <use xlink:href="#Gargi-84"/>
      <use x="67.871094" xlink:href="#Gargi-72"/>
      <use x="134.667969" xlink:href="#Gargi-80"/>
     </g>
    </g>
   </g>
  </g>
 </g>
 <defs>
  <clipPath id="p7012e1bed3">
   <rect height="364.7952" width="502.2" x="81" y="56.8512"/>
  </clipPath>
 </defs>
</svg>
