<?xml version="1.0" encoding="utf-8" standalone="no"?>
<!DOCTYPE svg PUBLIC "-//W3C//DTD SVG 1.1//EN"
  "http://www.w3.org/Graphics/SVG/1.1/DTD/svg11.dtd">
<!-- Created with matplotlib (https://matplotlib.org/) -->
<svg height="473.76pt" version="1.1" viewBox="0 0 648 473.76" width="648pt" xmlns="http://www.w3.org/2000/svg" xmlns:xlink="http://www.w3.org/1999/xlink">
 <defs>
  <style type="text/css">
*{stroke-linecap:butt;stroke-linejoin:round;}
  </style>
 </defs>
 <g id="figure_1">
  <g id="patch_1">
   <path d="M 0 473.76 
L 648 473.76 
L 648 0 
L 0 0 
z
" style="fill:#ffffff;"/>
  </g>
  <g id="axes_1">
   <g id="patch_2">
    <path d="M 81 421.6464 
L 583.2 421.6464 
L 583.2 56.8512 
L 81 56.8512 
z
" style="fill:#ffffff;"/>
   </g>
   <g id="patch_3">
    <path clip-path="url(#p7db2f93c05)" d="M 103.827273 421.6464 
L 122.089091 421.6464 
L 122.089091 335.884575 
L 103.827273 335.884575 
z
" style="stroke:#000000;stroke-linejoin:miter;stroke-width:3;"/>
   </g>
   <g id="patch_4">
    <path clip-path="url(#p7db2f93c05)" d="M 225.572727 421.6464 
L 243.834545 421.6464 
L 243.834545 351.323615 
L 225.572727 351.323615 
z
" style="stroke:#000000;stroke-linejoin:miter;stroke-width:3;"/>
   </g>
   <g id="patch_5">
    <path clip-path="url(#p7db2f93c05)" d="M 347.318182 421.6464 
L 365.58 421.6464 
L 365.58 341.463598 
L 347.318182 341.463598 
z
" style="stroke:#000000;stroke-linejoin:miter;stroke-width:3;"/>
   </g>
   <g id="patch_6">
    <path clip-path="url(#p7db2f93c05)" d="M 469.063636 421.6464 
L 487.325455 421.6464 
L 487.325455 346.576299 
L 469.063636 346.576299 
z
" style="stroke:#000000;stroke-linejoin:miter;stroke-width:3;"/>
   </g>
   <g id="patch_7">
    <path clip-path="url(#p7db2f93c05)" d="M 122.089091 421.6464 
L 140.350909 421.6464 
L 140.350909 330.263346 
L 122.089091 330.263346 
z
" style="fill:#ca42ff;stroke:#000000;stroke-linejoin:miter;stroke-width:3;"/>
   </g>
   <g id="patch_8">
    <path clip-path="url(#p7db2f93c05)" d="M 243.834545 421.6464 
L 262.096364 421.6464 
L 262.096364 336.81739 
L 243.834545 336.81739 
z
" style="fill:#ca42ff;stroke:#000000;stroke-linejoin:miter;stroke-width:3;"/>
   </g>
   <g id="patch_9">
    <path clip-path="url(#p7db2f93c05)" d="M 365.58 421.6464 
L 383.841818 421.6464 
L 383.841818 329.792787 
L 365.58 329.792787 
z
" style="fill:#ca42ff;stroke:#000000;stroke-linejoin:miter;stroke-width:3;"/>
   </g>
   <g id="patch_10">
    <path clip-path="url(#p7db2f93c05)" d="M 487.325455 421.6464 
L 505.587273 421.6464 
L 505.587273 350.091131 
L 487.325455 350.091131 
z
" style="fill:#ca42ff;stroke:#000000;stroke-linejoin:miter;stroke-width:3;"/>
   </g>
   <g id="patch_11">
    <path clip-path="url(#p7db2f93c05)" d="M 140.350909 421.6464 
L 158.612727 421.6464 
L 158.612727 333.873723 
L 140.350909 333.873723 
z
" style="fill:#ff1717;stroke:#000000;stroke-linejoin:miter;stroke-width:3;"/>
   </g>
   <g id="patch_12">
    <path clip-path="url(#p7db2f93c05)" d="M 262.096364 421.6464 
L 280.358182 421.6464 
L 280.358182 329.215678 
L 262.096364 329.215678 
z
" style="fill:#ff1717;stroke:#000000;stroke-linejoin:miter;stroke-width:3;"/>
   </g>
   <g id="patch_13">
    <path clip-path="url(#p7db2f93c05)" d="M 383.841818 421.6464 
L 402.103636 421.6464 
L 402.103636 326.958451 
L 383.841818 326.958451 
z
" style="fill:#ff1717;stroke:#000000;stroke-linejoin:miter;stroke-width:3;"/>
   </g>
   <g id="patch_14">
    <path clip-path="url(#p7db2f93c05)" d="M 505.587273 421.6464 
L 523.849091 421.6464 
L 523.849091 343.726182 
L 505.587273 343.726182 
z
" style="fill:#ff1717;stroke:#000000;stroke-linejoin:miter;stroke-width:3;"/>
   </g>
   <g id="patch_15">
    <path clip-path="url(#p7db2f93c05)" d="M 158.612727 421.6464 
L 176.874545 421.6464 
L 176.874545 74.2224 
L 158.612727 74.2224 
z
" style="fill:#3bff5b;stroke:#000000;stroke-linejoin:miter;stroke-width:3;"/>
   </g>
   <g id="patch_16">
    <path clip-path="url(#p7db2f93c05)" d="M 280.358182 421.6464 
L 298.62 421.6464 
L 298.62 267.767373 
L 280.358182 267.767373 
z
" style="fill:#3bff5b;stroke:#000000;stroke-linejoin:miter;stroke-width:3;"/>
   </g>
   <g id="patch_17">
    <path clip-path="url(#p7db2f93c05)" d="M 402.103636 421.6464 
L 420.365455 421.6464 
L 420.365455 79.902923 
L 402.103636 79.902923 
z
" style="fill:#3bff5b;stroke:#000000;stroke-linejoin:miter;stroke-width:3;"/>
   </g>
   <g id="patch_18">
    <path clip-path="url(#p7db2f93c05)" d="M 523.849091 421.6464 
L 542.110909 421.6464 
L 542.110909 314.274615 
L 523.849091 314.274615 
z
" style="fill:#3bff5b;stroke:#000000;stroke-linejoin:miter;stroke-width:3;"/>
   </g>
   <g id="patch_19">
    <path clip-path="url(#p7db2f93c05)" d="M 176.874545 421.6464 
L 195.136364 421.6464 
L 195.136364 219.377371 
L 176.874545 219.377371 
z
" style="fill:#ffc72e;stroke:#000000;stroke-linejoin:miter;stroke-width:3;"/>
   </g>
   <g id="patch_20">
    <path clip-path="url(#p7db2f93c05)" d="M 298.62 421.6464 
L 316.881818 421.6464 
L 316.881818 317.91384 
L 298.62 317.91384 
z
" style="fill:#ffc72e;stroke:#000000;stroke-linejoin:miter;stroke-width:3;"/>
   </g>
   <g id="patch_21">
    <path clip-path="url(#p7db2f93c05)" d="M 420.365455 421.6464 
L 438.627273 421.6464 
L 438.627273 205.00093 
L 420.365455 205.00093 
z
" style="fill:#ffc72e;stroke:#000000;stroke-linejoin:miter;stroke-width:3;"/>
   </g>
   <g id="patch_22">
    <path clip-path="url(#p7db2f93c05)" d="M 542.110909 421.6464 
L 560.372727 421.6464 
L 560.372727 275.792455 
L 542.110909 275.792455 
z
" style="fill:#ffc72e;stroke:#000000;stroke-linejoin:miter;stroke-width:3;"/>
   </g>
   <g id="LineCollection_1">
    <path clip-path="url(#p7db2f93c05)" d="M 112.958182 335.884575 
L 112.958182 335.884575 
" style="fill:none;stroke:#000000;stroke-width:2;"/>
    <path clip-path="url(#p7db2f93c05)" d="M 234.703636 351.323615 
L 234.703636 351.323615 
" style="fill:none;stroke:#000000;stroke-width:2;"/>
    <path clip-path="url(#p7db2f93c05)" d="M 356.449091 341.463598 
L 356.449091 341.463598 
" style="fill:none;stroke:#000000;stroke-width:2;"/>
    <path clip-path="url(#p7db2f93c05)" d="M 478.194545 346.576299 
L 478.194545 346.576299 
" style="fill:none;stroke:#000000;stroke-width:2;"/>
   </g>
   <g id="LineCollection_2">
    <path clip-path="url(#p7db2f93c05)" d="M 131.22 330.263346 
L 131.22 330.263346 
" style="fill:none;stroke:#000000;stroke-width:2;"/>
    <path clip-path="url(#p7db2f93c05)" d="M 252.965455 336.81739 
L 252.965455 336.81739 
" style="fill:none;stroke:#000000;stroke-width:2;"/>
    <path clip-path="url(#p7db2f93c05)" d="M 374.710909 329.792787 
L 374.710909 329.792787 
" style="fill:none;stroke:#000000;stroke-width:2;"/>
    <path clip-path="url(#p7db2f93c05)" d="M 496.456364 350.091131 
L 496.456364 350.091131 
" style="fill:none;stroke:#000000;stroke-width:2;"/>
   </g>
   <g id="LineCollection_3">
    <path clip-path="url(#p7db2f93c05)" d="M 149.481818 333.873723 
L 149.481818 333.873723 
" style="fill:none;stroke:#000000;stroke-width:2;"/>
    <path clip-path="url(#p7db2f93c05)" d="M 271.227273 329.215678 
L 271.227273 329.215678 
" style="fill:none;stroke:#000000;stroke-width:2;"/>
    <path clip-path="url(#p7db2f93c05)" d="M 392.972727 326.958451 
L 392.972727 326.958451 
" style="fill:none;stroke:#000000;stroke-width:2;"/>
    <path clip-path="url(#p7db2f93c05)" d="M 514.718182 343.726182 
L 514.718182 343.726182 
" style="fill:none;stroke:#000000;stroke-width:2;"/>
   </g>
   <g id="LineCollection_4">
    <path clip-path="url(#p7db2f93c05)" d="M 167.743636 74.2224 
L 167.743636 74.2224 
" style="fill:none;stroke:#000000;stroke-width:2;"/>
    <path clip-path="url(#p7db2f93c05)" d="M 289.489091 267.767373 
L 289.489091 267.767373 
" style="fill:none;stroke:#000000;stroke-width:2;"/>
    <path clip-path="url(#p7db2f93c05)" d="M 411.234545 79.902923 
L 411.234545 79.902923 
" style="fill:none;stroke:#000000;stroke-width:2;"/>
    <path clip-path="url(#p7db2f93c05)" d="M 532.98 314.274615 
L 532.98 314.274615 
" style="fill:none;stroke:#000000;stroke-width:2;"/>
   </g>
   <g id="LineCollection_5">
    <path clip-path="url(#p7db2f93c05)" d="M 186.005455 219.377371 
L 186.005455 219.377371 
" style="fill:none;stroke:#000000;stroke-width:2;"/>
    <path clip-path="url(#p7db2f93c05)" d="M 307.750909 317.91384 
L 307.750909 317.91384 
" style="fill:none;stroke:#000000;stroke-width:2;"/>
    <path clip-path="url(#p7db2f93c05)" d="M 429.496364 205.00093 
L 429.496364 205.00093 
" style="fill:none;stroke:#000000;stroke-width:2;"/>
    <path clip-path="url(#p7db2f93c05)" d="M 551.241818 275.792455 
L 551.241818 275.792455 
" style="fill:none;stroke:#000000;stroke-width:2;"/>
   </g>
   <g id="line2d_1">
    <defs>
     <path d="M 5 0 
L -5 -0 
" id="mdf34b1d880" style="stroke:#000000;stroke-width:2;"/>
    </defs>
    <g clip-path="url(#p7db2f93c05)">
     <use style="stroke:#000000;stroke-width:2;" x="112.958182" xlink:href="#mdf34b1d880" y="335.884575"/>
     <use style="stroke:#000000;stroke-width:2;" x="234.703636" xlink:href="#mdf34b1d880" y="351.323615"/>
     <use style="stroke:#000000;stroke-width:2;" x="356.449091" xlink:href="#mdf34b1d880" y="341.463598"/>
     <use style="stroke:#000000;stroke-width:2;" x="478.194545" xlink:href="#mdf34b1d880" y="346.576299"/>
    </g>
   </g>
   <g id="line2d_2">
    <g clip-path="url(#p7db2f93c05)">
     <use style="stroke:#000000;stroke-width:2;" x="112.958182" xlink:href="#mdf34b1d880" y="335.884575"/>
     <use style="stroke:#000000;stroke-width:2;" x="234.703636" xlink:href="#mdf34b1d880" y="351.323615"/>
     <use style="stroke:#000000;stroke-width:2;" x="356.449091" xlink:href="#mdf34b1d880" y="341.463598"/>
     <use style="stroke:#000000;stroke-width:2;" x="478.194545" xlink:href="#mdf34b1d880" y="346.576299"/>
    </g>
   </g>
   <g id="line2d_3">
    <g clip-path="url(#p7db2f93c05)">
     <use style="stroke:#000000;stroke-width:2;" x="131.22" xlink:href="#mdf34b1d880" y="330.263346"/>
     <use style="stroke:#000000;stroke-width:2;" x="252.965455" xlink:href="#mdf34b1d880" y="336.81739"/>
     <use style="stroke:#000000;stroke-width:2;" x="374.710909" xlink:href="#mdf34b1d880" y="329.792787"/>
     <use style="stroke:#000000;stroke-width:2;" x="496.456364" xlink:href="#mdf34b1d880" y="350.091131"/>
    </g>
   </g>
   <g id="line2d_4">
    <g clip-path="url(#p7db2f93c05)">
     <use style="stroke:#000000;stroke-width:2;" x="131.22" xlink:href="#mdf34b1d880" y="330.263346"/>
     <use style="stroke:#000000;stroke-width:2;" x="252.965455" xlink:href="#mdf34b1d880" y="336.81739"/>
     <use style="stroke:#000000;stroke-width:2;" x="374.710909" xlink:href="#mdf34b1d880" y="329.792787"/>
     <use style="stroke:#000000;stroke-width:2;" x="496.456364" xlink:href="#mdf34b1d880" y="350.091131"/>
    </g>
   </g>
   <g id="line2d_5">
    <g clip-path="url(#p7db2f93c05)">
     <use style="stroke:#000000;stroke-width:2;" x="149.481818" xlink:href="#mdf34b1d880" y="333.873723"/>
     <use style="stroke:#000000;stroke-width:2;" x="271.227273" xlink:href="#mdf34b1d880" y="329.215678"/>
     <use style="stroke:#000000;stroke-width:2;" x="392.972727" xlink:href="#mdf34b1d880" y="326.958451"/>
     <use style="stroke:#000000;stroke-width:2;" x="514.718182" xlink:href="#mdf34b1d880" y="343.726182"/>
    </g>
   </g>
   <g id="line2d_6">
    <g clip-path="url(#p7db2f93c05)">
     <use style="stroke:#000000;stroke-width:2;" x="149.481818" xlink:href="#mdf34b1d880" y="333.873723"/>
     <use style="stroke:#000000;stroke-width:2;" x="271.227273" xlink:href="#mdf34b1d880" y="329.215678"/>
     <use style="stroke:#000000;stroke-width:2;" x="392.972727" xlink:href="#mdf34b1d880" y="326.958451"/>
     <use style="stroke:#000000;stroke-width:2;" x="514.718182" xlink:href="#mdf34b1d880" y="343.726182"/>
    </g>
   </g>
   <g id="line2d_7">
    <g clip-path="url(#p7db2f93c05)">
     <use style="stroke:#000000;stroke-width:2;" x="167.743636" xlink:href="#mdf34b1d880" y="74.2224"/>
     <use style="stroke:#000000;stroke-width:2;" x="289.489091" xlink:href="#mdf34b1d880" y="267.767373"/>
     <use style="stroke:#000000;stroke-width:2;" x="411.234545" xlink:href="#mdf34b1d880" y="79.902923"/>
     <use style="stroke:#000000;stroke-width:2;" x="532.98" xlink:href="#mdf34b1d880" y="314.274615"/>
    </g>
   </g>
   <g id="line2d_8">
    <g clip-path="url(#p7db2f93c05)">
     <use style="stroke:#000000;stroke-width:2;" x="167.743636" xlink:href="#mdf34b1d880" y="74.2224"/>
     <use style="stroke:#000000;stroke-width:2;" x="289.489091" xlink:href="#mdf34b1d880" y="267.767373"/>
     <use style="stroke:#000000;stroke-width:2;" x="411.234545" xlink:href="#mdf34b1d880" y="79.902923"/>
     <use style="stroke:#000000;stroke-width:2;" x="532.98" xlink:href="#mdf34b1d880" y="314.274615"/>
    </g>
   </g>
   <g id="line2d_9">
    <g clip-path="url(#p7db2f93c05)">
     <use style="stroke:#000000;stroke-width:2;" x="186.005455" xlink:href="#mdf34b1d880" y="219.377371"/>
     <use style="stroke:#000000;stroke-width:2;" x="307.750909" xlink:href="#mdf34b1d880" y="317.91384"/>
     <use style="stroke:#000000;stroke-width:2;" x="429.496364" xlink:href="#mdf34b1d880" y="205.00093"/>
     <use style="stroke:#000000;stroke-width:2;" x="551.241818" xlink:href="#mdf34b1d880" y="275.792455"/>
    </g>
   </g>
   <g id="line2d_10">
    <g clip-path="url(#p7db2f93c05)">
     <use style="stroke:#000000;stroke-width:2;" x="186.005455" xlink:href="#mdf34b1d880" y="219.377371"/>
     <use style="stroke:#000000;stroke-width:2;" x="307.750909" xlink:href="#mdf34b1d880" y="317.91384"/>
     <use style="stroke:#000000;stroke-width:2;" x="429.496364" xlink:href="#mdf34b1d880" y="205.00093"/>
     <use style="stroke:#000000;stroke-width:2;" x="551.241818" xlink:href="#mdf34b1d880" y="275.792455"/>
    </g>
   </g>
   <g id="matplotlib.axis_1">
    <g id="xtick_1">
     <g id="line2d_11">
      <defs>
       <path d="M 0 0 
L 0 2 
" id="m00397fe01a" style="stroke:#000000;"/>
      </defs>
      <g>
       <use style="stroke:#000000;" x="149.481818" xlink:href="#m00397fe01a" y="421.6464"/>
      </g>
     </g>
     <g id="text_1">
      <!-- NOS3 -->
      <defs>
       <path d="M 9.8125 72.90625 
L 23.09375 72.90625 
L 55.421875 11.921875 
L 55.421875 72.90625 
L 64.984375 72.90625 
L 64.984375 0 
L 51.703125 0 
L 19.390625 60.984375 
L 19.390625 0 
L 9.8125 0 
z
" id="DejaVuSans-78"/>
       <path d="M 39.40625 66.21875 
Q 28.65625 66.21875 22.328125 58.203125 
Q 16.015625 50.203125 16.015625 36.375 
Q 16.015625 22.609375 22.328125 14.59375 
Q 28.65625 6.59375 39.40625 6.59375 
Q 50.140625 6.59375 56.421875 14.59375 
Q 62.703125 22.609375 62.703125 36.375 
Q 62.703125 50.203125 56.421875 58.203125 
Q 50.140625 66.21875 39.40625 66.21875 
z
M 39.40625 74.21875 
Q 54.734375 74.21875 63.90625 63.9375 
Q 73.09375 53.65625 73.09375 36.375 
Q 73.09375 19.140625 63.90625 8.859375 
Q 54.734375 -1.421875 39.40625 -1.421875 
Q 24.03125 -1.421875 14.8125 8.828125 
Q 5.609375 19.09375 5.609375 36.375 
Q 5.609375 53.65625 14.8125 63.9375 
Q 24.03125 74.21875 39.40625 74.21875 
z
" id="DejaVuSans-79"/>
       <path d="M 53.515625 70.515625 
L 53.515625 60.890625 
Q 47.90625 63.578125 42.921875 64.890625 
Q 37.9375 66.21875 33.296875 66.21875 
Q 25.25 66.21875 20.875 63.09375 
Q 16.5 59.96875 16.5 54.203125 
Q 16.5 49.359375 19.40625 46.890625 
Q 22.3125 44.4375 30.421875 42.921875 
L 36.375 41.703125 
Q 47.40625 39.59375 52.65625 34.296875 
Q 57.90625 29 57.90625 20.125 
Q 57.90625 9.515625 50.796875 4.046875 
Q 43.703125 -1.421875 29.984375 -1.421875 
Q 24.8125 -1.421875 18.96875 -0.25 
Q 13.140625 0.921875 6.890625 3.21875 
L 6.890625 13.375 
Q 12.890625 10.015625 18.65625 8.296875 
Q 24.421875 6.59375 29.984375 6.59375 
Q 38.421875 6.59375 43.015625 9.90625 
Q 47.609375 13.234375 47.609375 19.390625 
Q 47.609375 24.75 44.3125 27.78125 
Q 41.015625 30.8125 33.5 32.328125 
L 27.484375 33.5 
Q 16.453125 35.6875 11.515625 40.375 
Q 6.59375 45.0625 6.59375 53.421875 
Q 6.59375 63.09375 13.40625 68.65625 
Q 20.21875 74.21875 32.171875 74.21875 
Q 37.3125 74.21875 42.625 73.28125 
Q 47.953125 72.359375 53.515625 70.515625 
z
" id="DejaVuSans-83"/>
       <path d="M 40.578125 39.3125 
Q 47.65625 37.796875 51.625 33 
Q 55.609375 28.21875 55.609375 21.1875 
Q 55.609375 10.40625 48.1875 4.484375 
Q 40.765625 -1.421875 27.09375 -1.421875 
Q 22.515625 -1.421875 17.65625 -0.515625 
Q 12.796875 0.390625 7.625 2.203125 
L 7.625 11.71875 
Q 11.71875 9.328125 16.59375 8.109375 
Q 21.484375 6.890625 26.8125 6.890625 
Q 36.078125 6.890625 40.9375 10.546875 
Q 45.796875 14.203125 45.796875 21.1875 
Q 45.796875 27.640625 41.28125 31.265625 
Q 36.765625 34.90625 28.71875 34.90625 
L 20.21875 34.90625 
L 20.21875 43.015625 
L 29.109375 43.015625 
Q 36.375 43.015625 40.234375 45.921875 
Q 44.09375 48.828125 44.09375 54.296875 
Q 44.09375 59.90625 40.109375 62.90625 
Q 36.140625 65.921875 28.71875 65.921875 
Q 24.65625 65.921875 20.015625 65.03125 
Q 15.375 64.15625 9.8125 62.3125 
L 9.8125 71.09375 
Q 15.4375 72.65625 20.34375 73.4375 
Q 25.25 74.21875 29.59375 74.21875 
Q 40.828125 74.21875 47.359375 69.109375 
Q 53.90625 64.015625 53.90625 55.328125 
Q 53.90625 49.265625 50.4375 45.09375 
Q 46.96875 40.921875 40.578125 39.3125 
z
" id="DejaVuSans-51"/>
      </defs>
      <g transform="translate(129.836974 437.784213)scale(0.14 -0.14)">
       <use xlink:href="#DejaVuSans-78"/>
       <use x="74.804688" xlink:href="#DejaVuSans-79"/>
       <use x="153.515625" xlink:href="#DejaVuSans-83"/>
       <use x="216.992188" xlink:href="#DejaVuSans-51"/>
      </g>
     </g>
    </g>
    <g id="xtick_2">
     <g id="line2d_12">
      <g>
       <use style="stroke:#000000;" x="271.227273" xlink:href="#m00397fe01a" y="421.6464"/>
      </g>
     </g>
     <g id="text_2">
      <!-- NOS4.1 -->
      <defs>
       <path d="M 37.796875 64.3125 
L 12.890625 25.390625 
L 37.796875 25.390625 
z
M 35.203125 72.90625 
L 47.609375 72.90625 
L 47.609375 25.390625 
L 58.015625 25.390625 
L 58.015625 17.1875 
L 47.609375 17.1875 
L 47.609375 0 
L 37.796875 0 
L 37.796875 17.1875 
L 4.890625 17.1875 
L 4.890625 26.703125 
z
" id="DejaVuSans-52"/>
       <path d="M 10.6875 12.40625 
L 21 12.40625 
L 21 0 
L 10.6875 0 
z
" id="DejaVuSans-46"/>
       <path d="M 12.40625 8.296875 
L 28.515625 8.296875 
L 28.515625 63.921875 
L 10.984375 60.40625 
L 10.984375 69.390625 
L 28.421875 72.90625 
L 38.28125 72.90625 
L 38.28125 8.296875 
L 54.390625 8.296875 
L 54.390625 0 
L 12.40625 0 
z
" id="DejaVuSans-49"/>
      </defs>
      <g transform="translate(244.903991 437.784213)scale(0.14 -0.14)">
       <use xlink:href="#DejaVuSans-78"/>
       <use x="74.804688" xlink:href="#DejaVuSans-79"/>
       <use x="153.515625" xlink:href="#DejaVuSans-83"/>
       <use x="216.992188" xlink:href="#DejaVuSans-52"/>
       <use x="280.615234" xlink:href="#DejaVuSans-46"/>
       <use x="312.402344" xlink:href="#DejaVuSans-49"/>
      </g>
     </g>
    </g>
    <g id="xtick_3">
     <g id="line2d_13">
      <g>
       <use style="stroke:#000000;" x="392.972727" xlink:href="#m00397fe01a" y="421.6464"/>
      </g>
     </g>
     <g id="text_3">
      <!-- NOS4.2 -->
      <defs>
       <path d="M 19.1875 8.296875 
L 53.609375 8.296875 
L 53.609375 0 
L 7.328125 0 
L 7.328125 8.296875 
Q 12.9375 14.109375 22.625 23.890625 
Q 32.328125 33.6875 34.8125 36.53125 
Q 39.546875 41.84375 41.421875 45.53125 
Q 43.3125 49.21875 43.3125 52.78125 
Q 43.3125 58.59375 39.234375 62.25 
Q 35.15625 65.921875 28.609375 65.921875 
Q 23.96875 65.921875 18.8125 64.3125 
Q 13.671875 62.703125 7.8125 59.421875 
L 7.8125 69.390625 
Q 13.765625 71.78125 18.9375 73 
Q 24.125 74.21875 28.421875 74.21875 
Q 39.75 74.21875 46.484375 68.546875 
Q 53.21875 62.890625 53.21875 53.421875 
Q 53.21875 48.921875 51.53125 44.890625 
Q 49.859375 40.875 45.40625 35.40625 
Q 44.1875 33.984375 37.640625 27.21875 
Q 31.109375 20.453125 19.1875 8.296875 
z
" id="DejaVuSans-50"/>
      </defs>
      <g transform="translate(366.649446 437.784213)scale(0.14 -0.14)">
       <use xlink:href="#DejaVuSans-78"/>
       <use x="74.804688" xlink:href="#DejaVuSans-79"/>
       <use x="153.515625" xlink:href="#DejaVuSans-83"/>
       <use x="216.992188" xlink:href="#DejaVuSans-52"/>
       <use x="280.615234" xlink:href="#DejaVuSans-46"/>
       <use x="312.402344" xlink:href="#DejaVuSans-50"/>
      </g>
     </g>
    </g>
    <g id="xtick_4">
     <g id="line2d_14">
      <g>
       <use style="stroke:#000000;" x="514.718182" xlink:href="#m00397fe01a" y="421.6464"/>
      </g>
     </g>
     <g id="text_4">
      <!-- NOS4.3 -->
      <g transform="translate(488.394901 437.784213)scale(0.14 -0.14)">
       <use xlink:href="#DejaVuSans-78"/>
       <use x="74.804688" xlink:href="#DejaVuSans-79"/>
       <use x="153.515625" xlink:href="#DejaVuSans-83"/>
       <use x="216.992188" xlink:href="#DejaVuSans-52"/>
       <use x="280.615234" xlink:href="#DejaVuSans-46"/>
       <use x="312.402344" xlink:href="#DejaVuSans-51"/>
      </g>
     </g>
    </g>
    <g id="text_5">
     <!-- Sensor variant -->
     <defs>
      <path d="M 56.203125 29.59375 
L 56.203125 25.203125 
L 14.890625 25.203125 
Q 15.484375 15.921875 20.484375 11.0625 
Q 25.484375 6.203125 34.421875 6.203125 
Q 39.59375 6.203125 44.453125 7.46875 
Q 49.3125 8.734375 54.109375 11.28125 
L 54.109375 2.78125 
Q 49.265625 0.734375 44.1875 -0.34375 
Q 39.109375 -1.421875 33.890625 -1.421875 
Q 20.796875 -1.421875 13.15625 6.1875 
Q 5.515625 13.8125 5.515625 26.8125 
Q 5.515625 40.234375 12.765625 48.109375 
Q 20.015625 56 32.328125 56 
Q 43.359375 56 49.78125 48.890625 
Q 56.203125 41.796875 56.203125 29.59375 
z
M 47.21875 32.234375 
Q 47.125 39.59375 43.09375 43.984375 
Q 39.0625 48.390625 32.421875 48.390625 
Q 24.90625 48.390625 20.390625 44.140625 
Q 15.875 39.890625 15.1875 32.171875 
z
" id="DejaVuSans-101"/>
      <path d="M 54.890625 33.015625 
L 54.890625 0 
L 45.90625 0 
L 45.90625 32.71875 
Q 45.90625 40.484375 42.875 44.328125 
Q 39.84375 48.1875 33.796875 48.1875 
Q 26.515625 48.1875 22.3125 43.546875 
Q 18.109375 38.921875 18.109375 30.90625 
L 18.109375 0 
L 9.078125 0 
L 9.078125 54.6875 
L 18.109375 54.6875 
L 18.109375 46.1875 
Q 21.34375 51.125 25.703125 53.5625 
Q 30.078125 56 35.796875 56 
Q 45.21875 56 50.046875 50.171875 
Q 54.890625 44.34375 54.890625 33.015625 
z
" id="DejaVuSans-110"/>
      <path d="M 44.28125 53.078125 
L 44.28125 44.578125 
Q 40.484375 46.53125 36.375 47.5 
Q 32.28125 48.484375 27.875 48.484375 
Q 21.1875 48.484375 17.84375 46.4375 
Q 14.5 44.390625 14.5 40.28125 
Q 14.5 37.15625 16.890625 35.375 
Q 19.28125 33.59375 26.515625 31.984375 
L 29.59375 31.296875 
Q 39.15625 29.25 43.1875 25.515625 
Q 47.21875 21.78125 47.21875 15.09375 
Q 47.21875 7.46875 41.1875 3.015625 
Q 35.15625 -1.421875 24.609375 -1.421875 
Q 20.21875 -1.421875 15.453125 -0.5625 
Q 10.6875 0.296875 5.421875 2 
L 5.421875 11.28125 
Q 10.40625 8.6875 15.234375 7.390625 
Q 20.0625 6.109375 24.8125 6.109375 
Q 31.15625 6.109375 34.5625 8.28125 
Q 37.984375 10.453125 37.984375 14.40625 
Q 37.984375 18.0625 35.515625 20.015625 
Q 33.0625 21.96875 24.703125 23.78125 
L 21.578125 24.515625 
Q 13.234375 26.265625 9.515625 29.90625 
Q 5.8125 33.546875 5.8125 39.890625 
Q 5.8125 47.609375 11.28125 51.796875 
Q 16.75 56 26.8125 56 
Q 31.78125 56 36.171875 55.265625 
Q 40.578125 54.546875 44.28125 53.078125 
z
" id="DejaVuSans-115"/>
      <path d="M 30.609375 48.390625 
Q 23.390625 48.390625 19.1875 42.75 
Q 14.984375 37.109375 14.984375 27.296875 
Q 14.984375 17.484375 19.15625 11.84375 
Q 23.34375 6.203125 30.609375 6.203125 
Q 37.796875 6.203125 41.984375 11.859375 
Q 46.1875 17.53125 46.1875 27.296875 
Q 46.1875 37.015625 41.984375 42.703125 
Q 37.796875 48.390625 30.609375 48.390625 
z
M 30.609375 56 
Q 42.328125 56 49.015625 48.375 
Q 55.71875 40.765625 55.71875 27.296875 
Q 55.71875 13.875 49.015625 6.21875 
Q 42.328125 -1.421875 30.609375 -1.421875 
Q 18.84375 -1.421875 12.171875 6.21875 
Q 5.515625 13.875 5.515625 27.296875 
Q 5.515625 40.765625 12.171875 48.375 
Q 18.84375 56 30.609375 56 
z
" id="DejaVuSans-111"/>
      <path d="M 41.109375 46.296875 
Q 39.59375 47.171875 37.8125 47.578125 
Q 36.03125 48 33.890625 48 
Q 26.265625 48 22.1875 43.046875 
Q 18.109375 38.09375 18.109375 28.8125 
L 18.109375 0 
L 9.078125 0 
L 9.078125 54.6875 
L 18.109375 54.6875 
L 18.109375 46.1875 
Q 20.953125 51.171875 25.484375 53.578125 
Q 30.03125 56 36.53125 56 
Q 37.453125 56 38.578125 55.875 
Q 39.703125 55.765625 41.0625 55.515625 
z
" id="DejaVuSans-114"/>
      <path id="DejaVuSans-32"/>
      <path d="M 2.984375 54.6875 
L 12.5 54.6875 
L 29.59375 8.796875 
L 46.6875 54.6875 
L 56.203125 54.6875 
L 35.6875 0 
L 23.484375 0 
z
" id="DejaVuSans-118"/>
      <path d="M 34.28125 27.484375 
Q 23.390625 27.484375 19.1875 25 
Q 14.984375 22.515625 14.984375 16.5 
Q 14.984375 11.71875 18.140625 8.90625 
Q 21.296875 6.109375 26.703125 6.109375 
Q 34.1875 6.109375 38.703125 11.40625 
Q 43.21875 16.703125 43.21875 25.484375 
L 43.21875 27.484375 
z
M 52.203125 31.203125 
L 52.203125 0 
L 43.21875 0 
L 43.21875 8.296875 
Q 40.140625 3.328125 35.546875 0.953125 
Q 30.953125 -1.421875 24.3125 -1.421875 
Q 15.921875 -1.421875 10.953125 3.296875 
Q 6 8.015625 6 15.921875 
Q 6 25.140625 12.171875 29.828125 
Q 18.359375 34.515625 30.609375 34.515625 
L 43.21875 34.515625 
L 43.21875 35.40625 
Q 43.21875 41.609375 39.140625 45 
Q 35.0625 48.390625 27.6875 48.390625 
Q 23 48.390625 18.546875 47.265625 
Q 14.109375 46.140625 10.015625 43.890625 
L 10.015625 52.203125 
Q 14.9375 54.109375 19.578125 55.046875 
Q 24.21875 56 28.609375 56 
Q 40.484375 56 46.34375 49.84375 
Q 52.203125 43.703125 52.203125 31.203125 
z
" id="DejaVuSans-97"/>
      <path d="M 9.421875 54.6875 
L 18.40625 54.6875 
L 18.40625 0 
L 9.421875 0 
z
M 9.421875 75.984375 
L 18.40625 75.984375 
L 18.40625 64.59375 
L 9.421875 64.59375 
z
" id="DejaVuSans-105"/>
      <path d="M 18.3125 70.21875 
L 18.3125 54.6875 
L 36.8125 54.6875 
L 36.8125 47.703125 
L 18.3125 47.703125 
L 18.3125 18.015625 
Q 18.3125 11.328125 20.140625 9.421875 
Q 21.96875 7.515625 27.59375 7.515625 
L 36.8125 7.515625 
L 36.8125 0 
L 27.59375 0 
Q 17.1875 0 13.234375 3.875 
Q 9.28125 7.765625 9.28125 18.015625 
L 9.28125 47.703125 
L 2.6875 47.703125 
L 2.6875 54.6875 
L 9.28125 54.6875 
L 9.28125 70.21875 
z
" id="DejaVuSans-116"/>
     </defs>
     <g transform="translate(259.321875 459.89265)scale(0.2 -0.2)">
      <use xlink:href="#DejaVuSans-83"/>
      <use x="63.476562" xlink:href="#DejaVuSans-101"/>
      <use x="125" xlink:href="#DejaVuSans-110"/>
      <use x="188.378906" xlink:href="#DejaVuSans-115"/>
      <use x="240.478516" xlink:href="#DejaVuSans-111"/>
      <use x="301.660156" xlink:href="#DejaVuSans-114"/>
      <use x="342.773438" xlink:href="#DejaVuSans-32"/>
      <use x="374.560547" xlink:href="#DejaVuSans-118"/>
      <use x="433.740234" xlink:href="#DejaVuSans-97"/>
      <use x="495.019531" xlink:href="#DejaVuSans-114"/>
      <use x="536.132812" xlink:href="#DejaVuSans-105"/>
      <use x="563.916016" xlink:href="#DejaVuSans-97"/>
      <use x="625.195312" xlink:href="#DejaVuSans-110"/>
      <use x="688.574219" xlink:href="#DejaVuSans-116"/>
     </g>
    </g>
   </g>
   <g id="matplotlib.axis_2">
    <g id="ytick_1">
     <g id="line2d_15">
      <defs>
       <path d="M 0 0 
L -2 0 
" id="m30e714c38d" style="stroke:#000000;"/>
      </defs>
      <g>
       <use style="stroke:#000000;" x="81" xlink:href="#m30e714c38d" y="421.6464"/>
      </g>
     </g>
     <g id="text_6">
      <!-- 0.00 -->
      <defs>
       <path d="M 31.78125 66.40625 
Q 24.171875 66.40625 20.328125 58.90625 
Q 16.5 51.421875 16.5 36.375 
Q 16.5 21.390625 20.328125 13.890625 
Q 24.171875 6.390625 31.78125 6.390625 
Q 39.453125 6.390625 43.28125 13.890625 
Q 47.125 21.390625 47.125 36.375 
Q 47.125 51.421875 43.28125 58.90625 
Q 39.453125 66.40625 31.78125 66.40625 
z
M 31.78125 74.21875 
Q 44.046875 74.21875 50.515625 64.515625 
Q 56.984375 54.828125 56.984375 36.375 
Q 56.984375 17.96875 50.515625 8.265625 
Q 44.046875 -1.421875 31.78125 -1.421875 
Q 19.53125 -1.421875 13.0625 8.265625 
Q 6.59375 17.96875 6.59375 36.375 
Q 6.59375 54.828125 13.0625 64.515625 
Q 19.53125 74.21875 31.78125 74.21875 
z
" id="DejaVuSans-48"/>
      </defs>
      <g transform="translate(35.421875 428.484994)scale(0.18 -0.18)">
       <use xlink:href="#DejaVuSans-48"/>
       <use x="63.623047" xlink:href="#DejaVuSans-46"/>
       <use x="95.410156" xlink:href="#DejaVuSans-48"/>
       <use x="159.033203" xlink:href="#DejaVuSans-48"/>
      </g>
     </g>
    </g>
    <g id="ytick_2">
     <g id="line2d_16">
      <g>
       <use style="stroke:#000000;" x="81" xlink:href="#m30e714c38d" y="376.154257"/>
      </g>
     </g>
     <g id="text_7">
      <!-- 0.25 -->
      <defs>
       <path d="M 10.796875 72.90625 
L 49.515625 72.90625 
L 49.515625 64.59375 
L 19.828125 64.59375 
L 19.828125 46.734375 
Q 21.96875 47.46875 24.109375 47.828125 
Q 26.265625 48.1875 28.421875 48.1875 
Q 40.625 48.1875 47.75 41.5 
Q 54.890625 34.8125 54.890625 23.390625 
Q 54.890625 11.625 47.5625 5.09375 
Q 40.234375 -1.421875 26.90625 -1.421875 
Q 22.3125 -1.421875 17.546875 -0.640625 
Q 12.796875 0.140625 7.71875 1.703125 
L 7.71875 11.625 
Q 12.109375 9.234375 16.796875 8.0625 
Q 21.484375 6.890625 26.703125 6.890625 
Q 35.15625 6.890625 40.078125 11.328125 
Q 45.015625 15.765625 45.015625 23.390625 
Q 45.015625 31 40.078125 35.4375 
Q 35.15625 39.890625 26.703125 39.890625 
Q 22.75 39.890625 18.8125 39.015625 
Q 14.890625 38.140625 10.796875 36.28125 
z
" id="DejaVuSans-53"/>
      </defs>
      <g transform="translate(35.421875 382.99285)scale(0.18 -0.18)">
       <use xlink:href="#DejaVuSans-48"/>
       <use x="63.623047" xlink:href="#DejaVuSans-46"/>
       <use x="95.410156" xlink:href="#DejaVuSans-50"/>
       <use x="159.033203" xlink:href="#DejaVuSans-53"/>
      </g>
     </g>
    </g>
    <g id="ytick_3">
     <g id="line2d_17">
      <g>
       <use style="stroke:#000000;" x="81" xlink:href="#m30e714c38d" y="330.662113"/>
      </g>
     </g>
     <g id="text_8">
      <!-- 0.50 -->
      <g transform="translate(35.421875 337.500707)scale(0.18 -0.18)">
       <use xlink:href="#DejaVuSans-48"/>
       <use x="63.623047" xlink:href="#DejaVuSans-46"/>
       <use x="95.410156" xlink:href="#DejaVuSans-53"/>
       <use x="159.033203" xlink:href="#DejaVuSans-48"/>
      </g>
     </g>
    </g>
    <g id="ytick_4">
     <g id="line2d_18">
      <g>
       <use style="stroke:#000000;" x="81" xlink:href="#m30e714c38d" y="285.16997"/>
      </g>
     </g>
     <g id="text_9">
      <!-- 0.75 -->
      <defs>
       <path d="M 8.203125 72.90625 
L 55.078125 72.90625 
L 55.078125 68.703125 
L 28.609375 0 
L 18.3125 0 
L 43.21875 64.59375 
L 8.203125 64.59375 
z
" id="DejaVuSans-55"/>
      </defs>
      <g transform="translate(35.421875 292.008563)scale(0.18 -0.18)">
       <use xlink:href="#DejaVuSans-48"/>
       <use x="63.623047" xlink:href="#DejaVuSans-46"/>
       <use x="95.410156" xlink:href="#DejaVuSans-55"/>
       <use x="159.033203" xlink:href="#DejaVuSans-53"/>
      </g>
     </g>
    </g>
    <g id="ytick_5">
     <g id="line2d_19">
      <g>
       <use style="stroke:#000000;" x="81" xlink:href="#m30e714c38d" y="239.677826"/>
      </g>
     </g>
     <g id="text_10">
      <!-- 1.00 -->
      <g transform="translate(35.421875 246.51642)scale(0.18 -0.18)">
       <use xlink:href="#DejaVuSans-49"/>
       <use x="63.623047" xlink:href="#DejaVuSans-46"/>
       <use x="95.410156" xlink:href="#DejaVuSans-48"/>
       <use x="159.033203" xlink:href="#DejaVuSans-48"/>
      </g>
     </g>
    </g>
    <g id="ytick_6">
     <g id="line2d_20">
      <g>
       <use style="stroke:#000000;" x="81" xlink:href="#m30e714c38d" y="194.185683"/>
      </g>
     </g>
     <g id="text_11">
      <!-- 1.25 -->
      <g transform="translate(35.421875 201.024276)scale(0.18 -0.18)">
       <use xlink:href="#DejaVuSans-49"/>
       <use x="63.623047" xlink:href="#DejaVuSans-46"/>
       <use x="95.410156" xlink:href="#DejaVuSans-50"/>
       <use x="159.033203" xlink:href="#DejaVuSans-53"/>
      </g>
     </g>
    </g>
    <g id="ytick_7">
     <g id="line2d_21">
      <g>
       <use style="stroke:#000000;" x="81" xlink:href="#m30e714c38d" y="148.693539"/>
      </g>
     </g>
     <g id="text_12">
      <!-- 1.50 -->
      <g transform="translate(35.421875 155.532133)scale(0.18 -0.18)">
       <use xlink:href="#DejaVuSans-49"/>
       <use x="63.623047" xlink:href="#DejaVuSans-46"/>
       <use x="95.410156" xlink:href="#DejaVuSans-53"/>
       <use x="159.033203" xlink:href="#DejaVuSans-48"/>
      </g>
     </g>
    </g>
    <g id="ytick_8">
     <g id="line2d_22">
      <g>
       <use style="stroke:#000000;" x="81" xlink:href="#m30e714c38d" y="103.201396"/>
      </g>
     </g>
     <g id="text_13">
      <!-- 1.75 -->
      <g transform="translate(35.421875 110.039989)scale(0.18 -0.18)">
       <use xlink:href="#DejaVuSans-49"/>
       <use x="63.623047" xlink:href="#DejaVuSans-46"/>
       <use x="95.410156" xlink:href="#DejaVuSans-55"/>
       <use x="159.033203" xlink:href="#DejaVuSans-53"/>
      </g>
     </g>
    </g>
    <g id="ytick_9">
     <g id="line2d_23">
      <g>
       <use style="stroke:#000000;" x="81" xlink:href="#m30e714c38d" y="57.709252"/>
      </g>
     </g>
     <g id="text_14">
      <!-- 2.00 -->
      <g transform="translate(35.421875 64.547846)scale(0.18 -0.18)">
       <use xlink:href="#DejaVuSans-50"/>
       <use x="63.623047" xlink:href="#DejaVuSans-46"/>
       <use x="95.410156" xlink:href="#DejaVuSans-48"/>
       <use x="159.033203" xlink:href="#DejaVuSans-48"/>
      </g>
     </g>
    </g>
    <g id="text_15">
     <!-- $(RFU/OD) \times 10^3$ -->
     <defs>
      <path d="M 31 75.875 
Q 24.46875 64.65625 21.28125 53.65625 
Q 18.109375 42.671875 18.109375 31.390625 
Q 18.109375 20.125 21.3125 9.0625 
Q 24.515625 -2 31 -13.1875 
L 23.1875 -13.1875 
Q 15.875 -1.703125 12.234375 9.375 
Q 8.59375 20.453125 8.59375 31.390625 
Q 8.59375 42.28125 12.203125 53.3125 
Q 15.828125 64.359375 23.1875 75.875 
z
" id="DejaVuSans-40"/>
      <path d="M 25.203125 64.796875 
L 20.21875 38.921875 
L 32.90625 38.921875 
Q 40.375 38.921875 44.984375 43.046875 
Q 49.609375 47.171875 49.609375 53.8125 
Q 49.609375 59.125 46.5 61.953125 
Q 43.40625 64.796875 37.59375 64.796875 
z
M 43.3125 35.015625 
Q 46.4375 34.28125 48.515625 31.390625 
Q 50.59375 28.515625 53.328125 19.921875 
L 59.515625 0 
L 49.125 0 
L 43.40625 18.703125 
Q 41.21875 25.921875 38.328125 28.359375 
Q 35.453125 30.8125 29.5 30.8125 
L 18.609375 30.8125 
L 12.59375 0 
L 2.6875 0 
L 16.890625 72.90625 
L 39.109375 72.90625 
Q 49.21875 72.90625 54.609375 68.328125 
Q 60.015625 63.765625 60.015625 55.171875 
Q 60.015625 47.5625 55.421875 41.984375 
Q 50.828125 36.421875 43.3125 35.015625 
z
" id="DejaVuSans-Oblique-82"/>
      <path d="M 16.890625 72.90625 
L 58.6875 72.90625 
L 57.078125 64.59375 
L 25.09375 64.59375 
L 20.90625 43.109375 
L 49.8125 43.109375 
L 48.1875 34.8125 
L 19.28125 34.8125 
L 12.5 0 
L 2.6875 0 
z
" id="DejaVuSans-Oblique-70"/>
      <path d="M 15.484375 72.90625 
L 25.390625 72.90625 
L 16.796875 28.609375 
Q 16.265625 25.640625 16.046875 23.703125 
Q 15.828125 21.78125 15.828125 20.3125 
Q 15.828125 13.578125 19.578125 10.078125 
Q 23.34375 6.59375 30.609375 6.59375 
Q 40.046875 6.59375 45.28125 11.765625 
Q 50.53125 16.9375 52.78125 28.609375 
L 61.375 72.90625 
L 71.296875 72.90625 
L 62.5 27.390625 
Q 59.625 12.640625 51.5625 5.609375 
Q 43.5 -1.421875 29.5 -1.421875 
Q 18.5625 -1.421875 12.1875 4.078125 
Q 5.8125 9.578125 5.8125 19 
Q 5.8125 20.703125 6.046875 22.828125 
Q 6.296875 24.953125 6.78125 27.390625 
z
" id="DejaVuSans-Oblique-85"/>
      <path d="M 25.390625 72.90625 
L 33.6875 72.90625 
L 8.296875 -9.28125 
L 0 -9.28125 
z
" id="DejaVuSans-47"/>
      <path d="M 45.609375 66.21875 
Q 37.5 66.21875 31.296875 62.28125 
Q 25.09375 58.34375 20.515625 50.296875 
Q 17.578125 45.171875 16.03125 39.40625 
Q 14.5 33.640625 14.5 27.78125 
Q 14.5 17.625 19.359375 12.109375 
Q 24.21875 6.59375 33.109375 6.59375 
Q 41.109375 6.59375 47.375 10.5625 
Q 53.65625 14.546875 58.109375 22.40625 
Q 61.078125 27.6875 62.640625 33.46875 
Q 64.203125 39.265625 64.203125 45.015625 
Q 64.203125 55.125 59.3125 60.671875 
Q 54.4375 66.21875 45.609375 66.21875 
z
M 32.8125 -1.421875 
Q 19.390625 -1.421875 11.6875 6.53125 
Q 4 14.5 4 28.328125 
Q 4 36.234375 7 44.484375 
Q 10.015625 52.734375 15.28125 59.1875 
Q 21.484375 66.75 29.09375 70.484375 
Q 36.71875 74.21875 45.90625 74.21875 
Q 59.28125 74.21875 66.984375 66.328125 
Q 74.703125 58.453125 74.703125 44.828125 
Q 74.703125 36.421875 71.765625 28.3125 
Q 68.84375 20.21875 63.375 13.625 
Q 57.125 6 49.578125 2.28125 
Q 42.046875 -1.421875 32.8125 -1.421875 
z
" id="DejaVuSans-Oblique-79"/>
      <path d="M 16.890625 72.90625 
L 38.09375 72.90625 
Q 54.984375 72.90625 63.59375 65.75 
Q 72.21875 58.59375 72.21875 44.484375 
Q 72.21875 35.15625 68.9375 26.53125 
Q 65.671875 17.921875 59.90625 12.015625 
Q 54.109375 5.953125 45.171875 2.96875 
Q 36.234375 0 24.03125 0 
L 2.6875 0 
z
M 25.203125 64.796875 
L 14.203125 8.109375 
L 27.09375 8.109375 
Q 43.65625 8.109375 52.734375 17.625 
Q 61.8125 27.15625 61.8125 44.484375 
Q 61.8125 54.984375 55.953125 59.890625 
Q 50.09375 64.796875 37.59375 64.796875 
z
" id="DejaVuSans-Oblique-68"/>
      <path d="M 8.015625 75.875 
L 15.828125 75.875 
Q 23.140625 64.359375 26.78125 53.3125 
Q 30.421875 42.28125 30.421875 31.390625 
Q 30.421875 20.453125 26.78125 9.375 
Q 23.140625 -1.703125 15.828125 -13.1875 
L 8.015625 -13.1875 
Q 14.5 -2 17.703125 9.0625 
Q 20.90625 20.125 20.90625 31.390625 
Q 20.90625 42.671875 17.703125 53.65625 
Q 14.5 64.65625 8.015625 75.875 
z
" id="DejaVuSans-41"/>
      <path d="M 70.125 53.71875 
L 47.796875 31.296875 
L 70.125 8.984375 
L 64.3125 3.078125 
L 41.890625 25.484375 
L 19.484375 3.078125 
L 13.71875 8.984375 
L 35.984375 31.296875 
L 13.71875 53.71875 
L 19.484375 59.625 
L 41.890625 37.203125 
L 64.3125 59.625 
z
" id="DejaVuSans-215"/>
     </defs>
     <g transform="translate(27.2625 315.8488)rotate(-90)scale(0.2 -0.2)">
      <use transform="translate(0 0.765625)" xlink:href="#DejaVuSans-40"/>
      <use transform="translate(39.013672 0.765625)" xlink:href="#DejaVuSans-Oblique-82"/>
      <use transform="translate(108.496094 0.765625)" xlink:href="#DejaVuSans-Oblique-70"/>
      <use transform="translate(166.015625 0.765625)" xlink:href="#DejaVuSans-Oblique-85"/>
      <use transform="translate(239.208984 0.765625)" xlink:href="#DejaVuSans-47"/>
      <use transform="translate(272.900391 0.765625)" xlink:href="#DejaVuSans-Oblique-79"/>
      <use transform="translate(351.611328 0.765625)" xlink:href="#DejaVuSans-Oblique-68"/>
      <use transform="translate(428.613281 0.765625)" xlink:href="#DejaVuSans-41"/>
      <use transform="translate(487.109375 0.765625)" xlink:href="#DejaVuSans-215"/>
      <use transform="translate(590.380859 0.765625)" xlink:href="#DejaVuSans-49"/>
      <use transform="translate(654.003906 0.765625)" xlink:href="#DejaVuSans-48"/>
      <use transform="translate(718.583984 39.046875)scale(0.7)" xlink:href="#DejaVuSans-51"/>
     </g>
    </g>
   </g>
   <g id="patch_23">
    <path d="M 81 421.6464 
L 81 56.8512 
" style="fill:none;stroke:#000000;stroke-linecap:square;stroke-linejoin:miter;stroke-width:0.8;"/>
   </g>
   <g id="patch_24">
    <path d="M 81 421.6464 
L 583.2 421.6464 
" style="fill:none;stroke:#000000;stroke-linecap:square;stroke-linejoin:miter;stroke-width:0.8;"/>
   </g>
   <g id="text_16">
    <!-- Selectivity of NOS4 variants -->
    <defs>
     <path d="M 9.421875 75.984375 
L 18.40625 75.984375 
L 18.40625 0 
L 9.421875 0 
z
" id="DejaVuSans-108"/>
     <path d="M 48.78125 52.59375 
L 48.78125 44.1875 
Q 44.96875 46.296875 41.140625 47.34375 
Q 37.3125 48.390625 33.40625 48.390625 
Q 24.65625 48.390625 19.8125 42.84375 
Q 14.984375 37.3125 14.984375 27.296875 
Q 14.984375 17.28125 19.8125 11.734375 
Q 24.65625 6.203125 33.40625 6.203125 
Q 37.3125 6.203125 41.140625 7.25 
Q 44.96875 8.296875 48.78125 10.40625 
L 48.78125 2.09375 
Q 45.015625 0.34375 40.984375 -0.53125 
Q 36.96875 -1.421875 32.421875 -1.421875 
Q 20.0625 -1.421875 12.78125 6.34375 
Q 5.515625 14.109375 5.515625 27.296875 
Q 5.515625 40.671875 12.859375 48.328125 
Q 20.21875 56 33.015625 56 
Q 37.15625 56 41.109375 55.140625 
Q 45.0625 54.296875 48.78125 52.59375 
z
" id="DejaVuSans-99"/>
     <path d="M 32.171875 -5.078125 
Q 28.375 -14.84375 24.75 -17.8125 
Q 21.140625 -20.796875 15.09375 -20.796875 
L 7.90625 -20.796875 
L 7.90625 -13.28125 
L 13.1875 -13.28125 
Q 16.890625 -13.28125 18.9375 -11.515625 
Q 21 -9.765625 23.484375 -3.21875 
L 25.09375 0.875 
L 2.984375 54.6875 
L 12.5 54.6875 
L 29.59375 11.921875 
L 46.6875 54.6875 
L 56.203125 54.6875 
z
" id="DejaVuSans-121"/>
     <path d="M 37.109375 75.984375 
L 37.109375 68.5 
L 28.515625 68.5 
Q 23.6875 68.5 21.796875 66.546875 
Q 19.921875 64.59375 19.921875 59.515625 
L 19.921875 54.6875 
L 34.71875 54.6875 
L 34.71875 47.703125 
L 19.921875 47.703125 
L 19.921875 0 
L 10.890625 0 
L 10.890625 47.703125 
L 2.296875 47.703125 
L 2.296875 54.6875 
L 10.890625 54.6875 
L 10.890625 58.5 
Q 10.890625 67.625 15.140625 71.796875 
Q 19.390625 75.984375 28.609375 75.984375 
z
" id="DejaVuSans-102"/>
    </defs>
    <g transform="translate(157.182031 50.8512)scale(0.25 -0.25)">
     <use xlink:href="#DejaVuSans-83"/>
     <use x="63.476562" xlink:href="#DejaVuSans-101"/>
     <use x="125" xlink:href="#DejaVuSans-108"/>
     <use x="152.783203" xlink:href="#DejaVuSans-101"/>
     <use x="214.306641" xlink:href="#DejaVuSans-99"/>
     <use x="269.287109" xlink:href="#DejaVuSans-116"/>
     <use x="308.496094" xlink:href="#DejaVuSans-105"/>
     <use x="336.279297" xlink:href="#DejaVuSans-118"/>
     <use x="395.458984" xlink:href="#DejaVuSans-105"/>
     <use x="423.242188" xlink:href="#DejaVuSans-116"/>
     <use x="462.451172" xlink:href="#DejaVuSans-121"/>
     <use x="521.630859" xlink:href="#DejaVuSans-32"/>
     <use x="553.417969" xlink:href="#DejaVuSans-111"/>
     <use x="614.599609" xlink:href="#DejaVuSans-102"/>
     <use x="649.804688" xlink:href="#DejaVuSans-32"/>
     <use x="681.591797" xlink:href="#DejaVuSans-78"/>
     <use x="756.396484" xlink:href="#DejaVuSans-79"/>
     <use x="835.107422" xlink:href="#DejaVuSans-83"/>
     <use x="898.583984" xlink:href="#DejaVuSans-52"/>
     <use x="962.207031" xlink:href="#DejaVuSans-32"/>
     <use x="993.994141" xlink:href="#DejaVuSans-118"/>
     <use x="1053.173828" xlink:href="#DejaVuSans-97"/>
     <use x="1114.453125" xlink:href="#DejaVuSans-114"/>
     <use x="1155.566406" xlink:href="#DejaVuSans-105"/>
     <use x="1183.349609" xlink:href="#DejaVuSans-97"/>
     <use x="1244.628906" xlink:href="#DejaVuSans-110"/>
     <use x="1308.007812" xlink:href="#DejaVuSans-116"/>
     <use x="1347.216797" xlink:href="#DejaVuSans-115"/>
    </g>
   </g>
   <g id="legend_1">
    <g id="patch_25">
     <path d="M 481.3125 176.886356 
L 572.7 176.886356 
Q 575.7 176.886356 575.7 173.886356 
L 575.7 67.3512 
Q 575.7 64.3512 572.7 64.3512 
L 481.3125 64.3512 
Q 478.3125 64.3512 478.3125 67.3512 
L 478.3125 173.886356 
Q 478.3125 176.886356 481.3125 176.886356 
z
" style="fill:#ffffff;opacity:0.8;stroke:#cccccc;stroke-linejoin:miter;"/>
    </g>
    <g id="patch_26">
     <path d="M 484.3125 81.455887 
L 514.3125 81.455887 
L 514.3125 70.955887 
L 484.3125 70.955887 
z
" style="stroke:#000000;stroke-linejoin:miter;"/>
    </g>
    <g id="text_17">
     <!-- DMSO -->
     <defs>
      <path d="M 14.265625 8.296875 
L 31.734375 8.296875 
Q 49.421875 8.296875 53.21875 26.765625 
Q 54.109375 31.25 54.109375 37.015625 
Q 54.109375 61.921875 37.015625 65.234375 
Q 34.46875 65.71875 31.734375 65.71875 
L 14.265625 65.71875 
z
M 4.890625 0 
L 4.890625 74.03125 
L 33.40625 74.03125 
Q 49.90625 74.03125 57.90625 60.640625 
Q 63.578125 51.265625 63.578125 37.109375 
Q 63.578125 15.921875 51.765625 6.15625 
Q 44.34375 0 33.40625 0 
z
" id="Gargi-68"/>
      <path d="M 44.828125 0 
L 34.859375 0 
L 13.875 62.015625 
L 13.875 0 
L 4.890625 0 
L 4.890625 74.03125 
L 17.96875 74.03125 
L 39.9375 9.578125 
L 61.421875 74.03125 
L 74.515625 74.03125 
L 74.515625 0 
L 65.625 0 
L 65.625 62.015625 
z
" id="Gargi-77"/>
      <path d="M 58.59375 53.90625 
L 49.609375 53.90625 
Q 49.609375 64.84375 38.484375 67.78125 
Q 35.0625 68.65625 31.15625 68.65625 
Q 20.515625 68.5625 16.40625 62.40625 
Q 14.65625 59.765625 14.65625 56.34375 
Q 14.65625 50.59375 20.125 47.953125 
Q 22.5625 46.78125 26.765625 45.515625 
L 45.40625 40.71875 
Q 57.515625 37.40625 60.453125 27.734375 
Q 61.140625 25.484375 61.140625 22.46875 
Q 61.140625 14.15625 55.28125 7.8125 
L 53.03125 5.859375 
Q 45.609375 0.296875 32.125 0.296875 
Q 15.234375 0.296875 7.328125 10.640625 
Q 2.9375 16.40625 2.9375 25.6875 
L 11.8125 25.6875 
L 12.203125 21.875 
Q 12.890625 17.78125 15.71875 14.546875 
Q 21.09375 8.40625 32.8125 8.40625 
Q 41.796875 8.40625 46.390625 11.625 
Q 50.875 14.75 51.5625 20.21875 
Q 51.65625 21 51.65625 21.578125 
Q 51.65625 28.90625 40.53125 32.625 
Q 39.359375 33.015625 38.09375 33.296875 
L 19.734375 38.09375 
Q 5.171875 41.890625 5.171875 55.078125 
Q 5.171875 67.484375 15.71875 72.953125 
Q 22.265625 76.375 31.453125 76.375 
Q 49.421875 76.375 55.765625 65.234375 
Q 58.59375 60.359375 58.59375 53.90625 
z
" id="Gargi-83"/>
      <path d="M 38.578125 68.171875 
Q 25.203125 68.171875 17.96875 58.015625 
Q 12.3125 50.09375 12.3125 38.28125 
Q 12.3125 22.65625 21.96875 14.359375 
Q 28.90625 8.40625 38.375 8.40625 
Q 38.484375 8.40625 38.671875 8.40625 
Q 51.65625 8.40625 59.078125 18.359375 
Q 64.9375 26.265625 64.9375 37.890625 
Q 64.9375 54.390625 54.984375 62.59375 
Q 48.25 68.171875 38.578125 68.171875 
z
M 38.578125 76.375 
Q 56.25 76.375 66.015625 64.15625 
Q 74.421875 53.71875 74.421875 37.703125 
Q 74.421875 22.953125 66.015625 12.5 
Q 63.96875 9.859375 61.625 7.90625 
Q 52.34375 0.296875 38.671875 0.296875 
Q 21.78125 0.296875 11.71875 12.015625 
Q 2.9375 22.265625 2.9375 38.28125 
Q 2.9375 56.734375 14.15625 67.28125 
Q 23.828125 76.375 38.578125 76.375 
z
" id="Gargi-79"/>
     </defs>
     <g transform="translate(526.3125 81.455887)scale(0.15 -0.15)">
      <use xlink:href="#Gargi-68"/>
      <use x="68.457031" xlink:href="#Gargi-77"/>
      <use x="147.851562" xlink:href="#Gargi-83"/>
      <use x="211.914062" xlink:href="#Gargi-79"/>
     </g>
    </g>
    <g id="patch_27">
     <path d="M 484.3125 103.062919 
L 514.3125 103.062919 
L 514.3125 92.562919 
L 484.3125 92.562919 
z
" style="fill:#ca42ff;stroke:#000000;stroke-linejoin:miter;"/>
    </g>
    <g id="text_18">
     <!-- GLAU -->
     <defs>
      <path d="M 70.40625 40.828125 
L 70.40625 2.25 
L 64.453125 2.25 
L 62.109375 11.921875 
Q 51.5625 0.296875 36.8125 0.296875 
Q 21.390625 0.296875 11.71875 11.71875 
Q 2.9375 22.078125 2.9375 38.09375 
Q 2.9375 55.46875 13.28125 66.609375 
Q 14.75 68.171875 16.3125 69.4375 
Q 25 76.375 38.484375 76.375 
Q 56.734375 76.375 64.84375 64.65625 
Q 68.171875 59.859375 69.4375 53.125 
L 59.765625 53.125 
Q 57.625 62.796875 48.046875 66.5 
Q 43.65625 68.171875 38.375 68.171875 
Q 24.90625 68.0625 17.78125 57.8125 
Q 12.3125 50.09375 12.3125 38.578125 
Q 12.3125 26.5625 18.5625 17.671875 
Q 19.140625 16.796875 20.21875 15.828125 
Q 28.21875 8.40625 38.578125 8.40625 
Q 38.765625 8.40625 38.875 8.40625 
Q 50.203125 8.40625 57.125 16.5 
Q 62.109375 22.359375 62.109375 30.765625 
L 62.109375 32.71875 
L 39.546875 32.71875 
L 39.546875 40.828125 
z
" id="Gargi-71"/>
      <path d="M 14.359375 74.03125 
L 14.359375 8.296875 
L 50.875 8.296875 
L 50.875 0 
L 4.890625 0 
L 4.890625 74.03125 
z
" id="Gargi-76"/>
      <path d="M 48.640625 30.171875 
L 37.203125 63.875 
L 25.09375 30.171875 
z
M 51.265625 22.265625 
L 22.75 22.265625 
L 14.9375 0 
L 4.890625 0 
L 31.25 74.03125 
L 43.453125 74.03125 
L 69.4375 0 
L 58.890625 0 
z
" id="Gargi-65"/>
      <path d="M 52.34375 75 
L 61.8125 75 
L 61.8125 24.125 
Q 61.8125 11.140625 51.265625 4.6875 
Q 43.953125 0.203125 33.296875 0.203125 
Q 16.5 0.203125 9.078125 10.25 
Q 4.890625 15.921875 4.890625 24.125 
L 4.890625 75 
L 14.359375 75 
L 14.359375 24.125 
Q 14.359375 16.3125 19.734375 12.109375 
Q 25.09375 8.296875 33.296875 8.296875 
Q 45.90625 8.296875 50.390625 16.3125 
Q 52.34375 19.828125 52.34375 24.125 
z
" id="Gargi-85"/>
     </defs>
     <g transform="translate(526.3125 103.062919)scale(0.15 -0.15)">
      <use xlink:href="#Gargi-71"/>
      <use x="75.292969" xlink:href="#Gargi-76"/>
      <use x="131.054688" xlink:href="#Gargi-65"/>
      <use x="205.371094" xlink:href="#Gargi-85"/>
     </g>
    </g>
    <g id="patch_28">
     <path d="M 484.3125 124.66995 
L 514.3125 124.66995 
L 514.3125 114.16995 
L 484.3125 114.16995 
z
" style="fill:#ff1717;stroke:#000000;stroke-linejoin:miter;"/>
    </g>
    <g id="text_19">
     <!-- PAP -->
     <defs>
      <path d="M 14.265625 39.75 
L 33.984375 39.75 
Q 44.34375 39.75 47.359375 47.265625 
Q 48.4375 49.703125 48.4375 52.734375 
Q 48.4375 61.8125 40.4375 64.65625 
Q 37.59375 65.71875 33.984375 65.71875 
L 14.265625 65.71875 
z
M 14.265625 31.34375 
L 14.265625 0 
L 4.890625 0 
L 4.890625 74.03125 
L 35.453125 74.03125 
Q 51.765625 74.03125 56.546875 62.015625 
Q 58.296875 57.90625 58.296875 52.34375 
Q 58.296875 42.484375 51.859375 36.625 
Q 46 31.34375 37.59375 31.34375 
z
" id="Gargi-80"/>
     </defs>
     <g transform="translate(526.3125 124.66995)scale(0.15 -0.15)">
      <use xlink:href="#Gargi-80"/>
      <use x="63.183594" xlink:href="#Gargi-65"/>
      <use x="137.5" xlink:href="#Gargi-80"/>
     </g>
    </g>
    <g id="patch_29">
     <path d="M 484.3125 146.276981 
L 514.3125 146.276981 
L 514.3125 135.776981 
L 484.3125 135.776981 
z
" style="fill:#3bff5b;stroke:#000000;stroke-linejoin:miter;"/>
    </g>
    <g id="text_20">
     <!-- ROTU -->
     <defs>
      <path d="M 14.265625 40.234375 
L 37.109375 40.234375 
Q 49.421875 40.234375 51.265625 48.921875 
Q 51.65625 50.6875 51.65625 52.9375 
Q 51.65625 59.578125 47.859375 62.890625 
Q 44.53125 65.71875 37.109375 65.71875 
L 14.265625 65.71875 
z
M 14.265625 31.9375 
L 14.265625 0 
L 4.890625 0 
L 4.890625 74.03125 
L 38.96875 74.03125 
Q 56.25 74.03125 60.453125 61.8125 
Q 61.53125 58.5 61.53125 54.203125 
Q 61.53125 44.234375 54.203125 39.0625 
Q 52.25 37.796875 49.8125 36.53125 
Q 56.15625 33.796875 58.109375 29.78125 
Q 59.859375 25.984375 59.859375 17.28125 
Q 59.859375 7.515625 61.8125 4.78125 
Q 62.796875 3.421875 64.359375 2.34375 
L 64.359375 0 
L 52.9375 0 
Q 50.875 4.890625 50.875 12.109375 
L 50.875 18.65625 
Q 50.875 29.78125 42.78125 31.453125 
Q 40.921875 31.9375 38.671875 31.9375 
z
" id="Gargi-82"/>
      <path d="M 38.671875 65.71875 
L 38.671875 0 
L 29.203125 0 
L 29.203125 65.71875 
L 4.890625 65.71875 
L 4.890625 74.03125 
L 62.984375 74.03125 
L 62.984375 65.71875 
z
" id="Gargi-84"/>
     </defs>
     <g transform="translate(526.3125 146.276981)scale(0.15 -0.15)">
      <use xlink:href="#Gargi-82"/>
      <use x="69.238281" xlink:href="#Gargi-79"/>
      <use x="146.582031" xlink:href="#Gargi-84"/>
      <use x="214.453125" xlink:href="#Gargi-85"/>
     </g>
    </g>
    <g id="patch_30">
     <path d="M 484.3125 167.884012 
L 514.3125 167.884012 
L 514.3125 157.384012 
L 484.3125 157.384012 
z
" style="fill:#ffc72e;stroke:#000000;stroke-linejoin:miter;"/>
    </g>
    <g id="text_21">
     <!-- THP -->
     <defs>
      <path d="M 52.4375 33.6875 
L 14.453125 33.6875 
L 14.453125 0 
L 4.890625 0 
L 4.890625 74.03125 
L 14.359375 74.03125 
L 14.359375 42.09375 
L 52.4375 42.09375 
L 52.4375 74.03125 
L 61.921875 74.03125 
L 61.921875 0 
L 52.4375 0 
z
" id="Gargi-72"/>
     </defs>
     <g transform="translate(526.3125 167.884012)scale(0.15 -0.15)">
      <use xlink:href="#Gargi-84"/>
      <use x="67.871094" xlink:href="#Gargi-72"/>
      <use x="134.667969" xlink:href="#Gargi-80"/>
     </g>
    </g>
   </g>
  </g>
 </g>
 <defs>
  <clipPath id="p7db2f93c05">
   <rect height="364.7952" width="502.2" x="81" y="56.8512"/>
  </clipPath>
 </defs>
</svg>
