<?xml version="1.0" encoding="utf-8" standalone="no"?>
<!DOCTYPE svg PUBLIC "-//W3C//DTD SVG 1.1//EN"
  "http://www.w3.org/Graphics/SVG/1.1/DTD/svg11.dtd">
<!-- Created with matplotlib (https://matplotlib.org/) -->
<svg height="473.76pt" version="1.1" viewBox="0 0 864 473.76" width="864pt" xmlns="http://www.w3.org/2000/svg" xmlns:xlink="http://www.w3.org/1999/xlink">
 <defs>
  <style type="text/css">
*{stroke-linecap:butt;stroke-linejoin:round;}
  </style>
 </defs>
 <g id="figure_1">
  <g id="patch_1">
   <path d="M 0 473.76 
L 864 473.76 
L 864 0 
L 0 0 
z
" style="fill:#ffffff;"/>
  </g>
  <g id="axes_1">
   <g id="patch_2">
    <path d="M 108 421.6464 
L 777.6 421.6464 
L 777.6 56.8512 
L 108 56.8512 
z
" style="fill:#ffffff;"/>
   </g>
   <g id="patch_3">
    <path clip-path="url(#p4ce8857149)" d="M 138.436364 421.6464 
L 160.981818 421.6464 
L 160.981818 417.460692 
L 138.436364 417.460692 
z
" style="fill:#0872fc;stroke:#000000;stroke-linejoin:miter;stroke-width:3;"/>
   </g>
   <g id="patch_4">
    <path clip-path="url(#p4ce8857149)" d="M 228.618182 421.6464 
L 251.163636 421.6464 
L 251.163636 417.287101 
L 228.618182 417.287101 
z
" style="fill:#0872fc;stroke:#000000;stroke-linejoin:miter;stroke-width:3;"/>
   </g>
   <g id="patch_5">
    <path clip-path="url(#p4ce8857149)" d="M 318.8 421.6464 
L 341.345455 421.6464 
L 341.345455 416.621643 
L 318.8 416.621643 
z
" style="fill:#0872fc;stroke:#000000;stroke-linejoin:miter;stroke-width:3;"/>
   </g>
   <g id="patch_6">
    <path clip-path="url(#p4ce8857149)" d="M 408.981818 421.6464 
L 431.527273 421.6464 
L 431.527273 415.882784 
L 408.981818 415.882784 
z
" style="fill:#0872fc;stroke:#000000;stroke-linejoin:miter;stroke-width:3;"/>
   </g>
   <g id="patch_7">
    <path clip-path="url(#p4ce8857149)" d="M 499.163636 421.6464 
L 521.709091 421.6464 
L 521.709091 415.592193 
L 499.163636 415.592193 
z
" style="fill:#0872fc;stroke:#000000;stroke-linejoin:miter;stroke-width:3;"/>
   </g>
   <g id="patch_8">
    <path clip-path="url(#p4ce8857149)" d="M 589.345455 421.6464 
L 611.890909 421.6464 
L 611.890909 415.272017 
L 589.345455 415.272017 
z
" style="fill:#0872fc;stroke:#000000;stroke-linejoin:miter;stroke-width:3;"/>
   </g>
   <g id="patch_9">
    <path clip-path="url(#p4ce8857149)" d="M 679.527273 421.6464 
L 702.072727 421.6464 
L 702.072727 416.026169 
L 679.527273 416.026169 
z
" style="fill:#0872fc;stroke:#000000;stroke-linejoin:miter;stroke-width:3;"/>
   </g>
   <g id="patch_10">
    <path clip-path="url(#p4ce8857149)" d="M 160.981818 421.6464 
L 183.527273 421.6464 
L 183.527273 417.299975 
L 160.981818 417.299975 
z
" style="fill:#ff9008;stroke:#000000;stroke-linejoin:miter;stroke-width:3;"/>
   </g>
   <g id="patch_11">
    <path clip-path="url(#p4ce8857149)" d="M 251.163636 421.6464 
L 273.709091 421.6464 
L 273.709091 415.832238 
L 251.163636 415.832238 
z
" style="fill:#ff9008;stroke:#000000;stroke-linejoin:miter;stroke-width:3;"/>
   </g>
   <g id="patch_12">
    <path clip-path="url(#p4ce8857149)" d="M 341.345455 421.6464 
L 363.890909 421.6464 
L 363.890909 411.887391 
L 341.345455 411.887391 
z
" style="fill:#ff9008;stroke:#000000;stroke-linejoin:miter;stroke-width:3;"/>
   </g>
   <g id="patch_13">
    <path clip-path="url(#p4ce8857149)" d="M 431.527273 421.6464 
L 454.072727 421.6464 
L 454.072727 386.087706 
L 431.527273 386.087706 
z
" style="fill:#ff9008;stroke:#000000;stroke-linejoin:miter;stroke-width:3;"/>
   </g>
   <g id="patch_14">
    <path clip-path="url(#p4ce8857149)" d="M 521.709091 421.6464 
L 544.254545 421.6464 
L 544.254545 268.34964 
L 521.709091 268.34964 
z
" style="fill:#ff9008;stroke:#000000;stroke-linejoin:miter;stroke-width:3;"/>
   </g>
   <g id="patch_15">
    <path clip-path="url(#p4ce8857149)" d="M 611.890909 421.6464 
L 634.436364 421.6464 
L 634.436364 170.495798 
L 611.890909 170.495798 
z
" style="fill:#ff9008;stroke:#000000;stroke-linejoin:miter;stroke-width:3;"/>
   </g>
   <g id="patch_16">
    <path clip-path="url(#p4ce8857149)" d="M 702.072727 421.6464 
L 724.618182 421.6464 
L 724.618182 149.678626 
L 702.072727 149.678626 
z
" style="fill:#ff9008;stroke:#000000;stroke-linejoin:miter;stroke-width:3;"/>
   </g>
   <g id="patch_17">
    <path clip-path="url(#p4ce8857149)" d="M 183.527273 421.6464 
L 206.072727 421.6464 
L 206.072727 417.085007 
L 183.527273 417.085007 
z
" style="fill:#fc0808;stroke:#000000;stroke-linejoin:miter;stroke-width:3;"/>
   </g>
   <g id="patch_18">
    <path clip-path="url(#p4ce8857149)" d="M 273.709091 421.6464 
L 296.254545 421.6464 
L 296.254545 364.048888 
L 273.709091 364.048888 
z
" style="fill:#fc0808;stroke:#000000;stroke-linejoin:miter;stroke-width:3;"/>
   </g>
   <g id="patch_19">
    <path clip-path="url(#p4ce8857149)" d="M 363.890909 421.6464 
L 386.436364 421.6464 
L 386.436364 321.279607 
L 363.890909 321.279607 
z
" style="fill:#fc0808;stroke:#000000;stroke-linejoin:miter;stroke-width:3;"/>
   </g>
   <g id="patch_20">
    <path clip-path="url(#p4ce8857149)" d="M 454.072727 421.6464 
L 476.618182 421.6464 
L 476.618182 303.340982 
L 454.072727 303.340982 
z
" style="fill:#fc0808;stroke:#000000;stroke-linejoin:miter;stroke-width:3;"/>
   </g>
   <g id="patch_21">
    <path clip-path="url(#p4ce8857149)" d="M 544.254545 421.6464 
L 566.8 421.6464 
L 566.8 193.86045 
L 544.254545 193.86045 
z
" style="fill:#fc0808;stroke:#000000;stroke-linejoin:miter;stroke-width:3;"/>
   </g>
   <g id="patch_22">
    <path clip-path="url(#p4ce8857149)" d="M 634.436364 421.6464 
L 656.981818 421.6464 
L 656.981818 109.752483 
L 634.436364 109.752483 
z
" style="fill:#fc0808;stroke:#000000;stroke-linejoin:miter;stroke-width:3;"/>
   </g>
   <g id="patch_23">
    <path clip-path="url(#p4ce8857149)" d="M 724.618182 421.6464 
L 747.163636 421.6464 
L 747.163636 76.358676 
L 724.618182 76.358676 
z
" style="fill:#fc0808;stroke:#000000;stroke-linejoin:miter;stroke-width:3;"/>
   </g>
   <g id="LineCollection_1">
    <path clip-path="url(#p4ce8857149)" d="M 149.709091 417.504732 
L 149.709091 417.416651 
" style="fill:none;stroke:#000000;stroke-width:2;"/>
    <path clip-path="url(#p4ce8857149)" d="M 239.890909 417.322456 
L 239.890909 417.251746 
" style="fill:none;stroke:#000000;stroke-width:2;"/>
    <path clip-path="url(#p4ce8857149)" d="M 330.072727 416.682227 
L 330.072727 416.56106 
" style="fill:none;stroke:#000000;stroke-width:2;"/>
    <path clip-path="url(#p4ce8857149)" d="M 420.254545 415.887916 
L 420.254545 415.877653 
" style="fill:none;stroke:#000000;stroke-width:2;"/>
    <path clip-path="url(#p4ce8857149)" d="M 510.436364 415.653265 
L 510.436364 415.531121 
" style="fill:none;stroke:#000000;stroke-width:2;"/>
    <path clip-path="url(#p4ce8857149)" d="M 600.618182 415.381485 
L 600.618182 415.162549 
" style="fill:none;stroke:#000000;stroke-width:2;"/>
    <path clip-path="url(#p4ce8857149)" d="M 690.8 416.163527 
L 690.8 415.888811 
" style="fill:none;stroke:#000000;stroke-width:2;"/>
   </g>
   <g id="LineCollection_2">
    <path clip-path="url(#p4ce8857149)" d="M 172.254545 417.355811 
L 172.254545 417.244139 
" style="fill:none;stroke:#000000;stroke-width:2;"/>
    <path clip-path="url(#p4ce8857149)" d="M 262.436364 415.990359 
L 262.436364 415.674117 
" style="fill:none;stroke:#000000;stroke-width:2;"/>
    <path clip-path="url(#p4ce8857149)" d="M 352.618182 412.293807 
L 352.618182 411.480974 
" style="fill:none;stroke:#000000;stroke-width:2;"/>
    <path clip-path="url(#p4ce8857149)" d="M 442.8 387.386949 
L 442.8 384.788463 
" style="fill:none;stroke:#000000;stroke-width:2;"/>
    <path clip-path="url(#p4ce8857149)" d="M 532.981818 277.098217 
L 532.981818 259.601063 
" style="fill:none;stroke:#000000;stroke-width:2;"/>
    <path clip-path="url(#p4ce8857149)" d="M 623.163636 178.256512 
L 623.163636 162.735085 
" style="fill:none;stroke:#000000;stroke-width:2;"/>
    <path clip-path="url(#p4ce8857149)" d="M 713.345455 154.40999 
L 713.345455 144.947262 
" style="fill:none;stroke:#000000;stroke-width:2;"/>
   </g>
   <g id="LineCollection_3">
    <path clip-path="url(#p4ce8857149)" d="M 194.8 417.256438 
L 194.8 416.913576 
" style="fill:none;stroke:#000000;stroke-width:2;"/>
    <path clip-path="url(#p4ce8857149)" d="M 284.981818 368.799218 
L 284.981818 359.298558 
" style="fill:none;stroke:#000000;stroke-width:2;"/>
    <path clip-path="url(#p4ce8857149)" d="M 375.163636 327.304567 
L 375.163636 315.254648 
" style="fill:none;stroke:#000000;stroke-width:2;"/>
    <path clip-path="url(#p4ce8857149)" d="M 465.345455 309.597344 
L 465.345455 297.08462 
" style="fill:none;stroke:#000000;stroke-width:2;"/>
    <path clip-path="url(#p4ce8857149)" d="M 555.527273 195.99224 
L 555.527273 191.728661 
" style="fill:none;stroke:#000000;stroke-width:2;"/>
    <path clip-path="url(#p4ce8857149)" d="M 645.709091 113.848163 
L 645.709091 105.656803 
" style="fill:none;stroke:#000000;stroke-width:2;"/>
    <path clip-path="url(#p4ce8857149)" d="M 735.890909 78.494952 
L 735.890909 74.2224 
" style="fill:none;stroke:#000000;stroke-width:2;"/>
   </g>
   <g id="line2d_1">
    <defs>
     <path d="M 5 0 
L -5 -0 
" id="m5c6d5f484b" style="stroke:#000000;stroke-width:2;"/>
    </defs>
    <g clip-path="url(#p4ce8857149)">
     <use style="stroke:#000000;stroke-width:2;" x="149.709091" xlink:href="#m5c6d5f484b" y="417.504732"/>
     <use style="stroke:#000000;stroke-width:2;" x="239.890909" xlink:href="#m5c6d5f484b" y="417.322456"/>
     <use style="stroke:#000000;stroke-width:2;" x="330.072727" xlink:href="#m5c6d5f484b" y="416.682227"/>
     <use style="stroke:#000000;stroke-width:2;" x="420.254545" xlink:href="#m5c6d5f484b" y="415.887916"/>
     <use style="stroke:#000000;stroke-width:2;" x="510.436364" xlink:href="#m5c6d5f484b" y="415.653265"/>
     <use style="stroke:#000000;stroke-width:2;" x="600.618182" xlink:href="#m5c6d5f484b" y="415.381485"/>
     <use style="stroke:#000000;stroke-width:2;" x="690.8" xlink:href="#m5c6d5f484b" y="416.163527"/>
    </g>
   </g>
   <g id="line2d_2">
    <g clip-path="url(#p4ce8857149)">
     <use style="stroke:#000000;stroke-width:2;" x="149.709091" xlink:href="#m5c6d5f484b" y="417.416651"/>
     <use style="stroke:#000000;stroke-width:2;" x="239.890909" xlink:href="#m5c6d5f484b" y="417.251746"/>
     <use style="stroke:#000000;stroke-width:2;" x="330.072727" xlink:href="#m5c6d5f484b" y="416.56106"/>
     <use style="stroke:#000000;stroke-width:2;" x="420.254545" xlink:href="#m5c6d5f484b" y="415.877653"/>
     <use style="stroke:#000000;stroke-width:2;" x="510.436364" xlink:href="#m5c6d5f484b" y="415.531121"/>
     <use style="stroke:#000000;stroke-width:2;" x="600.618182" xlink:href="#m5c6d5f484b" y="415.162549"/>
     <use style="stroke:#000000;stroke-width:2;" x="690.8" xlink:href="#m5c6d5f484b" y="415.888811"/>
    </g>
   </g>
   <g id="line2d_3">
    <g clip-path="url(#p4ce8857149)">
     <use style="stroke:#000000;stroke-width:2;" x="172.254545" xlink:href="#m5c6d5f484b" y="417.355811"/>
     <use style="stroke:#000000;stroke-width:2;" x="262.436364" xlink:href="#m5c6d5f484b" y="415.990359"/>
     <use style="stroke:#000000;stroke-width:2;" x="352.618182" xlink:href="#m5c6d5f484b" y="412.293807"/>
     <use style="stroke:#000000;stroke-width:2;" x="442.8" xlink:href="#m5c6d5f484b" y="387.386949"/>
     <use style="stroke:#000000;stroke-width:2;" x="532.981818" xlink:href="#m5c6d5f484b" y="277.098217"/>
     <use style="stroke:#000000;stroke-width:2;" x="623.163636" xlink:href="#m5c6d5f484b" y="178.256512"/>
     <use style="stroke:#000000;stroke-width:2;" x="713.345455" xlink:href="#m5c6d5f484b" y="154.40999"/>
    </g>
   </g>
   <g id="line2d_4">
    <g clip-path="url(#p4ce8857149)">
     <use style="stroke:#000000;stroke-width:2;" x="172.254545" xlink:href="#m5c6d5f484b" y="417.244139"/>
     <use style="stroke:#000000;stroke-width:2;" x="262.436364" xlink:href="#m5c6d5f484b" y="415.674117"/>
     <use style="stroke:#000000;stroke-width:2;" x="352.618182" xlink:href="#m5c6d5f484b" y="411.480974"/>
     <use style="stroke:#000000;stroke-width:2;" x="442.8" xlink:href="#m5c6d5f484b" y="384.788463"/>
     <use style="stroke:#000000;stroke-width:2;" x="532.981818" xlink:href="#m5c6d5f484b" y="259.601063"/>
     <use style="stroke:#000000;stroke-width:2;" x="623.163636" xlink:href="#m5c6d5f484b" y="162.735085"/>
     <use style="stroke:#000000;stroke-width:2;" x="713.345455" xlink:href="#m5c6d5f484b" y="144.947262"/>
    </g>
   </g>
   <g id="line2d_5">
    <g clip-path="url(#p4ce8857149)">
     <use style="stroke:#000000;stroke-width:2;" x="194.8" xlink:href="#m5c6d5f484b" y="417.256438"/>
     <use style="stroke:#000000;stroke-width:2;" x="284.981818" xlink:href="#m5c6d5f484b" y="368.799218"/>
     <use style="stroke:#000000;stroke-width:2;" x="375.163636" xlink:href="#m5c6d5f484b" y="327.304567"/>
     <use style="stroke:#000000;stroke-width:2;" x="465.345455" xlink:href="#m5c6d5f484b" y="309.597344"/>
     <use style="stroke:#000000;stroke-width:2;" x="555.527273" xlink:href="#m5c6d5f484b" y="195.99224"/>
     <use style="stroke:#000000;stroke-width:2;" x="645.709091" xlink:href="#m5c6d5f484b" y="113.848163"/>
     <use style="stroke:#000000;stroke-width:2;" x="735.890909" xlink:href="#m5c6d5f484b" y="78.494952"/>
    </g>
   </g>
   <g id="line2d_6">
    <g clip-path="url(#p4ce8857149)">
     <use style="stroke:#000000;stroke-width:2;" x="194.8" xlink:href="#m5c6d5f484b" y="416.913576"/>
     <use style="stroke:#000000;stroke-width:2;" x="284.981818" xlink:href="#m5c6d5f484b" y="359.298558"/>
     <use style="stroke:#000000;stroke-width:2;" x="375.163636" xlink:href="#m5c6d5f484b" y="315.254648"/>
     <use style="stroke:#000000;stroke-width:2;" x="465.345455" xlink:href="#m5c6d5f484b" y="297.08462"/>
     <use style="stroke:#000000;stroke-width:2;" x="555.527273" xlink:href="#m5c6d5f484b" y="191.728661"/>
     <use style="stroke:#000000;stroke-width:2;" x="645.709091" xlink:href="#m5c6d5f484b" y="105.656803"/>
     <use style="stroke:#000000;stroke-width:2;" x="735.890909" xlink:href="#m5c6d5f484b" y="74.2224"/>
    </g>
   </g>
   <g id="matplotlib.axis_1">
    <g id="xtick_1">
     <g id="line2d_7">
      <defs>
       <path d="M 0 0 
L 0 2 
" id="mdc7ed3d77a" style="stroke:#000000;"/>
      </defs>
      <g>
       <use style="stroke:#000000;" x="172.254545" xlink:href="#mdc7ed3d77a" y="421.6464"/>
      </g>
     </g>
     <g id="text_1">
      <!-- TAA -->
      <defs>
       <path d="M -0.296875 72.90625 
L 61.375 72.90625 
L 61.375 64.59375 
L 35.5 64.59375 
L 35.5 0 
L 25.59375 0 
L 25.59375 64.59375 
L -0.296875 64.59375 
z
" id="DejaVuSans-84"/>
       <path d="M 34.1875 63.1875 
L 20.796875 26.90625 
L 47.609375 26.90625 
z
M 28.609375 72.90625 
L 39.796875 72.90625 
L 67.578125 0 
L 57.328125 0 
L 50.6875 18.703125 
L 17.828125 18.703125 
L 11.1875 0 
L 0.78125 0 
z
" id="DejaVuSans-65"/>
      </defs>
      <g transform="translate(154.45142 440.823588)scale(0.18 -0.18)">
       <use xlink:href="#DejaVuSans-84"/>
       <use x="60.974609" xlink:href="#DejaVuSans-65"/>
       <use x="129.414062" xlink:href="#DejaVuSans-65"/>
      </g>
     </g>
    </g>
    <g id="xtick_2">
     <g id="line2d_8">
      <g>
       <use style="stroke:#000000;" x="262.436364" xlink:href="#mdc7ed3d77a" y="421.6464"/>
      </g>
     </g>
     <g id="text_2">
      <!-- WT -->
      <defs>
       <path d="M 3.328125 72.90625 
L 13.28125 72.90625 
L 28.609375 11.28125 
L 43.890625 72.90625 
L 54.984375 72.90625 
L 70.3125 11.28125 
L 85.59375 72.90625 
L 95.609375 72.90625 
L 77.296875 0 
L 64.890625 0 
L 49.515625 63.28125 
L 33.984375 0 
L 21.578125 0 
z
" id="DejaVuSans-87"/>
      </defs>
      <g transform="translate(248.040582 440.823588)scale(0.18 -0.18)">
       <use xlink:href="#DejaVuSans-87"/>
       <use x="98.876953" xlink:href="#DejaVuSans-84"/>
      </g>
     </g>
    </g>
    <g id="xtick_3">
     <g id="line2d_9">
      <g>
       <use style="stroke:#000000;" x="352.618182" xlink:href="#mdc7ed3d77a" y="421.6464"/>
      </g>
     </g>
     <g id="text_3">
      <!-- Gen1 -->
      <defs>
       <path d="M 59.515625 10.40625 
L 59.515625 29.984375 
L 43.40625 29.984375 
L 43.40625 38.09375 
L 69.28125 38.09375 
L 69.28125 6.78125 
Q 63.578125 2.734375 56.6875 0.65625 
Q 49.8125 -1.421875 42 -1.421875 
Q 24.90625 -1.421875 15.25 8.5625 
Q 5.609375 18.5625 5.609375 36.375 
Q 5.609375 54.25 15.25 64.234375 
Q 24.90625 74.21875 42 74.21875 
Q 49.125 74.21875 55.546875 72.453125 
Q 61.96875 70.703125 67.390625 67.28125 
L 67.390625 56.78125 
Q 61.921875 61.421875 55.765625 63.765625 
Q 49.609375 66.109375 42.828125 66.109375 
Q 29.4375 66.109375 22.71875 58.640625 
Q 16.015625 51.171875 16.015625 36.375 
Q 16.015625 21.625 22.71875 14.15625 
Q 29.4375 6.6875 42.828125 6.6875 
Q 48.046875 6.6875 52.140625 7.59375 
Q 56.25 8.5 59.515625 10.40625 
z
" id="DejaVuSans-71"/>
       <path d="M 56.203125 29.59375 
L 56.203125 25.203125 
L 14.890625 25.203125 
Q 15.484375 15.921875 20.484375 11.0625 
Q 25.484375 6.203125 34.421875 6.203125 
Q 39.59375 6.203125 44.453125 7.46875 
Q 49.3125 8.734375 54.109375 11.28125 
L 54.109375 2.78125 
Q 49.265625 0.734375 44.1875 -0.34375 
Q 39.109375 -1.421875 33.890625 -1.421875 
Q 20.796875 -1.421875 13.15625 6.1875 
Q 5.515625 13.8125 5.515625 26.8125 
Q 5.515625 40.234375 12.765625 48.109375 
Q 20.015625 56 32.328125 56 
Q 43.359375 56 49.78125 48.890625 
Q 56.203125 41.796875 56.203125 29.59375 
z
M 47.21875 32.234375 
Q 47.125 39.59375 43.09375 43.984375 
Q 39.0625 48.390625 32.421875 48.390625 
Q 24.90625 48.390625 20.390625 44.140625 
Q 15.875 39.890625 15.1875 32.171875 
z
" id="DejaVuSans-101"/>
       <path d="M 54.890625 33.015625 
L 54.890625 0 
L 45.90625 0 
L 45.90625 32.71875 
Q 45.90625 40.484375 42.875 44.328125 
Q 39.84375 48.1875 33.796875 48.1875 
Q 26.515625 48.1875 22.3125 43.546875 
Q 18.109375 38.921875 18.109375 30.90625 
L 18.109375 0 
L 9.078125 0 
L 9.078125 54.6875 
L 18.109375 54.6875 
L 18.109375 46.1875 
Q 21.34375 51.125 25.703125 53.5625 
Q 30.078125 56 35.796875 56 
Q 45.21875 56 50.046875 50.171875 
Q 54.890625 44.34375 54.890625 33.015625 
z
" id="DejaVuSans-110"/>
       <path d="M 12.40625 8.296875 
L 28.515625 8.296875 
L 28.515625 63.921875 
L 10.984375 60.40625 
L 10.984375 69.390625 
L 28.421875 72.90625 
L 38.28125 72.90625 
L 38.28125 8.296875 
L 54.390625 8.296875 
L 54.390625 0 
L 12.40625 0 
z
" id="DejaVuSans-49"/>
      </defs>
      <g transform="translate(328.676776 440.823588)scale(0.18 -0.18)">
       <use xlink:href="#DejaVuSans-71"/>
       <use x="77.490234" xlink:href="#DejaVuSans-101"/>
       <use x="139.013672" xlink:href="#DejaVuSans-110"/>
       <use x="202.392578" xlink:href="#DejaVuSans-49"/>
      </g>
     </g>
    </g>
    <g id="xtick_4">
     <g id="line2d_10">
      <g>
       <use style="stroke:#000000;" x="442.8" xlink:href="#mdc7ed3d77a" y="421.6464"/>
      </g>
     </g>
     <g id="text_4">
      <!-- Gen2 -->
      <defs>
       <path d="M 19.1875 8.296875 
L 53.609375 8.296875 
L 53.609375 0 
L 7.328125 0 
L 7.328125 8.296875 
Q 12.9375 14.109375 22.625 23.890625 
Q 32.328125 33.6875 34.8125 36.53125 
Q 39.546875 41.84375 41.421875 45.53125 
Q 43.3125 49.21875 43.3125 52.78125 
Q 43.3125 58.59375 39.234375 62.25 
Q 35.15625 65.921875 28.609375 65.921875 
Q 23.96875 65.921875 18.8125 64.3125 
Q 13.671875 62.703125 7.8125 59.421875 
L 7.8125 69.390625 
Q 13.765625 71.78125 18.9375 73 
Q 24.125 74.21875 28.421875 74.21875 
Q 39.75 74.21875 46.484375 68.546875 
Q 53.21875 62.890625 53.21875 53.421875 
Q 53.21875 48.921875 51.53125 44.890625 
Q 49.859375 40.875 45.40625 35.40625 
Q 44.1875 33.984375 37.640625 27.21875 
Q 31.109375 20.453125 19.1875 8.296875 
z
" id="DejaVuSans-50"/>
      </defs>
      <g transform="translate(418.858594 440.823588)scale(0.18 -0.18)">
       <use xlink:href="#DejaVuSans-71"/>
       <use x="77.490234" xlink:href="#DejaVuSans-101"/>
       <use x="139.013672" xlink:href="#DejaVuSans-110"/>
       <use x="202.392578" xlink:href="#DejaVuSans-50"/>
      </g>
     </g>
    </g>
    <g id="xtick_5">
     <g id="line2d_11">
      <g>
       <use style="stroke:#000000;" x="532.981818" xlink:href="#mdc7ed3d77a" y="421.6464"/>
      </g>
     </g>
     <g id="text_5">
      <!-- Gen3 -->
      <defs>
       <path d="M 40.578125 39.3125 
Q 47.65625 37.796875 51.625 33 
Q 55.609375 28.21875 55.609375 21.1875 
Q 55.609375 10.40625 48.1875 4.484375 
Q 40.765625 -1.421875 27.09375 -1.421875 
Q 22.515625 -1.421875 17.65625 -0.515625 
Q 12.796875 0.390625 7.625 2.203125 
L 7.625 11.71875 
Q 11.71875 9.328125 16.59375 8.109375 
Q 21.484375 6.890625 26.8125 6.890625 
Q 36.078125 6.890625 40.9375 10.546875 
Q 45.796875 14.203125 45.796875 21.1875 
Q 45.796875 27.640625 41.28125 31.265625 
Q 36.765625 34.90625 28.71875 34.90625 
L 20.21875 34.90625 
L 20.21875 43.015625 
L 29.109375 43.015625 
Q 36.375 43.015625 40.234375 45.921875 
Q 44.09375 48.828125 44.09375 54.296875 
Q 44.09375 59.90625 40.109375 62.90625 
Q 36.140625 65.921875 28.71875 65.921875 
Q 24.65625 65.921875 20.015625 65.03125 
Q 15.375 64.15625 9.8125 62.3125 
L 9.8125 71.09375 
Q 15.4375 72.65625 20.34375 73.4375 
Q 25.25 74.21875 29.59375 74.21875 
Q 40.828125 74.21875 47.359375 69.109375 
Q 53.90625 64.015625 53.90625 55.328125 
Q 53.90625 49.265625 50.4375 45.09375 
Q 46.96875 40.921875 40.578125 39.3125 
z
" id="DejaVuSans-51"/>
      </defs>
      <g transform="translate(509.040412 440.823588)scale(0.18 -0.18)">
       <use xlink:href="#DejaVuSans-71"/>
       <use x="77.490234" xlink:href="#DejaVuSans-101"/>
       <use x="139.013672" xlink:href="#DejaVuSans-110"/>
       <use x="202.392578" xlink:href="#DejaVuSans-51"/>
      </g>
     </g>
    </g>
    <g id="xtick_6">
     <g id="line2d_12">
      <g>
       <use style="stroke:#000000;" x="623.163636" xlink:href="#mdc7ed3d77a" y="421.6464"/>
      </g>
     </g>
     <g id="text_6">
      <!-- Gen4 -->
      <defs>
       <path d="M 37.796875 64.3125 
L 12.890625 25.390625 
L 37.796875 25.390625 
z
M 35.203125 72.90625 
L 47.609375 72.90625 
L 47.609375 25.390625 
L 58.015625 25.390625 
L 58.015625 17.1875 
L 47.609375 17.1875 
L 47.609375 0 
L 37.796875 0 
L 37.796875 17.1875 
L 4.890625 17.1875 
L 4.890625 26.703125 
z
" id="DejaVuSans-52"/>
      </defs>
      <g transform="translate(599.22223 440.823588)scale(0.18 -0.18)">
       <use xlink:href="#DejaVuSans-71"/>
       <use x="77.490234" xlink:href="#DejaVuSans-101"/>
       <use x="139.013672" xlink:href="#DejaVuSans-110"/>
       <use x="202.392578" xlink:href="#DejaVuSans-52"/>
      </g>
     </g>
    </g>
    <g id="xtick_7">
     <g id="line2d_13">
      <g>
       <use style="stroke:#000000;" x="713.345455" xlink:href="#mdc7ed3d77a" y="421.6464"/>
      </g>
     </g>
     <g id="text_7">
      <!-- Gen5 -->
      <defs>
       <path d="M 10.796875 72.90625 
L 49.515625 72.90625 
L 49.515625 64.59375 
L 19.828125 64.59375 
L 19.828125 46.734375 
Q 21.96875 47.46875 24.109375 47.828125 
Q 26.265625 48.1875 28.421875 48.1875 
Q 40.625 48.1875 47.75 41.5 
Q 54.890625 34.8125 54.890625 23.390625 
Q 54.890625 11.625 47.5625 5.09375 
Q 40.234375 -1.421875 26.90625 -1.421875 
Q 22.3125 -1.421875 17.546875 -0.640625 
Q 12.796875 0.140625 7.71875 1.703125 
L 7.71875 11.625 
Q 12.109375 9.234375 16.796875 8.0625 
Q 21.484375 6.890625 26.703125 6.890625 
Q 35.15625 6.890625 40.078125 11.328125 
Q 45.015625 15.765625 45.015625 23.390625 
Q 45.015625 31 40.078125 35.4375 
Q 35.15625 39.890625 26.703125 39.890625 
Q 22.75 39.890625 18.8125 39.015625 
Q 14.890625 38.140625 10.796875 36.28125 
z
" id="DejaVuSans-53"/>
      </defs>
      <g transform="translate(689.404048 440.823588)scale(0.18 -0.18)">
       <use xlink:href="#DejaVuSans-71"/>
       <use x="77.490234" xlink:href="#DejaVuSans-101"/>
       <use x="139.013672" xlink:href="#DejaVuSans-110"/>
       <use x="202.392578" xlink:href="#DejaVuSans-53"/>
      </g>
     </g>
    </g>
    <g id="text_8">
     <!-- O-Methyltransferase Variant -->
     <defs>
      <path d="M 39.40625 66.21875 
Q 28.65625 66.21875 22.328125 58.203125 
Q 16.015625 50.203125 16.015625 36.375 
Q 16.015625 22.609375 22.328125 14.59375 
Q 28.65625 6.59375 39.40625 6.59375 
Q 50.140625 6.59375 56.421875 14.59375 
Q 62.703125 22.609375 62.703125 36.375 
Q 62.703125 50.203125 56.421875 58.203125 
Q 50.140625 66.21875 39.40625 66.21875 
z
M 39.40625 74.21875 
Q 54.734375 74.21875 63.90625 63.9375 
Q 73.09375 53.65625 73.09375 36.375 
Q 73.09375 19.140625 63.90625 8.859375 
Q 54.734375 -1.421875 39.40625 -1.421875 
Q 24.03125 -1.421875 14.8125 8.828125 
Q 5.609375 19.09375 5.609375 36.375 
Q 5.609375 53.65625 14.8125 63.9375 
Q 24.03125 74.21875 39.40625 74.21875 
z
" id="DejaVuSans-79"/>
      <path d="M 4.890625 31.390625 
L 31.203125 31.390625 
L 31.203125 23.390625 
L 4.890625 23.390625 
z
" id="DejaVuSans-45"/>
      <path d="M 9.8125 72.90625 
L 24.515625 72.90625 
L 43.109375 23.296875 
L 61.8125 72.90625 
L 76.515625 72.90625 
L 76.515625 0 
L 66.890625 0 
L 66.890625 64.015625 
L 48.09375 14.015625 
L 38.1875 14.015625 
L 19.390625 64.015625 
L 19.390625 0 
L 9.8125 0 
z
" id="DejaVuSans-77"/>
      <path d="M 18.3125 70.21875 
L 18.3125 54.6875 
L 36.8125 54.6875 
L 36.8125 47.703125 
L 18.3125 47.703125 
L 18.3125 18.015625 
Q 18.3125 11.328125 20.140625 9.421875 
Q 21.96875 7.515625 27.59375 7.515625 
L 36.8125 7.515625 
L 36.8125 0 
L 27.59375 0 
Q 17.1875 0 13.234375 3.875 
Q 9.28125 7.765625 9.28125 18.015625 
L 9.28125 47.703125 
L 2.6875 47.703125 
L 2.6875 54.6875 
L 9.28125 54.6875 
L 9.28125 70.21875 
z
" id="DejaVuSans-116"/>
      <path d="M 54.890625 33.015625 
L 54.890625 0 
L 45.90625 0 
L 45.90625 32.71875 
Q 45.90625 40.484375 42.875 44.328125 
Q 39.84375 48.1875 33.796875 48.1875 
Q 26.515625 48.1875 22.3125 43.546875 
Q 18.109375 38.921875 18.109375 30.90625 
L 18.109375 0 
L 9.078125 0 
L 9.078125 75.984375 
L 18.109375 75.984375 
L 18.109375 46.1875 
Q 21.34375 51.125 25.703125 53.5625 
Q 30.078125 56 35.796875 56 
Q 45.21875 56 50.046875 50.171875 
Q 54.890625 44.34375 54.890625 33.015625 
z
" id="DejaVuSans-104"/>
      <path d="M 32.171875 -5.078125 
Q 28.375 -14.84375 24.75 -17.8125 
Q 21.140625 -20.796875 15.09375 -20.796875 
L 7.90625 -20.796875 
L 7.90625 -13.28125 
L 13.1875 -13.28125 
Q 16.890625 -13.28125 18.9375 -11.515625 
Q 21 -9.765625 23.484375 -3.21875 
L 25.09375 0.875 
L 2.984375 54.6875 
L 12.5 54.6875 
L 29.59375 11.921875 
L 46.6875 54.6875 
L 56.203125 54.6875 
z
" id="DejaVuSans-121"/>
      <path d="M 9.421875 75.984375 
L 18.40625 75.984375 
L 18.40625 0 
L 9.421875 0 
z
" id="DejaVuSans-108"/>
      <path d="M 41.109375 46.296875 
Q 39.59375 47.171875 37.8125 47.578125 
Q 36.03125 48 33.890625 48 
Q 26.265625 48 22.1875 43.046875 
Q 18.109375 38.09375 18.109375 28.8125 
L 18.109375 0 
L 9.078125 0 
L 9.078125 54.6875 
L 18.109375 54.6875 
L 18.109375 46.1875 
Q 20.953125 51.171875 25.484375 53.578125 
Q 30.03125 56 36.53125 56 
Q 37.453125 56 38.578125 55.875 
Q 39.703125 55.765625 41.0625 55.515625 
z
" id="DejaVuSans-114"/>
      <path d="M 34.28125 27.484375 
Q 23.390625 27.484375 19.1875 25 
Q 14.984375 22.515625 14.984375 16.5 
Q 14.984375 11.71875 18.140625 8.90625 
Q 21.296875 6.109375 26.703125 6.109375 
Q 34.1875 6.109375 38.703125 11.40625 
Q 43.21875 16.703125 43.21875 25.484375 
L 43.21875 27.484375 
z
M 52.203125 31.203125 
L 52.203125 0 
L 43.21875 0 
L 43.21875 8.296875 
Q 40.140625 3.328125 35.546875 0.953125 
Q 30.953125 -1.421875 24.3125 -1.421875 
Q 15.921875 -1.421875 10.953125 3.296875 
Q 6 8.015625 6 15.921875 
Q 6 25.140625 12.171875 29.828125 
Q 18.359375 34.515625 30.609375 34.515625 
L 43.21875 34.515625 
L 43.21875 35.40625 
Q 43.21875 41.609375 39.140625 45 
Q 35.0625 48.390625 27.6875 48.390625 
Q 23 48.390625 18.546875 47.265625 
Q 14.109375 46.140625 10.015625 43.890625 
L 10.015625 52.203125 
Q 14.9375 54.109375 19.578125 55.046875 
Q 24.21875 56 28.609375 56 
Q 40.484375 56 46.34375 49.84375 
Q 52.203125 43.703125 52.203125 31.203125 
z
" id="DejaVuSans-97"/>
      <path d="M 44.28125 53.078125 
L 44.28125 44.578125 
Q 40.484375 46.53125 36.375 47.5 
Q 32.28125 48.484375 27.875 48.484375 
Q 21.1875 48.484375 17.84375 46.4375 
Q 14.5 44.390625 14.5 40.28125 
Q 14.5 37.15625 16.890625 35.375 
Q 19.28125 33.59375 26.515625 31.984375 
L 29.59375 31.296875 
Q 39.15625 29.25 43.1875 25.515625 
Q 47.21875 21.78125 47.21875 15.09375 
Q 47.21875 7.46875 41.1875 3.015625 
Q 35.15625 -1.421875 24.609375 -1.421875 
Q 20.21875 -1.421875 15.453125 -0.5625 
Q 10.6875 0.296875 5.421875 2 
L 5.421875 11.28125 
Q 10.40625 8.6875 15.234375 7.390625 
Q 20.0625 6.109375 24.8125 6.109375 
Q 31.15625 6.109375 34.5625 8.28125 
Q 37.984375 10.453125 37.984375 14.40625 
Q 37.984375 18.0625 35.515625 20.015625 
Q 33.0625 21.96875 24.703125 23.78125 
L 21.578125 24.515625 
Q 13.234375 26.265625 9.515625 29.90625 
Q 5.8125 33.546875 5.8125 39.890625 
Q 5.8125 47.609375 11.28125 51.796875 
Q 16.75 56 26.8125 56 
Q 31.78125 56 36.171875 55.265625 
Q 40.578125 54.546875 44.28125 53.078125 
z
" id="DejaVuSans-115"/>
      <path d="M 37.109375 75.984375 
L 37.109375 68.5 
L 28.515625 68.5 
Q 23.6875 68.5 21.796875 66.546875 
Q 19.921875 64.59375 19.921875 59.515625 
L 19.921875 54.6875 
L 34.71875 54.6875 
L 34.71875 47.703125 
L 19.921875 47.703125 
L 19.921875 0 
L 10.890625 0 
L 10.890625 47.703125 
L 2.296875 47.703125 
L 2.296875 54.6875 
L 10.890625 54.6875 
L 10.890625 58.5 
Q 10.890625 67.625 15.140625 71.796875 
Q 19.390625 75.984375 28.609375 75.984375 
z
" id="DejaVuSans-102"/>
      <path id="DejaVuSans-32"/>
      <path d="M 28.609375 0 
L 0.78125 72.90625 
L 11.078125 72.90625 
L 34.1875 11.53125 
L 57.328125 72.90625 
L 67.578125 72.90625 
L 39.796875 0 
z
" id="DejaVuSans-86"/>
      <path d="M 9.421875 54.6875 
L 18.40625 54.6875 
L 18.40625 0 
L 9.421875 0 
z
M 9.421875 75.984375 
L 18.40625 75.984375 
L 18.40625 64.59375 
L 9.421875 64.59375 
z
" id="DejaVuSans-105"/>
     </defs>
     <g transform="translate(301.189062 463.7639)scale(0.2 -0.2)">
      <use xlink:href="#DejaVuSans-79"/>
      <use x="78.742188" xlink:href="#DejaVuSans-45"/>
      <use x="114.826172" xlink:href="#DejaVuSans-77"/>
      <use x="201.105469" xlink:href="#DejaVuSans-101"/>
      <use x="262.628906" xlink:href="#DejaVuSans-116"/>
      <use x="301.837891" xlink:href="#DejaVuSans-104"/>
      <use x="365.216797" xlink:href="#DejaVuSans-121"/>
      <use x="424.396484" xlink:href="#DejaVuSans-108"/>
      <use x="452.179688" xlink:href="#DejaVuSans-116"/>
      <use x="491.388672" xlink:href="#DejaVuSans-114"/>
      <use x="532.501953" xlink:href="#DejaVuSans-97"/>
      <use x="593.78125" xlink:href="#DejaVuSans-110"/>
      <use x="657.160156" xlink:href="#DejaVuSans-115"/>
      <use x="709.259766" xlink:href="#DejaVuSans-102"/>
      <use x="744.464844" xlink:href="#DejaVuSans-101"/>
      <use x="805.988281" xlink:href="#DejaVuSans-114"/>
      <use x="847.101562" xlink:href="#DejaVuSans-97"/>
      <use x="908.380859" xlink:href="#DejaVuSans-115"/>
      <use x="960.480469" xlink:href="#DejaVuSans-101"/>
      <use x="1022.003906" xlink:href="#DejaVuSans-32"/>
      <use x="1053.791016" xlink:href="#DejaVuSans-86"/>
      <use x="1122.089844" xlink:href="#DejaVuSans-97"/>
      <use x="1183.369141" xlink:href="#DejaVuSans-114"/>
      <use x="1224.482422" xlink:href="#DejaVuSans-105"/>
      <use x="1252.265625" xlink:href="#DejaVuSans-97"/>
      <use x="1313.544922" xlink:href="#DejaVuSans-110"/>
      <use x="1376.923828" xlink:href="#DejaVuSans-116"/>
     </g>
    </g>
   </g>
   <g id="matplotlib.axis_2">
    <g id="ytick_1">
     <g id="line2d_14">
      <defs>
       <path d="M 0 0 
L -2 0 
" id="m5e1f30cb23" style="stroke:#000000;"/>
      </defs>
      <g>
       <use style="stroke:#000000;" x="108" xlink:href="#m5e1f30cb23" y="421.6464"/>
      </g>
     </g>
     <g id="text_9">
      <!-- 0 -->
      <defs>
       <path d="M 31.78125 66.40625 
Q 24.171875 66.40625 20.328125 58.90625 
Q 16.5 51.421875 16.5 36.375 
Q 16.5 21.390625 20.328125 13.890625 
Q 24.171875 6.390625 31.78125 6.390625 
Q 39.453125 6.390625 43.28125 13.890625 
Q 47.125 21.390625 47.125 36.375 
Q 47.125 51.421875 43.28125 58.90625 
Q 39.453125 66.40625 31.78125 66.40625 
z
M 31.78125 74.21875 
Q 44.046875 74.21875 50.515625 64.515625 
Q 56.984375 54.828125 56.984375 36.375 
Q 56.984375 17.96875 50.515625 8.265625 
Q 44.046875 -1.421875 31.78125 -1.421875 
Q 19.53125 -1.421875 13.0625 8.265625 
Q 6.59375 17.96875 6.59375 36.375 
Q 6.59375 54.828125 13.0625 64.515625 
Q 19.53125 74.21875 31.78125 74.21875 
z
" id="DejaVuSans-48"/>
      </defs>
      <g transform="translate(91.0475 428.484994)scale(0.18 -0.18)">
       <use xlink:href="#DejaVuSans-48"/>
      </g>
     </g>
    </g>
    <g id="ytick_2">
     <g id="line2d_15">
      <g>
       <use style="stroke:#000000;" x="108" xlink:href="#m5e1f30cb23" y="372.272401"/>
      </g>
     </g>
     <g id="text_10">
      <!-- 1 -->
      <g transform="translate(91.0475 379.110995)scale(0.18 -0.18)">
       <use xlink:href="#DejaVuSans-49"/>
      </g>
     </g>
    </g>
    <g id="ytick_3">
     <g id="line2d_16">
      <g>
       <use style="stroke:#000000;" x="108" xlink:href="#m5e1f30cb23" y="322.898402"/>
      </g>
     </g>
     <g id="text_11">
      <!-- 2 -->
      <g transform="translate(91.0475 329.736996)scale(0.18 -0.18)">
       <use xlink:href="#DejaVuSans-50"/>
      </g>
     </g>
    </g>
    <g id="ytick_4">
     <g id="line2d_17">
      <g>
       <use style="stroke:#000000;" x="108" xlink:href="#m5e1f30cb23" y="273.524403"/>
      </g>
     </g>
     <g id="text_12">
      <!-- 3 -->
      <g transform="translate(91.0475 280.362997)scale(0.18 -0.18)">
       <use xlink:href="#DejaVuSans-51"/>
      </g>
     </g>
    </g>
    <g id="ytick_5">
     <g id="line2d_18">
      <g>
       <use style="stroke:#000000;" x="108" xlink:href="#m5e1f30cb23" y="224.150405"/>
      </g>
     </g>
     <g id="text_13">
      <!-- 4 -->
      <g transform="translate(91.0475 230.988998)scale(0.18 -0.18)">
       <use xlink:href="#DejaVuSans-52"/>
      </g>
     </g>
    </g>
    <g id="ytick_6">
     <g id="line2d_19">
      <g>
       <use style="stroke:#000000;" x="108" xlink:href="#m5e1f30cb23" y="174.776406"/>
      </g>
     </g>
     <g id="text_14">
      <!-- 5 -->
      <g transform="translate(91.0475 181.614999)scale(0.18 -0.18)">
       <use xlink:href="#DejaVuSans-53"/>
      </g>
     </g>
    </g>
    <g id="ytick_7">
     <g id="line2d_20">
      <g>
       <use style="stroke:#000000;" x="108" xlink:href="#m5e1f30cb23" y="125.402407"/>
      </g>
     </g>
     <g id="text_15">
      <!-- 6 -->
      <defs>
       <path d="M 33.015625 40.375 
Q 26.375 40.375 22.484375 35.828125 
Q 18.609375 31.296875 18.609375 23.390625 
Q 18.609375 15.53125 22.484375 10.953125 
Q 26.375 6.390625 33.015625 6.390625 
Q 39.65625 6.390625 43.53125 10.953125 
Q 47.40625 15.53125 47.40625 23.390625 
Q 47.40625 31.296875 43.53125 35.828125 
Q 39.65625 40.375 33.015625 40.375 
z
M 52.59375 71.296875 
L 52.59375 62.3125 
Q 48.875 64.0625 45.09375 64.984375 
Q 41.3125 65.921875 37.59375 65.921875 
Q 27.828125 65.921875 22.671875 59.328125 
Q 17.53125 52.734375 16.796875 39.40625 
Q 19.671875 43.65625 24.015625 45.921875 
Q 28.375 48.1875 33.59375 48.1875 
Q 44.578125 48.1875 50.953125 41.515625 
Q 57.328125 34.859375 57.328125 23.390625 
Q 57.328125 12.15625 50.6875 5.359375 
Q 44.046875 -1.421875 33.015625 -1.421875 
Q 20.359375 -1.421875 13.671875 8.265625 
Q 6.984375 17.96875 6.984375 36.375 
Q 6.984375 53.65625 15.1875 63.9375 
Q 23.390625 74.21875 37.203125 74.21875 
Q 40.921875 74.21875 44.703125 73.484375 
Q 48.484375 72.75 52.59375 71.296875 
z
" id="DejaVuSans-54"/>
      </defs>
      <g transform="translate(91.0475 132.241001)scale(0.18 -0.18)">
       <use xlink:href="#DejaVuSans-54"/>
      </g>
     </g>
    </g>
    <g id="ytick_8">
     <g id="line2d_21">
      <g>
       <use style="stroke:#000000;" x="108" xlink:href="#m5e1f30cb23" y="76.028408"/>
      </g>
     </g>
     <g id="text_16">
      <!-- 7 -->
      <defs>
       <path d="M 8.203125 72.90625 
L 55.078125 72.90625 
L 55.078125 68.703125 
L 28.609375 0 
L 18.3125 0 
L 43.21875 64.59375 
L 8.203125 64.59375 
z
" id="DejaVuSans-55"/>
      </defs>
      <g transform="translate(91.0475 82.867002)scale(0.18 -0.18)">
       <use xlink:href="#DejaVuSans-55"/>
      </g>
     </g>
    </g>
    <g id="text_17">
     <!-- $(RFU/OD) \times 10^4$ -->
     <defs>
      <path d="M 31 75.875 
Q 24.46875 64.65625 21.28125 53.65625 
Q 18.109375 42.671875 18.109375 31.390625 
Q 18.109375 20.125 21.3125 9.0625 
Q 24.515625 -2 31 -13.1875 
L 23.1875 -13.1875 
Q 15.875 -1.703125 12.234375 9.375 
Q 8.59375 20.453125 8.59375 31.390625 
Q 8.59375 42.28125 12.203125 53.3125 
Q 15.828125 64.359375 23.1875 75.875 
z
" id="DejaVuSans-40"/>
      <path d="M 25.203125 64.796875 
L 20.21875 38.921875 
L 32.90625 38.921875 
Q 40.375 38.921875 44.984375 43.046875 
Q 49.609375 47.171875 49.609375 53.8125 
Q 49.609375 59.125 46.5 61.953125 
Q 43.40625 64.796875 37.59375 64.796875 
z
M 43.3125 35.015625 
Q 46.4375 34.28125 48.515625 31.390625 
Q 50.59375 28.515625 53.328125 19.921875 
L 59.515625 0 
L 49.125 0 
L 43.40625 18.703125 
Q 41.21875 25.921875 38.328125 28.359375 
Q 35.453125 30.8125 29.5 30.8125 
L 18.609375 30.8125 
L 12.59375 0 
L 2.6875 0 
L 16.890625 72.90625 
L 39.109375 72.90625 
Q 49.21875 72.90625 54.609375 68.328125 
Q 60.015625 63.765625 60.015625 55.171875 
Q 60.015625 47.5625 55.421875 41.984375 
Q 50.828125 36.421875 43.3125 35.015625 
z
" id="DejaVuSans-Oblique-82"/>
      <path d="M 16.890625 72.90625 
L 58.6875 72.90625 
L 57.078125 64.59375 
L 25.09375 64.59375 
L 20.90625 43.109375 
L 49.8125 43.109375 
L 48.1875 34.8125 
L 19.28125 34.8125 
L 12.5 0 
L 2.6875 0 
z
" id="DejaVuSans-Oblique-70"/>
      <path d="M 15.484375 72.90625 
L 25.390625 72.90625 
L 16.796875 28.609375 
Q 16.265625 25.640625 16.046875 23.703125 
Q 15.828125 21.78125 15.828125 20.3125 
Q 15.828125 13.578125 19.578125 10.078125 
Q 23.34375 6.59375 30.609375 6.59375 
Q 40.046875 6.59375 45.28125 11.765625 
Q 50.53125 16.9375 52.78125 28.609375 
L 61.375 72.90625 
L 71.296875 72.90625 
L 62.5 27.390625 
Q 59.625 12.640625 51.5625 5.609375 
Q 43.5 -1.421875 29.5 -1.421875 
Q 18.5625 -1.421875 12.1875 4.078125 
Q 5.8125 9.578125 5.8125 19 
Q 5.8125 20.703125 6.046875 22.828125 
Q 6.296875 24.953125 6.78125 27.390625 
z
" id="DejaVuSans-Oblique-85"/>
      <path d="M 25.390625 72.90625 
L 33.6875 72.90625 
L 8.296875 -9.28125 
L 0 -9.28125 
z
" id="DejaVuSans-47"/>
      <path d="M 45.609375 66.21875 
Q 37.5 66.21875 31.296875 62.28125 
Q 25.09375 58.34375 20.515625 50.296875 
Q 17.578125 45.171875 16.03125 39.40625 
Q 14.5 33.640625 14.5 27.78125 
Q 14.5 17.625 19.359375 12.109375 
Q 24.21875 6.59375 33.109375 6.59375 
Q 41.109375 6.59375 47.375 10.5625 
Q 53.65625 14.546875 58.109375 22.40625 
Q 61.078125 27.6875 62.640625 33.46875 
Q 64.203125 39.265625 64.203125 45.015625 
Q 64.203125 55.125 59.3125 60.671875 
Q 54.4375 66.21875 45.609375 66.21875 
z
M 32.8125 -1.421875 
Q 19.390625 -1.421875 11.6875 6.53125 
Q 4 14.5 4 28.328125 
Q 4 36.234375 7 44.484375 
Q 10.015625 52.734375 15.28125 59.1875 
Q 21.484375 66.75 29.09375 70.484375 
Q 36.71875 74.21875 45.90625 74.21875 
Q 59.28125 74.21875 66.984375 66.328125 
Q 74.703125 58.453125 74.703125 44.828125 
Q 74.703125 36.421875 71.765625 28.3125 
Q 68.84375 20.21875 63.375 13.625 
Q 57.125 6 49.578125 2.28125 
Q 42.046875 -1.421875 32.8125 -1.421875 
z
" id="DejaVuSans-Oblique-79"/>
      <path d="M 16.890625 72.90625 
L 38.09375 72.90625 
Q 54.984375 72.90625 63.59375 65.75 
Q 72.21875 58.59375 72.21875 44.484375 
Q 72.21875 35.15625 68.9375 26.53125 
Q 65.671875 17.921875 59.90625 12.015625 
Q 54.109375 5.953125 45.171875 2.96875 
Q 36.234375 0 24.03125 0 
L 2.6875 0 
z
M 25.203125 64.796875 
L 14.203125 8.109375 
L 27.09375 8.109375 
Q 43.65625 8.109375 52.734375 17.625 
Q 61.8125 27.15625 61.8125 44.484375 
Q 61.8125 54.984375 55.953125 59.890625 
Q 50.09375 64.796875 37.59375 64.796875 
z
" id="DejaVuSans-Oblique-68"/>
      <path d="M 8.015625 75.875 
L 15.828125 75.875 
Q 23.140625 64.359375 26.78125 53.3125 
Q 30.421875 42.28125 30.421875 31.390625 
Q 30.421875 20.453125 26.78125 9.375 
Q 23.140625 -1.703125 15.828125 -13.1875 
L 8.015625 -13.1875 
Q 14.5 -2 17.703125 9.0625 
Q 20.90625 20.125 20.90625 31.390625 
Q 20.90625 42.671875 17.703125 53.65625 
Q 14.5 64.65625 8.015625 75.875 
z
" id="DejaVuSans-41"/>
      <path d="M 70.125 53.71875 
L 47.796875 31.296875 
L 70.125 8.984375 
L 64.3125 3.078125 
L 41.890625 25.484375 
L 19.484375 3.078125 
L 13.71875 8.984375 
L 35.984375 31.296875 
L 13.71875 53.71875 
L 19.484375 59.625 
L 41.890625 37.203125 
L 64.3125 59.625 
z
" id="DejaVuSans-215"/>
     </defs>
     <g transform="translate(82.472187 323.5088)rotate(-90)scale(0.22 -0.22)">
      <use transform="translate(0 0.684375)" xlink:href="#DejaVuSans-40"/>
      <use transform="translate(39.013672 0.684375)" xlink:href="#DejaVuSans-Oblique-82"/>
      <use transform="translate(108.496094 0.684375)" xlink:href="#DejaVuSans-Oblique-70"/>
      <use transform="translate(166.015625 0.684375)" xlink:href="#DejaVuSans-Oblique-85"/>
      <use transform="translate(239.208984 0.684375)" xlink:href="#DejaVuSans-47"/>
      <use transform="translate(272.900391 0.684375)" xlink:href="#DejaVuSans-Oblique-79"/>
      <use transform="translate(351.611328 0.684375)" xlink:href="#DejaVuSans-Oblique-68"/>
      <use transform="translate(428.613281 0.684375)" xlink:href="#DejaVuSans-41"/>
      <use transform="translate(487.109375 0.684375)" xlink:href="#DejaVuSans-215"/>
      <use transform="translate(590.380859 0.684375)" xlink:href="#DejaVuSans-49"/>
      <use transform="translate(654.003906 0.684375)" xlink:href="#DejaVuSans-48"/>
      <use transform="translate(718.583984 38.965625)scale(0.7)" xlink:href="#DejaVuSans-52"/>
     </g>
    </g>
   </g>
   <g id="patch_24">
    <path d="M 108 421.6464 
L 108 56.8512 
" style="fill:none;stroke:#000000;stroke-linecap:square;stroke-linejoin:miter;stroke-width:0.8;"/>
   </g>
   <g id="patch_25">
    <path d="M 108 421.6464 
L 777.6 421.6464 
" style="fill:none;stroke:#000000;stroke-linecap:square;stroke-linejoin:miter;stroke-width:0.8;"/>
   </g>
   <g id="text_18">
    <!-- Activity of Evolved THP Synthases -->
    <defs>
     <path d="M 48.78125 52.59375 
L 48.78125 44.1875 
Q 44.96875 46.296875 41.140625 47.34375 
Q 37.3125 48.390625 33.40625 48.390625 
Q 24.65625 48.390625 19.8125 42.84375 
Q 14.984375 37.3125 14.984375 27.296875 
Q 14.984375 17.28125 19.8125 11.734375 
Q 24.65625 6.203125 33.40625 6.203125 
Q 37.3125 6.203125 41.140625 7.25 
Q 44.96875 8.296875 48.78125 10.40625 
L 48.78125 2.09375 
Q 45.015625 0.34375 40.984375 -0.53125 
Q 36.96875 -1.421875 32.421875 -1.421875 
Q 20.0625 -1.421875 12.78125 6.34375 
Q 5.515625 14.109375 5.515625 27.296875 
Q 5.515625 40.671875 12.859375 48.328125 
Q 20.21875 56 33.015625 56 
Q 37.15625 56 41.109375 55.140625 
Q 45.0625 54.296875 48.78125 52.59375 
z
" id="DejaVuSans-99"/>
     <path d="M 2.984375 54.6875 
L 12.5 54.6875 
L 29.59375 8.796875 
L 46.6875 54.6875 
L 56.203125 54.6875 
L 35.6875 0 
L 23.484375 0 
z
" id="DejaVuSans-118"/>
     <path d="M 30.609375 48.390625 
Q 23.390625 48.390625 19.1875 42.75 
Q 14.984375 37.109375 14.984375 27.296875 
Q 14.984375 17.484375 19.15625 11.84375 
Q 23.34375 6.203125 30.609375 6.203125 
Q 37.796875 6.203125 41.984375 11.859375 
Q 46.1875 17.53125 46.1875 27.296875 
Q 46.1875 37.015625 41.984375 42.703125 
Q 37.796875 48.390625 30.609375 48.390625 
z
M 30.609375 56 
Q 42.328125 56 49.015625 48.375 
Q 55.71875 40.765625 55.71875 27.296875 
Q 55.71875 13.875 49.015625 6.21875 
Q 42.328125 -1.421875 30.609375 -1.421875 
Q 18.84375 -1.421875 12.171875 6.21875 
Q 5.515625 13.875 5.515625 27.296875 
Q 5.515625 40.765625 12.171875 48.375 
Q 18.84375 56 30.609375 56 
z
" id="DejaVuSans-111"/>
     <path d="M 9.8125 72.90625 
L 55.90625 72.90625 
L 55.90625 64.59375 
L 19.671875 64.59375 
L 19.671875 43.015625 
L 54.390625 43.015625 
L 54.390625 34.71875 
L 19.671875 34.71875 
L 19.671875 8.296875 
L 56.78125 8.296875 
L 56.78125 0 
L 9.8125 0 
z
" id="DejaVuSans-69"/>
     <path d="M 45.40625 46.390625 
L 45.40625 75.984375 
L 54.390625 75.984375 
L 54.390625 0 
L 45.40625 0 
L 45.40625 8.203125 
Q 42.578125 3.328125 38.25 0.953125 
Q 33.9375 -1.421875 27.875 -1.421875 
Q 17.96875 -1.421875 11.734375 6.484375 
Q 5.515625 14.40625 5.515625 27.296875 
Q 5.515625 40.1875 11.734375 48.09375 
Q 17.96875 56 27.875 56 
Q 33.9375 56 38.25 53.625 
Q 42.578125 51.265625 45.40625 46.390625 
z
M 14.796875 27.296875 
Q 14.796875 17.390625 18.875 11.75 
Q 22.953125 6.109375 30.078125 6.109375 
Q 37.203125 6.109375 41.296875 11.75 
Q 45.40625 17.390625 45.40625 27.296875 
Q 45.40625 37.203125 41.296875 42.84375 
Q 37.203125 48.484375 30.078125 48.484375 
Q 22.953125 48.484375 18.875 42.84375 
Q 14.796875 37.203125 14.796875 27.296875 
z
" id="DejaVuSans-100"/>
     <path d="M 9.8125 72.90625 
L 19.671875 72.90625 
L 19.671875 43.015625 
L 55.515625 43.015625 
L 55.515625 72.90625 
L 65.375 72.90625 
L 65.375 0 
L 55.515625 0 
L 55.515625 34.71875 
L 19.671875 34.71875 
L 19.671875 0 
L 9.8125 0 
z
" id="DejaVuSans-72"/>
     <path d="M 19.671875 64.796875 
L 19.671875 37.40625 
L 32.078125 37.40625 
Q 38.96875 37.40625 42.71875 40.96875 
Q 46.484375 44.53125 46.484375 51.125 
Q 46.484375 57.671875 42.71875 61.234375 
Q 38.96875 64.796875 32.078125 64.796875 
z
M 9.8125 72.90625 
L 32.078125 72.90625 
Q 44.34375 72.90625 50.609375 67.359375 
Q 56.890625 61.8125 56.890625 51.125 
Q 56.890625 40.328125 50.609375 34.8125 
Q 44.34375 29.296875 32.078125 29.296875 
L 19.671875 29.296875 
L 19.671875 0 
L 9.8125 0 
z
" id="DejaVuSans-80"/>
     <path d="M 53.515625 70.515625 
L 53.515625 60.890625 
Q 47.90625 63.578125 42.921875 64.890625 
Q 37.9375 66.21875 33.296875 66.21875 
Q 25.25 66.21875 20.875 63.09375 
Q 16.5 59.96875 16.5 54.203125 
Q 16.5 49.359375 19.40625 46.890625 
Q 22.3125 44.4375 30.421875 42.921875 
L 36.375 41.703125 
Q 47.40625 39.59375 52.65625 34.296875 
Q 57.90625 29 57.90625 20.125 
Q 57.90625 9.515625 50.796875 4.046875 
Q 43.703125 -1.421875 29.984375 -1.421875 
Q 24.8125 -1.421875 18.96875 -0.25 
Q 13.140625 0.921875 6.890625 3.21875 
L 6.890625 13.375 
Q 12.890625 10.015625 18.65625 8.296875 
Q 24.421875 6.59375 29.984375 6.59375 
Q 38.421875 6.59375 43.015625 9.90625 
Q 47.609375 13.234375 47.609375 19.390625 
Q 47.609375 24.75 44.3125 27.78125 
Q 41.015625 30.8125 33.5 32.328125 
L 27.484375 33.5 
Q 16.453125 35.6875 11.515625 40.375 
Q 6.59375 45.0625 6.59375 53.421875 
Q 6.59375 63.09375 13.40625 68.65625 
Q 20.21875 74.21875 32.171875 74.21875 
Q 37.3125 74.21875 42.625 73.28125 
Q 47.953125 72.359375 53.515625 70.515625 
z
" id="DejaVuSans-83"/>
    </defs>
    <g transform="translate(255.031719 50.8512)scale(0.22 -0.22)">
     <use xlink:href="#DejaVuSans-65"/>
     <use x="68.392578" xlink:href="#DejaVuSans-99"/>
     <use x="123.373047" xlink:href="#DejaVuSans-116"/>
     <use x="162.582031" xlink:href="#DejaVuSans-105"/>
     <use x="190.365234" xlink:href="#DejaVuSans-118"/>
     <use x="249.544922" xlink:href="#DejaVuSans-105"/>
     <use x="277.328125" xlink:href="#DejaVuSans-116"/>
     <use x="316.537109" xlink:href="#DejaVuSans-121"/>
     <use x="375.716797" xlink:href="#DejaVuSans-32"/>
     <use x="407.503906" xlink:href="#DejaVuSans-111"/>
     <use x="468.685547" xlink:href="#DejaVuSans-102"/>
     <use x="503.890625" xlink:href="#DejaVuSans-32"/>
     <use x="535.677734" xlink:href="#DejaVuSans-69"/>
     <use x="598.861328" xlink:href="#DejaVuSans-118"/>
     <use x="658.041016" xlink:href="#DejaVuSans-111"/>
     <use x="719.222656" xlink:href="#DejaVuSans-108"/>
     <use x="747.005859" xlink:href="#DejaVuSans-118"/>
     <use x="806.185547" xlink:href="#DejaVuSans-101"/>
     <use x="867.708984" xlink:href="#DejaVuSans-100"/>
     <use x="931.185547" xlink:href="#DejaVuSans-32"/>
     <use x="962.972656" xlink:href="#DejaVuSans-84"/>
     <use x="1024.056641" xlink:href="#DejaVuSans-72"/>
     <use x="1099.251953" xlink:href="#DejaVuSans-80"/>
     <use x="1159.554688" xlink:href="#DejaVuSans-32"/>
     <use x="1191.341797" xlink:href="#DejaVuSans-83"/>
     <use x="1254.818359" xlink:href="#DejaVuSans-121"/>
     <use x="1313.998047" xlink:href="#DejaVuSans-110"/>
     <use x="1377.376953" xlink:href="#DejaVuSans-116"/>
     <use x="1416.585938" xlink:href="#DejaVuSans-104"/>
     <use x="1479.964844" xlink:href="#DejaVuSans-97"/>
     <use x="1541.244141" xlink:href="#DejaVuSans-115"/>
     <use x="1593.34375" xlink:href="#DejaVuSans-101"/>
     <use x="1654.867188" xlink:href="#DejaVuSans-115"/>
    </g>
   </g>
   <g id="legend_1">
    <g id="patch_26">
     <path d="M 122 159.279325 
L 246.453125 159.279325 
Q 250.453125 159.279325 250.453125 155.279325 
L 250.453125 70.8512 
Q 250.453125 66.8512 246.453125 66.8512 
L 122 66.8512 
Q 118 66.8512 118 70.8512 
L 118 155.279325 
Q 118 159.279325 122 159.279325 
z
" style="fill:#ffffff;opacity:0.8;stroke:#cccccc;stroke-linejoin:miter;"/>
    </g>
    <g id="patch_27">
     <path d="M 126 89.65745 
L 166 89.65745 
L 166 75.65745 
L 126 75.65745 
z
" style="fill:#0872fc;stroke:#000000;stroke-linejoin:miter;"/>
    </g>
    <g id="text_19">
     <!-- 0 uM -->
     <defs>
      <path d="M 41.890625 37.5 
Q 41.890625 66.5 27.4375 66.5 
Q 12.984375 66.5 12.984375 37.203125 
Q 12.984375 7.515625 27.25 7.515625 
Q 39.265625 7.515625 41.3125 27.046875 
Q 41.890625 31.734375 41.890625 37.5 
z
M 27.4375 74.421875 
Q 37.890625 74.421875 44.046875 66.5 
Q 50.984375 56.9375 50.984375 36.625 
Q 50.984375 9.1875 37.015625 2.15625 
Q 32.71875 0.09375 27.4375 0.09375 
Q 9.578125 0.09375 5.171875 22.078125 
Q 3.90625 28.71875 3.90625 37.3125 
Q 3.90625 57.125 10.84375 66.5 
Q 16.40625 74.421875 25.984375 74.421875 
z
" id="Gargi-48"/>
      <path id="Gargi-32"/>
      <path d="M 47.171875 2.25 
L 39.546875 2.25 
L 39.546875 9.671875 
Q 33.890625 1.65625 26.375 0.296875 
Q 24.3125 -0.09375 21.78125 -0.09375 
Q 10.9375 -0.09375 6.734375 7.03125 
Q 4.890625 10.25 4.890625 14.453125 
L 4.890625 55.46875 
L 13.28125 55.46875 
L 13.28125 17.78125 
Q 13.28125 10.640625 19.234375 8.203125 
Q 21.484375 7.328125 24.21875 7.328125 
Q 32.90625 7.328125 36.71875 15.234375 
Q 38.765625 19.53125 38.765625 25.296875 
L 38.765625 55.46875 
L 47.171875 55.46875 
z
" id="Gargi-117"/>
      <path d="M 44.828125 0 
L 34.859375 0 
L 13.875 62.015625 
L 13.875 0 
L 4.890625 0 
L 4.890625 74.03125 
L 17.96875 74.03125 
L 39.9375 9.578125 
L 61.421875 74.03125 
L 74.515625 74.03125 
L 74.515625 0 
L 65.625 0 
L 65.625 62.015625 
z
" id="Gargi-77"/>
     </defs>
     <g transform="translate(182 89.65745)scale(0.2 -0.2)">
      <use xlink:href="#Gargi-48"/>
      <use x="54.882812" xlink:href="#Gargi-32"/>
      <use x="79.296875" xlink:href="#Gargi-117"/>
      <use x="131.347656" xlink:href="#Gargi-77"/>
     </g>
    </g>
    <g id="patch_28">
     <path d="M 126 118.466825 
L 166 118.466825 
L 166 104.466825 
L 126 104.466825 
z
" style="fill:#ff9008;stroke:#000000;stroke-linejoin:miter;"/>
    </g>
    <g id="text_20">
     <!-- 10 uM -->
     <defs>
      <path d="M 22.75 51.265625 
L 6.84375 51.265625 
L 6.84375 57.71875 
Q 17.1875 58.984375 20.21875 61.328125 
Q 23.34375 63.578125 25.390625 70.796875 
L 25.875 71.96875 
L 31.734375 71.96875 
L 31.734375 0 
L 22.75 0 
z
" id="Gargi-49"/>
     </defs>
     <g transform="translate(182 118.466825)scale(0.2 -0.2)">
      <use xlink:href="#Gargi-49"/>
      <use x="36.621094" xlink:href="#Gargi-48"/>
      <use x="91.503906" xlink:href="#Gargi-32"/>
      <use x="115.917969" xlink:href="#Gargi-117"/>
      <use x="167.96875" xlink:href="#Gargi-77"/>
     </g>
    </g>
    <g id="patch_29">
     <path d="M 126 147.2762 
L 166 147.2762 
L 166 133.2762 
L 126 133.2762 
z
" style="fill:#fc0808;stroke:#000000;stroke-linejoin:miter;"/>
    </g>
    <g id="text_21">
     <!-- 100 uM -->
     <g transform="translate(182 147.2762)scale(0.2 -0.2)">
      <use xlink:href="#Gargi-49"/>
      <use x="36.621094" xlink:href="#Gargi-48"/>
      <use x="91.503906" xlink:href="#Gargi-48"/>
      <use x="146.386719" xlink:href="#Gargi-32"/>
      <use x="170.800781" xlink:href="#Gargi-117"/>
      <use x="222.851562" xlink:href="#Gargi-77"/>
     </g>
    </g>
   </g>
  </g>
 </g>
 <defs>
  <clipPath id="p4ce8857149">
   <rect height="364.7952" width="669.6" x="108" y="56.8512"/>
  </clipPath>
 </defs>
</svg>
