<?xml version="1.0" encoding="utf-8" standalone="no"?>
<!DOCTYPE svg PUBLIC "-//W3C//DTD SVG 1.1//EN"
  "http://www.w3.org/Graphics/SVG/1.1/DTD/svg11.dtd">
<!-- Created with matplotlib (https://matplotlib.org/) -->
<svg height="312.48pt" version="1.1" viewBox="0 0 976.32 312.48" width="976.32pt" xmlns="http://www.w3.org/2000/svg" xmlns:xlink="http://www.w3.org/1999/xlink">
 <defs>
  <style type="text/css">
*{stroke-linecap:butt;stroke-linejoin:round;}
  </style>
 </defs>
 <g id="figure_1">
  <g id="patch_1">
   <path d="M 0 312.48 
L 976.32 312.48 
L 976.32 0 
L 0 0 
z
" style="fill:#ffffff;"/>
  </g>
  <g id="axes_1">
   <g id="patch_2">
    <path d="M 252.172301 264.125167 
L 724.147699 264.125167 
L 724.147699 27.559 
L 252.172301 27.559 
z
" style="fill:#ffffff;"/>
   </g>
   <g id="patch_3">
    <path clip-path="url(#p98f6619f3a)" d="M 273.625728 264.125167 
L 284.53425 264.125167 
L 284.53425 260.569269 
L 273.625728 260.569269 
z
" style="fill:#757575;stroke:#000000;stroke-linejoin:miter;stroke-width:2;"/>
   </g>
   <g id="patch_4">
    <path clip-path="url(#p98f6619f3a)" d="M 346.34921 264.125167 
L 357.257732 264.125167 
L 357.257732 257.318467 
L 346.34921 257.318467 
z
" style="fill:#757575;stroke:#000000;stroke-linejoin:miter;stroke-width:2;"/>
   </g>
   <g id="patch_5">
    <path clip-path="url(#p98f6619f3a)" d="M 419.072692 264.125167 
L 429.981214 264.125167 
L 429.981214 262.437519 
L 419.072692 262.437519 
z
" style="fill:#757575;stroke:#000000;stroke-linejoin:miter;stroke-width:2;"/>
   </g>
   <g id="patch_6">
    <path clip-path="url(#p98f6619f3a)" d="M 491.796174 264.125167 
L 502.704696 264.125167 
L 502.704696 260.353424 
L 491.796174 260.353424 
z
" style="fill:#757575;stroke:#000000;stroke-linejoin:miter;stroke-width:2;"/>
   </g>
   <g id="patch_7">
    <path clip-path="url(#p98f6619f3a)" d="M 564.519656 264.125167 
L 575.428178 264.125167 
L 575.428178 262.479957 
L 564.519656 262.479957 
z
" style="fill:#757575;stroke:#000000;stroke-linejoin:miter;stroke-width:2;"/>
   </g>
   <g id="patch_8">
    <path clip-path="url(#p98f6619f3a)" d="M 637.243138 264.125167 
L 648.15166 264.125167 
L 648.15166 260.463982 
L 637.243138 260.463982 
z
" style="fill:#757575;stroke:#000000;stroke-linejoin:miter;stroke-width:2;"/>
   </g>
   <g id="patch_9">
    <path clip-path="url(#p98f6619f3a)" d="M 284.53425 264.125167 
L 295.442773 264.125167 
L 295.442773 260.217612 
L 284.53425 260.217612 
z
" style="fill:#7814fc;stroke:#000000;stroke-linejoin:miter;stroke-width:2;"/>
   </g>
   <g id="patch_10">
    <path clip-path="url(#p98f6619f3a)" d="M 357.257732 264.125167 
L 368.166255 264.125167 
L 368.166255 257.040495 
L 357.257732 257.040495 
z
" style="fill:#7814fc;stroke:#000000;stroke-linejoin:miter;stroke-width:2;"/>
   </g>
   <g id="patch_11">
    <path clip-path="url(#p98f6619f3a)" d="M 429.981214 264.125167 
L 440.889737 264.125167 
L 440.889737 262.36647 
L 429.981214 262.36647 
z
" style="fill:#7814fc;stroke:#000000;stroke-linejoin:miter;stroke-width:2;"/>
   </g>
   <g id="patch_12">
    <path clip-path="url(#p98f6619f3a)" d="M 502.704696 264.125167 
L 513.613219 264.125167 
L 513.613219 215.434293 
L 502.704696 215.434293 
z
" style="fill:#7814fc;stroke:#000000;stroke-linejoin:miter;stroke-width:2;"/>
   </g>
   <g id="patch_13">
    <path clip-path="url(#p98f6619f3a)" d="M 575.428178 264.125167 
L 586.336701 264.125167 
L 586.336701 262.583748 
L 575.428178 262.583748 
z
" style="fill:#7814fc;stroke:#000000;stroke-linejoin:miter;stroke-width:2;"/>
   </g>
   <g id="patch_14">
    <path clip-path="url(#p98f6619f3a)" d="M 648.15166 264.125167 
L 659.060183 264.125167 
L 659.060183 259.929453 
L 648.15166 259.929453 
z
" style="fill:#7814fc;stroke:#000000;stroke-linejoin:miter;stroke-width:2;"/>
   </g>
   <g id="patch_15">
    <path clip-path="url(#p98f6619f3a)" d="M 295.442773 264.125167 
L 306.351295 264.125167 
L 306.351295 260.425066 
L 295.442773 260.425066 
z
" style="fill:#d9ce00;stroke:#000000;stroke-linejoin:miter;stroke-width:2;"/>
   </g>
   <g id="patch_16">
    <path clip-path="url(#p98f6619f3a)" d="M 368.166255 264.125167 
L 379.074777 264.125167 
L 379.074777 256.885452 
L 368.166255 256.885452 
z
" style="fill:#d9ce00;stroke:#000000;stroke-linejoin:miter;stroke-width:2;"/>
   </g>
   <g id="patch_17">
    <path clip-path="url(#p98f6619f3a)" d="M 440.889737 264.125167 
L 451.798259 264.125167 
L 451.798259 262.49597 
L 440.889737 262.49597 
z
" style="fill:#d9ce00;stroke:#000000;stroke-linejoin:miter;stroke-width:2;"/>
   </g>
   <g id="patch_18">
    <path clip-path="url(#p98f6619f3a)" d="M 513.613219 264.125167 
L 524.521741 264.125167 
L 524.521741 259.909388 
L 513.613219 259.909388 
z
" style="fill:#d9ce00;stroke:#000000;stroke-linejoin:miter;stroke-width:2;"/>
   </g>
   <g id="patch_19">
    <path clip-path="url(#p98f6619f3a)" d="M 586.336701 264.125167 
L 597.245223 264.125167 
L 597.245223 262.476683 
L 586.336701 262.476683 
z
" style="fill:#d9ce00;stroke:#000000;stroke-linejoin:miter;stroke-width:2;"/>
   </g>
   <g id="patch_20">
    <path clip-path="url(#p98f6619f3a)" d="M 659.060183 264.125167 
L 669.968705 264.125167 
L 669.968705 260.644357 
L 659.060183 260.644357 
z
" style="fill:#d9ce00;stroke:#000000;stroke-linejoin:miter;stroke-width:2;"/>
   </g>
   <g id="patch_21">
    <path clip-path="url(#p98f6619f3a)" d="M 306.351295 264.125167 
L 317.259817 264.125167 
L 317.259817 260.615711 
L 306.351295 260.615711 
z
" style="fill:#ff1900;stroke:#000000;stroke-linejoin:miter;stroke-width:2;"/>
   </g>
   <g id="patch_22">
    <path clip-path="url(#p98f6619f3a)" d="M 379.074777 264.125167 
L 389.983299 264.125167 
L 389.983299 257.316764 
L 379.074777 257.316764 
z
" style="fill:#ff1900;stroke:#000000;stroke-linejoin:miter;stroke-width:2;"/>
   </g>
   <g id="patch_23">
    <path clip-path="url(#p98f6619f3a)" d="M 451.798259 264.125167 
L 462.706781 264.125167 
L 462.706781 262.438518 
L 451.798259 262.438518 
z
" style="fill:#ff1900;stroke:#000000;stroke-linejoin:miter;stroke-width:2;"/>
   </g>
   <g id="patch_24">
    <path clip-path="url(#p98f6619f3a)" d="M 524.521741 264.125167 
L 535.430263 264.125167 
L 535.430263 247.122892 
L 524.521741 247.122892 
z
" style="fill:#ff1900;stroke:#000000;stroke-linejoin:miter;stroke-width:2;"/>
   </g>
   <g id="patch_25">
    <path clip-path="url(#p98f6619f3a)" d="M 597.245223 264.125167 
L 608.153745 264.125167 
L 608.153745 262.543244 
L 597.245223 262.543244 
z
" style="fill:#ff1900;stroke:#000000;stroke-linejoin:miter;stroke-width:2;"/>
   </g>
   <g id="patch_26">
    <path clip-path="url(#p98f6619f3a)" d="M 669.968705 264.125167 
L 680.877227 264.125167 
L 680.877227 260.42426 
L 669.968705 260.42426 
z
" style="fill:#ff1900;stroke:#000000;stroke-linejoin:miter;stroke-width:2;"/>
   </g>
   <g id="patch_27">
    <path clip-path="url(#p98f6619f3a)" d="M 317.259817 264.125167 
L 328.16834 264.125167 
L 328.16834 260.151569 
L 317.259817 260.151569 
z
" style="fill:#25de00;stroke:#000000;stroke-linejoin:miter;stroke-width:2;"/>
   </g>
   <g id="patch_28">
    <path clip-path="url(#p98f6619f3a)" d="M 389.983299 264.125167 
L 400.891822 264.125167 
L 400.891822 256.817657 
L 389.983299 256.817657 
z
" style="fill:#25de00;stroke:#000000;stroke-linejoin:miter;stroke-width:2;"/>
   </g>
   <g id="patch_29">
    <path clip-path="url(#p98f6619f3a)" d="M 462.706781 264.125167 
L 473.615304 264.125167 
L 473.615304 261.882628 
L 462.706781 261.882628 
z
" style="fill:#25de00;stroke:#000000;stroke-linejoin:miter;stroke-width:2;"/>
   </g>
   <g id="patch_30">
    <path clip-path="url(#p98f6619f3a)" d="M 535.430263 264.125167 
L 546.338786 264.125167 
L 546.338786 250.591571 
L 535.430263 250.591571 
z
" style="fill:#25de00;stroke:#000000;stroke-linejoin:miter;stroke-width:2;"/>
   </g>
   <g id="patch_31">
    <path clip-path="url(#p98f6619f3a)" d="M 608.153745 264.125167 
L 619.062268 264.125167 
L 619.062268 262.419164 
L 608.153745 262.419164 
z
" style="fill:#25de00;stroke:#000000;stroke-linejoin:miter;stroke-width:2;"/>
   </g>
   <g id="patch_32">
    <path clip-path="url(#p98f6619f3a)" d="M 680.877227 264.125167 
L 691.78575 264.125167 
L 691.78575 260.444209 
L 680.877227 260.444209 
z
" style="fill:#25de00;stroke:#000000;stroke-linejoin:miter;stroke-width:2;"/>
   </g>
   <g id="patch_33">
    <path clip-path="url(#p98f6619f3a)" d="M 328.16834 264.125167 
L 339.076862 264.125167 
L 339.076862 260.164381 
L 328.16834 260.164381 
z
" style="fill:#ff910a;stroke:#000000;stroke-linejoin:miter;stroke-width:2;"/>
   </g>
   <g id="patch_34">
    <path clip-path="url(#p98f6619f3a)" d="M 400.891822 264.125167 
L 411.800344 264.125167 
L 411.800344 257.164441 
L 400.891822 257.164441 
z
" style="fill:#ff910a;stroke:#000000;stroke-linejoin:miter;stroke-width:2;"/>
   </g>
   <g id="patch_35">
    <path clip-path="url(#p98f6619f3a)" d="M 473.615304 264.125167 
L 484.523826 264.125167 
L 484.523826 262.111818 
L 473.615304 262.111818 
z
" style="fill:#ff910a;stroke:#000000;stroke-linejoin:miter;stroke-width:2;"/>
   </g>
   <g id="patch_36">
    <path clip-path="url(#p98f6619f3a)" d="M 546.338786 264.125167 
L 557.247308 264.125167 
L 557.247308 42.556136 
L 546.338786 42.556136 
z
" style="fill:#ff910a;stroke:#000000;stroke-linejoin:miter;stroke-width:2;"/>
   </g>
   <g id="patch_37">
    <path clip-path="url(#p98f6619f3a)" d="M 619.062268 264.125167 
L 629.97079 264.125167 
L 629.97079 262.608295 
L 619.062268 262.608295 
z
" style="fill:#ff910a;stroke:#000000;stroke-linejoin:miter;stroke-width:2;"/>
   </g>
   <g id="patch_38">
    <path clip-path="url(#p98f6619f3a)" d="M 691.78575 264.125167 
L 702.694272 264.125167 
L 702.694272 259.604619 
L 691.78575 259.604619 
z
" style="fill:#ff910a;stroke:#000000;stroke-linejoin:miter;stroke-width:2;"/>
   </g>
   <g id="LineCollection_1">
    <path clip-path="url(#p98f6619f3a)" d="M 279.079989 260.633532 
L 279.079989 260.505006 
" style="fill:none;stroke:#000000;"/>
    <path clip-path="url(#p98f6619f3a)" d="M 351.803471 257.656663 
L 351.803471 256.980271 
" style="fill:none;stroke:#000000;"/>
    <path clip-path="url(#p98f6619f3a)" d="M 424.526953 262.505835 
L 424.526953 262.369204 
" style="fill:none;stroke:#000000;"/>
    <path clip-path="url(#p98f6619f3a)" d="M 497.250435 260.456042 
L 497.250435 260.250805 
" style="fill:none;stroke:#000000;"/>
    <path clip-path="url(#p98f6619f3a)" d="M 569.973917 262.535622 
L 569.973917 262.424291 
" style="fill:none;stroke:#000000;"/>
    <path clip-path="url(#p98f6619f3a)" d="M 642.697399 260.608601 
L 642.697399 260.319363 
" style="fill:none;stroke:#000000;"/>
   </g>
   <g id="LineCollection_2">
    <path clip-path="url(#p98f6619f3a)" d="M 289.988511 260.292268 
L 289.988511 260.142956 
" style="fill:none;stroke:#000000;"/>
    <path clip-path="url(#p98f6619f3a)" d="M 362.711993 257.607769 
L 362.711993 256.47322 
" style="fill:none;stroke:#000000;"/>
    <path clip-path="url(#p98f6619f3a)" d="M 435.435476 262.416953 
L 435.435476 262.315987 
" style="fill:none;stroke:#000000;"/>
    <path clip-path="url(#p98f6619f3a)" d="M 508.158958 218.54572 
L 508.158958 212.322867 
" style="fill:none;stroke:#000000;"/>
    <path clip-path="url(#p98f6619f3a)" d="M 580.88244 262.683743 
L 580.88244 262.483753 
" style="fill:none;stroke:#000000;"/>
    <path clip-path="url(#p98f6619f3a)" d="M 653.605922 260.057873 
L 653.605922 259.801032 
" style="fill:none;stroke:#000000;"/>
   </g>
   <g id="LineCollection_3">
    <path clip-path="url(#p98f6619f3a)" d="M 300.897034 260.513227 
L 300.897034 260.336905 
" style="fill:none;stroke:#000000;"/>
    <path clip-path="url(#p98f6619f3a)" d="M 373.620516 257.144183 
L 373.620516 256.62672 
" style="fill:none;stroke:#000000;"/>
    <path clip-path="url(#p98f6619f3a)" d="M 446.343998 262.517241 
L 446.343998 262.474699 
" style="fill:none;stroke:#000000;"/>
    <path clip-path="url(#p98f6619f3a)" d="M 519.06748 260.052889 
L 519.06748 259.765888 
" style="fill:none;stroke:#000000;"/>
    <path clip-path="url(#p98f6619f3a)" d="M 591.790962 262.559809 
L 591.790962 262.393556 
" style="fill:none;stroke:#000000;"/>
    <path clip-path="url(#p98f6619f3a)" d="M 664.514444 260.708697 
L 664.514444 260.580017 
" style="fill:none;stroke:#000000;"/>
   </g>
   <g id="LineCollection_4">
    <path clip-path="url(#p98f6619f3a)" d="M 311.805556 260.692995 
L 311.805556 260.538427 
" style="fill:none;stroke:#000000;"/>
    <path clip-path="url(#p98f6619f3a)" d="M 384.529038 258.090026 
L 384.529038 256.543502 
" style="fill:none;stroke:#000000;"/>
    <path clip-path="url(#p98f6619f3a)" d="M 457.25252 262.496514 
L 457.25252 262.380521 
" style="fill:none;stroke:#000000;"/>
    <path clip-path="url(#p98f6619f3a)" d="M 529.976002 249.96758 
L 529.976002 244.278204 
" style="fill:none;stroke:#000000;"/>
    <path clip-path="url(#p98f6619f3a)" d="M 602.699484 262.607161 
L 602.699484 262.479326 
" style="fill:none;stroke:#000000;"/>
    <path clip-path="url(#p98f6619f3a)" d="M 675.422966 260.542258 
L 675.422966 260.306261 
" style="fill:none;stroke:#000000;"/>
   </g>
   <g id="LineCollection_5">
    <path clip-path="url(#p98f6619f3a)" d="M 322.714078 260.370587 
L 322.714078 259.932551 
" style="fill:none;stroke:#000000;"/>
    <path clip-path="url(#p98f6619f3a)" d="M 395.43756 257.066882 
L 395.43756 256.568432 
" style="fill:none;stroke:#000000;"/>
    <path clip-path="url(#p98f6619f3a)" d="M 468.161042 262.126536 
L 468.161042 261.63872 
" style="fill:none;stroke:#000000;"/>
    <path clip-path="url(#p98f6619f3a)" d="M 540.884524 252.1142 
L 540.884524 249.068943 
" style="fill:none;stroke:#000000;"/>
    <path clip-path="url(#p98f6619f3a)" d="M 613.608007 262.442581 
L 613.608007 262.395746 
" style="fill:none;stroke:#000000;"/>
    <path clip-path="url(#p98f6619f3a)" d="M 686.331489 260.533591 
L 686.331489 260.354828 
" style="fill:none;stroke:#000000;"/>
   </g>
   <g id="LineCollection_6">
    <path clip-path="url(#p98f6619f3a)" d="M 333.622601 260.192668 
L 333.622601 260.136094 
" style="fill:none;stroke:#000000;"/>
    <path clip-path="url(#p98f6619f3a)" d="M 406.346083 257.573885 
L 406.346083 256.754997 
" style="fill:none;stroke:#000000;"/>
    <path clip-path="url(#p98f6619f3a)" d="M 479.069565 262.151144 
L 479.069565 262.072491 
" style="fill:none;stroke:#000000;"/>
    <path clip-path="url(#p98f6619f3a)" d="M 551.793047 46.288217 
L 551.793047 38.824056 
" style="fill:none;stroke:#000000;"/>
    <path clip-path="url(#p98f6619f3a)" d="M 624.516529 262.646918 
L 624.516529 262.569672 
" style="fill:none;stroke:#000000;"/>
    <path clip-path="url(#p98f6619f3a)" d="M 697.240011 259.701185 
L 697.240011 259.508053 
" style="fill:none;stroke:#000000;"/>
   </g>
   <g id="line2d_1">
    <defs>
     <path d="M 5 0 
L -5 -0 
" id="m7d6b34f712" style="stroke:#000000;"/>
    </defs>
    <g clip-path="url(#p98f6619f3a)">
     <use style="stroke:#000000;" x="279.079989" xlink:href="#m7d6b34f712" y="260.633532"/>
     <use style="stroke:#000000;" x="351.803471" xlink:href="#m7d6b34f712" y="257.656663"/>
     <use style="stroke:#000000;" x="424.526953" xlink:href="#m7d6b34f712" y="262.505835"/>
     <use style="stroke:#000000;" x="497.250435" xlink:href="#m7d6b34f712" y="260.456042"/>
     <use style="stroke:#000000;" x="569.973917" xlink:href="#m7d6b34f712" y="262.535622"/>
     <use style="stroke:#000000;" x="642.697399" xlink:href="#m7d6b34f712" y="260.608601"/>
    </g>
   </g>
   <g id="line2d_2">
    <g clip-path="url(#p98f6619f3a)">
     <use style="stroke:#000000;" x="279.079989" xlink:href="#m7d6b34f712" y="260.505006"/>
     <use style="stroke:#000000;" x="351.803471" xlink:href="#m7d6b34f712" y="256.980271"/>
     <use style="stroke:#000000;" x="424.526953" xlink:href="#m7d6b34f712" y="262.369204"/>
     <use style="stroke:#000000;" x="497.250435" xlink:href="#m7d6b34f712" y="260.250805"/>
     <use style="stroke:#000000;" x="569.973917" xlink:href="#m7d6b34f712" y="262.424291"/>
     <use style="stroke:#000000;" x="642.697399" xlink:href="#m7d6b34f712" y="260.319363"/>
    </g>
   </g>
   <g id="line2d_3">
    <g clip-path="url(#p98f6619f3a)">
     <use style="stroke:#000000;" x="289.988511" xlink:href="#m7d6b34f712" y="260.292268"/>
     <use style="stroke:#000000;" x="362.711993" xlink:href="#m7d6b34f712" y="257.607769"/>
     <use style="stroke:#000000;" x="435.435476" xlink:href="#m7d6b34f712" y="262.416953"/>
     <use style="stroke:#000000;" x="508.158958" xlink:href="#m7d6b34f712" y="218.54572"/>
     <use style="stroke:#000000;" x="580.88244" xlink:href="#m7d6b34f712" y="262.683743"/>
     <use style="stroke:#000000;" x="653.605922" xlink:href="#m7d6b34f712" y="260.057873"/>
    </g>
   </g>
   <g id="line2d_4">
    <g clip-path="url(#p98f6619f3a)">
     <use style="stroke:#000000;" x="289.988511" xlink:href="#m7d6b34f712" y="260.142956"/>
     <use style="stroke:#000000;" x="362.711993" xlink:href="#m7d6b34f712" y="256.47322"/>
     <use style="stroke:#000000;" x="435.435476" xlink:href="#m7d6b34f712" y="262.315987"/>
     <use style="stroke:#000000;" x="508.158958" xlink:href="#m7d6b34f712" y="212.322867"/>
     <use style="stroke:#000000;" x="580.88244" xlink:href="#m7d6b34f712" y="262.483753"/>
     <use style="stroke:#000000;" x="653.605922" xlink:href="#m7d6b34f712" y="259.801032"/>
    </g>
   </g>
   <g id="line2d_5">
    <g clip-path="url(#p98f6619f3a)">
     <use style="stroke:#000000;" x="300.897034" xlink:href="#m7d6b34f712" y="260.513227"/>
     <use style="stroke:#000000;" x="373.620516" xlink:href="#m7d6b34f712" y="257.144183"/>
     <use style="stroke:#000000;" x="446.343998" xlink:href="#m7d6b34f712" y="262.517241"/>
     <use style="stroke:#000000;" x="519.06748" xlink:href="#m7d6b34f712" y="260.052889"/>
     <use style="stroke:#000000;" x="591.790962" xlink:href="#m7d6b34f712" y="262.559809"/>
     <use style="stroke:#000000;" x="664.514444" xlink:href="#m7d6b34f712" y="260.708697"/>
    </g>
   </g>
   <g id="line2d_6">
    <g clip-path="url(#p98f6619f3a)">
     <use style="stroke:#000000;" x="300.897034" xlink:href="#m7d6b34f712" y="260.336905"/>
     <use style="stroke:#000000;" x="373.620516" xlink:href="#m7d6b34f712" y="256.62672"/>
     <use style="stroke:#000000;" x="446.343998" xlink:href="#m7d6b34f712" y="262.474699"/>
     <use style="stroke:#000000;" x="519.06748" xlink:href="#m7d6b34f712" y="259.765888"/>
     <use style="stroke:#000000;" x="591.790962" xlink:href="#m7d6b34f712" y="262.393556"/>
     <use style="stroke:#000000;" x="664.514444" xlink:href="#m7d6b34f712" y="260.580017"/>
    </g>
   </g>
   <g id="line2d_7">
    <g clip-path="url(#p98f6619f3a)">
     <use style="stroke:#000000;" x="311.805556" xlink:href="#m7d6b34f712" y="260.692995"/>
     <use style="stroke:#000000;" x="384.529038" xlink:href="#m7d6b34f712" y="258.090026"/>
     <use style="stroke:#000000;" x="457.25252" xlink:href="#m7d6b34f712" y="262.496514"/>
     <use style="stroke:#000000;" x="529.976002" xlink:href="#m7d6b34f712" y="249.96758"/>
     <use style="stroke:#000000;" x="602.699484" xlink:href="#m7d6b34f712" y="262.607161"/>
     <use style="stroke:#000000;" x="675.422966" xlink:href="#m7d6b34f712" y="260.542258"/>
    </g>
   </g>
   <g id="line2d_8">
    <g clip-path="url(#p98f6619f3a)">
     <use style="stroke:#000000;" x="311.805556" xlink:href="#m7d6b34f712" y="260.538427"/>
     <use style="stroke:#000000;" x="384.529038" xlink:href="#m7d6b34f712" y="256.543502"/>
     <use style="stroke:#000000;" x="457.25252" xlink:href="#m7d6b34f712" y="262.380521"/>
     <use style="stroke:#000000;" x="529.976002" xlink:href="#m7d6b34f712" y="244.278204"/>
     <use style="stroke:#000000;" x="602.699484" xlink:href="#m7d6b34f712" y="262.479326"/>
     <use style="stroke:#000000;" x="675.422966" xlink:href="#m7d6b34f712" y="260.306261"/>
    </g>
   </g>
   <g id="line2d_9">
    <g clip-path="url(#p98f6619f3a)">
     <use style="stroke:#000000;" x="322.714078" xlink:href="#m7d6b34f712" y="260.370587"/>
     <use style="stroke:#000000;" x="395.43756" xlink:href="#m7d6b34f712" y="257.066882"/>
     <use style="stroke:#000000;" x="468.161042" xlink:href="#m7d6b34f712" y="262.126536"/>
     <use style="stroke:#000000;" x="540.884524" xlink:href="#m7d6b34f712" y="252.1142"/>
     <use style="stroke:#000000;" x="613.608007" xlink:href="#m7d6b34f712" y="262.442581"/>
     <use style="stroke:#000000;" x="686.331489" xlink:href="#m7d6b34f712" y="260.533591"/>
    </g>
   </g>
   <g id="line2d_10">
    <g clip-path="url(#p98f6619f3a)">
     <use style="stroke:#000000;" x="322.714078" xlink:href="#m7d6b34f712" y="259.932551"/>
     <use style="stroke:#000000;" x="395.43756" xlink:href="#m7d6b34f712" y="256.568432"/>
     <use style="stroke:#000000;" x="468.161042" xlink:href="#m7d6b34f712" y="261.63872"/>
     <use style="stroke:#000000;" x="540.884524" xlink:href="#m7d6b34f712" y="249.068943"/>
     <use style="stroke:#000000;" x="613.608007" xlink:href="#m7d6b34f712" y="262.395746"/>
     <use style="stroke:#000000;" x="686.331489" xlink:href="#m7d6b34f712" y="260.354828"/>
    </g>
   </g>
   <g id="line2d_11">
    <g clip-path="url(#p98f6619f3a)">
     <use style="stroke:#000000;" x="333.622601" xlink:href="#m7d6b34f712" y="260.192668"/>
     <use style="stroke:#000000;" x="406.346083" xlink:href="#m7d6b34f712" y="257.573885"/>
     <use style="stroke:#000000;" x="479.069565" xlink:href="#m7d6b34f712" y="262.151144"/>
     <use style="stroke:#000000;" x="551.793047" xlink:href="#m7d6b34f712" y="46.288217"/>
     <use style="stroke:#000000;" x="624.516529" xlink:href="#m7d6b34f712" y="262.646918"/>
     <use style="stroke:#000000;" x="697.240011" xlink:href="#m7d6b34f712" y="259.701185"/>
    </g>
   </g>
   <g id="line2d_12">
    <g clip-path="url(#p98f6619f3a)">
     <use style="stroke:#000000;" x="333.622601" xlink:href="#m7d6b34f712" y="260.136094"/>
     <use style="stroke:#000000;" x="406.346083" xlink:href="#m7d6b34f712" y="256.754997"/>
     <use style="stroke:#000000;" x="479.069565" xlink:href="#m7d6b34f712" y="262.072491"/>
     <use style="stroke:#000000;" x="551.793047" xlink:href="#m7d6b34f712" y="38.824056"/>
     <use style="stroke:#000000;" x="624.516529" xlink:href="#m7d6b34f712" y="262.569672"/>
     <use style="stroke:#000000;" x="697.240011" xlink:href="#m7d6b34f712" y="259.508053"/>
    </g>
   </g>
   <g id="matplotlib.axis_1">
    <g id="xtick_1">
     <g id="line2d_13">
      <defs>
       <path d="M 0 0 
L 0 3.5 
" id="md2e270c1c7" style="stroke:#000000;stroke-width:0.8;"/>
      </defs>
      <g>
       <use style="stroke:#000000;stroke-width:0.8;" x="300.897034" xlink:href="#md2e270c1c7" y="264.125167"/>
      </g>
     </g>
     <g id="text_1">
      <!-- Bm3R1 -->
      <defs>
       <path d="M 19.671875 34.8125 
L 19.671875 8.109375 
L 35.5 8.109375 
Q 43.453125 8.109375 47.28125 11.40625 
Q 51.125 14.703125 51.125 21.484375 
Q 51.125 28.328125 47.28125 31.5625 
Q 43.453125 34.8125 35.5 34.8125 
z
M 19.671875 64.796875 
L 19.671875 42.828125 
L 34.28125 42.828125 
Q 41.5 42.828125 45.03125 45.53125 
Q 48.578125 48.25 48.578125 53.8125 
Q 48.578125 59.328125 45.03125 62.0625 
Q 41.5 64.796875 34.28125 64.796875 
z
M 9.8125 72.90625 
L 35.015625 72.90625 
Q 46.296875 72.90625 52.390625 68.21875 
Q 58.5 63.53125 58.5 54.890625 
Q 58.5 48.1875 55.375 44.234375 
Q 52.25 40.28125 46.1875 39.3125 
Q 53.46875 37.75 57.5 32.78125 
Q 61.53125 27.828125 61.53125 20.40625 
Q 61.53125 10.640625 54.890625 5.3125 
Q 48.25 0 35.984375 0 
L 9.8125 0 
z
" id="DejaVuSans-66"/>
       <path d="M 52 44.1875 
Q 55.375 50.25 60.0625 53.125 
Q 64.75 56 71.09375 56 
Q 79.640625 56 84.28125 50.015625 
Q 88.921875 44.046875 88.921875 33.015625 
L 88.921875 0 
L 79.890625 0 
L 79.890625 32.71875 
Q 79.890625 40.578125 77.09375 44.375 
Q 74.3125 48.1875 68.609375 48.1875 
Q 61.625 48.1875 57.5625 43.546875 
Q 53.515625 38.921875 53.515625 30.90625 
L 53.515625 0 
L 44.484375 0 
L 44.484375 32.71875 
Q 44.484375 40.625 41.703125 44.40625 
Q 38.921875 48.1875 33.109375 48.1875 
Q 26.21875 48.1875 22.15625 43.53125 
Q 18.109375 38.875 18.109375 30.90625 
L 18.109375 0 
L 9.078125 0 
L 9.078125 54.6875 
L 18.109375 54.6875 
L 18.109375 46.1875 
Q 21.1875 51.21875 25.484375 53.609375 
Q 29.78125 56 35.6875 56 
Q 41.65625 56 45.828125 52.96875 
Q 50 49.953125 52 44.1875 
z
" id="DejaVuSans-109"/>
       <path d="M 40.578125 39.3125 
Q 47.65625 37.796875 51.625 33 
Q 55.609375 28.21875 55.609375 21.1875 
Q 55.609375 10.40625 48.1875 4.484375 
Q 40.765625 -1.421875 27.09375 -1.421875 
Q 22.515625 -1.421875 17.65625 -0.515625 
Q 12.796875 0.390625 7.625 2.203125 
L 7.625 11.71875 
Q 11.71875 9.328125 16.59375 8.109375 
Q 21.484375 6.890625 26.8125 6.890625 
Q 36.078125 6.890625 40.9375 10.546875 
Q 45.796875 14.203125 45.796875 21.1875 
Q 45.796875 27.640625 41.28125 31.265625 
Q 36.765625 34.90625 28.71875 34.90625 
L 20.21875 34.90625 
L 20.21875 43.015625 
L 29.109375 43.015625 
Q 36.375 43.015625 40.234375 45.921875 
Q 44.09375 48.828125 44.09375 54.296875 
Q 44.09375 59.90625 40.109375 62.90625 
Q 36.140625 65.921875 28.71875 65.921875 
Q 24.65625 65.921875 20.015625 65.03125 
Q 15.375 64.15625 9.8125 62.3125 
L 9.8125 71.09375 
Q 15.4375 72.65625 20.34375 73.4375 
Q 25.25 74.21875 29.59375 74.21875 
Q 40.828125 74.21875 47.359375 69.109375 
Q 53.90625 64.015625 53.90625 55.328125 
Q 53.90625 49.265625 50.4375 45.09375 
Q 46.96875 40.921875 40.578125 39.3125 
z
" id="DejaVuSans-51"/>
       <path d="M 44.390625 34.1875 
Q 47.5625 33.109375 50.5625 29.59375 
Q 53.5625 26.078125 56.59375 19.921875 
L 66.609375 0 
L 56 0 
L 46.6875 18.703125 
Q 43.0625 26.03125 39.671875 28.421875 
Q 36.28125 30.8125 30.421875 30.8125 
L 19.671875 30.8125 
L 19.671875 0 
L 9.8125 0 
L 9.8125 72.90625 
L 32.078125 72.90625 
Q 44.578125 72.90625 50.734375 67.671875 
Q 56.890625 62.453125 56.890625 51.90625 
Q 56.890625 45.015625 53.6875 40.46875 
Q 50.484375 35.9375 44.390625 34.1875 
z
M 19.671875 64.796875 
L 19.671875 38.921875 
L 32.078125 38.921875 
Q 39.203125 38.921875 42.84375 42.21875 
Q 46.484375 45.515625 46.484375 51.90625 
Q 46.484375 58.296875 42.84375 61.546875 
Q 39.203125 64.796875 32.078125 64.796875 
z
" id="DejaVuSans-82"/>
       <path d="M 12.40625 8.296875 
L 28.515625 8.296875 
L 28.515625 63.921875 
L 10.984375 60.40625 
L 10.984375 69.390625 
L 28.421875 72.90625 
L 38.28125 72.90625 
L 38.28125 8.296875 
L 54.390625 8.296875 
L 54.390625 0 
L 12.40625 0 
z
" id="DejaVuSans-49"/>
      </defs>
      <g transform="translate(271.877034 283.282667)scale(0.16 -0.16)">
       <use xlink:href="#DejaVuSans-66"/>
       <use x="68.603516" xlink:href="#DejaVuSans-109"/>
       <use x="166.015625" xlink:href="#DejaVuSans-51"/>
       <use x="229.638672" xlink:href="#DejaVuSans-82"/>
       <use x="299.121094" xlink:href="#DejaVuSans-49"/>
      </g>
     </g>
    </g>
    <g id="xtick_2">
     <g id="line2d_14">
      <g>
       <use style="stroke:#000000;stroke-width:0.8;" x="373.620516" xlink:href="#md2e270c1c7" y="264.125167"/>
      </g>
     </g>
     <g id="text_2">
      <!-- NalD -->
      <defs>
       <path d="M 9.8125 72.90625 
L 23.09375 72.90625 
L 55.421875 11.921875 
L 55.421875 72.90625 
L 64.984375 72.90625 
L 64.984375 0 
L 51.703125 0 
L 19.390625 60.984375 
L 19.390625 0 
L 9.8125 0 
z
" id="DejaVuSans-78"/>
       <path d="M 34.28125 27.484375 
Q 23.390625 27.484375 19.1875 25 
Q 14.984375 22.515625 14.984375 16.5 
Q 14.984375 11.71875 18.140625 8.90625 
Q 21.296875 6.109375 26.703125 6.109375 
Q 34.1875 6.109375 38.703125 11.40625 
Q 43.21875 16.703125 43.21875 25.484375 
L 43.21875 27.484375 
z
M 52.203125 31.203125 
L 52.203125 0 
L 43.21875 0 
L 43.21875 8.296875 
Q 40.140625 3.328125 35.546875 0.953125 
Q 30.953125 -1.421875 24.3125 -1.421875 
Q 15.921875 -1.421875 10.953125 3.296875 
Q 6 8.015625 6 15.921875 
Q 6 25.140625 12.171875 29.828125 
Q 18.359375 34.515625 30.609375 34.515625 
L 43.21875 34.515625 
L 43.21875 35.40625 
Q 43.21875 41.609375 39.140625 45 
Q 35.0625 48.390625 27.6875 48.390625 
Q 23 48.390625 18.546875 47.265625 
Q 14.109375 46.140625 10.015625 43.890625 
L 10.015625 52.203125 
Q 14.9375 54.109375 19.578125 55.046875 
Q 24.21875 56 28.609375 56 
Q 40.484375 56 46.34375 49.84375 
Q 52.203125 43.703125 52.203125 31.203125 
z
" id="DejaVuSans-97"/>
       <path d="M 9.421875 75.984375 
L 18.40625 75.984375 
L 18.40625 0 
L 9.421875 0 
z
" id="DejaVuSans-108"/>
       <path d="M 19.671875 64.796875 
L 19.671875 8.109375 
L 31.59375 8.109375 
Q 46.6875 8.109375 53.6875 14.9375 
Q 60.6875 21.78125 60.6875 36.53125 
Q 60.6875 51.171875 53.6875 57.984375 
Q 46.6875 64.796875 31.59375 64.796875 
z
M 9.8125 72.90625 
L 30.078125 72.90625 
Q 51.265625 72.90625 61.171875 64.09375 
Q 71.09375 55.28125 71.09375 36.53125 
Q 71.09375 17.671875 61.125 8.828125 
Q 51.171875 0 30.078125 0 
L 9.8125 0 
z
" id="DejaVuSans-68"/>
      </defs>
      <g transform="translate(354.350516 283.282667)scale(0.16 -0.16)">
       <use xlink:href="#DejaVuSans-78"/>
       <use x="74.804688" xlink:href="#DejaVuSans-97"/>
       <use x="136.083984" xlink:href="#DejaVuSans-108"/>
       <use x="163.867188" xlink:href="#DejaVuSans-68"/>
      </g>
     </g>
    </g>
    <g id="xtick_3">
     <g id="line2d_15">
      <g>
       <use style="stroke:#000000;stroke-width:0.8;" x="446.343998" xlink:href="#md2e270c1c7" y="264.125167"/>
      </g>
     </g>
     <g id="text_3">
      <!-- QacR -->
      <defs>
       <path d="M 39.40625 66.21875 
Q 28.65625 66.21875 22.328125 58.203125 
Q 16.015625 50.203125 16.015625 36.375 
Q 16.015625 22.609375 22.328125 14.59375 
Q 28.65625 6.59375 39.40625 6.59375 
Q 50.140625 6.59375 56.421875 14.59375 
Q 62.703125 22.609375 62.703125 36.375 
Q 62.703125 50.203125 56.421875 58.203125 
Q 50.140625 66.21875 39.40625 66.21875 
z
M 53.21875 1.3125 
L 66.21875 -12.890625 
L 54.296875 -12.890625 
L 43.5 -1.21875 
Q 41.890625 -1.3125 41.03125 -1.359375 
Q 40.1875 -1.421875 39.40625 -1.421875 
Q 24.03125 -1.421875 14.8125 8.859375 
Q 5.609375 19.140625 5.609375 36.375 
Q 5.609375 53.65625 14.8125 63.9375 
Q 24.03125 74.21875 39.40625 74.21875 
Q 54.734375 74.21875 63.90625 63.9375 
Q 73.09375 53.65625 73.09375 36.375 
Q 73.09375 23.6875 67.984375 14.640625 
Q 62.890625 5.609375 53.21875 1.3125 
z
" id="DejaVuSans-81"/>
       <path d="M 48.78125 52.59375 
L 48.78125 44.1875 
Q 44.96875 46.296875 41.140625 47.34375 
Q 37.3125 48.390625 33.40625 48.390625 
Q 24.65625 48.390625 19.8125 42.84375 
Q 14.984375 37.3125 14.984375 27.296875 
Q 14.984375 17.28125 19.8125 11.734375 
Q 24.65625 6.203125 33.40625 6.203125 
Q 37.3125 6.203125 41.140625 7.25 
Q 44.96875 8.296875 48.78125 10.40625 
L 48.78125 2.09375 
Q 45.015625 0.34375 40.984375 -0.53125 
Q 36.96875 -1.421875 32.421875 -1.421875 
Q 20.0625 -1.421875 12.78125 6.34375 
Q 5.515625 14.109375 5.515625 27.296875 
Q 5.515625 40.671875 12.859375 48.328125 
Q 20.21875 56 33.015625 56 
Q 37.15625 56 41.109375 55.140625 
Q 45.0625 54.296875 48.78125 52.59375 
z
" id="DejaVuSans-99"/>
      </defs>
      <g transform="translate(425.186498 283.282667)scale(0.16 -0.16)">
       <use xlink:href="#DejaVuSans-81"/>
       <use x="78.710938" xlink:href="#DejaVuSans-97"/>
       <use x="139.990234" xlink:href="#DejaVuSans-99"/>
       <use x="194.970703" xlink:href="#DejaVuSans-82"/>
      </g>
     </g>
    </g>
    <g id="xtick_4">
     <g id="line2d_16">
      <g>
       <use style="stroke:#000000;stroke-width:0.8;" x="519.06748" xlink:href="#md2e270c1c7" y="264.125167"/>
      </g>
     </g>
     <g id="text_4">
      <!-- RamR -->
      <g transform="translate(495.25748 283.282667)scale(0.16 -0.16)">
       <use xlink:href="#DejaVuSans-82"/>
       <use x="69.451172" xlink:href="#DejaVuSans-97"/>
       <use x="130.730469" xlink:href="#DejaVuSans-109"/>
       <use x="228.142578" xlink:href="#DejaVuSans-82"/>
      </g>
     </g>
    </g>
    <g id="xtick_5">
     <g id="line2d_17">
      <g>
       <use style="stroke:#000000;stroke-width:0.8;" x="591.790962" xlink:href="#md2e270c1c7" y="264.125167"/>
      </g>
     </g>
     <g id="text_5">
      <!-- SmeT -->
      <defs>
       <path d="M 53.515625 70.515625 
L 53.515625 60.890625 
Q 47.90625 63.578125 42.921875 64.890625 
Q 37.9375 66.21875 33.296875 66.21875 
Q 25.25 66.21875 20.875 63.09375 
Q 16.5 59.96875 16.5 54.203125 
Q 16.5 49.359375 19.40625 46.890625 
Q 22.3125 44.4375 30.421875 42.921875 
L 36.375 41.703125 
Q 47.40625 39.59375 52.65625 34.296875 
Q 57.90625 29 57.90625 20.125 
Q 57.90625 9.515625 50.796875 4.046875 
Q 43.703125 -1.421875 29.984375 -1.421875 
Q 24.8125 -1.421875 18.96875 -0.25 
Q 13.140625 0.921875 6.890625 3.21875 
L 6.890625 13.375 
Q 12.890625 10.015625 18.65625 8.296875 
Q 24.421875 6.59375 29.984375 6.59375 
Q 38.421875 6.59375 43.015625 9.90625 
Q 47.609375 13.234375 47.609375 19.390625 
Q 47.609375 24.75 44.3125 27.78125 
Q 41.015625 30.8125 33.5 32.328125 
L 27.484375 33.5 
Q 16.453125 35.6875 11.515625 40.375 
Q 6.59375 45.0625 6.59375 53.421875 
Q 6.59375 63.09375 13.40625 68.65625 
Q 20.21875 74.21875 32.171875 74.21875 
Q 37.3125 74.21875 42.625 73.28125 
Q 47.953125 72.359375 53.515625 70.515625 
z
" id="DejaVuSans-83"/>
       <path d="M 56.203125 29.59375 
L 56.203125 25.203125 
L 14.890625 25.203125 
Q 15.484375 15.921875 20.484375 11.0625 
Q 25.484375 6.203125 34.421875 6.203125 
Q 39.59375 6.203125 44.453125 7.46875 
Q 49.3125 8.734375 54.109375 11.28125 
L 54.109375 2.78125 
Q 49.265625 0.734375 44.1875 -0.34375 
Q 39.109375 -1.421875 33.890625 -1.421875 
Q 20.796875 -1.421875 13.15625 6.1875 
Q 5.515625 13.8125 5.515625 26.8125 
Q 5.515625 40.234375 12.765625 48.109375 
Q 20.015625 56 32.328125 56 
Q 43.359375 56 49.78125 48.890625 
Q 56.203125 41.796875 56.203125 29.59375 
z
M 47.21875 32.234375 
Q 47.125 39.59375 43.09375 43.984375 
Q 39.0625 48.390625 32.421875 48.390625 
Q 24.90625 48.390625 20.390625 44.140625 
Q 15.875 39.890625 15.1875 32.171875 
z
" id="DejaVuSans-101"/>
       <path d="M -0.296875 72.90625 
L 61.375 72.90625 
L 61.375 64.59375 
L 35.5 64.59375 
L 35.5 0 
L 25.59375 0 
L 25.59375 64.59375 
L -0.296875 64.59375 
z
" id="DejaVuSans-84"/>
      </defs>
      <g transform="translate(569.110962 283.282667)scale(0.16 -0.16)">
       <use xlink:href="#DejaVuSans-83"/>
       <use x="63.476562" xlink:href="#DejaVuSans-109"/>
       <use x="160.888672" xlink:href="#DejaVuSans-101"/>
       <use x="222.412109" xlink:href="#DejaVuSans-84"/>
      </g>
     </g>
    </g>
    <g id="xtick_6">
     <g id="line2d_18">
      <g>
       <use style="stroke:#000000;stroke-width:0.8;" x="664.514444" xlink:href="#md2e270c1c7" y="264.125167"/>
      </g>
     </g>
     <g id="text_6">
      <!-- TtgR -->
      <defs>
       <path d="M 18.3125 70.21875 
L 18.3125 54.6875 
L 36.8125 54.6875 
L 36.8125 47.703125 
L 18.3125 47.703125 
L 18.3125 18.015625 
Q 18.3125 11.328125 20.140625 9.421875 
Q 21.96875 7.515625 27.59375 7.515625 
L 36.8125 7.515625 
L 36.8125 0 
L 27.59375 0 
Q 17.1875 0 13.234375 3.875 
Q 9.28125 7.765625 9.28125 18.015625 
L 9.28125 47.703125 
L 2.6875 47.703125 
L 2.6875 54.6875 
L 9.28125 54.6875 
L 9.28125 70.21875 
z
" id="DejaVuSans-116"/>
       <path d="M 45.40625 27.984375 
Q 45.40625 37.75 41.375 43.109375 
Q 37.359375 48.484375 30.078125 48.484375 
Q 22.859375 48.484375 18.828125 43.109375 
Q 14.796875 37.75 14.796875 27.984375 
Q 14.796875 18.265625 18.828125 12.890625 
Q 22.859375 7.515625 30.078125 7.515625 
Q 37.359375 7.515625 41.375 12.890625 
Q 45.40625 18.265625 45.40625 27.984375 
z
M 54.390625 6.78125 
Q 54.390625 -7.171875 48.1875 -13.984375 
Q 42 -20.796875 29.203125 -20.796875 
Q 24.46875 -20.796875 20.265625 -20.09375 
Q 16.0625 -19.390625 12.109375 -17.921875 
L 12.109375 -9.1875 
Q 16.0625 -11.328125 19.921875 -12.34375 
Q 23.78125 -13.375 27.78125 -13.375 
Q 36.625 -13.375 41.015625 -8.765625 
Q 45.40625 -4.15625 45.40625 5.171875 
L 45.40625 9.625 
Q 42.625 4.78125 38.28125 2.390625 
Q 33.9375 0 27.875 0 
Q 17.828125 0 11.671875 7.65625 
Q 5.515625 15.328125 5.515625 27.984375 
Q 5.515625 40.671875 11.671875 48.328125 
Q 17.828125 56 27.875 56 
Q 33.9375 56 38.28125 53.609375 
Q 42.625 51.21875 45.40625 46.390625 
L 45.40625 54.6875 
L 54.390625 54.6875 
z
" id="DejaVuSans-103"/>
      </defs>
      <g transform="translate(645.854444 283.282667)scale(0.16 -0.16)">
       <use xlink:href="#DejaVuSans-84"/>
       <use x="61.083984" xlink:href="#DejaVuSans-116"/>
       <use x="100.292969" xlink:href="#DejaVuSans-103"/>
       <use x="163.769531" xlink:href="#DejaVuSans-82"/>
      </g>
     </g>
    </g>
    <g id="text_7">
     <!-- Biosensor -->
     <defs>
      <path d="M 9.421875 54.6875 
L 18.40625 54.6875 
L 18.40625 0 
L 9.421875 0 
z
M 9.421875 75.984375 
L 18.40625 75.984375 
L 18.40625 64.59375 
L 9.421875 64.59375 
z
" id="DejaVuSans-105"/>
      <path d="M 30.609375 48.390625 
Q 23.390625 48.390625 19.1875 42.75 
Q 14.984375 37.109375 14.984375 27.296875 
Q 14.984375 17.484375 19.15625 11.84375 
Q 23.34375 6.203125 30.609375 6.203125 
Q 37.796875 6.203125 41.984375 11.859375 
Q 46.1875 17.53125 46.1875 27.296875 
Q 46.1875 37.015625 41.984375 42.703125 
Q 37.796875 48.390625 30.609375 48.390625 
z
M 30.609375 56 
Q 42.328125 56 49.015625 48.375 
Q 55.71875 40.765625 55.71875 27.296875 
Q 55.71875 13.875 49.015625 6.21875 
Q 42.328125 -1.421875 30.609375 -1.421875 
Q 18.84375 -1.421875 12.171875 6.21875 
Q 5.515625 13.875 5.515625 27.296875 
Q 5.515625 40.765625 12.171875 48.375 
Q 18.84375 56 30.609375 56 
z
" id="DejaVuSans-111"/>
      <path d="M 44.28125 53.078125 
L 44.28125 44.578125 
Q 40.484375 46.53125 36.375 47.5 
Q 32.28125 48.484375 27.875 48.484375 
Q 21.1875 48.484375 17.84375 46.4375 
Q 14.5 44.390625 14.5 40.28125 
Q 14.5 37.15625 16.890625 35.375 
Q 19.28125 33.59375 26.515625 31.984375 
L 29.59375 31.296875 
Q 39.15625 29.25 43.1875 25.515625 
Q 47.21875 21.78125 47.21875 15.09375 
Q 47.21875 7.46875 41.1875 3.015625 
Q 35.15625 -1.421875 24.609375 -1.421875 
Q 20.21875 -1.421875 15.453125 -0.5625 
Q 10.6875 0.296875 5.421875 2 
L 5.421875 11.28125 
Q 10.40625 8.6875 15.234375 7.390625 
Q 20.0625 6.109375 24.8125 6.109375 
Q 31.15625 6.109375 34.5625 8.28125 
Q 37.984375 10.453125 37.984375 14.40625 
Q 37.984375 18.0625 35.515625 20.015625 
Q 33.0625 21.96875 24.703125 23.78125 
L 21.578125 24.515625 
Q 13.234375 26.265625 9.515625 29.90625 
Q 5.8125 33.546875 5.8125 39.890625 
Q 5.8125 47.609375 11.28125 51.796875 
Q 16.75 56 26.8125 56 
Q 31.78125 56 36.171875 55.265625 
Q 40.578125 54.546875 44.28125 53.078125 
z
" id="DejaVuSans-115"/>
      <path d="M 54.890625 33.015625 
L 54.890625 0 
L 45.90625 0 
L 45.90625 32.71875 
Q 45.90625 40.484375 42.875 44.328125 
Q 39.84375 48.1875 33.796875 48.1875 
Q 26.515625 48.1875 22.3125 43.546875 
Q 18.109375 38.921875 18.109375 30.90625 
L 18.109375 0 
L 9.078125 0 
L 9.078125 54.6875 
L 18.109375 54.6875 
L 18.109375 46.1875 
Q 21.34375 51.125 25.703125 53.5625 
Q 30.078125 56 35.796875 56 
Q 45.21875 56 50.046875 50.171875 
Q 54.890625 44.34375 54.890625 33.015625 
z
" id="DejaVuSans-110"/>
      <path d="M 41.109375 46.296875 
Q 39.59375 47.171875 37.8125 47.578125 
Q 36.03125 48 33.890625 48 
Q 26.265625 48 22.1875 43.046875 
Q 18.109375 38.09375 18.109375 28.8125 
L 18.109375 0 
L 9.078125 0 
L 9.078125 54.6875 
L 18.109375 54.6875 
L 18.109375 46.1875 
Q 20.953125 51.171875 25.484375 53.578125 
Q 30.03125 56 36.53125 56 
Q 37.453125 56 38.578125 55.875 
Q 39.703125 55.765625 41.0625 55.515625 
z
" id="DejaVuSans-114"/>
     </defs>
     <g transform="translate(444.152812 304.287354)scale(0.18 -0.18)">
      <use xlink:href="#DejaVuSans-66"/>
      <use x="68.603516" xlink:href="#DejaVuSans-105"/>
      <use x="96.386719" xlink:href="#DejaVuSans-111"/>
      <use x="157.568359" xlink:href="#DejaVuSans-115"/>
      <use x="209.667969" xlink:href="#DejaVuSans-101"/>
      <use x="271.191406" xlink:href="#DejaVuSans-110"/>
      <use x="334.570312" xlink:href="#DejaVuSans-115"/>
      <use x="386.669922" xlink:href="#DejaVuSans-111"/>
      <use x="447.851562" xlink:href="#DejaVuSans-114"/>
     </g>
    </g>
   </g>
   <g id="matplotlib.axis_2">
    <g id="ytick_1">
     <g id="line2d_19">
      <defs>
       <path d="M 0 0 
L -3.5 0 
" id="m203f5d9c6c" style="stroke:#000000;stroke-width:0.8;"/>
      </defs>
      <g>
       <use style="stroke:#000000;stroke-width:0.8;" x="252.172301" xlink:href="#m203f5d9c6c" y="264.125167"/>
      </g>
     </g>
     <g id="text_8">
      <!-- 0 -->
      <defs>
       <path d="M 31.78125 66.40625 
Q 24.171875 66.40625 20.328125 58.90625 
Q 16.5 51.421875 16.5 36.375 
Q 16.5 21.390625 20.328125 13.890625 
Q 24.171875 6.390625 31.78125 6.390625 
Q 39.453125 6.390625 43.28125 13.890625 
Q 47.125 21.390625 47.125 36.375 
Q 47.125 51.421875 43.28125 58.90625 
Q 39.453125 66.40625 31.78125 66.40625 
z
M 31.78125 74.21875 
Q 44.046875 74.21875 50.515625 64.515625 
Q 56.984375 54.828125 56.984375 36.375 
Q 56.984375 17.96875 50.515625 8.265625 
Q 44.046875 -1.421875 31.78125 -1.421875 
Q 19.53125 -1.421875 13.0625 8.265625 
Q 6.59375 17.96875 6.59375 36.375 
Q 6.59375 54.828125 13.0625 64.515625 
Q 19.53125 74.21875 31.78125 74.21875 
z
" id="DejaVuSans-48"/>
      </defs>
      <g transform="translate(234.992301 270.203917)scale(0.16 -0.16)">
       <use xlink:href="#DejaVuSans-48"/>
      </g>
     </g>
    </g>
    <g id="ytick_2">
     <g id="line2d_20">
      <g>
       <use style="stroke:#000000;stroke-width:0.8;" x="252.172301" xlink:href="#m203f5d9c6c" y="229.324505"/>
      </g>
     </g>
     <g id="text_9">
      <!-- 1 -->
      <g transform="translate(234.992301 235.403255)scale(0.16 -0.16)">
       <use xlink:href="#DejaVuSans-49"/>
      </g>
     </g>
    </g>
    <g id="ytick_3">
     <g id="line2d_21">
      <g>
       <use style="stroke:#000000;stroke-width:0.8;" x="252.172301" xlink:href="#m203f5d9c6c" y="194.523843"/>
      </g>
     </g>
     <g id="text_10">
      <!-- 2 -->
      <defs>
       <path d="M 19.1875 8.296875 
L 53.609375 8.296875 
L 53.609375 0 
L 7.328125 0 
L 7.328125 8.296875 
Q 12.9375 14.109375 22.625 23.890625 
Q 32.328125 33.6875 34.8125 36.53125 
Q 39.546875 41.84375 41.421875 45.53125 
Q 43.3125 49.21875 43.3125 52.78125 
Q 43.3125 58.59375 39.234375 62.25 
Q 35.15625 65.921875 28.609375 65.921875 
Q 23.96875 65.921875 18.8125 64.3125 
Q 13.671875 62.703125 7.8125 59.421875 
L 7.8125 69.390625 
Q 13.765625 71.78125 18.9375 73 
Q 24.125 74.21875 28.421875 74.21875 
Q 39.75 74.21875 46.484375 68.546875 
Q 53.21875 62.890625 53.21875 53.421875 
Q 53.21875 48.921875 51.53125 44.890625 
Q 49.859375 40.875 45.40625 35.40625 
Q 44.1875 33.984375 37.640625 27.21875 
Q 31.109375 20.453125 19.1875 8.296875 
z
" id="DejaVuSans-50"/>
      </defs>
      <g transform="translate(234.992301 200.602593)scale(0.16 -0.16)">
       <use xlink:href="#DejaVuSans-50"/>
      </g>
     </g>
    </g>
    <g id="ytick_4">
     <g id="line2d_22">
      <g>
       <use style="stroke:#000000;stroke-width:0.8;" x="252.172301" xlink:href="#m203f5d9c6c" y="159.723181"/>
      </g>
     </g>
     <g id="text_11">
      <!-- 3 -->
      <g transform="translate(234.992301 165.801931)scale(0.16 -0.16)">
       <use xlink:href="#DejaVuSans-51"/>
      </g>
     </g>
    </g>
    <g id="ytick_5">
     <g id="line2d_23">
      <g>
       <use style="stroke:#000000;stroke-width:0.8;" x="252.172301" xlink:href="#m203f5d9c6c" y="124.92252"/>
      </g>
     </g>
     <g id="text_12">
      <!-- 4 -->
      <defs>
       <path d="M 37.796875 64.3125 
L 12.890625 25.390625 
L 37.796875 25.390625 
z
M 35.203125 72.90625 
L 47.609375 72.90625 
L 47.609375 25.390625 
L 58.015625 25.390625 
L 58.015625 17.1875 
L 47.609375 17.1875 
L 47.609375 0 
L 37.796875 0 
L 37.796875 17.1875 
L 4.890625 17.1875 
L 4.890625 26.703125 
z
" id="DejaVuSans-52"/>
      </defs>
      <g transform="translate(234.992301 131.00127)scale(0.16 -0.16)">
       <use xlink:href="#DejaVuSans-52"/>
      </g>
     </g>
    </g>
    <g id="ytick_6">
     <g id="line2d_24">
      <g>
       <use style="stroke:#000000;stroke-width:0.8;" x="252.172301" xlink:href="#m203f5d9c6c" y="90.121858"/>
      </g>
     </g>
     <g id="text_13">
      <!-- 5 -->
      <defs>
       <path d="M 10.796875 72.90625 
L 49.515625 72.90625 
L 49.515625 64.59375 
L 19.828125 64.59375 
L 19.828125 46.734375 
Q 21.96875 47.46875 24.109375 47.828125 
Q 26.265625 48.1875 28.421875 48.1875 
Q 40.625 48.1875 47.75 41.5 
Q 54.890625 34.8125 54.890625 23.390625 
Q 54.890625 11.625 47.5625 5.09375 
Q 40.234375 -1.421875 26.90625 -1.421875 
Q 22.3125 -1.421875 17.546875 -0.640625 
Q 12.796875 0.140625 7.71875 1.703125 
L 7.71875 11.625 
Q 12.109375 9.234375 16.796875 8.0625 
Q 21.484375 6.890625 26.703125 6.890625 
Q 35.15625 6.890625 40.078125 11.328125 
Q 45.015625 15.765625 45.015625 23.390625 
Q 45.015625 31 40.078125 35.4375 
Q 35.15625 39.890625 26.703125 39.890625 
Q 22.75 39.890625 18.8125 39.015625 
Q 14.890625 38.140625 10.796875 36.28125 
z
" id="DejaVuSans-53"/>
      </defs>
      <g transform="translate(234.992301 96.200608)scale(0.16 -0.16)">
       <use xlink:href="#DejaVuSans-53"/>
      </g>
     </g>
    </g>
    <g id="ytick_7">
     <g id="line2d_25">
      <g>
       <use style="stroke:#000000;stroke-width:0.8;" x="252.172301" xlink:href="#m203f5d9c6c" y="55.321196"/>
      </g>
     </g>
     <g id="text_14">
      <!-- 6 -->
      <defs>
       <path d="M 33.015625 40.375 
Q 26.375 40.375 22.484375 35.828125 
Q 18.609375 31.296875 18.609375 23.390625 
Q 18.609375 15.53125 22.484375 10.953125 
Q 26.375 6.390625 33.015625 6.390625 
Q 39.65625 6.390625 43.53125 10.953125 
Q 47.40625 15.53125 47.40625 23.390625 
Q 47.40625 31.296875 43.53125 35.828125 
Q 39.65625 40.375 33.015625 40.375 
z
M 52.59375 71.296875 
L 52.59375 62.3125 
Q 48.875 64.0625 45.09375 64.984375 
Q 41.3125 65.921875 37.59375 65.921875 
Q 27.828125 65.921875 22.671875 59.328125 
Q 17.53125 52.734375 16.796875 39.40625 
Q 19.671875 43.65625 24.015625 45.921875 
Q 28.375 48.1875 33.59375 48.1875 
Q 44.578125 48.1875 50.953125 41.515625 
Q 57.328125 34.859375 57.328125 23.390625 
Q 57.328125 12.15625 50.6875 5.359375 
Q 44.046875 -1.421875 33.015625 -1.421875 
Q 20.359375 -1.421875 13.671875 8.265625 
Q 6.984375 17.96875 6.984375 36.375 
Q 6.984375 53.65625 15.1875 63.9375 
Q 23.390625 74.21875 37.203125 74.21875 
Q 40.921875 74.21875 44.703125 73.484375 
Q 48.484375 72.75 52.59375 71.296875 
z
" id="DejaVuSans-54"/>
      </defs>
      <g transform="translate(234.992301 61.399946)scale(0.16 -0.16)">
       <use xlink:href="#DejaVuSans-54"/>
      </g>
     </g>
    </g>
    <g id="text_15">
     <!-- Fluorescence (RFU/OD) -->
     <defs>
      <path d="M 9.8125 72.90625 
L 51.703125 72.90625 
L 51.703125 64.59375 
L 19.671875 64.59375 
L 19.671875 43.109375 
L 48.578125 43.109375 
L 48.578125 34.8125 
L 19.671875 34.8125 
L 19.671875 0 
L 9.8125 0 
z
" id="DejaVuSans-70"/>
      <path d="M 8.5 21.578125 
L 8.5 54.6875 
L 17.484375 54.6875 
L 17.484375 21.921875 
Q 17.484375 14.15625 20.5 10.265625 
Q 23.53125 6.390625 29.59375 6.390625 
Q 36.859375 6.390625 41.078125 11.03125 
Q 45.3125 15.671875 45.3125 23.6875 
L 45.3125 54.6875 
L 54.296875 54.6875 
L 54.296875 0 
L 45.3125 0 
L 45.3125 8.40625 
Q 42.046875 3.421875 37.71875 1 
Q 33.40625 -1.421875 27.6875 -1.421875 
Q 18.265625 -1.421875 13.375 4.4375 
Q 8.5 10.296875 8.5 21.578125 
z
M 31.109375 56 
z
" id="DejaVuSans-117"/>
      <path id="DejaVuSans-32"/>
      <path d="M 31 75.875 
Q 24.46875 64.65625 21.28125 53.65625 
Q 18.109375 42.671875 18.109375 31.390625 
Q 18.109375 20.125 21.3125 9.0625 
Q 24.515625 -2 31 -13.1875 
L 23.1875 -13.1875 
Q 15.875 -1.703125 12.234375 9.375 
Q 8.59375 20.453125 8.59375 31.390625 
Q 8.59375 42.28125 12.203125 53.3125 
Q 15.828125 64.359375 23.1875 75.875 
z
" id="DejaVuSans-40"/>
      <path d="M 8.6875 72.90625 
L 18.609375 72.90625 
L 18.609375 28.609375 
Q 18.609375 16.890625 22.84375 11.734375 
Q 27.09375 6.59375 36.625 6.59375 
Q 46.09375 6.59375 50.34375 11.734375 
Q 54.59375 16.890625 54.59375 28.609375 
L 54.59375 72.90625 
L 64.5 72.90625 
L 64.5 27.390625 
Q 64.5 13.140625 57.4375 5.859375 
Q 50.390625 -1.421875 36.625 -1.421875 
Q 22.796875 -1.421875 15.734375 5.859375 
Q 8.6875 13.140625 8.6875 27.390625 
z
" id="DejaVuSans-85"/>
      <path d="M 25.390625 72.90625 
L 33.6875 72.90625 
L 8.296875 -9.28125 
L 0 -9.28125 
z
" id="DejaVuSans-47"/>
      <path d="M 39.40625 66.21875 
Q 28.65625 66.21875 22.328125 58.203125 
Q 16.015625 50.203125 16.015625 36.375 
Q 16.015625 22.609375 22.328125 14.59375 
Q 28.65625 6.59375 39.40625 6.59375 
Q 50.140625 6.59375 56.421875 14.59375 
Q 62.703125 22.609375 62.703125 36.375 
Q 62.703125 50.203125 56.421875 58.203125 
Q 50.140625 66.21875 39.40625 66.21875 
z
M 39.40625 74.21875 
Q 54.734375 74.21875 63.90625 63.9375 
Q 73.09375 53.65625 73.09375 36.375 
Q 73.09375 19.140625 63.90625 8.859375 
Q 54.734375 -1.421875 39.40625 -1.421875 
Q 24.03125 -1.421875 14.8125 8.828125 
Q 5.609375 19.09375 5.609375 36.375 
Q 5.609375 53.65625 14.8125 63.9375 
Q 24.03125 74.21875 39.40625 74.21875 
z
" id="DejaVuSans-79"/>
      <path d="M 8.015625 75.875 
L 15.828125 75.875 
Q 23.140625 64.359375 26.78125 53.3125 
Q 30.421875 42.28125 30.421875 31.390625 
Q 30.421875 20.453125 26.78125 9.375 
Q 23.140625 -1.703125 15.828125 -13.1875 
L 8.015625 -13.1875 
Q 14.5 -2 17.703125 9.0625 
Q 20.90625 20.125 20.90625 31.390625 
Q 20.90625 42.671875 17.703125 53.65625 
Q 14.5 64.65625 8.015625 75.875 
z
" id="DejaVuSans-41"/>
     </defs>
     <g transform="translate(227.248863 250.275833)rotate(-90)scale(0.18 -0.18)">
      <use xlink:href="#DejaVuSans-70"/>
      <use x="57.519531" xlink:href="#DejaVuSans-108"/>
      <use x="85.302734" xlink:href="#DejaVuSans-117"/>
      <use x="148.681641" xlink:href="#DejaVuSans-111"/>
      <use x="209.863281" xlink:href="#DejaVuSans-114"/>
      <use x="250.945312" xlink:href="#DejaVuSans-101"/>
      <use x="312.46875" xlink:href="#DejaVuSans-115"/>
      <use x="364.568359" xlink:href="#DejaVuSans-99"/>
      <use x="419.548828" xlink:href="#DejaVuSans-101"/>
      <use x="481.072266" xlink:href="#DejaVuSans-110"/>
      <use x="544.451172" xlink:href="#DejaVuSans-99"/>
      <use x="599.431641" xlink:href="#DejaVuSans-101"/>
      <use x="660.955078" xlink:href="#DejaVuSans-32"/>
      <use x="692.742188" xlink:href="#DejaVuSans-40"/>
      <use x="731.755859" xlink:href="#DejaVuSans-82"/>
      <use x="801.238281" xlink:href="#DejaVuSans-70"/>
      <use x="858.757812" xlink:href="#DejaVuSans-85"/>
      <use x="931.951172" xlink:href="#DejaVuSans-47"/>
      <use x="965.642578" xlink:href="#DejaVuSans-79"/>
      <use x="1044.353516" xlink:href="#DejaVuSans-68"/>
      <use x="1121.355469" xlink:href="#DejaVuSans-41"/>
     </g>
    </g>
   </g>
   <g id="patch_39">
    <path d="M 252.172301 264.125167 
L 252.172301 27.559 
" style="fill:none;stroke:#000000;stroke-linecap:square;stroke-linejoin:miter;stroke-width:0.8;"/>
   </g>
   <g id="patch_40">
    <path d="M 252.172301 264.125167 
L 724.147699 264.125167 
" style="fill:none;stroke:#000000;stroke-linecap:square;stroke-linejoin:miter;stroke-width:0.8;"/>
   </g>
   <g id="text_16">
    <!-- Generalist Biosensors Response to Benzylisoquinoline Alkaloids -->
    <defs>
     <path d="M 59.515625 10.40625 
L 59.515625 29.984375 
L 43.40625 29.984375 
L 43.40625 38.09375 
L 69.28125 38.09375 
L 69.28125 6.78125 
Q 63.578125 2.734375 56.6875 0.65625 
Q 49.8125 -1.421875 42 -1.421875 
Q 24.90625 -1.421875 15.25 8.5625 
Q 5.609375 18.5625 5.609375 36.375 
Q 5.609375 54.25 15.25 64.234375 
Q 24.90625 74.21875 42 74.21875 
Q 49.125 74.21875 55.546875 72.453125 
Q 61.96875 70.703125 67.390625 67.28125 
L 67.390625 56.78125 
Q 61.921875 61.421875 55.765625 63.765625 
Q 49.609375 66.109375 42.828125 66.109375 
Q 29.4375 66.109375 22.71875 58.640625 
Q 16.015625 51.171875 16.015625 36.375 
Q 16.015625 21.625 22.71875 14.15625 
Q 29.4375 6.6875 42.828125 6.6875 
Q 48.046875 6.6875 52.140625 7.59375 
Q 56.25 8.5 59.515625 10.40625 
z
" id="DejaVuSans-71"/>
     <path d="M 18.109375 8.203125 
L 18.109375 -20.796875 
L 9.078125 -20.796875 
L 9.078125 54.6875 
L 18.109375 54.6875 
L 18.109375 46.390625 
Q 20.953125 51.265625 25.265625 53.625 
Q 29.59375 56 35.59375 56 
Q 45.5625 56 51.78125 48.09375 
Q 58.015625 40.1875 58.015625 27.296875 
Q 58.015625 14.40625 51.78125 6.484375 
Q 45.5625 -1.421875 35.59375 -1.421875 
Q 29.59375 -1.421875 25.265625 0.953125 
Q 20.953125 3.328125 18.109375 8.203125 
z
M 48.6875 27.296875 
Q 48.6875 37.203125 44.609375 42.84375 
Q 40.53125 48.484375 33.40625 48.484375 
Q 26.265625 48.484375 22.1875 42.84375 
Q 18.109375 37.203125 18.109375 27.296875 
Q 18.109375 17.390625 22.1875 11.75 
Q 26.265625 6.109375 33.40625 6.109375 
Q 40.53125 6.109375 44.609375 11.75 
Q 48.6875 17.390625 48.6875 27.296875 
z
" id="DejaVuSans-112"/>
     <path d="M 5.515625 54.6875 
L 48.1875 54.6875 
L 48.1875 46.484375 
L 14.40625 7.171875 
L 48.1875 7.171875 
L 48.1875 0 
L 4.296875 0 
L 4.296875 8.203125 
L 38.09375 47.515625 
L 5.515625 47.515625 
z
" id="DejaVuSans-122"/>
     <path d="M 32.171875 -5.078125 
Q 28.375 -14.84375 24.75 -17.8125 
Q 21.140625 -20.796875 15.09375 -20.796875 
L 7.90625 -20.796875 
L 7.90625 -13.28125 
L 13.1875 -13.28125 
Q 16.890625 -13.28125 18.9375 -11.515625 
Q 21 -9.765625 23.484375 -3.21875 
L 25.09375 0.875 
L 2.984375 54.6875 
L 12.5 54.6875 
L 29.59375 11.921875 
L 46.6875 54.6875 
L 56.203125 54.6875 
z
" id="DejaVuSans-121"/>
     <path d="M 14.796875 27.296875 
Q 14.796875 17.390625 18.875 11.75 
Q 22.953125 6.109375 30.078125 6.109375 
Q 37.203125 6.109375 41.296875 11.75 
Q 45.40625 17.390625 45.40625 27.296875 
Q 45.40625 37.203125 41.296875 42.84375 
Q 37.203125 48.484375 30.078125 48.484375 
Q 22.953125 48.484375 18.875 42.84375 
Q 14.796875 37.203125 14.796875 27.296875 
z
M 45.40625 8.203125 
Q 42.578125 3.328125 38.25 0.953125 
Q 33.9375 -1.421875 27.875 -1.421875 
Q 17.96875 -1.421875 11.734375 6.484375 
Q 5.515625 14.40625 5.515625 27.296875 
Q 5.515625 40.1875 11.734375 48.09375 
Q 17.96875 56 27.875 56 
Q 33.9375 56 38.25 53.625 
Q 42.578125 51.265625 45.40625 46.390625 
L 45.40625 54.6875 
L 54.390625 54.6875 
L 54.390625 -20.796875 
L 45.40625 -20.796875 
z
" id="DejaVuSans-113"/>
     <path d="M 34.1875 63.1875 
L 20.796875 26.90625 
L 47.609375 26.90625 
z
M 28.609375 72.90625 
L 39.796875 72.90625 
L 67.578125 0 
L 57.328125 0 
L 50.6875 18.703125 
L 17.828125 18.703125 
L 11.1875 0 
L 0.78125 0 
z
" id="DejaVuSans-65"/>
     <path d="M 9.078125 75.984375 
L 18.109375 75.984375 
L 18.109375 31.109375 
L 44.921875 54.6875 
L 56.390625 54.6875 
L 27.390625 29.109375 
L 57.625 0 
L 45.90625 0 
L 18.109375 26.703125 
L 18.109375 0 
L 9.078125 0 
z
" id="DejaVuSans-107"/>
     <path d="M 45.40625 46.390625 
L 45.40625 75.984375 
L 54.390625 75.984375 
L 54.390625 0 
L 45.40625 0 
L 45.40625 8.203125 
Q 42.578125 3.328125 38.25 0.953125 
Q 33.9375 -1.421875 27.875 -1.421875 
Q 17.96875 -1.421875 11.734375 6.484375 
Q 5.515625 14.40625 5.515625 27.296875 
Q 5.515625 40.1875 11.734375 48.09375 
Q 17.96875 56 27.875 56 
Q 33.9375 56 38.25 53.625 
Q 42.578125 51.265625 45.40625 46.390625 
z
M 14.796875 27.296875 
Q 14.796875 17.390625 18.875 11.75 
Q 22.953125 6.109375 30.078125 6.109375 
Q 37.203125 6.109375 41.296875 11.75 
Q 45.40625 17.390625 45.40625 27.296875 
Q 45.40625 37.203125 41.296875 42.84375 
Q 37.203125 48.484375 30.078125 48.484375 
Q 22.953125 48.484375 18.875 42.84375 
Q 14.796875 37.203125 14.796875 27.296875 
z
" id="DejaVuSans-100"/>
    </defs>
    <g transform="translate(201.992344 21.559)scale(0.18 -0.18)">
     <use xlink:href="#DejaVuSans-71"/>
     <use x="77.490234" xlink:href="#DejaVuSans-101"/>
     <use x="139.013672" xlink:href="#DejaVuSans-110"/>
     <use x="202.392578" xlink:href="#DejaVuSans-101"/>
     <use x="263.916016" xlink:href="#DejaVuSans-114"/>
     <use x="305.029297" xlink:href="#DejaVuSans-97"/>
     <use x="366.308594" xlink:href="#DejaVuSans-108"/>
     <use x="394.091797" xlink:href="#DejaVuSans-105"/>
     <use x="421.875" xlink:href="#DejaVuSans-115"/>
     <use x="473.974609" xlink:href="#DejaVuSans-116"/>
     <use x="513.183594" xlink:href="#DejaVuSans-32"/>
     <use x="544.970703" xlink:href="#DejaVuSans-66"/>
     <use x="613.574219" xlink:href="#DejaVuSans-105"/>
     <use x="641.357422" xlink:href="#DejaVuSans-111"/>
     <use x="702.539062" xlink:href="#DejaVuSans-115"/>
     <use x="754.638672" xlink:href="#DejaVuSans-101"/>
     <use x="816.162109" xlink:href="#DejaVuSans-110"/>
     <use x="879.541016" xlink:href="#DejaVuSans-115"/>
     <use x="931.640625" xlink:href="#DejaVuSans-111"/>
     <use x="992.822266" xlink:href="#DejaVuSans-114"/>
     <use x="1033.935547" xlink:href="#DejaVuSans-115"/>
     <use x="1086.035156" xlink:href="#DejaVuSans-32"/>
     <use x="1117.822266" xlink:href="#DejaVuSans-82"/>
     <use x="1187.242188" xlink:href="#DejaVuSans-101"/>
     <use x="1248.765625" xlink:href="#DejaVuSans-115"/>
     <use x="1300.865234" xlink:href="#DejaVuSans-112"/>
     <use x="1364.341797" xlink:href="#DejaVuSans-111"/>
     <use x="1425.523438" xlink:href="#DejaVuSans-110"/>
     <use x="1488.902344" xlink:href="#DejaVuSans-115"/>
     <use x="1541.001953" xlink:href="#DejaVuSans-101"/>
     <use x="1602.525391" xlink:href="#DejaVuSans-32"/>
     <use x="1634.3125" xlink:href="#DejaVuSans-116"/>
     <use x="1673.521484" xlink:href="#DejaVuSans-111"/>
     <use x="1734.703125" xlink:href="#DejaVuSans-32"/>
     <use x="1766.490234" xlink:href="#DejaVuSans-66"/>
     <use x="1835.09375" xlink:href="#DejaVuSans-101"/>
     <use x="1896.617188" xlink:href="#DejaVuSans-110"/>
     <use x="1959.996094" xlink:href="#DejaVuSans-122"/>
     <use x="2012.486328" xlink:href="#DejaVuSans-121"/>
     <use x="2071.666016" xlink:href="#DejaVuSans-108"/>
     <use x="2099.449219" xlink:href="#DejaVuSans-105"/>
     <use x="2127.232422" xlink:href="#DejaVuSans-115"/>
     <use x="2179.332031" xlink:href="#DejaVuSans-111"/>
     <use x="2240.513672" xlink:href="#DejaVuSans-113"/>
     <use x="2303.990234" xlink:href="#DejaVuSans-117"/>
     <use x="2367.369141" xlink:href="#DejaVuSans-105"/>
     <use x="2395.152344" xlink:href="#DejaVuSans-110"/>
     <use x="2458.53125" xlink:href="#DejaVuSans-111"/>
     <use x="2519.712891" xlink:href="#DejaVuSans-108"/>
     <use x="2547.496094" xlink:href="#DejaVuSans-105"/>
     <use x="2575.279297" xlink:href="#DejaVuSans-110"/>
     <use x="2638.658203" xlink:href="#DejaVuSans-101"/>
     <use x="2700.181641" xlink:href="#DejaVuSans-32"/>
     <use x="2731.96875" xlink:href="#DejaVuSans-65"/>
     <use x="2800.376953" xlink:href="#DejaVuSans-108"/>
     <use x="2828.160156" xlink:href="#DejaVuSans-107"/>
     <use x="2886.054688" xlink:href="#DejaVuSans-97"/>
     <use x="2947.333984" xlink:href="#DejaVuSans-108"/>
     <use x="2975.117188" xlink:href="#DejaVuSans-111"/>
     <use x="3036.298828" xlink:href="#DejaVuSans-105"/>
     <use x="3064.082031" xlink:href="#DejaVuSans-100"/>
     <use x="3127.558594" xlink:href="#DejaVuSans-115"/>
    </g>
   </g>
   <g id="legend_1">
    <g id="patch_41">
     <path d="M 622.260199 169.201188 
L 713.647699 169.201188 
Q 716.647699 169.201188 716.647699 166.201188 
L 716.647699 38.059 
Q 716.647699 35.059 713.647699 35.059 
L 622.260199 35.059 
Q 619.260199 35.059 619.260199 38.059 
L 619.260199 166.201188 
Q 619.260199 169.201188 622.260199 169.201188 
z
" style="fill:#ffffff;opacity:0.8;stroke:#cccccc;stroke-linejoin:miter;"/>
    </g>
    <g id="patch_42">
     <path d="M 625.260199 52.163687 
L 655.260199 52.163687 
L 655.260199 41.663687 
L 625.260199 41.663687 
z
" style="fill:#757575;stroke:#000000;stroke-linejoin:miter;stroke-width:2;"/>
    </g>
    <g id="text_17">
     <!-- DMSO -->
     <defs>
      <path d="M 14.265625 8.296875 
L 31.734375 8.296875 
Q 49.421875 8.296875 53.21875 26.765625 
Q 54.109375 31.25 54.109375 37.015625 
Q 54.109375 61.921875 37.015625 65.234375 
Q 34.46875 65.71875 31.734375 65.71875 
L 14.265625 65.71875 
z
M 4.890625 0 
L 4.890625 74.03125 
L 33.40625 74.03125 
Q 49.90625 74.03125 57.90625 60.640625 
Q 63.578125 51.265625 63.578125 37.109375 
Q 63.578125 15.921875 51.765625 6.15625 
Q 44.34375 0 33.40625 0 
z
" id="Gargi-68"/>
      <path d="M 44.828125 0 
L 34.859375 0 
L 13.875 62.015625 
L 13.875 0 
L 4.890625 0 
L 4.890625 74.03125 
L 17.96875 74.03125 
L 39.9375 9.578125 
L 61.421875 74.03125 
L 74.515625 74.03125 
L 74.515625 0 
L 65.625 0 
L 65.625 62.015625 
z
" id="Gargi-77"/>
      <path d="M 58.59375 53.90625 
L 49.609375 53.90625 
Q 49.609375 64.84375 38.484375 67.78125 
Q 35.0625 68.65625 31.15625 68.65625 
Q 20.515625 68.5625 16.40625 62.40625 
Q 14.65625 59.765625 14.65625 56.34375 
Q 14.65625 50.59375 20.125 47.953125 
Q 22.5625 46.78125 26.765625 45.515625 
L 45.40625 40.71875 
Q 57.515625 37.40625 60.453125 27.734375 
Q 61.140625 25.484375 61.140625 22.46875 
Q 61.140625 14.15625 55.28125 7.8125 
L 53.03125 5.859375 
Q 45.609375 0.296875 32.125 0.296875 
Q 15.234375 0.296875 7.328125 10.640625 
Q 2.9375 16.40625 2.9375 25.6875 
L 11.8125 25.6875 
L 12.203125 21.875 
Q 12.890625 17.78125 15.71875 14.546875 
Q 21.09375 8.40625 32.8125 8.40625 
Q 41.796875 8.40625 46.390625 11.625 
Q 50.875 14.75 51.5625 20.21875 
Q 51.65625 21 51.65625 21.578125 
Q 51.65625 28.90625 40.53125 32.625 
Q 39.359375 33.015625 38.09375 33.296875 
L 19.734375 38.09375 
Q 5.171875 41.890625 5.171875 55.078125 
Q 5.171875 67.484375 15.71875 72.953125 
Q 22.265625 76.375 31.453125 76.375 
Q 49.421875 76.375 55.765625 65.234375 
Q 58.59375 60.359375 58.59375 53.90625 
z
" id="Gargi-83"/>
      <path d="M 38.578125 68.171875 
Q 25.203125 68.171875 17.96875 58.015625 
Q 12.3125 50.09375 12.3125 38.28125 
Q 12.3125 22.65625 21.96875 14.359375 
Q 28.90625 8.40625 38.375 8.40625 
Q 38.484375 8.40625 38.671875 8.40625 
Q 51.65625 8.40625 59.078125 18.359375 
Q 64.9375 26.265625 64.9375 37.890625 
Q 64.9375 54.390625 54.984375 62.59375 
Q 48.25 68.171875 38.578125 68.171875 
z
M 38.578125 76.375 
Q 56.25 76.375 66.015625 64.15625 
Q 74.421875 53.71875 74.421875 37.703125 
Q 74.421875 22.953125 66.015625 12.5 
Q 63.96875 9.859375 61.625 7.90625 
Q 52.34375 0.296875 38.671875 0.296875 
Q 21.78125 0.296875 11.71875 12.015625 
Q 2.9375 22.265625 2.9375 38.28125 
Q 2.9375 56.734375 14.15625 67.28125 
Q 23.828125 76.375 38.578125 76.375 
z
" id="Gargi-79"/>
     </defs>
     <g transform="translate(667.260199 52.163687)scale(0.15 -0.15)">
      <use xlink:href="#Gargi-68"/>
      <use x="68.457031" xlink:href="#Gargi-77"/>
      <use x="147.851562" xlink:href="#Gargi-83"/>
      <use x="211.914062" xlink:href="#Gargi-79"/>
     </g>
    </g>
    <g id="patch_43">
     <path d="M 625.260199 73.770719 
L 655.260199 73.770719 
L 655.260199 63.270719 
L 625.260199 63.270719 
z
" style="fill:#7814fc;stroke:#000000;stroke-linejoin:miter;stroke-width:2;"/>
    </g>
    <g id="text_18">
     <!-- GLAU -->
     <defs>
      <path d="M 70.40625 40.828125 
L 70.40625 2.25 
L 64.453125 2.25 
L 62.109375 11.921875 
Q 51.5625 0.296875 36.8125 0.296875 
Q 21.390625 0.296875 11.71875 11.71875 
Q 2.9375 22.078125 2.9375 38.09375 
Q 2.9375 55.46875 13.28125 66.609375 
Q 14.75 68.171875 16.3125 69.4375 
Q 25 76.375 38.484375 76.375 
Q 56.734375 76.375 64.84375 64.65625 
Q 68.171875 59.859375 69.4375 53.125 
L 59.765625 53.125 
Q 57.625 62.796875 48.046875 66.5 
Q 43.65625 68.171875 38.375 68.171875 
Q 24.90625 68.0625 17.78125 57.8125 
Q 12.3125 50.09375 12.3125 38.578125 
Q 12.3125 26.5625 18.5625 17.671875 
Q 19.140625 16.796875 20.21875 15.828125 
Q 28.21875 8.40625 38.578125 8.40625 
Q 38.765625 8.40625 38.875 8.40625 
Q 50.203125 8.40625 57.125 16.5 
Q 62.109375 22.359375 62.109375 30.765625 
L 62.109375 32.71875 
L 39.546875 32.71875 
L 39.546875 40.828125 
z
" id="Gargi-71"/>
      <path d="M 14.359375 74.03125 
L 14.359375 8.296875 
L 50.875 8.296875 
L 50.875 0 
L 4.890625 0 
L 4.890625 74.03125 
z
" id="Gargi-76"/>
      <path d="M 48.640625 30.171875 
L 37.203125 63.875 
L 25.09375 30.171875 
z
M 51.265625 22.265625 
L 22.75 22.265625 
L 14.9375 0 
L 4.890625 0 
L 31.25 74.03125 
L 43.453125 74.03125 
L 69.4375 0 
L 58.890625 0 
z
" id="Gargi-65"/>
      <path d="M 52.34375 75 
L 61.8125 75 
L 61.8125 24.125 
Q 61.8125 11.140625 51.265625 4.6875 
Q 43.953125 0.203125 33.296875 0.203125 
Q 16.5 0.203125 9.078125 10.25 
Q 4.890625 15.921875 4.890625 24.125 
L 4.890625 75 
L 14.359375 75 
L 14.359375 24.125 
Q 14.359375 16.3125 19.734375 12.109375 
Q 25.09375 8.296875 33.296875 8.296875 
Q 45.90625 8.296875 50.390625 16.3125 
Q 52.34375 19.828125 52.34375 24.125 
z
" id="Gargi-85"/>
     </defs>
     <g transform="translate(667.260199 73.770719)scale(0.15 -0.15)">
      <use xlink:href="#Gargi-71"/>
      <use x="75.292969" xlink:href="#Gargi-76"/>
      <use x="131.054688" xlink:href="#Gargi-65"/>
      <use x="205.371094" xlink:href="#Gargi-85"/>
     </g>
    </g>
    <g id="patch_44">
     <path d="M 625.260199 95.37775 
L 655.260199 95.37775 
L 655.260199 84.87775 
L 625.260199 84.87775 
z
" style="fill:#d9ce00;stroke:#000000;stroke-linejoin:miter;stroke-width:2;"/>
    </g>
    <g id="text_19">
     <!-- NOS -->
     <defs>
      <path d="M 62.796875 74.03125 
L 62.796875 0 
L 52.15625 0 
L 13.875 60.0625 
L 13.875 0 
L 4.890625 0 
L 4.890625 74.03125 
L 15.140625 74.03125 
L 53.8125 13.484375 
L 53.8125 74.03125 
z
" id="Gargi-78"/>
     </defs>
     <g transform="translate(667.260199 95.37775)scale(0.15 -0.15)">
      <use xlink:href="#Gargi-78"/>
      <use x="67.675781" xlink:href="#Gargi-79"/>
      <use x="145.019531" xlink:href="#Gargi-83"/>
     </g>
    </g>
    <g id="patch_45">
     <path d="M 625.260199 116.984781 
L 655.260199 116.984781 
L 655.260199 106.484781 
L 625.260199 106.484781 
z
" style="fill:#ff1900;stroke:#000000;stroke-linejoin:miter;stroke-width:2;"/>
    </g>
    <g id="text_20">
     <!-- PAP -->
     <defs>
      <path d="M 14.265625 39.75 
L 33.984375 39.75 
Q 44.34375 39.75 47.359375 47.265625 
Q 48.4375 49.703125 48.4375 52.734375 
Q 48.4375 61.8125 40.4375 64.65625 
Q 37.59375 65.71875 33.984375 65.71875 
L 14.265625 65.71875 
z
M 14.265625 31.34375 
L 14.265625 0 
L 4.890625 0 
L 4.890625 74.03125 
L 35.453125 74.03125 
Q 51.765625 74.03125 56.546875 62.015625 
Q 58.296875 57.90625 58.296875 52.34375 
Q 58.296875 42.484375 51.859375 36.625 
Q 46 31.34375 37.59375 31.34375 
z
" id="Gargi-80"/>
     </defs>
     <g transform="translate(667.260199 116.984781)scale(0.15 -0.15)">
      <use xlink:href="#Gargi-80"/>
      <use x="63.183594" xlink:href="#Gargi-65"/>
      <use x="137.5" xlink:href="#Gargi-80"/>
     </g>
    </g>
    <g id="patch_46">
     <path d="M 625.260199 138.591812 
L 655.260199 138.591812 
L 655.260199 128.091812 
L 625.260199 128.091812 
z
" style="fill:#25de00;stroke:#000000;stroke-linejoin:miter;stroke-width:2;"/>
    </g>
    <g id="text_21">
     <!-- ROTU -->
     <defs>
      <path d="M 14.265625 40.234375 
L 37.109375 40.234375 
Q 49.421875 40.234375 51.265625 48.921875 
Q 51.65625 50.6875 51.65625 52.9375 
Q 51.65625 59.578125 47.859375 62.890625 
Q 44.53125 65.71875 37.109375 65.71875 
L 14.265625 65.71875 
z
M 14.265625 31.9375 
L 14.265625 0 
L 4.890625 0 
L 4.890625 74.03125 
L 38.96875 74.03125 
Q 56.25 74.03125 60.453125 61.8125 
Q 61.53125 58.5 61.53125 54.203125 
Q 61.53125 44.234375 54.203125 39.0625 
Q 52.25 37.796875 49.8125 36.53125 
Q 56.15625 33.796875 58.109375 29.78125 
Q 59.859375 25.984375 59.859375 17.28125 
Q 59.859375 7.515625 61.8125 4.78125 
Q 62.796875 3.421875 64.359375 2.34375 
L 64.359375 0 
L 52.9375 0 
Q 50.875 4.890625 50.875 12.109375 
L 50.875 18.65625 
Q 50.875 29.78125 42.78125 31.453125 
Q 40.921875 31.9375 38.671875 31.9375 
z
" id="Gargi-82"/>
      <path d="M 38.671875 65.71875 
L 38.671875 0 
L 29.203125 0 
L 29.203125 65.71875 
L 4.890625 65.71875 
L 4.890625 74.03125 
L 62.984375 74.03125 
L 62.984375 65.71875 
z
" id="Gargi-84"/>
     </defs>
     <g transform="translate(667.260199 138.591812)scale(0.15 -0.15)">
      <use xlink:href="#Gargi-82"/>
      <use x="69.238281" xlink:href="#Gargi-79"/>
      <use x="146.582031" xlink:href="#Gargi-84"/>
      <use x="214.453125" xlink:href="#Gargi-85"/>
     </g>
    </g>
    <g id="patch_47">
     <path d="M 625.260199 160.198844 
L 655.260199 160.198844 
L 655.260199 149.698844 
L 625.260199 149.698844 
z
" style="fill:#ff910a;stroke:#000000;stroke-linejoin:miter;stroke-width:2;"/>
    </g>
    <g id="text_22">
     <!-- THP -->
     <defs>
      <path d="M 52.4375 33.6875 
L 14.453125 33.6875 
L 14.453125 0 
L 4.890625 0 
L 4.890625 74.03125 
L 14.359375 74.03125 
L 14.359375 42.09375 
L 52.4375 42.09375 
L 52.4375 74.03125 
L 61.921875 74.03125 
L 61.921875 0 
L 52.4375 0 
z
" id="Gargi-72"/>
     </defs>
     <g transform="translate(667.260199 160.198844)scale(0.15 -0.15)">
      <use xlink:href="#Gargi-84"/>
      <use x="67.871094" xlink:href="#Gargi-72"/>
      <use x="134.667969" xlink:href="#Gargi-80"/>
     </g>
    </g>
   </g>
  </g>
 </g>
 <defs>
  <clipPath id="p98f6619f3a">
   <rect height="236.566167" width="471.975398" x="252.172301" y="27.559"/>
  </clipPath>
 </defs>
</svg>
