<?xml version="1.0" encoding="utf-8" standalone="no"?>
<!DOCTYPE svg PUBLIC "-//W3C//DTD SVG 1.1//EN"
  "http://www.w3.org/Graphics/SVG/1.1/DTD/svg11.dtd">
<!-- Created with matplotlib (https://matplotlib.org/) -->
<svg height="473.76pt" version="1.1" viewBox="0 0 648 473.76" width="648pt" xmlns="http://www.w3.org/2000/svg" xmlns:xlink="http://www.w3.org/1999/xlink">
 <defs>
  <style type="text/css">
*{stroke-linecap:butt;stroke-linejoin:round;}
  </style>
 </defs>
 <g id="figure_1">
  <g id="patch_1">
   <path d="M 0 473.76 
L 648 473.76 
L 648 0 
L 0 0 
z
" style="fill:#ffffff;"/>
  </g>
  <g id="axes_1">
   <g id="patch_2">
    <path d="M 81 421.6464 
L 583.2 421.6464 
L 583.2 56.8512 
L 81 56.8512 
z
" style="fill:#ffffff;"/>
   </g>
   <g id="matplotlib.axis_1">
    <g id="xtick_1">
     <g id="line2d_1">
      <defs>
       <path d="M 0 0 
L 0 2 
" id="mf9a8d8059f" style="stroke:#000000;"/>
      </defs>
      <g>
       <use style="stroke:#000000;" x="206.909006" xlink:href="#mf9a8d8059f" y="421.6464"/>
      </g>
     </g>
     <g id="text_1">
      <!-- 1.0 -->
      <defs>
       <path d="M 12.40625 8.296875 
L 28.515625 8.296875 
L 28.515625 63.921875 
L 10.984375 60.40625 
L 10.984375 69.390625 
L 28.421875 72.90625 
L 38.28125 72.90625 
L 38.28125 8.296875 
L 54.390625 8.296875 
L 54.390625 0 
L 12.40625 0 
z
" id="DejaVuSans-49"/>
       <path d="M 10.6875 12.40625 
L 21 12.40625 
L 21 0 
L 10.6875 0 
z
" id="DejaVuSans-46"/>
       <path d="M 31.78125 66.40625 
Q 24.171875 66.40625 20.328125 58.90625 
Q 16.5 51.421875 16.5 36.375 
Q 16.5 21.390625 20.328125 13.890625 
Q 24.171875 6.390625 31.78125 6.390625 
Q 39.453125 6.390625 43.28125 13.890625 
Q 47.125 21.390625 47.125 36.375 
Q 47.125 51.421875 43.28125 58.90625 
Q 39.453125 66.40625 31.78125 66.40625 
z
M 31.78125 74.21875 
Q 44.046875 74.21875 50.515625 64.515625 
Q 56.984375 54.828125 56.984375 36.375 
Q 56.984375 17.96875 50.515625 8.265625 
Q 44.046875 -1.421875 31.78125 -1.421875 
Q 19.53125 -1.421875 13.0625 8.265625 
Q 6.59375 17.96875 6.59375 36.375 
Q 6.59375 54.828125 13.0625 64.515625 
Q 19.53125 74.21875 31.78125 74.21875 
z
" id="DejaVuSans-48"/>
      </defs>
      <g transform="translate(192.596193 440.823588)scale(0.18 -0.18)">
       <use xlink:href="#DejaVuSans-49"/>
       <use x="63.623047" xlink:href="#DejaVuSans-46"/>
       <use x="95.410156" xlink:href="#DejaVuSans-48"/>
      </g>
     </g>
    </g>
    <g id="xtick_2">
     <g id="line2d_2">
      <g>
       <use style="stroke:#000000;" x="346.329227" xlink:href="#mf9a8d8059f" y="421.6464"/>
      </g>
     </g>
     <g id="text_2">
      <!-- 10.0 -->
      <g transform="translate(326.290164 440.823588)scale(0.18 -0.18)">
       <use xlink:href="#DejaVuSans-49"/>
       <use x="63.623047" xlink:href="#DejaVuSans-48"/>
       <use x="127.246094" xlink:href="#DejaVuSans-46"/>
       <use x="159.033203" xlink:href="#DejaVuSans-48"/>
      </g>
     </g>
    </g>
    <g id="xtick_3">
     <g id="line2d_3">
      <g>
       <use style="stroke:#000000;" x="485.749448" xlink:href="#mf9a8d8059f" y="421.6464"/>
      </g>
     </g>
     <g id="text_3">
      <!-- 100.0 -->
      <g transform="translate(459.984135 440.823588)scale(0.18 -0.18)">
       <use xlink:href="#DejaVuSans-49"/>
       <use x="63.623047" xlink:href="#DejaVuSans-48"/>
       <use x="127.246094" xlink:href="#DejaVuSans-48"/>
       <use x="190.869141" xlink:href="#DejaVuSans-46"/>
       <use x="222.65625" xlink:href="#DejaVuSans-48"/>
      </g>
     </g>
    </g>
    <g id="xtick_4">
     <g id="line2d_4">
      <defs>
       <path d="M 0 0 
L 0 2 
" id="m0c0047a9dd" style="stroke:#000000;stroke-width:0.6;"/>
      </defs>
      <g>
       <use style="stroke:#000000;stroke-width:0.6;" x="109.458453" xlink:href="#m0c0047a9dd" y="421.6464"/>
      </g>
     </g>
    </g>
    <g id="xtick_5">
     <g id="line2d_5">
      <g>
       <use style="stroke:#000000;stroke-width:0.6;" x="134.009135" xlink:href="#m0c0047a9dd" y="421.6464"/>
      </g>
     </g>
    </g>
    <g id="xtick_6">
     <g id="line2d_6">
      <g>
       <use style="stroke:#000000;stroke-width:0.6;" x="151.428122" xlink:href="#m0c0047a9dd" y="421.6464"/>
      </g>
     </g>
    </g>
    <g id="xtick_7">
     <g id="line2d_7">
      <g>
       <use style="stroke:#000000;stroke-width:0.6;" x="164.939337" xlink:href="#m0c0047a9dd" y="421.6464"/>
      </g>
     </g>
    </g>
    <g id="xtick_8">
     <g id="line2d_8">
      <g>
       <use style="stroke:#000000;stroke-width:0.6;" x="175.978804" xlink:href="#m0c0047a9dd" y="421.6464"/>
      </g>
     </g>
    </g>
    <g id="xtick_9">
     <g id="line2d_9">
      <g>
       <use style="stroke:#000000;stroke-width:0.6;" x="185.31254" xlink:href="#m0c0047a9dd" y="421.6464"/>
      </g>
     </g>
    </g>
    <g id="xtick_10">
     <g id="line2d_10">
      <g>
       <use style="stroke:#000000;stroke-width:0.6;" x="193.39779" xlink:href="#m0c0047a9dd" y="421.6464"/>
      </g>
     </g>
    </g>
    <g id="xtick_11">
     <g id="line2d_11">
      <g>
       <use style="stroke:#000000;stroke-width:0.6;" x="200.529486" xlink:href="#m0c0047a9dd" y="421.6464"/>
      </g>
     </g>
    </g>
    <g id="xtick_12">
     <g id="line2d_12">
      <g>
       <use style="stroke:#000000;stroke-width:0.6;" x="248.878674" xlink:href="#m0c0047a9dd" y="421.6464"/>
      </g>
     </g>
    </g>
    <g id="xtick_13">
     <g id="line2d_13">
      <g>
       <use style="stroke:#000000;stroke-width:0.6;" x="273.429356" xlink:href="#m0c0047a9dd" y="421.6464"/>
      </g>
     </g>
    </g>
    <g id="xtick_14">
     <g id="line2d_14">
      <g>
       <use style="stroke:#000000;stroke-width:0.6;" x="290.848343" xlink:href="#m0c0047a9dd" y="421.6464"/>
      </g>
     </g>
    </g>
    <g id="xtick_15">
     <g id="line2d_15">
      <g>
       <use style="stroke:#000000;stroke-width:0.6;" x="304.359558" xlink:href="#m0c0047a9dd" y="421.6464"/>
      </g>
     </g>
    </g>
    <g id="xtick_16">
     <g id="line2d_16">
      <g>
       <use style="stroke:#000000;stroke-width:0.6;" x="315.399025" xlink:href="#m0c0047a9dd" y="421.6464"/>
      </g>
     </g>
    </g>
    <g id="xtick_17">
     <g id="line2d_17">
      <g>
       <use style="stroke:#000000;stroke-width:0.6;" x="324.732761" xlink:href="#m0c0047a9dd" y="421.6464"/>
      </g>
     </g>
    </g>
    <g id="xtick_18">
     <g id="line2d_18">
      <g>
       <use style="stroke:#000000;stroke-width:0.6;" x="332.818011" xlink:href="#m0c0047a9dd" y="421.6464"/>
      </g>
     </g>
    </g>
    <g id="xtick_19">
     <g id="line2d_19">
      <g>
       <use style="stroke:#000000;stroke-width:0.6;" x="339.949707" xlink:href="#m0c0047a9dd" y="421.6464"/>
      </g>
     </g>
    </g>
    <g id="xtick_20">
     <g id="line2d_20">
      <g>
       <use style="stroke:#000000;stroke-width:0.6;" x="388.298895" xlink:href="#m0c0047a9dd" y="421.6464"/>
      </g>
     </g>
    </g>
    <g id="xtick_21">
     <g id="line2d_21">
      <g>
       <use style="stroke:#000000;stroke-width:0.6;" x="412.849577" xlink:href="#m0c0047a9dd" y="421.6464"/>
      </g>
     </g>
    </g>
    <g id="xtick_22">
     <g id="line2d_22">
      <g>
       <use style="stroke:#000000;stroke-width:0.6;" x="430.268564" xlink:href="#m0c0047a9dd" y="421.6464"/>
      </g>
     </g>
    </g>
    <g id="xtick_23">
     <g id="line2d_23">
      <g>
       <use style="stroke:#000000;stroke-width:0.6;" x="443.779779" xlink:href="#m0c0047a9dd" y="421.6464"/>
      </g>
     </g>
    </g>
    <g id="xtick_24">
     <g id="line2d_24">
      <g>
       <use style="stroke:#000000;stroke-width:0.6;" x="454.819246" xlink:href="#m0c0047a9dd" y="421.6464"/>
      </g>
     </g>
    </g>
    <g id="xtick_25">
     <g id="line2d_25">
      <g>
       <use style="stroke:#000000;stroke-width:0.6;" x="464.152982" xlink:href="#m0c0047a9dd" y="421.6464"/>
      </g>
     </g>
    </g>
    <g id="xtick_26">
     <g id="line2d_26">
      <g>
       <use style="stroke:#000000;stroke-width:0.6;" x="472.238232" xlink:href="#m0c0047a9dd" y="421.6464"/>
      </g>
     </g>
    </g>
    <g id="xtick_27">
     <g id="line2d_27">
      <g>
       <use style="stroke:#000000;stroke-width:0.6;" x="479.369928" xlink:href="#m0c0047a9dd" y="421.6464"/>
      </g>
     </g>
    </g>
    <g id="xtick_28">
     <g id="line2d_28">
      <g>
       <use style="stroke:#000000;stroke-width:0.6;" x="527.719116" xlink:href="#m0c0047a9dd" y="421.6464"/>
      </g>
     </g>
    </g>
    <g id="xtick_29">
     <g id="line2d_29">
      <g>
       <use style="stroke:#000000;stroke-width:0.6;" x="552.269798" xlink:href="#m0c0047a9dd" y="421.6464"/>
      </g>
     </g>
    </g>
    <g id="xtick_30">
     <g id="line2d_30">
      <g>
       <use style="stroke:#000000;stroke-width:0.6;" x="569.688785" xlink:href="#m0c0047a9dd" y="421.6464"/>
      </g>
     </g>
    </g>
    <g id="xtick_31">
     <g id="line2d_31">
      <g>
       <use style="stroke:#000000;stroke-width:0.6;" x="583.2" xlink:href="#m0c0047a9dd" y="421.6464"/>
      </g>
     </g>
    </g>
    <g id="text_4">
     <!-- 4-Omethyl-Norbelladine (uM) -->
     <defs>
      <path d="M 37.796875 64.3125 
L 12.890625 25.390625 
L 37.796875 25.390625 
z
M 35.203125 72.90625 
L 47.609375 72.90625 
L 47.609375 25.390625 
L 58.015625 25.390625 
L 58.015625 17.1875 
L 47.609375 17.1875 
L 47.609375 0 
L 37.796875 0 
L 37.796875 17.1875 
L 4.890625 17.1875 
L 4.890625 26.703125 
z
" id="DejaVuSans-52"/>
      <path d="M 4.890625 31.390625 
L 31.203125 31.390625 
L 31.203125 23.390625 
L 4.890625 23.390625 
z
" id="DejaVuSans-45"/>
      <path d="M 39.40625 66.21875 
Q 28.65625 66.21875 22.328125 58.203125 
Q 16.015625 50.203125 16.015625 36.375 
Q 16.015625 22.609375 22.328125 14.59375 
Q 28.65625 6.59375 39.40625 6.59375 
Q 50.140625 6.59375 56.421875 14.59375 
Q 62.703125 22.609375 62.703125 36.375 
Q 62.703125 50.203125 56.421875 58.203125 
Q 50.140625 66.21875 39.40625 66.21875 
z
M 39.40625 74.21875 
Q 54.734375 74.21875 63.90625 63.9375 
Q 73.09375 53.65625 73.09375 36.375 
Q 73.09375 19.140625 63.90625 8.859375 
Q 54.734375 -1.421875 39.40625 -1.421875 
Q 24.03125 -1.421875 14.8125 8.828125 
Q 5.609375 19.09375 5.609375 36.375 
Q 5.609375 53.65625 14.8125 63.9375 
Q 24.03125 74.21875 39.40625 74.21875 
z
" id="DejaVuSans-79"/>
      <path d="M 52 44.1875 
Q 55.375 50.25 60.0625 53.125 
Q 64.75 56 71.09375 56 
Q 79.640625 56 84.28125 50.015625 
Q 88.921875 44.046875 88.921875 33.015625 
L 88.921875 0 
L 79.890625 0 
L 79.890625 32.71875 
Q 79.890625 40.578125 77.09375 44.375 
Q 74.3125 48.1875 68.609375 48.1875 
Q 61.625 48.1875 57.5625 43.546875 
Q 53.515625 38.921875 53.515625 30.90625 
L 53.515625 0 
L 44.484375 0 
L 44.484375 32.71875 
Q 44.484375 40.625 41.703125 44.40625 
Q 38.921875 48.1875 33.109375 48.1875 
Q 26.21875 48.1875 22.15625 43.53125 
Q 18.109375 38.875 18.109375 30.90625 
L 18.109375 0 
L 9.078125 0 
L 9.078125 54.6875 
L 18.109375 54.6875 
L 18.109375 46.1875 
Q 21.1875 51.21875 25.484375 53.609375 
Q 29.78125 56 35.6875 56 
Q 41.65625 56 45.828125 52.96875 
Q 50 49.953125 52 44.1875 
z
" id="DejaVuSans-109"/>
      <path d="M 56.203125 29.59375 
L 56.203125 25.203125 
L 14.890625 25.203125 
Q 15.484375 15.921875 20.484375 11.0625 
Q 25.484375 6.203125 34.421875 6.203125 
Q 39.59375 6.203125 44.453125 7.46875 
Q 49.3125 8.734375 54.109375 11.28125 
L 54.109375 2.78125 
Q 49.265625 0.734375 44.1875 -0.34375 
Q 39.109375 -1.421875 33.890625 -1.421875 
Q 20.796875 -1.421875 13.15625 6.1875 
Q 5.515625 13.8125 5.515625 26.8125 
Q 5.515625 40.234375 12.765625 48.109375 
Q 20.015625 56 32.328125 56 
Q 43.359375 56 49.78125 48.890625 
Q 56.203125 41.796875 56.203125 29.59375 
z
M 47.21875 32.234375 
Q 47.125 39.59375 43.09375 43.984375 
Q 39.0625 48.390625 32.421875 48.390625 
Q 24.90625 48.390625 20.390625 44.140625 
Q 15.875 39.890625 15.1875 32.171875 
z
" id="DejaVuSans-101"/>
      <path d="M 18.3125 70.21875 
L 18.3125 54.6875 
L 36.8125 54.6875 
L 36.8125 47.703125 
L 18.3125 47.703125 
L 18.3125 18.015625 
Q 18.3125 11.328125 20.140625 9.421875 
Q 21.96875 7.515625 27.59375 7.515625 
L 36.8125 7.515625 
L 36.8125 0 
L 27.59375 0 
Q 17.1875 0 13.234375 3.875 
Q 9.28125 7.765625 9.28125 18.015625 
L 9.28125 47.703125 
L 2.6875 47.703125 
L 2.6875 54.6875 
L 9.28125 54.6875 
L 9.28125 70.21875 
z
" id="DejaVuSans-116"/>
      <path d="M 54.890625 33.015625 
L 54.890625 0 
L 45.90625 0 
L 45.90625 32.71875 
Q 45.90625 40.484375 42.875 44.328125 
Q 39.84375 48.1875 33.796875 48.1875 
Q 26.515625 48.1875 22.3125 43.546875 
Q 18.109375 38.921875 18.109375 30.90625 
L 18.109375 0 
L 9.078125 0 
L 9.078125 75.984375 
L 18.109375 75.984375 
L 18.109375 46.1875 
Q 21.34375 51.125 25.703125 53.5625 
Q 30.078125 56 35.796875 56 
Q 45.21875 56 50.046875 50.171875 
Q 54.890625 44.34375 54.890625 33.015625 
z
" id="DejaVuSans-104"/>
      <path d="M 32.171875 -5.078125 
Q 28.375 -14.84375 24.75 -17.8125 
Q 21.140625 -20.796875 15.09375 -20.796875 
L 7.90625 -20.796875 
L 7.90625 -13.28125 
L 13.1875 -13.28125 
Q 16.890625 -13.28125 18.9375 -11.515625 
Q 21 -9.765625 23.484375 -3.21875 
L 25.09375 0.875 
L 2.984375 54.6875 
L 12.5 54.6875 
L 29.59375 11.921875 
L 46.6875 54.6875 
L 56.203125 54.6875 
z
" id="DejaVuSans-121"/>
      <path d="M 9.421875 75.984375 
L 18.40625 75.984375 
L 18.40625 0 
L 9.421875 0 
z
" id="DejaVuSans-108"/>
      <path d="M 9.8125 72.90625 
L 23.09375 72.90625 
L 55.421875 11.921875 
L 55.421875 72.90625 
L 64.984375 72.90625 
L 64.984375 0 
L 51.703125 0 
L 19.390625 60.984375 
L 19.390625 0 
L 9.8125 0 
z
" id="DejaVuSans-78"/>
      <path d="M 30.609375 48.390625 
Q 23.390625 48.390625 19.1875 42.75 
Q 14.984375 37.109375 14.984375 27.296875 
Q 14.984375 17.484375 19.15625 11.84375 
Q 23.34375 6.203125 30.609375 6.203125 
Q 37.796875 6.203125 41.984375 11.859375 
Q 46.1875 17.53125 46.1875 27.296875 
Q 46.1875 37.015625 41.984375 42.703125 
Q 37.796875 48.390625 30.609375 48.390625 
z
M 30.609375 56 
Q 42.328125 56 49.015625 48.375 
Q 55.71875 40.765625 55.71875 27.296875 
Q 55.71875 13.875 49.015625 6.21875 
Q 42.328125 -1.421875 30.609375 -1.421875 
Q 18.84375 -1.421875 12.171875 6.21875 
Q 5.515625 13.875 5.515625 27.296875 
Q 5.515625 40.765625 12.171875 48.375 
Q 18.84375 56 30.609375 56 
z
" id="DejaVuSans-111"/>
      <path d="M 41.109375 46.296875 
Q 39.59375 47.171875 37.8125 47.578125 
Q 36.03125 48 33.890625 48 
Q 26.265625 48 22.1875 43.046875 
Q 18.109375 38.09375 18.109375 28.8125 
L 18.109375 0 
L 9.078125 0 
L 9.078125 54.6875 
L 18.109375 54.6875 
L 18.109375 46.1875 
Q 20.953125 51.171875 25.484375 53.578125 
Q 30.03125 56 36.53125 56 
Q 37.453125 56 38.578125 55.875 
Q 39.703125 55.765625 41.0625 55.515625 
z
" id="DejaVuSans-114"/>
      <path d="M 48.6875 27.296875 
Q 48.6875 37.203125 44.609375 42.84375 
Q 40.53125 48.484375 33.40625 48.484375 
Q 26.265625 48.484375 22.1875 42.84375 
Q 18.109375 37.203125 18.109375 27.296875 
Q 18.109375 17.390625 22.1875 11.75 
Q 26.265625 6.109375 33.40625 6.109375 
Q 40.53125 6.109375 44.609375 11.75 
Q 48.6875 17.390625 48.6875 27.296875 
z
M 18.109375 46.390625 
Q 20.953125 51.265625 25.265625 53.625 
Q 29.59375 56 35.59375 56 
Q 45.5625 56 51.78125 48.09375 
Q 58.015625 40.1875 58.015625 27.296875 
Q 58.015625 14.40625 51.78125 6.484375 
Q 45.5625 -1.421875 35.59375 -1.421875 
Q 29.59375 -1.421875 25.265625 0.953125 
Q 20.953125 3.328125 18.109375 8.203125 
L 18.109375 0 
L 9.078125 0 
L 9.078125 75.984375 
L 18.109375 75.984375 
z
" id="DejaVuSans-98"/>
      <path d="M 34.28125 27.484375 
Q 23.390625 27.484375 19.1875 25 
Q 14.984375 22.515625 14.984375 16.5 
Q 14.984375 11.71875 18.140625 8.90625 
Q 21.296875 6.109375 26.703125 6.109375 
Q 34.1875 6.109375 38.703125 11.40625 
Q 43.21875 16.703125 43.21875 25.484375 
L 43.21875 27.484375 
z
M 52.203125 31.203125 
L 52.203125 0 
L 43.21875 0 
L 43.21875 8.296875 
Q 40.140625 3.328125 35.546875 0.953125 
Q 30.953125 -1.421875 24.3125 -1.421875 
Q 15.921875 -1.421875 10.953125 3.296875 
Q 6 8.015625 6 15.921875 
Q 6 25.140625 12.171875 29.828125 
Q 18.359375 34.515625 30.609375 34.515625 
L 43.21875 34.515625 
L 43.21875 35.40625 
Q 43.21875 41.609375 39.140625 45 
Q 35.0625 48.390625 27.6875 48.390625 
Q 23 48.390625 18.546875 47.265625 
Q 14.109375 46.140625 10.015625 43.890625 
L 10.015625 52.203125 
Q 14.9375 54.109375 19.578125 55.046875 
Q 24.21875 56 28.609375 56 
Q 40.484375 56 46.34375 49.84375 
Q 52.203125 43.703125 52.203125 31.203125 
z
" id="DejaVuSans-97"/>
      <path d="M 45.40625 46.390625 
L 45.40625 75.984375 
L 54.390625 75.984375 
L 54.390625 0 
L 45.40625 0 
L 45.40625 8.203125 
Q 42.578125 3.328125 38.25 0.953125 
Q 33.9375 -1.421875 27.875 -1.421875 
Q 17.96875 -1.421875 11.734375 6.484375 
Q 5.515625 14.40625 5.515625 27.296875 
Q 5.515625 40.1875 11.734375 48.09375 
Q 17.96875 56 27.875 56 
Q 33.9375 56 38.25 53.625 
Q 42.578125 51.265625 45.40625 46.390625 
z
M 14.796875 27.296875 
Q 14.796875 17.390625 18.875 11.75 
Q 22.953125 6.109375 30.078125 6.109375 
Q 37.203125 6.109375 41.296875 11.75 
Q 45.40625 17.390625 45.40625 27.296875 
Q 45.40625 37.203125 41.296875 42.84375 
Q 37.203125 48.484375 30.078125 48.484375 
Q 22.953125 48.484375 18.875 42.84375 
Q 14.796875 37.203125 14.796875 27.296875 
z
" id="DejaVuSans-100"/>
      <path d="M 9.421875 54.6875 
L 18.40625 54.6875 
L 18.40625 0 
L 9.421875 0 
z
M 9.421875 75.984375 
L 18.40625 75.984375 
L 18.40625 64.59375 
L 9.421875 64.59375 
z
" id="DejaVuSans-105"/>
      <path d="M 54.890625 33.015625 
L 54.890625 0 
L 45.90625 0 
L 45.90625 32.71875 
Q 45.90625 40.484375 42.875 44.328125 
Q 39.84375 48.1875 33.796875 48.1875 
Q 26.515625 48.1875 22.3125 43.546875 
Q 18.109375 38.921875 18.109375 30.90625 
L 18.109375 0 
L 9.078125 0 
L 9.078125 54.6875 
L 18.109375 54.6875 
L 18.109375 46.1875 
Q 21.34375 51.125 25.703125 53.5625 
Q 30.078125 56 35.796875 56 
Q 45.21875 56 50.046875 50.171875 
Q 54.890625 44.34375 54.890625 33.015625 
z
" id="DejaVuSans-110"/>
      <path id="DejaVuSans-32"/>
      <path d="M 31 75.875 
Q 24.46875 64.65625 21.28125 53.65625 
Q 18.109375 42.671875 18.109375 31.390625 
Q 18.109375 20.125 21.3125 9.0625 
Q 24.515625 -2 31 -13.1875 
L 23.1875 -13.1875 
Q 15.875 -1.703125 12.234375 9.375 
Q 8.59375 20.453125 8.59375 31.390625 
Q 8.59375 42.28125 12.203125 53.3125 
Q 15.828125 64.359375 23.1875 75.875 
z
" id="DejaVuSans-40"/>
      <path d="M 8.5 21.578125 
L 8.5 54.6875 
L 17.484375 54.6875 
L 17.484375 21.921875 
Q 17.484375 14.15625 20.5 10.265625 
Q 23.53125 6.390625 29.59375 6.390625 
Q 36.859375 6.390625 41.078125 11.03125 
Q 45.3125 15.671875 45.3125 23.6875 
L 45.3125 54.6875 
L 54.296875 54.6875 
L 54.296875 0 
L 45.3125 0 
L 45.3125 8.40625 
Q 42.046875 3.421875 37.71875 1 
Q 33.40625 -1.421875 27.6875 -1.421875 
Q 18.265625 -1.421875 13.375 4.4375 
Q 8.5 10.296875 8.5 21.578125 
z
M 31.109375 56 
z
" id="DejaVuSans-117"/>
      <path d="M 9.8125 72.90625 
L 24.515625 72.90625 
L 43.109375 23.296875 
L 61.8125 72.90625 
L 76.515625 72.90625 
L 76.515625 0 
L 66.890625 0 
L 66.890625 64.015625 
L 48.09375 14.015625 
L 38.1875 14.015625 
L 19.390625 64.015625 
L 19.390625 0 
L 9.8125 0 
z
" id="DejaVuSans-77"/>
      <path d="M 8.015625 75.875 
L 15.828125 75.875 
Q 23.140625 64.359375 26.78125 53.3125 
Q 30.421875 42.28125 30.421875 31.390625 
Q 30.421875 20.453125 26.78125 9.375 
Q 23.140625 -1.703125 15.828125 -13.1875 
L 8.015625 -13.1875 
Q 14.5 -2 17.703125 9.0625 
Q 20.90625 20.125 20.90625 31.390625 
Q 20.90625 42.671875 17.703125 53.65625 
Q 14.5 64.65625 8.015625 75.875 
z
" id="DejaVuSans-41"/>
     </defs>
     <g transform="translate(186.3375 463.7639)scale(0.2 -0.2)">
      <use xlink:href="#DejaVuSans-52"/>
      <use x="63.623047" xlink:href="#DejaVuSans-45"/>
      <use x="99.738281" xlink:href="#DejaVuSans-79"/>
      <use x="178.449219" xlink:href="#DejaVuSans-109"/>
      <use x="275.861328" xlink:href="#DejaVuSans-101"/>
      <use x="337.384766" xlink:href="#DejaVuSans-116"/>
      <use x="376.59375" xlink:href="#DejaVuSans-104"/>
      <use x="439.972656" xlink:href="#DejaVuSans-121"/>
      <use x="499.152344" xlink:href="#DejaVuSans-108"/>
      <use x="526.935547" xlink:href="#DejaVuSans-45"/>
      <use x="563.019531" xlink:href="#DejaVuSans-78"/>
      <use x="637.824219" xlink:href="#DejaVuSans-111"/>
      <use x="699.005859" xlink:href="#DejaVuSans-114"/>
      <use x="740.119141" xlink:href="#DejaVuSans-98"/>
      <use x="803.595703" xlink:href="#DejaVuSans-101"/>
      <use x="865.119141" xlink:href="#DejaVuSans-108"/>
      <use x="892.902344" xlink:href="#DejaVuSans-108"/>
      <use x="920.685547" xlink:href="#DejaVuSans-97"/>
      <use x="981.964844" xlink:href="#DejaVuSans-100"/>
      <use x="1045.441406" xlink:href="#DejaVuSans-105"/>
      <use x="1073.224609" xlink:href="#DejaVuSans-110"/>
      <use x="1136.603516" xlink:href="#DejaVuSans-101"/>
      <use x="1198.126953" xlink:href="#DejaVuSans-32"/>
      <use x="1229.914062" xlink:href="#DejaVuSans-40"/>
      <use x="1268.927734" xlink:href="#DejaVuSans-117"/>
      <use x="1332.306641" xlink:href="#DejaVuSans-77"/>
      <use x="1418.585938" xlink:href="#DejaVuSans-41"/>
     </g>
    </g>
   </g>
   <g id="matplotlib.axis_2">
    <g id="ytick_1">
     <g id="line2d_32">
      <defs>
       <path d="M 0 0 
L -2 0 
" id="mefdbd7cb7f" style="stroke:#000000;"/>
      </defs>
      <g>
       <use style="stroke:#000000;" x="81" xlink:href="#mefdbd7cb7f" y="404.090589"/>
      </g>
     </g>
     <g id="text_5">
      <!-- 0 -->
      <g transform="translate(64.0475 410.929183)scale(0.18 -0.18)">
       <use xlink:href="#DejaVuSans-48"/>
      </g>
     </g>
    </g>
    <g id="ytick_2">
     <g id="line2d_33">
      <g>
       <use style="stroke:#000000;" x="81" xlink:href="#mefdbd7cb7f" y="339.394794"/>
      </g>
     </g>
     <g id="text_6">
      <!-- 1 -->
      <g transform="translate(64.0475 346.233388)scale(0.18 -0.18)">
       <use xlink:href="#DejaVuSans-49"/>
      </g>
     </g>
    </g>
    <g id="ytick_3">
     <g id="line2d_34">
      <g>
       <use style="stroke:#000000;" x="81" xlink:href="#mefdbd7cb7f" y="274.698998"/>
      </g>
     </g>
     <g id="text_7">
      <!-- 2 -->
      <defs>
       <path d="M 19.1875 8.296875 
L 53.609375 8.296875 
L 53.609375 0 
L 7.328125 0 
L 7.328125 8.296875 
Q 12.9375 14.109375 22.625 23.890625 
Q 32.328125 33.6875 34.8125 36.53125 
Q 39.546875 41.84375 41.421875 45.53125 
Q 43.3125 49.21875 43.3125 52.78125 
Q 43.3125 58.59375 39.234375 62.25 
Q 35.15625 65.921875 28.609375 65.921875 
Q 23.96875 65.921875 18.8125 64.3125 
Q 13.671875 62.703125 7.8125 59.421875 
L 7.8125 69.390625 
Q 13.765625 71.78125 18.9375 73 
Q 24.125 74.21875 28.421875 74.21875 
Q 39.75 74.21875 46.484375 68.546875 
Q 53.21875 62.890625 53.21875 53.421875 
Q 53.21875 48.921875 51.53125 44.890625 
Q 49.859375 40.875 45.40625 35.40625 
Q 44.1875 33.984375 37.640625 27.21875 
Q 31.109375 20.453125 19.1875 8.296875 
z
" id="DejaVuSans-50"/>
      </defs>
      <g transform="translate(64.0475 281.537592)scale(0.18 -0.18)">
       <use xlink:href="#DejaVuSans-50"/>
      </g>
     </g>
    </g>
    <g id="ytick_4">
     <g id="line2d_35">
      <g>
       <use style="stroke:#000000;" x="81" xlink:href="#mefdbd7cb7f" y="210.003202"/>
      </g>
     </g>
     <g id="text_8">
      <!-- 3 -->
      <defs>
       <path d="M 40.578125 39.3125 
Q 47.65625 37.796875 51.625 33 
Q 55.609375 28.21875 55.609375 21.1875 
Q 55.609375 10.40625 48.1875 4.484375 
Q 40.765625 -1.421875 27.09375 -1.421875 
Q 22.515625 -1.421875 17.65625 -0.515625 
Q 12.796875 0.390625 7.625 2.203125 
L 7.625 11.71875 
Q 11.71875 9.328125 16.59375 8.109375 
Q 21.484375 6.890625 26.8125 6.890625 
Q 36.078125 6.890625 40.9375 10.546875 
Q 45.796875 14.203125 45.796875 21.1875 
Q 45.796875 27.640625 41.28125 31.265625 
Q 36.765625 34.90625 28.71875 34.90625 
L 20.21875 34.90625 
L 20.21875 43.015625 
L 29.109375 43.015625 
Q 36.375 43.015625 40.234375 45.921875 
Q 44.09375 48.828125 44.09375 54.296875 
Q 44.09375 59.90625 40.109375 62.90625 
Q 36.140625 65.921875 28.71875 65.921875 
Q 24.65625 65.921875 20.015625 65.03125 
Q 15.375 64.15625 9.8125 62.3125 
L 9.8125 71.09375 
Q 15.4375 72.65625 20.34375 73.4375 
Q 25.25 74.21875 29.59375 74.21875 
Q 40.828125 74.21875 47.359375 69.109375 
Q 53.90625 64.015625 53.90625 55.328125 
Q 53.90625 49.265625 50.4375 45.09375 
Q 46.96875 40.921875 40.578125 39.3125 
z
" id="DejaVuSans-51"/>
      </defs>
      <g transform="translate(64.0475 216.841796)scale(0.18 -0.18)">
       <use xlink:href="#DejaVuSans-51"/>
      </g>
     </g>
    </g>
    <g id="ytick_5">
     <g id="line2d_36">
      <g>
       <use style="stroke:#000000;" x="81" xlink:href="#mefdbd7cb7f" y="145.307407"/>
      </g>
     </g>
     <g id="text_9">
      <!-- 4 -->
      <g transform="translate(64.0475 152.146001)scale(0.18 -0.18)">
       <use xlink:href="#DejaVuSans-52"/>
      </g>
     </g>
    </g>
    <g id="ytick_6">
     <g id="line2d_37">
      <g>
       <use style="stroke:#000000;" x="81" xlink:href="#mefdbd7cb7f" y="80.611611"/>
      </g>
     </g>
     <g id="text_10">
      <!-- 5 -->
      <defs>
       <path d="M 10.796875 72.90625 
L 49.515625 72.90625 
L 49.515625 64.59375 
L 19.828125 64.59375 
L 19.828125 46.734375 
Q 21.96875 47.46875 24.109375 47.828125 
Q 26.265625 48.1875 28.421875 48.1875 
Q 40.625 48.1875 47.75 41.5 
Q 54.890625 34.8125 54.890625 23.390625 
Q 54.890625 11.625 47.5625 5.09375 
Q 40.234375 -1.421875 26.90625 -1.421875 
Q 22.3125 -1.421875 17.546875 -0.640625 
Q 12.796875 0.140625 7.71875 1.703125 
L 7.71875 11.625 
Q 12.109375 9.234375 16.796875 8.0625 
Q 21.484375 6.890625 26.703125 6.890625 
Q 35.15625 6.890625 40.078125 11.328125 
Q 45.015625 15.765625 45.015625 23.390625 
Q 45.015625 31 40.078125 35.4375 
Q 35.15625 39.890625 26.703125 39.890625 
Q 22.75 39.890625 18.8125 39.015625 
Q 14.890625 38.140625 10.796875 36.28125 
z
" id="DejaVuSans-53"/>
      </defs>
      <g transform="translate(64.0475 87.450205)scale(0.18 -0.18)">
       <use xlink:href="#DejaVuSans-53"/>
      </g>
     </g>
    </g>
    <g id="text_11">
     <!-- $(RFU/OD) \times 10^4$ -->
     <defs>
      <path d="M 25.203125 64.796875 
L 20.21875 38.921875 
L 32.90625 38.921875 
Q 40.375 38.921875 44.984375 43.046875 
Q 49.609375 47.171875 49.609375 53.8125 
Q 49.609375 59.125 46.5 61.953125 
Q 43.40625 64.796875 37.59375 64.796875 
z
M 43.3125 35.015625 
Q 46.4375 34.28125 48.515625 31.390625 
Q 50.59375 28.515625 53.328125 19.921875 
L 59.515625 0 
L 49.125 0 
L 43.40625 18.703125 
Q 41.21875 25.921875 38.328125 28.359375 
Q 35.453125 30.8125 29.5 30.8125 
L 18.609375 30.8125 
L 12.59375 0 
L 2.6875 0 
L 16.890625 72.90625 
L 39.109375 72.90625 
Q 49.21875 72.90625 54.609375 68.328125 
Q 60.015625 63.765625 60.015625 55.171875 
Q 60.015625 47.5625 55.421875 41.984375 
Q 50.828125 36.421875 43.3125 35.015625 
z
" id="DejaVuSans-Oblique-82"/>
      <path d="M 16.890625 72.90625 
L 58.6875 72.90625 
L 57.078125 64.59375 
L 25.09375 64.59375 
L 20.90625 43.109375 
L 49.8125 43.109375 
L 48.1875 34.8125 
L 19.28125 34.8125 
L 12.5 0 
L 2.6875 0 
z
" id="DejaVuSans-Oblique-70"/>
      <path d="M 15.484375 72.90625 
L 25.390625 72.90625 
L 16.796875 28.609375 
Q 16.265625 25.640625 16.046875 23.703125 
Q 15.828125 21.78125 15.828125 20.3125 
Q 15.828125 13.578125 19.578125 10.078125 
Q 23.34375 6.59375 30.609375 6.59375 
Q 40.046875 6.59375 45.28125 11.765625 
Q 50.53125 16.9375 52.78125 28.609375 
L 61.375 72.90625 
L 71.296875 72.90625 
L 62.5 27.390625 
Q 59.625 12.640625 51.5625 5.609375 
Q 43.5 -1.421875 29.5 -1.421875 
Q 18.5625 -1.421875 12.1875 4.078125 
Q 5.8125 9.578125 5.8125 19 
Q 5.8125 20.703125 6.046875 22.828125 
Q 6.296875 24.953125 6.78125 27.390625 
z
" id="DejaVuSans-Oblique-85"/>
      <path d="M 25.390625 72.90625 
L 33.6875 72.90625 
L 8.296875 -9.28125 
L 0 -9.28125 
z
" id="DejaVuSans-47"/>
      <path d="M 45.609375 66.21875 
Q 37.5 66.21875 31.296875 62.28125 
Q 25.09375 58.34375 20.515625 50.296875 
Q 17.578125 45.171875 16.03125 39.40625 
Q 14.5 33.640625 14.5 27.78125 
Q 14.5 17.625 19.359375 12.109375 
Q 24.21875 6.59375 33.109375 6.59375 
Q 41.109375 6.59375 47.375 10.5625 
Q 53.65625 14.546875 58.109375 22.40625 
Q 61.078125 27.6875 62.640625 33.46875 
Q 64.203125 39.265625 64.203125 45.015625 
Q 64.203125 55.125 59.3125 60.671875 
Q 54.4375 66.21875 45.609375 66.21875 
z
M 32.8125 -1.421875 
Q 19.390625 -1.421875 11.6875 6.53125 
Q 4 14.5 4 28.328125 
Q 4 36.234375 7 44.484375 
Q 10.015625 52.734375 15.28125 59.1875 
Q 21.484375 66.75 29.09375 70.484375 
Q 36.71875 74.21875 45.90625 74.21875 
Q 59.28125 74.21875 66.984375 66.328125 
Q 74.703125 58.453125 74.703125 44.828125 
Q 74.703125 36.421875 71.765625 28.3125 
Q 68.84375 20.21875 63.375 13.625 
Q 57.125 6 49.578125 2.28125 
Q 42.046875 -1.421875 32.8125 -1.421875 
z
" id="DejaVuSans-Oblique-79"/>
      <path d="M 16.890625 72.90625 
L 38.09375 72.90625 
Q 54.984375 72.90625 63.59375 65.75 
Q 72.21875 58.59375 72.21875 44.484375 
Q 72.21875 35.15625 68.9375 26.53125 
Q 65.671875 17.921875 59.90625 12.015625 
Q 54.109375 5.953125 45.171875 2.96875 
Q 36.234375 0 24.03125 0 
L 2.6875 0 
z
M 25.203125 64.796875 
L 14.203125 8.109375 
L 27.09375 8.109375 
Q 43.65625 8.109375 52.734375 17.625 
Q 61.8125 27.15625 61.8125 44.484375 
Q 61.8125 54.984375 55.953125 59.890625 
Q 50.09375 64.796875 37.59375 64.796875 
z
" id="DejaVuSans-Oblique-68"/>
      <path d="M 70.125 53.71875 
L 47.796875 31.296875 
L 70.125 8.984375 
L 64.3125 3.078125 
L 41.890625 25.484375 
L 19.484375 3.078125 
L 13.71875 8.984375 
L 35.984375 31.296875 
L 13.71875 53.71875 
L 19.484375 59.625 
L 41.890625 37.203125 
L 64.3125 59.625 
z
" id="DejaVuSans-215"/>
     </defs>
     <g transform="translate(55.888125 315.8488)rotate(-90)scale(0.2 -0.2)">
      <use transform="translate(0 0.684375)" xlink:href="#DejaVuSans-40"/>
      <use transform="translate(39.013672 0.684375)" xlink:href="#DejaVuSans-Oblique-82"/>
      <use transform="translate(108.496094 0.684375)" xlink:href="#DejaVuSans-Oblique-70"/>
      <use transform="translate(166.015625 0.684375)" xlink:href="#DejaVuSans-Oblique-85"/>
      <use transform="translate(239.208984 0.684375)" xlink:href="#DejaVuSans-47"/>
      <use transform="translate(272.900391 0.684375)" xlink:href="#DejaVuSans-Oblique-79"/>
      <use transform="translate(351.611328 0.684375)" xlink:href="#DejaVuSans-Oblique-68"/>
      <use transform="translate(428.613281 0.684375)" xlink:href="#DejaVuSans-41"/>
      <use transform="translate(487.109375 0.684375)" xlink:href="#DejaVuSans-215"/>
      <use transform="translate(590.380859 0.684375)" xlink:href="#DejaVuSans-49"/>
      <use transform="translate(654.003906 0.684375)" xlink:href="#DejaVuSans-48"/>
      <use transform="translate(718.583984 38.965625)scale(0.7)" xlink:href="#DejaVuSans-52"/>
     </g>
    </g>
   </g>
   <g id="line2d_38">
    <path clip-path="url(#pb221f52fb8)" d="M 79.777348 399.747774 
L 316.49965 399.631397 
L 373.593978 399.388598 
L 408.990832 399.027206 
L 434.876533 398.549467 
L 455.344853 397.956534 
L 472.297466 397.249057 
L 486.779672 396.427327 
L 499.428155 395.491485 
L 510.661943 394.44139 
L 520.771571 393.276661 
L 529.966292 391.99678 
L 538.40368 390.600782 
L 541.230331 390.078976 
L 541.230331 390.078976 
" style="fill:none;stroke:#0ad12e;stroke-linecap:square;stroke-width:1.5;"/>
   </g>
   <g id="line2d_39">
    <path clip-path="url(#pb221f52fb8)" d="M 79.777348 401.700144 
L 323.44387 401.588639 
L 359.949939 401.349779 
L 382.464155 400.991642 
L 398.952999 400.515712 
L 412.04254 399.92244 
L 422.953179 399.211113 
L 432.352156 398.380342 
L 440.645917 397.428136 
L 448.103008 396.351661 
L 454.910607 395.147259 
L 461.206939 393.809963 
L 467.095446 392.333985 
L 472.657449 390.712295 
L 477.963353 388.934869 
L 483.068225 386.991094 
L 488.022873 384.867007 
L 492.873675 382.545515 
L 497.666156 380.00494 
L 502.445711 377.218577 
L 507.263964 374.150723 
L 512.182532 370.753123 
L 517.282442 366.95685 
L 522.686641 362.652387 
L 528.611524 357.642152 
L 535.558394 351.464421 
L 541.230331 346.262024 
L 541.230331 346.262024 
" style="fill:none;stroke:#0a95d1;stroke-linecap:square;stroke-width:1.5;"/>
   </g>
   <g id="line2d_40">
    <path clip-path="url(#pb221f52fb8)" d="M 79.777348 403.693004 
L 129.289216 403.476134 
L 158.560424 403.137211 
L 179.412281 402.682441 
L 195.809565 402.10837 
L 209.284404 401.418875 
L 220.783038 400.611368 
L 230.749731 399.693535 
L 239.658968 398.653402 
L 247.656017 397.500199 
L 254.993314 396.220346 
L 261.720761 394.824981 
L 267.996112 393.299442 
L 273.882388 391.641764 
L 279.42986 389.850427 
L 284.679306 387.924385 
L 289.702868 385.846194 
L 294.519735 383.61426 
L 299.179682 381.209811 
L 303.69043 378.631391 
L 308.059437 375.87855 
L 312.346941 372.913477 
L 316.54918 369.735715 
L 320.687039 366.326505 
L 324.776601 362.667622 
L 328.830059 358.741853 
L 332.875355 354.513003 
L 336.932991 349.94649 
L 341.000763 345.031167 
L 345.10657 339.718517 
L 349.269631 333.965265 
L 353.515326 327.715048 
L 357.871787 320.901878 
L 362.378638 313.435275 
L 367.080291 305.209162 
L 372.049864 296.058256 
L 377.399138 285.732216 
L 383.333004 273.780678 
L 390.323957 259.178195 
L 400.438987 237.473882 
L 413.950203 208.560175 
L 420.960657 194.101963 
L 426.887901 182.375563 
L 432.235039 172.280021 
L 437.212195 163.350039 
L 441.929854 155.335499 
L 446.460066 148.07199 
L 450.84746 141.452467 
L 455.129375 135.389928 
L 459.334792 129.817155 
L 463.48604 124.681873 
L 467.602122 119.940692 
L 471.702881 115.553725 
L 475.804462 111.489312 
L 479.923042 107.719264 
L 484.075627 104.218114 
L 488.278933 100.964028 
L 492.549837 97.93813 
L 496.906721 95.123417 
L 501.369991 92.504572 
L 505.961937 90.068198 
L 510.708071 87.802244 
L 515.635289 85.69702 
L 520.775816 83.743508 
L 526.167333 81.933841 
L 531.853186 80.261581 
L 537.885673 78.721108 
L 541.230331 77.959554 
L 541.230331 77.959554 
" style="fill:none;stroke:#710ad1;stroke-linecap:square;stroke-width:1.5;"/>
   </g>
   <g id="line2d_41">
    <path clip-path="url(#pb221f52fb8)" d="M 79.777348 404.975481 
L 137.442614 404.753388 
L 171.801931 404.409811 
L 196.352613 403.951348 
L 215.634806 403.3768 
L 231.561125 402.686121 
L 245.132759 401.880716 
L 257.011816 400.957615 
L 267.55293 399.92015 
L 277.100748 398.760305 
L 285.800239 397.482583 
L 293.839196 396.079175 
L 301.286244 394.555882 
L 308.258473 392.905327 
L 314.842034 391.119884 
L 321.078797 389.199367 
L 327.024929 387.136558 
L 332.70498 384.932145 
L 338.175343 382.57178 
L 343.462593 380.049062 
L 348.602652 377.350139 
L 353.609357 374.469719 
L 358.50647 371.395326 
L 363.312048 368.115454 
L 368.050297 364.611724 
L 372.738828 360.867355 
L 377.399138 356.85955 
L 382.045995 352.568249 
L 386.696617 347.968827 
L 391.36894 343.033227 
L 396.086949 337.723667 
L 400.87715 331.995138 
L 405.7601 325.806007 
L 410.77658 319.08498 
L 415.967567 311.754127 
L 421.395997 303.697921 
L 427.151437 294.751773 
L 433.374571 284.659247 
L 440.342266 272.923637 
L 448.742325 258.318936 
L 463.420411 232.254553 
L 474.773525 212.315909 
L 482.523053 199.148324 
L 489.160989 188.298354 
L 495.186636 178.867714 
L 500.813075 170.46863 
L 506.158926 162.882602 
L 511.300583 155.967773 
L 516.290579 149.625619 
L 521.167559 143.783244 
L 525.962762 138.382757 
L 530.702765 133.376717 
L 535.409259 128.727214 
L 540.102749 124.401198 
L 541.230331 123.407041 
L 541.230331 123.407041 
" style="fill:none;stroke:#d10a7b;stroke-linecap:square;stroke-width:1.5;"/>
   </g>
   <g id="line2d_42">
    <path clip-path="url(#pb221f52fb8)" d="M 79.777348 399.70087 
L 148.322949 399.512791 
L 184.222136 399.205079 
L 209.138677 398.779045 
L 228.248193 398.238415 
L 243.912783 397.5785 
L 257.14402 396.803109 
L 268.600238 395.913971 
L 278.786688 394.903818 
L 287.942017 393.775147 
L 296.274914 392.526183 
L 303.934827 391.155449 
L 311.032638 389.66183 
L 317.67731 388.038242 
L 323.927916 386.283815 
L 329.8521 384.391481 
L 335.483814 382.360986 
L 340.884942 380.178608 
L 346.087149 377.837409 
L 351.115793 375.330823 
L 355.991376 372.652807 
L 360.754474 369.782957 
L 365.413538 366.716288 
L 369.99612 363.433702 
L 374.5228 359.917118 
L 379.008638 356.149987 
L 383.480706 352.102423 
L 387.950337 347.754979 
L 392.431551 343.084134 
L 396.952569 338.04831 
L 401.537629 332.605209 
L 406.206586 326.714191 
L 411.000693 320.303288 
L 415.957981 313.298128 
L 421.136929 305.589192 
L 426.619193 297.023518 
L 432.545634 287.342995 
L 439.177569 276.072042 
L 447.159834 262.046552 
L 460.899667 237.359893 
L 471.897286 217.814627 
L 479.309954 205.087486 
L 485.653096 194.62885 
L 491.408083 185.560993 
L 496.783212 177.500221 
L 501.89285 170.233002 
L 506.809187 163.622644 
L 511.583811 157.571429 
L 516.254004 152.00805 
L 520.850468 146.875323 
L 525.398371 142.127538 
L 529.919599 137.726814 
L 534.434888 133.640323 
L 538.96257 129.840986 
L 541.230331 128.046407 
L 541.230331 128.046407 
" style="fill:none;stroke:#d10a0a;stroke-linecap:square;stroke-width:1.5;"/>
   </g>
   <g id="line2d_43">
    <path clip-path="url(#pb221f52fb8)" d="M 79.777348 402.228396 
L 142.909431 402.033977 
L 176.98025 401.71804 
L 200.698052 401.284264 
L 218.949918 400.735681 
L 233.835086 400.073243 
L 246.48632 399.293615 
L 257.473272 398.39926 
L 267.218402 397.387891 
L 275.998512 396.257286 
L 284.005123 395.005423 
L 291.376451 393.63057 
L 298.215658 392.131342 
L 304.601878 390.506752 
L 310.62453 388.747725 
L 316.350819 386.844586 
L 321.786718 384.805324 
L 327.004104 382.611803 
L 332.018644 380.263776 
L 336.879931 377.742571 
L 341.609305 375.038871 
L 346.223778 372.143894 
L 350.736963 369.04961 
L 355.185944 365.728616 
L 359.574042 362.174591 
L 363.926422 358.362318 
L 368.261418 354.268321 
L 372.601661 349.861323 
L 376.953484 345.123778 
L 381.345408 340.011833 
L 385.804095 334.477937 
L 390.353229 328.473461 
L 395.019409 321.942213 
L 399.84771 314.797014 
L 404.89742 306.921411 
L 410.252158 298.151031 
L 416.048986 288.220613 
L 422.54613 276.636651 
L 430.412803 262.133696 
L 445.24301 234.199377 
L 455.023862 216.052279 
L 462.077001 203.425132 
L 468.17141 192.960509 
L 473.72473 183.858912 
L 478.923174 175.759322 
L 483.871423 168.455652 
L 488.637917 161.811949 
L 493.269368 155.733805 
L 497.801526 150.149219 
L 502.263905 145.000366 
L 506.679692 140.242063 
L 511.07085 135.834874 
L 515.455757 131.746989 
L 519.853782 127.949222 
L 524.283205 124.416881 
L 528.761245 121.129231 
L 533.306707 118.067262 
L 537.940039 115.213871 
L 541.230331 113.341852 
L 541.230331 113.341852 
" style="fill:none;stroke:#ed4107;stroke-linecap:square;stroke-width:1.5;"/>
   </g>
   <g id="line2d_44">
    <defs>
     <path d="M 0 3 
C 0.795609 3 1.55874 2.683901 2.12132 2.12132 
C 2.683901 1.55874 3 0.795609 3 0 
C 3 -0.795609 2.683901 -1.55874 2.12132 -2.12132 
C 1.55874 -2.683901 0.795609 -3 0 -3 
C -0.795609 -3 -1.55874 -2.683901 -2.12132 -2.12132 
C -2.683901 -1.55874 -3 -0.795609 -3 0 
C -3 0.795609 -2.683901 1.55874 -2.12132 2.12132 
C -1.55874 2.683901 -0.795609 3 0 3 
z
" id="m2781e57543" style="stroke:#0ad12e;"/>
    </defs>
    <g clip-path="url(#pb221f52fb8)">
     <use style="fill:#0ad12e;stroke:#0ad12e;" x="-1" xlink:href="#m2781e57543" y="399.518819"/>
     <use style="fill:#0ad12e;stroke:#0ad12e;" x="206.909006" xlink:href="#m2781e57543" y="399.51896"/>
     <use style="fill:#0ad12e;stroke:#0ad12e;" x="262.38989" xlink:href="#m2781e57543" y="399.438992"/>
     <use style="fill:#0ad12e;stroke:#0ad12e;" x="304.359558" xlink:href="#m2781e57543" y="399.36924"/>
     <use style="fill:#0ad12e;stroke:#0ad12e;" x="346.329227" xlink:href="#m2781e57543" y="398.947453"/>
     <use style="fill:#0ad12e;stroke:#0ad12e;" x="401.81011" xlink:href="#m2781e57543" y="398.728076"/>
     <use style="fill:#0ad12e;stroke:#0ad12e;" x="443.779779" xlink:href="#m2781e57543" y="397.74148"/>
     <use style="fill:#0ad12e;stroke:#0ad12e;" x="485.749448" xlink:href="#m2781e57543" y="395.935382"/>
     <use style="fill:#0ad12e;stroke:#0ad12e;" x="541.230331" xlink:href="#m2781e57543" y="388.751329"/>
    </g>
   </g>
   <g id="line2d_45">
    <g clip-path="url(#pb221f52fb8)">
     <use style="fill:#0ad12e;stroke:#0ad12e;" x="-1" xlink:href="#m2781e57543" y="399.558809"/>
     <use style="fill:#0ad12e;stroke:#0ad12e;" x="206.909006" xlink:href="#m2781e57543" y="399.558758"/>
     <use style="fill:#0ad12e;stroke:#0ad12e;" x="262.38989" xlink:href="#m2781e57543" y="399.552828"/>
     <use style="fill:#0ad12e;stroke:#0ad12e;" x="304.359558" xlink:href="#m2781e57543" y="399.515529"/>
     <use style="fill:#0ad12e;stroke:#0ad12e;" x="346.329227" xlink:href="#m2781e57543" y="399.261171"/>
     <use style="fill:#0ad12e;stroke:#0ad12e;" x="401.81011" xlink:href="#m2781e57543" y="398.98224"/>
     <use style="fill:#0ad12e;stroke:#0ad12e;" x="443.779779" xlink:href="#m2781e57543" y="397.748918"/>
     <use style="fill:#0ad12e;stroke:#0ad12e;" x="485.749448" xlink:href="#m2781e57543" y="395.890322"/>
     <use style="fill:#0ad12e;stroke:#0ad12e;" x="541.230331" xlink:href="#m2781e57543" y="388.53084"/>
    </g>
   </g>
   <g id="line2d_46">
    <g clip-path="url(#pb221f52fb8)">
     <use style="fill:#0ad12e;stroke:#0ad12e;" x="-1" xlink:href="#m2781e57543" y="400.33584"/>
     <use style="fill:#0ad12e;stroke:#0ad12e;" x="206.909006" xlink:href="#m2781e57543" y="400.336016"/>
     <use style="fill:#0ad12e;stroke:#0ad12e;" x="262.38989" xlink:href="#m2781e57543" y="400.230054"/>
     <use style="fill:#0ad12e;stroke:#0ad12e;" x="304.359558" xlink:href="#m2781e57543" y="400.293545"/>
     <use style="fill:#0ad12e;stroke:#0ad12e;" x="346.329227" xlink:href="#m2781e57543" y="399.93611"/>
     <use style="fill:#0ad12e;stroke:#0ad12e;" x="401.81011" xlink:href="#m2781e57543" y="399.628052"/>
     <use style="fill:#0ad12e;stroke:#0ad12e;" x="443.779779" xlink:href="#m2781e57543" y="399.264025"/>
     <use style="fill:#0ad12e;stroke:#0ad12e;" x="485.749448" xlink:href="#m2781e57543" y="397.898733"/>
     <use style="fill:#0ad12e;stroke:#0ad12e;" x="541.230331" xlink:href="#m2781e57543" y="392.912847"/>
    </g>
   </g>
   <g id="line2d_47">
    <defs>
     <path d="M 0 3 
C 0.795609 3 1.55874 2.683901 2.12132 2.12132 
C 2.683901 1.55874 3 0.795609 3 0 
C 3 -0.795609 2.683901 -1.55874 2.12132 -2.12132 
C 1.55874 -2.683901 0.795609 -3 0 -3 
C -0.795609 -3 -1.55874 -2.683901 -2.12132 -2.12132 
C -2.683901 -1.55874 -3 -0.795609 -3 0 
C -3 0.795609 -2.683901 1.55874 -2.12132 2.12132 
C -1.55874 2.683901 -0.795609 3 0 3 
z
" id="m11e7c70d7a" style="stroke:#0a95d1;"/>
    </defs>
    <g clip-path="url(#pb221f52fb8)">
     <use style="fill:#0a95d1;stroke:#0a95d1;" x="-1" xlink:href="#m11e7c70d7a" y="401.741798"/>
     <use style="fill:#0a95d1;stroke:#0a95d1;" x="206.909006" xlink:href="#m11e7c70d7a" y="401.741935"/>
     <use style="fill:#0a95d1;stroke:#0a95d1;" x="262.38989" xlink:href="#m11e7c70d7a" y="401.702911"/>
     <use style="fill:#0a95d1;stroke:#0a95d1;" x="304.359558" xlink:href="#m11e7c70d7a" y="401.743935"/>
     <use style="fill:#0a95d1;stroke:#0a95d1;" x="346.329227" xlink:href="#m11e7c70d7a" y="401.384726"/>
     <use style="fill:#0a95d1;stroke:#0a95d1;" x="401.81011" xlink:href="#m11e7c70d7a" y="400.547669"/>
     <use style="fill:#0a95d1;stroke:#0a95d1;" x="443.779779" xlink:href="#m11e7c70d7a" y="397.788591"/>
     <use style="fill:#0a95d1;stroke:#0a95d1;" x="485.749448" xlink:href="#m11e7c70d7a" y="387.738092"/>
     <use style="fill:#0a95d1;stroke:#0a95d1;" x="541.230331" xlink:href="#m11e7c70d7a" y="350.544358"/>
    </g>
   </g>
   <g id="line2d_48">
    <g clip-path="url(#pb221f52fb8)">
     <use style="fill:#0a95d1;stroke:#0a95d1;" x="-1" xlink:href="#m11e7c70d7a" y="401.747279"/>
     <use style="fill:#0a95d1;stroke:#0a95d1;" x="206.909006" xlink:href="#m11e7c70d7a" y="401.747017"/>
     <use style="fill:#0a95d1;stroke:#0a95d1;" x="262.38989" xlink:href="#m11e7c70d7a" y="401.587808"/>
     <use style="fill:#0a95d1;stroke:#0a95d1;" x="304.359558" xlink:href="#m11e7c70d7a" y="401.570405"/>
     <use style="fill:#0a95d1;stroke:#0a95d1;" x="346.329227" xlink:href="#m11e7c70d7a" y="401.396317"/>
     <use style="fill:#0a95d1;stroke:#0a95d1;" x="401.81011" xlink:href="#m11e7c70d7a" y="400.349489"/>
     <use style="fill:#0a95d1;stroke:#0a95d1;" x="443.779779" xlink:href="#m11e7c70d7a" y="396.826304"/>
     <use style="fill:#0a95d1;stroke:#0a95d1;" x="485.749448" xlink:href="#m11e7c70d7a" y="386.503711"/>
     <use style="fill:#0a95d1;stroke:#0a95d1;" x="541.230331" xlink:href="#m11e7c70d7a" y="347.006783"/>
    </g>
   </g>
   <g id="line2d_49">
    <g clip-path="url(#pb221f52fb8)">
     <use style="fill:#0a95d1;stroke:#0a95d1;" x="-1" xlink:href="#m11e7c70d7a" y="401.731916"/>
     <use style="fill:#0a95d1;stroke:#0a95d1;" x="206.909006" xlink:href="#m11e7c70d7a" y="401.731645"/>
     <use style="fill:#0a95d1;stroke:#0a95d1;" x="262.38989" xlink:href="#m11e7c70d7a" y="401.600113"/>
     <use style="fill:#0a95d1;stroke:#0a95d1;" x="304.359558" xlink:href="#m11e7c70d7a" y="401.577584"/>
     <use style="fill:#0a95d1;stroke:#0a95d1;" x="346.329227" xlink:href="#m11e7c70d7a" y="401.32649"/>
     <use style="fill:#0a95d1;stroke:#0a95d1;" x="401.81011" xlink:href="#m11e7c70d7a" y="400.180718"/>
     <use style="fill:#0a95d1;stroke:#0a95d1;" x="443.779779" xlink:href="#m11e7c70d7a" y="396.547374"/>
     <use style="fill:#0a95d1;stroke:#0a95d1;" x="485.749448" xlink:href="#m11e7c70d7a" y="383.338215"/>
     <use style="fill:#0a95d1;stroke:#0a95d1;" x="541.230331" xlink:href="#m11e7c70d7a" y="341.236804"/>
    </g>
   </g>
   <g id="line2d_50">
    <defs>
     <path d="M 0 3 
C 0.795609 3 1.55874 2.683901 2.12132 2.12132 
C 2.683901 1.55874 3 0.795609 3 0 
C 3 -0.795609 2.683901 -1.55874 2.12132 -2.12132 
C 1.55874 -2.683901 0.795609 -3 0 -3 
C -0.795609 -3 -1.55874 -2.683901 -2.12132 -2.12132 
C -2.683901 -1.55874 -3 -0.795609 -3 0 
C -3 0.795609 -2.683901 1.55874 -2.12132 2.12132 
C -1.55874 2.683901 -0.795609 3 0 3 
z
" id="mc0a43311b9" style="stroke:#710ad1;"/>
    </defs>
    <g clip-path="url(#pb221f52fb8)">
     <use style="fill:#710ad1;stroke:#710ad1;" x="-1" xlink:href="#mc0a43311b9" y="400.504154"/>
     <use style="fill:#710ad1;stroke:#710ad1;" x="206.909006" xlink:href="#mc0a43311b9" y="400.503042"/>
     <use style="fill:#710ad1;stroke:#710ad1;" x="262.38989" xlink:href="#mc0a43311b9" y="395.863684"/>
     <use style="fill:#710ad1;stroke:#710ad1;" x="304.359558" xlink:href="#mc0a43311b9" y="377.181153"/>
     <use style="fill:#710ad1;stroke:#710ad1;" x="346.329227" xlink:href="#mc0a43311b9" y="333.736632"/>
     <use style="fill:#710ad1;stroke:#710ad1;" x="401.81011" xlink:href="#mc0a43311b9" y="221.108547"/>
     <use style="fill:#710ad1;stroke:#710ad1;" x="443.779779" xlink:href="#mc0a43311b9" y="148.936083"/>
     <use style="fill:#710ad1;stroke:#710ad1;" x="485.749448" xlink:href="#mc0a43311b9" y="94.808312"/>
     <use style="fill:#710ad1;stroke:#710ad1;" x="541.230331" xlink:href="#mc0a43311b9" y="73.614118"/>
    </g>
   </g>
   <g id="line2d_51">
    <g clip-path="url(#pb221f52fb8)">
     <use style="fill:#710ad1;stroke:#710ad1;" x="-1" xlink:href="#mc0a43311b9" y="400.33377"/>
     <use style="fill:#710ad1;stroke:#710ad1;" x="206.909006" xlink:href="#mc0a43311b9" y="400.333005"/>
     <use style="fill:#710ad1;stroke:#710ad1;" x="262.38989" xlink:href="#mc0a43311b9" y="396.15008"/>
     <use style="fill:#710ad1;stroke:#710ad1;" x="304.359558" xlink:href="#mc0a43311b9" y="377.604391"/>
     <use style="fill:#710ad1;stroke:#710ad1;" x="346.329227" xlink:href="#mc0a43311b9" y="333.602359"/>
     <use style="fill:#710ad1;stroke:#710ad1;" x="401.81011" xlink:href="#mc0a43311b9" y="214.703241"/>
     <use style="fill:#710ad1;stroke:#710ad1;" x="443.779779" xlink:href="#mc0a43311b9" y="148.695758"/>
     <use style="fill:#710ad1;stroke:#710ad1;" x="485.749448" xlink:href="#mc0a43311b9" y="95.054366"/>
     <use style="fill:#710ad1;stroke:#710ad1;" x="541.230331" xlink:href="#mc0a43311b9" y="73.4328"/>
    </g>
   </g>
   <g id="line2d_52">
    <g clip-path="url(#pb221f52fb8)">
     <use style="fill:#710ad1;stroke:#710ad1;" x="-1" xlink:href="#mc0a43311b9" y="400.886952"/>
     <use style="fill:#710ad1;stroke:#710ad1;" x="206.909006" xlink:href="#mc0a43311b9" y="400.886694"/>
     <use style="fill:#710ad1;stroke:#710ad1;" x="262.38989" xlink:href="#mc0a43311b9" y="397.29657"/>
     <use style="fill:#710ad1;stroke:#710ad1;" x="304.359558" xlink:href="#mc0a43311b9" y="386.046408"/>
     <use style="fill:#710ad1;stroke:#710ad1;" x="346.329227" xlink:href="#mc0a43311b9" y="353.761739"/>
     <use style="fill:#710ad1;stroke:#710ad1;" x="401.81011" xlink:href="#mc0a43311b9" y="248.314992"/>
     <use style="fill:#710ad1;stroke:#710ad1;" x="443.779779" xlink:href="#mc0a43311b9" y="177.63886"/>
     <use style="fill:#710ad1;stroke:#710ad1;" x="485.749448" xlink:href="#mc0a43311b9" y="117.95287"/>
     <use style="fill:#710ad1;stroke:#710ad1;" x="541.230331" xlink:href="#mc0a43311b9" y="81.561413"/>
    </g>
   </g>
   <g id="line2d_53">
    <defs>
     <path d="M 0 3 
C 0.795609 3 1.55874 2.683901 2.12132 2.12132 
C 2.683901 1.55874 3 0.795609 3 0 
C 3 -0.795609 2.683901 -1.55874 2.12132 -2.12132 
C 1.55874 -2.683901 0.795609 -3 0 -3 
C -0.795609 -3 -1.55874 -2.683901 -2.12132 -2.12132 
C -2.683901 -1.55874 -3 -0.795609 -3 0 
C -3 0.795609 -2.683901 1.55874 -2.12132 2.12132 
C -1.55874 2.683901 -0.795609 3 0 3 
z
" id="m722fcdca31" style="stroke:#d10a7b;"/>
    </defs>
    <g clip-path="url(#pb221f52fb8)">
     <use style="fill:#d10a7b;stroke:#d10a7b;" x="-1" xlink:href="#m722fcdca31" y="401.451582"/>
     <use style="fill:#d10a7b;stroke:#d10a7b;" x="206.909006" xlink:href="#m722fcdca31" y="401.45128"/>
     <use style="fill:#d10a7b;stroke:#d10a7b;" x="262.38989" xlink:href="#m722fcdca31" y="400.494568"/>
     <use style="fill:#d10a7b;stroke:#d10a7b;" x="304.359558" xlink:href="#m722fcdca31" y="396.81534"/>
     <use style="fill:#d10a7b;stroke:#d10a7b;" x="346.329227" xlink:href="#m722fcdca31" y="384.058055"/>
     <use style="fill:#d10a7b;stroke:#d10a7b;" x="401.81011" xlink:href="#m722fcdca31" y="326.871622"/>
     <use style="fill:#d10a7b;stroke:#d10a7b;" x="443.779779" xlink:href="#m722fcdca31" y="260.6787"/>
     <use style="fill:#d10a7b;stroke:#d10a7b;" x="485.749448" xlink:href="#m722fcdca31" y="200.772307"/>
     <use style="fill:#d10a7b;stroke:#d10a7b;" x="541.230331" xlink:href="#m722fcdca31" y="125.293236"/>
    </g>
   </g>
   <g id="line2d_54">
    <g clip-path="url(#pb221f52fb8)">
     <use style="fill:#d10a7b;stroke:#d10a7b;" x="-1" xlink:href="#m722fcdca31" y="401.57454"/>
     <use style="fill:#d10a7b;stroke:#d10a7b;" x="206.909006" xlink:href="#m722fcdca31" y="401.574095"/>
     <use style="fill:#d10a7b;stroke:#d10a7b;" x="262.38989" xlink:href="#m722fcdca31" y="400.571756"/>
     <use style="fill:#d10a7b;stroke:#d10a7b;" x="304.359558" xlink:href="#m722fcdca31" y="397.701418"/>
     <use style="fill:#d10a7b;stroke:#d10a7b;" x="346.329227" xlink:href="#m722fcdca31" y="385.445187"/>
     <use style="fill:#d10a7b;stroke:#d10a7b;" x="401.81011" xlink:href="#m722fcdca31" y="330.341726"/>
     <use style="fill:#d10a7b;stroke:#d10a7b;" x="443.779779" xlink:href="#m722fcdca31" y="268.96023"/>
     <use style="fill:#d10a7b;stroke:#d10a7b;" x="485.749448" xlink:href="#m722fcdca31" y="203.992847"/>
     <use style="fill:#d10a7b;stroke:#d10a7b;" x="541.230331" xlink:href="#m722fcdca31" y="121.722083"/>
    </g>
   </g>
   <g id="line2d_55">
    <g clip-path="url(#pb221f52fb8)">
     <use style="fill:#d10a7b;stroke:#d10a7b;" x="-1" xlink:href="#m722fcdca31" y="401.636706"/>
     <use style="fill:#d10a7b;stroke:#d10a7b;" x="206.909006" xlink:href="#m722fcdca31" y="401.636751"/>
     <use style="fill:#d10a7b;stroke:#d10a7b;" x="262.38989" xlink:href="#m722fcdca31" y="400.104129"/>
     <use style="fill:#d10a7b;stroke:#d10a7b;" x="304.359558" xlink:href="#m722fcdca31" y="396.678615"/>
     <use style="fill:#d10a7b;stroke:#d10a7b;" x="346.329227" xlink:href="#m722fcdca31" y="385.337712"/>
     <use style="fill:#d10a7b;stroke:#d10a7b;" x="401.81011" xlink:href="#m722fcdca31" y="324.835574"/>
     <use style="fill:#d10a7b;stroke:#d10a7b;" x="443.779779" xlink:href="#m722fcdca31" y="257.890087"/>
     <use style="fill:#d10a7b;stroke:#d10a7b;" x="485.749448" xlink:href="#m722fcdca31" y="195.007479"/>
     <use style="fill:#d10a7b;stroke:#d10a7b;" x="541.230331" xlink:href="#m722fcdca31" y="116.680521"/>
    </g>
   </g>
   <g id="line2d_56">
    <defs>
     <path d="M 0 3 
C 0.795609 3 1.55874 2.683901 2.12132 2.12132 
C 2.683901 1.55874 3 0.795609 3 0 
C 3 -0.795609 2.683901 -1.55874 2.12132 -2.12132 
C 1.55874 -2.683901 0.795609 -3 0 -3 
C -0.795609 -3 -1.55874 -2.683901 -2.12132 -2.12132 
C -2.683901 -1.55874 -3 -0.795609 -3 0 
C -3 0.795609 -2.683901 1.55874 -2.12132 2.12132 
C -1.55874 2.683901 -0.795609 3 0 3 
z
" id="m386cc4415b" style="stroke:#d10a0a;"/>
    </defs>
    <g clip-path="url(#pb221f52fb8)">
     <use style="fill:#d10a0a;stroke:#d10a0a;" x="-1" xlink:href="#m386cc4415b" y="394.875949"/>
     <use style="fill:#d10a0a;stroke:#d10a0a;" x="206.909006" xlink:href="#m386cc4415b" y="394.875878"/>
     <use style="fill:#d10a0a;stroke:#d10a0a;" x="262.38989" xlink:href="#m386cc4415b" y="393.615046"/>
     <use style="fill:#d10a0a;stroke:#d10a0a;" x="304.359558" xlink:href="#m386cc4415b" y="390.637874"/>
     <use style="fill:#d10a0a;stroke:#d10a0a;" x="346.329227" xlink:href="#m386cc4415b" y="381.453867"/>
     <use style="fill:#d10a0a;stroke:#d10a0a;" x="401.81011" xlink:href="#m386cc4415b" y="333.104214"/>
     <use style="fill:#d10a0a;stroke:#d10a0a;" x="443.779779" xlink:href="#m386cc4415b" y="267.555284"/>
     <use style="fill:#d10a0a;stroke:#d10a0a;" x="485.749448" xlink:href="#m386cc4415b" y="205.048597"/>
     <use style="fill:#d10a0a;stroke:#d10a0a;" x="541.230331" xlink:href="#m386cc4415b" y="131.174502"/>
    </g>
   </g>
   <g id="line2d_57">
    <g clip-path="url(#pb221f52fb8)">
     <use style="fill:#d10a0a;stroke:#d10a0a;" x="-1" xlink:href="#m386cc4415b" y="398.544838"/>
     <use style="fill:#d10a0a;stroke:#d10a0a;" x="206.909006" xlink:href="#m386cc4415b" y="398.544085"/>
     <use style="fill:#d10a0a;stroke:#d10a0a;" x="262.38989" xlink:href="#m386cc4415b" y="397.465609"/>
     <use style="fill:#d10a0a;stroke:#d10a0a;" x="304.359558" xlink:href="#m386cc4415b" y="394.623645"/>
     <use style="fill:#d10a0a;stroke:#d10a0a;" x="346.329227" xlink:href="#m386cc4415b" y="383.932783"/>
     <use style="fill:#d10a0a;stroke:#d10a0a;" x="401.81011" xlink:href="#m386cc4415b" y="330.556959"/>
     <use style="fill:#d10a0a;stroke:#d10a0a;" x="443.779779" xlink:href="#m386cc4415b" y="263.644658"/>
     <use style="fill:#d10a0a;stroke:#d10a0a;" x="485.749448" xlink:href="#m386cc4415b" y="200.391557"/>
     <use style="fill:#d10a0a;stroke:#d10a0a;" x="541.230331" xlink:href="#m386cc4415b" y="127.140103"/>
    </g>
   </g>
   <g id="line2d_58">
    <g clip-path="url(#pb221f52fb8)">
     <use style="fill:#d10a0a;stroke:#d10a0a;" x="-1" xlink:href="#m386cc4415b" y="397.787573"/>
     <use style="fill:#d10a0a;stroke:#d10a0a;" x="206.909006" xlink:href="#m386cc4415b" y="397.78674"/>
     <use style="fill:#d10a0a;stroke:#d10a0a;" x="262.38989" xlink:href="#m386cc4415b" y="396.921108"/>
     <use style="fill:#d10a0a;stroke:#d10a0a;" x="304.359558" xlink:href="#m386cc4415b" y="393.832841"/>
     <use style="fill:#d10a0a;stroke:#d10a0a;" x="346.329227" xlink:href="#m386cc4415b" y="383.269186"/>
     <use style="fill:#d10a0a;stroke:#d10a0a;" x="401.81011" xlink:href="#m386cc4415b" y="328.096177"/>
     <use style="fill:#d10a0a;stroke:#d10a0a;" x="443.779779" xlink:href="#m386cc4415b" y="260.971574"/>
     <use style="fill:#d10a0a;stroke:#d10a0a;" x="485.749448" xlink:href="#m386cc4415b" y="192.174156"/>
     <use style="fill:#d10a0a;stroke:#d10a0a;" x="541.230331" xlink:href="#m386cc4415b" y="120.731303"/>
    </g>
   </g>
   <g id="line2d_59">
    <defs>
     <path d="M 0 3 
C 0.795609 3 1.55874 2.683901 2.12132 2.12132 
C 2.683901 1.55874 3 0.795609 3 0 
C 3 -0.795609 2.683901 -1.55874 2.12132 -2.12132 
C 1.55874 -2.683901 0.795609 -3 0 -3 
C -0.795609 -3 -1.55874 -2.683901 -2.12132 -2.12132 
C -2.683901 -1.55874 -3 -0.795609 -3 0 
C -3 0.795609 -2.683901 1.55874 -2.12132 2.12132 
C -1.55874 2.683901 -0.795609 3 0 3 
z
" id="m5071eec11c" style="stroke:#ed4107;"/>
    </defs>
    <g clip-path="url(#pb221f52fb8)">
     <use style="fill:#ed4107;stroke:#ed4107;" x="-1" xlink:href="#m5071eec11c" y="399.481142"/>
     <use style="fill:#ed4107;stroke:#ed4107;" x="206.909006" xlink:href="#m5071eec11c" y="399.480032"/>
     <use style="fill:#ed4107;stroke:#ed4107;" x="262.38989" xlink:href="#m5071eec11c" y="397.23354"/>
     <use style="fill:#ed4107;stroke:#ed4107;" x="304.359558" xlink:href="#m5071eec11c" y="392.293323"/>
     <use style="fill:#ed4107;stroke:#ed4107;" x="346.329227" xlink:href="#m5071eec11c" y="372.360508"/>
     <use style="fill:#ed4107;stroke:#ed4107;" x="401.81011" xlink:href="#m5071eec11c" y="296.245536"/>
     <use style="fill:#ed4107;stroke:#ed4107;" x="443.779779" xlink:href="#m5071eec11c" y="223.507991"/>
     <use style="fill:#ed4107;stroke:#ed4107;" x="485.749448" xlink:href="#m5071eec11c" y="161.539838"/>
     <use style="fill:#ed4107;stroke:#ed4107;" x="541.230331" xlink:href="#m5071eec11c" y="109.420888"/>
    </g>
   </g>
   <g id="line2d_60">
    <g clip-path="url(#pb221f52fb8)">
     <use style="fill:#ed4107;stroke:#ed4107;" x="-1" xlink:href="#m5071eec11c" y="399.597744"/>
     <use style="fill:#ed4107;stroke:#ed4107;" x="206.909006" xlink:href="#m5071eec11c" y="399.596982"/>
     <use style="fill:#ed4107;stroke:#ed4107;" x="262.38989" xlink:href="#m5071eec11c" y="398.044254"/>
     <use style="fill:#ed4107;stroke:#ed4107;" x="304.359558" xlink:href="#m5071eec11c" y="393.334026"/>
     <use style="fill:#ed4107;stroke:#ed4107;" x="346.329227" xlink:href="#m5071eec11c" y="380.031435"/>
     <use style="fill:#ed4107;stroke:#ed4107;" x="401.81011" xlink:href="#m5071eec11c" y="314.864114"/>
     <use style="fill:#ed4107;stroke:#ed4107;" x="443.779779" xlink:href="#m5071eec11c" y="242.280704"/>
     <use style="fill:#ed4107;stroke:#ed4107;" x="485.749448" xlink:href="#m5071eec11c" y="175.691955"/>
     <use style="fill:#ed4107;stroke:#ed4107;" x="541.230331" xlink:href="#m5071eec11c" y="115.73756"/>
    </g>
   </g>
   <g id="line2d_61">
    <g clip-path="url(#pb221f52fb8)">
     <use style="fill:#ed4107;stroke:#ed4107;" x="-1" xlink:href="#m5071eec11c" y="399.210696"/>
     <use style="fill:#ed4107;stroke:#ed4107;" x="206.909006" xlink:href="#m5071eec11c" y="399.209711"/>
     <use style="fill:#ed4107;stroke:#ed4107;" x="262.38989" xlink:href="#m5071eec11c" y="397.700734"/>
     <use style="fill:#ed4107;stroke:#ed4107;" x="304.359558" xlink:href="#m5071eec11c" y="393.345105"/>
     <use style="fill:#ed4107;stroke:#ed4107;" x="346.329227" xlink:href="#m5071eec11c" y="378.366027"/>
     <use style="fill:#ed4107;stroke:#ed4107;" x="401.81011" xlink:href="#m5071eec11c" y="312.008088"/>
     <use style="fill:#ed4107;stroke:#ed4107;" x="443.779779" xlink:href="#m5071eec11c" y="242.385432"/>
     <use style="fill:#ed4107;stroke:#ed4107;" x="485.749448" xlink:href="#m5071eec11c" y="171.435922"/>
     <use style="fill:#ed4107;stroke:#ed4107;" x="541.230331" xlink:href="#m5071eec11c" y="109.210106"/>
    </g>
   </g>
   <g id="patch_3">
    <path d="M 81 421.6464 
L 81 56.8512 
" style="fill:none;stroke:#000000;stroke-linecap:square;stroke-linejoin:miter;stroke-width:0.8;"/>
   </g>
   <g id="patch_4">
    <path d="M 81 421.6464 
L 583.2 421.6464 
" style="fill:none;stroke:#000000;stroke-linecap:square;stroke-linejoin:miter;stroke-width:0.8;"/>
   </g>
   <g id="text_12">
    <!-- Dose response of Gen2 sensors to 4-Ome-Norbelladine -->
    <defs>
     <path d="M 19.671875 64.796875 
L 19.671875 8.109375 
L 31.59375 8.109375 
Q 46.6875 8.109375 53.6875 14.9375 
Q 60.6875 21.78125 60.6875 36.53125 
Q 60.6875 51.171875 53.6875 57.984375 
Q 46.6875 64.796875 31.59375 64.796875 
z
M 9.8125 72.90625 
L 30.078125 72.90625 
Q 51.265625 72.90625 61.171875 64.09375 
Q 71.09375 55.28125 71.09375 36.53125 
Q 71.09375 17.671875 61.125 8.828125 
Q 51.171875 0 30.078125 0 
L 9.8125 0 
z
" id="DejaVuSans-68"/>
     <path d="M 44.28125 53.078125 
L 44.28125 44.578125 
Q 40.484375 46.53125 36.375 47.5 
Q 32.28125 48.484375 27.875 48.484375 
Q 21.1875 48.484375 17.84375 46.4375 
Q 14.5 44.390625 14.5 40.28125 
Q 14.5 37.15625 16.890625 35.375 
Q 19.28125 33.59375 26.515625 31.984375 
L 29.59375 31.296875 
Q 39.15625 29.25 43.1875 25.515625 
Q 47.21875 21.78125 47.21875 15.09375 
Q 47.21875 7.46875 41.1875 3.015625 
Q 35.15625 -1.421875 24.609375 -1.421875 
Q 20.21875 -1.421875 15.453125 -0.5625 
Q 10.6875 0.296875 5.421875 2 
L 5.421875 11.28125 
Q 10.40625 8.6875 15.234375 7.390625 
Q 20.0625 6.109375 24.8125 6.109375 
Q 31.15625 6.109375 34.5625 8.28125 
Q 37.984375 10.453125 37.984375 14.40625 
Q 37.984375 18.0625 35.515625 20.015625 
Q 33.0625 21.96875 24.703125 23.78125 
L 21.578125 24.515625 
Q 13.234375 26.265625 9.515625 29.90625 
Q 5.8125 33.546875 5.8125 39.890625 
Q 5.8125 47.609375 11.28125 51.796875 
Q 16.75 56 26.8125 56 
Q 31.78125 56 36.171875 55.265625 
Q 40.578125 54.546875 44.28125 53.078125 
z
" id="DejaVuSans-115"/>
     <path d="M 18.109375 8.203125 
L 18.109375 -20.796875 
L 9.078125 -20.796875 
L 9.078125 54.6875 
L 18.109375 54.6875 
L 18.109375 46.390625 
Q 20.953125 51.265625 25.265625 53.625 
Q 29.59375 56 35.59375 56 
Q 45.5625 56 51.78125 48.09375 
Q 58.015625 40.1875 58.015625 27.296875 
Q 58.015625 14.40625 51.78125 6.484375 
Q 45.5625 -1.421875 35.59375 -1.421875 
Q 29.59375 -1.421875 25.265625 0.953125 
Q 20.953125 3.328125 18.109375 8.203125 
z
M 48.6875 27.296875 
Q 48.6875 37.203125 44.609375 42.84375 
Q 40.53125 48.484375 33.40625 48.484375 
Q 26.265625 48.484375 22.1875 42.84375 
Q 18.109375 37.203125 18.109375 27.296875 
Q 18.109375 17.390625 22.1875 11.75 
Q 26.265625 6.109375 33.40625 6.109375 
Q 40.53125 6.109375 44.609375 11.75 
Q 48.6875 17.390625 48.6875 27.296875 
z
" id="DejaVuSans-112"/>
     <path d="M 37.109375 75.984375 
L 37.109375 68.5 
L 28.515625 68.5 
Q 23.6875 68.5 21.796875 66.546875 
Q 19.921875 64.59375 19.921875 59.515625 
L 19.921875 54.6875 
L 34.71875 54.6875 
L 34.71875 47.703125 
L 19.921875 47.703125 
L 19.921875 0 
L 10.890625 0 
L 10.890625 47.703125 
L 2.296875 47.703125 
L 2.296875 54.6875 
L 10.890625 54.6875 
L 10.890625 58.5 
Q 10.890625 67.625 15.140625 71.796875 
Q 19.390625 75.984375 28.609375 75.984375 
z
" id="DejaVuSans-102"/>
     <path d="M 59.515625 10.40625 
L 59.515625 29.984375 
L 43.40625 29.984375 
L 43.40625 38.09375 
L 69.28125 38.09375 
L 69.28125 6.78125 
Q 63.578125 2.734375 56.6875 0.65625 
Q 49.8125 -1.421875 42 -1.421875 
Q 24.90625 -1.421875 15.25 8.5625 
Q 5.609375 18.5625 5.609375 36.375 
Q 5.609375 54.25 15.25 64.234375 
Q 24.90625 74.21875 42 74.21875 
Q 49.125 74.21875 55.546875 72.453125 
Q 61.96875 70.703125 67.390625 67.28125 
L 67.390625 56.78125 
Q 61.921875 61.421875 55.765625 63.765625 
Q 49.609375 66.109375 42.828125 66.109375 
Q 29.4375 66.109375 22.71875 58.640625 
Q 16.015625 51.171875 16.015625 36.375 
Q 16.015625 21.625 22.71875 14.15625 
Q 29.4375 6.6875 42.828125 6.6875 
Q 48.046875 6.6875 52.140625 7.59375 
Q 56.25 8.5 59.515625 10.40625 
z
" id="DejaVuSans-71"/>
    </defs>
    <g transform="translate(29.185781 50.8512)scale(0.22 -0.22)">
     <use xlink:href="#DejaVuSans-68"/>
     <use x="77.001953" xlink:href="#DejaVuSans-111"/>
     <use x="138.183594" xlink:href="#DejaVuSans-115"/>
     <use x="190.283203" xlink:href="#DejaVuSans-101"/>
     <use x="251.806641" xlink:href="#DejaVuSans-32"/>
     <use x="283.59375" xlink:href="#DejaVuSans-114"/>
     <use x="324.675781" xlink:href="#DejaVuSans-101"/>
     <use x="386.199219" xlink:href="#DejaVuSans-115"/>
     <use x="438.298828" xlink:href="#DejaVuSans-112"/>
     <use x="501.775391" xlink:href="#DejaVuSans-111"/>
     <use x="562.957031" xlink:href="#DejaVuSans-110"/>
     <use x="626.335938" xlink:href="#DejaVuSans-115"/>
     <use x="678.435547" xlink:href="#DejaVuSans-101"/>
     <use x="739.958984" xlink:href="#DejaVuSans-32"/>
     <use x="771.746094" xlink:href="#DejaVuSans-111"/>
     <use x="832.927734" xlink:href="#DejaVuSans-102"/>
     <use x="868.132812" xlink:href="#DejaVuSans-32"/>
     <use x="899.919922" xlink:href="#DejaVuSans-71"/>
     <use x="977.410156" xlink:href="#DejaVuSans-101"/>
     <use x="1038.933594" xlink:href="#DejaVuSans-110"/>
     <use x="1102.3125" xlink:href="#DejaVuSans-50"/>
     <use x="1165.935547" xlink:href="#DejaVuSans-32"/>
     <use x="1197.722656" xlink:href="#DejaVuSans-115"/>
     <use x="1249.822266" xlink:href="#DejaVuSans-101"/>
     <use x="1311.345703" xlink:href="#DejaVuSans-110"/>
     <use x="1374.724609" xlink:href="#DejaVuSans-115"/>
     <use x="1426.824219" xlink:href="#DejaVuSans-111"/>
     <use x="1488.005859" xlink:href="#DejaVuSans-114"/>
     <use x="1529.119141" xlink:href="#DejaVuSans-115"/>
     <use x="1581.21875" xlink:href="#DejaVuSans-32"/>
     <use x="1613.005859" xlink:href="#DejaVuSans-116"/>
     <use x="1652.214844" xlink:href="#DejaVuSans-111"/>
     <use x="1713.396484" xlink:href="#DejaVuSans-32"/>
     <use x="1745.183594" xlink:href="#DejaVuSans-52"/>
     <use x="1808.806641" xlink:href="#DejaVuSans-45"/>
     <use x="1844.921875" xlink:href="#DejaVuSans-79"/>
     <use x="1923.632812" xlink:href="#DejaVuSans-109"/>
     <use x="2021.044922" xlink:href="#DejaVuSans-101"/>
     <use x="2082.568359" xlink:href="#DejaVuSans-45"/>
     <use x="2118.652344" xlink:href="#DejaVuSans-78"/>
     <use x="2193.457031" xlink:href="#DejaVuSans-111"/>
     <use x="2254.638672" xlink:href="#DejaVuSans-114"/>
     <use x="2295.751953" xlink:href="#DejaVuSans-98"/>
     <use x="2359.228516" xlink:href="#DejaVuSans-101"/>
     <use x="2420.751953" xlink:href="#DejaVuSans-108"/>
     <use x="2448.535156" xlink:href="#DejaVuSans-108"/>
     <use x="2476.318359" xlink:href="#DejaVuSans-97"/>
     <use x="2537.597656" xlink:href="#DejaVuSans-100"/>
     <use x="2601.074219" xlink:href="#DejaVuSans-105"/>
     <use x="2628.857422" xlink:href="#DejaVuSans-110"/>
     <use x="2692.236328" xlink:href="#DejaVuSans-101"/>
    </g>
   </g>
   <g id="legend_1">
    <g id="patch_5">
     <path d="M 91.5 198.493387 
L 195.473437 198.493387 
Q 198.473437 198.493387 198.473437 195.493387 
L 198.473437 67.3512 
Q 198.473437 64.3512 195.473437 64.3512 
L 91.5 64.3512 
Q 88.5 64.3512 88.5 67.3512 
L 88.5 195.493387 
Q 88.5 198.493387 91.5 198.493387 
z
" style="fill:#ffffff;opacity:0.8;stroke:#cccccc;stroke-linejoin:miter;"/>
    </g>
    <g id="line2d_62">
     <path d="M 94.5 76.205887 
L 124.5 76.205887 
" style="fill:none;stroke:#0ad12e;stroke-linecap:square;stroke-width:1.5;"/>
    </g>
    <g id="line2d_63"/>
    <g id="text_13">
     <!-- WT -->
     <defs>
      <path d="M 75.296875 0 
L 64.9375 0 
L 47.859375 60.84375 
L 31.25 0 
L 20.90625 0 
L 1.953125 74.03125 
L 12.5 74.03125 
L 26.46875 13.875 
L 42.875 74.03125 
L 53.03125 74.03125 
L 69.921875 13.875 
L 83.5 74.03125 
L 94.046875 74.03125 
z
" id="Gargi-87"/>
      <path d="M 38.671875 65.71875 
L 38.671875 0 
L 29.203125 0 
L 29.203125 65.71875 
L 4.890625 65.71875 
L 4.890625 74.03125 
L 62.984375 74.03125 
L 62.984375 65.71875 
z
" id="Gargi-84"/>
     </defs>
     <g transform="translate(136.5 81.455887)scale(0.15 -0.15)">
      <use xlink:href="#Gargi-87"/>
      <use x="95.996094" xlink:href="#Gargi-84"/>
     </g>
    </g>
    <g id="line2d_64">
     <path d="M 94.5 97.812919 
L 124.5 97.812919 
" style="fill:none;stroke:#0a95d1;stroke-linecap:square;stroke-width:1.5;"/>
    </g>
    <g id="line2d_65"/>
    <g id="text_14">
     <!-- 4NB1 -->
     <defs>
      <path d="M 37.203125 25.296875 
L 37.203125 56.734375 
L 14.65625 25.296875 
z
M 37.203125 17.28125 
L 6.84375 17.28125 
L 6.84375 26.765625 
L 39.546875 71.96875 
L 46.1875 71.96875 
L 46.1875 25.296875 
L 56.84375 25.296875 
L 56.84375 17.28125 
L 46.1875 17.28125 
L 46.1875 0 
L 37.203125 0 
z
" id="Gargi-52"/>
      <path d="M 62.796875 74.03125 
L 62.796875 0 
L 52.15625 0 
L 13.875 60.0625 
L 13.875 0 
L 4.890625 0 
L 4.890625 74.03125 
L 15.140625 74.03125 
L 53.8125 13.484375 
L 53.8125 74.03125 
z
" id="Gargi-78"/>
      <path d="M 14.359375 8.296875 
L 37.40625 8.296875 
Q 44.046875 8.296875 47.265625 11.921875 
Q 50.6875 15.53125 50.6875 21 
Q 50.6875 26.5625 47.265625 30.28125 
Q 44.046875 33.796875 37.40625 33.796875 
L 14.359375 33.796875 
z
M 14.359375 42.1875 
L 32.625 42.1875 
Q 39.9375 42.1875 43.359375 44.828125 
Q 47.46875 47.953125 47.46875 53.953125 
Q 47.46875 59.96875 43.359375 63.09375 
Q 39.9375 65.71875 32.625 65.71875 
L 14.359375 65.71875 
z
M 4.890625 0 
L 4.890625 74.03125 
L 34.96875 74.03125 
Q 45.40625 74.03125 50.984375 68.84375 
Q 56.9375 63.578125 56.9375 55.28125 
Q 56.9375 43.84375 46.6875 39.0625 
Q 57.328125 34.96875 59.46875 26.859375 
Q 60.15625 24.3125 60.15625 21.09375 
Q 60.15625 12.203125 54.5 6.15625 
Q 48.640625 0 38.28125 0 
z
" id="Gargi-66"/>
      <path d="M 22.75 51.265625 
L 6.84375 51.265625 
L 6.84375 57.71875 
Q 17.1875 58.984375 20.21875 61.328125 
Q 23.34375 63.578125 25.390625 70.796875 
L 25.875 71.96875 
L 31.734375 71.96875 
L 31.734375 0 
L 22.75 0 
z
" id="Gargi-49"/>
     </defs>
     <g transform="translate(136.5 103.062919)scale(0.15 -0.15)">
      <use xlink:href="#Gargi-52"/>
      <use x="63.671875" xlink:href="#Gargi-78"/>
      <use x="131.347656" xlink:href="#Gargi-66"/>
      <use x="194.433594" xlink:href="#Gargi-49"/>
     </g>
    </g>
    <g id="line2d_66">
     <path d="M 94.5 119.41995 
L 124.5 119.41995 
" style="fill:none;stroke:#710ad1;stroke-linecap:square;stroke-width:1.5;"/>
    </g>
    <g id="line2d_67"/>
    <g id="text_15">
     <!-- 4NB2.1 -->
     <defs>
      <path d="M 54.78125 8.796875 
L 54.78125 0 
L 6.84375 0 
Q 6.84375 12.984375 12.703125 19.828125 
Q 17.96875 25.984375 27.046875 31.15625 
L 36.421875 36.421875 
Q 46.1875 42.09375 46.1875 50.6875 
Q 46.1875 58.015625 40.046875 61.921875 
Q 36.53125 64.15625 31.9375 64.15625 
Q 24.3125 64.15625 20.3125 58.40625 
L 19.53125 57.234375 
Q 17.484375 53.90625 17.484375 47.078125 
L 8.5 47.078125 
Q 8.5 57.234375 12.40625 62.703125 
Q 19.046875 71.96875 32.234375 71.96875 
Q 42.28125 71.96875 48.640625 66.3125 
Q 55.28125 60.25 55.28125 50.875 
Q 55.28125 37.5 40.046875 29.109375 
L 29.890625 23.640625 
Q 20.703125 18.265625 18.265625 13.28125 
Q 17.28125 11.234375 16.890625 8.796875 
z
" id="Gargi-50"/>
      <path d="M 19.4375 10.546875 
L 19.4375 0 
L 8.796875 0 
L 8.796875 10.546875 
z
" id="Gargi-46"/>
     </defs>
     <g transform="translate(136.5 124.66995)scale(0.15 -0.15)">
      <use xlink:href="#Gargi-52"/>
      <use x="63.671875" xlink:href="#Gargi-78"/>
      <use x="131.347656" xlink:href="#Gargi-66"/>
      <use x="194.433594" xlink:href="#Gargi-50"/>
      <use x="256.542969" xlink:href="#Gargi-46"/>
      <use x="309.472656" xlink:href="#Gargi-49"/>
     </g>
    </g>
    <g id="line2d_68">
     <path d="M 94.5 141.026981 
L 124.5 141.026981 
" style="fill:none;stroke:#d10a7b;stroke-linecap:square;stroke-width:1.5;"/>
    </g>
    <g id="line2d_69"/>
    <g id="text_16">
     <!-- 4NB2.2 -->
     <g transform="translate(136.5 146.276981)scale(0.15 -0.15)">
      <use xlink:href="#Gargi-52"/>
      <use x="63.671875" xlink:href="#Gargi-78"/>
      <use x="131.347656" xlink:href="#Gargi-66"/>
      <use x="194.433594" xlink:href="#Gargi-50"/>
      <use x="256.542969" xlink:href="#Gargi-46"/>
      <use x="309.472656" xlink:href="#Gargi-50"/>
     </g>
    </g>
    <g id="line2d_70">
     <path d="M 94.5 162.634012 
L 124.5 162.634012 
" style="fill:none;stroke:#d10a0a;stroke-linecap:square;stroke-width:1.5;"/>
    </g>
    <g id="line2d_71"/>
    <g id="text_17">
     <!-- 4NB2.3 -->
     <defs>
      <path d="M 26.078125 35.25 
L 26.078125 42.78125 
Q 34.578125 42.78125 37.984375 44.34375 
Q 43.75 46.96875 43.75 54 
Q 43.75 62.703125 36.625 65.4375 
Q 34.1875 66.3125 31.0625 66.3125 
Q 23.046875 66.3125 19.4375 60.84375 
Q 19.140625 60.359375 18.953125 59.96875 
Q 17.28125 57.03125 17.28125 50.875 
L 8.40625 50.875 
Q 8.40625 74.03125 27.640625 74.03125 
Q 28.71875 74.03125 30.953125 74.125 
Q 31.734375 74.125 32.421875 74.125 
Q 44.734375 74.125 50.390625 64.65625 
Q 52.828125 60.453125 52.828125 54.390625 
Q 52.828125 43.359375 42.78125 39.453125 
Q 52.25 36.140625 54.296875 28.421875 
Q 54.984375 25.78125 54.984375 22.265625 
Q 54.984375 9.859375 45.40625 3.71875 
Q 39.265625 -0.203125 30.671875 -0.203125 
Q 15.625 -0.203125 10.0625 10.25 
Q 6.84375 15.140625 6.84375 23.046875 
L 15.828125 23.046875 
Q 15.828125 9.671875 27.25 8.015625 
Q 29.296875 7.71875 30.953125 7.71875 
Q 41.5 7.71875 44.734375 15.71875 
Q 45.90625 18.5625 45.90625 22.171875 
Q 45.90625 35.25 30.953125 35.25 
L 27.15625 35.25 
z
" id="Gargi-51"/>
     </defs>
     <g transform="translate(136.5 167.884012)scale(0.15 -0.15)">
      <use xlink:href="#Gargi-52"/>
      <use x="63.671875" xlink:href="#Gargi-78"/>
      <use x="131.347656" xlink:href="#Gargi-66"/>
      <use x="194.433594" xlink:href="#Gargi-50"/>
      <use x="256.542969" xlink:href="#Gargi-46"/>
      <use x="309.472656" xlink:href="#Gargi-51"/>
     </g>
    </g>
    <g id="line2d_72">
     <path d="M 94.5 184.241044 
L 124.5 184.241044 
" style="fill:none;stroke:#ed4107;stroke-linecap:square;stroke-width:1.5;"/>
    </g>
    <g id="line2d_73"/>
    <g id="text_18">
     <!-- 4NB2.4 -->
     <g transform="translate(136.5 189.491044)scale(0.15 -0.15)">
      <use xlink:href="#Gargi-52"/>
      <use x="63.671875" xlink:href="#Gargi-78"/>
      <use x="131.347656" xlink:href="#Gargi-66"/>
      <use x="194.433594" xlink:href="#Gargi-50"/>
      <use x="256.542969" xlink:href="#Gargi-46"/>
      <use x="309.472656" xlink:href="#Gargi-52"/>
     </g>
    </g>
   </g>
  </g>
 </g>
 <defs>
  <clipPath id="pb221f52fb8">
   <rect height="364.7952" width="502.2" x="81" y="56.8512"/>
  </clipPath>
 </defs>
</svg>
