<?xml version="1.0" encoding="utf-8" standalone="no"?>
<!DOCTYPE svg PUBLIC "-//W3C//DTD SVG 1.1//EN"
  "http://www.w3.org/Graphics/SVG/1.1/DTD/svg11.dtd">
<!-- Created with matplotlib (https://matplotlib.org/) -->
<svg height="473.76pt" version="1.1" viewBox="0 0 648 473.76" width="648pt" xmlns="http://www.w3.org/2000/svg" xmlns:xlink="http://www.w3.org/1999/xlink">
 <defs>
  <style type="text/css">
*{stroke-linecap:butt;stroke-linejoin:round;}
  </style>
 </defs>
 <g id="figure_1">
  <g id="patch_1">
   <path d="M 0 473.76 
L 648 473.76 
L 648 0 
L 0 0 
z
" style="fill:#ffffff;"/>
  </g>
  <g id="axes_1">
   <g id="patch_2">
    <path d="M 81 421.6464 
L 583.2 421.6464 
L 583.2 56.8512 
L 81 56.8512 
z
" style="fill:#ffffff;"/>
   </g>
   <g id="matplotlib.axis_1">
    <g id="xtick_1">
     <g id="line2d_1">
      <defs>
       <path d="M 0 0 
L 0 2 
" id="mdf3d7094ad" style="stroke:#000000;"/>
      </defs>
      <g>
       <use style="stroke:#000000;" x="137.310294" xlink:href="#mdf3d7094ad" y="421.6464"/>
      </g>
     </g>
     <g id="text_1">
      <!-- 1.0 -->
      <defs>
       <path d="M 12.40625 8.296875 
L 28.515625 8.296875 
L 28.515625 63.921875 
L 10.984375 60.40625 
L 10.984375 69.390625 
L 28.421875 72.90625 
L 38.28125 72.90625 
L 38.28125 8.296875 
L 54.390625 8.296875 
L 54.390625 0 
L 12.40625 0 
z
" id="DejaVuSans-49"/>
       <path d="M 10.6875 12.40625 
L 21 12.40625 
L 21 0 
L 10.6875 0 
z
" id="DejaVuSans-46"/>
       <path d="M 31.78125 66.40625 
Q 24.171875 66.40625 20.328125 58.90625 
Q 16.5 51.421875 16.5 36.375 
Q 16.5 21.390625 20.328125 13.890625 
Q 24.171875 6.390625 31.78125 6.390625 
Q 39.453125 6.390625 43.28125 13.890625 
Q 47.125 21.390625 47.125 36.375 
Q 47.125 51.421875 43.28125 58.90625 
Q 39.453125 66.40625 31.78125 66.40625 
z
M 31.78125 74.21875 
Q 44.046875 74.21875 50.515625 64.515625 
Q 56.984375 54.828125 56.984375 36.375 
Q 56.984375 17.96875 50.515625 8.265625 
Q 44.046875 -1.421875 31.78125 -1.421875 
Q 19.53125 -1.421875 13.0625 8.265625 
Q 6.59375 17.96875 6.59375 36.375 
Q 6.59375 54.828125 13.0625 64.515625 
Q 19.53125 74.21875 31.78125 74.21875 
z
" id="DejaVuSans-48"/>
      </defs>
      <g transform="translate(122.997481 440.823588)scale(0.18 -0.18)">
       <use xlink:href="#DejaVuSans-49"/>
       <use x="63.623047" xlink:href="#DejaVuSans-46"/>
       <use x="95.410156" xlink:href="#DejaVuSans-48"/>
      </g>
     </g>
    </g>
    <g id="xtick_2">
     <g id="line2d_2">
      <g>
       <use style="stroke:#000000;" x="248.78272" xlink:href="#mdf3d7094ad" y="421.6464"/>
      </g>
     </g>
     <g id="text_2">
      <!-- 10.0 -->
      <g transform="translate(228.743658 440.823588)scale(0.18 -0.18)">
       <use xlink:href="#DejaVuSans-49"/>
       <use x="63.623047" xlink:href="#DejaVuSans-48"/>
       <use x="127.246094" xlink:href="#DejaVuSans-46"/>
       <use x="159.033203" xlink:href="#DejaVuSans-48"/>
      </g>
     </g>
    </g>
    <g id="xtick_3">
     <g id="line2d_3">
      <g>
       <use style="stroke:#000000;" x="360.255147" xlink:href="#mdf3d7094ad" y="421.6464"/>
      </g>
     </g>
     <g id="text_3">
      <!-- 100.0 -->
      <g transform="translate(334.489834 440.823588)scale(0.18 -0.18)">
       <use xlink:href="#DejaVuSans-49"/>
       <use x="63.623047" xlink:href="#DejaVuSans-48"/>
       <use x="127.246094" xlink:href="#DejaVuSans-48"/>
       <use x="190.869141" xlink:href="#DejaVuSans-46"/>
       <use x="222.65625" xlink:href="#DejaVuSans-48"/>
      </g>
     </g>
    </g>
    <g id="xtick_4">
     <g id="line2d_4">
      <g>
       <use style="stroke:#000000;" x="471.727573" xlink:href="#mdf3d7094ad" y="421.6464"/>
      </g>
     </g>
     <g id="text_4">
      <!-- 1000.0 -->
      <g transform="translate(440.236011 440.823588)scale(0.18 -0.18)">
       <use xlink:href="#DejaVuSans-49"/>
       <use x="63.623047" xlink:href="#DejaVuSans-48"/>
       <use x="127.246094" xlink:href="#DejaVuSans-48"/>
       <use x="190.869141" xlink:href="#DejaVuSans-48"/>
       <use x="254.492188" xlink:href="#DejaVuSans-46"/>
       <use x="286.279297" xlink:href="#DejaVuSans-48"/>
      </g>
     </g>
    </g>
    <g id="xtick_5">
     <g id="line2d_5">
      <g>
       <use style="stroke:#000000;" x="583.2" xlink:href="#mdf3d7094ad" y="421.6464"/>
      </g>
     </g>
     <g id="text_5">
      <!-- 10000.0 -->
      <g transform="translate(545.982188 440.823588)scale(0.18 -0.18)">
       <use xlink:href="#DejaVuSans-49"/>
       <use x="63.623047" xlink:href="#DejaVuSans-48"/>
       <use x="127.246094" xlink:href="#DejaVuSans-48"/>
       <use x="190.869141" xlink:href="#DejaVuSans-48"/>
       <use x="254.492188" xlink:href="#DejaVuSans-48"/>
       <use x="318.115234" xlink:href="#DejaVuSans-46"/>
       <use x="349.902344" xlink:href="#DejaVuSans-48"/>
      </g>
     </g>
    </g>
    <g id="xtick_6">
     <g id="line2d_6">
      <defs>
       <path d="M 0 0 
L 0 2 
" id="m173c40dc2f" style="stroke:#000000;stroke-width:0.6;"/>
      </defs>
      <g>
       <use style="stroke:#000000;stroke-width:0.6;" x="92.950955" xlink:href="#m173c40dc2f" y="421.6464"/>
      </g>
     </g>
    </g>
    <g id="xtick_7">
     <g id="line2d_7">
      <g>
       <use style="stroke:#000000;stroke-width:0.6;" x="103.75375" xlink:href="#m173c40dc2f" y="421.6464"/>
      </g>
     </g>
    </g>
    <g id="xtick_8">
     <g id="line2d_8">
      <g>
       <use style="stroke:#000000;stroke-width:0.6;" x="112.580275" xlink:href="#m173c40dc2f" y="421.6464"/>
      </g>
     </g>
    </g>
    <g id="xtick_9">
     <g id="line2d_9">
      <g>
       <use style="stroke:#000000;stroke-width:0.6;" x="120.042996" xlink:href="#m173c40dc2f" y="421.6464"/>
      </g>
     </g>
    </g>
    <g id="xtick_10">
     <g id="line2d_10">
      <g>
       <use style="stroke:#000000;stroke-width:0.6;" x="126.5075" xlink:href="#m173c40dc2f" y="421.6464"/>
      </g>
     </g>
    </g>
    <g id="xtick_11">
     <g id="line2d_11">
      <g>
       <use style="stroke:#000000;stroke-width:0.6;" x="132.209595" xlink:href="#m173c40dc2f" y="421.6464"/>
      </g>
     </g>
    </g>
    <g id="xtick_12">
     <g id="line2d_12">
      <g>
       <use style="stroke:#000000;stroke-width:0.6;" x="170.866838" xlink:href="#m173c40dc2f" y="421.6464"/>
      </g>
     </g>
    </g>
    <g id="xtick_13">
     <g id="line2d_13">
      <g>
       <use style="stroke:#000000;stroke-width:0.6;" x="190.496158" xlink:href="#m173c40dc2f" y="421.6464"/>
      </g>
     </g>
    </g>
    <g id="xtick_14">
     <g id="line2d_14">
      <g>
       <use style="stroke:#000000;stroke-width:0.6;" x="204.423382" xlink:href="#m173c40dc2f" y="421.6464"/>
      </g>
     </g>
    </g>
    <g id="xtick_15">
     <g id="line2d_15">
      <g>
       <use style="stroke:#000000;stroke-width:0.6;" x="215.226176" xlink:href="#m173c40dc2f" y="421.6464"/>
      </g>
     </g>
    </g>
    <g id="xtick_16">
     <g id="line2d_16">
      <g>
       <use style="stroke:#000000;stroke-width:0.6;" x="224.052702" xlink:href="#m173c40dc2f" y="421.6464"/>
      </g>
     </g>
    </g>
    <g id="xtick_17">
     <g id="line2d_17">
      <g>
       <use style="stroke:#000000;stroke-width:0.6;" x="231.515423" xlink:href="#m173c40dc2f" y="421.6464"/>
      </g>
     </g>
    </g>
    <g id="xtick_18">
     <g id="line2d_18">
      <g>
       <use style="stroke:#000000;stroke-width:0.6;" x="237.979926" xlink:href="#m173c40dc2f" y="421.6464"/>
      </g>
     </g>
    </g>
    <g id="xtick_19">
     <g id="line2d_19">
      <g>
       <use style="stroke:#000000;stroke-width:0.6;" x="243.682022" xlink:href="#m173c40dc2f" y="421.6464"/>
      </g>
     </g>
    </g>
    <g id="xtick_20">
     <g id="line2d_20">
      <g>
       <use style="stroke:#000000;stroke-width:0.6;" x="282.339264" xlink:href="#m173c40dc2f" y="421.6464"/>
      </g>
     </g>
    </g>
    <g id="xtick_21">
     <g id="line2d_21">
      <g>
       <use style="stroke:#000000;stroke-width:0.6;" x="301.968584" xlink:href="#m173c40dc2f" y="421.6464"/>
      </g>
     </g>
    </g>
    <g id="xtick_22">
     <g id="line2d_22">
      <g>
       <use style="stroke:#000000;stroke-width:0.6;" x="315.895809" xlink:href="#m173c40dc2f" y="421.6464"/>
      </g>
     </g>
    </g>
    <g id="xtick_23">
     <g id="line2d_23">
      <g>
       <use style="stroke:#000000;stroke-width:0.6;" x="326.698603" xlink:href="#m173c40dc2f" y="421.6464"/>
      </g>
     </g>
    </g>
    <g id="xtick_24">
     <g id="line2d_24">
      <g>
       <use style="stroke:#000000;stroke-width:0.6;" x="335.525128" xlink:href="#m173c40dc2f" y="421.6464"/>
      </g>
     </g>
    </g>
    <g id="xtick_25">
     <g id="line2d_25">
      <g>
       <use style="stroke:#000000;stroke-width:0.6;" x="342.98785" xlink:href="#m173c40dc2f" y="421.6464"/>
      </g>
     </g>
    </g>
    <g id="xtick_26">
     <g id="line2d_26">
      <g>
       <use style="stroke:#000000;stroke-width:0.6;" x="349.452353" xlink:href="#m173c40dc2f" y="421.6464"/>
      </g>
     </g>
    </g>
    <g id="xtick_27">
     <g id="line2d_27">
      <g>
       <use style="stroke:#000000;stroke-width:0.6;" x="355.154448" xlink:href="#m173c40dc2f" y="421.6464"/>
      </g>
     </g>
    </g>
    <g id="xtick_28">
     <g id="line2d_28">
      <g>
       <use style="stroke:#000000;stroke-width:0.6;" x="393.811691" xlink:href="#m173c40dc2f" y="421.6464"/>
      </g>
     </g>
    </g>
    <g id="xtick_29">
     <g id="line2d_29">
      <g>
       <use style="stroke:#000000;stroke-width:0.6;" x="413.441011" xlink:href="#m173c40dc2f" y="421.6464"/>
      </g>
     </g>
    </g>
    <g id="xtick_30">
     <g id="line2d_30">
      <g>
       <use style="stroke:#000000;stroke-width:0.6;" x="427.368235" xlink:href="#m173c40dc2f" y="421.6464"/>
      </g>
     </g>
    </g>
    <g id="xtick_31">
     <g id="line2d_31">
      <g>
       <use style="stroke:#000000;stroke-width:0.6;" x="438.171029" xlink:href="#m173c40dc2f" y="421.6464"/>
      </g>
     </g>
    </g>
    <g id="xtick_32">
     <g id="line2d_32">
      <g>
       <use style="stroke:#000000;stroke-width:0.6;" x="446.997555" xlink:href="#m173c40dc2f" y="421.6464"/>
      </g>
     </g>
    </g>
    <g id="xtick_33">
     <g id="line2d_33">
      <g>
       <use style="stroke:#000000;stroke-width:0.6;" x="454.460276" xlink:href="#m173c40dc2f" y="421.6464"/>
      </g>
     </g>
    </g>
    <g id="xtick_34">
     <g id="line2d_34">
      <g>
       <use style="stroke:#000000;stroke-width:0.6;" x="460.924779" xlink:href="#m173c40dc2f" y="421.6464"/>
      </g>
     </g>
    </g>
    <g id="xtick_35">
     <g id="line2d_35">
      <g>
       <use style="stroke:#000000;stroke-width:0.6;" x="466.626875" xlink:href="#m173c40dc2f" y="421.6464"/>
      </g>
     </g>
    </g>
    <g id="xtick_36">
     <g id="line2d_36">
      <g>
       <use style="stroke:#000000;stroke-width:0.6;" x="505.284118" xlink:href="#m173c40dc2f" y="421.6464"/>
      </g>
     </g>
    </g>
    <g id="xtick_37">
     <g id="line2d_37">
      <g>
       <use style="stroke:#000000;stroke-width:0.6;" x="524.913437" xlink:href="#m173c40dc2f" y="421.6464"/>
      </g>
     </g>
    </g>
    <g id="xtick_38">
     <g id="line2d_38">
      <g>
       <use style="stroke:#000000;stroke-width:0.6;" x="538.840662" xlink:href="#m173c40dc2f" y="421.6464"/>
      </g>
     </g>
    </g>
    <g id="xtick_39">
     <g id="line2d_39">
      <g>
       <use style="stroke:#000000;stroke-width:0.6;" x="549.643456" xlink:href="#m173c40dc2f" y="421.6464"/>
      </g>
     </g>
    </g>
    <g id="xtick_40">
     <g id="line2d_40">
      <g>
       <use style="stroke:#000000;stroke-width:0.6;" x="558.469982" xlink:href="#m173c40dc2f" y="421.6464"/>
      </g>
     </g>
    </g>
    <g id="xtick_41">
     <g id="line2d_41">
      <g>
       <use style="stroke:#000000;stroke-width:0.6;" x="565.932703" xlink:href="#m173c40dc2f" y="421.6464"/>
      </g>
     </g>
    </g>
    <g id="xtick_42">
     <g id="line2d_42">
      <g>
       <use style="stroke:#000000;stroke-width:0.6;" x="572.397206" xlink:href="#m173c40dc2f" y="421.6464"/>
      </g>
     </g>
    </g>
    <g id="xtick_43">
     <g id="line2d_43">
      <g>
       <use style="stroke:#000000;stroke-width:0.6;" x="578.099301" xlink:href="#m173c40dc2f" y="421.6464"/>
      </g>
     </g>
    </g>
    <g id="text_6">
     <!-- Fenchol (uM) -->
     <defs>
      <path d="M 9.8125 72.90625 
L 51.703125 72.90625 
L 51.703125 64.59375 
L 19.671875 64.59375 
L 19.671875 43.109375 
L 48.578125 43.109375 
L 48.578125 34.8125 
L 19.671875 34.8125 
L 19.671875 0 
L 9.8125 0 
z
" id="DejaVuSans-70"/>
      <path d="M 56.203125 29.59375 
L 56.203125 25.203125 
L 14.890625 25.203125 
Q 15.484375 15.921875 20.484375 11.0625 
Q 25.484375 6.203125 34.421875 6.203125 
Q 39.59375 6.203125 44.453125 7.46875 
Q 49.3125 8.734375 54.109375 11.28125 
L 54.109375 2.78125 
Q 49.265625 0.734375 44.1875 -0.34375 
Q 39.109375 -1.421875 33.890625 -1.421875 
Q 20.796875 -1.421875 13.15625 6.1875 
Q 5.515625 13.8125 5.515625 26.8125 
Q 5.515625 40.234375 12.765625 48.109375 
Q 20.015625 56 32.328125 56 
Q 43.359375 56 49.78125 48.890625 
Q 56.203125 41.796875 56.203125 29.59375 
z
M 47.21875 32.234375 
Q 47.125 39.59375 43.09375 43.984375 
Q 39.0625 48.390625 32.421875 48.390625 
Q 24.90625 48.390625 20.390625 44.140625 
Q 15.875 39.890625 15.1875 32.171875 
z
" id="DejaVuSans-101"/>
      <path d="M 54.890625 33.015625 
L 54.890625 0 
L 45.90625 0 
L 45.90625 32.71875 
Q 45.90625 40.484375 42.875 44.328125 
Q 39.84375 48.1875 33.796875 48.1875 
Q 26.515625 48.1875 22.3125 43.546875 
Q 18.109375 38.921875 18.109375 30.90625 
L 18.109375 0 
L 9.078125 0 
L 9.078125 54.6875 
L 18.109375 54.6875 
L 18.109375 46.1875 
Q 21.34375 51.125 25.703125 53.5625 
Q 30.078125 56 35.796875 56 
Q 45.21875 56 50.046875 50.171875 
Q 54.890625 44.34375 54.890625 33.015625 
z
" id="DejaVuSans-110"/>
      <path d="M 48.78125 52.59375 
L 48.78125 44.1875 
Q 44.96875 46.296875 41.140625 47.34375 
Q 37.3125 48.390625 33.40625 48.390625 
Q 24.65625 48.390625 19.8125 42.84375 
Q 14.984375 37.3125 14.984375 27.296875 
Q 14.984375 17.28125 19.8125 11.734375 
Q 24.65625 6.203125 33.40625 6.203125 
Q 37.3125 6.203125 41.140625 7.25 
Q 44.96875 8.296875 48.78125 10.40625 
L 48.78125 2.09375 
Q 45.015625 0.34375 40.984375 -0.53125 
Q 36.96875 -1.421875 32.421875 -1.421875 
Q 20.0625 -1.421875 12.78125 6.34375 
Q 5.515625 14.109375 5.515625 27.296875 
Q 5.515625 40.671875 12.859375 48.328125 
Q 20.21875 56 33.015625 56 
Q 37.15625 56 41.109375 55.140625 
Q 45.0625 54.296875 48.78125 52.59375 
z
" id="DejaVuSans-99"/>
      <path d="M 54.890625 33.015625 
L 54.890625 0 
L 45.90625 0 
L 45.90625 32.71875 
Q 45.90625 40.484375 42.875 44.328125 
Q 39.84375 48.1875 33.796875 48.1875 
Q 26.515625 48.1875 22.3125 43.546875 
Q 18.109375 38.921875 18.109375 30.90625 
L 18.109375 0 
L 9.078125 0 
L 9.078125 75.984375 
L 18.109375 75.984375 
L 18.109375 46.1875 
Q 21.34375 51.125 25.703125 53.5625 
Q 30.078125 56 35.796875 56 
Q 45.21875 56 50.046875 50.171875 
Q 54.890625 44.34375 54.890625 33.015625 
z
" id="DejaVuSans-104"/>
      <path d="M 30.609375 48.390625 
Q 23.390625 48.390625 19.1875 42.75 
Q 14.984375 37.109375 14.984375 27.296875 
Q 14.984375 17.484375 19.15625 11.84375 
Q 23.34375 6.203125 30.609375 6.203125 
Q 37.796875 6.203125 41.984375 11.859375 
Q 46.1875 17.53125 46.1875 27.296875 
Q 46.1875 37.015625 41.984375 42.703125 
Q 37.796875 48.390625 30.609375 48.390625 
z
M 30.609375 56 
Q 42.328125 56 49.015625 48.375 
Q 55.71875 40.765625 55.71875 27.296875 
Q 55.71875 13.875 49.015625 6.21875 
Q 42.328125 -1.421875 30.609375 -1.421875 
Q 18.84375 -1.421875 12.171875 6.21875 
Q 5.515625 13.875 5.515625 27.296875 
Q 5.515625 40.765625 12.171875 48.375 
Q 18.84375 56 30.609375 56 
z
" id="DejaVuSans-111"/>
      <path d="M 9.421875 75.984375 
L 18.40625 75.984375 
L 18.40625 0 
L 9.421875 0 
z
" id="DejaVuSans-108"/>
      <path id="DejaVuSans-32"/>
      <path d="M 31 75.875 
Q 24.46875 64.65625 21.28125 53.65625 
Q 18.109375 42.671875 18.109375 31.390625 
Q 18.109375 20.125 21.3125 9.0625 
Q 24.515625 -2 31 -13.1875 
L 23.1875 -13.1875 
Q 15.875 -1.703125 12.234375 9.375 
Q 8.59375 20.453125 8.59375 31.390625 
Q 8.59375 42.28125 12.203125 53.3125 
Q 15.828125 64.359375 23.1875 75.875 
z
" id="DejaVuSans-40"/>
      <path d="M 8.5 21.578125 
L 8.5 54.6875 
L 17.484375 54.6875 
L 17.484375 21.921875 
Q 17.484375 14.15625 20.5 10.265625 
Q 23.53125 6.390625 29.59375 6.390625 
Q 36.859375 6.390625 41.078125 11.03125 
Q 45.3125 15.671875 45.3125 23.6875 
L 45.3125 54.6875 
L 54.296875 54.6875 
L 54.296875 0 
L 45.3125 0 
L 45.3125 8.40625 
Q 42.046875 3.421875 37.71875 1 
Q 33.40625 -1.421875 27.6875 -1.421875 
Q 18.265625 -1.421875 13.375 4.4375 
Q 8.5 10.296875 8.5 21.578125 
z
M 31.109375 56 
z
" id="DejaVuSans-117"/>
      <path d="M 9.8125 72.90625 
L 24.515625 72.90625 
L 43.109375 23.296875 
L 61.8125 72.90625 
L 76.515625 72.90625 
L 76.515625 0 
L 66.890625 0 
L 66.890625 64.015625 
L 48.09375 14.015625 
L 38.1875 14.015625 
L 19.390625 64.015625 
L 19.390625 0 
L 9.8125 0 
z
" id="DejaVuSans-77"/>
      <path d="M 8.015625 75.875 
L 15.828125 75.875 
Q 23.140625 64.359375 26.78125 53.3125 
Q 30.421875 42.28125 30.421875 31.390625 
Q 30.421875 20.453125 26.78125 9.375 
Q 23.140625 -1.703125 15.828125 -13.1875 
L 8.015625 -13.1875 
Q 14.5 -2 17.703125 9.0625 
Q 20.90625 20.125 20.90625 31.390625 
Q 20.90625 42.671875 17.703125 53.65625 
Q 14.5 64.65625 8.015625 75.875 
z
" id="DejaVuSans-41"/>
     </defs>
     <g transform="translate(267.185938 463.7639)scale(0.2 -0.2)">
      <use xlink:href="#DejaVuSans-70"/>
      <use x="57.441406" xlink:href="#DejaVuSans-101"/>
      <use x="118.964844" xlink:href="#DejaVuSans-110"/>
      <use x="182.34375" xlink:href="#DejaVuSans-99"/>
      <use x="237.324219" xlink:href="#DejaVuSans-104"/>
      <use x="300.703125" xlink:href="#DejaVuSans-111"/>
      <use x="361.884766" xlink:href="#DejaVuSans-108"/>
      <use x="389.667969" xlink:href="#DejaVuSans-32"/>
      <use x="421.455078" xlink:href="#DejaVuSans-40"/>
      <use x="460.46875" xlink:href="#DejaVuSans-117"/>
      <use x="523.847656" xlink:href="#DejaVuSans-77"/>
      <use x="610.126953" xlink:href="#DejaVuSans-41"/>
     </g>
    </g>
   </g>
   <g id="matplotlib.axis_2">
    <g id="ytick_1">
     <g id="line2d_44">
      <defs>
       <path d="M 0 0 
L -2 0 
" id="mf564aa3968" style="stroke:#000000;"/>
      </defs>
      <g>
       <use style="stroke:#000000;" x="81" xlink:href="#mf564aa3968" y="410.065852"/>
      </g>
     </g>
     <g id="text_7">
      <!-- 0.00 -->
      <g transform="translate(35.421875 416.904446)scale(0.18 -0.18)">
       <use xlink:href="#DejaVuSans-48"/>
       <use x="63.623047" xlink:href="#DejaVuSans-46"/>
       <use x="95.410156" xlink:href="#DejaVuSans-48"/>
       <use x="159.033203" xlink:href="#DejaVuSans-48"/>
      </g>
     </g>
    </g>
    <g id="ytick_2">
     <g id="line2d_45">
      <g>
       <use style="stroke:#000000;" x="81" xlink:href="#mf564aa3968" y="367.064381"/>
      </g>
     </g>
     <g id="text_8">
      <!-- 0.25 -->
      <defs>
       <path d="M 19.1875 8.296875 
L 53.609375 8.296875 
L 53.609375 0 
L 7.328125 0 
L 7.328125 8.296875 
Q 12.9375 14.109375 22.625 23.890625 
Q 32.328125 33.6875 34.8125 36.53125 
Q 39.546875 41.84375 41.421875 45.53125 
Q 43.3125 49.21875 43.3125 52.78125 
Q 43.3125 58.59375 39.234375 62.25 
Q 35.15625 65.921875 28.609375 65.921875 
Q 23.96875 65.921875 18.8125 64.3125 
Q 13.671875 62.703125 7.8125 59.421875 
L 7.8125 69.390625 
Q 13.765625 71.78125 18.9375 73 
Q 24.125 74.21875 28.421875 74.21875 
Q 39.75 74.21875 46.484375 68.546875 
Q 53.21875 62.890625 53.21875 53.421875 
Q 53.21875 48.921875 51.53125 44.890625 
Q 49.859375 40.875 45.40625 35.40625 
Q 44.1875 33.984375 37.640625 27.21875 
Q 31.109375 20.453125 19.1875 8.296875 
z
" id="DejaVuSans-50"/>
       <path d="M 10.796875 72.90625 
L 49.515625 72.90625 
L 49.515625 64.59375 
L 19.828125 64.59375 
L 19.828125 46.734375 
Q 21.96875 47.46875 24.109375 47.828125 
Q 26.265625 48.1875 28.421875 48.1875 
Q 40.625 48.1875 47.75 41.5 
Q 54.890625 34.8125 54.890625 23.390625 
Q 54.890625 11.625 47.5625 5.09375 
Q 40.234375 -1.421875 26.90625 -1.421875 
Q 22.3125 -1.421875 17.546875 -0.640625 
Q 12.796875 0.140625 7.71875 1.703125 
L 7.71875 11.625 
Q 12.109375 9.234375 16.796875 8.0625 
Q 21.484375 6.890625 26.703125 6.890625 
Q 35.15625 6.890625 40.078125 11.328125 
Q 45.015625 15.765625 45.015625 23.390625 
Q 45.015625 31 40.078125 35.4375 
Q 35.15625 39.890625 26.703125 39.890625 
Q 22.75 39.890625 18.8125 39.015625 
Q 14.890625 38.140625 10.796875 36.28125 
z
" id="DejaVuSans-53"/>
      </defs>
      <g transform="translate(35.421875 373.902975)scale(0.18 -0.18)">
       <use xlink:href="#DejaVuSans-48"/>
       <use x="63.623047" xlink:href="#DejaVuSans-46"/>
       <use x="95.410156" xlink:href="#DejaVuSans-50"/>
       <use x="159.033203" xlink:href="#DejaVuSans-53"/>
      </g>
     </g>
    </g>
    <g id="ytick_3">
     <g id="line2d_46">
      <g>
       <use style="stroke:#000000;" x="81" xlink:href="#mf564aa3968" y="324.06291"/>
      </g>
     </g>
     <g id="text_9">
      <!-- 0.50 -->
      <g transform="translate(35.421875 330.901504)scale(0.18 -0.18)">
       <use xlink:href="#DejaVuSans-48"/>
       <use x="63.623047" xlink:href="#DejaVuSans-46"/>
       <use x="95.410156" xlink:href="#DejaVuSans-53"/>
       <use x="159.033203" xlink:href="#DejaVuSans-48"/>
      </g>
     </g>
    </g>
    <g id="ytick_4">
     <g id="line2d_47">
      <g>
       <use style="stroke:#000000;" x="81" xlink:href="#mf564aa3968" y="281.061439"/>
      </g>
     </g>
     <g id="text_10">
      <!-- 0.75 -->
      <defs>
       <path d="M 8.203125 72.90625 
L 55.078125 72.90625 
L 55.078125 68.703125 
L 28.609375 0 
L 18.3125 0 
L 43.21875 64.59375 
L 8.203125 64.59375 
z
" id="DejaVuSans-55"/>
      </defs>
      <g transform="translate(35.421875 287.900033)scale(0.18 -0.18)">
       <use xlink:href="#DejaVuSans-48"/>
       <use x="63.623047" xlink:href="#DejaVuSans-46"/>
       <use x="95.410156" xlink:href="#DejaVuSans-55"/>
       <use x="159.033203" xlink:href="#DejaVuSans-53"/>
      </g>
     </g>
    </g>
    <g id="ytick_5">
     <g id="line2d_48">
      <g>
       <use style="stroke:#000000;" x="81" xlink:href="#mf564aa3968" y="238.059968"/>
      </g>
     </g>
     <g id="text_11">
      <!-- 1.00 -->
      <g transform="translate(35.421875 244.898562)scale(0.18 -0.18)">
       <use xlink:href="#DejaVuSans-49"/>
       <use x="63.623047" xlink:href="#DejaVuSans-46"/>
       <use x="95.410156" xlink:href="#DejaVuSans-48"/>
       <use x="159.033203" xlink:href="#DejaVuSans-48"/>
      </g>
     </g>
    </g>
    <g id="ytick_6">
     <g id="line2d_49">
      <g>
       <use style="stroke:#000000;" x="81" xlink:href="#mf564aa3968" y="195.058497"/>
      </g>
     </g>
     <g id="text_12">
      <!-- 1.25 -->
      <g transform="translate(35.421875 201.897091)scale(0.18 -0.18)">
       <use xlink:href="#DejaVuSans-49"/>
       <use x="63.623047" xlink:href="#DejaVuSans-46"/>
       <use x="95.410156" xlink:href="#DejaVuSans-50"/>
       <use x="159.033203" xlink:href="#DejaVuSans-53"/>
      </g>
     </g>
    </g>
    <g id="ytick_7">
     <g id="line2d_50">
      <g>
       <use style="stroke:#000000;" x="81" xlink:href="#mf564aa3968" y="152.057026"/>
      </g>
     </g>
     <g id="text_13">
      <!-- 1.50 -->
      <g transform="translate(35.421875 158.89562)scale(0.18 -0.18)">
       <use xlink:href="#DejaVuSans-49"/>
       <use x="63.623047" xlink:href="#DejaVuSans-46"/>
       <use x="95.410156" xlink:href="#DejaVuSans-53"/>
       <use x="159.033203" xlink:href="#DejaVuSans-48"/>
      </g>
     </g>
    </g>
    <g id="ytick_8">
     <g id="line2d_51">
      <g>
       <use style="stroke:#000000;" x="81" xlink:href="#mf564aa3968" y="109.055555"/>
      </g>
     </g>
     <g id="text_14">
      <!-- 1.75 -->
      <g transform="translate(35.421875 115.894149)scale(0.18 -0.18)">
       <use xlink:href="#DejaVuSans-49"/>
       <use x="63.623047" xlink:href="#DejaVuSans-46"/>
       <use x="95.410156" xlink:href="#DejaVuSans-55"/>
       <use x="159.033203" xlink:href="#DejaVuSans-53"/>
      </g>
     </g>
    </g>
    <g id="ytick_9">
     <g id="line2d_52">
      <g>
       <use style="stroke:#000000;" x="81" xlink:href="#mf564aa3968" y="66.054084"/>
      </g>
     </g>
     <g id="text_15">
      <!-- 2.00 -->
      <g transform="translate(35.421875 72.892678)scale(0.18 -0.18)">
       <use xlink:href="#DejaVuSans-50"/>
       <use x="63.623047" xlink:href="#DejaVuSans-46"/>
       <use x="95.410156" xlink:href="#DejaVuSans-48"/>
       <use x="159.033203" xlink:href="#DejaVuSans-48"/>
      </g>
     </g>
    </g>
    <g id="text_16">
     <!-- $(RFU/OD) \times 10^4$ -->
     <defs>
      <path d="M 25.203125 64.796875 
L 20.21875 38.921875 
L 32.90625 38.921875 
Q 40.375 38.921875 44.984375 43.046875 
Q 49.609375 47.171875 49.609375 53.8125 
Q 49.609375 59.125 46.5 61.953125 
Q 43.40625 64.796875 37.59375 64.796875 
z
M 43.3125 35.015625 
Q 46.4375 34.28125 48.515625 31.390625 
Q 50.59375 28.515625 53.328125 19.921875 
L 59.515625 0 
L 49.125 0 
L 43.40625 18.703125 
Q 41.21875 25.921875 38.328125 28.359375 
Q 35.453125 30.8125 29.5 30.8125 
L 18.609375 30.8125 
L 12.59375 0 
L 2.6875 0 
L 16.890625 72.90625 
L 39.109375 72.90625 
Q 49.21875 72.90625 54.609375 68.328125 
Q 60.015625 63.765625 60.015625 55.171875 
Q 60.015625 47.5625 55.421875 41.984375 
Q 50.828125 36.421875 43.3125 35.015625 
z
" id="DejaVuSans-Oblique-82"/>
      <path d="M 16.890625 72.90625 
L 58.6875 72.90625 
L 57.078125 64.59375 
L 25.09375 64.59375 
L 20.90625 43.109375 
L 49.8125 43.109375 
L 48.1875 34.8125 
L 19.28125 34.8125 
L 12.5 0 
L 2.6875 0 
z
" id="DejaVuSans-Oblique-70"/>
      <path d="M 15.484375 72.90625 
L 25.390625 72.90625 
L 16.796875 28.609375 
Q 16.265625 25.640625 16.046875 23.703125 
Q 15.828125 21.78125 15.828125 20.3125 
Q 15.828125 13.578125 19.578125 10.078125 
Q 23.34375 6.59375 30.609375 6.59375 
Q 40.046875 6.59375 45.28125 11.765625 
Q 50.53125 16.9375 52.78125 28.609375 
L 61.375 72.90625 
L 71.296875 72.90625 
L 62.5 27.390625 
Q 59.625 12.640625 51.5625 5.609375 
Q 43.5 -1.421875 29.5 -1.421875 
Q 18.5625 -1.421875 12.1875 4.078125 
Q 5.8125 9.578125 5.8125 19 
Q 5.8125 20.703125 6.046875 22.828125 
Q 6.296875 24.953125 6.78125 27.390625 
z
" id="DejaVuSans-Oblique-85"/>
      <path d="M 25.390625 72.90625 
L 33.6875 72.90625 
L 8.296875 -9.28125 
L 0 -9.28125 
z
" id="DejaVuSans-47"/>
      <path d="M 45.609375 66.21875 
Q 37.5 66.21875 31.296875 62.28125 
Q 25.09375 58.34375 20.515625 50.296875 
Q 17.578125 45.171875 16.03125 39.40625 
Q 14.5 33.640625 14.5 27.78125 
Q 14.5 17.625 19.359375 12.109375 
Q 24.21875 6.59375 33.109375 6.59375 
Q 41.109375 6.59375 47.375 10.5625 
Q 53.65625 14.546875 58.109375 22.40625 
Q 61.078125 27.6875 62.640625 33.46875 
Q 64.203125 39.265625 64.203125 45.015625 
Q 64.203125 55.125 59.3125 60.671875 
Q 54.4375 66.21875 45.609375 66.21875 
z
M 32.8125 -1.421875 
Q 19.390625 -1.421875 11.6875 6.53125 
Q 4 14.5 4 28.328125 
Q 4 36.234375 7 44.484375 
Q 10.015625 52.734375 15.28125 59.1875 
Q 21.484375 66.75 29.09375 70.484375 
Q 36.71875 74.21875 45.90625 74.21875 
Q 59.28125 74.21875 66.984375 66.328125 
Q 74.703125 58.453125 74.703125 44.828125 
Q 74.703125 36.421875 71.765625 28.3125 
Q 68.84375 20.21875 63.375 13.625 
Q 57.125 6 49.578125 2.28125 
Q 42.046875 -1.421875 32.8125 -1.421875 
z
" id="DejaVuSans-Oblique-79"/>
      <path d="M 16.890625 72.90625 
L 38.09375 72.90625 
Q 54.984375 72.90625 63.59375 65.75 
Q 72.21875 58.59375 72.21875 44.484375 
Q 72.21875 35.15625 68.9375 26.53125 
Q 65.671875 17.921875 59.90625 12.015625 
Q 54.109375 5.953125 45.171875 2.96875 
Q 36.234375 0 24.03125 0 
L 2.6875 0 
z
M 25.203125 64.796875 
L 14.203125 8.109375 
L 27.09375 8.109375 
Q 43.65625 8.109375 52.734375 17.625 
Q 61.8125 27.15625 61.8125 44.484375 
Q 61.8125 54.984375 55.953125 59.890625 
Q 50.09375 64.796875 37.59375 64.796875 
z
" id="DejaVuSans-Oblique-68"/>
      <path d="M 70.125 53.71875 
L 47.796875 31.296875 
L 70.125 8.984375 
L 64.3125 3.078125 
L 41.890625 25.484375 
L 19.484375 3.078125 
L 13.71875 8.984375 
L 35.984375 31.296875 
L 13.71875 53.71875 
L 19.484375 59.625 
L 41.890625 37.203125 
L 64.3125 59.625 
z
" id="DejaVuSans-215"/>
      <path d="M 37.796875 64.3125 
L 12.890625 25.390625 
L 37.796875 25.390625 
z
M 35.203125 72.90625 
L 47.609375 72.90625 
L 47.609375 25.390625 
L 58.015625 25.390625 
L 58.015625 17.1875 
L 47.609375 17.1875 
L 47.609375 0 
L 37.796875 0 
L 37.796875 17.1875 
L 4.890625 17.1875 
L 4.890625 26.703125 
z
" id="DejaVuSans-52"/>
     </defs>
     <g transform="translate(27.2625 315.8488)rotate(-90)scale(0.2 -0.2)">
      <use transform="translate(0 0.684375)" xlink:href="#DejaVuSans-40"/>
      <use transform="translate(39.013672 0.684375)" xlink:href="#DejaVuSans-Oblique-82"/>
      <use transform="translate(108.496094 0.684375)" xlink:href="#DejaVuSans-Oblique-70"/>
      <use transform="translate(166.015625 0.684375)" xlink:href="#DejaVuSans-Oblique-85"/>
      <use transform="translate(239.208984 0.684375)" xlink:href="#DejaVuSans-47"/>
      <use transform="translate(272.900391 0.684375)" xlink:href="#DejaVuSans-Oblique-79"/>
      <use transform="translate(351.611328 0.684375)" xlink:href="#DejaVuSans-Oblique-68"/>
      <use transform="translate(428.613281 0.684375)" xlink:href="#DejaVuSans-41"/>
      <use transform="translate(487.109375 0.684375)" xlink:href="#DejaVuSans-215"/>
      <use transform="translate(590.380859 0.684375)" xlink:href="#DejaVuSans-49"/>
      <use transform="translate(654.003906 0.684375)" xlink:href="#DejaVuSans-48"/>
      <use transform="translate(718.583984 38.965625)scale(0.7)" xlink:href="#DejaVuSans-52"/>
     </g>
    </g>
   </g>
   <g id="line2d_53">
    <path clip-path="url(#pd462b9c8fe)" d="M 79.024217 402.934379 
L 265.588391 402.822098 
L 300.076775 402.582144 
L 321.436746 402.222267 
L 337.152055 401.743645 
L 349.72439 401.14477 
L 360.279831 400.424757 
L 369.463908 399.579929 
L 377.672773 398.604975 
L 385.154795 397.495386 
L 392.112475 396.240834 
L 398.678721 394.832457 
L 404.981508 393.253955 
L 411.119396 391.487889 
L 417.212127 389.502854 
L 423.378082 387.258564 
L 429.788341 384.685972 
L 436.736837 381.652669 
L 444.916596 377.828575 
L 459.817364 370.553585 
L 469.983208 365.730176 
L 477.434456 362.437864 
L 484.068894 359.746434 
L 490.339791 357.440579 
L 496.467757 355.423363 
L 502.59329 353.640976 
L 508.830793 352.058226 
L 515.283906 350.651438 
L 522.062409 349.403191 
L 529.291295 348.300647 
L 537.124519 347.334066 
L 545.765938 346.495779 
L 549.643456 346.184802 
L 549.643456 346.184802 
" style="fill:none;stroke:#0099ff;stroke-linecap:square;stroke-width:1.5;"/>
   </g>
   <g id="line2d_54">
    <path clip-path="url(#pd462b9c8fe)" d="M 79.024217 403.479756 
L 195.110785 403.357413 
L 230.112567 403.110367 
L 252.284382 402.742009 
L 268.573629 402.256772 
L 281.48504 401.657359 
L 292.263191 400.941147 
L 301.563946 400.10527 
L 309.776359 399.147072 
L 317.091708 398.073978 
L 323.755058 396.875874 
L 329.883994 395.551749 
L 335.606232 394.090252 
L 340.976031 392.49075 
L 346.069519 390.741825 
L 350.913201 388.84414 
L 355.556693 386.787258 
L 360.061595 384.548455 
L 364.427654 382.131085 
L 368.717699 379.501484 
L 372.938549 376.653498 
L 377.129196 373.557547 
L 381.331612 370.1746 
L 385.55835 366.484437 
L 389.854384 362.43576 
L 394.257926 357.976949 
L 398.831716 353.025179 
L 403.656675 347.468693 
L 408.87574 341.11222 
L 414.762696 333.581093 
L 422.092884 323.820799 
L 443.571439 294.987534 
L 449.452187 287.609811 
L 454.667796 281.416214 
L 459.50056 276.016831 
L 464.090334 271.217969 
L 468.518348 266.906405 
L 472.843113 263.0029 
L 477.106327 259.452118 
L 481.34686 256.207885 
L 485.594123 253.23725 
L 489.877799 250.51171 
L 494.225455 248.008545 
L 498.667707 245.7074 
L 503.235156 243.592078 
L 507.962573 241.648343 
L 512.888548 239.864403 
L 518.057777 238.230283 
L 523.522445 236.737796 
L 529.345811 235.380059 
L 535.606211 234.151357 
L 542.404206 233.04682 
L 549.643456 232.089414 
L 549.643456 232.089414 
" style="fill:none;stroke:#3372cc;stroke-linecap:square;stroke-width:1.5;"/>
   </g>
   <g id="line2d_55">
    <path clip-path="url(#pd462b9c8fe)" d="M 79.024217 398.404462 
L 129.442935 398.179505 
L 158.527515 397.834717 
L 179.693848 397.361606 
L 195.838797 396.782927 
L 209.038009 396.097009 
L 220.278923 395.301777 
L 230.467234 394.35819 
L 239.470123 393.298745 
L 247.557522 392.122621 
L 254.913727 390.829378 
L 261.670589 389.418998 
L 267.925969 387.891919 
L 273.898977 386.205433 
L 279.472829 384.403213 
L 284.816901 382.442592 
L 289.940592 380.324825 
L 294.854732 378.052201 
L 299.570723 375.628004 
L 304.177158 373.010478 
L 308.664991 370.204652 
L 313.093538 367.171085 
L 317.444651 363.918191 
L 321.759493 360.4109 
L 326.016532 356.662593 
L 330.29025 352.600194 
L 334.547562 348.245538 
L 338.838783 343.538071 
L 343.19537 338.427925 
L 347.665309 332.837721 
L 352.24519 326.749876 
L 357.00193 320.052319 
L 361.991179 312.638074 
L 367.336471 304.287886 
L 373.180098 294.736797 
L 379.917215 283.283607 
L 388.778669 267.745236 
L 407.298667 235.168175 
L 414.16228 223.62391 
L 420.067103 214.117799 
L 425.442853 205.87726 
L 430.474234 198.565247 
L 435.268625 191.984683 
L 439.893048 186.010768 
L 444.391525 180.558969 
L 448.803597 175.558028 
L 453.156989 170.956979 
L 457.477007 166.712477 
L 461.782982 162.791396 
L 466.100036 159.159373 
L 470.445241 155.793012 
L 474.840383 152.668431 
L 479.304068 149.767426 
L 483.858334 147.072511 
L 488.526401 144.568697 
L 493.333646 142.242935 
L 498.308388 140.083851 
L 503.482001 138.081834 
L 508.890371 136.228612 
L 514.57786 134.516343 
L 520.594033 132.93919 
L 527.000057 131.491865 
L 533.871385 130.169883 
L 541.302196 128.969587 
L 549.413436 127.887937 
L 549.643456 127.860329 
L 549.643456 127.860329 
" style="fill:none;stroke:#674c9a;stroke-linecap:square;stroke-width:1.5;"/>
   </g>
   <g id="line2d_56">
    <path clip-path="url(#pd462b9c8fe)" d="M 79.024217 388.722769 
L 98.653536 388.259312 
L 116.455777 387.6281 
L 132.21008 386.82509 
L 144.076914 386.011607 
L 155.298861 385.026045 
L 165.766624 383.867554 
L 174.3685 382.703109 
L 182.628799 381.368142 
L 190.496642 379.864041 
L 197.959363 378.193087 
L 204.423866 376.524976 
L 210.660905 374.695687 
L 216.657657 372.709079 
L 222.411949 370.569682 
L 227.928202 368.282641 
L 233.214743 365.853655 
L 238.282043 363.288912 
L 243.412801 360.437592 
L 248.296649 357.468439 
L 253.176792 354.236526 
L 258.011491 350.757795 
L 262.770906 347.049476 
L 267.434474 343.129835 
L 272.138352 338.877928 
L 276.833928 334.324672 
L 281.48504 329.502477 
L 286.177511 324.317199 
L 290.964137 318.693804 
L 295.87202 312.578465 
L 300.908615 305.94034 
L 306.141091 298.667054 
L 311.595808 290.696204 
L 317.386006 281.833879 
L 323.703584 271.745993 
L 330.826675 259.937653 
L 339.623554 244.89867 
L 367.649143 196.651809 
L 374.676551 185.197264 
L 380.922673 175.432756 
L 386.693166 166.818234 
L 392.137539 159.085337 
L 397.347117 152.068248 
L 402.375757 145.663661 
L 407.280343 139.773472 
L 412.091521 134.339778 
L 416.837479 129.312269 
L 421.543167 124.648787 
L 426.229852 120.314958 
L 430.920534 116.278661 
L 435.632221 112.516498 
L 440.381145 109.008198 
L 445.189576 105.731853 
L 450.073276 102.67293 
L 455.055326 99.814698 
L 460.156708 97.144533 
L 465.401677 94.650603 
L 470.816651 92.322696 
L 476.432339 90.151464 
L 482.2804 88.129872 
L 488.403058 86.250017 
L 494.843541 84.506806 
L 501.656661 82.894954 
L 508.908343 81.41 
L 516.678273 80.048371 
L 525.066179 78.80701 
L 534.199521 77.683317 
L 544.24486 76.675119 
L 549.643456 76.216404 
L 549.643456 76.216404 
" style="fill:none;stroke:#9a2667;stroke-linecap:square;stroke-width:1.5;"/>
   </g>
   <g id="line2d_57">
    <defs>
     <path d="M 0 3 
C 0.795609 3 1.55874 2.683901 2.12132 2.12132 
C 2.683901 1.55874 3 0.795609 3 0 
C 3 -0.795609 2.683901 -1.55874 2.12132 -2.12132 
C 1.55874 -2.683901 0.795609 -3 0 -3 
C -0.795609 -3 -1.55874 -2.683901 -2.12132 -2.12132 
C -2.683901 -1.55874 -3 -0.795609 -3 0 
C -3 0.795609 -2.683901 1.55874 -2.12132 2.12132 
C -1.55874 2.683901 -0.795609 3 0 3 
z
" id="m8e1778cfb5" style="stroke:#0099ff;"/>
    </defs>
    <g clip-path="url(#pd462b9c8fe)">
     <use style="fill:#0099ff;stroke:#0099ff;" x="-1" xlink:href="#m8e1778cfb5" y="403.02616"/>
     <use style="fill:#0099ff;stroke:#0099ff;" x="181.669632" xlink:href="#m8e1778cfb5" y="403.026013"/>
     <use style="fill:#0099ff;stroke:#0099ff;" x="215.226176" xlink:href="#m8e1778cfb5" y="404.097991"/>
     <use style="fill:#0099ff;stroke:#0099ff;" x="248.78272" xlink:href="#m8e1778cfb5" y="402.705297"/>
     <use style="fill:#0099ff;stroke:#0099ff;" x="293.142059" xlink:href="#m8e1778cfb5" y="402.660708"/>
     <use style="fill:#0099ff;stroke:#0099ff;" x="326.698603" xlink:href="#m8e1778cfb5" y="402.018644"/>
     <use style="fill:#0099ff;stroke:#0099ff;" x="360.255147" xlink:href="#m8e1778cfb5" y="399.880961"/>
     <use style="fill:#0099ff;stroke:#0099ff;" x="404.614485" xlink:href="#m8e1778cfb5" y="393.533694"/>
     <use style="fill:#0099ff;stroke:#0099ff;" x="438.171029" xlink:href="#m8e1778cfb5" y="382.412087"/>
     <use style="fill:#0099ff;stroke:#0099ff;" x="471.727573" xlink:href="#m8e1778cfb5" y="363.779014"/>
     <use style="fill:#0099ff;stroke:#0099ff;" x="516.086912" xlink:href="#m8e1778cfb5" y="350.399764"/>
     <use style="fill:#0099ff;stroke:#0099ff;" x="549.643456" xlink:href="#m8e1778cfb5" y="346.689935"/>
    </g>
   </g>
   <g id="line2d_58">
    <g clip-path="url(#pd462b9c8fe)">
     <use style="fill:#0099ff;stroke:#0099ff;" x="-1" xlink:href="#m8e1778cfb5" y="402.677191"/>
     <use style="fill:#0099ff;stroke:#0099ff;" x="181.669632" xlink:href="#m8e1778cfb5" y="402.676988"/>
     <use style="fill:#0099ff;stroke:#0099ff;" x="215.226176" xlink:href="#m8e1778cfb5" y="403.548217"/>
     <use style="fill:#0099ff;stroke:#0099ff;" x="248.78272" xlink:href="#m8e1778cfb5" y="402.689709"/>
     <use style="fill:#0099ff;stroke:#0099ff;" x="293.142059" xlink:href="#m8e1778cfb5" y="402.361138"/>
     <use style="fill:#0099ff;stroke:#0099ff;" x="326.698603" xlink:href="#m8e1778cfb5" y="401.833954"/>
     <use style="fill:#0099ff;stroke:#0099ff;" x="360.255147" xlink:href="#m8e1778cfb5" y="399.618748"/>
     <use style="fill:#0099ff;stroke:#0099ff;" x="404.614485" xlink:href="#m8e1778cfb5" y="393.419351"/>
     <use style="fill:#0099ff;stroke:#0099ff;" x="438.171029" xlink:href="#m8e1778cfb5" y="381.79434"/>
     <use style="fill:#0099ff;stroke:#0099ff;" x="471.727573" xlink:href="#m8e1778cfb5" y="363.841238"/>
     <use style="fill:#0099ff;stroke:#0099ff;" x="516.086912" xlink:href="#m8e1778cfb5" y="352.54851"/>
     <use style="fill:#0099ff;stroke:#0099ff;" x="549.643456" xlink:href="#m8e1778cfb5" y="344.405303"/>
    </g>
   </g>
   <g id="line2d_59">
    <g clip-path="url(#pd462b9c8fe)">
     <use style="fill:#0099ff;stroke:#0099ff;" x="-1" xlink:href="#m8e1778cfb5" y="403.120015"/>
     <use style="fill:#0099ff;stroke:#0099ff;" x="181.669632" xlink:href="#m8e1778cfb5" y="403.119507"/>
     <use style="fill:#0099ff;stroke:#0099ff;" x="215.226176" xlink:href="#m8e1778cfb5" y="403.416392"/>
     <use style="fill:#0099ff;stroke:#0099ff;" x="248.78272" xlink:href="#m8e1778cfb5" y="402.603036"/>
     <use style="fill:#0099ff;stroke:#0099ff;" x="293.142059" xlink:href="#m8e1778cfb5" y="402.54926"/>
     <use style="fill:#0099ff;stroke:#0099ff;" x="326.698603" xlink:href="#m8e1778cfb5" y="401.695736"/>
     <use style="fill:#0099ff;stroke:#0099ff;" x="360.255147" xlink:href="#m8e1778cfb5" y="399.57007"/>
     <use style="fill:#0099ff;stroke:#0099ff;" x="404.614485" xlink:href="#m8e1778cfb5" y="393.417767"/>
     <use style="fill:#0099ff;stroke:#0099ff;" x="438.171029" xlink:href="#m8e1778cfb5" y="381.423462"/>
     <use style="fill:#0099ff;stroke:#0099ff;" x="471.727573" xlink:href="#m8e1778cfb5" y="363.343492"/>
     <use style="fill:#0099ff;stroke:#0099ff;" x="516.086912" xlink:href="#m8e1778cfb5" y="352.643198"/>
     <use style="fill:#0099ff;stroke:#0099ff;" x="549.643456" xlink:href="#m8e1778cfb5" y="345.271221"/>
    </g>
   </g>
   <g id="line2d_60">
    <defs>
     <path d="M 0 3 
C 0.795609 3 1.55874 2.683901 2.12132 2.12132 
C 2.683901 1.55874 3 0.795609 3 0 
C 3 -0.795609 2.683901 -1.55874 2.12132 -2.12132 
C 1.55874 -2.683901 0.795609 -3 0 -3 
C -0.795609 -3 -1.55874 -2.683901 -2.12132 -2.12132 
C -2.683901 -1.55874 -3 -0.795609 -3 0 
C -3 0.795609 -2.683901 1.55874 -2.12132 2.12132 
C -1.55874 2.683901 -0.795609 3 0 3 
z
" id="m6da0fdf909" style="stroke:#3372cc;"/>
    </defs>
    <g clip-path="url(#pd462b9c8fe)">
     <use style="fill:#3372cc;stroke:#3372cc;" x="-1" xlink:href="#m6da0fdf909" y="404.48381"/>
     <use style="fill:#3372cc;stroke:#3372cc;" x="181.669632" xlink:href="#m6da0fdf909" y="404.482857"/>
     <use style="fill:#3372cc;stroke:#3372cc;" x="215.226176" xlink:href="#m6da0fdf909" y="404.137236"/>
     <use style="fill:#3372cc;stroke:#3372cc;" x="248.78272" xlink:href="#m6da0fdf909" y="402.724929"/>
     <use style="fill:#3372cc;stroke:#3372cc;" x="293.142059" xlink:href="#m6da0fdf909" y="400.332049"/>
     <use style="fill:#3372cc;stroke:#3372cc;" x="326.698603" xlink:href="#m6da0fdf909" y="393.967027"/>
     <use style="fill:#3372cc;stroke:#3372cc;" x="360.255147" xlink:href="#m6da0fdf909" y="382.341052"/>
     <use style="fill:#3372cc;stroke:#3372cc;" x="404.614485" xlink:href="#m6da0fdf909" y="347.762877"/>
     <use style="fill:#3372cc;stroke:#3372cc;" x="438.171029" xlink:href="#m6da0fdf909" y="300.619764"/>
     <use style="fill:#3372cc;stroke:#3372cc;" x="471.727573" xlink:href="#m6da0fdf909" y="258.664391"/>
     <use style="fill:#3372cc;stroke:#3372cc;" x="516.086912" xlink:href="#m6da0fdf909" y="238.956632"/>
     <use style="fill:#3372cc;stroke:#3372cc;" x="549.643456" xlink:href="#m6da0fdf909" y="228.605089"/>
    </g>
   </g>
   <g id="line2d_61">
    <g clip-path="url(#pd462b9c8fe)">
     <use style="fill:#3372cc;stroke:#3372cc;" x="-1" xlink:href="#m6da0fdf909" y="404.299448"/>
     <use style="fill:#3372cc;stroke:#3372cc;" x="181.669632" xlink:href="#m6da0fdf909" y="404.298702"/>
     <use style="fill:#3372cc;stroke:#3372cc;" x="215.226176" xlink:href="#m6da0fdf909" y="403.913997"/>
     <use style="fill:#3372cc;stroke:#3372cc;" x="248.78272" xlink:href="#m6da0fdf909" y="403.139441"/>
     <use style="fill:#3372cc;stroke:#3372cc;" x="293.142059" xlink:href="#m6da0fdf909" y="400.440039"/>
     <use style="fill:#3372cc;stroke:#3372cc;" x="326.698603" xlink:href="#m6da0fdf909" y="394.424551"/>
     <use style="fill:#3372cc;stroke:#3372cc;" x="360.255147" xlink:href="#m6da0fdf909" y="382.002655"/>
     <use style="fill:#3372cc;stroke:#3372cc;" x="404.614485" xlink:href="#m6da0fdf909" y="349.173078"/>
     <use style="fill:#3372cc;stroke:#3372cc;" x="438.171029" xlink:href="#m6da0fdf909" y="304.371186"/>
     <use style="fill:#3372cc;stroke:#3372cc;" x="471.727573" xlink:href="#m6da0fdf909" y="259.996318"/>
     <use style="fill:#3372cc;stroke:#3372cc;" x="516.086912" xlink:href="#m6da0fdf909" y="243.751229"/>
     <use style="fill:#3372cc;stroke:#3372cc;" x="549.643456" xlink:href="#m6da0fdf909" y="233.042338"/>
    </g>
   </g>
   <g id="line2d_62">
    <g clip-path="url(#pd462b9c8fe)">
     <use style="fill:#3372cc;stroke:#3372cc;" x="-1" xlink:href="#m6da0fdf909" y="404.227484"/>
     <use style="fill:#3372cc;stroke:#3372cc;" x="181.669632" xlink:href="#m6da0fdf909" y="404.227017"/>
     <use style="fill:#3372cc;stroke:#3372cc;" x="215.226176" xlink:href="#m6da0fdf909" y="403.883062"/>
     <use style="fill:#3372cc;stroke:#3372cc;" x="248.78272" xlink:href="#m6da0fdf909" y="402.860751"/>
     <use style="fill:#3372cc;stroke:#3372cc;" x="293.142059" xlink:href="#m6da0fdf909" y="400.217514"/>
     <use style="fill:#3372cc;stroke:#3372cc;" x="326.698603" xlink:href="#m6da0fdf909" y="394.296698"/>
     <use style="fill:#3372cc;stroke:#3372cc;" x="360.255147" xlink:href="#m6da0fdf909" y="382.841714"/>
     <use style="fill:#3372cc;stroke:#3372cc;" x="404.614485" xlink:href="#m6da0fdf909" y="347.969208"/>
     <use style="fill:#3372cc;stroke:#3372cc;" x="438.171029" xlink:href="#m6da0fdf909" y="305.012563"/>
     <use style="fill:#3372cc;stroke:#3372cc;" x="471.727573" xlink:href="#m6da0fdf909" y="262.714151"/>
     <use style="fill:#3372cc;stroke:#3372cc;" x="516.086912" xlink:href="#m6da0fdf909" y="239.831972"/>
     <use style="fill:#3372cc;stroke:#3372cc;" x="549.643456" xlink:href="#m6da0fdf909" y="234.109935"/>
    </g>
   </g>
   <g id="line2d_63">
    <defs>
     <path d="M 0 3 
C 0.795609 3 1.55874 2.683901 2.12132 2.12132 
C 2.683901 1.55874 3 0.795609 3 0 
C 3 -0.795609 2.683901 -1.55874 2.12132 -2.12132 
C 1.55874 -2.683901 0.795609 -3 0 -3 
C -0.795609 -3 -1.55874 -2.683901 -2.12132 -2.12132 
C -2.683901 -1.55874 -3 -0.795609 -3 0 
C -3 0.795609 -2.683901 1.55874 -2.12132 2.12132 
C -1.55874 2.683901 -0.795609 3 0 3 
z
" id="m6956d20492" style="stroke:#674c9a;"/>
    </defs>
    <g clip-path="url(#pd462b9c8fe)">
     <use style="fill:#674c9a;stroke:#674c9a;" x="-1" xlink:href="#m6956d20492" y="398.131295"/>
     <use style="fill:#674c9a;stroke:#674c9a;" x="181.669632" xlink:href="#m6956d20492" y="398.128536"/>
     <use style="fill:#674c9a;stroke:#674c9a;" x="215.226176" xlink:href="#m6956d20492" y="396.060349"/>
     <use style="fill:#674c9a;stroke:#674c9a;" x="248.78272" xlink:href="#m6956d20492" y="391.582877"/>
     <use style="fill:#674c9a;stroke:#674c9a;" x="293.142059" xlink:href="#m6956d20492" y="377.87279"/>
     <use style="fill:#674c9a;stroke:#674c9a;" x="326.698603" xlink:href="#m6956d20492" y="352.485835"/>
     <use style="fill:#674c9a;stroke:#674c9a;" x="360.255147" xlink:href="#m6956d20492" y="313.296479"/>
     <use style="fill:#674c9a;stroke:#674c9a;" x="404.614485" xlink:href="#m6956d20492" y="241.378491"/>
     <use style="fill:#674c9a;stroke:#674c9a;" x="438.171029" xlink:href="#m6956d20492" y="184.208545"/>
     <use style="fill:#674c9a;stroke:#674c9a;" x="471.727573" xlink:href="#m6956d20492" y="147.703176"/>
     <use style="fill:#674c9a;stroke:#674c9a;" x="516.086912" xlink:href="#m6956d20492" y="130.39609"/>
     <use style="fill:#674c9a;stroke:#674c9a;" x="549.643456" xlink:href="#m6956d20492" y="127.741209"/>
    </g>
   </g>
   <g id="line2d_64">
    <g clip-path="url(#pd462b9c8fe)">
     <use style="fill:#674c9a;stroke:#674c9a;" x="-1" xlink:href="#m6956d20492" y="397.875738"/>
     <use style="fill:#674c9a;stroke:#674c9a;" x="181.669632" xlink:href="#m6956d20492" y="397.872619"/>
     <use style="fill:#674c9a;stroke:#674c9a;" x="215.226176" xlink:href="#m6956d20492" y="396.004331"/>
     <use style="fill:#674c9a;stroke:#674c9a;" x="248.78272" xlink:href="#m6956d20492" y="391.010698"/>
     <use style="fill:#674c9a;stroke:#674c9a;" x="293.142059" xlink:href="#m6956d20492" y="377.930345"/>
     <use style="fill:#674c9a;stroke:#674c9a;" x="326.698603" xlink:href="#m6956d20492" y="352.13376"/>
     <use style="fill:#674c9a;stroke:#674c9a;" x="360.255147" xlink:href="#m6956d20492" y="315.795917"/>
     <use style="fill:#674c9a;stroke:#674c9a;" x="404.614485" xlink:href="#m6956d20492" y="244.593853"/>
     <use style="fill:#674c9a;stroke:#674c9a;" x="438.171029" xlink:href="#m6956d20492" y="181.895336"/>
     <use style="fill:#674c9a;stroke:#674c9a;" x="471.727573" xlink:href="#m6956d20492" y="151.739451"/>
     <use style="fill:#674c9a;stroke:#674c9a;" x="516.086912" xlink:href="#m6956d20492" y="140.799085"/>
     <use style="fill:#674c9a;stroke:#674c9a;" x="549.643456" xlink:href="#m6956d20492" y="123.822712"/>
    </g>
   </g>
   <g id="line2d_65">
    <g clip-path="url(#pd462b9c8fe)">
     <use style="fill:#674c9a;stroke:#674c9a;" x="-1" xlink:href="#m6956d20492" y="398.175461"/>
     <use style="fill:#674c9a;stroke:#674c9a;" x="181.669632" xlink:href="#m6956d20492" y="398.172548"/>
     <use style="fill:#674c9a;stroke:#674c9a;" x="215.226176" xlink:href="#m6956d20492" y="396.159217"/>
     <use style="fill:#674c9a;stroke:#674c9a;" x="248.78272" xlink:href="#m6956d20492" y="391.778238"/>
     <use style="fill:#674c9a;stroke:#674c9a;" x="293.142059" xlink:href="#m6956d20492" y="378.396424"/>
     <use style="fill:#674c9a;stroke:#674c9a;" x="326.698603" xlink:href="#m6956d20492" y="354.325417"/>
     <use style="fill:#674c9a;stroke:#674c9a;" x="360.255147" xlink:href="#m6956d20492" y="317.157959"/>
     <use style="fill:#674c9a;stroke:#674c9a;" x="404.614485" xlink:href="#m6956d20492" y="250.489975"/>
     <use style="fill:#674c9a;stroke:#674c9a;" x="438.171029" xlink:href="#m6956d20492" y="187.16405"/>
     <use style="fill:#674c9a;stroke:#674c9a;" x="471.727573" xlink:href="#m6956d20492" y="152.706549"/>
     <use style="fill:#674c9a;stroke:#674c9a;" x="516.086912" xlink:href="#m6956d20492" y="140.812948"/>
     <use style="fill:#674c9a;stroke:#674c9a;" x="549.643456" xlink:href="#m6956d20492" y="133.959689"/>
    </g>
   </g>
   <g id="line2d_66">
    <defs>
     <path d="M 0 3 
C 0.795609 3 1.55874 2.683901 2.12132 2.12132 
C 2.683901 1.55874 3 0.795609 3 0 
C 3 -0.795609 2.683901 -1.55874 2.12132 -2.12132 
C 1.55874 -2.683901 0.795609 -3 0 -3 
C -0.795609 -3 -1.55874 -2.683901 -2.12132 -2.12132 
C -2.683901 -1.55874 -3 -0.795609 -3 0 
C -3 0.795609 -2.683901 1.55874 -2.12132 2.12132 
C -1.55874 2.683901 -0.795609 3 0 3 
z
" id="mea9efff1be" style="stroke:#9a2667;"/>
    </defs>
    <g clip-path="url(#pd462b9c8fe)">
     <use style="fill:#9a2667;stroke:#9a2667;" x="-1" xlink:href="#mea9efff1be" y="381.572644"/>
     <use style="fill:#9a2667;stroke:#9a2667;" x="181.669632" xlink:href="#mea9efff1be" y="381.559039"/>
     <use style="fill:#9a2667;stroke:#9a2667;" x="215.226176" xlink:href="#mea9efff1be" y="373.021266"/>
     <use style="fill:#9a2667;stroke:#9a2667;" x="248.78272" xlink:href="#mea9efff1be" y="355.443555"/>
     <use style="fill:#9a2667;stroke:#9a2667;" x="293.142059" xlink:href="#mea9efff1be" y="314.422617"/>
     <use style="fill:#9a2667;stroke:#9a2667;" x="326.698603" xlink:href="#mea9efff1be" y="263.316264"/>
     <use style="fill:#9a2667;stroke:#9a2667;" x="360.255147" xlink:href="#mea9efff1be" y="213.558756"/>
     <use style="fill:#9a2667;stroke:#9a2667;" x="404.614485" xlink:href="#mea9efff1be" y="148.688757"/>
     <use style="fill:#9a2667;stroke:#9a2667;" x="438.171029" xlink:href="#mea9efff1be" y="110.775084"/>
     <use style="fill:#9a2667;stroke:#9a2667;" x="471.727573" xlink:href="#mea9efff1be" y="90.961103"/>
     <use style="fill:#9a2667;stroke:#9a2667;" x="516.086912" xlink:href="#mea9efff1be" y="86.273417"/>
     <use style="fill:#9a2667;stroke:#9a2667;" x="549.643456" xlink:href="#mea9efff1be" y="82.649416"/>
    </g>
   </g>
   <g id="line2d_67">
    <g clip-path="url(#pd462b9c8fe)">
     <use style="fill:#9a2667;stroke:#9a2667;" x="-1" xlink:href="#mea9efff1be" y="382.118556"/>
     <use style="fill:#9a2667;stroke:#9a2667;" x="181.669632" xlink:href="#mea9efff1be" y="382.105102"/>
     <use style="fill:#9a2667;stroke:#9a2667;" x="215.226176" xlink:href="#mea9efff1be" y="373.209272"/>
     <use style="fill:#9a2667;stroke:#9a2667;" x="248.78272" xlink:href="#mea9efff1be" y="356.761606"/>
     <use style="fill:#9a2667;stroke:#9a2667;" x="293.142059" xlink:href="#mea9efff1be" y="315.616429"/>
     <use style="fill:#9a2667;stroke:#9a2667;" x="326.698603" xlink:href="#mea9efff1be" y="263.478272"/>
     <use style="fill:#9a2667;stroke:#9a2667;" x="360.255147" xlink:href="#mea9efff1be" y="217.402277"/>
     <use style="fill:#9a2667;stroke:#9a2667;" x="404.614485" xlink:href="#mea9efff1be" y="143.425143"/>
     <use style="fill:#9a2667;stroke:#9a2667;" x="438.171029" xlink:href="#mea9efff1be" y="108.729576"/>
     <use style="fill:#9a2667;stroke:#9a2667;" x="471.727573" xlink:href="#mea9efff1be" y="84.201235"/>
     <use style="fill:#9a2667;stroke:#9a2667;" x="516.086912" xlink:href="#mea9efff1be" y="83.85219"/>
     <use style="fill:#9a2667;stroke:#9a2667;" x="549.643456" xlink:href="#mea9efff1be" y="73.4328"/>
    </g>
   </g>
   <g id="line2d_68">
    <g clip-path="url(#pd462b9c8fe)">
     <use style="fill:#9a2667;stroke:#9a2667;" x="-1" xlink:href="#mea9efff1be" y="381.986366"/>
     <use style="fill:#9a2667;stroke:#9a2667;" x="181.669632" xlink:href="#mea9efff1be" y="381.973122"/>
     <use style="fill:#9a2667;stroke:#9a2667;" x="215.226176" xlink:href="#mea9efff1be" y="374.115271"/>
     <use style="fill:#9a2667;stroke:#9a2667;" x="248.78272" xlink:href="#mea9efff1be" y="357.419894"/>
     <use style="fill:#9a2667;stroke:#9a2667;" x="293.142059" xlink:href="#mea9efff1be" y="316.34663"/>
     <use style="fill:#9a2667;stroke:#9a2667;" x="326.698603" xlink:href="#mea9efff1be" y="265.452134"/>
     <use style="fill:#9a2667;stroke:#9a2667;" x="360.255147" xlink:href="#mea9efff1be" y="209.605559"/>
     <use style="fill:#9a2667;stroke:#9a2667;" x="404.614485" xlink:href="#mea9efff1be" y="140.265742"/>
     <use style="fill:#9a2667;stroke:#9a2667;" x="438.171029" xlink:href="#mea9efff1be" y="105.169789"/>
     <use style="fill:#9a2667;stroke:#9a2667;" x="471.727573" xlink:href="#mea9efff1be" y="81.340788"/>
     <use style="fill:#9a2667;stroke:#9a2667;" x="516.086912" xlink:href="#mea9efff1be" y="84.35345"/>
     <use style="fill:#9a2667;stroke:#9a2667;" x="549.643456" xlink:href="#mea9efff1be" y="76.773791"/>
    </g>
   </g>
   <g id="patch_3">
    <path d="M 81 421.6464 
L 81 56.8512 
" style="fill:none;stroke:#000000;stroke-linecap:square;stroke-linejoin:miter;stroke-width:0.8;"/>
   </g>
   <g id="patch_4">
    <path d="M 81 421.6464 
L 583.2 421.6464 
" style="fill:none;stroke:#000000;stroke-linecap:square;stroke-linejoin:miter;stroke-width:0.8;"/>
   </g>
   <g id="text_17">
    <!-- Response of CamR mutants to fenchol -->
    <defs>
     <path d="M 44.390625 34.1875 
Q 47.5625 33.109375 50.5625 29.59375 
Q 53.5625 26.078125 56.59375 19.921875 
L 66.609375 0 
L 56 0 
L 46.6875 18.703125 
Q 43.0625 26.03125 39.671875 28.421875 
Q 36.28125 30.8125 30.421875 30.8125 
L 19.671875 30.8125 
L 19.671875 0 
L 9.8125 0 
L 9.8125 72.90625 
L 32.078125 72.90625 
Q 44.578125 72.90625 50.734375 67.671875 
Q 56.890625 62.453125 56.890625 51.90625 
Q 56.890625 45.015625 53.6875 40.46875 
Q 50.484375 35.9375 44.390625 34.1875 
z
M 19.671875 64.796875 
L 19.671875 38.921875 
L 32.078125 38.921875 
Q 39.203125 38.921875 42.84375 42.21875 
Q 46.484375 45.515625 46.484375 51.90625 
Q 46.484375 58.296875 42.84375 61.546875 
Q 39.203125 64.796875 32.078125 64.796875 
z
" id="DejaVuSans-82"/>
     <path d="M 44.28125 53.078125 
L 44.28125 44.578125 
Q 40.484375 46.53125 36.375 47.5 
Q 32.28125 48.484375 27.875 48.484375 
Q 21.1875 48.484375 17.84375 46.4375 
Q 14.5 44.390625 14.5 40.28125 
Q 14.5 37.15625 16.890625 35.375 
Q 19.28125 33.59375 26.515625 31.984375 
L 29.59375 31.296875 
Q 39.15625 29.25 43.1875 25.515625 
Q 47.21875 21.78125 47.21875 15.09375 
Q 47.21875 7.46875 41.1875 3.015625 
Q 35.15625 -1.421875 24.609375 -1.421875 
Q 20.21875 -1.421875 15.453125 -0.5625 
Q 10.6875 0.296875 5.421875 2 
L 5.421875 11.28125 
Q 10.40625 8.6875 15.234375 7.390625 
Q 20.0625 6.109375 24.8125 6.109375 
Q 31.15625 6.109375 34.5625 8.28125 
Q 37.984375 10.453125 37.984375 14.40625 
Q 37.984375 18.0625 35.515625 20.015625 
Q 33.0625 21.96875 24.703125 23.78125 
L 21.578125 24.515625 
Q 13.234375 26.265625 9.515625 29.90625 
Q 5.8125 33.546875 5.8125 39.890625 
Q 5.8125 47.609375 11.28125 51.796875 
Q 16.75 56 26.8125 56 
Q 31.78125 56 36.171875 55.265625 
Q 40.578125 54.546875 44.28125 53.078125 
z
" id="DejaVuSans-115"/>
     <path d="M 18.109375 8.203125 
L 18.109375 -20.796875 
L 9.078125 -20.796875 
L 9.078125 54.6875 
L 18.109375 54.6875 
L 18.109375 46.390625 
Q 20.953125 51.265625 25.265625 53.625 
Q 29.59375 56 35.59375 56 
Q 45.5625 56 51.78125 48.09375 
Q 58.015625 40.1875 58.015625 27.296875 
Q 58.015625 14.40625 51.78125 6.484375 
Q 45.5625 -1.421875 35.59375 -1.421875 
Q 29.59375 -1.421875 25.265625 0.953125 
Q 20.953125 3.328125 18.109375 8.203125 
z
M 48.6875 27.296875 
Q 48.6875 37.203125 44.609375 42.84375 
Q 40.53125 48.484375 33.40625 48.484375 
Q 26.265625 48.484375 22.1875 42.84375 
Q 18.109375 37.203125 18.109375 27.296875 
Q 18.109375 17.390625 22.1875 11.75 
Q 26.265625 6.109375 33.40625 6.109375 
Q 40.53125 6.109375 44.609375 11.75 
Q 48.6875 17.390625 48.6875 27.296875 
z
" id="DejaVuSans-112"/>
     <path d="M 37.109375 75.984375 
L 37.109375 68.5 
L 28.515625 68.5 
Q 23.6875 68.5 21.796875 66.546875 
Q 19.921875 64.59375 19.921875 59.515625 
L 19.921875 54.6875 
L 34.71875 54.6875 
L 34.71875 47.703125 
L 19.921875 47.703125 
L 19.921875 0 
L 10.890625 0 
L 10.890625 47.703125 
L 2.296875 47.703125 
L 2.296875 54.6875 
L 10.890625 54.6875 
L 10.890625 58.5 
Q 10.890625 67.625 15.140625 71.796875 
Q 19.390625 75.984375 28.609375 75.984375 
z
" id="DejaVuSans-102"/>
     <path d="M 64.40625 67.28125 
L 64.40625 56.890625 
Q 59.421875 61.53125 53.78125 63.8125 
Q 48.140625 66.109375 41.796875 66.109375 
Q 29.296875 66.109375 22.65625 58.46875 
Q 16.015625 50.828125 16.015625 36.375 
Q 16.015625 21.96875 22.65625 14.328125 
Q 29.296875 6.6875 41.796875 6.6875 
Q 48.140625 6.6875 53.78125 8.984375 
Q 59.421875 11.28125 64.40625 15.921875 
L 64.40625 5.609375 
Q 59.234375 2.09375 53.4375 0.328125 
Q 47.65625 -1.421875 41.21875 -1.421875 
Q 24.65625 -1.421875 15.125 8.703125 
Q 5.609375 18.84375 5.609375 36.375 
Q 5.609375 53.953125 15.125 64.078125 
Q 24.65625 74.21875 41.21875 74.21875 
Q 47.75 74.21875 53.53125 72.484375 
Q 59.328125 70.75 64.40625 67.28125 
z
" id="DejaVuSans-67"/>
     <path d="M 34.28125 27.484375 
Q 23.390625 27.484375 19.1875 25 
Q 14.984375 22.515625 14.984375 16.5 
Q 14.984375 11.71875 18.140625 8.90625 
Q 21.296875 6.109375 26.703125 6.109375 
Q 34.1875 6.109375 38.703125 11.40625 
Q 43.21875 16.703125 43.21875 25.484375 
L 43.21875 27.484375 
z
M 52.203125 31.203125 
L 52.203125 0 
L 43.21875 0 
L 43.21875 8.296875 
Q 40.140625 3.328125 35.546875 0.953125 
Q 30.953125 -1.421875 24.3125 -1.421875 
Q 15.921875 -1.421875 10.953125 3.296875 
Q 6 8.015625 6 15.921875 
Q 6 25.140625 12.171875 29.828125 
Q 18.359375 34.515625 30.609375 34.515625 
L 43.21875 34.515625 
L 43.21875 35.40625 
Q 43.21875 41.609375 39.140625 45 
Q 35.0625 48.390625 27.6875 48.390625 
Q 23 48.390625 18.546875 47.265625 
Q 14.109375 46.140625 10.015625 43.890625 
L 10.015625 52.203125 
Q 14.9375 54.109375 19.578125 55.046875 
Q 24.21875 56 28.609375 56 
Q 40.484375 56 46.34375 49.84375 
Q 52.203125 43.703125 52.203125 31.203125 
z
" id="DejaVuSans-97"/>
     <path d="M 52 44.1875 
Q 55.375 50.25 60.0625 53.125 
Q 64.75 56 71.09375 56 
Q 79.640625 56 84.28125 50.015625 
Q 88.921875 44.046875 88.921875 33.015625 
L 88.921875 0 
L 79.890625 0 
L 79.890625 32.71875 
Q 79.890625 40.578125 77.09375 44.375 
Q 74.3125 48.1875 68.609375 48.1875 
Q 61.625 48.1875 57.5625 43.546875 
Q 53.515625 38.921875 53.515625 30.90625 
L 53.515625 0 
L 44.484375 0 
L 44.484375 32.71875 
Q 44.484375 40.625 41.703125 44.40625 
Q 38.921875 48.1875 33.109375 48.1875 
Q 26.21875 48.1875 22.15625 43.53125 
Q 18.109375 38.875 18.109375 30.90625 
L 18.109375 0 
L 9.078125 0 
L 9.078125 54.6875 
L 18.109375 54.6875 
L 18.109375 46.1875 
Q 21.1875 51.21875 25.484375 53.609375 
Q 29.78125 56 35.6875 56 
Q 41.65625 56 45.828125 52.96875 
Q 50 49.953125 52 44.1875 
z
" id="DejaVuSans-109"/>
     <path d="M 18.3125 70.21875 
L 18.3125 54.6875 
L 36.8125 54.6875 
L 36.8125 47.703125 
L 18.3125 47.703125 
L 18.3125 18.015625 
Q 18.3125 11.328125 20.140625 9.421875 
Q 21.96875 7.515625 27.59375 7.515625 
L 36.8125 7.515625 
L 36.8125 0 
L 27.59375 0 
Q 17.1875 0 13.234375 3.875 
Q 9.28125 7.765625 9.28125 18.015625 
L 9.28125 47.703125 
L 2.6875 47.703125 
L 2.6875 54.6875 
L 9.28125 54.6875 
L 9.28125 70.21875 
z
" id="DejaVuSans-116"/>
    </defs>
    <g transform="translate(120.704063 50.8512)scale(0.22 -0.22)">
     <use xlink:href="#DejaVuSans-82"/>
     <use x="69.419922" xlink:href="#DejaVuSans-101"/>
     <use x="130.943359" xlink:href="#DejaVuSans-115"/>
     <use x="183.042969" xlink:href="#DejaVuSans-112"/>
     <use x="246.519531" xlink:href="#DejaVuSans-111"/>
     <use x="307.701172" xlink:href="#DejaVuSans-110"/>
     <use x="371.080078" xlink:href="#DejaVuSans-115"/>
     <use x="423.179688" xlink:href="#DejaVuSans-101"/>
     <use x="484.703125" xlink:href="#DejaVuSans-32"/>
     <use x="516.490234" xlink:href="#DejaVuSans-111"/>
     <use x="577.671875" xlink:href="#DejaVuSans-102"/>
     <use x="612.876953" xlink:href="#DejaVuSans-32"/>
     <use x="644.664062" xlink:href="#DejaVuSans-67"/>
     <use x="714.488281" xlink:href="#DejaVuSans-97"/>
     <use x="775.767578" xlink:href="#DejaVuSans-109"/>
     <use x="873.179688" xlink:href="#DejaVuSans-82"/>
     <use x="942.662109" xlink:href="#DejaVuSans-32"/>
     <use x="974.449219" xlink:href="#DejaVuSans-109"/>
     <use x="1071.861328" xlink:href="#DejaVuSans-117"/>
     <use x="1135.240234" xlink:href="#DejaVuSans-116"/>
     <use x="1174.449219" xlink:href="#DejaVuSans-97"/>
     <use x="1235.728516" xlink:href="#DejaVuSans-110"/>
     <use x="1299.107422" xlink:href="#DejaVuSans-116"/>
     <use x="1338.316406" xlink:href="#DejaVuSans-115"/>
     <use x="1390.416016" xlink:href="#DejaVuSans-32"/>
     <use x="1422.203125" xlink:href="#DejaVuSans-116"/>
     <use x="1461.412109" xlink:href="#DejaVuSans-111"/>
     <use x="1522.59375" xlink:href="#DejaVuSans-32"/>
     <use x="1554.380859" xlink:href="#DejaVuSans-102"/>
     <use x="1589.585938" xlink:href="#DejaVuSans-101"/>
     <use x="1651.109375" xlink:href="#DejaVuSans-110"/>
     <use x="1714.488281" xlink:href="#DejaVuSans-99"/>
     <use x="1769.46875" xlink:href="#DejaVuSans-104"/>
     <use x="1832.847656" xlink:href="#DejaVuSans-111"/>
     <use x="1894.029297" xlink:href="#DejaVuSans-108"/>
    </g>
   </g>
   <g id="legend_1">
    <g id="patch_5">
     <path d="M 91.5 155.279325 
L 177.307031 155.279325 
Q 180.307031 155.279325 180.307031 152.279325 
L 180.307031 67.3512 
Q 180.307031 64.3512 177.307031 64.3512 
L 91.5 64.3512 
Q 88.5 64.3512 88.5 67.3512 
L 88.5 152.279325 
Q 88.5 155.279325 91.5 155.279325 
z
" style="fill:#ffffff;opacity:0.8;stroke:#cccccc;stroke-linejoin:miter;"/>
    </g>
    <g id="line2d_69">
     <path d="M 94.5 76.205887 
L 124.5 76.205887 
" style="fill:none;stroke:#0099ff;stroke-linecap:square;stroke-width:1.5;"/>
    </g>
    <g id="line2d_70"/>
    <g id="text_18">
     <!-- WT -->
     <defs>
      <path d="M 75.296875 0 
L 64.9375 0 
L 47.859375 60.84375 
L 31.25 0 
L 20.90625 0 
L 1.953125 74.03125 
L 12.5 74.03125 
L 26.46875 13.875 
L 42.875 74.03125 
L 53.03125 74.03125 
L 69.921875 13.875 
L 83.5 74.03125 
L 94.046875 74.03125 
z
" id="Gargi-87"/>
      <path d="M 38.671875 65.71875 
L 38.671875 0 
L 29.203125 0 
L 29.203125 65.71875 
L 4.890625 65.71875 
L 4.890625 74.03125 
L 62.984375 74.03125 
L 62.984375 65.71875 
z
" id="Gargi-84"/>
     </defs>
     <g transform="translate(136.5 81.455887)scale(0.15 -0.15)">
      <use xlink:href="#Gargi-87"/>
      <use x="95.996094" xlink:href="#Gargi-84"/>
     </g>
    </g>
    <g id="line2d_71">
     <path d="M 94.5 97.812919 
L 124.5 97.812919 
" style="fill:none;stroke:#3372cc;stroke-linecap:square;stroke-width:1.5;"/>
    </g>
    <g id="line2d_72"/>
    <g id="text_19">
     <!-- FEN1 -->
     <defs>
      <path d="M 14.265625 33.6875 
L 14.265625 0 
L 4.890625 0 
L 4.890625 74.03125 
L 54.5 74.03125 
L 54.5 65.71875 
L 14.265625 65.71875 
L 14.265625 42.09375 
L 49.609375 42.09375 
L 49.609375 33.6875 
z
" id="Gargi-70"/>
      <path d="M 14.265625 33.6875 
L 14.265625 8.296875 
L 58.015625 8.296875 
L 58.015625 0 
L 4.890625 0 
L 4.890625 74.03125 
L 56.15625 74.03125 
L 56.15625 65.71875 
L 14.265625 65.71875 
L 14.265625 42.09375 
L 54.59375 42.09375 
L 54.59375 33.6875 
z
" id="Gargi-69"/>
      <path d="M 62.796875 74.03125 
L 62.796875 0 
L 52.15625 0 
L 13.875 60.0625 
L 13.875 0 
L 4.890625 0 
L 4.890625 74.03125 
L 15.140625 74.03125 
L 53.8125 13.484375 
L 53.8125 74.03125 
z
" id="Gargi-78"/>
      <path d="M 22.75 51.265625 
L 6.84375 51.265625 
L 6.84375 57.71875 
Q 17.1875 58.984375 20.21875 61.328125 
Q 23.34375 63.578125 25.390625 70.796875 
L 25.875 71.96875 
L 31.734375 71.96875 
L 31.734375 0 
L 22.75 0 
z
" id="Gargi-49"/>
     </defs>
     <g transform="translate(136.5 103.062919)scale(0.15 -0.15)">
      <use xlink:href="#Gargi-70"/>
      <use x="59.375" xlink:href="#Gargi-69"/>
      <use x="122.265625" xlink:href="#Gargi-78"/>
      <use x="189.941406" xlink:href="#Gargi-49"/>
     </g>
    </g>
    <g id="line2d_73">
     <path d="M 94.5 119.41995 
L 124.5 119.41995 
" style="fill:none;stroke:#674c9a;stroke-linecap:square;stroke-width:1.5;"/>
    </g>
    <g id="line2d_74"/>
    <g id="text_20">
     <!-- FEN2 -->
     <defs>
      <path d="M 54.78125 8.796875 
L 54.78125 0 
L 6.84375 0 
Q 6.84375 12.984375 12.703125 19.828125 
Q 17.96875 25.984375 27.046875 31.15625 
L 36.421875 36.421875 
Q 46.1875 42.09375 46.1875 50.6875 
Q 46.1875 58.015625 40.046875 61.921875 
Q 36.53125 64.15625 31.9375 64.15625 
Q 24.3125 64.15625 20.3125 58.40625 
L 19.53125 57.234375 
Q 17.484375 53.90625 17.484375 47.078125 
L 8.5 47.078125 
Q 8.5 57.234375 12.40625 62.703125 
Q 19.046875 71.96875 32.234375 71.96875 
Q 42.28125 71.96875 48.640625 66.3125 
Q 55.28125 60.25 55.28125 50.875 
Q 55.28125 37.5 40.046875 29.109375 
L 29.890625 23.640625 
Q 20.703125 18.265625 18.265625 13.28125 
Q 17.28125 11.234375 16.890625 8.796875 
z
" id="Gargi-50"/>
     </defs>
     <g transform="translate(136.5 124.66995)scale(0.15 -0.15)">
      <use xlink:href="#Gargi-70"/>
      <use x="59.375" xlink:href="#Gargi-69"/>
      <use x="122.265625" xlink:href="#Gargi-78"/>
      <use x="189.941406" xlink:href="#Gargi-50"/>
     </g>
    </g>
    <g id="line2d_75">
     <path d="M 94.5 141.026981 
L 124.5 141.026981 
" style="fill:none;stroke:#9a2667;stroke-linecap:square;stroke-width:1.5;"/>
    </g>
    <g id="line2d_76"/>
    <g id="text_21">
     <!-- FEN3 -->
     <defs>
      <path d="M 26.078125 35.25 
L 26.078125 42.78125 
Q 34.578125 42.78125 37.984375 44.34375 
Q 43.75 46.96875 43.75 54 
Q 43.75 62.703125 36.625 65.4375 
Q 34.1875 66.3125 31.0625 66.3125 
Q 23.046875 66.3125 19.4375 60.84375 
Q 19.140625 60.359375 18.953125 59.96875 
Q 17.28125 57.03125 17.28125 50.875 
L 8.40625 50.875 
Q 8.40625 74.03125 27.640625 74.03125 
Q 28.71875 74.03125 30.953125 74.125 
Q 31.734375 74.125 32.421875 74.125 
Q 44.734375 74.125 50.390625 64.65625 
Q 52.828125 60.453125 52.828125 54.390625 
Q 52.828125 43.359375 42.78125 39.453125 
Q 52.25 36.140625 54.296875 28.421875 
Q 54.984375 25.78125 54.984375 22.265625 
Q 54.984375 9.859375 45.40625 3.71875 
Q 39.265625 -0.203125 30.671875 -0.203125 
Q 15.625 -0.203125 10.0625 10.25 
Q 6.84375 15.140625 6.84375 23.046875 
L 15.828125 23.046875 
Q 15.828125 9.671875 27.25 8.015625 
Q 29.296875 7.71875 30.953125 7.71875 
Q 41.5 7.71875 44.734375 15.71875 
Q 45.90625 18.5625 45.90625 22.171875 
Q 45.90625 35.25 30.953125 35.25 
L 27.15625 35.25 
z
" id="Gargi-51"/>
     </defs>
     <g transform="translate(136.5 146.276981)scale(0.15 -0.15)">
      <use xlink:href="#Gargi-70"/>
      <use x="59.375" xlink:href="#Gargi-69"/>
      <use x="122.265625" xlink:href="#Gargi-78"/>
      <use x="189.941406" xlink:href="#Gargi-51"/>
     </g>
    </g>
   </g>
  </g>
 </g>
 <defs>
  <clipPath id="pd462b9c8fe">
   <rect height="364.7952" width="502.2" x="81" y="56.8512"/>
  </clipPath>
 </defs>
</svg>
