<?xml version="1.0" encoding="utf-8" standalone="no"?>
<!DOCTYPE svg PUBLIC "-//W3C//DTD SVG 1.1//EN"
  "http://www.w3.org/Graphics/SVG/1.1/DTD/svg11.dtd">
<!-- Created with matplotlib (https://matplotlib.org/) -->
<svg height="473.76pt" version="1.1" viewBox="0 0 648 473.76" width="648pt" xmlns="http://www.w3.org/2000/svg" xmlns:xlink="http://www.w3.org/1999/xlink">
 <defs>
  <style type="text/css">
*{stroke-linecap:butt;stroke-linejoin:round;}
  </style>
 </defs>
 <g id="figure_1">
  <g id="patch_1">
   <path d="M 0 473.76 
L 648 473.76 
L 648 0 
L 0 0 
z
" style="fill:#ffffff;"/>
  </g>
  <g id="axes_1">
   <g id="patch_2">
    <path d="M 81 421.6464 
L 583.2 421.6464 
L 583.2 56.8512 
L 81 56.8512 
z
" style="fill:#ffffff;"/>
   </g>
   <g id="matplotlib.axis_1">
    <g id="xtick_1">
     <g id="line2d_1">
      <defs>
       <path d="M 0 0 
L 0 2 
" id="mf8ae351cd2" style="stroke:#000000;"/>
      </defs>
      <g>
       <use style="stroke:#000000;" x="179.549735" xlink:href="#mf8ae351cd2" y="421.6464"/>
      </g>
     </g>
     <g id="text_1">
      <!-- 0.1 -->
      <defs>
       <path d="M 31.78125 66.40625 
Q 24.171875 66.40625 20.328125 58.90625 
Q 16.5 51.421875 16.5 36.375 
Q 16.5 21.390625 20.328125 13.890625 
Q 24.171875 6.390625 31.78125 6.390625 
Q 39.453125 6.390625 43.28125 13.890625 
Q 47.125 21.390625 47.125 36.375 
Q 47.125 51.421875 43.28125 58.90625 
Q 39.453125 66.40625 31.78125 66.40625 
z
M 31.78125 74.21875 
Q 44.046875 74.21875 50.515625 64.515625 
Q 56.984375 54.828125 56.984375 36.375 
Q 56.984375 17.96875 50.515625 8.265625 
Q 44.046875 -1.421875 31.78125 -1.421875 
Q 19.53125 -1.421875 13.0625 8.265625 
Q 6.59375 17.96875 6.59375 36.375 
Q 6.59375 54.828125 13.0625 64.515625 
Q 19.53125 74.21875 31.78125 74.21875 
z
" id="DejaVuSans-48"/>
       <path d="M 10.6875 12.40625 
L 21 12.40625 
L 21 0 
L 10.6875 0 
z
" id="DejaVuSans-46"/>
       <path d="M 12.40625 8.296875 
L 28.515625 8.296875 
L 28.515625 63.921875 
L 10.984375 60.40625 
L 10.984375 69.390625 
L 28.421875 72.90625 
L 38.28125 72.90625 
L 38.28125 8.296875 
L 54.390625 8.296875 
L 54.390625 0 
L 12.40625 0 
z
" id="DejaVuSans-49"/>
      </defs>
      <g transform="translate(165.236922 440.823588)scale(0.18 -0.18)">
       <use xlink:href="#DejaVuSans-48"/>
       <use x="63.623047" xlink:href="#DejaVuSans-46"/>
       <use x="95.410156" xlink:href="#DejaVuSans-49"/>
      </g>
     </g>
    </g>
    <g id="xtick_2">
     <g id="line2d_2">
      <g>
       <use style="stroke:#000000;" x="288.674779" xlink:href="#mf8ae351cd2" y="421.6464"/>
      </g>
     </g>
     <g id="text_2">
      <!-- 1.0 -->
      <g transform="translate(274.361966 440.823588)scale(0.18 -0.18)">
       <use xlink:href="#DejaVuSans-49"/>
       <use x="63.623047" xlink:href="#DejaVuSans-46"/>
       <use x="95.410156" xlink:href="#DejaVuSans-48"/>
      </g>
     </g>
    </g>
    <g id="xtick_3">
     <g id="line2d_3">
      <g>
       <use style="stroke:#000000;" x="397.799823" xlink:href="#mf8ae351cd2" y="421.6464"/>
      </g>
     </g>
     <g id="text_3">
      <!-- 10.0 -->
      <g transform="translate(377.760761 440.823588)scale(0.18 -0.18)">
       <use xlink:href="#DejaVuSans-49"/>
       <use x="63.623047" xlink:href="#DejaVuSans-48"/>
       <use x="127.246094" xlink:href="#DejaVuSans-46"/>
       <use x="159.033203" xlink:href="#DejaVuSans-48"/>
      </g>
     </g>
    </g>
    <g id="xtick_4">
     <g id="line2d_4">
      <g>
       <use style="stroke:#000000;" x="506.924867" xlink:href="#mf8ae351cd2" y="421.6464"/>
      </g>
     </g>
     <g id="text_4">
      <!-- 100.0 -->
      <g transform="translate(481.159555 440.823588)scale(0.18 -0.18)">
       <use xlink:href="#DejaVuSans-49"/>
       <use x="63.623047" xlink:href="#DejaVuSans-48"/>
       <use x="127.246094" xlink:href="#DejaVuSans-48"/>
       <use x="190.869141" xlink:href="#DejaVuSans-46"/>
       <use x="222.65625" xlink:href="#DejaVuSans-48"/>
      </g>
     </g>
    </g>
    <g id="xtick_5">
     <g id="line2d_5">
      <defs>
       <path d="M 0 0 
L 0 2 
" id="m728b32c0c8" style="stroke:#000000;stroke-width:0.6;"/>
      </defs>
      <g>
       <use style="stroke:#000000;stroke-width:0.6;" x="103.274602" xlink:href="#m728b32c0c8" y="421.6464"/>
      </g>
     </g>
    </g>
    <g id="xtick_6">
     <g id="line2d_6">
      <g>
       <use style="stroke:#000000;stroke-width:0.6;" x="122.490569" xlink:href="#m728b32c0c8" y="421.6464"/>
      </g>
     </g>
    </g>
    <g id="xtick_7">
     <g id="line2d_7">
      <g>
       <use style="stroke:#000000;stroke-width:0.6;" x="136.124514" xlink:href="#m728b32c0c8" y="421.6464"/>
      </g>
     </g>
    </g>
    <g id="xtick_8">
     <g id="line2d_8">
      <g>
       <use style="stroke:#000000;stroke-width:0.6;" x="146.699823" xlink:href="#m728b32c0c8" y="421.6464"/>
      </g>
     </g>
    </g>
    <g id="xtick_9">
     <g id="line2d_9">
      <g>
       <use style="stroke:#000000;stroke-width:0.6;" x="155.34048" xlink:href="#m728b32c0c8" y="421.6464"/>
      </g>
     </g>
    </g>
    <g id="xtick_10">
     <g id="line2d_10">
      <g>
       <use style="stroke:#000000;stroke-width:0.6;" x="162.646052" xlink:href="#m728b32c0c8" y="421.6464"/>
      </g>
     </g>
    </g>
    <g id="xtick_11">
     <g id="line2d_11">
      <g>
       <use style="stroke:#000000;stroke-width:0.6;" x="168.974425" xlink:href="#m728b32c0c8" y="421.6464"/>
      </g>
     </g>
    </g>
    <g id="xtick_12">
     <g id="line2d_12">
      <g>
       <use style="stroke:#000000;stroke-width:0.6;" x="174.556447" xlink:href="#m728b32c0c8" y="421.6464"/>
      </g>
     </g>
    </g>
    <g id="xtick_13">
     <g id="line2d_13">
      <g>
       <use style="stroke:#000000;stroke-width:0.6;" x="212.399646" xlink:href="#m728b32c0c8" y="421.6464"/>
      </g>
     </g>
    </g>
    <g id="xtick_14">
     <g id="line2d_14">
      <g>
       <use style="stroke:#000000;stroke-width:0.6;" x="231.615613" xlink:href="#m728b32c0c8" y="421.6464"/>
      </g>
     </g>
    </g>
    <g id="xtick_15">
     <g id="line2d_15">
      <g>
       <use style="stroke:#000000;stroke-width:0.6;" x="245.249558" xlink:href="#m728b32c0c8" y="421.6464"/>
      </g>
     </g>
    </g>
    <g id="xtick_16">
     <g id="line2d_16">
      <g>
       <use style="stroke:#000000;stroke-width:0.6;" x="255.824867" xlink:href="#m728b32c0c8" y="421.6464"/>
      </g>
     </g>
    </g>
    <g id="xtick_17">
     <g id="line2d_17">
      <g>
       <use style="stroke:#000000;stroke-width:0.6;" x="264.465524" xlink:href="#m728b32c0c8" y="421.6464"/>
      </g>
     </g>
    </g>
    <g id="xtick_18">
     <g id="line2d_18">
      <g>
       <use style="stroke:#000000;stroke-width:0.6;" x="271.771096" xlink:href="#m728b32c0c8" y="421.6464"/>
      </g>
     </g>
    </g>
    <g id="xtick_19">
     <g id="line2d_19">
      <g>
       <use style="stroke:#000000;stroke-width:0.6;" x="278.09947" xlink:href="#m728b32c0c8" y="421.6464"/>
      </g>
     </g>
    </g>
    <g id="xtick_20">
     <g id="line2d_20">
      <g>
       <use style="stroke:#000000;stroke-width:0.6;" x="283.681491" xlink:href="#m728b32c0c8" y="421.6464"/>
      </g>
     </g>
    </g>
    <g id="xtick_21">
     <g id="line2d_21">
      <g>
       <use style="stroke:#000000;stroke-width:0.6;" x="321.524691" xlink:href="#m728b32c0c8" y="421.6464"/>
      </g>
     </g>
    </g>
    <g id="xtick_22">
     <g id="line2d_22">
      <g>
       <use style="stroke:#000000;stroke-width:0.6;" x="340.740657" xlink:href="#m728b32c0c8" y="421.6464"/>
      </g>
     </g>
    </g>
    <g id="xtick_23">
     <g id="line2d_23">
      <g>
       <use style="stroke:#000000;stroke-width:0.6;" x="354.374602" xlink:href="#m728b32c0c8" y="421.6464"/>
      </g>
     </g>
    </g>
    <g id="xtick_24">
     <g id="line2d_24">
      <g>
       <use style="stroke:#000000;stroke-width:0.6;" x="364.949912" xlink:href="#m728b32c0c8" y="421.6464"/>
      </g>
     </g>
    </g>
    <g id="xtick_25">
     <g id="line2d_25">
      <g>
       <use style="stroke:#000000;stroke-width:0.6;" x="373.590569" xlink:href="#m728b32c0c8" y="421.6464"/>
      </g>
     </g>
    </g>
    <g id="xtick_26">
     <g id="line2d_26">
      <g>
       <use style="stroke:#000000;stroke-width:0.6;" x="380.89614" xlink:href="#m728b32c0c8" y="421.6464"/>
      </g>
     </g>
    </g>
    <g id="xtick_27">
     <g id="line2d_27">
      <g>
       <use style="stroke:#000000;stroke-width:0.6;" x="387.224514" xlink:href="#m728b32c0c8" y="421.6464"/>
      </g>
     </g>
    </g>
    <g id="xtick_28">
     <g id="line2d_28">
      <g>
       <use style="stroke:#000000;stroke-width:0.6;" x="392.806535" xlink:href="#m728b32c0c8" y="421.6464"/>
      </g>
     </g>
    </g>
    <g id="xtick_29">
     <g id="line2d_29">
      <g>
       <use style="stroke:#000000;stroke-width:0.6;" x="430.649735" xlink:href="#m728b32c0c8" y="421.6464"/>
      </g>
     </g>
    </g>
    <g id="xtick_30">
     <g id="line2d_30">
      <g>
       <use style="stroke:#000000;stroke-width:0.6;" x="449.865701" xlink:href="#m728b32c0c8" y="421.6464"/>
      </g>
     </g>
    </g>
    <g id="xtick_31">
     <g id="line2d_31">
      <g>
       <use style="stroke:#000000;stroke-width:0.6;" x="463.499646" xlink:href="#m728b32c0c8" y="421.6464"/>
      </g>
     </g>
    </g>
    <g id="xtick_32">
     <g id="line2d_32">
      <g>
       <use style="stroke:#000000;stroke-width:0.6;" x="474.074956" xlink:href="#m728b32c0c8" y="421.6464"/>
      </g>
     </g>
    </g>
    <g id="xtick_33">
     <g id="line2d_33">
      <g>
       <use style="stroke:#000000;stroke-width:0.6;" x="482.715613" xlink:href="#m728b32c0c8" y="421.6464"/>
      </g>
     </g>
    </g>
    <g id="xtick_34">
     <g id="line2d_34">
      <g>
       <use style="stroke:#000000;stroke-width:0.6;" x="490.021184" xlink:href="#m728b32c0c8" y="421.6464"/>
      </g>
     </g>
    </g>
    <g id="xtick_35">
     <g id="line2d_35">
      <g>
       <use style="stroke:#000000;stroke-width:0.6;" x="496.349558" xlink:href="#m728b32c0c8" y="421.6464"/>
      </g>
     </g>
    </g>
    <g id="xtick_36">
     <g id="line2d_36">
      <g>
       <use style="stroke:#000000;stroke-width:0.6;" x="501.931579" xlink:href="#m728b32c0c8" y="421.6464"/>
      </g>
     </g>
    </g>
    <g id="xtick_37">
     <g id="line2d_37">
      <g>
       <use style="stroke:#000000;stroke-width:0.6;" x="539.774779" xlink:href="#m728b32c0c8" y="421.6464"/>
      </g>
     </g>
    </g>
    <g id="xtick_38">
     <g id="line2d_38">
      <g>
       <use style="stroke:#000000;stroke-width:0.6;" x="558.990745" xlink:href="#m728b32c0c8" y="421.6464"/>
      </g>
     </g>
    </g>
    <g id="xtick_39">
     <g id="line2d_39">
      <g>
       <use style="stroke:#000000;stroke-width:0.6;" x="572.624691" xlink:href="#m728b32c0c8" y="421.6464"/>
      </g>
     </g>
    </g>
    <g id="xtick_40">
     <g id="line2d_40">
      <g>
       <use style="stroke:#000000;stroke-width:0.6;" x="583.2" xlink:href="#m728b32c0c8" y="421.6464"/>
      </g>
     </g>
    </g>
    <g id="text_5">
     <!-- Glaucine (uM) -->
     <defs>
      <path d="M 59.515625 10.40625 
L 59.515625 29.984375 
L 43.40625 29.984375 
L 43.40625 38.09375 
L 69.28125 38.09375 
L 69.28125 6.78125 
Q 63.578125 2.734375 56.6875 0.65625 
Q 49.8125 -1.421875 42 -1.421875 
Q 24.90625 -1.421875 15.25 8.5625 
Q 5.609375 18.5625 5.609375 36.375 
Q 5.609375 54.25 15.25 64.234375 
Q 24.90625 74.21875 42 74.21875 
Q 49.125 74.21875 55.546875 72.453125 
Q 61.96875 70.703125 67.390625 67.28125 
L 67.390625 56.78125 
Q 61.921875 61.421875 55.765625 63.765625 
Q 49.609375 66.109375 42.828125 66.109375 
Q 29.4375 66.109375 22.71875 58.640625 
Q 16.015625 51.171875 16.015625 36.375 
Q 16.015625 21.625 22.71875 14.15625 
Q 29.4375 6.6875 42.828125 6.6875 
Q 48.046875 6.6875 52.140625 7.59375 
Q 56.25 8.5 59.515625 10.40625 
z
" id="DejaVuSans-71"/>
      <path d="M 9.421875 75.984375 
L 18.40625 75.984375 
L 18.40625 0 
L 9.421875 0 
z
" id="DejaVuSans-108"/>
      <path d="M 34.28125 27.484375 
Q 23.390625 27.484375 19.1875 25 
Q 14.984375 22.515625 14.984375 16.5 
Q 14.984375 11.71875 18.140625 8.90625 
Q 21.296875 6.109375 26.703125 6.109375 
Q 34.1875 6.109375 38.703125 11.40625 
Q 43.21875 16.703125 43.21875 25.484375 
L 43.21875 27.484375 
z
M 52.203125 31.203125 
L 52.203125 0 
L 43.21875 0 
L 43.21875 8.296875 
Q 40.140625 3.328125 35.546875 0.953125 
Q 30.953125 -1.421875 24.3125 -1.421875 
Q 15.921875 -1.421875 10.953125 3.296875 
Q 6 8.015625 6 15.921875 
Q 6 25.140625 12.171875 29.828125 
Q 18.359375 34.515625 30.609375 34.515625 
L 43.21875 34.515625 
L 43.21875 35.40625 
Q 43.21875 41.609375 39.140625 45 
Q 35.0625 48.390625 27.6875 48.390625 
Q 23 48.390625 18.546875 47.265625 
Q 14.109375 46.140625 10.015625 43.890625 
L 10.015625 52.203125 
Q 14.9375 54.109375 19.578125 55.046875 
Q 24.21875 56 28.609375 56 
Q 40.484375 56 46.34375 49.84375 
Q 52.203125 43.703125 52.203125 31.203125 
z
" id="DejaVuSans-97"/>
      <path d="M 8.5 21.578125 
L 8.5 54.6875 
L 17.484375 54.6875 
L 17.484375 21.921875 
Q 17.484375 14.15625 20.5 10.265625 
Q 23.53125 6.390625 29.59375 6.390625 
Q 36.859375 6.390625 41.078125 11.03125 
Q 45.3125 15.671875 45.3125 23.6875 
L 45.3125 54.6875 
L 54.296875 54.6875 
L 54.296875 0 
L 45.3125 0 
L 45.3125 8.40625 
Q 42.046875 3.421875 37.71875 1 
Q 33.40625 -1.421875 27.6875 -1.421875 
Q 18.265625 -1.421875 13.375 4.4375 
Q 8.5 10.296875 8.5 21.578125 
z
M 31.109375 56 
z
" id="DejaVuSans-117"/>
      <path d="M 48.78125 52.59375 
L 48.78125 44.1875 
Q 44.96875 46.296875 41.140625 47.34375 
Q 37.3125 48.390625 33.40625 48.390625 
Q 24.65625 48.390625 19.8125 42.84375 
Q 14.984375 37.3125 14.984375 27.296875 
Q 14.984375 17.28125 19.8125 11.734375 
Q 24.65625 6.203125 33.40625 6.203125 
Q 37.3125 6.203125 41.140625 7.25 
Q 44.96875 8.296875 48.78125 10.40625 
L 48.78125 2.09375 
Q 45.015625 0.34375 40.984375 -0.53125 
Q 36.96875 -1.421875 32.421875 -1.421875 
Q 20.0625 -1.421875 12.78125 6.34375 
Q 5.515625 14.109375 5.515625 27.296875 
Q 5.515625 40.671875 12.859375 48.328125 
Q 20.21875 56 33.015625 56 
Q 37.15625 56 41.109375 55.140625 
Q 45.0625 54.296875 48.78125 52.59375 
z
" id="DejaVuSans-99"/>
      <path d="M 9.421875 54.6875 
L 18.40625 54.6875 
L 18.40625 0 
L 9.421875 0 
z
M 9.421875 75.984375 
L 18.40625 75.984375 
L 18.40625 64.59375 
L 9.421875 64.59375 
z
" id="DejaVuSans-105"/>
      <path d="M 54.890625 33.015625 
L 54.890625 0 
L 45.90625 0 
L 45.90625 32.71875 
Q 45.90625 40.484375 42.875 44.328125 
Q 39.84375 48.1875 33.796875 48.1875 
Q 26.515625 48.1875 22.3125 43.546875 
Q 18.109375 38.921875 18.109375 30.90625 
L 18.109375 0 
L 9.078125 0 
L 9.078125 54.6875 
L 18.109375 54.6875 
L 18.109375 46.1875 
Q 21.34375 51.125 25.703125 53.5625 
Q 30.078125 56 35.796875 56 
Q 45.21875 56 50.046875 50.171875 
Q 54.890625 44.34375 54.890625 33.015625 
z
" id="DejaVuSans-110"/>
      <path d="M 56.203125 29.59375 
L 56.203125 25.203125 
L 14.890625 25.203125 
Q 15.484375 15.921875 20.484375 11.0625 
Q 25.484375 6.203125 34.421875 6.203125 
Q 39.59375 6.203125 44.453125 7.46875 
Q 49.3125 8.734375 54.109375 11.28125 
L 54.109375 2.78125 
Q 49.265625 0.734375 44.1875 -0.34375 
Q 39.109375 -1.421875 33.890625 -1.421875 
Q 20.796875 -1.421875 13.15625 6.1875 
Q 5.515625 13.8125 5.515625 26.8125 
Q 5.515625 40.234375 12.765625 48.109375 
Q 20.015625 56 32.328125 56 
Q 43.359375 56 49.78125 48.890625 
Q 56.203125 41.796875 56.203125 29.59375 
z
M 47.21875 32.234375 
Q 47.125 39.59375 43.09375 43.984375 
Q 39.0625 48.390625 32.421875 48.390625 
Q 24.90625 48.390625 20.390625 44.140625 
Q 15.875 39.890625 15.1875 32.171875 
z
" id="DejaVuSans-101"/>
      <path id="DejaVuSans-32"/>
      <path d="M 31 75.875 
Q 24.46875 64.65625 21.28125 53.65625 
Q 18.109375 42.671875 18.109375 31.390625 
Q 18.109375 20.125 21.3125 9.0625 
Q 24.515625 -2 31 -13.1875 
L 23.1875 -13.1875 
Q 15.875 -1.703125 12.234375 9.375 
Q 8.59375 20.453125 8.59375 31.390625 
Q 8.59375 42.28125 12.203125 53.3125 
Q 15.828125 64.359375 23.1875 75.875 
z
" id="DejaVuSans-40"/>
      <path d="M 9.8125 72.90625 
L 24.515625 72.90625 
L 43.109375 23.296875 
L 61.8125 72.90625 
L 76.515625 72.90625 
L 76.515625 0 
L 66.890625 0 
L 66.890625 64.015625 
L 48.09375 14.015625 
L 38.1875 14.015625 
L 19.390625 64.015625 
L 19.390625 0 
L 9.8125 0 
z
" id="DejaVuSans-77"/>
      <path d="M 8.015625 75.875 
L 15.828125 75.875 
Q 23.140625 64.359375 26.78125 53.3125 
Q 30.421875 42.28125 30.421875 31.390625 
Q 30.421875 20.453125 26.78125 9.375 
Q 23.140625 -1.703125 15.828125 -13.1875 
L 8.015625 -13.1875 
Q 14.5 -2 17.703125 9.0625 
Q 20.90625 20.125 20.90625 31.390625 
Q 20.90625 42.671875 17.703125 53.65625 
Q 14.5 64.65625 8.015625 75.875 
z
" id="DejaVuSans-41"/>
     </defs>
     <g transform="translate(262.39375 463.7639)scale(0.2 -0.2)">
      <use xlink:href="#DejaVuSans-71"/>
      <use x="77.490234" xlink:href="#DejaVuSans-108"/>
      <use x="105.273438" xlink:href="#DejaVuSans-97"/>
      <use x="166.552734" xlink:href="#DejaVuSans-117"/>
      <use x="229.931641" xlink:href="#DejaVuSans-99"/>
      <use x="284.912109" xlink:href="#DejaVuSans-105"/>
      <use x="312.695312" xlink:href="#DejaVuSans-110"/>
      <use x="376.074219" xlink:href="#DejaVuSans-101"/>
      <use x="437.597656" xlink:href="#DejaVuSans-32"/>
      <use x="469.384766" xlink:href="#DejaVuSans-40"/>
      <use x="508.398438" xlink:href="#DejaVuSans-117"/>
      <use x="571.777344" xlink:href="#DejaVuSans-77"/>
      <use x="658.056641" xlink:href="#DejaVuSans-41"/>
     </g>
    </g>
   </g>
   <g id="matplotlib.axis_2">
    <g id="ytick_1">
     <g id="line2d_41">
      <defs>
       <path d="M 0 0 
L -2 0 
" id="m05a40d4121" style="stroke:#000000;"/>
      </defs>
      <g>
       <use style="stroke:#000000;" x="81" xlink:href="#m05a40d4121" y="405.0648"/>
      </g>
     </g>
     <g id="text_6">
      <!-- 0 -->
      <g transform="translate(64.0475 411.903394)scale(0.18 -0.18)">
       <use xlink:href="#DejaVuSans-48"/>
      </g>
     </g>
    </g>
    <g id="ytick_2">
     <g id="line2d_42">
      <g>
       <use style="stroke:#000000;" x="81" xlink:href="#m05a40d4121" y="354.030209"/>
      </g>
     </g>
     <g id="text_7">
      <!-- 1 -->
      <g transform="translate(64.0475 360.868802)scale(0.18 -0.18)">
       <use xlink:href="#DejaVuSans-49"/>
      </g>
     </g>
    </g>
    <g id="ytick_3">
     <g id="line2d_43">
      <g>
       <use style="stroke:#000000;" x="81" xlink:href="#m05a40d4121" y="302.995617"/>
      </g>
     </g>
     <g id="text_8">
      <!-- 2 -->
      <defs>
       <path d="M 19.1875 8.296875 
L 53.609375 8.296875 
L 53.609375 0 
L 7.328125 0 
L 7.328125 8.296875 
Q 12.9375 14.109375 22.625 23.890625 
Q 32.328125 33.6875 34.8125 36.53125 
Q 39.546875 41.84375 41.421875 45.53125 
Q 43.3125 49.21875 43.3125 52.78125 
Q 43.3125 58.59375 39.234375 62.25 
Q 35.15625 65.921875 28.609375 65.921875 
Q 23.96875 65.921875 18.8125 64.3125 
Q 13.671875 62.703125 7.8125 59.421875 
L 7.8125 69.390625 
Q 13.765625 71.78125 18.9375 73 
Q 24.125 74.21875 28.421875 74.21875 
Q 39.75 74.21875 46.484375 68.546875 
Q 53.21875 62.890625 53.21875 53.421875 
Q 53.21875 48.921875 51.53125 44.890625 
Q 49.859375 40.875 45.40625 35.40625 
Q 44.1875 33.984375 37.640625 27.21875 
Q 31.109375 20.453125 19.1875 8.296875 
z
" id="DejaVuSans-50"/>
      </defs>
      <g transform="translate(64.0475 309.834211)scale(0.18 -0.18)">
       <use xlink:href="#DejaVuSans-50"/>
      </g>
     </g>
    </g>
    <g id="ytick_4">
     <g id="line2d_44">
      <g>
       <use style="stroke:#000000;" x="81" xlink:href="#m05a40d4121" y="251.961026"/>
      </g>
     </g>
     <g id="text_9">
      <!-- 3 -->
      <defs>
       <path d="M 40.578125 39.3125 
Q 47.65625 37.796875 51.625 33 
Q 55.609375 28.21875 55.609375 21.1875 
Q 55.609375 10.40625 48.1875 4.484375 
Q 40.765625 -1.421875 27.09375 -1.421875 
Q 22.515625 -1.421875 17.65625 -0.515625 
Q 12.796875 0.390625 7.625 2.203125 
L 7.625 11.71875 
Q 11.71875 9.328125 16.59375 8.109375 
Q 21.484375 6.890625 26.8125 6.890625 
Q 36.078125 6.890625 40.9375 10.546875 
Q 45.796875 14.203125 45.796875 21.1875 
Q 45.796875 27.640625 41.28125 31.265625 
Q 36.765625 34.90625 28.71875 34.90625 
L 20.21875 34.90625 
L 20.21875 43.015625 
L 29.109375 43.015625 
Q 36.375 43.015625 40.234375 45.921875 
Q 44.09375 48.828125 44.09375 54.296875 
Q 44.09375 59.90625 40.109375 62.90625 
Q 36.140625 65.921875 28.71875 65.921875 
Q 24.65625 65.921875 20.015625 65.03125 
Q 15.375 64.15625 9.8125 62.3125 
L 9.8125 71.09375 
Q 15.4375 72.65625 20.34375 73.4375 
Q 25.25 74.21875 29.59375 74.21875 
Q 40.828125 74.21875 47.359375 69.109375 
Q 53.90625 64.015625 53.90625 55.328125 
Q 53.90625 49.265625 50.4375 45.09375 
Q 46.96875 40.921875 40.578125 39.3125 
z
" id="DejaVuSans-51"/>
      </defs>
      <g transform="translate(64.0475 258.79962)scale(0.18 -0.18)">
       <use xlink:href="#DejaVuSans-51"/>
      </g>
     </g>
    </g>
    <g id="ytick_5">
     <g id="line2d_45">
      <g>
       <use style="stroke:#000000;" x="81" xlink:href="#m05a40d4121" y="200.926435"/>
      </g>
     </g>
     <g id="text_10">
      <!-- 4 -->
      <defs>
       <path d="M 37.796875 64.3125 
L 12.890625 25.390625 
L 37.796875 25.390625 
z
M 35.203125 72.90625 
L 47.609375 72.90625 
L 47.609375 25.390625 
L 58.015625 25.390625 
L 58.015625 17.1875 
L 47.609375 17.1875 
L 47.609375 0 
L 37.796875 0 
L 37.796875 17.1875 
L 4.890625 17.1875 
L 4.890625 26.703125 
z
" id="DejaVuSans-52"/>
      </defs>
      <g transform="translate(64.0475 207.765028)scale(0.18 -0.18)">
       <use xlink:href="#DejaVuSans-52"/>
      </g>
     </g>
    </g>
    <g id="ytick_6">
     <g id="line2d_46">
      <g>
       <use style="stroke:#000000;" x="81" xlink:href="#m05a40d4121" y="149.891843"/>
      </g>
     </g>
     <g id="text_11">
      <!-- 5 -->
      <defs>
       <path d="M 10.796875 72.90625 
L 49.515625 72.90625 
L 49.515625 64.59375 
L 19.828125 64.59375 
L 19.828125 46.734375 
Q 21.96875 47.46875 24.109375 47.828125 
Q 26.265625 48.1875 28.421875 48.1875 
Q 40.625 48.1875 47.75 41.5 
Q 54.890625 34.8125 54.890625 23.390625 
Q 54.890625 11.625 47.5625 5.09375 
Q 40.234375 -1.421875 26.90625 -1.421875 
Q 22.3125 -1.421875 17.546875 -0.640625 
Q 12.796875 0.140625 7.71875 1.703125 
L 7.71875 11.625 
Q 12.109375 9.234375 16.796875 8.0625 
Q 21.484375 6.890625 26.703125 6.890625 
Q 35.15625 6.890625 40.078125 11.328125 
Q 45.015625 15.765625 45.015625 23.390625 
Q 45.015625 31 40.078125 35.4375 
Q 35.15625 39.890625 26.703125 39.890625 
Q 22.75 39.890625 18.8125 39.015625 
Q 14.890625 38.140625 10.796875 36.28125 
z
" id="DejaVuSans-53"/>
      </defs>
      <g transform="translate(64.0475 156.730437)scale(0.18 -0.18)">
       <use xlink:href="#DejaVuSans-53"/>
      </g>
     </g>
    </g>
    <g id="ytick_7">
     <g id="line2d_47">
      <g>
       <use style="stroke:#000000;" x="81" xlink:href="#m05a40d4121" y="98.857252"/>
      </g>
     </g>
     <g id="text_12">
      <!-- 6 -->
      <defs>
       <path d="M 33.015625 40.375 
Q 26.375 40.375 22.484375 35.828125 
Q 18.609375 31.296875 18.609375 23.390625 
Q 18.609375 15.53125 22.484375 10.953125 
Q 26.375 6.390625 33.015625 6.390625 
Q 39.65625 6.390625 43.53125 10.953125 
Q 47.40625 15.53125 47.40625 23.390625 
Q 47.40625 31.296875 43.53125 35.828125 
Q 39.65625 40.375 33.015625 40.375 
z
M 52.59375 71.296875 
L 52.59375 62.3125 
Q 48.875 64.0625 45.09375 64.984375 
Q 41.3125 65.921875 37.59375 65.921875 
Q 27.828125 65.921875 22.671875 59.328125 
Q 17.53125 52.734375 16.796875 39.40625 
Q 19.671875 43.65625 24.015625 45.921875 
Q 28.375 48.1875 33.59375 48.1875 
Q 44.578125 48.1875 50.953125 41.515625 
Q 57.328125 34.859375 57.328125 23.390625 
Q 57.328125 12.15625 50.6875 5.359375 
Q 44.046875 -1.421875 33.015625 -1.421875 
Q 20.359375 -1.421875 13.671875 8.265625 
Q 6.984375 17.96875 6.984375 36.375 
Q 6.984375 53.65625 15.1875 63.9375 
Q 23.390625 74.21875 37.203125 74.21875 
Q 40.921875 74.21875 44.703125 73.484375 
Q 48.484375 72.75 52.59375 71.296875 
z
" id="DejaVuSans-54"/>
      </defs>
      <g transform="translate(64.0475 105.695846)scale(0.18 -0.18)">
       <use xlink:href="#DejaVuSans-54"/>
      </g>
     </g>
    </g>
    <g id="text_13">
     <!-- $(RFU/OD) \times 10^4$ -->
     <defs>
      <path d="M 25.203125 64.796875 
L 20.21875 38.921875 
L 32.90625 38.921875 
Q 40.375 38.921875 44.984375 43.046875 
Q 49.609375 47.171875 49.609375 53.8125 
Q 49.609375 59.125 46.5 61.953125 
Q 43.40625 64.796875 37.59375 64.796875 
z
M 43.3125 35.015625 
Q 46.4375 34.28125 48.515625 31.390625 
Q 50.59375 28.515625 53.328125 19.921875 
L 59.515625 0 
L 49.125 0 
L 43.40625 18.703125 
Q 41.21875 25.921875 38.328125 28.359375 
Q 35.453125 30.8125 29.5 30.8125 
L 18.609375 30.8125 
L 12.59375 0 
L 2.6875 0 
L 16.890625 72.90625 
L 39.109375 72.90625 
Q 49.21875 72.90625 54.609375 68.328125 
Q 60.015625 63.765625 60.015625 55.171875 
Q 60.015625 47.5625 55.421875 41.984375 
Q 50.828125 36.421875 43.3125 35.015625 
z
" id="DejaVuSans-Oblique-82"/>
      <path d="M 16.890625 72.90625 
L 58.6875 72.90625 
L 57.078125 64.59375 
L 25.09375 64.59375 
L 20.90625 43.109375 
L 49.8125 43.109375 
L 48.1875 34.8125 
L 19.28125 34.8125 
L 12.5 0 
L 2.6875 0 
z
" id="DejaVuSans-Oblique-70"/>
      <path d="M 15.484375 72.90625 
L 25.390625 72.90625 
L 16.796875 28.609375 
Q 16.265625 25.640625 16.046875 23.703125 
Q 15.828125 21.78125 15.828125 20.3125 
Q 15.828125 13.578125 19.578125 10.078125 
Q 23.34375 6.59375 30.609375 6.59375 
Q 40.046875 6.59375 45.28125 11.765625 
Q 50.53125 16.9375 52.78125 28.609375 
L 61.375 72.90625 
L 71.296875 72.90625 
L 62.5 27.390625 
Q 59.625 12.640625 51.5625 5.609375 
Q 43.5 -1.421875 29.5 -1.421875 
Q 18.5625 -1.421875 12.1875 4.078125 
Q 5.8125 9.578125 5.8125 19 
Q 5.8125 20.703125 6.046875 22.828125 
Q 6.296875 24.953125 6.78125 27.390625 
z
" id="DejaVuSans-Oblique-85"/>
      <path d="M 25.390625 72.90625 
L 33.6875 72.90625 
L 8.296875 -9.28125 
L 0 -9.28125 
z
" id="DejaVuSans-47"/>
      <path d="M 45.609375 66.21875 
Q 37.5 66.21875 31.296875 62.28125 
Q 25.09375 58.34375 20.515625 50.296875 
Q 17.578125 45.171875 16.03125 39.40625 
Q 14.5 33.640625 14.5 27.78125 
Q 14.5 17.625 19.359375 12.109375 
Q 24.21875 6.59375 33.109375 6.59375 
Q 41.109375 6.59375 47.375 10.5625 
Q 53.65625 14.546875 58.109375 22.40625 
Q 61.078125 27.6875 62.640625 33.46875 
Q 64.203125 39.265625 64.203125 45.015625 
Q 64.203125 55.125 59.3125 60.671875 
Q 54.4375 66.21875 45.609375 66.21875 
z
M 32.8125 -1.421875 
Q 19.390625 -1.421875 11.6875 6.53125 
Q 4 14.5 4 28.328125 
Q 4 36.234375 7 44.484375 
Q 10.015625 52.734375 15.28125 59.1875 
Q 21.484375 66.75 29.09375 70.484375 
Q 36.71875 74.21875 45.90625 74.21875 
Q 59.28125 74.21875 66.984375 66.328125 
Q 74.703125 58.453125 74.703125 44.828125 
Q 74.703125 36.421875 71.765625 28.3125 
Q 68.84375 20.21875 63.375 13.625 
Q 57.125 6 49.578125 2.28125 
Q 42.046875 -1.421875 32.8125 -1.421875 
z
" id="DejaVuSans-Oblique-79"/>
      <path d="M 16.890625 72.90625 
L 38.09375 72.90625 
Q 54.984375 72.90625 63.59375 65.75 
Q 72.21875 58.59375 72.21875 44.484375 
Q 72.21875 35.15625 68.9375 26.53125 
Q 65.671875 17.921875 59.90625 12.015625 
Q 54.109375 5.953125 45.171875 2.96875 
Q 36.234375 0 24.03125 0 
L 2.6875 0 
z
M 25.203125 64.796875 
L 14.203125 8.109375 
L 27.09375 8.109375 
Q 43.65625 8.109375 52.734375 17.625 
Q 61.8125 27.15625 61.8125 44.484375 
Q 61.8125 54.984375 55.953125 59.890625 
Q 50.09375 64.796875 37.59375 64.796875 
z
" id="DejaVuSans-Oblique-68"/>
      <path d="M 70.125 53.71875 
L 47.796875 31.296875 
L 70.125 8.984375 
L 64.3125 3.078125 
L 41.890625 25.484375 
L 19.484375 3.078125 
L 13.71875 8.984375 
L 35.984375 31.296875 
L 13.71875 53.71875 
L 19.484375 59.625 
L 41.890625 37.203125 
L 64.3125 59.625 
z
" id="DejaVuSans-215"/>
     </defs>
     <g transform="translate(55.888125 315.8488)rotate(-90)scale(0.2 -0.2)">
      <use transform="translate(0 0.684375)" xlink:href="#DejaVuSans-40"/>
      <use transform="translate(39.013672 0.684375)" xlink:href="#DejaVuSans-Oblique-82"/>
      <use transform="translate(108.496094 0.684375)" xlink:href="#DejaVuSans-Oblique-70"/>
      <use transform="translate(166.015625 0.684375)" xlink:href="#DejaVuSans-Oblique-85"/>
      <use transform="translate(239.208984 0.684375)" xlink:href="#DejaVuSans-47"/>
      <use transform="translate(272.900391 0.684375)" xlink:href="#DejaVuSans-Oblique-79"/>
      <use transform="translate(351.611328 0.684375)" xlink:href="#DejaVuSans-Oblique-68"/>
      <use transform="translate(428.613281 0.684375)" xlink:href="#DejaVuSans-41"/>
      <use transform="translate(487.109375 0.684375)" xlink:href="#DejaVuSans-215"/>
      <use transform="translate(590.380859 0.684375)" xlink:href="#DejaVuSans-49"/>
      <use transform="translate(654.003906 0.684375)" xlink:href="#DejaVuSans-48"/>
      <use transform="translate(718.583984 38.965625)scale(0.7)" xlink:href="#DejaVuSans-52"/>
     </g>
    </g>
   </g>
   <g id="line2d_48">
    <path clip-path="url(#p3f5501b8e5)" d="M 70.425164 400.564963 
L 133.066352 399.420296 
L 187.193094 398.199241 
L 235.772665 396.879973 
L 280.270967 395.450227 
L 321.287608 393.912109 
L 359.427568 392.261879 
L 395.081664 390.499069 
L 428.561032 388.623421 
L 460.111753 386.635298 
L 489.950516 384.534332 
L 518.254793 382.320485 
L 545.177897 379.993518 
L 550.350088 379.519943 
L 550.350088 379.519943 
" style="fill:none;stroke:#0099ff;stroke-linecap:square;stroke-width:1.5;"/>
   </g>
   <g id="line2d_49">
    <path clip-path="url(#p3f5501b8e5)" d="M 70.425164 405.054672 
L 188.190866 404.91569 
L 232.786329 404.652148 
L 261.407363 404.272132 
L 282.751369 403.775665 
L 299.815886 403.163985 
L 314.100964 402.435189 
L 326.364177 401.592076 
L 337.131661 400.633886 
L 346.77734 399.555909 
L 355.487487 398.362349 
L 363.457967 397.049138 
L 370.826379 395.612423 
L 377.675211 394.053049 
L 384.10312 392.363317 
L 390.153857 390.544719 
L 395.890322 388.590202 
L 401.359821 386.493092 
L 406.598666 384.247172 
L 411.635233 381.846757 
L 416.500045 379.282338 
L 421.216235 376.545167 
L 425.808072 373.622992 
L 430.293426 370.504675 
L 434.690878 367.176044 
L 439.0136 363.624514 
L 443.279827 359.830889 
L 447.505883 355.774257 
L 451.702149 351.436661 
L 455.884996 346.791431 
L 460.06719 341.812494 
L 464.261142 336.471439 
L 468.483336 330.731443 
L 472.746572 324.557145 
L 477.068856 317.902396 
L 481.46961 310.714602 
L 485.972395 302.929819 
L 490.607048 294.467733 
L 495.410708 285.228128 
L 500.4342 275.076644 
L 505.753411 263.817777 
L 511.487537 251.14952 
L 517.853827 236.530984 
L 525.353613 218.729368 
L 536.132315 192.506445 
L 550.350088 157.962897 
L 550.350088 157.962897 
" style="fill:none;stroke:#3372cc;stroke-linecap:square;stroke-width:1.5;"/>
   </g>
   <g id="line2d_50">
    <path clip-path="url(#p3f5501b8e5)" d="M 70.425164 405.064791 
L 325.336805 404.953734 
L 356.347627 404.715281 
L 375.411816 404.358058 
L 389.33939 403.88349 
L 400.348952 403.292963 
L 409.481073 402.586475 
L 417.307619 401.76299 
L 424.172653 400.821245 
L 430.299394 399.759935 
L 435.846257 398.576581 
L 440.930771 397.26715 
L 445.634664 395.828554 
L 450.031759 394.253124 
L 454.170849 392.535427 
L 458.096964 390.666497 
L 461.845415 388.63668 
L 465.447093 386.433949 
L 468.929186 384.043722 
L 472.313248 381.450718 
L 475.621009 378.635138 
L 478.869489 375.57659 
L 482.073933 372.252354 
L 485.251641 368.633164 
L 488.415566 364.689937 
L 491.581652 360.385377 
L 494.762758 355.681348 
L 497.976105 350.528252 
L 501.237161 344.873407 
L 504.566709 338.648957 
L 507.98912 331.772777 
L 511.53486 324.142025 
L 515.247003 315.616349 
L 519.188677 305.995491 
L 523.465318 294.956378 
L 528.278744 281.896264 
L 534.161824 265.255588 
L 550.350088 218.560577 
L 550.350088 218.560577 
" style="fill:none;stroke:#674c9a;stroke-linecap:square;stroke-width:1.5;"/>
   </g>
   <g id="line2d_51">
    <path clip-path="url(#p3f5501b8e5)" d="M 70.425164 405.063108 
L 177.119296 404.945493 
L 205.38983 404.696563 
L 222.49912 404.336902 
L 235.409503 403.848345 
L 245.545313 403.245524 
L 253.890689 402.532395 
L 260.984213 401.712564 
L 267.339145 400.757984 
L 272.941812 399.696977 
L 278.099943 398.495131 
L 282.751369 397.187797 
L 287.109415 395.734623 
L 291.212679 394.130548 
L 295.092404 392.371035 
L 298.774253 390.452137 
L 302.279569 388.370554 
L 305.626305 386.123691 
L 308.907089 383.647999 
L 312.047798 380.998949 
L 315.129039 378.109843 
L 318.149522 374.974603 
L 321.168382 371.517254 
L 324.174762 367.728911 
L 327.159815 363.603842 
L 330.165821 359.061992 
L 333.178153 354.10016 
L 336.228102 348.639946 
L 339.338293 342.604835 
L 342.485834 336.006849 
L 345.758109 328.620226 
L 349.150846 320.399188 
L 352.717303 311.158321 
L 356.517798 300.674972 
L 360.662704 288.567724 
L 365.375009 274.089555 
L 371.326128 255.037503 
L 387.623184 202.461783 
L 392.370575 188.13995 
L 396.527458 176.28793 
L 400.348952 166.050714 
L 403.937234 157.063185 
L 407.360085 149.08022 
L 410.660801 141.938087 
L 413.864859 135.526571 
L 417.008364 129.727241 
L 420.097109 124.489085 
L 423.15667 119.732718 
L 426.200125 115.408118 
L 429.2372 111.47487 
L 432.286298 107.886637 
L 435.36067 104.609734 
L 438.469227 101.619009 
L 441.636049 98.879353 
L 444.872887 96.37221 
L 448.202267 94.074362 
L 451.641321 91.970899 
L 455.21946 90.04343 
L 458.965366 88.279147 
L 462.912979 86.66711 
L 467.103587 85.197912 
L 471.587113 83.86389 
L 476.428318 82.658157 
L 481.706213 81.575948 
L 487.528346 80.612789 
L 494.039007 79.765413 
L 501.442444 79.031201 
L 510.039852 78.408177 
L 520.30595 77.894663 
L 533.054611 77.489057 
L 549.858453 77.189545 
L 550.350088 77.183447 
L 550.350088 77.183447 
" style="fill:none;stroke:#9a2667;stroke-linecap:square;stroke-width:1.5;"/>
   </g>
   <g id="line2d_52">
    <path clip-path="url(#p3f5501b8e5)" d="M 70.425164 405.062102 
L 164.309587 404.944444 
L 191.984282 404.696363 
L 209.341485 404.322094 
L 222.017975 403.826379 
L 232.009387 403.213045 
L 240.256744 402.485509 
L 247.279374 401.647003 
L 253.394429 400.700683 
L 259.031847 399.601663 
L 264.069407 398.392252 
L 268.622577 397.076079 
L 272.941812 395.595512 
L 276.900072 394.007331 
L 280.693488 392.246091 
L 284.335663 390.304101 
L 287.717798 388.252467 
L 290.987536 386.01505 
L 294.151841 383.586528 
L 297.31591 380.873274 
L 300.374546 377.954332 
L 303.421609 374.731842 
L 306.366184 371.295783 
L 309.368707 367.442594 
L 312.336337 363.264778 
L 315.332004 358.65338 
L 318.33998 353.604813 
L 321.347109 348.121792 
L 324.454034 341.985227 
L 327.630864 335.205986 
L 330.900602 327.693621 
L 334.3224 319.259119 
L 337.892661 309.857482 
L 341.757 299.037298 
L 346.006145 286.456016 
L 350.935776 271.136574 
L 357.664557 249.431876 
L 369.337936 211.738789 
L 374.393825 196.239558 
L 378.696754 183.749196 
L 382.592349 173.110637 
L 386.222174 163.832741 
L 389.664045 155.634065 
L 392.97784 148.305944 
L 396.185449 141.743355 
L 399.327524 135.814814 
L 402.414116 130.460499 
L 405.463345 125.61141 
L 408.489212 121.212631 
L 411.511192 117.208476 
L 414.535438 113.567105 
L 417.581587 110.244663 
L 420.663632 107.210169 
L 423.79763 104.435423 
L 426.993834 101.901262 
L 430.281487 99.577964 
L 433.673657 97.452945 
L 437.201689 95.505773 
L 440.887832 93.72613 
L 444.767453 92.101029 
L 448.884534 90.619193 
L 453.286277 89.273402 
L 458.033847 88.057026 
L 463.205969 86.964551 
L 468.905407 85.991668 
L 475.271095 85.134998 
L 482.496388 84.392069 
L 490.87046 83.760555 
L 500.845464 83.238646 
L 513.188061 82.824784 
L 529.364789 82.517176 
L 550.350088 82.326421 
L 550.350088 82.326421 
" style="fill:none;stroke:#ce0035;stroke-linecap:square;stroke-width:1.5;"/>
   </g>
   <g id="line2d_53">
    <defs>
     <path d="M 0 3 
C 0.795609 3 1.55874 2.683901 2.12132 2.12132 
C 2.683901 1.55874 3 0.795609 3 0 
C 3 -0.795609 2.683901 -1.55874 2.12132 -2.12132 
C 1.55874 -2.683901 0.795609 -3 0 -3 
C -0.795609 -3 -1.55874 -2.683901 -2.12132 -2.12132 
C -2.683901 -1.55874 -3 -0.795609 -3 0 
C -3 0.795609 -2.683901 1.55874 -2.12132 2.12132 
C -1.55874 2.683901 -0.795609 3 0 3 
z
" id="mbe662c4043" style="stroke:#0099ff;"/>
    </defs>
    <g clip-path="url(#p3f5501b8e5)">
     <use style="fill:#0099ff;stroke:#0099ff;" x="-1" xlink:href="#mbe662c4043" y="394.099265"/>
     <use style="fill:#0099ff;stroke:#0099ff;" x="179.549735" xlink:href="#mbe662c4043" y="394.099243"/>
     <use style="fill:#0099ff;stroke:#0099ff;" x="222.974956" xlink:href="#mbe662c4043" y="393.949122"/>
     <use style="fill:#0099ff;stroke:#0099ff;" x="255.824867" xlink:href="#mbe662c4043" y="394.053077"/>
     <use style="fill:#0099ff;stroke:#0099ff;" x="288.674779" xlink:href="#mbe662c4043" y="394.158801"/>
     <use style="fill:#0099ff;stroke:#0099ff;" x="332.1" xlink:href="#mbe662c4043" y="393.8289"/>
     <use style="fill:#0099ff;stroke:#0099ff;" x="364.949912" xlink:href="#mbe662c4043" y="393.818799"/>
     <use style="fill:#0099ff;stroke:#0099ff;" x="397.799823" xlink:href="#mbe662c4043" y="393.421246"/>
     <use style="fill:#0099ff;stroke:#0099ff;" x="441.225044" xlink:href="#mbe662c4043" y="391.991907"/>
     <use style="fill:#0099ff;stroke:#0099ff;" x="474.074956" xlink:href="#mbe662c4043" y="390.124145"/>
     <use style="fill:#0099ff;stroke:#0099ff;" x="506.924867" xlink:href="#mbe662c4043" y="385.975846"/>
     <use style="fill:#0099ff;stroke:#0099ff;" x="550.350088" xlink:href="#mbe662c4043" y="371.958409"/>
    </g>
   </g>
   <g id="line2d_54">
    <g clip-path="url(#p3f5501b8e5)">
     <use style="fill:#0099ff;stroke:#0099ff;" x="-1" xlink:href="#mbe662c4043" y="393.806942"/>
     <use style="fill:#0099ff;stroke:#0099ff;" x="179.549735" xlink:href="#mbe662c4043" y="393.807138"/>
     <use style="fill:#0099ff;stroke:#0099ff;" x="222.974956" xlink:href="#mbe662c4043" y="393.952023"/>
     <use style="fill:#0099ff;stroke:#0099ff;" x="255.824867" xlink:href="#mbe662c4043" y="394.033092"/>
     <use style="fill:#0099ff;stroke:#0099ff;" x="288.674779" xlink:href="#mbe662c4043" y="393.922301"/>
     <use style="fill:#0099ff;stroke:#0099ff;" x="332.1" xlink:href="#mbe662c4043" y="394.034585"/>
     <use style="fill:#0099ff;stroke:#0099ff;" x="364.949912" xlink:href="#mbe662c4043" y="393.771579"/>
     <use style="fill:#0099ff;stroke:#0099ff;" x="397.799823" xlink:href="#mbe662c4043" y="393.315596"/>
     <use style="fill:#0099ff;stroke:#0099ff;" x="441.225044" xlink:href="#mbe662c4043" y="392.184371"/>
     <use style="fill:#0099ff;stroke:#0099ff;" x="474.074956" xlink:href="#mbe662c4043" y="390.051107"/>
     <use style="fill:#0099ff;stroke:#0099ff;" x="506.924867" xlink:href="#mbe662c4043" y="385.948311"/>
     <use style="fill:#0099ff;stroke:#0099ff;" x="550.350088" xlink:href="#mbe662c4043" y="371.626261"/>
    </g>
   </g>
   <g id="line2d_55">
    <g clip-path="url(#p3f5501b8e5)">
     <use style="fill:#0099ff;stroke:#0099ff;" x="-1" xlink:href="#mbe662c4043" y="393.703178"/>
     <use style="fill:#0099ff;stroke:#0099ff;" x="179.549735" xlink:href="#mbe662c4043" y="393.703257"/>
     <use style="fill:#0099ff;stroke:#0099ff;" x="222.974956" xlink:href="#mbe662c4043" y="393.841929"/>
     <use style="fill:#0099ff;stroke:#0099ff;" x="255.824867" xlink:href="#mbe662c4043" y="393.878046"/>
     <use style="fill:#0099ff;stroke:#0099ff;" x="288.674779" xlink:href="#mbe662c4043" y="393.849156"/>
     <use style="fill:#0099ff;stroke:#0099ff;" x="332.1" xlink:href="#mbe662c4043" y="393.840224"/>
     <use style="fill:#0099ff;stroke:#0099ff;" x="364.949912" xlink:href="#mbe662c4043" y="393.642235"/>
     <use style="fill:#0099ff;stroke:#0099ff;" x="397.799823" xlink:href="#mbe662c4043" y="393.160495"/>
     <use style="fill:#0099ff;stroke:#0099ff;" x="441.225044" xlink:href="#mbe662c4043" y="391.879673"/>
     <use style="fill:#0099ff;stroke:#0099ff;" x="474.074956" xlink:href="#mbe662c4043" y="389.844281"/>
     <use style="fill:#0099ff;stroke:#0099ff;" x="506.924867" xlink:href="#mbe662c4043" y="385.78021"/>
     <use style="fill:#0099ff;stroke:#0099ff;" x="550.350088" xlink:href="#mbe662c4043" y="371.84774"/>
    </g>
   </g>
   <g id="line2d_56">
    <defs>
     <path d="M 0 3 
C 0.795609 3 1.55874 2.683901 2.12132 2.12132 
C 2.683901 1.55874 3 0.795609 3 0 
C 3 -0.795609 2.683901 -1.55874 2.12132 -2.12132 
C 1.55874 -2.683901 0.795609 -3 0 -3 
C -0.795609 -3 -1.55874 -2.683901 -2.12132 -2.12132 
C -2.683901 -1.55874 -3 -0.795609 -3 0 
C -3 0.795609 -2.683901 1.55874 -2.12132 2.12132 
C -1.55874 2.683901 -0.795609 3 0 3 
z
" id="m1d91d68c60" style="stroke:#3372cc;"/>
    </defs>
    <g clip-path="url(#p3f5501b8e5)">
     <use style="fill:#3372cc;stroke:#3372cc;" x="-1" xlink:href="#m1d91d68c60" y="396.993608"/>
     <use style="fill:#3372cc;stroke:#3372cc;" x="179.549735" xlink:href="#m1d91d68c60" y="396.99326"/>
     <use style="fill:#3372cc;stroke:#3372cc;" x="222.974956" xlink:href="#m1d91d68c60" y="396.893041"/>
     <use style="fill:#3372cc;stroke:#3372cc;" x="255.824867" xlink:href="#m1d91d68c60" y="396.702127"/>
     <use style="fill:#3372cc;stroke:#3372cc;" x="288.674779" xlink:href="#m1d91d68c60" y="396.276725"/>
     <use style="fill:#3372cc;stroke:#3372cc;" x="332.1" xlink:href="#m1d91d68c60" y="395.157476"/>
     <use style="fill:#3372cc;stroke:#3372cc;" x="364.949912" xlink:href="#m1d91d68c60" y="392.728112"/>
     <use style="fill:#3372cc;stroke:#3372cc;" x="397.799823" xlink:href="#m1d91d68c60" y="387.223248"/>
     <use style="fill:#3372cc;stroke:#3372cc;" x="441.225044" xlink:href="#m1d91d68c60" y="365.801755"/>
     <use style="fill:#3372cc;stroke:#3372cc;" x="474.074956" xlink:href="#m1d91d68c60" y="324.994893"/>
     <use style="fill:#3372cc;stroke:#3372cc;" x="506.924867" xlink:href="#m1d91d68c60" y="255.387684"/>
     <use style="fill:#3372cc;stroke:#3372cc;" x="550.350088" xlink:href="#m1d91d68c60" y="156.9854"/>
    </g>
   </g>
   <g id="line2d_57">
    <g clip-path="url(#p3f5501b8e5)">
     <use style="fill:#3372cc;stroke:#3372cc;" x="-1" xlink:href="#m1d91d68c60" y="397.323061"/>
     <use style="fill:#3372cc;stroke:#3372cc;" x="179.549735" xlink:href="#m1d91d68c60" y="397.322922"/>
     <use style="fill:#3372cc;stroke:#3372cc;" x="222.974956" xlink:href="#m1d91d68c60" y="397.11742"/>
     <use style="fill:#3372cc;stroke:#3372cc;" x="255.824867" xlink:href="#m1d91d68c60" y="396.879357"/>
     <use style="fill:#3372cc;stroke:#3372cc;" x="288.674779" xlink:href="#m1d91d68c60" y="396.435185"/>
     <use style="fill:#3372cc;stroke:#3372cc;" x="332.1" xlink:href="#m1d91d68c60" y="395.332135"/>
     <use style="fill:#3372cc;stroke:#3372cc;" x="364.949912" xlink:href="#m1d91d68c60" y="392.848003"/>
     <use style="fill:#3372cc;stroke:#3372cc;" x="397.799823" xlink:href="#m1d91d68c60" y="387.715223"/>
     <use style="fill:#3372cc;stroke:#3372cc;" x="441.225044" xlink:href="#m1d91d68c60" y="366.443859"/>
     <use style="fill:#3372cc;stroke:#3372cc;" x="474.074956" xlink:href="#m1d91d68c60" y="325.959627"/>
     <use style="fill:#3372cc;stroke:#3372cc;" x="506.924867" xlink:href="#m1d91d68c60" y="257.335956"/>
     <use style="fill:#3372cc;stroke:#3372cc;" x="550.350088" xlink:href="#m1d91d68c60" y="157.174025"/>
    </g>
   </g>
   <g id="line2d_58">
    <g clip-path="url(#p3f5501b8e5)">
     <use style="fill:#3372cc;stroke:#3372cc;" x="-1" xlink:href="#m1d91d68c60" y="397.433148"/>
     <use style="fill:#3372cc;stroke:#3372cc;" x="179.549735" xlink:href="#m1d91d68c60" y="397.433143"/>
     <use style="fill:#3372cc;stroke:#3372cc;" x="222.974956" xlink:href="#m1d91d68c60" y="397.219403"/>
     <use style="fill:#3372cc;stroke:#3372cc;" x="255.824867" xlink:href="#m1d91d68c60" y="397.024602"/>
     <use style="fill:#3372cc;stroke:#3372cc;" x="288.674779" xlink:href="#m1d91d68c60" y="396.495046"/>
     <use style="fill:#3372cc;stroke:#3372cc;" x="332.1" xlink:href="#m1d91d68c60" y="395.241832"/>
     <use style="fill:#3372cc;stroke:#3372cc;" x="364.949912" xlink:href="#m1d91d68c60" y="392.958609"/>
     <use style="fill:#3372cc;stroke:#3372cc;" x="397.799823" xlink:href="#m1d91d68c60" y="387.6696"/>
     <use style="fill:#3372cc;stroke:#3372cc;" x="441.225044" xlink:href="#m1d91d68c60" y="366.29284"/>
     <use style="fill:#3372cc;stroke:#3372cc;" x="474.074956" xlink:href="#m1d91d68c60" y="325.6264"/>
     <use style="fill:#3372cc;stroke:#3372cc;" x="506.924867" xlink:href="#m1d91d68c60" y="258.887446"/>
     <use style="fill:#3372cc;stroke:#3372cc;" x="550.350088" xlink:href="#m1d91d68c60" y="162.477581"/>
    </g>
   </g>
   <g id="line2d_59">
    <defs>
     <path d="M 0 3 
C 0.795609 3 1.55874 2.683901 2.12132 2.12132 
C 2.683901 1.55874 3 0.795609 3 0 
C 3 -0.795609 2.683901 -1.55874 2.12132 -2.12132 
C 1.55874 -2.683901 0.795609 -3 0 -3 
C -0.795609 -3 -1.55874 -2.683901 -2.12132 -2.12132 
C -2.683901 -1.55874 -3 -0.795609 -3 0 
C -3 0.795609 -2.683901 1.55874 -2.12132 2.12132 
C -1.55874 2.683901 -0.795609 3 0 3 
z
" id="ma3b26d5c14" style="stroke:#674c9a;"/>
    </defs>
    <g clip-path="url(#p3f5501b8e5)">
     <use style="fill:#674c9a;stroke:#674c9a;" x="-1" xlink:href="#ma3b26d5c14" y="404.226576"/>
     <use style="fill:#674c9a;stroke:#674c9a;" x="179.549735" xlink:href="#ma3b26d5c14" y="404.226563"/>
     <use style="fill:#674c9a;stroke:#674c9a;" x="222.974956" xlink:href="#ma3b26d5c14" y="404.307375"/>
     <use style="fill:#674c9a;stroke:#674c9a;" x="255.824867" xlink:href="#ma3b26d5c14" y="404.246328"/>
     <use style="fill:#674c9a;stroke:#674c9a;" x="288.674779" xlink:href="#ma3b26d5c14" y="404.032208"/>
     <use style="fill:#674c9a;stroke:#674c9a;" x="332.1" xlink:href="#ma3b26d5c14" y="403.976037"/>
     <use style="fill:#674c9a;stroke:#674c9a;" x="364.949912" xlink:href="#ma3b26d5c14" y="403.601993"/>
     <use style="fill:#674c9a;stroke:#674c9a;" x="397.799823" xlink:href="#ma3b26d5c14" y="402.689137"/>
     <use style="fill:#674c9a;stroke:#674c9a;" x="441.225044" xlink:href="#ma3b26d5c14" y="396.692837"/>
     <use style="fill:#674c9a;stroke:#674c9a;" x="474.074956" xlink:href="#ma3b26d5c14" y="380.606371"/>
     <use style="fill:#674c9a;stroke:#674c9a;" x="506.924867" xlink:href="#ma3b26d5c14" y="334.512808"/>
     <use style="fill:#674c9a;stroke:#674c9a;" x="550.350088" xlink:href="#ma3b26d5c14" y="217.38352"/>
    </g>
   </g>
   <g id="line2d_60">
    <g clip-path="url(#p3f5501b8e5)">
     <use style="fill:#674c9a;stroke:#674c9a;" x="-1" xlink:href="#ma3b26d5c14" y="404.297728"/>
     <use style="fill:#674c9a;stroke:#674c9a;" x="179.549735" xlink:href="#ma3b26d5c14" y="404.29772"/>
     <use style="fill:#674c9a;stroke:#674c9a;" x="222.974956" xlink:href="#ma3b26d5c14" y="404.352644"/>
     <use style="fill:#674c9a;stroke:#674c9a;" x="255.824867" xlink:href="#ma3b26d5c14" y="404.176763"/>
     <use style="fill:#674c9a;stroke:#674c9a;" x="288.674779" xlink:href="#ma3b26d5c14" y="404.138024"/>
     <use style="fill:#674c9a;stroke:#674c9a;" x="332.1" xlink:href="#ma3b26d5c14" y="403.973077"/>
     <use style="fill:#674c9a;stroke:#674c9a;" x="364.949912" xlink:href="#ma3b26d5c14" y="403.55472"/>
     <use style="fill:#674c9a;stroke:#674c9a;" x="397.799823" xlink:href="#ma3b26d5c14" y="402.678828"/>
     <use style="fill:#674c9a;stroke:#674c9a;" x="441.225044" xlink:href="#ma3b26d5c14" y="396.774205"/>
     <use style="fill:#674c9a;stroke:#674c9a;" x="474.074956" xlink:href="#ma3b26d5c14" y="379.715759"/>
     <use style="fill:#674c9a;stroke:#674c9a;" x="506.924867" xlink:href="#ma3b26d5c14" y="331.019721"/>
     <use style="fill:#674c9a;stroke:#674c9a;" x="550.350088" xlink:href="#ma3b26d5c14" y="213.783496"/>
    </g>
   </g>
   <g id="line2d_61">
    <g clip-path="url(#p3f5501b8e5)">
     <use style="fill:#674c9a;stroke:#674c9a;" x="-1" xlink:href="#ma3b26d5c14" y="404.229017"/>
     <use style="fill:#674c9a;stroke:#674c9a;" x="179.549735" xlink:href="#ma3b26d5c14" y="404.229356"/>
     <use style="fill:#674c9a;stroke:#674c9a;" x="222.974956" xlink:href="#ma3b26d5c14" y="404.273283"/>
     <use style="fill:#674c9a;stroke:#674c9a;" x="255.824867" xlink:href="#ma3b26d5c14" y="404.140856"/>
     <use style="fill:#674c9a;stroke:#674c9a;" x="288.674779" xlink:href="#ma3b26d5c14" y="404.029964"/>
     <use style="fill:#674c9a;stroke:#674c9a;" x="332.1" xlink:href="#ma3b26d5c14" y="403.892897"/>
     <use style="fill:#674c9a;stroke:#674c9a;" x="364.949912" xlink:href="#ma3b26d5c14" y="403.561249"/>
     <use style="fill:#674c9a;stroke:#674c9a;" x="397.799823" xlink:href="#ma3b26d5c14" y="402.786244"/>
     <use style="fill:#674c9a;stroke:#674c9a;" x="441.225044" xlink:href="#ma3b26d5c14" y="397.695483"/>
     <use style="fill:#674c9a;stroke:#674c9a;" x="474.074956" xlink:href="#ma3b26d5c14" y="381.012742"/>
     <use style="fill:#674c9a;stroke:#674c9a;" x="506.924867" xlink:href="#ma3b26d5c14" y="335.870506"/>
     <use style="fill:#674c9a;stroke:#674c9a;" x="550.350088" xlink:href="#ma3b26d5c14" y="224.561348"/>
    </g>
   </g>
   <g id="line2d_62">
    <defs>
     <path d="M 0 3 
C 0.795609 3 1.55874 2.683901 2.12132 2.12132 
C 2.683901 1.55874 3 0.795609 3 0 
C 3 -0.795609 2.683901 -1.55874 2.12132 -2.12132 
C 1.55874 -2.683901 0.795609 -3 0 -3 
C -0.795609 -3 -1.55874 -2.683901 -2.12132 -2.12132 
C -2.683901 -1.55874 -3 -0.795609 -3 0 
C -3 0.795609 -2.683901 1.55874 -2.12132 2.12132 
C -1.55874 2.683901 -0.795609 3 0 3 
z
" id="m6c4ce19835" style="stroke:#9a2667;"/>
    </defs>
    <g clip-path="url(#p3f5501b8e5)">
     <use style="fill:#9a2667;stroke:#9a2667;" x="-1" xlink:href="#m6c4ce19835" y="403.735713"/>
     <use style="fill:#9a2667;stroke:#9a2667;" x="179.549735" xlink:href="#m6c4ce19835" y="403.735311"/>
     <use style="fill:#9a2667;stroke:#9a2667;" x="222.974956" xlink:href="#m6c4ce19835" y="403.018973"/>
     <use style="fill:#9a2667;stroke:#9a2667;" x="255.824867" xlink:href="#m6c4ce19835" y="401.464795"/>
     <use style="fill:#9a2667;stroke:#9a2667;" x="288.674779" xlink:href="#m6c4ce19835" y="394.865851"/>
     <use style="fill:#9a2667;stroke:#9a2667;" x="332.1" xlink:href="#m6c4ce19835" y="356.147675"/>
     <use style="fill:#9a2667;stroke:#9a2667;" x="364.949912" xlink:href="#m6c4ce19835" y="274.563089"/>
     <use style="fill:#9a2667;stroke:#9a2667;" x="397.799823" xlink:href="#m6c4ce19835" y="176.61245"/>
     <use style="fill:#9a2667;stroke:#9a2667;" x="441.225044" xlink:href="#m6c4ce19835" y="101.326774"/>
     <use style="fill:#9a2667;stroke:#9a2667;" x="474.074956" xlink:href="#m6c4ce19835" y="84.485869"/>
     <use style="fill:#9a2667;stroke:#9a2667;" x="506.924867" xlink:href="#m6c4ce19835" y="81.07368"/>
     <use style="fill:#9a2667;stroke:#9a2667;" x="550.350088" xlink:href="#m6c4ce19835" y="82.782105"/>
    </g>
   </g>
   <g id="line2d_63">
    <g clip-path="url(#p3f5501b8e5)">
     <use style="fill:#9a2667;stroke:#9a2667;" x="-1" xlink:href="#m6c4ce19835" y="403.723841"/>
     <use style="fill:#9a2667;stroke:#9a2667;" x="179.549735" xlink:href="#m6c4ce19835" y="403.723517"/>
     <use style="fill:#9a2667;stroke:#9a2667;" x="222.974956" xlink:href="#m6c4ce19835" y="403.222175"/>
     <use style="fill:#9a2667;stroke:#9a2667;" x="255.824867" xlink:href="#m6c4ce19835" y="401.448221"/>
     <use style="fill:#9a2667;stroke:#9a2667;" x="288.674779" xlink:href="#m6c4ce19835" y="395.123255"/>
     <use style="fill:#9a2667;stroke:#9a2667;" x="332.1" xlink:href="#m6c4ce19835" y="356.090413"/>
     <use style="fill:#9a2667;stroke:#9a2667;" x="364.949912" xlink:href="#m6c4ce19835" y="273.500657"/>
     <use style="fill:#9a2667;stroke:#9a2667;" x="397.799823" xlink:href="#m6c4ce19835" y="175.343519"/>
     <use style="fill:#9a2667;stroke:#9a2667;" x="441.225044" xlink:href="#m6c4ce19835" y="97.236334"/>
     <use style="fill:#9a2667;stroke:#9a2667;" x="474.074956" xlink:href="#m6c4ce19835" y="79.135587"/>
     <use style="fill:#9a2667;stroke:#9a2667;" x="506.924867" xlink:href="#m6c4ce19835" y="77.489875"/>
     <use style="fill:#9a2667;stroke:#9a2667;" x="550.350088" xlink:href="#m6c4ce19835" y="81.346667"/>
    </g>
   </g>
   <g id="line2d_64">
    <g clip-path="url(#p3f5501b8e5)">
     <use style="fill:#9a2667;stroke:#9a2667;" x="-1" xlink:href="#m6c4ce19835" y="403.714357"/>
     <use style="fill:#9a2667;stroke:#9a2667;" x="179.549735" xlink:href="#m6c4ce19835" y="403.714012"/>
     <use style="fill:#9a2667;stroke:#9a2667;" x="222.974956" xlink:href="#m6c4ce19835" y="403.109426"/>
     <use style="fill:#9a2667;stroke:#9a2667;" x="255.824867" xlink:href="#m6c4ce19835" y="401.240322"/>
     <use style="fill:#9a2667;stroke:#9a2667;" x="288.674779" xlink:href="#m6c4ce19835" y="394.915193"/>
     <use style="fill:#9a2667;stroke:#9a2667;" x="332.1" xlink:href="#m6c4ce19835" y="357.400621"/>
     <use style="fill:#9a2667;stroke:#9a2667;" x="364.949912" xlink:href="#m6c4ce19835" y="272.873851"/>
     <use style="fill:#9a2667;stroke:#9a2667;" x="397.799823" xlink:href="#m6c4ce19835" y="174.638224"/>
     <use style="fill:#9a2667;stroke:#9a2667;" x="441.225044" xlink:href="#m6c4ce19835" y="93.180806"/>
     <use style="fill:#9a2667;stroke:#9a2667;" x="474.074956" xlink:href="#m6c4ce19835" y="73.4328"/>
     <use style="fill:#9a2667;stroke:#9a2667;" x="506.924867" xlink:href="#m6c4ce19835" y="75.946914"/>
     <use style="fill:#9a2667;stroke:#9a2667;" x="550.350088" xlink:href="#m6c4ce19835" y="82.697584"/>
    </g>
   </g>
   <g id="line2d_65">
    <defs>
     <path d="M 0 3 
C 0.795609 3 1.55874 2.683901 2.12132 2.12132 
C 2.683901 1.55874 3 0.795609 3 0 
C 3 -0.795609 2.683901 -1.55874 2.12132 -2.12132 
C 1.55874 -2.683901 0.795609 -3 0 -3 
C -0.795609 -3 -1.55874 -2.683901 -2.12132 -2.12132 
C -2.683901 -1.55874 -3 -0.795609 -3 0 
C -3 0.795609 -2.683901 1.55874 -2.12132 2.12132 
C -1.55874 2.683901 -0.795609 3 0 3 
z
" id="md15f8a2c4f" style="stroke:#ce0035;"/>
    </defs>
    <g clip-path="url(#p3f5501b8e5)">
     <use style="fill:#ce0035;stroke:#ce0035;" x="-1" xlink:href="#md15f8a2c4f" y="403.754878"/>
     <use style="fill:#ce0035;stroke:#ce0035;" x="179.549735" xlink:href="#md15f8a2c4f" y="403.754132"/>
     <use style="fill:#ce0035;stroke:#ce0035;" x="222.974956" xlink:href="#md15f8a2c4f" y="403.033108"/>
     <use style="fill:#ce0035;stroke:#ce0035;" x="255.824867" xlink:href="#md15f8a2c4f" y="399.967383"/>
     <use style="fill:#ce0035;stroke:#ce0035;" x="288.674779" xlink:href="#md15f8a2c4f" y="388.24945"/>
     <use style="fill:#ce0035;stroke:#ce0035;" x="332.1" xlink:href="#md15f8a2c4f" y="323.516903"/>
     <use style="fill:#ce0035;stroke:#ce0035;" x="364.949912" xlink:href="#md15f8a2c4f" y="224.088761"/>
     <use style="fill:#ce0035;stroke:#ce0035;" x="397.799823" xlink:href="#md15f8a2c4f" y="139.122012"/>
     <use style="fill:#ce0035;stroke:#ce0035;" x="441.225044" xlink:href="#md15f8a2c4f" y="85.001495"/>
     <use style="fill:#ce0035;stroke:#ce0035;" x="474.074956" xlink:href="#md15f8a2c4f" y="76.624177"/>
     <use style="fill:#ce0035;stroke:#ce0035;" x="506.924867" xlink:href="#md15f8a2c4f" y="79.225584"/>
     <use style="fill:#ce0035;stroke:#ce0035;" x="550.350088" xlink:href="#md15f8a2c4f" y="84.09213"/>
    </g>
   </g>
   <g id="line2d_66">
    <g clip-path="url(#p3f5501b8e5)">
     <use style="fill:#ce0035;stroke:#ce0035;" x="-1" xlink:href="#md15f8a2c4f" y="403.964848"/>
     <use style="fill:#ce0035;stroke:#ce0035;" x="179.549735" xlink:href="#md15f8a2c4f" y="403.964463"/>
     <use style="fill:#ce0035;stroke:#ce0035;" x="222.974956" xlink:href="#md15f8a2c4f" y="403.037655"/>
     <use style="fill:#ce0035;stroke:#ce0035;" x="255.824867" xlink:href="#md15f8a2c4f" y="400.220815"/>
     <use style="fill:#ce0035;stroke:#ce0035;" x="288.674779" xlink:href="#md15f8a2c4f" y="388.602665"/>
     <use style="fill:#ce0035;stroke:#ce0035;" x="332.1" xlink:href="#md15f8a2c4f" y="324.411372"/>
     <use style="fill:#ce0035;stroke:#ce0035;" x="364.949912" xlink:href="#md15f8a2c4f" y="225.938669"/>
     <use style="fill:#ce0035;stroke:#ce0035;" x="397.799823" xlink:href="#md15f8a2c4f" y="142.689558"/>
     <use style="fill:#ce0035;stroke:#ce0035;" x="441.225044" xlink:href="#md15f8a2c4f" y="87.431723"/>
     <use style="fill:#ce0035;stroke:#ce0035;" x="474.074956" xlink:href="#md15f8a2c4f" y="79.738683"/>
     <use style="fill:#ce0035;stroke:#ce0035;" x="506.924867" xlink:href="#md15f8a2c4f" y="84.64224"/>
     <use style="fill:#ce0035;stroke:#ce0035;" x="550.350088" xlink:href="#md15f8a2c4f" y="89.679285"/>
    </g>
   </g>
   <g id="line2d_67">
    <g clip-path="url(#p3f5501b8e5)">
     <use style="fill:#ce0035;stroke:#ce0035;" x="-1" xlink:href="#md15f8a2c4f" y="403.930512"/>
     <use style="fill:#ce0035;stroke:#ce0035;" x="179.549735" xlink:href="#md15f8a2c4f" y="403.930074"/>
     <use style="fill:#ce0035;stroke:#ce0035;" x="222.974956" xlink:href="#md15f8a2c4f" y="403.096001"/>
     <use style="fill:#ce0035;stroke:#ce0035;" x="255.824867" xlink:href="#md15f8a2c4f" y="400.125629"/>
     <use style="fill:#ce0035;stroke:#ce0035;" x="288.674779" xlink:href="#md15f8a2c4f" y="388.38741"/>
     <use style="fill:#ce0035;stroke:#ce0035;" x="332.1" xlink:href="#md15f8a2c4f" y="324.180347"/>
     <use style="fill:#ce0035;stroke:#ce0035;" x="364.949912" xlink:href="#md15f8a2c4f" y="225.523103"/>
     <use style="fill:#ce0035;stroke:#ce0035;" x="397.799823" xlink:href="#md15f8a2c4f" y="143.526632"/>
     <use style="fill:#ce0035;stroke:#ce0035;" x="441.225044" xlink:href="#md15f8a2c4f" y="93.224285"/>
     <use style="fill:#ce0035;stroke:#ce0035;" x="474.074956" xlink:href="#md15f8a2c4f" y="84.414938"/>
     <use style="fill:#ce0035;stroke:#ce0035;" x="506.924867" xlink:href="#md15f8a2c4f" y="88.502799"/>
     <use style="fill:#ce0035;stroke:#ce0035;" x="550.350088" xlink:href="#md15f8a2c4f" y="92.906731"/>
    </g>
   </g>
   <g id="patch_3">
    <path d="M 81 421.6464 
L 81 56.8512 
" style="fill:none;stroke:#000000;stroke-linecap:square;stroke-linejoin:miter;stroke-width:0.8;"/>
   </g>
   <g id="patch_4">
    <path d="M 81 421.6464 
L 583.2 421.6464 
" style="fill:none;stroke:#000000;stroke-linecap:square;stroke-linejoin:miter;stroke-width:0.8;"/>
   </g>
   <g id="text_14">
    <!-- RamR Variant Response to Glaucine -->
    <defs>
     <path d="M 44.390625 34.1875 
Q 47.5625 33.109375 50.5625 29.59375 
Q 53.5625 26.078125 56.59375 19.921875 
L 66.609375 0 
L 56 0 
L 46.6875 18.703125 
Q 43.0625 26.03125 39.671875 28.421875 
Q 36.28125 30.8125 30.421875 30.8125 
L 19.671875 30.8125 
L 19.671875 0 
L 9.8125 0 
L 9.8125 72.90625 
L 32.078125 72.90625 
Q 44.578125 72.90625 50.734375 67.671875 
Q 56.890625 62.453125 56.890625 51.90625 
Q 56.890625 45.015625 53.6875 40.46875 
Q 50.484375 35.9375 44.390625 34.1875 
z
M 19.671875 64.796875 
L 19.671875 38.921875 
L 32.078125 38.921875 
Q 39.203125 38.921875 42.84375 42.21875 
Q 46.484375 45.515625 46.484375 51.90625 
Q 46.484375 58.296875 42.84375 61.546875 
Q 39.203125 64.796875 32.078125 64.796875 
z
" id="DejaVuSans-82"/>
     <path d="M 52 44.1875 
Q 55.375 50.25 60.0625 53.125 
Q 64.75 56 71.09375 56 
Q 79.640625 56 84.28125 50.015625 
Q 88.921875 44.046875 88.921875 33.015625 
L 88.921875 0 
L 79.890625 0 
L 79.890625 32.71875 
Q 79.890625 40.578125 77.09375 44.375 
Q 74.3125 48.1875 68.609375 48.1875 
Q 61.625 48.1875 57.5625 43.546875 
Q 53.515625 38.921875 53.515625 30.90625 
L 53.515625 0 
L 44.484375 0 
L 44.484375 32.71875 
Q 44.484375 40.625 41.703125 44.40625 
Q 38.921875 48.1875 33.109375 48.1875 
Q 26.21875 48.1875 22.15625 43.53125 
Q 18.109375 38.875 18.109375 30.90625 
L 18.109375 0 
L 9.078125 0 
L 9.078125 54.6875 
L 18.109375 54.6875 
L 18.109375 46.1875 
Q 21.1875 51.21875 25.484375 53.609375 
Q 29.78125 56 35.6875 56 
Q 41.65625 56 45.828125 52.96875 
Q 50 49.953125 52 44.1875 
z
" id="DejaVuSans-109"/>
     <path d="M 28.609375 0 
L 0.78125 72.90625 
L 11.078125 72.90625 
L 34.1875 11.53125 
L 57.328125 72.90625 
L 67.578125 72.90625 
L 39.796875 0 
z
" id="DejaVuSans-86"/>
     <path d="M 41.109375 46.296875 
Q 39.59375 47.171875 37.8125 47.578125 
Q 36.03125 48 33.890625 48 
Q 26.265625 48 22.1875 43.046875 
Q 18.109375 38.09375 18.109375 28.8125 
L 18.109375 0 
L 9.078125 0 
L 9.078125 54.6875 
L 18.109375 54.6875 
L 18.109375 46.1875 
Q 20.953125 51.171875 25.484375 53.578125 
Q 30.03125 56 36.53125 56 
Q 37.453125 56 38.578125 55.875 
Q 39.703125 55.765625 41.0625 55.515625 
z
" id="DejaVuSans-114"/>
     <path d="M 18.3125 70.21875 
L 18.3125 54.6875 
L 36.8125 54.6875 
L 36.8125 47.703125 
L 18.3125 47.703125 
L 18.3125 18.015625 
Q 18.3125 11.328125 20.140625 9.421875 
Q 21.96875 7.515625 27.59375 7.515625 
L 36.8125 7.515625 
L 36.8125 0 
L 27.59375 0 
Q 17.1875 0 13.234375 3.875 
Q 9.28125 7.765625 9.28125 18.015625 
L 9.28125 47.703125 
L 2.6875 47.703125 
L 2.6875 54.6875 
L 9.28125 54.6875 
L 9.28125 70.21875 
z
" id="DejaVuSans-116"/>
     <path d="M 44.28125 53.078125 
L 44.28125 44.578125 
Q 40.484375 46.53125 36.375 47.5 
Q 32.28125 48.484375 27.875 48.484375 
Q 21.1875 48.484375 17.84375 46.4375 
Q 14.5 44.390625 14.5 40.28125 
Q 14.5 37.15625 16.890625 35.375 
Q 19.28125 33.59375 26.515625 31.984375 
L 29.59375 31.296875 
Q 39.15625 29.25 43.1875 25.515625 
Q 47.21875 21.78125 47.21875 15.09375 
Q 47.21875 7.46875 41.1875 3.015625 
Q 35.15625 -1.421875 24.609375 -1.421875 
Q 20.21875 -1.421875 15.453125 -0.5625 
Q 10.6875 0.296875 5.421875 2 
L 5.421875 11.28125 
Q 10.40625 8.6875 15.234375 7.390625 
Q 20.0625 6.109375 24.8125 6.109375 
Q 31.15625 6.109375 34.5625 8.28125 
Q 37.984375 10.453125 37.984375 14.40625 
Q 37.984375 18.0625 35.515625 20.015625 
Q 33.0625 21.96875 24.703125 23.78125 
L 21.578125 24.515625 
Q 13.234375 26.265625 9.515625 29.90625 
Q 5.8125 33.546875 5.8125 39.890625 
Q 5.8125 47.609375 11.28125 51.796875 
Q 16.75 56 26.8125 56 
Q 31.78125 56 36.171875 55.265625 
Q 40.578125 54.546875 44.28125 53.078125 
z
" id="DejaVuSans-115"/>
     <path d="M 18.109375 8.203125 
L 18.109375 -20.796875 
L 9.078125 -20.796875 
L 9.078125 54.6875 
L 18.109375 54.6875 
L 18.109375 46.390625 
Q 20.953125 51.265625 25.265625 53.625 
Q 29.59375 56 35.59375 56 
Q 45.5625 56 51.78125 48.09375 
Q 58.015625 40.1875 58.015625 27.296875 
Q 58.015625 14.40625 51.78125 6.484375 
Q 45.5625 -1.421875 35.59375 -1.421875 
Q 29.59375 -1.421875 25.265625 0.953125 
Q 20.953125 3.328125 18.109375 8.203125 
z
M 48.6875 27.296875 
Q 48.6875 37.203125 44.609375 42.84375 
Q 40.53125 48.484375 33.40625 48.484375 
Q 26.265625 48.484375 22.1875 42.84375 
Q 18.109375 37.203125 18.109375 27.296875 
Q 18.109375 17.390625 22.1875 11.75 
Q 26.265625 6.109375 33.40625 6.109375 
Q 40.53125 6.109375 44.609375 11.75 
Q 48.6875 17.390625 48.6875 27.296875 
z
" id="DejaVuSans-112"/>
     <path d="M 30.609375 48.390625 
Q 23.390625 48.390625 19.1875 42.75 
Q 14.984375 37.109375 14.984375 27.296875 
Q 14.984375 17.484375 19.15625 11.84375 
Q 23.34375 6.203125 30.609375 6.203125 
Q 37.796875 6.203125 41.984375 11.859375 
Q 46.1875 17.53125 46.1875 27.296875 
Q 46.1875 37.015625 41.984375 42.703125 
Q 37.796875 48.390625 30.609375 48.390625 
z
M 30.609375 56 
Q 42.328125 56 49.015625 48.375 
Q 55.71875 40.765625 55.71875 27.296875 
Q 55.71875 13.875 49.015625 6.21875 
Q 42.328125 -1.421875 30.609375 -1.421875 
Q 18.84375 -1.421875 12.171875 6.21875 
Q 5.515625 13.875 5.515625 27.296875 
Q 5.515625 40.765625 12.171875 48.375 
Q 18.84375 56 30.609375 56 
z
" id="DejaVuSans-111"/>
    </defs>
    <g transform="translate(133.024063 50.8512)scale(0.22 -0.22)">
     <use xlink:href="#DejaVuSans-82"/>
     <use x="69.451172" xlink:href="#DejaVuSans-97"/>
     <use x="130.730469" xlink:href="#DejaVuSans-109"/>
     <use x="228.142578" xlink:href="#DejaVuSans-82"/>
     <use x="297.625" xlink:href="#DejaVuSans-32"/>
     <use x="329.412109" xlink:href="#DejaVuSans-86"/>
     <use x="397.710938" xlink:href="#DejaVuSans-97"/>
     <use x="458.990234" xlink:href="#DejaVuSans-114"/>
     <use x="500.103516" xlink:href="#DejaVuSans-105"/>
     <use x="527.886719" xlink:href="#DejaVuSans-97"/>
     <use x="589.166016" xlink:href="#DejaVuSans-110"/>
     <use x="652.544922" xlink:href="#DejaVuSans-116"/>
     <use x="691.753906" xlink:href="#DejaVuSans-32"/>
     <use x="723.541016" xlink:href="#DejaVuSans-82"/>
     <use x="792.960938" xlink:href="#DejaVuSans-101"/>
     <use x="854.484375" xlink:href="#DejaVuSans-115"/>
     <use x="906.583984" xlink:href="#DejaVuSans-112"/>
     <use x="970.060547" xlink:href="#DejaVuSans-111"/>
     <use x="1031.242188" xlink:href="#DejaVuSans-110"/>
     <use x="1094.621094" xlink:href="#DejaVuSans-115"/>
     <use x="1146.720703" xlink:href="#DejaVuSans-101"/>
     <use x="1208.244141" xlink:href="#DejaVuSans-32"/>
     <use x="1240.03125" xlink:href="#DejaVuSans-116"/>
     <use x="1279.240234" xlink:href="#DejaVuSans-111"/>
     <use x="1340.421875" xlink:href="#DejaVuSans-32"/>
     <use x="1372.208984" xlink:href="#DejaVuSans-71"/>
     <use x="1449.699219" xlink:href="#DejaVuSans-108"/>
     <use x="1477.482422" xlink:href="#DejaVuSans-97"/>
     <use x="1538.761719" xlink:href="#DejaVuSans-117"/>
     <use x="1602.140625" xlink:href="#DejaVuSans-99"/>
     <use x="1657.121094" xlink:href="#DejaVuSans-105"/>
     <use x="1684.904297" xlink:href="#DejaVuSans-110"/>
     <use x="1748.283203" xlink:href="#DejaVuSans-101"/>
    </g>
   </g>
   <g id="legend_1">
    <g id="patch_5">
     <path d="M 91.5 178.937137 
L 190.267969 178.937137 
Q 193.267969 178.937137 193.267969 175.937137 
L 193.267969 67.3512 
Q 193.267969 64.3512 190.267969 64.3512 
L 91.5 64.3512 
Q 88.5 64.3512 88.5 67.3512 
L 88.5 175.937137 
Q 88.5 178.937137 91.5 178.937137 
z
" style="fill:#ffffff;opacity:0.8;stroke:#cccccc;stroke-linejoin:miter;"/>
    </g>
    <g id="line2d_68">
     <path d="M 94.5 76.498856 
L 124.5 76.498856 
" style="fill:none;stroke:#0099ff;stroke-linecap:square;stroke-width:1.5;"/>
    </g>
    <g id="line2d_69"/>
    <g id="text_15">
     <!-- WT -->
     <defs>
      <path d="M 3.328125 72.90625 
L 13.28125 72.90625 
L 28.609375 11.28125 
L 43.890625 72.90625 
L 54.984375 72.90625 
L 70.3125 11.28125 
L 85.59375 72.90625 
L 95.609375 72.90625 
L 77.296875 0 
L 64.890625 0 
L 49.515625 63.28125 
L 33.984375 0 
L 21.578125 0 
z
" id="DejaVuSans-87"/>
      <path d="M -0.296875 72.90625 
L 61.375 72.90625 
L 61.375 64.59375 
L 35.5 64.59375 
L 35.5 0 
L 25.59375 0 
L 25.59375 64.59375 
L -0.296875 64.59375 
z
" id="DejaVuSans-84"/>
     </defs>
     <g transform="translate(136.5 81.748856)scale(0.15 -0.15)">
      <use xlink:href="#DejaVuSans-87"/>
      <use x="98.876953" xlink:href="#DejaVuSans-84"/>
     </g>
    </g>
    <g id="line2d_70">
     <path d="M 94.5 98.516044 
L 124.5 98.516044 
" style="fill:none;stroke:#3372cc;stroke-linecap:square;stroke-width:1.5;"/>
    </g>
    <g id="line2d_71"/>
    <g id="text_16">
     <!-- GLAU1 -->
     <defs>
      <path d="M 9.8125 72.90625 
L 19.671875 72.90625 
L 19.671875 8.296875 
L 55.171875 8.296875 
L 55.171875 0 
L 9.8125 0 
z
" id="DejaVuSans-76"/>
      <path d="M 34.1875 63.1875 
L 20.796875 26.90625 
L 47.609375 26.90625 
z
M 28.609375 72.90625 
L 39.796875 72.90625 
L 67.578125 0 
L 57.328125 0 
L 50.6875 18.703125 
L 17.828125 18.703125 
L 11.1875 0 
L 0.78125 0 
z
" id="DejaVuSans-65"/>
      <path d="M 8.6875 72.90625 
L 18.609375 72.90625 
L 18.609375 28.609375 
Q 18.609375 16.890625 22.84375 11.734375 
Q 27.09375 6.59375 36.625 6.59375 
Q 46.09375 6.59375 50.34375 11.734375 
Q 54.59375 16.890625 54.59375 28.609375 
L 54.59375 72.90625 
L 64.5 72.90625 
L 64.5 27.390625 
Q 64.5 13.140625 57.4375 5.859375 
Q 50.390625 -1.421875 36.625 -1.421875 
Q 22.796875 -1.421875 15.734375 5.859375 
Q 8.6875 13.140625 8.6875 27.390625 
z
" id="DejaVuSans-85"/>
     </defs>
     <g transform="translate(136.5 103.766044)scale(0.15 -0.15)">
      <use xlink:href="#DejaVuSans-71"/>
      <use x="77.490234" xlink:href="#DejaVuSans-76"/>
      <use x="133.234375" xlink:href="#DejaVuSans-65"/>
      <use x="201.642578" xlink:href="#DejaVuSans-85"/>
      <use x="274.835938" xlink:href="#DejaVuSans-49"/>
     </g>
    </g>
    <g id="line2d_72">
     <path d="M 94.5 120.533231 
L 124.5 120.533231 
" style="fill:none;stroke:#674c9a;stroke-linecap:square;stroke-width:1.5;"/>
    </g>
    <g id="line2d_73"/>
    <g id="text_17">
     <!-- GLAU2 -->
     <g transform="translate(136.5 125.783231)scale(0.15 -0.15)">
      <use xlink:href="#DejaVuSans-71"/>
      <use x="77.490234" xlink:href="#DejaVuSans-76"/>
      <use x="133.234375" xlink:href="#DejaVuSans-65"/>
      <use x="201.642578" xlink:href="#DejaVuSans-85"/>
      <use x="274.835938" xlink:href="#DejaVuSans-50"/>
     </g>
    </g>
    <g id="line2d_74">
     <path d="M 94.5 142.550419 
L 124.5 142.550419 
" style="fill:none;stroke:#9a2667;stroke-linecap:square;stroke-width:1.5;"/>
    </g>
    <g id="line2d_75"/>
    <g id="text_18">
     <!-- GLAU3 -->
     <g transform="translate(136.5 147.800419)scale(0.15 -0.15)">
      <use xlink:href="#DejaVuSans-71"/>
      <use x="77.490234" xlink:href="#DejaVuSans-76"/>
      <use x="133.234375" xlink:href="#DejaVuSans-65"/>
      <use x="201.642578" xlink:href="#DejaVuSans-85"/>
      <use x="274.835938" xlink:href="#DejaVuSans-51"/>
     </g>
    </g>
    <g id="line2d_76">
     <path d="M 94.5 164.567606 
L 124.5 164.567606 
" style="fill:none;stroke:#ce0035;stroke-linecap:square;stroke-width:1.5;"/>
    </g>
    <g id="line2d_77"/>
    <g id="text_19">
     <!-- GLAU4 -->
     <g transform="translate(136.5 169.817606)scale(0.15 -0.15)">
      <use xlink:href="#DejaVuSans-71"/>
      <use x="77.490234" xlink:href="#DejaVuSans-76"/>
      <use x="133.234375" xlink:href="#DejaVuSans-65"/>
      <use x="201.642578" xlink:href="#DejaVuSans-85"/>
      <use x="274.835938" xlink:href="#DejaVuSans-52"/>
     </g>
    </g>
   </g>
  </g>
 </g>
 <defs>
  <clipPath id="p3f5501b8e5">
   <rect height="364.7952" width="502.2" x="81" y="56.8512"/>
  </clipPath>
 </defs>
</svg>
