<?xml version="1.0" encoding="utf-8" standalone="no"?>
<!DOCTYPE svg PUBLIC "-//W3C//DTD SVG 1.1//EN"
  "http://www.w3.org/Graphics/SVG/1.1/DTD/svg11.dtd">
<!-- Created with matplotlib (https://matplotlib.org/) -->
<svg height="473.76pt" version="1.1" viewBox="0 0 648 473.76" width="648pt" xmlns="http://www.w3.org/2000/svg" xmlns:xlink="http://www.w3.org/1999/xlink">
 <defs>
  <style type="text/css">
*{stroke-linecap:butt;stroke-linejoin:round;}
  </style>
 </defs>
 <g id="figure_1">
  <g id="patch_1">
   <path d="M 0 473.76 
L 648 473.76 
L 648 0 
L 0 0 
z
" style="fill:#ffffff;"/>
  </g>
  <g id="axes_1">
   <g id="patch_2">
    <path d="M 81 331.632 
L 583.2 331.632 
L 583.2 56.8512 
L 81 56.8512 
z
" style="fill:#ffffff;"/>
   </g>
   <g id="table_1">
    <g id="patch_3">
     <path d="M 106.11 423.2256 
L 231.66 423.2256 
L 231.66 400.3272 
L 106.11 400.3272 
z
" style="fill:#0ad12e;stroke:#000000;stroke-linejoin:miter;"/>
    </g>
    <g id="text_1">
     <!-- WT -->
     <defs>
      <path d="M 3.328125 72.90625 
L 13.28125 72.90625 
L 28.609375 11.28125 
L 43.890625 72.90625 
L 54.984375 72.90625 
L 70.3125 11.28125 
L 85.59375 72.90625 
L 95.609375 72.90625 
L 77.296875 0 
L 64.890625 0 
L 49.515625 63.28125 
L 33.984375 0 
L 21.578125 0 
z
" id="DejaVuSans-87"/>
      <path d="M -0.296875 72.90625 
L 61.375 72.90625 
L 61.375 64.59375 
L 35.5 64.59375 
L 35.5 0 
L 25.59375 0 
L 25.59375 64.59375 
L -0.296875 64.59375 
z
" id="DejaVuSans-84"/>
     </defs>
     <g transform="translate(159.287813 415.08765)scale(0.12 -0.12)">
      <use xlink:href="#DejaVuSans-87"/>
      <use x="98.876953" xlink:href="#DejaVuSans-84"/>
     </g>
    </g>
    <g id="patch_4">
     <path d="M 231.66 423.2256 
L 357.21 423.2256 
L 357.21 400.3272 
L 231.66 400.3272 
z
" style="fill:#0a95d1;stroke:#000000;stroke-linejoin:miter;"/>
    </g>
    <g id="text_2">
     <!-- GLAU1.1 -->
     <defs>
      <path d="M 59.515625 10.40625 
L 59.515625 29.984375 
L 43.40625 29.984375 
L 43.40625 38.09375 
L 69.28125 38.09375 
L 69.28125 6.78125 
Q 63.578125 2.734375 56.6875 0.65625 
Q 49.8125 -1.421875 42 -1.421875 
Q 24.90625 -1.421875 15.25 8.5625 
Q 5.609375 18.5625 5.609375 36.375 
Q 5.609375 54.25 15.25 64.234375 
Q 24.90625 74.21875 42 74.21875 
Q 49.125 74.21875 55.546875 72.453125 
Q 61.96875 70.703125 67.390625 67.28125 
L 67.390625 56.78125 
Q 61.921875 61.421875 55.765625 63.765625 
Q 49.609375 66.109375 42.828125 66.109375 
Q 29.4375 66.109375 22.71875 58.640625 
Q 16.015625 51.171875 16.015625 36.375 
Q 16.015625 21.625 22.71875 14.15625 
Q 29.4375 6.6875 42.828125 6.6875 
Q 48.046875 6.6875 52.140625 7.59375 
Q 56.25 8.5 59.515625 10.40625 
z
" id="DejaVuSans-71"/>
      <path d="M 9.8125 72.90625 
L 19.671875 72.90625 
L 19.671875 8.296875 
L 55.171875 8.296875 
L 55.171875 0 
L 9.8125 0 
z
" id="DejaVuSans-76"/>
      <path d="M 34.1875 63.1875 
L 20.796875 26.90625 
L 47.609375 26.90625 
z
M 28.609375 72.90625 
L 39.796875 72.90625 
L 67.578125 0 
L 57.328125 0 
L 50.6875 18.703125 
L 17.828125 18.703125 
L 11.1875 0 
L 0.78125 0 
z
" id="DejaVuSans-65"/>
      <path d="M 8.6875 72.90625 
L 18.609375 72.90625 
L 18.609375 28.609375 
Q 18.609375 16.890625 22.84375 11.734375 
Q 27.09375 6.59375 36.625 6.59375 
Q 46.09375 6.59375 50.34375 11.734375 
Q 54.59375 16.890625 54.59375 28.609375 
L 54.59375 72.90625 
L 64.5 72.90625 
L 64.5 27.390625 
Q 64.5 13.140625 57.4375 5.859375 
Q 50.390625 -1.421875 36.625 -1.421875 
Q 22.796875 -1.421875 15.734375 5.859375 
Q 8.6875 13.140625 8.6875 27.390625 
z
" id="DejaVuSans-85"/>
      <path d="M 12.40625 8.296875 
L 28.515625 8.296875 
L 28.515625 63.921875 
L 10.984375 60.40625 
L 10.984375 69.390625 
L 28.421875 72.90625 
L 38.28125 72.90625 
L 38.28125 8.296875 
L 54.390625 8.296875 
L 54.390625 0 
L 12.40625 0 
z
" id="DejaVuSans-49"/>
      <path d="M 10.6875 12.40625 
L 21 12.40625 
L 21 0 
L 10.6875 0 
z
" id="DejaVuSans-46"/>
     </defs>
     <g transform="translate(268.403438 415.08765)scale(0.12 -0.12)">
      <use xlink:href="#DejaVuSans-71"/>
      <use x="77.490234" xlink:href="#DejaVuSans-76"/>
      <use x="133.234375" xlink:href="#DejaVuSans-65"/>
      <use x="201.642578" xlink:href="#DejaVuSans-85"/>
      <use x="274.835938" xlink:href="#DejaVuSans-49"/>
      <use x="338.458984" xlink:href="#DejaVuSans-46"/>
      <use x="370.246094" xlink:href="#DejaVuSans-49"/>
     </g>
    </g>
    <g id="patch_5">
     <path d="M 357.21 423.2256 
L 482.76 423.2256 
L 482.76 400.3272 
L 357.21 400.3272 
z
" style="fill:#710ad1;stroke:#000000;stroke-linejoin:miter;"/>
    </g>
    <g id="text_3">
     <!-- GLAU1.2 -->
     <defs>
      <path d="M 19.1875 8.296875 
L 53.609375 8.296875 
L 53.609375 0 
L 7.328125 0 
L 7.328125 8.296875 
Q 12.9375 14.109375 22.625 23.890625 
Q 32.328125 33.6875 34.8125 36.53125 
Q 39.546875 41.84375 41.421875 45.53125 
Q 43.3125 49.21875 43.3125 52.78125 
Q 43.3125 58.59375 39.234375 62.25 
Q 35.15625 65.921875 28.609375 65.921875 
Q 23.96875 65.921875 18.8125 64.3125 
Q 13.671875 62.703125 7.8125 59.421875 
L 7.8125 69.390625 
Q 13.765625 71.78125 18.9375 73 
Q 24.125 74.21875 28.421875 74.21875 
Q 39.75 74.21875 46.484375 68.546875 
Q 53.21875 62.890625 53.21875 53.421875 
Q 53.21875 48.921875 51.53125 44.890625 
Q 49.859375 40.875 45.40625 35.40625 
Q 44.1875 33.984375 37.640625 27.21875 
Q 31.109375 20.453125 19.1875 8.296875 
z
" id="DejaVuSans-50"/>
     </defs>
     <g transform="translate(393.953438 415.08765)scale(0.12 -0.12)">
      <use xlink:href="#DejaVuSans-71"/>
      <use x="77.490234" xlink:href="#DejaVuSans-76"/>
      <use x="133.234375" xlink:href="#DejaVuSans-65"/>
      <use x="201.642578" xlink:href="#DejaVuSans-85"/>
      <use x="274.835938" xlink:href="#DejaVuSans-49"/>
      <use x="338.458984" xlink:href="#DejaVuSans-46"/>
      <use x="370.246094" xlink:href="#DejaVuSans-50"/>
     </g>
    </g>
    <g id="patch_6">
     <path d="M 482.76 423.2256 
L 608.31 423.2256 
L 608.31 400.3272 
L 482.76 400.3272 
z
" style="fill:#d10a7b;stroke:#000000;stroke-linejoin:miter;"/>
    </g>
    <g id="text_4">
     <!-- GLAU1.3 -->
     <defs>
      <path d="M 40.578125 39.3125 
Q 47.65625 37.796875 51.625 33 
Q 55.609375 28.21875 55.609375 21.1875 
Q 55.609375 10.40625 48.1875 4.484375 
Q 40.765625 -1.421875 27.09375 -1.421875 
Q 22.515625 -1.421875 17.65625 -0.515625 
Q 12.796875 0.390625 7.625 2.203125 
L 7.625 11.71875 
Q 11.71875 9.328125 16.59375 8.109375 
Q 21.484375 6.890625 26.8125 6.890625 
Q 36.078125 6.890625 40.9375 10.546875 
Q 45.796875 14.203125 45.796875 21.1875 
Q 45.796875 27.640625 41.28125 31.265625 
Q 36.765625 34.90625 28.71875 34.90625 
L 20.21875 34.90625 
L 20.21875 43.015625 
L 29.109375 43.015625 
Q 36.375 43.015625 40.234375 45.921875 
Q 44.09375 48.828125 44.09375 54.296875 
Q 44.09375 59.90625 40.109375 62.90625 
Q 36.140625 65.921875 28.71875 65.921875 
Q 24.65625 65.921875 20.015625 65.03125 
Q 15.375 64.15625 9.8125 62.3125 
L 9.8125 71.09375 
Q 15.4375 72.65625 20.34375 73.4375 
Q 25.25 74.21875 29.59375 74.21875 
Q 40.828125 74.21875 47.359375 69.109375 
Q 53.90625 64.015625 53.90625 55.328125 
Q 53.90625 49.265625 50.4375 45.09375 
Q 46.96875 40.921875 40.578125 39.3125 
z
" id="DejaVuSans-51"/>
     </defs>
     <g transform="translate(519.503438 415.08765)scale(0.12 -0.12)">
      <use xlink:href="#DejaVuSans-71"/>
      <use x="77.490234" xlink:href="#DejaVuSans-76"/>
      <use x="133.234375" xlink:href="#DejaVuSans-65"/>
      <use x="201.642578" xlink:href="#DejaVuSans-85"/>
      <use x="274.835938" xlink:href="#DejaVuSans-49"/>
      <use x="338.458984" xlink:href="#DejaVuSans-46"/>
      <use x="370.246094" xlink:href="#DejaVuSans-51"/>
     </g>
    </g>
    <g id="patch_7">
     <path d="M 19.88775 446.124 
L 106.11 446.124 
L 106.11 423.2256 
L 19.88775 423.2256 
z
" style="fill:#ffffff;stroke:#000000;stroke-linejoin:miter;"/>
    </g>
    <g id="text_5">
     <!-- EC50 -->
     <defs>
      <path d="M 9.8125 72.90625 
L 55.90625 72.90625 
L 55.90625 64.59375 
L 19.671875 64.59375 
L 19.671875 43.015625 
L 54.390625 43.015625 
L 54.390625 34.71875 
L 19.671875 34.71875 
L 19.671875 8.296875 
L 56.78125 8.296875 
L 56.78125 0 
L 9.8125 0 
z
" id="DejaVuSans-69"/>
      <path d="M 64.40625 67.28125 
L 64.40625 56.890625 
Q 59.421875 61.53125 53.78125 63.8125 
Q 48.140625 66.109375 41.796875 66.109375 
Q 29.296875 66.109375 22.65625 58.46875 
Q 16.015625 50.828125 16.015625 36.375 
Q 16.015625 21.96875 22.65625 14.328125 
Q 29.296875 6.6875 41.796875 6.6875 
Q 48.140625 6.6875 53.78125 8.984375 
Q 59.421875 11.28125 64.40625 15.921875 
L 64.40625 5.609375 
Q 59.234375 2.09375 53.4375 0.328125 
Q 47.65625 -1.421875 41.21875 -1.421875 
Q 24.65625 -1.421875 15.125 8.703125 
Q 5.609375 18.84375 5.609375 36.375 
Q 5.609375 53.953125 15.125 64.078125 
Q 24.65625 74.21875 41.21875 74.21875 
Q 47.75 74.21875 53.53125 72.484375 
Q 59.328125 70.75 64.40625 67.28125 
z
" id="DejaVuSans-67"/>
      <path d="M 10.796875 72.90625 
L 49.515625 72.90625 
L 49.515625 64.59375 
L 19.828125 64.59375 
L 19.828125 46.734375 
Q 21.96875 47.46875 24.109375 47.828125 
Q 26.265625 48.1875 28.421875 48.1875 
Q 40.625 48.1875 47.75 41.5 
Q 54.890625 34.8125 54.890625 23.390625 
Q 54.890625 11.625 47.5625 5.09375 
Q 40.234375 -1.421875 26.90625 -1.421875 
Q 22.3125 -1.421875 17.546875 -0.640625 
Q 12.796875 0.140625 7.71875 1.703125 
L 7.71875 11.625 
Q 12.109375 9.234375 16.796875 8.0625 
Q 21.484375 6.890625 26.703125 6.890625 
Q 35.15625 6.890625 40.078125 11.328125 
Q 45.015625 15.765625 45.015625 23.390625 
Q 45.015625 31 40.078125 35.4375 
Q 35.15625 39.890625 26.703125 39.890625 
Q 22.75 39.890625 18.8125 39.015625 
Q 14.890625 38.140625 10.796875 36.28125 
z
" id="DejaVuSans-53"/>
      <path d="M 31.78125 66.40625 
Q 24.171875 66.40625 20.328125 58.90625 
Q 16.5 51.421875 16.5 36.375 
Q 16.5 21.390625 20.328125 13.890625 
Q 24.171875 6.390625 31.78125 6.390625 
Q 39.453125 6.390625 43.28125 13.890625 
Q 47.125 21.390625 47.125 36.375 
Q 47.125 51.421875 43.28125 58.90625 
Q 39.453125 66.40625 31.78125 66.40625 
z
M 31.78125 74.21875 
Q 44.046875 74.21875 50.515625 64.515625 
Q 56.984375 54.828125 56.984375 36.375 
Q 56.984375 17.96875 50.515625 8.265625 
Q 44.046875 -1.421875 31.78125 -1.421875 
Q 19.53125 -1.421875 13.0625 8.265625 
Q 6.59375 17.96875 6.59375 36.375 
Q 6.59375 54.828125 13.0625 64.515625 
Q 19.53125 74.21875 31.78125 74.21875 
z
" id="DejaVuSans-48"/>
     </defs>
     <g transform="translate(28.509975 437.98605)scale(0.12 -0.12)">
      <use xlink:href="#DejaVuSans-69"/>
      <use x="63.183594" xlink:href="#DejaVuSans-67"/>
      <use x="133.007812" xlink:href="#DejaVuSans-53"/>
      <use x="196.630859" xlink:href="#DejaVuSans-48"/>
     </g>
    </g>
    <g id="patch_8">
     <path d="M 106.11 446.124 
L 231.66 446.124 
L 231.66 423.2256 
L 106.11 423.2256 
z
" style="fill:#ffffff;stroke:#000000;stroke-linejoin:miter;"/>
    </g>
    <g id="text_6">
     <!-- N/A -->
     <defs>
      <path d="M 9.8125 72.90625 
L 23.09375 72.90625 
L 55.421875 11.921875 
L 55.421875 72.90625 
L 64.984375 72.90625 
L 64.984375 0 
L 51.703125 0 
L 19.390625 60.984375 
L 19.390625 0 
L 9.8125 0 
z
" id="DejaVuSans-78"/>
      <path d="M 25.390625 72.90625 
L 33.6875 72.90625 
L 8.296875 -9.28125 
L 0 -9.28125 
z
" id="DejaVuSans-47"/>
     </defs>
     <g transform="translate(197.87625 437.98605)scale(0.12 -0.12)">
      <use xlink:href="#DejaVuSans-78"/>
      <use x="74.804688" xlink:href="#DejaVuSans-47"/>
      <use x="108.496094" xlink:href="#DejaVuSans-65"/>
     </g>
    </g>
    <g id="patch_9">
     <path d="M 231.66 446.124 
L 357.21 446.124 
L 357.21 423.2256 
L 231.66 423.2256 
z
" style="fill:#ffffff;stroke:#000000;stroke-linejoin:miter;"/>
    </g>
    <g id="text_7">
     <!-- N/A -->
     <g transform="translate(323.42625 437.98605)scale(0.12 -0.12)">
      <use xlink:href="#DejaVuSans-78"/>
      <use x="74.804688" xlink:href="#DejaVuSans-47"/>
      <use x="108.496094" xlink:href="#DejaVuSans-65"/>
     </g>
    </g>
    <g id="patch_10">
     <path d="M 357.21 446.124 
L 482.76 446.124 
L 482.76 423.2256 
L 357.21 423.2256 
z
" style="fill:#ffffff;stroke:#000000;stroke-linejoin:miter;"/>
    </g>
    <g id="text_8">
     <!-- N/A -->
     <g transform="translate(448.97625 437.98605)scale(0.12 -0.12)">
      <use xlink:href="#DejaVuSans-78"/>
      <use x="74.804688" xlink:href="#DejaVuSans-47"/>
      <use x="108.496094" xlink:href="#DejaVuSans-65"/>
     </g>
    </g>
    <g id="patch_11">
     <path d="M 482.76 446.124 
L 608.31 446.124 
L 608.31 423.2256 
L 482.76 423.2256 
z
" style="fill:#ffffff;stroke:#000000;stroke-linejoin:miter;"/>
    </g>
    <g id="text_9">
     <!-- N/A -->
     <g transform="translate(574.52625 437.98605)scale(0.12 -0.12)">
      <use xlink:href="#DejaVuSans-78"/>
      <use x="74.804688" xlink:href="#DejaVuSans-47"/>
      <use x="108.496094" xlink:href="#DejaVuSans-65"/>
     </g>
    </g>
    <g id="patch_12">
     <path d="M 19.88775 469.0224 
L 106.11 469.0224 
L 106.11 446.124 
L 19.88775 446.124 
z
" style="fill:#ffffff;stroke:#000000;stroke-linejoin:miter;"/>
    </g>
    <g id="text_10">
     <!-- Background -->
     <defs>
      <path d="M 19.671875 34.8125 
L 19.671875 8.109375 
L 35.5 8.109375 
Q 43.453125 8.109375 47.28125 11.40625 
Q 51.125 14.703125 51.125 21.484375 
Q 51.125 28.328125 47.28125 31.5625 
Q 43.453125 34.8125 35.5 34.8125 
z
M 19.671875 64.796875 
L 19.671875 42.828125 
L 34.28125 42.828125 
Q 41.5 42.828125 45.03125 45.53125 
Q 48.578125 48.25 48.578125 53.8125 
Q 48.578125 59.328125 45.03125 62.0625 
Q 41.5 64.796875 34.28125 64.796875 
z
M 9.8125 72.90625 
L 35.015625 72.90625 
Q 46.296875 72.90625 52.390625 68.21875 
Q 58.5 63.53125 58.5 54.890625 
Q 58.5 48.1875 55.375 44.234375 
Q 52.25 40.28125 46.1875 39.3125 
Q 53.46875 37.75 57.5 32.78125 
Q 61.53125 27.828125 61.53125 20.40625 
Q 61.53125 10.640625 54.890625 5.3125 
Q 48.25 0 35.984375 0 
L 9.8125 0 
z
" id="DejaVuSans-66"/>
      <path d="M 34.28125 27.484375 
Q 23.390625 27.484375 19.1875 25 
Q 14.984375 22.515625 14.984375 16.5 
Q 14.984375 11.71875 18.140625 8.90625 
Q 21.296875 6.109375 26.703125 6.109375 
Q 34.1875 6.109375 38.703125 11.40625 
Q 43.21875 16.703125 43.21875 25.484375 
L 43.21875 27.484375 
z
M 52.203125 31.203125 
L 52.203125 0 
L 43.21875 0 
L 43.21875 8.296875 
Q 40.140625 3.328125 35.546875 0.953125 
Q 30.953125 -1.421875 24.3125 -1.421875 
Q 15.921875 -1.421875 10.953125 3.296875 
Q 6 8.015625 6 15.921875 
Q 6 25.140625 12.171875 29.828125 
Q 18.359375 34.515625 30.609375 34.515625 
L 43.21875 34.515625 
L 43.21875 35.40625 
Q 43.21875 41.609375 39.140625 45 
Q 35.0625 48.390625 27.6875 48.390625 
Q 23 48.390625 18.546875 47.265625 
Q 14.109375 46.140625 10.015625 43.890625 
L 10.015625 52.203125 
Q 14.9375 54.109375 19.578125 55.046875 
Q 24.21875 56 28.609375 56 
Q 40.484375 56 46.34375 49.84375 
Q 52.203125 43.703125 52.203125 31.203125 
z
" id="DejaVuSans-97"/>
      <path d="M 48.78125 52.59375 
L 48.78125 44.1875 
Q 44.96875 46.296875 41.140625 47.34375 
Q 37.3125 48.390625 33.40625 48.390625 
Q 24.65625 48.390625 19.8125 42.84375 
Q 14.984375 37.3125 14.984375 27.296875 
Q 14.984375 17.28125 19.8125 11.734375 
Q 24.65625 6.203125 33.40625 6.203125 
Q 37.3125 6.203125 41.140625 7.25 
Q 44.96875 8.296875 48.78125 10.40625 
L 48.78125 2.09375 
Q 45.015625 0.34375 40.984375 -0.53125 
Q 36.96875 -1.421875 32.421875 -1.421875 
Q 20.0625 -1.421875 12.78125 6.34375 
Q 5.515625 14.109375 5.515625 27.296875 
Q 5.515625 40.671875 12.859375 48.328125 
Q 20.21875 56 33.015625 56 
Q 37.15625 56 41.109375 55.140625 
Q 45.0625 54.296875 48.78125 52.59375 
z
" id="DejaVuSans-99"/>
      <path d="M 9.078125 75.984375 
L 18.109375 75.984375 
L 18.109375 31.109375 
L 44.921875 54.6875 
L 56.390625 54.6875 
L 27.390625 29.109375 
L 57.625 0 
L 45.90625 0 
L 18.109375 26.703125 
L 18.109375 0 
L 9.078125 0 
z
" id="DejaVuSans-107"/>
      <path d="M 45.40625 27.984375 
Q 45.40625 37.75 41.375 43.109375 
Q 37.359375 48.484375 30.078125 48.484375 
Q 22.859375 48.484375 18.828125 43.109375 
Q 14.796875 37.75 14.796875 27.984375 
Q 14.796875 18.265625 18.828125 12.890625 
Q 22.859375 7.515625 30.078125 7.515625 
Q 37.359375 7.515625 41.375 12.890625 
Q 45.40625 18.265625 45.40625 27.984375 
z
M 54.390625 6.78125 
Q 54.390625 -7.171875 48.1875 -13.984375 
Q 42 -20.796875 29.203125 -20.796875 
Q 24.46875 -20.796875 20.265625 -20.09375 
Q 16.0625 -19.390625 12.109375 -17.921875 
L 12.109375 -9.1875 
Q 16.0625 -11.328125 19.921875 -12.34375 
Q 23.78125 -13.375 27.78125 -13.375 
Q 36.625 -13.375 41.015625 -8.765625 
Q 45.40625 -4.15625 45.40625 5.171875 
L 45.40625 9.625 
Q 42.625 4.78125 38.28125 2.390625 
Q 33.9375 0 27.875 0 
Q 17.828125 0 11.671875 7.65625 
Q 5.515625 15.328125 5.515625 27.984375 
Q 5.515625 40.671875 11.671875 48.328125 
Q 17.828125 56 27.875 56 
Q 33.9375 56 38.28125 53.609375 
Q 42.625 51.21875 45.40625 46.390625 
L 45.40625 54.6875 
L 54.390625 54.6875 
z
" id="DejaVuSans-103"/>
      <path d="M 41.109375 46.296875 
Q 39.59375 47.171875 37.8125 47.578125 
Q 36.03125 48 33.890625 48 
Q 26.265625 48 22.1875 43.046875 
Q 18.109375 38.09375 18.109375 28.8125 
L 18.109375 0 
L 9.078125 0 
L 9.078125 54.6875 
L 18.109375 54.6875 
L 18.109375 46.1875 
Q 20.953125 51.171875 25.484375 53.578125 
Q 30.03125 56 36.53125 56 
Q 37.453125 56 38.578125 55.875 
Q 39.703125 55.765625 41.0625 55.515625 
z
" id="DejaVuSans-114"/>
      <path d="M 30.609375 48.390625 
Q 23.390625 48.390625 19.1875 42.75 
Q 14.984375 37.109375 14.984375 27.296875 
Q 14.984375 17.484375 19.15625 11.84375 
Q 23.34375 6.203125 30.609375 6.203125 
Q 37.796875 6.203125 41.984375 11.859375 
Q 46.1875 17.53125 46.1875 27.296875 
Q 46.1875 37.015625 41.984375 42.703125 
Q 37.796875 48.390625 30.609375 48.390625 
z
M 30.609375 56 
Q 42.328125 56 49.015625 48.375 
Q 55.71875 40.765625 55.71875 27.296875 
Q 55.71875 13.875 49.015625 6.21875 
Q 42.328125 -1.421875 30.609375 -1.421875 
Q 18.84375 -1.421875 12.171875 6.21875 
Q 5.515625 13.875 5.515625 27.296875 
Q 5.515625 40.765625 12.171875 48.375 
Q 18.84375 56 30.609375 56 
z
" id="DejaVuSans-111"/>
      <path d="M 8.5 21.578125 
L 8.5 54.6875 
L 17.484375 54.6875 
L 17.484375 21.921875 
Q 17.484375 14.15625 20.5 10.265625 
Q 23.53125 6.390625 29.59375 6.390625 
Q 36.859375 6.390625 41.078125 11.03125 
Q 45.3125 15.671875 45.3125 23.6875 
L 45.3125 54.6875 
L 54.296875 54.6875 
L 54.296875 0 
L 45.3125 0 
L 45.3125 8.40625 
Q 42.046875 3.421875 37.71875 1 
Q 33.40625 -1.421875 27.6875 -1.421875 
Q 18.265625 -1.421875 13.375 4.4375 
Q 8.5 10.296875 8.5 21.578125 
z
M 31.109375 56 
z
" id="DejaVuSans-117"/>
      <path d="M 54.890625 33.015625 
L 54.890625 0 
L 45.90625 0 
L 45.90625 32.71875 
Q 45.90625 40.484375 42.875 44.328125 
Q 39.84375 48.1875 33.796875 48.1875 
Q 26.515625 48.1875 22.3125 43.546875 
Q 18.109375 38.921875 18.109375 30.90625 
L 18.109375 0 
L 9.078125 0 
L 9.078125 54.6875 
L 18.109375 54.6875 
L 18.109375 46.1875 
Q 21.34375 51.125 25.703125 53.5625 
Q 30.078125 56 35.796875 56 
Q 45.21875 56 50.046875 50.171875 
Q 54.890625 44.34375 54.890625 33.015625 
z
" id="DejaVuSans-110"/>
      <path d="M 45.40625 46.390625 
L 45.40625 75.984375 
L 54.390625 75.984375 
L 54.390625 0 
L 45.40625 0 
L 45.40625 8.203125 
Q 42.578125 3.328125 38.25 0.953125 
Q 33.9375 -1.421875 27.875 -1.421875 
Q 17.96875 -1.421875 11.734375 6.484375 
Q 5.515625 14.40625 5.515625 27.296875 
Q 5.515625 40.1875 11.734375 48.09375 
Q 17.96875 56 27.875 56 
Q 33.9375 56 38.25 53.625 
Q 42.578125 51.265625 45.40625 46.390625 
z
M 14.796875 27.296875 
Q 14.796875 17.390625 18.875 11.75 
Q 22.953125 6.109375 30.078125 6.109375 
Q 37.203125 6.109375 41.296875 11.75 
Q 45.40625 17.390625 45.40625 27.296875 
Q 45.40625 37.203125 41.296875 42.84375 
Q 37.203125 48.484375 30.078125 48.484375 
Q 22.953125 48.484375 18.875 42.84375 
Q 14.796875 37.203125 14.796875 27.296875 
z
" id="DejaVuSans-100"/>
     </defs>
     <g transform="translate(28.509975 460.88445)scale(0.12 -0.12)">
      <use xlink:href="#DejaVuSans-66"/>
      <use x="68.603516" xlink:href="#DejaVuSans-97"/>
      <use x="129.882812" xlink:href="#DejaVuSans-99"/>
      <use x="184.863281" xlink:href="#DejaVuSans-107"/>
      <use x="242.773438" xlink:href="#DejaVuSans-103"/>
      <use x="306.25" xlink:href="#DejaVuSans-114"/>
      <use x="347.332031" xlink:href="#DejaVuSans-111"/>
      <use x="408.513672" xlink:href="#DejaVuSans-117"/>
      <use x="471.892578" xlink:href="#DejaVuSans-110"/>
      <use x="535.271484" xlink:href="#DejaVuSans-100"/>
     </g>
    </g>
    <g id="patch_13">
     <path d="M 106.11 469.0224 
L 231.66 469.0224 
L 231.66 446.124 
L 106.11 446.124 
z
" style="fill:#ffffff;stroke:#000000;stroke-linejoin:miter;"/>
    </g>
    <g id="text_11">
     <!-- 2203.5 +/- 157.0 -->
     <defs>
      <path id="DejaVuSans-32"/>
      <path d="M 46 62.703125 
L 46 35.5 
L 73.1875 35.5 
L 73.1875 27.203125 
L 46 27.203125 
L 46 0 
L 37.796875 0 
L 37.796875 27.203125 
L 10.59375 27.203125 
L 10.59375 35.5 
L 37.796875 35.5 
L 37.796875 62.703125 
z
" id="DejaVuSans-43"/>
      <path d="M 4.890625 31.390625 
L 31.203125 31.390625 
L 31.203125 23.390625 
L 4.890625 23.390625 
z
" id="DejaVuSans-45"/>
      <path d="M 8.203125 72.90625 
L 55.078125 72.90625 
L 55.078125 68.703125 
L 28.609375 0 
L 18.3125 0 
L 43.21875 64.59375 
L 8.203125 64.59375 
z
" id="DejaVuSans-55"/>
     </defs>
     <g transform="translate(116.7075 460.88445)scale(0.12 -0.12)">
      <use xlink:href="#DejaVuSans-50"/>
      <use x="63.623047" xlink:href="#DejaVuSans-50"/>
      <use x="127.246094" xlink:href="#DejaVuSans-48"/>
      <use x="190.869141" xlink:href="#DejaVuSans-51"/>
      <use x="254.492188" xlink:href="#DejaVuSans-46"/>
      <use x="286.279297" xlink:href="#DejaVuSans-53"/>
      <use x="349.902344" xlink:href="#DejaVuSans-32"/>
      <use x="381.689453" xlink:href="#DejaVuSans-43"/>
      <use x="465.478516" xlink:href="#DejaVuSans-47"/>
      <use x="499.169922" xlink:href="#DejaVuSans-45"/>
      <use x="535.253906" xlink:href="#DejaVuSans-32"/>
      <use x="567.041016" xlink:href="#DejaVuSans-49"/>
      <use x="630.664062" xlink:href="#DejaVuSans-53"/>
      <use x="694.287109" xlink:href="#DejaVuSans-55"/>
      <use x="757.910156" xlink:href="#DejaVuSans-46"/>
      <use x="789.697266" xlink:href="#DejaVuSans-48"/>
     </g>
    </g>
    <g id="patch_14">
     <path d="M 231.66 469.0224 
L 357.21 469.0224 
L 357.21 446.124 
L 231.66 446.124 
z
" style="fill:#ffffff;stroke:#000000;stroke-linejoin:miter;"/>
    </g>
    <g id="text_12">
     <!-- 2490.7 +/- 364.4 -->
     <defs>
      <path d="M 37.796875 64.3125 
L 12.890625 25.390625 
L 37.796875 25.390625 
z
M 35.203125 72.90625 
L 47.609375 72.90625 
L 47.609375 25.390625 
L 58.015625 25.390625 
L 58.015625 17.1875 
L 47.609375 17.1875 
L 47.609375 0 
L 37.796875 0 
L 37.796875 17.1875 
L 4.890625 17.1875 
L 4.890625 26.703125 
z
" id="DejaVuSans-52"/>
      <path d="M 10.984375 1.515625 
L 10.984375 10.5 
Q 14.703125 8.734375 18.5 7.8125 
Q 22.3125 6.890625 25.984375 6.890625 
Q 35.75 6.890625 40.890625 13.453125 
Q 46.046875 20.015625 46.78125 33.40625 
Q 43.953125 29.203125 39.59375 26.953125 
Q 35.25 24.703125 29.984375 24.703125 
Q 19.046875 24.703125 12.671875 31.3125 
Q 6.296875 37.9375 6.296875 49.421875 
Q 6.296875 60.640625 12.9375 67.421875 
Q 19.578125 74.21875 30.609375 74.21875 
Q 43.265625 74.21875 49.921875 64.515625 
Q 56.59375 54.828125 56.59375 36.375 
Q 56.59375 19.140625 48.40625 8.859375 
Q 40.234375 -1.421875 26.421875 -1.421875 
Q 22.703125 -1.421875 18.890625 -0.6875 
Q 15.09375 0.046875 10.984375 1.515625 
z
M 30.609375 32.421875 
Q 37.25 32.421875 41.125 36.953125 
Q 45.015625 41.5 45.015625 49.421875 
Q 45.015625 57.28125 41.125 61.84375 
Q 37.25 66.40625 30.609375 66.40625 
Q 23.96875 66.40625 20.09375 61.84375 
Q 16.21875 57.28125 16.21875 49.421875 
Q 16.21875 41.5 20.09375 36.953125 
Q 23.96875 32.421875 30.609375 32.421875 
z
" id="DejaVuSans-57"/>
      <path d="M 33.015625 40.375 
Q 26.375 40.375 22.484375 35.828125 
Q 18.609375 31.296875 18.609375 23.390625 
Q 18.609375 15.53125 22.484375 10.953125 
Q 26.375 6.390625 33.015625 6.390625 
Q 39.65625 6.390625 43.53125 10.953125 
Q 47.40625 15.53125 47.40625 23.390625 
Q 47.40625 31.296875 43.53125 35.828125 
Q 39.65625 40.375 33.015625 40.375 
z
M 52.59375 71.296875 
L 52.59375 62.3125 
Q 48.875 64.0625 45.09375 64.984375 
Q 41.3125 65.921875 37.59375 65.921875 
Q 27.828125 65.921875 22.671875 59.328125 
Q 17.53125 52.734375 16.796875 39.40625 
Q 19.671875 43.65625 24.015625 45.921875 
Q 28.375 48.1875 33.59375 48.1875 
Q 44.578125 48.1875 50.953125 41.515625 
Q 57.328125 34.859375 57.328125 23.390625 
Q 57.328125 12.15625 50.6875 5.359375 
Q 44.046875 -1.421875 33.015625 -1.421875 
Q 20.359375 -1.421875 13.671875 8.265625 
Q 6.984375 17.96875 6.984375 36.375 
Q 6.984375 53.65625 15.1875 63.9375 
Q 23.390625 74.21875 37.203125 74.21875 
Q 40.921875 74.21875 44.703125 73.484375 
Q 48.484375 72.75 52.59375 71.296875 
z
" id="DejaVuSans-54"/>
     </defs>
     <g transform="translate(242.2575 460.88445)scale(0.12 -0.12)">
      <use xlink:href="#DejaVuSans-50"/>
      <use x="63.623047" xlink:href="#DejaVuSans-52"/>
      <use x="127.246094" xlink:href="#DejaVuSans-57"/>
      <use x="190.869141" xlink:href="#DejaVuSans-48"/>
      <use x="254.492188" xlink:href="#DejaVuSans-46"/>
      <use x="286.279297" xlink:href="#DejaVuSans-55"/>
      <use x="349.902344" xlink:href="#DejaVuSans-32"/>
      <use x="381.689453" xlink:href="#DejaVuSans-43"/>
      <use x="465.478516" xlink:href="#DejaVuSans-47"/>
      <use x="499.169922" xlink:href="#DejaVuSans-45"/>
      <use x="535.253906" xlink:href="#DejaVuSans-32"/>
      <use x="567.041016" xlink:href="#DejaVuSans-51"/>
      <use x="630.664062" xlink:href="#DejaVuSans-54"/>
      <use x="694.287109" xlink:href="#DejaVuSans-52"/>
      <use x="757.910156" xlink:href="#DejaVuSans-46"/>
      <use x="789.697266" xlink:href="#DejaVuSans-52"/>
     </g>
    </g>
    <g id="patch_15">
     <path d="M 357.21 469.0224 
L 482.76 469.0224 
L 482.76 446.124 
L 357.21 446.124 
z
" style="fill:#ffffff;stroke:#000000;stroke-linejoin:miter;"/>
    </g>
    <g id="text_13">
     <!-- 1926.5 +/- 36.1 -->
     <g transform="translate(375.4425 460.88445)scale(0.12 -0.12)">
      <use xlink:href="#DejaVuSans-49"/>
      <use x="63.623047" xlink:href="#DejaVuSans-57"/>
      <use x="127.246094" xlink:href="#DejaVuSans-50"/>
      <use x="190.869141" xlink:href="#DejaVuSans-54"/>
      <use x="254.492188" xlink:href="#DejaVuSans-46"/>
      <use x="286.279297" xlink:href="#DejaVuSans-53"/>
      <use x="349.902344" xlink:href="#DejaVuSans-32"/>
      <use x="381.689453" xlink:href="#DejaVuSans-43"/>
      <use x="465.478516" xlink:href="#DejaVuSans-47"/>
      <use x="499.169922" xlink:href="#DejaVuSans-45"/>
      <use x="535.253906" xlink:href="#DejaVuSans-32"/>
      <use x="567.041016" xlink:href="#DejaVuSans-51"/>
      <use x="630.664062" xlink:href="#DejaVuSans-54"/>
      <use x="694.287109" xlink:href="#DejaVuSans-46"/>
      <use x="726.074219" xlink:href="#DejaVuSans-49"/>
     </g>
    </g>
    <g id="patch_16">
     <path d="M 482.76 469.0224 
L 608.31 469.0224 
L 608.31 446.124 
L 482.76 446.124 
z
" style="fill:#ffffff;stroke:#000000;stroke-linejoin:miter;"/>
    </g>
    <g id="text_14">
     <!-- 1765.2 +/- 5.3 -->
     <g transform="translate(508.6275 460.88445)scale(0.12 -0.12)">
      <use xlink:href="#DejaVuSans-49"/>
      <use x="63.623047" xlink:href="#DejaVuSans-55"/>
      <use x="127.246094" xlink:href="#DejaVuSans-54"/>
      <use x="190.869141" xlink:href="#DejaVuSans-53"/>
      <use x="254.492188" xlink:href="#DejaVuSans-46"/>
      <use x="286.279297" xlink:href="#DejaVuSans-50"/>
      <use x="349.902344" xlink:href="#DejaVuSans-32"/>
      <use x="381.689453" xlink:href="#DejaVuSans-43"/>
      <use x="465.478516" xlink:href="#DejaVuSans-47"/>
      <use x="499.169922" xlink:href="#DejaVuSans-45"/>
      <use x="535.253906" xlink:href="#DejaVuSans-32"/>
      <use x="567.041016" xlink:href="#DejaVuSans-53"/>
      <use x="630.664062" xlink:href="#DejaVuSans-46"/>
      <use x="662.451172" xlink:href="#DejaVuSans-51"/>
     </g>
    </g>
   </g>
   <g id="matplotlib.axis_1">
    <g id="xtick_1">
     <g id="line2d_1">
      <defs>
       <path d="M 0 0 
L 0 2 
" id="m8c6be1caaf" style="stroke:#000000;"/>
      </defs>
      <g>
       <use style="stroke:#000000;" x="160.175037" xlink:href="#m8c6be1caaf" y="331.632"/>
      </g>
     </g>
     <g id="text_15">
      <!-- 1 -->
      <g transform="translate(154.448787 350.809188)scale(0.18 -0.18)">
       <use xlink:href="#DejaVuSans-49"/>
      </g>
     </g>
    </g>
    <g id="xtick_2">
     <g id="line2d_2">
      <g>
       <use style="stroke:#000000;" x="316.910741" xlink:href="#m8c6be1caaf" y="331.632"/>
      </g>
     </g>
     <g id="text_16">
      <!-- 10 -->
      <g transform="translate(305.458241 350.809188)scale(0.18 -0.18)">
       <use xlink:href="#DejaVuSans-49"/>
       <use x="63.623047" xlink:href="#DejaVuSans-48"/>
      </g>
     </g>
    </g>
    <g id="xtick_3">
     <g id="line2d_3">
      <g>
       <use style="stroke:#000000;" x="473.646445" xlink:href="#m8c6be1caaf" y="331.632"/>
      </g>
     </g>
     <g id="text_17">
      <!-- 100 -->
      <g transform="translate(456.467695 350.809188)scale(0.18 -0.18)">
       <use xlink:href="#DejaVuSans-49"/>
       <use x="63.623047" xlink:href="#DejaVuSans-48"/>
       <use x="127.246094" xlink:href="#DejaVuSans-48"/>
      </g>
     </g>
    </g>
    <g id="xtick_4">
     <g id="line2d_4">
      <defs>
       <path d="M 0 0 
L 0 2 
" id="mc1894a9f87" style="stroke:#000000;stroke-width:0.6;"/>
      </defs>
      <g>
       <use style="stroke:#000000;stroke-width:0.6;" x="97.80363" xlink:href="#mc1894a9f87" y="331.632"/>
      </g>
     </g>
    </g>
    <g id="xtick_5">
     <g id="line2d_5">
      <g>
       <use style="stroke:#000000;stroke-width:0.6;" x="112.992889" xlink:href="#mc1894a9f87" y="331.632"/>
      </g>
     </g>
    </g>
    <g id="xtick_6">
     <g id="line2d_6">
      <g>
       <use style="stroke:#000000;stroke-width:0.6;" x="125.403417" xlink:href="#mc1894a9f87" y="331.632"/>
      </g>
     </g>
    </g>
    <g id="xtick_7">
     <g id="line2d_7">
      <g>
       <use style="stroke:#000000;stroke-width:0.6;" x="135.89637" xlink:href="#mc1894a9f87" y="331.632"/>
      </g>
     </g>
    </g>
    <g id="xtick_8">
     <g id="line2d_8">
      <g>
       <use style="stroke:#000000;stroke-width:0.6;" x="144.985778" xlink:href="#mc1894a9f87" y="331.632"/>
      </g>
     </g>
    </g>
    <g id="xtick_9">
     <g id="line2d_9">
      <g>
       <use style="stroke:#000000;stroke-width:0.6;" x="153.003205" xlink:href="#mc1894a9f87" y="331.632"/>
      </g>
     </g>
    </g>
    <g id="xtick_10">
     <g id="line2d_10">
      <g>
       <use style="stroke:#000000;stroke-width:0.6;" x="207.357185" xlink:href="#mc1894a9f87" y="331.632"/>
      </g>
     </g>
    </g>
    <g id="xtick_11">
     <g id="line2d_11">
      <g>
       <use style="stroke:#000000;stroke-width:0.6;" x="234.956973" xlink:href="#mc1894a9f87" y="331.632"/>
      </g>
     </g>
    </g>
    <g id="xtick_12">
     <g id="line2d_12">
      <g>
       <use style="stroke:#000000;stroke-width:0.6;" x="254.539334" xlink:href="#mc1894a9f87" y="331.632"/>
      </g>
     </g>
    </g>
    <g id="xtick_13">
     <g id="line2d_13">
      <g>
       <use style="stroke:#000000;stroke-width:0.6;" x="269.728593" xlink:href="#mc1894a9f87" y="331.632"/>
      </g>
     </g>
    </g>
    <g id="xtick_14">
     <g id="line2d_14">
      <g>
       <use style="stroke:#000000;stroke-width:0.6;" x="282.139121" xlink:href="#mc1894a9f87" y="331.632"/>
      </g>
     </g>
    </g>
    <g id="xtick_15">
     <g id="line2d_15">
      <g>
       <use style="stroke:#000000;stroke-width:0.6;" x="292.632073" xlink:href="#mc1894a9f87" y="331.632"/>
      </g>
     </g>
    </g>
    <g id="xtick_16">
     <g id="line2d_16">
      <g>
       <use style="stroke:#000000;stroke-width:0.6;" x="301.721482" xlink:href="#mc1894a9f87" y="331.632"/>
      </g>
     </g>
    </g>
    <g id="xtick_17">
     <g id="line2d_17">
      <g>
       <use style="stroke:#000000;stroke-width:0.6;" x="309.738908" xlink:href="#mc1894a9f87" y="331.632"/>
      </g>
     </g>
    </g>
    <g id="xtick_18">
     <g id="line2d_18">
      <g>
       <use style="stroke:#000000;stroke-width:0.6;" x="364.092889" xlink:href="#mc1894a9f87" y="331.632"/>
      </g>
     </g>
    </g>
    <g id="xtick_19">
     <g id="line2d_19">
      <g>
       <use style="stroke:#000000;stroke-width:0.6;" x="391.692676" xlink:href="#mc1894a9f87" y="331.632"/>
      </g>
     </g>
    </g>
    <g id="xtick_20">
     <g id="line2d_20">
      <g>
       <use style="stroke:#000000;stroke-width:0.6;" x="411.275037" xlink:href="#mc1894a9f87" y="331.632"/>
      </g>
     </g>
    </g>
    <g id="xtick_21">
     <g id="line2d_21">
      <g>
       <use style="stroke:#000000;stroke-width:0.6;" x="426.464296" xlink:href="#mc1894a9f87" y="331.632"/>
      </g>
     </g>
    </g>
    <g id="xtick_22">
     <g id="line2d_22">
      <g>
       <use style="stroke:#000000;stroke-width:0.6;" x="438.874825" xlink:href="#mc1894a9f87" y="331.632"/>
      </g>
     </g>
    </g>
    <g id="xtick_23">
     <g id="line2d_23">
      <g>
       <use style="stroke:#000000;stroke-width:0.6;" x="449.367777" xlink:href="#mc1894a9f87" y="331.632"/>
      </g>
     </g>
    </g>
    <g id="xtick_24">
     <g id="line2d_24">
      <g>
       <use style="stroke:#000000;stroke-width:0.6;" x="458.457185" xlink:href="#mc1894a9f87" y="331.632"/>
      </g>
     </g>
    </g>
    <g id="xtick_25">
     <g id="line2d_25">
      <g>
       <use style="stroke:#000000;stroke-width:0.6;" x="466.474612" xlink:href="#mc1894a9f87" y="331.632"/>
      </g>
     </g>
    </g>
    <g id="xtick_26">
     <g id="line2d_26">
      <g>
       <use style="stroke:#000000;stroke-width:0.6;" x="520.828593" xlink:href="#mc1894a9f87" y="331.632"/>
      </g>
     </g>
    </g>
    <g id="xtick_27">
     <g id="line2d_27">
      <g>
       <use style="stroke:#000000;stroke-width:0.6;" x="548.42838" xlink:href="#mc1894a9f87" y="331.632"/>
      </g>
     </g>
    </g>
    <g id="xtick_28">
     <g id="line2d_28">
      <g>
       <use style="stroke:#000000;stroke-width:0.6;" x="568.010741" xlink:href="#mc1894a9f87" y="331.632"/>
      </g>
     </g>
    </g>
    <g id="xtick_29">
     <g id="line2d_29">
      <g>
       <use style="stroke:#000000;stroke-width:0.6;" x="583.2" xlink:href="#mc1894a9f87" y="331.632"/>
      </g>
     </g>
    </g>
    <g id="text_18">
     <!-- Glaucine (uM) -->
     <defs>
      <path d="M 9.421875 75.984375 
L 18.40625 75.984375 
L 18.40625 0 
L 9.421875 0 
z
" id="DejaVuSans-108"/>
      <path d="M 9.421875 54.6875 
L 18.40625 54.6875 
L 18.40625 0 
L 9.421875 0 
z
M 9.421875 75.984375 
L 18.40625 75.984375 
L 18.40625 64.59375 
L 9.421875 64.59375 
z
" id="DejaVuSans-105"/>
      <path d="M 56.203125 29.59375 
L 56.203125 25.203125 
L 14.890625 25.203125 
Q 15.484375 15.921875 20.484375 11.0625 
Q 25.484375 6.203125 34.421875 6.203125 
Q 39.59375 6.203125 44.453125 7.46875 
Q 49.3125 8.734375 54.109375 11.28125 
L 54.109375 2.78125 
Q 49.265625 0.734375 44.1875 -0.34375 
Q 39.109375 -1.421875 33.890625 -1.421875 
Q 20.796875 -1.421875 13.15625 6.1875 
Q 5.515625 13.8125 5.515625 26.8125 
Q 5.515625 40.234375 12.765625 48.109375 
Q 20.015625 56 32.328125 56 
Q 43.359375 56 49.78125 48.890625 
Q 56.203125 41.796875 56.203125 29.59375 
z
M 47.21875 32.234375 
Q 47.125 39.59375 43.09375 43.984375 
Q 39.0625 48.390625 32.421875 48.390625 
Q 24.90625 48.390625 20.390625 44.140625 
Q 15.875 39.890625 15.1875 32.171875 
z
" id="DejaVuSans-101"/>
      <path d="M 31 75.875 
Q 24.46875 64.65625 21.28125 53.65625 
Q 18.109375 42.671875 18.109375 31.390625 
Q 18.109375 20.125 21.3125 9.0625 
Q 24.515625 -2 31 -13.1875 
L 23.1875 -13.1875 
Q 15.875 -1.703125 12.234375 9.375 
Q 8.59375 20.453125 8.59375 31.390625 
Q 8.59375 42.28125 12.203125 53.3125 
Q 15.828125 64.359375 23.1875 75.875 
z
" id="DejaVuSans-40"/>
      <path d="M 9.8125 72.90625 
L 24.515625 72.90625 
L 43.109375 23.296875 
L 61.8125 72.90625 
L 76.515625 72.90625 
L 76.515625 0 
L 66.890625 0 
L 66.890625 64.015625 
L 48.09375 14.015625 
L 38.1875 14.015625 
L 19.390625 64.015625 
L 19.390625 0 
L 9.8125 0 
z
" id="DejaVuSans-77"/>
      <path d="M 8.015625 75.875 
L 15.828125 75.875 
Q 23.140625 64.359375 26.78125 53.3125 
Q 30.421875 42.28125 30.421875 31.390625 
Q 30.421875 20.453125 26.78125 9.375 
Q 23.140625 -1.703125 15.828125 -13.1875 
L 8.015625 -13.1875 
Q 14.5 -2 17.703125 9.0625 
Q 20.90625 20.125 20.90625 31.390625 
Q 20.90625 42.671875 17.703125 53.65625 
Q 14.5 64.65625 8.015625 75.875 
z
" id="DejaVuSans-41"/>
     </defs>
     <g transform="translate(262.39375 373.7495)scale(0.2 -0.2)">
      <use xlink:href="#DejaVuSans-71"/>
      <use x="77.490234" xlink:href="#DejaVuSans-108"/>
      <use x="105.273438" xlink:href="#DejaVuSans-97"/>
      <use x="166.552734" xlink:href="#DejaVuSans-117"/>
      <use x="229.931641" xlink:href="#DejaVuSans-99"/>
      <use x="284.912109" xlink:href="#DejaVuSans-105"/>
      <use x="312.695312" xlink:href="#DejaVuSans-110"/>
      <use x="376.074219" xlink:href="#DejaVuSans-101"/>
      <use x="437.597656" xlink:href="#DejaVuSans-32"/>
      <use x="469.384766" xlink:href="#DejaVuSans-40"/>
      <use x="508.398438" xlink:href="#DejaVuSans-117"/>
      <use x="571.777344" xlink:href="#DejaVuSans-77"/>
      <use x="658.056641" xlink:href="#DejaVuSans-41"/>
     </g>
    </g>
   </g>
   <g id="matplotlib.axis_2">
    <g id="ytick_1">
     <g id="line2d_30">
      <defs>
       <path d="M 0 0 
L -2 0 
" id="m9b0f5f1382" style="stroke:#000000;"/>
      </defs>
      <g>
       <use style="stroke:#000000;" x="81" xlink:href="#m9b0f5f1382" y="319.141964"/>
      </g>
     </g>
     <g id="text_19">
      <!-- 0 -->
      <g transform="translate(64.0475 325.980557)scale(0.18 -0.18)">
       <use xlink:href="#DejaVuSans-48"/>
      </g>
     </g>
    </g>
    <g id="ytick_2">
     <g id="line2d_31">
      <g>
       <use style="stroke:#000000;" x="81" xlink:href="#m9b0f5f1382" y="264.139576"/>
      </g>
     </g>
     <g id="text_20">
      <!-- 2 -->
      <g transform="translate(64.0475 270.97817)scale(0.18 -0.18)">
       <use xlink:href="#DejaVuSans-50"/>
      </g>
     </g>
    </g>
    <g id="ytick_3">
     <g id="line2d_32">
      <g>
       <use style="stroke:#000000;" x="81" xlink:href="#m9b0f5f1382" y="209.137189"/>
      </g>
     </g>
     <g id="text_21">
      <!-- 4 -->
      <g transform="translate(64.0475 215.975783)scale(0.18 -0.18)">
       <use xlink:href="#DejaVuSans-52"/>
      </g>
     </g>
    </g>
    <g id="ytick_4">
     <g id="line2d_33">
      <g>
       <use style="stroke:#000000;" x="81" xlink:href="#m9b0f5f1382" y="154.134801"/>
      </g>
     </g>
     <g id="text_22">
      <!-- 6 -->
      <g transform="translate(64.0475 160.973395)scale(0.18 -0.18)">
       <use xlink:href="#DejaVuSans-54"/>
      </g>
     </g>
    </g>
    <g id="ytick_5">
     <g id="line2d_34">
      <g>
       <use style="stroke:#000000;" x="81" xlink:href="#m9b0f5f1382" y="99.132414"/>
      </g>
     </g>
     <g id="text_23">
      <!-- 8 -->
      <defs>
       <path d="M 31.78125 34.625 
Q 24.75 34.625 20.71875 30.859375 
Q 16.703125 27.09375 16.703125 20.515625 
Q 16.703125 13.921875 20.71875 10.15625 
Q 24.75 6.390625 31.78125 6.390625 
Q 38.8125 6.390625 42.859375 10.171875 
Q 46.921875 13.96875 46.921875 20.515625 
Q 46.921875 27.09375 42.890625 30.859375 
Q 38.875 34.625 31.78125 34.625 
z
M 21.921875 38.8125 
Q 15.578125 40.375 12.03125 44.71875 
Q 8.5 49.078125 8.5 55.328125 
Q 8.5 64.0625 14.71875 69.140625 
Q 20.953125 74.21875 31.78125 74.21875 
Q 42.671875 74.21875 48.875 69.140625 
Q 55.078125 64.0625 55.078125 55.328125 
Q 55.078125 49.078125 51.53125 44.71875 
Q 48 40.375 41.703125 38.8125 
Q 48.828125 37.15625 52.796875 32.3125 
Q 56.78125 27.484375 56.78125 20.515625 
Q 56.78125 9.90625 50.3125 4.234375 
Q 43.84375 -1.421875 31.78125 -1.421875 
Q 19.734375 -1.421875 13.25 4.234375 
Q 6.78125 9.90625 6.78125 20.515625 
Q 6.78125 27.484375 10.78125 32.3125 
Q 14.796875 37.15625 21.921875 38.8125 
z
M 18.3125 54.390625 
Q 18.3125 48.734375 21.84375 45.5625 
Q 25.390625 42.390625 31.78125 42.390625 
Q 38.140625 42.390625 41.71875 45.5625 
Q 45.3125 48.734375 45.3125 54.390625 
Q 45.3125 60.0625 41.71875 63.234375 
Q 38.140625 66.40625 31.78125 66.40625 
Q 25.390625 66.40625 21.84375 63.234375 
Q 18.3125 60.0625 18.3125 54.390625 
z
" id="DejaVuSans-56"/>
      </defs>
      <g transform="translate(64.0475 105.971008)scale(0.18 -0.18)">
       <use xlink:href="#DejaVuSans-56"/>
      </g>
     </g>
    </g>
    <g id="text_24">
     <!-- $(RFU/OD) \times 10^4$ -->
     <defs>
      <path d="M 25.203125 64.796875 
L 20.21875 38.921875 
L 32.90625 38.921875 
Q 40.375 38.921875 44.984375 43.046875 
Q 49.609375 47.171875 49.609375 53.8125 
Q 49.609375 59.125 46.5 61.953125 
Q 43.40625 64.796875 37.59375 64.796875 
z
M 43.3125 35.015625 
Q 46.4375 34.28125 48.515625 31.390625 
Q 50.59375 28.515625 53.328125 19.921875 
L 59.515625 0 
L 49.125 0 
L 43.40625 18.703125 
Q 41.21875 25.921875 38.328125 28.359375 
Q 35.453125 30.8125 29.5 30.8125 
L 18.609375 30.8125 
L 12.59375 0 
L 2.6875 0 
L 16.890625 72.90625 
L 39.109375 72.90625 
Q 49.21875 72.90625 54.609375 68.328125 
Q 60.015625 63.765625 60.015625 55.171875 
Q 60.015625 47.5625 55.421875 41.984375 
Q 50.828125 36.421875 43.3125 35.015625 
z
" id="DejaVuSans-Oblique-82"/>
      <path d="M 16.890625 72.90625 
L 58.6875 72.90625 
L 57.078125 64.59375 
L 25.09375 64.59375 
L 20.90625 43.109375 
L 49.8125 43.109375 
L 48.1875 34.8125 
L 19.28125 34.8125 
L 12.5 0 
L 2.6875 0 
z
" id="DejaVuSans-Oblique-70"/>
      <path d="M 15.484375 72.90625 
L 25.390625 72.90625 
L 16.796875 28.609375 
Q 16.265625 25.640625 16.046875 23.703125 
Q 15.828125 21.78125 15.828125 20.3125 
Q 15.828125 13.578125 19.578125 10.078125 
Q 23.34375 6.59375 30.609375 6.59375 
Q 40.046875 6.59375 45.28125 11.765625 
Q 50.53125 16.9375 52.78125 28.609375 
L 61.375 72.90625 
L 71.296875 72.90625 
L 62.5 27.390625 
Q 59.625 12.640625 51.5625 5.609375 
Q 43.5 -1.421875 29.5 -1.421875 
Q 18.5625 -1.421875 12.1875 4.078125 
Q 5.8125 9.578125 5.8125 19 
Q 5.8125 20.703125 6.046875 22.828125 
Q 6.296875 24.953125 6.78125 27.390625 
z
" id="DejaVuSans-Oblique-85"/>
      <path d="M 45.609375 66.21875 
Q 37.5 66.21875 31.296875 62.28125 
Q 25.09375 58.34375 20.515625 50.296875 
Q 17.578125 45.171875 16.03125 39.40625 
Q 14.5 33.640625 14.5 27.78125 
Q 14.5 17.625 19.359375 12.109375 
Q 24.21875 6.59375 33.109375 6.59375 
Q 41.109375 6.59375 47.375 10.5625 
Q 53.65625 14.546875 58.109375 22.40625 
Q 61.078125 27.6875 62.640625 33.46875 
Q 64.203125 39.265625 64.203125 45.015625 
Q 64.203125 55.125 59.3125 60.671875 
Q 54.4375 66.21875 45.609375 66.21875 
z
M 32.8125 -1.421875 
Q 19.390625 -1.421875 11.6875 6.53125 
Q 4 14.5 4 28.328125 
Q 4 36.234375 7 44.484375 
Q 10.015625 52.734375 15.28125 59.1875 
Q 21.484375 66.75 29.09375 70.484375 
Q 36.71875 74.21875 45.90625 74.21875 
Q 59.28125 74.21875 66.984375 66.328125 
Q 74.703125 58.453125 74.703125 44.828125 
Q 74.703125 36.421875 71.765625 28.3125 
Q 68.84375 20.21875 63.375 13.625 
Q 57.125 6 49.578125 2.28125 
Q 42.046875 -1.421875 32.8125 -1.421875 
z
" id="DejaVuSans-Oblique-79"/>
      <path d="M 16.890625 72.90625 
L 38.09375 72.90625 
Q 54.984375 72.90625 63.59375 65.75 
Q 72.21875 58.59375 72.21875 44.484375 
Q 72.21875 35.15625 68.9375 26.53125 
Q 65.671875 17.921875 59.90625 12.015625 
Q 54.109375 5.953125 45.171875 2.96875 
Q 36.234375 0 24.03125 0 
L 2.6875 0 
z
M 25.203125 64.796875 
L 14.203125 8.109375 
L 27.09375 8.109375 
Q 43.65625 8.109375 52.734375 17.625 
Q 61.8125 27.15625 61.8125 44.484375 
Q 61.8125 54.984375 55.953125 59.890625 
Q 50.09375 64.796875 37.59375 64.796875 
z
" id="DejaVuSans-Oblique-68"/>
      <path d="M 70.125 53.71875 
L 47.796875 31.296875 
L 70.125 8.984375 
L 64.3125 3.078125 
L 41.890625 25.484375 
L 19.484375 3.078125 
L 13.71875 8.984375 
L 35.984375 31.296875 
L 13.71875 53.71875 
L 19.484375 59.625 
L 41.890625 37.203125 
L 64.3125 59.625 
z
" id="DejaVuSans-215"/>
     </defs>
     <g transform="translate(55.888125 270.8416)rotate(-90)scale(0.2 -0.2)">
      <use transform="translate(0 0.684375)" xlink:href="#DejaVuSans-40"/>
      <use transform="translate(39.013672 0.684375)" xlink:href="#DejaVuSans-Oblique-82"/>
      <use transform="translate(108.496094 0.684375)" xlink:href="#DejaVuSans-Oblique-70"/>
      <use transform="translate(166.015625 0.684375)" xlink:href="#DejaVuSans-Oblique-85"/>
      <use transform="translate(239.208984 0.684375)" xlink:href="#DejaVuSans-47"/>
      <use transform="translate(272.900391 0.684375)" xlink:href="#DejaVuSans-Oblique-79"/>
      <use transform="translate(351.611328 0.684375)" xlink:href="#DejaVuSans-Oblique-68"/>
      <use transform="translate(428.613281 0.684375)" xlink:href="#DejaVuSans-41"/>
      <use transform="translate(487.109375 0.684375)" xlink:href="#DejaVuSans-215"/>
      <use transform="translate(590.380859 0.684375)" xlink:href="#DejaVuSans-49"/>
      <use transform="translate(654.003906 0.684375)" xlink:href="#DejaVuSans-48"/>
      <use transform="translate(718.583984 38.965625)scale(0.7)" xlink:href="#DejaVuSans-52"/>
     </g>
    </g>
   </g>
   <g id="line2d_35">
    <path clip-path="url(#p2a461dd51a)" d="M 80.453935 316.352204 
L 159.146941 315.487426 
L 228.225588 314.50994 
L 289.828695 313.419684 
L 345.446383 312.216517 
L 396.150244 310.900509 
L 442.742766 309.471815 
L 485.847449 307.930437 
L 525.954426 306.276392 
L 536.017852 305.8244 
L 536.017852 305.8244 
" style="fill:none;stroke:#0ad12e;stroke-linecap:square;stroke-width:1.5;"/>
   </g>
   <g id="line2d_36">
    <path clip-path="url(#p2a461dd51a)" d="M 80.453935 319.084821 
L 161.523672 318.888238 
L 205.547172 318.571899 
L 236.305608 318.138382 
L 260.053897 317.588861 
L 279.420133 316.924514 
L 295.79161 316.145617 
L 309.96611 315.253431 
L 322.480209 314.247332 
L 333.688457 313.127096 
L 343.850003 311.891372 
L 353.141019 310.540566 
L 361.703707 309.073845 
L 369.654516 307.488867 
L 377.076025 305.785007 
L 384.040824 303.96005 
L 390.612731 302.009967 
L 396.832187 299.934286 
L 402.74799 297.727023 
L 408.390546 295.385774 
L 413.793926 292.904207 
L 418.982342 290.277733 
L 423.983401 287.497548 
L 428.81324 284.55863 
L 433.492008 281.451609 
L 438.033634 278.168904 
L 442.455445 274.698309 
L 446.766761 271.031588 
L 450.982829 267.153485 
L 455.111748 263.052729 
L 459.164659 258.713028 
L 463.146798 254.122227 
L 467.06831 249.260611 
L 470.935722 244.110162 
L 474.754409 238.652257 
L 478.528782 232.867666 
L 482.265441 226.73146 
L 485.968254 220.220404 
L 489.640284 213.310514 
L 493.285195 205.974398 
L 496.905826 198.183767 
L 500.50547 189.906702 
L 504.086606 181.110228 
L 507.651033 171.760308 
L 511.200961 161.818998 
L 514.737931 151.247129 
L 518.263812 140.001381 
L 521.779832 128.037037 
L 525.286692 115.307966 
L 528.78541 101.763587 
L 532.277219 87.348663 
L 535.762792 72.006193 
L 536.017852 70.844412 
L 536.017852 70.844412 
" style="fill:none;stroke:#0a95d1;stroke-linecap:square;stroke-width:1.5;"/>
   </g>
   <g id="line2d_37">
    <path clip-path="url(#p2a461dd51a)" d="M 80.453935 319.099834 
L 185.702164 318.918269 
L 239.616134 318.615857 
L 276.587264 318.196225 
L 304.860709 317.660983 
L 327.801903 317.010915 
L 347.126377 316.246479 
L 363.829288 315.368075 
L 378.54368 314.375923 
L 391.699029 313.269963 
L 403.600965 312.049788 
L 414.475176 310.714578 
L 424.486306 309.264161 
L 433.76466 307.697914 
L 442.417761 306.014173 
L 450.530253 304.211294 
L 458.170091 302.287662 
L 465.394666 300.241109 
L 472.252834 298.068888 
L 478.784903 295.768242 
L 485.028877 293.334632 
L 491.013453 290.764647 
L 496.766626 288.053061 
L 502.311768 285.19458 
L 507.67065 282.182636 
L 512.861498 279.010572 
L 517.900589 275.671037 
L 522.804141 272.154734 
L 527.584867 268.452859 
L 532.254922 264.555247 
L 536.017852 261.19775 
L 536.017852 261.19775 
" style="fill:none;stroke:#710ad1;stroke-linecap:square;stroke-width:1.5;"/>
   </g>
   <g id="line2d_38">
    <path clip-path="url(#p2a461dd51a)" d="M 80.453935 319.067171 
L 155.782616 318.8558 
L 198.945771 318.524628 
L 229.589503 318.076427 
L 253.4248 317.512902 
L 272.953082 316.835317 
L 289.52402 316.043545 
L 303.940423 315.136751 
L 316.689836 314.116119 
L 328.120188 312.981938 
L 338.501703 311.731657 
L 348.004984 310.366098 
L 356.770304 308.884759 
L 364.913948 307.285562 
L 372.52571 305.566453 
L 379.676491 303.725413 
L 386.423342 301.760462 
L 392.812918 299.669664 
L 398.894113 297.447193 
L 404.696903 295.090998 
L 410.255579 292.595015 
L 415.594328 289.955044 
L 420.741127 287.162626 
L 425.712064 284.21326 
L 430.527566 281.09808 
L 435.204633 277.80794 
L 439.757506 274.333436 
L 444.200809 270.662662 
L 448.544223 266.78564 
L 452.80062 262.687554 
L 456.978411 258.355489 
L 461.084633 253.776224 
L 465.129041 248.931457 
L 469.117748 243.804811 
L 473.05748 238.377089 
L 476.953657 232.628634 
L 480.810619 226.539346 
L 484.633249 220.086177 
L 488.426737 213.243021 
L 492.193798 205.985768 
L 495.938887 198.284644 
L 499.664191 190.111879 
L 503.372319 181.436556 
L 507.066128 172.224523 
L 510.747605 162.441015 
L 514.419882 152.045246 
L 518.083329 141.001236 
L 521.740384 129.264224 
L 525.392602 116.788782 
L 529.041553 103.52608 
L 532.688767 89.423853 
L 536.017852 75.770408 
L 536.017852 75.770408 
" style="fill:none;stroke:#d10a7b;stroke-linecap:square;stroke-width:1.5;"/>
   </g>
   <g id="line2d_39">
    <defs>
     <path d="M 0 3 
C 0.795609 3 1.55874 2.683901 2.12132 2.12132 
C 2.683901 1.55874 3 0.795609 3 0 
C 3 -0.795609 2.683901 -1.55874 2.12132 -2.12132 
C 1.55874 -2.683901 0.795609 -3 0 -3 
C -0.795609 -3 -1.55874 -2.683901 -2.12132 -2.12132 
C -2.683901 -1.55874 -3 -0.795609 -3 0 
C -3 0.795609 -2.683901 1.55874 -2.12132 2.12132 
C -1.55874 2.683901 -0.795609 3 0 3 
z
" id="mdad6cf0283" style="stroke:#0ad12e;"/>
    </defs>
    <g clip-path="url(#p2a461dd51a)">
     <use style="fill:#0ad12e;stroke:#0ad12e;" x="-1" xlink:href="#mdad6cf0283" y="313.24081"/>
     <use style="fill:#0ad12e;stroke:#0ad12e;" x="222.546445" xlink:href="#mdad6cf0283" y="313.241255"/>
     <use style="fill:#0ad12e;stroke:#0ad12e;" x="269.728593" xlink:href="#mdad6cf0283" y="313.013004"/>
     <use style="fill:#0ad12e;stroke:#0ad12e;" x="316.910741" xlink:href="#mdad6cf0283" y="312.627339"/>
     <use style="fill:#0ad12e;stroke:#0ad12e;" x="379.282148" xlink:href="#mdad6cf0283" y="312.511163"/>
     <use style="fill:#0ad12e;stroke:#0ad12e;" x="426.464296" xlink:href="#mdad6cf0283" y="312.38054"/>
     <use style="fill:#0ad12e;stroke:#0ad12e;" x="473.646445" xlink:href="#mdad6cf0283" y="310.524131"/>
     <use style="fill:#0ad12e;stroke:#0ad12e;" x="536.017852" xlink:href="#mdad6cf0283" y="304.350779"/>
    </g>
   </g>
   <g id="line2d_40">
    <g clip-path="url(#p2a461dd51a)">
     <use style="fill:#0ad12e;stroke:#0ad12e;" x="-1" xlink:href="#mdad6cf0283" y="312.629116"/>
     <use style="fill:#0ad12e;stroke:#0ad12e;" x="222.546445" xlink:href="#mdad6cf0283" y="312.628947"/>
     <use style="fill:#0ad12e;stroke:#0ad12e;" x="269.728593" xlink:href="#mdad6cf0283" y="313.140471"/>
     <use style="fill:#0ad12e;stroke:#0ad12e;" x="316.910741" xlink:href="#mdad6cf0283" y="312.556551"/>
     <use style="fill:#0ad12e;stroke:#0ad12e;" x="379.282148" xlink:href="#mdad6cf0283" y="311.369916"/>
     <use style="fill:#0ad12e;stroke:#0ad12e;" x="426.464296" xlink:href="#mdad6cf0283" y="311.063797"/>
     <use style="fill:#0ad12e;stroke:#0ad12e;" x="473.646445" xlink:href="#mdad6cf0283" y="310.307942"/>
     <use style="fill:#0ad12e;stroke:#0ad12e;" x="536.017852" xlink:href="#mdad6cf0283" y="303.006125"/>
    </g>
   </g>
   <g id="line2d_41">
    <g clip-path="url(#p2a461dd51a)">
     <use style="fill:#0ad12e;stroke:#0ad12e;" x="379.282148" xlink:href="#mdad6cf0283" y="312.531352"/>
     <use style="fill:#0ad12e;stroke:#0ad12e;" x="426.464296" xlink:href="#mdad6cf0283" y="311.540494"/>
     <use style="fill:#0ad12e;stroke:#0ad12e;" x="473.646445" xlink:href="#mdad6cf0283" y="309.534845"/>
     <use style="fill:#0ad12e;stroke:#0ad12e;" x="536.017852" xlink:href="#mdad6cf0283" y="304.094536"/>
    </g>
   </g>
   <g id="line2d_42">
    <defs>
     <path d="M 0 3 
C 0.795609 3 1.55874 2.683901 2.12132 2.12132 
C 2.683901 1.55874 3 0.795609 3 0 
C 3 -0.795609 2.683901 -1.55874 2.12132 -2.12132 
C 1.55874 -2.683901 0.795609 -3 0 -3 
C -0.795609 -3 -1.55874 -2.683901 -2.12132 -2.12132 
C -2.683901 -1.55874 -3 -0.795609 -3 0 
C -3 0.795609 -2.683901 1.55874 -2.12132 2.12132 
C -1.55874 2.683901 -0.795609 3 0 3 
z
" id="m300c8d965e" style="stroke:#0a95d1;"/>
    </defs>
    <g clip-path="url(#p2a461dd51a)">
     <use style="fill:#0a95d1;stroke:#0a95d1;" x="-1" xlink:href="#m300c8d965e" y="312.900185"/>
     <use style="fill:#0a95d1;stroke:#0a95d1;" x="222.546445" xlink:href="#m300c8d965e" y="312.900178"/>
    </g>
   </g>
   <g id="line2d_43">
    <g clip-path="url(#p2a461dd51a)">
     <use style="fill:#0a95d1;stroke:#0a95d1;" x="-1" xlink:href="#m300c8d965e" y="311.558411"/>
     <use style="fill:#0a95d1;stroke:#0a95d1;" x="222.546445" xlink:href="#m300c8d965e" y="311.559014"/>
     <use style="fill:#0a95d1;stroke:#0a95d1;" x="269.728593" xlink:href="#m300c8d965e" y="311.109784"/>
     <use style="fill:#0a95d1;stroke:#0a95d1;" x="316.910741" xlink:href="#m300c8d965e" y="309.345341"/>
     <use style="fill:#0a95d1;stroke:#0a95d1;" x="379.282148" xlink:href="#m300c8d965e" y="303.656384"/>
     <use style="fill:#0a95d1;stroke:#0a95d1;" x="426.464296" xlink:href="#m300c8d965e" y="288.571777"/>
     <use style="fill:#0a95d1;stroke:#0a95d1;" x="473.646445" xlink:href="#m300c8d965e" y="239.957814"/>
     <use style="fill:#0a95d1;stroke:#0a95d1;" x="536.017852" xlink:href="#m300c8d965e" y="69.341236"/>
    </g>
   </g>
   <g id="line2d_44">
    <g clip-path="url(#p2a461dd51a)">
     <use style="fill:#0a95d1;stroke:#0a95d1;" x="-1" xlink:href="#m300c8d965e" y="311.554955"/>
     <use style="fill:#0a95d1;stroke:#0a95d1;" x="222.546445" xlink:href="#m300c8d965e" y="311.553126"/>
     <use style="fill:#0a95d1;stroke:#0a95d1;" x="269.728593" xlink:href="#m300c8d965e" y="311.051632"/>
     <use style="fill:#0a95d1;stroke:#0a95d1;" x="316.910741" xlink:href="#m300c8d965e" y="309.00326"/>
     <use style="fill:#0a95d1;stroke:#0a95d1;" x="379.282148" xlink:href="#m300c8d965e" y="303.942178"/>
     <use style="fill:#0a95d1;stroke:#0a95d1;" x="426.464296" xlink:href="#m300c8d965e" y="288.767945"/>
     <use style="fill:#0a95d1;stroke:#0a95d1;" x="473.646445" xlink:href="#m300c8d965e" y="242.016798"/>
     <use style="fill:#0a95d1;stroke:#0a95d1;" x="536.017852" xlink:href="#m300c8d965e" y="71.678727"/>
    </g>
   </g>
   <g id="line2d_45">
    <defs>
     <path d="M 0 3 
C 0.795609 3 1.55874 2.683901 2.12132 2.12132 
C 2.683901 1.55874 3 0.795609 3 0 
C 3 -0.795609 2.683901 -1.55874 2.12132 -2.12132 
C 1.55874 -2.683901 0.795609 -3 0 -3 
C -0.795609 -3 -1.55874 -2.683901 -2.12132 -2.12132 
C -2.683901 -1.55874 -3 -0.795609 -3 0 
C -3 0.795609 -2.683901 1.55874 -2.12132 2.12132 
C -1.55874 2.683901 -0.795609 3 0 3 
z
" id="mbd637ed319" style="stroke:#710ad1;"/>
    </defs>
    <g clip-path="url(#p2a461dd51a)">
     <use style="fill:#710ad1;stroke:#710ad1;" x="-1" xlink:href="#mbd637ed319" y="313.644885"/>
     <use style="fill:#710ad1;stroke:#710ad1;" x="222.546445" xlink:href="#mbd637ed319" y="313.64446"/>
     <use style="fill:#710ad1;stroke:#710ad1;" x="269.728593" xlink:href="#mbd637ed319" y="313.194659"/>
     <use style="fill:#710ad1;stroke:#710ad1;" x="316.910741" xlink:href="#mbd637ed319" y="312.92336"/>
     <use style="fill:#710ad1;stroke:#710ad1;" x="379.282148" xlink:href="#mbd637ed319" y="312.065844"/>
     <use style="fill:#710ad1;stroke:#710ad1;" x="426.464296" xlink:href="#mbd637ed319" y="309.264295"/>
     <use style="fill:#710ad1;stroke:#710ad1;" x="473.646445" xlink:href="#mbd637ed319" y="301.576945"/>
     <use style="fill:#710ad1;stroke:#710ad1;" x="536.017852" xlink:href="#mbd637ed319" y="259.189738"/>
    </g>
   </g>
   <g id="line2d_46">
    <g clip-path="url(#p2a461dd51a)">
     <use style="fill:#710ad1;stroke:#710ad1;" x="-1" xlink:href="#mbd637ed319" y="313.766774"/>
     <use style="fill:#710ad1;stroke:#710ad1;" x="222.546445" xlink:href="#mbd637ed319" y="313.766805"/>
     <use style="fill:#710ad1;stroke:#710ad1;" x="269.728593" xlink:href="#mbd637ed319" y="313.471845"/>
     <use style="fill:#710ad1;stroke:#710ad1;" x="316.910741" xlink:href="#mbd637ed319" y="312.67154"/>
     <use style="fill:#710ad1;stroke:#710ad1;" x="379.282148" xlink:href="#mbd637ed319" y="312.291298"/>
     <use style="fill:#710ad1;stroke:#710ad1;" x="426.464296" xlink:href="#mbd637ed319" y="308.175393"/>
     <use style="fill:#710ad1;stroke:#710ad1;" x="473.646445" xlink:href="#mbd637ed319" y="301.232814"/>
     <use style="fill:#710ad1;stroke:#710ad1;" x="536.017852" xlink:href="#mbd637ed319" y="259.070167"/>
    </g>
   </g>
   <g id="line2d_47">
    <g clip-path="url(#p2a461dd51a)">
     <use style="fill:#710ad1;stroke:#710ad1;" x="-1" xlink:href="#mbd637ed319" y="313.791333"/>
     <use style="fill:#710ad1;stroke:#710ad1;" x="222.546445" xlink:href="#mbd637ed319" y="313.791257"/>
     <use style="fill:#710ad1;stroke:#710ad1;" x="269.728593" xlink:href="#mbd637ed319" y="313.077889"/>
     <use style="fill:#710ad1;stroke:#710ad1;" x="316.910741" xlink:href="#mbd637ed319" y="313.089513"/>
     <use style="fill:#710ad1;stroke:#710ad1;" x="379.282148" xlink:href="#mbd637ed319" y="312.093474"/>
     <use style="fill:#710ad1;stroke:#710ad1;" x="426.464296" xlink:href="#mbd637ed319" y="309.251549"/>
     <use style="fill:#710ad1;stroke:#710ad1;" x="473.646445" xlink:href="#mbd637ed319" y="301.631644"/>
     <use style="fill:#710ad1;stroke:#710ad1;" x="536.017852" xlink:href="#mbd637ed319" y="262.310125"/>
    </g>
   </g>
   <g id="line2d_48">
    <defs>
     <path d="M 0 3 
C 0.795609 3 1.55874 2.683901 2.12132 2.12132 
C 2.683901 1.55874 3 0.795609 3 0 
C 3 -0.795609 2.683901 -1.55874 2.12132 -2.12132 
C 1.55874 -2.683901 0.795609 -3 0 -3 
C -0.795609 -3 -1.55874 -2.683901 -2.12132 -2.12132 
C -2.683901 -1.55874 -3 -0.795609 -3 0 
C -3 0.795609 -2.683901 1.55874 -2.12132 2.12132 
C -1.55874 2.683901 -0.795609 3 0 3 
z
" id="m6e871ca1ad" style="stroke:#d10a7b;"/>
    </defs>
    <g clip-path="url(#p2a461dd51a)">
     <use style="fill:#d10a7b;stroke:#d10a7b;" x="-1" xlink:href="#m6e871ca1ad" y="313.400641"/>
     <use style="fill:#d10a7b;stroke:#d10a7b;" x="222.546445" xlink:href="#m6e871ca1ad" y="313.399376"/>
     <use style="fill:#d10a7b;stroke:#d10a7b;" x="269.728593" xlink:href="#m6e871ca1ad" y="312.944859"/>
     <use style="fill:#d10a7b;stroke:#d10a7b;" x="316.910741" xlink:href="#m6e871ca1ad" y="310.644788"/>
     <use style="fill:#d10a7b;stroke:#d10a7b;" x="379.282148" xlink:href="#m6e871ca1ad" y="304.292339"/>
     <use style="fill:#d10a7b;stroke:#d10a7b;" x="426.464296" xlink:href="#m6e871ca1ad" y="287.016392"/>
     <use style="fill:#d10a7b;stroke:#d10a7b;" x="473.646445" xlink:href="#m6e871ca1ad" y="240.233587"/>
     <use style="fill:#d10a7b;stroke:#d10a7b;" x="536.017852" xlink:href="#m6e871ca1ad" y="75.720683"/>
    </g>
   </g>
   <g id="line2d_49">
    <g clip-path="url(#p2a461dd51a)">
     <use style="fill:#d10a7b;stroke:#d10a7b;" x="-1" xlink:href="#m6e871ca1ad" y="313.579135"/>
     <use style="fill:#d10a7b;stroke:#d10a7b;" x="222.546445" xlink:href="#m6e871ca1ad" y="313.578144"/>
     <use style="fill:#d10a7b;stroke:#d10a7b;" x="269.728593" xlink:href="#m6e871ca1ad" y="313.294152"/>
     <use style="fill:#d10a7b;stroke:#d10a7b;" x="316.910741" xlink:href="#m6e871ca1ad" y="311.477302"/>
     <use style="fill:#d10a7b;stroke:#d10a7b;" x="379.282148" xlink:href="#m6e871ca1ad" y="304.955737"/>
     <use style="fill:#d10a7b;stroke:#d10a7b;" x="426.464296" xlink:href="#m6e871ca1ad" y="286.504082"/>
     <use style="fill:#d10a7b;stroke:#d10a7b;" x="473.646445" xlink:href="#m6e871ca1ad" y="233.618435"/>
     <use style="fill:#d10a7b;stroke:#d10a7b;" x="536.017852" xlink:href="#m6e871ca1ad" y="76.901437"/>
    </g>
   </g>
   <g id="line2d_50">
    <g clip-path="url(#p2a461dd51a)">
     <use style="fill:#d10a7b;stroke:#d10a7b;" x="-1" xlink:href="#m6e871ca1ad" y="313.471586"/>
     <use style="fill:#d10a7b;stroke:#d10a7b;" x="222.546445" xlink:href="#m6e871ca1ad" y="313.4704"/>
     <use style="fill:#d10a7b;stroke:#d10a7b;" x="269.728593" xlink:href="#m6e871ca1ad" y="312.843105"/>
     <use style="fill:#d10a7b;stroke:#d10a7b;" x="316.910741" xlink:href="#m6e871ca1ad" y="311.135045"/>
     <use style="fill:#d10a7b;stroke:#d10a7b;" x="379.282148" xlink:href="#m6e871ca1ad" y="304.950329"/>
     <use style="fill:#d10a7b;stroke:#d10a7b;" x="426.464296" xlink:href="#m6e871ca1ad" y="287.597766"/>
     <use style="fill:#d10a7b;stroke:#d10a7b;" x="473.646445" xlink:href="#m6e871ca1ad" y="234.057034"/>
     <use style="fill:#d10a7b;stroke:#d10a7b;" x="536.017852" xlink:href="#m6e871ca1ad" y="75.001667"/>
    </g>
   </g>
   <g id="patch_17">
    <path d="M 81 331.632 
L 81 56.8512 
" style="fill:none;stroke:#000000;stroke-linecap:square;stroke-linejoin:miter;stroke-width:0.8;"/>
   </g>
   <g id="patch_18">
    <path d="M 81 331.632 
L 583.2 331.632 
" style="fill:none;stroke:#000000;stroke-linecap:square;stroke-linejoin:miter;stroke-width:0.8;"/>
   </g>
   <g id="text_25">
    <!-- Evolution of GLAU1 -->
    <defs>
     <path d="M 2.984375 54.6875 
L 12.5 54.6875 
L 29.59375 8.796875 
L 46.6875 54.6875 
L 56.203125 54.6875 
L 35.6875 0 
L 23.484375 0 
z
" id="DejaVuSans-118"/>
     <path d="M 18.3125 70.21875 
L 18.3125 54.6875 
L 36.8125 54.6875 
L 36.8125 47.703125 
L 18.3125 47.703125 
L 18.3125 18.015625 
Q 18.3125 11.328125 20.140625 9.421875 
Q 21.96875 7.515625 27.59375 7.515625 
L 36.8125 7.515625 
L 36.8125 0 
L 27.59375 0 
Q 17.1875 0 13.234375 3.875 
Q 9.28125 7.765625 9.28125 18.015625 
L 9.28125 47.703125 
L 2.6875 47.703125 
L 2.6875 54.6875 
L 9.28125 54.6875 
L 9.28125 70.21875 
z
" id="DejaVuSans-116"/>
     <path d="M 37.109375 75.984375 
L 37.109375 68.5 
L 28.515625 68.5 
Q 23.6875 68.5 21.796875 66.546875 
Q 19.921875 64.59375 19.921875 59.515625 
L 19.921875 54.6875 
L 34.71875 54.6875 
L 34.71875 47.703125 
L 19.921875 47.703125 
L 19.921875 0 
L 10.890625 0 
L 10.890625 47.703125 
L 2.296875 47.703125 
L 2.296875 54.6875 
L 10.890625 54.6875 
L 10.890625 58.5 
Q 10.890625 67.625 15.140625 71.796875 
Q 19.390625 75.984375 28.609375 75.984375 
z
" id="DejaVuSans-102"/>
    </defs>
    <g transform="translate(211.516016 50.8512)scale(0.25 -0.25)">
     <use xlink:href="#DejaVuSans-69"/>
     <use x="63.183594" xlink:href="#DejaVuSans-118"/>
     <use x="122.363281" xlink:href="#DejaVuSans-111"/>
     <use x="183.544922" xlink:href="#DejaVuSans-108"/>
     <use x="211.328125" xlink:href="#DejaVuSans-117"/>
     <use x="274.707031" xlink:href="#DejaVuSans-116"/>
     <use x="313.916016" xlink:href="#DejaVuSans-105"/>
     <use x="341.699219" xlink:href="#DejaVuSans-111"/>
     <use x="402.880859" xlink:href="#DejaVuSans-110"/>
     <use x="466.259766" xlink:href="#DejaVuSans-32"/>
     <use x="498.046875" xlink:href="#DejaVuSans-111"/>
     <use x="559.228516" xlink:href="#DejaVuSans-102"/>
     <use x="594.433594" xlink:href="#DejaVuSans-32"/>
     <use x="626.220703" xlink:href="#DejaVuSans-71"/>
     <use x="703.710938" xlink:href="#DejaVuSans-76"/>
     <use x="759.455078" xlink:href="#DejaVuSans-65"/>
     <use x="827.863281" xlink:href="#DejaVuSans-85"/>
     <use x="901.056641" xlink:href="#DejaVuSans-49"/>
    </g>
   </g>
   <g id="legend_1">
    <g id="patch_19">
     <path d="M 91.5 156.91995 
L 204.578906 156.91995 
Q 207.578906 156.91995 207.578906 153.91995 
L 207.578906 67.3512 
Q 207.578906 64.3512 204.578906 64.3512 
L 91.5 64.3512 
Q 88.5 64.3512 88.5 67.3512 
L 88.5 153.91995 
Q 88.5 156.91995 91.5 156.91995 
z
" style="fill:#ffffff;opacity:0.8;stroke:#cccccc;stroke-linejoin:miter;"/>
    </g>
    <g id="line2d_51">
     <path d="M 94.5 76.498856 
L 124.5 76.498856 
" style="fill:none;stroke:#0ad12e;stroke-linecap:square;stroke-width:1.5;"/>
    </g>
    <g id="line2d_52"/>
    <g id="text_26">
     <!-- WT -->
     <g transform="translate(136.5 81.748856)scale(0.15 -0.15)">
      <use xlink:href="#DejaVuSans-87"/>
      <use x="98.876953" xlink:href="#DejaVuSans-84"/>
     </g>
    </g>
    <g id="line2d_53">
     <path d="M 94.5 98.516044 
L 124.5 98.516044 
" style="fill:none;stroke:#0a95d1;stroke-linecap:square;stroke-width:1.5;"/>
    </g>
    <g id="line2d_54"/>
    <g id="text_27">
     <!-- GLAU1.1 -->
     <g transform="translate(136.5 103.766044)scale(0.15 -0.15)">
      <use xlink:href="#DejaVuSans-71"/>
      <use x="77.490234" xlink:href="#DejaVuSans-76"/>
      <use x="133.234375" xlink:href="#DejaVuSans-65"/>
      <use x="201.642578" xlink:href="#DejaVuSans-85"/>
      <use x="274.835938" xlink:href="#DejaVuSans-49"/>
      <use x="338.458984" xlink:href="#DejaVuSans-46"/>
      <use x="370.246094" xlink:href="#DejaVuSans-49"/>
     </g>
    </g>
    <g id="line2d_55">
     <path d="M 94.5 120.533231 
L 124.5 120.533231 
" style="fill:none;stroke:#710ad1;stroke-linecap:square;stroke-width:1.5;"/>
    </g>
    <g id="line2d_56"/>
    <g id="text_28">
     <!-- GLAU1.2 -->
     <g transform="translate(136.5 125.783231)scale(0.15 -0.15)">
      <use xlink:href="#DejaVuSans-71"/>
      <use x="77.490234" xlink:href="#DejaVuSans-76"/>
      <use x="133.234375" xlink:href="#DejaVuSans-65"/>
      <use x="201.642578" xlink:href="#DejaVuSans-85"/>
      <use x="274.835938" xlink:href="#DejaVuSans-49"/>
      <use x="338.458984" xlink:href="#DejaVuSans-46"/>
      <use x="370.246094" xlink:href="#DejaVuSans-50"/>
     </g>
    </g>
    <g id="line2d_57">
     <path d="M 94.5 142.550419 
L 124.5 142.550419 
" style="fill:none;stroke:#d10a7b;stroke-linecap:square;stroke-width:1.5;"/>
    </g>
    <g id="line2d_58"/>
    <g id="text_29">
     <!-- GLAU1.3 -->
     <g transform="translate(136.5 147.800419)scale(0.15 -0.15)">
      <use xlink:href="#DejaVuSans-71"/>
      <use x="77.490234" xlink:href="#DejaVuSans-76"/>
      <use x="133.234375" xlink:href="#DejaVuSans-65"/>
      <use x="201.642578" xlink:href="#DejaVuSans-85"/>
      <use x="274.835938" xlink:href="#DejaVuSans-49"/>
      <use x="338.458984" xlink:href="#DejaVuSans-46"/>
      <use x="370.246094" xlink:href="#DejaVuSans-51"/>
     </g>
    </g>
   </g>
  </g>
 </g>
 <defs>
  <clipPath id="p2a461dd51a">
   <rect height="274.7808" width="502.2" x="81" y="56.8512"/>
  </clipPath>
 </defs>
</svg>
