<?xml version="1.0" encoding="utf-8" standalone="no"?>
<!DOCTYPE svg PUBLIC "-//W3C//DTD SVG 1.1//EN"
  "http://www.w3.org/Graphics/SVG/1.1/DTD/svg11.dtd">
<!-- Created with matplotlib (https://matplotlib.org/) -->
<svg height="473.76pt" version="1.1" viewBox="0 0 648 473.76" width="648pt" xmlns="http://www.w3.org/2000/svg" xmlns:xlink="http://www.w3.org/1999/xlink">
 <defs>
  <style type="text/css">
*{stroke-linecap:butt;stroke-linejoin:round;}
  </style>
 </defs>
 <g id="figure_1">
  <g id="patch_1">
   <path d="M 0 473.76 
L 648 473.76 
L 648 0 
L 0 0 
z
" style="fill:#ffffff;"/>
  </g>
  <g id="axes_1">
   <g id="patch_2">
    <path d="M 81 421.6464 
L 583.2 421.6464 
L 583.2 56.8512 
L 81 56.8512 
z
" style="fill:#ffffff;"/>
   </g>
   <g id="matplotlib.axis_1">
    <g id="xtick_1">
     <g id="line2d_1">
      <defs>
       <path d="M 0 0 
L 0 2 
" id="m3d86ad7fa0" style="stroke:#000000;"/>
      </defs>
      <g>
       <use style="stroke:#000000;" x="179.549735" xlink:href="#m3d86ad7fa0" y="421.6464"/>
      </g>
     </g>
     <g id="text_1">
      <!-- 0.1 -->
      <defs>
       <path d="M 31.78125 66.40625 
Q 24.171875 66.40625 20.328125 58.90625 
Q 16.5 51.421875 16.5 36.375 
Q 16.5 21.390625 20.328125 13.890625 
Q 24.171875 6.390625 31.78125 6.390625 
Q 39.453125 6.390625 43.28125 13.890625 
Q 47.125 21.390625 47.125 36.375 
Q 47.125 51.421875 43.28125 58.90625 
Q 39.453125 66.40625 31.78125 66.40625 
z
M 31.78125 74.21875 
Q 44.046875 74.21875 50.515625 64.515625 
Q 56.984375 54.828125 56.984375 36.375 
Q 56.984375 17.96875 50.515625 8.265625 
Q 44.046875 -1.421875 31.78125 -1.421875 
Q 19.53125 -1.421875 13.0625 8.265625 
Q 6.59375 17.96875 6.59375 36.375 
Q 6.59375 54.828125 13.0625 64.515625 
Q 19.53125 74.21875 31.78125 74.21875 
z
" id="DejaVuSans-48"/>
       <path d="M 10.6875 12.40625 
L 21 12.40625 
L 21 0 
L 10.6875 0 
z
" id="DejaVuSans-46"/>
       <path d="M 12.40625 8.296875 
L 28.515625 8.296875 
L 28.515625 63.921875 
L 10.984375 60.40625 
L 10.984375 69.390625 
L 28.421875 72.90625 
L 38.28125 72.90625 
L 38.28125 8.296875 
L 54.390625 8.296875 
L 54.390625 0 
L 12.40625 0 
z
" id="DejaVuSans-49"/>
      </defs>
      <g transform="translate(165.236922 440.823588)scale(0.18 -0.18)">
       <use xlink:href="#DejaVuSans-48"/>
       <use x="63.623047" xlink:href="#DejaVuSans-46"/>
       <use x="95.410156" xlink:href="#DejaVuSans-49"/>
      </g>
     </g>
    </g>
    <g id="xtick_2">
     <g id="line2d_2">
      <g>
       <use style="stroke:#000000;" x="288.674779" xlink:href="#m3d86ad7fa0" y="421.6464"/>
      </g>
     </g>
     <g id="text_2">
      <!-- 1.0 -->
      <g transform="translate(274.361966 440.823588)scale(0.18 -0.18)">
       <use xlink:href="#DejaVuSans-49"/>
       <use x="63.623047" xlink:href="#DejaVuSans-46"/>
       <use x="95.410156" xlink:href="#DejaVuSans-48"/>
      </g>
     </g>
    </g>
    <g id="xtick_3">
     <g id="line2d_3">
      <g>
       <use style="stroke:#000000;" x="397.799823" xlink:href="#m3d86ad7fa0" y="421.6464"/>
      </g>
     </g>
     <g id="text_3">
      <!-- 10.0 -->
      <g transform="translate(377.760761 440.823588)scale(0.18 -0.18)">
       <use xlink:href="#DejaVuSans-49"/>
       <use x="63.623047" xlink:href="#DejaVuSans-48"/>
       <use x="127.246094" xlink:href="#DejaVuSans-46"/>
       <use x="159.033203" xlink:href="#DejaVuSans-48"/>
      </g>
     </g>
    </g>
    <g id="xtick_4">
     <g id="line2d_4">
      <g>
       <use style="stroke:#000000;" x="506.924867" xlink:href="#m3d86ad7fa0" y="421.6464"/>
      </g>
     </g>
     <g id="text_4">
      <!-- 100.0 -->
      <g transform="translate(481.159555 440.823588)scale(0.18 -0.18)">
       <use xlink:href="#DejaVuSans-49"/>
       <use x="63.623047" xlink:href="#DejaVuSans-48"/>
       <use x="127.246094" xlink:href="#DejaVuSans-48"/>
       <use x="190.869141" xlink:href="#DejaVuSans-46"/>
       <use x="222.65625" xlink:href="#DejaVuSans-48"/>
      </g>
     </g>
    </g>
    <g id="xtick_5">
     <g id="line2d_5">
      <defs>
       <path d="M 0 0 
L 0 2 
" id="mc078736554" style="stroke:#000000;stroke-width:0.6;"/>
      </defs>
      <g>
       <use style="stroke:#000000;stroke-width:0.6;" x="103.274602" xlink:href="#mc078736554" y="421.6464"/>
      </g>
     </g>
    </g>
    <g id="xtick_6">
     <g id="line2d_6">
      <g>
       <use style="stroke:#000000;stroke-width:0.6;" x="122.490569" xlink:href="#mc078736554" y="421.6464"/>
      </g>
     </g>
    </g>
    <g id="xtick_7">
     <g id="line2d_7">
      <g>
       <use style="stroke:#000000;stroke-width:0.6;" x="136.124514" xlink:href="#mc078736554" y="421.6464"/>
      </g>
     </g>
    </g>
    <g id="xtick_8">
     <g id="line2d_8">
      <g>
       <use style="stroke:#000000;stroke-width:0.6;" x="146.699823" xlink:href="#mc078736554" y="421.6464"/>
      </g>
     </g>
    </g>
    <g id="xtick_9">
     <g id="line2d_9">
      <g>
       <use style="stroke:#000000;stroke-width:0.6;" x="155.34048" xlink:href="#mc078736554" y="421.6464"/>
      </g>
     </g>
    </g>
    <g id="xtick_10">
     <g id="line2d_10">
      <g>
       <use style="stroke:#000000;stroke-width:0.6;" x="162.646052" xlink:href="#mc078736554" y="421.6464"/>
      </g>
     </g>
    </g>
    <g id="xtick_11">
     <g id="line2d_11">
      <g>
       <use style="stroke:#000000;stroke-width:0.6;" x="168.974425" xlink:href="#mc078736554" y="421.6464"/>
      </g>
     </g>
    </g>
    <g id="xtick_12">
     <g id="line2d_12">
      <g>
       <use style="stroke:#000000;stroke-width:0.6;" x="174.556447" xlink:href="#mc078736554" y="421.6464"/>
      </g>
     </g>
    </g>
    <g id="xtick_13">
     <g id="line2d_13">
      <g>
       <use style="stroke:#000000;stroke-width:0.6;" x="212.399646" xlink:href="#mc078736554" y="421.6464"/>
      </g>
     </g>
    </g>
    <g id="xtick_14">
     <g id="line2d_14">
      <g>
       <use style="stroke:#000000;stroke-width:0.6;" x="231.615613" xlink:href="#mc078736554" y="421.6464"/>
      </g>
     </g>
    </g>
    <g id="xtick_15">
     <g id="line2d_15">
      <g>
       <use style="stroke:#000000;stroke-width:0.6;" x="245.249558" xlink:href="#mc078736554" y="421.6464"/>
      </g>
     </g>
    </g>
    <g id="xtick_16">
     <g id="line2d_16">
      <g>
       <use style="stroke:#000000;stroke-width:0.6;" x="255.824867" xlink:href="#mc078736554" y="421.6464"/>
      </g>
     </g>
    </g>
    <g id="xtick_17">
     <g id="line2d_17">
      <g>
       <use style="stroke:#000000;stroke-width:0.6;" x="264.465524" xlink:href="#mc078736554" y="421.6464"/>
      </g>
     </g>
    </g>
    <g id="xtick_18">
     <g id="line2d_18">
      <g>
       <use style="stroke:#000000;stroke-width:0.6;" x="271.771096" xlink:href="#mc078736554" y="421.6464"/>
      </g>
     </g>
    </g>
    <g id="xtick_19">
     <g id="line2d_19">
      <g>
       <use style="stroke:#000000;stroke-width:0.6;" x="278.09947" xlink:href="#mc078736554" y="421.6464"/>
      </g>
     </g>
    </g>
    <g id="xtick_20">
     <g id="line2d_20">
      <g>
       <use style="stroke:#000000;stroke-width:0.6;" x="283.681491" xlink:href="#mc078736554" y="421.6464"/>
      </g>
     </g>
    </g>
    <g id="xtick_21">
     <g id="line2d_21">
      <g>
       <use style="stroke:#000000;stroke-width:0.6;" x="321.524691" xlink:href="#mc078736554" y="421.6464"/>
      </g>
     </g>
    </g>
    <g id="xtick_22">
     <g id="line2d_22">
      <g>
       <use style="stroke:#000000;stroke-width:0.6;" x="340.740657" xlink:href="#mc078736554" y="421.6464"/>
      </g>
     </g>
    </g>
    <g id="xtick_23">
     <g id="line2d_23">
      <g>
       <use style="stroke:#000000;stroke-width:0.6;" x="354.374602" xlink:href="#mc078736554" y="421.6464"/>
      </g>
     </g>
    </g>
    <g id="xtick_24">
     <g id="line2d_24">
      <g>
       <use style="stroke:#000000;stroke-width:0.6;" x="364.949912" xlink:href="#mc078736554" y="421.6464"/>
      </g>
     </g>
    </g>
    <g id="xtick_25">
     <g id="line2d_25">
      <g>
       <use style="stroke:#000000;stroke-width:0.6;" x="373.590569" xlink:href="#mc078736554" y="421.6464"/>
      </g>
     </g>
    </g>
    <g id="xtick_26">
     <g id="line2d_26">
      <g>
       <use style="stroke:#000000;stroke-width:0.6;" x="380.89614" xlink:href="#mc078736554" y="421.6464"/>
      </g>
     </g>
    </g>
    <g id="xtick_27">
     <g id="line2d_27">
      <g>
       <use style="stroke:#000000;stroke-width:0.6;" x="387.224514" xlink:href="#mc078736554" y="421.6464"/>
      </g>
     </g>
    </g>
    <g id="xtick_28">
     <g id="line2d_28">
      <g>
       <use style="stroke:#000000;stroke-width:0.6;" x="392.806535" xlink:href="#mc078736554" y="421.6464"/>
      </g>
     </g>
    </g>
    <g id="xtick_29">
     <g id="line2d_29">
      <g>
       <use style="stroke:#000000;stroke-width:0.6;" x="430.649735" xlink:href="#mc078736554" y="421.6464"/>
      </g>
     </g>
    </g>
    <g id="xtick_30">
     <g id="line2d_30">
      <g>
       <use style="stroke:#000000;stroke-width:0.6;" x="449.865701" xlink:href="#mc078736554" y="421.6464"/>
      </g>
     </g>
    </g>
    <g id="xtick_31">
     <g id="line2d_31">
      <g>
       <use style="stroke:#000000;stroke-width:0.6;" x="463.499646" xlink:href="#mc078736554" y="421.6464"/>
      </g>
     </g>
    </g>
    <g id="xtick_32">
     <g id="line2d_32">
      <g>
       <use style="stroke:#000000;stroke-width:0.6;" x="474.074956" xlink:href="#mc078736554" y="421.6464"/>
      </g>
     </g>
    </g>
    <g id="xtick_33">
     <g id="line2d_33">
      <g>
       <use style="stroke:#000000;stroke-width:0.6;" x="482.715613" xlink:href="#mc078736554" y="421.6464"/>
      </g>
     </g>
    </g>
    <g id="xtick_34">
     <g id="line2d_34">
      <g>
       <use style="stroke:#000000;stroke-width:0.6;" x="490.021184" xlink:href="#mc078736554" y="421.6464"/>
      </g>
     </g>
    </g>
    <g id="xtick_35">
     <g id="line2d_35">
      <g>
       <use style="stroke:#000000;stroke-width:0.6;" x="496.349558" xlink:href="#mc078736554" y="421.6464"/>
      </g>
     </g>
    </g>
    <g id="xtick_36">
     <g id="line2d_36">
      <g>
       <use style="stroke:#000000;stroke-width:0.6;" x="501.931579" xlink:href="#mc078736554" y="421.6464"/>
      </g>
     </g>
    </g>
    <g id="xtick_37">
     <g id="line2d_37">
      <g>
       <use style="stroke:#000000;stroke-width:0.6;" x="539.774779" xlink:href="#mc078736554" y="421.6464"/>
      </g>
     </g>
    </g>
    <g id="xtick_38">
     <g id="line2d_38">
      <g>
       <use style="stroke:#000000;stroke-width:0.6;" x="558.990745" xlink:href="#mc078736554" y="421.6464"/>
      </g>
     </g>
    </g>
    <g id="xtick_39">
     <g id="line2d_39">
      <g>
       <use style="stroke:#000000;stroke-width:0.6;" x="572.624691" xlink:href="#mc078736554" y="421.6464"/>
      </g>
     </g>
    </g>
    <g id="xtick_40">
     <g id="line2d_40">
      <g>
       <use style="stroke:#000000;stroke-width:0.6;" x="583.2" xlink:href="#mc078736554" y="421.6464"/>
      </g>
     </g>
    </g>
    <g id="text_5">
     <!-- Glaucine (uM) -->
     <defs>
      <path d="M 59.515625 10.40625 
L 59.515625 29.984375 
L 43.40625 29.984375 
L 43.40625 38.09375 
L 69.28125 38.09375 
L 69.28125 6.78125 
Q 63.578125 2.734375 56.6875 0.65625 
Q 49.8125 -1.421875 42 -1.421875 
Q 24.90625 -1.421875 15.25 8.5625 
Q 5.609375 18.5625 5.609375 36.375 
Q 5.609375 54.25 15.25 64.234375 
Q 24.90625 74.21875 42 74.21875 
Q 49.125 74.21875 55.546875 72.453125 
Q 61.96875 70.703125 67.390625 67.28125 
L 67.390625 56.78125 
Q 61.921875 61.421875 55.765625 63.765625 
Q 49.609375 66.109375 42.828125 66.109375 
Q 29.4375 66.109375 22.71875 58.640625 
Q 16.015625 51.171875 16.015625 36.375 
Q 16.015625 21.625 22.71875 14.15625 
Q 29.4375 6.6875 42.828125 6.6875 
Q 48.046875 6.6875 52.140625 7.59375 
Q 56.25 8.5 59.515625 10.40625 
z
" id="DejaVuSans-71"/>
      <path d="M 9.421875 75.984375 
L 18.40625 75.984375 
L 18.40625 0 
L 9.421875 0 
z
" id="DejaVuSans-108"/>
      <path d="M 34.28125 27.484375 
Q 23.390625 27.484375 19.1875 25 
Q 14.984375 22.515625 14.984375 16.5 
Q 14.984375 11.71875 18.140625 8.90625 
Q 21.296875 6.109375 26.703125 6.109375 
Q 34.1875 6.109375 38.703125 11.40625 
Q 43.21875 16.703125 43.21875 25.484375 
L 43.21875 27.484375 
z
M 52.203125 31.203125 
L 52.203125 0 
L 43.21875 0 
L 43.21875 8.296875 
Q 40.140625 3.328125 35.546875 0.953125 
Q 30.953125 -1.421875 24.3125 -1.421875 
Q 15.921875 -1.421875 10.953125 3.296875 
Q 6 8.015625 6 15.921875 
Q 6 25.140625 12.171875 29.828125 
Q 18.359375 34.515625 30.609375 34.515625 
L 43.21875 34.515625 
L 43.21875 35.40625 
Q 43.21875 41.609375 39.140625 45 
Q 35.0625 48.390625 27.6875 48.390625 
Q 23 48.390625 18.546875 47.265625 
Q 14.109375 46.140625 10.015625 43.890625 
L 10.015625 52.203125 
Q 14.9375 54.109375 19.578125 55.046875 
Q 24.21875 56 28.609375 56 
Q 40.484375 56 46.34375 49.84375 
Q 52.203125 43.703125 52.203125 31.203125 
z
" id="DejaVuSans-97"/>
      <path d="M 8.5 21.578125 
L 8.5 54.6875 
L 17.484375 54.6875 
L 17.484375 21.921875 
Q 17.484375 14.15625 20.5 10.265625 
Q 23.53125 6.390625 29.59375 6.390625 
Q 36.859375 6.390625 41.078125 11.03125 
Q 45.3125 15.671875 45.3125 23.6875 
L 45.3125 54.6875 
L 54.296875 54.6875 
L 54.296875 0 
L 45.3125 0 
L 45.3125 8.40625 
Q 42.046875 3.421875 37.71875 1 
Q 33.40625 -1.421875 27.6875 -1.421875 
Q 18.265625 -1.421875 13.375 4.4375 
Q 8.5 10.296875 8.5 21.578125 
z
M 31.109375 56 
z
" id="DejaVuSans-117"/>
      <path d="M 48.78125 52.59375 
L 48.78125 44.1875 
Q 44.96875 46.296875 41.140625 47.34375 
Q 37.3125 48.390625 33.40625 48.390625 
Q 24.65625 48.390625 19.8125 42.84375 
Q 14.984375 37.3125 14.984375 27.296875 
Q 14.984375 17.28125 19.8125 11.734375 
Q 24.65625 6.203125 33.40625 6.203125 
Q 37.3125 6.203125 41.140625 7.25 
Q 44.96875 8.296875 48.78125 10.40625 
L 48.78125 2.09375 
Q 45.015625 0.34375 40.984375 -0.53125 
Q 36.96875 -1.421875 32.421875 -1.421875 
Q 20.0625 -1.421875 12.78125 6.34375 
Q 5.515625 14.109375 5.515625 27.296875 
Q 5.515625 40.671875 12.859375 48.328125 
Q 20.21875 56 33.015625 56 
Q 37.15625 56 41.109375 55.140625 
Q 45.0625 54.296875 48.78125 52.59375 
z
" id="DejaVuSans-99"/>
      <path d="M 9.421875 54.6875 
L 18.40625 54.6875 
L 18.40625 0 
L 9.421875 0 
z
M 9.421875 75.984375 
L 18.40625 75.984375 
L 18.40625 64.59375 
L 9.421875 64.59375 
z
" id="DejaVuSans-105"/>
      <path d="M 54.890625 33.015625 
L 54.890625 0 
L 45.90625 0 
L 45.90625 32.71875 
Q 45.90625 40.484375 42.875 44.328125 
Q 39.84375 48.1875 33.796875 48.1875 
Q 26.515625 48.1875 22.3125 43.546875 
Q 18.109375 38.921875 18.109375 30.90625 
L 18.109375 0 
L 9.078125 0 
L 9.078125 54.6875 
L 18.109375 54.6875 
L 18.109375 46.1875 
Q 21.34375 51.125 25.703125 53.5625 
Q 30.078125 56 35.796875 56 
Q 45.21875 56 50.046875 50.171875 
Q 54.890625 44.34375 54.890625 33.015625 
z
" id="DejaVuSans-110"/>
      <path d="M 56.203125 29.59375 
L 56.203125 25.203125 
L 14.890625 25.203125 
Q 15.484375 15.921875 20.484375 11.0625 
Q 25.484375 6.203125 34.421875 6.203125 
Q 39.59375 6.203125 44.453125 7.46875 
Q 49.3125 8.734375 54.109375 11.28125 
L 54.109375 2.78125 
Q 49.265625 0.734375 44.1875 -0.34375 
Q 39.109375 -1.421875 33.890625 -1.421875 
Q 20.796875 -1.421875 13.15625 6.1875 
Q 5.515625 13.8125 5.515625 26.8125 
Q 5.515625 40.234375 12.765625 48.109375 
Q 20.015625 56 32.328125 56 
Q 43.359375 56 49.78125 48.890625 
Q 56.203125 41.796875 56.203125 29.59375 
z
M 47.21875 32.234375 
Q 47.125 39.59375 43.09375 43.984375 
Q 39.0625 48.390625 32.421875 48.390625 
Q 24.90625 48.390625 20.390625 44.140625 
Q 15.875 39.890625 15.1875 32.171875 
z
" id="DejaVuSans-101"/>
      <path id="DejaVuSans-32"/>
      <path d="M 31 75.875 
Q 24.46875 64.65625 21.28125 53.65625 
Q 18.109375 42.671875 18.109375 31.390625 
Q 18.109375 20.125 21.3125 9.0625 
Q 24.515625 -2 31 -13.1875 
L 23.1875 -13.1875 
Q 15.875 -1.703125 12.234375 9.375 
Q 8.59375 20.453125 8.59375 31.390625 
Q 8.59375 42.28125 12.203125 53.3125 
Q 15.828125 64.359375 23.1875 75.875 
z
" id="DejaVuSans-40"/>
      <path d="M 9.8125 72.90625 
L 24.515625 72.90625 
L 43.109375 23.296875 
L 61.8125 72.90625 
L 76.515625 72.90625 
L 76.515625 0 
L 66.890625 0 
L 66.890625 64.015625 
L 48.09375 14.015625 
L 38.1875 14.015625 
L 19.390625 64.015625 
L 19.390625 0 
L 9.8125 0 
z
" id="DejaVuSans-77"/>
      <path d="M 8.015625 75.875 
L 15.828125 75.875 
Q 23.140625 64.359375 26.78125 53.3125 
Q 30.421875 42.28125 30.421875 31.390625 
Q 30.421875 20.453125 26.78125 9.375 
Q 23.140625 -1.703125 15.828125 -13.1875 
L 8.015625 -13.1875 
Q 14.5 -2 17.703125 9.0625 
Q 20.90625 20.125 20.90625 31.390625 
Q 20.90625 42.671875 17.703125 53.65625 
Q 14.5 64.65625 8.015625 75.875 
z
" id="DejaVuSans-41"/>
     </defs>
     <g transform="translate(262.39375 463.7639)scale(0.2 -0.2)">
      <use xlink:href="#DejaVuSans-71"/>
      <use x="77.490234" xlink:href="#DejaVuSans-108"/>
      <use x="105.273438" xlink:href="#DejaVuSans-97"/>
      <use x="166.552734" xlink:href="#DejaVuSans-117"/>
      <use x="229.931641" xlink:href="#DejaVuSans-99"/>
      <use x="284.912109" xlink:href="#DejaVuSans-105"/>
      <use x="312.695312" xlink:href="#DejaVuSans-110"/>
      <use x="376.074219" xlink:href="#DejaVuSans-101"/>
      <use x="437.597656" xlink:href="#DejaVuSans-32"/>
      <use x="469.384766" xlink:href="#DejaVuSans-40"/>
      <use x="508.398438" xlink:href="#DejaVuSans-117"/>
      <use x="571.777344" xlink:href="#DejaVuSans-77"/>
      <use x="658.056641" xlink:href="#DejaVuSans-41"/>
     </g>
    </g>
   </g>
   <g id="matplotlib.axis_2">
    <g id="ytick_1">
     <g id="line2d_41">
      <defs>
       <path d="M 0 0 
L -2 0 
" id="md634570c0b" style="stroke:#000000;"/>
      </defs>
      <g>
       <use style="stroke:#000000;" x="81" xlink:href="#md634570c0b" y="406.420657"/>
      </g>
     </g>
     <g id="text_6">
      <!-- 0 -->
      <g transform="translate(64.0475 413.25925)scale(0.18 -0.18)">
       <use xlink:href="#DejaVuSans-48"/>
      </g>
     </g>
    </g>
    <g id="ytick_2">
     <g id="line2d_42">
      <g>
       <use style="stroke:#000000;" x="81" xlink:href="#md634570c0b" y="355.289624"/>
      </g>
     </g>
     <g id="text_7">
      <!-- 1 -->
      <g transform="translate(64.0475 362.128218)scale(0.18 -0.18)">
       <use xlink:href="#DejaVuSans-49"/>
      </g>
     </g>
    </g>
    <g id="ytick_3">
     <g id="line2d_43">
      <g>
       <use style="stroke:#000000;" x="81" xlink:href="#md634570c0b" y="304.158592"/>
      </g>
     </g>
     <g id="text_8">
      <!-- 2 -->
      <defs>
       <path d="M 19.1875 8.296875 
L 53.609375 8.296875 
L 53.609375 0 
L 7.328125 0 
L 7.328125 8.296875 
Q 12.9375 14.109375 22.625 23.890625 
Q 32.328125 33.6875 34.8125 36.53125 
Q 39.546875 41.84375 41.421875 45.53125 
Q 43.3125 49.21875 43.3125 52.78125 
Q 43.3125 58.59375 39.234375 62.25 
Q 35.15625 65.921875 28.609375 65.921875 
Q 23.96875 65.921875 18.8125 64.3125 
Q 13.671875 62.703125 7.8125 59.421875 
L 7.8125 69.390625 
Q 13.765625 71.78125 18.9375 73 
Q 24.125 74.21875 28.421875 74.21875 
Q 39.75 74.21875 46.484375 68.546875 
Q 53.21875 62.890625 53.21875 53.421875 
Q 53.21875 48.921875 51.53125 44.890625 
Q 49.859375 40.875 45.40625 35.40625 
Q 44.1875 33.984375 37.640625 27.21875 
Q 31.109375 20.453125 19.1875 8.296875 
z
" id="DejaVuSans-50"/>
      </defs>
      <g transform="translate(64.0475 310.997186)scale(0.18 -0.18)">
       <use xlink:href="#DejaVuSans-50"/>
      </g>
     </g>
    </g>
    <g id="ytick_4">
     <g id="line2d_44">
      <g>
       <use style="stroke:#000000;" x="81" xlink:href="#md634570c0b" y="253.02756"/>
      </g>
     </g>
     <g id="text_9">
      <!-- 3 -->
      <defs>
       <path d="M 40.578125 39.3125 
Q 47.65625 37.796875 51.625 33 
Q 55.609375 28.21875 55.609375 21.1875 
Q 55.609375 10.40625 48.1875 4.484375 
Q 40.765625 -1.421875 27.09375 -1.421875 
Q 22.515625 -1.421875 17.65625 -0.515625 
Q 12.796875 0.390625 7.625 2.203125 
L 7.625 11.71875 
Q 11.71875 9.328125 16.59375 8.109375 
Q 21.484375 6.890625 26.8125 6.890625 
Q 36.078125 6.890625 40.9375 10.546875 
Q 45.796875 14.203125 45.796875 21.1875 
Q 45.796875 27.640625 41.28125 31.265625 
Q 36.765625 34.90625 28.71875 34.90625 
L 20.21875 34.90625 
L 20.21875 43.015625 
L 29.109375 43.015625 
Q 36.375 43.015625 40.234375 45.921875 
Q 44.09375 48.828125 44.09375 54.296875 
Q 44.09375 59.90625 40.109375 62.90625 
Q 36.140625 65.921875 28.71875 65.921875 
Q 24.65625 65.921875 20.015625 65.03125 
Q 15.375 64.15625 9.8125 62.3125 
L 9.8125 71.09375 
Q 15.4375 72.65625 20.34375 73.4375 
Q 25.25 74.21875 29.59375 74.21875 
Q 40.828125 74.21875 47.359375 69.109375 
Q 53.90625 64.015625 53.90625 55.328125 
Q 53.90625 49.265625 50.4375 45.09375 
Q 46.96875 40.921875 40.578125 39.3125 
z
" id="DejaVuSans-51"/>
      </defs>
      <g transform="translate(64.0475 259.866154)scale(0.18 -0.18)">
       <use xlink:href="#DejaVuSans-51"/>
      </g>
     </g>
    </g>
    <g id="ytick_5">
     <g id="line2d_45">
      <g>
       <use style="stroke:#000000;" x="81" xlink:href="#md634570c0b" y="201.896528"/>
      </g>
     </g>
     <g id="text_10">
      <!-- 4 -->
      <defs>
       <path d="M 37.796875 64.3125 
L 12.890625 25.390625 
L 37.796875 25.390625 
z
M 35.203125 72.90625 
L 47.609375 72.90625 
L 47.609375 25.390625 
L 58.015625 25.390625 
L 58.015625 17.1875 
L 47.609375 17.1875 
L 47.609375 0 
L 37.796875 0 
L 37.796875 17.1875 
L 4.890625 17.1875 
L 4.890625 26.703125 
z
" id="DejaVuSans-52"/>
      </defs>
      <g transform="translate(64.0475 208.735122)scale(0.18 -0.18)">
       <use xlink:href="#DejaVuSans-52"/>
      </g>
     </g>
    </g>
    <g id="ytick_6">
     <g id="line2d_46">
      <g>
       <use style="stroke:#000000;" x="81" xlink:href="#md634570c0b" y="150.765496"/>
      </g>
     </g>
     <g id="text_11">
      <!-- 5 -->
      <defs>
       <path d="M 10.796875 72.90625 
L 49.515625 72.90625 
L 49.515625 64.59375 
L 19.828125 64.59375 
L 19.828125 46.734375 
Q 21.96875 47.46875 24.109375 47.828125 
Q 26.265625 48.1875 28.421875 48.1875 
Q 40.625 48.1875 47.75 41.5 
Q 54.890625 34.8125 54.890625 23.390625 
Q 54.890625 11.625 47.5625 5.09375 
Q 40.234375 -1.421875 26.90625 -1.421875 
Q 22.3125 -1.421875 17.546875 -0.640625 
Q 12.796875 0.140625 7.71875 1.703125 
L 7.71875 11.625 
Q 12.109375 9.234375 16.796875 8.0625 
Q 21.484375 6.890625 26.703125 6.890625 
Q 35.15625 6.890625 40.078125 11.328125 
Q 45.015625 15.765625 45.015625 23.390625 
Q 45.015625 31 40.078125 35.4375 
Q 35.15625 39.890625 26.703125 39.890625 
Q 22.75 39.890625 18.8125 39.015625 
Q 14.890625 38.140625 10.796875 36.28125 
z
" id="DejaVuSans-53"/>
      </defs>
      <g transform="translate(64.0475 157.60409)scale(0.18 -0.18)">
       <use xlink:href="#DejaVuSans-53"/>
      </g>
     </g>
    </g>
    <g id="ytick_7">
     <g id="line2d_47">
      <g>
       <use style="stroke:#000000;" x="81" xlink:href="#md634570c0b" y="99.634464"/>
      </g>
     </g>
     <g id="text_12">
      <!-- 6 -->
      <defs>
       <path d="M 33.015625 40.375 
Q 26.375 40.375 22.484375 35.828125 
Q 18.609375 31.296875 18.609375 23.390625 
Q 18.609375 15.53125 22.484375 10.953125 
Q 26.375 6.390625 33.015625 6.390625 
Q 39.65625 6.390625 43.53125 10.953125 
Q 47.40625 15.53125 47.40625 23.390625 
Q 47.40625 31.296875 43.53125 35.828125 
Q 39.65625 40.375 33.015625 40.375 
z
M 52.59375 71.296875 
L 52.59375 62.3125 
Q 48.875 64.0625 45.09375 64.984375 
Q 41.3125 65.921875 37.59375 65.921875 
Q 27.828125 65.921875 22.671875 59.328125 
Q 17.53125 52.734375 16.796875 39.40625 
Q 19.671875 43.65625 24.015625 45.921875 
Q 28.375 48.1875 33.59375 48.1875 
Q 44.578125 48.1875 50.953125 41.515625 
Q 57.328125 34.859375 57.328125 23.390625 
Q 57.328125 12.15625 50.6875 5.359375 
Q 44.046875 -1.421875 33.015625 -1.421875 
Q 20.359375 -1.421875 13.671875 8.265625 
Q 6.984375 17.96875 6.984375 36.375 
Q 6.984375 53.65625 15.1875 63.9375 
Q 23.390625 74.21875 37.203125 74.21875 
Q 40.921875 74.21875 44.703125 73.484375 
Q 48.484375 72.75 52.59375 71.296875 
z
" id="DejaVuSans-54"/>
      </defs>
      <g transform="translate(64.0475 106.473058)scale(0.18 -0.18)">
       <use xlink:href="#DejaVuSans-54"/>
      </g>
     </g>
    </g>
    <g id="text_13">
     <!-- $(RFU/OD) \times 10^4$ -->
     <defs>
      <path d="M 25.203125 64.796875 
L 20.21875 38.921875 
L 32.90625 38.921875 
Q 40.375 38.921875 44.984375 43.046875 
Q 49.609375 47.171875 49.609375 53.8125 
Q 49.609375 59.125 46.5 61.953125 
Q 43.40625 64.796875 37.59375 64.796875 
z
M 43.3125 35.015625 
Q 46.4375 34.28125 48.515625 31.390625 
Q 50.59375 28.515625 53.328125 19.921875 
L 59.515625 0 
L 49.125 0 
L 43.40625 18.703125 
Q 41.21875 25.921875 38.328125 28.359375 
Q 35.453125 30.8125 29.5 30.8125 
L 18.609375 30.8125 
L 12.59375 0 
L 2.6875 0 
L 16.890625 72.90625 
L 39.109375 72.90625 
Q 49.21875 72.90625 54.609375 68.328125 
Q 60.015625 63.765625 60.015625 55.171875 
Q 60.015625 47.5625 55.421875 41.984375 
Q 50.828125 36.421875 43.3125 35.015625 
z
" id="DejaVuSans-Oblique-82"/>
      <path d="M 16.890625 72.90625 
L 58.6875 72.90625 
L 57.078125 64.59375 
L 25.09375 64.59375 
L 20.90625 43.109375 
L 49.8125 43.109375 
L 48.1875 34.8125 
L 19.28125 34.8125 
L 12.5 0 
L 2.6875 0 
z
" id="DejaVuSans-Oblique-70"/>
      <path d="M 15.484375 72.90625 
L 25.390625 72.90625 
L 16.796875 28.609375 
Q 16.265625 25.640625 16.046875 23.703125 
Q 15.828125 21.78125 15.828125 20.3125 
Q 15.828125 13.578125 19.578125 10.078125 
Q 23.34375 6.59375 30.609375 6.59375 
Q 40.046875 6.59375 45.28125 11.765625 
Q 50.53125 16.9375 52.78125 28.609375 
L 61.375 72.90625 
L 71.296875 72.90625 
L 62.5 27.390625 
Q 59.625 12.640625 51.5625 5.609375 
Q 43.5 -1.421875 29.5 -1.421875 
Q 18.5625 -1.421875 12.1875 4.078125 
Q 5.8125 9.578125 5.8125 19 
Q 5.8125 20.703125 6.046875 22.828125 
Q 6.296875 24.953125 6.78125 27.390625 
z
" id="DejaVuSans-Oblique-85"/>
      <path d="M 25.390625 72.90625 
L 33.6875 72.90625 
L 8.296875 -9.28125 
L 0 -9.28125 
z
" id="DejaVuSans-47"/>
      <path d="M 45.609375 66.21875 
Q 37.5 66.21875 31.296875 62.28125 
Q 25.09375 58.34375 20.515625 50.296875 
Q 17.578125 45.171875 16.03125 39.40625 
Q 14.5 33.640625 14.5 27.78125 
Q 14.5 17.625 19.359375 12.109375 
Q 24.21875 6.59375 33.109375 6.59375 
Q 41.109375 6.59375 47.375 10.5625 
Q 53.65625 14.546875 58.109375 22.40625 
Q 61.078125 27.6875 62.640625 33.46875 
Q 64.203125 39.265625 64.203125 45.015625 
Q 64.203125 55.125 59.3125 60.671875 
Q 54.4375 66.21875 45.609375 66.21875 
z
M 32.8125 -1.421875 
Q 19.390625 -1.421875 11.6875 6.53125 
Q 4 14.5 4 28.328125 
Q 4 36.234375 7 44.484375 
Q 10.015625 52.734375 15.28125 59.1875 
Q 21.484375 66.75 29.09375 70.484375 
Q 36.71875 74.21875 45.90625 74.21875 
Q 59.28125 74.21875 66.984375 66.328125 
Q 74.703125 58.453125 74.703125 44.828125 
Q 74.703125 36.421875 71.765625 28.3125 
Q 68.84375 20.21875 63.375 13.625 
Q 57.125 6 49.578125 2.28125 
Q 42.046875 -1.421875 32.8125 -1.421875 
z
" id="DejaVuSans-Oblique-79"/>
      <path d="M 16.890625 72.90625 
L 38.09375 72.90625 
Q 54.984375 72.90625 63.59375 65.75 
Q 72.21875 58.59375 72.21875 44.484375 
Q 72.21875 35.15625 68.9375 26.53125 
Q 65.671875 17.921875 59.90625 12.015625 
Q 54.109375 5.953125 45.171875 2.96875 
Q 36.234375 0 24.03125 0 
L 2.6875 0 
z
M 25.203125 64.796875 
L 14.203125 8.109375 
L 27.09375 8.109375 
Q 43.65625 8.109375 52.734375 17.625 
Q 61.8125 27.15625 61.8125 44.484375 
Q 61.8125 54.984375 55.953125 59.890625 
Q 50.09375 64.796875 37.59375 64.796875 
z
" id="DejaVuSans-Oblique-68"/>
      <path d="M 70.125 53.71875 
L 47.796875 31.296875 
L 70.125 8.984375 
L 64.3125 3.078125 
L 41.890625 25.484375 
L 19.484375 3.078125 
L 13.71875 8.984375 
L 35.984375 31.296875 
L 13.71875 53.71875 
L 19.484375 59.625 
L 41.890625 37.203125 
L 64.3125 59.625 
z
" id="DejaVuSans-215"/>
     </defs>
     <g transform="translate(55.888125 315.8488)rotate(-90)scale(0.2 -0.2)">
      <use transform="translate(0 0.684375)" xlink:href="#DejaVuSans-40"/>
      <use transform="translate(39.013672 0.684375)" xlink:href="#DejaVuSans-Oblique-82"/>
      <use transform="translate(108.496094 0.684375)" xlink:href="#DejaVuSans-Oblique-70"/>
      <use transform="translate(166.015625 0.684375)" xlink:href="#DejaVuSans-Oblique-85"/>
      <use transform="translate(239.208984 0.684375)" xlink:href="#DejaVuSans-47"/>
      <use transform="translate(272.900391 0.684375)" xlink:href="#DejaVuSans-Oblique-79"/>
      <use transform="translate(351.611328 0.684375)" xlink:href="#DejaVuSans-Oblique-68"/>
      <use transform="translate(428.613281 0.684375)" xlink:href="#DejaVuSans-41"/>
      <use transform="translate(487.109375 0.684375)" xlink:href="#DejaVuSans-215"/>
      <use transform="translate(590.380859 0.684375)" xlink:href="#DejaVuSans-49"/>
      <use transform="translate(654.003906 0.684375)" xlink:href="#DejaVuSans-48"/>
      <use transform="translate(718.583984 38.965625)scale(0.7)" xlink:href="#DejaVuSans-52"/>
     </g>
    </g>
   </g>
   <g id="line2d_48">
    <path clip-path="url(#pf69b65208b)" d="M 70.425212 394.55708 
L 320.56771 394.443679 
L 370.045458 394.203425 
L 400.561801 393.84442 
L 422.829416 393.368977 
L 440.41292 392.778363 
L 454.964794 392.07319 
L 467.390955 391.253636 
L 478.242137 390.31965 
L 487.878501 389.271043 
L 496.549548 388.107417 
L 504.438273 386.827655 
L 511.679763 385.43052 
L 518.377774 383.914402 
L 524.615457 382.276824 
L 530.458242 380.515092 
L 535.959912 378.625805 
L 541.165762 376.604596 
L 546.113178 374.44656 
L 550.350088 372.39339 
L 550.350088 372.39339 
" style="fill:none;stroke:#0099ff;stroke-linecap:square;stroke-width:1.5;"/>
   </g>
   <g id="line2d_49">
    <path clip-path="url(#pf69b65208b)" d="M 70.425212 397.519924 
L 250.568029 397.40638 
L 288.437697 397.166258 
L 311.902867 396.80618 
L 329.016556 396.329906 
L 342.561905 395.737767 
L 353.808923 395.029526 
L 363.457967 394.203737 
L 371.902585 393.262167 
L 379.435626 392.202506 
L 386.252418 391.022585 
L 392.490002 389.720483 
L 398.260135 388.291455 
L 403.644881 386.730647 
L 408.696784 385.036604 
L 413.474935 383.201431 
L 418.024401 381.217021 
L 422.380129 379.075222 
L 426.569595 376.768004 
L 430.626507 374.279971 
L 434.565595 371.603443 
L 438.413942 368.719611 
L 442.191882 365.609975 
L 445.91452 362.256797 
L 449.600826 358.635419 
L 453.264225 354.722739 
L 456.920579 350.48974 
L 460.583449 345.90637 
L 464.2728 340.930426 
L 468.003633 335.521496 
L 471.796428 329.627 
L 475.676023 323.181842 
L 479.670087 316.109873 
L 483.818853 308.305295 
L 488.175079 299.628886 
L 492.819873 289.872561 
L 497.891597 278.689623 
L 503.670411 265.39074 
L 510.98124 247.971828 
L 530.772322 200.519 
L 536.587534 187.339243 
L 541.679565 176.337134 
L 546.345819 166.774349 
L 550.350088 159.003972 
L 550.350088 159.003972 
" style="fill:none;stroke:#3372cc;stroke-linecap:square;stroke-width:1.5;"/>
   </g>
   <g id="line2d_50">
    <path clip-path="url(#pf69b65208b)" d="M 70.425212 404.76288 
L 333.409223 404.651756 
L 363.015733 404.413254 
L 381.233928 404.055574 
L 394.526327 403.581038 
L 405.038117 402.990505 
L 413.763448 402.283628 
L 421.245142 401.459297 
L 427.805933 400.516911 
L 433.66254 399.454796 
L 438.968888 398.269794 
L 443.834764 396.958179 
L 448.345218 395.514344 
L 452.560567 393.933447 
L 456.534454 392.207184 
L 460.3086 390.326382 
L 463.918872 388.279382 
L 467.393684 386.053648 
L 470.758276 383.634052 
L 474.032757 381.004746 
L 477.23984 378.143224 
L 480.395213 375.028253 
L 483.516928 371.631871 
L 486.618744 367.925906 
L 489.716009 363.875826 
L 492.82466 359.441017 
L 495.958916 354.577949 
L 499.136678 349.231915 
L 502.377548 343.338713 
L 505.704807 336.820271 
L 509.148398 329.577148 
L 512.750021 321.474717 
L 516.57027 312.32214 
L 520.709814 301.813371 
L 525.360037 289.381952 
L 531.018105 273.58746 
L 550.350088 218.848638 
L 550.350088 218.848638 
" style="fill:none;stroke:#674c9a;stroke-linecap:square;stroke-width:1.5;"/>
   </g>
   <g id="line2d_51">
    <path clip-path="url(#pf69b65208b)" d="M 70.425212 404.605413 
L 178.350342 404.491004 
L 206.071749 404.253525 
L 223.447002 403.89666 
L 236.133067 403.425299 
L 246.130413 402.843298 
L 254.62547 402.130047 
L 261.826768 401.305937 
L 268.076785 400.374274 
L 273.760355 399.304282 
L 278.834725 398.1269 
L 283.550136 396.805273 
L 287.838544 395.377341 
L 291.881759 393.800544 
L 295.709234 392.070149 
L 299.345253 390.181987 
L 302.810086 388.132523 
L 306.120839 385.918907 
L 309.368707 383.478173 
L 312.479951 380.864642 
L 315.534105 378.012132 
L 318.592741 374.845595 
L 321.584368 371.424192 
L 324.565284 367.672388 
L 327.526591 363.583864 
L 330.510137 359.078532 
L 333.501337 354.152367 
L 336.531206 348.726584 
L 339.622203 342.724009 
L 342.751551 336.155387 
L 345.970791 328.87734 
L 349.315919 320.759317 
L 352.839843 311.612422 
L 356.602654 301.209316 
L 360.688637 289.240068 
L 365.328016 274.935748 
L 371.118539 256.315717 
L 388.279498 200.652406 
L 392.925342 186.627678 
L 397.023845 174.947128 
L 400.784824 164.885184 
L 404.331137 156.020624 
L 407.717037 148.145328 
L 410.984853 141.098257 
L 414.167794 134.755128 
L 417.284062 129.033752 
L 420.35546 123.853767 
L 423.39891 119.152384 
L 426.420857 114.888575 
L 429.444261 111.003398 
L 432.480483 107.460989 
L 435.542681 104.227832 
L 438.644709 101.274337 
L 441.800207 98.575417 
L 445.030599 96.104062 
L 448.353374 93.841466 
L 451.793244 91.768249 
L 455.374417 89.87012 
L 459.124811 88.13484 
L 463.083612 86.549573 
L 467.289891 85.106493 
L 471.798914 83.796873 
L 476.675704 82.614747 
L 482.003824 81.555255 
L 487.896206 80.61412 
L 494.503233 79.788493 
L 502.04382 79.075618 
L 510.840727 78.47369 
L 521.4132 77.980953 
L 534.666635 77.59581 
L 550.350088 77.339479 
L 550.350088 77.339479 
" style="fill:none;stroke:#9a2667;stroke-linecap:square;stroke-width:1.5;"/>
   </g>
   <g id="line2d_52">
    <path clip-path="url(#pf69b65208b)" d="M 70.425212 405.062267 
L 165.91627 404.941909 
L 192.887025 404.697176 
L 209.96921 404.3294 
L 222.499122 403.842708 
L 232.399452 403.240496 
L 240.584721 402.525851 
L 247.562316 401.701727 
L 253.643209 400.771041 
L 259.252792 399.689446 
L 264.268118 398.498382 
L 268.80312 397.201287 
L 273.106656 395.741178 
L 277.051728 394.173876 
L 280.833496 392.434615 
L 284.465329 390.515555 
L 287.838544 388.486789 
L 291.100241 386.27285 
L 294.257275 383.868226 
L 297.414542 381.179869 
L 300.467019 378.285752 
L 303.50833 375.088488 
L 306.447685 371.676991 
L 309.368707 367.950977 
L 312.336337 363.800191 
L 315.264446 359.322737 
L 318.276579 354.300834 
L 321.287608 348.841567 
L 324.342523 342.839734 
L 327.474367 336.193038 
L 330.705772 328.808014 
L 334.09575 320.491845 
L 337.64035 311.194606 
L 341.446738 300.569712 
L 345.61579 288.253333 
L 350.423421 273.328537 
L 356.743745 252.923371 
L 370.045458 209.803928 
L 374.953546 194.775039 
L 379.190613 182.500655 
L 383.031246 172.041167 
L 386.628849 162.876922 
L 390.042346 154.778797 
L 393.330687 147.5405 
L 396.527458 141.034447 
L 399.647667 135.181636 
L 402.714136 129.895513 
L 405.744726 125.108028 
L 408.76264 120.752078 
L 411.767775 116.800561 
L 414.784479 113.197589 
L 417.822929 109.91223 
L 420.897093 106.913402 
L 424.023 104.172852 
L 427.217279 101.666589 
L 430.501876 99.371332 
L 433.895454 97.270851 
L 437.428152 95.346301 
L 441.12114 93.588338 
L 445.013101 91.982974 
L 449.145894 90.520401 
L 453.572017 89.192194 
L 458.351896 87.99281 
L 463.56524 86.917136 
L 469.318513 85.960795 
L 475.758425 85.120119 
L 483.08784 84.392754 
L 491.611123 83.776554 
L 501.809464 83.269777 
L 514.511725 82.87082 
L 531.333463 82.577856 
L 550.350088 82.416929 
L 550.350088 82.416929 
" style="fill:none;stroke:#ce0035;stroke-linecap:square;stroke-width:1.5;"/>
   </g>
   <g id="line2d_53">
    <defs>
     <path d="M 0 3 
C 0.795609 3 1.55874 2.683901 2.12132 2.12132 
C 2.683901 1.55874 3 0.795609 3 0 
C 3 -0.795609 2.683901 -1.55874 2.12132 -2.12132 
C 1.55874 -2.683901 0.795609 -3 0 -3 
C -0.795609 -3 -1.55874 -2.683901 -2.12132 -2.12132 
C -2.683901 -1.55874 -3 -0.795609 -3 0 
C -3 0.795609 -2.683901 1.55874 -2.12132 2.12132 
C -1.55874 2.683901 -0.795609 3 0 3 
z
" id="mad0d7e8a78" style="stroke:#0099ff;"/>
    </defs>
    <g clip-path="url(#pf69b65208b)">
     <use style="fill:#0099ff;stroke:#0099ff;" x="-1" xlink:href="#mad0d7e8a78" y="394.705233"/>
     <use style="fill:#0099ff;stroke:#0099ff;" x="179.549735" xlink:href="#mad0d7e8a78" y="394.705211"/>
     <use style="fill:#0099ff;stroke:#0099ff;" x="222.974956" xlink:href="#mad0d7e8a78" y="394.554806"/>
     <use style="fill:#0099ff;stroke:#0099ff;" x="255.824867" xlink:href="#mad0d7e8a78" y="394.658957"/>
     <use style="fill:#0099ff;stroke:#0099ff;" x="288.674779" xlink:href="#mad0d7e8a78" y="394.764881"/>
     <use style="fill:#0099ff;stroke:#0099ff;" x="332.1" xlink:href="#mad0d7e8a78" y="394.434357"/>
     <use style="fill:#0099ff;stroke:#0099ff;" x="364.949912" xlink:href="#mad0d7e8a78" y="394.424237"/>
     <use style="fill:#0099ff;stroke:#0099ff;" x="397.799823" xlink:href="#mad0d7e8a78" y="394.025933"/>
     <use style="fill:#0099ff;stroke:#0099ff;" x="441.225044" xlink:href="#mad0d7e8a78" y="392.593893"/>
     <use style="fill:#0099ff;stroke:#0099ff;" x="474.074956" xlink:href="#mad0d7e8a78" y="390.722601"/>
     <use style="fill:#0099ff;stroke:#0099ff;" x="506.924867" xlink:href="#mad0d7e8a78" y="386.566463"/>
     <use style="fill:#0099ff;stroke:#0099ff;" x="550.350088" xlink:href="#mad0d7e8a78" y="372.522537"/>
    </g>
   </g>
   <g id="line2d_54">
    <g clip-path="url(#pf69b65208b)">
     <use style="fill:#0099ff;stroke:#0099ff;" x="-1" xlink:href="#mad0d7e8a78" y="394.412358"/>
     <use style="fill:#0099ff;stroke:#0099ff;" x="179.549735" xlink:href="#mad0d7e8a78" y="394.412554"/>
     <use style="fill:#0099ff;stroke:#0099ff;" x="222.974956" xlink:href="#mad0d7e8a78" y="394.557712"/>
     <use style="fill:#0099ff;stroke:#0099ff;" x="255.824867" xlink:href="#mad0d7e8a78" y="394.638935"/>
     <use style="fill:#0099ff;stroke:#0099ff;" x="288.674779" xlink:href="#mad0d7e8a78" y="394.527935"/>
     <use style="fill:#0099ff;stroke:#0099ff;" x="332.1" xlink:href="#mad0d7e8a78" y="394.64043"/>
     <use style="fill:#0099ff;stroke:#0099ff;" x="364.949912" xlink:href="#mad0d7e8a78" y="394.376928"/>
     <use style="fill:#0099ff;stroke:#0099ff;" x="397.799823" xlink:href="#mad0d7e8a78" y="393.920083"/>
     <use style="fill:#0099ff;stroke:#0099ff;" x="441.225044" xlink:href="#mad0d7e8a78" y="392.786721"/>
     <use style="fill:#0099ff;stroke:#0099ff;" x="474.074956" xlink:href="#mad0d7e8a78" y="390.649425"/>
     <use style="fill:#0099ff;stroke:#0099ff;" x="506.924867" xlink:href="#mad0d7e8a78" y="386.538875"/>
     <use style="fill:#0099ff;stroke:#0099ff;" x="550.350088" xlink:href="#mad0d7e8a78" y="372.189761"/>
    </g>
   </g>
   <g id="line2d_55">
    <g clip-path="url(#pf69b65208b)">
     <use style="fill:#0099ff;stroke:#0099ff;" x="-1" xlink:href="#mad0d7e8a78" y="394.308398"/>
     <use style="fill:#0099ff;stroke:#0099ff;" x="179.549735" xlink:href="#mad0d7e8a78" y="394.308476"/>
     <use style="fill:#0099ff;stroke:#0099ff;" x="222.974956" xlink:href="#mad0d7e8a78" y="394.447411"/>
     <use style="fill:#0099ff;stroke:#0099ff;" x="255.824867" xlink:href="#mad0d7e8a78" y="394.483596"/>
     <use style="fill:#0099ff;stroke:#0099ff;" x="288.674779" xlink:href="#mad0d7e8a78" y="394.454651"/>
     <use style="fill:#0099ff;stroke:#0099ff;" x="332.1" xlink:href="#mad0d7e8a78" y="394.445702"/>
     <use style="fill:#0099ff;stroke:#0099ff;" x="364.949912" xlink:href="#mad0d7e8a78" y="394.247339"/>
     <use style="fill:#0099ff;stroke:#0099ff;" x="397.799823" xlink:href="#mad0d7e8a78" y="393.764689"/>
     <use style="fill:#0099ff;stroke:#0099ff;" x="441.225044" xlink:href="#mad0d7e8a78" y="392.481446"/>
     <use style="fill:#0099ff;stroke:#0099ff;" x="474.074956" xlink:href="#mad0d7e8a78" y="390.442208"/>
     <use style="fill:#0099ff;stroke:#0099ff;" x="506.924867" xlink:href="#mad0d7e8a78" y="386.370457"/>
     <use style="fill:#0099ff;stroke:#0099ff;" x="550.350088" xlink:href="#mad0d7e8a78" y="372.411658"/>
    </g>
   </g>
   <g id="line2d_56">
    <defs>
     <path d="M 0 3 
C 0.795609 3 1.55874 2.683901 2.12132 2.12132 
C 2.683901 1.55874 3 0.795609 3 0 
C 3 -0.795609 2.683901 -1.55874 2.12132 -2.12132 
C 1.55874 -2.683901 0.795609 -3 0 -3 
C -0.795609 -3 -1.55874 -2.683901 -2.12132 -2.12132 
C -2.683901 -1.55874 -3 -0.795609 -3 0 
C -3 0.795609 -2.683901 1.55874 -2.12132 2.12132 
C -1.55874 2.683901 -0.795609 3 0 3 
z
" id="m27748009dd" style="stroke:#3372cc;"/>
    </defs>
    <g clip-path="url(#pf69b65208b)">
     <use style="fill:#3372cc;stroke:#3372cc;" x="-1" xlink:href="#m27748009dd" y="397.605046"/>
     <use style="fill:#3372cc;stroke:#3372cc;" x="179.549735" xlink:href="#m27748009dd" y="397.604697"/>
     <use style="fill:#3372cc;stroke:#3372cc;" x="222.974956" xlink:href="#m27748009dd" y="397.504288"/>
     <use style="fill:#3372cc;stroke:#3372cc;" x="255.824867" xlink:href="#m27748009dd" y="397.313014"/>
     <use style="fill:#3372cc;stroke:#3372cc;" x="288.674779" xlink:href="#m27748009dd" y="396.886808"/>
     <use style="fill:#3372cc;stroke:#3372cc;" x="332.1" xlink:href="#m27748009dd" y="395.765443"/>
     <use style="fill:#3372cc;stroke:#3372cc;" x="364.949912" xlink:href="#m27748009dd" y="393.331489"/>
     <use style="fill:#3372cc;stroke:#3372cc;" x="397.799823" xlink:href="#m27748009dd" y="387.816222"/>
     <use style="fill:#3372cc;stroke:#3372cc;" x="441.225044" xlink:href="#m27748009dd" y="366.354248"/>
     <use style="fill:#3372cc;stroke:#3372cc;" x="474.074956" xlink:href="#m27748009dd" y="325.470274"/>
     <use style="fill:#3372cc;stroke:#3372cc;" x="506.924867" xlink:href="#m27748009dd" y="255.731526"/>
     <use style="fill:#3372cc;stroke:#3372cc;" x="550.350088" xlink:href="#m27748009dd" y="157.14329"/>
    </g>
   </g>
   <g id="line2d_57">
    <g clip-path="url(#pf69b65208b)">
     <use style="fill:#3372cc;stroke:#3372cc;" x="-1" xlink:href="#m27748009dd" y="397.935121"/>
     <use style="fill:#3372cc;stroke:#3372cc;" x="179.549735" xlink:href="#m27748009dd" y="397.934982"/>
     <use style="fill:#3372cc;stroke:#3372cc;" x="222.974956" xlink:href="#m27748009dd" y="397.729092"/>
     <use style="fill:#3372cc;stroke:#3372cc;" x="255.824867" xlink:href="#m27748009dd" y="397.490578"/>
     <use style="fill:#3372cc;stroke:#3372cc;" x="288.674779" xlink:href="#m27748009dd" y="397.045567"/>
     <use style="fill:#3372cc;stroke:#3372cc;" x="332.1" xlink:href="#m27748009dd" y="395.940432"/>
     <use style="fill:#3372cc;stroke:#3372cc;" x="364.949912" xlink:href="#m27748009dd" y="393.451607"/>
     <use style="fill:#3372cc;stroke:#3372cc;" x="397.799823" xlink:href="#m27748009dd" y="388.309126"/>
     <use style="fill:#3372cc;stroke:#3372cc;" x="441.225044" xlink:href="#m27748009dd" y="366.997566"/>
     <use style="fill:#3372cc;stroke:#3372cc;" x="474.074956" xlink:href="#m27748009dd" y="326.43683"/>
     <use style="fill:#3372cc;stroke:#3372cc;" x="506.924867" xlink:href="#m27748009dd" y="257.68348"/>
     <use style="fill:#3372cc;stroke:#3372cc;" x="550.350088" xlink:href="#m27748009dd" y="157.332271"/>
    </g>
   </g>
   <g id="line2d_58">
    <g clip-path="url(#pf69b65208b)">
     <use style="fill:#3372cc;stroke:#3372cc;" x="-1" xlink:href="#m27748009dd" y="398.045416"/>
     <use style="fill:#3372cc;stroke:#3372cc;" x="179.549735" xlink:href="#m27748009dd" y="398.04541"/>
     <use style="fill:#3372cc;stroke:#3372cc;" x="222.974956" xlink:href="#m27748009dd" y="397.831267"/>
     <use style="fill:#3372cc;stroke:#3372cc;" x="255.824867" xlink:href="#m27748009dd" y="397.636097"/>
     <use style="fill:#3372cc;stroke:#3372cc;" x="288.674779" xlink:href="#m27748009dd" y="397.105541"/>
     <use style="fill:#3372cc;stroke:#3372cc;" x="332.1" xlink:href="#m27748009dd" y="395.849958"/>
     <use style="fill:#3372cc;stroke:#3372cc;" x="364.949912" xlink:href="#m27748009dd" y="393.562421"/>
     <use style="fill:#3372cc;stroke:#3372cc;" x="397.799823" xlink:href="#m27748009dd" y="388.263417"/>
     <use style="fill:#3372cc;stroke:#3372cc;" x="441.225044" xlink:href="#m27748009dd" y="366.846262"/>
     <use style="fill:#3372cc;stroke:#3372cc;" x="474.074956" xlink:href="#m27748009dd" y="326.102974"/>
     <use style="fill:#3372cc;stroke:#3372cc;" x="506.924867" xlink:href="#m27748009dd" y="259.237902"/>
     <use style="fill:#3372cc;stroke:#3372cc;" x="550.350088" xlink:href="#m27748009dd" y="162.645851"/>
    </g>
   </g>
   <g id="line2d_59">
    <defs>
     <path d="M 0 3 
C 0.795609 3 1.55874 2.683901 2.12132 2.12132 
C 2.683901 1.55874 3 0.795609 3 0 
C 3 -0.795609 2.683901 -1.55874 2.12132 -2.12132 
C 1.55874 -2.683901 0.795609 -3 0 -3 
C -0.795609 -3 -1.55874 -2.683901 -2.12132 -2.12132 
C -2.683901 -1.55874 -3 -0.795609 -3 0 
C -3 0.795609 -2.683901 1.55874 -2.12132 2.12132 
C -1.55874 2.683901 -0.795609 3 0 3 
z
" id="m6c9d9c0c60" style="stroke:#674c9a;"/>
    </defs>
    <g clip-path="url(#pf69b65208b)">
     <use style="fill:#674c9a;stroke:#674c9a;" x="-1" xlink:href="#m6c9d9c0c60" y="404.851682"/>
     <use style="fill:#674c9a;stroke:#674c9a;" x="179.549735" xlink:href="#m6c9d9c0c60" y="404.851668"/>
     <use style="fill:#674c9a;stroke:#674c9a;" x="222.974956" xlink:href="#m6c9d9c0c60" y="404.932633"/>
     <use style="fill:#674c9a;stroke:#674c9a;" x="255.824867" xlink:href="#m6c9d9c0c60" y="404.871471"/>
     <use style="fill:#674c9a;stroke:#674c9a;" x="288.674779" xlink:href="#m6c9d9c0c60" y="404.656946"/>
     <use style="fill:#674c9a;stroke:#674c9a;" x="332.1" xlink:href="#m6c9d9c0c60" y="404.600669"/>
     <use style="fill:#674c9a;stroke:#674c9a;" x="364.949912" xlink:href="#m6c9d9c0c60" y="404.225919"/>
     <use style="fill:#674c9a;stroke:#674c9a;" x="397.799823" xlink:href="#m6c9d9c0c60" y="403.311337"/>
     <use style="fill:#674c9a;stroke:#674c9a;" x="441.225044" xlink:href="#m6c9d9c0c60" y="397.303706"/>
     <use style="fill:#674c9a;stroke:#674c9a;" x="474.074956" xlink:href="#m6c9d9c0c60" y="381.186841"/>
     <use style="fill:#674c9a;stroke:#674c9a;" x="506.924867" xlink:href="#m6c9d9c0c60" y="335.006175"/>
     <use style="fill:#674c9a;stroke:#674c9a;" x="550.350088" xlink:href="#m6c9d9c0c60" y="217.655546"/>
    </g>
   </g>
   <g id="line2d_60">
    <g clip-path="url(#pf69b65208b)">
     <use style="fill:#674c9a;stroke:#674c9a;" x="-1" xlink:href="#m6c9d9c0c60" y="404.922968"/>
     <use style="fill:#674c9a;stroke:#674c9a;" x="179.549735" xlink:href="#m6c9d9c0c60" y="404.92296"/>
     <use style="fill:#674c9a;stroke:#674c9a;" x="222.974956" xlink:href="#m6c9d9c0c60" y="404.977988"/>
     <use style="fill:#674c9a;stroke:#674c9a;" x="255.824867" xlink:href="#m6c9d9c0c60" y="404.801774"/>
     <use style="fill:#674c9a;stroke:#674c9a;" x="288.674779" xlink:href="#m6c9d9c0c60" y="404.762962"/>
     <use style="fill:#674c9a;stroke:#674c9a;" x="332.1" xlink:href="#m6c9d9c0c60" y="404.597703"/>
     <use style="fill:#674c9a;stroke:#674c9a;" x="364.949912" xlink:href="#m6c9d9c0c60" y="404.178556"/>
     <use style="fill:#674c9a;stroke:#674c9a;" x="397.799823" xlink:href="#m6c9d9c0c60" y="403.301008"/>
     <use style="fill:#674c9a;stroke:#674c9a;" x="441.225044" xlink:href="#m6c9d9c0c60" y="397.385228"/>
     <use style="fill:#674c9a;stroke:#674c9a;" x="474.074956" xlink:href="#m6c9d9c0c60" y="380.294546"/>
     <use style="fill:#674c9a;stroke:#674c9a;" x="506.924867" xlink:href="#m6c9d9c0c60" y="331.506487"/>
     <use style="fill:#674c9a;stroke:#674c9a;" x="550.350088" xlink:href="#m6c9d9c0c60" y="214.048718"/>
    </g>
   </g>
   <g id="line2d_61">
    <g clip-path="url(#pf69b65208b)">
     <use style="fill:#674c9a;stroke:#674c9a;" x="-1" xlink:href="#m6c9d9c0c60" y="404.854127"/>
     <use style="fill:#674c9a;stroke:#674c9a;" x="179.549735" xlink:href="#m6c9d9c0c60" y="404.854467"/>
     <use style="fill:#674c9a;stroke:#674c9a;" x="222.974956" xlink:href="#m6c9d9c0c60" y="404.898477"/>
     <use style="fill:#674c9a;stroke:#674c9a;" x="255.824867" xlink:href="#m6c9d9c0c60" y="404.7658"/>
     <use style="fill:#674c9a;stroke:#674c9a;" x="288.674779" xlink:href="#m6c9d9c0c60" y="404.654698"/>
     <use style="fill:#674c9a;stroke:#674c9a;" x="332.1" xlink:href="#m6c9d9c0c60" y="404.517372"/>
     <use style="fill:#674c9a;stroke:#674c9a;" x="364.949912" xlink:href="#m6c9d9c0c60" y="404.185098"/>
     <use style="fill:#674c9a;stroke:#674c9a;" x="397.799823" xlink:href="#m6c9d9c0c60" y="403.408627"/>
     <use style="fill:#674c9a;stroke:#674c9a;" x="441.225044" xlink:href="#m6c9d9c0c60" y="398.308247"/>
     <use style="fill:#674c9a;stroke:#674c9a;" x="474.074956" xlink:href="#m6c9d9c0c60" y="381.59398"/>
     <use style="fill:#674c9a;stroke:#674c9a;" x="506.924867" xlink:href="#m6c9d9c0c60" y="336.366438"/>
     <use style="fill:#674c9a;stroke:#674c9a;" x="550.350088" xlink:href="#m6c9d9c0c60" y="224.846938"/>
    </g>
   </g>
   <g id="line2d_62">
    <defs>
     <path d="M 0 3 
C 0.795609 3 1.55874 2.683901 2.12132 2.12132 
C 2.683901 1.55874 3 0.795609 3 0 
C 3 -0.795609 2.683901 -1.55874 2.12132 -2.12132 
C 1.55874 -2.683901 0.795609 -3 0 -3 
C -0.795609 -3 -1.55874 -2.683901 -2.12132 -2.12132 
C -2.683901 -1.55874 -3 -0.795609 -3 0 
C -3 0.795609 -2.683901 1.55874 -2.12132 2.12132 
C -1.55874 2.683901 -0.795609 3 0 3 
z
" id="mb176d87c6e" style="stroke:#9a2667;"/>
    </defs>
    <g clip-path="url(#pf69b65208b)">
     <use style="fill:#9a2667;stroke:#9a2667;" x="-1" xlink:href="#mb176d87c6e" y="404.359891"/>
     <use style="fill:#9a2667;stroke:#9a2667;" x="179.549735" xlink:href="#mb176d87c6e" y="404.359488"/>
     <use style="fill:#9a2667;stroke:#9a2667;" x="222.974956" xlink:href="#mb176d87c6e" y="403.641796"/>
     <use style="fill:#9a2667;stroke:#9a2667;" x="255.824867" xlink:href="#mb176d87c6e" y="402.084681"/>
     <use style="fill:#9a2667;stroke:#9a2667;" x="288.674779" xlink:href="#mb176d87c6e" y="395.473267"/>
     <use style="fill:#9a2667;stroke:#9a2667;" x="332.1" xlink:href="#mb176d87c6e" y="356.681925"/>
     <use style="fill:#9a2667;stroke:#9a2667;" x="364.949912" xlink:href="#mb176d87c6e" y="274.943168"/>
     <use style="fill:#9a2667;stroke:#9a2667;" x="397.799823" xlink:href="#mb176d87c6e" y="176.80743"/>
     <use style="fill:#9a2667;stroke:#9a2667;" x="441.225044" xlink:href="#mb176d87c6e" y="101.379486"/>
     <use style="fill:#9a2667;stroke:#9a2667;" x="474.074956" xlink:href="#mb176d87c6e" y="84.506757"/>
     <use style="fill:#9a2667;stroke:#9a2667;" x="506.924867" xlink:href="#mb176d87c6e" y="81.088119"/>
     <use style="fill:#9a2667;stroke:#9a2667;" x="550.350088" xlink:href="#mb176d87c6e" y="82.799772"/>
    </g>
   </g>
   <g id="line2d_63">
    <g clip-path="url(#pf69b65208b)">
     <use style="fill:#9a2667;stroke:#9a2667;" x="-1" xlink:href="#mb176d87c6e" y="404.347996"/>
     <use style="fill:#9a2667;stroke:#9a2667;" x="179.549735" xlink:href="#mb176d87c6e" y="404.347671"/>
     <use style="fill:#9a2667;stroke:#9a2667;" x="222.974956" xlink:href="#mb176d87c6e" y="403.845383"/>
     <use style="fill:#9a2667;stroke:#9a2667;" x="255.824867" xlink:href="#mb176d87c6e" y="402.068076"/>
     <use style="fill:#9a2667;stroke:#9a2667;" x="288.674779" xlink:href="#mb176d87c6e" y="395.731158"/>
     <use style="fill:#9a2667;stroke:#9a2667;" x="332.1" xlink:href="#mb176d87c6e" y="356.624554"/>
     <use style="fill:#9a2667;stroke:#9a2667;" x="364.949912" xlink:href="#mb176d87c6e" y="273.878728"/>
     <use style="fill:#9a2667;stroke:#9a2667;" x="397.799823" xlink:href="#mb176d87c6e" y="175.536101"/>
     <use style="fill:#9a2667;stroke:#9a2667;" x="441.225044" xlink:href="#mb176d87c6e" y="97.281316"/>
     <use style="fill:#9a2667;stroke:#9a2667;" x="474.074956" xlink:href="#mb176d87c6e" y="79.146364"/>
     <use style="fill:#9a2667;stroke:#9a2667;" x="506.924867" xlink:href="#mb176d87c6e" y="77.497542"/>
     <use style="fill:#9a2667;stroke:#9a2667;" x="550.350088" xlink:href="#mb176d87c6e" y="81.361622"/>
    </g>
   </g>
   <g id="line2d_64">
    <g clip-path="url(#pf69b65208b)">
     <use style="fill:#9a2667;stroke:#9a2667;" x="-1" xlink:href="#mb176d87c6e" y="404.338495"/>
     <use style="fill:#9a2667;stroke:#9a2667;" x="179.549735" xlink:href="#mb176d87c6e" y="404.338149"/>
     <use style="fill:#9a2667;stroke:#9a2667;" x="222.974956" xlink:href="#mb176d87c6e" y="403.73242"/>
     <use style="fill:#9a2667;stroke:#9a2667;" x="255.824867" xlink:href="#mb176d87c6e" y="401.859784"/>
     <use style="fill:#9a2667;stroke:#9a2667;" x="288.674779" xlink:href="#mb176d87c6e" y="395.522702"/>
     <use style="fill:#9a2667;stroke:#9a2667;" x="332.1" xlink:href="#mb176d87c6e" y="357.937239"/>
     <use style="fill:#9a2667;stroke:#9a2667;" x="364.949912" xlink:href="#mb176d87c6e" y="273.250738"/>
     <use style="fill:#9a2667;stroke:#9a2667;" x="397.799823" xlink:href="#mb176d87c6e" y="174.829474"/>
     <use style="fill:#9a2667;stroke:#9a2667;" x="441.225044" xlink:href="#mb176d87c6e" y="93.218124"/>
     <use style="fill:#9a2667;stroke:#9a2667;" x="474.074956" xlink:href="#mb176d87c6e" y="73.4328"/>
     <use style="fill:#9a2667;stroke:#9a2667;" x="506.924867" xlink:href="#mb176d87c6e" y="75.951665"/>
     <use style="fill:#9a2667;stroke:#9a2667;" x="550.350088" xlink:href="#mb176d87c6e" y="82.715092"/>
    </g>
   </g>
   <g id="line2d_65">
    <defs>
     <path d="M 0 3 
C 0.795609 3 1.55874 2.683901 2.12132 2.12132 
C 2.683901 1.55874 3 0.795609 3 0 
C 3 -0.795609 2.683901 -1.55874 2.12132 -2.12132 
C 1.55874 -2.683901 0.795609 -3 0 -3 
C -0.795609 -3 -1.55874 -2.683901 -2.12132 -2.12132 
C -2.683901 -1.55874 -3 -0.795609 -3 0 
C -3 0.795609 -2.683901 1.55874 -2.12132 2.12132 
C -1.55874 2.683901 -0.795609 3 0 3 
z
" id="m7988c4566a" style="stroke:#ce0035;"/>
    </defs>
    <g clip-path="url(#pf69b65208b)">
     <use style="fill:#ce0035;stroke:#ce0035;" x="-1" xlink:href="#m7988c4566a" y="404.379092"/>
     <use style="fill:#ce0035;stroke:#ce0035;" x="179.549735" xlink:href="#m7988c4566a" y="404.378345"/>
     <use style="fill:#ce0035;stroke:#ce0035;" x="222.974956" xlink:href="#m7988c4566a" y="403.655958"/>
     <use style="fill:#ce0035;stroke:#ce0035;" x="255.824867" xlink:href="#m7988c4566a" y="400.584439"/>
     <use style="fill:#ce0035;stroke:#ce0035;" x="288.674779" xlink:href="#m7988c4566a" y="388.844364"/>
     <use style="fill:#ce0035;stroke:#ce0035;" x="332.1" xlink:href="#m7988c4566a" y="323.98949"/>
     <use style="fill:#ce0035;stroke:#ce0035;" x="364.949912" xlink:href="#m7988c4566a" y="224.373458"/>
     <use style="fill:#ce0035;stroke:#ce0035;" x="397.799823" xlink:href="#m7988c4566a" y="139.246146"/>
     <use style="fill:#ce0035;stroke:#ce0035;" x="441.225044" xlink:href="#m7988c4566a" y="85.023356"/>
     <use style="fill:#ce0035;stroke:#ce0035;" x="474.074956" xlink:href="#m7988c4566a" y="76.630208"/>
     <use style="fill:#ce0035;stroke:#ce0035;" x="506.924867" xlink:href="#m7988c4566a" y="79.236531"/>
     <use style="fill:#ce0035;stroke:#ce0035;" x="550.350088" xlink:href="#m7988c4566a" y="84.112273"/>
    </g>
   </g>
   <g id="line2d_66">
    <g clip-path="url(#pf69b65208b)">
     <use style="fill:#ce0035;stroke:#ce0035;" x="-1" xlink:href="#m7988c4566a" y="404.589459"/>
     <use style="fill:#ce0035;stroke:#ce0035;" x="179.549735" xlink:href="#m7988c4566a" y="404.589073"/>
     <use style="fill:#ce0035;stroke:#ce0035;" x="222.974956" xlink:href="#m7988c4566a" y="403.660514"/>
     <use style="fill:#ce0035;stroke:#ce0035;" x="255.824867" xlink:href="#m7988c4566a" y="400.838351"/>
     <use style="fill:#ce0035;stroke:#ce0035;" x="288.674779" xlink:href="#m7988c4566a" y="389.198245"/>
     <use style="fill:#ce0035;stroke:#ce0035;" x="332.1" xlink:href="#m7988c4566a" y="324.885649"/>
     <use style="fill:#ce0035;stroke:#ce0035;" x="364.949912" xlink:href="#m7988c4566a" y="226.226862"/>
     <use style="fill:#ce0035;stroke:#ce0035;" x="397.799823" xlink:href="#m7988c4566a" y="142.820434"/>
     <use style="fill:#ce0035;stroke:#ce0035;" x="441.225044" xlink:href="#m7988c4566a" y="87.458177"/>
     <use style="fill:#ce0035;stroke:#ce0035;" x="474.074956" xlink:href="#m7988c4566a" y="79.7506"/>
     <use style="fill:#ce0035;stroke:#ce0035;" x="506.924867" xlink:href="#m7988c4566a" y="84.663423"/>
     <use style="fill:#ce0035;stroke:#ce0035;" x="550.350088" xlink:href="#m7988c4566a" y="89.709986"/>
    </g>
   </g>
   <g id="line2d_67">
    <g clip-path="url(#pf69b65208b)">
     <use style="fill:#ce0035;stroke:#ce0035;" x="-1" xlink:href="#m7988c4566a" y="404.555058"/>
     <use style="fill:#ce0035;stroke:#ce0035;" x="179.549735" xlink:href="#m7988c4566a" y="404.554619"/>
     <use style="fill:#ce0035;stroke:#ce0035;" x="222.974956" xlink:href="#m7988c4566a" y="403.71897"/>
     <use style="fill:#ce0035;stroke:#ce0035;" x="255.824867" xlink:href="#m7988c4566a" y="400.742985"/>
     <use style="fill:#ce0035;stroke:#ce0035;" x="288.674779" xlink:href="#m7988c4566a" y="388.982584"/>
     <use style="fill:#ce0035;stroke:#ce0035;" x="332.1" xlink:href="#m7988c4566a" y="324.654188"/>
     <use style="fill:#ce0035;stroke:#ce0035;" x="364.949912" xlink:href="#m7988c4566a" y="225.81051"/>
     <use style="fill:#ce0035;stroke:#ce0035;" x="397.799823" xlink:href="#m7988c4566a" y="143.65909"/>
     <use style="fill:#ce0035;stroke:#ce0035;" x="441.225044" xlink:href="#m7988c4566a" y="93.261685"/>
     <use style="fill:#ce0035;stroke:#ce0035;" x="474.074956" xlink:href="#m7988c4566a" y="84.435691"/>
     <use style="fill:#ce0035;stroke:#ce0035;" x="506.924867" xlink:href="#m7988c4566a" y="88.531277"/>
     <use style="fill:#ce0035;stroke:#ce0035;" x="550.350088" xlink:href="#m7988c4566a" y="92.943531"/>
    </g>
   </g>
   <g id="patch_3">
    <path d="M 81 421.6464 
L 81 56.8512 
" style="fill:none;stroke:#000000;stroke-linecap:square;stroke-linejoin:miter;stroke-width:0.8;"/>
   </g>
   <g id="patch_4">
    <path d="M 81 421.6464 
L 583.2 421.6464 
" style="fill:none;stroke:#000000;stroke-linecap:square;stroke-linejoin:miter;stroke-width:0.8;"/>
   </g>
   <g id="text_14">
    <!-- RamR Variant Response to Glaucine -->
    <defs>
     <path d="M 44.390625 34.1875 
Q 47.5625 33.109375 50.5625 29.59375 
Q 53.5625 26.078125 56.59375 19.921875 
L 66.609375 0 
L 56 0 
L 46.6875 18.703125 
Q 43.0625 26.03125 39.671875 28.421875 
Q 36.28125 30.8125 30.421875 30.8125 
L 19.671875 30.8125 
L 19.671875 0 
L 9.8125 0 
L 9.8125 72.90625 
L 32.078125 72.90625 
Q 44.578125 72.90625 50.734375 67.671875 
Q 56.890625 62.453125 56.890625 51.90625 
Q 56.890625 45.015625 53.6875 40.46875 
Q 50.484375 35.9375 44.390625 34.1875 
z
M 19.671875 64.796875 
L 19.671875 38.921875 
L 32.078125 38.921875 
Q 39.203125 38.921875 42.84375 42.21875 
Q 46.484375 45.515625 46.484375 51.90625 
Q 46.484375 58.296875 42.84375 61.546875 
Q 39.203125 64.796875 32.078125 64.796875 
z
" id="DejaVuSans-82"/>
     <path d="M 52 44.1875 
Q 55.375 50.25 60.0625 53.125 
Q 64.75 56 71.09375 56 
Q 79.640625 56 84.28125 50.015625 
Q 88.921875 44.046875 88.921875 33.015625 
L 88.921875 0 
L 79.890625 0 
L 79.890625 32.71875 
Q 79.890625 40.578125 77.09375 44.375 
Q 74.3125 48.1875 68.609375 48.1875 
Q 61.625 48.1875 57.5625 43.546875 
Q 53.515625 38.921875 53.515625 30.90625 
L 53.515625 0 
L 44.484375 0 
L 44.484375 32.71875 
Q 44.484375 40.625 41.703125 44.40625 
Q 38.921875 48.1875 33.109375 48.1875 
Q 26.21875 48.1875 22.15625 43.53125 
Q 18.109375 38.875 18.109375 30.90625 
L 18.109375 0 
L 9.078125 0 
L 9.078125 54.6875 
L 18.109375 54.6875 
L 18.109375 46.1875 
Q 21.1875 51.21875 25.484375 53.609375 
Q 29.78125 56 35.6875 56 
Q 41.65625 56 45.828125 52.96875 
Q 50 49.953125 52 44.1875 
z
" id="DejaVuSans-109"/>
     <path d="M 28.609375 0 
L 0.78125 72.90625 
L 11.078125 72.90625 
L 34.1875 11.53125 
L 57.328125 72.90625 
L 67.578125 72.90625 
L 39.796875 0 
z
" id="DejaVuSans-86"/>
     <path d="M 41.109375 46.296875 
Q 39.59375 47.171875 37.8125 47.578125 
Q 36.03125 48 33.890625 48 
Q 26.265625 48 22.1875 43.046875 
Q 18.109375 38.09375 18.109375 28.8125 
L 18.109375 0 
L 9.078125 0 
L 9.078125 54.6875 
L 18.109375 54.6875 
L 18.109375 46.1875 
Q 20.953125 51.171875 25.484375 53.578125 
Q 30.03125 56 36.53125 56 
Q 37.453125 56 38.578125 55.875 
Q 39.703125 55.765625 41.0625 55.515625 
z
" id="DejaVuSans-114"/>
     <path d="M 18.3125 70.21875 
L 18.3125 54.6875 
L 36.8125 54.6875 
L 36.8125 47.703125 
L 18.3125 47.703125 
L 18.3125 18.015625 
Q 18.3125 11.328125 20.140625 9.421875 
Q 21.96875 7.515625 27.59375 7.515625 
L 36.8125 7.515625 
L 36.8125 0 
L 27.59375 0 
Q 17.1875 0 13.234375 3.875 
Q 9.28125 7.765625 9.28125 18.015625 
L 9.28125 47.703125 
L 2.6875 47.703125 
L 2.6875 54.6875 
L 9.28125 54.6875 
L 9.28125 70.21875 
z
" id="DejaVuSans-116"/>
     <path d="M 44.28125 53.078125 
L 44.28125 44.578125 
Q 40.484375 46.53125 36.375 47.5 
Q 32.28125 48.484375 27.875 48.484375 
Q 21.1875 48.484375 17.84375 46.4375 
Q 14.5 44.390625 14.5 40.28125 
Q 14.5 37.15625 16.890625 35.375 
Q 19.28125 33.59375 26.515625 31.984375 
L 29.59375 31.296875 
Q 39.15625 29.25 43.1875 25.515625 
Q 47.21875 21.78125 47.21875 15.09375 
Q 47.21875 7.46875 41.1875 3.015625 
Q 35.15625 -1.421875 24.609375 -1.421875 
Q 20.21875 -1.421875 15.453125 -0.5625 
Q 10.6875 0.296875 5.421875 2 
L 5.421875 11.28125 
Q 10.40625 8.6875 15.234375 7.390625 
Q 20.0625 6.109375 24.8125 6.109375 
Q 31.15625 6.109375 34.5625 8.28125 
Q 37.984375 10.453125 37.984375 14.40625 
Q 37.984375 18.0625 35.515625 20.015625 
Q 33.0625 21.96875 24.703125 23.78125 
L 21.578125 24.515625 
Q 13.234375 26.265625 9.515625 29.90625 
Q 5.8125 33.546875 5.8125 39.890625 
Q 5.8125 47.609375 11.28125 51.796875 
Q 16.75 56 26.8125 56 
Q 31.78125 56 36.171875 55.265625 
Q 40.578125 54.546875 44.28125 53.078125 
z
" id="DejaVuSans-115"/>
     <path d="M 18.109375 8.203125 
L 18.109375 -20.796875 
L 9.078125 -20.796875 
L 9.078125 54.6875 
L 18.109375 54.6875 
L 18.109375 46.390625 
Q 20.953125 51.265625 25.265625 53.625 
Q 29.59375 56 35.59375 56 
Q 45.5625 56 51.78125 48.09375 
Q 58.015625 40.1875 58.015625 27.296875 
Q 58.015625 14.40625 51.78125 6.484375 
Q 45.5625 -1.421875 35.59375 -1.421875 
Q 29.59375 -1.421875 25.265625 0.953125 
Q 20.953125 3.328125 18.109375 8.203125 
z
M 48.6875 27.296875 
Q 48.6875 37.203125 44.609375 42.84375 
Q 40.53125 48.484375 33.40625 48.484375 
Q 26.265625 48.484375 22.1875 42.84375 
Q 18.109375 37.203125 18.109375 27.296875 
Q 18.109375 17.390625 22.1875 11.75 
Q 26.265625 6.109375 33.40625 6.109375 
Q 40.53125 6.109375 44.609375 11.75 
Q 48.6875 17.390625 48.6875 27.296875 
z
" id="DejaVuSans-112"/>
     <path d="M 30.609375 48.390625 
Q 23.390625 48.390625 19.1875 42.75 
Q 14.984375 37.109375 14.984375 27.296875 
Q 14.984375 17.484375 19.15625 11.84375 
Q 23.34375 6.203125 30.609375 6.203125 
Q 37.796875 6.203125 41.984375 11.859375 
Q 46.1875 17.53125 46.1875 27.296875 
Q 46.1875 37.015625 41.984375 42.703125 
Q 37.796875 48.390625 30.609375 48.390625 
z
M 30.609375 56 
Q 42.328125 56 49.015625 48.375 
Q 55.71875 40.765625 55.71875 27.296875 
Q 55.71875 13.875 49.015625 6.21875 
Q 42.328125 -1.421875 30.609375 -1.421875 
Q 18.84375 -1.421875 12.171875 6.21875 
Q 5.515625 13.875 5.515625 27.296875 
Q 5.515625 40.765625 12.171875 48.375 
Q 18.84375 56 30.609375 56 
z
" id="DejaVuSans-111"/>
    </defs>
    <g transform="translate(133.024063 50.8512)scale(0.22 -0.22)">
     <use xlink:href="#DejaVuSans-82"/>
     <use x="69.451172" xlink:href="#DejaVuSans-97"/>
     <use x="130.730469" xlink:href="#DejaVuSans-109"/>
     <use x="228.142578" xlink:href="#DejaVuSans-82"/>
     <use x="297.625" xlink:href="#DejaVuSans-32"/>
     <use x="329.412109" xlink:href="#DejaVuSans-86"/>
     <use x="397.710938" xlink:href="#DejaVuSans-97"/>
     <use x="458.990234" xlink:href="#DejaVuSans-114"/>
     <use x="500.103516" xlink:href="#DejaVuSans-105"/>
     <use x="527.886719" xlink:href="#DejaVuSans-97"/>
     <use x="589.166016" xlink:href="#DejaVuSans-110"/>
     <use x="652.544922" xlink:href="#DejaVuSans-116"/>
     <use x="691.753906" xlink:href="#DejaVuSans-32"/>
     <use x="723.541016" xlink:href="#DejaVuSans-82"/>
     <use x="792.960938" xlink:href="#DejaVuSans-101"/>
     <use x="854.484375" xlink:href="#DejaVuSans-115"/>
     <use x="906.583984" xlink:href="#DejaVuSans-112"/>
     <use x="970.060547" xlink:href="#DejaVuSans-111"/>
     <use x="1031.242188" xlink:href="#DejaVuSans-110"/>
     <use x="1094.621094" xlink:href="#DejaVuSans-115"/>
     <use x="1146.720703" xlink:href="#DejaVuSans-101"/>
     <use x="1208.244141" xlink:href="#DejaVuSans-32"/>
     <use x="1240.03125" xlink:href="#DejaVuSans-116"/>
     <use x="1279.240234" xlink:href="#DejaVuSans-111"/>
     <use x="1340.421875" xlink:href="#DejaVuSans-32"/>
     <use x="1372.208984" xlink:href="#DejaVuSans-71"/>
     <use x="1449.699219" xlink:href="#DejaVuSans-108"/>
     <use x="1477.482422" xlink:href="#DejaVuSans-97"/>
     <use x="1538.761719" xlink:href="#DejaVuSans-117"/>
     <use x="1602.140625" xlink:href="#DejaVuSans-99"/>
     <use x="1657.121094" xlink:href="#DejaVuSans-105"/>
     <use x="1684.904297" xlink:href="#DejaVuSans-110"/>
     <use x="1748.283203" xlink:href="#DejaVuSans-101"/>
    </g>
   </g>
   <g id="legend_1">
    <g id="patch_5">
     <path d="M 91.5 176.886356 
L 189.8625 176.886356 
Q 192.8625 176.886356 192.8625 173.886356 
L 192.8625 67.3512 
Q 192.8625 64.3512 189.8625 64.3512 
L 91.5 64.3512 
Q 88.5 64.3512 88.5 67.3512 
L 88.5 173.886356 
Q 88.5 176.886356 91.5 176.886356 
z
" style="fill:#ffffff;opacity:0.8;stroke:#cccccc;stroke-linejoin:miter;"/>
    </g>
    <g id="line2d_68">
     <path d="M 94.5 76.205887 
L 124.5 76.205887 
" style="fill:none;stroke:#0099ff;stroke-linecap:square;stroke-width:1.5;"/>
    </g>
    <g id="line2d_69"/>
    <g id="text_15">
     <!-- WT -->
     <defs>
      <path d="M 75.296875 0 
L 64.9375 0 
L 47.859375 60.84375 
L 31.25 0 
L 20.90625 0 
L 1.953125 74.03125 
L 12.5 74.03125 
L 26.46875 13.875 
L 42.875 74.03125 
L 53.03125 74.03125 
L 69.921875 13.875 
L 83.5 74.03125 
L 94.046875 74.03125 
z
" id="Gargi-87"/>
      <path d="M 38.671875 65.71875 
L 38.671875 0 
L 29.203125 0 
L 29.203125 65.71875 
L 4.890625 65.71875 
L 4.890625 74.03125 
L 62.984375 74.03125 
L 62.984375 65.71875 
z
" id="Gargi-84"/>
     </defs>
     <g transform="translate(136.5 81.455887)scale(0.15 -0.15)">
      <use xlink:href="#Gargi-87"/>
      <use x="95.996094" xlink:href="#Gargi-84"/>
     </g>
    </g>
    <g id="line2d_70">
     <path d="M 94.5 97.812919 
L 124.5 97.812919 
" style="fill:none;stroke:#3372cc;stroke-linecap:square;stroke-width:1.5;"/>
    </g>
    <g id="line2d_71"/>
    <g id="text_16">
     <!-- GLAU1 -->
     <defs>
      <path d="M 70.40625 40.828125 
L 70.40625 2.25 
L 64.453125 2.25 
L 62.109375 11.921875 
Q 51.5625 0.296875 36.8125 0.296875 
Q 21.390625 0.296875 11.71875 11.71875 
Q 2.9375 22.078125 2.9375 38.09375 
Q 2.9375 55.46875 13.28125 66.609375 
Q 14.75 68.171875 16.3125 69.4375 
Q 25 76.375 38.484375 76.375 
Q 56.734375 76.375 64.84375 64.65625 
Q 68.171875 59.859375 69.4375 53.125 
L 59.765625 53.125 
Q 57.625 62.796875 48.046875 66.5 
Q 43.65625 68.171875 38.375 68.171875 
Q 24.90625 68.0625 17.78125 57.8125 
Q 12.3125 50.09375 12.3125 38.578125 
Q 12.3125 26.5625 18.5625 17.671875 
Q 19.140625 16.796875 20.21875 15.828125 
Q 28.21875 8.40625 38.578125 8.40625 
Q 38.765625 8.40625 38.875 8.40625 
Q 50.203125 8.40625 57.125 16.5 
Q 62.109375 22.359375 62.109375 30.765625 
L 62.109375 32.71875 
L 39.546875 32.71875 
L 39.546875 40.828125 
z
" id="Gargi-71"/>
      <path d="M 14.359375 74.03125 
L 14.359375 8.296875 
L 50.875 8.296875 
L 50.875 0 
L 4.890625 0 
L 4.890625 74.03125 
z
" id="Gargi-76"/>
      <path d="M 48.640625 30.171875 
L 37.203125 63.875 
L 25.09375 30.171875 
z
M 51.265625 22.265625 
L 22.75 22.265625 
L 14.9375 0 
L 4.890625 0 
L 31.25 74.03125 
L 43.453125 74.03125 
L 69.4375 0 
L 58.890625 0 
z
" id="Gargi-65"/>
      <path d="M 52.34375 75 
L 61.8125 75 
L 61.8125 24.125 
Q 61.8125 11.140625 51.265625 4.6875 
Q 43.953125 0.203125 33.296875 0.203125 
Q 16.5 0.203125 9.078125 10.25 
Q 4.890625 15.921875 4.890625 24.125 
L 4.890625 75 
L 14.359375 75 
L 14.359375 24.125 
Q 14.359375 16.3125 19.734375 12.109375 
Q 25.09375 8.296875 33.296875 8.296875 
Q 45.90625 8.296875 50.390625 16.3125 
Q 52.34375 19.828125 52.34375 24.125 
z
" id="Gargi-85"/>
      <path d="M 22.75 51.265625 
L 6.84375 51.265625 
L 6.84375 57.71875 
Q 17.1875 58.984375 20.21875 61.328125 
Q 23.34375 63.578125 25.390625 70.796875 
L 25.875 71.96875 
L 31.734375 71.96875 
L 31.734375 0 
L 22.75 0 
z
" id="Gargi-49"/>
     </defs>
     <g transform="translate(136.5 103.062919)scale(0.15 -0.15)">
      <use xlink:href="#Gargi-71"/>
      <use x="75.292969" xlink:href="#Gargi-76"/>
      <use x="131.054688" xlink:href="#Gargi-65"/>
      <use x="205.371094" xlink:href="#Gargi-85"/>
      <use x="272.070312" xlink:href="#Gargi-49"/>
     </g>
    </g>
    <g id="line2d_72">
     <path d="M 94.5 119.41995 
L 124.5 119.41995 
" style="fill:none;stroke:#674c9a;stroke-linecap:square;stroke-width:1.5;"/>
    </g>
    <g id="line2d_73"/>
    <g id="text_17">
     <!-- GLAU2 -->
     <defs>
      <path d="M 54.78125 8.796875 
L 54.78125 0 
L 6.84375 0 
Q 6.84375 12.984375 12.703125 19.828125 
Q 17.96875 25.984375 27.046875 31.15625 
L 36.421875 36.421875 
Q 46.1875 42.09375 46.1875 50.6875 
Q 46.1875 58.015625 40.046875 61.921875 
Q 36.53125 64.15625 31.9375 64.15625 
Q 24.3125 64.15625 20.3125 58.40625 
L 19.53125 57.234375 
Q 17.484375 53.90625 17.484375 47.078125 
L 8.5 47.078125 
Q 8.5 57.234375 12.40625 62.703125 
Q 19.046875 71.96875 32.234375 71.96875 
Q 42.28125 71.96875 48.640625 66.3125 
Q 55.28125 60.25 55.28125 50.875 
Q 55.28125 37.5 40.046875 29.109375 
L 29.890625 23.640625 
Q 20.703125 18.265625 18.265625 13.28125 
Q 17.28125 11.234375 16.890625 8.796875 
z
" id="Gargi-50"/>
     </defs>
     <g transform="translate(136.5 124.66995)scale(0.15 -0.15)">
      <use xlink:href="#Gargi-71"/>
      <use x="75.292969" xlink:href="#Gargi-76"/>
      <use x="131.054688" xlink:href="#Gargi-65"/>
      <use x="205.371094" xlink:href="#Gargi-85"/>
      <use x="272.070312" xlink:href="#Gargi-50"/>
     </g>
    </g>
    <g id="line2d_74">
     <path d="M 94.5 141.026981 
L 124.5 141.026981 
" style="fill:none;stroke:#9a2667;stroke-linecap:square;stroke-width:1.5;"/>
    </g>
    <g id="line2d_75"/>
    <g id="text_18">
     <!-- GLAU3 -->
     <defs>
      <path d="M 26.078125 35.25 
L 26.078125 42.78125 
Q 34.578125 42.78125 37.984375 44.34375 
Q 43.75 46.96875 43.75 54 
Q 43.75 62.703125 36.625 65.4375 
Q 34.1875 66.3125 31.0625 66.3125 
Q 23.046875 66.3125 19.4375 60.84375 
Q 19.140625 60.359375 18.953125 59.96875 
Q 17.28125 57.03125 17.28125 50.875 
L 8.40625 50.875 
Q 8.40625 74.03125 27.640625 74.03125 
Q 28.71875 74.03125 30.953125 74.125 
Q 31.734375 74.125 32.421875 74.125 
Q 44.734375 74.125 50.390625 64.65625 
Q 52.828125 60.453125 52.828125 54.390625 
Q 52.828125 43.359375 42.78125 39.453125 
Q 52.25 36.140625 54.296875 28.421875 
Q 54.984375 25.78125 54.984375 22.265625 
Q 54.984375 9.859375 45.40625 3.71875 
Q 39.265625 -0.203125 30.671875 -0.203125 
Q 15.625 -0.203125 10.0625 10.25 
Q 6.84375 15.140625 6.84375 23.046875 
L 15.828125 23.046875 
Q 15.828125 9.671875 27.25 8.015625 
Q 29.296875 7.71875 30.953125 7.71875 
Q 41.5 7.71875 44.734375 15.71875 
Q 45.90625 18.5625 45.90625 22.171875 
Q 45.90625 35.25 30.953125 35.25 
L 27.15625 35.25 
z
" id="Gargi-51"/>
     </defs>
     <g transform="translate(136.5 146.276981)scale(0.15 -0.15)">
      <use xlink:href="#Gargi-71"/>
      <use x="75.292969" xlink:href="#Gargi-76"/>
      <use x="131.054688" xlink:href="#Gargi-65"/>
      <use x="205.371094" xlink:href="#Gargi-85"/>
      <use x="272.070312" xlink:href="#Gargi-51"/>
     </g>
    </g>
    <g id="line2d_76">
     <path d="M 94.5 162.634012 
L 124.5 162.634012 
" style="fill:none;stroke:#ce0035;stroke-linecap:square;stroke-width:1.5;"/>
    </g>
    <g id="line2d_77"/>
    <g id="text_19">
     <!-- GLAU4 -->
     <defs>
      <path d="M 37.203125 25.296875 
L 37.203125 56.734375 
L 14.65625 25.296875 
z
M 37.203125 17.28125 
L 6.84375 17.28125 
L 6.84375 26.765625 
L 39.546875 71.96875 
L 46.1875 71.96875 
L 46.1875 25.296875 
L 56.84375 25.296875 
L 56.84375 17.28125 
L 46.1875 17.28125 
L 46.1875 0 
L 37.203125 0 
z
" id="Gargi-52"/>
     </defs>
     <g transform="translate(136.5 167.884012)scale(0.15 -0.15)">
      <use xlink:href="#Gargi-71"/>
      <use x="75.292969" xlink:href="#Gargi-76"/>
      <use x="131.054688" xlink:href="#Gargi-65"/>
      <use x="205.371094" xlink:href="#Gargi-85"/>
      <use x="272.070312" xlink:href="#Gargi-52"/>
     </g>
    </g>
   </g>
  </g>
 </g>
 <defs>
  <clipPath id="pf69b65208b">
   <rect height="364.7952" width="502.2" x="81" y="56.8512"/>
  </clipPath>
 </defs>
</svg>
