<?xml version="1.0" encoding="utf-8" standalone="no"?>
<!DOCTYPE svg PUBLIC "-//W3C//DTD SVG 1.1//EN"
  "http://www.w3.org/Graphics/SVG/1.1/DTD/svg11.dtd">
<!-- Created with matplotlib (https://matplotlib.org/) -->
<svg height="473.76pt" version="1.1" viewBox="0 0 648 473.76" width="648pt" xmlns="http://www.w3.org/2000/svg" xmlns:xlink="http://www.w3.org/1999/xlink">
 <defs>
  <style type="text/css">
*{stroke-linecap:butt;stroke-linejoin:round;}
  </style>
 </defs>
 <g id="figure_1">
  <g id="patch_1">
   <path d="M 0 473.76 
L 648 473.76 
L 648 0 
L 0 0 
z
" style="fill:#ffffff;"/>
  </g>
  <g id="axes_1">
   <g id="patch_2">
    <path d="M 81 331.632 
L 583.2 331.632 
L 583.2 56.8512 
L 81 56.8512 
z
" style="fill:#ffffff;"/>
   </g>
   <g id="table_1">
    <g id="patch_3">
     <path d="M 106.11 423.2256 
L 177.852857 423.2256 
L 177.852857 400.3272 
L 106.11 400.3272 
z
" style="fill:#0ad12e;stroke:#000000;stroke-linejoin:miter;"/>
    </g>
    <g id="text_1">
     <!-- NOS2 -->
     <defs>
      <path d="M 9.8125 72.90625 
L 23.09375 72.90625 
L 55.421875 11.921875 
L 55.421875 72.90625 
L 64.984375 72.90625 
L 64.984375 0 
L 51.703125 0 
L 19.390625 60.984375 
L 19.390625 0 
L 9.8125 0 
z
" id="DejaVuSans-78"/>
      <path d="M 39.40625 66.21875 
Q 28.65625 66.21875 22.328125 58.203125 
Q 16.015625 50.203125 16.015625 36.375 
Q 16.015625 22.609375 22.328125 14.59375 
Q 28.65625 6.59375 39.40625 6.59375 
Q 50.140625 6.59375 56.421875 14.59375 
Q 62.703125 22.609375 62.703125 36.375 
Q 62.703125 50.203125 56.421875 58.203125 
Q 50.140625 66.21875 39.40625 66.21875 
z
M 39.40625 74.21875 
Q 54.734375 74.21875 63.90625 63.9375 
Q 73.09375 53.65625 73.09375 36.375 
Q 73.09375 19.140625 63.90625 8.859375 
Q 54.734375 -1.421875 39.40625 -1.421875 
Q 24.03125 -1.421875 14.8125 8.828125 
Q 5.609375 19.09375 5.609375 36.375 
Q 5.609375 53.65625 14.8125 63.9375 
Q 24.03125 74.21875 39.40625 74.21875 
z
" id="DejaVuSans-79"/>
      <path d="M 53.515625 70.515625 
L 53.515625 60.890625 
Q 47.90625 63.578125 42.921875 64.890625 
Q 37.9375 66.21875 33.296875 66.21875 
Q 25.25 66.21875 20.875 63.09375 
Q 16.5 59.96875 16.5 54.203125 
Q 16.5 49.359375 19.40625 46.890625 
Q 22.3125 44.4375 30.421875 42.921875 
L 36.375 41.703125 
Q 47.40625 39.59375 52.65625 34.296875 
Q 57.90625 29 57.90625 20.125 
Q 57.90625 9.515625 50.796875 4.046875 
Q 43.703125 -1.421875 29.984375 -1.421875 
Q 24.8125 -1.421875 18.96875 -0.25 
Q 13.140625 0.921875 6.890625 3.21875 
L 6.890625 13.375 
Q 12.890625 10.015625 18.65625 8.296875 
Q 24.421875 6.59375 29.984375 6.59375 
Q 38.421875 6.59375 43.015625 9.90625 
Q 47.609375 13.234375 47.609375 19.390625 
Q 47.609375 24.75 44.3125 27.78125 
Q 41.015625 30.8125 33.5 32.328125 
L 27.484375 33.5 
Q 16.453125 35.6875 11.515625 40.375 
Q 6.59375 45.0625 6.59375 53.421875 
Q 6.59375 63.09375 13.40625 68.65625 
Q 20.21875 74.21875 32.171875 74.21875 
Q 37.3125 74.21875 42.625 73.28125 
Q 47.953125 72.359375 53.515625 70.515625 
z
" id="DejaVuSans-83"/>
      <path d="M 19.1875 8.296875 
L 53.609375 8.296875 
L 53.609375 0 
L 7.328125 0 
L 7.328125 8.296875 
Q 12.9375 14.109375 22.625 23.890625 
Q 32.328125 33.6875 34.8125 36.53125 
Q 39.546875 41.84375 41.421875 45.53125 
Q 43.3125 49.21875 43.3125 52.78125 
Q 43.3125 58.59375 39.234375 62.25 
Q 35.15625 65.921875 28.609375 65.921875 
Q 23.96875 65.921875 18.8125 64.3125 
Q 13.671875 62.703125 7.8125 59.421875 
L 7.8125 69.390625 
Q 13.765625 71.78125 18.9375 73 
Q 24.125 74.21875 28.421875 74.21875 
Q 39.75 74.21875 46.484375 68.546875 
Q 53.21875 62.890625 53.21875 53.421875 
Q 53.21875 48.921875 51.53125 44.890625 
Q 49.859375 40.875 45.40625 35.40625 
Q 44.1875 33.984375 37.640625 27.21875 
Q 31.109375 20.453125 19.1875 8.296875 
z
" id="DejaVuSans-50"/>
     </defs>
     <g transform="translate(130.755804 413.9839)scale(0.08 -0.08)">
      <use xlink:href="#DejaVuSans-78"/>
      <use x="74.804688" xlink:href="#DejaVuSans-79"/>
      <use x="153.515625" xlink:href="#DejaVuSans-83"/>
      <use x="216.992188" xlink:href="#DejaVuSans-50"/>
     </g>
    </g>
    <g id="patch_4">
     <path d="M 177.852857 423.2256 
L 249.595714 423.2256 
L 249.595714 400.3272 
L 177.852857 400.3272 
z
" style="fill:#0a95d1;stroke:#000000;stroke-linejoin:miter;"/>
    </g>
    <g id="text_2">
     <!-- NOS3.1 -->
     <defs>
      <path d="M 40.578125 39.3125 
Q 47.65625 37.796875 51.625 33 
Q 55.609375 28.21875 55.609375 21.1875 
Q 55.609375 10.40625 48.1875 4.484375 
Q 40.765625 -1.421875 27.09375 -1.421875 
Q 22.515625 -1.421875 17.65625 -0.515625 
Q 12.796875 0.390625 7.625 2.203125 
L 7.625 11.71875 
Q 11.71875 9.328125 16.59375 8.109375 
Q 21.484375 6.890625 26.8125 6.890625 
Q 36.078125 6.890625 40.9375 10.546875 
Q 45.796875 14.203125 45.796875 21.1875 
Q 45.796875 27.640625 41.28125 31.265625 
Q 36.765625 34.90625 28.71875 34.90625 
L 20.21875 34.90625 
L 20.21875 43.015625 
L 29.109375 43.015625 
Q 36.375 43.015625 40.234375 45.921875 
Q 44.09375 48.828125 44.09375 54.296875 
Q 44.09375 59.90625 40.109375 62.90625 
Q 36.140625 65.921875 28.71875 65.921875 
Q 24.65625 65.921875 20.015625 65.03125 
Q 15.375 64.15625 9.8125 62.3125 
L 9.8125 71.09375 
Q 15.4375 72.65625 20.34375 73.4375 
Q 25.25 74.21875 29.59375 74.21875 
Q 40.828125 74.21875 47.359375 69.109375 
Q 53.90625 64.015625 53.90625 55.328125 
Q 53.90625 49.265625 50.4375 45.09375 
Q 46.96875 40.921875 40.578125 39.3125 
z
" id="DejaVuSans-51"/>
      <path d="M 10.6875 12.40625 
L 21 12.40625 
L 21 0 
L 10.6875 0 
z
" id="DejaVuSans-46"/>
      <path d="M 12.40625 8.296875 
L 28.515625 8.296875 
L 28.515625 63.921875 
L 10.984375 60.40625 
L 10.984375 69.390625 
L 28.421875 72.90625 
L 38.28125 72.90625 
L 38.28125 8.296875 
L 54.390625 8.296875 
L 54.390625 0 
L 12.40625 0 
z
" id="DejaVuSans-49"/>
     </defs>
     <g transform="translate(198.682411 413.9839)scale(0.08 -0.08)">
      <use xlink:href="#DejaVuSans-78"/>
      <use x="74.804688" xlink:href="#DejaVuSans-79"/>
      <use x="153.515625" xlink:href="#DejaVuSans-83"/>
      <use x="216.992188" xlink:href="#DejaVuSans-51"/>
      <use x="280.615234" xlink:href="#DejaVuSans-46"/>
      <use x="312.402344" xlink:href="#DejaVuSans-49"/>
     </g>
    </g>
    <g id="patch_5">
     <path d="M 249.595714 423.2256 
L 321.338571 423.2256 
L 321.338571 400.3272 
L 249.595714 400.3272 
z
" style="fill:#710ad1;stroke:#000000;stroke-linejoin:miter;"/>
    </g>
    <g id="text_3">
     <!-- NOS3.2 -->
     <g transform="translate(270.425268 413.9839)scale(0.08 -0.08)">
      <use xlink:href="#DejaVuSans-78"/>
      <use x="74.804688" xlink:href="#DejaVuSans-79"/>
      <use x="153.515625" xlink:href="#DejaVuSans-83"/>
      <use x="216.992188" xlink:href="#DejaVuSans-51"/>
      <use x="280.615234" xlink:href="#DejaVuSans-46"/>
      <use x="312.402344" xlink:href="#DejaVuSans-50"/>
     </g>
    </g>
    <g id="patch_6">
     <path d="M 321.338571 423.2256 
L 393.081429 423.2256 
L 393.081429 400.3272 
L 321.338571 400.3272 
z
" style="fill:#d10a7b;stroke:#000000;stroke-linejoin:miter;"/>
    </g>
    <g id="text_4">
     <!-- NOS3.3 -->
     <g transform="translate(342.168125 413.9839)scale(0.08 -0.08)">
      <use xlink:href="#DejaVuSans-78"/>
      <use x="74.804688" xlink:href="#DejaVuSans-79"/>
      <use x="153.515625" xlink:href="#DejaVuSans-83"/>
      <use x="216.992188" xlink:href="#DejaVuSans-51"/>
      <use x="280.615234" xlink:href="#DejaVuSans-46"/>
      <use x="312.402344" xlink:href="#DejaVuSans-51"/>
     </g>
    </g>
    <g id="patch_7">
     <path d="M 393.081429 423.2256 
L 464.824286 423.2256 
L 464.824286 400.3272 
L 393.081429 400.3272 
z
" style="fill:#d10a0a;stroke:#000000;stroke-linejoin:miter;"/>
    </g>
    <g id="text_5">
     <!-- NOS3.4 -->
     <defs>
      <path d="M 37.796875 64.3125 
L 12.890625 25.390625 
L 37.796875 25.390625 
z
M 35.203125 72.90625 
L 47.609375 72.90625 
L 47.609375 25.390625 
L 58.015625 25.390625 
L 58.015625 17.1875 
L 47.609375 17.1875 
L 47.609375 0 
L 37.796875 0 
L 37.796875 17.1875 
L 4.890625 17.1875 
L 4.890625 26.703125 
z
" id="DejaVuSans-52"/>
     </defs>
     <g transform="translate(413.910982 413.9839)scale(0.08 -0.08)">
      <use xlink:href="#DejaVuSans-78"/>
      <use x="74.804688" xlink:href="#DejaVuSans-79"/>
      <use x="153.515625" xlink:href="#DejaVuSans-83"/>
      <use x="216.992188" xlink:href="#DejaVuSans-51"/>
      <use x="280.615234" xlink:href="#DejaVuSans-46"/>
      <use x="312.402344" xlink:href="#DejaVuSans-52"/>
     </g>
    </g>
    <g id="patch_8">
     <path d="M 464.824286 423.2256 
L 536.567143 423.2256 
L 536.567143 400.3272 
L 464.824286 400.3272 
z
" style="fill:#ed4107;stroke:#000000;stroke-linejoin:miter;"/>
    </g>
    <g id="text_6">
     <!-- NOS3.5 -->
     <defs>
      <path d="M 10.796875 72.90625 
L 49.515625 72.90625 
L 49.515625 64.59375 
L 19.828125 64.59375 
L 19.828125 46.734375 
Q 21.96875 47.46875 24.109375 47.828125 
Q 26.265625 48.1875 28.421875 48.1875 
Q 40.625 48.1875 47.75 41.5 
Q 54.890625 34.8125 54.890625 23.390625 
Q 54.890625 11.625 47.5625 5.09375 
Q 40.234375 -1.421875 26.90625 -1.421875 
Q 22.3125 -1.421875 17.546875 -0.640625 
Q 12.796875 0.140625 7.71875 1.703125 
L 7.71875 11.625 
Q 12.109375 9.234375 16.796875 8.0625 
Q 21.484375 6.890625 26.703125 6.890625 
Q 35.15625 6.890625 40.078125 11.328125 
Q 45.015625 15.765625 45.015625 23.390625 
Q 45.015625 31 40.078125 35.4375 
Q 35.15625 39.890625 26.703125 39.890625 
Q 22.75 39.890625 18.8125 39.015625 
Q 14.890625 38.140625 10.796875 36.28125 
z
" id="DejaVuSans-53"/>
     </defs>
     <g transform="translate(485.653839 413.9839)scale(0.08 -0.08)">
      <use xlink:href="#DejaVuSans-78"/>
      <use x="74.804688" xlink:href="#DejaVuSans-79"/>
      <use x="153.515625" xlink:href="#DejaVuSans-83"/>
      <use x="216.992188" xlink:href="#DejaVuSans-51"/>
      <use x="280.615234" xlink:href="#DejaVuSans-46"/>
      <use x="312.402344" xlink:href="#DejaVuSans-53"/>
     </g>
    </g>
    <g id="patch_9">
     <path d="M 536.567143 423.2256 
L 608.31 423.2256 
L 608.31 400.3272 
L 536.567143 400.3272 
z
" style="fill:#dea300;stroke:#000000;stroke-linejoin:miter;"/>
    </g>
    <g id="text_7">
     <!-- NOS3.6 -->
     <defs>
      <path d="M 33.015625 40.375 
Q 26.375 40.375 22.484375 35.828125 
Q 18.609375 31.296875 18.609375 23.390625 
Q 18.609375 15.53125 22.484375 10.953125 
Q 26.375 6.390625 33.015625 6.390625 
Q 39.65625 6.390625 43.53125 10.953125 
Q 47.40625 15.53125 47.40625 23.390625 
Q 47.40625 31.296875 43.53125 35.828125 
Q 39.65625 40.375 33.015625 40.375 
z
M 52.59375 71.296875 
L 52.59375 62.3125 
Q 48.875 64.0625 45.09375 64.984375 
Q 41.3125 65.921875 37.59375 65.921875 
Q 27.828125 65.921875 22.671875 59.328125 
Q 17.53125 52.734375 16.796875 39.40625 
Q 19.671875 43.65625 24.015625 45.921875 
Q 28.375 48.1875 33.59375 48.1875 
Q 44.578125 48.1875 50.953125 41.515625 
Q 57.328125 34.859375 57.328125 23.390625 
Q 57.328125 12.15625 50.6875 5.359375 
Q 44.046875 -1.421875 33.015625 -1.421875 
Q 20.359375 -1.421875 13.671875 8.265625 
Q 6.984375 17.96875 6.984375 36.375 
Q 6.984375 53.65625 15.1875 63.9375 
Q 23.390625 74.21875 37.203125 74.21875 
Q 40.921875 74.21875 44.703125 73.484375 
Q 48.484375 72.75 52.59375 71.296875 
z
" id="DejaVuSans-54"/>
     </defs>
     <g transform="translate(557.396696 413.9839)scale(0.08 -0.08)">
      <use xlink:href="#DejaVuSans-78"/>
      <use x="74.804688" xlink:href="#DejaVuSans-79"/>
      <use x="153.515625" xlink:href="#DejaVuSans-83"/>
      <use x="216.992188" xlink:href="#DejaVuSans-51"/>
      <use x="280.615234" xlink:href="#DejaVuSans-46"/>
      <use x="312.402344" xlink:href="#DejaVuSans-54"/>
     </g>
    </g>
    <g id="patch_10">
     <path d="M 48.6285 446.124 
L 106.11 446.124 
L 106.11 423.2256 
L 48.6285 423.2256 
z
" style="fill:#ffffff;stroke:#000000;stroke-linejoin:miter;"/>
    </g>
    <g id="text_8">
     <!-- EC50 (uM) -->
     <defs>
      <path d="M 9.8125 72.90625 
L 55.90625 72.90625 
L 55.90625 64.59375 
L 19.671875 64.59375 
L 19.671875 43.015625 
L 54.390625 43.015625 
L 54.390625 34.71875 
L 19.671875 34.71875 
L 19.671875 8.296875 
L 56.78125 8.296875 
L 56.78125 0 
L 9.8125 0 
z
" id="DejaVuSans-69"/>
      <path d="M 64.40625 67.28125 
L 64.40625 56.890625 
Q 59.421875 61.53125 53.78125 63.8125 
Q 48.140625 66.109375 41.796875 66.109375 
Q 29.296875 66.109375 22.65625 58.46875 
Q 16.015625 50.828125 16.015625 36.375 
Q 16.015625 21.96875 22.65625 14.328125 
Q 29.296875 6.6875 41.796875 6.6875 
Q 48.140625 6.6875 53.78125 8.984375 
Q 59.421875 11.28125 64.40625 15.921875 
L 64.40625 5.609375 
Q 59.234375 2.09375 53.4375 0.328125 
Q 47.65625 -1.421875 41.21875 -1.421875 
Q 24.65625 -1.421875 15.125 8.703125 
Q 5.609375 18.84375 5.609375 36.375 
Q 5.609375 53.953125 15.125 64.078125 
Q 24.65625 74.21875 41.21875 74.21875 
Q 47.75 74.21875 53.53125 72.484375 
Q 59.328125 70.75 64.40625 67.28125 
z
" id="DejaVuSans-67"/>
      <path d="M 31.78125 66.40625 
Q 24.171875 66.40625 20.328125 58.90625 
Q 16.5 51.421875 16.5 36.375 
Q 16.5 21.390625 20.328125 13.890625 
Q 24.171875 6.390625 31.78125 6.390625 
Q 39.453125 6.390625 43.28125 13.890625 
Q 47.125 21.390625 47.125 36.375 
Q 47.125 51.421875 43.28125 58.90625 
Q 39.453125 66.40625 31.78125 66.40625 
z
M 31.78125 74.21875 
Q 44.046875 74.21875 50.515625 64.515625 
Q 56.984375 54.828125 56.984375 36.375 
Q 56.984375 17.96875 50.515625 8.265625 
Q 44.046875 -1.421875 31.78125 -1.421875 
Q 19.53125 -1.421875 13.0625 8.265625 
Q 6.59375 17.96875 6.59375 36.375 
Q 6.59375 54.828125 13.0625 64.515625 
Q 19.53125 74.21875 31.78125 74.21875 
z
" id="DejaVuSans-48"/>
      <path id="DejaVuSans-32"/>
      <path d="M 31 75.875 
Q 24.46875 64.65625 21.28125 53.65625 
Q 18.109375 42.671875 18.109375 31.390625 
Q 18.109375 20.125 21.3125 9.0625 
Q 24.515625 -2 31 -13.1875 
L 23.1875 -13.1875 
Q 15.875 -1.703125 12.234375 9.375 
Q 8.59375 20.453125 8.59375 31.390625 
Q 8.59375 42.28125 12.203125 53.3125 
Q 15.828125 64.359375 23.1875 75.875 
z
" id="DejaVuSans-40"/>
      <path d="M 8.5 21.578125 
L 8.5 54.6875 
L 17.484375 54.6875 
L 17.484375 21.921875 
Q 17.484375 14.15625 20.5 10.265625 
Q 23.53125 6.390625 29.59375 6.390625 
Q 36.859375 6.390625 41.078125 11.03125 
Q 45.3125 15.671875 45.3125 23.6875 
L 45.3125 54.6875 
L 54.296875 54.6875 
L 54.296875 0 
L 45.3125 0 
L 45.3125 8.40625 
Q 42.046875 3.421875 37.71875 1 
Q 33.40625 -1.421875 27.6875 -1.421875 
Q 18.265625 -1.421875 13.375 4.4375 
Q 8.5 10.296875 8.5 21.578125 
z
M 31.109375 56 
z
" id="DejaVuSans-117"/>
      <path d="M 9.8125 72.90625 
L 24.515625 72.90625 
L 43.109375 23.296875 
L 61.8125 72.90625 
L 76.515625 72.90625 
L 76.515625 0 
L 66.890625 0 
L 66.890625 64.015625 
L 48.09375 14.015625 
L 38.1875 14.015625 
L 19.390625 64.015625 
L 19.390625 0 
L 9.8125 0 
z
" id="DejaVuSans-77"/>
      <path d="M 8.015625 75.875 
L 15.828125 75.875 
Q 23.140625 64.359375 26.78125 53.3125 
Q 30.421875 42.28125 30.421875 31.390625 
Q 30.421875 20.453125 26.78125 9.375 
Q 23.140625 -1.703125 15.828125 -13.1875 
L 8.015625 -13.1875 
Q 14.5 -2 17.703125 9.0625 
Q 20.90625 20.125 20.90625 31.390625 
Q 20.90625 42.671875 17.703125 53.65625 
Q 14.5 64.65625 8.015625 75.875 
z
" id="DejaVuSans-41"/>
     </defs>
     <g transform="translate(54.37665 436.8823)scale(0.08 -0.08)">
      <use xlink:href="#DejaVuSans-69"/>
      <use x="63.183594" xlink:href="#DejaVuSans-67"/>
      <use x="133.007812" xlink:href="#DejaVuSans-53"/>
      <use x="196.630859" xlink:href="#DejaVuSans-48"/>
      <use x="260.253906" xlink:href="#DejaVuSans-32"/>
      <use x="292.041016" xlink:href="#DejaVuSans-40"/>
      <use x="331.054688" xlink:href="#DejaVuSans-117"/>
      <use x="394.433594" xlink:href="#DejaVuSans-77"/>
      <use x="480.712891" xlink:href="#DejaVuSans-41"/>
     </g>
    </g>
    <g id="patch_11">
     <path d="M 106.11 446.124 
L 177.852857 446.124 
L 177.852857 423.2256 
L 106.11 423.2256 
z
" style="fill:#ffffff;stroke:#000000;stroke-linejoin:miter;"/>
    </g>
    <g id="text_9">
     <!-- N/A -->
     <defs>
      <path d="M 25.390625 72.90625 
L 33.6875 72.90625 
L 8.296875 -9.28125 
L 0 -9.28125 
z
" id="DejaVuSans-47"/>
      <path d="M 34.1875 63.1875 
L 20.796875 26.90625 
L 47.609375 26.90625 
z
M 28.609375 72.90625 
L 39.796875 72.90625 
L 67.578125 0 
L 57.328125 0 
L 50.6875 18.703125 
L 17.828125 18.703125 
L 11.1875 0 
L 0.78125 0 
z
" id="DejaVuSans-65"/>
     </defs>
     <g transform="translate(156.526071 436.8823)scale(0.08 -0.08)">
      <use xlink:href="#DejaVuSans-78"/>
      <use x="74.804688" xlink:href="#DejaVuSans-47"/>
      <use x="108.496094" xlink:href="#DejaVuSans-65"/>
     </g>
    </g>
    <g id="patch_12">
     <path d="M 177.852857 446.124 
L 249.595714 446.124 
L 249.595714 423.2256 
L 177.852857 423.2256 
z
" style="fill:#ffffff;stroke:#000000;stroke-linejoin:miter;"/>
    </g>
    <g id="text_10">
     <!-- 38.8 -->
     <defs>
      <path d="M 31.78125 34.625 
Q 24.75 34.625 20.71875 30.859375 
Q 16.703125 27.09375 16.703125 20.515625 
Q 16.703125 13.921875 20.71875 10.15625 
Q 24.75 6.390625 31.78125 6.390625 
Q 38.8125 6.390625 42.859375 10.171875 
Q 46.921875 13.96875 46.921875 20.515625 
Q 46.921875 27.09375 42.890625 30.859375 
Q 38.875 34.625 31.78125 34.625 
z
M 21.921875 38.8125 
Q 15.578125 40.375 12.03125 44.71875 
Q 8.5 49.078125 8.5 55.328125 
Q 8.5 64.0625 14.71875 69.140625 
Q 20.953125 74.21875 31.78125 74.21875 
Q 42.671875 74.21875 48.875 69.140625 
Q 55.078125 64.0625 55.078125 55.328125 
Q 55.078125 49.078125 51.53125 44.71875 
Q 48 40.375 41.703125 38.8125 
Q 48.828125 37.15625 52.796875 32.3125 
Q 56.78125 27.484375 56.78125 20.515625 
Q 56.78125 9.90625 50.3125 4.234375 
Q 43.84375 -1.421875 31.78125 -1.421875 
Q 19.734375 -1.421875 13.25 4.234375 
Q 6.78125 9.90625 6.78125 20.515625 
Q 6.78125 27.484375 10.78125 32.3125 
Q 14.796875 37.15625 21.921875 38.8125 
z
M 18.3125 54.390625 
Q 18.3125 48.734375 21.84375 45.5625 
Q 25.390625 42.390625 31.78125 42.390625 
Q 38.140625 42.390625 41.71875 45.5625 
Q 45.3125 48.734375 45.3125 54.390625 
Q 45.3125 60.0625 41.71875 63.234375 
Q 38.140625 66.40625 31.78125 66.40625 
Q 25.390625 66.40625 21.84375 63.234375 
Q 18.3125 60.0625 18.3125 54.390625 
z
" id="DejaVuSans-56"/>
     </defs>
     <g transform="translate(224.608929 436.8823)scale(0.08 -0.08)">
      <use xlink:href="#DejaVuSans-51"/>
      <use x="63.623047" xlink:href="#DejaVuSans-56"/>
      <use x="127.246094" xlink:href="#DejaVuSans-46"/>
      <use x="159.033203" xlink:href="#DejaVuSans-56"/>
     </g>
    </g>
    <g id="patch_13">
     <path d="M 249.595714 446.124 
L 321.338571 446.124 
L 321.338571 423.2256 
L 249.595714 423.2256 
z
" style="fill:#ffffff;stroke:#000000;stroke-linejoin:miter;"/>
    </g>
    <g id="text_11">
     <!-- 23.0 -->
     <g transform="translate(296.351786 436.8823)scale(0.08 -0.08)">
      <use xlink:href="#DejaVuSans-50"/>
      <use x="63.623047" xlink:href="#DejaVuSans-51"/>
      <use x="127.246094" xlink:href="#DejaVuSans-46"/>
      <use x="159.033203" xlink:href="#DejaVuSans-48"/>
     </g>
    </g>
    <g id="patch_14">
     <path d="M 321.338571 446.124 
L 393.081429 446.124 
L 393.081429 423.2256 
L 321.338571 423.2256 
z
" style="fill:#ffffff;stroke:#000000;stroke-linejoin:miter;"/>
    </g>
    <g id="text_12">
     <!-- 19.9 -->
     <defs>
      <path d="M 10.984375 1.515625 
L 10.984375 10.5 
Q 14.703125 8.734375 18.5 7.8125 
Q 22.3125 6.890625 25.984375 6.890625 
Q 35.75 6.890625 40.890625 13.453125 
Q 46.046875 20.015625 46.78125 33.40625 
Q 43.953125 29.203125 39.59375 26.953125 
Q 35.25 24.703125 29.984375 24.703125 
Q 19.046875 24.703125 12.671875 31.3125 
Q 6.296875 37.9375 6.296875 49.421875 
Q 6.296875 60.640625 12.9375 67.421875 
Q 19.578125 74.21875 30.609375 74.21875 
Q 43.265625 74.21875 49.921875 64.515625 
Q 56.59375 54.828125 56.59375 36.375 
Q 56.59375 19.140625 48.40625 8.859375 
Q 40.234375 -1.421875 26.421875 -1.421875 
Q 22.703125 -1.421875 18.890625 -0.6875 
Q 15.09375 0.046875 10.984375 1.515625 
z
M 30.609375 32.421875 
Q 37.25 32.421875 41.125 36.953125 
Q 45.015625 41.5 45.015625 49.421875 
Q 45.015625 57.28125 41.125 61.84375 
Q 37.25 66.40625 30.609375 66.40625 
Q 23.96875 66.40625 20.09375 61.84375 
Q 16.21875 57.28125 16.21875 49.421875 
Q 16.21875 41.5 20.09375 36.953125 
Q 23.96875 32.421875 30.609375 32.421875 
z
" id="DejaVuSans-57"/>
     </defs>
     <g transform="translate(368.094643 436.8823)scale(0.08 -0.08)">
      <use xlink:href="#DejaVuSans-49"/>
      <use x="63.623047" xlink:href="#DejaVuSans-57"/>
      <use x="127.246094" xlink:href="#DejaVuSans-46"/>
      <use x="159.033203" xlink:href="#DejaVuSans-57"/>
     </g>
    </g>
    <g id="patch_15">
     <path d="M 393.081429 446.124 
L 464.824286 446.124 
L 464.824286 423.2256 
L 393.081429 423.2256 
z
" style="fill:#ffffff;stroke:#000000;stroke-linejoin:miter;"/>
    </g>
    <g id="text_13">
     <!-- 28.4 -->
     <g transform="translate(439.8375 436.8823)scale(0.08 -0.08)">
      <use xlink:href="#DejaVuSans-50"/>
      <use x="63.623047" xlink:href="#DejaVuSans-56"/>
      <use x="127.246094" xlink:href="#DejaVuSans-46"/>
      <use x="159.033203" xlink:href="#DejaVuSans-52"/>
     </g>
    </g>
    <g id="patch_16">
     <path d="M 464.824286 446.124 
L 536.567143 446.124 
L 536.567143 423.2256 
L 464.824286 423.2256 
z
" style="fill:#ffffff;stroke:#000000;stroke-linejoin:miter;"/>
    </g>
    <g id="text_14">
     <!-- 30.8 -->
     <g transform="translate(511.580357 436.8823)scale(0.08 -0.08)">
      <use xlink:href="#DejaVuSans-51"/>
      <use x="63.623047" xlink:href="#DejaVuSans-48"/>
      <use x="127.246094" xlink:href="#DejaVuSans-46"/>
      <use x="159.033203" xlink:href="#DejaVuSans-56"/>
     </g>
    </g>
    <g id="patch_17">
     <path d="M 536.567143 446.124 
L 608.31 446.124 
L 608.31 423.2256 
L 536.567143 423.2256 
z
" style="fill:#ffffff;stroke:#000000;stroke-linejoin:miter;"/>
    </g>
    <g id="text_15">
     <!-- 17.7 -->
     <defs>
      <path d="M 8.203125 72.90625 
L 55.078125 72.90625 
L 55.078125 68.703125 
L 28.609375 0 
L 18.3125 0 
L 43.21875 64.59375 
L 8.203125 64.59375 
z
" id="DejaVuSans-55"/>
     </defs>
     <g transform="translate(583.323214 436.8823)scale(0.08 -0.08)">
      <use xlink:href="#DejaVuSans-49"/>
      <use x="63.623047" xlink:href="#DejaVuSans-55"/>
      <use x="127.246094" xlink:href="#DejaVuSans-46"/>
      <use x="159.033203" xlink:href="#DejaVuSans-55"/>
     </g>
    </g>
    <g id="patch_18">
     <path d="M 48.6285 469.0224 
L 106.11 469.0224 
L 106.11 446.124 
L 48.6285 446.124 
z
" style="fill:#ffffff;stroke:#000000;stroke-linejoin:miter;"/>
    </g>
    <g id="text_16">
     <!-- Background -->
     <defs>
      <path d="M 19.671875 34.8125 
L 19.671875 8.109375 
L 35.5 8.109375 
Q 43.453125 8.109375 47.28125 11.40625 
Q 51.125 14.703125 51.125 21.484375 
Q 51.125 28.328125 47.28125 31.5625 
Q 43.453125 34.8125 35.5 34.8125 
z
M 19.671875 64.796875 
L 19.671875 42.828125 
L 34.28125 42.828125 
Q 41.5 42.828125 45.03125 45.53125 
Q 48.578125 48.25 48.578125 53.8125 
Q 48.578125 59.328125 45.03125 62.0625 
Q 41.5 64.796875 34.28125 64.796875 
z
M 9.8125 72.90625 
L 35.015625 72.90625 
Q 46.296875 72.90625 52.390625 68.21875 
Q 58.5 63.53125 58.5 54.890625 
Q 58.5 48.1875 55.375 44.234375 
Q 52.25 40.28125 46.1875 39.3125 
Q 53.46875 37.75 57.5 32.78125 
Q 61.53125 27.828125 61.53125 20.40625 
Q 61.53125 10.640625 54.890625 5.3125 
Q 48.25 0 35.984375 0 
L 9.8125 0 
z
" id="DejaVuSans-66"/>
      <path d="M 34.28125 27.484375 
Q 23.390625 27.484375 19.1875 25 
Q 14.984375 22.515625 14.984375 16.5 
Q 14.984375 11.71875 18.140625 8.90625 
Q 21.296875 6.109375 26.703125 6.109375 
Q 34.1875 6.109375 38.703125 11.40625 
Q 43.21875 16.703125 43.21875 25.484375 
L 43.21875 27.484375 
z
M 52.203125 31.203125 
L 52.203125 0 
L 43.21875 0 
L 43.21875 8.296875 
Q 40.140625 3.328125 35.546875 0.953125 
Q 30.953125 -1.421875 24.3125 -1.421875 
Q 15.921875 -1.421875 10.953125 3.296875 
Q 6 8.015625 6 15.921875 
Q 6 25.140625 12.171875 29.828125 
Q 18.359375 34.515625 30.609375 34.515625 
L 43.21875 34.515625 
L 43.21875 35.40625 
Q 43.21875 41.609375 39.140625 45 
Q 35.0625 48.390625 27.6875 48.390625 
Q 23 48.390625 18.546875 47.265625 
Q 14.109375 46.140625 10.015625 43.890625 
L 10.015625 52.203125 
Q 14.9375 54.109375 19.578125 55.046875 
Q 24.21875 56 28.609375 56 
Q 40.484375 56 46.34375 49.84375 
Q 52.203125 43.703125 52.203125 31.203125 
z
" id="DejaVuSans-97"/>
      <path d="M 48.78125 52.59375 
L 48.78125 44.1875 
Q 44.96875 46.296875 41.140625 47.34375 
Q 37.3125 48.390625 33.40625 48.390625 
Q 24.65625 48.390625 19.8125 42.84375 
Q 14.984375 37.3125 14.984375 27.296875 
Q 14.984375 17.28125 19.8125 11.734375 
Q 24.65625 6.203125 33.40625 6.203125 
Q 37.3125 6.203125 41.140625 7.25 
Q 44.96875 8.296875 48.78125 10.40625 
L 48.78125 2.09375 
Q 45.015625 0.34375 40.984375 -0.53125 
Q 36.96875 -1.421875 32.421875 -1.421875 
Q 20.0625 -1.421875 12.78125 6.34375 
Q 5.515625 14.109375 5.515625 27.296875 
Q 5.515625 40.671875 12.859375 48.328125 
Q 20.21875 56 33.015625 56 
Q 37.15625 56 41.109375 55.140625 
Q 45.0625 54.296875 48.78125 52.59375 
z
" id="DejaVuSans-99"/>
      <path d="M 9.078125 75.984375 
L 18.109375 75.984375 
L 18.109375 31.109375 
L 44.921875 54.6875 
L 56.390625 54.6875 
L 27.390625 29.109375 
L 57.625 0 
L 45.90625 0 
L 18.109375 26.703125 
L 18.109375 0 
L 9.078125 0 
z
" id="DejaVuSans-107"/>
      <path d="M 45.40625 27.984375 
Q 45.40625 37.75 41.375 43.109375 
Q 37.359375 48.484375 30.078125 48.484375 
Q 22.859375 48.484375 18.828125 43.109375 
Q 14.796875 37.75 14.796875 27.984375 
Q 14.796875 18.265625 18.828125 12.890625 
Q 22.859375 7.515625 30.078125 7.515625 
Q 37.359375 7.515625 41.375 12.890625 
Q 45.40625 18.265625 45.40625 27.984375 
z
M 54.390625 6.78125 
Q 54.390625 -7.171875 48.1875 -13.984375 
Q 42 -20.796875 29.203125 -20.796875 
Q 24.46875 -20.796875 20.265625 -20.09375 
Q 16.0625 -19.390625 12.109375 -17.921875 
L 12.109375 -9.1875 
Q 16.0625 -11.328125 19.921875 -12.34375 
Q 23.78125 -13.375 27.78125 -13.375 
Q 36.625 -13.375 41.015625 -8.765625 
Q 45.40625 -4.15625 45.40625 5.171875 
L 45.40625 9.625 
Q 42.625 4.78125 38.28125 2.390625 
Q 33.9375 0 27.875 0 
Q 17.828125 0 11.671875 7.65625 
Q 5.515625 15.328125 5.515625 27.984375 
Q 5.515625 40.671875 11.671875 48.328125 
Q 17.828125 56 27.875 56 
Q 33.9375 56 38.28125 53.609375 
Q 42.625 51.21875 45.40625 46.390625 
L 45.40625 54.6875 
L 54.390625 54.6875 
z
" id="DejaVuSans-103"/>
      <path d="M 41.109375 46.296875 
Q 39.59375 47.171875 37.8125 47.578125 
Q 36.03125 48 33.890625 48 
Q 26.265625 48 22.1875 43.046875 
Q 18.109375 38.09375 18.109375 28.8125 
L 18.109375 0 
L 9.078125 0 
L 9.078125 54.6875 
L 18.109375 54.6875 
L 18.109375 46.1875 
Q 20.953125 51.171875 25.484375 53.578125 
Q 30.03125 56 36.53125 56 
Q 37.453125 56 38.578125 55.875 
Q 39.703125 55.765625 41.0625 55.515625 
z
" id="DejaVuSans-114"/>
      <path d="M 30.609375 48.390625 
Q 23.390625 48.390625 19.1875 42.75 
Q 14.984375 37.109375 14.984375 27.296875 
Q 14.984375 17.484375 19.15625 11.84375 
Q 23.34375 6.203125 30.609375 6.203125 
Q 37.796875 6.203125 41.984375 11.859375 
Q 46.1875 17.53125 46.1875 27.296875 
Q 46.1875 37.015625 41.984375 42.703125 
Q 37.796875 48.390625 30.609375 48.390625 
z
M 30.609375 56 
Q 42.328125 56 49.015625 48.375 
Q 55.71875 40.765625 55.71875 27.296875 
Q 55.71875 13.875 49.015625 6.21875 
Q 42.328125 -1.421875 30.609375 -1.421875 
Q 18.84375 -1.421875 12.171875 6.21875 
Q 5.515625 13.875 5.515625 27.296875 
Q 5.515625 40.765625 12.171875 48.375 
Q 18.84375 56 30.609375 56 
z
" id="DejaVuSans-111"/>
      <path d="M 54.890625 33.015625 
L 54.890625 0 
L 45.90625 0 
L 45.90625 32.71875 
Q 45.90625 40.484375 42.875 44.328125 
Q 39.84375 48.1875 33.796875 48.1875 
Q 26.515625 48.1875 22.3125 43.546875 
Q 18.109375 38.921875 18.109375 30.90625 
L 18.109375 0 
L 9.078125 0 
L 9.078125 54.6875 
L 18.109375 54.6875 
L 18.109375 46.1875 
Q 21.34375 51.125 25.703125 53.5625 
Q 30.078125 56 35.796875 56 
Q 45.21875 56 50.046875 50.171875 
Q 54.890625 44.34375 54.890625 33.015625 
z
" id="DejaVuSans-110"/>
      <path d="M 45.40625 46.390625 
L 45.40625 75.984375 
L 54.390625 75.984375 
L 54.390625 0 
L 45.40625 0 
L 45.40625 8.203125 
Q 42.578125 3.328125 38.25 0.953125 
Q 33.9375 -1.421875 27.875 -1.421875 
Q 17.96875 -1.421875 11.734375 6.484375 
Q 5.515625 14.40625 5.515625 27.296875 
Q 5.515625 40.1875 11.734375 48.09375 
Q 17.96875 56 27.875 56 
Q 33.9375 56 38.25 53.625 
Q 42.578125 51.265625 45.40625 46.390625 
z
M 14.796875 27.296875 
Q 14.796875 17.390625 18.875 11.75 
Q 22.953125 6.109375 30.078125 6.109375 
Q 37.203125 6.109375 41.296875 11.75 
Q 45.40625 17.390625 45.40625 27.296875 
Q 45.40625 37.203125 41.296875 42.84375 
Q 37.203125 48.484375 30.078125 48.484375 
Q 22.953125 48.484375 18.875 42.84375 
Q 14.796875 37.203125 14.796875 27.296875 
z
" id="DejaVuSans-100"/>
     </defs>
     <g transform="translate(54.37665 459.7807)scale(0.08 -0.08)">
      <use xlink:href="#DejaVuSans-66"/>
      <use x="68.603516" xlink:href="#DejaVuSans-97"/>
      <use x="129.882812" xlink:href="#DejaVuSans-99"/>
      <use x="184.863281" xlink:href="#DejaVuSans-107"/>
      <use x="242.773438" xlink:href="#DejaVuSans-103"/>
      <use x="306.25" xlink:href="#DejaVuSans-114"/>
      <use x="347.332031" xlink:href="#DejaVuSans-111"/>
      <use x="408.513672" xlink:href="#DejaVuSans-117"/>
      <use x="471.892578" xlink:href="#DejaVuSans-110"/>
      <use x="535.271484" xlink:href="#DejaVuSans-100"/>
     </g>
    </g>
    <g id="patch_19">
     <path d="M 106.11 469.0224 
L 177.852857 469.0224 
L 177.852857 446.124 
L 106.11 446.124 
z
" style="fill:#ffffff;stroke:#000000;stroke-linejoin:miter;"/>
    </g>
    <g id="text_17">
     <!-- 271.5 +/- 23.5 -->
     <defs>
      <path d="M 46 62.703125 
L 46 35.5 
L 73.1875 35.5 
L 73.1875 27.203125 
L 46 27.203125 
L 46 0 
L 37.796875 0 
L 37.796875 27.203125 
L 10.59375 27.203125 
L 10.59375 35.5 
L 37.796875 35.5 
L 37.796875 62.703125 
z
" id="DejaVuSans-43"/>
      <path d="M 4.890625 31.390625 
L 31.203125 31.390625 
L 31.203125 23.390625 
L 4.890625 23.390625 
z
" id="DejaVuSans-45"/>
     </defs>
     <g transform="translate(112.593571 459.7807)scale(0.08 -0.08)">
      <use xlink:href="#DejaVuSans-50"/>
      <use x="63.623047" xlink:href="#DejaVuSans-55"/>
      <use x="127.246094" xlink:href="#DejaVuSans-49"/>
      <use x="190.869141" xlink:href="#DejaVuSans-46"/>
      <use x="222.65625" xlink:href="#DejaVuSans-53"/>
      <use x="286.279297" xlink:href="#DejaVuSans-32"/>
      <use x="318.066406" xlink:href="#DejaVuSans-43"/>
      <use x="401.855469" xlink:href="#DejaVuSans-47"/>
      <use x="435.546875" xlink:href="#DejaVuSans-45"/>
      <use x="471.630859" xlink:href="#DejaVuSans-32"/>
      <use x="503.417969" xlink:href="#DejaVuSans-50"/>
      <use x="567.041016" xlink:href="#DejaVuSans-51"/>
      <use x="630.664062" xlink:href="#DejaVuSans-46"/>
      <use x="662.451172" xlink:href="#DejaVuSans-53"/>
     </g>
    </g>
    <g id="patch_20">
     <path d="M 177.852857 469.0224 
L 249.595714 469.0224 
L 249.595714 446.124 
L 177.852857 446.124 
z
" style="fill:#ffffff;stroke:#000000;stroke-linejoin:miter;"/>
    </g>
    <g id="text_18">
     <!-- 214.7 +/- 17.9 -->
     <g transform="translate(184.336429 459.7807)scale(0.08 -0.08)">
      <use xlink:href="#DejaVuSans-50"/>
      <use x="63.623047" xlink:href="#DejaVuSans-49"/>
      <use x="127.246094" xlink:href="#DejaVuSans-52"/>
      <use x="190.869141" xlink:href="#DejaVuSans-46"/>
      <use x="222.65625" xlink:href="#DejaVuSans-55"/>
      <use x="286.279297" xlink:href="#DejaVuSans-32"/>
      <use x="318.066406" xlink:href="#DejaVuSans-43"/>
      <use x="401.855469" xlink:href="#DejaVuSans-47"/>
      <use x="435.546875" xlink:href="#DejaVuSans-45"/>
      <use x="471.630859" xlink:href="#DejaVuSans-32"/>
      <use x="503.417969" xlink:href="#DejaVuSans-49"/>
      <use x="567.041016" xlink:href="#DejaVuSans-55"/>
      <use x="630.664062" xlink:href="#DejaVuSans-46"/>
      <use x="662.451172" xlink:href="#DejaVuSans-57"/>
     </g>
    </g>
    <g id="patch_21">
     <path d="M 249.595714 469.0224 
L 321.338571 469.0224 
L 321.338571 446.124 
L 249.595714 446.124 
z
" style="fill:#ffffff;stroke:#000000;stroke-linejoin:miter;"/>
    </g>
    <g id="text_19">
     <!-- 239.3 +/- 27.4 -->
     <g transform="translate(256.079286 459.7807)scale(0.08 -0.08)">
      <use xlink:href="#DejaVuSans-50"/>
      <use x="63.623047" xlink:href="#DejaVuSans-51"/>
      <use x="127.246094" xlink:href="#DejaVuSans-57"/>
      <use x="190.869141" xlink:href="#DejaVuSans-46"/>
      <use x="222.65625" xlink:href="#DejaVuSans-51"/>
      <use x="286.279297" xlink:href="#DejaVuSans-32"/>
      <use x="318.066406" xlink:href="#DejaVuSans-43"/>
      <use x="401.855469" xlink:href="#DejaVuSans-47"/>
      <use x="435.546875" xlink:href="#DejaVuSans-45"/>
      <use x="471.630859" xlink:href="#DejaVuSans-32"/>
      <use x="503.417969" xlink:href="#DejaVuSans-50"/>
      <use x="567.041016" xlink:href="#DejaVuSans-55"/>
      <use x="630.664062" xlink:href="#DejaVuSans-46"/>
      <use x="662.451172" xlink:href="#DejaVuSans-52"/>
     </g>
    </g>
    <g id="patch_22">
     <path d="M 321.338571 469.0224 
L 393.081429 469.0224 
L 393.081429 446.124 
L 321.338571 446.124 
z
" style="fill:#ffffff;stroke:#000000;stroke-linejoin:miter;"/>
    </g>
    <g id="text_20">
     <!-- 252.8 +/- 1.3 -->
     <g transform="translate(332.912143 459.7807)scale(0.08 -0.08)">
      <use xlink:href="#DejaVuSans-50"/>
      <use x="63.623047" xlink:href="#DejaVuSans-53"/>
      <use x="127.246094" xlink:href="#DejaVuSans-50"/>
      <use x="190.869141" xlink:href="#DejaVuSans-46"/>
      <use x="222.65625" xlink:href="#DejaVuSans-56"/>
      <use x="286.279297" xlink:href="#DejaVuSans-32"/>
      <use x="318.066406" xlink:href="#DejaVuSans-43"/>
      <use x="401.855469" xlink:href="#DejaVuSans-47"/>
      <use x="435.546875" xlink:href="#DejaVuSans-45"/>
      <use x="471.630859" xlink:href="#DejaVuSans-32"/>
      <use x="503.417969" xlink:href="#DejaVuSans-49"/>
      <use x="567.041016" xlink:href="#DejaVuSans-46"/>
      <use x="598.828125" xlink:href="#DejaVuSans-51"/>
     </g>
    </g>
    <g id="patch_23">
     <path d="M 393.081429 469.0224 
L 464.824286 469.0224 
L 464.824286 446.124 
L 393.081429 446.124 
z
" style="fill:#ffffff;stroke:#000000;stroke-linejoin:miter;"/>
    </g>
    <g id="text_21">
     <!-- 195.3 +/- 29.5 -->
     <g transform="translate(399.565 459.7807)scale(0.08 -0.08)">
      <use xlink:href="#DejaVuSans-49"/>
      <use x="63.623047" xlink:href="#DejaVuSans-57"/>
      <use x="127.246094" xlink:href="#DejaVuSans-53"/>
      <use x="190.869141" xlink:href="#DejaVuSans-46"/>
      <use x="222.65625" xlink:href="#DejaVuSans-51"/>
      <use x="286.279297" xlink:href="#DejaVuSans-32"/>
      <use x="318.066406" xlink:href="#DejaVuSans-43"/>
      <use x="401.855469" xlink:href="#DejaVuSans-47"/>
      <use x="435.546875" xlink:href="#DejaVuSans-45"/>
      <use x="471.630859" xlink:href="#DejaVuSans-32"/>
      <use x="503.417969" xlink:href="#DejaVuSans-50"/>
      <use x="567.041016" xlink:href="#DejaVuSans-57"/>
      <use x="630.664062" xlink:href="#DejaVuSans-46"/>
      <use x="662.451172" xlink:href="#DejaVuSans-53"/>
     </g>
    </g>
    <g id="patch_24">
     <path d="M 464.824286 469.0224 
L 536.567143 469.0224 
L 536.567143 446.124 
L 464.824286 446.124 
z
" style="fill:#ffffff;stroke:#000000;stroke-linejoin:miter;"/>
    </g>
    <g id="text_22">
     <!-- 189.3 +/- 6.5 -->
     <g transform="translate(476.397857 459.7807)scale(0.08 -0.08)">
      <use xlink:href="#DejaVuSans-49"/>
      <use x="63.623047" xlink:href="#DejaVuSans-56"/>
      <use x="127.246094" xlink:href="#DejaVuSans-57"/>
      <use x="190.869141" xlink:href="#DejaVuSans-46"/>
      <use x="222.65625" xlink:href="#DejaVuSans-51"/>
      <use x="286.279297" xlink:href="#DejaVuSans-32"/>
      <use x="318.066406" xlink:href="#DejaVuSans-43"/>
      <use x="401.855469" xlink:href="#DejaVuSans-47"/>
      <use x="435.546875" xlink:href="#DejaVuSans-45"/>
      <use x="471.630859" xlink:href="#DejaVuSans-32"/>
      <use x="503.417969" xlink:href="#DejaVuSans-54"/>
      <use x="567.041016" xlink:href="#DejaVuSans-46"/>
      <use x="598.828125" xlink:href="#DejaVuSans-53"/>
     </g>
    </g>
    <g id="patch_25">
     <path d="M 536.567143 469.0224 
L 608.31 469.0224 
L 608.31 446.124 
L 536.567143 446.124 
z
" style="fill:#ffffff;stroke:#000000;stroke-linejoin:miter;"/>
    </g>
    <g id="text_23">
     <!-- 169.9 +/- 15.5 -->
     <g transform="translate(543.050714 459.7807)scale(0.08 -0.08)">
      <use xlink:href="#DejaVuSans-49"/>
      <use x="63.623047" xlink:href="#DejaVuSans-54"/>
      <use x="127.246094" xlink:href="#DejaVuSans-57"/>
      <use x="190.869141" xlink:href="#DejaVuSans-46"/>
      <use x="222.65625" xlink:href="#DejaVuSans-57"/>
      <use x="286.279297" xlink:href="#DejaVuSans-32"/>
      <use x="318.066406" xlink:href="#DejaVuSans-43"/>
      <use x="401.855469" xlink:href="#DejaVuSans-47"/>
      <use x="435.546875" xlink:href="#DejaVuSans-45"/>
      <use x="471.630859" xlink:href="#DejaVuSans-32"/>
      <use x="503.417969" xlink:href="#DejaVuSans-49"/>
      <use x="567.041016" xlink:href="#DejaVuSans-53"/>
      <use x="630.664062" xlink:href="#DejaVuSans-46"/>
      <use x="662.451172" xlink:href="#DejaVuSans-53"/>
     </g>
    </g>
   </g>
   <g id="matplotlib.axis_1">
    <g id="xtick_1">
     <g id="line2d_1">
      <defs>
       <path d="M 0 0 
L 0 2 
" id="m4c9a27a6ee" style="stroke:#000000;"/>
      </defs>
      <g>
       <use style="stroke:#000000;" x="112.992889" xlink:href="#m4c9a27a6ee" y="331.632"/>
      </g>
     </g>
     <g id="text_24">
      <!-- 0.1 -->
      <g transform="translate(98.680077 350.809188)scale(0.18 -0.18)">
       <use xlink:href="#DejaVuSans-48"/>
       <use x="63.623047" xlink:href="#DejaVuSans-46"/>
       <use x="95.410156" xlink:href="#DejaVuSans-49"/>
      </g>
     </g>
    </g>
    <g id="xtick_2">
     <g id="line2d_2">
      <g>
       <use style="stroke:#000000;" x="269.728593" xlink:href="#m4c9a27a6ee" y="331.632"/>
      </g>
     </g>
     <g id="text_25">
      <!-- 1.0 -->
      <g transform="translate(255.41578 350.809188)scale(0.18 -0.18)">
       <use xlink:href="#DejaVuSans-49"/>
       <use x="63.623047" xlink:href="#DejaVuSans-46"/>
       <use x="95.410156" xlink:href="#DejaVuSans-48"/>
      </g>
     </g>
    </g>
    <g id="xtick_3">
     <g id="line2d_3">
      <g>
       <use style="stroke:#000000;" x="426.464296" xlink:href="#m4c9a27a6ee" y="331.632"/>
      </g>
     </g>
     <g id="text_26">
      <!-- 10.0 -->
      <g transform="translate(406.425234 350.809188)scale(0.18 -0.18)">
       <use xlink:href="#DejaVuSans-49"/>
       <use x="63.623047" xlink:href="#DejaVuSans-48"/>
       <use x="127.246094" xlink:href="#DejaVuSans-46"/>
       <use x="159.033203" xlink:href="#DejaVuSans-48"/>
      </g>
     </g>
    </g>
    <g id="xtick_4">
     <g id="line2d_4">
      <g>
       <use style="stroke:#000000;" x="583.2" xlink:href="#m4c9a27a6ee" y="331.632"/>
      </g>
     </g>
     <g id="text_27">
      <!-- 100.0 -->
      <g transform="translate(557.434687 350.809188)scale(0.18 -0.18)">
       <use xlink:href="#DejaVuSans-49"/>
       <use x="63.623047" xlink:href="#DejaVuSans-48"/>
       <use x="127.246094" xlink:href="#DejaVuSans-48"/>
       <use x="190.869141" xlink:href="#DejaVuSans-46"/>
       <use x="222.65625" xlink:href="#DejaVuSans-48"/>
      </g>
     </g>
    </g>
    <g id="xtick_5">
     <g id="line2d_5">
      <defs>
       <path d="M 0 0 
L 0 2 
" id="m374c30c3b7" style="stroke:#000000;stroke-width:0.6;"/>
      </defs>
      <g>
       <use style="stroke:#000000;stroke-width:0.6;" x="88.714221" xlink:href="#m374c30c3b7" y="331.632"/>
      </g>
     </g>
    </g>
    <g id="xtick_6">
     <g id="line2d_6">
      <g>
       <use style="stroke:#000000;stroke-width:0.6;" x="97.80363" xlink:href="#m374c30c3b7" y="331.632"/>
      </g>
     </g>
    </g>
    <g id="xtick_7">
     <g id="line2d_7">
      <g>
       <use style="stroke:#000000;stroke-width:0.6;" x="105.821057" xlink:href="#m374c30c3b7" y="331.632"/>
      </g>
     </g>
    </g>
    <g id="xtick_8">
     <g id="line2d_8">
      <g>
       <use style="stroke:#000000;stroke-width:0.6;" x="160.175037" xlink:href="#m374c30c3b7" y="331.632"/>
      </g>
     </g>
    </g>
    <g id="xtick_9">
     <g id="line2d_9">
      <g>
       <use style="stroke:#000000;stroke-width:0.6;" x="187.774825" xlink:href="#m374c30c3b7" y="331.632"/>
      </g>
     </g>
    </g>
    <g id="xtick_10">
     <g id="line2d_10">
      <g>
       <use style="stroke:#000000;stroke-width:0.6;" x="207.357185" xlink:href="#m374c30c3b7" y="331.632"/>
      </g>
     </g>
    </g>
    <g id="xtick_11">
     <g id="line2d_11">
      <g>
       <use style="stroke:#000000;stroke-width:0.6;" x="222.546445" xlink:href="#m374c30c3b7" y="331.632"/>
      </g>
     </g>
    </g>
    <g id="xtick_12">
     <g id="line2d_12">
      <g>
       <use style="stroke:#000000;stroke-width:0.6;" x="234.956973" xlink:href="#m374c30c3b7" y="331.632"/>
      </g>
     </g>
    </g>
    <g id="xtick_13">
     <g id="line2d_13">
      <g>
       <use style="stroke:#000000;stroke-width:0.6;" x="245.449925" xlink:href="#m374c30c3b7" y="331.632"/>
      </g>
     </g>
    </g>
    <g id="xtick_14">
     <g id="line2d_14">
      <g>
       <use style="stroke:#000000;stroke-width:0.6;" x="254.539334" xlink:href="#m374c30c3b7" y="331.632"/>
      </g>
     </g>
    </g>
    <g id="xtick_15">
     <g id="line2d_15">
      <g>
       <use style="stroke:#000000;stroke-width:0.6;" x="262.55676" xlink:href="#m374c30c3b7" y="331.632"/>
      </g>
     </g>
    </g>
    <g id="xtick_16">
     <g id="line2d_16">
      <g>
       <use style="stroke:#000000;stroke-width:0.6;" x="316.910741" xlink:href="#m374c30c3b7" y="331.632"/>
      </g>
     </g>
    </g>
    <g id="xtick_17">
     <g id="line2d_17">
      <g>
       <use style="stroke:#000000;stroke-width:0.6;" x="344.510528" xlink:href="#m374c30c3b7" y="331.632"/>
      </g>
     </g>
    </g>
    <g id="xtick_18">
     <g id="line2d_18">
      <g>
       <use style="stroke:#000000;stroke-width:0.6;" x="364.092889" xlink:href="#m374c30c3b7" y="331.632"/>
      </g>
     </g>
    </g>
    <g id="xtick_19">
     <g id="line2d_19">
      <g>
       <use style="stroke:#000000;stroke-width:0.6;" x="379.282148" xlink:href="#m374c30c3b7" y="331.632"/>
      </g>
     </g>
    </g>
    <g id="xtick_20">
     <g id="line2d_20">
      <g>
       <use style="stroke:#000000;stroke-width:0.6;" x="391.692676" xlink:href="#m374c30c3b7" y="331.632"/>
      </g>
     </g>
    </g>
    <g id="xtick_21">
     <g id="line2d_21">
      <g>
       <use style="stroke:#000000;stroke-width:0.6;" x="402.185629" xlink:href="#m374c30c3b7" y="331.632"/>
      </g>
     </g>
    </g>
    <g id="xtick_22">
     <g id="line2d_22">
      <g>
       <use style="stroke:#000000;stroke-width:0.6;" x="411.275037" xlink:href="#m374c30c3b7" y="331.632"/>
      </g>
     </g>
    </g>
    <g id="xtick_23">
     <g id="line2d_23">
      <g>
       <use style="stroke:#000000;stroke-width:0.6;" x="419.292464" xlink:href="#m374c30c3b7" y="331.632"/>
      </g>
     </g>
    </g>
    <g id="xtick_24">
     <g id="line2d_24">
      <g>
       <use style="stroke:#000000;stroke-width:0.6;" x="473.646445" xlink:href="#m374c30c3b7" y="331.632"/>
      </g>
     </g>
    </g>
    <g id="xtick_25">
     <g id="line2d_25">
      <g>
       <use style="stroke:#000000;stroke-width:0.6;" x="501.246232" xlink:href="#m374c30c3b7" y="331.632"/>
      </g>
     </g>
    </g>
    <g id="xtick_26">
     <g id="line2d_26">
      <g>
       <use style="stroke:#000000;stroke-width:0.6;" x="520.828593" xlink:href="#m374c30c3b7" y="331.632"/>
      </g>
     </g>
    </g>
    <g id="xtick_27">
     <g id="line2d_27">
      <g>
       <use style="stroke:#000000;stroke-width:0.6;" x="536.017852" xlink:href="#m374c30c3b7" y="331.632"/>
      </g>
     </g>
    </g>
    <g id="xtick_28">
     <g id="line2d_28">
      <g>
       <use style="stroke:#000000;stroke-width:0.6;" x="548.42838" xlink:href="#m374c30c3b7" y="331.632"/>
      </g>
     </g>
    </g>
    <g id="xtick_29">
     <g id="line2d_29">
      <g>
       <use style="stroke:#000000;stroke-width:0.6;" x="558.921332" xlink:href="#m374c30c3b7" y="331.632"/>
      </g>
     </g>
    </g>
    <g id="xtick_30">
     <g id="line2d_30">
      <g>
       <use style="stroke:#000000;stroke-width:0.6;" x="568.010741" xlink:href="#m374c30c3b7" y="331.632"/>
      </g>
     </g>
    </g>
    <g id="xtick_31">
     <g id="line2d_31">
      <g>
       <use style="stroke:#000000;stroke-width:0.6;" x="576.028168" xlink:href="#m374c30c3b7" y="331.632"/>
      </g>
     </g>
    </g>
    <g id="text_28">
     <!-- Noscapine (uM) -->
     <defs>
      <path d="M 44.28125 53.078125 
L 44.28125 44.578125 
Q 40.484375 46.53125 36.375 47.5 
Q 32.28125 48.484375 27.875 48.484375 
Q 21.1875 48.484375 17.84375 46.4375 
Q 14.5 44.390625 14.5 40.28125 
Q 14.5 37.15625 16.890625 35.375 
Q 19.28125 33.59375 26.515625 31.984375 
L 29.59375 31.296875 
Q 39.15625 29.25 43.1875 25.515625 
Q 47.21875 21.78125 47.21875 15.09375 
Q 47.21875 7.46875 41.1875 3.015625 
Q 35.15625 -1.421875 24.609375 -1.421875 
Q 20.21875 -1.421875 15.453125 -0.5625 
Q 10.6875 0.296875 5.421875 2 
L 5.421875 11.28125 
Q 10.40625 8.6875 15.234375 7.390625 
Q 20.0625 6.109375 24.8125 6.109375 
Q 31.15625 6.109375 34.5625 8.28125 
Q 37.984375 10.453125 37.984375 14.40625 
Q 37.984375 18.0625 35.515625 20.015625 
Q 33.0625 21.96875 24.703125 23.78125 
L 21.578125 24.515625 
Q 13.234375 26.265625 9.515625 29.90625 
Q 5.8125 33.546875 5.8125 39.890625 
Q 5.8125 47.609375 11.28125 51.796875 
Q 16.75 56 26.8125 56 
Q 31.78125 56 36.171875 55.265625 
Q 40.578125 54.546875 44.28125 53.078125 
z
" id="DejaVuSans-115"/>
      <path d="M 18.109375 8.203125 
L 18.109375 -20.796875 
L 9.078125 -20.796875 
L 9.078125 54.6875 
L 18.109375 54.6875 
L 18.109375 46.390625 
Q 20.953125 51.265625 25.265625 53.625 
Q 29.59375 56 35.59375 56 
Q 45.5625 56 51.78125 48.09375 
Q 58.015625 40.1875 58.015625 27.296875 
Q 58.015625 14.40625 51.78125 6.484375 
Q 45.5625 -1.421875 35.59375 -1.421875 
Q 29.59375 -1.421875 25.265625 0.953125 
Q 20.953125 3.328125 18.109375 8.203125 
z
M 48.6875 27.296875 
Q 48.6875 37.203125 44.609375 42.84375 
Q 40.53125 48.484375 33.40625 48.484375 
Q 26.265625 48.484375 22.1875 42.84375 
Q 18.109375 37.203125 18.109375 27.296875 
Q 18.109375 17.390625 22.1875 11.75 
Q 26.265625 6.109375 33.40625 6.109375 
Q 40.53125 6.109375 44.609375 11.75 
Q 48.6875 17.390625 48.6875 27.296875 
z
" id="DejaVuSans-112"/>
      <path d="M 9.421875 54.6875 
L 18.40625 54.6875 
L 18.40625 0 
L 9.421875 0 
z
M 9.421875 75.984375 
L 18.40625 75.984375 
L 18.40625 64.59375 
L 9.421875 64.59375 
z
" id="DejaVuSans-105"/>
      <path d="M 56.203125 29.59375 
L 56.203125 25.203125 
L 14.890625 25.203125 
Q 15.484375 15.921875 20.484375 11.0625 
Q 25.484375 6.203125 34.421875 6.203125 
Q 39.59375 6.203125 44.453125 7.46875 
Q 49.3125 8.734375 54.109375 11.28125 
L 54.109375 2.78125 
Q 49.265625 0.734375 44.1875 -0.34375 
Q 39.109375 -1.421875 33.890625 -1.421875 
Q 20.796875 -1.421875 13.15625 6.1875 
Q 5.515625 13.8125 5.515625 26.8125 
Q 5.515625 40.234375 12.765625 48.109375 
Q 20.015625 56 32.328125 56 
Q 43.359375 56 49.78125 48.890625 
Q 56.203125 41.796875 56.203125 29.59375 
z
M 47.21875 32.234375 
Q 47.125 39.59375 43.09375 43.984375 
Q 39.0625 48.390625 32.421875 48.390625 
Q 24.90625 48.390625 20.390625 44.140625 
Q 15.875 39.890625 15.1875 32.171875 
z
" id="DejaVuSans-101"/>
     </defs>
     <g transform="translate(254.1 373.7495)scale(0.2 -0.2)">
      <use xlink:href="#DejaVuSans-78"/>
      <use x="74.804688" xlink:href="#DejaVuSans-111"/>
      <use x="135.986328" xlink:href="#DejaVuSans-115"/>
      <use x="188.085938" xlink:href="#DejaVuSans-99"/>
      <use x="243.066406" xlink:href="#DejaVuSans-97"/>
      <use x="304.345703" xlink:href="#DejaVuSans-112"/>
      <use x="367.822266" xlink:href="#DejaVuSans-105"/>
      <use x="395.605469" xlink:href="#DejaVuSans-110"/>
      <use x="458.984375" xlink:href="#DejaVuSans-101"/>
      <use x="520.507812" xlink:href="#DejaVuSans-32"/>
      <use x="552.294922" xlink:href="#DejaVuSans-40"/>
      <use x="591.308594" xlink:href="#DejaVuSans-117"/>
      <use x="654.6875" xlink:href="#DejaVuSans-77"/>
      <use x="740.966797" xlink:href="#DejaVuSans-41"/>
     </g>
    </g>
   </g>
   <g id="matplotlib.axis_2">
    <g id="ytick_1">
     <g id="line2d_32">
      <defs>
       <path d="M 0 0 
L -2 0 
" id="m1960ed5d89" style="stroke:#000000;"/>
      </defs>
      <g>
       <use style="stroke:#000000;" x="81" xlink:href="#m1960ed5d89" y="319.141964"/>
      </g>
     </g>
     <g id="text_29">
      <!-- 0 -->
      <g transform="translate(64.0475 325.980557)scale(0.18 -0.18)">
       <use xlink:href="#DejaVuSans-48"/>
      </g>
     </g>
    </g>
    <g id="ytick_2">
     <g id="line2d_33">
      <g>
       <use style="stroke:#000000;" x="81" xlink:href="#m1960ed5d89" y="254.729667"/>
      </g>
     </g>
     <g id="text_30">
      <!-- 2 -->
      <g transform="translate(64.0475 261.568261)scale(0.18 -0.18)">
       <use xlink:href="#DejaVuSans-50"/>
      </g>
     </g>
    </g>
    <g id="ytick_3">
     <g id="line2d_34">
      <g>
       <use style="stroke:#000000;" x="81" xlink:href="#m1960ed5d89" y="190.317371"/>
      </g>
     </g>
     <g id="text_31">
      <!-- 4 -->
      <g transform="translate(64.0475 197.155965)scale(0.18 -0.18)">
       <use xlink:href="#DejaVuSans-52"/>
      </g>
     </g>
    </g>
    <g id="ytick_4">
     <g id="line2d_35">
      <g>
       <use style="stroke:#000000;" x="81" xlink:href="#m1960ed5d89" y="125.905075"/>
      </g>
     </g>
     <g id="text_32">
      <!-- 6 -->
      <g transform="translate(64.0475 132.743669)scale(0.18 -0.18)">
       <use xlink:href="#DejaVuSans-54"/>
      </g>
     </g>
    </g>
    <g id="ytick_5">
     <g id="line2d_36">
      <g>
       <use style="stroke:#000000;" x="81" xlink:href="#m1960ed5d89" y="61.492779"/>
      </g>
     </g>
     <g id="text_33">
      <!-- 8 -->
      <g transform="translate(64.0475 68.331372)scale(0.18 -0.18)">
       <use xlink:href="#DejaVuSans-56"/>
      </g>
     </g>
    </g>
    <g id="text_34">
     <!-- $(RFU/OD) \times 10^4$ -->
     <defs>
      <path d="M 25.203125 64.796875 
L 20.21875 38.921875 
L 32.90625 38.921875 
Q 40.375 38.921875 44.984375 43.046875 
Q 49.609375 47.171875 49.609375 53.8125 
Q 49.609375 59.125 46.5 61.953125 
Q 43.40625 64.796875 37.59375 64.796875 
z
M 43.3125 35.015625 
Q 46.4375 34.28125 48.515625 31.390625 
Q 50.59375 28.515625 53.328125 19.921875 
L 59.515625 0 
L 49.125 0 
L 43.40625 18.703125 
Q 41.21875 25.921875 38.328125 28.359375 
Q 35.453125 30.8125 29.5 30.8125 
L 18.609375 30.8125 
L 12.59375 0 
L 2.6875 0 
L 16.890625 72.90625 
L 39.109375 72.90625 
Q 49.21875 72.90625 54.609375 68.328125 
Q 60.015625 63.765625 60.015625 55.171875 
Q 60.015625 47.5625 55.421875 41.984375 
Q 50.828125 36.421875 43.3125 35.015625 
z
" id="DejaVuSans-Oblique-82"/>
      <path d="M 16.890625 72.90625 
L 58.6875 72.90625 
L 57.078125 64.59375 
L 25.09375 64.59375 
L 20.90625 43.109375 
L 49.8125 43.109375 
L 48.1875 34.8125 
L 19.28125 34.8125 
L 12.5 0 
L 2.6875 0 
z
" id="DejaVuSans-Oblique-70"/>
      <path d="M 15.484375 72.90625 
L 25.390625 72.90625 
L 16.796875 28.609375 
Q 16.265625 25.640625 16.046875 23.703125 
Q 15.828125 21.78125 15.828125 20.3125 
Q 15.828125 13.578125 19.578125 10.078125 
Q 23.34375 6.59375 30.609375 6.59375 
Q 40.046875 6.59375 45.28125 11.765625 
Q 50.53125 16.9375 52.78125 28.609375 
L 61.375 72.90625 
L 71.296875 72.90625 
L 62.5 27.390625 
Q 59.625 12.640625 51.5625 5.609375 
Q 43.5 -1.421875 29.5 -1.421875 
Q 18.5625 -1.421875 12.1875 4.078125 
Q 5.8125 9.578125 5.8125 19 
Q 5.8125 20.703125 6.046875 22.828125 
Q 6.296875 24.953125 6.78125 27.390625 
z
" id="DejaVuSans-Oblique-85"/>
      <path d="M 45.609375 66.21875 
Q 37.5 66.21875 31.296875 62.28125 
Q 25.09375 58.34375 20.515625 50.296875 
Q 17.578125 45.171875 16.03125 39.40625 
Q 14.5 33.640625 14.5 27.78125 
Q 14.5 17.625 19.359375 12.109375 
Q 24.21875 6.59375 33.109375 6.59375 
Q 41.109375 6.59375 47.375 10.5625 
Q 53.65625 14.546875 58.109375 22.40625 
Q 61.078125 27.6875 62.640625 33.46875 
Q 64.203125 39.265625 64.203125 45.015625 
Q 64.203125 55.125 59.3125 60.671875 
Q 54.4375 66.21875 45.609375 66.21875 
z
M 32.8125 -1.421875 
Q 19.390625 -1.421875 11.6875 6.53125 
Q 4 14.5 4 28.328125 
Q 4 36.234375 7 44.484375 
Q 10.015625 52.734375 15.28125 59.1875 
Q 21.484375 66.75 29.09375 70.484375 
Q 36.71875 74.21875 45.90625 74.21875 
Q 59.28125 74.21875 66.984375 66.328125 
Q 74.703125 58.453125 74.703125 44.828125 
Q 74.703125 36.421875 71.765625 28.3125 
Q 68.84375 20.21875 63.375 13.625 
Q 57.125 6 49.578125 2.28125 
Q 42.046875 -1.421875 32.8125 -1.421875 
z
" id="DejaVuSans-Oblique-79"/>
      <path d="M 16.890625 72.90625 
L 38.09375 72.90625 
Q 54.984375 72.90625 63.59375 65.75 
Q 72.21875 58.59375 72.21875 44.484375 
Q 72.21875 35.15625 68.9375 26.53125 
Q 65.671875 17.921875 59.90625 12.015625 
Q 54.109375 5.953125 45.171875 2.96875 
Q 36.234375 0 24.03125 0 
L 2.6875 0 
z
M 25.203125 64.796875 
L 14.203125 8.109375 
L 27.09375 8.109375 
Q 43.65625 8.109375 52.734375 17.625 
Q 61.8125 27.15625 61.8125 44.484375 
Q 61.8125 54.984375 55.953125 59.890625 
Q 50.09375 64.796875 37.59375 64.796875 
z
" id="DejaVuSans-Oblique-68"/>
      <path d="M 70.125 53.71875 
L 47.796875 31.296875 
L 70.125 8.984375 
L 64.3125 3.078125 
L 41.890625 25.484375 
L 19.484375 3.078125 
L 13.71875 8.984375 
L 35.984375 31.296875 
L 13.71875 53.71875 
L 19.484375 59.625 
L 41.890625 37.203125 
L 64.3125 59.625 
z
" id="DejaVuSans-215"/>
     </defs>
     <g transform="translate(55.888125 270.8416)rotate(-90)scale(0.2 -0.2)">
      <use transform="translate(0 0.684375)" xlink:href="#DejaVuSans-40"/>
      <use transform="translate(39.013672 0.684375)" xlink:href="#DejaVuSans-Oblique-82"/>
      <use transform="translate(108.496094 0.684375)" xlink:href="#DejaVuSans-Oblique-70"/>
      <use transform="translate(166.015625 0.684375)" xlink:href="#DejaVuSans-Oblique-85"/>
      <use transform="translate(239.208984 0.684375)" xlink:href="#DejaVuSans-47"/>
      <use transform="translate(272.900391 0.684375)" xlink:href="#DejaVuSans-Oblique-79"/>
      <use transform="translate(351.611328 0.684375)" xlink:href="#DejaVuSans-Oblique-68"/>
      <use transform="translate(428.613281 0.684375)" xlink:href="#DejaVuSans-41"/>
      <use transform="translate(487.109375 0.684375)" xlink:href="#DejaVuSans-215"/>
      <use transform="translate(590.380859 0.684375)" xlink:href="#DejaVuSans-49"/>
      <use transform="translate(654.003906 0.684375)" xlink:href="#DejaVuSans-48"/>
      <use transform="translate(718.583984 38.965625)scale(0.7)" xlink:href="#DejaVuSans-52"/>
     </g>
    </g>
   </g>
   <g id="line2d_37">
    <path clip-path="url(#pe5f58e2853)" d="M 80.453935 319.126928 
L 262.254236 318.980024 
L 337.30155 318.709989 
L 386.319068 318.322046 
L 422.966305 317.818091 
L 452.306479 317.199138 
L 476.799483 316.465877 
L 497.837756 315.61865 
L 516.285344 314.657681 
L 532.717354 313.583041 
L 536.017852 313.337927 
L 536.017852 313.337927 
" style="fill:none;stroke:#0ad12e;stroke-linecap:square;stroke-width:1.5;"/>
   </g>
   <g id="line2d_38">
    <path clip-path="url(#pe5f58e2853)" d="M 80.453935 319.132795 
L 197.091435 318.99624 
L 240.353735 318.735733 
L 268.180218 318.357005 
L 288.884865 317.861426 
L 305.427115 317.250085 
L 319.253108 316.522311 
L 331.140975 315.678918 
L 341.60236 314.718085 
L 350.957654 313.63926 
L 359.436756 312.440944 
L 367.203672 311.121811 
L 374.394197 309.677605 
L 381.096331 308.107068 
L 387.396997 306.404098 
L 393.35203 304.565795 
L 399.011382 302.587625 
L 404.424568 300.461215 
L 409.626487 298.17989 
L 414.64949 295.735003 
L 419.523434 293.115825 
L 424.272234 290.311677 
L 428.921659 287.307757 
L 433.488938 284.091786 
L 437.996294 280.645411 
L 442.463517 276.948783 
L 446.908057 272.980994 
L 451.349819 268.715958 
L 455.807531 264.125401 
L 460.3045 259.17282 
L 464.862374 253.819617 
L 469.509485 248.015465 
L 474.280618 241.696952 
L 479.220617 234.781335 
L 484.389532 227.157278 
L 489.878005 218.658853 
L 495.834555 209.016958 
L 502.551475 197.708305 
L 510.811711 183.341947 
L 536.017852 139.038335 
L 536.017852 139.038335 
" style="fill:none;stroke:#0a95d1;stroke-linecap:square;stroke-width:1.5;"/>
   </g>
   <g id="line2d_39">
    <path clip-path="url(#pe5f58e2853)" d="M 80.453935 319.13552 
L 197.190301 319.004685 
L 237.354124 318.749037 
L 262.934558 318.374928 
L 281.884061 317.88409 
L 297.01066 317.276716 
L 309.626045 316.553491 
L 320.475213 315.714006 
L 330.027339 314.756185 
L 338.576015 313.679168 
L 346.324711 312.482306 
L 353.440182 311.1612 
L 360.035452 309.712878 
L 366.19643 308.134299 
L 371.997453 306.420054 
L 377.489609 304.5669 
L 382.733481 302.563965 
L 387.758556 300.407637 
L 392.606147 298.086371 
L 397.30917 295.58817 
L 401.893956 292.900901 
L 406.381601 290.01264 
L 410.797556 286.905753 
L 415.165751 283.559906 
L 419.508357 279.952431 
L 423.845597 276.058908 
L 428.202214 271.847337 
L 432.602158 267.282408 
L 437.076461 262.317151 
L 441.659681 256.895421 
L 446.396996 250.94272 
L 451.347458 244.360088 
L 456.605654 236.991933 
L 462.323787 228.588016 
L 468.811498 218.645068 
L 476.960141 205.724369 
L 499.814977 169.24788 
L 506.315222 159.439848 
L 512.037745 151.199694 
L 517.30462 143.998936 
L 522.272258 137.578581 
L 527.030957 131.787095 
L 531.642128 126.521538 
L 536.017852 121.844539 
L 536.017852 121.844539 
" style="fill:none;stroke:#710ad1;stroke-linecap:square;stroke-width:1.5;"/>
   </g>
   <g id="line2d_40">
    <path clip-path="url(#pe5f58e2853)" d="M 80.453935 319.140764 
L 226.577644 319.024314 
L 262.29221 318.781371 
L 284.481488 318.419368 
L 300.736563 317.940534 
L 313.616674 317.345943 
L 324.321081 316.635395 
L 333.515337 315.807156 
L 341.578676 314.861868 
L 348.787216 313.796513 
L 355.314627 312.610255 
L 361.29711 311.299915 
L 366.836895 309.861362 
L 372.012603 308.289553 
L 376.878865 306.581231 
L 381.492853 304.727392 
L 385.894191 302.720622 
L 390.121086 300.549762 
L 394.199264 298.205857 
L 398.160439 295.672723 
L 402.025671 292.936492 
L 405.812363 289.9829 
L 409.543621 286.789802 
L 413.24232 283.330291 
L 416.918947 279.585178 
L 420.596594 275.519335 
L 424.29332 271.097935 
L 428.026148 266.283405 
L 431.820174 261.023195 
L 435.7027 255.255466 
L 439.70429 248.907405 
L 443.872167 241.872314 
L 448.270539 234.004185 
L 452.999121 225.080063 
L 458.244816 214.691927 
L 464.438978 201.910669 
L 473.575615 182.48275 
L 484.930906 158.441235 
L 491.103054 145.906195 
L 496.3278 135.786575 
L 501.050362 127.114584 
L 505.454699 119.483962 
L 509.638448 112.673588 
L 513.664058 106.539561 
L 517.575594 100.979532 
L 521.406262 95.916593 
L 525.181415 91.291844 
L 528.923802 87.055716 
L 532.653017 83.167683 
L 536.017852 79.933166 
L 536.017852 79.933166 
" style="fill:none;stroke:#d10a7b;stroke-linecap:square;stroke-width:1.5;"/>
   </g>
   <g id="line2d_41">
    <path clip-path="url(#pe5f58e2853)" d="M 80.453935 319.134109 
L 196.694527 319.000237 
L 238.386734 318.742292 
L 265.118 318.365674 
L 284.972966 317.87195 
L 300.822836 317.262231 
L 314.061748 316.536079 
L 325.456229 315.69315 
L 335.473643 314.733475 
L 344.443106 313.654568 
L 352.579039 312.455254 
L 360.044483 311.132879 
L 366.959374 309.684699 
L 373.414446 308.107982 
L 379.493518 306.396011 
L 385.248743 304.545804 
L 390.733651 302.550275 
L 395.990669 300.402108 
L 401.058738 298.09158 
L 405.964319 295.611297 
L 410.741837 292.946749 
L 415.414414 290.085928 
L 420.004148 287.01478 
L 424.535342 283.714718 
L 429.029907 280.165446 
L 433.510423 276.342786 
L 437.999167 272.219308 
L 442.522684 267.759833 
L 447.104375 262.928304 
L 451.778226 257.673493 
L 456.583792 251.932417 
L 461.572032 245.622395 
L 466.818555 238.621726 
L 472.438435 230.74508 
L 478.636407 221.665648 
L 485.871627 210.656755 
L 495.975672 194.83638 
L 511.493397 170.558191 
L 518.826947 159.525426 
L 525.055187 150.548341 
L 530.697014 142.799576 
L 535.96678 135.93388 
L 536.017852 135.869203 
L 536.017852 135.869203 
" style="fill:none;stroke:#d10a0a;stroke-linecap:square;stroke-width:1.5;"/>
   </g>
   <g id="line2d_42">
    <path clip-path="url(#pe5f58e2853)" d="M 80.453935 319.138645 
L 220.683983 319.015549 
L 262.633032 318.766816 
L 289.013177 318.399282 
L 308.460804 317.914596 
L 323.938453 317.31336 
L 336.833282 316.595865 
L 347.929501 315.760717 
L 357.692591 314.807179 
L 366.435256 313.733611 
L 374.379568 312.537139 
L 381.677109 311.215936 
L 388.452172 309.765643 
L 394.79262 308.183056 
L 400.776384 306.462077 
L 406.463838 304.596357 
L 411.902466 302.579515 
L 417.141786 300.400231 
L 422.213313 298.050532 
L 427.155768 295.515803 
L 431.996121 292.783573 
L 436.767067 289.834848 
L 441.496132 286.649891 
L 446.211358 283.205163 
L 450.944833 279.470327 
L 455.732294 275.407643 
L 460.612268 270.972257 
L 465.636293 266.102253 
L 470.873712 260.711635 
L 476.426401 254.672246 
L 482.472039 247.760907 
L 489.369319 239.526969 
L 498.257503 228.545346 
L 518.888258 202.935211 
L 525.883364 194.688775 
L 531.970168 187.850041 
L 536.017852 183.507196 
L 536.017852 183.507196 
" style="fill:none;stroke:#ed4107;stroke-linecap:square;stroke-width:1.5;"/>
   </g>
   <g id="line2d_43">
    <path clip-path="url(#pe5f58e2853)" d="M 80.453935 319.134 
L 189.012144 318.999782 
L 228.10023 318.740983 
L 253.121402 318.364043 
L 271.708273 317.870487 
L 286.586062 317.25975 
L 299.009873 316.532859 
L 309.701762 315.689724 
L 319.121445 314.728372 
L 327.569485 313.646263 
L 335.240039 312.442692 
L 342.285652 311.114932 
L 348.819171 309.66006 
L 354.936058 308.07235 
L 360.700514 306.348377 
L 366.179928 304.478895 
L 371.411595 302.460156 
L 376.440253 300.282409 
L 381.301489 297.935617 
L 386.029947 295.406298 
L 390.653062 292.68095 
L 395.192521 289.746507 
L 399.680524 286.579703 
L 404.136967 283.161809 
L 408.585562 279.468385 
L 413.056072 275.466044 
L 417.577532 271.117413 
L 422.184324 266.375407 
L 426.919521 261.178585 
L 431.839047 255.444903 
L 437.021107 249.058456 
L 442.597914 241.825615 
L 448.809458 233.395302 
L 456.250623 222.903505 
L 468.710938 204.875226 
L 479.314629 189.702676 
L 486.306785 180.081643 
L 492.292213 172.215929 
L 497.738685 165.419297 
L 502.844663 159.398031 
L 507.720184 153.988067 
L 512.437394 149.082369 
L 517.046056 144.607361 
L 521.586572 140.506017 
L 526.090025 136.735772 
L 530.58578 133.260407 
L 535.098856 130.051523 
L 536.017852 129.4314 
L 536.017852 129.4314 
" style="fill:none;stroke:#dea300;stroke-linecap:square;stroke-width:1.5;"/>
   </g>
   <g id="line2d_44">
    <defs>
     <path d="M 0 3 
C 0.795609 3 1.55874 2.683901 2.12132 2.12132 
C 2.683901 1.55874 3 0.795609 3 0 
C 3 -0.795609 2.683901 -1.55874 2.12132 -2.12132 
C 1.55874 -2.683901 0.795609 -3 0 -3 
C -0.795609 -3 -1.55874 -2.683901 -2.12132 -2.12132 
C -2.683901 -1.55874 -3 -0.795609 -3 0 
C -3 0.795609 -2.683901 1.55874 -2.12132 2.12132 
C -1.55874 2.683901 -0.795609 3 0 3 
z
" id="mf71e5c44b8" style="stroke:#0ad12e;"/>
    </defs>
    <g clip-path="url(#pe5f58e2853)">
     <use style="fill:#0ad12e;stroke:#0ad12e;" x="-1" xlink:href="#mf71e5c44b8" y="318.218886"/>
     <use style="fill:#0ad12e;stroke:#0ad12e;" x="222.546445" xlink:href="#mf71e5c44b8" y="318.218706"/>
     <use style="fill:#0ad12e;stroke:#0ad12e;" x="269.728593" xlink:href="#mf71e5c44b8" y="318.086483"/>
     <use style="fill:#0ad12e;stroke:#0ad12e;" x="332.1" xlink:href="#mf71e5c44b8" y="318.476678"/>
     <use style="fill:#0ad12e;stroke:#0ad12e;" x="379.282148" xlink:href="#mf71e5c44b8" y="318.216889"/>
     <use style="fill:#0ad12e;stroke:#0ad12e;" x="426.464296" xlink:href="#mf71e5c44b8" y="317.935901"/>
     <use style="fill:#0ad12e;stroke:#0ad12e;" x="488.835704" xlink:href="#mf71e5c44b8" y="316.661298"/>
     <use style="fill:#0ad12e;stroke:#0ad12e;" x="536.017852" xlink:href="#mf71e5c44b8" y="312.885968"/>
    </g>
   </g>
   <g id="line2d_45">
    <g clip-path="url(#pe5f58e2853)">
     <use style="fill:#0ad12e;stroke:#0ad12e;" x="-1" xlink:href="#mf71e5c44b8" y="318.291322"/>
     <use style="fill:#0ad12e;stroke:#0ad12e;" x="222.546445" xlink:href="#mf71e5c44b8" y="318.291362"/>
     <use style="fill:#0ad12e;stroke:#0ad12e;" x="269.728593" xlink:href="#mf71e5c44b8" y="318.31832"/>
     <use style="fill:#0ad12e;stroke:#0ad12e;" x="332.1" xlink:href="#mf71e5c44b8" y="318.197716"/>
     <use style="fill:#0ad12e;stroke:#0ad12e;" x="379.282148" xlink:href="#mf71e5c44b8" y="318.179426"/>
     <use style="fill:#0ad12e;stroke:#0ad12e;" x="426.464296" xlink:href="#mf71e5c44b8" y="317.894437"/>
     <use style="fill:#0ad12e;stroke:#0ad12e;" x="488.835704" xlink:href="#mf71e5c44b8" y="316.689478"/>
     <use style="fill:#0ad12e;stroke:#0ad12e;" x="536.017852" xlink:href="#mf71e5c44b8" y="313.185817"/>
    </g>
   </g>
   <g id="line2d_46">
    <g clip-path="url(#pe5f58e2853)">
     <use style="fill:#0ad12e;stroke:#0ad12e;" x="269.728593" xlink:href="#mf71e5c44b8" y="318.178081"/>
     <use style="fill:#0ad12e;stroke:#0ad12e;" x="332.1" xlink:href="#mf71e5c44b8" y="318.116299"/>
    </g>
   </g>
   <g id="line2d_47">
    <defs>
     <path d="M 0 3 
C 0.795609 3 1.55874 2.683901 2.12132 2.12132 
C 2.683901 1.55874 3 0.795609 3 0 
C 3 -0.795609 2.683901 -1.55874 2.12132 -2.12132 
C 1.55874 -2.683901 0.795609 -3 0 -3 
C -0.795609 -3 -1.55874 -2.683901 -2.12132 -2.12132 
C -2.683901 -1.55874 -3 -0.795609 -3 0 
C -3 0.795609 -2.683901 1.55874 -2.12132 2.12132 
C -1.55874 2.683901 -0.795609 3 0 3 
z
" id="m8a9d577903" style="stroke:#0a95d1;"/>
    </defs>
    <g clip-path="url(#pe5f58e2853)">
     <use style="fill:#0a95d1;stroke:#0a95d1;" x="-1" xlink:href="#m8a9d577903" y="318.243886"/>
     <use style="fill:#0a95d1;stroke:#0a95d1;" x="222.546445" xlink:href="#m8a9d577903" y="318.243498"/>
     <use style="fill:#0a95d1;stroke:#0a95d1;" x="269.728593" xlink:href="#m8a9d577903" y="317.791334"/>
     <use style="fill:#0a95d1;stroke:#0a95d1;" x="332.1" xlink:href="#m8a9d577903" y="316.03201"/>
     <use style="fill:#0a95d1;stroke:#0a95d1;" x="379.282148" xlink:href="#m8a9d577903" y="312.570765"/>
     <use style="fill:#0a95d1;stroke:#0a95d1;" x="426.464296" xlink:href="#m8a9d577903" y="283.409288"/>
     <use style="fill:#0a95d1;stroke:#0a95d1;" x="488.835704" xlink:href="#m8a9d577903" y="215.074435"/>
     <use style="fill:#0a95d1;stroke:#0a95d1;" x="536.017852" xlink:href="#m8a9d577903" y="137.369449"/>
    </g>
   </g>
   <g id="line2d_48">
    <g clip-path="url(#pe5f58e2853)">
     <use style="fill:#0a95d1;stroke:#0a95d1;" x="-1" xlink:href="#m8a9d577903" y="318.186622"/>
     <use style="fill:#0a95d1;stroke:#0a95d1;" x="222.546445" xlink:href="#m8a9d577903" y="318.186308"/>
     <use style="fill:#0a95d1;stroke:#0a95d1;" x="269.728593" xlink:href="#m8a9d577903" y="318.043899"/>
     <use style="fill:#0a95d1;stroke:#0a95d1;" x="332.1" xlink:href="#m8a9d577903" y="316.175122"/>
     <use style="fill:#0a95d1;stroke:#0a95d1;" x="379.282148" xlink:href="#m8a9d577903" y="315.68971"/>
     <use style="fill:#0a95d1;stroke:#0a95d1;" x="426.464296" xlink:href="#m8a9d577903" y="285.450303"/>
     <use style="fill:#0a95d1;stroke:#0a95d1;" x="488.835704" xlink:href="#m8a9d577903" y="227.958828"/>
     <use style="fill:#0a95d1;stroke:#0a95d1;" x="536.017852" xlink:href="#m8a9d577903" y="140.189938"/>
    </g>
   </g>
   <g id="line2d_49">
    <g clip-path="url(#pe5f58e2853)">
     <use style="fill:#0a95d1;stroke:#0a95d1;" x="-1" xlink:href="#m8a9d577903" y="318.468914"/>
     <use style="fill:#0a95d1;stroke:#0a95d1;" x="222.546445" xlink:href="#m8a9d577903" y="318.468969"/>
     <use style="fill:#0a95d1;stroke:#0a95d1;" x="269.728593" xlink:href="#m8a9d577903" y="318.103326"/>
     <use style="fill:#0a95d1;stroke:#0a95d1;" x="332.1" xlink:href="#m8a9d577903" y="317.937097"/>
    </g>
   </g>
   <g id="line2d_50">
    <defs>
     <path d="M 0 3 
C 0.795609 3 1.55874 2.683901 2.12132 2.12132 
C 2.683901 1.55874 3 0.795609 3 0 
C 3 -0.795609 2.683901 -1.55874 2.12132 -2.12132 
C 1.55874 -2.683901 0.795609 -3 0 -3 
C -0.795609 -3 -1.55874 -2.683901 -2.12132 -2.12132 
C -2.683901 -1.55874 -3 -0.795609 -3 0 
C -3 0.795609 -2.683901 1.55874 -2.12132 2.12132 
C -1.55874 2.683901 -0.795609 3 0 3 
z
" id="m5af39eedee" style="stroke:#710ad1;"/>
    </defs>
    <g clip-path="url(#pe5f58e2853)">
     <use style="fill:#710ad1;stroke:#710ad1;" x="-1" xlink:href="#m5af39eedee" y="318.076858"/>
     <use style="fill:#710ad1;stroke:#710ad1;" x="222.546445" xlink:href="#m5af39eedee" y="318.076295"/>
     <use style="fill:#710ad1;stroke:#710ad1;" x="269.728593" xlink:href="#m5af39eedee" y="317.495625"/>
     <use style="fill:#710ad1;stroke:#710ad1;" x="332.1" xlink:href="#m5af39eedee" y="314.702135"/>
     <use style="fill:#710ad1;stroke:#710ad1;" x="379.282148" xlink:href="#m5af39eedee" y="305.199277"/>
     <use style="fill:#710ad1;stroke:#710ad1;" x="426.464296" xlink:href="#m5af39eedee" y="268.785808"/>
     <use style="fill:#710ad1;stroke:#710ad1;" x="488.835704" xlink:href="#m5af39eedee" y="188.316676"/>
     <use style="fill:#710ad1;stroke:#710ad1;" x="536.017852" xlink:href="#m5af39eedee" y="115.129883"/>
    </g>
   </g>
   <g id="line2d_51">
    <g clip-path="url(#pe5f58e2853)">
     <use style="fill:#710ad1;stroke:#710ad1;" x="-1" xlink:href="#m5af39eedee" y="317.940099"/>
     <use style="fill:#710ad1;stroke:#710ad1;" x="222.546445" xlink:href="#m5af39eedee" y="317.939579"/>
     <use style="fill:#710ad1;stroke:#710ad1;" x="269.728593" xlink:href="#m5af39eedee" y="317.232475"/>
     <use style="fill:#710ad1;stroke:#710ad1;" x="332.1" xlink:href="#m5af39eedee" y="316.517955"/>
     <use style="fill:#710ad1;stroke:#710ad1;" x="379.282148" xlink:href="#m5af39eedee" y="311.965263"/>
     <use style="fill:#710ad1;stroke:#710ad1;" x="426.464296" xlink:href="#m5af39eedee" y="270.450702"/>
     <use style="fill:#710ad1;stroke:#710ad1;" x="488.835704" xlink:href="#m5af39eedee" y="187.901499"/>
     <use style="fill:#710ad1;stroke:#710ad1;" x="536.017852" xlink:href="#m5af39eedee" y="127.540232"/>
    </g>
   </g>
   <g id="line2d_52">
    <g clip-path="url(#pe5f58e2853)">
     <use style="fill:#710ad1;stroke:#710ad1;" x="-1" xlink:href="#m5af39eedee" y="318.254219"/>
     <use style="fill:#710ad1;stroke:#710ad1;" x="222.546445" xlink:href="#m5af39eedee" y="318.254098"/>
     <use style="fill:#710ad1;stroke:#710ad1;" x="269.728593" xlink:href="#m5af39eedee" y="317.686391"/>
     <use style="fill:#710ad1;stroke:#710ad1;" x="332.1" xlink:href="#m5af39eedee" y="316.904785"/>
    </g>
   </g>
   <g id="line2d_53">
    <defs>
     <path d="M 0 3 
C 0.795609 3 1.55874 2.683901 2.12132 2.12132 
C 2.683901 1.55874 3 0.795609 3 0 
C 3 -0.795609 2.683901 -1.55874 2.12132 -2.12132 
C 1.55874 -2.683901 0.795609 -3 0 -3 
C -0.795609 -3 -1.55874 -2.683901 -2.12132 -2.12132 
C -2.683901 -1.55874 -3 -0.795609 -3 0 
C -3 0.795609 -2.683901 1.55874 -2.12132 2.12132 
C -1.55874 2.683901 -0.795609 3 0 3 
z
" id="mce5397177b" style="stroke:#d10a7b;"/>
    </defs>
    <g clip-path="url(#pe5f58e2853)">
     <use style="fill:#d10a7b;stroke:#d10a7b;" x="-1" xlink:href="#mce5397177b" y="318.006124"/>
     <use style="fill:#d10a7b;stroke:#d10a7b;" x="222.546445" xlink:href="#mce5397177b" y="318.005659"/>
     <use style="fill:#d10a7b;stroke:#d10a7b;" x="269.728593" xlink:href="#mce5397177b" y="317.281239"/>
     <use style="fill:#d10a7b;stroke:#d10a7b;" x="332.1" xlink:href="#mce5397177b" y="311.936772"/>
     <use style="fill:#d10a7b;stroke:#d10a7b;" x="379.282148" xlink:href="#mce5397177b" y="298.541144"/>
     <use style="fill:#d10a7b;stroke:#d10a7b;" x="426.464296" xlink:href="#mce5397177b" y="273.281054"/>
     <use style="fill:#d10a7b;stroke:#d10a7b;" x="488.835704" xlink:href="#mce5397177b" y="136.681433"/>
     <use style="fill:#d10a7b;stroke:#d10a7b;" x="536.017852" xlink:href="#mce5397177b" y="69.341236"/>
    </g>
   </g>
   <g id="line2d_54">
    <g clip-path="url(#pe5f58e2853)">
     <use style="fill:#d10a7b;stroke:#d10a7b;" x="-1" xlink:href="#mce5397177b" y="318.042633"/>
     <use style="fill:#d10a7b;stroke:#d10a7b;" x="222.546445" xlink:href="#mce5397177b" y="318.042224"/>
     <use style="fill:#d10a7b;stroke:#d10a7b;" x="269.728593" xlink:href="#mce5397177b" y="317.127901"/>
     <use style="fill:#d10a7b;stroke:#d10a7b;" x="332.1" xlink:href="#mce5397177b" y="312.113038"/>
     <use style="fill:#d10a7b;stroke:#d10a7b;" x="379.282148" xlink:href="#mce5397177b" y="298.40594"/>
     <use style="fill:#d10a7b;stroke:#d10a7b;" x="426.464296" xlink:href="#mce5397177b" y="273.688341"/>
     <use style="fill:#d10a7b;stroke:#d10a7b;" x="488.835704" xlink:href="#mce5397177b" y="160.121441"/>
     <use style="fill:#d10a7b;stroke:#d10a7b;" x="536.017852" xlink:href="#mce5397177b" y="92.142417"/>
    </g>
   </g>
   <g id="line2d_55">
    <g clip-path="url(#pe5f58e2853)">
     <use style="fill:#d10a7b;stroke:#d10a7b;" x="-1" xlink:href="#mce5397177b" y="318.09059"/>
     <use style="fill:#d10a7b;stroke:#d10a7b;" x="222.546445" xlink:href="#mce5397177b" y="318.090258"/>
     <use style="fill:#d10a7b;stroke:#d10a7b;" x="269.728593" xlink:href="#mce5397177b" y="317.03774"/>
     <use style="fill:#d10a7b;stroke:#d10a7b;" x="332.1" xlink:href="#mce5397177b" y="312.401758"/>
    </g>
   </g>
   <g id="line2d_56">
    <defs>
     <path d="M 0 3 
C 0.795609 3 1.55874 2.683901 2.12132 2.12132 
C 2.683901 1.55874 3 0.795609 3 0 
C 3 -0.795609 2.683901 -1.55874 2.12132 -2.12132 
C 1.55874 -2.683901 0.795609 -3 0 -3 
C -0.795609 -3 -1.55874 -2.683901 -2.12132 -2.12132 
C -2.683901 -1.55874 -3 -0.795609 -3 0 
C -3 0.795609 -2.683901 1.55874 -2.12132 2.12132 
C -1.55874 2.683901 -0.795609 3 0 3 
z
" id="m5acbed1573" style="stroke:#d10a0a;"/>
    </defs>
    <g clip-path="url(#pe5f58e2853)">
     <use style="fill:#d10a0a;stroke:#d10a0a;" x="-1" xlink:href="#m5acbed1573" y="318.356482"/>
     <use style="fill:#d10a0a;stroke:#d10a0a;" x="222.546445" xlink:href="#m5acbed1573" y="318.356191"/>
     <use style="fill:#d10a0a;stroke:#d10a0a;" x="269.728593" xlink:href="#m5acbed1573" y="317.761149"/>
     <use style="fill:#d10a0a;stroke:#d10a0a;" x="332.1" xlink:href="#m5acbed1573" y="315.513926"/>
     <use style="fill:#d10a0a;stroke:#d10a0a;" x="379.282148" xlink:href="#m5acbed1573" y="310.676337"/>
     <use style="fill:#d10a0a;stroke:#d10a0a;" x="426.464296" xlink:href="#m5acbed1573" y="276.110269"/>
     <use style="fill:#d10a0a;stroke:#d10a0a;" x="488.835704" xlink:href="#m5acbed1573" y="205.451859"/>
     <use style="fill:#d10a0a;stroke:#d10a0a;" x="536.017852" xlink:href="#m5acbed1573" y="131.3929"/>
    </g>
   </g>
   <g id="line2d_57">
    <g clip-path="url(#pe5f58e2853)">
     <use style="fill:#d10a0a;stroke:#d10a0a;" x="-1" xlink:href="#m5acbed1573" y="318.349409"/>
     <use style="fill:#d10a0a;stroke:#d10a0a;" x="222.546445" xlink:href="#m5acbed1573" y="318.349086"/>
     <use style="fill:#d10a0a;stroke:#d10a0a;" x="269.728593" xlink:href="#m5acbed1573" y="318.029633"/>
     <use style="fill:#d10a0a;stroke:#d10a0a;" x="332.1" xlink:href="#m5acbed1573" y="316.096107"/>
     <use style="fill:#d10a0a;stroke:#d10a0a;" x="379.282148" xlink:href="#m5acbed1573" y="311.008617"/>
     <use style="fill:#d10a0a;stroke:#d10a0a;" x="426.464296" xlink:href="#m5acbed1573" y="281.314704"/>
     <use style="fill:#d10a0a;stroke:#d10a0a;" x="488.835704" xlink:href="#m5acbed1573" y="208.926899"/>
     <use style="fill:#d10a0a;stroke:#d10a0a;" x="536.017852" xlink:href="#m5acbed1573" y="139.722729"/>
    </g>
   </g>
   <g id="line2d_58">
    <g clip-path="url(#pe5f58e2853)">
     <use style="fill:#d10a0a;stroke:#d10a0a;" x="-1" xlink:href="#m5acbed1573" y="318.274804"/>
     <use style="fill:#d10a0a;stroke:#d10a0a;" x="222.546445" xlink:href="#m5acbed1573" y="318.274619"/>
     <use style="fill:#d10a0a;stroke:#d10a0a;" x="269.728593" xlink:href="#m5acbed1573" y="317.929059"/>
     <use style="fill:#d10a0a;stroke:#d10a0a;" x="332.1" xlink:href="#m5acbed1573" y="315.97861"/>
    </g>
   </g>
   <g id="line2d_59">
    <defs>
     <path d="M 0 3 
C 0.795609 3 1.55874 2.683901 2.12132 2.12132 
C 2.683901 1.55874 3 0.795609 3 0 
C 3 -0.795609 2.683901 -1.55874 2.12132 -2.12132 
C 1.55874 -2.683901 0.795609 -3 0 -3 
C -0.795609 -3 -1.55874 -2.683901 -2.12132 -2.12132 
C -2.683901 -1.55874 -3 -0.795609 -3 0 
C -3 0.795609 -2.683901 1.55874 -2.12132 2.12132 
C -1.55874 2.683901 -0.795609 3 0 3 
z
" id="mb366679091" style="stroke:#ed4107;"/>
    </defs>
    <g clip-path="url(#pe5f58e2853)">
     <use style="fill:#ed4107;stroke:#ed4107;" x="-1" xlink:href="#mb366679091" y="318.484597"/>
     <use style="fill:#ed4107;stroke:#ed4107;" x="222.546445" xlink:href="#mb366679091" y="318.484551"/>
     <use style="fill:#ed4107;stroke:#ed4107;" x="269.728593" xlink:href="#mb366679091" y="318.133012"/>
     <use style="fill:#ed4107;stroke:#ed4107;" x="332.1" xlink:href="#mb366679091" y="316.837147"/>
     <use style="fill:#ed4107;stroke:#ed4107;" x="379.282148" xlink:href="#mb366679091" y="313.419351"/>
     <use style="fill:#ed4107;stroke:#ed4107;" x="426.464296" xlink:href="#mb366679091" y="292.850653"/>
     <use style="fill:#ed4107;stroke:#ed4107;" x="488.835704" xlink:href="#mb366679091" y="231.046112"/>
     <use style="fill:#ed4107;stroke:#ed4107;" x="536.017852" xlink:href="#mb366679091" y="169.779745"/>
    </g>
   </g>
   <g id="line2d_60">
    <g clip-path="url(#pe5f58e2853)">
     <use style="fill:#ed4107;stroke:#ed4107;" x="-1" xlink:href="#mb366679091" y="318.488796"/>
     <use style="fill:#ed4107;stroke:#ed4107;" x="222.546445" xlink:href="#mb366679091" y="318.4887"/>
     <use style="fill:#ed4107;stroke:#ed4107;" x="269.728593" xlink:href="#mb366679091" y="318.313351"/>
     <use style="fill:#ed4107;stroke:#ed4107;" x="332.1" xlink:href="#mb366679091" y="317.516467"/>
     <use style="fill:#ed4107;stroke:#ed4107;" x="379.282148" xlink:href="#mb366679091" y="314.415902"/>
     <use style="fill:#ed4107;stroke:#ed4107;" x="426.464296" xlink:href="#mb366679091" y="295.793055"/>
     <use style="fill:#ed4107;stroke:#ed4107;" x="488.835704" xlink:href="#mb366679091" y="250.150079"/>
     <use style="fill:#ed4107;stroke:#ed4107;" x="536.017852" xlink:href="#mb366679091" y="197.025999"/>
    </g>
   </g>
   <g id="line2d_61">
    <g clip-path="url(#pe5f58e2853)">
     <use style="fill:#ed4107;stroke:#ed4107;" x="-1" xlink:href="#mb366679091" y="318.408577"/>
     <use style="fill:#ed4107;stroke:#ed4107;" x="222.546445" xlink:href="#mb366679091" y="318.408412"/>
     <use style="fill:#ed4107;stroke:#ed4107;" x="269.728593" xlink:href="#mb366679091" y="318.062059"/>
     <use style="fill:#ed4107;stroke:#ed4107;" x="332.1" xlink:href="#mb366679091" y="317.195676"/>
    </g>
   </g>
   <g id="line2d_62">
    <defs>
     <path d="M 0 3 
C 0.795609 3 1.55874 2.683901 2.12132 2.12132 
C 2.683901 1.55874 3 0.795609 3 0 
C 3 -0.795609 2.683901 -1.55874 2.12132 -2.12132 
C 1.55874 -2.683901 0.795609 -3 0 -3 
C -0.795609 -3 -1.55874 -2.683901 -2.12132 -2.12132 
C -2.683901 -1.55874 -3 -0.795609 -3 0 
C -3 0.795609 -2.683901 1.55874 -2.12132 2.12132 
C -1.55874 2.683901 -0.795609 3 0 3 
z
" id="mf46cd3637d" style="stroke:#dea300;"/>
    </defs>
    <g clip-path="url(#pe5f58e2853)">
     <use style="fill:#dea300;stroke:#dea300;" x="-1" xlink:href="#mf46cd3637d" y="318.372247"/>
     <use style="fill:#dea300;stroke:#dea300;" x="222.546445" xlink:href="#mf46cd3637d" y="318.371999"/>
     <use style="fill:#dea300;stroke:#dea300;" x="269.728593" xlink:href="#mf46cd3637d" y="317.644821"/>
     <use style="fill:#dea300;stroke:#dea300;" x="332.1" xlink:href="#mf46cd3637d" y="313.678789"/>
     <use style="fill:#dea300;stroke:#dea300;" x="379.282148" xlink:href="#mf46cd3637d" y="303.006756"/>
     <use style="fill:#dea300;stroke:#dea300;" x="426.464296" xlink:href="#mf46cd3637d" y="259.917766"/>
     <use style="fill:#dea300;stroke:#dea300;" x="488.835704" xlink:href="#mf46cd3637d" y="180.168101"/>
     <use style="fill:#dea300;stroke:#dea300;" x="536.017852" xlink:href="#mf46cd3637d" y="122.382719"/>
    </g>
   </g>
   <g id="line2d_63">
    <g clip-path="url(#pe5f58e2853)">
     <use style="fill:#dea300;stroke:#dea300;" x="-1" xlink:href="#mf46cd3637d" y="318.225956"/>
     <use style="fill:#dea300;stroke:#dea300;" x="222.546445" xlink:href="#mf46cd3637d" y="318.225431"/>
     <use style="fill:#dea300;stroke:#dea300;" x="269.728593" xlink:href="#mf46cd3637d" y="317.66365"/>
     <use style="fill:#dea300;stroke:#dea300;" x="332.1" xlink:href="#mf46cd3637d" y="313.94264"/>
     <use style="fill:#dea300;stroke:#dea300;" x="379.282148" xlink:href="#mf46cd3637d" y="301.6292"/>
     <use style="fill:#dea300;stroke:#dea300;" x="426.464296" xlink:href="#mf46cd3637d" y="257.073836"/>
     <use style="fill:#dea300;stroke:#dea300;" x="488.835704" xlink:href="#mf46cd3637d" y="176.733437"/>
     <use style="fill:#dea300;stroke:#dea300;" x="536.017852" xlink:href="#mf46cd3637d" y="135.02704"/>
    </g>
   </g>
   <g id="line2d_64">
    <g clip-path="url(#pe5f58e2853)">
     <use style="fill:#dea300;stroke:#dea300;" x="-1" xlink:href="#mf46cd3637d" y="318.310916"/>
     <use style="fill:#dea300;stroke:#dea300;" x="222.546445" xlink:href="#mf46cd3637d" y="318.310438"/>
     <use style="fill:#dea300;stroke:#dea300;" x="269.728593" xlink:href="#mf46cd3637d" y="317.616741"/>
     <use style="fill:#dea300;stroke:#dea300;" x="332.1" xlink:href="#mf46cd3637d" y="314.202759"/>
    </g>
   </g>
   <g id="patch_26">
    <path d="M 81 331.632 
L 81 56.8512 
" style="fill:none;stroke:#000000;stroke-linecap:square;stroke-linejoin:miter;stroke-width:0.8;"/>
   </g>
   <g id="patch_27">
    <path d="M 81 331.632 
L 583.2 331.632 
" style="fill:none;stroke:#000000;stroke-linecap:square;stroke-linejoin:miter;stroke-width:0.8;"/>
   </g>
   <g id="text_35">
    <!-- Evolution of NOS3 -->
    <defs>
     <path d="M 2.984375 54.6875 
L 12.5 54.6875 
L 29.59375 8.796875 
L 46.6875 54.6875 
L 56.203125 54.6875 
L 35.6875 0 
L 23.484375 0 
z
" id="DejaVuSans-118"/>
     <path d="M 9.421875 75.984375 
L 18.40625 75.984375 
L 18.40625 0 
L 9.421875 0 
z
" id="DejaVuSans-108"/>
     <path d="M 18.3125 70.21875 
L 18.3125 54.6875 
L 36.8125 54.6875 
L 36.8125 47.703125 
L 18.3125 47.703125 
L 18.3125 18.015625 
Q 18.3125 11.328125 20.140625 9.421875 
Q 21.96875 7.515625 27.59375 7.515625 
L 36.8125 7.515625 
L 36.8125 0 
L 27.59375 0 
Q 17.1875 0 13.234375 3.875 
Q 9.28125 7.765625 9.28125 18.015625 
L 9.28125 47.703125 
L 2.6875 47.703125 
L 2.6875 54.6875 
L 9.28125 54.6875 
L 9.28125 70.21875 
z
" id="DejaVuSans-116"/>
     <path d="M 37.109375 75.984375 
L 37.109375 68.5 
L 28.515625 68.5 
Q 23.6875 68.5 21.796875 66.546875 
Q 19.921875 64.59375 19.921875 59.515625 
L 19.921875 54.6875 
L 34.71875 54.6875 
L 34.71875 47.703125 
L 19.921875 47.703125 
L 19.921875 0 
L 10.890625 0 
L 10.890625 47.703125 
L 2.296875 47.703125 
L 2.296875 54.6875 
L 10.890625 54.6875 
L 10.890625 58.5 
Q 10.890625 67.625 15.140625 71.796875 
Q 19.390625 75.984375 28.609375 75.984375 
z
" id="DejaVuSans-102"/>
    </defs>
    <g transform="translate(218.742578 50.8512)scale(0.25 -0.25)">
     <use xlink:href="#DejaVuSans-69"/>
     <use x="63.183594" xlink:href="#DejaVuSans-118"/>
     <use x="122.363281" xlink:href="#DejaVuSans-111"/>
     <use x="183.544922" xlink:href="#DejaVuSans-108"/>
     <use x="211.328125" xlink:href="#DejaVuSans-117"/>
     <use x="274.707031" xlink:href="#DejaVuSans-116"/>
     <use x="313.916016" xlink:href="#DejaVuSans-105"/>
     <use x="341.699219" xlink:href="#DejaVuSans-111"/>
     <use x="402.880859" xlink:href="#DejaVuSans-110"/>
     <use x="466.259766" xlink:href="#DejaVuSans-32"/>
     <use x="498.046875" xlink:href="#DejaVuSans-111"/>
     <use x="559.228516" xlink:href="#DejaVuSans-102"/>
     <use x="594.433594" xlink:href="#DejaVuSans-32"/>
     <use x="626.220703" xlink:href="#DejaVuSans-78"/>
     <use x="701.025391" xlink:href="#DejaVuSans-79"/>
     <use x="779.736328" xlink:href="#DejaVuSans-83"/>
     <use x="843.212891" xlink:href="#DejaVuSans-51"/>
    </g>
   </g>
   <g id="legend_1">
    <g id="patch_28">
     <path d="M 91.5 222.971513 
L 195.907031 222.971513 
Q 198.907031 222.971513 198.907031 219.971513 
L 198.907031 67.3512 
Q 198.907031 64.3512 195.907031 64.3512 
L 91.5 64.3512 
Q 88.5 64.3512 88.5 67.3512 
L 88.5 219.971513 
Q 88.5 222.971513 91.5 222.971513 
z
" style="fill:#ffffff;opacity:0.8;stroke:#cccccc;stroke-linejoin:miter;"/>
    </g>
    <g id="line2d_65">
     <path d="M 94.5 76.498856 
L 124.5 76.498856 
" style="fill:none;stroke:#0ad12e;stroke-linecap:square;stroke-width:1.5;"/>
    </g>
    <g id="line2d_66"/>
    <g id="text_36">
     <!-- NOS2 -->
     <g transform="translate(136.5 81.748856)scale(0.15 -0.15)">
      <use xlink:href="#DejaVuSans-78"/>
      <use x="74.804688" xlink:href="#DejaVuSans-79"/>
      <use x="153.515625" xlink:href="#DejaVuSans-83"/>
      <use x="216.992188" xlink:href="#DejaVuSans-50"/>
     </g>
    </g>
    <g id="line2d_67">
     <path d="M 94.5 98.516044 
L 124.5 98.516044 
" style="fill:none;stroke:#0a95d1;stroke-linecap:square;stroke-width:1.5;"/>
    </g>
    <g id="line2d_68"/>
    <g id="text_37">
     <!-- NOS3.1 -->
     <g transform="translate(136.5 103.766044)scale(0.15 -0.15)">
      <use xlink:href="#DejaVuSans-78"/>
      <use x="74.804688" xlink:href="#DejaVuSans-79"/>
      <use x="153.515625" xlink:href="#DejaVuSans-83"/>
      <use x="216.992188" xlink:href="#DejaVuSans-51"/>
      <use x="280.615234" xlink:href="#DejaVuSans-46"/>
      <use x="312.402344" xlink:href="#DejaVuSans-49"/>
     </g>
    </g>
    <g id="line2d_69">
     <path d="M 94.5 120.533231 
L 124.5 120.533231 
" style="fill:none;stroke:#710ad1;stroke-linecap:square;stroke-width:1.5;"/>
    </g>
    <g id="line2d_70"/>
    <g id="text_38">
     <!-- NOS3.2 -->
     <g transform="translate(136.5 125.783231)scale(0.15 -0.15)">
      <use xlink:href="#DejaVuSans-78"/>
      <use x="74.804688" xlink:href="#DejaVuSans-79"/>
      <use x="153.515625" xlink:href="#DejaVuSans-83"/>
      <use x="216.992188" xlink:href="#DejaVuSans-51"/>
      <use x="280.615234" xlink:href="#DejaVuSans-46"/>
      <use x="312.402344" xlink:href="#DejaVuSans-50"/>
     </g>
    </g>
    <g id="line2d_71">
     <path d="M 94.5 142.550419 
L 124.5 142.550419 
" style="fill:none;stroke:#d10a7b;stroke-linecap:square;stroke-width:1.5;"/>
    </g>
    <g id="line2d_72"/>
    <g id="text_39">
     <!-- NOS3.3 -->
     <g transform="translate(136.5 147.800419)scale(0.15 -0.15)">
      <use xlink:href="#DejaVuSans-78"/>
      <use x="74.804688" xlink:href="#DejaVuSans-79"/>
      <use x="153.515625" xlink:href="#DejaVuSans-83"/>
      <use x="216.992188" xlink:href="#DejaVuSans-51"/>
      <use x="280.615234" xlink:href="#DejaVuSans-46"/>
      <use x="312.402344" xlink:href="#DejaVuSans-51"/>
     </g>
    </g>
    <g id="line2d_73">
     <path d="M 94.5 164.567606 
L 124.5 164.567606 
" style="fill:none;stroke:#d10a0a;stroke-linecap:square;stroke-width:1.5;"/>
    </g>
    <g id="line2d_74"/>
    <g id="text_40">
     <!-- NOS3.4 -->
     <g transform="translate(136.5 169.817606)scale(0.15 -0.15)">
      <use xlink:href="#DejaVuSans-78"/>
      <use x="74.804688" xlink:href="#DejaVuSans-79"/>
      <use x="153.515625" xlink:href="#DejaVuSans-83"/>
      <use x="216.992188" xlink:href="#DejaVuSans-51"/>
      <use x="280.615234" xlink:href="#DejaVuSans-46"/>
      <use x="312.402344" xlink:href="#DejaVuSans-52"/>
     </g>
    </g>
    <g id="line2d_75">
     <path d="M 94.5 186.584794 
L 124.5 186.584794 
" style="fill:none;stroke:#ed4107;stroke-linecap:square;stroke-width:1.5;"/>
    </g>
    <g id="line2d_76"/>
    <g id="text_41">
     <!-- NOS3.5 -->
     <g transform="translate(136.5 191.834794)scale(0.15 -0.15)">
      <use xlink:href="#DejaVuSans-78"/>
      <use x="74.804688" xlink:href="#DejaVuSans-79"/>
      <use x="153.515625" xlink:href="#DejaVuSans-83"/>
      <use x="216.992188" xlink:href="#DejaVuSans-51"/>
      <use x="280.615234" xlink:href="#DejaVuSans-46"/>
      <use x="312.402344" xlink:href="#DejaVuSans-53"/>
     </g>
    </g>
    <g id="line2d_77">
     <path d="M 94.5 208.601981 
L 124.5 208.601981 
" style="fill:none;stroke:#dea300;stroke-linecap:square;stroke-width:1.5;"/>
    </g>
    <g id="line2d_78"/>
    <g id="text_42">
     <!-- NOS3.6 -->
     <g transform="translate(136.5 213.851981)scale(0.15 -0.15)">
      <use xlink:href="#DejaVuSans-78"/>
      <use x="74.804688" xlink:href="#DejaVuSans-79"/>
      <use x="153.515625" xlink:href="#DejaVuSans-83"/>
      <use x="216.992188" xlink:href="#DejaVuSans-51"/>
      <use x="280.615234" xlink:href="#DejaVuSans-46"/>
      <use x="312.402344" xlink:href="#DejaVuSans-54"/>
     </g>
    </g>
   </g>
  </g>
 </g>
 <defs>
  <clipPath id="pe5f58e2853">
   <rect height="274.7808" width="502.2" x="81" y="56.8512"/>
  </clipPath>
 </defs>
</svg>
