<?xml version="1.0" encoding="utf-8" standalone="no"?>
<!DOCTYPE svg PUBLIC "-//W3C//DTD SVG 1.1//EN"
  "http://www.w3.org/Graphics/SVG/1.1/DTD/svg11.dtd">
<!-- Created with matplotlib (https://matplotlib.org/) -->
<svg height="473.76pt" version="1.1" viewBox="0 0 648 473.76" width="648pt" xmlns="http://www.w3.org/2000/svg" xmlns:xlink="http://www.w3.org/1999/xlink">
 <defs>
  <style type="text/css">
*{stroke-linecap:butt;stroke-linejoin:round;}
  </style>
 </defs>
 <g id="figure_1">
  <g id="patch_1">
   <path d="M 0 473.76 
L 648 473.76 
L 648 0 
L 0 0 
z
" style="fill:#ffffff;"/>
  </g>
  <g id="axes_1">
   <g id="patch_2">
    <path d="M 81 421.6464 
L 583.2 421.6464 
L 583.2 56.8512 
L 81 56.8512 
z
" style="fill:#ffffff;"/>
   </g>
   <g id="matplotlib.axis_1">
    <g id="xtick_1">
     <g id="line2d_1">
      <defs>
       <path d="M 0 0 
L 0 2 
" id="mf74fc6b140" style="stroke:#000000;"/>
      </defs>
      <g>
       <use style="stroke:#000000;" x="103.75375" xlink:href="#mf74fc6b140" y="421.6464"/>
      </g>
     </g>
     <g id="text_1">
      <!-- 0.0 -->
      <defs>
       <path d="M 31.78125 66.40625 
Q 24.171875 66.40625 20.328125 58.90625 
Q 16.5 51.421875 16.5 36.375 
Q 16.5 21.390625 20.328125 13.890625 
Q 24.171875 6.390625 31.78125 6.390625 
Q 39.453125 6.390625 43.28125 13.890625 
Q 47.125 21.390625 47.125 36.375 
Q 47.125 51.421875 43.28125 58.90625 
Q 39.453125 66.40625 31.78125 66.40625 
z
M 31.78125 74.21875 
Q 44.046875 74.21875 50.515625 64.515625 
Q 56.984375 54.828125 56.984375 36.375 
Q 56.984375 17.96875 50.515625 8.265625 
Q 44.046875 -1.421875 31.78125 -1.421875 
Q 19.53125 -1.421875 13.0625 8.265625 
Q 6.59375 17.96875 6.59375 36.375 
Q 6.59375 54.828125 13.0625 64.515625 
Q 19.53125 74.21875 31.78125 74.21875 
z
" id="DejaVuSans-48"/>
       <path d="M 10.6875 12.40625 
L 21 12.40625 
L 21 0 
L 10.6875 0 
z
" id="DejaVuSans-46"/>
      </defs>
      <g transform="translate(89.440937 440.823588)scale(0.18 -0.18)">
       <use xlink:href="#DejaVuSans-48"/>
       <use x="63.623047" xlink:href="#DejaVuSans-46"/>
       <use x="95.410156" xlink:href="#DejaVuSans-48"/>
      </g>
     </g>
    </g>
    <g id="xtick_2">
     <g id="line2d_2">
      <g>
       <use style="stroke:#000000;" x="215.226176" xlink:href="#mf74fc6b140" y="421.6464"/>
      </g>
     </g>
     <g id="text_2">
      <!-- 0.1 -->
      <defs>
       <path d="M 12.40625 8.296875 
L 28.515625 8.296875 
L 28.515625 63.921875 
L 10.984375 60.40625 
L 10.984375 69.390625 
L 28.421875 72.90625 
L 38.28125 72.90625 
L 38.28125 8.296875 
L 54.390625 8.296875 
L 54.390625 0 
L 12.40625 0 
z
" id="DejaVuSans-49"/>
      </defs>
      <g transform="translate(200.913364 440.823588)scale(0.18 -0.18)">
       <use xlink:href="#DejaVuSans-48"/>
       <use x="63.623047" xlink:href="#DejaVuSans-46"/>
       <use x="95.410156" xlink:href="#DejaVuSans-49"/>
      </g>
     </g>
    </g>
    <g id="xtick_3">
     <g id="line2d_3">
      <g>
       <use style="stroke:#000000;" x="326.698603" xlink:href="#mf74fc6b140" y="421.6464"/>
      </g>
     </g>
     <g id="text_3">
      <!-- 1.0 -->
      <g transform="translate(312.38579 440.823588)scale(0.18 -0.18)">
       <use xlink:href="#DejaVuSans-49"/>
       <use x="63.623047" xlink:href="#DejaVuSans-46"/>
       <use x="95.410156" xlink:href="#DejaVuSans-48"/>
      </g>
     </g>
    </g>
    <g id="xtick_4">
     <g id="line2d_4">
      <g>
       <use style="stroke:#000000;" x="438.171029" xlink:href="#mf74fc6b140" y="421.6464"/>
      </g>
     </g>
     <g id="text_4">
      <!-- 10.0 -->
      <g transform="translate(418.131967 440.823588)scale(0.18 -0.18)">
       <use xlink:href="#DejaVuSans-49"/>
       <use x="63.623047" xlink:href="#DejaVuSans-48"/>
       <use x="127.246094" xlink:href="#DejaVuSans-46"/>
       <use x="159.033203" xlink:href="#DejaVuSans-48"/>
      </g>
     </g>
    </g>
    <g id="xtick_5">
     <g id="line2d_5">
      <g>
       <use style="stroke:#000000;" x="549.643456" xlink:href="#mf74fc6b140" y="421.6464"/>
      </g>
     </g>
     <g id="text_5">
      <!-- 100.0 -->
      <g transform="translate(523.878143 440.823588)scale(0.18 -0.18)">
       <use xlink:href="#DejaVuSans-49"/>
       <use x="63.623047" xlink:href="#DejaVuSans-48"/>
       <use x="127.246094" xlink:href="#DejaVuSans-48"/>
       <use x="190.869141" xlink:href="#DejaVuSans-46"/>
       <use x="222.65625" xlink:href="#DejaVuSans-48"/>
      </g>
     </g>
    </g>
    <g id="xtick_6">
     <g id="line2d_6">
      <defs>
       <path d="M 0 0 
L 0 2 
" id="m8dea67f79b" style="stroke:#000000;stroke-width:0.6;"/>
      </defs>
      <g>
       <use style="stroke:#000000;stroke-width:0.6;" x="86.486452" xlink:href="#m8dea67f79b" y="421.6464"/>
      </g>
     </g>
    </g>
    <g id="xtick_7">
     <g id="line2d_7">
      <g>
       <use style="stroke:#000000;stroke-width:0.6;" x="92.950955" xlink:href="#m8dea67f79b" y="421.6464"/>
      </g>
     </g>
    </g>
    <g id="xtick_8">
     <g id="line2d_8">
      <g>
       <use style="stroke:#000000;stroke-width:0.6;" x="98.653051" xlink:href="#m8dea67f79b" y="421.6464"/>
      </g>
     </g>
    </g>
    <g id="xtick_9">
     <g id="line2d_9">
      <g>
       <use style="stroke:#000000;stroke-width:0.6;" x="137.310294" xlink:href="#m8dea67f79b" y="421.6464"/>
      </g>
     </g>
    </g>
    <g id="xtick_10">
     <g id="line2d_10">
      <g>
       <use style="stroke:#000000;stroke-width:0.6;" x="156.939614" xlink:href="#m8dea67f79b" y="421.6464"/>
      </g>
     </g>
    </g>
    <g id="xtick_11">
     <g id="line2d_11">
      <g>
       <use style="stroke:#000000;stroke-width:0.6;" x="170.866838" xlink:href="#m8dea67f79b" y="421.6464"/>
      </g>
     </g>
    </g>
    <g id="xtick_12">
     <g id="line2d_12">
      <g>
       <use style="stroke:#000000;stroke-width:0.6;" x="181.669632" xlink:href="#m8dea67f79b" y="421.6464"/>
      </g>
     </g>
    </g>
    <g id="xtick_13">
     <g id="line2d_13">
      <g>
       <use style="stroke:#000000;stroke-width:0.6;" x="190.496158" xlink:href="#m8dea67f79b" y="421.6464"/>
      </g>
     </g>
    </g>
    <g id="xtick_14">
     <g id="line2d_14">
      <g>
       <use style="stroke:#000000;stroke-width:0.6;" x="197.958879" xlink:href="#m8dea67f79b" y="421.6464"/>
      </g>
     </g>
    </g>
    <g id="xtick_15">
     <g id="line2d_15">
      <g>
       <use style="stroke:#000000;stroke-width:0.6;" x="204.423382" xlink:href="#m8dea67f79b" y="421.6464"/>
      </g>
     </g>
    </g>
    <g id="xtick_16">
     <g id="line2d_16">
      <g>
       <use style="stroke:#000000;stroke-width:0.6;" x="210.125478" xlink:href="#m8dea67f79b" y="421.6464"/>
      </g>
     </g>
    </g>
    <g id="xtick_17">
     <g id="line2d_17">
      <g>
       <use style="stroke:#000000;stroke-width:0.6;" x="248.78272" xlink:href="#m8dea67f79b" y="421.6464"/>
      </g>
     </g>
    </g>
    <g id="xtick_18">
     <g id="line2d_18">
      <g>
       <use style="stroke:#000000;stroke-width:0.6;" x="268.41204" xlink:href="#m8dea67f79b" y="421.6464"/>
      </g>
     </g>
    </g>
    <g id="xtick_19">
     <g id="line2d_19">
      <g>
       <use style="stroke:#000000;stroke-width:0.6;" x="282.339264" xlink:href="#m8dea67f79b" y="421.6464"/>
      </g>
     </g>
    </g>
    <g id="xtick_20">
     <g id="line2d_20">
      <g>
       <use style="stroke:#000000;stroke-width:0.6;" x="293.142059" xlink:href="#m8dea67f79b" y="421.6464"/>
      </g>
     </g>
    </g>
    <g id="xtick_21">
     <g id="line2d_21">
      <g>
       <use style="stroke:#000000;stroke-width:0.6;" x="301.968584" xlink:href="#m8dea67f79b" y="421.6464"/>
      </g>
     </g>
    </g>
    <g id="xtick_22">
     <g id="line2d_22">
      <g>
       <use style="stroke:#000000;stroke-width:0.6;" x="309.431305" xlink:href="#m8dea67f79b" y="421.6464"/>
      </g>
     </g>
    </g>
    <g id="xtick_23">
     <g id="line2d_23">
      <g>
       <use style="stroke:#000000;stroke-width:0.6;" x="315.895809" xlink:href="#m8dea67f79b" y="421.6464"/>
      </g>
     </g>
    </g>
    <g id="xtick_24">
     <g id="line2d_24">
      <g>
       <use style="stroke:#000000;stroke-width:0.6;" x="321.597904" xlink:href="#m8dea67f79b" y="421.6464"/>
      </g>
     </g>
    </g>
    <g id="xtick_25">
     <g id="line2d_25">
      <g>
       <use style="stroke:#000000;stroke-width:0.6;" x="360.255147" xlink:href="#m8dea67f79b" y="421.6464"/>
      </g>
     </g>
    </g>
    <g id="xtick_26">
     <g id="line2d_26">
      <g>
       <use style="stroke:#000000;stroke-width:0.6;" x="379.884467" xlink:href="#m8dea67f79b" y="421.6464"/>
      </g>
     </g>
    </g>
    <g id="xtick_27">
     <g id="line2d_27">
      <g>
       <use style="stroke:#000000;stroke-width:0.6;" x="393.811691" xlink:href="#m8dea67f79b" y="421.6464"/>
      </g>
     </g>
    </g>
    <g id="xtick_28">
     <g id="line2d_28">
      <g>
       <use style="stroke:#000000;stroke-width:0.6;" x="404.614485" xlink:href="#m8dea67f79b" y="421.6464"/>
      </g>
     </g>
    </g>
    <g id="xtick_29">
     <g id="line2d_29">
      <g>
       <use style="stroke:#000000;stroke-width:0.6;" x="413.441011" xlink:href="#m8dea67f79b" y="421.6464"/>
      </g>
     </g>
    </g>
    <g id="xtick_30">
     <g id="line2d_30">
      <g>
       <use style="stroke:#000000;stroke-width:0.6;" x="420.903732" xlink:href="#m8dea67f79b" y="421.6464"/>
      </g>
     </g>
    </g>
    <g id="xtick_31">
     <g id="line2d_31">
      <g>
       <use style="stroke:#000000;stroke-width:0.6;" x="427.368235" xlink:href="#m8dea67f79b" y="421.6464"/>
      </g>
     </g>
    </g>
    <g id="xtick_32">
     <g id="line2d_32">
      <g>
       <use style="stroke:#000000;stroke-width:0.6;" x="433.070331" xlink:href="#m8dea67f79b" y="421.6464"/>
      </g>
     </g>
    </g>
    <g id="xtick_33">
     <g id="line2d_33">
      <g>
       <use style="stroke:#000000;stroke-width:0.6;" x="471.727573" xlink:href="#m8dea67f79b" y="421.6464"/>
      </g>
     </g>
    </g>
    <g id="xtick_34">
     <g id="line2d_34">
      <g>
       <use style="stroke:#000000;stroke-width:0.6;" x="491.356893" xlink:href="#m8dea67f79b" y="421.6464"/>
      </g>
     </g>
    </g>
    <g id="xtick_35">
     <g id="line2d_35">
      <g>
       <use style="stroke:#000000;stroke-width:0.6;" x="505.284118" xlink:href="#m8dea67f79b" y="421.6464"/>
      </g>
     </g>
    </g>
    <g id="xtick_36">
     <g id="line2d_36">
      <g>
       <use style="stroke:#000000;stroke-width:0.6;" x="516.086912" xlink:href="#m8dea67f79b" y="421.6464"/>
      </g>
     </g>
    </g>
    <g id="xtick_37">
     <g id="line2d_37">
      <g>
       <use style="stroke:#000000;stroke-width:0.6;" x="524.913437" xlink:href="#m8dea67f79b" y="421.6464"/>
      </g>
     </g>
    </g>
    <g id="xtick_38">
     <g id="line2d_38">
      <g>
       <use style="stroke:#000000;stroke-width:0.6;" x="532.376159" xlink:href="#m8dea67f79b" y="421.6464"/>
      </g>
     </g>
    </g>
    <g id="xtick_39">
     <g id="line2d_39">
      <g>
       <use style="stroke:#000000;stroke-width:0.6;" x="538.840662" xlink:href="#m8dea67f79b" y="421.6464"/>
      </g>
     </g>
    </g>
    <g id="xtick_40">
     <g id="line2d_40">
      <g>
       <use style="stroke:#000000;stroke-width:0.6;" x="544.542757" xlink:href="#m8dea67f79b" y="421.6464"/>
      </g>
     </g>
    </g>
    <g id="xtick_41">
     <g id="line2d_41">
      <g>
       <use style="stroke:#000000;stroke-width:0.6;" x="583.2" xlink:href="#m8dea67f79b" y="421.6464"/>
      </g>
     </g>
    </g>
    <g id="text_6">
     <!-- Noscapine (uM) -->
     <defs>
      <path d="M 9.8125 72.90625 
L 23.09375 72.90625 
L 55.421875 11.921875 
L 55.421875 72.90625 
L 64.984375 72.90625 
L 64.984375 0 
L 51.703125 0 
L 19.390625 60.984375 
L 19.390625 0 
L 9.8125 0 
z
" id="DejaVuSans-78"/>
      <path d="M 30.609375 48.390625 
Q 23.390625 48.390625 19.1875 42.75 
Q 14.984375 37.109375 14.984375 27.296875 
Q 14.984375 17.484375 19.15625 11.84375 
Q 23.34375 6.203125 30.609375 6.203125 
Q 37.796875 6.203125 41.984375 11.859375 
Q 46.1875 17.53125 46.1875 27.296875 
Q 46.1875 37.015625 41.984375 42.703125 
Q 37.796875 48.390625 30.609375 48.390625 
z
M 30.609375 56 
Q 42.328125 56 49.015625 48.375 
Q 55.71875 40.765625 55.71875 27.296875 
Q 55.71875 13.875 49.015625 6.21875 
Q 42.328125 -1.421875 30.609375 -1.421875 
Q 18.84375 -1.421875 12.171875 6.21875 
Q 5.515625 13.875 5.515625 27.296875 
Q 5.515625 40.765625 12.171875 48.375 
Q 18.84375 56 30.609375 56 
z
" id="DejaVuSans-111"/>
      <path d="M 44.28125 53.078125 
L 44.28125 44.578125 
Q 40.484375 46.53125 36.375 47.5 
Q 32.28125 48.484375 27.875 48.484375 
Q 21.1875 48.484375 17.84375 46.4375 
Q 14.5 44.390625 14.5 40.28125 
Q 14.5 37.15625 16.890625 35.375 
Q 19.28125 33.59375 26.515625 31.984375 
L 29.59375 31.296875 
Q 39.15625 29.25 43.1875 25.515625 
Q 47.21875 21.78125 47.21875 15.09375 
Q 47.21875 7.46875 41.1875 3.015625 
Q 35.15625 -1.421875 24.609375 -1.421875 
Q 20.21875 -1.421875 15.453125 -0.5625 
Q 10.6875 0.296875 5.421875 2 
L 5.421875 11.28125 
Q 10.40625 8.6875 15.234375 7.390625 
Q 20.0625 6.109375 24.8125 6.109375 
Q 31.15625 6.109375 34.5625 8.28125 
Q 37.984375 10.453125 37.984375 14.40625 
Q 37.984375 18.0625 35.515625 20.015625 
Q 33.0625 21.96875 24.703125 23.78125 
L 21.578125 24.515625 
Q 13.234375 26.265625 9.515625 29.90625 
Q 5.8125 33.546875 5.8125 39.890625 
Q 5.8125 47.609375 11.28125 51.796875 
Q 16.75 56 26.8125 56 
Q 31.78125 56 36.171875 55.265625 
Q 40.578125 54.546875 44.28125 53.078125 
z
" id="DejaVuSans-115"/>
      <path d="M 48.78125 52.59375 
L 48.78125 44.1875 
Q 44.96875 46.296875 41.140625 47.34375 
Q 37.3125 48.390625 33.40625 48.390625 
Q 24.65625 48.390625 19.8125 42.84375 
Q 14.984375 37.3125 14.984375 27.296875 
Q 14.984375 17.28125 19.8125 11.734375 
Q 24.65625 6.203125 33.40625 6.203125 
Q 37.3125 6.203125 41.140625 7.25 
Q 44.96875 8.296875 48.78125 10.40625 
L 48.78125 2.09375 
Q 45.015625 0.34375 40.984375 -0.53125 
Q 36.96875 -1.421875 32.421875 -1.421875 
Q 20.0625 -1.421875 12.78125 6.34375 
Q 5.515625 14.109375 5.515625 27.296875 
Q 5.515625 40.671875 12.859375 48.328125 
Q 20.21875 56 33.015625 56 
Q 37.15625 56 41.109375 55.140625 
Q 45.0625 54.296875 48.78125 52.59375 
z
" id="DejaVuSans-99"/>
      <path d="M 34.28125 27.484375 
Q 23.390625 27.484375 19.1875 25 
Q 14.984375 22.515625 14.984375 16.5 
Q 14.984375 11.71875 18.140625 8.90625 
Q 21.296875 6.109375 26.703125 6.109375 
Q 34.1875 6.109375 38.703125 11.40625 
Q 43.21875 16.703125 43.21875 25.484375 
L 43.21875 27.484375 
z
M 52.203125 31.203125 
L 52.203125 0 
L 43.21875 0 
L 43.21875 8.296875 
Q 40.140625 3.328125 35.546875 0.953125 
Q 30.953125 -1.421875 24.3125 -1.421875 
Q 15.921875 -1.421875 10.953125 3.296875 
Q 6 8.015625 6 15.921875 
Q 6 25.140625 12.171875 29.828125 
Q 18.359375 34.515625 30.609375 34.515625 
L 43.21875 34.515625 
L 43.21875 35.40625 
Q 43.21875 41.609375 39.140625 45 
Q 35.0625 48.390625 27.6875 48.390625 
Q 23 48.390625 18.546875 47.265625 
Q 14.109375 46.140625 10.015625 43.890625 
L 10.015625 52.203125 
Q 14.9375 54.109375 19.578125 55.046875 
Q 24.21875 56 28.609375 56 
Q 40.484375 56 46.34375 49.84375 
Q 52.203125 43.703125 52.203125 31.203125 
z
" id="DejaVuSans-97"/>
      <path d="M 18.109375 8.203125 
L 18.109375 -20.796875 
L 9.078125 -20.796875 
L 9.078125 54.6875 
L 18.109375 54.6875 
L 18.109375 46.390625 
Q 20.953125 51.265625 25.265625 53.625 
Q 29.59375 56 35.59375 56 
Q 45.5625 56 51.78125 48.09375 
Q 58.015625 40.1875 58.015625 27.296875 
Q 58.015625 14.40625 51.78125 6.484375 
Q 45.5625 -1.421875 35.59375 -1.421875 
Q 29.59375 -1.421875 25.265625 0.953125 
Q 20.953125 3.328125 18.109375 8.203125 
z
M 48.6875 27.296875 
Q 48.6875 37.203125 44.609375 42.84375 
Q 40.53125 48.484375 33.40625 48.484375 
Q 26.265625 48.484375 22.1875 42.84375 
Q 18.109375 37.203125 18.109375 27.296875 
Q 18.109375 17.390625 22.1875 11.75 
Q 26.265625 6.109375 33.40625 6.109375 
Q 40.53125 6.109375 44.609375 11.75 
Q 48.6875 17.390625 48.6875 27.296875 
z
" id="DejaVuSans-112"/>
      <path d="M 9.421875 54.6875 
L 18.40625 54.6875 
L 18.40625 0 
L 9.421875 0 
z
M 9.421875 75.984375 
L 18.40625 75.984375 
L 18.40625 64.59375 
L 9.421875 64.59375 
z
" id="DejaVuSans-105"/>
      <path d="M 54.890625 33.015625 
L 54.890625 0 
L 45.90625 0 
L 45.90625 32.71875 
Q 45.90625 40.484375 42.875 44.328125 
Q 39.84375 48.1875 33.796875 48.1875 
Q 26.515625 48.1875 22.3125 43.546875 
Q 18.109375 38.921875 18.109375 30.90625 
L 18.109375 0 
L 9.078125 0 
L 9.078125 54.6875 
L 18.109375 54.6875 
L 18.109375 46.1875 
Q 21.34375 51.125 25.703125 53.5625 
Q 30.078125 56 35.796875 56 
Q 45.21875 56 50.046875 50.171875 
Q 54.890625 44.34375 54.890625 33.015625 
z
" id="DejaVuSans-110"/>
      <path d="M 56.203125 29.59375 
L 56.203125 25.203125 
L 14.890625 25.203125 
Q 15.484375 15.921875 20.484375 11.0625 
Q 25.484375 6.203125 34.421875 6.203125 
Q 39.59375 6.203125 44.453125 7.46875 
Q 49.3125 8.734375 54.109375 11.28125 
L 54.109375 2.78125 
Q 49.265625 0.734375 44.1875 -0.34375 
Q 39.109375 -1.421875 33.890625 -1.421875 
Q 20.796875 -1.421875 13.15625 6.1875 
Q 5.515625 13.8125 5.515625 26.8125 
Q 5.515625 40.234375 12.765625 48.109375 
Q 20.015625 56 32.328125 56 
Q 43.359375 56 49.78125 48.890625 
Q 56.203125 41.796875 56.203125 29.59375 
z
M 47.21875 32.234375 
Q 47.125 39.59375 43.09375 43.984375 
Q 39.0625 48.390625 32.421875 48.390625 
Q 24.90625 48.390625 20.390625 44.140625 
Q 15.875 39.890625 15.1875 32.171875 
z
" id="DejaVuSans-101"/>
      <path id="DejaVuSans-32"/>
      <path d="M 31 75.875 
Q 24.46875 64.65625 21.28125 53.65625 
Q 18.109375 42.671875 18.109375 31.390625 
Q 18.109375 20.125 21.3125 9.0625 
Q 24.515625 -2 31 -13.1875 
L 23.1875 -13.1875 
Q 15.875 -1.703125 12.234375 9.375 
Q 8.59375 20.453125 8.59375 31.390625 
Q 8.59375 42.28125 12.203125 53.3125 
Q 15.828125 64.359375 23.1875 75.875 
z
" id="DejaVuSans-40"/>
      <path d="M 8.5 21.578125 
L 8.5 54.6875 
L 17.484375 54.6875 
L 17.484375 21.921875 
Q 17.484375 14.15625 20.5 10.265625 
Q 23.53125 6.390625 29.59375 6.390625 
Q 36.859375 6.390625 41.078125 11.03125 
Q 45.3125 15.671875 45.3125 23.6875 
L 45.3125 54.6875 
L 54.296875 54.6875 
L 54.296875 0 
L 45.3125 0 
L 45.3125 8.40625 
Q 42.046875 3.421875 37.71875 1 
Q 33.40625 -1.421875 27.6875 -1.421875 
Q 18.265625 -1.421875 13.375 4.4375 
Q 8.5 10.296875 8.5 21.578125 
z
M 31.109375 56 
z
" id="DejaVuSans-117"/>
      <path d="M 9.8125 72.90625 
L 24.515625 72.90625 
L 43.109375 23.296875 
L 61.8125 72.90625 
L 76.515625 72.90625 
L 76.515625 0 
L 66.890625 0 
L 66.890625 64.015625 
L 48.09375 14.015625 
L 38.1875 14.015625 
L 19.390625 64.015625 
L 19.390625 0 
L 9.8125 0 
z
" id="DejaVuSans-77"/>
      <path d="M 8.015625 75.875 
L 15.828125 75.875 
Q 23.140625 64.359375 26.78125 53.3125 
Q 30.421875 42.28125 30.421875 31.390625 
Q 30.421875 20.453125 26.78125 9.375 
Q 23.140625 -1.703125 15.828125 -13.1875 
L 8.015625 -13.1875 
Q 14.5 -2 17.703125 9.0625 
Q 20.90625 20.125 20.90625 31.390625 
Q 20.90625 42.671875 17.703125 53.65625 
Q 14.5 64.65625 8.015625 75.875 
z
" id="DejaVuSans-41"/>
     </defs>
     <g transform="translate(238.5 466.803275)scale(0.24 -0.24)">
      <use xlink:href="#DejaVuSans-78"/>
      <use x="74.804688" xlink:href="#DejaVuSans-111"/>
      <use x="135.986328" xlink:href="#DejaVuSans-115"/>
      <use x="188.085938" xlink:href="#DejaVuSans-99"/>
      <use x="243.066406" xlink:href="#DejaVuSans-97"/>
      <use x="304.345703" xlink:href="#DejaVuSans-112"/>
      <use x="367.822266" xlink:href="#DejaVuSans-105"/>
      <use x="395.605469" xlink:href="#DejaVuSans-110"/>
      <use x="458.984375" xlink:href="#DejaVuSans-101"/>
      <use x="520.507812" xlink:href="#DejaVuSans-32"/>
      <use x="552.294922" xlink:href="#DejaVuSans-40"/>
      <use x="591.308594" xlink:href="#DejaVuSans-117"/>
      <use x="654.6875" xlink:href="#DejaVuSans-77"/>
      <use x="740.966797" xlink:href="#DejaVuSans-41"/>
     </g>
    </g>
   </g>
   <g id="matplotlib.axis_2">
    <g id="ytick_1">
     <g id="line2d_42">
      <defs>
       <path d="M 0 0 
L -2 0 
" id="m429fc2a1fd" style="stroke:#000000;"/>
      </defs>
      <g>
       <use style="stroke:#000000;" x="81" xlink:href="#m429fc2a1fd" y="405.908388"/>
      </g>
     </g>
     <g id="text_7">
      <!-- 0 -->
      <g transform="translate(64.0475 412.746982)scale(0.18 -0.18)">
       <use xlink:href="#DejaVuSans-48"/>
      </g>
     </g>
    </g>
    <g id="ytick_2">
     <g id="line2d_43">
      <g>
       <use style="stroke:#000000;" x="81" xlink:href="#m429fc2a1fd" y="355.524943"/>
      </g>
     </g>
     <g id="text_8">
      <!-- 1 -->
      <g transform="translate(64.0475 362.363537)scale(0.18 -0.18)">
       <use xlink:href="#DejaVuSans-49"/>
      </g>
     </g>
    </g>
    <g id="ytick_3">
     <g id="line2d_44">
      <g>
       <use style="stroke:#000000;" x="81" xlink:href="#m429fc2a1fd" y="305.141499"/>
      </g>
     </g>
     <g id="text_9">
      <!-- 2 -->
      <defs>
       <path d="M 19.1875 8.296875 
L 53.609375 8.296875 
L 53.609375 0 
L 7.328125 0 
L 7.328125 8.296875 
Q 12.9375 14.109375 22.625 23.890625 
Q 32.328125 33.6875 34.8125 36.53125 
Q 39.546875 41.84375 41.421875 45.53125 
Q 43.3125 49.21875 43.3125 52.78125 
Q 43.3125 58.59375 39.234375 62.25 
Q 35.15625 65.921875 28.609375 65.921875 
Q 23.96875 65.921875 18.8125 64.3125 
Q 13.671875 62.703125 7.8125 59.421875 
L 7.8125 69.390625 
Q 13.765625 71.78125 18.9375 73 
Q 24.125 74.21875 28.421875 74.21875 
Q 39.75 74.21875 46.484375 68.546875 
Q 53.21875 62.890625 53.21875 53.421875 
Q 53.21875 48.921875 51.53125 44.890625 
Q 49.859375 40.875 45.40625 35.40625 
Q 44.1875 33.984375 37.640625 27.21875 
Q 31.109375 20.453125 19.1875 8.296875 
z
" id="DejaVuSans-50"/>
      </defs>
      <g transform="translate(64.0475 311.980093)scale(0.18 -0.18)">
       <use xlink:href="#DejaVuSans-50"/>
      </g>
     </g>
    </g>
    <g id="ytick_4">
     <g id="line2d_45">
      <g>
       <use style="stroke:#000000;" x="81" xlink:href="#m429fc2a1fd" y="254.758055"/>
      </g>
     </g>
     <g id="text_10">
      <!-- 3 -->
      <defs>
       <path d="M 40.578125 39.3125 
Q 47.65625 37.796875 51.625 33 
Q 55.609375 28.21875 55.609375 21.1875 
Q 55.609375 10.40625 48.1875 4.484375 
Q 40.765625 -1.421875 27.09375 -1.421875 
Q 22.515625 -1.421875 17.65625 -0.515625 
Q 12.796875 0.390625 7.625 2.203125 
L 7.625 11.71875 
Q 11.71875 9.328125 16.59375 8.109375 
Q 21.484375 6.890625 26.8125 6.890625 
Q 36.078125 6.890625 40.9375 10.546875 
Q 45.796875 14.203125 45.796875 21.1875 
Q 45.796875 27.640625 41.28125 31.265625 
Q 36.765625 34.90625 28.71875 34.90625 
L 20.21875 34.90625 
L 20.21875 43.015625 
L 29.109375 43.015625 
Q 36.375 43.015625 40.234375 45.921875 
Q 44.09375 48.828125 44.09375 54.296875 
Q 44.09375 59.90625 40.109375 62.90625 
Q 36.140625 65.921875 28.71875 65.921875 
Q 24.65625 65.921875 20.015625 65.03125 
Q 15.375 64.15625 9.8125 62.3125 
L 9.8125 71.09375 
Q 15.4375 72.65625 20.34375 73.4375 
Q 25.25 74.21875 29.59375 74.21875 
Q 40.828125 74.21875 47.359375 69.109375 
Q 53.90625 64.015625 53.90625 55.328125 
Q 53.90625 49.265625 50.4375 45.09375 
Q 46.96875 40.921875 40.578125 39.3125 
z
" id="DejaVuSans-51"/>
      </defs>
      <g transform="translate(64.0475 261.596648)scale(0.18 -0.18)">
       <use xlink:href="#DejaVuSans-51"/>
      </g>
     </g>
    </g>
    <g id="ytick_5">
     <g id="line2d_46">
      <g>
       <use style="stroke:#000000;" x="81" xlink:href="#m429fc2a1fd" y="204.37461"/>
      </g>
     </g>
     <g id="text_11">
      <!-- 4 -->
      <defs>
       <path d="M 37.796875 64.3125 
L 12.890625 25.390625 
L 37.796875 25.390625 
z
M 35.203125 72.90625 
L 47.609375 72.90625 
L 47.609375 25.390625 
L 58.015625 25.390625 
L 58.015625 17.1875 
L 47.609375 17.1875 
L 47.609375 0 
L 37.796875 0 
L 37.796875 17.1875 
L 4.890625 17.1875 
L 4.890625 26.703125 
z
" id="DejaVuSans-52"/>
      </defs>
      <g transform="translate(64.0475 211.213204)scale(0.18 -0.18)">
       <use xlink:href="#DejaVuSans-52"/>
      </g>
     </g>
    </g>
    <g id="ytick_6">
     <g id="line2d_47">
      <g>
       <use style="stroke:#000000;" x="81" xlink:href="#m429fc2a1fd" y="153.991166"/>
      </g>
     </g>
     <g id="text_12">
      <!-- 5 -->
      <defs>
       <path d="M 10.796875 72.90625 
L 49.515625 72.90625 
L 49.515625 64.59375 
L 19.828125 64.59375 
L 19.828125 46.734375 
Q 21.96875 47.46875 24.109375 47.828125 
Q 26.265625 48.1875 28.421875 48.1875 
Q 40.625 48.1875 47.75 41.5 
Q 54.890625 34.8125 54.890625 23.390625 
Q 54.890625 11.625 47.5625 5.09375 
Q 40.234375 -1.421875 26.90625 -1.421875 
Q 22.3125 -1.421875 17.546875 -0.640625 
Q 12.796875 0.140625 7.71875 1.703125 
L 7.71875 11.625 
Q 12.109375 9.234375 16.796875 8.0625 
Q 21.484375 6.890625 26.703125 6.890625 
Q 35.15625 6.890625 40.078125 11.328125 
Q 45.015625 15.765625 45.015625 23.390625 
Q 45.015625 31 40.078125 35.4375 
Q 35.15625 39.890625 26.703125 39.890625 
Q 22.75 39.890625 18.8125 39.015625 
Q 14.890625 38.140625 10.796875 36.28125 
z
" id="DejaVuSans-53"/>
      </defs>
      <g transform="translate(64.0475 160.829759)scale(0.18 -0.18)">
       <use xlink:href="#DejaVuSans-53"/>
      </g>
     </g>
    </g>
    <g id="ytick_7">
     <g id="line2d_48">
      <g>
       <use style="stroke:#000000;" x="81" xlink:href="#m429fc2a1fd" y="103.607721"/>
      </g>
     </g>
     <g id="text_13">
      <!-- 6 -->
      <defs>
       <path d="M 33.015625 40.375 
Q 26.375 40.375 22.484375 35.828125 
Q 18.609375 31.296875 18.609375 23.390625 
Q 18.609375 15.53125 22.484375 10.953125 
Q 26.375 6.390625 33.015625 6.390625 
Q 39.65625 6.390625 43.53125 10.953125 
Q 47.40625 15.53125 47.40625 23.390625 
Q 47.40625 31.296875 43.53125 35.828125 
Q 39.65625 40.375 33.015625 40.375 
z
M 52.59375 71.296875 
L 52.59375 62.3125 
Q 48.875 64.0625 45.09375 64.984375 
Q 41.3125 65.921875 37.59375 65.921875 
Q 27.828125 65.921875 22.671875 59.328125 
Q 17.53125 52.734375 16.796875 39.40625 
Q 19.671875 43.65625 24.015625 45.921875 
Q 28.375 48.1875 33.59375 48.1875 
Q 44.578125 48.1875 50.953125 41.515625 
Q 57.328125 34.859375 57.328125 23.390625 
Q 57.328125 12.15625 50.6875 5.359375 
Q 44.046875 -1.421875 33.015625 -1.421875 
Q 20.359375 -1.421875 13.671875 8.265625 
Q 6.984375 17.96875 6.984375 36.375 
Q 6.984375 53.65625 15.1875 63.9375 
Q 23.390625 74.21875 37.203125 74.21875 
Q 40.921875 74.21875 44.703125 73.484375 
Q 48.484375 72.75 52.59375 71.296875 
z
" id="DejaVuSans-54"/>
      </defs>
      <g transform="translate(64.0475 110.446315)scale(0.18 -0.18)">
       <use xlink:href="#DejaVuSans-54"/>
      </g>
     </g>
    </g>
    <g id="text_14">
     <!-- $(RFU/OD) \times 10^4$ -->
     <defs>
      <path d="M 25.203125 64.796875 
L 20.21875 38.921875 
L 32.90625 38.921875 
Q 40.375 38.921875 44.984375 43.046875 
Q 49.609375 47.171875 49.609375 53.8125 
Q 49.609375 59.125 46.5 61.953125 
Q 43.40625 64.796875 37.59375 64.796875 
z
M 43.3125 35.015625 
Q 46.4375 34.28125 48.515625 31.390625 
Q 50.59375 28.515625 53.328125 19.921875 
L 59.515625 0 
L 49.125 0 
L 43.40625 18.703125 
Q 41.21875 25.921875 38.328125 28.359375 
Q 35.453125 30.8125 29.5 30.8125 
L 18.609375 30.8125 
L 12.59375 0 
L 2.6875 0 
L 16.890625 72.90625 
L 39.109375 72.90625 
Q 49.21875 72.90625 54.609375 68.328125 
Q 60.015625 63.765625 60.015625 55.171875 
Q 60.015625 47.5625 55.421875 41.984375 
Q 50.828125 36.421875 43.3125 35.015625 
z
" id="DejaVuSans-Oblique-82"/>
      <path d="M 16.890625 72.90625 
L 58.6875 72.90625 
L 57.078125 64.59375 
L 25.09375 64.59375 
L 20.90625 43.109375 
L 49.8125 43.109375 
L 48.1875 34.8125 
L 19.28125 34.8125 
L 12.5 0 
L 2.6875 0 
z
" id="DejaVuSans-Oblique-70"/>
      <path d="M 15.484375 72.90625 
L 25.390625 72.90625 
L 16.796875 28.609375 
Q 16.265625 25.640625 16.046875 23.703125 
Q 15.828125 21.78125 15.828125 20.3125 
Q 15.828125 13.578125 19.578125 10.078125 
Q 23.34375 6.59375 30.609375 6.59375 
Q 40.046875 6.59375 45.28125 11.765625 
Q 50.53125 16.9375 52.78125 28.609375 
L 61.375 72.90625 
L 71.296875 72.90625 
L 62.5 27.390625 
Q 59.625 12.640625 51.5625 5.609375 
Q 43.5 -1.421875 29.5 -1.421875 
Q 18.5625 -1.421875 12.1875 4.078125 
Q 5.8125 9.578125 5.8125 19 
Q 5.8125 20.703125 6.046875 22.828125 
Q 6.296875 24.953125 6.78125 27.390625 
z
" id="DejaVuSans-Oblique-85"/>
      <path d="M 25.390625 72.90625 
L 33.6875 72.90625 
L 8.296875 -9.28125 
L 0 -9.28125 
z
" id="DejaVuSans-47"/>
      <path d="M 45.609375 66.21875 
Q 37.5 66.21875 31.296875 62.28125 
Q 25.09375 58.34375 20.515625 50.296875 
Q 17.578125 45.171875 16.03125 39.40625 
Q 14.5 33.640625 14.5 27.78125 
Q 14.5 17.625 19.359375 12.109375 
Q 24.21875 6.59375 33.109375 6.59375 
Q 41.109375 6.59375 47.375 10.5625 
Q 53.65625 14.546875 58.109375 22.40625 
Q 61.078125 27.6875 62.640625 33.46875 
Q 64.203125 39.265625 64.203125 45.015625 
Q 64.203125 55.125 59.3125 60.671875 
Q 54.4375 66.21875 45.609375 66.21875 
z
M 32.8125 -1.421875 
Q 19.390625 -1.421875 11.6875 6.53125 
Q 4 14.5 4 28.328125 
Q 4 36.234375 7 44.484375 
Q 10.015625 52.734375 15.28125 59.1875 
Q 21.484375 66.75 29.09375 70.484375 
Q 36.71875 74.21875 45.90625 74.21875 
Q 59.28125 74.21875 66.984375 66.328125 
Q 74.703125 58.453125 74.703125 44.828125 
Q 74.703125 36.421875 71.765625 28.3125 
Q 68.84375 20.21875 63.375 13.625 
Q 57.125 6 49.578125 2.28125 
Q 42.046875 -1.421875 32.8125 -1.421875 
z
" id="DejaVuSans-Oblique-79"/>
      <path d="M 16.890625 72.90625 
L 38.09375 72.90625 
Q 54.984375 72.90625 63.59375 65.75 
Q 72.21875 58.59375 72.21875 44.484375 
Q 72.21875 35.15625 68.9375 26.53125 
Q 65.671875 17.921875 59.90625 12.015625 
Q 54.109375 5.953125 45.171875 2.96875 
Q 36.234375 0 24.03125 0 
L 2.6875 0 
z
M 25.203125 64.796875 
L 14.203125 8.109375 
L 27.09375 8.109375 
Q 43.65625 8.109375 52.734375 17.625 
Q 61.8125 27.15625 61.8125 44.484375 
Q 61.8125 54.984375 55.953125 59.890625 
Q 50.09375 64.796875 37.59375 64.796875 
z
" id="DejaVuSans-Oblique-68"/>
      <path d="M 70.125 53.71875 
L 47.796875 31.296875 
L 70.125 8.984375 
L 64.3125 3.078125 
L 41.890625 25.484375 
L 19.484375 3.078125 
L 13.71875 8.984375 
L 35.984375 31.296875 
L 13.71875 53.71875 
L 19.484375 59.625 
L 41.890625 37.203125 
L 64.3125 59.625 
z
" id="DejaVuSans-215"/>
     </defs>
     <g transform="translate(55.05625 331.1688)rotate(-90)scale(0.24 -0.24)">
      <use transform="translate(0 0.684375)" xlink:href="#DejaVuSans-40"/>
      <use transform="translate(39.013672 0.684375)" xlink:href="#DejaVuSans-Oblique-82"/>
      <use transform="translate(108.496094 0.684375)" xlink:href="#DejaVuSans-Oblique-70"/>
      <use transform="translate(166.015625 0.684375)" xlink:href="#DejaVuSans-Oblique-85"/>
      <use transform="translate(239.208984 0.684375)" xlink:href="#DejaVuSans-47"/>
      <use transform="translate(272.900391 0.684375)" xlink:href="#DejaVuSans-Oblique-79"/>
      <use transform="translate(351.611328 0.684375)" xlink:href="#DejaVuSans-Oblique-68"/>
      <use transform="translate(428.613281 0.684375)" xlink:href="#DejaVuSans-41"/>
      <use transform="translate(487.109375 0.684375)" xlink:href="#DejaVuSans-215"/>
      <use transform="translate(590.380859 0.684375)" xlink:href="#DejaVuSans-49"/>
      <use transform="translate(654.003906 0.684375)" xlink:href="#DejaVuSans-48"/>
      <use transform="translate(718.583984 38.965625)scale(0.7)" xlink:href="#DejaVuSans-52"/>
     </g>
    </g>
   </g>
   <g id="line2d_49">
    <path clip-path="url(#p929cf2ff7c)" d="M 79.024296 395.310546 
L 406.476463 395.199401 
L 446.114579 394.956282 
L 473.248275 394.573984 
L 497.354067 394.010897 
L 528.925787 393.021882 
L 549.643456 392.381925 
L 549.643456 392.381925 
" style="fill:none;stroke:#0099ff;stroke-linecap:square;stroke-width:1.5;"/>
   </g>
   <g id="line2d_50">
    <path clip-path="url(#p929cf2ff7c)" d="M 79.024296 403.43099 
L 377.58824 403.319878 
L 407.298667 403.081012 
L 425.70661 402.72185 
L 439.281838 402.242991 
L 450.167834 401.643052 
L 459.360131 400.918914 
L 467.406405 400.066086 
L 474.647058 399.078307 
L 481.319071 397.946115 
L 487.595325 396.657194 
L 493.619399 395.193934 
L 499.524528 393.53072 
L 505.454953 391.628223 
L 511.59925 389.420937 
L 518.285 386.777496 
L 526.368413 383.329645 
L 549.643456 373.237942 
L 549.643456 373.237942 
" style="fill:none;stroke:#3372cc;stroke-linecap:square;stroke-width:1.5;"/>
   </g>
   <g id="line2d_51">
    <path clip-path="url(#p929cf2ff7c)" d="M 79.024296 404.217549 
L 364.891775 404.106463 
L 391.303485 403.867859 
L 407.581805 403.509826 
L 419.493756 403.034137 
L 428.952231 402.440792 
L 436.836471 401.729047 
L 443.627699 400.897514 
L 449.624451 399.943297 
L 455.021157 398.862816 
L 459.956474 397.650652 
L 464.527662 396.301186 
L 468.812317 394.806289 
L 472.873855 393.154981 
L 476.76069 391.335459 
L 480.518261 389.331112 
L 484.18319 387.123833 
L 487.792012 384.689916 
L 491.379964 382.000466 
L 494.985985 379.017419 
L 498.652442 375.692779 
L 502.431806 371.961741 
L 506.402023 367.724603 
L 510.684527 362.821723 
L 515.524495 356.931403 
L 521.655043 349.09655 
L 537.158992 329.124239 
L 542.057773 323.278372 
L 546.374704 318.466029 
L 549.643456 315.064886 
L 549.643456 315.064886 
" style="fill:none;stroke:#674c9a;stroke-linecap:square;stroke-width:1.5;"/>
   </g>
   <g id="line2d_52">
    <path clip-path="url(#p929cf2ff7c)" d="M 79.024296 405.063641 
L 213.250397 404.946632 
L 245.787704 404.702541 
L 265.929322 404.34055 
L 280.740229 403.860254 
L 292.459989 403.264525 
L 302.210525 402.551648 
L 310.593457 401.719301 
L 317.911276 400.773405 
L 324.470015 399.704421 
L 330.380068 398.519755 
L 335.807195 397.208602 
L 340.831626 395.768934 
L 345.547554 394.187237 
L 349.9645 392.472918 
L 354.14943 390.612237 
L 358.153126 388.589756 
L 361.99118 386.402738 
L 365.698839 384.03475 
L 369.303538 381.46844 
L 372.826658 378.685882 
L 376.284832 375.668968 
L 379.690915 372.399829 
L 383.054746 368.86132 
L 386.397842 365.020618 
L 389.749199 360.828575 
L 393.105064 356.271917 
L 396.495872 351.289012 
L 399.932033 345.839835 
L 403.438915 339.856247 
L 407.041498 333.262836 
L 410.76255 325.982296 
L 414.652652 317.875086 
L 418.776424 308.757792 
L 423.239885 298.337779 
L 428.238327 286.087201 
L 434.276725 270.669238 
L 445.055378 242.39411 
L 453.032495 221.790032 
L 458.572468 208.084654 
L 463.33337 196.885975 
L 467.659816 187.266121 
L 471.703846 178.806639 
L 475.550164 171.268022 
L 479.252292 164.494133 
L 482.847397 158.373425 
L 486.364142 152.819616 
L 489.826194 147.763101 
L 493.25147 143.149745 
L 496.657605 138.931549 
L 500.061374 135.067214 
L 503.476976 131.523262 
L 506.921966 128.267245 
L 510.410952 125.274035 
L 513.961627 122.519708 
L 517.593537 119.983116 
L 521.326838 117.646718 
L 525.184272 115.495098 
L 529.192422 113.514537 
L 533.382087 111.693212 
L 537.789557 110.021005 
L 542.456463 108.489899 
L 547.43514 107.092632 
L 549.643456 106.541987 
L 549.643456 106.541987 
" style="fill:none;stroke:#9a2667;stroke-linecap:square;stroke-width:1.5;"/>
   </g>
   <g id="line2d_53">
    <path clip-path="url(#p929cf2ff7c)" d="M 79.024296 405.062675 
L 199.323174 404.946089 
L 229.395344 404.704187 
L 248.051528 404.345617 
L 261.855722 403.866574 
L 272.732371 403.27425 
L 281.853194 402.558675 
L 289.629262 401.728953 
L 296.418025 400.78573 
L 302.530605 399.713967 
L 308.02845 398.527069 
L 313.093538 397.207513 
L 317.736819 395.771837 
L 322.080103 394.200405 
L 326.212532 392.468972 
L 330.110113 390.595357 
L 333.842623 388.55408 
L 337.424361 386.341205 
L 340.867768 383.953641 
L 344.217474 381.361702 
L 347.508076 378.532758 
L 350.73673 375.461211 
L 353.929251 372.112938 
L 357.079535 368.483644 
L 360.207195 364.539665 
L 363.349794 360.214776 
L 366.49267 355.507891 
L 369.663627 350.355467 
L 372.882636 344.696261 
L 376.162997 338.474226 
L 379.528623 331.607507 
L 383.009381 323.992784 
L 386.637052 315.513093 
L 390.467779 305.983417 
L 394.592544 295.112553 
L 399.157943 282.43613 
L 404.52775 266.84147 
L 412.207537 243.776751 
L 422.99543 211.458044 
L 428.422234 195.933279 
L 433.011609 183.460812 
L 437.158871 172.820039 
L 441.019815 163.514711 
L 444.680172 155.262843 
L 448.19739 147.873596 
L 451.604847 141.224781 
L 454.932202 135.213239 
L 458.199393 129.763612 
L 461.424949 124.810411 
L 464.625869 120.297709 
L 467.817526 116.178374 
L 471.013577 112.413057 
L 474.228203 108.966705 
L 477.475317 105.809218 
L 480.771948 102.91207 
L 484.134507 100.251962 
L 487.579625 97.809373 
L 491.129305 95.564959 
L 494.807489 93.502627 
L 498.639948 91.609362 
L 502.6585 89.8732 
L 506.9009 88.284 
L 511.411925 86.833506 
L 516.246892 85.51476 
L 521.474329 84.322241 
L 527.182103 83.251457 
L 533.487643 82.298573 
L 540.548662 81.460828 
L 548.590743 80.735811 
L 549.643456 80.655739 
L 549.643456 80.655739 
" style="fill:none;stroke:#ce0035;stroke-linecap:square;stroke-width:1.5;"/>
   </g>
   <g id="line2d_54">
    <defs>
     <path d="M 0 3 
C 0.795609 3 1.55874 2.683901 2.12132 2.12132 
C 2.683901 1.55874 3 0.795609 3 0 
C 3 -0.795609 2.683901 -1.55874 2.12132 -2.12132 
C 1.55874 -2.683901 0.795609 -3 0 -3 
C -0.795609 -3 -1.55874 -2.683901 -2.12132 -2.12132 
C -2.683901 -1.55874 -3 -0.795609 -3 0 
C -3 0.795609 -2.683901 1.55874 -2.12132 2.12132 
C -1.55874 2.683901 -0.795609 3 0 3 
z
" id="m82bc761055" style="stroke:#0099ff;"/>
    </defs>
    <g clip-path="url(#p929cf2ff7c)">
     <use style="fill:#0099ff;stroke:#0099ff;" x="-1" xlink:href="#m82bc761055" y="395.335704"/>
     <use style="fill:#0099ff;stroke:#0099ff;" x="181.669632" xlink:href="#m82bc761055" y="395.335907"/>
     <use style="fill:#0099ff;stroke:#0099ff;" x="215.226176" xlink:href="#m82bc761055" y="395.410601"/>
     <use style="fill:#0099ff;stroke:#0099ff;" x="259.585515" xlink:href="#m82bc761055" y="395.363189"/>
     <use style="fill:#0099ff;stroke:#0099ff;" x="293.142059" xlink:href="#m82bc761055" y="395.353258"/>
     <use style="fill:#0099ff;stroke:#0099ff;" x="326.698603" xlink:href="#m82bc761055" y="395.345569"/>
     <use style="fill:#0099ff;stroke:#0099ff;" x="371.057941" xlink:href="#m82bc761055" y="395.319581"/>
     <use style="fill:#0099ff;stroke:#0099ff;" x="404.614485" xlink:href="#m82bc761055" y="395.169826"/>
     <use style="fill:#0099ff;stroke:#0099ff;" x="438.171029" xlink:href="#m82bc761055" y="395.054126"/>
     <use style="fill:#0099ff;stroke:#0099ff;" x="482.530368" xlink:href="#m82bc761055" y="394.302122"/>
     <use style="fill:#0099ff;stroke:#0099ff;" x="516.086912" xlink:href="#m82bc761055" y="393.231796"/>
     <use style="fill:#0099ff;stroke:#0099ff;" x="549.643456" xlink:href="#m82bc761055" y="391.810522"/>
    </g>
   </g>
   <g id="line2d_55">
    <g clip-path="url(#p929cf2ff7c)">
     <use style="fill:#0099ff;stroke:#0099ff;" x="-1" xlink:href="#m82bc761055" y="395.524971"/>
     <use style="fill:#0099ff;stroke:#0099ff;" x="181.669632" xlink:href="#m82bc761055" y="395.525048"/>
     <use style="fill:#0099ff;stroke:#0099ff;" x="215.226176" xlink:href="#m82bc761055" y="395.353614"/>
     <use style="fill:#0099ff;stroke:#0099ff;" x="259.585515" xlink:href="#m82bc761055" y="395.432908"/>
     <use style="fill:#0099ff;stroke:#0099ff;" x="293.142059" xlink:href="#m82bc761055" y="395.387097"/>
     <use style="fill:#0099ff;stroke:#0099ff;" x="326.698603" xlink:href="#m82bc761055" y="395.495858"/>
     <use style="fill:#0099ff;stroke:#0099ff;" x="371.057941" xlink:href="#m82bc761055" y="395.390459"/>
     <use style="fill:#0099ff;stroke:#0099ff;" x="404.614485" xlink:href="#m82bc761055" y="395.227858"/>
     <use style="fill:#0099ff;stroke:#0099ff;" x="438.171029" xlink:href="#m82bc761055" y="395.201814"/>
     <use style="fill:#0099ff;stroke:#0099ff;" x="482.530368" xlink:href="#m82bc761055" y="394.749787"/>
     <use style="fill:#0099ff;stroke:#0099ff;" x="516.086912" xlink:href="#m82bc761055" y="393.656497"/>
     <use style="fill:#0099ff;stroke:#0099ff;" x="549.643456" xlink:href="#m82bc761055" y="392.752918"/>
    </g>
   </g>
   <g id="line2d_56">
    <g clip-path="url(#p929cf2ff7c)">
     <use style="fill:#0099ff;stroke:#0099ff;" x="-1" xlink:href="#m82bc761055" y="395.247677"/>
     <use style="fill:#0099ff;stroke:#0099ff;" x="181.669632" xlink:href="#m82bc761055" y="395.24776"/>
     <use style="fill:#0099ff;stroke:#0099ff;" x="215.226176" xlink:href="#m82bc761055" y="395.181637"/>
     <use style="fill:#0099ff;stroke:#0099ff;" x="259.585515" xlink:href="#m82bc761055" y="395.120473"/>
     <use style="fill:#0099ff;stroke:#0099ff;" x="293.142059" xlink:href="#m82bc761055" y="395.031434"/>
     <use style="fill:#0099ff;stroke:#0099ff;" x="326.698603" xlink:href="#m82bc761055" y="395.256625"/>
     <use style="fill:#0099ff;stroke:#0099ff;" x="371.057941" xlink:href="#m82bc761055" y="395.138821"/>
     <use style="fill:#0099ff;stroke:#0099ff;" x="404.614485" xlink:href="#m82bc761055" y="394.959471"/>
     <use style="fill:#0099ff;stroke:#0099ff;" x="438.171029" xlink:href="#m82bc761055" y="394.771968"/>
     <use style="fill:#0099ff;stroke:#0099ff;" x="482.530368" xlink:href="#m82bc761055" y="394.290665"/>
     <use style="fill:#0099ff;stroke:#0099ff;" x="516.086912" xlink:href="#m82bc761055" y="393.312527"/>
     <use style="fill:#0099ff;stroke:#0099ff;" x="549.643456" xlink:href="#m82bc761055" y="392.614389"/>
    </g>
   </g>
   <g id="line2d_57">
    <defs>
     <path d="M 0 3 
C 0.795609 3 1.55874 2.683901 2.12132 2.12132 
C 2.683901 1.55874 3 0.795609 3 0 
C 3 -0.795609 2.683901 -1.55874 2.12132 -2.12132 
C 1.55874 -2.683901 0.795609 -3 0 -3 
C -0.795609 -3 -1.55874 -2.683901 -2.12132 -2.12132 
C -2.683901 -1.55874 -3 -0.795609 -3 0 
C -3 0.795609 -2.683901 1.55874 -2.12132 2.12132 
C -1.55874 2.683901 -0.795609 3 0 3 
z
" id="mf7f61212fc" style="stroke:#3372cc;"/>
    </defs>
    <g clip-path="url(#p929cf2ff7c)">
     <use style="fill:#3372cc;stroke:#3372cc;" x="-1" xlink:href="#mf7f61212fc" y="403.552027"/>
     <use style="fill:#3372cc;stroke:#3372cc;" x="181.669632" xlink:href="#mf7f61212fc" y="403.552058"/>
     <use style="fill:#3372cc;stroke:#3372cc;" x="215.226176" xlink:href="#mf7f61212fc" y="403.531951"/>
     <use style="fill:#3372cc;stroke:#3372cc;" x="259.585515" xlink:href="#mf7f61212fc" y="403.446356"/>
     <use style="fill:#3372cc;stroke:#3372cc;" x="293.142059" xlink:href="#mf7f61212fc" y="403.480731"/>
     <use style="fill:#3372cc;stroke:#3372cc;" x="326.698603" xlink:href="#mf7f61212fc" y="403.43846"/>
     <use style="fill:#3372cc;stroke:#3372cc;" x="371.057941" xlink:href="#mf7f61212fc" y="403.214666"/>
     <use style="fill:#3372cc;stroke:#3372cc;" x="404.614485" xlink:href="#mf7f61212fc" y="402.894392"/>
     <use style="fill:#3372cc;stroke:#3372cc;" x="438.171029" xlink:href="#mf7f61212fc" y="402.039183"/>
     <use style="fill:#3372cc;stroke:#3372cc;" x="482.530368" xlink:href="#mf7f61212fc" y="397.845494"/>
     <use style="fill:#3372cc;stroke:#3372cc;" x="516.086912" xlink:href="#mf7f61212fc" y="387.056132"/>
     <use style="fill:#3372cc;stroke:#3372cc;" x="549.643456" xlink:href="#mf7f61212fc" y="374.423301"/>
    </g>
   </g>
   <g id="line2d_58">
    <g clip-path="url(#p929cf2ff7c)">
     <use style="fill:#3372cc;stroke:#3372cc;" x="-1" xlink:href="#mf7f61212fc" y="403.569155"/>
     <use style="fill:#3372cc;stroke:#3372cc;" x="181.669632" xlink:href="#mf7f61212fc" y="403.569104"/>
     <use style="fill:#3372cc;stroke:#3372cc;" x="215.226176" xlink:href="#mf7f61212fc" y="403.607309"/>
     <use style="fill:#3372cc;stroke:#3372cc;" x="259.585515" xlink:href="#mf7f61212fc" y="403.50846"/>
     <use style="fill:#3372cc;stroke:#3372cc;" x="293.142059" xlink:href="#mf7f61212fc" y="403.492183"/>
     <use style="fill:#3372cc;stroke:#3372cc;" x="326.698603" xlink:href="#mf7f61212fc" y="403.482683"/>
     <use style="fill:#3372cc;stroke:#3372cc;" x="371.057941" xlink:href="#mf7f61212fc" y="403.299657"/>
     <use style="fill:#3372cc;stroke:#3372cc;" x="404.614485" xlink:href="#mf7f61212fc" y="402.894251"/>
     <use style="fill:#3372cc;stroke:#3372cc;" x="438.171029" xlink:href="#mf7f61212fc" y="402.115273"/>
     <use style="fill:#3372cc;stroke:#3372cc;" x="482.530368" xlink:href="#mf7f61212fc" y="398.185156"/>
     <use style="fill:#3372cc;stroke:#3372cc;" x="516.086912" xlink:href="#mf7f61212fc" y="388.426601"/>
     <use style="fill:#3372cc;stroke:#3372cc;" x="549.643456" xlink:href="#mf7f61212fc" y="372.117442"/>
    </g>
   </g>
   <g id="line2d_59">
    <g clip-path="url(#p929cf2ff7c)">
     <use style="fill:#3372cc;stroke:#3372cc;" x="-1" xlink:href="#mf7f61212fc" y="403.543543"/>
     <use style="fill:#3372cc;stroke:#3372cc;" x="181.669632" xlink:href="#mf7f61212fc" y="403.543684"/>
     <use style="fill:#3372cc;stroke:#3372cc;" x="215.226176" xlink:href="#mf7f61212fc" y="403.530879"/>
     <use style="fill:#3372cc;stroke:#3372cc;" x="259.585515" xlink:href="#mf7f61212fc" y="403.528128"/>
     <use style="fill:#3372cc;stroke:#3372cc;" x="293.142059" xlink:href="#mf7f61212fc" y="403.345458"/>
     <use style="fill:#3372cc;stroke:#3372cc;" x="326.698603" xlink:href="#mf7f61212fc" y="403.365253"/>
     <use style="fill:#3372cc;stroke:#3372cc;" x="371.057941" xlink:href="#mf7f61212fc" y="403.187651"/>
     <use style="fill:#3372cc;stroke:#3372cc;" x="404.614485" xlink:href="#mf7f61212fc" y="402.885074"/>
     <use style="fill:#3372cc;stroke:#3372cc;" x="438.171029" xlink:href="#mf7f61212fc" y="401.964309"/>
     <use style="fill:#3372cc;stroke:#3372cc;" x="482.530368" xlink:href="#mf7f61212fc" y="397.768466"/>
     <use style="fill:#3372cc;stroke:#3372cc;" x="516.086912" xlink:href="#mf7f61212fc" y="387.270881"/>
     <use style="fill:#3372cc;stroke:#3372cc;" x="549.643456" xlink:href="#mf7f61212fc" y="373.221783"/>
    </g>
   </g>
   <g id="line2d_60">
    <defs>
     <path d="M 0 3 
C 0.795609 3 1.55874 2.683901 2.12132 2.12132 
C 2.683901 1.55874 3 0.795609 3 0 
C 3 -0.795609 2.683901 -1.55874 2.12132 -2.12132 
C 1.55874 -2.683901 0.795609 -3 0 -3 
C -0.795609 -3 -1.55874 -2.683901 -2.12132 -2.12132 
C -2.683901 -1.55874 -3 -0.795609 -3 0 
C -3 0.795609 -2.683901 1.55874 -2.12132 2.12132 
C -1.55874 2.683901 -0.795609 3 0 3 
z
" id="m30ed140672" style="stroke:#674c9a;"/>
    </defs>
    <g clip-path="url(#p929cf2ff7c)">
     <use style="fill:#674c9a;stroke:#674c9a;" x="-1" xlink:href="#m30ed140672" y="404.366232"/>
     <use style="fill:#674c9a;stroke:#674c9a;" x="181.669632" xlink:href="#m30ed140672" y="404.366195"/>
     <use style="fill:#674c9a;stroke:#674c9a;" x="215.226176" xlink:href="#m30ed140672" y="404.323618"/>
     <use style="fill:#674c9a;stroke:#674c9a;" x="259.585515" xlink:href="#m30ed140672" y="404.304753"/>
     <use style="fill:#674c9a;stroke:#674c9a;" x="293.142059" xlink:href="#m30ed140672" y="404.192012"/>
     <use style="fill:#674c9a;stroke:#674c9a;" x="326.698603" xlink:href="#m30ed140672" y="404.206869"/>
     <use style="fill:#674c9a;stroke:#674c9a;" x="371.057941" xlink:href="#m30ed140672" y="403.90826"/>
     <use style="fill:#674c9a;stroke:#674c9a;" x="404.614485" xlink:href="#m30ed140672" y="403.353308"/>
     <use style="fill:#674c9a;stroke:#674c9a;" x="438.171029" xlink:href="#m30ed140672" y="401.423835"/>
     <use style="fill:#674c9a;stroke:#674c9a;" x="482.530368" xlink:href="#m30ed140672" y="387.743242"/>
     <use style="fill:#674c9a;stroke:#674c9a;" x="516.086912" xlink:href="#m30ed140672" y="358.661897"/>
     <use style="fill:#674c9a;stroke:#674c9a;" x="549.643456" xlink:href="#m30ed140672" y="317.632203"/>
    </g>
   </g>
   <g id="line2d_61">
    <g clip-path="url(#p929cf2ff7c)">
     <use style="fill:#674c9a;stroke:#674c9a;" x="-1" xlink:href="#m30ed140672" y="404.328236"/>
     <use style="fill:#674c9a;stroke:#674c9a;" x="181.669632" xlink:href="#m30ed140672" y="404.328393"/>
     <use style="fill:#674c9a;stroke:#674c9a;" x="215.226176" xlink:href="#m30ed140672" y="404.292012"/>
     <use style="fill:#674c9a;stroke:#674c9a;" x="259.585515" xlink:href="#m30ed140672" y="404.227907"/>
     <use style="fill:#674c9a;stroke:#674c9a;" x="293.142059" xlink:href="#m30ed140672" y="404.155785"/>
     <use style="fill:#674c9a;stroke:#674c9a;" x="326.698603" xlink:href="#m30ed140672" y="404.089661"/>
     <use style="fill:#674c9a;stroke:#674c9a;" x="371.057941" xlink:href="#m30ed140672" y="403.963141"/>
     <use style="fill:#674c9a;stroke:#674c9a;" x="404.614485" xlink:href="#m30ed140672" y="403.325419"/>
     <use style="fill:#674c9a;stroke:#674c9a;" x="438.171029" xlink:href="#m30ed140672" y="401.381662"/>
     <use style="fill:#674c9a;stroke:#674c9a;" x="482.530368" xlink:href="#m30ed140672" y="388.720444"/>
     <use style="fill:#674c9a;stroke:#674c9a;" x="516.086912" xlink:href="#m30ed140672" y="358.339954"/>
     <use style="fill:#674c9a;stroke:#674c9a;" x="549.643456" xlink:href="#m30ed140672" y="321.663419"/>
    </g>
   </g>
   <g id="line2d_62">
    <g clip-path="url(#p929cf2ff7c)">
     <use style="fill:#674c9a;stroke:#674c9a;" x="-1" xlink:href="#m30ed140672" y="404.365587"/>
     <use style="fill:#674c9a;stroke:#674c9a;" x="181.669632" xlink:href="#m30ed140672" y="404.365642"/>
     <use style="fill:#674c9a;stroke:#674c9a;" x="215.226176" xlink:href="#m30ed140672" y="404.359906"/>
     <use style="fill:#674c9a;stroke:#674c9a;" x="259.585515" xlink:href="#m30ed140672" y="404.404288"/>
     <use style="fill:#674c9a;stroke:#674c9a;" x="293.142059" xlink:href="#m30ed140672" y="404.297451"/>
     <use style="fill:#674c9a;stroke:#674c9a;" x="326.698603" xlink:href="#m30ed140672" y="404.239678"/>
     <use style="fill:#674c9a;stroke:#674c9a;" x="371.057941" xlink:href="#m30ed140672" y="403.974795"/>
     <use style="fill:#674c9a;stroke:#674c9a;" x="404.614485" xlink:href="#m30ed140672" y="403.405301"/>
     <use style="fill:#674c9a;stroke:#674c9a;" x="438.171029" xlink:href="#m30ed140672" y="401.490016"/>
     <use style="fill:#674c9a;stroke:#674c9a;" x="482.530368" xlink:href="#m30ed140672" y="388.356201"/>
     <use style="fill:#674c9a;stroke:#674c9a;" x="516.086912" xlink:href="#m30ed140672" y="351.536545"/>
     <use style="fill:#674c9a;stroke:#674c9a;" x="549.643456" xlink:href="#m30ed140672" y="305.929019"/>
    </g>
   </g>
   <g id="line2d_63">
    <defs>
     <path d="M 0 3 
C 0.795609 3 1.55874 2.683901 2.12132 2.12132 
C 2.683901 1.55874 3 0.795609 3 0 
C 3 -0.795609 2.683901 -1.55874 2.12132 -2.12132 
C 1.55874 -2.683901 0.795609 -3 0 -3 
C -0.795609 -3 -1.55874 -2.683901 -2.12132 -2.12132 
C -2.683901 -1.55874 -3 -0.795609 -3 0 
C -3 0.795609 -2.683901 1.55874 -2.12132 2.12132 
C -1.55874 2.683901 -0.795609 3 0 3 
z
" id="me026a6f2d3" style="stroke:#9a2667;"/>
    </defs>
    <g clip-path="url(#p929cf2ff7c)">
     <use style="fill:#9a2667;stroke:#9a2667;" x="-1" xlink:href="#me026a6f2d3" y="404.405727"/>
     <use style="fill:#9a2667;stroke:#9a2667;" x="181.669632" xlink:href="#me026a6f2d3" y="404.405711"/>
     <use style="fill:#9a2667;stroke:#9a2667;" x="215.226176" xlink:href="#me026a6f2d3" y="404.341034"/>
     <use style="fill:#9a2667;stroke:#9a2667;" x="259.585515" xlink:href="#me026a6f2d3" y="404.080077"/>
     <use style="fill:#9a2667;stroke:#9a2667;" x="293.142059" xlink:href="#me026a6f2d3" y="403.33626"/>
     <use style="fill:#9a2667;stroke:#9a2667;" x="326.698603" xlink:href="#me026a6f2d3" y="400.951894"/>
     <use style="fill:#9a2667;stroke:#9a2667;" x="371.057941" xlink:href="#me026a6f2d3" y="382.056651"/>
     <use style="fill:#9a2667;stroke:#9a2667;" x="404.614485" xlink:href="#me026a6f2d3" y="340.869048"/>
     <use style="fill:#9a2667;stroke:#9a2667;" x="438.171029" xlink:href="#me026a6f2d3" y="259.96631"/>
     <use style="fill:#9a2667;stroke:#9a2667;" x="482.530368" xlink:href="#me026a6f2d3" y="167.014601"/>
     <use style="fill:#9a2667;stroke:#9a2667;" x="516.086912" xlink:href="#me026a6f2d3" y="122.298119"/>
     <use style="fill:#9a2667;stroke:#9a2667;" x="549.643456" xlink:href="#me026a6f2d3" y="121.753924"/>
    </g>
   </g>
   <g id="line2d_64">
    <g clip-path="url(#p929cf2ff7c)">
     <use style="fill:#9a2667;stroke:#9a2667;" x="-1" xlink:href="#me026a6f2d3" y="404.387608"/>
     <use style="fill:#9a2667;stroke:#9a2667;" x="181.669632" xlink:href="#me026a6f2d3" y="404.387491"/>
     <use style="fill:#9a2667;stroke:#9a2667;" x="215.226176" xlink:href="#me026a6f2d3" y="404.302903"/>
     <use style="fill:#9a2667;stroke:#9a2667;" x="259.585515" xlink:href="#me026a6f2d3" y="404.084828"/>
     <use style="fill:#9a2667;stroke:#9a2667;" x="293.142059" xlink:href="#me026a6f2d3" y="403.178213"/>
     <use style="fill:#9a2667;stroke:#9a2667;" x="326.698603" xlink:href="#me026a6f2d3" y="400.913976"/>
     <use style="fill:#9a2667;stroke:#9a2667;" x="371.057941" xlink:href="#me026a6f2d3" y="382.269816"/>
     <use style="fill:#9a2667;stroke:#9a2667;" x="404.614485" xlink:href="#me026a6f2d3" y="338.283723"/>
     <use style="fill:#9a2667;stroke:#9a2667;" x="438.171029" xlink:href="#me026a6f2d3" y="262.466337"/>
     <use style="fill:#9a2667;stroke:#9a2667;" x="482.530368" xlink:href="#me026a6f2d3" y="162.233573"/>
     <use style="fill:#9a2667;stroke:#9a2667;" x="516.086912" xlink:href="#me026a6f2d3" y="122.32221"/>
     <use style="fill:#9a2667;stroke:#9a2667;" x="549.643456" xlink:href="#me026a6f2d3" y="82.527195"/>
    </g>
   </g>
   <g id="line2d_65">
    <g clip-path="url(#p929cf2ff7c)">
     <use style="fill:#9a2667;stroke:#9a2667;" x="-1" xlink:href="#me026a6f2d3" y="404.320897"/>
     <use style="fill:#9a2667;stroke:#9a2667;" x="181.669632" xlink:href="#me026a6f2d3" y="404.320674"/>
     <use style="fill:#9a2667;stroke:#9a2667;" x="215.226176" xlink:href="#me026a6f2d3" y="404.202937"/>
     <use style="fill:#9a2667;stroke:#9a2667;" x="259.585515" xlink:href="#me026a6f2d3" y="404.067208"/>
     <use style="fill:#9a2667;stroke:#9a2667;" x="293.142059" xlink:href="#me026a6f2d3" y="403.145648"/>
     <use style="fill:#9a2667;stroke:#9a2667;" x="326.698603" xlink:href="#me026a6f2d3" y="400.699472"/>
     <use style="fill:#9a2667;stroke:#9a2667;" x="371.057941" xlink:href="#me026a6f2d3" y="380.602573"/>
     <use style="fill:#9a2667;stroke:#9a2667;" x="404.614485" xlink:href="#me026a6f2d3" y="333.428702"/>
     <use style="fill:#9a2667;stroke:#9a2667;" x="438.171029" xlink:href="#me026a6f2d3" y="254.861954"/>
     <use style="fill:#9a2667;stroke:#9a2667;" x="482.530368" xlink:href="#me026a6f2d3" y="152.711038"/>
     <use style="fill:#9a2667;stroke:#9a2667;" x="516.086912" xlink:href="#me026a6f2d3" y="117.713601"/>
     <use style="fill:#9a2667;stroke:#9a2667;" x="549.643456" xlink:href="#me026a6f2d3" y="113.354113"/>
    </g>
   </g>
   <g id="line2d_66">
    <defs>
     <path d="M 0 3 
C 0.795609 3 1.55874 2.683901 2.12132 2.12132 
C 2.683901 1.55874 3 0.795609 3 0 
C 3 -0.795609 2.683901 -1.55874 2.12132 -2.12132 
C 1.55874 -2.683901 0.795609 -3 0 -3 
C -0.795609 -3 -1.55874 -2.683901 -2.12132 -2.12132 
C -2.683901 -1.55874 -3 -0.795609 -3 0 
C -3 0.795609 -2.683901 1.55874 -2.12132 2.12132 
C -1.55874 2.683901 -0.795609 3 0 3 
z
" id="m99d8f42e1e" style="stroke:#ce0035;"/>
    </defs>
    <g clip-path="url(#p929cf2ff7c)">
     <use style="fill:#ce0035;stroke:#ce0035;" x="-1" xlink:href="#m99d8f42e1e" y="404.336337"/>
     <use style="fill:#ce0035;stroke:#ce0035;" x="181.669632" xlink:href="#m99d8f42e1e" y="404.336127"/>
     <use style="fill:#ce0035;stroke:#ce0035;" x="215.226176" xlink:href="#m99d8f42e1e" y="404.367155"/>
     <use style="fill:#ce0035;stroke:#ce0035;" x="259.585515" xlink:href="#m99d8f42e1e" y="403.83457"/>
     <use style="fill:#ce0035;stroke:#ce0035;" x="293.142059" xlink:href="#m99d8f42e1e" y="401.787483"/>
     <use style="fill:#ce0035;stroke:#ce0035;" x="326.698603" xlink:href="#m99d8f42e1e" y="394.189236"/>
     <use style="fill:#ce0035;stroke:#ce0035;" x="371.057941" xlink:href="#m99d8f42e1e" y="342.940916"/>
     <use style="fill:#ce0035;stroke:#ce0035;" x="404.614485" xlink:href="#m99d8f42e1e" y="260.148026"/>
     <use style="fill:#ce0035;stroke:#ce0035;" x="438.171029" xlink:href="#m99d8f42e1e" y="162.860393"/>
     <use style="fill:#ce0035;stroke:#ce0035;" x="482.530368" xlink:href="#m99d8f42e1e" y="92.960897"/>
     <use style="fill:#ce0035;stroke:#ce0035;" x="516.086912" xlink:href="#m99d8f42e1e" y="73.4328"/>
     <use style="fill:#ce0035;stroke:#ce0035;" x="549.643456" xlink:href="#m99d8f42e1e" y="80.609628"/>
    </g>
   </g>
   <g id="line2d_67">
    <g clip-path="url(#p929cf2ff7c)">
     <use style="fill:#ce0035;stroke:#ce0035;" x="-1" xlink:href="#m99d8f42e1e" y="404.446116"/>
     <use style="fill:#ce0035;stroke:#ce0035;" x="181.669632" xlink:href="#m99d8f42e1e" y="404.44599"/>
     <use style="fill:#ce0035;stroke:#ce0035;" x="215.226176" xlink:href="#m99d8f42e1e" y="404.247924"/>
     <use style="fill:#ce0035;stroke:#ce0035;" x="259.585515" xlink:href="#m99d8f42e1e" y="403.894319"/>
     <use style="fill:#ce0035;stroke:#ce0035;" x="293.142059" xlink:href="#m99d8f42e1e" y="402.084356"/>
     <use style="fill:#ce0035;stroke:#ce0035;" x="326.698603" xlink:href="#m99d8f42e1e" y="395.425819"/>
     <use style="fill:#ce0035;stroke:#ce0035;" x="371.057941" xlink:href="#m99d8f42e1e" y="348.784335"/>
     <use style="fill:#ce0035;stroke:#ce0035;" x="404.614485" xlink:href="#m99d8f42e1e" y="265.636908"/>
     <use style="fill:#ce0035;stroke:#ce0035;" x="438.171029" xlink:href="#m99d8f42e1e" y="178.372999"/>
     <use style="fill:#ce0035;stroke:#ce0035;" x="482.530368" xlink:href="#m99d8f42e1e" y="101.569519"/>
     <use style="fill:#ce0035;stroke:#ce0035;" x="516.086912" xlink:href="#m99d8f42e1e" y="89.617367"/>
     <use style="fill:#ce0035;stroke:#ce0035;" x="549.643456" xlink:href="#m99d8f42e1e" y="91.865478"/>
    </g>
   </g>
   <g id="line2d_68">
    <g clip-path="url(#p929cf2ff7c)">
     <use style="fill:#ce0035;stroke:#ce0035;" x="-1" xlink:href="#m99d8f42e1e" y="404.430982"/>
     <use style="fill:#ce0035;stroke:#ce0035;" x="181.669632" xlink:href="#m99d8f42e1e" y="404.430891"/>
     <use style="fill:#ce0035;stroke:#ce0035;" x="215.226176" xlink:href="#m99d8f42e1e" y="404.316099"/>
     <use style="fill:#ce0035;stroke:#ce0035;" x="259.585515" xlink:href="#m99d8f42e1e" y="403.713639"/>
     <use style="fill:#ce0035;stroke:#ce0035;" x="293.142059" xlink:href="#m99d8f42e1e" y="401.934729"/>
     <use style="fill:#ce0035;stroke:#ce0035;" x="326.698603" xlink:href="#m99d8f42e1e" y="395.110206"/>
     <use style="fill:#ce0035;stroke:#ce0035;" x="371.057941" xlink:href="#m99d8f42e1e" y="347.170926"/>
     <use style="fill:#ce0035;stroke:#ce0035;" x="404.614485" xlink:href="#m99d8f42e1e" y="270.636241"/>
     <use style="fill:#ce0035;stroke:#ce0035;" x="438.171029" xlink:href="#m99d8f42e1e" y="180.094739"/>
     <use style="fill:#ce0035;stroke:#ce0035;" x="482.530368" xlink:href="#m99d8f42e1e" y="97.842079"/>
     <use style="fill:#ce0035;stroke:#ce0035;" x="516.086912" xlink:href="#m99d8f42e1e" y="84.775701"/>
     <use style="fill:#ce0035;stroke:#ce0035;" x="549.643456" xlink:href="#m99d8f42e1e" y="83.972138"/>
    </g>
   </g>
   <g id="patch_3">
    <path d="M 81 421.6464 
L 81 56.8512 
" style="fill:none;stroke:#000000;stroke-linecap:square;stroke-linejoin:miter;stroke-width:0.8;"/>
   </g>
   <g id="patch_4">
    <path d="M 81 421.6464 
L 583.2 421.6464 
" style="fill:none;stroke:#000000;stroke-linecap:square;stroke-linejoin:miter;stroke-width:0.8;"/>
   </g>
   <g id="legend_1">
    <g id="patch_5">
     <path d="M 95 216.898075 
L 213.55 216.898075 
Q 217.55 216.898075 217.55 212.898075 
L 217.55 70.8512 
Q 217.55 66.8512 213.55 66.8512 
L 95 66.8512 
Q 91 66.8512 91 70.8512 
L 91 212.898075 
Q 91 216.898075 95 216.898075 
z
" style="fill:#ffffff;opacity:0.8;stroke:#cccccc;stroke-linejoin:miter;"/>
    </g>
    <g id="line2d_69">
     <path d="M 99 82.65745 
L 139 82.65745 
" style="fill:none;stroke:#0099ff;stroke-linecap:square;stroke-width:1.5;"/>
    </g>
    <g id="line2d_70"/>
    <g id="text_15">
     <!-- WT -->
     <defs>
      <path d="M 75.296875 0 
L 64.9375 0 
L 47.859375 60.84375 
L 31.25 0 
L 20.90625 0 
L 1.953125 74.03125 
L 12.5 74.03125 
L 26.46875 13.875 
L 42.875 74.03125 
L 53.03125 74.03125 
L 69.921875 13.875 
L 83.5 74.03125 
L 94.046875 74.03125 
z
" id="Gargi-87"/>
      <path d="M 38.671875 65.71875 
L 38.671875 0 
L 29.203125 0 
L 29.203125 65.71875 
L 4.890625 65.71875 
L 4.890625 74.03125 
L 62.984375 74.03125 
L 62.984375 65.71875 
z
" id="Gargi-84"/>
     </defs>
     <g transform="translate(155 89.65745)scale(0.2 -0.2)">
      <use xlink:href="#Gargi-87"/>
      <use x="95.996094" xlink:href="#Gargi-84"/>
     </g>
    </g>
    <g id="line2d_71">
     <path d="M 99 111.466825 
L 139 111.466825 
" style="fill:none;stroke:#3372cc;stroke-linecap:square;stroke-width:1.5;"/>
    </g>
    <g id="line2d_72"/>
    <g id="text_16">
     <!-- NOS1 -->
     <defs>
      <path d="M 62.796875 74.03125 
L 62.796875 0 
L 52.15625 0 
L 13.875 60.0625 
L 13.875 0 
L 4.890625 0 
L 4.890625 74.03125 
L 15.140625 74.03125 
L 53.8125 13.484375 
L 53.8125 74.03125 
z
" id="Gargi-78"/>
      <path d="M 38.578125 68.171875 
Q 25.203125 68.171875 17.96875 58.015625 
Q 12.3125 50.09375 12.3125 38.28125 
Q 12.3125 22.65625 21.96875 14.359375 
Q 28.90625 8.40625 38.375 8.40625 
Q 38.484375 8.40625 38.671875 8.40625 
Q 51.65625 8.40625 59.078125 18.359375 
Q 64.9375 26.265625 64.9375 37.890625 
Q 64.9375 54.390625 54.984375 62.59375 
Q 48.25 68.171875 38.578125 68.171875 
z
M 38.578125 76.375 
Q 56.25 76.375 66.015625 64.15625 
Q 74.421875 53.71875 74.421875 37.703125 
Q 74.421875 22.953125 66.015625 12.5 
Q 63.96875 9.859375 61.625 7.90625 
Q 52.34375 0.296875 38.671875 0.296875 
Q 21.78125 0.296875 11.71875 12.015625 
Q 2.9375 22.265625 2.9375 38.28125 
Q 2.9375 56.734375 14.15625 67.28125 
Q 23.828125 76.375 38.578125 76.375 
z
" id="Gargi-79"/>
      <path d="M 58.59375 53.90625 
L 49.609375 53.90625 
Q 49.609375 64.84375 38.484375 67.78125 
Q 35.0625 68.65625 31.15625 68.65625 
Q 20.515625 68.5625 16.40625 62.40625 
Q 14.65625 59.765625 14.65625 56.34375 
Q 14.65625 50.59375 20.125 47.953125 
Q 22.5625 46.78125 26.765625 45.515625 
L 45.40625 40.71875 
Q 57.515625 37.40625 60.453125 27.734375 
Q 61.140625 25.484375 61.140625 22.46875 
Q 61.140625 14.15625 55.28125 7.8125 
L 53.03125 5.859375 
Q 45.609375 0.296875 32.125 0.296875 
Q 15.234375 0.296875 7.328125 10.640625 
Q 2.9375 16.40625 2.9375 25.6875 
L 11.8125 25.6875 
L 12.203125 21.875 
Q 12.890625 17.78125 15.71875 14.546875 
Q 21.09375 8.40625 32.8125 8.40625 
Q 41.796875 8.40625 46.390625 11.625 
Q 50.875 14.75 51.5625 20.21875 
Q 51.65625 21 51.65625 21.578125 
Q 51.65625 28.90625 40.53125 32.625 
Q 39.359375 33.015625 38.09375 33.296875 
L 19.734375 38.09375 
Q 5.171875 41.890625 5.171875 55.078125 
Q 5.171875 67.484375 15.71875 72.953125 
Q 22.265625 76.375 31.453125 76.375 
Q 49.421875 76.375 55.765625 65.234375 
Q 58.59375 60.359375 58.59375 53.90625 
z
" id="Gargi-83"/>
      <path d="M 22.75 51.265625 
L 6.84375 51.265625 
L 6.84375 57.71875 
Q 17.1875 58.984375 20.21875 61.328125 
Q 23.34375 63.578125 25.390625 70.796875 
L 25.875 71.96875 
L 31.734375 71.96875 
L 31.734375 0 
L 22.75 0 
z
" id="Gargi-49"/>
     </defs>
     <g transform="translate(155 118.466825)scale(0.2 -0.2)">
      <use xlink:href="#Gargi-78"/>
      <use x="67.675781" xlink:href="#Gargi-79"/>
      <use x="145.019531" xlink:href="#Gargi-83"/>
      <use x="209.082031" xlink:href="#Gargi-49"/>
     </g>
    </g>
    <g id="line2d_73">
     <path d="M 99 140.2762 
L 139 140.2762 
" style="fill:none;stroke:#674c9a;stroke-linecap:square;stroke-width:1.5;"/>
    </g>
    <g id="line2d_74"/>
    <g id="text_17">
     <!-- NOS2 -->
     <defs>
      <path d="M 54.78125 8.796875 
L 54.78125 0 
L 6.84375 0 
Q 6.84375 12.984375 12.703125 19.828125 
Q 17.96875 25.984375 27.046875 31.15625 
L 36.421875 36.421875 
Q 46.1875 42.09375 46.1875 50.6875 
Q 46.1875 58.015625 40.046875 61.921875 
Q 36.53125 64.15625 31.9375 64.15625 
Q 24.3125 64.15625 20.3125 58.40625 
L 19.53125 57.234375 
Q 17.484375 53.90625 17.484375 47.078125 
L 8.5 47.078125 
Q 8.5 57.234375 12.40625 62.703125 
Q 19.046875 71.96875 32.234375 71.96875 
Q 42.28125 71.96875 48.640625 66.3125 
Q 55.28125 60.25 55.28125 50.875 
Q 55.28125 37.5 40.046875 29.109375 
L 29.890625 23.640625 
Q 20.703125 18.265625 18.265625 13.28125 
Q 17.28125 11.234375 16.890625 8.796875 
z
" id="Gargi-50"/>
     </defs>
     <g transform="translate(155 147.2762)scale(0.2 -0.2)">
      <use xlink:href="#Gargi-78"/>
      <use x="67.675781" xlink:href="#Gargi-79"/>
      <use x="145.019531" xlink:href="#Gargi-83"/>
      <use x="209.082031" xlink:href="#Gargi-50"/>
     </g>
    </g>
    <g id="line2d_75">
     <path d="M 99 169.085575 
L 139 169.085575 
" style="fill:none;stroke:#9a2667;stroke-linecap:square;stroke-width:1.5;"/>
    </g>
    <g id="line2d_76"/>
    <g id="text_18">
     <!-- NOS3 -->
     <defs>
      <path d="M 26.078125 35.25 
L 26.078125 42.78125 
Q 34.578125 42.78125 37.984375 44.34375 
Q 43.75 46.96875 43.75 54 
Q 43.75 62.703125 36.625 65.4375 
Q 34.1875 66.3125 31.0625 66.3125 
Q 23.046875 66.3125 19.4375 60.84375 
Q 19.140625 60.359375 18.953125 59.96875 
Q 17.28125 57.03125 17.28125 50.875 
L 8.40625 50.875 
Q 8.40625 74.03125 27.640625 74.03125 
Q 28.71875 74.03125 30.953125 74.125 
Q 31.734375 74.125 32.421875 74.125 
Q 44.734375 74.125 50.390625 64.65625 
Q 52.828125 60.453125 52.828125 54.390625 
Q 52.828125 43.359375 42.78125 39.453125 
Q 52.25 36.140625 54.296875 28.421875 
Q 54.984375 25.78125 54.984375 22.265625 
Q 54.984375 9.859375 45.40625 3.71875 
Q 39.265625 -0.203125 30.671875 -0.203125 
Q 15.625 -0.203125 10.0625 10.25 
Q 6.84375 15.140625 6.84375 23.046875 
L 15.828125 23.046875 
Q 15.828125 9.671875 27.25 8.015625 
Q 29.296875 7.71875 30.953125 7.71875 
Q 41.5 7.71875 44.734375 15.71875 
Q 45.90625 18.5625 45.90625 22.171875 
Q 45.90625 35.25 30.953125 35.25 
L 27.15625 35.25 
z
" id="Gargi-51"/>
     </defs>
     <g transform="translate(155 176.085575)scale(0.2 -0.2)">
      <use xlink:href="#Gargi-78"/>
      <use x="67.675781" xlink:href="#Gargi-79"/>
      <use x="145.019531" xlink:href="#Gargi-83"/>
      <use x="209.082031" xlink:href="#Gargi-51"/>
     </g>
    </g>
    <g id="line2d_77">
     <path d="M 99 197.89495 
L 139 197.89495 
" style="fill:none;stroke:#ce0035;stroke-linecap:square;stroke-width:1.5;"/>
    </g>
    <g id="line2d_78"/>
    <g id="text_19">
     <!-- NOS4 -->
     <defs>
      <path d="M 37.203125 25.296875 
L 37.203125 56.734375 
L 14.65625 25.296875 
z
M 37.203125 17.28125 
L 6.84375 17.28125 
L 6.84375 26.765625 
L 39.546875 71.96875 
L 46.1875 71.96875 
L 46.1875 25.296875 
L 56.84375 25.296875 
L 56.84375 17.28125 
L 46.1875 17.28125 
L 46.1875 0 
L 37.203125 0 
z
" id="Gargi-52"/>
     </defs>
     <g transform="translate(155 204.89495)scale(0.2 -0.2)">
      <use xlink:href="#Gargi-78"/>
      <use x="67.675781" xlink:href="#Gargi-79"/>
      <use x="145.019531" xlink:href="#Gargi-83"/>
      <use x="209.082031" xlink:href="#Gargi-52"/>
     </g>
    </g>
   </g>
  </g>
 </g>
 <defs>
  <clipPath id="p929cf2ff7c">
   <rect height="364.7952" width="502.2" x="81" y="56.8512"/>
  </clipPath>
 </defs>
</svg>
