<?xml version="1.0" encoding="utf-8" standalone="no"?>
<!DOCTYPE svg PUBLIC "-//W3C//DTD SVG 1.1//EN"
  "http://www.w3.org/Graphics/SVG/1.1/DTD/svg11.dtd">
<!-- Created with matplotlib (https://matplotlib.org/) -->
<svg height="473.76pt" version="1.1" viewBox="0 0 648 473.76" width="648pt" xmlns="http://www.w3.org/2000/svg" xmlns:xlink="http://www.w3.org/1999/xlink">
 <defs>
  <style type="text/css">
*{stroke-linecap:butt;stroke-linejoin:round;}
  </style>
 </defs>
 <g id="figure_1">
  <g id="patch_1">
   <path d="M 0 473.76 
L 648 473.76 
L 648 0 
L 0 0 
z
" style="fill:#ffffff;"/>
  </g>
  <g id="axes_1">
   <g id="patch_2">
    <path d="M 81 421.6464 
L 583.2 421.6464 
L 583.2 56.8512 
L 81 56.8512 
z
" style="fill:#ffffff;"/>
   </g>
   <g id="matplotlib.axis_1">
    <g id="xtick_1">
     <g id="line2d_1">
      <defs>
       <path d="M 0 0 
L 0 2 
" id="m577f4cac17" style="stroke:#000000;"/>
      </defs>
      <g>
       <use style="stroke:#000000;" x="103.75375" xlink:href="#m577f4cac17" y="421.6464"/>
      </g>
     </g>
     <g id="text_1">
      <!-- 0.0 -->
      <defs>
       <path d="M 31.78125 66.40625 
Q 24.171875 66.40625 20.328125 58.90625 
Q 16.5 51.421875 16.5 36.375 
Q 16.5 21.390625 20.328125 13.890625 
Q 24.171875 6.390625 31.78125 6.390625 
Q 39.453125 6.390625 43.28125 13.890625 
Q 47.125 21.390625 47.125 36.375 
Q 47.125 51.421875 43.28125 58.90625 
Q 39.453125 66.40625 31.78125 66.40625 
z
M 31.78125 74.21875 
Q 44.046875 74.21875 50.515625 64.515625 
Q 56.984375 54.828125 56.984375 36.375 
Q 56.984375 17.96875 50.515625 8.265625 
Q 44.046875 -1.421875 31.78125 -1.421875 
Q 19.53125 -1.421875 13.0625 8.265625 
Q 6.59375 17.96875 6.59375 36.375 
Q 6.59375 54.828125 13.0625 64.515625 
Q 19.53125 74.21875 31.78125 74.21875 
z
" id="DejaVuSans-48"/>
       <path d="M 10.6875 12.40625 
L 21 12.40625 
L 21 0 
L 10.6875 0 
z
" id="DejaVuSans-46"/>
      </defs>
      <g transform="translate(89.440937 440.823588)scale(0.18 -0.18)">
       <use xlink:href="#DejaVuSans-48"/>
       <use x="63.623047" xlink:href="#DejaVuSans-46"/>
       <use x="95.410156" xlink:href="#DejaVuSans-48"/>
      </g>
     </g>
    </g>
    <g id="xtick_2">
     <g id="line2d_2">
      <g>
       <use style="stroke:#000000;" x="215.226176" xlink:href="#m577f4cac17" y="421.6464"/>
      </g>
     </g>
     <g id="text_2">
      <!-- 0.1 -->
      <defs>
       <path d="M 12.40625 8.296875 
L 28.515625 8.296875 
L 28.515625 63.921875 
L 10.984375 60.40625 
L 10.984375 69.390625 
L 28.421875 72.90625 
L 38.28125 72.90625 
L 38.28125 8.296875 
L 54.390625 8.296875 
L 54.390625 0 
L 12.40625 0 
z
" id="DejaVuSans-49"/>
      </defs>
      <g transform="translate(200.913364 440.823588)scale(0.18 -0.18)">
       <use xlink:href="#DejaVuSans-48"/>
       <use x="63.623047" xlink:href="#DejaVuSans-46"/>
       <use x="95.410156" xlink:href="#DejaVuSans-49"/>
      </g>
     </g>
    </g>
    <g id="xtick_3">
     <g id="line2d_3">
      <g>
       <use style="stroke:#000000;" x="326.698603" xlink:href="#m577f4cac17" y="421.6464"/>
      </g>
     </g>
     <g id="text_3">
      <!-- 1.0 -->
      <g transform="translate(312.38579 440.823588)scale(0.18 -0.18)">
       <use xlink:href="#DejaVuSans-49"/>
       <use x="63.623047" xlink:href="#DejaVuSans-46"/>
       <use x="95.410156" xlink:href="#DejaVuSans-48"/>
      </g>
     </g>
    </g>
    <g id="xtick_4">
     <g id="line2d_4">
      <g>
       <use style="stroke:#000000;" x="438.171029" xlink:href="#m577f4cac17" y="421.6464"/>
      </g>
     </g>
     <g id="text_4">
      <!-- 10.0 -->
      <g transform="translate(418.131967 440.823588)scale(0.18 -0.18)">
       <use xlink:href="#DejaVuSans-49"/>
       <use x="63.623047" xlink:href="#DejaVuSans-48"/>
       <use x="127.246094" xlink:href="#DejaVuSans-46"/>
       <use x="159.033203" xlink:href="#DejaVuSans-48"/>
      </g>
     </g>
    </g>
    <g id="xtick_5">
     <g id="line2d_5">
      <g>
       <use style="stroke:#000000;" x="549.643456" xlink:href="#m577f4cac17" y="421.6464"/>
      </g>
     </g>
     <g id="text_5">
      <!-- 100.0 -->
      <g transform="translate(523.878143 440.823588)scale(0.18 -0.18)">
       <use xlink:href="#DejaVuSans-49"/>
       <use x="63.623047" xlink:href="#DejaVuSans-48"/>
       <use x="127.246094" xlink:href="#DejaVuSans-48"/>
       <use x="190.869141" xlink:href="#DejaVuSans-46"/>
       <use x="222.65625" xlink:href="#DejaVuSans-48"/>
      </g>
     </g>
    </g>
    <g id="xtick_6">
     <g id="line2d_6">
      <defs>
       <path d="M 0 0 
L 0 2 
" id="maa9263d877" style="stroke:#000000;stroke-width:0.6;"/>
      </defs>
      <g>
       <use style="stroke:#000000;stroke-width:0.6;" x="86.486452" xlink:href="#maa9263d877" y="421.6464"/>
      </g>
     </g>
    </g>
    <g id="xtick_7">
     <g id="line2d_7">
      <g>
       <use style="stroke:#000000;stroke-width:0.6;" x="92.950955" xlink:href="#maa9263d877" y="421.6464"/>
      </g>
     </g>
    </g>
    <g id="xtick_8">
     <g id="line2d_8">
      <g>
       <use style="stroke:#000000;stroke-width:0.6;" x="98.653051" xlink:href="#maa9263d877" y="421.6464"/>
      </g>
     </g>
    </g>
    <g id="xtick_9">
     <g id="line2d_9">
      <g>
       <use style="stroke:#000000;stroke-width:0.6;" x="137.310294" xlink:href="#maa9263d877" y="421.6464"/>
      </g>
     </g>
    </g>
    <g id="xtick_10">
     <g id="line2d_10">
      <g>
       <use style="stroke:#000000;stroke-width:0.6;" x="156.939614" xlink:href="#maa9263d877" y="421.6464"/>
      </g>
     </g>
    </g>
    <g id="xtick_11">
     <g id="line2d_11">
      <g>
       <use style="stroke:#000000;stroke-width:0.6;" x="170.866838" xlink:href="#maa9263d877" y="421.6464"/>
      </g>
     </g>
    </g>
    <g id="xtick_12">
     <g id="line2d_12">
      <g>
       <use style="stroke:#000000;stroke-width:0.6;" x="181.669632" xlink:href="#maa9263d877" y="421.6464"/>
      </g>
     </g>
    </g>
    <g id="xtick_13">
     <g id="line2d_13">
      <g>
       <use style="stroke:#000000;stroke-width:0.6;" x="190.496158" xlink:href="#maa9263d877" y="421.6464"/>
      </g>
     </g>
    </g>
    <g id="xtick_14">
     <g id="line2d_14">
      <g>
       <use style="stroke:#000000;stroke-width:0.6;" x="197.958879" xlink:href="#maa9263d877" y="421.6464"/>
      </g>
     </g>
    </g>
    <g id="xtick_15">
     <g id="line2d_15">
      <g>
       <use style="stroke:#000000;stroke-width:0.6;" x="204.423382" xlink:href="#maa9263d877" y="421.6464"/>
      </g>
     </g>
    </g>
    <g id="xtick_16">
     <g id="line2d_16">
      <g>
       <use style="stroke:#000000;stroke-width:0.6;" x="210.125478" xlink:href="#maa9263d877" y="421.6464"/>
      </g>
     </g>
    </g>
    <g id="xtick_17">
     <g id="line2d_17">
      <g>
       <use style="stroke:#000000;stroke-width:0.6;" x="248.78272" xlink:href="#maa9263d877" y="421.6464"/>
      </g>
     </g>
    </g>
    <g id="xtick_18">
     <g id="line2d_18">
      <g>
       <use style="stroke:#000000;stroke-width:0.6;" x="268.41204" xlink:href="#maa9263d877" y="421.6464"/>
      </g>
     </g>
    </g>
    <g id="xtick_19">
     <g id="line2d_19">
      <g>
       <use style="stroke:#000000;stroke-width:0.6;" x="282.339264" xlink:href="#maa9263d877" y="421.6464"/>
      </g>
     </g>
    </g>
    <g id="xtick_20">
     <g id="line2d_20">
      <g>
       <use style="stroke:#000000;stroke-width:0.6;" x="293.142059" xlink:href="#maa9263d877" y="421.6464"/>
      </g>
     </g>
    </g>
    <g id="xtick_21">
     <g id="line2d_21">
      <g>
       <use style="stroke:#000000;stroke-width:0.6;" x="301.968584" xlink:href="#maa9263d877" y="421.6464"/>
      </g>
     </g>
    </g>
    <g id="xtick_22">
     <g id="line2d_22">
      <g>
       <use style="stroke:#000000;stroke-width:0.6;" x="309.431305" xlink:href="#maa9263d877" y="421.6464"/>
      </g>
     </g>
    </g>
    <g id="xtick_23">
     <g id="line2d_23">
      <g>
       <use style="stroke:#000000;stroke-width:0.6;" x="315.895809" xlink:href="#maa9263d877" y="421.6464"/>
      </g>
     </g>
    </g>
    <g id="xtick_24">
     <g id="line2d_24">
      <g>
       <use style="stroke:#000000;stroke-width:0.6;" x="321.597904" xlink:href="#maa9263d877" y="421.6464"/>
      </g>
     </g>
    </g>
    <g id="xtick_25">
     <g id="line2d_25">
      <g>
       <use style="stroke:#000000;stroke-width:0.6;" x="360.255147" xlink:href="#maa9263d877" y="421.6464"/>
      </g>
     </g>
    </g>
    <g id="xtick_26">
     <g id="line2d_26">
      <g>
       <use style="stroke:#000000;stroke-width:0.6;" x="379.884467" xlink:href="#maa9263d877" y="421.6464"/>
      </g>
     </g>
    </g>
    <g id="xtick_27">
     <g id="line2d_27">
      <g>
       <use style="stroke:#000000;stroke-width:0.6;" x="393.811691" xlink:href="#maa9263d877" y="421.6464"/>
      </g>
     </g>
    </g>
    <g id="xtick_28">
     <g id="line2d_28">
      <g>
       <use style="stroke:#000000;stroke-width:0.6;" x="404.614485" xlink:href="#maa9263d877" y="421.6464"/>
      </g>
     </g>
    </g>
    <g id="xtick_29">
     <g id="line2d_29">
      <g>
       <use style="stroke:#000000;stroke-width:0.6;" x="413.441011" xlink:href="#maa9263d877" y="421.6464"/>
      </g>
     </g>
    </g>
    <g id="xtick_30">
     <g id="line2d_30">
      <g>
       <use style="stroke:#000000;stroke-width:0.6;" x="420.903732" xlink:href="#maa9263d877" y="421.6464"/>
      </g>
     </g>
    </g>
    <g id="xtick_31">
     <g id="line2d_31">
      <g>
       <use style="stroke:#000000;stroke-width:0.6;" x="427.368235" xlink:href="#maa9263d877" y="421.6464"/>
      </g>
     </g>
    </g>
    <g id="xtick_32">
     <g id="line2d_32">
      <g>
       <use style="stroke:#000000;stroke-width:0.6;" x="433.070331" xlink:href="#maa9263d877" y="421.6464"/>
      </g>
     </g>
    </g>
    <g id="xtick_33">
     <g id="line2d_33">
      <g>
       <use style="stroke:#000000;stroke-width:0.6;" x="471.727573" xlink:href="#maa9263d877" y="421.6464"/>
      </g>
     </g>
    </g>
    <g id="xtick_34">
     <g id="line2d_34">
      <g>
       <use style="stroke:#000000;stroke-width:0.6;" x="491.356893" xlink:href="#maa9263d877" y="421.6464"/>
      </g>
     </g>
    </g>
    <g id="xtick_35">
     <g id="line2d_35">
      <g>
       <use style="stroke:#000000;stroke-width:0.6;" x="505.284118" xlink:href="#maa9263d877" y="421.6464"/>
      </g>
     </g>
    </g>
    <g id="xtick_36">
     <g id="line2d_36">
      <g>
       <use style="stroke:#000000;stroke-width:0.6;" x="516.086912" xlink:href="#maa9263d877" y="421.6464"/>
      </g>
     </g>
    </g>
    <g id="xtick_37">
     <g id="line2d_37">
      <g>
       <use style="stroke:#000000;stroke-width:0.6;" x="524.913437" xlink:href="#maa9263d877" y="421.6464"/>
      </g>
     </g>
    </g>
    <g id="xtick_38">
     <g id="line2d_38">
      <g>
       <use style="stroke:#000000;stroke-width:0.6;" x="532.376159" xlink:href="#maa9263d877" y="421.6464"/>
      </g>
     </g>
    </g>
    <g id="xtick_39">
     <g id="line2d_39">
      <g>
       <use style="stroke:#000000;stroke-width:0.6;" x="538.840662" xlink:href="#maa9263d877" y="421.6464"/>
      </g>
     </g>
    </g>
    <g id="xtick_40">
     <g id="line2d_40">
      <g>
       <use style="stroke:#000000;stroke-width:0.6;" x="544.542757" xlink:href="#maa9263d877" y="421.6464"/>
      </g>
     </g>
    </g>
    <g id="xtick_41">
     <g id="line2d_41">
      <g>
       <use style="stroke:#000000;stroke-width:0.6;" x="583.2" xlink:href="#maa9263d877" y="421.6464"/>
      </g>
     </g>
    </g>
    <g id="text_6">
     <!-- Noscapine (uM) -->
     <defs>
      <path d="M 9.8125 72.90625 
L 23.09375 72.90625 
L 55.421875 11.921875 
L 55.421875 72.90625 
L 64.984375 72.90625 
L 64.984375 0 
L 51.703125 0 
L 19.390625 60.984375 
L 19.390625 0 
L 9.8125 0 
z
" id="DejaVuSans-78"/>
      <path d="M 30.609375 48.390625 
Q 23.390625 48.390625 19.1875 42.75 
Q 14.984375 37.109375 14.984375 27.296875 
Q 14.984375 17.484375 19.15625 11.84375 
Q 23.34375 6.203125 30.609375 6.203125 
Q 37.796875 6.203125 41.984375 11.859375 
Q 46.1875 17.53125 46.1875 27.296875 
Q 46.1875 37.015625 41.984375 42.703125 
Q 37.796875 48.390625 30.609375 48.390625 
z
M 30.609375 56 
Q 42.328125 56 49.015625 48.375 
Q 55.71875 40.765625 55.71875 27.296875 
Q 55.71875 13.875 49.015625 6.21875 
Q 42.328125 -1.421875 30.609375 -1.421875 
Q 18.84375 -1.421875 12.171875 6.21875 
Q 5.515625 13.875 5.515625 27.296875 
Q 5.515625 40.765625 12.171875 48.375 
Q 18.84375 56 30.609375 56 
z
" id="DejaVuSans-111"/>
      <path d="M 44.28125 53.078125 
L 44.28125 44.578125 
Q 40.484375 46.53125 36.375 47.5 
Q 32.28125 48.484375 27.875 48.484375 
Q 21.1875 48.484375 17.84375 46.4375 
Q 14.5 44.390625 14.5 40.28125 
Q 14.5 37.15625 16.890625 35.375 
Q 19.28125 33.59375 26.515625 31.984375 
L 29.59375 31.296875 
Q 39.15625 29.25 43.1875 25.515625 
Q 47.21875 21.78125 47.21875 15.09375 
Q 47.21875 7.46875 41.1875 3.015625 
Q 35.15625 -1.421875 24.609375 -1.421875 
Q 20.21875 -1.421875 15.453125 -0.5625 
Q 10.6875 0.296875 5.421875 2 
L 5.421875 11.28125 
Q 10.40625 8.6875 15.234375 7.390625 
Q 20.0625 6.109375 24.8125 6.109375 
Q 31.15625 6.109375 34.5625 8.28125 
Q 37.984375 10.453125 37.984375 14.40625 
Q 37.984375 18.0625 35.515625 20.015625 
Q 33.0625 21.96875 24.703125 23.78125 
L 21.578125 24.515625 
Q 13.234375 26.265625 9.515625 29.90625 
Q 5.8125 33.546875 5.8125 39.890625 
Q 5.8125 47.609375 11.28125 51.796875 
Q 16.75 56 26.8125 56 
Q 31.78125 56 36.171875 55.265625 
Q 40.578125 54.546875 44.28125 53.078125 
z
" id="DejaVuSans-115"/>
      <path d="M 48.78125 52.59375 
L 48.78125 44.1875 
Q 44.96875 46.296875 41.140625 47.34375 
Q 37.3125 48.390625 33.40625 48.390625 
Q 24.65625 48.390625 19.8125 42.84375 
Q 14.984375 37.3125 14.984375 27.296875 
Q 14.984375 17.28125 19.8125 11.734375 
Q 24.65625 6.203125 33.40625 6.203125 
Q 37.3125 6.203125 41.140625 7.25 
Q 44.96875 8.296875 48.78125 10.40625 
L 48.78125 2.09375 
Q 45.015625 0.34375 40.984375 -0.53125 
Q 36.96875 -1.421875 32.421875 -1.421875 
Q 20.0625 -1.421875 12.78125 6.34375 
Q 5.515625 14.109375 5.515625 27.296875 
Q 5.515625 40.671875 12.859375 48.328125 
Q 20.21875 56 33.015625 56 
Q 37.15625 56 41.109375 55.140625 
Q 45.0625 54.296875 48.78125 52.59375 
z
" id="DejaVuSans-99"/>
      <path d="M 34.28125 27.484375 
Q 23.390625 27.484375 19.1875 25 
Q 14.984375 22.515625 14.984375 16.5 
Q 14.984375 11.71875 18.140625 8.90625 
Q 21.296875 6.109375 26.703125 6.109375 
Q 34.1875 6.109375 38.703125 11.40625 
Q 43.21875 16.703125 43.21875 25.484375 
L 43.21875 27.484375 
z
M 52.203125 31.203125 
L 52.203125 0 
L 43.21875 0 
L 43.21875 8.296875 
Q 40.140625 3.328125 35.546875 0.953125 
Q 30.953125 -1.421875 24.3125 -1.421875 
Q 15.921875 -1.421875 10.953125 3.296875 
Q 6 8.015625 6 15.921875 
Q 6 25.140625 12.171875 29.828125 
Q 18.359375 34.515625 30.609375 34.515625 
L 43.21875 34.515625 
L 43.21875 35.40625 
Q 43.21875 41.609375 39.140625 45 
Q 35.0625 48.390625 27.6875 48.390625 
Q 23 48.390625 18.546875 47.265625 
Q 14.109375 46.140625 10.015625 43.890625 
L 10.015625 52.203125 
Q 14.9375 54.109375 19.578125 55.046875 
Q 24.21875 56 28.609375 56 
Q 40.484375 56 46.34375 49.84375 
Q 52.203125 43.703125 52.203125 31.203125 
z
" id="DejaVuSans-97"/>
      <path d="M 18.109375 8.203125 
L 18.109375 -20.796875 
L 9.078125 -20.796875 
L 9.078125 54.6875 
L 18.109375 54.6875 
L 18.109375 46.390625 
Q 20.953125 51.265625 25.265625 53.625 
Q 29.59375 56 35.59375 56 
Q 45.5625 56 51.78125 48.09375 
Q 58.015625 40.1875 58.015625 27.296875 
Q 58.015625 14.40625 51.78125 6.484375 
Q 45.5625 -1.421875 35.59375 -1.421875 
Q 29.59375 -1.421875 25.265625 0.953125 
Q 20.953125 3.328125 18.109375 8.203125 
z
M 48.6875 27.296875 
Q 48.6875 37.203125 44.609375 42.84375 
Q 40.53125 48.484375 33.40625 48.484375 
Q 26.265625 48.484375 22.1875 42.84375 
Q 18.109375 37.203125 18.109375 27.296875 
Q 18.109375 17.390625 22.1875 11.75 
Q 26.265625 6.109375 33.40625 6.109375 
Q 40.53125 6.109375 44.609375 11.75 
Q 48.6875 17.390625 48.6875 27.296875 
z
" id="DejaVuSans-112"/>
      <path d="M 9.421875 54.6875 
L 18.40625 54.6875 
L 18.40625 0 
L 9.421875 0 
z
M 9.421875 75.984375 
L 18.40625 75.984375 
L 18.40625 64.59375 
L 9.421875 64.59375 
z
" id="DejaVuSans-105"/>
      <path d="M 54.890625 33.015625 
L 54.890625 0 
L 45.90625 0 
L 45.90625 32.71875 
Q 45.90625 40.484375 42.875 44.328125 
Q 39.84375 48.1875 33.796875 48.1875 
Q 26.515625 48.1875 22.3125 43.546875 
Q 18.109375 38.921875 18.109375 30.90625 
L 18.109375 0 
L 9.078125 0 
L 9.078125 54.6875 
L 18.109375 54.6875 
L 18.109375 46.1875 
Q 21.34375 51.125 25.703125 53.5625 
Q 30.078125 56 35.796875 56 
Q 45.21875 56 50.046875 50.171875 
Q 54.890625 44.34375 54.890625 33.015625 
z
" id="DejaVuSans-110"/>
      <path d="M 56.203125 29.59375 
L 56.203125 25.203125 
L 14.890625 25.203125 
Q 15.484375 15.921875 20.484375 11.0625 
Q 25.484375 6.203125 34.421875 6.203125 
Q 39.59375 6.203125 44.453125 7.46875 
Q 49.3125 8.734375 54.109375 11.28125 
L 54.109375 2.78125 
Q 49.265625 0.734375 44.1875 -0.34375 
Q 39.109375 -1.421875 33.890625 -1.421875 
Q 20.796875 -1.421875 13.15625 6.1875 
Q 5.515625 13.8125 5.515625 26.8125 
Q 5.515625 40.234375 12.765625 48.109375 
Q 20.015625 56 32.328125 56 
Q 43.359375 56 49.78125 48.890625 
Q 56.203125 41.796875 56.203125 29.59375 
z
M 47.21875 32.234375 
Q 47.125 39.59375 43.09375 43.984375 
Q 39.0625 48.390625 32.421875 48.390625 
Q 24.90625 48.390625 20.390625 44.140625 
Q 15.875 39.890625 15.1875 32.171875 
z
" id="DejaVuSans-101"/>
      <path id="DejaVuSans-32"/>
      <path d="M 31 75.875 
Q 24.46875 64.65625 21.28125 53.65625 
Q 18.109375 42.671875 18.109375 31.390625 
Q 18.109375 20.125 21.3125 9.0625 
Q 24.515625 -2 31 -13.1875 
L 23.1875 -13.1875 
Q 15.875 -1.703125 12.234375 9.375 
Q 8.59375 20.453125 8.59375 31.390625 
Q 8.59375 42.28125 12.203125 53.3125 
Q 15.828125 64.359375 23.1875 75.875 
z
" id="DejaVuSans-40"/>
      <path d="M 8.5 21.578125 
L 8.5 54.6875 
L 17.484375 54.6875 
L 17.484375 21.921875 
Q 17.484375 14.15625 20.5 10.265625 
Q 23.53125 6.390625 29.59375 6.390625 
Q 36.859375 6.390625 41.078125 11.03125 
Q 45.3125 15.671875 45.3125 23.6875 
L 45.3125 54.6875 
L 54.296875 54.6875 
L 54.296875 0 
L 45.3125 0 
L 45.3125 8.40625 
Q 42.046875 3.421875 37.71875 1 
Q 33.40625 -1.421875 27.6875 -1.421875 
Q 18.265625 -1.421875 13.375 4.4375 
Q 8.5 10.296875 8.5 21.578125 
z
M 31.109375 56 
z
" id="DejaVuSans-117"/>
      <path d="M 9.8125 72.90625 
L 24.515625 72.90625 
L 43.109375 23.296875 
L 61.8125 72.90625 
L 76.515625 72.90625 
L 76.515625 0 
L 66.890625 0 
L 66.890625 64.015625 
L 48.09375 14.015625 
L 38.1875 14.015625 
L 19.390625 64.015625 
L 19.390625 0 
L 9.8125 0 
z
" id="DejaVuSans-77"/>
      <path d="M 8.015625 75.875 
L 15.828125 75.875 
Q 23.140625 64.359375 26.78125 53.3125 
Q 30.421875 42.28125 30.421875 31.390625 
Q 30.421875 20.453125 26.78125 9.375 
Q 23.140625 -1.703125 15.828125 -13.1875 
L 8.015625 -13.1875 
Q 14.5 -2 17.703125 9.0625 
Q 20.90625 20.125 20.90625 31.390625 
Q 20.90625 42.671875 17.703125 53.65625 
Q 14.5 64.65625 8.015625 75.875 
z
" id="DejaVuSans-41"/>
     </defs>
     <g transform="translate(254.1 463.7639)scale(0.2 -0.2)">
      <use xlink:href="#DejaVuSans-78"/>
      <use x="74.804688" xlink:href="#DejaVuSans-111"/>
      <use x="135.986328" xlink:href="#DejaVuSans-115"/>
      <use x="188.085938" xlink:href="#DejaVuSans-99"/>
      <use x="243.066406" xlink:href="#DejaVuSans-97"/>
      <use x="304.345703" xlink:href="#DejaVuSans-112"/>
      <use x="367.822266" xlink:href="#DejaVuSans-105"/>
      <use x="395.605469" xlink:href="#DejaVuSans-110"/>
      <use x="458.984375" xlink:href="#DejaVuSans-101"/>
      <use x="520.507812" xlink:href="#DejaVuSans-32"/>
      <use x="552.294922" xlink:href="#DejaVuSans-40"/>
      <use x="591.308594" xlink:href="#DejaVuSans-117"/>
      <use x="654.6875" xlink:href="#DejaVuSans-77"/>
      <use x="740.966797" xlink:href="#DejaVuSans-41"/>
     </g>
    </g>
   </g>
   <g id="matplotlib.axis_2">
    <g id="ytick_1">
     <g id="line2d_42">
      <defs>
       <path d="M 0 0 
L -2 0 
" id="ma89e475331" style="stroke:#000000;"/>
      </defs>
      <g>
       <use style="stroke:#000000;" x="81" xlink:href="#ma89e475331" y="405.0648"/>
      </g>
     </g>
     <g id="text_7">
      <!-- 0 -->
      <g transform="translate(64.0475 411.903394)scale(0.18 -0.18)">
       <use xlink:href="#DejaVuSans-48"/>
      </g>
     </g>
    </g>
    <g id="ytick_2">
     <g id="line2d_43">
      <g>
       <use style="stroke:#000000;" x="81" xlink:href="#ma89e475331" y="354.686558"/>
      </g>
     </g>
     <g id="text_8">
      <!-- 1 -->
      <g transform="translate(64.0475 361.525151)scale(0.18 -0.18)">
       <use xlink:href="#DejaVuSans-49"/>
      </g>
     </g>
    </g>
    <g id="ytick_3">
     <g id="line2d_44">
      <g>
       <use style="stroke:#000000;" x="81" xlink:href="#ma89e475331" y="304.308315"/>
      </g>
     </g>
     <g id="text_9">
      <!-- 2 -->
      <defs>
       <path d="M 19.1875 8.296875 
L 53.609375 8.296875 
L 53.609375 0 
L 7.328125 0 
L 7.328125 8.296875 
Q 12.9375 14.109375 22.625 23.890625 
Q 32.328125 33.6875 34.8125 36.53125 
Q 39.546875 41.84375 41.421875 45.53125 
Q 43.3125 49.21875 43.3125 52.78125 
Q 43.3125 58.59375 39.234375 62.25 
Q 35.15625 65.921875 28.609375 65.921875 
Q 23.96875 65.921875 18.8125 64.3125 
Q 13.671875 62.703125 7.8125 59.421875 
L 7.8125 69.390625 
Q 13.765625 71.78125 18.9375 73 
Q 24.125 74.21875 28.421875 74.21875 
Q 39.75 74.21875 46.484375 68.546875 
Q 53.21875 62.890625 53.21875 53.421875 
Q 53.21875 48.921875 51.53125 44.890625 
Q 49.859375 40.875 45.40625 35.40625 
Q 44.1875 33.984375 37.640625 27.21875 
Q 31.109375 20.453125 19.1875 8.296875 
z
" id="DejaVuSans-50"/>
      </defs>
      <g transform="translate(64.0475 311.146909)scale(0.18 -0.18)">
       <use xlink:href="#DejaVuSans-50"/>
      </g>
     </g>
    </g>
    <g id="ytick_4">
     <g id="line2d_45">
      <g>
       <use style="stroke:#000000;" x="81" xlink:href="#ma89e475331" y="253.930073"/>
      </g>
     </g>
     <g id="text_10">
      <!-- 3 -->
      <defs>
       <path d="M 40.578125 39.3125 
Q 47.65625 37.796875 51.625 33 
Q 55.609375 28.21875 55.609375 21.1875 
Q 55.609375 10.40625 48.1875 4.484375 
Q 40.765625 -1.421875 27.09375 -1.421875 
Q 22.515625 -1.421875 17.65625 -0.515625 
Q 12.796875 0.390625 7.625 2.203125 
L 7.625 11.71875 
Q 11.71875 9.328125 16.59375 8.109375 
Q 21.484375 6.890625 26.8125 6.890625 
Q 36.078125 6.890625 40.9375 10.546875 
Q 45.796875 14.203125 45.796875 21.1875 
Q 45.796875 27.640625 41.28125 31.265625 
Q 36.765625 34.90625 28.71875 34.90625 
L 20.21875 34.90625 
L 20.21875 43.015625 
L 29.109375 43.015625 
Q 36.375 43.015625 40.234375 45.921875 
Q 44.09375 48.828125 44.09375 54.296875 
Q 44.09375 59.90625 40.109375 62.90625 
Q 36.140625 65.921875 28.71875 65.921875 
Q 24.65625 65.921875 20.015625 65.03125 
Q 15.375 64.15625 9.8125 62.3125 
L 9.8125 71.09375 
Q 15.4375 72.65625 20.34375 73.4375 
Q 25.25 74.21875 29.59375 74.21875 
Q 40.828125 74.21875 47.359375 69.109375 
Q 53.90625 64.015625 53.90625 55.328125 
Q 53.90625 49.265625 50.4375 45.09375 
Q 46.96875 40.921875 40.578125 39.3125 
z
" id="DejaVuSans-51"/>
      </defs>
      <g transform="translate(64.0475 260.768666)scale(0.18 -0.18)">
       <use xlink:href="#DejaVuSans-51"/>
      </g>
     </g>
    </g>
    <g id="ytick_5">
     <g id="line2d_46">
      <g>
       <use style="stroke:#000000;" x="81" xlink:href="#ma89e475331" y="203.55183"/>
      </g>
     </g>
     <g id="text_11">
      <!-- 4 -->
      <defs>
       <path d="M 37.796875 64.3125 
L 12.890625 25.390625 
L 37.796875 25.390625 
z
M 35.203125 72.90625 
L 47.609375 72.90625 
L 47.609375 25.390625 
L 58.015625 25.390625 
L 58.015625 17.1875 
L 47.609375 17.1875 
L 47.609375 0 
L 37.796875 0 
L 37.796875 17.1875 
L 4.890625 17.1875 
L 4.890625 26.703125 
z
" id="DejaVuSans-52"/>
      </defs>
      <g transform="translate(64.0475 210.390424)scale(0.18 -0.18)">
       <use xlink:href="#DejaVuSans-52"/>
      </g>
     </g>
    </g>
    <g id="ytick_6">
     <g id="line2d_47">
      <g>
       <use style="stroke:#000000;" x="81" xlink:href="#ma89e475331" y="153.173588"/>
      </g>
     </g>
     <g id="text_12">
      <!-- 5 -->
      <defs>
       <path d="M 10.796875 72.90625 
L 49.515625 72.90625 
L 49.515625 64.59375 
L 19.828125 64.59375 
L 19.828125 46.734375 
Q 21.96875 47.46875 24.109375 47.828125 
Q 26.265625 48.1875 28.421875 48.1875 
Q 40.625 48.1875 47.75 41.5 
Q 54.890625 34.8125 54.890625 23.390625 
Q 54.890625 11.625 47.5625 5.09375 
Q 40.234375 -1.421875 26.90625 -1.421875 
Q 22.3125 -1.421875 17.546875 -0.640625 
Q 12.796875 0.140625 7.71875 1.703125 
L 7.71875 11.625 
Q 12.109375 9.234375 16.796875 8.0625 
Q 21.484375 6.890625 26.703125 6.890625 
Q 35.15625 6.890625 40.078125 11.328125 
Q 45.015625 15.765625 45.015625 23.390625 
Q 45.015625 31 40.078125 35.4375 
Q 35.15625 39.890625 26.703125 39.890625 
Q 22.75 39.890625 18.8125 39.015625 
Q 14.890625 38.140625 10.796875 36.28125 
z
" id="DejaVuSans-53"/>
      </defs>
      <g transform="translate(64.0475 160.012181)scale(0.18 -0.18)">
       <use xlink:href="#DejaVuSans-53"/>
      </g>
     </g>
    </g>
    <g id="ytick_7">
     <g id="line2d_48">
      <g>
       <use style="stroke:#000000;" x="81" xlink:href="#ma89e475331" y="102.795345"/>
      </g>
     </g>
     <g id="text_13">
      <!-- 6 -->
      <defs>
       <path d="M 33.015625 40.375 
Q 26.375 40.375 22.484375 35.828125 
Q 18.609375 31.296875 18.609375 23.390625 
Q 18.609375 15.53125 22.484375 10.953125 
Q 26.375 6.390625 33.015625 6.390625 
Q 39.65625 6.390625 43.53125 10.953125 
Q 47.40625 15.53125 47.40625 23.390625 
Q 47.40625 31.296875 43.53125 35.828125 
Q 39.65625 40.375 33.015625 40.375 
z
M 52.59375 71.296875 
L 52.59375 62.3125 
Q 48.875 64.0625 45.09375 64.984375 
Q 41.3125 65.921875 37.59375 65.921875 
Q 27.828125 65.921875 22.671875 59.328125 
Q 17.53125 52.734375 16.796875 39.40625 
Q 19.671875 43.65625 24.015625 45.921875 
Q 28.375 48.1875 33.59375 48.1875 
Q 44.578125 48.1875 50.953125 41.515625 
Q 57.328125 34.859375 57.328125 23.390625 
Q 57.328125 12.15625 50.6875 5.359375 
Q 44.046875 -1.421875 33.015625 -1.421875 
Q 20.359375 -1.421875 13.671875 8.265625 
Q 6.984375 17.96875 6.984375 36.375 
Q 6.984375 53.65625 15.1875 63.9375 
Q 23.390625 74.21875 37.203125 74.21875 
Q 40.921875 74.21875 44.703125 73.484375 
Q 48.484375 72.75 52.59375 71.296875 
z
" id="DejaVuSans-54"/>
      </defs>
      <g transform="translate(64.0475 109.633939)scale(0.18 -0.18)">
       <use xlink:href="#DejaVuSans-54"/>
      </g>
     </g>
    </g>
    <g id="text_14">
     <!-- $(RFU/OD) \times 10^4$ -->
     <defs>
      <path d="M 25.203125 64.796875 
L 20.21875 38.921875 
L 32.90625 38.921875 
Q 40.375 38.921875 44.984375 43.046875 
Q 49.609375 47.171875 49.609375 53.8125 
Q 49.609375 59.125 46.5 61.953125 
Q 43.40625 64.796875 37.59375 64.796875 
z
M 43.3125 35.015625 
Q 46.4375 34.28125 48.515625 31.390625 
Q 50.59375 28.515625 53.328125 19.921875 
L 59.515625 0 
L 49.125 0 
L 43.40625 18.703125 
Q 41.21875 25.921875 38.328125 28.359375 
Q 35.453125 30.8125 29.5 30.8125 
L 18.609375 30.8125 
L 12.59375 0 
L 2.6875 0 
L 16.890625 72.90625 
L 39.109375 72.90625 
Q 49.21875 72.90625 54.609375 68.328125 
Q 60.015625 63.765625 60.015625 55.171875 
Q 60.015625 47.5625 55.421875 41.984375 
Q 50.828125 36.421875 43.3125 35.015625 
z
" id="DejaVuSans-Oblique-82"/>
      <path d="M 16.890625 72.90625 
L 58.6875 72.90625 
L 57.078125 64.59375 
L 25.09375 64.59375 
L 20.90625 43.109375 
L 49.8125 43.109375 
L 48.1875 34.8125 
L 19.28125 34.8125 
L 12.5 0 
L 2.6875 0 
z
" id="DejaVuSans-Oblique-70"/>
      <path d="M 15.484375 72.90625 
L 25.390625 72.90625 
L 16.796875 28.609375 
Q 16.265625 25.640625 16.046875 23.703125 
Q 15.828125 21.78125 15.828125 20.3125 
Q 15.828125 13.578125 19.578125 10.078125 
Q 23.34375 6.59375 30.609375 6.59375 
Q 40.046875 6.59375 45.28125 11.765625 
Q 50.53125 16.9375 52.78125 28.609375 
L 61.375 72.90625 
L 71.296875 72.90625 
L 62.5 27.390625 
Q 59.625 12.640625 51.5625 5.609375 
Q 43.5 -1.421875 29.5 -1.421875 
Q 18.5625 -1.421875 12.1875 4.078125 
Q 5.8125 9.578125 5.8125 19 
Q 5.8125 20.703125 6.046875 22.828125 
Q 6.296875 24.953125 6.78125 27.390625 
z
" id="DejaVuSans-Oblique-85"/>
      <path d="M 25.390625 72.90625 
L 33.6875 72.90625 
L 8.296875 -9.28125 
L 0 -9.28125 
z
" id="DejaVuSans-47"/>
      <path d="M 45.609375 66.21875 
Q 37.5 66.21875 31.296875 62.28125 
Q 25.09375 58.34375 20.515625 50.296875 
Q 17.578125 45.171875 16.03125 39.40625 
Q 14.5 33.640625 14.5 27.78125 
Q 14.5 17.625 19.359375 12.109375 
Q 24.21875 6.59375 33.109375 6.59375 
Q 41.109375 6.59375 47.375 10.5625 
Q 53.65625 14.546875 58.109375 22.40625 
Q 61.078125 27.6875 62.640625 33.46875 
Q 64.203125 39.265625 64.203125 45.015625 
Q 64.203125 55.125 59.3125 60.671875 
Q 54.4375 66.21875 45.609375 66.21875 
z
M 32.8125 -1.421875 
Q 19.390625 -1.421875 11.6875 6.53125 
Q 4 14.5 4 28.328125 
Q 4 36.234375 7 44.484375 
Q 10.015625 52.734375 15.28125 59.1875 
Q 21.484375 66.75 29.09375 70.484375 
Q 36.71875 74.21875 45.90625 74.21875 
Q 59.28125 74.21875 66.984375 66.328125 
Q 74.703125 58.453125 74.703125 44.828125 
Q 74.703125 36.421875 71.765625 28.3125 
Q 68.84375 20.21875 63.375 13.625 
Q 57.125 6 49.578125 2.28125 
Q 42.046875 -1.421875 32.8125 -1.421875 
z
" id="DejaVuSans-Oblique-79"/>
      <path d="M 16.890625 72.90625 
L 38.09375 72.90625 
Q 54.984375 72.90625 63.59375 65.75 
Q 72.21875 58.59375 72.21875 44.484375 
Q 72.21875 35.15625 68.9375 26.53125 
Q 65.671875 17.921875 59.90625 12.015625 
Q 54.109375 5.953125 45.171875 2.96875 
Q 36.234375 0 24.03125 0 
L 2.6875 0 
z
M 25.203125 64.796875 
L 14.203125 8.109375 
L 27.09375 8.109375 
Q 43.65625 8.109375 52.734375 17.625 
Q 61.8125 27.15625 61.8125 44.484375 
Q 61.8125 54.984375 55.953125 59.890625 
Q 50.09375 64.796875 37.59375 64.796875 
z
" id="DejaVuSans-Oblique-68"/>
      <path d="M 70.125 53.71875 
L 47.796875 31.296875 
L 70.125 8.984375 
L 64.3125 3.078125 
L 41.890625 25.484375 
L 19.484375 3.078125 
L 13.71875 8.984375 
L 35.984375 31.296875 
L 13.71875 53.71875 
L 19.484375 59.625 
L 41.890625 37.203125 
L 64.3125 59.625 
z
" id="DejaVuSans-215"/>
     </defs>
     <g transform="translate(55.888125 315.8488)rotate(-90)scale(0.2 -0.2)">
      <use transform="translate(0 0.684375)" xlink:href="#DejaVuSans-40"/>
      <use transform="translate(39.013672 0.684375)" xlink:href="#DejaVuSans-Oblique-82"/>
      <use transform="translate(108.496094 0.684375)" xlink:href="#DejaVuSans-Oblique-70"/>
      <use transform="translate(166.015625 0.684375)" xlink:href="#DejaVuSans-Oblique-85"/>
      <use transform="translate(239.208984 0.684375)" xlink:href="#DejaVuSans-47"/>
      <use transform="translate(272.900391 0.684375)" xlink:href="#DejaVuSans-Oblique-79"/>
      <use transform="translate(351.611328 0.684375)" xlink:href="#DejaVuSans-Oblique-68"/>
      <use transform="translate(428.613281 0.684375)" xlink:href="#DejaVuSans-41"/>
      <use transform="translate(487.109375 0.684375)" xlink:href="#DejaVuSans-215"/>
      <use transform="translate(590.380859 0.684375)" xlink:href="#DejaVuSans-49"/>
      <use transform="translate(654.003906 0.684375)" xlink:href="#DejaVuSans-48"/>
      <use transform="translate(718.583984 38.965625)scale(0.7)" xlink:href="#DejaVuSans-52"/>
     </g>
    </g>
   </g>
   <g id="line2d_49">
    <path clip-path="url(#pe2b9b8806f)" d="M 79.024215 396.479663 
L 328.690845 394.997835 
L 549.643456 393.475656 
L 549.643456 393.475656 
" style="fill:none;stroke:#0099ff;stroke-linecap:square;stroke-width:1.5;"/>
   </g>
   <g id="line2d_50">
    <path clip-path="url(#pe2b9b8806f)" d="M 79.024215 405.061603 
L 267.104016 404.937957 
L 322.609778 404.68894 
L 357.465699 404.321308 
L 383.069858 403.837663 
L 403.379356 403.238764 
L 420.228675 402.525486 
L 434.642612 401.697945 
L 447.243509 400.756331 
L 458.445244 399.700297 
L 468.531279 398.529682 
L 477.709061 397.24388 
L 486.134599 395.841874 
L 493.926436 394.322593 
L 501.179486 392.684276 
L 507.969444 390.924827 
L 514.358604 389.041514 
L 520.397794 387.031298 
L 526.129799 384.890536 
L 531.591572 382.614687 
L 536.814422 380.198644 
L 541.825622 377.636437 
L 546.648437 374.921558 
L 549.643456 373.101972 
L 549.643456 373.101972 
" style="fill:none;stroke:#3372cc;stroke-linecap:square;stroke-width:1.5;"/>
   </g>
   <g id="line2d_51">
    <path clip-path="url(#pe2b9b8806f)" d="M 79.024215 405.064799 
L 354.939289 404.953699 
L 383.130259 404.715104 
L 400.504584 404.357066 
L 413.215044 403.881429 
L 423.299161 403.288605 
L 431.701477 402.577761 
L 438.939972 401.74702 
L 445.323403 400.794738 
L 451.066317 399.716541 
L 456.309607 398.508647 
L 461.160698 397.165139 
L 465.698683 395.679502 
L 469.990736 394.041845 
L 474.09008 392.240612 
L 478.039519 390.262866 
L 481.87971 388.091193 
L 485.646809 385.704939 
L 489.376066 383.078386 
L 493.102266 380.180382 
L 496.865438 376.969549 
L 500.710866 373.39302 
L 504.698921 369.37593 
L 508.917326 364.805589 
L 513.517483 359.485842 
L 518.826023 352.993889 
L 526.061295 343.761128 
L 538.18068 328.287028 
L 543.592627 321.770919 
L 548.239176 316.516883 
L 549.643456 315.001108 
L 549.643456 315.001108 
" style="fill:none;stroke:#674c9a;stroke-linecap:square;stroke-width:1.5;"/>
   </g>
   <g id="line2d_52">
    <path clip-path="url(#pe2b9b8806f)" d="M 79.024215 405.063635 
L 212.743457 404.94832 
L 245.529504 404.704791 
L 265.759156 404.343044 
L 280.614971 403.862766 
L 292.36169 403.266874 
L 302.130173 402.553684 
L 310.458228 401.728592 
L 317.79504 400.782909 
L 324.368522 399.71401 
L 330.29025 398.529316 
L 335.72691 397.218034 
L 340.759261 395.778146 
L 345.449055 394.208001 
L 349.874598 392.493907 
L 354.06698 390.633358 
L 358.077225 388.610925 
L 361.921068 386.423875 
L 365.6339 384.055783 
L 369.243261 381.489298 
L 372.770615 378.706501 
L 376.215249 375.7052 
L 379.609837 372.452366 
L 382.979114 368.914123 
L 386.32726 365.07356 
L 389.670159 360.898681 
L 393.031322 356.342088 
L 396.427122 351.359045 
L 399.867996 345.909517 
L 403.369422 339.94288 
L 406.96777 333.365963 
L 410.69428 326.083898 
L 414.589656 317.974608 
L 418.711339 308.871014 
L 423.173938 298.4626 
L 428.166949 286.235431 
L 434.187448 270.874231 
L 444.714018 243.270876 
L 452.868387 222.192985 
L 458.438874 208.39903 
L 463.215191 197.151287 
L 467.55175 187.496472 
L 471.602023 179.011813 
L 475.453885 171.450603 
L 479.158955 164.66 
L 482.756891 158.523505 
L 486.276398 152.954817 
L 489.739506 147.886656 
L 493.166045 143.261866 
L 496.573642 139.03255 
L 499.977714 135.158959 
L 503.393987 131.605769 
L 506.838821 128.341711 
L 510.32705 125.341264 
L 513.876569 122.580214 
L 517.506171 120.037833 
L 521.237256 117.695608 
L 525.091911 115.538521 
L 529.096306 113.55296 
L 533.28173 111.726767 
L 537.683069 110.050283 
L 542.342886 108.514976 
L 547.312867 107.113692 
L 549.643456 106.530892 
L 549.643456 106.530892 
" style="fill:none;stroke:#9a2667;stroke-linecap:square;stroke-width:1.5;"/>
   </g>
   <g id="line2d_53">
    <path clip-path="url(#pe2b9b8806f)" d="M 79.024215 405.063437 
L 199.323168 404.946543 
L 229.395341 404.704122 
L 248.051525 404.344873 
L 261.85572 403.865011 
L 272.73237 403.271756 
L 281.730786 402.566427 
L 289.525037 401.73706 
L 296.32745 400.794071 
L 302.450783 399.722436 
L 307.957203 398.535569 
L 313.029373 397.215957 
L 317.678526 395.780145 
L 322.026815 394.208505 
L 326.163606 392.476793 
L 330.064973 390.602838 
L 333.800835 388.561161 
L 337.385553 386.347833 
L 340.831626 383.959769 
L 344.183749 381.367285 
L 347.476568 378.537751 
L 350.707255 375.465578 
L 353.874049 372.146983 
L 357.027812 368.517838 
L 360.15871 364.573924 
L 363.304358 360.249016 
L 366.450091 355.542027 
L 369.623749 350.389411 
L 372.845324 344.729926 
L 376.12813 338.507526 
L 379.496099 331.640354 
L 382.979114 324.025089 
L 386.608971 315.54477 
L 390.441835 306.014377 
L 394.56872 295.142699 
L 399.136262 282.46535 
L 404.508346 266.869594 
L 412.174418 243.853476 
L 422.99543 211.443697 
L 428.422233 195.923452 
L 433.011609 183.454489 
L 437.158871 172.816526 
L 441.019815 163.513456 
L 444.680172 155.263388 
L 448.19739 147.875551 
L 451.604847 141.227811 
L 454.932202 135.217053 
L 458.199393 129.76796 
L 461.427943 124.810671 
L 464.631475 120.294945 
L 467.825398 116.173438 
L 471.023403 112.406622 
L 474.239695 108.959298 
L 477.488213 105.801244 
L 480.786003 102.903836 
L 484.149492 100.243692 
L 487.595325 97.801221 
L 491.145516 95.557025 
L 494.824017 93.494965 
L 498.657994 91.601347 
L 502.677662 89.865073 
L 506.920796 88.27592 
L 511.433248 86.825246 
L 516.269083 85.506505 
L 521.497713 84.313909 
L 527.206735 83.243051 
L 533.513321 82.290127 
L 540.57611 81.452256 
L 548.619926 80.727141 
L 549.643456 80.649252 
L 549.643456 80.649252 
" style="fill:none;stroke:#ce0035;stroke-linecap:square;stroke-width:1.5;"/>
   </g>
   <g id="line2d_54">
    <defs>
     <path d="M 0 3 
C 0.795609 3 1.55874 2.683901 2.12132 2.12132 
C 2.683901 1.55874 3 0.795609 3 0 
C 3 -0.795609 2.683901 -1.55874 2.12132 -2.12132 
C 1.55874 -2.683901 0.795609 -3 0 -3 
C -0.795609 -3 -1.55874 -2.683901 -2.12132 -2.12132 
C -2.683901 -1.55874 -3 -0.795609 -3 0 
C -3 0.795609 -2.683901 1.55874 -2.12132 2.12132 
C -1.55874 2.683901 -0.795609 3 0 3 
z
" id="mf72bc8daec" style="stroke:#0099ff;"/>
    </defs>
    <g clip-path="url(#pe2b9b8806f)">
     <use style="fill:#0099ff;stroke:#0099ff;" x="-1" xlink:href="#mf72bc8daec" y="395.302469"/>
     <use style="fill:#0099ff;stroke:#0099ff;" x="181.669632" xlink:href="#mf72bc8daec" y="395.302671"/>
     <use style="fill:#0099ff;stroke:#0099ff;" x="215.226176" xlink:href="#mf72bc8daec" y="395.377358"/>
     <use style="fill:#0099ff;stroke:#0099ff;" x="259.585515" xlink:href="#mf72bc8daec" y="395.32995"/>
     <use style="fill:#0099ff;stroke:#0099ff;" x="293.142059" xlink:href="#mf72bc8daec" y="395.320021"/>
     <use style="fill:#0099ff;stroke:#0099ff;" x="326.698603" xlink:href="#mf72bc8daec" y="395.312332"/>
     <use style="fill:#0099ff;stroke:#0099ff;" x="371.057941" xlink:href="#mf72bc8daec" y="395.286347"/>
     <use style="fill:#0099ff;stroke:#0099ff;" x="404.614485" xlink:href="#mf72bc8daec" y="395.136607"/>
     <use style="fill:#0099ff;stroke:#0099ff;" x="438.171029" xlink:href="#mf72bc8daec" y="395.020919"/>
     <use style="fill:#0099ff;stroke:#0099ff;" x="482.530368" xlink:href="#mf72bc8daec" y="394.268993"/>
     <use style="fill:#0099ff;stroke:#0099ff;" x="516.086912" xlink:href="#mf72bc8daec" y="393.198777"/>
     <use style="fill:#0099ff;stroke:#0099ff;" x="549.643456" xlink:href="#mf72bc8daec" y="391.777651"/>
    </g>
   </g>
   <g id="line2d_55">
    <g clip-path="url(#pe2b9b8806f)">
     <use style="fill:#0099ff;stroke:#0099ff;" x="-1" xlink:href="#mf72bc8daec" y="395.491715"/>
     <use style="fill:#0099ff;stroke:#0099ff;" x="181.669632" xlink:href="#mf72bc8daec" y="395.491793"/>
     <use style="fill:#0099ff;stroke:#0099ff;" x="215.226176" xlink:href="#mf72bc8daec" y="395.320376"/>
     <use style="fill:#0099ff;stroke:#0099ff;" x="259.585515" xlink:href="#mf72bc8daec" y="395.399662"/>
     <use style="fill:#0099ff;stroke:#0099ff;" x="293.142059" xlink:href="#mf72bc8daec" y="395.353856"/>
     <use style="fill:#0099ff;stroke:#0099ff;" x="326.698603" xlink:href="#mf72bc8daec" y="395.462606"/>
     <use style="fill:#0099ff;stroke:#0099ff;" x="371.057941" xlink:href="#mf72bc8daec" y="395.357217"/>
     <use style="fill:#0099ff;stroke:#0099ff;" x="404.614485" xlink:href="#mf72bc8daec" y="395.194633"/>
     <use style="fill:#0099ff;stroke:#0099ff;" x="438.171029" xlink:href="#mf72bc8daec" y="395.168592"/>
     <use style="fill:#0099ff;stroke:#0099ff;" x="482.530368" xlink:href="#mf72bc8daec" y="394.716611"/>
     <use style="fill:#0099ff;stroke:#0099ff;" x="516.086912" xlink:href="#mf72bc8daec" y="393.623434"/>
     <use style="fill:#0099ff;stroke:#0099ff;" x="549.643456" xlink:href="#mf72bc8daec" y="392.719948"/>
    </g>
   </g>
   <g id="line2d_56">
    <g clip-path="url(#pe2b9b8806f)">
     <use style="fill:#0099ff;stroke:#0099ff;" x="-1" xlink:href="#mf72bc8daec" y="395.21445"/>
     <use style="fill:#0099ff;stroke:#0099ff;" x="181.669632" xlink:href="#mf72bc8daec" y="395.214533"/>
     <use style="fill:#0099ff;stroke:#0099ff;" x="215.226176" xlink:href="#mf72bc8daec" y="395.148417"/>
     <use style="fill:#0099ff;stroke:#0099ff;" x="259.585515" xlink:href="#mf72bc8daec" y="395.08726"/>
     <use style="fill:#0099ff;stroke:#0099ff;" x="293.142059" xlink:href="#mf72bc8daec" y="394.99823"/>
     <use style="fill:#0099ff;stroke:#0099ff;" x="326.698603" xlink:href="#mf72bc8daec" y="395.223398"/>
     <use style="fill:#0099ff;stroke:#0099ff;" x="371.057941" xlink:href="#mf72bc8daec" y="395.105606"/>
     <use style="fill:#0099ff;stroke:#0099ff;" x="404.614485" xlink:href="#mf72bc8daec" y="394.926274"/>
     <use style="fill:#0099ff;stroke:#0099ff;" x="438.171029" xlink:href="#mf72bc8daec" y="394.738791"/>
     <use style="fill:#0099ff;stroke:#0099ff;" x="482.530368" xlink:href="#mf72bc8daec" y="394.257537"/>
     <use style="fill:#0099ff;stroke:#0099ff;" x="516.086912" xlink:href="#mf72bc8daec" y="393.2795"/>
     <use style="fill:#0099ff;stroke:#0099ff;" x="549.643456" xlink:href="#mf72bc8daec" y="392.581434"/>
    </g>
   </g>
   <g id="line2d_57">
    <defs>
     <path d="M 0 3 
C 0.795609 3 1.55874 2.683901 2.12132 2.12132 
C 2.683901 1.55874 3 0.795609 3 0 
C 3 -0.795609 2.683901 -1.55874 2.12132 -2.12132 
C 1.55874 -2.683901 0.795609 -3 0 -3 
C -0.795609 -3 -1.55874 -2.683901 -2.12132 -2.12132 
C -2.683901 -1.55874 -3 -0.795609 -3 0 
C -3 0.795609 -2.683901 1.55874 -2.12132 2.12132 
C -1.55874 2.683901 -0.795609 3 0 3 
z
" id="m8d9e7c47d2" style="stroke:#3372cc;"/>
    </defs>
    <g clip-path="url(#pe2b9b8806f)">
     <use style="fill:#3372cc;stroke:#3372cc;" x="-1" xlink:href="#m8d9e7c47d2" y="403.517943"/>
     <use style="fill:#3372cc;stroke:#3372cc;" x="181.669632" xlink:href="#m8d9e7c47d2" y="403.517974"/>
     <use style="fill:#3372cc;stroke:#3372cc;" x="215.226176" xlink:href="#m8d9e7c47d2" y="403.497869"/>
     <use style="fill:#3372cc;stroke:#3372cc;" x="259.585515" xlink:href="#m8d9e7c47d2" y="403.412283"/>
     <use style="fill:#3372cc;stroke:#3372cc;" x="293.142059" xlink:href="#m8d9e7c47d2" y="403.446655"/>
     <use style="fill:#3372cc;stroke:#3372cc;" x="326.698603" xlink:href="#m8d9e7c47d2" y="403.404388"/>
     <use style="fill:#3372cc;stroke:#3372cc;" x="371.057941" xlink:href="#m8d9e7c47d2" y="403.180616"/>
     <use style="fill:#3372cc;stroke:#3372cc;" x="404.614485" xlink:href="#m8d9e7c47d2" y="402.860376"/>
     <use style="fill:#3372cc;stroke:#3372cc;" x="438.171029" xlink:href="#m8d9e7c47d2" y="402.005255"/>
     <use style="fill:#3372cc;stroke:#3372cc;" x="482.530368" xlink:href="#m8d9e7c47d2" y="397.811999"/>
     <use style="fill:#3372cc;stroke:#3372cc;" x="516.086912" xlink:href="#m8d9e7c47d2" y="387.023752"/>
     <use style="fill:#3372cc;stroke:#3372cc;" x="549.643456" xlink:href="#m8d9e7c47d2" y="374.392224"/>
    </g>
   </g>
   <g id="line2d_58">
    <g clip-path="url(#pe2b9b8806f)">
     <use style="fill:#3372cc;stroke:#3372cc;" x="-1" xlink:href="#m8d9e7c47d2" y="403.535069"/>
     <use style="fill:#3372cc;stroke:#3372cc;" x="181.669632" xlink:href="#m8d9e7c47d2" y="403.535018"/>
     <use style="fill:#3372cc;stroke:#3372cc;" x="215.226176" xlink:href="#m8d9e7c47d2" y="403.573219"/>
     <use style="fill:#3372cc;stroke:#3372cc;" x="259.585515" xlink:href="#m8d9e7c47d2" y="403.47438"/>
     <use style="fill:#3372cc;stroke:#3372cc;" x="293.142059" xlink:href="#m8d9e7c47d2" y="403.458105"/>
     <use style="fill:#3372cc;stroke:#3372cc;" x="326.698603" xlink:href="#m8d9e7c47d2" y="403.448606"/>
     <use style="fill:#3372cc;stroke:#3372cc;" x="371.057941" xlink:href="#m8d9e7c47d2" y="403.265599"/>
     <use style="fill:#3372cc;stroke:#3372cc;" x="404.614485" xlink:href="#m8d9e7c47d2" y="402.860235"/>
     <use style="fill:#3372cc;stroke:#3372cc;" x="438.171029" xlink:href="#m8d9e7c47d2" y="402.081338"/>
     <use style="fill:#3372cc;stroke:#3372cc;" x="482.530368" xlink:href="#m8d9e7c47d2" y="398.151626"/>
     <use style="fill:#3372cc;stroke:#3372cc;" x="516.086912" xlink:href="#m8d9e7c47d2" y="388.394079"/>
     <use style="fill:#3372cc;stroke:#3372cc;" x="549.643456" xlink:href="#m8d9e7c47d2" y="372.086604"/>
    </g>
   </g>
   <g id="line2d_59">
    <g clip-path="url(#pe2b9b8806f)">
     <use style="fill:#3372cc;stroke:#3372cc;" x="-1" xlink:href="#m8d9e7c47d2" y="403.50946"/>
     <use style="fill:#3372cc;stroke:#3372cc;" x="181.669632" xlink:href="#m8d9e7c47d2" y="403.509601"/>
     <use style="fill:#3372cc;stroke:#3372cc;" x="215.226176" xlink:href="#m8d9e7c47d2" y="403.496797"/>
     <use style="fill:#3372cc;stroke:#3372cc;" x="259.585515" xlink:href="#m8d9e7c47d2" y="403.494046"/>
     <use style="fill:#3372cc;stroke:#3372cc;" x="293.142059" xlink:href="#m8d9e7c47d2" y="403.311396"/>
     <use style="fill:#3372cc;stroke:#3372cc;" x="326.698603" xlink:href="#m8d9e7c47d2" y="403.331188"/>
     <use style="fill:#3372cc;stroke:#3372cc;" x="371.057941" xlink:href="#m8d9e7c47d2" y="403.153605"/>
     <use style="fill:#3372cc;stroke:#3372cc;" x="404.614485" xlink:href="#m8d9e7c47d2" y="402.851059"/>
     <use style="fill:#3372cc;stroke:#3372cc;" x="438.171029" xlink:href="#m8d9e7c47d2" y="401.930389"/>
     <use style="fill:#3372cc;stroke:#3372cc;" x="482.530368" xlink:href="#m8d9e7c47d2" y="397.734979"/>
     <use style="fill:#3372cc;stroke:#3372cc;" x="516.086912" xlink:href="#m8d9e7c47d2" y="387.238478"/>
     <use style="fill:#3372cc;stroke:#3372cc;" x="549.643456" xlink:href="#m8d9e7c47d2" y="373.19083"/>
    </g>
   </g>
   <g id="line2d_60">
    <defs>
     <path d="M 0 3 
C 0.795609 3 1.55874 2.683901 2.12132 2.12132 
C 2.683901 1.55874 3 0.795609 3 0 
C 3 -0.795609 2.683901 -1.55874 2.12132 -2.12132 
C 1.55874 -2.683901 0.795609 -3 0 -3 
C -0.795609 -3 -1.55874 -2.683901 -2.12132 -2.12132 
C -2.683901 -1.55874 -3 -0.795609 -3 0 
C -3 0.795609 -2.683901 1.55874 -2.12132 2.12132 
C -1.55874 2.683901 -0.795609 3 0 3 
z
" id="m55ae12344d" style="stroke:#674c9a;"/>
    </defs>
    <g clip-path="url(#pe2b9b8806f)">
     <use style="fill:#674c9a;stroke:#674c9a;" x="-1" xlink:href="#m55ae12344d" y="404.332064"/>
     <use style="fill:#674c9a;stroke:#674c9a;" x="181.669632" xlink:href="#m55ae12344d" y="404.332027"/>
     <use style="fill:#674c9a;stroke:#674c9a;" x="215.226176" xlink:href="#m55ae12344d" y="404.289454"/>
     <use style="fill:#674c9a;stroke:#674c9a;" x="259.585515" xlink:href="#m55ae12344d" y="404.270591"/>
     <use style="fill:#674c9a;stroke:#674c9a;" x="293.142059" xlink:href="#m55ae12344d" y="404.157862"/>
     <use style="fill:#674c9a;stroke:#674c9a;" x="326.698603" xlink:href="#m55ae12344d" y="404.172717"/>
     <use style="fill:#674c9a;stroke:#674c9a;" x="371.057941" xlink:href="#m55ae12344d" y="403.874139"/>
     <use style="fill:#674c9a;stroke:#674c9a;" x="404.614485" xlink:href="#m55ae12344d" y="403.319245"/>
     <use style="fill:#674c9a;stroke:#674c9a;" x="438.171029" xlink:href="#m55ae12344d" y="401.389971"/>
     <use style="fill:#674c9a;stroke:#674c9a;" x="482.530368" xlink:href="#m55ae12344d" y="387.71079"/>
     <use style="fill:#674c9a;stroke:#674c9a;" x="516.086912" xlink:href="#m55ae12344d" y="358.632448"/>
     <use style="fill:#674c9a;stroke:#674c9a;" x="549.643456" xlink:href="#m55ae12344d" y="317.60699"/>
    </g>
   </g>
   <g id="line2d_61">
    <g clip-path="url(#pe2b9b8806f)">
     <use style="fill:#674c9a;stroke:#674c9a;" x="-1" xlink:href="#m55ae12344d" y="404.294072"/>
     <use style="fill:#674c9a;stroke:#674c9a;" x="181.669632" xlink:href="#m55ae12344d" y="404.294228"/>
     <use style="fill:#674c9a;stroke:#674c9a;" x="215.226176" xlink:href="#m55ae12344d" y="404.257851"/>
     <use style="fill:#674c9a;stroke:#674c9a;" x="259.585515" xlink:href="#m55ae12344d" y="404.193753"/>
     <use style="fill:#674c9a;stroke:#674c9a;" x="293.142059" xlink:href="#m55ae12344d" y="404.121639"/>
     <use style="fill:#674c9a;stroke:#674c9a;" x="326.698603" xlink:href="#m55ae12344d" y="404.055521"/>
     <use style="fill:#674c9a;stroke:#674c9a;" x="371.057941" xlink:href="#m55ae12344d" y="403.929014"/>
     <use style="fill:#674c9a;stroke:#674c9a;" x="404.614485" xlink:href="#m55ae12344d" y="403.291359"/>
     <use style="fill:#674c9a;stroke:#674c9a;" x="438.171029" xlink:href="#m55ae12344d" y="401.347802"/>
     <use style="fill:#674c9a;stroke:#674c9a;" x="482.530368" xlink:href="#m55ae12344d" y="388.687892"/>
     <use style="fill:#674c9a;stroke:#674c9a;" x="516.086912" xlink:href="#m55ae12344d" y="358.310538"/>
     <use style="fill:#674c9a;stroke:#674c9a;" x="549.643456" xlink:href="#m55ae12344d" y="321.63779"/>
    </g>
   </g>
   <g id="line2d_62">
    <g clip-path="url(#pe2b9b8806f)">
     <use style="fill:#674c9a;stroke:#674c9a;" x="-1" xlink:href="#m55ae12344d" y="404.331419"/>
     <use style="fill:#674c9a;stroke:#674c9a;" x="181.669632" xlink:href="#m55ae12344d" y="404.331474"/>
     <use style="fill:#674c9a;stroke:#674c9a;" x="215.226176" xlink:href="#m55ae12344d" y="404.325738"/>
     <use style="fill:#674c9a;stroke:#674c9a;" x="259.585515" xlink:href="#m55ae12344d" y="404.370116"/>
     <use style="fill:#674c9a;stroke:#674c9a;" x="293.142059" xlink:href="#m55ae12344d" y="404.26329"/>
     <use style="fill:#674c9a;stroke:#674c9a;" x="326.698603" xlink:href="#m55ae12344d" y="404.205523"/>
     <use style="fill:#674c9a;stroke:#674c9a;" x="371.057941" xlink:href="#m55ae12344d" y="403.940668"/>
     <use style="fill:#674c9a;stroke:#674c9a;" x="404.614485" xlink:href="#m55ae12344d" y="403.371232"/>
     <use style="fill:#674c9a;stroke:#674c9a;" x="438.171029" xlink:href="#m55ae12344d" y="401.456145"/>
     <use style="fill:#674c9a;stroke:#674c9a;" x="482.530368" xlink:href="#m55ae12344d" y="388.323686"/>
     <use style="fill:#674c9a;stroke:#674c9a;" x="516.086912" xlink:href="#m55ae12344d" y="351.507831"/>
     <use style="fill:#674c9a;stroke:#674c9a;" x="549.643456" xlink:href="#m55ae12344d" y="305.905014"/>
    </g>
   </g>
   <g id="line2d_63">
    <defs>
     <path d="M 0 3 
C 0.795609 3 1.55874 2.683901 2.12132 2.12132 
C 2.683901 1.55874 3 0.795609 3 0 
C 3 -0.795609 2.683901 -1.55874 2.12132 -2.12132 
C 1.55874 -2.683901 0.795609 -3 0 -3 
C -0.795609 -3 -1.55874 -2.683901 -2.12132 -2.12132 
C -2.683901 -1.55874 -3 -0.795609 -3 0 
C -3 0.795609 -2.683901 1.55874 -2.12132 2.12132 
C -1.55874 2.683901 -0.795609 3 0 3 
z
" id="ma22feb8894" style="stroke:#9a2667;"/>
    </defs>
    <g clip-path="url(#pe2b9b8806f)">
     <use style="fill:#9a2667;stroke:#9a2667;" x="-1" xlink:href="#ma22feb8894" y="404.371555"/>
     <use style="fill:#9a2667;stroke:#9a2667;" x="181.669632" xlink:href="#ma22feb8894" y="404.371539"/>
     <use style="fill:#9a2667;stroke:#9a2667;" x="215.226176" xlink:href="#ma22feb8894" y="404.306868"/>
     <use style="fill:#9a2667;stroke:#9a2667;" x="259.585515" xlink:href="#ma22feb8894" y="404.045939"/>
     <use style="fill:#9a2667;stroke:#9a2667;" x="293.142059" xlink:href="#ma22feb8894" y="403.302198"/>
     <use style="fill:#9a2667;stroke:#9a2667;" x="326.698603" xlink:href="#ma22feb8894" y="400.918078"/>
     <use style="fill:#9a2667;stroke:#9a2667;" x="371.057941" xlink:href="#ma22feb8894" y="382.024787"/>
     <use style="fill:#9a2667;stroke:#9a2667;" x="404.614485" xlink:href="#ma22feb8894" y="340.841436"/>
     <use style="fill:#9a2667;stroke:#9a2667;" x="438.171029" xlink:href="#ma22feb8894" y="259.947051"/>
     <use style="fill:#9a2667;stroke:#9a2667;" x="482.530368" xlink:href="#ma22feb8894" y="167.004939"/>
     <use style="fill:#9a2667;stroke:#9a2667;" x="516.086912" xlink:href="#ma22feb8894" y="122.293074"/>
     <use style="fill:#9a2667;stroke:#9a2667;" x="549.643456" xlink:href="#ma22feb8894" y="121.748935"/>
    </g>
   </g>
   <g id="line2d_64">
    <g clip-path="url(#pe2b9b8806f)">
     <use style="fill:#9a2667;stroke:#9a2667;" x="-1" xlink:href="#ma22feb8894" y="404.353437"/>
     <use style="fill:#9a2667;stroke:#9a2667;" x="181.669632" xlink:href="#ma22feb8894" y="404.353321"/>
     <use style="fill:#9a2667;stroke:#9a2667;" x="215.226176" xlink:href="#ma22feb8894" y="404.268742"/>
     <use style="fill:#9a2667;stroke:#9a2667;" x="259.585515" xlink:href="#ma22feb8894" y="404.050689"/>
     <use style="fill:#9a2667;stroke:#9a2667;" x="293.142059" xlink:href="#ma22feb8894" y="403.144168"/>
     <use style="fill:#9a2667;stroke:#9a2667;" x="326.698603" xlink:href="#ma22feb8894" y="400.880164"/>
     <use style="fill:#9a2667;stroke:#9a2667;" x="371.057941" xlink:href="#ma22feb8894" y="382.237929"/>
     <use style="fill:#9a2667;stroke:#9a2667;" x="404.614485" xlink:href="#ma22feb8894" y="338.256377"/>
     <use style="fill:#9a2667;stroke:#9a2667;" x="438.171029" xlink:href="#ma22feb8894" y="262.44682"/>
     <use style="fill:#9a2667;stroke:#9a2667;" x="482.530368" xlink:href="#ma22feb8894" y="162.224405"/>
     <use style="fill:#9a2667;stroke:#9a2667;" x="516.086912" xlink:href="#ma22feb8894" y="122.317163"/>
     <use style="fill:#9a2667;stroke:#9a2667;" x="549.643456" xlink:href="#ma22feb8894" y="82.526256"/>
    </g>
   </g>
   <g id="line2d_65">
    <g clip-path="url(#pe2b9b8806f)">
     <use style="fill:#9a2667;stroke:#9a2667;" x="-1" xlink:href="#ma22feb8894" y="404.286733"/>
     <use style="fill:#9a2667;stroke:#9a2667;" x="181.669632" xlink:href="#ma22feb8894" y="404.286511"/>
     <use style="fill:#9a2667;stroke:#9a2667;" x="215.226176" xlink:href="#ma22feb8894" y="404.168786"/>
     <use style="fill:#9a2667;stroke:#9a2667;" x="259.585515" xlink:href="#ma22feb8894" y="404.03307"/>
     <use style="fill:#9a2667;stroke:#9a2667;" x="293.142059" xlink:href="#ma22feb8894" y="403.111606"/>
     <use style="fill:#9a2667;stroke:#9a2667;" x="326.698603" xlink:href="#ma22feb8894" y="400.665683"/>
     <use style="fill:#9a2667;stroke:#9a2667;" x="371.057941" xlink:href="#ma22feb8894" y="380.570858"/>
     <use style="fill:#9a2667;stroke:#9a2667;" x="404.614485" xlink:href="#ma22feb8894" y="333.401858"/>
     <use style="fill:#9a2667;stroke:#9a2667;" x="438.171029" xlink:href="#ma22feb8894" y="254.843222"/>
     <use style="fill:#9a2667;stroke:#9a2667;" x="482.530368" xlink:href="#ma22feb8894" y="152.702852"/>
     <use style="fill:#9a2667;stroke:#9a2667;" x="516.086912" xlink:href="#ma22feb8894" y="117.709029"/>
     <use style="fill:#9a2667;stroke:#9a2667;" x="549.643456" xlink:href="#ma22feb8894" y="113.349991"/>
    </g>
   </g>
   <g id="line2d_66">
    <defs>
     <path d="M 0 3 
C 0.795609 3 1.55874 2.683901 2.12132 2.12132 
C 2.683901 1.55874 3 0.795609 3 0 
C 3 -0.795609 2.683901 -1.55874 2.12132 -2.12132 
C 1.55874 -2.683901 0.795609 -3 0 -3 
C -0.795609 -3 -1.55874 -2.683901 -2.12132 -2.12132 
C -2.683901 -1.55874 -3 -0.795609 -3 0 
C -3 0.795609 -2.683901 1.55874 -2.12132 2.12132 
C -1.55874 2.683901 -0.795609 3 0 3 
z
" id="mceacd7c17c" style="stroke:#ce0035;"/>
    </defs>
    <g clip-path="url(#pe2b9b8806f)">
     <use style="fill:#ce0035;stroke:#ce0035;" x="-1" xlink:href="#mceacd7c17c" y="404.302172"/>
     <use style="fill:#ce0035;stroke:#ce0035;" x="181.669632" xlink:href="#mceacd7c17c" y="404.301962"/>
     <use style="fill:#ce0035;stroke:#ce0035;" x="215.226176" xlink:href="#mceacd7c17c" y="404.332987"/>
     <use style="fill:#ce0035;stroke:#ce0035;" x="259.585515" xlink:href="#mceacd7c17c" y="403.800457"/>
     <use style="fill:#ce0035;stroke:#ce0035;" x="293.142059" xlink:href="#mceacd7c17c" y="401.753581"/>
     <use style="fill:#ce0035;stroke:#ce0035;" x="326.698603" xlink:href="#mceacd7c17c" y="394.156119"/>
     <use style="fill:#ce0035;stroke:#ce0035;" x="371.057941" xlink:href="#mceacd7c17c" y="342.91309"/>
     <use style="fill:#ce0035;stroke:#ce0035;" x="404.614485" xlink:href="#mceacd7c17c" y="260.128748"/>
     <use style="fill:#ce0035;stroke:#ce0035;" x="438.171029" xlink:href="#mceacd7c17c" y="162.85116"/>
     <use style="fill:#ce0035;stroke:#ce0035;" x="482.530368" xlink:href="#mceacd7c17c" y="92.958881"/>
     <use style="fill:#ce0035;stroke:#ce0035;" x="516.086912" xlink:href="#mceacd7c17c" y="73.4328"/>
     <use style="fill:#ce0035;stroke:#ce0035;" x="549.643456" xlink:href="#mceacd7c17c" y="80.608887"/>
    </g>
   </g>
   <g id="line2d_67">
    <g clip-path="url(#pe2b9b8806f)">
     <use style="fill:#ce0035;stroke:#ce0035;" x="-1" xlink:href="#mceacd7c17c" y="404.41194"/>
     <use style="fill:#ce0035;stroke:#ce0035;" x="181.669632" xlink:href="#mceacd7c17c" y="404.411814"/>
     <use style="fill:#ce0035;stroke:#ce0035;" x="215.226176" xlink:href="#mceacd7c17c" y="404.213768"/>
     <use style="fill:#ce0035;stroke:#ce0035;" x="259.585515" xlink:href="#mceacd7c17c" y="403.860199"/>
     <use style="fill:#ce0035;stroke:#ce0035;" x="293.142059" xlink:href="#mceacd7c17c" y="402.050423"/>
     <use style="fill:#ce0035;stroke:#ce0035;" x="326.698603" xlink:href="#mceacd7c17c" y="395.392574"/>
     <use style="fill:#ce0035;stroke:#ce0035;" x="371.057941" xlink:href="#mceacd7c17c" y="348.755905"/>
     <use style="fill:#ce0035;stroke:#ce0035;" x="404.614485" xlink:href="#mceacd7c17c" y="265.617064"/>
     <use style="fill:#ce0035;stroke:#ce0035;" x="438.171029" xlink:href="#mceacd7c17c" y="178.362164"/>
     <use style="fill:#ce0035;stroke:#ce0035;" x="482.530368" xlink:href="#mceacd7c17c" y="101.566614"/>
     <use style="fill:#ce0035;stroke:#ce0035;" x="516.086912" xlink:href="#mceacd7c17c" y="89.615696"/>
     <use style="fill:#ce0035;stroke:#ce0035;" x="549.643456" xlink:href="#mceacd7c17c" y="91.863575"/>
    </g>
   </g>
   <g id="line2d_68">
    <g clip-path="url(#pe2b9b8806f)">
     <use style="fill:#ce0035;stroke:#ce0035;" x="-1" xlink:href="#mceacd7c17c" y="404.396808"/>
     <use style="fill:#ce0035;stroke:#ce0035;" x="181.669632" xlink:href="#mceacd7c17c" y="404.396716"/>
     <use style="fill:#ce0035;stroke:#ce0035;" x="215.226176" xlink:href="#mceacd7c17c" y="404.281936"/>
     <use style="fill:#ce0035;stroke:#ce0035;" x="259.585515" xlink:href="#mceacd7c17c" y="403.679539"/>
     <use style="fill:#ce0035;stroke:#ce0035;" x="293.142059" xlink:href="#mceacd7c17c" y="401.900812"/>
     <use style="fill:#ce0035;stroke:#ce0035;" x="326.698603" xlink:href="#mceacd7c17c" y="395.076994"/>
     <use style="fill:#ce0035;stroke:#ce0035;" x="371.057941" xlink:href="#mceacd7c17c" y="347.142663"/>
     <use style="fill:#ce0035;stroke:#ce0035;" x="404.614485" xlink:href="#mceacd7c17c" y="270.61588"/>
     <use style="fill:#ce0035;stroke:#ce0035;" x="438.171029" xlink:href="#mceacd7c17c" y="180.083726"/>
     <use style="fill:#ce0035;stroke:#ce0035;" x="482.530368" xlink:href="#mceacd7c17c" y="97.839559"/>
     <use style="fill:#ce0035;stroke:#ce0035;" x="516.086912" xlink:href="#mceacd7c17c" y="84.77453"/>
     <use style="fill:#ce0035;stroke:#ce0035;" x="549.643456" xlink:href="#mceacd7c17c" y="83.97105"/>
    </g>
   </g>
   <g id="patch_3">
    <path d="M 81 421.6464 
L 81 56.8512 
" style="fill:none;stroke:#000000;stroke-linecap:square;stroke-linejoin:miter;stroke-width:0.8;"/>
   </g>
   <g id="patch_4">
    <path d="M 81 421.6464 
L 583.2 421.6464 
" style="fill:none;stroke:#000000;stroke-linecap:square;stroke-linejoin:miter;stroke-width:0.8;"/>
   </g>
   <g id="text_15">
    <!-- RamR Variant Response to Noscapine -->
    <defs>
     <path d="M 44.390625 34.1875 
Q 47.5625 33.109375 50.5625 29.59375 
Q 53.5625 26.078125 56.59375 19.921875 
L 66.609375 0 
L 56 0 
L 46.6875 18.703125 
Q 43.0625 26.03125 39.671875 28.421875 
Q 36.28125 30.8125 30.421875 30.8125 
L 19.671875 30.8125 
L 19.671875 0 
L 9.8125 0 
L 9.8125 72.90625 
L 32.078125 72.90625 
Q 44.578125 72.90625 50.734375 67.671875 
Q 56.890625 62.453125 56.890625 51.90625 
Q 56.890625 45.015625 53.6875 40.46875 
Q 50.484375 35.9375 44.390625 34.1875 
z
M 19.671875 64.796875 
L 19.671875 38.921875 
L 32.078125 38.921875 
Q 39.203125 38.921875 42.84375 42.21875 
Q 46.484375 45.515625 46.484375 51.90625 
Q 46.484375 58.296875 42.84375 61.546875 
Q 39.203125 64.796875 32.078125 64.796875 
z
" id="DejaVuSans-82"/>
     <path d="M 52 44.1875 
Q 55.375 50.25 60.0625 53.125 
Q 64.75 56 71.09375 56 
Q 79.640625 56 84.28125 50.015625 
Q 88.921875 44.046875 88.921875 33.015625 
L 88.921875 0 
L 79.890625 0 
L 79.890625 32.71875 
Q 79.890625 40.578125 77.09375 44.375 
Q 74.3125 48.1875 68.609375 48.1875 
Q 61.625 48.1875 57.5625 43.546875 
Q 53.515625 38.921875 53.515625 30.90625 
L 53.515625 0 
L 44.484375 0 
L 44.484375 32.71875 
Q 44.484375 40.625 41.703125 44.40625 
Q 38.921875 48.1875 33.109375 48.1875 
Q 26.21875 48.1875 22.15625 43.53125 
Q 18.109375 38.875 18.109375 30.90625 
L 18.109375 0 
L 9.078125 0 
L 9.078125 54.6875 
L 18.109375 54.6875 
L 18.109375 46.1875 
Q 21.1875 51.21875 25.484375 53.609375 
Q 29.78125 56 35.6875 56 
Q 41.65625 56 45.828125 52.96875 
Q 50 49.953125 52 44.1875 
z
" id="DejaVuSans-109"/>
     <path d="M 28.609375 0 
L 0.78125 72.90625 
L 11.078125 72.90625 
L 34.1875 11.53125 
L 57.328125 72.90625 
L 67.578125 72.90625 
L 39.796875 0 
z
" id="DejaVuSans-86"/>
     <path d="M 41.109375 46.296875 
Q 39.59375 47.171875 37.8125 47.578125 
Q 36.03125 48 33.890625 48 
Q 26.265625 48 22.1875 43.046875 
Q 18.109375 38.09375 18.109375 28.8125 
L 18.109375 0 
L 9.078125 0 
L 9.078125 54.6875 
L 18.109375 54.6875 
L 18.109375 46.1875 
Q 20.953125 51.171875 25.484375 53.578125 
Q 30.03125 56 36.53125 56 
Q 37.453125 56 38.578125 55.875 
Q 39.703125 55.765625 41.0625 55.515625 
z
" id="DejaVuSans-114"/>
     <path d="M 18.3125 70.21875 
L 18.3125 54.6875 
L 36.8125 54.6875 
L 36.8125 47.703125 
L 18.3125 47.703125 
L 18.3125 18.015625 
Q 18.3125 11.328125 20.140625 9.421875 
Q 21.96875 7.515625 27.59375 7.515625 
L 36.8125 7.515625 
L 36.8125 0 
L 27.59375 0 
Q 17.1875 0 13.234375 3.875 
Q 9.28125 7.765625 9.28125 18.015625 
L 9.28125 47.703125 
L 2.6875 47.703125 
L 2.6875 54.6875 
L 9.28125 54.6875 
L 9.28125 70.21875 
z
" id="DejaVuSans-116"/>
    </defs>
    <g transform="translate(123.900938 50.8512)scale(0.22 -0.22)">
     <use xlink:href="#DejaVuSans-82"/>
     <use x="69.451172" xlink:href="#DejaVuSans-97"/>
     <use x="130.730469" xlink:href="#DejaVuSans-109"/>
     <use x="228.142578" xlink:href="#DejaVuSans-82"/>
     <use x="297.625" xlink:href="#DejaVuSans-32"/>
     <use x="329.412109" xlink:href="#DejaVuSans-86"/>
     <use x="397.710938" xlink:href="#DejaVuSans-97"/>
     <use x="458.990234" xlink:href="#DejaVuSans-114"/>
     <use x="500.103516" xlink:href="#DejaVuSans-105"/>
     <use x="527.886719" xlink:href="#DejaVuSans-97"/>
     <use x="589.166016" xlink:href="#DejaVuSans-110"/>
     <use x="652.544922" xlink:href="#DejaVuSans-116"/>
     <use x="691.753906" xlink:href="#DejaVuSans-32"/>
     <use x="723.541016" xlink:href="#DejaVuSans-82"/>
     <use x="792.960938" xlink:href="#DejaVuSans-101"/>
     <use x="854.484375" xlink:href="#DejaVuSans-115"/>
     <use x="906.583984" xlink:href="#DejaVuSans-112"/>
     <use x="970.060547" xlink:href="#DejaVuSans-111"/>
     <use x="1031.242188" xlink:href="#DejaVuSans-110"/>
     <use x="1094.621094" xlink:href="#DejaVuSans-115"/>
     <use x="1146.720703" xlink:href="#DejaVuSans-101"/>
     <use x="1208.244141" xlink:href="#DejaVuSans-32"/>
     <use x="1240.03125" xlink:href="#DejaVuSans-116"/>
     <use x="1279.240234" xlink:href="#DejaVuSans-111"/>
     <use x="1340.421875" xlink:href="#DejaVuSans-32"/>
     <use x="1372.208984" xlink:href="#DejaVuSans-78"/>
     <use x="1447.013672" xlink:href="#DejaVuSans-111"/>
     <use x="1508.195312" xlink:href="#DejaVuSans-115"/>
     <use x="1560.294922" xlink:href="#DejaVuSans-99"/>
     <use x="1615.275391" xlink:href="#DejaVuSans-97"/>
     <use x="1676.554688" xlink:href="#DejaVuSans-112"/>
     <use x="1740.03125" xlink:href="#DejaVuSans-105"/>
     <use x="1767.814453" xlink:href="#DejaVuSans-110"/>
     <use x="1831.193359" xlink:href="#DejaVuSans-101"/>
    </g>
   </g>
   <g id="legend_1">
    <g id="patch_5">
     <path d="M 91.5 178.937137 
L 181.596094 178.937137 
Q 184.596094 178.937137 184.596094 175.937137 
L 184.596094 67.3512 
Q 184.596094 64.3512 181.596094 64.3512 
L 91.5 64.3512 
Q 88.5 64.3512 88.5 67.3512 
L 88.5 175.937137 
Q 88.5 178.937137 91.5 178.937137 
z
" style="fill:#ffffff;opacity:0.8;stroke:#cccccc;stroke-linejoin:miter;"/>
    </g>
    <g id="line2d_69">
     <path d="M 94.5 76.498856 
L 124.5 76.498856 
" style="fill:none;stroke:#0099ff;stroke-linecap:square;stroke-width:1.5;"/>
    </g>
    <g id="line2d_70"/>
    <g id="text_16">
     <!-- WT -->
     <defs>
      <path d="M 3.328125 72.90625 
L 13.28125 72.90625 
L 28.609375 11.28125 
L 43.890625 72.90625 
L 54.984375 72.90625 
L 70.3125 11.28125 
L 85.59375 72.90625 
L 95.609375 72.90625 
L 77.296875 0 
L 64.890625 0 
L 49.515625 63.28125 
L 33.984375 0 
L 21.578125 0 
z
" id="DejaVuSans-87"/>
      <path d="M -0.296875 72.90625 
L 61.375 72.90625 
L 61.375 64.59375 
L 35.5 64.59375 
L 35.5 0 
L 25.59375 0 
L 25.59375 64.59375 
L -0.296875 64.59375 
z
" id="DejaVuSans-84"/>
     </defs>
     <g transform="translate(136.5 81.748856)scale(0.15 -0.15)">
      <use xlink:href="#DejaVuSans-87"/>
      <use x="98.876953" xlink:href="#DejaVuSans-84"/>
     </g>
    </g>
    <g id="line2d_71">
     <path d="M 94.5 98.516044 
L 124.5 98.516044 
" style="fill:none;stroke:#3372cc;stroke-linecap:square;stroke-width:1.5;"/>
    </g>
    <g id="line2d_72"/>
    <g id="text_17">
     <!-- NOS1 -->
     <defs>
      <path d="M 39.40625 66.21875 
Q 28.65625 66.21875 22.328125 58.203125 
Q 16.015625 50.203125 16.015625 36.375 
Q 16.015625 22.609375 22.328125 14.59375 
Q 28.65625 6.59375 39.40625 6.59375 
Q 50.140625 6.59375 56.421875 14.59375 
Q 62.703125 22.609375 62.703125 36.375 
Q 62.703125 50.203125 56.421875 58.203125 
Q 50.140625 66.21875 39.40625 66.21875 
z
M 39.40625 74.21875 
Q 54.734375 74.21875 63.90625 63.9375 
Q 73.09375 53.65625 73.09375 36.375 
Q 73.09375 19.140625 63.90625 8.859375 
Q 54.734375 -1.421875 39.40625 -1.421875 
Q 24.03125 -1.421875 14.8125 8.828125 
Q 5.609375 19.09375 5.609375 36.375 
Q 5.609375 53.65625 14.8125 63.9375 
Q 24.03125 74.21875 39.40625 74.21875 
z
" id="DejaVuSans-79"/>
      <path d="M 53.515625 70.515625 
L 53.515625 60.890625 
Q 47.90625 63.578125 42.921875 64.890625 
Q 37.9375 66.21875 33.296875 66.21875 
Q 25.25 66.21875 20.875 63.09375 
Q 16.5 59.96875 16.5 54.203125 
Q 16.5 49.359375 19.40625 46.890625 
Q 22.3125 44.4375 30.421875 42.921875 
L 36.375 41.703125 
Q 47.40625 39.59375 52.65625 34.296875 
Q 57.90625 29 57.90625 20.125 
Q 57.90625 9.515625 50.796875 4.046875 
Q 43.703125 -1.421875 29.984375 -1.421875 
Q 24.8125 -1.421875 18.96875 -0.25 
Q 13.140625 0.921875 6.890625 3.21875 
L 6.890625 13.375 
Q 12.890625 10.015625 18.65625 8.296875 
Q 24.421875 6.59375 29.984375 6.59375 
Q 38.421875 6.59375 43.015625 9.90625 
Q 47.609375 13.234375 47.609375 19.390625 
Q 47.609375 24.75 44.3125 27.78125 
Q 41.015625 30.8125 33.5 32.328125 
L 27.484375 33.5 
Q 16.453125 35.6875 11.515625 40.375 
Q 6.59375 45.0625 6.59375 53.421875 
Q 6.59375 63.09375 13.40625 68.65625 
Q 20.21875 74.21875 32.171875 74.21875 
Q 37.3125 74.21875 42.625 73.28125 
Q 47.953125 72.359375 53.515625 70.515625 
z
" id="DejaVuSans-83"/>
     </defs>
     <g transform="translate(136.5 103.766044)scale(0.15 -0.15)">
      <use xlink:href="#DejaVuSans-78"/>
      <use x="74.804688" xlink:href="#DejaVuSans-79"/>
      <use x="153.515625" xlink:href="#DejaVuSans-83"/>
      <use x="216.992188" xlink:href="#DejaVuSans-49"/>
     </g>
    </g>
    <g id="line2d_73">
     <path d="M 94.5 120.533231 
L 124.5 120.533231 
" style="fill:none;stroke:#674c9a;stroke-linecap:square;stroke-width:1.5;"/>
    </g>
    <g id="line2d_74"/>
    <g id="text_18">
     <!-- NOS2 -->
     <g transform="translate(136.5 125.783231)scale(0.15 -0.15)">
      <use xlink:href="#DejaVuSans-78"/>
      <use x="74.804688" xlink:href="#DejaVuSans-79"/>
      <use x="153.515625" xlink:href="#DejaVuSans-83"/>
      <use x="216.992188" xlink:href="#DejaVuSans-50"/>
     </g>
    </g>
    <g id="line2d_75">
     <path d="M 94.5 142.550419 
L 124.5 142.550419 
" style="fill:none;stroke:#9a2667;stroke-linecap:square;stroke-width:1.5;"/>
    </g>
    <g id="line2d_76"/>
    <g id="text_19">
     <!-- NOS3 -->
     <g transform="translate(136.5 147.800419)scale(0.15 -0.15)">
      <use xlink:href="#DejaVuSans-78"/>
      <use x="74.804688" xlink:href="#DejaVuSans-79"/>
      <use x="153.515625" xlink:href="#DejaVuSans-83"/>
      <use x="216.992188" xlink:href="#DejaVuSans-51"/>
     </g>
    </g>
    <g id="line2d_77">
     <path d="M 94.5 164.567606 
L 124.5 164.567606 
" style="fill:none;stroke:#ce0035;stroke-linecap:square;stroke-width:1.5;"/>
    </g>
    <g id="line2d_78"/>
    <g id="text_20">
     <!-- NOS4 -->
     <g transform="translate(136.5 169.817606)scale(0.15 -0.15)">
      <use xlink:href="#DejaVuSans-78"/>
      <use x="74.804688" xlink:href="#DejaVuSans-79"/>
      <use x="153.515625" xlink:href="#DejaVuSans-83"/>
      <use x="216.992188" xlink:href="#DejaVuSans-52"/>
     </g>
    </g>
   </g>
  </g>
 </g>
 <defs>
  <clipPath id="pe2b9b8806f">
   <rect height="364.7952" width="502.2" x="81" y="56.8512"/>
  </clipPath>
 </defs>
</svg>
