<?xml version="1.0" encoding="utf-8" standalone="no"?>
<!DOCTYPE svg PUBLIC "-//W3C//DTD SVG 1.1//EN"
  "http://www.w3.org/Graphics/SVG/1.1/DTD/svg11.dtd">
<!-- Created with matplotlib (https://matplotlib.org/) -->
<svg height="473.76pt" version="1.1" viewBox="0 0 648 473.76" width="648pt" xmlns="http://www.w3.org/2000/svg" xmlns:xlink="http://www.w3.org/1999/xlink">
 <defs>
  <style type="text/css">
*{stroke-linecap:butt;stroke-linejoin:round;}
  </style>
 </defs>
 <g id="figure_1">
  <g id="patch_1">
   <path d="M 0 473.76 
L 648 473.76 
L 648 0 
L 0 0 
z
" style="fill:#ffffff;"/>
  </g>
  <g id="axes_1">
   <g id="patch_2">
    <path d="M 81 421.6464 
L 583.2 421.6464 
L 583.2 56.8512 
L 81 56.8512 
z
" style="fill:#ffffff;"/>
   </g>
   <g id="matplotlib.axis_1">
    <g id="xtick_1">
     <g id="line2d_1">
      <defs>
       <path d="M 0 0 
L 0 2 
" id="m09c33eaad0" style="stroke:#000000;"/>
      </defs>
      <g>
       <use style="stroke:#000000;" x="103.75375" xlink:href="#m09c33eaad0" y="421.6464"/>
      </g>
     </g>
     <g id="text_1">
      <!-- 0.1 -->
      <defs>
       <path d="M 31.78125 66.40625 
Q 24.171875 66.40625 20.328125 58.90625 
Q 16.5 51.421875 16.5 36.375 
Q 16.5 21.390625 20.328125 13.890625 
Q 24.171875 6.390625 31.78125 6.390625 
Q 39.453125 6.390625 43.28125 13.890625 
Q 47.125 21.390625 47.125 36.375 
Q 47.125 51.421875 43.28125 58.90625 
Q 39.453125 66.40625 31.78125 66.40625 
z
M 31.78125 74.21875 
Q 44.046875 74.21875 50.515625 64.515625 
Q 56.984375 54.828125 56.984375 36.375 
Q 56.984375 17.96875 50.515625 8.265625 
Q 44.046875 -1.421875 31.78125 -1.421875 
Q 19.53125 -1.421875 13.0625 8.265625 
Q 6.59375 17.96875 6.59375 36.375 
Q 6.59375 54.828125 13.0625 64.515625 
Q 19.53125 74.21875 31.78125 74.21875 
z
" id="DejaVuSans-48"/>
       <path d="M 10.6875 12.40625 
L 21 12.40625 
L 21 0 
L 10.6875 0 
z
" id="DejaVuSans-46"/>
       <path d="M 12.40625 8.296875 
L 28.515625 8.296875 
L 28.515625 63.921875 
L 10.984375 60.40625 
L 10.984375 69.390625 
L 28.421875 72.90625 
L 38.28125 72.90625 
L 38.28125 8.296875 
L 54.390625 8.296875 
L 54.390625 0 
L 12.40625 0 
z
" id="DejaVuSans-49"/>
      </defs>
      <g transform="translate(89.440937 440.823588)scale(0.18 -0.18)">
       <use xlink:href="#DejaVuSans-48"/>
       <use x="63.623047" xlink:href="#DejaVuSans-46"/>
       <use x="95.410156" xlink:href="#DejaVuSans-49"/>
      </g>
     </g>
    </g>
    <g id="xtick_2">
     <g id="line2d_2">
      <g>
       <use style="stroke:#000000;" x="215.226176" xlink:href="#m09c33eaad0" y="421.6464"/>
      </g>
     </g>
     <g id="text_2">
      <!-- 1.0 -->
      <g transform="translate(200.913364 440.823588)scale(0.18 -0.18)">
       <use xlink:href="#DejaVuSans-49"/>
       <use x="63.623047" xlink:href="#DejaVuSans-46"/>
       <use x="95.410156" xlink:href="#DejaVuSans-48"/>
      </g>
     </g>
    </g>
    <g id="xtick_3">
     <g id="line2d_3">
      <g>
       <use style="stroke:#000000;" x="326.698603" xlink:href="#m09c33eaad0" y="421.6464"/>
      </g>
     </g>
     <g id="text_3">
      <!-- 10.0 -->
      <g transform="translate(306.65954 440.823588)scale(0.18 -0.18)">
       <use xlink:href="#DejaVuSans-49"/>
       <use x="63.623047" xlink:href="#DejaVuSans-48"/>
       <use x="127.246094" xlink:href="#DejaVuSans-46"/>
       <use x="159.033203" xlink:href="#DejaVuSans-48"/>
      </g>
     </g>
    </g>
    <g id="xtick_4">
     <g id="line2d_4">
      <g>
       <use style="stroke:#000000;" x="438.171029" xlink:href="#m09c33eaad0" y="421.6464"/>
      </g>
     </g>
     <g id="text_4">
      <!-- 100.0 -->
      <g transform="translate(412.405717 440.823588)scale(0.18 -0.18)">
       <use xlink:href="#DejaVuSans-49"/>
       <use x="63.623047" xlink:href="#DejaVuSans-48"/>
       <use x="127.246094" xlink:href="#DejaVuSans-48"/>
       <use x="190.869141" xlink:href="#DejaVuSans-46"/>
       <use x="222.65625" xlink:href="#DejaVuSans-48"/>
      </g>
     </g>
    </g>
    <g id="xtick_5">
     <g id="line2d_5">
      <g>
       <use style="stroke:#000000;" x="549.643456" xlink:href="#m09c33eaad0" y="421.6464"/>
      </g>
     </g>
     <g id="text_5">
      <!-- 1000.0 -->
      <g transform="translate(518.151893 440.823588)scale(0.18 -0.18)">
       <use xlink:href="#DejaVuSans-49"/>
       <use x="63.623047" xlink:href="#DejaVuSans-48"/>
       <use x="127.246094" xlink:href="#DejaVuSans-48"/>
       <use x="190.869141" xlink:href="#DejaVuSans-48"/>
       <use x="254.492188" xlink:href="#DejaVuSans-46"/>
       <use x="286.279297" xlink:href="#DejaVuSans-48"/>
      </g>
     </g>
    </g>
    <g id="xtick_6">
     <g id="line2d_6">
      <defs>
       <path d="M 0 0 
L 0 2 
" id="md014cdf63f" style="stroke:#000000;stroke-width:0.6;"/>
      </defs>
      <g>
       <use style="stroke:#000000;stroke-width:0.6;" x="86.486452" xlink:href="#md014cdf63f" y="421.6464"/>
      </g>
     </g>
    </g>
    <g id="xtick_7">
     <g id="line2d_7">
      <g>
       <use style="stroke:#000000;stroke-width:0.6;" x="92.950955" xlink:href="#md014cdf63f" y="421.6464"/>
      </g>
     </g>
    </g>
    <g id="xtick_8">
     <g id="line2d_8">
      <g>
       <use style="stroke:#000000;stroke-width:0.6;" x="98.653051" xlink:href="#md014cdf63f" y="421.6464"/>
      </g>
     </g>
    </g>
    <g id="xtick_9">
     <g id="line2d_9">
      <g>
       <use style="stroke:#000000;stroke-width:0.6;" x="137.310294" xlink:href="#md014cdf63f" y="421.6464"/>
      </g>
     </g>
    </g>
    <g id="xtick_10">
     <g id="line2d_10">
      <g>
       <use style="stroke:#000000;stroke-width:0.6;" x="156.939614" xlink:href="#md014cdf63f" y="421.6464"/>
      </g>
     </g>
    </g>
    <g id="xtick_11">
     <g id="line2d_11">
      <g>
       <use style="stroke:#000000;stroke-width:0.6;" x="170.866838" xlink:href="#md014cdf63f" y="421.6464"/>
      </g>
     </g>
    </g>
    <g id="xtick_12">
     <g id="line2d_12">
      <g>
       <use style="stroke:#000000;stroke-width:0.6;" x="181.669632" xlink:href="#md014cdf63f" y="421.6464"/>
      </g>
     </g>
    </g>
    <g id="xtick_13">
     <g id="line2d_13">
      <g>
       <use style="stroke:#000000;stroke-width:0.6;" x="190.496158" xlink:href="#md014cdf63f" y="421.6464"/>
      </g>
     </g>
    </g>
    <g id="xtick_14">
     <g id="line2d_14">
      <g>
       <use style="stroke:#000000;stroke-width:0.6;" x="197.958879" xlink:href="#md014cdf63f" y="421.6464"/>
      </g>
     </g>
    </g>
    <g id="xtick_15">
     <g id="line2d_15">
      <g>
       <use style="stroke:#000000;stroke-width:0.6;" x="204.423382" xlink:href="#md014cdf63f" y="421.6464"/>
      </g>
     </g>
    </g>
    <g id="xtick_16">
     <g id="line2d_16">
      <g>
       <use style="stroke:#000000;stroke-width:0.6;" x="210.125478" xlink:href="#md014cdf63f" y="421.6464"/>
      </g>
     </g>
    </g>
    <g id="xtick_17">
     <g id="line2d_17">
      <g>
       <use style="stroke:#000000;stroke-width:0.6;" x="248.78272" xlink:href="#md014cdf63f" y="421.6464"/>
      </g>
     </g>
    </g>
    <g id="xtick_18">
     <g id="line2d_18">
      <g>
       <use style="stroke:#000000;stroke-width:0.6;" x="268.41204" xlink:href="#md014cdf63f" y="421.6464"/>
      </g>
     </g>
    </g>
    <g id="xtick_19">
     <g id="line2d_19">
      <g>
       <use style="stroke:#000000;stroke-width:0.6;" x="282.339264" xlink:href="#md014cdf63f" y="421.6464"/>
      </g>
     </g>
    </g>
    <g id="xtick_20">
     <g id="line2d_20">
      <g>
       <use style="stroke:#000000;stroke-width:0.6;" x="293.142059" xlink:href="#md014cdf63f" y="421.6464"/>
      </g>
     </g>
    </g>
    <g id="xtick_21">
     <g id="line2d_21">
      <g>
       <use style="stroke:#000000;stroke-width:0.6;" x="301.968584" xlink:href="#md014cdf63f" y="421.6464"/>
      </g>
     </g>
    </g>
    <g id="xtick_22">
     <g id="line2d_22">
      <g>
       <use style="stroke:#000000;stroke-width:0.6;" x="309.431305" xlink:href="#md014cdf63f" y="421.6464"/>
      </g>
     </g>
    </g>
    <g id="xtick_23">
     <g id="line2d_23">
      <g>
       <use style="stroke:#000000;stroke-width:0.6;" x="315.895809" xlink:href="#md014cdf63f" y="421.6464"/>
      </g>
     </g>
    </g>
    <g id="xtick_24">
     <g id="line2d_24">
      <g>
       <use style="stroke:#000000;stroke-width:0.6;" x="321.597904" xlink:href="#md014cdf63f" y="421.6464"/>
      </g>
     </g>
    </g>
    <g id="xtick_25">
     <g id="line2d_25">
      <g>
       <use style="stroke:#000000;stroke-width:0.6;" x="360.255147" xlink:href="#md014cdf63f" y="421.6464"/>
      </g>
     </g>
    </g>
    <g id="xtick_26">
     <g id="line2d_26">
      <g>
       <use style="stroke:#000000;stroke-width:0.6;" x="379.884467" xlink:href="#md014cdf63f" y="421.6464"/>
      </g>
     </g>
    </g>
    <g id="xtick_27">
     <g id="line2d_27">
      <g>
       <use style="stroke:#000000;stroke-width:0.6;" x="393.811691" xlink:href="#md014cdf63f" y="421.6464"/>
      </g>
     </g>
    </g>
    <g id="xtick_28">
     <g id="line2d_28">
      <g>
       <use style="stroke:#000000;stroke-width:0.6;" x="404.614485" xlink:href="#md014cdf63f" y="421.6464"/>
      </g>
     </g>
    </g>
    <g id="xtick_29">
     <g id="line2d_29">
      <g>
       <use style="stroke:#000000;stroke-width:0.6;" x="413.441011" xlink:href="#md014cdf63f" y="421.6464"/>
      </g>
     </g>
    </g>
    <g id="xtick_30">
     <g id="line2d_30">
      <g>
       <use style="stroke:#000000;stroke-width:0.6;" x="420.903732" xlink:href="#md014cdf63f" y="421.6464"/>
      </g>
     </g>
    </g>
    <g id="xtick_31">
     <g id="line2d_31">
      <g>
       <use style="stroke:#000000;stroke-width:0.6;" x="427.368235" xlink:href="#md014cdf63f" y="421.6464"/>
      </g>
     </g>
    </g>
    <g id="xtick_32">
     <g id="line2d_32">
      <g>
       <use style="stroke:#000000;stroke-width:0.6;" x="433.070331" xlink:href="#md014cdf63f" y="421.6464"/>
      </g>
     </g>
    </g>
    <g id="xtick_33">
     <g id="line2d_33">
      <g>
       <use style="stroke:#000000;stroke-width:0.6;" x="471.727573" xlink:href="#md014cdf63f" y="421.6464"/>
      </g>
     </g>
    </g>
    <g id="xtick_34">
     <g id="line2d_34">
      <g>
       <use style="stroke:#000000;stroke-width:0.6;" x="491.356893" xlink:href="#md014cdf63f" y="421.6464"/>
      </g>
     </g>
    </g>
    <g id="xtick_35">
     <g id="line2d_35">
      <g>
       <use style="stroke:#000000;stroke-width:0.6;" x="505.284118" xlink:href="#md014cdf63f" y="421.6464"/>
      </g>
     </g>
    </g>
    <g id="xtick_36">
     <g id="line2d_36">
      <g>
       <use style="stroke:#000000;stroke-width:0.6;" x="516.086912" xlink:href="#md014cdf63f" y="421.6464"/>
      </g>
     </g>
    </g>
    <g id="xtick_37">
     <g id="line2d_37">
      <g>
       <use style="stroke:#000000;stroke-width:0.6;" x="524.913437" xlink:href="#md014cdf63f" y="421.6464"/>
      </g>
     </g>
    </g>
    <g id="xtick_38">
     <g id="line2d_38">
      <g>
       <use style="stroke:#000000;stroke-width:0.6;" x="532.376159" xlink:href="#md014cdf63f" y="421.6464"/>
      </g>
     </g>
    </g>
    <g id="xtick_39">
     <g id="line2d_39">
      <g>
       <use style="stroke:#000000;stroke-width:0.6;" x="538.840662" xlink:href="#md014cdf63f" y="421.6464"/>
      </g>
     </g>
    </g>
    <g id="xtick_40">
     <g id="line2d_40">
      <g>
       <use style="stroke:#000000;stroke-width:0.6;" x="544.542757" xlink:href="#md014cdf63f" y="421.6464"/>
      </g>
     </g>
    </g>
    <g id="xtick_41">
     <g id="line2d_41">
      <g>
       <use style="stroke:#000000;stroke-width:0.6;" x="583.2" xlink:href="#md014cdf63f" y="421.6464"/>
      </g>
     </g>
    </g>
    <g id="text_6">
     <!-- 4-Omethyl-Norbelladine (uM) -->
     <defs>
      <path d="M 37.796875 64.3125 
L 12.890625 25.390625 
L 37.796875 25.390625 
z
M 35.203125 72.90625 
L 47.609375 72.90625 
L 47.609375 25.390625 
L 58.015625 25.390625 
L 58.015625 17.1875 
L 47.609375 17.1875 
L 47.609375 0 
L 37.796875 0 
L 37.796875 17.1875 
L 4.890625 17.1875 
L 4.890625 26.703125 
z
" id="DejaVuSans-52"/>
      <path d="M 4.890625 31.390625 
L 31.203125 31.390625 
L 31.203125 23.390625 
L 4.890625 23.390625 
z
" id="DejaVuSans-45"/>
      <path d="M 39.40625 66.21875 
Q 28.65625 66.21875 22.328125 58.203125 
Q 16.015625 50.203125 16.015625 36.375 
Q 16.015625 22.609375 22.328125 14.59375 
Q 28.65625 6.59375 39.40625 6.59375 
Q 50.140625 6.59375 56.421875 14.59375 
Q 62.703125 22.609375 62.703125 36.375 
Q 62.703125 50.203125 56.421875 58.203125 
Q 50.140625 66.21875 39.40625 66.21875 
z
M 39.40625 74.21875 
Q 54.734375 74.21875 63.90625 63.9375 
Q 73.09375 53.65625 73.09375 36.375 
Q 73.09375 19.140625 63.90625 8.859375 
Q 54.734375 -1.421875 39.40625 -1.421875 
Q 24.03125 -1.421875 14.8125 8.828125 
Q 5.609375 19.09375 5.609375 36.375 
Q 5.609375 53.65625 14.8125 63.9375 
Q 24.03125 74.21875 39.40625 74.21875 
z
" id="DejaVuSans-79"/>
      <path d="M 52 44.1875 
Q 55.375 50.25 60.0625 53.125 
Q 64.75 56 71.09375 56 
Q 79.640625 56 84.28125 50.015625 
Q 88.921875 44.046875 88.921875 33.015625 
L 88.921875 0 
L 79.890625 0 
L 79.890625 32.71875 
Q 79.890625 40.578125 77.09375 44.375 
Q 74.3125 48.1875 68.609375 48.1875 
Q 61.625 48.1875 57.5625 43.546875 
Q 53.515625 38.921875 53.515625 30.90625 
L 53.515625 0 
L 44.484375 0 
L 44.484375 32.71875 
Q 44.484375 40.625 41.703125 44.40625 
Q 38.921875 48.1875 33.109375 48.1875 
Q 26.21875 48.1875 22.15625 43.53125 
Q 18.109375 38.875 18.109375 30.90625 
L 18.109375 0 
L 9.078125 0 
L 9.078125 54.6875 
L 18.109375 54.6875 
L 18.109375 46.1875 
Q 21.1875 51.21875 25.484375 53.609375 
Q 29.78125 56 35.6875 56 
Q 41.65625 56 45.828125 52.96875 
Q 50 49.953125 52 44.1875 
z
" id="DejaVuSans-109"/>
      <path d="M 56.203125 29.59375 
L 56.203125 25.203125 
L 14.890625 25.203125 
Q 15.484375 15.921875 20.484375 11.0625 
Q 25.484375 6.203125 34.421875 6.203125 
Q 39.59375 6.203125 44.453125 7.46875 
Q 49.3125 8.734375 54.109375 11.28125 
L 54.109375 2.78125 
Q 49.265625 0.734375 44.1875 -0.34375 
Q 39.109375 -1.421875 33.890625 -1.421875 
Q 20.796875 -1.421875 13.15625 6.1875 
Q 5.515625 13.8125 5.515625 26.8125 
Q 5.515625 40.234375 12.765625 48.109375 
Q 20.015625 56 32.328125 56 
Q 43.359375 56 49.78125 48.890625 
Q 56.203125 41.796875 56.203125 29.59375 
z
M 47.21875 32.234375 
Q 47.125 39.59375 43.09375 43.984375 
Q 39.0625 48.390625 32.421875 48.390625 
Q 24.90625 48.390625 20.390625 44.140625 
Q 15.875 39.890625 15.1875 32.171875 
z
" id="DejaVuSans-101"/>
      <path d="M 18.3125 70.21875 
L 18.3125 54.6875 
L 36.8125 54.6875 
L 36.8125 47.703125 
L 18.3125 47.703125 
L 18.3125 18.015625 
Q 18.3125 11.328125 20.140625 9.421875 
Q 21.96875 7.515625 27.59375 7.515625 
L 36.8125 7.515625 
L 36.8125 0 
L 27.59375 0 
Q 17.1875 0 13.234375 3.875 
Q 9.28125 7.765625 9.28125 18.015625 
L 9.28125 47.703125 
L 2.6875 47.703125 
L 2.6875 54.6875 
L 9.28125 54.6875 
L 9.28125 70.21875 
z
" id="DejaVuSans-116"/>
      <path d="M 54.890625 33.015625 
L 54.890625 0 
L 45.90625 0 
L 45.90625 32.71875 
Q 45.90625 40.484375 42.875 44.328125 
Q 39.84375 48.1875 33.796875 48.1875 
Q 26.515625 48.1875 22.3125 43.546875 
Q 18.109375 38.921875 18.109375 30.90625 
L 18.109375 0 
L 9.078125 0 
L 9.078125 75.984375 
L 18.109375 75.984375 
L 18.109375 46.1875 
Q 21.34375 51.125 25.703125 53.5625 
Q 30.078125 56 35.796875 56 
Q 45.21875 56 50.046875 50.171875 
Q 54.890625 44.34375 54.890625 33.015625 
z
" id="DejaVuSans-104"/>
      <path d="M 32.171875 -5.078125 
Q 28.375 -14.84375 24.75 -17.8125 
Q 21.140625 -20.796875 15.09375 -20.796875 
L 7.90625 -20.796875 
L 7.90625 -13.28125 
L 13.1875 -13.28125 
Q 16.890625 -13.28125 18.9375 -11.515625 
Q 21 -9.765625 23.484375 -3.21875 
L 25.09375 0.875 
L 2.984375 54.6875 
L 12.5 54.6875 
L 29.59375 11.921875 
L 46.6875 54.6875 
L 56.203125 54.6875 
z
" id="DejaVuSans-121"/>
      <path d="M 9.421875 75.984375 
L 18.40625 75.984375 
L 18.40625 0 
L 9.421875 0 
z
" id="DejaVuSans-108"/>
      <path d="M 9.8125 72.90625 
L 23.09375 72.90625 
L 55.421875 11.921875 
L 55.421875 72.90625 
L 64.984375 72.90625 
L 64.984375 0 
L 51.703125 0 
L 19.390625 60.984375 
L 19.390625 0 
L 9.8125 0 
z
" id="DejaVuSans-78"/>
      <path d="M 30.609375 48.390625 
Q 23.390625 48.390625 19.1875 42.75 
Q 14.984375 37.109375 14.984375 27.296875 
Q 14.984375 17.484375 19.15625 11.84375 
Q 23.34375 6.203125 30.609375 6.203125 
Q 37.796875 6.203125 41.984375 11.859375 
Q 46.1875 17.53125 46.1875 27.296875 
Q 46.1875 37.015625 41.984375 42.703125 
Q 37.796875 48.390625 30.609375 48.390625 
z
M 30.609375 56 
Q 42.328125 56 49.015625 48.375 
Q 55.71875 40.765625 55.71875 27.296875 
Q 55.71875 13.875 49.015625 6.21875 
Q 42.328125 -1.421875 30.609375 -1.421875 
Q 18.84375 -1.421875 12.171875 6.21875 
Q 5.515625 13.875 5.515625 27.296875 
Q 5.515625 40.765625 12.171875 48.375 
Q 18.84375 56 30.609375 56 
z
" id="DejaVuSans-111"/>
      <path d="M 41.109375 46.296875 
Q 39.59375 47.171875 37.8125 47.578125 
Q 36.03125 48 33.890625 48 
Q 26.265625 48 22.1875 43.046875 
Q 18.109375 38.09375 18.109375 28.8125 
L 18.109375 0 
L 9.078125 0 
L 9.078125 54.6875 
L 18.109375 54.6875 
L 18.109375 46.1875 
Q 20.953125 51.171875 25.484375 53.578125 
Q 30.03125 56 36.53125 56 
Q 37.453125 56 38.578125 55.875 
Q 39.703125 55.765625 41.0625 55.515625 
z
" id="DejaVuSans-114"/>
      <path d="M 48.6875 27.296875 
Q 48.6875 37.203125 44.609375 42.84375 
Q 40.53125 48.484375 33.40625 48.484375 
Q 26.265625 48.484375 22.1875 42.84375 
Q 18.109375 37.203125 18.109375 27.296875 
Q 18.109375 17.390625 22.1875 11.75 
Q 26.265625 6.109375 33.40625 6.109375 
Q 40.53125 6.109375 44.609375 11.75 
Q 48.6875 17.390625 48.6875 27.296875 
z
M 18.109375 46.390625 
Q 20.953125 51.265625 25.265625 53.625 
Q 29.59375 56 35.59375 56 
Q 45.5625 56 51.78125 48.09375 
Q 58.015625 40.1875 58.015625 27.296875 
Q 58.015625 14.40625 51.78125 6.484375 
Q 45.5625 -1.421875 35.59375 -1.421875 
Q 29.59375 -1.421875 25.265625 0.953125 
Q 20.953125 3.328125 18.109375 8.203125 
L 18.109375 0 
L 9.078125 0 
L 9.078125 75.984375 
L 18.109375 75.984375 
z
" id="DejaVuSans-98"/>
      <path d="M 34.28125 27.484375 
Q 23.390625 27.484375 19.1875 25 
Q 14.984375 22.515625 14.984375 16.5 
Q 14.984375 11.71875 18.140625 8.90625 
Q 21.296875 6.109375 26.703125 6.109375 
Q 34.1875 6.109375 38.703125 11.40625 
Q 43.21875 16.703125 43.21875 25.484375 
L 43.21875 27.484375 
z
M 52.203125 31.203125 
L 52.203125 0 
L 43.21875 0 
L 43.21875 8.296875 
Q 40.140625 3.328125 35.546875 0.953125 
Q 30.953125 -1.421875 24.3125 -1.421875 
Q 15.921875 -1.421875 10.953125 3.296875 
Q 6 8.015625 6 15.921875 
Q 6 25.140625 12.171875 29.828125 
Q 18.359375 34.515625 30.609375 34.515625 
L 43.21875 34.515625 
L 43.21875 35.40625 
Q 43.21875 41.609375 39.140625 45 
Q 35.0625 48.390625 27.6875 48.390625 
Q 23 48.390625 18.546875 47.265625 
Q 14.109375 46.140625 10.015625 43.890625 
L 10.015625 52.203125 
Q 14.9375 54.109375 19.578125 55.046875 
Q 24.21875 56 28.609375 56 
Q 40.484375 56 46.34375 49.84375 
Q 52.203125 43.703125 52.203125 31.203125 
z
" id="DejaVuSans-97"/>
      <path d="M 45.40625 46.390625 
L 45.40625 75.984375 
L 54.390625 75.984375 
L 54.390625 0 
L 45.40625 0 
L 45.40625 8.203125 
Q 42.578125 3.328125 38.25 0.953125 
Q 33.9375 -1.421875 27.875 -1.421875 
Q 17.96875 -1.421875 11.734375 6.484375 
Q 5.515625 14.40625 5.515625 27.296875 
Q 5.515625 40.1875 11.734375 48.09375 
Q 17.96875 56 27.875 56 
Q 33.9375 56 38.25 53.625 
Q 42.578125 51.265625 45.40625 46.390625 
z
M 14.796875 27.296875 
Q 14.796875 17.390625 18.875 11.75 
Q 22.953125 6.109375 30.078125 6.109375 
Q 37.203125 6.109375 41.296875 11.75 
Q 45.40625 17.390625 45.40625 27.296875 
Q 45.40625 37.203125 41.296875 42.84375 
Q 37.203125 48.484375 30.078125 48.484375 
Q 22.953125 48.484375 18.875 42.84375 
Q 14.796875 37.203125 14.796875 27.296875 
z
" id="DejaVuSans-100"/>
      <path d="M 9.421875 54.6875 
L 18.40625 54.6875 
L 18.40625 0 
L 9.421875 0 
z
M 9.421875 75.984375 
L 18.40625 75.984375 
L 18.40625 64.59375 
L 9.421875 64.59375 
z
" id="DejaVuSans-105"/>
      <path d="M 54.890625 33.015625 
L 54.890625 0 
L 45.90625 0 
L 45.90625 32.71875 
Q 45.90625 40.484375 42.875 44.328125 
Q 39.84375 48.1875 33.796875 48.1875 
Q 26.515625 48.1875 22.3125 43.546875 
Q 18.109375 38.921875 18.109375 30.90625 
L 18.109375 0 
L 9.078125 0 
L 9.078125 54.6875 
L 18.109375 54.6875 
L 18.109375 46.1875 
Q 21.34375 51.125 25.703125 53.5625 
Q 30.078125 56 35.796875 56 
Q 45.21875 56 50.046875 50.171875 
Q 54.890625 44.34375 54.890625 33.015625 
z
" id="DejaVuSans-110"/>
      <path id="DejaVuSans-32"/>
      <path d="M 31 75.875 
Q 24.46875 64.65625 21.28125 53.65625 
Q 18.109375 42.671875 18.109375 31.390625 
Q 18.109375 20.125 21.3125 9.0625 
Q 24.515625 -2 31 -13.1875 
L 23.1875 -13.1875 
Q 15.875 -1.703125 12.234375 9.375 
Q 8.59375 20.453125 8.59375 31.390625 
Q 8.59375 42.28125 12.203125 53.3125 
Q 15.828125 64.359375 23.1875 75.875 
z
" id="DejaVuSans-40"/>
      <path d="M 8.5 21.578125 
L 8.5 54.6875 
L 17.484375 54.6875 
L 17.484375 21.921875 
Q 17.484375 14.15625 20.5 10.265625 
Q 23.53125 6.390625 29.59375 6.390625 
Q 36.859375 6.390625 41.078125 11.03125 
Q 45.3125 15.671875 45.3125 23.6875 
L 45.3125 54.6875 
L 54.296875 54.6875 
L 54.296875 0 
L 45.3125 0 
L 45.3125 8.40625 
Q 42.046875 3.421875 37.71875 1 
Q 33.40625 -1.421875 27.6875 -1.421875 
Q 18.265625 -1.421875 13.375 4.4375 
Q 8.5 10.296875 8.5 21.578125 
z
M 31.109375 56 
z
" id="DejaVuSans-117"/>
      <path d="M 9.8125 72.90625 
L 24.515625 72.90625 
L 43.109375 23.296875 
L 61.8125 72.90625 
L 76.515625 72.90625 
L 76.515625 0 
L 66.890625 0 
L 66.890625 64.015625 
L 48.09375 14.015625 
L 38.1875 14.015625 
L 19.390625 64.015625 
L 19.390625 0 
L 9.8125 0 
z
" id="DejaVuSans-77"/>
      <path d="M 8.015625 75.875 
L 15.828125 75.875 
Q 23.140625 64.359375 26.78125 53.3125 
Q 30.421875 42.28125 30.421875 31.390625 
Q 30.421875 20.453125 26.78125 9.375 
Q 23.140625 -1.703125 15.828125 -13.1875 
L 8.015625 -13.1875 
Q 14.5 -2 17.703125 9.0625 
Q 20.90625 20.125 20.90625 31.390625 
Q 20.90625 42.671875 17.703125 53.65625 
Q 14.5 64.65625 8.015625 75.875 
z
" id="DejaVuSans-41"/>
     </defs>
     <g transform="translate(186.3375 463.7639)scale(0.2 -0.2)">
      <use xlink:href="#DejaVuSans-52"/>
      <use x="63.623047" xlink:href="#DejaVuSans-45"/>
      <use x="99.738281" xlink:href="#DejaVuSans-79"/>
      <use x="178.449219" xlink:href="#DejaVuSans-109"/>
      <use x="275.861328" xlink:href="#DejaVuSans-101"/>
      <use x="337.384766" xlink:href="#DejaVuSans-116"/>
      <use x="376.59375" xlink:href="#DejaVuSans-104"/>
      <use x="439.972656" xlink:href="#DejaVuSans-121"/>
      <use x="499.152344" xlink:href="#DejaVuSans-108"/>
      <use x="526.935547" xlink:href="#DejaVuSans-45"/>
      <use x="563.019531" xlink:href="#DejaVuSans-78"/>
      <use x="637.824219" xlink:href="#DejaVuSans-111"/>
      <use x="699.005859" xlink:href="#DejaVuSans-114"/>
      <use x="740.119141" xlink:href="#DejaVuSans-98"/>
      <use x="803.595703" xlink:href="#DejaVuSans-101"/>
      <use x="865.119141" xlink:href="#DejaVuSans-108"/>
      <use x="892.902344" xlink:href="#DejaVuSans-108"/>
      <use x="920.685547" xlink:href="#DejaVuSans-97"/>
      <use x="981.964844" xlink:href="#DejaVuSans-100"/>
      <use x="1045.441406" xlink:href="#DejaVuSans-105"/>
      <use x="1073.224609" xlink:href="#DejaVuSans-110"/>
      <use x="1136.603516" xlink:href="#DejaVuSans-101"/>
      <use x="1198.126953" xlink:href="#DejaVuSans-32"/>
      <use x="1229.914062" xlink:href="#DejaVuSans-40"/>
      <use x="1268.927734" xlink:href="#DejaVuSans-117"/>
      <use x="1332.306641" xlink:href="#DejaVuSans-77"/>
      <use x="1418.585938" xlink:href="#DejaVuSans-41"/>
     </g>
    </g>
   </g>
   <g id="matplotlib.axis_2">
    <g id="ytick_1">
     <g id="line2d_42">
      <defs>
       <path d="M 0 0 
L -2 0 
" id="m1fcebe3d06" style="stroke:#000000;"/>
      </defs>
      <g>
       <use style="stroke:#000000;" x="81" xlink:href="#m1fcebe3d06" y="405.0648"/>
      </g>
     </g>
     <g id="text_7">
      <!-- 0 -->
      <g transform="translate(64.0475 411.903394)scale(0.18 -0.18)">
       <use xlink:href="#DejaVuSans-48"/>
      </g>
     </g>
    </g>
    <g id="ytick_2">
     <g id="line2d_43">
      <g>
       <use style="stroke:#000000;" x="81" xlink:href="#m1fcebe3d06" y="325.006149"/>
      </g>
     </g>
     <g id="text_8">
      <!-- 1 -->
      <g transform="translate(64.0475 331.844743)scale(0.18 -0.18)">
       <use xlink:href="#DejaVuSans-49"/>
      </g>
     </g>
    </g>
    <g id="ytick_3">
     <g id="line2d_44">
      <g>
       <use style="stroke:#000000;" x="81" xlink:href="#m1fcebe3d06" y="244.947498"/>
      </g>
     </g>
     <g id="text_9">
      <!-- 2 -->
      <defs>
       <path d="M 19.1875 8.296875 
L 53.609375 8.296875 
L 53.609375 0 
L 7.328125 0 
L 7.328125 8.296875 
Q 12.9375 14.109375 22.625 23.890625 
Q 32.328125 33.6875 34.8125 36.53125 
Q 39.546875 41.84375 41.421875 45.53125 
Q 43.3125 49.21875 43.3125 52.78125 
Q 43.3125 58.59375 39.234375 62.25 
Q 35.15625 65.921875 28.609375 65.921875 
Q 23.96875 65.921875 18.8125 64.3125 
Q 13.671875 62.703125 7.8125 59.421875 
L 7.8125 69.390625 
Q 13.765625 71.78125 18.9375 73 
Q 24.125 74.21875 28.421875 74.21875 
Q 39.75 74.21875 46.484375 68.546875 
Q 53.21875 62.890625 53.21875 53.421875 
Q 53.21875 48.921875 51.53125 44.890625 
Q 49.859375 40.875 45.40625 35.40625 
Q 44.1875 33.984375 37.640625 27.21875 
Q 31.109375 20.453125 19.1875 8.296875 
z
" id="DejaVuSans-50"/>
      </defs>
      <g transform="translate(64.0475 251.786092)scale(0.18 -0.18)">
       <use xlink:href="#DejaVuSans-50"/>
      </g>
     </g>
    </g>
    <g id="ytick_4">
     <g id="line2d_45">
      <g>
       <use style="stroke:#000000;" x="81" xlink:href="#m1fcebe3d06" y="164.888847"/>
      </g>
     </g>
     <g id="text_10">
      <!-- 3 -->
      <defs>
       <path d="M 40.578125 39.3125 
Q 47.65625 37.796875 51.625 33 
Q 55.609375 28.21875 55.609375 21.1875 
Q 55.609375 10.40625 48.1875 4.484375 
Q 40.765625 -1.421875 27.09375 -1.421875 
Q 22.515625 -1.421875 17.65625 -0.515625 
Q 12.796875 0.390625 7.625 2.203125 
L 7.625 11.71875 
Q 11.71875 9.328125 16.59375 8.109375 
Q 21.484375 6.890625 26.8125 6.890625 
Q 36.078125 6.890625 40.9375 10.546875 
Q 45.796875 14.203125 45.796875 21.1875 
Q 45.796875 27.640625 41.28125 31.265625 
Q 36.765625 34.90625 28.71875 34.90625 
L 20.21875 34.90625 
L 20.21875 43.015625 
L 29.109375 43.015625 
Q 36.375 43.015625 40.234375 45.921875 
Q 44.09375 48.828125 44.09375 54.296875 
Q 44.09375 59.90625 40.109375 62.90625 
Q 36.140625 65.921875 28.71875 65.921875 
Q 24.65625 65.921875 20.015625 65.03125 
Q 15.375 64.15625 9.8125 62.3125 
L 9.8125 71.09375 
Q 15.4375 72.65625 20.34375 73.4375 
Q 25.25 74.21875 29.59375 74.21875 
Q 40.828125 74.21875 47.359375 69.109375 
Q 53.90625 64.015625 53.90625 55.328125 
Q 53.90625 49.265625 50.4375 45.09375 
Q 46.96875 40.921875 40.578125 39.3125 
z
" id="DejaVuSans-51"/>
      </defs>
      <g transform="translate(64.0475 171.727441)scale(0.18 -0.18)">
       <use xlink:href="#DejaVuSans-51"/>
      </g>
     </g>
    </g>
    <g id="ytick_5">
     <g id="line2d_46">
      <g>
       <use style="stroke:#000000;" x="81" xlink:href="#m1fcebe3d06" y="84.830196"/>
      </g>
     </g>
     <g id="text_11">
      <!-- 4 -->
      <g transform="translate(64.0475 91.66879)scale(0.18 -0.18)">
       <use xlink:href="#DejaVuSans-52"/>
      </g>
     </g>
    </g>
    <g id="text_12">
     <!-- $(RFU/OD) \times 10^4$ -->
     <defs>
      <path d="M 25.203125 64.796875 
L 20.21875 38.921875 
L 32.90625 38.921875 
Q 40.375 38.921875 44.984375 43.046875 
Q 49.609375 47.171875 49.609375 53.8125 
Q 49.609375 59.125 46.5 61.953125 
Q 43.40625 64.796875 37.59375 64.796875 
z
M 43.3125 35.015625 
Q 46.4375 34.28125 48.515625 31.390625 
Q 50.59375 28.515625 53.328125 19.921875 
L 59.515625 0 
L 49.125 0 
L 43.40625 18.703125 
Q 41.21875 25.921875 38.328125 28.359375 
Q 35.453125 30.8125 29.5 30.8125 
L 18.609375 30.8125 
L 12.59375 0 
L 2.6875 0 
L 16.890625 72.90625 
L 39.109375 72.90625 
Q 49.21875 72.90625 54.609375 68.328125 
Q 60.015625 63.765625 60.015625 55.171875 
Q 60.015625 47.5625 55.421875 41.984375 
Q 50.828125 36.421875 43.3125 35.015625 
z
" id="DejaVuSans-Oblique-82"/>
      <path d="M 16.890625 72.90625 
L 58.6875 72.90625 
L 57.078125 64.59375 
L 25.09375 64.59375 
L 20.90625 43.109375 
L 49.8125 43.109375 
L 48.1875 34.8125 
L 19.28125 34.8125 
L 12.5 0 
L 2.6875 0 
z
" id="DejaVuSans-Oblique-70"/>
      <path d="M 15.484375 72.90625 
L 25.390625 72.90625 
L 16.796875 28.609375 
Q 16.265625 25.640625 16.046875 23.703125 
Q 15.828125 21.78125 15.828125 20.3125 
Q 15.828125 13.578125 19.578125 10.078125 
Q 23.34375 6.59375 30.609375 6.59375 
Q 40.046875 6.59375 45.28125 11.765625 
Q 50.53125 16.9375 52.78125 28.609375 
L 61.375 72.90625 
L 71.296875 72.90625 
L 62.5 27.390625 
Q 59.625 12.640625 51.5625 5.609375 
Q 43.5 -1.421875 29.5 -1.421875 
Q 18.5625 -1.421875 12.1875 4.078125 
Q 5.8125 9.578125 5.8125 19 
Q 5.8125 20.703125 6.046875 22.828125 
Q 6.296875 24.953125 6.78125 27.390625 
z
" id="DejaVuSans-Oblique-85"/>
      <path d="M 25.390625 72.90625 
L 33.6875 72.90625 
L 8.296875 -9.28125 
L 0 -9.28125 
z
" id="DejaVuSans-47"/>
      <path d="M 45.609375 66.21875 
Q 37.5 66.21875 31.296875 62.28125 
Q 25.09375 58.34375 20.515625 50.296875 
Q 17.578125 45.171875 16.03125 39.40625 
Q 14.5 33.640625 14.5 27.78125 
Q 14.5 17.625 19.359375 12.109375 
Q 24.21875 6.59375 33.109375 6.59375 
Q 41.109375 6.59375 47.375 10.5625 
Q 53.65625 14.546875 58.109375 22.40625 
Q 61.078125 27.6875 62.640625 33.46875 
Q 64.203125 39.265625 64.203125 45.015625 
Q 64.203125 55.125 59.3125 60.671875 
Q 54.4375 66.21875 45.609375 66.21875 
z
M 32.8125 -1.421875 
Q 19.390625 -1.421875 11.6875 6.53125 
Q 4 14.5 4 28.328125 
Q 4 36.234375 7 44.484375 
Q 10.015625 52.734375 15.28125 59.1875 
Q 21.484375 66.75 29.09375 70.484375 
Q 36.71875 74.21875 45.90625 74.21875 
Q 59.28125 74.21875 66.984375 66.328125 
Q 74.703125 58.453125 74.703125 44.828125 
Q 74.703125 36.421875 71.765625 28.3125 
Q 68.84375 20.21875 63.375 13.625 
Q 57.125 6 49.578125 2.28125 
Q 42.046875 -1.421875 32.8125 -1.421875 
z
" id="DejaVuSans-Oblique-79"/>
      <path d="M 16.890625 72.90625 
L 38.09375 72.90625 
Q 54.984375 72.90625 63.59375 65.75 
Q 72.21875 58.59375 72.21875 44.484375 
Q 72.21875 35.15625 68.9375 26.53125 
Q 65.671875 17.921875 59.90625 12.015625 
Q 54.109375 5.953125 45.171875 2.96875 
Q 36.234375 0 24.03125 0 
L 2.6875 0 
z
M 25.203125 64.796875 
L 14.203125 8.109375 
L 27.09375 8.109375 
Q 43.65625 8.109375 52.734375 17.625 
Q 61.8125 27.15625 61.8125 44.484375 
Q 61.8125 54.984375 55.953125 59.890625 
Q 50.09375 64.796875 37.59375 64.796875 
z
" id="DejaVuSans-Oblique-68"/>
      <path d="M 70.125 53.71875 
L 47.796875 31.296875 
L 70.125 8.984375 
L 64.3125 3.078125 
L 41.890625 25.484375 
L 19.484375 3.078125 
L 13.71875 8.984375 
L 35.984375 31.296875 
L 13.71875 53.71875 
L 19.484375 59.625 
L 41.890625 37.203125 
L 64.3125 59.625 
z
" id="DejaVuSans-215"/>
     </defs>
     <g transform="translate(55.888125 315.8488)rotate(-90)scale(0.2 -0.2)">
      <use transform="translate(0 0.684375)" xlink:href="#DejaVuSans-40"/>
      <use transform="translate(39.013672 0.684375)" xlink:href="#DejaVuSans-Oblique-82"/>
      <use transform="translate(108.496094 0.684375)" xlink:href="#DejaVuSans-Oblique-70"/>
      <use transform="translate(166.015625 0.684375)" xlink:href="#DejaVuSans-Oblique-85"/>
      <use transform="translate(239.208984 0.684375)" xlink:href="#DejaVuSans-47"/>
      <use transform="translate(272.900391 0.684375)" xlink:href="#DejaVuSans-Oblique-79"/>
      <use transform="translate(351.611328 0.684375)" xlink:href="#DejaVuSans-Oblique-68"/>
      <use transform="translate(428.613281 0.684375)" xlink:href="#DejaVuSans-41"/>
      <use transform="translate(487.109375 0.684375)" xlink:href="#DejaVuSans-215"/>
      <use transform="translate(590.380859 0.684375)" xlink:href="#DejaVuSans-49"/>
      <use transform="translate(654.003906 0.684375)" xlink:href="#DejaVuSans-48"/>
      <use transform="translate(718.583984 38.965625)scale(0.7)" xlink:href="#DejaVuSans-52"/>
     </g>
    </g>
   </g>
   <g id="line2d_47">
    <path clip-path="url(#p9faf49db02)" d="M 79.024224 405.064484 
L 230.467234 404.95253 
L 259.971753 404.712431 
L 278.039264 404.35539 
L 291.267027 403.881475 
L 301.726402 403.292585 
L 310.458228 402.583604 
L 317.911275 401.760305 
L 324.470014 400.815527 
L 330.29025 399.756891 
L 335.565939 398.575684 
L 340.432275 397.260028 
L 344.92032 395.818246 
L 349.118856 394.237503 
L 353.06647 392.515363 
L 356.82037 390.635989 
L 360.400649 388.595764 
L 363.846794 386.376426 
L 367.189864 383.957689 
L 370.434753 381.334264 
L 373.604524 378.484705 
L 376.717469 375.386411 
L 379.804197 371.99746 
L 382.857857 368.311834 
L 385.901596 364.286876 
L 388.952933 359.879179 
L 392.024647 355.045947 
L 395.125524 349.746635 
L 398.272035 343.923623 
L 401.485375 337.503467 
L 404.788939 330.399914 
L 408.215121 322.49773 
L 411.808604 313.640454 
L 415.626453 303.62626 
L 419.770659 292.116694 
L 424.443979 278.460071 
L 430.189625 260.94361 
L 449.601518 201.165326 
L 454.218094 188.026065 
L 458.336841 176.958886 
L 462.147239 167.344668 
L 465.748007 158.852016 
L 469.196418 151.27914 
L 472.529859 144.486882 
L 475.780012 138.361759 
L 478.96757 132.822539 
L 482.112709 127.797365 
L 485.229203 123.23212 
L 488.334399 119.073677 
L 491.441219 115.281276 
L 494.563434 111.818102 
L 497.714853 108.652179 
L 500.912637 105.7531 
L 504.171749 103.0973 
L 507.510419 100.662676 
L 510.950106 98.429302 
L 514.512888 96.381271 
L 518.225747 94.504014 
L 522.12057 92.784963 
L 526.233553 91.214135 
L 530.609562 89.782738 
L 535.303782 88.483516 
L 540.385402 87.310587 
L 545.942893 86.259329 
L 549.643456 85.672003 
L 549.643456 85.672003 
" style="fill:none;stroke:#b73bff;stroke-linecap:square;stroke-width:1.5;"/>
   </g>
   <g id="line2d_48">
    <path clip-path="url(#p9faf49db02)" d="M 79.024224 405.056217 
L 161.554242 404.923675 
L 192.084059 404.667473 
L 211.713379 404.292283 
L 226.415209 403.794532 
L 237.980411 403.187574 
L 247.557523 402.472428 
L 255.968493 401.625131 
L 263.311826 400.664825 
L 269.843521 399.591255 
L 275.736728 398.404073 
L 281.238041 397.070204 
L 286.289188 395.618299 
L 290.964137 394.048571 
L 295.412265 392.323042 
L 299.655434 390.437216 
L 303.712401 388.387346 
L 307.59939 386.170485 
L 311.330537 383.784539 
L 314.918242 381.22831 
L 318.430907 378.453858 
L 321.866599 375.458178 
L 325.274384 372.189795 
L 328.644362 368.645881 
L 331.968931 364.8261 
L 335.282946 360.679882 
L 338.612206 356.156776 
L 341.974985 351.208085 
L 345.350356 345.843076 
L 348.782555 339.968325 
L 352.302279 333.49764 
L 355.928685 326.356907 
L 359.671175 318.489494 
L 363.598932 309.70584 
L 367.773648 299.812604 
L 372.301049 288.495635 
L 377.384758 275.168891 
L 383.565932 258.307675 
L 406.102335 196.205425 
L 411.068579 183.54613 
L 415.526085 172.778759 
L 419.664345 163.352617 
L 423.58137 154.974255 
L 427.338452 147.455445 
L 430.971118 140.675847 
L 434.517476 134.522267 
L 437.996916 128.925141 
L 441.428893 123.821055 
L 444.828072 119.159778 
L 448.217064 114.886436 
L 451.604847 110.969484 
L 455.007482 107.372639 
L 458.44206 104.063704 
L 461.919529 101.02053 
L 465.459571 98.216828 
L 469.07895 95.633094 
L 472.798148 93.250882 
L 476.640553 91.053929 
L 480.629161 89.029959 
L 484.79503 87.166236 
L 489.172219 85.452862 
L 493.800787 83.881553 
L 498.730107 82.445043 
L 504.019181 81.137717 
L 509.744461 79.954433 
L 516.004056 78.891099 
L 522.925885 77.94468 
L 530.685537 77.112627 
L 539.532708 76.392868 
L 549.643456 75.793452 
L 549.643456 75.793452 
" style="fill:none;stroke:#ff3b3b;stroke-linecap:square;stroke-width:1.5;"/>
   </g>
   <g id="line2d_49">
    <defs>
     <path d="M 0 3 
C 0.795609 3 1.55874 2.683901 2.12132 2.12132 
C 2.683901 1.55874 3 0.795609 3 0 
C 3 -0.795609 2.683901 -1.55874 2.12132 -2.12132 
C 1.55874 -2.683901 0.795609 -3 0 -3 
C -0.795609 -3 -1.55874 -2.683901 -2.12132 -2.12132 
C -2.683901 -1.55874 -3 -0.795609 -3 0 
C -3 0.795609 -2.683901 1.55874 -2.12132 2.12132 
C -1.55874 2.683901 -0.795609 3 0 3 
z
" id="mcd93576f64" style="stroke:#b73bff;"/>
    </defs>
    <g clip-path="url(#p9faf49db02)">
     <use style="fill:#b73bff;stroke:#b73bff;" x="-1" xlink:href="#mcd93576f64" y="403.439727"/>
     <use style="fill:#b73bff;stroke:#b73bff;" x="181.669632" xlink:href="#mcd93576f64" y="403.43967"/>
     <use style="fill:#b73bff;stroke:#b73bff;" x="215.226176" xlink:href="#mcd93576f64" y="403.389028"/>
     <use style="fill:#b73bff;stroke:#b73bff;" x="259.585515" xlink:href="#mcd93576f64" y="403.194092"/>
     <use style="fill:#b73bff;stroke:#b73bff;" x="293.142059" xlink:href="#mcd93576f64" y="402.63713"/>
     <use style="fill:#b73bff;stroke:#b73bff;" x="326.698603" xlink:href="#mcd93576f64" y="400.029762"/>
     <use style="fill:#b73bff;stroke:#b73bff;" x="371.057941" xlink:href="#mcd93576f64" y="383.174699"/>
     <use style="fill:#b73bff;stroke:#b73bff;" x="404.614485" xlink:href="#mcd93576f64" y="332.57696"/>
     <use style="fill:#b73bff;stroke:#b73bff;" x="438.171029" xlink:href="#mcd93576f64" y="236.109154"/>
     <use style="fill:#b73bff;stroke:#b73bff;" x="482.530368" xlink:href="#mcd93576f64" y="128.251694"/>
     <use style="fill:#b73bff;stroke:#b73bff;" x="516.086912" xlink:href="#mcd93576f64" y="97.418431"/>
     <use style="fill:#b73bff;stroke:#b73bff;" x="549.643456" xlink:href="#mcd93576f64" y="87.869112"/>
    </g>
   </g>
   <g id="line2d_50">
    <g clip-path="url(#p9faf49db02)">
     <use style="fill:#b73bff;stroke:#b73bff;" x="-1" xlink:href="#mcd93576f64" y="403.448505"/>
     <use style="fill:#b73bff;stroke:#b73bff;" x="181.669632" xlink:href="#mcd93576f64" y="403.448502"/>
     <use style="fill:#b73bff;stroke:#b73bff;" x="215.226176" xlink:href="#mcd93576f64" y="403.372793"/>
     <use style="fill:#b73bff;stroke:#b73bff;" x="259.585515" xlink:href="#mcd93576f64" y="403.176694"/>
     <use style="fill:#b73bff;stroke:#b73bff;" x="293.142059" xlink:href="#mcd93576f64" y="402.412922"/>
     <use style="fill:#b73bff;stroke:#b73bff;" x="326.698603" xlink:href="#mcd93576f64" y="399.608084"/>
     <use style="fill:#b73bff;stroke:#b73bff;" x="371.057941" xlink:href="#mcd93576f64" y="380.332197"/>
     <use style="fill:#b73bff;stroke:#b73bff;" x="404.614485" xlink:href="#mcd93576f64" y="326.204254"/>
     <use style="fill:#b73bff;stroke:#b73bff;" x="438.171029" xlink:href="#mcd93576f64" y="233.140428"/>
     <use style="fill:#b73bff;stroke:#b73bff;" x="482.530368" xlink:href="#mcd93576f64" y="126.102061"/>
     <use style="fill:#b73bff;stroke:#b73bff;" x="516.086912" xlink:href="#mcd93576f64" y="96.256093"/>
     <use style="fill:#b73bff;stroke:#b73bff;" x="549.643456" xlink:href="#mcd93576f64" y="87.529267"/>
    </g>
   </g>
   <g id="line2d_51">
    <g clip-path="url(#p9faf49db02)">
     <use style="fill:#b73bff;stroke:#b73bff;" x="-1" xlink:href="#mcd93576f64" y="403.488892"/>
     <use style="fill:#b73bff;stroke:#b73bff;" x="181.669632" xlink:href="#mcd93576f64" y="403.488633"/>
     <use style="fill:#b73bff;stroke:#b73bff;" x="215.226176" xlink:href="#mcd93576f64" y="403.349039"/>
     <use style="fill:#b73bff;stroke:#b73bff;" x="259.585515" xlink:href="#mcd93576f64" y="403.2267"/>
     <use style="fill:#b73bff;stroke:#b73bff;" x="293.142059" xlink:href="#mcd93576f64" y="402.863433"/>
     <use style="fill:#b73bff;stroke:#b73bff;" x="326.698603" xlink:href="#mcd93576f64" y="400.290109"/>
     <use style="fill:#b73bff;stroke:#b73bff;" x="371.057941" xlink:href="#mcd93576f64" y="382.926444"/>
     <use style="fill:#b73bff;stroke:#b73bff;" x="404.614485" xlink:href="#mcd93576f64" y="331.7158"/>
     <use style="fill:#b73bff;stroke:#b73bff;" x="438.171029" xlink:href="#mcd93576f64" y="238.732933"/>
     <use style="fill:#b73bff;stroke:#b73bff;" x="482.530368" xlink:href="#mcd93576f64" y="128.339814"/>
     <use style="fill:#b73bff;stroke:#b73bff;" x="516.086912" xlink:href="#mcd93576f64" y="91.490375"/>
     <use style="fill:#b73bff;stroke:#b73bff;" x="549.643456" xlink:href="#mcd93576f64" y="82.193299"/>
    </g>
   </g>
   <g id="line2d_52">
    <defs>
     <path d="M 0 3 
C 0.795609 3 1.55874 2.683901 2.12132 2.12132 
C 2.683901 1.55874 3 0.795609 3 0 
C 3 -0.795609 2.683901 -1.55874 2.12132 -2.12132 
C 1.55874 -2.683901 0.795609 -3 0 -3 
C -0.795609 -3 -1.55874 -2.683901 -2.12132 -2.12132 
C -2.683901 -1.55874 -3 -0.795609 -3 0 
C -3 0.795609 -2.683901 1.55874 -2.12132 2.12132 
C -1.55874 2.683901 -0.795609 3 0 3 
z
" id="mde304bd731" style="stroke:#ff3b3b;"/>
    </defs>
    <g clip-path="url(#p9faf49db02)">
     <use style="fill:#ff3b3b;stroke:#ff3b3b;" x="-1" xlink:href="#mde304bd731" y="400.223306"/>
     <use style="fill:#ff3b3b;stroke:#ff3b3b;" x="181.669632" xlink:href="#mde304bd731" y="400.222335"/>
     <use style="fill:#ff3b3b;stroke:#ff3b3b;" x="215.226176" xlink:href="#mde304bd731" y="399.434058"/>
     <use style="fill:#ff3b3b;stroke:#ff3b3b;" x="259.585515" xlink:href="#mde304bd731" y="396.976219"/>
     <use style="fill:#ff3b3b;stroke:#ff3b3b;" x="293.142059" xlink:href="#mde304bd731" y="390.244895"/>
     <use style="fill:#ff3b3b;stroke:#ff3b3b;" x="326.698603" xlink:href="#mde304bd731" y="370.42691"/>
     <use style="fill:#ff3b3b;stroke:#ff3b3b;" x="371.057941" xlink:href="#mde304bd731" y="294.556303"/>
     <use style="fill:#ff3b3b;stroke:#ff3b3b;" x="404.614485" xlink:href="#mde304bd731" y="199.58608"/>
     <use style="fill:#ff3b3b;stroke:#ff3b3b;" x="438.171029" xlink:href="#mde304bd731" y="127.667686"/>
     <use style="fill:#ff3b3b;stroke:#ff3b3b;" x="482.530368" xlink:href="#mde304bd731" y="82.84914"/>
     <use style="fill:#ff3b3b;stroke:#ff3b3b;" x="516.086912" xlink:href="#mde304bd731" y="73.4328"/>
     <use style="fill:#ff3b3b;stroke:#ff3b3b;" x="549.643456" xlink:href="#mde304bd731" y="80.353314"/>
    </g>
   </g>
   <g id="line2d_53">
    <g clip-path="url(#p9faf49db02)">
     <use style="fill:#ff3b3b;stroke:#ff3b3b;" x="-1" xlink:href="#mde304bd731" y="400.377048"/>
     <use style="fill:#ff3b3b;stroke:#ff3b3b;" x="181.669632" xlink:href="#mde304bd731" y="400.376007"/>
     <use style="fill:#ff3b3b;stroke:#ff3b3b;" x="215.226176" xlink:href="#mde304bd731" y="399.677263"/>
     <use style="fill:#ff3b3b;stroke:#ff3b3b;" x="259.585515" xlink:href="#mde304bd731" y="396.842987"/>
     <use style="fill:#ff3b3b;stroke:#ff3b3b;" x="293.142059" xlink:href="#mde304bd731" y="390.172028"/>
     <use style="fill:#ff3b3b;stroke:#ff3b3b;" x="326.698603" xlink:href="#mde304bd731" y="370.24025"/>
     <use style="fill:#ff3b3b;stroke:#ff3b3b;" x="371.057941" xlink:href="#mde304bd731" y="294.911007"/>
     <use style="fill:#ff3b3b;stroke:#ff3b3b;" x="404.614485" xlink:href="#mde304bd731" y="205.122809"/>
     <use style="fill:#ff3b3b;stroke:#ff3b3b;" x="438.171029" xlink:href="#mde304bd731" y="126.377686"/>
     <use style="fill:#ff3b3b;stroke:#ff3b3b;" x="482.530368" xlink:href="#mde304bd731" y="85.488612"/>
     <use style="fill:#ff3b3b;stroke:#ff3b3b;" x="516.086912" xlink:href="#mde304bd731" y="76.187667"/>
     <use style="fill:#ff3b3b;stroke:#ff3b3b;" x="549.643456" xlink:href="#mde304bd731" y="83.404173"/>
    </g>
   </g>
   <g id="line2d_54">
    <g clip-path="url(#p9faf49db02)">
     <use style="fill:#ff3b3b;stroke:#ff3b3b;" x="-1" xlink:href="#mde304bd731" y="400.486396"/>
     <use style="fill:#ff3b3b;stroke:#ff3b3b;" x="181.669632" xlink:href="#mde304bd731" y="400.485919"/>
     <use style="fill:#ff3b3b;stroke:#ff3b3b;" x="215.226176" xlink:href="#mde304bd731" y="399.413601"/>
     <use style="fill:#ff3b3b;stroke:#ff3b3b;" x="259.585515" xlink:href="#mde304bd731" y="396.708052"/>
     <use style="fill:#ff3b3b;stroke:#ff3b3b;" x="293.142059" xlink:href="#mde304bd731" y="389.422583"/>
     <use style="fill:#ff3b3b;stroke:#ff3b3b;" x="326.698603" xlink:href="#mde304bd731" y="367.976019"/>
     <use style="fill:#ff3b3b;stroke:#ff3b3b;" x="371.057941" xlink:href="#mde304bd731" y="290.350406"/>
     <use style="fill:#ff3b3b;stroke:#ff3b3b;" x="404.614485" xlink:href="#mde304bd731" y="199.622979"/>
     <use style="fill:#ff3b3b;stroke:#ff3b3b;" x="438.171029" xlink:href="#mde304bd731" y="127.044951"/>
     <use style="fill:#ff3b3b;stroke:#ff3b3b;" x="482.530368" xlink:href="#mde304bd731" y="84.523325"/>
     <use style="fill:#ff3b3b;stroke:#ff3b3b;" x="516.086912" xlink:href="#mde304bd731" y="78.430238"/>
     <use style="fill:#ff3b3b;stroke:#ff3b3b;" x="549.643456" xlink:href="#mde304bd731" y="84.155091"/>
    </g>
   </g>
   <g id="patch_3">
    <path d="M 81 421.6464 
L 81 56.8512 
" style="fill:none;stroke:#000000;stroke-linecap:square;stroke-linejoin:miter;stroke-width:0.8;"/>
   </g>
   <g id="patch_4">
    <path d="M 81 421.6464 
L 583.2 421.6464 
" style="fill:none;stroke:#000000;stroke-linecap:square;stroke-linejoin:miter;stroke-width:0.8;"/>
   </g>
   <g id="text_13">
    <!-- Dose response of one and two plasmid systems -->
    <defs>
     <path d="M 19.671875 64.796875 
L 19.671875 8.109375 
L 31.59375 8.109375 
Q 46.6875 8.109375 53.6875 14.9375 
Q 60.6875 21.78125 60.6875 36.53125 
Q 60.6875 51.171875 53.6875 57.984375 
Q 46.6875 64.796875 31.59375 64.796875 
z
M 9.8125 72.90625 
L 30.078125 72.90625 
Q 51.265625 72.90625 61.171875 64.09375 
Q 71.09375 55.28125 71.09375 36.53125 
Q 71.09375 17.671875 61.125 8.828125 
Q 51.171875 0 30.078125 0 
L 9.8125 0 
z
" id="DejaVuSans-68"/>
     <path d="M 44.28125 53.078125 
L 44.28125 44.578125 
Q 40.484375 46.53125 36.375 47.5 
Q 32.28125 48.484375 27.875 48.484375 
Q 21.1875 48.484375 17.84375 46.4375 
Q 14.5 44.390625 14.5 40.28125 
Q 14.5 37.15625 16.890625 35.375 
Q 19.28125 33.59375 26.515625 31.984375 
L 29.59375 31.296875 
Q 39.15625 29.25 43.1875 25.515625 
Q 47.21875 21.78125 47.21875 15.09375 
Q 47.21875 7.46875 41.1875 3.015625 
Q 35.15625 -1.421875 24.609375 -1.421875 
Q 20.21875 -1.421875 15.453125 -0.5625 
Q 10.6875 0.296875 5.421875 2 
L 5.421875 11.28125 
Q 10.40625 8.6875 15.234375 7.390625 
Q 20.0625 6.109375 24.8125 6.109375 
Q 31.15625 6.109375 34.5625 8.28125 
Q 37.984375 10.453125 37.984375 14.40625 
Q 37.984375 18.0625 35.515625 20.015625 
Q 33.0625 21.96875 24.703125 23.78125 
L 21.578125 24.515625 
Q 13.234375 26.265625 9.515625 29.90625 
Q 5.8125 33.546875 5.8125 39.890625 
Q 5.8125 47.609375 11.28125 51.796875 
Q 16.75 56 26.8125 56 
Q 31.78125 56 36.171875 55.265625 
Q 40.578125 54.546875 44.28125 53.078125 
z
" id="DejaVuSans-115"/>
     <path d="M 18.109375 8.203125 
L 18.109375 -20.796875 
L 9.078125 -20.796875 
L 9.078125 54.6875 
L 18.109375 54.6875 
L 18.109375 46.390625 
Q 20.953125 51.265625 25.265625 53.625 
Q 29.59375 56 35.59375 56 
Q 45.5625 56 51.78125 48.09375 
Q 58.015625 40.1875 58.015625 27.296875 
Q 58.015625 14.40625 51.78125 6.484375 
Q 45.5625 -1.421875 35.59375 -1.421875 
Q 29.59375 -1.421875 25.265625 0.953125 
Q 20.953125 3.328125 18.109375 8.203125 
z
M 48.6875 27.296875 
Q 48.6875 37.203125 44.609375 42.84375 
Q 40.53125 48.484375 33.40625 48.484375 
Q 26.265625 48.484375 22.1875 42.84375 
Q 18.109375 37.203125 18.109375 27.296875 
Q 18.109375 17.390625 22.1875 11.75 
Q 26.265625 6.109375 33.40625 6.109375 
Q 40.53125 6.109375 44.609375 11.75 
Q 48.6875 17.390625 48.6875 27.296875 
z
" id="DejaVuSans-112"/>
     <path d="M 37.109375 75.984375 
L 37.109375 68.5 
L 28.515625 68.5 
Q 23.6875 68.5 21.796875 66.546875 
Q 19.921875 64.59375 19.921875 59.515625 
L 19.921875 54.6875 
L 34.71875 54.6875 
L 34.71875 47.703125 
L 19.921875 47.703125 
L 19.921875 0 
L 10.890625 0 
L 10.890625 47.703125 
L 2.296875 47.703125 
L 2.296875 54.6875 
L 10.890625 54.6875 
L 10.890625 58.5 
Q 10.890625 67.625 15.140625 71.796875 
Q 19.390625 75.984375 28.609375 75.984375 
z
" id="DejaVuSans-102"/>
     <path d="M 4.203125 54.6875 
L 13.1875 54.6875 
L 24.421875 12.015625 
L 35.59375 54.6875 
L 46.1875 54.6875 
L 57.421875 12.015625 
L 68.609375 54.6875 
L 77.59375 54.6875 
L 63.28125 0 
L 52.6875 0 
L 40.921875 44.828125 
L 29.109375 0 
L 18.5 0 
z
" id="DejaVuSans-119"/>
    </defs>
    <g transform="translate(69.15875 50.8512)scale(0.22 -0.22)">
     <use xlink:href="#DejaVuSans-68"/>
     <use x="77.001953" xlink:href="#DejaVuSans-111"/>
     <use x="138.183594" xlink:href="#DejaVuSans-115"/>
     <use x="190.283203" xlink:href="#DejaVuSans-101"/>
     <use x="251.806641" xlink:href="#DejaVuSans-32"/>
     <use x="283.59375" xlink:href="#DejaVuSans-114"/>
     <use x="324.675781" xlink:href="#DejaVuSans-101"/>
     <use x="386.199219" xlink:href="#DejaVuSans-115"/>
     <use x="438.298828" xlink:href="#DejaVuSans-112"/>
     <use x="501.775391" xlink:href="#DejaVuSans-111"/>
     <use x="562.957031" xlink:href="#DejaVuSans-110"/>
     <use x="626.335938" xlink:href="#DejaVuSans-115"/>
     <use x="678.435547" xlink:href="#DejaVuSans-101"/>
     <use x="739.958984" xlink:href="#DejaVuSans-32"/>
     <use x="771.746094" xlink:href="#DejaVuSans-111"/>
     <use x="832.927734" xlink:href="#DejaVuSans-102"/>
     <use x="868.132812" xlink:href="#DejaVuSans-32"/>
     <use x="899.919922" xlink:href="#DejaVuSans-111"/>
     <use x="961.101562" xlink:href="#DejaVuSans-110"/>
     <use x="1024.480469" xlink:href="#DejaVuSans-101"/>
     <use x="1086.003906" xlink:href="#DejaVuSans-32"/>
     <use x="1117.791016" xlink:href="#DejaVuSans-97"/>
     <use x="1179.070312" xlink:href="#DejaVuSans-110"/>
     <use x="1242.449219" xlink:href="#DejaVuSans-100"/>
     <use x="1305.925781" xlink:href="#DejaVuSans-32"/>
     <use x="1337.712891" xlink:href="#DejaVuSans-116"/>
     <use x="1376.921875" xlink:href="#DejaVuSans-119"/>
     <use x="1458.708984" xlink:href="#DejaVuSans-111"/>
     <use x="1519.890625" xlink:href="#DejaVuSans-32"/>
     <use x="1551.677734" xlink:href="#DejaVuSans-112"/>
     <use x="1615.154297" xlink:href="#DejaVuSans-108"/>
     <use x="1642.9375" xlink:href="#DejaVuSans-97"/>
     <use x="1704.216797" xlink:href="#DejaVuSans-115"/>
     <use x="1756.316406" xlink:href="#DejaVuSans-109"/>
     <use x="1853.728516" xlink:href="#DejaVuSans-105"/>
     <use x="1881.511719" xlink:href="#DejaVuSans-100"/>
     <use x="1944.988281" xlink:href="#DejaVuSans-32"/>
     <use x="1976.775391" xlink:href="#DejaVuSans-115"/>
     <use x="2028.875" xlink:href="#DejaVuSans-121"/>
     <use x="2088.054688" xlink:href="#DejaVuSans-115"/>
     <use x="2140.154297" xlink:href="#DejaVuSans-116"/>
     <use x="2179.363281" xlink:href="#DejaVuSans-101"/>
     <use x="2240.886719" xlink:href="#DejaVuSans-109"/>
     <use x="2338.298828" xlink:href="#DejaVuSans-115"/>
    </g>
   </g>
   <g id="legend_1">
    <g id="patch_5">
     <path d="M 91.5 112.751981 
L 272.589844 112.751981 
Q 275.589844 112.751981 275.589844 109.751981 
L 275.589844 67.3512 
Q 275.589844 64.3512 272.589844 64.3512 
L 91.5 64.3512 
Q 88.5 64.3512 88.5 67.3512 
L 88.5 109.751981 
Q 88.5 112.751981 91.5 112.751981 
z
" style="fill:#ffffff;opacity:0.8;stroke:#cccccc;stroke-linejoin:miter;"/>
    </g>
    <g id="line2d_55">
     <path d="M 94.5 76.541044 
L 124.5 76.541044 
" style="fill:none;stroke:#b73bff;stroke-linecap:square;stroke-width:1.5;"/>
    </g>
    <g id="line2d_56"/>
    <g id="text_14">
     <!-- Two plasmid sensor -->
     <defs>
      <path d="M 38.671875 65.71875 
L 38.671875 0 
L 29.203125 0 
L 29.203125 65.71875 
L 4.890625 65.71875 
L 4.890625 74.03125 
L 62.984375 74.03125 
L 62.984375 65.71875 
z
" id="Gargi-84"/>
      <path d="M 57.625 0 
L 47.953125 0 
L 37.203125 41.703125 
L 26.953125 0 
L 17.390625 0 
L 1.953125 53.21875 
L 11.328125 53.21875 
L 22.171875 11.8125 
L 32.328125 53.21875 
L 42.671875 53.21875 
L 53.125 11.8125 
L 63.765625 53.21875 
L 73.25 53.21875 
z
" id="Gargi-119"/>
      <path d="M 27.046875 49.21875 
Q 17.578125 49.21875 13.765625 39.9375 
Q 11.8125 35.0625 11.8125 28.515625 
Q 11.8125 14.65625 19.734375 9.765625 
Q 22.859375 7.8125 27.046875 7.8125 
Q 36.234375 7.8125 40.140625 16.796875 
Q 42.28125 21.578125 42.28125 28.21875 
Q 42.28125 42.96875 33.984375 47.65625 
Q 30.859375 49.21875 27.046875 49.21875 
z
M 26.953125 57.125 
Q 42.28125 57.125 48.140625 43.953125 
Q 51.078125 37.3125 51.078125 28.125 
Q 51.078125 11.140625 40.71875 4 
Q 35.0625 0 27.046875 0 
Q 12.40625 0 6.34375 12.109375 
Q 2.9375 18.953125 2.9375 28.515625 
Q 2.9375 46.1875 13.671875 53.328125 
Q 19.234375 57.125 26.953125 57.125 
z
" id="Gargi-111"/>
      <path id="Gargi-32"/>
      <path d="M 28.21875 48.921875 
Q 19.828125 48.921875 15.828125 40.4375 
Q 13.484375 35.359375 13.484375 28.328125 
Q 13.484375 15.625 20.40625 10.359375 
Q 23.828125 7.71875 28.21875 7.71875 
Q 36.8125 7.71875 41.015625 15.921875 
Q 43.65625 21 43.65625 28.03125 
Q 43.65625 40.921875 36.53125 46.296875 
Q 32.90625 48.921875 28.21875 48.921875 
z
M 4.890625 -20.015625 
L 4.890625 55.375 
L 12.703125 55.375 
L 12.703125 47.359375 
Q 18.75 56.9375 29.6875 56.9375 
Q 42.578125 56.9375 48.640625 45.609375 
Q 52.546875 38.375 52.546875 27.828125 
Q 52.546875 12.203125 43.453125 4.59375 
Q 37.796875 -0.203125 29.78125 -0.203125 
Q 19.921875 -0.203125 13.484375 7.71875 
L 13.484375 -20.015625 
z
" id="Gargi-112"/>
      <path d="M 15.328125 74.03125 
L 15.328125 0 
L 6.84375 0 
L 6.84375 74.03125 
z
" id="Gargi-108"/>
      <path d="M 38.1875 19.140625 
L 38.1875 28.609375 
Q 34.859375 27.15625 26.5625 25.984375 
Q 25.6875 25.875 24.515625 25.6875 
Q 13.765625 24.21875 12.109375 18.65625 
Q 11.71875 17.484375 11.71875 15.921875 
Q 11.71875 9.375 18.5625 7.8125 
Q 20.125 7.421875 22.171875 7.421875 
Q 29.203125 7.421875 34.765625 12.203125 
Q 38.1875 15.140625 38.1875 19.140625 
z
M 52.9375 7.328125 
L 52.9375 0.875 
Q 49.421875 0 47.171875 0 
Q 39.9375 0 38.671875 6.453125 
L 38.484375 7.8125 
Q 29.59375 0 20.40625 0 
Q 9.1875 0 4.78125 7.625 
Q 2.9375 11.140625 2.9375 15.71875 
Q 2.9375 26.078125 12.203125 29.984375 
Q 15.921875 31.453125 25.484375 32.71875 
L 29.296875 33.203125 
Q 36.71875 34.1875 37.796875 37.109375 
Q 38.1875 37.890625 38.1875 39.0625 
L 38.1875 41.3125 
Q 38.1875 47.859375 29.890625 49.03125 
Q 28.21875 49.21875 26.265625 49.21875 
Q 15.828125 49.21875 14.0625 41.609375 
Q 13.875 40.71875 13.765625 39.84375 
L 5.28125 39.84375 
Q 5.5625 47.171875 8.890625 50.875 
Q 14.453125 57.125 26.5625 57.125 
Q 44.4375 57.125 46.390625 45.3125 
Q 46.578125 43.953125 46.578125 42.578125 
L 46.578125 11.328125 
Q 46.578125 7.125 51.171875 7.125 
Q 52.046875 7.125 52.9375 7.328125 
z
" id="Gargi-97"/>
      <path d="M 44.046875 40.53125 
L 35.0625 40.53125 
Q 34.765625 49.03125 24.421875 49.03125 
Q 16.109375 49.03125 13.765625 44.140625 
Q 13.09375 42.671875 13.09375 41.015625 
Q 13.09375 36.53125 19.828125 34.28125 
Q 21.296875 33.796875 22.953125 33.40625 
L 31.0625 31.546875 
Q 43.0625 28.609375 45.40625 21.578125 
Q 46.09375 19.4375 46.09375 16.703125 
Q 46.09375 7.03125 37.203125 2.546875 
Q 31.84375 -0.203125 24.21875 -0.203125 
Q 4.5 -0.203125 3.03125 16.3125 
Q 2.9375 17.09375 2.9375 17.96875 
L 11.921875 17.96875 
Q 12.5 13.1875 14.359375 11.234375 
Q 17.671875 7.625 24.90625 7.625 
Q 33.40625 7.625 36.234375 12.40625 
Q 37.3125 14.0625 37.3125 15.921875 
Q 37.3125 20.609375 31.84375 22.5625 
Q 30.5625 22.953125 29.109375 23.34375 
L 21.1875 25.296875 
Q 9.078125 28.328125 5.953125 33.40625 
Q 4.296875 36.234375 4.296875 40.625 
Q 4.296875 50.09375 12.796875 54.390625 
Q 17.78125 56.9375 24.703125 56.9375 
Q 39.453125 56.9375 42.96875 46.6875 
Q 44.046875 43.84375 44.046875 40.53125 
z
" id="Gargi-115"/>
      <path d="M 4.890625 53.21875 
L 12.703125 53.21875 
L 12.703125 45.703125 
Q 18.171875 53.421875 25.6875 54.5 
Q 27.25 54.78125 29 54.78125 
Q 38.09375 54.78125 42.484375 48.140625 
Q 42.96875 47.46875 43.359375 46.578125 
Q 48.828125 53.21875 55.28125 54.296875 
Q 57.234375 54.78125 59.671875 54.78125 
Q 72.078125 54.78125 74.609375 44.828125 
Q 75.09375 42.578125 75.09375 39.9375 
L 75.09375 0 
L 66.609375 0 
L 66.609375 36.625 
Q 66.609375 44.921875 60.25 46.78125 
Q 58.59375 47.359375 56.734375 47.359375 
Q 50.484375 47.359375 46.6875 41.609375 
Q 44.234375 37.984375 44.234375 33.40625 
L 44.234375 0 
L 35.75 0 
L 35.75 36.625 
Q 35.75 45.515625 28.515625 47.078125 
Q 27.34375 47.359375 25.875 47.359375 
Q 19.734375 47.359375 15.921875 41.796875 
Q 13.375 38.09375 13.375 33.40625 
L 13.375 0 
L 4.890625 0 
z
" id="Gargi-109"/>
      <path d="M 15.328125 74.03125 
L 15.328125 63.375 
L 6.84375 63.375 
L 6.84375 74.03125 
z
M 15.328125 53.21875 
L 15.328125 0 
L 6.9375 0 
L 6.9375 53.21875 
z
" id="Gargi-105"/>
      <path d="M 31.15625 49.03125 
Q 22.46875 49.03125 18.359375 40.71875 
Q 15.71875 35.640625 15.71875 28.421875 
Q 15.71875 16.015625 22.75 10.546875 
Q 26.46875 7.8125 31.25 7.8125 
Q 39.65625 7.8125 43.65625 16.109375 
Q 46 21.1875 46 28.21875 
Q 46 41.5 38.765625 46.78125 
Q 35.359375 49.03125 31.15625 49.03125 
z
M 54.5 76.265625 
L 54.5 2.25 
L 46.96875 2.25 
L 46.96875 9.28125 
Q 41.109375 0 32.328125 0 
Q 31.25 0 29.984375 -0.09375 
Q 29.109375 -0.203125 28.125 -0.203125 
Q 16.796875 -0.203125 10.75 11.328125 
Q 6.84375 18.453125 6.84375 29 
Q 6.84375 44.625 15.921875 52.25 
Q 21.6875 57.03125 29.6875 57.03125 
Q 40.625 57.03125 46 48.734375 
L 46 76.265625 
z
" id="Gargi-100"/>
      <path d="M 11.921875 32.90625 
L 41.796875 32.90625 
Q 41.890625 33.109375 41.890625 33.5 
Q 41.890625 41.703125 35.9375 46.1875 
Q 32.03125 49.125 27.15625 49.125 
Q 18.5625 49.125 14.359375 41.5 
Q 12.3125 37.890625 11.921875 32.90625 
z
M 50.984375 25.984375 
L 11.71875 25.984375 
Q 11.8125 18.65625 14.546875 14.65625 
Q 18.953125 7.71875 27.34375 7.71875 
Q 37.703125 7.71875 41.3125 18.359375 
L 49.8125 18.359375 
Q 47.5625 6.15625 37.015625 1.765625 
Q 32.515625 -0.09375 27.046875 -0.09375 
Q 13.28125 -0.09375 6.84375 11.03125 
Q 2.9375 17.96875 2.9375 28.125 
Q 2.9375 44.234375 12.40625 52.046875 
Q 18.5625 57.03125 27.25 57.03125 
Q 38.96875 57.03125 45.515625 48.640625 
Q 47.5625 46.09375 48.828125 42.96875 
Q 50.984375 37.40625 50.984375 25.984375 
z
" id="Gargi-101"/>
      <path d="M 4.890625 53.21875 
L 12.703125 53.21875 
L 12.703125 44.234375 
Q 18.171875 52.9375 25.875 54.296875 
Q 27.9375 54.78125 30.375 54.78125 
Q 41.015625 54.78125 45.3125 47.65625 
Q 47.171875 44.34375 47.171875 40.234375 
L 47.171875 0 
L 38.765625 0 
L 38.765625 36.921875 
Q 38.765625 43.953125 32.8125 46.390625 
Q 30.5625 47.359375 27.828125 47.359375 
Q 19.234375 47.359375 15.53125 39.546875 
Q 13.375 35.25 13.375 29.390625 
L 13.375 0 
L 4.890625 0 
z
" id="Gargi-110"/>
      <path d="M 4.890625 53.21875 
L 12.703125 53.21875 
L 12.703125 43.5625 
Q 18.5625 53.03125 24.421875 54.390625 
Q 25.78125 54.78125 27.25 54.78125 
Q 28.328125 54.78125 30.46875 54.390625 
L 30.46875 45.796875 
Q 23.140625 45.703125 20.015625 43.5625 
L 19.34375 43.171875 
Q 13.375 38.765625 13.375 27.640625 
L 13.375 0 
L 4.890625 0 
z
" id="Gargi-114"/>
     </defs>
     <g transform="translate(136.5 81.791044)scale(0.15 -0.15)">
      <use xlink:href="#Gargi-84"/>
      <use x="67.871094" xlink:href="#Gargi-119"/>
      <use x="143.066406" xlink:href="#Gargi-111"/>
      <use x="197.070312" xlink:href="#Gargi-32"/>
      <use x="221.484375" xlink:href="#Gargi-112"/>
      <use x="278.90625" xlink:href="#Gargi-108"/>
      <use x="301.074219" xlink:href="#Gargi-97"/>
      <use x="358.886719" xlink:href="#Gargi-115"/>
      <use x="407.910156" xlink:href="#Gargi-109"/>
      <use x="487.890625" xlink:href="#Gargi-105"/>
      <use x="510.058594" xlink:href="#Gargi-100"/>
      <use x="567.480469" xlink:href="#Gargi-32"/>
      <use x="591.894531" xlink:href="#Gargi-115"/>
      <use x="640.917969" xlink:href="#Gargi-101"/>
      <use x="696.777344" xlink:href="#Gargi-110"/>
      <use x="748.828125" xlink:href="#Gargi-115"/>
      <use x="797.851562" xlink:href="#Gargi-111"/>
      <use x="851.855469" xlink:href="#Gargi-114"/>
     </g>
    </g>
    <g id="line2d_57">
     <path d="M 94.5 98.499637 
L 124.5 98.499637 
" style="fill:none;stroke:#ff3b3b;stroke-linecap:square;stroke-width:1.5;"/>
    </g>
    <g id="line2d_58"/>
    <g id="text_15">
     <!-- One plasmid sensor -->
     <defs>
      <path d="M 38.578125 68.171875 
Q 25.203125 68.171875 17.96875 58.015625 
Q 12.3125 50.09375 12.3125 38.28125 
Q 12.3125 22.65625 21.96875 14.359375 
Q 28.90625 8.40625 38.375 8.40625 
Q 38.484375 8.40625 38.671875 8.40625 
Q 51.65625 8.40625 59.078125 18.359375 
Q 64.9375 26.265625 64.9375 37.890625 
Q 64.9375 54.390625 54.984375 62.59375 
Q 48.25 68.171875 38.578125 68.171875 
z
M 38.578125 76.375 
Q 56.25 76.375 66.015625 64.15625 
Q 74.421875 53.71875 74.421875 37.703125 
Q 74.421875 22.953125 66.015625 12.5 
Q 63.96875 9.859375 61.625 7.90625 
Q 52.34375 0.296875 38.671875 0.296875 
Q 21.78125 0.296875 11.71875 12.015625 
Q 2.9375 22.265625 2.9375 38.28125 
Q 2.9375 56.734375 14.15625 67.28125 
Q 23.828125 76.375 38.578125 76.375 
z
" id="Gargi-79"/>
     </defs>
     <g transform="translate(136.5 103.749637)scale(0.15 -0.15)">
      <use xlink:href="#Gargi-79"/>
      <use x="77.34375" xlink:href="#Gargi-110"/>
      <use x="129.394531" xlink:href="#Gargi-101"/>
      <use x="185.253906" xlink:href="#Gargi-32"/>
      <use x="209.667969" xlink:href="#Gargi-112"/>
      <use x="267.089844" xlink:href="#Gargi-108"/>
      <use x="289.257812" xlink:href="#Gargi-97"/>
      <use x="347.070312" xlink:href="#Gargi-115"/>
      <use x="396.09375" xlink:href="#Gargi-109"/>
      <use x="476.074219" xlink:href="#Gargi-105"/>
      <use x="498.242188" xlink:href="#Gargi-100"/>
      <use x="555.664062" xlink:href="#Gargi-32"/>
      <use x="580.078125" xlink:href="#Gargi-115"/>
      <use x="629.101562" xlink:href="#Gargi-101"/>
      <use x="684.960938" xlink:href="#Gargi-110"/>
      <use x="737.011719" xlink:href="#Gargi-115"/>
      <use x="786.035156" xlink:href="#Gargi-111"/>
      <use x="840.039062" xlink:href="#Gargi-114"/>
     </g>
    </g>
   </g>
  </g>
 </g>
 <defs>
  <clipPath id="p9faf49db02">
   <rect height="364.7952" width="502.2" x="81" y="56.8512"/>
  </clipPath>
 </defs>
</svg>
