<?xml version="1.0" encoding="utf-8" standalone="no"?>
<!DOCTYPE svg PUBLIC "-//W3C//DTD SVG 1.1//EN"
  "http://www.w3.org/Graphics/SVG/1.1/DTD/svg11.dtd">
<!-- Created with matplotlib (https://matplotlib.org/) -->
<svg height="473.76pt" version="1.1" viewBox="0 0 648 473.76" width="648pt" xmlns="http://www.w3.org/2000/svg" xmlns:xlink="http://www.w3.org/1999/xlink">
 <defs>
  <style type="text/css">
*{stroke-linecap:butt;stroke-linejoin:round;}
  </style>
 </defs>
 <g id="figure_1">
  <g id="patch_1">
   <path d="M 0 473.76 
L 648 473.76 
L 648 0 
L 0 0 
z
" style="fill:#ffffff;"/>
  </g>
  <g id="axes_1">
   <g id="patch_2">
    <path d="M 81 331.632 
L 583.2 331.632 
L 583.2 56.8512 
L 81 56.8512 
z
" style="fill:#ffffff;"/>
   </g>
   <g id="table_1">
    <g id="patch_3">
     <path d="M 106.11 423.2256 
L 231.66 423.2256 
L 231.66 400.3272 
L 106.11 400.3272 
z
" style="fill:#0ad12e;stroke:#000000;stroke-linejoin:miter;"/>
    </g>
    <g id="text_1">
     <!-- PAP1 -->
     <defs>
      <path d="M 19.671875 64.796875 
L 19.671875 37.40625 
L 32.078125 37.40625 
Q 38.96875 37.40625 42.71875 40.96875 
Q 46.484375 44.53125 46.484375 51.125 
Q 46.484375 57.671875 42.71875 61.234375 
Q 38.96875 64.796875 32.078125 64.796875 
z
M 9.8125 72.90625 
L 32.078125 72.90625 
Q 44.34375 72.90625 50.609375 67.359375 
Q 56.890625 61.8125 56.890625 51.125 
Q 56.890625 40.328125 50.609375 34.8125 
Q 44.34375 29.296875 32.078125 29.296875 
L 19.671875 29.296875 
L 19.671875 0 
L 9.8125 0 
z
" id="DejaVuSans-80"/>
      <path d="M 34.1875 63.1875 
L 20.796875 26.90625 
L 47.609375 26.90625 
z
M 28.609375 72.90625 
L 39.796875 72.90625 
L 67.578125 0 
L 57.328125 0 
L 50.6875 18.703125 
L 17.828125 18.703125 
L 11.1875 0 
L 0.78125 0 
z
" id="DejaVuSans-65"/>
      <path d="M 12.40625 8.296875 
L 28.515625 8.296875 
L 28.515625 63.921875 
L 10.984375 60.40625 
L 10.984375 69.390625 
L 28.421875 72.90625 
L 38.28125 72.90625 
L 38.28125 8.296875 
L 54.390625 8.296875 
L 54.390625 0 
L 12.40625 0 
z
" id="DejaVuSans-49"/>
     </defs>
     <g transform="translate(153.733125 415.08765)scale(0.12 -0.12)">
      <use xlink:href="#DejaVuSans-80"/>
      <use x="60.208984" xlink:href="#DejaVuSans-65"/>
      <use x="128.617188" xlink:href="#DejaVuSans-80"/>
      <use x="188.919922" xlink:href="#DejaVuSans-49"/>
     </g>
    </g>
    <g id="patch_4">
     <path d="M 231.66 423.2256 
L 357.21 423.2256 
L 357.21 400.3272 
L 231.66 400.3272 
z
" style="fill:#0a95d1;stroke:#000000;stroke-linejoin:miter;"/>
    </g>
    <g id="text_2">
     <!-- PAP2.1 -->
     <defs>
      <path d="M 19.1875 8.296875 
L 53.609375 8.296875 
L 53.609375 0 
L 7.328125 0 
L 7.328125 8.296875 
Q 12.9375 14.109375 22.625 23.890625 
Q 32.328125 33.6875 34.8125 36.53125 
Q 39.546875 41.84375 41.421875 45.53125 
Q 43.3125 49.21875 43.3125 52.78125 
Q 43.3125 58.59375 39.234375 62.25 
Q 35.15625 65.921875 28.609375 65.921875 
Q 23.96875 65.921875 18.8125 64.3125 
Q 13.671875 62.703125 7.8125 59.421875 
L 7.8125 69.390625 
Q 13.765625 71.78125 18.9375 73 
Q 24.125 74.21875 28.421875 74.21875 
Q 39.75 74.21875 46.484375 68.546875 
Q 53.21875 62.890625 53.21875 53.421875 
Q 53.21875 48.921875 51.53125 44.890625 
Q 49.859375 40.875 45.40625 35.40625 
Q 44.1875 33.984375 37.640625 27.21875 
Q 31.109375 20.453125 19.1875 8.296875 
z
" id="DejaVuSans-50"/>
      <path d="M 10.6875 12.40625 
L 21 12.40625 
L 21 0 
L 10.6875 0 
z
" id="DejaVuSans-46"/>
     </defs>
     <g transform="translate(273.55875 415.08765)scale(0.12 -0.12)">
      <use xlink:href="#DejaVuSans-80"/>
      <use x="60.208984" xlink:href="#DejaVuSans-65"/>
      <use x="128.617188" xlink:href="#DejaVuSans-80"/>
      <use x="188.919922" xlink:href="#DejaVuSans-50"/>
      <use x="252.542969" xlink:href="#DejaVuSans-46"/>
      <use x="284.330078" xlink:href="#DejaVuSans-49"/>
     </g>
    </g>
    <g id="patch_5">
     <path d="M 357.21 423.2256 
L 482.76 423.2256 
L 482.76 400.3272 
L 357.21 400.3272 
z
" style="fill:#710ad1;stroke:#000000;stroke-linejoin:miter;"/>
    </g>
    <g id="text_3">
     <!-- PAP2.2 -->
     <g transform="translate(399.10875 415.08765)scale(0.12 -0.12)">
      <use xlink:href="#DejaVuSans-80"/>
      <use x="60.208984" xlink:href="#DejaVuSans-65"/>
      <use x="128.617188" xlink:href="#DejaVuSans-80"/>
      <use x="188.919922" xlink:href="#DejaVuSans-50"/>
      <use x="252.542969" xlink:href="#DejaVuSans-46"/>
      <use x="284.330078" xlink:href="#DejaVuSans-50"/>
     </g>
    </g>
    <g id="patch_6">
     <path d="M 482.76 423.2256 
L 608.31 423.2256 
L 608.31 400.3272 
L 482.76 400.3272 
z
" style="fill:#d10a7b;stroke:#000000;stroke-linejoin:miter;"/>
    </g>
    <g id="text_4">
     <!-- PAP2.3 -->
     <defs>
      <path d="M 40.578125 39.3125 
Q 47.65625 37.796875 51.625 33 
Q 55.609375 28.21875 55.609375 21.1875 
Q 55.609375 10.40625 48.1875 4.484375 
Q 40.765625 -1.421875 27.09375 -1.421875 
Q 22.515625 -1.421875 17.65625 -0.515625 
Q 12.796875 0.390625 7.625 2.203125 
L 7.625 11.71875 
Q 11.71875 9.328125 16.59375 8.109375 
Q 21.484375 6.890625 26.8125 6.890625 
Q 36.078125 6.890625 40.9375 10.546875 
Q 45.796875 14.203125 45.796875 21.1875 
Q 45.796875 27.640625 41.28125 31.265625 
Q 36.765625 34.90625 28.71875 34.90625 
L 20.21875 34.90625 
L 20.21875 43.015625 
L 29.109375 43.015625 
Q 36.375 43.015625 40.234375 45.921875 
Q 44.09375 48.828125 44.09375 54.296875 
Q 44.09375 59.90625 40.109375 62.90625 
Q 36.140625 65.921875 28.71875 65.921875 
Q 24.65625 65.921875 20.015625 65.03125 
Q 15.375 64.15625 9.8125 62.3125 
L 9.8125 71.09375 
Q 15.4375 72.65625 20.34375 73.4375 
Q 25.25 74.21875 29.59375 74.21875 
Q 40.828125 74.21875 47.359375 69.109375 
Q 53.90625 64.015625 53.90625 55.328125 
Q 53.90625 49.265625 50.4375 45.09375 
Q 46.96875 40.921875 40.578125 39.3125 
z
" id="DejaVuSans-51"/>
     </defs>
     <g transform="translate(524.65875 415.08765)scale(0.12 -0.12)">
      <use xlink:href="#DejaVuSans-80"/>
      <use x="60.208984" xlink:href="#DejaVuSans-65"/>
      <use x="128.617188" xlink:href="#DejaVuSans-80"/>
      <use x="188.919922" xlink:href="#DejaVuSans-50"/>
      <use x="252.542969" xlink:href="#DejaVuSans-46"/>
      <use x="284.330078" xlink:href="#DejaVuSans-51"/>
     </g>
    </g>
    <g id="patch_7">
     <path d="M 19.88775 446.124 
L 106.11 446.124 
L 106.11 423.2256 
L 19.88775 423.2256 
z
" style="fill:#ffffff;stroke:#000000;stroke-linejoin:miter;"/>
    </g>
    <g id="text_5">
     <!-- EC50 (uM) -->
     <defs>
      <path d="M 9.8125 72.90625 
L 55.90625 72.90625 
L 55.90625 64.59375 
L 19.671875 64.59375 
L 19.671875 43.015625 
L 54.390625 43.015625 
L 54.390625 34.71875 
L 19.671875 34.71875 
L 19.671875 8.296875 
L 56.78125 8.296875 
L 56.78125 0 
L 9.8125 0 
z
" id="DejaVuSans-69"/>
      <path d="M 64.40625 67.28125 
L 64.40625 56.890625 
Q 59.421875 61.53125 53.78125 63.8125 
Q 48.140625 66.109375 41.796875 66.109375 
Q 29.296875 66.109375 22.65625 58.46875 
Q 16.015625 50.828125 16.015625 36.375 
Q 16.015625 21.96875 22.65625 14.328125 
Q 29.296875 6.6875 41.796875 6.6875 
Q 48.140625 6.6875 53.78125 8.984375 
Q 59.421875 11.28125 64.40625 15.921875 
L 64.40625 5.609375 
Q 59.234375 2.09375 53.4375 0.328125 
Q 47.65625 -1.421875 41.21875 -1.421875 
Q 24.65625 -1.421875 15.125 8.703125 
Q 5.609375 18.84375 5.609375 36.375 
Q 5.609375 53.953125 15.125 64.078125 
Q 24.65625 74.21875 41.21875 74.21875 
Q 47.75 74.21875 53.53125 72.484375 
Q 59.328125 70.75 64.40625 67.28125 
z
" id="DejaVuSans-67"/>
      <path d="M 10.796875 72.90625 
L 49.515625 72.90625 
L 49.515625 64.59375 
L 19.828125 64.59375 
L 19.828125 46.734375 
Q 21.96875 47.46875 24.109375 47.828125 
Q 26.265625 48.1875 28.421875 48.1875 
Q 40.625 48.1875 47.75 41.5 
Q 54.890625 34.8125 54.890625 23.390625 
Q 54.890625 11.625 47.5625 5.09375 
Q 40.234375 -1.421875 26.90625 -1.421875 
Q 22.3125 -1.421875 17.546875 -0.640625 
Q 12.796875 0.140625 7.71875 1.703125 
L 7.71875 11.625 
Q 12.109375 9.234375 16.796875 8.0625 
Q 21.484375 6.890625 26.703125 6.890625 
Q 35.15625 6.890625 40.078125 11.328125 
Q 45.015625 15.765625 45.015625 23.390625 
Q 45.015625 31 40.078125 35.4375 
Q 35.15625 39.890625 26.703125 39.890625 
Q 22.75 39.890625 18.8125 39.015625 
Q 14.890625 38.140625 10.796875 36.28125 
z
" id="DejaVuSans-53"/>
      <path d="M 31.78125 66.40625 
Q 24.171875 66.40625 20.328125 58.90625 
Q 16.5 51.421875 16.5 36.375 
Q 16.5 21.390625 20.328125 13.890625 
Q 24.171875 6.390625 31.78125 6.390625 
Q 39.453125 6.390625 43.28125 13.890625 
Q 47.125 21.390625 47.125 36.375 
Q 47.125 51.421875 43.28125 58.90625 
Q 39.453125 66.40625 31.78125 66.40625 
z
M 31.78125 74.21875 
Q 44.046875 74.21875 50.515625 64.515625 
Q 56.984375 54.828125 56.984375 36.375 
Q 56.984375 17.96875 50.515625 8.265625 
Q 44.046875 -1.421875 31.78125 -1.421875 
Q 19.53125 -1.421875 13.0625 8.265625 
Q 6.59375 17.96875 6.59375 36.375 
Q 6.59375 54.828125 13.0625 64.515625 
Q 19.53125 74.21875 31.78125 74.21875 
z
" id="DejaVuSans-48"/>
      <path id="DejaVuSans-32"/>
      <path d="M 31 75.875 
Q 24.46875 64.65625 21.28125 53.65625 
Q 18.109375 42.671875 18.109375 31.390625 
Q 18.109375 20.125 21.3125 9.0625 
Q 24.515625 -2 31 -13.1875 
L 23.1875 -13.1875 
Q 15.875 -1.703125 12.234375 9.375 
Q 8.59375 20.453125 8.59375 31.390625 
Q 8.59375 42.28125 12.203125 53.3125 
Q 15.828125 64.359375 23.1875 75.875 
z
" id="DejaVuSans-40"/>
      <path d="M 8.5 21.578125 
L 8.5 54.6875 
L 17.484375 54.6875 
L 17.484375 21.921875 
Q 17.484375 14.15625 20.5 10.265625 
Q 23.53125 6.390625 29.59375 6.390625 
Q 36.859375 6.390625 41.078125 11.03125 
Q 45.3125 15.671875 45.3125 23.6875 
L 45.3125 54.6875 
L 54.296875 54.6875 
L 54.296875 0 
L 45.3125 0 
L 45.3125 8.40625 
Q 42.046875 3.421875 37.71875 1 
Q 33.40625 -1.421875 27.6875 -1.421875 
Q 18.265625 -1.421875 13.375 4.4375 
Q 8.5 10.296875 8.5 21.578125 
z
M 31.109375 56 
z
" id="DejaVuSans-117"/>
      <path d="M 9.8125 72.90625 
L 24.515625 72.90625 
L 43.109375 23.296875 
L 61.8125 72.90625 
L 76.515625 72.90625 
L 76.515625 0 
L 66.890625 0 
L 66.890625 64.015625 
L 48.09375 14.015625 
L 38.1875 14.015625 
L 19.390625 64.015625 
L 19.390625 0 
L 9.8125 0 
z
" id="DejaVuSans-77"/>
      <path d="M 8.015625 75.875 
L 15.828125 75.875 
Q 23.140625 64.359375 26.78125 53.3125 
Q 30.421875 42.28125 30.421875 31.390625 
Q 30.421875 20.453125 26.78125 9.375 
Q 23.140625 -1.703125 15.828125 -13.1875 
L 8.015625 -13.1875 
Q 14.5 -2 17.703125 9.0625 
Q 20.90625 20.125 20.90625 31.390625 
Q 20.90625 42.671875 17.703125 53.65625 
Q 14.5 64.65625 8.015625 75.875 
z
" id="DejaVuSans-41"/>
     </defs>
     <g transform="translate(28.509975 437.98605)scale(0.12 -0.12)">
      <use xlink:href="#DejaVuSans-69"/>
      <use x="63.183594" xlink:href="#DejaVuSans-67"/>
      <use x="133.007812" xlink:href="#DejaVuSans-53"/>
      <use x="196.630859" xlink:href="#DejaVuSans-48"/>
      <use x="260.253906" xlink:href="#DejaVuSans-32"/>
      <use x="292.041016" xlink:href="#DejaVuSans-40"/>
      <use x="331.054688" xlink:href="#DejaVuSans-117"/>
      <use x="394.433594" xlink:href="#DejaVuSans-77"/>
      <use x="480.712891" xlink:href="#DejaVuSans-41"/>
     </g>
    </g>
    <g id="patch_8">
     <path d="M 106.11 446.124 
L 231.66 446.124 
L 231.66 423.2256 
L 106.11 423.2256 
z
" style="fill:#ffffff;stroke:#000000;stroke-linejoin:miter;"/>
    </g>
    <g id="text_6">
     <!-- N/A -->
     <defs>
      <path d="M 9.8125 72.90625 
L 23.09375 72.90625 
L 55.421875 11.921875 
L 55.421875 72.90625 
L 64.984375 72.90625 
L 64.984375 0 
L 51.703125 0 
L 19.390625 60.984375 
L 19.390625 0 
L 9.8125 0 
z
" id="DejaVuSans-78"/>
      <path d="M 25.390625 72.90625 
L 33.6875 72.90625 
L 8.296875 -9.28125 
L 0 -9.28125 
z
" id="DejaVuSans-47"/>
     </defs>
     <g transform="translate(197.87625 437.98605)scale(0.12 -0.12)">
      <use xlink:href="#DejaVuSans-78"/>
      <use x="74.804688" xlink:href="#DejaVuSans-47"/>
      <use x="108.496094" xlink:href="#DejaVuSans-65"/>
     </g>
    </g>
    <g id="patch_9">
     <path d="M 231.66 446.124 
L 357.21 446.124 
L 357.21 423.2256 
L 231.66 423.2256 
z
" style="fill:#ffffff;stroke:#000000;stroke-linejoin:miter;"/>
    </g>
    <g id="text_7">
     <!-- 108.3 -->
     <defs>
      <path d="M 31.78125 34.625 
Q 24.75 34.625 20.71875 30.859375 
Q 16.703125 27.09375 16.703125 20.515625 
Q 16.703125 13.921875 20.71875 10.15625 
Q 24.75 6.390625 31.78125 6.390625 
Q 38.8125 6.390625 42.859375 10.171875 
Q 46.921875 13.96875 46.921875 20.515625 
Q 46.921875 27.09375 42.890625 30.859375 
Q 38.875 34.625 31.78125 34.625 
z
M 21.921875 38.8125 
Q 15.578125 40.375 12.03125 44.71875 
Q 8.5 49.078125 8.5 55.328125 
Q 8.5 64.0625 14.71875 69.140625 
Q 20.953125 74.21875 31.78125 74.21875 
Q 42.671875 74.21875 48.875 69.140625 
Q 55.078125 64.0625 55.078125 55.328125 
Q 55.078125 49.078125 51.53125 44.71875 
Q 48 40.375 41.703125 38.8125 
Q 48.828125 37.15625 52.796875 32.3125 
Q 56.78125 27.484375 56.78125 20.515625 
Q 56.78125 9.90625 50.3125 4.234375 
Q 43.84375 -1.421875 31.78125 -1.421875 
Q 19.734375 -1.421875 13.25 4.234375 
Q 6.78125 9.90625 6.78125 20.515625 
Q 6.78125 27.484375 10.78125 32.3125 
Q 14.796875 37.15625 21.921875 38.8125 
z
M 18.3125 54.390625 
Q 18.3125 48.734375 21.84375 45.5625 
Q 25.390625 42.390625 31.78125 42.390625 
Q 38.140625 42.390625 41.71875 45.5625 
Q 45.3125 48.734375 45.3125 54.390625 
Q 45.3125 60.0625 41.71875 63.234375 
Q 38.140625 66.40625 31.78125 66.40625 
Q 25.390625 66.40625 21.84375 63.234375 
Q 18.3125 60.0625 18.3125 54.390625 
z
" id="DejaVuSans-56"/>
     </defs>
     <g transform="translate(310.30125 437.98605)scale(0.12 -0.12)">
      <use xlink:href="#DejaVuSans-49"/>
      <use x="63.623047" xlink:href="#DejaVuSans-48"/>
      <use x="127.246094" xlink:href="#DejaVuSans-56"/>
      <use x="190.869141" xlink:href="#DejaVuSans-46"/>
      <use x="222.65625" xlink:href="#DejaVuSans-51"/>
     </g>
    </g>
    <g id="patch_10">
     <path d="M 357.21 446.124 
L 482.76 446.124 
L 482.76 423.2256 
L 357.21 423.2256 
z
" style="fill:#ffffff;stroke:#000000;stroke-linejoin:miter;"/>
    </g>
    <g id="text_8">
     <!-- 132.0 -->
     <g transform="translate(435.85125 437.98605)scale(0.12 -0.12)">
      <use xlink:href="#DejaVuSans-49"/>
      <use x="63.623047" xlink:href="#DejaVuSans-51"/>
      <use x="127.246094" xlink:href="#DejaVuSans-50"/>
      <use x="190.869141" xlink:href="#DejaVuSans-46"/>
      <use x="222.65625" xlink:href="#DejaVuSans-48"/>
     </g>
    </g>
    <g id="patch_11">
     <path d="M 482.76 446.124 
L 608.31 446.124 
L 608.31 423.2256 
L 482.76 423.2256 
z
" style="fill:#ffffff;stroke:#000000;stroke-linejoin:miter;"/>
    </g>
    <g id="text_9">
     <!-- 60.0 -->
     <defs>
      <path d="M 33.015625 40.375 
Q 26.375 40.375 22.484375 35.828125 
Q 18.609375 31.296875 18.609375 23.390625 
Q 18.609375 15.53125 22.484375 10.953125 
Q 26.375 6.390625 33.015625 6.390625 
Q 39.65625 6.390625 43.53125 10.953125 
Q 47.40625 15.53125 47.40625 23.390625 
Q 47.40625 31.296875 43.53125 35.828125 
Q 39.65625 40.375 33.015625 40.375 
z
M 52.59375 71.296875 
L 52.59375 62.3125 
Q 48.875 64.0625 45.09375 64.984375 
Q 41.3125 65.921875 37.59375 65.921875 
Q 27.828125 65.921875 22.671875 59.328125 
Q 17.53125 52.734375 16.796875 39.40625 
Q 19.671875 43.65625 24.015625 45.921875 
Q 28.375 48.1875 33.59375 48.1875 
Q 44.578125 48.1875 50.953125 41.515625 
Q 57.328125 34.859375 57.328125 23.390625 
Q 57.328125 12.15625 50.6875 5.359375 
Q 44.046875 -1.421875 33.015625 -1.421875 
Q 20.359375 -1.421875 13.671875 8.265625 
Q 6.984375 17.96875 6.984375 36.375 
Q 6.984375 53.65625 15.1875 63.9375 
Q 23.390625 74.21875 37.203125 74.21875 
Q 40.921875 74.21875 44.703125 73.484375 
Q 48.484375 72.75 52.59375 71.296875 
z
" id="DejaVuSans-54"/>
     </defs>
     <g transform="translate(569.03625 437.98605)scale(0.12 -0.12)">
      <use xlink:href="#DejaVuSans-54"/>
      <use x="63.623047" xlink:href="#DejaVuSans-48"/>
      <use x="127.246094" xlink:href="#DejaVuSans-46"/>
      <use x="159.033203" xlink:href="#DejaVuSans-48"/>
     </g>
    </g>
    <g id="patch_12">
     <path d="M 19.88775 469.0224 
L 106.11 469.0224 
L 106.11 446.124 
L 19.88775 446.124 
z
" style="fill:#ffffff;stroke:#000000;stroke-linejoin:miter;"/>
    </g>
    <g id="text_10">
     <!-- Background -->
     <defs>
      <path d="M 19.671875 34.8125 
L 19.671875 8.109375 
L 35.5 8.109375 
Q 43.453125 8.109375 47.28125 11.40625 
Q 51.125 14.703125 51.125 21.484375 
Q 51.125 28.328125 47.28125 31.5625 
Q 43.453125 34.8125 35.5 34.8125 
z
M 19.671875 64.796875 
L 19.671875 42.828125 
L 34.28125 42.828125 
Q 41.5 42.828125 45.03125 45.53125 
Q 48.578125 48.25 48.578125 53.8125 
Q 48.578125 59.328125 45.03125 62.0625 
Q 41.5 64.796875 34.28125 64.796875 
z
M 9.8125 72.90625 
L 35.015625 72.90625 
Q 46.296875 72.90625 52.390625 68.21875 
Q 58.5 63.53125 58.5 54.890625 
Q 58.5 48.1875 55.375 44.234375 
Q 52.25 40.28125 46.1875 39.3125 
Q 53.46875 37.75 57.5 32.78125 
Q 61.53125 27.828125 61.53125 20.40625 
Q 61.53125 10.640625 54.890625 5.3125 
Q 48.25 0 35.984375 0 
L 9.8125 0 
z
" id="DejaVuSans-66"/>
      <path d="M 34.28125 27.484375 
Q 23.390625 27.484375 19.1875 25 
Q 14.984375 22.515625 14.984375 16.5 
Q 14.984375 11.71875 18.140625 8.90625 
Q 21.296875 6.109375 26.703125 6.109375 
Q 34.1875 6.109375 38.703125 11.40625 
Q 43.21875 16.703125 43.21875 25.484375 
L 43.21875 27.484375 
z
M 52.203125 31.203125 
L 52.203125 0 
L 43.21875 0 
L 43.21875 8.296875 
Q 40.140625 3.328125 35.546875 0.953125 
Q 30.953125 -1.421875 24.3125 -1.421875 
Q 15.921875 -1.421875 10.953125 3.296875 
Q 6 8.015625 6 15.921875 
Q 6 25.140625 12.171875 29.828125 
Q 18.359375 34.515625 30.609375 34.515625 
L 43.21875 34.515625 
L 43.21875 35.40625 
Q 43.21875 41.609375 39.140625 45 
Q 35.0625 48.390625 27.6875 48.390625 
Q 23 48.390625 18.546875 47.265625 
Q 14.109375 46.140625 10.015625 43.890625 
L 10.015625 52.203125 
Q 14.9375 54.109375 19.578125 55.046875 
Q 24.21875 56 28.609375 56 
Q 40.484375 56 46.34375 49.84375 
Q 52.203125 43.703125 52.203125 31.203125 
z
" id="DejaVuSans-97"/>
      <path d="M 48.78125 52.59375 
L 48.78125 44.1875 
Q 44.96875 46.296875 41.140625 47.34375 
Q 37.3125 48.390625 33.40625 48.390625 
Q 24.65625 48.390625 19.8125 42.84375 
Q 14.984375 37.3125 14.984375 27.296875 
Q 14.984375 17.28125 19.8125 11.734375 
Q 24.65625 6.203125 33.40625 6.203125 
Q 37.3125 6.203125 41.140625 7.25 
Q 44.96875 8.296875 48.78125 10.40625 
L 48.78125 2.09375 
Q 45.015625 0.34375 40.984375 -0.53125 
Q 36.96875 -1.421875 32.421875 -1.421875 
Q 20.0625 -1.421875 12.78125 6.34375 
Q 5.515625 14.109375 5.515625 27.296875 
Q 5.515625 40.671875 12.859375 48.328125 
Q 20.21875 56 33.015625 56 
Q 37.15625 56 41.109375 55.140625 
Q 45.0625 54.296875 48.78125 52.59375 
z
" id="DejaVuSans-99"/>
      <path d="M 9.078125 75.984375 
L 18.109375 75.984375 
L 18.109375 31.109375 
L 44.921875 54.6875 
L 56.390625 54.6875 
L 27.390625 29.109375 
L 57.625 0 
L 45.90625 0 
L 18.109375 26.703125 
L 18.109375 0 
L 9.078125 0 
z
" id="DejaVuSans-107"/>
      <path d="M 45.40625 27.984375 
Q 45.40625 37.75 41.375 43.109375 
Q 37.359375 48.484375 30.078125 48.484375 
Q 22.859375 48.484375 18.828125 43.109375 
Q 14.796875 37.75 14.796875 27.984375 
Q 14.796875 18.265625 18.828125 12.890625 
Q 22.859375 7.515625 30.078125 7.515625 
Q 37.359375 7.515625 41.375 12.890625 
Q 45.40625 18.265625 45.40625 27.984375 
z
M 54.390625 6.78125 
Q 54.390625 -7.171875 48.1875 -13.984375 
Q 42 -20.796875 29.203125 -20.796875 
Q 24.46875 -20.796875 20.265625 -20.09375 
Q 16.0625 -19.390625 12.109375 -17.921875 
L 12.109375 -9.1875 
Q 16.0625 -11.328125 19.921875 -12.34375 
Q 23.78125 -13.375 27.78125 -13.375 
Q 36.625 -13.375 41.015625 -8.765625 
Q 45.40625 -4.15625 45.40625 5.171875 
L 45.40625 9.625 
Q 42.625 4.78125 38.28125 2.390625 
Q 33.9375 0 27.875 0 
Q 17.828125 0 11.671875 7.65625 
Q 5.515625 15.328125 5.515625 27.984375 
Q 5.515625 40.671875 11.671875 48.328125 
Q 17.828125 56 27.875 56 
Q 33.9375 56 38.28125 53.609375 
Q 42.625 51.21875 45.40625 46.390625 
L 45.40625 54.6875 
L 54.390625 54.6875 
z
" id="DejaVuSans-103"/>
      <path d="M 41.109375 46.296875 
Q 39.59375 47.171875 37.8125 47.578125 
Q 36.03125 48 33.890625 48 
Q 26.265625 48 22.1875 43.046875 
Q 18.109375 38.09375 18.109375 28.8125 
L 18.109375 0 
L 9.078125 0 
L 9.078125 54.6875 
L 18.109375 54.6875 
L 18.109375 46.1875 
Q 20.953125 51.171875 25.484375 53.578125 
Q 30.03125 56 36.53125 56 
Q 37.453125 56 38.578125 55.875 
Q 39.703125 55.765625 41.0625 55.515625 
z
" id="DejaVuSans-114"/>
      <path d="M 30.609375 48.390625 
Q 23.390625 48.390625 19.1875 42.75 
Q 14.984375 37.109375 14.984375 27.296875 
Q 14.984375 17.484375 19.15625 11.84375 
Q 23.34375 6.203125 30.609375 6.203125 
Q 37.796875 6.203125 41.984375 11.859375 
Q 46.1875 17.53125 46.1875 27.296875 
Q 46.1875 37.015625 41.984375 42.703125 
Q 37.796875 48.390625 30.609375 48.390625 
z
M 30.609375 56 
Q 42.328125 56 49.015625 48.375 
Q 55.71875 40.765625 55.71875 27.296875 
Q 55.71875 13.875 49.015625 6.21875 
Q 42.328125 -1.421875 30.609375 -1.421875 
Q 18.84375 -1.421875 12.171875 6.21875 
Q 5.515625 13.875 5.515625 27.296875 
Q 5.515625 40.765625 12.171875 48.375 
Q 18.84375 56 30.609375 56 
z
" id="DejaVuSans-111"/>
      <path d="M 54.890625 33.015625 
L 54.890625 0 
L 45.90625 0 
L 45.90625 32.71875 
Q 45.90625 40.484375 42.875 44.328125 
Q 39.84375 48.1875 33.796875 48.1875 
Q 26.515625 48.1875 22.3125 43.546875 
Q 18.109375 38.921875 18.109375 30.90625 
L 18.109375 0 
L 9.078125 0 
L 9.078125 54.6875 
L 18.109375 54.6875 
L 18.109375 46.1875 
Q 21.34375 51.125 25.703125 53.5625 
Q 30.078125 56 35.796875 56 
Q 45.21875 56 50.046875 50.171875 
Q 54.890625 44.34375 54.890625 33.015625 
z
" id="DejaVuSans-110"/>
      <path d="M 45.40625 46.390625 
L 45.40625 75.984375 
L 54.390625 75.984375 
L 54.390625 0 
L 45.40625 0 
L 45.40625 8.203125 
Q 42.578125 3.328125 38.25 0.953125 
Q 33.9375 -1.421875 27.875 -1.421875 
Q 17.96875 -1.421875 11.734375 6.484375 
Q 5.515625 14.40625 5.515625 27.296875 
Q 5.515625 40.1875 11.734375 48.09375 
Q 17.96875 56 27.875 56 
Q 33.9375 56 38.25 53.625 
Q 42.578125 51.265625 45.40625 46.390625 
z
M 14.796875 27.296875 
Q 14.796875 17.390625 18.875 11.75 
Q 22.953125 6.109375 30.078125 6.109375 
Q 37.203125 6.109375 41.296875 11.75 
Q 45.40625 17.390625 45.40625 27.296875 
Q 45.40625 37.203125 41.296875 42.84375 
Q 37.203125 48.484375 30.078125 48.484375 
Q 22.953125 48.484375 18.875 42.84375 
Q 14.796875 37.203125 14.796875 27.296875 
z
" id="DejaVuSans-100"/>
     </defs>
     <g transform="translate(28.509975 460.88445)scale(0.12 -0.12)">
      <use xlink:href="#DejaVuSans-66"/>
      <use x="68.603516" xlink:href="#DejaVuSans-97"/>
      <use x="129.882812" xlink:href="#DejaVuSans-99"/>
      <use x="184.863281" xlink:href="#DejaVuSans-107"/>
      <use x="242.773438" xlink:href="#DejaVuSans-103"/>
      <use x="306.25" xlink:href="#DejaVuSans-114"/>
      <use x="347.332031" xlink:href="#DejaVuSans-111"/>
      <use x="408.513672" xlink:href="#DejaVuSans-117"/>
      <use x="471.892578" xlink:href="#DejaVuSans-110"/>
      <use x="535.271484" xlink:href="#DejaVuSans-100"/>
     </g>
    </g>
    <g id="patch_13">
     <path d="M 106.11 469.0224 
L 231.66 469.0224 
L 231.66 446.124 
L 106.11 446.124 
z
" style="fill:#ffffff;stroke:#000000;stroke-linejoin:miter;"/>
    </g>
    <g id="text_11">
     <!-- 237.1 +/- 13.8 -->
     <defs>
      <path d="M 8.203125 72.90625 
L 55.078125 72.90625 
L 55.078125 68.703125 
L 28.609375 0 
L 18.3125 0 
L 43.21875 64.59375 
L 8.203125 64.59375 
z
" id="DejaVuSans-55"/>
      <path d="M 46 62.703125 
L 46 35.5 
L 73.1875 35.5 
L 73.1875 27.203125 
L 46 27.203125 
L 46 0 
L 37.796875 0 
L 37.796875 27.203125 
L 10.59375 27.203125 
L 10.59375 35.5 
L 37.796875 35.5 
L 37.796875 62.703125 
z
" id="DejaVuSans-43"/>
      <path d="M 4.890625 31.390625 
L 31.203125 31.390625 
L 31.203125 23.390625 
L 4.890625 23.390625 
z
" id="DejaVuSans-45"/>
     </defs>
     <g transform="translate(131.9775 460.88445)scale(0.12 -0.12)">
      <use xlink:href="#DejaVuSans-50"/>
      <use x="63.623047" xlink:href="#DejaVuSans-51"/>
      <use x="127.246094" xlink:href="#DejaVuSans-55"/>
      <use x="190.869141" xlink:href="#DejaVuSans-46"/>
      <use x="222.65625" xlink:href="#DejaVuSans-49"/>
      <use x="286.279297" xlink:href="#DejaVuSans-32"/>
      <use x="318.066406" xlink:href="#DejaVuSans-43"/>
      <use x="401.855469" xlink:href="#DejaVuSans-47"/>
      <use x="435.546875" xlink:href="#DejaVuSans-45"/>
      <use x="471.630859" xlink:href="#DejaVuSans-32"/>
      <use x="503.417969" xlink:href="#DejaVuSans-49"/>
      <use x="567.041016" xlink:href="#DejaVuSans-51"/>
      <use x="630.664062" xlink:href="#DejaVuSans-46"/>
      <use x="662.451172" xlink:href="#DejaVuSans-56"/>
     </g>
    </g>
    <g id="patch_14">
     <path d="M 231.66 469.0224 
L 357.21 469.0224 
L 357.21 446.124 
L 231.66 446.124 
z
" style="fill:#ffffff;stroke:#000000;stroke-linejoin:miter;"/>
    </g>
    <g id="text_12">
     <!-- 697.5 +/- 98.9 -->
     <defs>
      <path d="M 10.984375 1.515625 
L 10.984375 10.5 
Q 14.703125 8.734375 18.5 7.8125 
Q 22.3125 6.890625 25.984375 6.890625 
Q 35.75 6.890625 40.890625 13.453125 
Q 46.046875 20.015625 46.78125 33.40625 
Q 43.953125 29.203125 39.59375 26.953125 
Q 35.25 24.703125 29.984375 24.703125 
Q 19.046875 24.703125 12.671875 31.3125 
Q 6.296875 37.9375 6.296875 49.421875 
Q 6.296875 60.640625 12.9375 67.421875 
Q 19.578125 74.21875 30.609375 74.21875 
Q 43.265625 74.21875 49.921875 64.515625 
Q 56.59375 54.828125 56.59375 36.375 
Q 56.59375 19.140625 48.40625 8.859375 
Q 40.234375 -1.421875 26.421875 -1.421875 
Q 22.703125 -1.421875 18.890625 -0.6875 
Q 15.09375 0.046875 10.984375 1.515625 
z
M 30.609375 32.421875 
Q 37.25 32.421875 41.125 36.953125 
Q 45.015625 41.5 45.015625 49.421875 
Q 45.015625 57.28125 41.125 61.84375 
Q 37.25 66.40625 30.609375 66.40625 
Q 23.96875 66.40625 20.09375 61.84375 
Q 16.21875 57.28125 16.21875 49.421875 
Q 16.21875 41.5 20.09375 36.953125 
Q 23.96875 32.421875 30.609375 32.421875 
z
" id="DejaVuSans-57"/>
     </defs>
     <g transform="translate(257.5275 460.88445)scale(0.12 -0.12)">
      <use xlink:href="#DejaVuSans-54"/>
      <use x="63.623047" xlink:href="#DejaVuSans-57"/>
      <use x="127.246094" xlink:href="#DejaVuSans-55"/>
      <use x="190.869141" xlink:href="#DejaVuSans-46"/>
      <use x="222.65625" xlink:href="#DejaVuSans-53"/>
      <use x="286.279297" xlink:href="#DejaVuSans-32"/>
      <use x="318.066406" xlink:href="#DejaVuSans-43"/>
      <use x="401.855469" xlink:href="#DejaVuSans-47"/>
      <use x="435.546875" xlink:href="#DejaVuSans-45"/>
      <use x="471.630859" xlink:href="#DejaVuSans-32"/>
      <use x="503.417969" xlink:href="#DejaVuSans-57"/>
      <use x="567.041016" xlink:href="#DejaVuSans-56"/>
      <use x="630.664062" xlink:href="#DejaVuSans-46"/>
      <use x="662.451172" xlink:href="#DejaVuSans-57"/>
     </g>
    </g>
    <g id="patch_15">
     <path d="M 357.21 469.0224 
L 482.76 469.0224 
L 482.76 446.124 
L 357.21 446.124 
z
" style="fill:#ffffff;stroke:#000000;stroke-linejoin:miter;"/>
    </g>
    <g id="text_13">
     <!-- 673.4 +/- 10.4 -->
     <defs>
      <path d="M 37.796875 64.3125 
L 12.890625 25.390625 
L 37.796875 25.390625 
z
M 35.203125 72.90625 
L 47.609375 72.90625 
L 47.609375 25.390625 
L 58.015625 25.390625 
L 58.015625 17.1875 
L 47.609375 17.1875 
L 47.609375 0 
L 37.796875 0 
L 37.796875 17.1875 
L 4.890625 17.1875 
L 4.890625 26.703125 
z
" id="DejaVuSans-52"/>
     </defs>
     <g transform="translate(383.0775 460.88445)scale(0.12 -0.12)">
      <use xlink:href="#DejaVuSans-54"/>
      <use x="63.623047" xlink:href="#DejaVuSans-55"/>
      <use x="127.246094" xlink:href="#DejaVuSans-51"/>
      <use x="190.869141" xlink:href="#DejaVuSans-46"/>
      <use x="222.65625" xlink:href="#DejaVuSans-52"/>
      <use x="286.279297" xlink:href="#DejaVuSans-32"/>
      <use x="318.066406" xlink:href="#DejaVuSans-43"/>
      <use x="401.855469" xlink:href="#DejaVuSans-47"/>
      <use x="435.546875" xlink:href="#DejaVuSans-45"/>
      <use x="471.630859" xlink:href="#DejaVuSans-32"/>
      <use x="503.417969" xlink:href="#DejaVuSans-49"/>
      <use x="567.041016" xlink:href="#DejaVuSans-48"/>
      <use x="630.664062" xlink:href="#DejaVuSans-46"/>
      <use x="662.451172" xlink:href="#DejaVuSans-52"/>
     </g>
    </g>
    <g id="patch_16">
     <path d="M 482.76 469.0224 
L 608.31 469.0224 
L 608.31 446.124 
L 482.76 446.124 
z
" style="fill:#ffffff;stroke:#000000;stroke-linejoin:miter;"/>
    </g>
    <g id="text_14">
     <!-- 621.5 +/- 16.4 -->
     <g transform="translate(508.6275 460.88445)scale(0.12 -0.12)">
      <use xlink:href="#DejaVuSans-54"/>
      <use x="63.623047" xlink:href="#DejaVuSans-50"/>
      <use x="127.246094" xlink:href="#DejaVuSans-49"/>
      <use x="190.869141" xlink:href="#DejaVuSans-46"/>
      <use x="222.65625" xlink:href="#DejaVuSans-53"/>
      <use x="286.279297" xlink:href="#DejaVuSans-32"/>
      <use x="318.066406" xlink:href="#DejaVuSans-43"/>
      <use x="401.855469" xlink:href="#DejaVuSans-47"/>
      <use x="435.546875" xlink:href="#DejaVuSans-45"/>
      <use x="471.630859" xlink:href="#DejaVuSans-32"/>
      <use x="503.417969" xlink:href="#DejaVuSans-49"/>
      <use x="567.041016" xlink:href="#DejaVuSans-54"/>
      <use x="630.664062" xlink:href="#DejaVuSans-46"/>
      <use x="662.451172" xlink:href="#DejaVuSans-52"/>
     </g>
    </g>
   </g>
   <g id="matplotlib.axis_1">
    <g id="xtick_1">
     <g id="line2d_1">
      <defs>
       <path d="M 0 0 
L 0 2 
" id="m18ab3e3f0a" style="stroke:#000000;"/>
      </defs>
      <g>
       <use style="stroke:#000000;" x="160.175037" xlink:href="#m18ab3e3f0a" y="331.632"/>
      </g>
     </g>
     <g id="text_15">
      <!-- 1 -->
      <g transform="translate(154.448787 350.809188)scale(0.18 -0.18)">
       <use xlink:href="#DejaVuSans-49"/>
      </g>
     </g>
    </g>
    <g id="xtick_2">
     <g id="line2d_2">
      <g>
       <use style="stroke:#000000;" x="316.910741" xlink:href="#m18ab3e3f0a" y="331.632"/>
      </g>
     </g>
     <g id="text_16">
      <!-- 10 -->
      <g transform="translate(305.458241 350.809188)scale(0.18 -0.18)">
       <use xlink:href="#DejaVuSans-49"/>
       <use x="63.623047" xlink:href="#DejaVuSans-48"/>
      </g>
     </g>
    </g>
    <g id="xtick_3">
     <g id="line2d_3">
      <g>
       <use style="stroke:#000000;" x="473.646445" xlink:href="#m18ab3e3f0a" y="331.632"/>
      </g>
     </g>
     <g id="text_17">
      <!-- 100 -->
      <g transform="translate(456.467695 350.809188)scale(0.18 -0.18)">
       <use xlink:href="#DejaVuSans-49"/>
       <use x="63.623047" xlink:href="#DejaVuSans-48"/>
       <use x="127.246094" xlink:href="#DejaVuSans-48"/>
      </g>
     </g>
    </g>
    <g id="xtick_4">
     <g id="line2d_4">
      <defs>
       <path d="M 0 0 
L 0 2 
" id="mbf168b553d" style="stroke:#000000;stroke-width:0.6;"/>
      </defs>
      <g>
       <use style="stroke:#000000;stroke-width:0.6;" x="97.80363" xlink:href="#mbf168b553d" y="331.632"/>
      </g>
     </g>
    </g>
    <g id="xtick_5">
     <g id="line2d_5">
      <g>
       <use style="stroke:#000000;stroke-width:0.6;" x="112.992889" xlink:href="#mbf168b553d" y="331.632"/>
      </g>
     </g>
    </g>
    <g id="xtick_6">
     <g id="line2d_6">
      <g>
       <use style="stroke:#000000;stroke-width:0.6;" x="125.403417" xlink:href="#mbf168b553d" y="331.632"/>
      </g>
     </g>
    </g>
    <g id="xtick_7">
     <g id="line2d_7">
      <g>
       <use style="stroke:#000000;stroke-width:0.6;" x="135.89637" xlink:href="#mbf168b553d" y="331.632"/>
      </g>
     </g>
    </g>
    <g id="xtick_8">
     <g id="line2d_8">
      <g>
       <use style="stroke:#000000;stroke-width:0.6;" x="144.985778" xlink:href="#mbf168b553d" y="331.632"/>
      </g>
     </g>
    </g>
    <g id="xtick_9">
     <g id="line2d_9">
      <g>
       <use style="stroke:#000000;stroke-width:0.6;" x="153.003205" xlink:href="#mbf168b553d" y="331.632"/>
      </g>
     </g>
    </g>
    <g id="xtick_10">
     <g id="line2d_10">
      <g>
       <use style="stroke:#000000;stroke-width:0.6;" x="207.357185" xlink:href="#mbf168b553d" y="331.632"/>
      </g>
     </g>
    </g>
    <g id="xtick_11">
     <g id="line2d_11">
      <g>
       <use style="stroke:#000000;stroke-width:0.6;" x="234.956973" xlink:href="#mbf168b553d" y="331.632"/>
      </g>
     </g>
    </g>
    <g id="xtick_12">
     <g id="line2d_12">
      <g>
       <use style="stroke:#000000;stroke-width:0.6;" x="254.539334" xlink:href="#mbf168b553d" y="331.632"/>
      </g>
     </g>
    </g>
    <g id="xtick_13">
     <g id="line2d_13">
      <g>
       <use style="stroke:#000000;stroke-width:0.6;" x="269.728593" xlink:href="#mbf168b553d" y="331.632"/>
      </g>
     </g>
    </g>
    <g id="xtick_14">
     <g id="line2d_14">
      <g>
       <use style="stroke:#000000;stroke-width:0.6;" x="282.139121" xlink:href="#mbf168b553d" y="331.632"/>
      </g>
     </g>
    </g>
    <g id="xtick_15">
     <g id="line2d_15">
      <g>
       <use style="stroke:#000000;stroke-width:0.6;" x="292.632073" xlink:href="#mbf168b553d" y="331.632"/>
      </g>
     </g>
    </g>
    <g id="xtick_16">
     <g id="line2d_16">
      <g>
       <use style="stroke:#000000;stroke-width:0.6;" x="301.721482" xlink:href="#mbf168b553d" y="331.632"/>
      </g>
     </g>
    </g>
    <g id="xtick_17">
     <g id="line2d_17">
      <g>
       <use style="stroke:#000000;stroke-width:0.6;" x="309.738908" xlink:href="#mbf168b553d" y="331.632"/>
      </g>
     </g>
    </g>
    <g id="xtick_18">
     <g id="line2d_18">
      <g>
       <use style="stroke:#000000;stroke-width:0.6;" x="364.092889" xlink:href="#mbf168b553d" y="331.632"/>
      </g>
     </g>
    </g>
    <g id="xtick_19">
     <g id="line2d_19">
      <g>
       <use style="stroke:#000000;stroke-width:0.6;" x="391.692676" xlink:href="#mbf168b553d" y="331.632"/>
      </g>
     </g>
    </g>
    <g id="xtick_20">
     <g id="line2d_20">
      <g>
       <use style="stroke:#000000;stroke-width:0.6;" x="411.275037" xlink:href="#mbf168b553d" y="331.632"/>
      </g>
     </g>
    </g>
    <g id="xtick_21">
     <g id="line2d_21">
      <g>
       <use style="stroke:#000000;stroke-width:0.6;" x="426.464296" xlink:href="#mbf168b553d" y="331.632"/>
      </g>
     </g>
    </g>
    <g id="xtick_22">
     <g id="line2d_22">
      <g>
       <use style="stroke:#000000;stroke-width:0.6;" x="438.874825" xlink:href="#mbf168b553d" y="331.632"/>
      </g>
     </g>
    </g>
    <g id="xtick_23">
     <g id="line2d_23">
      <g>
       <use style="stroke:#000000;stroke-width:0.6;" x="449.367777" xlink:href="#mbf168b553d" y="331.632"/>
      </g>
     </g>
    </g>
    <g id="xtick_24">
     <g id="line2d_24">
      <g>
       <use style="stroke:#000000;stroke-width:0.6;" x="458.457185" xlink:href="#mbf168b553d" y="331.632"/>
      </g>
     </g>
    </g>
    <g id="xtick_25">
     <g id="line2d_25">
      <g>
       <use style="stroke:#000000;stroke-width:0.6;" x="466.474612" xlink:href="#mbf168b553d" y="331.632"/>
      </g>
     </g>
    </g>
    <g id="xtick_26">
     <g id="line2d_26">
      <g>
       <use style="stroke:#000000;stroke-width:0.6;" x="520.828593" xlink:href="#mbf168b553d" y="331.632"/>
      </g>
     </g>
    </g>
    <g id="xtick_27">
     <g id="line2d_27">
      <g>
       <use style="stroke:#000000;stroke-width:0.6;" x="548.42838" xlink:href="#mbf168b553d" y="331.632"/>
      </g>
     </g>
    </g>
    <g id="xtick_28">
     <g id="line2d_28">
      <g>
       <use style="stroke:#000000;stroke-width:0.6;" x="568.010741" xlink:href="#mbf168b553d" y="331.632"/>
      </g>
     </g>
    </g>
    <g id="xtick_29">
     <g id="line2d_29">
      <g>
       <use style="stroke:#000000;stroke-width:0.6;" x="583.2" xlink:href="#mbf168b553d" y="331.632"/>
      </g>
     </g>
    </g>
    <g id="text_18">
     <!-- Papaverine (uM) -->
     <defs>
      <path d="M 18.109375 8.203125 
L 18.109375 -20.796875 
L 9.078125 -20.796875 
L 9.078125 54.6875 
L 18.109375 54.6875 
L 18.109375 46.390625 
Q 20.953125 51.265625 25.265625 53.625 
Q 29.59375 56 35.59375 56 
Q 45.5625 56 51.78125 48.09375 
Q 58.015625 40.1875 58.015625 27.296875 
Q 58.015625 14.40625 51.78125 6.484375 
Q 45.5625 -1.421875 35.59375 -1.421875 
Q 29.59375 -1.421875 25.265625 0.953125 
Q 20.953125 3.328125 18.109375 8.203125 
z
M 48.6875 27.296875 
Q 48.6875 37.203125 44.609375 42.84375 
Q 40.53125 48.484375 33.40625 48.484375 
Q 26.265625 48.484375 22.1875 42.84375 
Q 18.109375 37.203125 18.109375 27.296875 
Q 18.109375 17.390625 22.1875 11.75 
Q 26.265625 6.109375 33.40625 6.109375 
Q 40.53125 6.109375 44.609375 11.75 
Q 48.6875 17.390625 48.6875 27.296875 
z
" id="DejaVuSans-112"/>
      <path d="M 2.984375 54.6875 
L 12.5 54.6875 
L 29.59375 8.796875 
L 46.6875 54.6875 
L 56.203125 54.6875 
L 35.6875 0 
L 23.484375 0 
z
" id="DejaVuSans-118"/>
      <path d="M 56.203125 29.59375 
L 56.203125 25.203125 
L 14.890625 25.203125 
Q 15.484375 15.921875 20.484375 11.0625 
Q 25.484375 6.203125 34.421875 6.203125 
Q 39.59375 6.203125 44.453125 7.46875 
Q 49.3125 8.734375 54.109375 11.28125 
L 54.109375 2.78125 
Q 49.265625 0.734375 44.1875 -0.34375 
Q 39.109375 -1.421875 33.890625 -1.421875 
Q 20.796875 -1.421875 13.15625 6.1875 
Q 5.515625 13.8125 5.515625 26.8125 
Q 5.515625 40.234375 12.765625 48.109375 
Q 20.015625 56 32.328125 56 
Q 43.359375 56 49.78125 48.890625 
Q 56.203125 41.796875 56.203125 29.59375 
z
M 47.21875 32.234375 
Q 47.125 39.59375 43.09375 43.984375 
Q 39.0625 48.390625 32.421875 48.390625 
Q 24.90625 48.390625 20.390625 44.140625 
Q 15.875 39.890625 15.1875 32.171875 
z
" id="DejaVuSans-101"/>
      <path d="M 9.421875 54.6875 
L 18.40625 54.6875 
L 18.40625 0 
L 9.421875 0 
z
M 9.421875 75.984375 
L 18.40625 75.984375 
L 18.40625 64.59375 
L 9.421875 64.59375 
z
" id="DejaVuSans-105"/>
     </defs>
     <g transform="translate(250.073438 373.7495)scale(0.2 -0.2)">
      <use xlink:href="#DejaVuSans-80"/>
      <use x="60.240234" xlink:href="#DejaVuSans-97"/>
      <use x="121.519531" xlink:href="#DejaVuSans-112"/>
      <use x="184.996094" xlink:href="#DejaVuSans-97"/>
      <use x="246.275391" xlink:href="#DejaVuSans-118"/>
      <use x="305.455078" xlink:href="#DejaVuSans-101"/>
      <use x="366.978516" xlink:href="#DejaVuSans-114"/>
      <use x="408.091797" xlink:href="#DejaVuSans-105"/>
      <use x="435.875" xlink:href="#DejaVuSans-110"/>
      <use x="499.253906" xlink:href="#DejaVuSans-101"/>
      <use x="560.777344" xlink:href="#DejaVuSans-32"/>
      <use x="592.564453" xlink:href="#DejaVuSans-40"/>
      <use x="631.578125" xlink:href="#DejaVuSans-117"/>
      <use x="694.957031" xlink:href="#DejaVuSans-77"/>
      <use x="781.236328" xlink:href="#DejaVuSans-41"/>
     </g>
    </g>
   </g>
   <g id="matplotlib.axis_2">
    <g id="ytick_1">
     <g id="line2d_30">
      <defs>
       <path d="M 0 0 
L -2 0 
" id="mde0f3fee46" style="stroke:#000000;"/>
      </defs>
      <g>
       <use style="stroke:#000000;" x="81" xlink:href="#mde0f3fee46" y="319.141964"/>
      </g>
     </g>
     <g id="text_19">
      <!-- 0 -->
      <g transform="translate(64.0475 325.980557)scale(0.18 -0.18)">
       <use xlink:href="#DejaVuSans-48"/>
      </g>
     </g>
    </g>
    <g id="ytick_2">
     <g id="line2d_31">
      <g>
       <use style="stroke:#000000;" x="81" xlink:href="#mde0f3fee46" y="249.962354"/>
      </g>
     </g>
     <g id="text_20">
      <!-- 2 -->
      <g transform="translate(64.0475 256.800947)scale(0.18 -0.18)">
       <use xlink:href="#DejaVuSans-50"/>
      </g>
     </g>
    </g>
    <g id="ytick_3">
     <g id="line2d_32">
      <g>
       <use style="stroke:#000000;" x="81" xlink:href="#mde0f3fee46" y="180.782744"/>
      </g>
     </g>
     <g id="text_21">
      <!-- 4 -->
      <g transform="translate(64.0475 187.621337)scale(0.18 -0.18)">
       <use xlink:href="#DejaVuSans-52"/>
      </g>
     </g>
    </g>
    <g id="ytick_4">
     <g id="line2d_33">
      <g>
       <use style="stroke:#000000;" x="81" xlink:href="#mde0f3fee46" y="111.603134"/>
      </g>
     </g>
     <g id="text_22">
      <!-- 6 -->
      <g transform="translate(64.0475 118.441728)scale(0.18 -0.18)">
       <use xlink:href="#DejaVuSans-54"/>
      </g>
     </g>
    </g>
    <g id="text_23">
     <!-- $(RFU/OD) \times 10^4$ -->
     <defs>
      <path d="M 25.203125 64.796875 
L 20.21875 38.921875 
L 32.90625 38.921875 
Q 40.375 38.921875 44.984375 43.046875 
Q 49.609375 47.171875 49.609375 53.8125 
Q 49.609375 59.125 46.5 61.953125 
Q 43.40625 64.796875 37.59375 64.796875 
z
M 43.3125 35.015625 
Q 46.4375 34.28125 48.515625 31.390625 
Q 50.59375 28.515625 53.328125 19.921875 
L 59.515625 0 
L 49.125 0 
L 43.40625 18.703125 
Q 41.21875 25.921875 38.328125 28.359375 
Q 35.453125 30.8125 29.5 30.8125 
L 18.609375 30.8125 
L 12.59375 0 
L 2.6875 0 
L 16.890625 72.90625 
L 39.109375 72.90625 
Q 49.21875 72.90625 54.609375 68.328125 
Q 60.015625 63.765625 60.015625 55.171875 
Q 60.015625 47.5625 55.421875 41.984375 
Q 50.828125 36.421875 43.3125 35.015625 
z
" id="DejaVuSans-Oblique-82"/>
      <path d="M 16.890625 72.90625 
L 58.6875 72.90625 
L 57.078125 64.59375 
L 25.09375 64.59375 
L 20.90625 43.109375 
L 49.8125 43.109375 
L 48.1875 34.8125 
L 19.28125 34.8125 
L 12.5 0 
L 2.6875 0 
z
" id="DejaVuSans-Oblique-70"/>
      <path d="M 15.484375 72.90625 
L 25.390625 72.90625 
L 16.796875 28.609375 
Q 16.265625 25.640625 16.046875 23.703125 
Q 15.828125 21.78125 15.828125 20.3125 
Q 15.828125 13.578125 19.578125 10.078125 
Q 23.34375 6.59375 30.609375 6.59375 
Q 40.046875 6.59375 45.28125 11.765625 
Q 50.53125 16.9375 52.78125 28.609375 
L 61.375 72.90625 
L 71.296875 72.90625 
L 62.5 27.390625 
Q 59.625 12.640625 51.5625 5.609375 
Q 43.5 -1.421875 29.5 -1.421875 
Q 18.5625 -1.421875 12.1875 4.078125 
Q 5.8125 9.578125 5.8125 19 
Q 5.8125 20.703125 6.046875 22.828125 
Q 6.296875 24.953125 6.78125 27.390625 
z
" id="DejaVuSans-Oblique-85"/>
      <path d="M 45.609375 66.21875 
Q 37.5 66.21875 31.296875 62.28125 
Q 25.09375 58.34375 20.515625 50.296875 
Q 17.578125 45.171875 16.03125 39.40625 
Q 14.5 33.640625 14.5 27.78125 
Q 14.5 17.625 19.359375 12.109375 
Q 24.21875 6.59375 33.109375 6.59375 
Q 41.109375 6.59375 47.375 10.5625 
Q 53.65625 14.546875 58.109375 22.40625 
Q 61.078125 27.6875 62.640625 33.46875 
Q 64.203125 39.265625 64.203125 45.015625 
Q 64.203125 55.125 59.3125 60.671875 
Q 54.4375 66.21875 45.609375 66.21875 
z
M 32.8125 -1.421875 
Q 19.390625 -1.421875 11.6875 6.53125 
Q 4 14.5 4 28.328125 
Q 4 36.234375 7 44.484375 
Q 10.015625 52.734375 15.28125 59.1875 
Q 21.484375 66.75 29.09375 70.484375 
Q 36.71875 74.21875 45.90625 74.21875 
Q 59.28125 74.21875 66.984375 66.328125 
Q 74.703125 58.453125 74.703125 44.828125 
Q 74.703125 36.421875 71.765625 28.3125 
Q 68.84375 20.21875 63.375 13.625 
Q 57.125 6 49.578125 2.28125 
Q 42.046875 -1.421875 32.8125 -1.421875 
z
" id="DejaVuSans-Oblique-79"/>
      <path d="M 16.890625 72.90625 
L 38.09375 72.90625 
Q 54.984375 72.90625 63.59375 65.75 
Q 72.21875 58.59375 72.21875 44.484375 
Q 72.21875 35.15625 68.9375 26.53125 
Q 65.671875 17.921875 59.90625 12.015625 
Q 54.109375 5.953125 45.171875 2.96875 
Q 36.234375 0 24.03125 0 
L 2.6875 0 
z
M 25.203125 64.796875 
L 14.203125 8.109375 
L 27.09375 8.109375 
Q 43.65625 8.109375 52.734375 17.625 
Q 61.8125 27.15625 61.8125 44.484375 
Q 61.8125 54.984375 55.953125 59.890625 
Q 50.09375 64.796875 37.59375 64.796875 
z
" id="DejaVuSans-Oblique-68"/>
      <path d="M 70.125 53.71875 
L 47.796875 31.296875 
L 70.125 8.984375 
L 64.3125 3.078125 
L 41.890625 25.484375 
L 19.484375 3.078125 
L 13.71875 8.984375 
L 35.984375 31.296875 
L 13.71875 53.71875 
L 19.484375 59.625 
L 41.890625 37.203125 
L 64.3125 59.625 
z
" id="DejaVuSans-215"/>
     </defs>
     <g transform="translate(55.888125 270.8416)rotate(-90)scale(0.2 -0.2)">
      <use transform="translate(0 0.684375)" xlink:href="#DejaVuSans-40"/>
      <use transform="translate(39.013672 0.684375)" xlink:href="#DejaVuSans-Oblique-82"/>
      <use transform="translate(108.496094 0.684375)" xlink:href="#DejaVuSans-Oblique-70"/>
      <use transform="translate(166.015625 0.684375)" xlink:href="#DejaVuSans-Oblique-85"/>
      <use transform="translate(239.208984 0.684375)" xlink:href="#DejaVuSans-47"/>
      <use transform="translate(272.900391 0.684375)" xlink:href="#DejaVuSans-Oblique-79"/>
      <use transform="translate(351.611328 0.684375)" xlink:href="#DejaVuSans-Oblique-68"/>
      <use transform="translate(428.613281 0.684375)" xlink:href="#DejaVuSans-41"/>
      <use transform="translate(487.109375 0.684375)" xlink:href="#DejaVuSans-215"/>
      <use transform="translate(590.380859 0.684375)" xlink:href="#DejaVuSans-49"/>
      <use transform="translate(654.003906 0.684375)" xlink:href="#DejaVuSans-48"/>
      <use transform="translate(718.583984 38.965625)scale(0.7)" xlink:href="#DejaVuSans-52"/>
     </g>
    </g>
   </g>
   <g id="line2d_34">
    <path clip-path="url(#pc16a9796e6)" d="M 80.453935 319.093682 
L 195.388358 318.905683 
L 255.846246 318.597215 
L 297.645979 318.171433 
L 329.731966 317.630017 
L 355.816132 316.974008 
L 377.82424 316.203593 
L 396.863739 315.319441 
L 413.654388 314.32138 
L 428.675001 313.209591 
L 442.266819 311.984093 
L 454.685892 310.644243 
L 466.120788 309.189843 
L 476.721452 307.62009 
L 486.60567 305.934128 
L 495.86894 304.130803 
L 504.589638 302.208677 
L 512.832796 300.166044 
L 520.652915 298.00094 
L 528.096846 295.710905 
L 535.205026 293.292998 
L 536.017852 293.001073 
L 536.017852 293.001073 
" style="fill:none;stroke:#0ad12e;stroke-linecap:square;stroke-width:1.5;"/>
   </g>
   <g id="line2d_35">
    <path clip-path="url(#pc16a9796e6)" d="M 80.453935 319.13615 
L 196.39532 319.006621 
L 235.353572 318.752517 
L 260.132319 318.379741 
L 278.468929 317.890048 
L 293.068943 317.284877 
L 305.245569 316.563642 
L 315.70966 315.726336 
L 324.91372 314.771133 
L 333.14096 313.697505 
L 340.600444 312.502974 
L 347.431377 311.186894 
L 353.757847 309.744011 
L 359.655073 308.173341 
L 365.199179 306.468793 
L 370.449656 304.623534 
L 375.446521 302.633165 
L 380.235905 300.486995 
L 384.842207 298.180076 
L 389.303495 295.697477 
L 393.63929 293.0304 
L 397.876137 290.16294 
L 402.035417 287.078799 
L 406.134292 283.761672 
L 410.190769 280.191725 
L 414.227126 276.341635 
L 418.256689 272.188883 
L 422.300205 267.700312 
L 426.379837 262.836627 
L 430.51474 257.557801 
L 434.733042 251.80799 
L 439.062439 245.526558 
L 443.547227 238.622753 
L 448.243358 230.979132 
L 453.231507 222.427913 
L 458.653285 212.682191 
L 464.782945 201.192239 
L 472.376046 186.459335 
L 496.249707 139.783165 
L 502.329636 128.600074 
L 507.72431 119.133439 
L 512.703488 110.837315 
L 517.401329 103.435488 
L 521.899713 96.75731 
L 526.252075 90.689124 
L 530.497991 85.146694 
L 534.667651 80.06577 
L 536.017852 78.496643 
L 536.017852 78.496643 
" style="fill:none;stroke:#0a95d1;stroke-linecap:square;stroke-width:1.5;"/>
   </g>
   <g id="line2d_36">
    <path clip-path="url(#pc16a9796e6)" d="M 80.453935 319.139636 
L 220.543922 319.019318 
L 259.462842 318.773308 
L 283.820614 318.408426 
L 301.722163 317.926676 
L 315.934454 317.32895 
L 327.758385 316.61513 
L 337.904271 315.785092 
L 346.820004 314.836938 
L 354.780136 313.770752 
L 361.993908 312.583697 
L 368.611528 311.272163 
L 374.729803 309.835559 
L 380.443669 308.267777 
L 385.820028 306.56378 
L 390.911761 304.718107 
L 395.76129 302.724987 
L 400.413054 300.573565 
L 404.893432 298.25716 
L 409.237455 295.76127 
L 413.469266 293.07326 
L 417.60855 290.180326 
L 421.678662 287.063971 
L 425.70174 283.702582 
L 429.695277 280.074701 
L 433.679 276.153454 
L 437.670857 271.910006 
L 441.692344 267.307981 
L 445.766825 262.304345 
L 449.920493 256.847767 
L 454.187179 250.871326 
L 458.608728 244.290113 
L 463.244022 236.985734 
L 468.180082 228.784745 
L 473.5688 219.390418 
L 479.720521 208.203795 
L 487.576401 193.425289 
L 507.359209 156.005692 
L 513.578927 144.848072 
L 519.001101 135.567954 
L 523.966195 127.502963 
L 528.630046 120.344792 
L 533.08363 113.911021 
L 536.017852 109.893714 
L 536.017852 109.893714 
" style="fill:none;stroke:#710ad1;stroke-linecap:square;stroke-width:1.5;"/>
   </g>
   <g id="line2d_37">
    <path clip-path="url(#pc16a9796e6)" d="M 80.453935 319.140911 
L 233.059523 319.024943 
L 269.558887 318.782064 
L 292.291553 318.419702 
L 309.055468 317.938669 
L 322.448841 317.338784 
L 333.701756 316.617592 
L 343.470913 315.773119 
L 352.174765 314.801161 
L 360.080594 313.69776 
L 367.398481 312.454274 
L 374.269749 311.062817 
L 380.810729 309.512631 
L 387.124561 307.788597 
L 393.307728 305.870038 
L 399.458207 303.728425 
L 405.692401 301.320807 
L 412.159118 298.582471 
L 419.111384 295.392565 
L 427.095097 291.476024 
L 438.454444 285.627413 
L 453.435627 277.951867 
L 461.423531 274.120066 
L 468.36056 271.035415 
L 474.824693 268.402129 
L 481.067468 266.097799 
L 487.241353 264.055362 
L 493.45841 262.232977 
L 499.813819 260.60245 
L 506.40152 259.143156 
L 513.320991 257.839951 
L 520.687883 256.681166 
L 528.643702 255.657865 
L 536.017852 254.888071 
L 536.017852 254.888071 
" style="fill:none;stroke:#d10a7b;stroke-linecap:square;stroke-width:1.5;"/>
   </g>
   <g id="line2d_38">
    <defs>
     <path d="M 0 3 
C 0.795609 3 1.55874 2.683901 2.12132 2.12132 
C 2.683901 1.55874 3 0.795609 3 0 
C 3 -0.795609 2.683901 -1.55874 2.12132 -2.12132 
C 1.55874 -2.683901 0.795609 -3 0 -3 
C -0.795609 -3 -1.55874 -2.683901 -2.12132 -2.12132 
C -2.683901 -1.55874 -3 -0.795609 -3 0 
C -3 0.795609 -2.683901 1.55874 -2.12132 2.12132 
C -1.55874 2.683901 -0.795609 3 0 3 
z
" id="md5ca0f97b9" style="stroke:#0ad12e;"/>
    </defs>
    <g clip-path="url(#pc16a9796e6)">
     <use style="fill:#0ad12e;stroke:#0ad12e;" x="-1" xlink:href="#md5ca0f97b9" y="318.178401"/>
     <use style="fill:#0ad12e;stroke:#0ad12e;" x="222.546445" xlink:href="#md5ca0f97b9" y="318.178181"/>
     <use style="fill:#0ad12e;stroke:#0ad12e;" x="269.728593" xlink:href="#md5ca0f97b9" y="318.026998"/>
     <use style="fill:#0ad12e;stroke:#0ad12e;" x="316.910741" xlink:href="#md5ca0f97b9" y="317.740912"/>
     <use style="fill:#0ad12e;stroke:#0ad12e;" x="379.282148" xlink:href="#md5ca0f97b9" y="316.869549"/>
     <use style="fill:#0ad12e;stroke:#0ad12e;" x="426.464296" xlink:href="#md5ca0f97b9" y="313.401245"/>
     <use style="fill:#0ad12e;stroke:#0ad12e;" x="473.646445" xlink:href="#md5ca0f97b9" y="307.916726"/>
     <use style="fill:#0ad12e;stroke:#0ad12e;" x="536.017852" xlink:href="#md5ca0f97b9" y="286.493268"/>
    </g>
   </g>
   <g id="line2d_39">
    <g clip-path="url(#pc16a9796e6)">
     <use style="fill:#0ad12e;stroke:#0ad12e;" x="-1" xlink:href="#md5ca0f97b9" y="318.207113"/>
     <use style="fill:#0ad12e;stroke:#0ad12e;" x="222.546445" xlink:href="#md5ca0f97b9" y="318.20689"/>
     <use style="fill:#0ad12e;stroke:#0ad12e;" x="269.728593" xlink:href="#md5ca0f97b9" y="318.052542"/>
     <use style="fill:#0ad12e;stroke:#0ad12e;" x="316.910741" xlink:href="#md5ca0f97b9" y="317.746741"/>
     <use style="fill:#0ad12e;stroke:#0ad12e;" x="379.282148" xlink:href="#md5ca0f97b9" y="316.676033"/>
     <use style="fill:#0ad12e;stroke:#0ad12e;" x="426.464296" xlink:href="#md5ca0f97b9" y="313.258288"/>
     <use style="fill:#0ad12e;stroke:#0ad12e;" x="473.646445" xlink:href="#md5ca0f97b9" y="308.167669"/>
     <use style="fill:#0ad12e;stroke:#0ad12e;" x="536.017852" xlink:href="#md5ca0f97b9" y="295.012044"/>
    </g>
   </g>
   <g id="line2d_40">
    <g clip-path="url(#pc16a9796e6)">
     <use style="fill:#0ad12e;stroke:#0ad12e;" x="269.728593" xlink:href="#md5ca0f97b9" y="317.970904"/>
     <use style="fill:#0ad12e;stroke:#0ad12e;" x="316.910741" xlink:href="#md5ca0f97b9" y="317.679491"/>
     <use style="fill:#0ad12e;stroke:#0ad12e;" x="379.282148" xlink:href="#md5ca0f97b9" y="316.582756"/>
     <use style="fill:#0ad12e;stroke:#0ad12e;" x="426.464296" xlink:href="#md5ca0f97b9" y="313.317343"/>
     <use style="fill:#0ad12e;stroke:#0ad12e;" x="473.646445" xlink:href="#md5ca0f97b9" y="308.052763"/>
     <use style="fill:#0ad12e;stroke:#0ad12e;" x="536.017852" xlink:href="#md5ca0f97b9" y="297.493935"/>
    </g>
   </g>
   <g id="line2d_41">
    <defs>
     <path d="M 0 3 
C 0.795609 3 1.55874 2.683901 2.12132 2.12132 
C 2.683901 1.55874 3 0.795609 3 0 
C 3 -0.795609 2.683901 -1.55874 2.12132 -2.12132 
C 1.55874 -2.683901 0.795609 -3 0 -3 
C -0.795609 -3 -1.55874 -2.683901 -2.12132 -2.12132 
C -2.683901 -1.55874 -3 -0.795609 -3 0 
C -3 0.795609 -2.683901 1.55874 -2.12132 2.12132 
C -1.55874 2.683901 -0.795609 3 0 3 
z
" id="mc64c241c07" style="stroke:#0a95d1;"/>
    </defs>
    <g clip-path="url(#pc16a9796e6)">
     <use style="fill:#0a95d1;stroke:#0a95d1;" x="-1" xlink:href="#mc64c241c07" y="315.725239"/>
     <use style="fill:#0a95d1;stroke:#0a95d1;" x="222.546445" xlink:href="#mc64c241c07" y="315.724054"/>
     <use style="fill:#0a95d1;stroke:#0a95d1;" x="269.728593" xlink:href="#mc64c241c07" y="312.051641"/>
     <use style="fill:#0a95d1;stroke:#0a95d1;" x="316.910741" xlink:href="#mc64c241c07" y="312.612737"/>
     <use style="fill:#0a95d1;stroke:#0a95d1;" x="379.282148" xlink:href="#mc64c241c07" y="298.530191"/>
     <use style="fill:#0a95d1;stroke:#0a95d1;" x="426.464296" xlink:href="#mc64c241c07" y="263.9933"/>
     <use style="fill:#0a95d1;stroke:#0a95d1;" x="473.646445" xlink:href="#mc64c241c07" y="179.926418"/>
     <use style="fill:#0a95d1;stroke:#0a95d1;" x="536.017852" xlink:href="#mc64c241c07" y="88.828559"/>
    </g>
   </g>
   <g id="line2d_42">
    <g clip-path="url(#pc16a9796e6)">
     <use style="fill:#0a95d1;stroke:#0a95d1;" x="-1" xlink:href="#mc64c241c07" y="316.213668"/>
     <use style="fill:#0a95d1;stroke:#0a95d1;" x="222.546445" xlink:href="#mc64c241c07" y="316.212369"/>
     <use style="fill:#0a95d1;stroke:#0a95d1;" x="269.728593" xlink:href="#mc64c241c07" y="312.561851"/>
     <use style="fill:#0a95d1;stroke:#0a95d1;" x="316.910741" xlink:href="#mc64c241c07" y="313.148142"/>
     <use style="fill:#0a95d1;stroke:#0a95d1;" x="379.282148" xlink:href="#mc64c241c07" y="300.291184"/>
     <use style="fill:#0a95d1;stroke:#0a95d1;" x="426.464296" xlink:href="#mc64c241c07" y="264.747132"/>
     <use style="fill:#0a95d1;stroke:#0a95d1;" x="473.646445" xlink:href="#mc64c241c07" y="181.663111"/>
     <use style="fill:#0a95d1;stroke:#0a95d1;" x="536.017852" xlink:href="#mc64c241c07" y="69.341236"/>
    </g>
   </g>
   <g id="line2d_43">
    <g clip-path="url(#pc16a9796e6)">
     <use style="fill:#0a95d1;stroke:#0a95d1;" x="-1" xlink:href="#mc64c241c07" y="316.006066"/>
     <use style="fill:#0a95d1;stroke:#0a95d1;" x="222.546445" xlink:href="#mc64c241c07" y="316.005347"/>
     <use style="fill:#0a95d1;stroke:#0a95d1;" x="269.728593" xlink:href="#mc64c241c07" y="312.625104"/>
     <use style="fill:#0a95d1;stroke:#0a95d1;" x="316.910741" xlink:href="#mc64c241c07" y="312.764937"/>
     <use style="fill:#0a95d1;stroke:#0a95d1;" x="379.282148" xlink:href="#mc64c241c07" y="302.741385"/>
     <use style="fill:#0a95d1;stroke:#0a95d1;" x="426.464296" xlink:href="#mc64c241c07" y="265.182632"/>
     <use style="fill:#0a95d1;stroke:#0a95d1;" x="473.646445" xlink:href="#mc64c241c07" y="187.279327"/>
     <use style="fill:#0a95d1;stroke:#0a95d1;" x="536.017852" xlink:href="#mc64c241c07" y="77.963781"/>
    </g>
   </g>
   <g id="line2d_44">
    <defs>
     <path d="M 0 3 
C 0.795609 3 1.55874 2.683901 2.12132 2.12132 
C 2.683901 1.55874 3 0.795609 3 0 
C 3 -0.795609 2.683901 -1.55874 2.12132 -2.12132 
C 1.55874 -2.683901 0.795609 -3 0 -3 
C -0.795609 -3 -1.55874 -2.683901 -2.12132 -2.12132 
C -2.683901 -1.55874 -3 -0.795609 -3 0 
C -3 0.795609 -2.683901 1.55874 -2.12132 2.12132 
C -1.55874 2.683901 -0.795609 3 0 3 
z
" id="m46b9923cb3" style="stroke:#710ad1;"/>
    </defs>
    <g clip-path="url(#pc16a9796e6)">
     <use style="fill:#710ad1;stroke:#710ad1;" x="-1" xlink:href="#m46b9923cb3" y="316.445558"/>
     <use style="fill:#710ad1;stroke:#710ad1;" x="222.546445" xlink:href="#m46b9923cb3" y="316.445063"/>
     <use style="fill:#710ad1;stroke:#710ad1;" x="269.728593" xlink:href="#m46b9923cb3" y="314.879599"/>
     <use style="fill:#710ad1;stroke:#710ad1;" x="316.910741" xlink:href="#m46b9923cb3" y="314.777288"/>
     <use style="fill:#710ad1;stroke:#710ad1;" x="379.282148" xlink:href="#m46b9923cb3" y="308.587392"/>
     <use style="fill:#710ad1;stroke:#710ad1;" x="426.464296" xlink:href="#m46b9923cb3" y="284.042442"/>
     <use style="fill:#710ad1;stroke:#710ad1;" x="473.646445" xlink:href="#m46b9923cb3" y="223.12583"/>
     <use style="fill:#710ad1;stroke:#710ad1;" x="536.017852" xlink:href="#m46b9923cb3" y="111.452475"/>
    </g>
   </g>
   <g id="line2d_45">
    <g clip-path="url(#pc16a9796e6)">
     <use style="fill:#710ad1;stroke:#710ad1;" x="-1" xlink:href="#m46b9923cb3" y="316.235831"/>
     <use style="fill:#710ad1;stroke:#710ad1;" x="222.546445" xlink:href="#m46b9923cb3" y="316.235037"/>
     <use style="fill:#710ad1;stroke:#710ad1;" x="269.728593" xlink:href="#m46b9923cb3" y="314.635971"/>
     <use style="fill:#710ad1;stroke:#710ad1;" x="316.910741" xlink:href="#m46b9923cb3" y="314.059318"/>
     <use style="fill:#710ad1;stroke:#710ad1;" x="379.282148" xlink:href="#m46b9923cb3" y="307.601693"/>
     <use style="fill:#710ad1;stroke:#710ad1;" x="426.464296" xlink:href="#m46b9923cb3" y="286.467654"/>
     <use style="fill:#710ad1;stroke:#710ad1;" x="473.646445" xlink:href="#m46b9923cb3" y="214.82113"/>
     <use style="fill:#710ad1;stroke:#710ad1;" x="536.017852" xlink:href="#m46b9923cb3" y="106.889988"/>
    </g>
   </g>
   <g id="line2d_46">
    <g clip-path="url(#pc16a9796e6)">
     <use style="fill:#710ad1;stroke:#710ad1;" x="-1" xlink:href="#m46b9923cb3" y="315.866151"/>
     <use style="fill:#710ad1;stroke:#710ad1;" x="222.546445" xlink:href="#m46b9923cb3" y="315.86474"/>
     <use style="fill:#710ad1;stroke:#710ad1;" x="269.728593" xlink:href="#m46b9923cb3" y="314.494497"/>
     <use style="fill:#710ad1;stroke:#710ad1;" x="316.910741" xlink:href="#m46b9923cb3" y="314.46121"/>
     <use style="fill:#710ad1;stroke:#710ad1;" x="379.282148" xlink:href="#m46b9923cb3" y="307.931623"/>
     <use style="fill:#710ad1;stroke:#710ad1;" x="426.464296" xlink:href="#m46b9923cb3" y="282.891467"/>
     <use style="fill:#710ad1;stroke:#710ad1;" x="473.646445" xlink:href="#m46b9923cb3" y="218.106908"/>
     <use style="fill:#710ad1;stroke:#710ad1;" x="536.017852" xlink:href="#m46b9923cb3" y="111.603499"/>
    </g>
   </g>
   <g id="line2d_47">
    <defs>
     <path d="M 0 3 
C 0.795609 3 1.55874 2.683901 2.12132 2.12132 
C 2.683901 1.55874 3 0.795609 3 0 
C 3 -0.795609 2.683901 -1.55874 2.12132 -2.12132 
C 1.55874 -2.683901 0.795609 -3 0 -3 
C -0.795609 -3 -1.55874 -2.683901 -2.12132 -2.12132 
C -2.683901 -1.55874 -3 -0.795609 -3 0 
C -3 0.795609 -2.683901 1.55874 -2.12132 2.12132 
C -1.55874 2.683901 -0.795609 3 0 3 
z
" id="m01e27199b7" style="stroke:#d10a7b;"/>
    </defs>
    <g clip-path="url(#pc16a9796e6)">
     <use style="fill:#d10a7b;stroke:#d10a7b;" x="-1" xlink:href="#m01e27199b7" y="316.520492"/>
     <use style="fill:#d10a7b;stroke:#d10a7b;" x="222.546445" xlink:href="#m01e27199b7" y="316.51991"/>
     <use style="fill:#d10a7b;stroke:#d10a7b;" x="269.728593" xlink:href="#m01e27199b7" y="316.144656"/>
     <use style="fill:#d10a7b;stroke:#d10a7b;" x="316.910741" xlink:href="#m01e27199b7" y="315.459031"/>
     <use style="fill:#d10a7b;stroke:#d10a7b;" x="379.282148" xlink:href="#m01e27199b7" y="310.180018"/>
     <use style="fill:#d10a7b;stroke:#d10a7b;" x="426.464296" xlink:href="#m01e27199b7" y="293.943835"/>
     <use style="fill:#d10a7b;stroke:#d10a7b;" x="473.646445" xlink:href="#m01e27199b7" y="268.373869"/>
     <use style="fill:#d10a7b;stroke:#d10a7b;" x="536.017852" xlink:href="#m01e27199b7" y="254.51077"/>
    </g>
   </g>
   <g id="line2d_48">
    <g clip-path="url(#pc16a9796e6)">
     <use style="fill:#d10a7b;stroke:#d10a7b;" x="-1" xlink:href="#m01e27199b7" y="316.455395"/>
     <use style="fill:#d10a7b;stroke:#d10a7b;" x="222.546445" xlink:href="#m01e27199b7" y="316.454564"/>
     <use style="fill:#d10a7b;stroke:#d10a7b;" x="269.728593" xlink:href="#m01e27199b7" y="315.933859"/>
     <use style="fill:#d10a7b;stroke:#d10a7b;" x="316.910741" xlink:href="#m01e27199b7" y="315.112953"/>
     <use style="fill:#d10a7b;stroke:#d10a7b;" x="379.282148" xlink:href="#m01e27199b7" y="310.114833"/>
     <use style="fill:#d10a7b;stroke:#d10a7b;" x="426.464296" xlink:href="#m01e27199b7" y="291.793494"/>
     <use style="fill:#d10a7b;stroke:#d10a7b;" x="473.646445" xlink:href="#m01e27199b7" y="265.434835"/>
     <use style="fill:#d10a7b;stroke:#d10a7b;" x="536.017852" xlink:href="#m01e27199b7" y="255.61487"/>
    </g>
   </g>
   <g id="line2d_49">
    <g clip-path="url(#pc16a9796e6)">
     <use style="fill:#d10a7b;stroke:#d10a7b;" x="-1" xlink:href="#m01e27199b7" y="316.396161"/>
     <use style="fill:#d10a7b;stroke:#d10a7b;" x="222.546445" xlink:href="#m01e27199b7" y="316.395284"/>
     <use style="fill:#d10a7b;stroke:#d10a7b;" x="269.728593" xlink:href="#m01e27199b7" y="316.023185"/>
     <use style="fill:#d10a7b;stroke:#d10a7b;" x="316.910741" xlink:href="#m01e27199b7" y="314.919022"/>
     <use style="fill:#d10a7b;stroke:#d10a7b;" x="379.282148" xlink:href="#m01e27199b7" y="310.497912"/>
     <use style="fill:#d10a7b;stroke:#d10a7b;" x="426.464296" xlink:href="#m01e27199b7" y="292.151958"/>
     <use style="fill:#d10a7b;stroke:#d10a7b;" x="473.646445" xlink:href="#m01e27199b7" y="269.711504"/>
     <use style="fill:#d10a7b;stroke:#d10a7b;" x="536.017852" xlink:href="#m01e27199b7" y="255.945837"/>
    </g>
   </g>
   <g id="patch_17">
    <path d="M 81 331.632 
L 81 56.8512 
" style="fill:none;stroke:#000000;stroke-linecap:square;stroke-linejoin:miter;stroke-width:0.8;"/>
   </g>
   <g id="patch_18">
    <path d="M 81 331.632 
L 583.2 331.632 
" style="fill:none;stroke:#000000;stroke-linecap:square;stroke-linejoin:miter;stroke-width:0.8;"/>
   </g>
   <g id="text_24">
    <!-- Evolution of PAP2 -->
    <defs>
     <path d="M 9.421875 75.984375 
L 18.40625 75.984375 
L 18.40625 0 
L 9.421875 0 
z
" id="DejaVuSans-108"/>
     <path d="M 18.3125 70.21875 
L 18.3125 54.6875 
L 36.8125 54.6875 
L 36.8125 47.703125 
L 18.3125 47.703125 
L 18.3125 18.015625 
Q 18.3125 11.328125 20.140625 9.421875 
Q 21.96875 7.515625 27.59375 7.515625 
L 36.8125 7.515625 
L 36.8125 0 
L 27.59375 0 
Q 17.1875 0 13.234375 3.875 
Q 9.28125 7.765625 9.28125 18.015625 
L 9.28125 47.703125 
L 2.6875 47.703125 
L 2.6875 54.6875 
L 9.28125 54.6875 
L 9.28125 70.21875 
z
" id="DejaVuSans-116"/>
     <path d="M 37.109375 75.984375 
L 37.109375 68.5 
L 28.515625 68.5 
Q 23.6875 68.5 21.796875 66.546875 
Q 19.921875 64.59375 19.921875 59.515625 
L 19.921875 54.6875 
L 34.71875 54.6875 
L 34.71875 47.703125 
L 19.921875 47.703125 
L 19.921875 0 
L 10.890625 0 
L 10.890625 47.703125 
L 2.296875 47.703125 
L 2.296875 54.6875 
L 10.890625 54.6875 
L 10.890625 58.5 
Q 10.890625 67.625 15.140625 71.796875 
Q 19.390625 75.984375 28.609375 75.984375 
z
" id="DejaVuSans-102"/>
    </defs>
    <g transform="translate(222.25625 50.8512)scale(0.25 -0.25)">
     <use xlink:href="#DejaVuSans-69"/>
     <use x="63.183594" xlink:href="#DejaVuSans-118"/>
     <use x="122.363281" xlink:href="#DejaVuSans-111"/>
     <use x="183.544922" xlink:href="#DejaVuSans-108"/>
     <use x="211.328125" xlink:href="#DejaVuSans-117"/>
     <use x="274.707031" xlink:href="#DejaVuSans-116"/>
     <use x="313.916016" xlink:href="#DejaVuSans-105"/>
     <use x="341.699219" xlink:href="#DejaVuSans-111"/>
     <use x="402.880859" xlink:href="#DejaVuSans-110"/>
     <use x="466.259766" xlink:href="#DejaVuSans-32"/>
     <use x="498.046875" xlink:href="#DejaVuSans-111"/>
     <use x="559.228516" xlink:href="#DejaVuSans-102"/>
     <use x="594.433594" xlink:href="#DejaVuSans-32"/>
     <use x="626.220703" xlink:href="#DejaVuSans-80"/>
     <use x="686.429688" xlink:href="#DejaVuSans-65"/>
     <use x="754.837891" xlink:href="#DejaVuSans-80"/>
     <use x="815.140625" xlink:href="#DejaVuSans-50"/>
    </g>
   </g>
   <g id="legend_1">
    <g id="patch_19">
     <path d="M 91.5 156.91995 
L 191.690625 156.91995 
Q 194.690625 156.91995 194.690625 153.91995 
L 194.690625 67.3512 
Q 194.690625 64.3512 191.690625 64.3512 
L 91.5 64.3512 
Q 88.5 64.3512 88.5 67.3512 
L 88.5 153.91995 
Q 88.5 156.91995 91.5 156.91995 
z
" style="fill:#ffffff;opacity:0.8;stroke:#cccccc;stroke-linejoin:miter;"/>
    </g>
    <g id="line2d_50">
     <path d="M 94.5 76.498856 
L 124.5 76.498856 
" style="fill:none;stroke:#0ad12e;stroke-linecap:square;stroke-width:1.5;"/>
    </g>
    <g id="line2d_51"/>
    <g id="text_25">
     <!-- PAP1 -->
     <g transform="translate(136.5 81.748856)scale(0.15 -0.15)">
      <use xlink:href="#DejaVuSans-80"/>
      <use x="60.208984" xlink:href="#DejaVuSans-65"/>
      <use x="128.617188" xlink:href="#DejaVuSans-80"/>
      <use x="188.919922" xlink:href="#DejaVuSans-49"/>
     </g>
    </g>
    <g id="line2d_52">
     <path d="M 94.5 98.516044 
L 124.5 98.516044 
" style="fill:none;stroke:#0a95d1;stroke-linecap:square;stroke-width:1.5;"/>
    </g>
    <g id="line2d_53"/>
    <g id="text_26">
     <!-- PAP2.1 -->
     <g transform="translate(136.5 103.766044)scale(0.15 -0.15)">
      <use xlink:href="#DejaVuSans-80"/>
      <use x="60.208984" xlink:href="#DejaVuSans-65"/>
      <use x="128.617188" xlink:href="#DejaVuSans-80"/>
      <use x="188.919922" xlink:href="#DejaVuSans-50"/>
      <use x="252.542969" xlink:href="#DejaVuSans-46"/>
      <use x="284.330078" xlink:href="#DejaVuSans-49"/>
     </g>
    </g>
    <g id="line2d_54">
     <path d="M 94.5 120.533231 
L 124.5 120.533231 
" style="fill:none;stroke:#710ad1;stroke-linecap:square;stroke-width:1.5;"/>
    </g>
    <g id="line2d_55"/>
    <g id="text_27">
     <!-- PAP2.2 -->
     <g transform="translate(136.5 125.783231)scale(0.15 -0.15)">
      <use xlink:href="#DejaVuSans-80"/>
      <use x="60.208984" xlink:href="#DejaVuSans-65"/>
      <use x="128.617188" xlink:href="#DejaVuSans-80"/>
      <use x="188.919922" xlink:href="#DejaVuSans-50"/>
      <use x="252.542969" xlink:href="#DejaVuSans-46"/>
      <use x="284.330078" xlink:href="#DejaVuSans-50"/>
     </g>
    </g>
    <g id="line2d_56">
     <path d="M 94.5 142.550419 
L 124.5 142.550419 
" style="fill:none;stroke:#d10a7b;stroke-linecap:square;stroke-width:1.5;"/>
    </g>
    <g id="line2d_57"/>
    <g id="text_28">
     <!-- PAP2.3 -->
     <g transform="translate(136.5 147.800419)scale(0.15 -0.15)">
      <use xlink:href="#DejaVuSans-80"/>
      <use x="60.208984" xlink:href="#DejaVuSans-65"/>
      <use x="128.617188" xlink:href="#DejaVuSans-80"/>
      <use x="188.919922" xlink:href="#DejaVuSans-50"/>
      <use x="252.542969" xlink:href="#DejaVuSans-46"/>
      <use x="284.330078" xlink:href="#DejaVuSans-51"/>
     </g>
    </g>
   </g>
  </g>
 </g>
 <defs>
  <clipPath id="pc16a9796e6">
   <rect height="274.7808" width="502.2" x="81" y="56.8512"/>
  </clipPath>
 </defs>
</svg>
