<?xml version="1.0" encoding="utf-8" standalone="no"?>
<!DOCTYPE svg PUBLIC "-//W3C//DTD SVG 1.1//EN"
  "http://www.w3.org/Graphics/SVG/1.1/DTD/svg11.dtd">
<!-- Created with matplotlib (https://matplotlib.org/) -->
<svg height="473.76pt" version="1.1" viewBox="0 0 648 473.76" width="648pt" xmlns="http://www.w3.org/2000/svg" xmlns:xlink="http://www.w3.org/1999/xlink">
 <defs>
  <style type="text/css">
*{stroke-linecap:butt;stroke-linejoin:round;}
  </style>
 </defs>
 <g id="figure_1">
  <g id="patch_1">
   <path d="M 0 473.76 
L 648 473.76 
L 648 0 
L 0 0 
z
" style="fill:#ffffff;"/>
  </g>
  <g id="axes_1">
   <g id="patch_2">
    <path d="M 81 331.632 
L 583.2 331.632 
L 583.2 56.8512 
L 81 56.8512 
z
" style="fill:#ffffff;"/>
   </g>
   <g id="table_1">
    <g id="patch_3">
     <path d="M 106.11 423.2256 
L 231.66 423.2256 
L 231.66 400.3272 
L 106.11 400.3272 
z
" style="fill:#0ad12e;stroke:#000000;stroke-linejoin:miter;"/>
    </g>
    <g id="text_1">
     <!-- PAP3 -->
     <defs>
      <path d="M 19.671875 64.796875 
L 19.671875 37.40625 
L 32.078125 37.40625 
Q 38.96875 37.40625 42.71875 40.96875 
Q 46.484375 44.53125 46.484375 51.125 
Q 46.484375 57.671875 42.71875 61.234375 
Q 38.96875 64.796875 32.078125 64.796875 
z
M 9.8125 72.90625 
L 32.078125 72.90625 
Q 44.34375 72.90625 50.609375 67.359375 
Q 56.890625 61.8125 56.890625 51.125 
Q 56.890625 40.328125 50.609375 34.8125 
Q 44.34375 29.296875 32.078125 29.296875 
L 19.671875 29.296875 
L 19.671875 0 
L 9.8125 0 
z
" id="DejaVuSans-80"/>
      <path d="M 34.1875 63.1875 
L 20.796875 26.90625 
L 47.609375 26.90625 
z
M 28.609375 72.90625 
L 39.796875 72.90625 
L 67.578125 0 
L 57.328125 0 
L 50.6875 18.703125 
L 17.828125 18.703125 
L 11.1875 0 
L 0.78125 0 
z
" id="DejaVuSans-65"/>
      <path d="M 40.578125 39.3125 
Q 47.65625 37.796875 51.625 33 
Q 55.609375 28.21875 55.609375 21.1875 
Q 55.609375 10.40625 48.1875 4.484375 
Q 40.765625 -1.421875 27.09375 -1.421875 
Q 22.515625 -1.421875 17.65625 -0.515625 
Q 12.796875 0.390625 7.625 2.203125 
L 7.625 11.71875 
Q 11.71875 9.328125 16.59375 8.109375 
Q 21.484375 6.890625 26.8125 6.890625 
Q 36.078125 6.890625 40.9375 10.546875 
Q 45.796875 14.203125 45.796875 21.1875 
Q 45.796875 27.640625 41.28125 31.265625 
Q 36.765625 34.90625 28.71875 34.90625 
L 20.21875 34.90625 
L 20.21875 43.015625 
L 29.109375 43.015625 
Q 36.375 43.015625 40.234375 45.921875 
Q 44.09375 48.828125 44.09375 54.296875 
Q 44.09375 59.90625 40.109375 62.90625 
Q 36.140625 65.921875 28.71875 65.921875 
Q 24.65625 65.921875 20.015625 65.03125 
Q 15.375 64.15625 9.8125 62.3125 
L 9.8125 71.09375 
Q 15.4375 72.65625 20.34375 73.4375 
Q 25.25 74.21875 29.59375 74.21875 
Q 40.828125 74.21875 47.359375 69.109375 
Q 53.90625 64.015625 53.90625 55.328125 
Q 53.90625 49.265625 50.4375 45.09375 
Q 46.96875 40.921875 40.578125 39.3125 
z
" id="DejaVuSans-51"/>
     </defs>
     <g transform="translate(153.733125 415.08765)scale(0.12 -0.12)">
      <use xlink:href="#DejaVuSans-80"/>
      <use x="60.208984" xlink:href="#DejaVuSans-65"/>
      <use x="128.617188" xlink:href="#DejaVuSans-80"/>
      <use x="188.919922" xlink:href="#DejaVuSans-51"/>
     </g>
    </g>
    <g id="patch_4">
     <path d="M 231.66 423.2256 
L 357.21 423.2256 
L 357.21 400.3272 
L 231.66 400.3272 
z
" style="fill:#0a95d1;stroke:#000000;stroke-linejoin:miter;"/>
    </g>
    <g id="text_2">
     <!-- PAP4.1 -->
     <defs>
      <path d="M 37.796875 64.3125 
L 12.890625 25.390625 
L 37.796875 25.390625 
z
M 35.203125 72.90625 
L 47.609375 72.90625 
L 47.609375 25.390625 
L 58.015625 25.390625 
L 58.015625 17.1875 
L 47.609375 17.1875 
L 47.609375 0 
L 37.796875 0 
L 37.796875 17.1875 
L 4.890625 17.1875 
L 4.890625 26.703125 
z
" id="DejaVuSans-52"/>
      <path d="M 10.6875 12.40625 
L 21 12.40625 
L 21 0 
L 10.6875 0 
z
" id="DejaVuSans-46"/>
      <path d="M 12.40625 8.296875 
L 28.515625 8.296875 
L 28.515625 63.921875 
L 10.984375 60.40625 
L 10.984375 69.390625 
L 28.421875 72.90625 
L 38.28125 72.90625 
L 38.28125 8.296875 
L 54.390625 8.296875 
L 54.390625 0 
L 12.40625 0 
z
" id="DejaVuSans-49"/>
     </defs>
     <g transform="translate(273.55875 415.08765)scale(0.12 -0.12)">
      <use xlink:href="#DejaVuSans-80"/>
      <use x="60.208984" xlink:href="#DejaVuSans-65"/>
      <use x="128.617188" xlink:href="#DejaVuSans-80"/>
      <use x="188.919922" xlink:href="#DejaVuSans-52"/>
      <use x="252.542969" xlink:href="#DejaVuSans-46"/>
      <use x="284.330078" xlink:href="#DejaVuSans-49"/>
     </g>
    </g>
    <g id="patch_5">
     <path d="M 357.21 423.2256 
L 482.76 423.2256 
L 482.76 400.3272 
L 357.21 400.3272 
z
" style="fill:#710ad1;stroke:#000000;stroke-linejoin:miter;"/>
    </g>
    <g id="text_3">
     <!-- PAP4.2 -->
     <defs>
      <path d="M 19.1875 8.296875 
L 53.609375 8.296875 
L 53.609375 0 
L 7.328125 0 
L 7.328125 8.296875 
Q 12.9375 14.109375 22.625 23.890625 
Q 32.328125 33.6875 34.8125 36.53125 
Q 39.546875 41.84375 41.421875 45.53125 
Q 43.3125 49.21875 43.3125 52.78125 
Q 43.3125 58.59375 39.234375 62.25 
Q 35.15625 65.921875 28.609375 65.921875 
Q 23.96875 65.921875 18.8125 64.3125 
Q 13.671875 62.703125 7.8125 59.421875 
L 7.8125 69.390625 
Q 13.765625 71.78125 18.9375 73 
Q 24.125 74.21875 28.421875 74.21875 
Q 39.75 74.21875 46.484375 68.546875 
Q 53.21875 62.890625 53.21875 53.421875 
Q 53.21875 48.921875 51.53125 44.890625 
Q 49.859375 40.875 45.40625 35.40625 
Q 44.1875 33.984375 37.640625 27.21875 
Q 31.109375 20.453125 19.1875 8.296875 
z
" id="DejaVuSans-50"/>
     </defs>
     <g transform="translate(399.10875 415.08765)scale(0.12 -0.12)">
      <use xlink:href="#DejaVuSans-80"/>
      <use x="60.208984" xlink:href="#DejaVuSans-65"/>
      <use x="128.617188" xlink:href="#DejaVuSans-80"/>
      <use x="188.919922" xlink:href="#DejaVuSans-52"/>
      <use x="252.542969" xlink:href="#DejaVuSans-46"/>
      <use x="284.330078" xlink:href="#DejaVuSans-50"/>
     </g>
    </g>
    <g id="patch_6">
     <path d="M 482.76 423.2256 
L 608.31 423.2256 
L 608.31 400.3272 
L 482.76 400.3272 
z
" style="fill:#d10a7b;stroke:#000000;stroke-linejoin:miter;"/>
    </g>
    <g id="text_4">
     <!-- PAP4.3 -->
     <g transform="translate(524.65875 415.08765)scale(0.12 -0.12)">
      <use xlink:href="#DejaVuSans-80"/>
      <use x="60.208984" xlink:href="#DejaVuSans-65"/>
      <use x="128.617188" xlink:href="#DejaVuSans-80"/>
      <use x="188.919922" xlink:href="#DejaVuSans-52"/>
      <use x="252.542969" xlink:href="#DejaVuSans-46"/>
      <use x="284.330078" xlink:href="#DejaVuSans-51"/>
     </g>
    </g>
    <g id="patch_7">
     <path d="M 19.88775 446.124 
L 106.11 446.124 
L 106.11 423.2256 
L 19.88775 423.2256 
z
" style="fill:#ffffff;stroke:#000000;stroke-linejoin:miter;"/>
    </g>
    <g id="text_5">
     <!-- EC50 (uM) -->
     <defs>
      <path d="M 9.8125 72.90625 
L 55.90625 72.90625 
L 55.90625 64.59375 
L 19.671875 64.59375 
L 19.671875 43.015625 
L 54.390625 43.015625 
L 54.390625 34.71875 
L 19.671875 34.71875 
L 19.671875 8.296875 
L 56.78125 8.296875 
L 56.78125 0 
L 9.8125 0 
z
" id="DejaVuSans-69"/>
      <path d="M 64.40625 67.28125 
L 64.40625 56.890625 
Q 59.421875 61.53125 53.78125 63.8125 
Q 48.140625 66.109375 41.796875 66.109375 
Q 29.296875 66.109375 22.65625 58.46875 
Q 16.015625 50.828125 16.015625 36.375 
Q 16.015625 21.96875 22.65625 14.328125 
Q 29.296875 6.6875 41.796875 6.6875 
Q 48.140625 6.6875 53.78125 8.984375 
Q 59.421875 11.28125 64.40625 15.921875 
L 64.40625 5.609375 
Q 59.234375 2.09375 53.4375 0.328125 
Q 47.65625 -1.421875 41.21875 -1.421875 
Q 24.65625 -1.421875 15.125 8.703125 
Q 5.609375 18.84375 5.609375 36.375 
Q 5.609375 53.953125 15.125 64.078125 
Q 24.65625 74.21875 41.21875 74.21875 
Q 47.75 74.21875 53.53125 72.484375 
Q 59.328125 70.75 64.40625 67.28125 
z
" id="DejaVuSans-67"/>
      <path d="M 10.796875 72.90625 
L 49.515625 72.90625 
L 49.515625 64.59375 
L 19.828125 64.59375 
L 19.828125 46.734375 
Q 21.96875 47.46875 24.109375 47.828125 
Q 26.265625 48.1875 28.421875 48.1875 
Q 40.625 48.1875 47.75 41.5 
Q 54.890625 34.8125 54.890625 23.390625 
Q 54.890625 11.625 47.5625 5.09375 
Q 40.234375 -1.421875 26.90625 -1.421875 
Q 22.3125 -1.421875 17.546875 -0.640625 
Q 12.796875 0.140625 7.71875 1.703125 
L 7.71875 11.625 
Q 12.109375 9.234375 16.796875 8.0625 
Q 21.484375 6.890625 26.703125 6.890625 
Q 35.15625 6.890625 40.078125 11.328125 
Q 45.015625 15.765625 45.015625 23.390625 
Q 45.015625 31 40.078125 35.4375 
Q 35.15625 39.890625 26.703125 39.890625 
Q 22.75 39.890625 18.8125 39.015625 
Q 14.890625 38.140625 10.796875 36.28125 
z
" id="DejaVuSans-53"/>
      <path d="M 31.78125 66.40625 
Q 24.171875 66.40625 20.328125 58.90625 
Q 16.5 51.421875 16.5 36.375 
Q 16.5 21.390625 20.328125 13.890625 
Q 24.171875 6.390625 31.78125 6.390625 
Q 39.453125 6.390625 43.28125 13.890625 
Q 47.125 21.390625 47.125 36.375 
Q 47.125 51.421875 43.28125 58.90625 
Q 39.453125 66.40625 31.78125 66.40625 
z
M 31.78125 74.21875 
Q 44.046875 74.21875 50.515625 64.515625 
Q 56.984375 54.828125 56.984375 36.375 
Q 56.984375 17.96875 50.515625 8.265625 
Q 44.046875 -1.421875 31.78125 -1.421875 
Q 19.53125 -1.421875 13.0625 8.265625 
Q 6.59375 17.96875 6.59375 36.375 
Q 6.59375 54.828125 13.0625 64.515625 
Q 19.53125 74.21875 31.78125 74.21875 
z
" id="DejaVuSans-48"/>
      <path id="DejaVuSans-32"/>
      <path d="M 31 75.875 
Q 24.46875 64.65625 21.28125 53.65625 
Q 18.109375 42.671875 18.109375 31.390625 
Q 18.109375 20.125 21.3125 9.0625 
Q 24.515625 -2 31 -13.1875 
L 23.1875 -13.1875 
Q 15.875 -1.703125 12.234375 9.375 
Q 8.59375 20.453125 8.59375 31.390625 
Q 8.59375 42.28125 12.203125 53.3125 
Q 15.828125 64.359375 23.1875 75.875 
z
" id="DejaVuSans-40"/>
      <path d="M 8.5 21.578125 
L 8.5 54.6875 
L 17.484375 54.6875 
L 17.484375 21.921875 
Q 17.484375 14.15625 20.5 10.265625 
Q 23.53125 6.390625 29.59375 6.390625 
Q 36.859375 6.390625 41.078125 11.03125 
Q 45.3125 15.671875 45.3125 23.6875 
L 45.3125 54.6875 
L 54.296875 54.6875 
L 54.296875 0 
L 45.3125 0 
L 45.3125 8.40625 
Q 42.046875 3.421875 37.71875 1 
Q 33.40625 -1.421875 27.6875 -1.421875 
Q 18.265625 -1.421875 13.375 4.4375 
Q 8.5 10.296875 8.5 21.578125 
z
M 31.109375 56 
z
" id="DejaVuSans-117"/>
      <path d="M 9.8125 72.90625 
L 24.515625 72.90625 
L 43.109375 23.296875 
L 61.8125 72.90625 
L 76.515625 72.90625 
L 76.515625 0 
L 66.890625 0 
L 66.890625 64.015625 
L 48.09375 14.015625 
L 38.1875 14.015625 
L 19.390625 64.015625 
L 19.390625 0 
L 9.8125 0 
z
" id="DejaVuSans-77"/>
      <path d="M 8.015625 75.875 
L 15.828125 75.875 
Q 23.140625 64.359375 26.78125 53.3125 
Q 30.421875 42.28125 30.421875 31.390625 
Q 30.421875 20.453125 26.78125 9.375 
Q 23.140625 -1.703125 15.828125 -13.1875 
L 8.015625 -13.1875 
Q 14.5 -2 17.703125 9.0625 
Q 20.90625 20.125 20.90625 31.390625 
Q 20.90625 42.671875 17.703125 53.65625 
Q 14.5 64.65625 8.015625 75.875 
z
" id="DejaVuSans-41"/>
     </defs>
     <g transform="translate(28.509975 437.98605)scale(0.12 -0.12)">
      <use xlink:href="#DejaVuSans-69"/>
      <use x="63.183594" xlink:href="#DejaVuSans-67"/>
      <use x="133.007812" xlink:href="#DejaVuSans-53"/>
      <use x="196.630859" xlink:href="#DejaVuSans-48"/>
      <use x="260.253906" xlink:href="#DejaVuSans-32"/>
      <use x="292.041016" xlink:href="#DejaVuSans-40"/>
      <use x="331.054688" xlink:href="#DejaVuSans-117"/>
      <use x="394.433594" xlink:href="#DejaVuSans-77"/>
      <use x="480.712891" xlink:href="#DejaVuSans-41"/>
     </g>
    </g>
    <g id="patch_8">
     <path d="M 106.11 446.124 
L 231.66 446.124 
L 231.66 423.2256 
L 106.11 423.2256 
z
" style="fill:#ffffff;stroke:#000000;stroke-linejoin:miter;"/>
    </g>
    <g id="text_6">
     <!-- 126.8 -->
     <defs>
      <path d="M 33.015625 40.375 
Q 26.375 40.375 22.484375 35.828125 
Q 18.609375 31.296875 18.609375 23.390625 
Q 18.609375 15.53125 22.484375 10.953125 
Q 26.375 6.390625 33.015625 6.390625 
Q 39.65625 6.390625 43.53125 10.953125 
Q 47.40625 15.53125 47.40625 23.390625 
Q 47.40625 31.296875 43.53125 35.828125 
Q 39.65625 40.375 33.015625 40.375 
z
M 52.59375 71.296875 
L 52.59375 62.3125 
Q 48.875 64.0625 45.09375 64.984375 
Q 41.3125 65.921875 37.59375 65.921875 
Q 27.828125 65.921875 22.671875 59.328125 
Q 17.53125 52.734375 16.796875 39.40625 
Q 19.671875 43.65625 24.015625 45.921875 
Q 28.375 48.1875 33.59375 48.1875 
Q 44.578125 48.1875 50.953125 41.515625 
Q 57.328125 34.859375 57.328125 23.390625 
Q 57.328125 12.15625 50.6875 5.359375 
Q 44.046875 -1.421875 33.015625 -1.421875 
Q 20.359375 -1.421875 13.671875 8.265625 
Q 6.984375 17.96875 6.984375 36.375 
Q 6.984375 53.65625 15.1875 63.9375 
Q 23.390625 74.21875 37.203125 74.21875 
Q 40.921875 74.21875 44.703125 73.484375 
Q 48.484375 72.75 52.59375 71.296875 
z
" id="DejaVuSans-54"/>
      <path d="M 31.78125 34.625 
Q 24.75 34.625 20.71875 30.859375 
Q 16.703125 27.09375 16.703125 20.515625 
Q 16.703125 13.921875 20.71875 10.15625 
Q 24.75 6.390625 31.78125 6.390625 
Q 38.8125 6.390625 42.859375 10.171875 
Q 46.921875 13.96875 46.921875 20.515625 
Q 46.921875 27.09375 42.890625 30.859375 
Q 38.875 34.625 31.78125 34.625 
z
M 21.921875 38.8125 
Q 15.578125 40.375 12.03125 44.71875 
Q 8.5 49.078125 8.5 55.328125 
Q 8.5 64.0625 14.71875 69.140625 
Q 20.953125 74.21875 31.78125 74.21875 
Q 42.671875 74.21875 48.875 69.140625 
Q 55.078125 64.0625 55.078125 55.328125 
Q 55.078125 49.078125 51.53125 44.71875 
Q 48 40.375 41.703125 38.8125 
Q 48.828125 37.15625 52.796875 32.3125 
Q 56.78125 27.484375 56.78125 20.515625 
Q 56.78125 9.90625 50.3125 4.234375 
Q 43.84375 -1.421875 31.78125 -1.421875 
Q 19.734375 -1.421875 13.25 4.234375 
Q 6.78125 9.90625 6.78125 20.515625 
Q 6.78125 27.484375 10.78125 32.3125 
Q 14.796875 37.15625 21.921875 38.8125 
z
M 18.3125 54.390625 
Q 18.3125 48.734375 21.84375 45.5625 
Q 25.390625 42.390625 31.78125 42.390625 
Q 38.140625 42.390625 41.71875 45.5625 
Q 45.3125 48.734375 45.3125 54.390625 
Q 45.3125 60.0625 41.71875 63.234375 
Q 38.140625 66.40625 31.78125 66.40625 
Q 25.390625 66.40625 21.84375 63.234375 
Q 18.3125 60.0625 18.3125 54.390625 
z
" id="DejaVuSans-56"/>
     </defs>
     <g transform="translate(184.75125 437.98605)scale(0.12 -0.12)">
      <use xlink:href="#DejaVuSans-49"/>
      <use x="63.623047" xlink:href="#DejaVuSans-50"/>
      <use x="127.246094" xlink:href="#DejaVuSans-54"/>
      <use x="190.869141" xlink:href="#DejaVuSans-46"/>
      <use x="222.65625" xlink:href="#DejaVuSans-56"/>
     </g>
    </g>
    <g id="patch_9">
     <path d="M 231.66 446.124 
L 357.21 446.124 
L 357.21 423.2256 
L 231.66 423.2256 
z
" style="fill:#ffffff;stroke:#000000;stroke-linejoin:miter;"/>
    </g>
    <g id="text_7">
     <!-- 9.5 -->
     <defs>
      <path d="M 10.984375 1.515625 
L 10.984375 10.5 
Q 14.703125 8.734375 18.5 7.8125 
Q 22.3125 6.890625 25.984375 6.890625 
Q 35.75 6.890625 40.890625 13.453125 
Q 46.046875 20.015625 46.78125 33.40625 
Q 43.953125 29.203125 39.59375 26.953125 
Q 35.25 24.703125 29.984375 24.703125 
Q 19.046875 24.703125 12.671875 31.3125 
Q 6.296875 37.9375 6.296875 49.421875 
Q 6.296875 60.640625 12.9375 67.421875 
Q 19.578125 74.21875 30.609375 74.21875 
Q 43.265625 74.21875 49.921875 64.515625 
Q 56.59375 54.828125 56.59375 36.375 
Q 56.59375 19.140625 48.40625 8.859375 
Q 40.234375 -1.421875 26.421875 -1.421875 
Q 22.703125 -1.421875 18.890625 -0.6875 
Q 15.09375 0.046875 10.984375 1.515625 
z
M 30.609375 32.421875 
Q 37.25 32.421875 41.125 36.953125 
Q 45.015625 41.5 45.015625 49.421875 
Q 45.015625 57.28125 41.125 61.84375 
Q 37.25 66.40625 30.609375 66.40625 
Q 23.96875 66.40625 20.09375 61.84375 
Q 16.21875 57.28125 16.21875 49.421875 
Q 16.21875 41.5 20.09375 36.953125 
Q 23.96875 32.421875 30.609375 32.421875 
z
" id="DejaVuSans-57"/>
     </defs>
     <g transform="translate(325.57125 437.98605)scale(0.12 -0.12)">
      <use xlink:href="#DejaVuSans-57"/>
      <use x="63.623047" xlink:href="#DejaVuSans-46"/>
      <use x="95.410156" xlink:href="#DejaVuSans-53"/>
     </g>
    </g>
    <g id="patch_10">
     <path d="M 357.21 446.124 
L 482.76 446.124 
L 482.76 423.2256 
L 357.21 423.2256 
z
" style="fill:#ffffff;stroke:#000000;stroke-linejoin:miter;"/>
    </g>
    <g id="text_8">
     <!-- 61.1 -->
     <g transform="translate(443.48625 437.98605)scale(0.12 -0.12)">
      <use xlink:href="#DejaVuSans-54"/>
      <use x="63.623047" xlink:href="#DejaVuSans-49"/>
      <use x="127.246094" xlink:href="#DejaVuSans-46"/>
      <use x="159.033203" xlink:href="#DejaVuSans-49"/>
     </g>
    </g>
    <g id="patch_11">
     <path d="M 482.76 446.124 
L 608.31 446.124 
L 608.31 423.2256 
L 482.76 423.2256 
z
" style="fill:#ffffff;stroke:#000000;stroke-linejoin:miter;"/>
    </g>
    <g id="text_9">
     <!-- 15.9 -->
     <g transform="translate(569.03625 437.98605)scale(0.12 -0.12)">
      <use xlink:href="#DejaVuSans-49"/>
      <use x="63.623047" xlink:href="#DejaVuSans-53"/>
      <use x="127.246094" xlink:href="#DejaVuSans-46"/>
      <use x="159.033203" xlink:href="#DejaVuSans-57"/>
     </g>
    </g>
    <g id="patch_12">
     <path d="M 19.88775 469.0224 
L 106.11 469.0224 
L 106.11 446.124 
L 19.88775 446.124 
z
" style="fill:#ffffff;stroke:#000000;stroke-linejoin:miter;"/>
    </g>
    <g id="text_10">
     <!-- Background -->
     <defs>
      <path d="M 19.671875 34.8125 
L 19.671875 8.109375 
L 35.5 8.109375 
Q 43.453125 8.109375 47.28125 11.40625 
Q 51.125 14.703125 51.125 21.484375 
Q 51.125 28.328125 47.28125 31.5625 
Q 43.453125 34.8125 35.5 34.8125 
z
M 19.671875 64.796875 
L 19.671875 42.828125 
L 34.28125 42.828125 
Q 41.5 42.828125 45.03125 45.53125 
Q 48.578125 48.25 48.578125 53.8125 
Q 48.578125 59.328125 45.03125 62.0625 
Q 41.5 64.796875 34.28125 64.796875 
z
M 9.8125 72.90625 
L 35.015625 72.90625 
Q 46.296875 72.90625 52.390625 68.21875 
Q 58.5 63.53125 58.5 54.890625 
Q 58.5 48.1875 55.375 44.234375 
Q 52.25 40.28125 46.1875 39.3125 
Q 53.46875 37.75 57.5 32.78125 
Q 61.53125 27.828125 61.53125 20.40625 
Q 61.53125 10.640625 54.890625 5.3125 
Q 48.25 0 35.984375 0 
L 9.8125 0 
z
" id="DejaVuSans-66"/>
      <path d="M 34.28125 27.484375 
Q 23.390625 27.484375 19.1875 25 
Q 14.984375 22.515625 14.984375 16.5 
Q 14.984375 11.71875 18.140625 8.90625 
Q 21.296875 6.109375 26.703125 6.109375 
Q 34.1875 6.109375 38.703125 11.40625 
Q 43.21875 16.703125 43.21875 25.484375 
L 43.21875 27.484375 
z
M 52.203125 31.203125 
L 52.203125 0 
L 43.21875 0 
L 43.21875 8.296875 
Q 40.140625 3.328125 35.546875 0.953125 
Q 30.953125 -1.421875 24.3125 -1.421875 
Q 15.921875 -1.421875 10.953125 3.296875 
Q 6 8.015625 6 15.921875 
Q 6 25.140625 12.171875 29.828125 
Q 18.359375 34.515625 30.609375 34.515625 
L 43.21875 34.515625 
L 43.21875 35.40625 
Q 43.21875 41.609375 39.140625 45 
Q 35.0625 48.390625 27.6875 48.390625 
Q 23 48.390625 18.546875 47.265625 
Q 14.109375 46.140625 10.015625 43.890625 
L 10.015625 52.203125 
Q 14.9375 54.109375 19.578125 55.046875 
Q 24.21875 56 28.609375 56 
Q 40.484375 56 46.34375 49.84375 
Q 52.203125 43.703125 52.203125 31.203125 
z
" id="DejaVuSans-97"/>
      <path d="M 48.78125 52.59375 
L 48.78125 44.1875 
Q 44.96875 46.296875 41.140625 47.34375 
Q 37.3125 48.390625 33.40625 48.390625 
Q 24.65625 48.390625 19.8125 42.84375 
Q 14.984375 37.3125 14.984375 27.296875 
Q 14.984375 17.28125 19.8125 11.734375 
Q 24.65625 6.203125 33.40625 6.203125 
Q 37.3125 6.203125 41.140625 7.25 
Q 44.96875 8.296875 48.78125 10.40625 
L 48.78125 2.09375 
Q 45.015625 0.34375 40.984375 -0.53125 
Q 36.96875 -1.421875 32.421875 -1.421875 
Q 20.0625 -1.421875 12.78125 6.34375 
Q 5.515625 14.109375 5.515625 27.296875 
Q 5.515625 40.671875 12.859375 48.328125 
Q 20.21875 56 33.015625 56 
Q 37.15625 56 41.109375 55.140625 
Q 45.0625 54.296875 48.78125 52.59375 
z
" id="DejaVuSans-99"/>
      <path d="M 9.078125 75.984375 
L 18.109375 75.984375 
L 18.109375 31.109375 
L 44.921875 54.6875 
L 56.390625 54.6875 
L 27.390625 29.109375 
L 57.625 0 
L 45.90625 0 
L 18.109375 26.703125 
L 18.109375 0 
L 9.078125 0 
z
" id="DejaVuSans-107"/>
      <path d="M 45.40625 27.984375 
Q 45.40625 37.75 41.375 43.109375 
Q 37.359375 48.484375 30.078125 48.484375 
Q 22.859375 48.484375 18.828125 43.109375 
Q 14.796875 37.75 14.796875 27.984375 
Q 14.796875 18.265625 18.828125 12.890625 
Q 22.859375 7.515625 30.078125 7.515625 
Q 37.359375 7.515625 41.375 12.890625 
Q 45.40625 18.265625 45.40625 27.984375 
z
M 54.390625 6.78125 
Q 54.390625 -7.171875 48.1875 -13.984375 
Q 42 -20.796875 29.203125 -20.796875 
Q 24.46875 -20.796875 20.265625 -20.09375 
Q 16.0625 -19.390625 12.109375 -17.921875 
L 12.109375 -9.1875 
Q 16.0625 -11.328125 19.921875 -12.34375 
Q 23.78125 -13.375 27.78125 -13.375 
Q 36.625 -13.375 41.015625 -8.765625 
Q 45.40625 -4.15625 45.40625 5.171875 
L 45.40625 9.625 
Q 42.625 4.78125 38.28125 2.390625 
Q 33.9375 0 27.875 0 
Q 17.828125 0 11.671875 7.65625 
Q 5.515625 15.328125 5.515625 27.984375 
Q 5.515625 40.671875 11.671875 48.328125 
Q 17.828125 56 27.875 56 
Q 33.9375 56 38.28125 53.609375 
Q 42.625 51.21875 45.40625 46.390625 
L 45.40625 54.6875 
L 54.390625 54.6875 
z
" id="DejaVuSans-103"/>
      <path d="M 41.109375 46.296875 
Q 39.59375 47.171875 37.8125 47.578125 
Q 36.03125 48 33.890625 48 
Q 26.265625 48 22.1875 43.046875 
Q 18.109375 38.09375 18.109375 28.8125 
L 18.109375 0 
L 9.078125 0 
L 9.078125 54.6875 
L 18.109375 54.6875 
L 18.109375 46.1875 
Q 20.953125 51.171875 25.484375 53.578125 
Q 30.03125 56 36.53125 56 
Q 37.453125 56 38.578125 55.875 
Q 39.703125 55.765625 41.0625 55.515625 
z
" id="DejaVuSans-114"/>
      <path d="M 30.609375 48.390625 
Q 23.390625 48.390625 19.1875 42.75 
Q 14.984375 37.109375 14.984375 27.296875 
Q 14.984375 17.484375 19.15625 11.84375 
Q 23.34375 6.203125 30.609375 6.203125 
Q 37.796875 6.203125 41.984375 11.859375 
Q 46.1875 17.53125 46.1875 27.296875 
Q 46.1875 37.015625 41.984375 42.703125 
Q 37.796875 48.390625 30.609375 48.390625 
z
M 30.609375 56 
Q 42.328125 56 49.015625 48.375 
Q 55.71875 40.765625 55.71875 27.296875 
Q 55.71875 13.875 49.015625 6.21875 
Q 42.328125 -1.421875 30.609375 -1.421875 
Q 18.84375 -1.421875 12.171875 6.21875 
Q 5.515625 13.875 5.515625 27.296875 
Q 5.515625 40.765625 12.171875 48.375 
Q 18.84375 56 30.609375 56 
z
" id="DejaVuSans-111"/>
      <path d="M 54.890625 33.015625 
L 54.890625 0 
L 45.90625 0 
L 45.90625 32.71875 
Q 45.90625 40.484375 42.875 44.328125 
Q 39.84375 48.1875 33.796875 48.1875 
Q 26.515625 48.1875 22.3125 43.546875 
Q 18.109375 38.921875 18.109375 30.90625 
L 18.109375 0 
L 9.078125 0 
L 9.078125 54.6875 
L 18.109375 54.6875 
L 18.109375 46.1875 
Q 21.34375 51.125 25.703125 53.5625 
Q 30.078125 56 35.796875 56 
Q 45.21875 56 50.046875 50.171875 
Q 54.890625 44.34375 54.890625 33.015625 
z
" id="DejaVuSans-110"/>
      <path d="M 45.40625 46.390625 
L 45.40625 75.984375 
L 54.390625 75.984375 
L 54.390625 0 
L 45.40625 0 
L 45.40625 8.203125 
Q 42.578125 3.328125 38.25 0.953125 
Q 33.9375 -1.421875 27.875 -1.421875 
Q 17.96875 -1.421875 11.734375 6.484375 
Q 5.515625 14.40625 5.515625 27.296875 
Q 5.515625 40.1875 11.734375 48.09375 
Q 17.96875 56 27.875 56 
Q 33.9375 56 38.25 53.625 
Q 42.578125 51.265625 45.40625 46.390625 
z
M 14.796875 27.296875 
Q 14.796875 17.390625 18.875 11.75 
Q 22.953125 6.109375 30.078125 6.109375 
Q 37.203125 6.109375 41.296875 11.75 
Q 45.40625 17.390625 45.40625 27.296875 
Q 45.40625 37.203125 41.296875 42.84375 
Q 37.203125 48.484375 30.078125 48.484375 
Q 22.953125 48.484375 18.875 42.84375 
Q 14.796875 37.203125 14.796875 27.296875 
z
" id="DejaVuSans-100"/>
     </defs>
     <g transform="translate(28.509975 460.88445)scale(0.12 -0.12)">
      <use xlink:href="#DejaVuSans-66"/>
      <use x="68.603516" xlink:href="#DejaVuSans-97"/>
      <use x="129.882812" xlink:href="#DejaVuSans-99"/>
      <use x="184.863281" xlink:href="#DejaVuSans-107"/>
      <use x="242.773438" xlink:href="#DejaVuSans-103"/>
      <use x="306.25" xlink:href="#DejaVuSans-114"/>
      <use x="347.332031" xlink:href="#DejaVuSans-111"/>
      <use x="408.513672" xlink:href="#DejaVuSans-117"/>
      <use x="471.892578" xlink:href="#DejaVuSans-110"/>
      <use x="535.271484" xlink:href="#DejaVuSans-100"/>
     </g>
    </g>
    <g id="patch_13">
     <path d="M 106.11 469.0224 
L 231.66 469.0224 
L 231.66 446.124 
L 106.11 446.124 
z
" style="fill:#ffffff;stroke:#000000;stroke-linejoin:miter;"/>
    </g>
    <g id="text_11">
     <!-- 417.1 +/- 19.6 -->
     <defs>
      <path d="M 8.203125 72.90625 
L 55.078125 72.90625 
L 55.078125 68.703125 
L 28.609375 0 
L 18.3125 0 
L 43.21875 64.59375 
L 8.203125 64.59375 
z
" id="DejaVuSans-55"/>
      <path d="M 46 62.703125 
L 46 35.5 
L 73.1875 35.5 
L 73.1875 27.203125 
L 46 27.203125 
L 46 0 
L 37.796875 0 
L 37.796875 27.203125 
L 10.59375 27.203125 
L 10.59375 35.5 
L 37.796875 35.5 
L 37.796875 62.703125 
z
" id="DejaVuSans-43"/>
      <path d="M 25.390625 72.90625 
L 33.6875 72.90625 
L 8.296875 -9.28125 
L 0 -9.28125 
z
" id="DejaVuSans-47"/>
      <path d="M 4.890625 31.390625 
L 31.203125 31.390625 
L 31.203125 23.390625 
L 4.890625 23.390625 
z
" id="DejaVuSans-45"/>
     </defs>
     <g transform="translate(131.9775 460.88445)scale(0.12 -0.12)">
      <use xlink:href="#DejaVuSans-52"/>
      <use x="63.623047" xlink:href="#DejaVuSans-49"/>
      <use x="127.246094" xlink:href="#DejaVuSans-55"/>
      <use x="190.869141" xlink:href="#DejaVuSans-46"/>
      <use x="222.65625" xlink:href="#DejaVuSans-49"/>
      <use x="286.279297" xlink:href="#DejaVuSans-32"/>
      <use x="318.066406" xlink:href="#DejaVuSans-43"/>
      <use x="401.855469" xlink:href="#DejaVuSans-47"/>
      <use x="435.546875" xlink:href="#DejaVuSans-45"/>
      <use x="471.630859" xlink:href="#DejaVuSans-32"/>
      <use x="503.417969" xlink:href="#DejaVuSans-49"/>
      <use x="567.041016" xlink:href="#DejaVuSans-57"/>
      <use x="630.664062" xlink:href="#DejaVuSans-46"/>
      <use x="662.451172" xlink:href="#DejaVuSans-54"/>
     </g>
    </g>
    <g id="patch_14">
     <path d="M 231.66 469.0224 
L 357.21 469.0224 
L 357.21 446.124 
L 231.66 446.124 
z
" style="fill:#ffffff;stroke:#000000;stroke-linejoin:miter;"/>
    </g>
    <g id="text_12">
     <!-- 1266.0 +/- 49.4 -->
     <g transform="translate(249.8925 460.88445)scale(0.12 -0.12)">
      <use xlink:href="#DejaVuSans-49"/>
      <use x="63.623047" xlink:href="#DejaVuSans-50"/>
      <use x="127.246094" xlink:href="#DejaVuSans-54"/>
      <use x="190.869141" xlink:href="#DejaVuSans-54"/>
      <use x="254.492188" xlink:href="#DejaVuSans-46"/>
      <use x="286.279297" xlink:href="#DejaVuSans-48"/>
      <use x="349.902344" xlink:href="#DejaVuSans-32"/>
      <use x="381.689453" xlink:href="#DejaVuSans-43"/>
      <use x="465.478516" xlink:href="#DejaVuSans-47"/>
      <use x="499.169922" xlink:href="#DejaVuSans-45"/>
      <use x="535.253906" xlink:href="#DejaVuSans-32"/>
      <use x="567.041016" xlink:href="#DejaVuSans-52"/>
      <use x="630.664062" xlink:href="#DejaVuSans-57"/>
      <use x="694.287109" xlink:href="#DejaVuSans-46"/>
      <use x="726.074219" xlink:href="#DejaVuSans-52"/>
     </g>
    </g>
    <g id="patch_15">
     <path d="M 357.21 469.0224 
L 482.76 469.0224 
L 482.76 446.124 
L 357.21 446.124 
z
" style="fill:#ffffff;stroke:#000000;stroke-linejoin:miter;"/>
    </g>
    <g id="text_13">
     <!-- 508.2 +/- 4.5 -->
     <g transform="translate(390.7125 460.88445)scale(0.12 -0.12)">
      <use xlink:href="#DejaVuSans-53"/>
      <use x="63.623047" xlink:href="#DejaVuSans-48"/>
      <use x="127.246094" xlink:href="#DejaVuSans-56"/>
      <use x="190.869141" xlink:href="#DejaVuSans-46"/>
      <use x="222.65625" xlink:href="#DejaVuSans-50"/>
      <use x="286.279297" xlink:href="#DejaVuSans-32"/>
      <use x="318.066406" xlink:href="#DejaVuSans-43"/>
      <use x="401.855469" xlink:href="#DejaVuSans-47"/>
      <use x="435.546875" xlink:href="#DejaVuSans-45"/>
      <use x="471.630859" xlink:href="#DejaVuSans-32"/>
      <use x="503.417969" xlink:href="#DejaVuSans-52"/>
      <use x="567.041016" xlink:href="#DejaVuSans-46"/>
      <use x="598.828125" xlink:href="#DejaVuSans-53"/>
     </g>
    </g>
    <g id="patch_16">
     <path d="M 482.76 469.0224 
L 608.31 469.0224 
L 608.31 446.124 
L 482.76 446.124 
z
" style="fill:#ffffff;stroke:#000000;stroke-linejoin:miter;"/>
    </g>
    <g id="text_14">
     <!-- 980.4 +/- 6.5 -->
     <g transform="translate(516.2625 460.88445)scale(0.12 -0.12)">
      <use xlink:href="#DejaVuSans-57"/>
      <use x="63.623047" xlink:href="#DejaVuSans-56"/>
      <use x="127.246094" xlink:href="#DejaVuSans-48"/>
      <use x="190.869141" xlink:href="#DejaVuSans-46"/>
      <use x="222.65625" xlink:href="#DejaVuSans-52"/>
      <use x="286.279297" xlink:href="#DejaVuSans-32"/>
      <use x="318.066406" xlink:href="#DejaVuSans-43"/>
      <use x="401.855469" xlink:href="#DejaVuSans-47"/>
      <use x="435.546875" xlink:href="#DejaVuSans-45"/>
      <use x="471.630859" xlink:href="#DejaVuSans-32"/>
      <use x="503.417969" xlink:href="#DejaVuSans-54"/>
      <use x="567.041016" xlink:href="#DejaVuSans-46"/>
      <use x="598.828125" xlink:href="#DejaVuSans-53"/>
     </g>
    </g>
   </g>
   <g id="matplotlib.axis_1">
    <g id="xtick_1">
     <g id="line2d_1">
      <defs>
       <path d="M 0 0 
L 0 2 
" id="m35779becdc" style="stroke:#000000;"/>
      </defs>
      <g>
       <use style="stroke:#000000;" x="160.175037" xlink:href="#m35779becdc" y="331.632"/>
      </g>
     </g>
     <g id="text_15">
      <!-- 1 -->
      <g transform="translate(154.448787 350.809188)scale(0.18 -0.18)">
       <use xlink:href="#DejaVuSans-49"/>
      </g>
     </g>
    </g>
    <g id="xtick_2">
     <g id="line2d_2">
      <g>
       <use style="stroke:#000000;" x="316.910741" xlink:href="#m35779becdc" y="331.632"/>
      </g>
     </g>
     <g id="text_16">
      <!-- 10 -->
      <g transform="translate(305.458241 350.809188)scale(0.18 -0.18)">
       <use xlink:href="#DejaVuSans-49"/>
       <use x="63.623047" xlink:href="#DejaVuSans-48"/>
      </g>
     </g>
    </g>
    <g id="xtick_3">
     <g id="line2d_3">
      <g>
       <use style="stroke:#000000;" x="473.646445" xlink:href="#m35779becdc" y="331.632"/>
      </g>
     </g>
     <g id="text_17">
      <!-- 100 -->
      <g transform="translate(456.467695 350.809188)scale(0.18 -0.18)">
       <use xlink:href="#DejaVuSans-49"/>
       <use x="63.623047" xlink:href="#DejaVuSans-48"/>
       <use x="127.246094" xlink:href="#DejaVuSans-48"/>
      </g>
     </g>
    </g>
    <g id="xtick_4">
     <g id="line2d_4">
      <defs>
       <path d="M 0 0 
L 0 2 
" id="m20bf09fa02" style="stroke:#000000;stroke-width:0.6;"/>
      </defs>
      <g>
       <use style="stroke:#000000;stroke-width:0.6;" x="97.80363" xlink:href="#m20bf09fa02" y="331.632"/>
      </g>
     </g>
    </g>
    <g id="xtick_5">
     <g id="line2d_5">
      <g>
       <use style="stroke:#000000;stroke-width:0.6;" x="112.992889" xlink:href="#m20bf09fa02" y="331.632"/>
      </g>
     </g>
    </g>
    <g id="xtick_6">
     <g id="line2d_6">
      <g>
       <use style="stroke:#000000;stroke-width:0.6;" x="125.403417" xlink:href="#m20bf09fa02" y="331.632"/>
      </g>
     </g>
    </g>
    <g id="xtick_7">
     <g id="line2d_7">
      <g>
       <use style="stroke:#000000;stroke-width:0.6;" x="135.89637" xlink:href="#m20bf09fa02" y="331.632"/>
      </g>
     </g>
    </g>
    <g id="xtick_8">
     <g id="line2d_8">
      <g>
       <use style="stroke:#000000;stroke-width:0.6;" x="144.985778" xlink:href="#m20bf09fa02" y="331.632"/>
      </g>
     </g>
    </g>
    <g id="xtick_9">
     <g id="line2d_9">
      <g>
       <use style="stroke:#000000;stroke-width:0.6;" x="153.003205" xlink:href="#m20bf09fa02" y="331.632"/>
      </g>
     </g>
    </g>
    <g id="xtick_10">
     <g id="line2d_10">
      <g>
       <use style="stroke:#000000;stroke-width:0.6;" x="207.357185" xlink:href="#m20bf09fa02" y="331.632"/>
      </g>
     </g>
    </g>
    <g id="xtick_11">
     <g id="line2d_11">
      <g>
       <use style="stroke:#000000;stroke-width:0.6;" x="234.956973" xlink:href="#m20bf09fa02" y="331.632"/>
      </g>
     </g>
    </g>
    <g id="xtick_12">
     <g id="line2d_12">
      <g>
       <use style="stroke:#000000;stroke-width:0.6;" x="254.539334" xlink:href="#m20bf09fa02" y="331.632"/>
      </g>
     </g>
    </g>
    <g id="xtick_13">
     <g id="line2d_13">
      <g>
       <use style="stroke:#000000;stroke-width:0.6;" x="269.728593" xlink:href="#m20bf09fa02" y="331.632"/>
      </g>
     </g>
    </g>
    <g id="xtick_14">
     <g id="line2d_14">
      <g>
       <use style="stroke:#000000;stroke-width:0.6;" x="282.139121" xlink:href="#m20bf09fa02" y="331.632"/>
      </g>
     </g>
    </g>
    <g id="xtick_15">
     <g id="line2d_15">
      <g>
       <use style="stroke:#000000;stroke-width:0.6;" x="292.632073" xlink:href="#m20bf09fa02" y="331.632"/>
      </g>
     </g>
    </g>
    <g id="xtick_16">
     <g id="line2d_16">
      <g>
       <use style="stroke:#000000;stroke-width:0.6;" x="301.721482" xlink:href="#m20bf09fa02" y="331.632"/>
      </g>
     </g>
    </g>
    <g id="xtick_17">
     <g id="line2d_17">
      <g>
       <use style="stroke:#000000;stroke-width:0.6;" x="309.738908" xlink:href="#m20bf09fa02" y="331.632"/>
      </g>
     </g>
    </g>
    <g id="xtick_18">
     <g id="line2d_18">
      <g>
       <use style="stroke:#000000;stroke-width:0.6;" x="364.092889" xlink:href="#m20bf09fa02" y="331.632"/>
      </g>
     </g>
    </g>
    <g id="xtick_19">
     <g id="line2d_19">
      <g>
       <use style="stroke:#000000;stroke-width:0.6;" x="391.692676" xlink:href="#m20bf09fa02" y="331.632"/>
      </g>
     </g>
    </g>
    <g id="xtick_20">
     <g id="line2d_20">
      <g>
       <use style="stroke:#000000;stroke-width:0.6;" x="411.275037" xlink:href="#m20bf09fa02" y="331.632"/>
      </g>
     </g>
    </g>
    <g id="xtick_21">
     <g id="line2d_21">
      <g>
       <use style="stroke:#000000;stroke-width:0.6;" x="426.464296" xlink:href="#m20bf09fa02" y="331.632"/>
      </g>
     </g>
    </g>
    <g id="xtick_22">
     <g id="line2d_22">
      <g>
       <use style="stroke:#000000;stroke-width:0.6;" x="438.874825" xlink:href="#m20bf09fa02" y="331.632"/>
      </g>
     </g>
    </g>
    <g id="xtick_23">
     <g id="line2d_23">
      <g>
       <use style="stroke:#000000;stroke-width:0.6;" x="449.367777" xlink:href="#m20bf09fa02" y="331.632"/>
      </g>
     </g>
    </g>
    <g id="xtick_24">
     <g id="line2d_24">
      <g>
       <use style="stroke:#000000;stroke-width:0.6;" x="458.457185" xlink:href="#m20bf09fa02" y="331.632"/>
      </g>
     </g>
    </g>
    <g id="xtick_25">
     <g id="line2d_25">
      <g>
       <use style="stroke:#000000;stroke-width:0.6;" x="466.474612" xlink:href="#m20bf09fa02" y="331.632"/>
      </g>
     </g>
    </g>
    <g id="xtick_26">
     <g id="line2d_26">
      <g>
       <use style="stroke:#000000;stroke-width:0.6;" x="520.828593" xlink:href="#m20bf09fa02" y="331.632"/>
      </g>
     </g>
    </g>
    <g id="xtick_27">
     <g id="line2d_27">
      <g>
       <use style="stroke:#000000;stroke-width:0.6;" x="548.42838" xlink:href="#m20bf09fa02" y="331.632"/>
      </g>
     </g>
    </g>
    <g id="xtick_28">
     <g id="line2d_28">
      <g>
       <use style="stroke:#000000;stroke-width:0.6;" x="568.010741" xlink:href="#m20bf09fa02" y="331.632"/>
      </g>
     </g>
    </g>
    <g id="xtick_29">
     <g id="line2d_29">
      <g>
       <use style="stroke:#000000;stroke-width:0.6;" x="583.2" xlink:href="#m20bf09fa02" y="331.632"/>
      </g>
     </g>
    </g>
    <g id="text_18">
     <!-- Papaverine (uM) -->
     <defs>
      <path d="M 18.109375 8.203125 
L 18.109375 -20.796875 
L 9.078125 -20.796875 
L 9.078125 54.6875 
L 18.109375 54.6875 
L 18.109375 46.390625 
Q 20.953125 51.265625 25.265625 53.625 
Q 29.59375 56 35.59375 56 
Q 45.5625 56 51.78125 48.09375 
Q 58.015625 40.1875 58.015625 27.296875 
Q 58.015625 14.40625 51.78125 6.484375 
Q 45.5625 -1.421875 35.59375 -1.421875 
Q 29.59375 -1.421875 25.265625 0.953125 
Q 20.953125 3.328125 18.109375 8.203125 
z
M 48.6875 27.296875 
Q 48.6875 37.203125 44.609375 42.84375 
Q 40.53125 48.484375 33.40625 48.484375 
Q 26.265625 48.484375 22.1875 42.84375 
Q 18.109375 37.203125 18.109375 27.296875 
Q 18.109375 17.390625 22.1875 11.75 
Q 26.265625 6.109375 33.40625 6.109375 
Q 40.53125 6.109375 44.609375 11.75 
Q 48.6875 17.390625 48.6875 27.296875 
z
" id="DejaVuSans-112"/>
      <path d="M 2.984375 54.6875 
L 12.5 54.6875 
L 29.59375 8.796875 
L 46.6875 54.6875 
L 56.203125 54.6875 
L 35.6875 0 
L 23.484375 0 
z
" id="DejaVuSans-118"/>
      <path d="M 56.203125 29.59375 
L 56.203125 25.203125 
L 14.890625 25.203125 
Q 15.484375 15.921875 20.484375 11.0625 
Q 25.484375 6.203125 34.421875 6.203125 
Q 39.59375 6.203125 44.453125 7.46875 
Q 49.3125 8.734375 54.109375 11.28125 
L 54.109375 2.78125 
Q 49.265625 0.734375 44.1875 -0.34375 
Q 39.109375 -1.421875 33.890625 -1.421875 
Q 20.796875 -1.421875 13.15625 6.1875 
Q 5.515625 13.8125 5.515625 26.8125 
Q 5.515625 40.234375 12.765625 48.109375 
Q 20.015625 56 32.328125 56 
Q 43.359375 56 49.78125 48.890625 
Q 56.203125 41.796875 56.203125 29.59375 
z
M 47.21875 32.234375 
Q 47.125 39.59375 43.09375 43.984375 
Q 39.0625 48.390625 32.421875 48.390625 
Q 24.90625 48.390625 20.390625 44.140625 
Q 15.875 39.890625 15.1875 32.171875 
z
" id="DejaVuSans-101"/>
      <path d="M 9.421875 54.6875 
L 18.40625 54.6875 
L 18.40625 0 
L 9.421875 0 
z
M 9.421875 75.984375 
L 18.40625 75.984375 
L 18.40625 64.59375 
L 9.421875 64.59375 
z
" id="DejaVuSans-105"/>
     </defs>
     <g transform="translate(250.073438 373.7495)scale(0.2 -0.2)">
      <use xlink:href="#DejaVuSans-80"/>
      <use x="60.240234" xlink:href="#DejaVuSans-97"/>
      <use x="121.519531" xlink:href="#DejaVuSans-112"/>
      <use x="184.996094" xlink:href="#DejaVuSans-97"/>
      <use x="246.275391" xlink:href="#DejaVuSans-118"/>
      <use x="305.455078" xlink:href="#DejaVuSans-101"/>
      <use x="366.978516" xlink:href="#DejaVuSans-114"/>
      <use x="408.091797" xlink:href="#DejaVuSans-105"/>
      <use x="435.875" xlink:href="#DejaVuSans-110"/>
      <use x="499.253906" xlink:href="#DejaVuSans-101"/>
      <use x="560.777344" xlink:href="#DejaVuSans-32"/>
      <use x="592.564453" xlink:href="#DejaVuSans-40"/>
      <use x="631.578125" xlink:href="#DejaVuSans-117"/>
      <use x="694.957031" xlink:href="#DejaVuSans-77"/>
      <use x="781.236328" xlink:href="#DejaVuSans-41"/>
     </g>
    </g>
   </g>
   <g id="matplotlib.axis_2">
    <g id="ytick_1">
     <g id="line2d_30">
      <defs>
       <path d="M 0 0 
L -2 0 
" id="m50814ca331" style="stroke:#000000;"/>
      </defs>
      <g>
       <use style="stroke:#000000;" x="81" xlink:href="#m50814ca331" y="319.141964"/>
      </g>
     </g>
     <g id="text_19">
      <!-- 0 -->
      <g transform="translate(64.0475 325.980557)scale(0.18 -0.18)">
       <use xlink:href="#DejaVuSans-48"/>
      </g>
     </g>
    </g>
    <g id="ytick_2">
     <g id="line2d_31">
      <g>
       <use style="stroke:#000000;" x="81" xlink:href="#m50814ca331" y="266.73745"/>
      </g>
     </g>
     <g id="text_20">
      <!-- 1 -->
      <g transform="translate(64.0475 273.576044)scale(0.18 -0.18)">
       <use xlink:href="#DejaVuSans-49"/>
      </g>
     </g>
    </g>
    <g id="ytick_3">
     <g id="line2d_32">
      <g>
       <use style="stroke:#000000;" x="81" xlink:href="#m50814ca331" y="214.332937"/>
      </g>
     </g>
     <g id="text_21">
      <!-- 2 -->
      <g transform="translate(64.0475 221.17153)scale(0.18 -0.18)">
       <use xlink:href="#DejaVuSans-50"/>
      </g>
     </g>
    </g>
    <g id="ytick_4">
     <g id="line2d_33">
      <g>
       <use style="stroke:#000000;" x="81" xlink:href="#m50814ca331" y="161.928423"/>
      </g>
     </g>
     <g id="text_22">
      <!-- 3 -->
      <g transform="translate(64.0475 168.767017)scale(0.18 -0.18)">
       <use xlink:href="#DejaVuSans-51"/>
      </g>
     </g>
    </g>
    <g id="ytick_5">
     <g id="line2d_34">
      <g>
       <use style="stroke:#000000;" x="81" xlink:href="#m50814ca331" y="109.523909"/>
      </g>
     </g>
     <g id="text_23">
      <!-- 4 -->
      <g transform="translate(64.0475 116.362503)scale(0.18 -0.18)">
       <use xlink:href="#DejaVuSans-52"/>
      </g>
     </g>
    </g>
    <g id="ytick_6">
     <g id="line2d_35">
      <g>
       <use style="stroke:#000000;" x="81" xlink:href="#m50814ca331" y="57.119396"/>
      </g>
     </g>
     <g id="text_24">
      <!-- 5 -->
      <g transform="translate(64.0475 63.95799)scale(0.18 -0.18)">
       <use xlink:href="#DejaVuSans-53"/>
      </g>
     </g>
    </g>
    <g id="text_25">
     <!-- $(RFU/OD) \times 10^4$ -->
     <defs>
      <path d="M 25.203125 64.796875 
L 20.21875 38.921875 
L 32.90625 38.921875 
Q 40.375 38.921875 44.984375 43.046875 
Q 49.609375 47.171875 49.609375 53.8125 
Q 49.609375 59.125 46.5 61.953125 
Q 43.40625 64.796875 37.59375 64.796875 
z
M 43.3125 35.015625 
Q 46.4375 34.28125 48.515625 31.390625 
Q 50.59375 28.515625 53.328125 19.921875 
L 59.515625 0 
L 49.125 0 
L 43.40625 18.703125 
Q 41.21875 25.921875 38.328125 28.359375 
Q 35.453125 30.8125 29.5 30.8125 
L 18.609375 30.8125 
L 12.59375 0 
L 2.6875 0 
L 16.890625 72.90625 
L 39.109375 72.90625 
Q 49.21875 72.90625 54.609375 68.328125 
Q 60.015625 63.765625 60.015625 55.171875 
Q 60.015625 47.5625 55.421875 41.984375 
Q 50.828125 36.421875 43.3125 35.015625 
z
" id="DejaVuSans-Oblique-82"/>
      <path d="M 16.890625 72.90625 
L 58.6875 72.90625 
L 57.078125 64.59375 
L 25.09375 64.59375 
L 20.90625 43.109375 
L 49.8125 43.109375 
L 48.1875 34.8125 
L 19.28125 34.8125 
L 12.5 0 
L 2.6875 0 
z
" id="DejaVuSans-Oblique-70"/>
      <path d="M 15.484375 72.90625 
L 25.390625 72.90625 
L 16.796875 28.609375 
Q 16.265625 25.640625 16.046875 23.703125 
Q 15.828125 21.78125 15.828125 20.3125 
Q 15.828125 13.578125 19.578125 10.078125 
Q 23.34375 6.59375 30.609375 6.59375 
Q 40.046875 6.59375 45.28125 11.765625 
Q 50.53125 16.9375 52.78125 28.609375 
L 61.375 72.90625 
L 71.296875 72.90625 
L 62.5 27.390625 
Q 59.625 12.640625 51.5625 5.609375 
Q 43.5 -1.421875 29.5 -1.421875 
Q 18.5625 -1.421875 12.1875 4.078125 
Q 5.8125 9.578125 5.8125 19 
Q 5.8125 20.703125 6.046875 22.828125 
Q 6.296875 24.953125 6.78125 27.390625 
z
" id="DejaVuSans-Oblique-85"/>
      <path d="M 45.609375 66.21875 
Q 37.5 66.21875 31.296875 62.28125 
Q 25.09375 58.34375 20.515625 50.296875 
Q 17.578125 45.171875 16.03125 39.40625 
Q 14.5 33.640625 14.5 27.78125 
Q 14.5 17.625 19.359375 12.109375 
Q 24.21875 6.59375 33.109375 6.59375 
Q 41.109375 6.59375 47.375 10.5625 
Q 53.65625 14.546875 58.109375 22.40625 
Q 61.078125 27.6875 62.640625 33.46875 
Q 64.203125 39.265625 64.203125 45.015625 
Q 64.203125 55.125 59.3125 60.671875 
Q 54.4375 66.21875 45.609375 66.21875 
z
M 32.8125 -1.421875 
Q 19.390625 -1.421875 11.6875 6.53125 
Q 4 14.5 4 28.328125 
Q 4 36.234375 7 44.484375 
Q 10.015625 52.734375 15.28125 59.1875 
Q 21.484375 66.75 29.09375 70.484375 
Q 36.71875 74.21875 45.90625 74.21875 
Q 59.28125 74.21875 66.984375 66.328125 
Q 74.703125 58.453125 74.703125 44.828125 
Q 74.703125 36.421875 71.765625 28.3125 
Q 68.84375 20.21875 63.375 13.625 
Q 57.125 6 49.578125 2.28125 
Q 42.046875 -1.421875 32.8125 -1.421875 
z
" id="DejaVuSans-Oblique-79"/>
      <path d="M 16.890625 72.90625 
L 38.09375 72.90625 
Q 54.984375 72.90625 63.59375 65.75 
Q 72.21875 58.59375 72.21875 44.484375 
Q 72.21875 35.15625 68.9375 26.53125 
Q 65.671875 17.921875 59.90625 12.015625 
Q 54.109375 5.953125 45.171875 2.96875 
Q 36.234375 0 24.03125 0 
L 2.6875 0 
z
M 25.203125 64.796875 
L 14.203125 8.109375 
L 27.09375 8.109375 
Q 43.65625 8.109375 52.734375 17.625 
Q 61.8125 27.15625 61.8125 44.484375 
Q 61.8125 54.984375 55.953125 59.890625 
Q 50.09375 64.796875 37.59375 64.796875 
z
" id="DejaVuSans-Oblique-68"/>
      <path d="M 70.125 53.71875 
L 47.796875 31.296875 
L 70.125 8.984375 
L 64.3125 3.078125 
L 41.890625 25.484375 
L 19.484375 3.078125 
L 13.71875 8.984375 
L 35.984375 31.296875 
L 13.71875 53.71875 
L 19.484375 59.625 
L 41.890625 37.203125 
L 64.3125 59.625 
z
" id="DejaVuSans-215"/>
     </defs>
     <g transform="translate(55.888125 270.8416)rotate(-90)scale(0.2 -0.2)">
      <use transform="translate(0 0.684375)" xlink:href="#DejaVuSans-40"/>
      <use transform="translate(39.013672 0.684375)" xlink:href="#DejaVuSans-Oblique-82"/>
      <use transform="translate(108.496094 0.684375)" xlink:href="#DejaVuSans-Oblique-70"/>
      <use transform="translate(166.015625 0.684375)" xlink:href="#DejaVuSans-Oblique-85"/>
      <use transform="translate(239.208984 0.684375)" xlink:href="#DejaVuSans-47"/>
      <use transform="translate(272.900391 0.684375)" xlink:href="#DejaVuSans-Oblique-79"/>
      <use transform="translate(351.611328 0.684375)" xlink:href="#DejaVuSans-Oblique-68"/>
      <use transform="translate(428.613281 0.684375)" xlink:href="#DejaVuSans-41"/>
      <use transform="translate(487.109375 0.684375)" xlink:href="#DejaVuSans-215"/>
      <use transform="translate(590.380859 0.684375)" xlink:href="#DejaVuSans-49"/>
      <use transform="translate(654.003906 0.684375)" xlink:href="#DejaVuSans-48"/>
      <use transform="translate(718.583984 38.965625)scale(0.7)" xlink:href="#DejaVuSans-52"/>
     </g>
    </g>
   </g>
   <g id="line2d_36">
    <path clip-path="url(#pb65855fecd)" d="M 80.453935 319.127047 
L 187.32019 318.980409 
L 231.466147 318.710374 
L 260.367041 318.322029 
L 282.083054 317.816049 
L 299.561046 317.192922 
L 314.238966 316.452786 
L 326.955584 315.593648 
L 338.216088 314.613926 
L 348.348987 313.512685 
L 357.608411 312.285699 
L 366.163423 310.930309 
L 374.145073 309.443002 
L 381.663964 307.817822 
L 388.808185 306.047742 
L 395.643634 304.126433 
L 402.234913 302.043796 
L 408.634229 299.789353 
L 414.891975 297.34949 
L 421.058761 294.706439 
L 427.179348 291.840955 
L 433.30758 288.725624 
L 439.502254 285.32577 
L 445.833434 281.595501 
L 452.399549 277.466084 
L 459.345466 272.831315 
L 466.921948 267.50275 
L 475.683955 261.058647 
L 487.806225 251.839734 
L 506.56015 237.587308 
L 515.424899 231.150657 
L 523.024469 225.902482 
L 529.982999 221.363591 
L 536.017852 217.657971 
L 536.017852 217.657971 
" style="fill:none;stroke:#0ad12e;stroke-linecap:square;stroke-width:1.5;"/>
   </g>
   <g id="line2d_37">
    <path clip-path="url(#pb65855fecd)" d="M 80.453935 316.382198 
L 94.759163 315.520783 
L 107.317829 314.549618 
L 118.859638 313.434315 
L 129.263319 312.205208 
L 138.75353 310.862431 
L 147.492366 309.40649 
L 155.782616 307.800532 
L 163.496838 306.082138 
L 170.862877 304.214199 
L 177.903681 302.197562 
L 184.64132 300.034114 
L 191.096625 297.726746 
L 197.289024 295.279311 
L 203.326837 292.655502 
L 209.2045 289.860766 
L 214.996075 286.860876 
L 220.683983 283.664448 
L 226.320535 280.241296 
L 231.942159 276.56448 
L 237.518213 272.650934 
L 243.126178 268.442121 
L 248.771725 263.926175 
L 254.497458 259.060865 
L 260.367041 253.779757 
L 266.416662 248.035379 
L 272.75804 241.702548 
L 279.449645 234.701306 
L 286.718777 226.768053 
L 294.950948 217.444322 
L 305.20516 205.474343 
L 335.369918 170.043021 
L 343.563008 160.898348 
L 350.802681 153.144794 
L 357.486632 146.307155 
L 363.803658 140.15883 
L 369.873717 134.558223 
L 375.762656 129.42484 
L 381.525792 124.693844 
L 387.209436 120.313889 
L 392.851966 116.245024 
L 398.479507 112.46004 
L 404.122791 108.931654 
L 409.809305 105.638063 
L 415.562378 102.562635 
L 421.411586 99.688001 
L 427.381125 97.00219 
L 433.501216 94.492819 
L 439.805084 92.149036 
L 446.328394 89.961842 
L 453.10736 87.924579 
L 460.188467 86.03004 
L 467.624607 84.272324 
L 475.475538 82.646906 
L 483.815977 81.149337 
L 492.737185 79.775853 
L 502.350848 78.523532 
L 512.800253 77.389748 
L 524.272646 76.372245 
L 536.017852 75.532547 
L 536.017852 75.532547 
" style="fill:none;stroke:#0a95d1;stroke-linecap:square;stroke-width:1.5;"/>
   </g>
   <g id="line2d_38">
    <path clip-path="url(#pb65855fecd)" d="M 80.453935 318.831215 
L 120.403229 318.48788 
L 149.113144 318.026245 
L 171.586257 317.448697 
L 190.117192 316.755567 
L 205.8958 315.948571 
L 219.697452 315.025413 
L 232.001427 313.984156 
L 243.126178 312.823327 
L 253.294938 311.541973 
L 262.670796 310.139697 
L 271.410086 308.610407 
L 279.597014 306.954483 
L 287.325955 305.166495 
L 294.668404 303.241324 
L 301.679606 301.174305 
L 308.402979 298.961356 
L 314.890691 296.592372 
L 321.166117 294.064722 
L 327.263227 291.370034 
L 333.221357 288.494327 
L 339.069363 285.425106 
L 344.828128 282.151745 
L 350.533221 278.652639 
L 356.199407 274.915936 
L 361.862152 270.914004 
L 367.544222 266.624587 
L 373.273323 262.019437 
L 379.085141 257.060831 
L 385.030141 251.693924 
L 391.158047 245.859319 
L 397.543812 239.468405 
L 404.292705 232.394891 
L 411.585579 224.422935 
L 419.76046 215.148248 
L 429.698523 203.519919 
L 465.233105 161.619084 
L 473.206655 152.759056 
L 480.377289 145.117981 
L 487.05155 138.326345 
L 493.390959 132.189083 
L 499.495612 126.585602 
L 505.433365 121.43459 
L 511.256807 116.674961 
L 517.006467 112.261035 
L 522.716472 108.156424 
L 528.417267 104.331163 
L 534.135799 100.76095 
L 536.017852 99.642978 
L 536.017852 99.642978 
" style="fill:none;stroke:#710ad1;stroke-linecap:square;stroke-width:1.5;"/>
   </g>
   <g id="line2d_39">
    <path clip-path="url(#pb65855fecd)" d="M 80.453935 317.196974 
L 99.068795 316.450561 
L 115.005621 315.591339 
L 128.9948 314.618367 
L 141.494953 313.531179 
L 153.003886 312.307763 
L 163.496838 310.970003 
L 173.151141 309.519298 
L 182.222968 307.934481 
L 190.771711 306.217385 
L 198.849424 304.37071 
L 206.587745 302.374444 
L 214.000106 300.232784 
L 221.102444 297.95096 
L 227.974641 295.511738 
L 234.673438 292.899352 
L 241.238781 290.099957 
L 247.651215 287.124814 
L 253.984691 283.94178 
L 260.249781 280.545084 
L 266.523774 276.889336 
L 272.790586 272.979073 
L 279.094654 268.782637 
L 285.487928 264.258618 
L 292.022261 259.360795 
L 298.765936 254.025901 
L 305.808795 248.167832 
L 313.294408 241.648175 
L 321.46918 234.227218 
L 330.836537 225.413425 
L 343.0897 213.55594 
L 369.063871 188.344184 
L 378.578078 179.477426 
L 386.802288 172.111056 
L 394.319441 165.672025 
L 401.389137 159.905443 
L 408.159349 154.667198 
L 414.72637 149.865121 
L 421.154498 145.438299 
L 427.498553 141.338022 
L 433.798283 137.530058 
L 440.092645 133.984331 
L 446.41477 130.677587 
L 452.798309 127.589388 
L 459.274041 124.703633 
L 465.871341 122.007323 
L 472.625258 119.487604 
L 479.572494 117.133783 
L 486.75041 114.937513 
L 494.202276 112.891113 
L 501.976999 110.988013 
L 510.13209 109.222347 
L 518.733999 107.589313 
L 527.863211 106.084629 
L 536.017852 104.916198 
L 536.017852 104.916198 
" style="fill:none;stroke:#d10a7b;stroke-linecap:square;stroke-width:1.5;"/>
   </g>
   <g id="line2d_40">
    <defs>
     <path d="M 0 3 
C 0.795609 3 1.55874 2.683901 2.12132 2.12132 
C 2.683901 1.55874 3 0.795609 3 0 
C 3 -0.795609 2.683901 -1.55874 2.12132 -2.12132 
C 1.55874 -2.683901 0.795609 -3 0 -3 
C -0.795609 -3 -1.55874 -2.683901 -2.12132 -2.12132 
C -2.683901 -1.55874 -3 -0.795609 -3 0 
C -3 0.795609 -2.683901 1.55874 -2.12132 2.12132 
C -1.55874 2.683901 -0.795609 3 0 3 
z
" id="m9bc31f9743" style="stroke:#0ad12e;"/>
    </defs>
    <g clip-path="url(#pb65855fecd)">
     <use style="fill:#0ad12e;stroke:#0ad12e;" x="-1" xlink:href="#m9bc31f9743" y="316.108156"/>
     <use style="fill:#0ad12e;stroke:#0ad12e;" x="222.546445" xlink:href="#m9bc31f9743" y="316.107094"/>
     <use style="fill:#0ad12e;stroke:#0ad12e;" x="269.728593" xlink:href="#m9bc31f9743" y="315.341786"/>
     <use style="fill:#0ad12e;stroke:#0ad12e;" x="316.910741" xlink:href="#m9bc31f9743" y="313.29771"/>
     <use style="fill:#0ad12e;stroke:#0ad12e;" x="379.282148" xlink:href="#m9bc31f9743" y="307.782044"/>
     <use style="fill:#0ad12e;stroke:#0ad12e;" x="426.464296" xlink:href="#m9bc31f9743" y="294.711106"/>
     <use style="fill:#0ad12e;stroke:#0ad12e;" x="473.646445" xlink:href="#m9bc31f9743" y="260.592529"/>
     <use style="fill:#0ad12e;stroke:#0ad12e;" x="536.017852" xlink:href="#m9bc31f9743" y="218.190068"/>
    </g>
   </g>
   <g id="line2d_41">
    <g clip-path="url(#pb65855fecd)">
     <use style="fill:#0ad12e;stroke:#0ad12e;" x="-1" xlink:href="#m9bc31f9743" y="316.178205"/>
     <use style="fill:#0ad12e;stroke:#0ad12e;" x="222.546445" xlink:href="#m9bc31f9743" y="316.177091"/>
     <use style="fill:#0ad12e;stroke:#0ad12e;" x="269.728593" xlink:href="#m9bc31f9743" y="315.392087"/>
     <use style="fill:#0ad12e;stroke:#0ad12e;" x="316.910741" xlink:href="#m9bc31f9743" y="313.427451"/>
     <use style="fill:#0ad12e;stroke:#0ad12e;" x="379.282148" xlink:href="#m9bc31f9743" y="308.2174"/>
     <use style="fill:#0ad12e;stroke:#0ad12e;" x="426.464296" xlink:href="#m9bc31f9743" y="295.339653"/>
     <use style="fill:#0ad12e;stroke:#0ad12e;" x="473.646445" xlink:href="#m9bc31f9743" y="261.27912"/>
     <use style="fill:#0ad12e;stroke:#0ad12e;" x="536.017852" xlink:href="#m9bc31f9743" y="217.759814"/>
    </g>
   </g>
   <g id="line2d_42">
    <g clip-path="url(#pb65855fecd)">
     <use style="fill:#0ad12e;stroke:#0ad12e;" x="269.728593" xlink:href="#m9bc31f9743" y="315.609135"/>
     <use style="fill:#0ad12e;stroke:#0ad12e;" x="316.910741" xlink:href="#m9bc31f9743" y="313.543844"/>
    </g>
   </g>
   <g id="line2d_43">
    <defs>
     <path d="M 0 3 
C 0.795609 3 1.55874 2.683901 2.12132 2.12132 
C 2.683901 1.55874 3 0.795609 3 0 
C 3 -0.795609 2.683901 -1.55874 2.12132 -2.12132 
C 1.55874 -2.683901 0.795609 -3 0 -3 
C -0.795609 -3 -1.55874 -2.683901 -2.12132 -2.12132 
C -2.683901 -1.55874 -3 -0.795609 -3 0 
C -3 0.795609 -2.683901 1.55874 -2.12132 2.12132 
C -1.55874 2.683901 -0.795609 3 0 3 
z
" id="mc34bf6e1e6" style="stroke:#0a95d1;"/>
    </defs>
    <g clip-path="url(#pb65855fecd)">
     <use style="fill:#0a95d1;stroke:#0a95d1;" x="-1" xlink:href="#mc34bf6e1e6" y="285.559571"/>
     <use style="fill:#0a95d1;stroke:#0a95d1;" x="222.546445" xlink:href="#mc34bf6e1e6" y="285.520735"/>
     <use style="fill:#0a95d1;stroke:#0a95d1;" x="269.728593" xlink:href="#mc34bf6e1e6" y="247.539729"/>
     <use style="fill:#0a95d1;stroke:#0a95d1;" x="316.910741" xlink:href="#mc34bf6e1e6" y="188.744391"/>
     <use style="fill:#0a95d1;stroke:#0a95d1;" x="379.282148" xlink:href="#mc34bf6e1e6" y="135.414413"/>
     <use style="fill:#0a95d1;stroke:#0a95d1;" x="426.464296" xlink:href="#mc34bf6e1e6" y="105.110372"/>
     <use style="fill:#0a95d1;stroke:#0a95d1;" x="473.646445" xlink:href="#mc34bf6e1e6" y="82.893122"/>
     <use style="fill:#0a95d1;stroke:#0a95d1;" x="536.017852" xlink:href="#mc34bf6e1e6" y="81.814766"/>
    </g>
   </g>
   <g id="line2d_44">
    <g clip-path="url(#pb65855fecd)">
     <use style="fill:#0a95d1;stroke:#0a95d1;" x="-1" xlink:href="#mc34bf6e1e6" y="285.546709"/>
     <use style="fill:#0a95d1;stroke:#0a95d1;" x="222.546445" xlink:href="#mc34bf6e1e6" y="285.508198"/>
     <use style="fill:#0a95d1;stroke:#0a95d1;" x="269.728593" xlink:href="#mc34bf6e1e6" y="247.827878"/>
     <use style="fill:#0a95d1;stroke:#0a95d1;" x="316.910741" xlink:href="#mc34bf6e1e6" y="183.093192"/>
     <use style="fill:#0a95d1;stroke:#0a95d1;" x="379.282148" xlink:href="#mc34bf6e1e6" y="127.393122"/>
     <use style="fill:#0a95d1;stroke:#0a95d1;" x="426.464296" xlink:href="#mc34bf6e1e6" y="95.218001"/>
     <use style="fill:#0a95d1;stroke:#0a95d1;" x="473.646445" xlink:href="#mc34bf6e1e6" y="75.108049"/>
     <use style="fill:#0a95d1;stroke:#0a95d1;" x="536.017852" xlink:href="#mc34bf6e1e6" y="69.341236"/>
    </g>
   </g>
   <g id="line2d_45">
    <g clip-path="url(#pb65855fecd)">
     <use style="fill:#0a95d1;stroke:#0a95d1;" x="-1" xlink:href="#mc34bf6e1e6" y="284.566049"/>
     <use style="fill:#0a95d1;stroke:#0a95d1;" x="222.546445" xlink:href="#mc34bf6e1e6" y="284.526534"/>
     <use style="fill:#0a95d1;stroke:#0a95d1;" x="269.728593" xlink:href="#mc34bf6e1e6" y="245.825096"/>
     <use style="fill:#0a95d1;stroke:#0a95d1;" x="316.910741" xlink:href="#mc34bf6e1e6" y="182.013585"/>
    </g>
   </g>
   <g id="line2d_46">
    <defs>
     <path d="M 0 3 
C 0.795609 3 1.55874 2.683901 2.12132 2.12132 
C 2.683901 1.55874 3 0.795609 3 0 
C 3 -0.795609 2.683901 -1.55874 2.12132 -2.12132 
C 1.55874 -2.683901 0.795609 -3 0 -3 
C -0.795609 -3 -1.55874 -2.683901 -2.12132 -2.12132 
C -2.683901 -1.55874 -3 -0.795609 -3 0 
C -3 0.795609 -2.683901 1.55874 -2.12132 2.12132 
C -1.55874 2.683901 -0.795609 3 0 3 
z
" id="md3ff9c2c54" style="stroke:#710ad1;"/>
    </defs>
    <g clip-path="url(#pb65855fecd)">
     <use style="fill:#710ad1;stroke:#710ad1;" x="-1" xlink:href="#md3ff9c2c54" y="313.852676"/>
     <use style="fill:#710ad1;stroke:#710ad1;" x="222.546445" xlink:href="#md3ff9c2c54" y="313.848904"/>
     <use style="fill:#710ad1;stroke:#710ad1;" x="269.728593" xlink:href="#md3ff9c2c54" y="308.884824"/>
     <use style="fill:#710ad1;stroke:#710ad1;" x="316.910741" xlink:href="#md3ff9c2c54" y="293.193284"/>
     <use style="fill:#710ad1;stroke:#710ad1;" x="379.282148" xlink:href="#md3ff9c2c54" y="259.476338"/>
     <use style="fill:#710ad1;stroke:#710ad1;" x="426.464296" xlink:href="#md3ff9c2c54" y="213.059442"/>
     <use style="fill:#710ad1;stroke:#710ad1;" x="473.646445" xlink:href="#md3ff9c2c54" y="152.326381"/>
     <use style="fill:#710ad1;stroke:#710ad1;" x="536.017852" xlink:href="#md3ff9c2c54" y="107.261083"/>
    </g>
   </g>
   <g id="line2d_47">
    <g clip-path="url(#pb65855fecd)">
     <use style="fill:#710ad1;stroke:#710ad1;" x="-1" xlink:href="#md3ff9c2c54" y="313.913652"/>
     <use style="fill:#710ad1;stroke:#710ad1;" x="222.546445" xlink:href="#md3ff9c2c54" y="313.910028"/>
     <use style="fill:#710ad1;stroke:#710ad1;" x="269.728593" xlink:href="#md3ff9c2c54" y="309.006288"/>
     <use style="fill:#710ad1;stroke:#710ad1;" x="316.910741" xlink:href="#md3ff9c2c54" y="292.423301"/>
     <use style="fill:#710ad1;stroke:#710ad1;" x="379.282148" xlink:href="#md3ff9c2c54" y="255.663676"/>
     <use style="fill:#710ad1;stroke:#710ad1;" x="426.464296" xlink:href="#md3ff9c2c54" y="208.666791"/>
     <use style="fill:#710ad1;stroke:#710ad1;" x="473.646445" xlink:href="#md3ff9c2c54" y="144.338822"/>
     <use style="fill:#710ad1;stroke:#710ad1;" x="536.017852" xlink:href="#md3ff9c2c54" y="94.71644"/>
    </g>
   </g>
   <g id="line2d_48">
    <g clip-path="url(#pb65855fecd)">
     <use style="fill:#710ad1;stroke:#710ad1;" x="-1" xlink:href="#md3ff9c2c54" y="313.718268"/>
     <use style="fill:#710ad1;stroke:#710ad1;" x="222.546445" xlink:href="#md3ff9c2c54" y="313.714312"/>
     <use style="fill:#710ad1;stroke:#710ad1;" x="269.728593" xlink:href="#md3ff9c2c54" y="308.918108"/>
     <use style="fill:#710ad1;stroke:#710ad1;" x="316.910741" xlink:href="#md3ff9c2c54" y="292.903263"/>
    </g>
   </g>
   <g id="line2d_49">
    <defs>
     <path d="M 0 3 
C 0.795609 3 1.55874 2.683901 2.12132 2.12132 
C 2.683901 1.55874 3 0.795609 3 0 
C 3 -0.795609 2.683901 -1.55874 2.12132 -2.12132 
C 1.55874 -2.683901 0.795609 -3 0 -3 
C -0.795609 -3 -1.55874 -2.683901 -2.12132 -2.12132 
C -2.683901 -1.55874 -3 -0.795609 -3 0 
C -3 0.795609 -2.683901 1.55874 -2.12132 2.12132 
C -1.55874 2.683901 -0.795609 3 0 3 
z
" id="m01a1008a28" style="stroke:#d10a7b;"/>
    </defs>
    <g clip-path="url(#pb65855fecd)">
     <use style="fill:#d10a7b;stroke:#d10a7b;" x="-1" xlink:href="#m01a1008a28" y="299.375404"/>
     <use style="fill:#d10a7b;stroke:#d10a7b;" x="222.546445" xlink:href="#m01a1008a28" y="299.354568"/>
     <use style="fill:#d10a7b;stroke:#d10a7b;" x="269.728593" xlink:href="#m01a1008a28" y="277.688796"/>
     <use style="fill:#d10a7b;stroke:#d10a7b;" x="316.910741" xlink:href="#m01a1008a28" y="232.703819"/>
     <use style="fill:#d10a7b;stroke:#d10a7b;" x="379.282148" xlink:href="#m01a1008a28" y="181.58108"/>
     <use style="fill:#d10a7b;stroke:#d10a7b;" x="426.464296" xlink:href="#m01a1008a28" y="144.412602"/>
     <use style="fill:#d10a7b;stroke:#d10a7b;" x="473.646445" xlink:href="#m01a1008a28" y="114.674908"/>
     <use style="fill:#d10a7b;stroke:#d10a7b;" x="536.017852" xlink:href="#m01a1008a28" y="105.66699"/>
    </g>
   </g>
   <g id="line2d_50">
    <g clip-path="url(#pb65855fecd)">
     <use style="fill:#d10a7b;stroke:#d10a7b;" x="-1" xlink:href="#m01a1008a28" y="299.420873"/>
     <use style="fill:#d10a7b;stroke:#d10a7b;" x="222.546445" xlink:href="#m01a1008a28" y="299.400006"/>
     <use style="fill:#d10a7b;stroke:#d10a7b;" x="269.728593" xlink:href="#m01a1008a28" y="277.28353"/>
     <use style="fill:#d10a7b;stroke:#d10a7b;" x="316.910741" xlink:href="#m01a1008a28" y="232.673597"/>
     <use style="fill:#d10a7b;stroke:#d10a7b;" x="379.282148" xlink:href="#m01a1008a28" y="182.690854"/>
     <use style="fill:#d10a7b;stroke:#d10a7b;" x="426.464296" xlink:href="#m01a1008a28" y="144.070999"/>
     <use style="fill:#d10a7b;stroke:#d10a7b;" x="473.646445" xlink:href="#m01a1008a28" y="113.769482"/>
     <use style="fill:#d10a7b;stroke:#d10a7b;" x="536.017852" xlink:href="#m01a1008a28" y="108.170097"/>
    </g>
   </g>
   <g id="line2d_51">
    <g clip-path="url(#pb65855fecd)">
     <use style="fill:#d10a7b;stroke:#d10a7b;" x="-1" xlink:href="#m01a1008a28" y="299.303496"/>
     <use style="fill:#d10a7b;stroke:#d10a7b;" x="222.546445" xlink:href="#m01a1008a28" y="299.282503"/>
     <use style="fill:#d10a7b;stroke:#d10a7b;" x="269.728593" xlink:href="#m01a1008a28" y="277.059195"/>
     <use style="fill:#d10a7b;stroke:#d10a7b;" x="316.910741" xlink:href="#m01a1008a28" y="232.795107"/>
    </g>
   </g>
   <g id="patch_17">
    <path d="M 81 331.632 
L 81 56.8512 
" style="fill:none;stroke:#000000;stroke-linecap:square;stroke-linejoin:miter;stroke-width:0.8;"/>
   </g>
   <g id="patch_18">
    <path d="M 81 331.632 
L 583.2 331.632 
" style="fill:none;stroke:#000000;stroke-linecap:square;stroke-linejoin:miter;stroke-width:0.8;"/>
   </g>
   <g id="text_26">
    <!-- Evolution of PAP4 -->
    <defs>
     <path d="M 9.421875 75.984375 
L 18.40625 75.984375 
L 18.40625 0 
L 9.421875 0 
z
" id="DejaVuSans-108"/>
     <path d="M 18.3125 70.21875 
L 18.3125 54.6875 
L 36.8125 54.6875 
L 36.8125 47.703125 
L 18.3125 47.703125 
L 18.3125 18.015625 
Q 18.3125 11.328125 20.140625 9.421875 
Q 21.96875 7.515625 27.59375 7.515625 
L 36.8125 7.515625 
L 36.8125 0 
L 27.59375 0 
Q 17.1875 0 13.234375 3.875 
Q 9.28125 7.765625 9.28125 18.015625 
L 9.28125 47.703125 
L 2.6875 47.703125 
L 2.6875 54.6875 
L 9.28125 54.6875 
L 9.28125 70.21875 
z
" id="DejaVuSans-116"/>
     <path d="M 37.109375 75.984375 
L 37.109375 68.5 
L 28.515625 68.5 
Q 23.6875 68.5 21.796875 66.546875 
Q 19.921875 64.59375 19.921875 59.515625 
L 19.921875 54.6875 
L 34.71875 54.6875 
L 34.71875 47.703125 
L 19.921875 47.703125 
L 19.921875 0 
L 10.890625 0 
L 10.890625 47.703125 
L 2.296875 47.703125 
L 2.296875 54.6875 
L 10.890625 54.6875 
L 10.890625 58.5 
Q 10.890625 67.625 15.140625 71.796875 
Q 19.390625 75.984375 28.609375 75.984375 
z
" id="DejaVuSans-102"/>
    </defs>
    <g transform="translate(222.25625 50.8512)scale(0.25 -0.25)">
     <use xlink:href="#DejaVuSans-69"/>
     <use x="63.183594" xlink:href="#DejaVuSans-118"/>
     <use x="122.363281" xlink:href="#DejaVuSans-111"/>
     <use x="183.544922" xlink:href="#DejaVuSans-108"/>
     <use x="211.328125" xlink:href="#DejaVuSans-117"/>
     <use x="274.707031" xlink:href="#DejaVuSans-116"/>
     <use x="313.916016" xlink:href="#DejaVuSans-105"/>
     <use x="341.699219" xlink:href="#DejaVuSans-111"/>
     <use x="402.880859" xlink:href="#DejaVuSans-110"/>
     <use x="466.259766" xlink:href="#DejaVuSans-32"/>
     <use x="498.046875" xlink:href="#DejaVuSans-111"/>
     <use x="559.228516" xlink:href="#DejaVuSans-102"/>
     <use x="594.433594" xlink:href="#DejaVuSans-32"/>
     <use x="626.220703" xlink:href="#DejaVuSans-80"/>
     <use x="686.429688" xlink:href="#DejaVuSans-65"/>
     <use x="754.837891" xlink:href="#DejaVuSans-80"/>
     <use x="815.140625" xlink:href="#DejaVuSans-52"/>
    </g>
   </g>
   <g id="legend_1">
    <g id="patch_19">
     <path d="M 91.5 156.91995 
L 191.690625 156.91995 
Q 194.690625 156.91995 194.690625 153.91995 
L 194.690625 67.3512 
Q 194.690625 64.3512 191.690625 64.3512 
L 91.5 64.3512 
Q 88.5 64.3512 88.5 67.3512 
L 88.5 153.91995 
Q 88.5 156.91995 91.5 156.91995 
z
" style="fill:#ffffff;opacity:0.8;stroke:#cccccc;stroke-linejoin:miter;"/>
    </g>
    <g id="line2d_52">
     <path d="M 94.5 76.498856 
L 124.5 76.498856 
" style="fill:none;stroke:#0ad12e;stroke-linecap:square;stroke-width:1.5;"/>
    </g>
    <g id="line2d_53"/>
    <g id="text_27">
     <!-- PAP3 -->
     <g transform="translate(136.5 81.748856)scale(0.15 -0.15)">
      <use xlink:href="#DejaVuSans-80"/>
      <use x="60.208984" xlink:href="#DejaVuSans-65"/>
      <use x="128.617188" xlink:href="#DejaVuSans-80"/>
      <use x="188.919922" xlink:href="#DejaVuSans-51"/>
     </g>
    </g>
    <g id="line2d_54">
     <path d="M 94.5 98.516044 
L 124.5 98.516044 
" style="fill:none;stroke:#0a95d1;stroke-linecap:square;stroke-width:1.5;"/>
    </g>
    <g id="line2d_55"/>
    <g id="text_28">
     <!-- PAP4.1 -->
     <g transform="translate(136.5 103.766044)scale(0.15 -0.15)">
      <use xlink:href="#DejaVuSans-80"/>
      <use x="60.208984" xlink:href="#DejaVuSans-65"/>
      <use x="128.617188" xlink:href="#DejaVuSans-80"/>
      <use x="188.919922" xlink:href="#DejaVuSans-52"/>
      <use x="252.542969" xlink:href="#DejaVuSans-46"/>
      <use x="284.330078" xlink:href="#DejaVuSans-49"/>
     </g>
    </g>
    <g id="line2d_56">
     <path d="M 94.5 120.533231 
L 124.5 120.533231 
" style="fill:none;stroke:#710ad1;stroke-linecap:square;stroke-width:1.5;"/>
    </g>
    <g id="line2d_57"/>
    <g id="text_29">
     <!-- PAP4.2 -->
     <g transform="translate(136.5 125.783231)scale(0.15 -0.15)">
      <use xlink:href="#DejaVuSans-80"/>
      <use x="60.208984" xlink:href="#DejaVuSans-65"/>
      <use x="128.617188" xlink:href="#DejaVuSans-80"/>
      <use x="188.919922" xlink:href="#DejaVuSans-52"/>
      <use x="252.542969" xlink:href="#DejaVuSans-46"/>
      <use x="284.330078" xlink:href="#DejaVuSans-50"/>
     </g>
    </g>
    <g id="line2d_58">
     <path d="M 94.5 142.550419 
L 124.5 142.550419 
" style="fill:none;stroke:#d10a7b;stroke-linecap:square;stroke-width:1.5;"/>
    </g>
    <g id="line2d_59"/>
    <g id="text_30">
     <!-- PAP4.3 -->
     <g transform="translate(136.5 147.800419)scale(0.15 -0.15)">
      <use xlink:href="#DejaVuSans-80"/>
      <use x="60.208984" xlink:href="#DejaVuSans-65"/>
      <use x="128.617188" xlink:href="#DejaVuSans-80"/>
      <use x="188.919922" xlink:href="#DejaVuSans-52"/>
      <use x="252.542969" xlink:href="#DejaVuSans-46"/>
      <use x="284.330078" xlink:href="#DejaVuSans-51"/>
     </g>
    </g>
   </g>
  </g>
 </g>
 <defs>
  <clipPath id="pb65855fecd">
   <rect height="274.7808" width="502.2" x="81" y="56.8512"/>
  </clipPath>
 </defs>
</svg>
