<?xml version="1.0" encoding="utf-8" standalone="no"?>
<!DOCTYPE svg PUBLIC "-//W3C//DTD SVG 1.1//EN"
  "http://www.w3.org/Graphics/SVG/1.1/DTD/svg11.dtd">
<!-- Created with matplotlib (https://matplotlib.org/) -->
<svg height="473.76pt" version="1.1" viewBox="0 0 648 473.76" width="648pt" xmlns="http://www.w3.org/2000/svg" xmlns:xlink="http://www.w3.org/1999/xlink">
 <defs>
  <style type="text/css">
*{stroke-linecap:butt;stroke-linejoin:round;}
  </style>
 </defs>
 <g id="figure_1">
  <g id="patch_1">
   <path d="M 0 473.76 
L 648 473.76 
L 648 0 
L 0 0 
z
" style="fill:#ffffff;"/>
  </g>
  <g id="axes_1">
   <g id="patch_2">
    <path d="M 81 421.6464 
L 583.2 421.6464 
L 583.2 56.8512 
L 81 56.8512 
z
" style="fill:#ffffff;"/>
   </g>
   <g id="matplotlib.axis_1">
    <g id="xtick_1">
     <g id="line2d_1">
      <defs>
       <path d="M 0 0 
L 0 2 
" id="m9f3145d61c" style="stroke:#000000;"/>
      </defs>
      <g>
       <use style="stroke:#000000;" x="179.549735" xlink:href="#m9f3145d61c" y="421.6464"/>
      </g>
     </g>
     <g id="text_1">
      <!-- 0.1 -->
      <defs>
       <path d="M 31.78125 66.40625 
Q 24.171875 66.40625 20.328125 58.90625 
Q 16.5 51.421875 16.5 36.375 
Q 16.5 21.390625 20.328125 13.890625 
Q 24.171875 6.390625 31.78125 6.390625 
Q 39.453125 6.390625 43.28125 13.890625 
Q 47.125 21.390625 47.125 36.375 
Q 47.125 51.421875 43.28125 58.90625 
Q 39.453125 66.40625 31.78125 66.40625 
z
M 31.78125 74.21875 
Q 44.046875 74.21875 50.515625 64.515625 
Q 56.984375 54.828125 56.984375 36.375 
Q 56.984375 17.96875 50.515625 8.265625 
Q 44.046875 -1.421875 31.78125 -1.421875 
Q 19.53125 -1.421875 13.0625 8.265625 
Q 6.59375 17.96875 6.59375 36.375 
Q 6.59375 54.828125 13.0625 64.515625 
Q 19.53125 74.21875 31.78125 74.21875 
z
" id="DejaVuSans-48"/>
       <path d="M 10.6875 12.40625 
L 21 12.40625 
L 21 0 
L 10.6875 0 
z
" id="DejaVuSans-46"/>
       <path d="M 12.40625 8.296875 
L 28.515625 8.296875 
L 28.515625 63.921875 
L 10.984375 60.40625 
L 10.984375 69.390625 
L 28.421875 72.90625 
L 38.28125 72.90625 
L 38.28125 8.296875 
L 54.390625 8.296875 
L 54.390625 0 
L 12.40625 0 
z
" id="DejaVuSans-49"/>
      </defs>
      <g transform="translate(165.236922 440.823588)scale(0.18 -0.18)">
       <use xlink:href="#DejaVuSans-48"/>
       <use x="63.623047" xlink:href="#DejaVuSans-46"/>
       <use x="95.410156" xlink:href="#DejaVuSans-49"/>
      </g>
     </g>
    </g>
    <g id="xtick_2">
     <g id="line2d_2">
      <g>
       <use style="stroke:#000000;" x="288.674779" xlink:href="#m9f3145d61c" y="421.6464"/>
      </g>
     </g>
     <g id="text_2">
      <!-- 1.0 -->
      <g transform="translate(274.361966 440.823588)scale(0.18 -0.18)">
       <use xlink:href="#DejaVuSans-49"/>
       <use x="63.623047" xlink:href="#DejaVuSans-46"/>
       <use x="95.410156" xlink:href="#DejaVuSans-48"/>
      </g>
     </g>
    </g>
    <g id="xtick_3">
     <g id="line2d_3">
      <g>
       <use style="stroke:#000000;" x="397.799823" xlink:href="#m9f3145d61c" y="421.6464"/>
      </g>
     </g>
     <g id="text_3">
      <!-- 10.0 -->
      <g transform="translate(377.760761 440.823588)scale(0.18 -0.18)">
       <use xlink:href="#DejaVuSans-49"/>
       <use x="63.623047" xlink:href="#DejaVuSans-48"/>
       <use x="127.246094" xlink:href="#DejaVuSans-46"/>
       <use x="159.033203" xlink:href="#DejaVuSans-48"/>
      </g>
     </g>
    </g>
    <g id="xtick_4">
     <g id="line2d_4">
      <g>
       <use style="stroke:#000000;" x="506.924867" xlink:href="#m9f3145d61c" y="421.6464"/>
      </g>
     </g>
     <g id="text_4">
      <!-- 100.0 -->
      <g transform="translate(481.159555 440.823588)scale(0.18 -0.18)">
       <use xlink:href="#DejaVuSans-49"/>
       <use x="63.623047" xlink:href="#DejaVuSans-48"/>
       <use x="127.246094" xlink:href="#DejaVuSans-48"/>
       <use x="190.869141" xlink:href="#DejaVuSans-46"/>
       <use x="222.65625" xlink:href="#DejaVuSans-48"/>
      </g>
     </g>
    </g>
    <g id="xtick_5">
     <g id="line2d_5">
      <defs>
       <path d="M 0 0 
L 0 2 
" id="mb3131dcbfd" style="stroke:#000000;stroke-width:0.6;"/>
      </defs>
      <g>
       <use style="stroke:#000000;stroke-width:0.6;" x="103.274602" xlink:href="#mb3131dcbfd" y="421.6464"/>
      </g>
     </g>
    </g>
    <g id="xtick_6">
     <g id="line2d_6">
      <g>
       <use style="stroke:#000000;stroke-width:0.6;" x="122.490569" xlink:href="#mb3131dcbfd" y="421.6464"/>
      </g>
     </g>
    </g>
    <g id="xtick_7">
     <g id="line2d_7">
      <g>
       <use style="stroke:#000000;stroke-width:0.6;" x="136.124514" xlink:href="#mb3131dcbfd" y="421.6464"/>
      </g>
     </g>
    </g>
    <g id="xtick_8">
     <g id="line2d_8">
      <g>
       <use style="stroke:#000000;stroke-width:0.6;" x="146.699823" xlink:href="#mb3131dcbfd" y="421.6464"/>
      </g>
     </g>
    </g>
    <g id="xtick_9">
     <g id="line2d_9">
      <g>
       <use style="stroke:#000000;stroke-width:0.6;" x="155.34048" xlink:href="#mb3131dcbfd" y="421.6464"/>
      </g>
     </g>
    </g>
    <g id="xtick_10">
     <g id="line2d_10">
      <g>
       <use style="stroke:#000000;stroke-width:0.6;" x="162.646052" xlink:href="#mb3131dcbfd" y="421.6464"/>
      </g>
     </g>
    </g>
    <g id="xtick_11">
     <g id="line2d_11">
      <g>
       <use style="stroke:#000000;stroke-width:0.6;" x="168.974425" xlink:href="#mb3131dcbfd" y="421.6464"/>
      </g>
     </g>
    </g>
    <g id="xtick_12">
     <g id="line2d_12">
      <g>
       <use style="stroke:#000000;stroke-width:0.6;" x="174.556447" xlink:href="#mb3131dcbfd" y="421.6464"/>
      </g>
     </g>
    </g>
    <g id="xtick_13">
     <g id="line2d_13">
      <g>
       <use style="stroke:#000000;stroke-width:0.6;" x="212.399646" xlink:href="#mb3131dcbfd" y="421.6464"/>
      </g>
     </g>
    </g>
    <g id="xtick_14">
     <g id="line2d_14">
      <g>
       <use style="stroke:#000000;stroke-width:0.6;" x="231.615613" xlink:href="#mb3131dcbfd" y="421.6464"/>
      </g>
     </g>
    </g>
    <g id="xtick_15">
     <g id="line2d_15">
      <g>
       <use style="stroke:#000000;stroke-width:0.6;" x="245.249558" xlink:href="#mb3131dcbfd" y="421.6464"/>
      </g>
     </g>
    </g>
    <g id="xtick_16">
     <g id="line2d_16">
      <g>
       <use style="stroke:#000000;stroke-width:0.6;" x="255.824867" xlink:href="#mb3131dcbfd" y="421.6464"/>
      </g>
     </g>
    </g>
    <g id="xtick_17">
     <g id="line2d_17">
      <g>
       <use style="stroke:#000000;stroke-width:0.6;" x="264.465524" xlink:href="#mb3131dcbfd" y="421.6464"/>
      </g>
     </g>
    </g>
    <g id="xtick_18">
     <g id="line2d_18">
      <g>
       <use style="stroke:#000000;stroke-width:0.6;" x="271.771096" xlink:href="#mb3131dcbfd" y="421.6464"/>
      </g>
     </g>
    </g>
    <g id="xtick_19">
     <g id="line2d_19">
      <g>
       <use style="stroke:#000000;stroke-width:0.6;" x="278.09947" xlink:href="#mb3131dcbfd" y="421.6464"/>
      </g>
     </g>
    </g>
    <g id="xtick_20">
     <g id="line2d_20">
      <g>
       <use style="stroke:#000000;stroke-width:0.6;" x="283.681491" xlink:href="#mb3131dcbfd" y="421.6464"/>
      </g>
     </g>
    </g>
    <g id="xtick_21">
     <g id="line2d_21">
      <g>
       <use style="stroke:#000000;stroke-width:0.6;" x="321.524691" xlink:href="#mb3131dcbfd" y="421.6464"/>
      </g>
     </g>
    </g>
    <g id="xtick_22">
     <g id="line2d_22">
      <g>
       <use style="stroke:#000000;stroke-width:0.6;" x="340.740657" xlink:href="#mb3131dcbfd" y="421.6464"/>
      </g>
     </g>
    </g>
    <g id="xtick_23">
     <g id="line2d_23">
      <g>
       <use style="stroke:#000000;stroke-width:0.6;" x="354.374602" xlink:href="#mb3131dcbfd" y="421.6464"/>
      </g>
     </g>
    </g>
    <g id="xtick_24">
     <g id="line2d_24">
      <g>
       <use style="stroke:#000000;stroke-width:0.6;" x="364.949912" xlink:href="#mb3131dcbfd" y="421.6464"/>
      </g>
     </g>
    </g>
    <g id="xtick_25">
     <g id="line2d_25">
      <g>
       <use style="stroke:#000000;stroke-width:0.6;" x="373.590569" xlink:href="#mb3131dcbfd" y="421.6464"/>
      </g>
     </g>
    </g>
    <g id="xtick_26">
     <g id="line2d_26">
      <g>
       <use style="stroke:#000000;stroke-width:0.6;" x="380.89614" xlink:href="#mb3131dcbfd" y="421.6464"/>
      </g>
     </g>
    </g>
    <g id="xtick_27">
     <g id="line2d_27">
      <g>
       <use style="stroke:#000000;stroke-width:0.6;" x="387.224514" xlink:href="#mb3131dcbfd" y="421.6464"/>
      </g>
     </g>
    </g>
    <g id="xtick_28">
     <g id="line2d_28">
      <g>
       <use style="stroke:#000000;stroke-width:0.6;" x="392.806535" xlink:href="#mb3131dcbfd" y="421.6464"/>
      </g>
     </g>
    </g>
    <g id="xtick_29">
     <g id="line2d_29">
      <g>
       <use style="stroke:#000000;stroke-width:0.6;" x="430.649735" xlink:href="#mb3131dcbfd" y="421.6464"/>
      </g>
     </g>
    </g>
    <g id="xtick_30">
     <g id="line2d_30">
      <g>
       <use style="stroke:#000000;stroke-width:0.6;" x="449.865701" xlink:href="#mb3131dcbfd" y="421.6464"/>
      </g>
     </g>
    </g>
    <g id="xtick_31">
     <g id="line2d_31">
      <g>
       <use style="stroke:#000000;stroke-width:0.6;" x="463.499646" xlink:href="#mb3131dcbfd" y="421.6464"/>
      </g>
     </g>
    </g>
    <g id="xtick_32">
     <g id="line2d_32">
      <g>
       <use style="stroke:#000000;stroke-width:0.6;" x="474.074956" xlink:href="#mb3131dcbfd" y="421.6464"/>
      </g>
     </g>
    </g>
    <g id="xtick_33">
     <g id="line2d_33">
      <g>
       <use style="stroke:#000000;stroke-width:0.6;" x="482.715613" xlink:href="#mb3131dcbfd" y="421.6464"/>
      </g>
     </g>
    </g>
    <g id="xtick_34">
     <g id="line2d_34">
      <g>
       <use style="stroke:#000000;stroke-width:0.6;" x="490.021184" xlink:href="#mb3131dcbfd" y="421.6464"/>
      </g>
     </g>
    </g>
    <g id="xtick_35">
     <g id="line2d_35">
      <g>
       <use style="stroke:#000000;stroke-width:0.6;" x="496.349558" xlink:href="#mb3131dcbfd" y="421.6464"/>
      </g>
     </g>
    </g>
    <g id="xtick_36">
     <g id="line2d_36">
      <g>
       <use style="stroke:#000000;stroke-width:0.6;" x="501.931579" xlink:href="#mb3131dcbfd" y="421.6464"/>
      </g>
     </g>
    </g>
    <g id="xtick_37">
     <g id="line2d_37">
      <g>
       <use style="stroke:#000000;stroke-width:0.6;" x="539.774779" xlink:href="#mb3131dcbfd" y="421.6464"/>
      </g>
     </g>
    </g>
    <g id="xtick_38">
     <g id="line2d_38">
      <g>
       <use style="stroke:#000000;stroke-width:0.6;" x="558.990745" xlink:href="#mb3131dcbfd" y="421.6464"/>
      </g>
     </g>
    </g>
    <g id="xtick_39">
     <g id="line2d_39">
      <g>
       <use style="stroke:#000000;stroke-width:0.6;" x="572.624691" xlink:href="#mb3131dcbfd" y="421.6464"/>
      </g>
     </g>
    </g>
    <g id="xtick_40">
     <g id="line2d_40">
      <g>
       <use style="stroke:#000000;stroke-width:0.6;" x="583.2" xlink:href="#mb3131dcbfd" y="421.6464"/>
      </g>
     </g>
    </g>
    <g id="text_5">
     <!-- Papaverine (uM) -->
     <defs>
      <path d="M 19.671875 64.796875 
L 19.671875 37.40625 
L 32.078125 37.40625 
Q 38.96875 37.40625 42.71875 40.96875 
Q 46.484375 44.53125 46.484375 51.125 
Q 46.484375 57.671875 42.71875 61.234375 
Q 38.96875 64.796875 32.078125 64.796875 
z
M 9.8125 72.90625 
L 32.078125 72.90625 
Q 44.34375 72.90625 50.609375 67.359375 
Q 56.890625 61.8125 56.890625 51.125 
Q 56.890625 40.328125 50.609375 34.8125 
Q 44.34375 29.296875 32.078125 29.296875 
L 19.671875 29.296875 
L 19.671875 0 
L 9.8125 0 
z
" id="DejaVuSans-80"/>
      <path d="M 34.28125 27.484375 
Q 23.390625 27.484375 19.1875 25 
Q 14.984375 22.515625 14.984375 16.5 
Q 14.984375 11.71875 18.140625 8.90625 
Q 21.296875 6.109375 26.703125 6.109375 
Q 34.1875 6.109375 38.703125 11.40625 
Q 43.21875 16.703125 43.21875 25.484375 
L 43.21875 27.484375 
z
M 52.203125 31.203125 
L 52.203125 0 
L 43.21875 0 
L 43.21875 8.296875 
Q 40.140625 3.328125 35.546875 0.953125 
Q 30.953125 -1.421875 24.3125 -1.421875 
Q 15.921875 -1.421875 10.953125 3.296875 
Q 6 8.015625 6 15.921875 
Q 6 25.140625 12.171875 29.828125 
Q 18.359375 34.515625 30.609375 34.515625 
L 43.21875 34.515625 
L 43.21875 35.40625 
Q 43.21875 41.609375 39.140625 45 
Q 35.0625 48.390625 27.6875 48.390625 
Q 23 48.390625 18.546875 47.265625 
Q 14.109375 46.140625 10.015625 43.890625 
L 10.015625 52.203125 
Q 14.9375 54.109375 19.578125 55.046875 
Q 24.21875 56 28.609375 56 
Q 40.484375 56 46.34375 49.84375 
Q 52.203125 43.703125 52.203125 31.203125 
z
" id="DejaVuSans-97"/>
      <path d="M 18.109375 8.203125 
L 18.109375 -20.796875 
L 9.078125 -20.796875 
L 9.078125 54.6875 
L 18.109375 54.6875 
L 18.109375 46.390625 
Q 20.953125 51.265625 25.265625 53.625 
Q 29.59375 56 35.59375 56 
Q 45.5625 56 51.78125 48.09375 
Q 58.015625 40.1875 58.015625 27.296875 
Q 58.015625 14.40625 51.78125 6.484375 
Q 45.5625 -1.421875 35.59375 -1.421875 
Q 29.59375 -1.421875 25.265625 0.953125 
Q 20.953125 3.328125 18.109375 8.203125 
z
M 48.6875 27.296875 
Q 48.6875 37.203125 44.609375 42.84375 
Q 40.53125 48.484375 33.40625 48.484375 
Q 26.265625 48.484375 22.1875 42.84375 
Q 18.109375 37.203125 18.109375 27.296875 
Q 18.109375 17.390625 22.1875 11.75 
Q 26.265625 6.109375 33.40625 6.109375 
Q 40.53125 6.109375 44.609375 11.75 
Q 48.6875 17.390625 48.6875 27.296875 
z
" id="DejaVuSans-112"/>
      <path d="M 2.984375 54.6875 
L 12.5 54.6875 
L 29.59375 8.796875 
L 46.6875 54.6875 
L 56.203125 54.6875 
L 35.6875 0 
L 23.484375 0 
z
" id="DejaVuSans-118"/>
      <path d="M 56.203125 29.59375 
L 56.203125 25.203125 
L 14.890625 25.203125 
Q 15.484375 15.921875 20.484375 11.0625 
Q 25.484375 6.203125 34.421875 6.203125 
Q 39.59375 6.203125 44.453125 7.46875 
Q 49.3125 8.734375 54.109375 11.28125 
L 54.109375 2.78125 
Q 49.265625 0.734375 44.1875 -0.34375 
Q 39.109375 -1.421875 33.890625 -1.421875 
Q 20.796875 -1.421875 13.15625 6.1875 
Q 5.515625 13.8125 5.515625 26.8125 
Q 5.515625 40.234375 12.765625 48.109375 
Q 20.015625 56 32.328125 56 
Q 43.359375 56 49.78125 48.890625 
Q 56.203125 41.796875 56.203125 29.59375 
z
M 47.21875 32.234375 
Q 47.125 39.59375 43.09375 43.984375 
Q 39.0625 48.390625 32.421875 48.390625 
Q 24.90625 48.390625 20.390625 44.140625 
Q 15.875 39.890625 15.1875 32.171875 
z
" id="DejaVuSans-101"/>
      <path d="M 41.109375 46.296875 
Q 39.59375 47.171875 37.8125 47.578125 
Q 36.03125 48 33.890625 48 
Q 26.265625 48 22.1875 43.046875 
Q 18.109375 38.09375 18.109375 28.8125 
L 18.109375 0 
L 9.078125 0 
L 9.078125 54.6875 
L 18.109375 54.6875 
L 18.109375 46.1875 
Q 20.953125 51.171875 25.484375 53.578125 
Q 30.03125 56 36.53125 56 
Q 37.453125 56 38.578125 55.875 
Q 39.703125 55.765625 41.0625 55.515625 
z
" id="DejaVuSans-114"/>
      <path d="M 9.421875 54.6875 
L 18.40625 54.6875 
L 18.40625 0 
L 9.421875 0 
z
M 9.421875 75.984375 
L 18.40625 75.984375 
L 18.40625 64.59375 
L 9.421875 64.59375 
z
" id="DejaVuSans-105"/>
      <path d="M 54.890625 33.015625 
L 54.890625 0 
L 45.90625 0 
L 45.90625 32.71875 
Q 45.90625 40.484375 42.875 44.328125 
Q 39.84375 48.1875 33.796875 48.1875 
Q 26.515625 48.1875 22.3125 43.546875 
Q 18.109375 38.921875 18.109375 30.90625 
L 18.109375 0 
L 9.078125 0 
L 9.078125 54.6875 
L 18.109375 54.6875 
L 18.109375 46.1875 
Q 21.34375 51.125 25.703125 53.5625 
Q 30.078125 56 35.796875 56 
Q 45.21875 56 50.046875 50.171875 
Q 54.890625 44.34375 54.890625 33.015625 
z
" id="DejaVuSans-110"/>
      <path id="DejaVuSans-32"/>
      <path d="M 31 75.875 
Q 24.46875 64.65625 21.28125 53.65625 
Q 18.109375 42.671875 18.109375 31.390625 
Q 18.109375 20.125 21.3125 9.0625 
Q 24.515625 -2 31 -13.1875 
L 23.1875 -13.1875 
Q 15.875 -1.703125 12.234375 9.375 
Q 8.59375 20.453125 8.59375 31.390625 
Q 8.59375 42.28125 12.203125 53.3125 
Q 15.828125 64.359375 23.1875 75.875 
z
" id="DejaVuSans-40"/>
      <path d="M 8.5 21.578125 
L 8.5 54.6875 
L 17.484375 54.6875 
L 17.484375 21.921875 
Q 17.484375 14.15625 20.5 10.265625 
Q 23.53125 6.390625 29.59375 6.390625 
Q 36.859375 6.390625 41.078125 11.03125 
Q 45.3125 15.671875 45.3125 23.6875 
L 45.3125 54.6875 
L 54.296875 54.6875 
L 54.296875 0 
L 45.3125 0 
L 45.3125 8.40625 
Q 42.046875 3.421875 37.71875 1 
Q 33.40625 -1.421875 27.6875 -1.421875 
Q 18.265625 -1.421875 13.375 4.4375 
Q 8.5 10.296875 8.5 21.578125 
z
M 31.109375 56 
z
" id="DejaVuSans-117"/>
      <path d="M 9.8125 72.90625 
L 24.515625 72.90625 
L 43.109375 23.296875 
L 61.8125 72.90625 
L 76.515625 72.90625 
L 76.515625 0 
L 66.890625 0 
L 66.890625 64.015625 
L 48.09375 14.015625 
L 38.1875 14.015625 
L 19.390625 64.015625 
L 19.390625 0 
L 9.8125 0 
z
" id="DejaVuSans-77"/>
      <path d="M 8.015625 75.875 
L 15.828125 75.875 
Q 23.140625 64.359375 26.78125 53.3125 
Q 30.421875 42.28125 30.421875 31.390625 
Q 30.421875 20.453125 26.78125 9.375 
Q 23.140625 -1.703125 15.828125 -13.1875 
L 8.015625 -13.1875 
Q 14.5 -2 17.703125 9.0625 
Q 20.90625 20.125 20.90625 31.390625 
Q 20.90625 42.671875 17.703125 53.65625 
Q 14.5 64.65625 8.015625 75.875 
z
" id="DejaVuSans-41"/>
     </defs>
     <g transform="translate(250.073438 463.7639)scale(0.2 -0.2)">
      <use xlink:href="#DejaVuSans-80"/>
      <use x="60.240234" xlink:href="#DejaVuSans-97"/>
      <use x="121.519531" xlink:href="#DejaVuSans-112"/>
      <use x="184.996094" xlink:href="#DejaVuSans-97"/>
      <use x="246.275391" xlink:href="#DejaVuSans-118"/>
      <use x="305.455078" xlink:href="#DejaVuSans-101"/>
      <use x="366.978516" xlink:href="#DejaVuSans-114"/>
      <use x="408.091797" xlink:href="#DejaVuSans-105"/>
      <use x="435.875" xlink:href="#DejaVuSans-110"/>
      <use x="499.253906" xlink:href="#DejaVuSans-101"/>
      <use x="560.777344" xlink:href="#DejaVuSans-32"/>
      <use x="592.564453" xlink:href="#DejaVuSans-40"/>
      <use x="631.578125" xlink:href="#DejaVuSans-117"/>
      <use x="694.957031" xlink:href="#DejaVuSans-77"/>
      <use x="781.236328" xlink:href="#DejaVuSans-41"/>
     </g>
    </g>
   </g>
   <g id="matplotlib.axis_2">
    <g id="ytick_1">
     <g id="line2d_41">
      <defs>
       <path d="M 0 0 
L -2 0 
" id="m088d21a9d6" style="stroke:#000000;"/>
      </defs>
      <g>
       <use style="stroke:#000000;" x="81" xlink:href="#m088d21a9d6" y="405.0648"/>
      </g>
     </g>
     <g id="text_6">
      <!-- 0 -->
      <g transform="translate(64.0475 411.903394)scale(0.18 -0.18)">
       <use xlink:href="#DejaVuSans-48"/>
      </g>
     </g>
    </g>
    <g id="ytick_2">
     <g id="line2d_42">
      <g>
       <use style="stroke:#000000;" x="81" xlink:href="#m088d21a9d6" y="349.654382"/>
      </g>
     </g>
     <g id="text_7">
      <!-- 1 -->
      <g transform="translate(64.0475 356.492976)scale(0.18 -0.18)">
       <use xlink:href="#DejaVuSans-49"/>
      </g>
     </g>
    </g>
    <g id="ytick_3">
     <g id="line2d_43">
      <g>
       <use style="stroke:#000000;" x="81" xlink:href="#m088d21a9d6" y="294.243965"/>
      </g>
     </g>
     <g id="text_8">
      <!-- 2 -->
      <defs>
       <path d="M 19.1875 8.296875 
L 53.609375 8.296875 
L 53.609375 0 
L 7.328125 0 
L 7.328125 8.296875 
Q 12.9375 14.109375 22.625 23.890625 
Q 32.328125 33.6875 34.8125 36.53125 
Q 39.546875 41.84375 41.421875 45.53125 
Q 43.3125 49.21875 43.3125 52.78125 
Q 43.3125 58.59375 39.234375 62.25 
Q 35.15625 65.921875 28.609375 65.921875 
Q 23.96875 65.921875 18.8125 64.3125 
Q 13.671875 62.703125 7.8125 59.421875 
L 7.8125 69.390625 
Q 13.765625 71.78125 18.9375 73 
Q 24.125 74.21875 28.421875 74.21875 
Q 39.75 74.21875 46.484375 68.546875 
Q 53.21875 62.890625 53.21875 53.421875 
Q 53.21875 48.921875 51.53125 44.890625 
Q 49.859375 40.875 45.40625 35.40625 
Q 44.1875 33.984375 37.640625 27.21875 
Q 31.109375 20.453125 19.1875 8.296875 
z
" id="DejaVuSans-50"/>
      </defs>
      <g transform="translate(64.0475 301.082558)scale(0.18 -0.18)">
       <use xlink:href="#DejaVuSans-50"/>
      </g>
     </g>
    </g>
    <g id="ytick_4">
     <g id="line2d_44">
      <g>
       <use style="stroke:#000000;" x="81" xlink:href="#m088d21a9d6" y="238.833547"/>
      </g>
     </g>
     <g id="text_9">
      <!-- 3 -->
      <defs>
       <path d="M 40.578125 39.3125 
Q 47.65625 37.796875 51.625 33 
Q 55.609375 28.21875 55.609375 21.1875 
Q 55.609375 10.40625 48.1875 4.484375 
Q 40.765625 -1.421875 27.09375 -1.421875 
Q 22.515625 -1.421875 17.65625 -0.515625 
Q 12.796875 0.390625 7.625 2.203125 
L 7.625 11.71875 
Q 11.71875 9.328125 16.59375 8.109375 
Q 21.484375 6.890625 26.8125 6.890625 
Q 36.078125 6.890625 40.9375 10.546875 
Q 45.796875 14.203125 45.796875 21.1875 
Q 45.796875 27.640625 41.28125 31.265625 
Q 36.765625 34.90625 28.71875 34.90625 
L 20.21875 34.90625 
L 20.21875 43.015625 
L 29.109375 43.015625 
Q 36.375 43.015625 40.234375 45.921875 
Q 44.09375 48.828125 44.09375 54.296875 
Q 44.09375 59.90625 40.109375 62.90625 
Q 36.140625 65.921875 28.71875 65.921875 
Q 24.65625 65.921875 20.015625 65.03125 
Q 15.375 64.15625 9.8125 62.3125 
L 9.8125 71.09375 
Q 15.4375 72.65625 20.34375 73.4375 
Q 25.25 74.21875 29.59375 74.21875 
Q 40.828125 74.21875 47.359375 69.109375 
Q 53.90625 64.015625 53.90625 55.328125 
Q 53.90625 49.265625 50.4375 45.09375 
Q 46.96875 40.921875 40.578125 39.3125 
z
" id="DejaVuSans-51"/>
      </defs>
      <g transform="translate(64.0475 245.672141)scale(0.18 -0.18)">
       <use xlink:href="#DejaVuSans-51"/>
      </g>
     </g>
    </g>
    <g id="ytick_5">
     <g id="line2d_45">
      <g>
       <use style="stroke:#000000;" x="81" xlink:href="#m088d21a9d6" y="183.423129"/>
      </g>
     </g>
     <g id="text_10">
      <!-- 4 -->
      <defs>
       <path d="M 37.796875 64.3125 
L 12.890625 25.390625 
L 37.796875 25.390625 
z
M 35.203125 72.90625 
L 47.609375 72.90625 
L 47.609375 25.390625 
L 58.015625 25.390625 
L 58.015625 17.1875 
L 47.609375 17.1875 
L 47.609375 0 
L 37.796875 0 
L 37.796875 17.1875 
L 4.890625 17.1875 
L 4.890625 26.703125 
z
" id="DejaVuSans-52"/>
      </defs>
      <g transform="translate(64.0475 190.261723)scale(0.18 -0.18)">
       <use xlink:href="#DejaVuSans-52"/>
      </g>
     </g>
    </g>
    <g id="ytick_6">
     <g id="line2d_46">
      <g>
       <use style="stroke:#000000;" x="81" xlink:href="#m088d21a9d6" y="128.012712"/>
      </g>
     </g>
     <g id="text_11">
      <!-- 5 -->
      <defs>
       <path d="M 10.796875 72.90625 
L 49.515625 72.90625 
L 49.515625 64.59375 
L 19.828125 64.59375 
L 19.828125 46.734375 
Q 21.96875 47.46875 24.109375 47.828125 
Q 26.265625 48.1875 28.421875 48.1875 
Q 40.625 48.1875 47.75 41.5 
Q 54.890625 34.8125 54.890625 23.390625 
Q 54.890625 11.625 47.5625 5.09375 
Q 40.234375 -1.421875 26.90625 -1.421875 
Q 22.3125 -1.421875 17.546875 -0.640625 
Q 12.796875 0.140625 7.71875 1.703125 
L 7.71875 11.625 
Q 12.109375 9.234375 16.796875 8.0625 
Q 21.484375 6.890625 26.703125 6.890625 
Q 35.15625 6.890625 40.078125 11.328125 
Q 45.015625 15.765625 45.015625 23.390625 
Q 45.015625 31 40.078125 35.4375 
Q 35.15625 39.890625 26.703125 39.890625 
Q 22.75 39.890625 18.8125 39.015625 
Q 14.890625 38.140625 10.796875 36.28125 
z
" id="DejaVuSans-53"/>
      </defs>
      <g transform="translate(64.0475 134.851306)scale(0.18 -0.18)">
       <use xlink:href="#DejaVuSans-53"/>
      </g>
     </g>
    </g>
    <g id="ytick_7">
     <g id="line2d_47">
      <g>
       <use style="stroke:#000000;" x="81" xlink:href="#m088d21a9d6" y="72.602294"/>
      </g>
     </g>
     <g id="text_12">
      <!-- 6 -->
      <defs>
       <path d="M 33.015625 40.375 
Q 26.375 40.375 22.484375 35.828125 
Q 18.609375 31.296875 18.609375 23.390625 
Q 18.609375 15.53125 22.484375 10.953125 
Q 26.375 6.390625 33.015625 6.390625 
Q 39.65625 6.390625 43.53125 10.953125 
Q 47.40625 15.53125 47.40625 23.390625 
Q 47.40625 31.296875 43.53125 35.828125 
Q 39.65625 40.375 33.015625 40.375 
z
M 52.59375 71.296875 
L 52.59375 62.3125 
Q 48.875 64.0625 45.09375 64.984375 
Q 41.3125 65.921875 37.59375 65.921875 
Q 27.828125 65.921875 22.671875 59.328125 
Q 17.53125 52.734375 16.796875 39.40625 
Q 19.671875 43.65625 24.015625 45.921875 
Q 28.375 48.1875 33.59375 48.1875 
Q 44.578125 48.1875 50.953125 41.515625 
Q 57.328125 34.859375 57.328125 23.390625 
Q 57.328125 12.15625 50.6875 5.359375 
Q 44.046875 -1.421875 33.015625 -1.421875 
Q 20.359375 -1.421875 13.671875 8.265625 
Q 6.984375 17.96875 6.984375 36.375 
Q 6.984375 53.65625 15.1875 63.9375 
Q 23.390625 74.21875 37.203125 74.21875 
Q 40.921875 74.21875 44.703125 73.484375 
Q 48.484375 72.75 52.59375 71.296875 
z
" id="DejaVuSans-54"/>
      </defs>
      <g transform="translate(64.0475 79.440888)scale(0.18 -0.18)">
       <use xlink:href="#DejaVuSans-54"/>
      </g>
     </g>
    </g>
    <g id="text_13">
     <!-- $(RFU/OD) \times 10^4$ -->
     <defs>
      <path d="M 25.203125 64.796875 
L 20.21875 38.921875 
L 32.90625 38.921875 
Q 40.375 38.921875 44.984375 43.046875 
Q 49.609375 47.171875 49.609375 53.8125 
Q 49.609375 59.125 46.5 61.953125 
Q 43.40625 64.796875 37.59375 64.796875 
z
M 43.3125 35.015625 
Q 46.4375 34.28125 48.515625 31.390625 
Q 50.59375 28.515625 53.328125 19.921875 
L 59.515625 0 
L 49.125 0 
L 43.40625 18.703125 
Q 41.21875 25.921875 38.328125 28.359375 
Q 35.453125 30.8125 29.5 30.8125 
L 18.609375 30.8125 
L 12.59375 0 
L 2.6875 0 
L 16.890625 72.90625 
L 39.109375 72.90625 
Q 49.21875 72.90625 54.609375 68.328125 
Q 60.015625 63.765625 60.015625 55.171875 
Q 60.015625 47.5625 55.421875 41.984375 
Q 50.828125 36.421875 43.3125 35.015625 
z
" id="DejaVuSans-Oblique-82"/>
      <path d="M 16.890625 72.90625 
L 58.6875 72.90625 
L 57.078125 64.59375 
L 25.09375 64.59375 
L 20.90625 43.109375 
L 49.8125 43.109375 
L 48.1875 34.8125 
L 19.28125 34.8125 
L 12.5 0 
L 2.6875 0 
z
" id="DejaVuSans-Oblique-70"/>
      <path d="M 15.484375 72.90625 
L 25.390625 72.90625 
L 16.796875 28.609375 
Q 16.265625 25.640625 16.046875 23.703125 
Q 15.828125 21.78125 15.828125 20.3125 
Q 15.828125 13.578125 19.578125 10.078125 
Q 23.34375 6.59375 30.609375 6.59375 
Q 40.046875 6.59375 45.28125 11.765625 
Q 50.53125 16.9375 52.78125 28.609375 
L 61.375 72.90625 
L 71.296875 72.90625 
L 62.5 27.390625 
Q 59.625 12.640625 51.5625 5.609375 
Q 43.5 -1.421875 29.5 -1.421875 
Q 18.5625 -1.421875 12.1875 4.078125 
Q 5.8125 9.578125 5.8125 19 
Q 5.8125 20.703125 6.046875 22.828125 
Q 6.296875 24.953125 6.78125 27.390625 
z
" id="DejaVuSans-Oblique-85"/>
      <path d="M 25.390625 72.90625 
L 33.6875 72.90625 
L 8.296875 -9.28125 
L 0 -9.28125 
z
" id="DejaVuSans-47"/>
      <path d="M 45.609375 66.21875 
Q 37.5 66.21875 31.296875 62.28125 
Q 25.09375 58.34375 20.515625 50.296875 
Q 17.578125 45.171875 16.03125 39.40625 
Q 14.5 33.640625 14.5 27.78125 
Q 14.5 17.625 19.359375 12.109375 
Q 24.21875 6.59375 33.109375 6.59375 
Q 41.109375 6.59375 47.375 10.5625 
Q 53.65625 14.546875 58.109375 22.40625 
Q 61.078125 27.6875 62.640625 33.46875 
Q 64.203125 39.265625 64.203125 45.015625 
Q 64.203125 55.125 59.3125 60.671875 
Q 54.4375 66.21875 45.609375 66.21875 
z
M 32.8125 -1.421875 
Q 19.390625 -1.421875 11.6875 6.53125 
Q 4 14.5 4 28.328125 
Q 4 36.234375 7 44.484375 
Q 10.015625 52.734375 15.28125 59.1875 
Q 21.484375 66.75 29.09375 70.484375 
Q 36.71875 74.21875 45.90625 74.21875 
Q 59.28125 74.21875 66.984375 66.328125 
Q 74.703125 58.453125 74.703125 44.828125 
Q 74.703125 36.421875 71.765625 28.3125 
Q 68.84375 20.21875 63.375 13.625 
Q 57.125 6 49.578125 2.28125 
Q 42.046875 -1.421875 32.8125 -1.421875 
z
" id="DejaVuSans-Oblique-79"/>
      <path d="M 16.890625 72.90625 
L 38.09375 72.90625 
Q 54.984375 72.90625 63.59375 65.75 
Q 72.21875 58.59375 72.21875 44.484375 
Q 72.21875 35.15625 68.9375 26.53125 
Q 65.671875 17.921875 59.90625 12.015625 
Q 54.109375 5.953125 45.171875 2.96875 
Q 36.234375 0 24.03125 0 
L 2.6875 0 
z
M 25.203125 64.796875 
L 14.203125 8.109375 
L 27.09375 8.109375 
Q 43.65625 8.109375 52.734375 17.625 
Q 61.8125 27.15625 61.8125 44.484375 
Q 61.8125 54.984375 55.953125 59.890625 
Q 50.09375 64.796875 37.59375 64.796875 
z
" id="DejaVuSans-Oblique-68"/>
      <path d="M 70.125 53.71875 
L 47.796875 31.296875 
L 70.125 8.984375 
L 64.3125 3.078125 
L 41.890625 25.484375 
L 19.484375 3.078125 
L 13.71875 8.984375 
L 35.984375 31.296875 
L 13.71875 53.71875 
L 19.484375 59.625 
L 41.890625 37.203125 
L 64.3125 59.625 
z
" id="DejaVuSans-215"/>
     </defs>
     <g transform="translate(55.888125 315.8488)rotate(-90)scale(0.2 -0.2)">
      <use transform="translate(0 0.684375)" xlink:href="#DejaVuSans-40"/>
      <use transform="translate(39.013672 0.684375)" xlink:href="#DejaVuSans-Oblique-82"/>
      <use transform="translate(108.496094 0.684375)" xlink:href="#DejaVuSans-Oblique-70"/>
      <use transform="translate(166.015625 0.684375)" xlink:href="#DejaVuSans-Oblique-85"/>
      <use transform="translate(239.208984 0.684375)" xlink:href="#DejaVuSans-47"/>
      <use transform="translate(272.900391 0.684375)" xlink:href="#DejaVuSans-Oblique-79"/>
      <use transform="translate(351.611328 0.684375)" xlink:href="#DejaVuSans-Oblique-68"/>
      <use transform="translate(428.613281 0.684375)" xlink:href="#DejaVuSans-41"/>
      <use transform="translate(487.109375 0.684375)" xlink:href="#DejaVuSans-215"/>
      <use transform="translate(590.380859 0.684375)" xlink:href="#DejaVuSans-49"/>
      <use transform="translate(654.003906 0.684375)" xlink:href="#DejaVuSans-48"/>
      <use transform="translate(718.583984 38.965625)scale(0.7)" xlink:href="#DejaVuSans-52"/>
     </g>
    </g>
   </g>
   <g id="line2d_48">
    <path clip-path="url(#p45acd06a14)" d="M 70.425164 403.189739 
L 202.559591 402.439527 
L 311.757491 401.59774 
L 407.166012 400.644067 
L 492.034782 399.577383 
L 550.350088 398.698751 
L 550.350088 398.698751 
" style="fill:none;stroke:#0099ff;stroke-linecap:square;stroke-width:1.5;"/>
   </g>
   <g id="line2d_49">
    <path clip-path="url(#p45acd06a14)" d="M 70.425164 405.064305 
L 306.610266 404.950171 
L 355.718389 404.709166 
L 386.025116 404.349548 
L 408.147575 403.873649 
L 425.630584 403.282337 
L 440.098502 402.576602 
L 452.455981 401.756401 
L 463.247677 400.821801 
L 472.831791 399.772594 
L 481.457444 398.608203 
L 489.305386 397.327606 
L 496.508236 395.929892 
L 503.171599 394.412999 
L 509.377339 392.774575 
L 515.190311 391.011966 
L 520.664617 389.121544 
L 525.844971 387.09899 
L 530.76874 384.939263 
L 535.467464 382.636581 
L 539.969164 380.183713 
L 544.297078 377.57296 
L 548.472155 374.795112 
L 550.350088 373.455762 
L 550.350088 373.455762 
" style="fill:none;stroke:#3372cc;stroke-linecap:square;stroke-width:1.5;"/>
   </g>
   <g id="line2d_50">
    <path clip-path="url(#p45acd06a14)" d="M 70.425164 404.983763 
L 157.275607 404.755591 
L 206.071746 404.408653 
L 240.58472 403.94766 
L 267.524634 403.3724 
L 289.729763 402.681419 
L 308.596826 401.876704 
L 325.00769 400.958771 
L 339.541259 399.927417 
L 352.594445 398.782063 
L 364.450134 397.521922 
L 375.316708 396.146092 
L 385.336594 394.656083 
L 394.64045 393.050519 
L 403.340173 391.325869 
L 411.50232 389.483333 
L 419.20049 387.519658 
L 426.492051 385.431981 
L 433.417301 383.219624 
L 440.020785 380.878257 
L 446.337612 378.404039 
L 452.399857 375.791847 
L 458.229567 373.038748 
L 463.851297 370.1389 
L 469.287065 367.085535 
L 474.556384 363.87109 
L 479.672193 360.490213 
L 484.652635 356.932425 
L 489.509432 353.189659 
L 494.254664 349.251948 
L 498.898687 345.108971 
L 503.452906 340.74758 
L 507.925359 336.155859 
L 512.323757 331.320581 
L 516.656222 326.226203 
L 520.928983 320.857455 
L 525.148376 315.197086 
L 529.319015 309.228302 
L 533.446202 302.93154 
L 537.534774 296.28585 
L 541.588425 289.270101 
L 545.610933 281.861048 
L 549.605413 274.034574 
L 550.350088 272.521455 
L 550.350088 272.521455 
" style="fill:none;stroke:#674c9a;stroke-linecap:square;stroke-width:1.5;"/>
   </g>
   <g id="line2d_51">
    <path clip-path="url(#p45acd06a14)" d="M 70.425164 405.05244 
L 178.350337 404.906505 
L 220.544517 404.636128 
L 247.843576 404.248702 
L 268.259415 403.744882 
L 284.594639 403.127017 
L 298.293107 402.392834 
L 310.128217 401.540619 
L 320.56771 400.569233 
L 329.868689 399.484531 
L 338.310218 398.280215 
L 346.076774 396.950131 
L 353.266256 395.495039 
L 359.957097 393.916255 
L 366.259135 392.202197 
L 372.208541 390.355098 
L 377.874073 388.364329 
L 383.289428 386.226606 
L 388.496264 383.932666 
L 393.525584 381.47416 
L 398.400731 378.843805 
L 403.150054 376.028979 
L 407.803458 373.012193 
L 412.372736 369.784563 
L 416.881794 366.326724 
L 421.353385 362.616304 
L 425.80151 358.635031 
L 430.245651 354.35733 
L 434.707195 349.752264 
L 439.206867 344.785843 
L 443.767436 339.41822 
L 448.418568 333.597146 
L 453.190646 327.264639 
L 458.130149 320.335907 
L 463.295299 312.702133 
L 468.775735 304.198786 
L 474.715623 294.563316 
L 481.39657 283.289343 
L 489.555605 269.061918 
L 518.209993 218.690136 
L 524.750673 207.888633 
L 530.608714 198.635534 
L 536.041385 190.463343 
L 541.182442 183.12584 
L 546.114215 176.469705 
L 550.350088 171.061651 
L 550.350088 171.061651 
" style="fill:none;stroke:#9a2667;stroke-linecap:square;stroke-width:1.5;"/>
   </g>
   <g id="line2d_52">
    <path clip-path="url(#p45acd06a14)" d="M 70.425164 405.060567 
L 185.13223 404.934854 
L 221.040777 404.685459 
L 243.745385 404.318437 
L 260.557252 403.833632 
L 273.922379 403.233126 
L 285.108383 402.512266 
L 294.676679 401.676571 
L 303.073134 400.723417 
L 310.578148 399.65017 
L 317.379939 398.454359 
L 323.554507 397.146887 
L 329.268778 395.713878 
L 334.6379 394.139537 
L 339.662623 392.435891 
L 344.425054 390.58717 
L 348.951997 388.591934 
L 353.266256 386.449422 
L 357.442967 384.126955 
L 361.460099 381.639829 
L 365.375009 378.954841 
L 369.208152 376.054798 
L 372.954893 372.940337 
L 376.649678 369.578447 
L 380.300475 365.954226 
L 383.928796 362.036507 
L 387.534984 357.81381 
L 391.145828 353.241513 
L 394.77956 348.27846 
L 398.447503 342.888485 
L 402.166241 337.024374 
L 405.95467 330.630655 
L 409.840842 323.630363 
L 413.856416 315.932014 
L 418.039864 307.42296 
L 422.443568 297.953526 
L 427.166298 287.260363 
L 432.366353 274.922101 
L 438.393822 260.02622 
L 446.473565 239.41458 
L 461.811663 200.206311 
L 467.9713 185.1514 
L 473.233896 172.862239 
L 478.002814 162.279453 
L 482.450738 152.94077 
L 486.671454 144.587977 
L 490.727265 137.047581 
L 494.65697 130.204785 
L 498.492753 123.966445 
L 502.26003 118.259281 
L 505.977557 113.026903 
L 509.663367 108.219373 
L 513.333179 103.794893 
L 517.003273 99.715661 
L 520.687664 95.950761 
L 524.400436 92.472873 
L 528.157784 89.256389 
L 531.976115 86.279314 
L 535.872511 83.522614 
L 539.866396 80.968984 
L 543.978839 78.603504 
L 548.233394 76.413156 
L 550.350088 75.413117 
L 550.350088 75.413117 
" style="fill:none;stroke:#ce0035;stroke-linecap:square;stroke-width:1.5;"/>
   </g>
   <g id="line2d_53">
    <defs>
     <path d="M 0 3 
C 0.795609 3 1.55874 2.683901 2.12132 2.12132 
C 2.683901 1.55874 3 0.795609 3 0 
C 3 -0.795609 2.683901 -1.55874 2.12132 -2.12132 
C 1.55874 -2.683901 0.795609 -3 0 -3 
C -0.795609 -3 -1.55874 -2.683901 -2.12132 -2.12132 
C -2.683901 -1.55874 -3 -0.795609 -3 0 
C -3 0.795609 -2.683901 1.55874 -2.12132 2.12132 
C -1.55874 2.683901 -0.795609 3 0 3 
z
" id="mb4cf1e9766" style="stroke:#0099ff;"/>
    </defs>
    <g clip-path="url(#p45acd06a14)">
     <use style="fill:#0099ff;stroke:#0099ff;" x="-1" xlink:href="#mb4cf1e9766" y="401.862364"/>
     <use style="fill:#0099ff;stroke:#0099ff;" x="179.549735" xlink:href="#mb4cf1e9766" y="401.862369"/>
     <use style="fill:#0099ff;stroke:#0099ff;" x="222.974956" xlink:href="#mb4cf1e9766" y="401.856722"/>
     <use style="fill:#0099ff;stroke:#0099ff;" x="255.824867" xlink:href="#mb4cf1e9766" y="401.764238"/>
     <use style="fill:#0099ff;stroke:#0099ff;" x="288.674779" xlink:href="#mb4cf1e9766" y="401.82837"/>
     <use style="fill:#0099ff;stroke:#0099ff;" x="332.1" xlink:href="#mb4cf1e9766" y="401.779921"/>
     <use style="fill:#0099ff;stroke:#0099ff;" x="364.949912" xlink:href="#mb4cf1e9766" y="401.819903"/>
     <use style="fill:#0099ff;stroke:#0099ff;" x="397.799823" xlink:href="#mb4cf1e9766" y="401.705403"/>
     <use style="fill:#0099ff;stroke:#0099ff;" x="441.225044" xlink:href="#mb4cf1e9766" y="401.25503"/>
     <use style="fill:#0099ff;stroke:#0099ff;" x="474.074956" xlink:href="#mb4cf1e9766" y="400.784086"/>
     <use style="fill:#0099ff;stroke:#0099ff;" x="506.924867" xlink:href="#mb4cf1e9766" y="399.963317"/>
     <use style="fill:#0099ff;stroke:#0099ff;" x="550.350088" xlink:href="#mb4cf1e9766" y="397.356543"/>
    </g>
   </g>
   <g id="line2d_54">
    <g clip-path="url(#p45acd06a14)">
     <use style="fill:#0099ff;stroke:#0099ff;" x="-1" xlink:href="#mb4cf1e9766" y="401.880299"/>
     <use style="fill:#0099ff;stroke:#0099ff;" x="179.549735" xlink:href="#mb4cf1e9766" y="401.880228"/>
     <use style="fill:#0099ff;stroke:#0099ff;" x="222.974956" xlink:href="#mb4cf1e9766" y="401.71326"/>
     <use style="fill:#0099ff;stroke:#0099ff;" x="255.824867" xlink:href="#mb4cf1e9766" y="401.83317"/>
     <use style="fill:#0099ff;stroke:#0099ff;" x="288.674779" xlink:href="#mb4cf1e9766" y="401.620365"/>
     <use style="fill:#0099ff;stroke:#0099ff;" x="332.1" xlink:href="#mb4cf1e9766" y="401.905039"/>
     <use style="fill:#0099ff;stroke:#0099ff;" x="364.949912" xlink:href="#mb4cf1e9766" y="401.779024"/>
     <use style="fill:#0099ff;stroke:#0099ff;" x="397.799823" xlink:href="#mb4cf1e9766" y="401.749089"/>
     <use style="fill:#0099ff;stroke:#0099ff;" x="441.225044" xlink:href="#mb4cf1e9766" y="401.232682"/>
     <use style="fill:#0099ff;stroke:#0099ff;" x="474.074956" xlink:href="#mb4cf1e9766" y="400.578942"/>
     <use style="fill:#0099ff;stroke:#0099ff;" x="506.924867" xlink:href="#mb4cf1e9766" y="399.963907"/>
     <use style="fill:#0099ff;stroke:#0099ff;" x="550.350088" xlink:href="#mb4cf1e9766" y="397.330731"/>
    </g>
   </g>
   <g id="line2d_55">
    <g clip-path="url(#p45acd06a14)">
     <use style="fill:#0099ff;stroke:#0099ff;" x="-1" xlink:href="#mb4cf1e9766" y="401.640428"/>
     <use style="fill:#0099ff;stroke:#0099ff;" x="179.549735" xlink:href="#mb4cf1e9766" y="401.640682"/>
     <use style="fill:#0099ff;stroke:#0099ff;" x="222.974956" xlink:href="#mb4cf1e9766" y="401.274864"/>
     <use style="fill:#0099ff;stroke:#0099ff;" x="255.824867" xlink:href="#mb4cf1e9766" y="401.287382"/>
     <use style="fill:#0099ff;stroke:#0099ff;" x="288.674779" xlink:href="#mb4cf1e9766" y="401.265003"/>
     <use style="fill:#0099ff;stroke:#0099ff;" x="332.1" xlink:href="#mb4cf1e9766" y="401.407253"/>
     <use style="fill:#0099ff;stroke:#0099ff;" x="364.949912" xlink:href="#mb4cf1e9766" y="401.347403"/>
     <use style="fill:#0099ff;stroke:#0099ff;" x="397.799823" xlink:href="#mb4cf1e9766" y="400.936352"/>
     <use style="fill:#0099ff;stroke:#0099ff;" x="441.225044" xlink:href="#mb4cf1e9766" y="400.917347"/>
     <use style="fill:#0099ff;stroke:#0099ff;" x="474.074956" xlink:href="#mb4cf1e9766" y="399.893563"/>
     <use style="fill:#0099ff;stroke:#0099ff;" x="506.924867" xlink:href="#mb4cf1e9766" y="399.490425"/>
     <use style="fill:#0099ff;stroke:#0099ff;" x="550.350088" xlink:href="#mb4cf1e9766" y="396.521293"/>
    </g>
   </g>
   <g id="line2d_56">
    <defs>
     <path d="M 0 3 
C 0.795609 3 1.55874 2.683901 2.12132 2.12132 
C 2.683901 1.55874 3 0.795609 3 0 
C 3 -0.795609 2.683901 -1.55874 2.12132 -2.12132 
C 1.55874 -2.683901 0.795609 -3 0 -3 
C -0.795609 -3 -1.55874 -2.683901 -2.12132 -2.12132 
C -2.683901 -1.55874 -3 -0.795609 -3 0 
C -3 0.795609 -2.683901 1.55874 -2.12132 2.12132 
C -1.55874 2.683901 -0.795609 3 0 3 
z
" id="m837c552c69" style="stroke:#3372cc;"/>
    </defs>
    <g clip-path="url(#p45acd06a14)">
     <use style="fill:#3372cc;stroke:#3372cc;" x="-1" xlink:href="#m837c552c69" y="403.574121"/>
     <use style="fill:#3372cc;stroke:#3372cc;" x="179.549735" xlink:href="#m837c552c69" y="403.574429"/>
     <use style="fill:#3372cc;stroke:#3372cc;" x="222.974956" xlink:href="#m837c552c69" y="403.472855"/>
     <use style="fill:#3372cc;stroke:#3372cc;" x="255.824867" xlink:href="#m837c552c69" y="403.327864"/>
     <use style="fill:#3372cc;stroke:#3372cc;" x="288.674779" xlink:href="#m837c552c69" y="403.239204"/>
     <use style="fill:#3372cc;stroke:#3372cc;" x="332.1" xlink:href="#m837c552c69" y="403.382215"/>
     <use style="fill:#3372cc;stroke:#3372cc;" x="364.949912" xlink:href="#m837c552c69" y="403.089601"/>
     <use style="fill:#3372cc;stroke:#3372cc;" x="397.799823" xlink:href="#m837c552c69" y="402.865182"/>
     <use style="fill:#3372cc;stroke:#3372cc;" x="441.225044" xlink:href="#m837c552c69" y="401.732734"/>
     <use style="fill:#3372cc;stroke:#3372cc;" x="474.074956" xlink:href="#m837c552c69" y="399.878297"/>
     <use style="fill:#3372cc;stroke:#3372cc;" x="506.924867" xlink:href="#m837c552c69" y="394.475874"/>
     <use style="fill:#3372cc;stroke:#3372cc;" x="550.350088" xlink:href="#m837c552c69" y="373.1486"/>
    </g>
   </g>
   <g id="line2d_57">
    <g clip-path="url(#p45acd06a14)">
     <use style="fill:#3372cc;stroke:#3372cc;" x="-1" xlink:href="#m837c552c69" y="403.298141"/>
     <use style="fill:#3372cc;stroke:#3372cc;" x="179.549735" xlink:href="#m837c552c69" y="403.297669"/>
     <use style="fill:#3372cc;stroke:#3372cc;" x="222.974956" xlink:href="#m837c552c69" y="403.452723"/>
     <use style="fill:#3372cc;stroke:#3372cc;" x="255.824867" xlink:href="#m837c552c69" y="403.38079"/>
     <use style="fill:#3372cc;stroke:#3372cc;" x="288.674779" xlink:href="#m837c552c69" y="403.357699"/>
     <use style="fill:#3372cc;stroke:#3372cc;" x="332.1" xlink:href="#m837c552c69" y="403.200763"/>
     <use style="fill:#3372cc;stroke:#3372cc;" x="364.949912" xlink:href="#m837c552c69" y="403.159772"/>
     <use style="fill:#3372cc;stroke:#3372cc;" x="397.799823" xlink:href="#m837c552c69" y="402.698728"/>
     <use style="fill:#3372cc;stroke:#3372cc;" x="441.225044" xlink:href="#m837c552c69" y="401.744596"/>
     <use style="fill:#3372cc;stroke:#3372cc;" x="474.074956" xlink:href="#m837c552c69" y="399.878236"/>
     <use style="fill:#3372cc;stroke:#3372cc;" x="506.924867" xlink:href="#m837c552c69" y="394.136812"/>
     <use style="fill:#3372cc;stroke:#3372cc;" x="550.350088" xlink:href="#m837c552c69" y="371.466414"/>
    </g>
   </g>
   <g id="line2d_58">
    <g clip-path="url(#p45acd06a14)">
     <use style="fill:#3372cc;stroke:#3372cc;" x="-1" xlink:href="#m837c552c69" y="403.561366"/>
     <use style="fill:#3372cc;stroke:#3372cc;" x="179.549735" xlink:href="#m837c552c69" y="403.561484"/>
     <use style="fill:#3372cc;stroke:#3372cc;" x="222.974956" xlink:href="#m837c552c69" y="403.237692"/>
     <use style="fill:#3372cc;stroke:#3372cc;" x="255.824867" xlink:href="#m837c552c69" y="403.496606"/>
     <use style="fill:#3372cc;stroke:#3372cc;" x="288.674779" xlink:href="#m837c552c69" y="403.473537"/>
     <use style="fill:#3372cc;stroke:#3372cc;" x="332.1" xlink:href="#m837c552c69" y="403.212207"/>
     <use style="fill:#3372cc;stroke:#3372cc;" x="364.949912" xlink:href="#m837c552c69" y="403.174771"/>
     <use style="fill:#3372cc;stroke:#3372cc;" x="397.799823" xlink:href="#m837c552c69" y="402.759898"/>
     <use style="fill:#3372cc;stroke:#3372cc;" x="441.225044" xlink:href="#m837c552c69" y="401.824502"/>
     <use style="fill:#3372cc;stroke:#3372cc;" x="474.074956" xlink:href="#m837c552c69" y="399.785124"/>
     <use style="fill:#3372cc;stroke:#3372cc;" x="506.924867" xlink:href="#m837c552c69" y="395.072856"/>
     <use style="fill:#3372cc;stroke:#3372cc;" x="550.350088" xlink:href="#m837c552c69" y="374.823083"/>
    </g>
   </g>
   <g id="line2d_59">
    <defs>
     <path d="M 0 3 
C 0.795609 3 1.55874 2.683901 2.12132 2.12132 
C 2.683901 1.55874 3 0.795609 3 0 
C 3 -0.795609 2.683901 -1.55874 2.12132 -2.12132 
C 1.55874 -2.683901 0.795609 -3 0 -3 
C -0.795609 -3 -1.55874 -2.683901 -2.12132 -2.12132 
C -2.683901 -1.55874 -3 -0.795609 -3 0 
C -3 0.795609 -2.683901 1.55874 -2.12132 2.12132 
C -1.55874 2.683901 -0.795609 3 0 3 
z
" id="md19c46936f" style="stroke:#674c9a;"/>
    </defs>
    <g clip-path="url(#p45acd06a14)">
     <use style="fill:#674c9a;stroke:#674c9a;" x="-1" xlink:href="#md19c46936f" y="397.524493"/>
     <use style="fill:#674c9a;stroke:#674c9a;" x="179.549735" xlink:href="#md19c46936f" y="397.524264"/>
     <use style="fill:#674c9a;stroke:#674c9a;" x="222.974956" xlink:href="#md19c46936f" y="397.396901"/>
     <use style="fill:#674c9a;stroke:#674c9a;" x="255.824867" xlink:href="#md19c46936f" y="397.250469"/>
     <use style="fill:#674c9a;stroke:#674c9a;" x="288.674779" xlink:href="#md19c46936f" y="397.105357"/>
     <use style="fill:#674c9a;stroke:#674c9a;" x="332.1" xlink:href="#md19c46936f" y="396.594579"/>
     <use style="fill:#674c9a;stroke:#674c9a;" x="364.949912" xlink:href="#md19c46936f" y="395.720707"/>
     <use style="fill:#674c9a;stroke:#674c9a;" x="397.799823" xlink:href="#md19c46936f" y="393.009417"/>
     <use style="fill:#674c9a;stroke:#674c9a;" x="441.225044" xlink:href="#md19c46936f" y="385.648484"/>
     <use style="fill:#674c9a;stroke:#674c9a;" x="474.074956" xlink:href="#md19c46936f" y="368.247324"/>
     <use style="fill:#674c9a;stroke:#674c9a;" x="506.924867" xlink:href="#md19c46936f" y="330.066945"/>
     <use style="fill:#674c9a;stroke:#674c9a;" x="550.350088" xlink:href="#md19c46936f" y="274.946959"/>
    </g>
   </g>
   <g id="line2d_60">
    <g clip-path="url(#p45acd06a14)">
     <use style="fill:#674c9a;stroke:#674c9a;" x="-1" xlink:href="#md19c46936f" y="397.47731"/>
     <use style="fill:#674c9a;stroke:#674c9a;" x="179.549735" xlink:href="#md19c46936f" y="397.4773"/>
     <use style="fill:#674c9a;stroke:#674c9a;" x="222.974956" xlink:href="#md19c46936f" y="397.548808"/>
     <use style="fill:#674c9a;stroke:#674c9a;" x="255.824867" xlink:href="#md19c46936f" y="397.312663"/>
     <use style="fill:#674c9a;stroke:#674c9a;" x="288.674779" xlink:href="#md19c46936f" y="397.285898"/>
     <use style="fill:#674c9a;stroke:#674c9a;" x="332.1" xlink:href="#md19c46936f" y="396.781815"/>
     <use style="fill:#674c9a;stroke:#674c9a;" x="364.949912" xlink:href="#md19c46936f" y="395.638756"/>
     <use style="fill:#674c9a;stroke:#674c9a;" x="397.799823" xlink:href="#md19c46936f" y="393.560504"/>
     <use style="fill:#674c9a;stroke:#674c9a;" x="441.225044" xlink:href="#md19c46936f" y="385.679946"/>
     <use style="fill:#674c9a;stroke:#674c9a;" x="474.074956" xlink:href="#md19c46936f" y="370.679496"/>
     <use style="fill:#674c9a;stroke:#674c9a;" x="506.924867" xlink:href="#md19c46936f" y="336.52331"/>
     <use style="fill:#674c9a;stroke:#674c9a;" x="550.350088" xlink:href="#md19c46936f" y="277.195354"/>
    </g>
   </g>
   <g id="line2d_61">
    <g clip-path="url(#p45acd06a14)">
     <use style="fill:#674c9a;stroke:#674c9a;" x="-1" xlink:href="#md19c46936f" y="398.252086"/>
     <use style="fill:#674c9a;stroke:#674c9a;" x="179.549735" xlink:href="#md19c46936f" y="398.25172"/>
     <use style="fill:#674c9a;stroke:#674c9a;" x="222.974956" xlink:href="#md19c46936f" y="397.768103"/>
     <use style="fill:#674c9a;stroke:#674c9a;" x="255.824867" xlink:href="#md19c46936f" y="397.484739"/>
     <use style="fill:#674c9a;stroke:#674c9a;" x="288.674779" xlink:href="#md19c46936f" y="397.155215"/>
     <use style="fill:#674c9a;stroke:#674c9a;" x="332.1" xlink:href="#md19c46936f" y="396.438964"/>
     <use style="fill:#674c9a;stroke:#674c9a;" x="364.949912" xlink:href="#md19c46936f" y="395.29417"/>
     <use style="fill:#674c9a;stroke:#674c9a;" x="397.799823" xlink:href="#md19c46936f" y="392.750108"/>
     <use style="fill:#674c9a;stroke:#674c9a;" x="441.225044" xlink:href="#md19c46936f" y="384.245373"/>
     <use style="fill:#674c9a;stroke:#674c9a;" x="474.074956" xlink:href="#md19c46936f" y="367.105393"/>
     <use style="fill:#674c9a;stroke:#674c9a;" x="506.924867" xlink:href="#md19c46936f" y="332.254286"/>
     <use style="fill:#674c9a;stroke:#674c9a;" x="550.350088" xlink:href="#md19c46936f" y="266.380605"/>
    </g>
   </g>
   <g id="line2d_62">
    <defs>
     <path d="M 0 3 
C 0.795609 3 1.55874 2.683901 2.12132 2.12132 
C 2.683901 1.55874 3 0.795609 3 0 
C 3 -0.795609 2.683901 -1.55874 2.12132 -2.12132 
C 1.55874 -2.683901 0.795609 -3 0 -3 
C -0.795609 -3 -1.55874 -2.683901 -2.12132 -2.12132 
C -2.683901 -1.55874 -3 -0.795609 -3 0 
C -3 0.795609 -2.683901 1.55874 -2.12132 2.12132 
C -1.55874 2.683901 -0.795609 3 0 3 
z
" id="m48200fbb4c" style="stroke:#9a2667;"/>
    </defs>
    <g clip-path="url(#p45acd06a14)">
     <use style="fill:#9a2667;stroke:#9a2667;" x="-1" xlink:href="#m48200fbb4c" y="397.179648"/>
     <use style="fill:#9a2667;stroke:#9a2667;" x="179.549735" xlink:href="#m48200fbb4c" y="397.179012"/>
     <use style="fill:#9a2667;stroke:#9a2667;" x="222.974956" xlink:href="#m48200fbb4c" y="396.822743"/>
     <use style="fill:#9a2667;stroke:#9a2667;" x="255.824867" xlink:href="#m48200fbb4c" y="396.257846"/>
     <use style="fill:#9a2667;stroke:#9a2667;" x="288.674779" xlink:href="#m48200fbb4c" y="395.655833"/>
     <use style="fill:#9a2667;stroke:#9a2667;" x="332.1" xlink:href="#m48200fbb4c" y="394.042323"/>
     <use style="fill:#9a2667;stroke:#9a2667;" x="364.949912" xlink:href="#m48200fbb4c" y="389.95759"/>
     <use style="fill:#9a2667;stroke:#9a2667;" x="397.799823" xlink:href="#m48200fbb4c" y="380.716747"/>
     <use style="fill:#9a2667;stroke:#9a2667;" x="441.225044" xlink:href="#m48200fbb4c" y="346.698701"/>
     <use style="fill:#9a2667;stroke:#9a2667;" x="474.074956" xlink:href="#m48200fbb4c" y="298.842577"/>
     <use style="fill:#9a2667;stroke:#9a2667;" x="506.924867" xlink:href="#m48200fbb4c" y="234.027719"/>
     <use style="fill:#9a2667;stroke:#9a2667;" x="550.350088" xlink:href="#m48200fbb4c" y="173.781072"/>
    </g>
   </g>
   <g id="line2d_63">
    <g clip-path="url(#p45acd06a14)">
     <use style="fill:#9a2667;stroke:#9a2667;" x="-1" xlink:href="#m48200fbb4c" y="397.258312"/>
     <use style="fill:#9a2667;stroke:#9a2667;" x="179.549735" xlink:href="#m48200fbb4c" y="397.257731"/>
     <use style="fill:#9a2667;stroke:#9a2667;" x="222.974956" xlink:href="#m48200fbb4c" y="397.03455"/>
     <use style="fill:#9a2667;stroke:#9a2667;" x="255.824867" xlink:href="#m48200fbb4c" y="396.568318"/>
     <use style="fill:#9a2667;stroke:#9a2667;" x="288.674779" xlink:href="#m48200fbb4c" y="396.161855"/>
     <use style="fill:#9a2667;stroke:#9a2667;" x="332.1" xlink:href="#m48200fbb4c" y="394.638075"/>
     <use style="fill:#9a2667;stroke:#9a2667;" x="364.949912" xlink:href="#m48200fbb4c" y="390.406078"/>
     <use style="fill:#9a2667;stroke:#9a2667;" x="397.799823" xlink:href="#m48200fbb4c" y="380.272563"/>
     <use style="fill:#9a2667;stroke:#9a2667;" x="441.225044" xlink:href="#m48200fbb4c" y="342.837579"/>
     <use style="fill:#9a2667;stroke:#9a2667;" x="474.074956" xlink:href="#m48200fbb4c" y="301.137266"/>
     <use style="fill:#9a2667;stroke:#9a2667;" x="506.924867" xlink:href="#m48200fbb4c" y="229.612181"/>
     <use style="fill:#9a2667;stroke:#9a2667;" x="550.350088" xlink:href="#m48200fbb4c" y="171.227972"/>
    </g>
   </g>
   <g id="line2d_64">
    <g clip-path="url(#p45acd06a14)">
     <use style="fill:#9a2667;stroke:#9a2667;" x="-1" xlink:href="#m48200fbb4c" y="396.911361"/>
     <use style="fill:#9a2667;stroke:#9a2667;" x="179.549735" xlink:href="#m48200fbb4c" y="396.91103"/>
     <use style="fill:#9a2667;stroke:#9a2667;" x="222.974956" xlink:href="#m48200fbb4c" y="396.665473"/>
     <use style="fill:#9a2667;stroke:#9a2667;" x="255.824867" xlink:href="#m48200fbb4c" y="396.309535"/>
     <use style="fill:#9a2667;stroke:#9a2667;" x="288.674779" xlink:href="#m48200fbb4c" y="395.772535"/>
     <use style="fill:#9a2667;stroke:#9a2667;" x="332.1" xlink:href="#m48200fbb4c" y="394.284514"/>
     <use style="fill:#9a2667;stroke:#9a2667;" x="364.949912" xlink:href="#m48200fbb4c" y="390.394603"/>
     <use style="fill:#9a2667;stroke:#9a2667;" x="397.799823" xlink:href="#m48200fbb4c" y="377.949086"/>
     <use style="fill:#9a2667;stroke:#9a2667;" x="441.225044" xlink:href="#m48200fbb4c" y="346.647056"/>
     <use style="fill:#9a2667;stroke:#9a2667;" x="474.074956" xlink:href="#m48200fbb4c" y="299.295031"/>
     <use style="fill:#9a2667;stroke:#9a2667;" x="506.924867" xlink:href="#m48200fbb4c" y="231.907366"/>
     <use style="fill:#9a2667;stroke:#9a2667;" x="550.350088" xlink:href="#m48200fbb4c" y="174.529095"/>
    </g>
   </g>
   <g id="line2d_65">
    <defs>
     <path d="M 0 3 
C 0.795609 3 1.55874 2.683901 2.12132 2.12132 
C 2.683901 1.55874 3 0.795609 3 0 
C 3 -0.795609 2.683901 -1.55874 2.12132 -2.12132 
C 1.55874 -2.683901 0.795609 -3 0 -3 
C -0.795609 -3 -1.55874 -2.683901 -2.12132 -2.12132 
C -2.683901 -1.55874 -3 -0.795609 -3 0 
C -3 0.795609 -2.683901 1.55874 -2.12132 2.12132 
C -1.55874 2.683901 -0.795609 3 0 3 
z
" id="m2bc5597c74" style="stroke:#ce0035;"/>
    </defs>
    <g clip-path="url(#p45acd06a14)">
     <use style="fill:#ce0035;stroke:#ce0035;" x="-1" xlink:href="#m2bc5597c74" y="400.542458"/>
     <use style="fill:#ce0035;stroke:#ce0035;" x="179.549735" xlink:href="#m2bc5597c74" y="400.54213"/>
     <use style="fill:#ce0035;stroke:#ce0035;" x="222.974956" xlink:href="#m2bc5597c74" y="400.03546"/>
     <use style="fill:#ce0035;stroke:#ce0035;" x="255.824867" xlink:href="#m2bc5597c74" y="399.427614"/>
     <use style="fill:#ce0035;stroke:#ce0035;" x="288.674779" xlink:href="#m2bc5597c74" y="398.016354"/>
     <use style="fill:#ce0035;stroke:#ce0035;" x="332.1" xlink:href="#m2bc5597c74" y="393.378634"/>
     <use style="fill:#ce0035;stroke:#ce0035;" x="364.949912" xlink:href="#m2bc5597c74" y="379.855212"/>
     <use style="fill:#ce0035;stroke:#ce0035;" x="397.799823" xlink:href="#m2bc5597c74" y="341.853119"/>
     <use style="fill:#ce0035;stroke:#ce0035;" x="441.225044" xlink:href="#m2bc5597c74" y="254.893365"/>
     <use style="fill:#ce0035;stroke:#ce0035;" x="474.074956" xlink:href="#m2bc5597c74" y="174.184145"/>
     <use style="fill:#ce0035;stroke:#ce0035;" x="506.924867" xlink:href="#m2bc5597c74" y="109.576412"/>
     <use style="fill:#ce0035;stroke:#ce0035;" x="550.350088" xlink:href="#m2bc5597c74" y="79.565084"/>
    </g>
   </g>
   <g id="line2d_66">
    <g clip-path="url(#p45acd06a14)">
     <use style="fill:#ce0035;stroke:#ce0035;" x="-1" xlink:href="#m2bc5597c74" y="400.442163"/>
     <use style="fill:#ce0035;stroke:#ce0035;" x="179.549735" xlink:href="#m2bc5597c74" y="400.441881"/>
     <use style="fill:#ce0035;stroke:#ce0035;" x="222.974956" xlink:href="#m2bc5597c74" y="400.072381"/>
     <use style="fill:#ce0035;stroke:#ce0035;" x="255.824867" xlink:href="#m2bc5597c74" y="399.297561"/>
     <use style="fill:#ce0035;stroke:#ce0035;" x="288.674779" xlink:href="#m2bc5597c74" y="397.926205"/>
     <use style="fill:#ce0035;stroke:#ce0035;" x="332.1" xlink:href="#m2bc5597c74" y="392.958008"/>
     <use style="fill:#ce0035;stroke:#ce0035;" x="364.949912" xlink:href="#m2bc5597c74" y="378.937695"/>
     <use style="fill:#ce0035;stroke:#ce0035;" x="397.799823" xlink:href="#m2bc5597c74" y="343.396245"/>
     <use style="fill:#ce0035;stroke:#ce0035;" x="441.225044" xlink:href="#m2bc5597c74" y="249.521642"/>
     <use style="fill:#ce0035;stroke:#ce0035;" x="474.074956" xlink:href="#m2bc5597c74" y="165.226733"/>
     <use style="fill:#ce0035;stroke:#ce0035;" x="506.924867" xlink:href="#m2bc5597c74" y="103.950786"/>
     <use style="fill:#ce0035;stroke:#ce0035;" x="550.350088" xlink:href="#m2bc5597c74" y="73.4328"/>
    </g>
   </g>
   <g id="line2d_67">
    <g clip-path="url(#p45acd06a14)">
     <use style="fill:#ce0035;stroke:#ce0035;" x="-1" xlink:href="#m2bc5597c74" y="400.285754"/>
     <use style="fill:#ce0035;stroke:#ce0035;" x="179.549735" xlink:href="#m2bc5597c74" y="400.285351"/>
     <use style="fill:#ce0035;stroke:#ce0035;" x="222.974956" xlink:href="#m2bc5597c74" y="399.835442"/>
     <use style="fill:#ce0035;stroke:#ce0035;" x="255.824867" xlink:href="#m2bc5597c74" y="399.353955"/>
     <use style="fill:#ce0035;stroke:#ce0035;" x="288.674779" xlink:href="#m2bc5597c74" y="397.923015"/>
     <use style="fill:#ce0035;stroke:#ce0035;" x="332.1" xlink:href="#m2bc5597c74" y="392.680383"/>
     <use style="fill:#ce0035;stroke:#ce0035;" x="364.949912" xlink:href="#m2bc5597c74" y="379.839551"/>
     <use style="fill:#ce0035;stroke:#ce0035;" x="397.799823" xlink:href="#m2bc5597c74" y="345.431696"/>
     <use style="fill:#ce0035;stroke:#ce0035;" x="441.225044" xlink:href="#m2bc5597c74" y="258.338306"/>
     <use style="fill:#ce0035;stroke:#ce0035;" x="474.074956" xlink:href="#m2bc5597c74" y="176.467294"/>
     <use style="fill:#ce0035;stroke:#ce0035;" x="506.924867" xlink:href="#m2bc5597c74" y="109.212198"/>
     <use style="fill:#ce0035;stroke:#ce0035;" x="550.350088" xlink:href="#m2bc5597c74" y="80.786523"/>
    </g>
   </g>
   <g id="patch_3">
    <path d="M 81 421.6464 
L 81 56.8512 
" style="fill:none;stroke:#000000;stroke-linecap:square;stroke-linejoin:miter;stroke-width:0.8;"/>
   </g>
   <g id="patch_4">
    <path d="M 81 421.6464 
L 583.2 421.6464 
" style="fill:none;stroke:#000000;stroke-linecap:square;stroke-linejoin:miter;stroke-width:0.8;"/>
   </g>
   <g id="text_14">
    <!-- RamR Variant Response to Papaverine -->
    <defs>
     <path d="M 44.390625 34.1875 
Q 47.5625 33.109375 50.5625 29.59375 
Q 53.5625 26.078125 56.59375 19.921875 
L 66.609375 0 
L 56 0 
L 46.6875 18.703125 
Q 43.0625 26.03125 39.671875 28.421875 
Q 36.28125 30.8125 30.421875 30.8125 
L 19.671875 30.8125 
L 19.671875 0 
L 9.8125 0 
L 9.8125 72.90625 
L 32.078125 72.90625 
Q 44.578125 72.90625 50.734375 67.671875 
Q 56.890625 62.453125 56.890625 51.90625 
Q 56.890625 45.015625 53.6875 40.46875 
Q 50.484375 35.9375 44.390625 34.1875 
z
M 19.671875 64.796875 
L 19.671875 38.921875 
L 32.078125 38.921875 
Q 39.203125 38.921875 42.84375 42.21875 
Q 46.484375 45.515625 46.484375 51.90625 
Q 46.484375 58.296875 42.84375 61.546875 
Q 39.203125 64.796875 32.078125 64.796875 
z
" id="DejaVuSans-82"/>
     <path d="M 52 44.1875 
Q 55.375 50.25 60.0625 53.125 
Q 64.75 56 71.09375 56 
Q 79.640625 56 84.28125 50.015625 
Q 88.921875 44.046875 88.921875 33.015625 
L 88.921875 0 
L 79.890625 0 
L 79.890625 32.71875 
Q 79.890625 40.578125 77.09375 44.375 
Q 74.3125 48.1875 68.609375 48.1875 
Q 61.625 48.1875 57.5625 43.546875 
Q 53.515625 38.921875 53.515625 30.90625 
L 53.515625 0 
L 44.484375 0 
L 44.484375 32.71875 
Q 44.484375 40.625 41.703125 44.40625 
Q 38.921875 48.1875 33.109375 48.1875 
Q 26.21875 48.1875 22.15625 43.53125 
Q 18.109375 38.875 18.109375 30.90625 
L 18.109375 0 
L 9.078125 0 
L 9.078125 54.6875 
L 18.109375 54.6875 
L 18.109375 46.1875 
Q 21.1875 51.21875 25.484375 53.609375 
Q 29.78125 56 35.6875 56 
Q 41.65625 56 45.828125 52.96875 
Q 50 49.953125 52 44.1875 
z
" id="DejaVuSans-109"/>
     <path d="M 28.609375 0 
L 0.78125 72.90625 
L 11.078125 72.90625 
L 34.1875 11.53125 
L 57.328125 72.90625 
L 67.578125 72.90625 
L 39.796875 0 
z
" id="DejaVuSans-86"/>
     <path d="M 18.3125 70.21875 
L 18.3125 54.6875 
L 36.8125 54.6875 
L 36.8125 47.703125 
L 18.3125 47.703125 
L 18.3125 18.015625 
Q 18.3125 11.328125 20.140625 9.421875 
Q 21.96875 7.515625 27.59375 7.515625 
L 36.8125 7.515625 
L 36.8125 0 
L 27.59375 0 
Q 17.1875 0 13.234375 3.875 
Q 9.28125 7.765625 9.28125 18.015625 
L 9.28125 47.703125 
L 2.6875 47.703125 
L 2.6875 54.6875 
L 9.28125 54.6875 
L 9.28125 70.21875 
z
" id="DejaVuSans-116"/>
     <path d="M 44.28125 53.078125 
L 44.28125 44.578125 
Q 40.484375 46.53125 36.375 47.5 
Q 32.28125 48.484375 27.875 48.484375 
Q 21.1875 48.484375 17.84375 46.4375 
Q 14.5 44.390625 14.5 40.28125 
Q 14.5 37.15625 16.890625 35.375 
Q 19.28125 33.59375 26.515625 31.984375 
L 29.59375 31.296875 
Q 39.15625 29.25 43.1875 25.515625 
Q 47.21875 21.78125 47.21875 15.09375 
Q 47.21875 7.46875 41.1875 3.015625 
Q 35.15625 -1.421875 24.609375 -1.421875 
Q 20.21875 -1.421875 15.453125 -0.5625 
Q 10.6875 0.296875 5.421875 2 
L 5.421875 11.28125 
Q 10.40625 8.6875 15.234375 7.390625 
Q 20.0625 6.109375 24.8125 6.109375 
Q 31.15625 6.109375 34.5625 8.28125 
Q 37.984375 10.453125 37.984375 14.40625 
Q 37.984375 18.0625 35.515625 20.015625 
Q 33.0625 21.96875 24.703125 23.78125 
L 21.578125 24.515625 
Q 13.234375 26.265625 9.515625 29.90625 
Q 5.8125 33.546875 5.8125 39.890625 
Q 5.8125 47.609375 11.28125 51.796875 
Q 16.75 56 26.8125 56 
Q 31.78125 56 36.171875 55.265625 
Q 40.578125 54.546875 44.28125 53.078125 
z
" id="DejaVuSans-115"/>
     <path d="M 30.609375 48.390625 
Q 23.390625 48.390625 19.1875 42.75 
Q 14.984375 37.109375 14.984375 27.296875 
Q 14.984375 17.484375 19.15625 11.84375 
Q 23.34375 6.203125 30.609375 6.203125 
Q 37.796875 6.203125 41.984375 11.859375 
Q 46.1875 17.53125 46.1875 27.296875 
Q 46.1875 37.015625 41.984375 42.703125 
Q 37.796875 48.390625 30.609375 48.390625 
z
M 30.609375 56 
Q 42.328125 56 49.015625 48.375 
Q 55.71875 40.765625 55.71875 27.296875 
Q 55.71875 13.875 49.015625 6.21875 
Q 42.328125 -1.421875 30.609375 -1.421875 
Q 18.84375 -1.421875 12.171875 6.21875 
Q 5.515625 13.875 5.515625 27.296875 
Q 5.515625 40.765625 12.171875 48.375 
Q 18.84375 56 30.609375 56 
z
" id="DejaVuSans-111"/>
    </defs>
    <g transform="translate(119.471719 50.8512)scale(0.22 -0.22)">
     <use xlink:href="#DejaVuSans-82"/>
     <use x="69.451172" xlink:href="#DejaVuSans-97"/>
     <use x="130.730469" xlink:href="#DejaVuSans-109"/>
     <use x="228.142578" xlink:href="#DejaVuSans-82"/>
     <use x="297.625" xlink:href="#DejaVuSans-32"/>
     <use x="329.412109" xlink:href="#DejaVuSans-86"/>
     <use x="397.710938" xlink:href="#DejaVuSans-97"/>
     <use x="458.990234" xlink:href="#DejaVuSans-114"/>
     <use x="500.103516" xlink:href="#DejaVuSans-105"/>
     <use x="527.886719" xlink:href="#DejaVuSans-97"/>
     <use x="589.166016" xlink:href="#DejaVuSans-110"/>
     <use x="652.544922" xlink:href="#DejaVuSans-116"/>
     <use x="691.753906" xlink:href="#DejaVuSans-32"/>
     <use x="723.541016" xlink:href="#DejaVuSans-82"/>
     <use x="792.960938" xlink:href="#DejaVuSans-101"/>
     <use x="854.484375" xlink:href="#DejaVuSans-115"/>
     <use x="906.583984" xlink:href="#DejaVuSans-112"/>
     <use x="970.060547" xlink:href="#DejaVuSans-111"/>
     <use x="1031.242188" xlink:href="#DejaVuSans-110"/>
     <use x="1094.621094" xlink:href="#DejaVuSans-115"/>
     <use x="1146.720703" xlink:href="#DejaVuSans-101"/>
     <use x="1208.244141" xlink:href="#DejaVuSans-32"/>
     <use x="1240.03125" xlink:href="#DejaVuSans-116"/>
     <use x="1279.240234" xlink:href="#DejaVuSans-111"/>
     <use x="1340.421875" xlink:href="#DejaVuSans-32"/>
     <use x="1372.208984" xlink:href="#DejaVuSans-80"/>
     <use x="1432.449219" xlink:href="#DejaVuSans-97"/>
     <use x="1493.728516" xlink:href="#DejaVuSans-112"/>
     <use x="1557.205078" xlink:href="#DejaVuSans-97"/>
     <use x="1618.484375" xlink:href="#DejaVuSans-118"/>
     <use x="1677.664062" xlink:href="#DejaVuSans-101"/>
     <use x="1739.1875" xlink:href="#DejaVuSans-114"/>
     <use x="1780.300781" xlink:href="#DejaVuSans-105"/>
     <use x="1808.083984" xlink:href="#DejaVuSans-110"/>
     <use x="1871.462891" xlink:href="#DejaVuSans-101"/>
    </g>
   </g>
   <g id="legend_1">
    <g id="patch_5">
     <path d="M 91.5 178.937137 
L 177.379687 178.937137 
Q 180.379687 178.937137 180.379687 175.937137 
L 180.379687 67.3512 
Q 180.379687 64.3512 177.379687 64.3512 
L 91.5 64.3512 
Q 88.5 64.3512 88.5 67.3512 
L 88.5 175.937137 
Q 88.5 178.937137 91.5 178.937137 
z
" style="fill:#ffffff;opacity:0.8;stroke:#cccccc;stroke-linejoin:miter;"/>
    </g>
    <g id="line2d_68">
     <path d="M 94.5 76.498856 
L 124.5 76.498856 
" style="fill:none;stroke:#0099ff;stroke-linecap:square;stroke-width:1.5;"/>
    </g>
    <g id="line2d_69"/>
    <g id="text_15">
     <!-- WT -->
     <defs>
      <path d="M 3.328125 72.90625 
L 13.28125 72.90625 
L 28.609375 11.28125 
L 43.890625 72.90625 
L 54.984375 72.90625 
L 70.3125 11.28125 
L 85.59375 72.90625 
L 95.609375 72.90625 
L 77.296875 0 
L 64.890625 0 
L 49.515625 63.28125 
L 33.984375 0 
L 21.578125 0 
z
" id="DejaVuSans-87"/>
      <path d="M -0.296875 72.90625 
L 61.375 72.90625 
L 61.375 64.59375 
L 35.5 64.59375 
L 35.5 0 
L 25.59375 0 
L 25.59375 64.59375 
L -0.296875 64.59375 
z
" id="DejaVuSans-84"/>
     </defs>
     <g transform="translate(136.5 81.748856)scale(0.15 -0.15)">
      <use xlink:href="#DejaVuSans-87"/>
      <use x="98.876953" xlink:href="#DejaVuSans-84"/>
     </g>
    </g>
    <g id="line2d_70">
     <path d="M 94.5 98.516044 
L 124.5 98.516044 
" style="fill:none;stroke:#3372cc;stroke-linecap:square;stroke-width:1.5;"/>
    </g>
    <g id="line2d_71"/>
    <g id="text_16">
     <!-- PAP1 -->
     <defs>
      <path d="M 34.1875 63.1875 
L 20.796875 26.90625 
L 47.609375 26.90625 
z
M 28.609375 72.90625 
L 39.796875 72.90625 
L 67.578125 0 
L 57.328125 0 
L 50.6875 18.703125 
L 17.828125 18.703125 
L 11.1875 0 
L 0.78125 0 
z
" id="DejaVuSans-65"/>
     </defs>
     <g transform="translate(136.5 103.766044)scale(0.15 -0.15)">
      <use xlink:href="#DejaVuSans-80"/>
      <use x="60.208984" xlink:href="#DejaVuSans-65"/>
      <use x="128.617188" xlink:href="#DejaVuSans-80"/>
      <use x="188.919922" xlink:href="#DejaVuSans-49"/>
     </g>
    </g>
    <g id="line2d_72">
     <path d="M 94.5 120.533231 
L 124.5 120.533231 
" style="fill:none;stroke:#674c9a;stroke-linecap:square;stroke-width:1.5;"/>
    </g>
    <g id="line2d_73"/>
    <g id="text_17">
     <!-- PAP2 -->
     <g transform="translate(136.5 125.783231)scale(0.15 -0.15)">
      <use xlink:href="#DejaVuSans-80"/>
      <use x="60.208984" xlink:href="#DejaVuSans-65"/>
      <use x="128.617188" xlink:href="#DejaVuSans-80"/>
      <use x="188.919922" xlink:href="#DejaVuSans-50"/>
     </g>
    </g>
    <g id="line2d_74">
     <path d="M 94.5 142.550419 
L 124.5 142.550419 
" style="fill:none;stroke:#9a2667;stroke-linecap:square;stroke-width:1.5;"/>
    </g>
    <g id="line2d_75"/>
    <g id="text_18">
     <!-- PAP3 -->
     <g transform="translate(136.5 147.800419)scale(0.15 -0.15)">
      <use xlink:href="#DejaVuSans-80"/>
      <use x="60.208984" xlink:href="#DejaVuSans-65"/>
      <use x="128.617188" xlink:href="#DejaVuSans-80"/>
      <use x="188.919922" xlink:href="#DejaVuSans-51"/>
     </g>
    </g>
    <g id="line2d_76">
     <path d="M 94.5 164.567606 
L 124.5 164.567606 
" style="fill:none;stroke:#ce0035;stroke-linecap:square;stroke-width:1.5;"/>
    </g>
    <g id="line2d_77"/>
    <g id="text_19">
     <!-- PAP4 -->
     <g transform="translate(136.5 169.817606)scale(0.15 -0.15)">
      <use xlink:href="#DejaVuSans-80"/>
      <use x="60.208984" xlink:href="#DejaVuSans-65"/>
      <use x="128.617188" xlink:href="#DejaVuSans-80"/>
      <use x="188.919922" xlink:href="#DejaVuSans-52"/>
     </g>
    </g>
   </g>
  </g>
 </g>
 <defs>
  <clipPath id="p45acd06a14">
   <rect height="364.7952" width="502.2" x="81" y="56.8512"/>
  </clipPath>
 </defs>
</svg>
