<?xml version="1.0" encoding="utf-8" standalone="no"?>
<!DOCTYPE svg PUBLIC "-//W3C//DTD SVG 1.1//EN"
  "http://www.w3.org/Graphics/SVG/1.1/DTD/svg11.dtd">
<!-- Created with matplotlib (https://matplotlib.org/) -->
<svg height="473.76pt" version="1.1" viewBox="0 0 648 473.76" width="648pt" xmlns="http://www.w3.org/2000/svg" xmlns:xlink="http://www.w3.org/1999/xlink">
 <defs>
  <style type="text/css">
*{stroke-linecap:butt;stroke-linejoin:round;}
  </style>
 </defs>
 <g id="figure_1">
  <g id="patch_1">
   <path d="M 0 473.76 
L 648 473.76 
L 648 0 
L 0 0 
z
" style="fill:#ffffff;"/>
  </g>
  <g id="axes_1">
   <g id="patch_2">
    <path d="M 81 421.6464 
L 583.2 421.6464 
L 583.2 56.8512 
L 81 56.8512 
z
" style="fill:#ffffff;"/>
   </g>
   <g id="matplotlib.axis_1">
    <g id="xtick_1">
     <g id="line2d_1">
      <defs>
       <path d="M 0 0 
L 0 2 
" id="mbe9fda7bcd" style="stroke:#000000;"/>
      </defs>
      <g>
       <use style="stroke:#000000;" x="179.549735" xlink:href="#mbe9fda7bcd" y="421.6464"/>
      </g>
     </g>
     <g id="text_1">
      <!-- 0.1 -->
      <defs>
       <path d="M 31.78125 66.40625 
Q 24.171875 66.40625 20.328125 58.90625 
Q 16.5 51.421875 16.5 36.375 
Q 16.5 21.390625 20.328125 13.890625 
Q 24.171875 6.390625 31.78125 6.390625 
Q 39.453125 6.390625 43.28125 13.890625 
Q 47.125 21.390625 47.125 36.375 
Q 47.125 51.421875 43.28125 58.90625 
Q 39.453125 66.40625 31.78125 66.40625 
z
M 31.78125 74.21875 
Q 44.046875 74.21875 50.515625 64.515625 
Q 56.984375 54.828125 56.984375 36.375 
Q 56.984375 17.96875 50.515625 8.265625 
Q 44.046875 -1.421875 31.78125 -1.421875 
Q 19.53125 -1.421875 13.0625 8.265625 
Q 6.59375 17.96875 6.59375 36.375 
Q 6.59375 54.828125 13.0625 64.515625 
Q 19.53125 74.21875 31.78125 74.21875 
z
" id="DejaVuSans-48"/>
       <path d="M 10.6875 12.40625 
L 21 12.40625 
L 21 0 
L 10.6875 0 
z
" id="DejaVuSans-46"/>
       <path d="M 12.40625 8.296875 
L 28.515625 8.296875 
L 28.515625 63.921875 
L 10.984375 60.40625 
L 10.984375 69.390625 
L 28.421875 72.90625 
L 38.28125 72.90625 
L 38.28125 8.296875 
L 54.390625 8.296875 
L 54.390625 0 
L 12.40625 0 
z
" id="DejaVuSans-49"/>
      </defs>
      <g transform="translate(165.236922 440.823588)scale(0.18 -0.18)">
       <use xlink:href="#DejaVuSans-48"/>
       <use x="63.623047" xlink:href="#DejaVuSans-46"/>
       <use x="95.410156" xlink:href="#DejaVuSans-49"/>
      </g>
     </g>
    </g>
    <g id="xtick_2">
     <g id="line2d_2">
      <g>
       <use style="stroke:#000000;" x="288.674779" xlink:href="#mbe9fda7bcd" y="421.6464"/>
      </g>
     </g>
     <g id="text_2">
      <!-- 1.0 -->
      <g transform="translate(274.361966 440.823588)scale(0.18 -0.18)">
       <use xlink:href="#DejaVuSans-49"/>
       <use x="63.623047" xlink:href="#DejaVuSans-46"/>
       <use x="95.410156" xlink:href="#DejaVuSans-48"/>
      </g>
     </g>
    </g>
    <g id="xtick_3">
     <g id="line2d_3">
      <g>
       <use style="stroke:#000000;" x="397.799823" xlink:href="#mbe9fda7bcd" y="421.6464"/>
      </g>
     </g>
     <g id="text_3">
      <!-- 10.0 -->
      <g transform="translate(377.760761 440.823588)scale(0.18 -0.18)">
       <use xlink:href="#DejaVuSans-49"/>
       <use x="63.623047" xlink:href="#DejaVuSans-48"/>
       <use x="127.246094" xlink:href="#DejaVuSans-46"/>
       <use x="159.033203" xlink:href="#DejaVuSans-48"/>
      </g>
     </g>
    </g>
    <g id="xtick_4">
     <g id="line2d_4">
      <g>
       <use style="stroke:#000000;" x="506.924867" xlink:href="#mbe9fda7bcd" y="421.6464"/>
      </g>
     </g>
     <g id="text_4">
      <!-- 100.0 -->
      <g transform="translate(481.159555 440.823588)scale(0.18 -0.18)">
       <use xlink:href="#DejaVuSans-49"/>
       <use x="63.623047" xlink:href="#DejaVuSans-48"/>
       <use x="127.246094" xlink:href="#DejaVuSans-48"/>
       <use x="190.869141" xlink:href="#DejaVuSans-46"/>
       <use x="222.65625" xlink:href="#DejaVuSans-48"/>
      </g>
     </g>
    </g>
    <g id="xtick_5">
     <g id="line2d_5">
      <defs>
       <path d="M 0 0 
L 0 2 
" id="m2b82da5ba9" style="stroke:#000000;stroke-width:0.6;"/>
      </defs>
      <g>
       <use style="stroke:#000000;stroke-width:0.6;" x="103.274602" xlink:href="#m2b82da5ba9" y="421.6464"/>
      </g>
     </g>
    </g>
    <g id="xtick_6">
     <g id="line2d_6">
      <g>
       <use style="stroke:#000000;stroke-width:0.6;" x="122.490569" xlink:href="#m2b82da5ba9" y="421.6464"/>
      </g>
     </g>
    </g>
    <g id="xtick_7">
     <g id="line2d_7">
      <g>
       <use style="stroke:#000000;stroke-width:0.6;" x="136.124514" xlink:href="#m2b82da5ba9" y="421.6464"/>
      </g>
     </g>
    </g>
    <g id="xtick_8">
     <g id="line2d_8">
      <g>
       <use style="stroke:#000000;stroke-width:0.6;" x="146.699823" xlink:href="#m2b82da5ba9" y="421.6464"/>
      </g>
     </g>
    </g>
    <g id="xtick_9">
     <g id="line2d_9">
      <g>
       <use style="stroke:#000000;stroke-width:0.6;" x="155.34048" xlink:href="#m2b82da5ba9" y="421.6464"/>
      </g>
     </g>
    </g>
    <g id="xtick_10">
     <g id="line2d_10">
      <g>
       <use style="stroke:#000000;stroke-width:0.6;" x="162.646052" xlink:href="#m2b82da5ba9" y="421.6464"/>
      </g>
     </g>
    </g>
    <g id="xtick_11">
     <g id="line2d_11">
      <g>
       <use style="stroke:#000000;stroke-width:0.6;" x="168.974425" xlink:href="#m2b82da5ba9" y="421.6464"/>
      </g>
     </g>
    </g>
    <g id="xtick_12">
     <g id="line2d_12">
      <g>
       <use style="stroke:#000000;stroke-width:0.6;" x="174.556447" xlink:href="#m2b82da5ba9" y="421.6464"/>
      </g>
     </g>
    </g>
    <g id="xtick_13">
     <g id="line2d_13">
      <g>
       <use style="stroke:#000000;stroke-width:0.6;" x="212.399646" xlink:href="#m2b82da5ba9" y="421.6464"/>
      </g>
     </g>
    </g>
    <g id="xtick_14">
     <g id="line2d_14">
      <g>
       <use style="stroke:#000000;stroke-width:0.6;" x="231.615613" xlink:href="#m2b82da5ba9" y="421.6464"/>
      </g>
     </g>
    </g>
    <g id="xtick_15">
     <g id="line2d_15">
      <g>
       <use style="stroke:#000000;stroke-width:0.6;" x="245.249558" xlink:href="#m2b82da5ba9" y="421.6464"/>
      </g>
     </g>
    </g>
    <g id="xtick_16">
     <g id="line2d_16">
      <g>
       <use style="stroke:#000000;stroke-width:0.6;" x="255.824867" xlink:href="#m2b82da5ba9" y="421.6464"/>
      </g>
     </g>
    </g>
    <g id="xtick_17">
     <g id="line2d_17">
      <g>
       <use style="stroke:#000000;stroke-width:0.6;" x="264.465524" xlink:href="#m2b82da5ba9" y="421.6464"/>
      </g>
     </g>
    </g>
    <g id="xtick_18">
     <g id="line2d_18">
      <g>
       <use style="stroke:#000000;stroke-width:0.6;" x="271.771096" xlink:href="#m2b82da5ba9" y="421.6464"/>
      </g>
     </g>
    </g>
    <g id="xtick_19">
     <g id="line2d_19">
      <g>
       <use style="stroke:#000000;stroke-width:0.6;" x="278.09947" xlink:href="#m2b82da5ba9" y="421.6464"/>
      </g>
     </g>
    </g>
    <g id="xtick_20">
     <g id="line2d_20">
      <g>
       <use style="stroke:#000000;stroke-width:0.6;" x="283.681491" xlink:href="#m2b82da5ba9" y="421.6464"/>
      </g>
     </g>
    </g>
    <g id="xtick_21">
     <g id="line2d_21">
      <g>
       <use style="stroke:#000000;stroke-width:0.6;" x="321.524691" xlink:href="#m2b82da5ba9" y="421.6464"/>
      </g>
     </g>
    </g>
    <g id="xtick_22">
     <g id="line2d_22">
      <g>
       <use style="stroke:#000000;stroke-width:0.6;" x="340.740657" xlink:href="#m2b82da5ba9" y="421.6464"/>
      </g>
     </g>
    </g>
    <g id="xtick_23">
     <g id="line2d_23">
      <g>
       <use style="stroke:#000000;stroke-width:0.6;" x="354.374602" xlink:href="#m2b82da5ba9" y="421.6464"/>
      </g>
     </g>
    </g>
    <g id="xtick_24">
     <g id="line2d_24">
      <g>
       <use style="stroke:#000000;stroke-width:0.6;" x="364.949912" xlink:href="#m2b82da5ba9" y="421.6464"/>
      </g>
     </g>
    </g>
    <g id="xtick_25">
     <g id="line2d_25">
      <g>
       <use style="stroke:#000000;stroke-width:0.6;" x="373.590569" xlink:href="#m2b82da5ba9" y="421.6464"/>
      </g>
     </g>
    </g>
    <g id="xtick_26">
     <g id="line2d_26">
      <g>
       <use style="stroke:#000000;stroke-width:0.6;" x="380.89614" xlink:href="#m2b82da5ba9" y="421.6464"/>
      </g>
     </g>
    </g>
    <g id="xtick_27">
     <g id="line2d_27">
      <g>
       <use style="stroke:#000000;stroke-width:0.6;" x="387.224514" xlink:href="#m2b82da5ba9" y="421.6464"/>
      </g>
     </g>
    </g>
    <g id="xtick_28">
     <g id="line2d_28">
      <g>
       <use style="stroke:#000000;stroke-width:0.6;" x="392.806535" xlink:href="#m2b82da5ba9" y="421.6464"/>
      </g>
     </g>
    </g>
    <g id="xtick_29">
     <g id="line2d_29">
      <g>
       <use style="stroke:#000000;stroke-width:0.6;" x="430.649735" xlink:href="#m2b82da5ba9" y="421.6464"/>
      </g>
     </g>
    </g>
    <g id="xtick_30">
     <g id="line2d_30">
      <g>
       <use style="stroke:#000000;stroke-width:0.6;" x="449.865701" xlink:href="#m2b82da5ba9" y="421.6464"/>
      </g>
     </g>
    </g>
    <g id="xtick_31">
     <g id="line2d_31">
      <g>
       <use style="stroke:#000000;stroke-width:0.6;" x="463.499646" xlink:href="#m2b82da5ba9" y="421.6464"/>
      </g>
     </g>
    </g>
    <g id="xtick_32">
     <g id="line2d_32">
      <g>
       <use style="stroke:#000000;stroke-width:0.6;" x="474.074956" xlink:href="#m2b82da5ba9" y="421.6464"/>
      </g>
     </g>
    </g>
    <g id="xtick_33">
     <g id="line2d_33">
      <g>
       <use style="stroke:#000000;stroke-width:0.6;" x="482.715613" xlink:href="#m2b82da5ba9" y="421.6464"/>
      </g>
     </g>
    </g>
    <g id="xtick_34">
     <g id="line2d_34">
      <g>
       <use style="stroke:#000000;stroke-width:0.6;" x="490.021184" xlink:href="#m2b82da5ba9" y="421.6464"/>
      </g>
     </g>
    </g>
    <g id="xtick_35">
     <g id="line2d_35">
      <g>
       <use style="stroke:#000000;stroke-width:0.6;" x="496.349558" xlink:href="#m2b82da5ba9" y="421.6464"/>
      </g>
     </g>
    </g>
    <g id="xtick_36">
     <g id="line2d_36">
      <g>
       <use style="stroke:#000000;stroke-width:0.6;" x="501.931579" xlink:href="#m2b82da5ba9" y="421.6464"/>
      </g>
     </g>
    </g>
    <g id="xtick_37">
     <g id="line2d_37">
      <g>
       <use style="stroke:#000000;stroke-width:0.6;" x="539.774779" xlink:href="#m2b82da5ba9" y="421.6464"/>
      </g>
     </g>
    </g>
    <g id="xtick_38">
     <g id="line2d_38">
      <g>
       <use style="stroke:#000000;stroke-width:0.6;" x="558.990745" xlink:href="#m2b82da5ba9" y="421.6464"/>
      </g>
     </g>
    </g>
    <g id="xtick_39">
     <g id="line2d_39">
      <g>
       <use style="stroke:#000000;stroke-width:0.6;" x="572.624691" xlink:href="#m2b82da5ba9" y="421.6464"/>
      </g>
     </g>
    </g>
    <g id="xtick_40">
     <g id="line2d_40">
      <g>
       <use style="stroke:#000000;stroke-width:0.6;" x="583.2" xlink:href="#m2b82da5ba9" y="421.6464"/>
      </g>
     </g>
    </g>
    <g id="text_5">
     <!-- Papaverine (uM) -->
     <defs>
      <path d="M 19.671875 64.796875 
L 19.671875 37.40625 
L 32.078125 37.40625 
Q 38.96875 37.40625 42.71875 40.96875 
Q 46.484375 44.53125 46.484375 51.125 
Q 46.484375 57.671875 42.71875 61.234375 
Q 38.96875 64.796875 32.078125 64.796875 
z
M 9.8125 72.90625 
L 32.078125 72.90625 
Q 44.34375 72.90625 50.609375 67.359375 
Q 56.890625 61.8125 56.890625 51.125 
Q 56.890625 40.328125 50.609375 34.8125 
Q 44.34375 29.296875 32.078125 29.296875 
L 19.671875 29.296875 
L 19.671875 0 
L 9.8125 0 
z
" id="DejaVuSans-80"/>
      <path d="M 34.28125 27.484375 
Q 23.390625 27.484375 19.1875 25 
Q 14.984375 22.515625 14.984375 16.5 
Q 14.984375 11.71875 18.140625 8.90625 
Q 21.296875 6.109375 26.703125 6.109375 
Q 34.1875 6.109375 38.703125 11.40625 
Q 43.21875 16.703125 43.21875 25.484375 
L 43.21875 27.484375 
z
M 52.203125 31.203125 
L 52.203125 0 
L 43.21875 0 
L 43.21875 8.296875 
Q 40.140625 3.328125 35.546875 0.953125 
Q 30.953125 -1.421875 24.3125 -1.421875 
Q 15.921875 -1.421875 10.953125 3.296875 
Q 6 8.015625 6 15.921875 
Q 6 25.140625 12.171875 29.828125 
Q 18.359375 34.515625 30.609375 34.515625 
L 43.21875 34.515625 
L 43.21875 35.40625 
Q 43.21875 41.609375 39.140625 45 
Q 35.0625 48.390625 27.6875 48.390625 
Q 23 48.390625 18.546875 47.265625 
Q 14.109375 46.140625 10.015625 43.890625 
L 10.015625 52.203125 
Q 14.9375 54.109375 19.578125 55.046875 
Q 24.21875 56 28.609375 56 
Q 40.484375 56 46.34375 49.84375 
Q 52.203125 43.703125 52.203125 31.203125 
z
" id="DejaVuSans-97"/>
      <path d="M 18.109375 8.203125 
L 18.109375 -20.796875 
L 9.078125 -20.796875 
L 9.078125 54.6875 
L 18.109375 54.6875 
L 18.109375 46.390625 
Q 20.953125 51.265625 25.265625 53.625 
Q 29.59375 56 35.59375 56 
Q 45.5625 56 51.78125 48.09375 
Q 58.015625 40.1875 58.015625 27.296875 
Q 58.015625 14.40625 51.78125 6.484375 
Q 45.5625 -1.421875 35.59375 -1.421875 
Q 29.59375 -1.421875 25.265625 0.953125 
Q 20.953125 3.328125 18.109375 8.203125 
z
M 48.6875 27.296875 
Q 48.6875 37.203125 44.609375 42.84375 
Q 40.53125 48.484375 33.40625 48.484375 
Q 26.265625 48.484375 22.1875 42.84375 
Q 18.109375 37.203125 18.109375 27.296875 
Q 18.109375 17.390625 22.1875 11.75 
Q 26.265625 6.109375 33.40625 6.109375 
Q 40.53125 6.109375 44.609375 11.75 
Q 48.6875 17.390625 48.6875 27.296875 
z
" id="DejaVuSans-112"/>
      <path d="M 2.984375 54.6875 
L 12.5 54.6875 
L 29.59375 8.796875 
L 46.6875 54.6875 
L 56.203125 54.6875 
L 35.6875 0 
L 23.484375 0 
z
" id="DejaVuSans-118"/>
      <path d="M 56.203125 29.59375 
L 56.203125 25.203125 
L 14.890625 25.203125 
Q 15.484375 15.921875 20.484375 11.0625 
Q 25.484375 6.203125 34.421875 6.203125 
Q 39.59375 6.203125 44.453125 7.46875 
Q 49.3125 8.734375 54.109375 11.28125 
L 54.109375 2.78125 
Q 49.265625 0.734375 44.1875 -0.34375 
Q 39.109375 -1.421875 33.890625 -1.421875 
Q 20.796875 -1.421875 13.15625 6.1875 
Q 5.515625 13.8125 5.515625 26.8125 
Q 5.515625 40.234375 12.765625 48.109375 
Q 20.015625 56 32.328125 56 
Q 43.359375 56 49.78125 48.890625 
Q 56.203125 41.796875 56.203125 29.59375 
z
M 47.21875 32.234375 
Q 47.125 39.59375 43.09375 43.984375 
Q 39.0625 48.390625 32.421875 48.390625 
Q 24.90625 48.390625 20.390625 44.140625 
Q 15.875 39.890625 15.1875 32.171875 
z
" id="DejaVuSans-101"/>
      <path d="M 41.109375 46.296875 
Q 39.59375 47.171875 37.8125 47.578125 
Q 36.03125 48 33.890625 48 
Q 26.265625 48 22.1875 43.046875 
Q 18.109375 38.09375 18.109375 28.8125 
L 18.109375 0 
L 9.078125 0 
L 9.078125 54.6875 
L 18.109375 54.6875 
L 18.109375 46.1875 
Q 20.953125 51.171875 25.484375 53.578125 
Q 30.03125 56 36.53125 56 
Q 37.453125 56 38.578125 55.875 
Q 39.703125 55.765625 41.0625 55.515625 
z
" id="DejaVuSans-114"/>
      <path d="M 9.421875 54.6875 
L 18.40625 54.6875 
L 18.40625 0 
L 9.421875 0 
z
M 9.421875 75.984375 
L 18.40625 75.984375 
L 18.40625 64.59375 
L 9.421875 64.59375 
z
" id="DejaVuSans-105"/>
      <path d="M 54.890625 33.015625 
L 54.890625 0 
L 45.90625 0 
L 45.90625 32.71875 
Q 45.90625 40.484375 42.875 44.328125 
Q 39.84375 48.1875 33.796875 48.1875 
Q 26.515625 48.1875 22.3125 43.546875 
Q 18.109375 38.921875 18.109375 30.90625 
L 18.109375 0 
L 9.078125 0 
L 9.078125 54.6875 
L 18.109375 54.6875 
L 18.109375 46.1875 
Q 21.34375 51.125 25.703125 53.5625 
Q 30.078125 56 35.796875 56 
Q 45.21875 56 50.046875 50.171875 
Q 54.890625 44.34375 54.890625 33.015625 
z
" id="DejaVuSans-110"/>
      <path id="DejaVuSans-32"/>
      <path d="M 31 75.875 
Q 24.46875 64.65625 21.28125 53.65625 
Q 18.109375 42.671875 18.109375 31.390625 
Q 18.109375 20.125 21.3125 9.0625 
Q 24.515625 -2 31 -13.1875 
L 23.1875 -13.1875 
Q 15.875 -1.703125 12.234375 9.375 
Q 8.59375 20.453125 8.59375 31.390625 
Q 8.59375 42.28125 12.203125 53.3125 
Q 15.828125 64.359375 23.1875 75.875 
z
" id="DejaVuSans-40"/>
      <path d="M 8.5 21.578125 
L 8.5 54.6875 
L 17.484375 54.6875 
L 17.484375 21.921875 
Q 17.484375 14.15625 20.5 10.265625 
Q 23.53125 6.390625 29.59375 6.390625 
Q 36.859375 6.390625 41.078125 11.03125 
Q 45.3125 15.671875 45.3125 23.6875 
L 45.3125 54.6875 
L 54.296875 54.6875 
L 54.296875 0 
L 45.3125 0 
L 45.3125 8.40625 
Q 42.046875 3.421875 37.71875 1 
Q 33.40625 -1.421875 27.6875 -1.421875 
Q 18.265625 -1.421875 13.375 4.4375 
Q 8.5 10.296875 8.5 21.578125 
z
M 31.109375 56 
z
" id="DejaVuSans-117"/>
      <path d="M 9.8125 72.90625 
L 24.515625 72.90625 
L 43.109375 23.296875 
L 61.8125 72.90625 
L 76.515625 72.90625 
L 76.515625 0 
L 66.890625 0 
L 66.890625 64.015625 
L 48.09375 14.015625 
L 38.1875 14.015625 
L 19.390625 64.015625 
L 19.390625 0 
L 9.8125 0 
z
" id="DejaVuSans-77"/>
      <path d="M 8.015625 75.875 
L 15.828125 75.875 
Q 23.140625 64.359375 26.78125 53.3125 
Q 30.421875 42.28125 30.421875 31.390625 
Q 30.421875 20.453125 26.78125 9.375 
Q 23.140625 -1.703125 15.828125 -13.1875 
L 8.015625 -13.1875 
Q 14.5 -2 17.703125 9.0625 
Q 20.90625 20.125 20.90625 31.390625 
Q 20.90625 42.671875 17.703125 53.65625 
Q 14.5 64.65625 8.015625 75.875 
z
" id="DejaVuSans-41"/>
     </defs>
     <g transform="translate(250.073438 463.7639)scale(0.2 -0.2)">
      <use xlink:href="#DejaVuSans-80"/>
      <use x="60.240234" xlink:href="#DejaVuSans-97"/>
      <use x="121.519531" xlink:href="#DejaVuSans-112"/>
      <use x="184.996094" xlink:href="#DejaVuSans-97"/>
      <use x="246.275391" xlink:href="#DejaVuSans-118"/>
      <use x="305.455078" xlink:href="#DejaVuSans-101"/>
      <use x="366.978516" xlink:href="#DejaVuSans-114"/>
      <use x="408.091797" xlink:href="#DejaVuSans-105"/>
      <use x="435.875" xlink:href="#DejaVuSans-110"/>
      <use x="499.253906" xlink:href="#DejaVuSans-101"/>
      <use x="560.777344" xlink:href="#DejaVuSans-32"/>
      <use x="592.564453" xlink:href="#DejaVuSans-40"/>
      <use x="631.578125" xlink:href="#DejaVuSans-117"/>
      <use x="694.957031" xlink:href="#DejaVuSans-77"/>
      <use x="781.236328" xlink:href="#DejaVuSans-41"/>
     </g>
    </g>
   </g>
   <g id="matplotlib.axis_2">
    <g id="ytick_1">
     <g id="line2d_41">
      <defs>
       <path d="M 0 0 
L -2 0 
" id="m2ba7f66881" style="stroke:#000000;"/>
      </defs>
      <g>
       <use style="stroke:#000000;" x="81" xlink:href="#m2ba7f66881" y="407.810123"/>
      </g>
     </g>
     <g id="text_6">
      <!-- 0 -->
      <g transform="translate(64.0475 414.648716)scale(0.18 -0.18)">
       <use xlink:href="#DejaVuSans-48"/>
      </g>
     </g>
    </g>
    <g id="ytick_2">
     <g id="line2d_42">
      <g>
       <use style="stroke:#000000;" x="81" xlink:href="#m2ba7f66881" y="352.150924"/>
      </g>
     </g>
     <g id="text_7">
      <!-- 1 -->
      <g transform="translate(64.0475 358.989518)scale(0.18 -0.18)">
       <use xlink:href="#DejaVuSans-49"/>
      </g>
     </g>
    </g>
    <g id="ytick_3">
     <g id="line2d_43">
      <g>
       <use style="stroke:#000000;" x="81" xlink:href="#m2ba7f66881" y="296.491725"/>
      </g>
     </g>
     <g id="text_8">
      <!-- 2 -->
      <defs>
       <path d="M 19.1875 8.296875 
L 53.609375 8.296875 
L 53.609375 0 
L 7.328125 0 
L 7.328125 8.296875 
Q 12.9375 14.109375 22.625 23.890625 
Q 32.328125 33.6875 34.8125 36.53125 
Q 39.546875 41.84375 41.421875 45.53125 
Q 43.3125 49.21875 43.3125 52.78125 
Q 43.3125 58.59375 39.234375 62.25 
Q 35.15625 65.921875 28.609375 65.921875 
Q 23.96875 65.921875 18.8125 64.3125 
Q 13.671875 62.703125 7.8125 59.421875 
L 7.8125 69.390625 
Q 13.765625 71.78125 18.9375 73 
Q 24.125 74.21875 28.421875 74.21875 
Q 39.75 74.21875 46.484375 68.546875 
Q 53.21875 62.890625 53.21875 53.421875 
Q 53.21875 48.921875 51.53125 44.890625 
Q 49.859375 40.875 45.40625 35.40625 
Q 44.1875 33.984375 37.640625 27.21875 
Q 31.109375 20.453125 19.1875 8.296875 
z
" id="DejaVuSans-50"/>
      </defs>
      <g transform="translate(64.0475 303.330319)scale(0.18 -0.18)">
       <use xlink:href="#DejaVuSans-50"/>
      </g>
     </g>
    </g>
    <g id="ytick_4">
     <g id="line2d_44">
      <g>
       <use style="stroke:#000000;" x="81" xlink:href="#m2ba7f66881" y="240.832527"/>
      </g>
     </g>
     <g id="text_9">
      <!-- 3 -->
      <defs>
       <path d="M 40.578125 39.3125 
Q 47.65625 37.796875 51.625 33 
Q 55.609375 28.21875 55.609375 21.1875 
Q 55.609375 10.40625 48.1875 4.484375 
Q 40.765625 -1.421875 27.09375 -1.421875 
Q 22.515625 -1.421875 17.65625 -0.515625 
Q 12.796875 0.390625 7.625 2.203125 
L 7.625 11.71875 
Q 11.71875 9.328125 16.59375 8.109375 
Q 21.484375 6.890625 26.8125 6.890625 
Q 36.078125 6.890625 40.9375 10.546875 
Q 45.796875 14.203125 45.796875 21.1875 
Q 45.796875 27.640625 41.28125 31.265625 
Q 36.765625 34.90625 28.71875 34.90625 
L 20.21875 34.90625 
L 20.21875 43.015625 
L 29.109375 43.015625 
Q 36.375 43.015625 40.234375 45.921875 
Q 44.09375 48.828125 44.09375 54.296875 
Q 44.09375 59.90625 40.109375 62.90625 
Q 36.140625 65.921875 28.71875 65.921875 
Q 24.65625 65.921875 20.015625 65.03125 
Q 15.375 64.15625 9.8125 62.3125 
L 9.8125 71.09375 
Q 15.4375 72.65625 20.34375 73.4375 
Q 25.25 74.21875 29.59375 74.21875 
Q 40.828125 74.21875 47.359375 69.109375 
Q 53.90625 64.015625 53.90625 55.328125 
Q 53.90625 49.265625 50.4375 45.09375 
Q 46.96875 40.921875 40.578125 39.3125 
z
" id="DejaVuSans-51"/>
      </defs>
      <g transform="translate(64.0475 247.67112)scale(0.18 -0.18)">
       <use xlink:href="#DejaVuSans-51"/>
      </g>
     </g>
    </g>
    <g id="ytick_5">
     <g id="line2d_45">
      <g>
       <use style="stroke:#000000;" x="81" xlink:href="#m2ba7f66881" y="185.173328"/>
      </g>
     </g>
     <g id="text_10">
      <!-- 4 -->
      <defs>
       <path d="M 37.796875 64.3125 
L 12.890625 25.390625 
L 37.796875 25.390625 
z
M 35.203125 72.90625 
L 47.609375 72.90625 
L 47.609375 25.390625 
L 58.015625 25.390625 
L 58.015625 17.1875 
L 47.609375 17.1875 
L 47.609375 0 
L 37.796875 0 
L 37.796875 17.1875 
L 4.890625 17.1875 
L 4.890625 26.703125 
z
" id="DejaVuSans-52"/>
      </defs>
      <g transform="translate(64.0475 192.011922)scale(0.18 -0.18)">
       <use xlink:href="#DejaVuSans-52"/>
      </g>
     </g>
    </g>
    <g id="ytick_6">
     <g id="line2d_46">
      <g>
       <use style="stroke:#000000;" x="81" xlink:href="#m2ba7f66881" y="129.51413"/>
      </g>
     </g>
     <g id="text_11">
      <!-- 5 -->
      <defs>
       <path d="M 10.796875 72.90625 
L 49.515625 72.90625 
L 49.515625 64.59375 
L 19.828125 64.59375 
L 19.828125 46.734375 
Q 21.96875 47.46875 24.109375 47.828125 
Q 26.265625 48.1875 28.421875 48.1875 
Q 40.625 48.1875 47.75 41.5 
Q 54.890625 34.8125 54.890625 23.390625 
Q 54.890625 11.625 47.5625 5.09375 
Q 40.234375 -1.421875 26.90625 -1.421875 
Q 22.3125 -1.421875 17.546875 -0.640625 
Q 12.796875 0.140625 7.71875 1.703125 
L 7.71875 11.625 
Q 12.109375 9.234375 16.796875 8.0625 
Q 21.484375 6.890625 26.703125 6.890625 
Q 35.15625 6.890625 40.078125 11.328125 
Q 45.015625 15.765625 45.015625 23.390625 
Q 45.015625 31 40.078125 35.4375 
Q 35.15625 39.890625 26.703125 39.890625 
Q 22.75 39.890625 18.8125 39.015625 
Q 14.890625 38.140625 10.796875 36.28125 
z
" id="DejaVuSans-53"/>
      </defs>
      <g transform="translate(64.0475 136.352723)scale(0.18 -0.18)">
       <use xlink:href="#DejaVuSans-53"/>
      </g>
     </g>
    </g>
    <g id="ytick_7">
     <g id="line2d_47">
      <g>
       <use style="stroke:#000000;" x="81" xlink:href="#m2ba7f66881" y="73.854931"/>
      </g>
     </g>
     <g id="text_12">
      <!-- 6 -->
      <defs>
       <path d="M 33.015625 40.375 
Q 26.375 40.375 22.484375 35.828125 
Q 18.609375 31.296875 18.609375 23.390625 
Q 18.609375 15.53125 22.484375 10.953125 
Q 26.375 6.390625 33.015625 6.390625 
Q 39.65625 6.390625 43.53125 10.953125 
Q 47.40625 15.53125 47.40625 23.390625 
Q 47.40625 31.296875 43.53125 35.828125 
Q 39.65625 40.375 33.015625 40.375 
z
M 52.59375 71.296875 
L 52.59375 62.3125 
Q 48.875 64.0625 45.09375 64.984375 
Q 41.3125 65.921875 37.59375 65.921875 
Q 27.828125 65.921875 22.671875 59.328125 
Q 17.53125 52.734375 16.796875 39.40625 
Q 19.671875 43.65625 24.015625 45.921875 
Q 28.375 48.1875 33.59375 48.1875 
Q 44.578125 48.1875 50.953125 41.515625 
Q 57.328125 34.859375 57.328125 23.390625 
Q 57.328125 12.15625 50.6875 5.359375 
Q 44.046875 -1.421875 33.015625 -1.421875 
Q 20.359375 -1.421875 13.671875 8.265625 
Q 6.984375 17.96875 6.984375 36.375 
Q 6.984375 53.65625 15.1875 63.9375 
Q 23.390625 74.21875 37.203125 74.21875 
Q 40.921875 74.21875 44.703125 73.484375 
Q 48.484375 72.75 52.59375 71.296875 
z
" id="DejaVuSans-54"/>
      </defs>
      <g transform="translate(64.0475 80.693525)scale(0.18 -0.18)">
       <use xlink:href="#DejaVuSans-54"/>
      </g>
     </g>
    </g>
    <g id="text_13">
     <!-- $(RFU/OD) \times 10^4$ -->
     <defs>
      <path d="M 25.203125 64.796875 
L 20.21875 38.921875 
L 32.90625 38.921875 
Q 40.375 38.921875 44.984375 43.046875 
Q 49.609375 47.171875 49.609375 53.8125 
Q 49.609375 59.125 46.5 61.953125 
Q 43.40625 64.796875 37.59375 64.796875 
z
M 43.3125 35.015625 
Q 46.4375 34.28125 48.515625 31.390625 
Q 50.59375 28.515625 53.328125 19.921875 
L 59.515625 0 
L 49.125 0 
L 43.40625 18.703125 
Q 41.21875 25.921875 38.328125 28.359375 
Q 35.453125 30.8125 29.5 30.8125 
L 18.609375 30.8125 
L 12.59375 0 
L 2.6875 0 
L 16.890625 72.90625 
L 39.109375 72.90625 
Q 49.21875 72.90625 54.609375 68.328125 
Q 60.015625 63.765625 60.015625 55.171875 
Q 60.015625 47.5625 55.421875 41.984375 
Q 50.828125 36.421875 43.3125 35.015625 
z
" id="DejaVuSans-Oblique-82"/>
      <path d="M 16.890625 72.90625 
L 58.6875 72.90625 
L 57.078125 64.59375 
L 25.09375 64.59375 
L 20.90625 43.109375 
L 49.8125 43.109375 
L 48.1875 34.8125 
L 19.28125 34.8125 
L 12.5 0 
L 2.6875 0 
z
" id="DejaVuSans-Oblique-70"/>
      <path d="M 15.484375 72.90625 
L 25.390625 72.90625 
L 16.796875 28.609375 
Q 16.265625 25.640625 16.046875 23.703125 
Q 15.828125 21.78125 15.828125 20.3125 
Q 15.828125 13.578125 19.578125 10.078125 
Q 23.34375 6.59375 30.609375 6.59375 
Q 40.046875 6.59375 45.28125 11.765625 
Q 50.53125 16.9375 52.78125 28.609375 
L 61.375 72.90625 
L 71.296875 72.90625 
L 62.5 27.390625 
Q 59.625 12.640625 51.5625 5.609375 
Q 43.5 -1.421875 29.5 -1.421875 
Q 18.5625 -1.421875 12.1875 4.078125 
Q 5.8125 9.578125 5.8125 19 
Q 5.8125 20.703125 6.046875 22.828125 
Q 6.296875 24.953125 6.78125 27.390625 
z
" id="DejaVuSans-Oblique-85"/>
      <path d="M 25.390625 72.90625 
L 33.6875 72.90625 
L 8.296875 -9.28125 
L 0 -9.28125 
z
" id="DejaVuSans-47"/>
      <path d="M 45.609375 66.21875 
Q 37.5 66.21875 31.296875 62.28125 
Q 25.09375 58.34375 20.515625 50.296875 
Q 17.578125 45.171875 16.03125 39.40625 
Q 14.5 33.640625 14.5 27.78125 
Q 14.5 17.625 19.359375 12.109375 
Q 24.21875 6.59375 33.109375 6.59375 
Q 41.109375 6.59375 47.375 10.5625 
Q 53.65625 14.546875 58.109375 22.40625 
Q 61.078125 27.6875 62.640625 33.46875 
Q 64.203125 39.265625 64.203125 45.015625 
Q 64.203125 55.125 59.3125 60.671875 
Q 54.4375 66.21875 45.609375 66.21875 
z
M 32.8125 -1.421875 
Q 19.390625 -1.421875 11.6875 6.53125 
Q 4 14.5 4 28.328125 
Q 4 36.234375 7 44.484375 
Q 10.015625 52.734375 15.28125 59.1875 
Q 21.484375 66.75 29.09375 70.484375 
Q 36.71875 74.21875 45.90625 74.21875 
Q 59.28125 74.21875 66.984375 66.328125 
Q 74.703125 58.453125 74.703125 44.828125 
Q 74.703125 36.421875 71.765625 28.3125 
Q 68.84375 20.21875 63.375 13.625 
Q 57.125 6 49.578125 2.28125 
Q 42.046875 -1.421875 32.8125 -1.421875 
z
" id="DejaVuSans-Oblique-79"/>
      <path d="M 16.890625 72.90625 
L 38.09375 72.90625 
Q 54.984375 72.90625 63.59375 65.75 
Q 72.21875 58.59375 72.21875 44.484375 
Q 72.21875 35.15625 68.9375 26.53125 
Q 65.671875 17.921875 59.90625 12.015625 
Q 54.109375 5.953125 45.171875 2.96875 
Q 36.234375 0 24.03125 0 
L 2.6875 0 
z
M 25.203125 64.796875 
L 14.203125 8.109375 
L 27.09375 8.109375 
Q 43.65625 8.109375 52.734375 17.625 
Q 61.8125 27.15625 61.8125 44.484375 
Q 61.8125 54.984375 55.953125 59.890625 
Q 50.09375 64.796875 37.59375 64.796875 
z
" id="DejaVuSans-Oblique-68"/>
      <path d="M 70.125 53.71875 
L 47.796875 31.296875 
L 70.125 8.984375 
L 64.3125 3.078125 
L 41.890625 25.484375 
L 19.484375 3.078125 
L 13.71875 8.984375 
L 35.984375 31.296875 
L 13.71875 53.71875 
L 19.484375 59.625 
L 41.890625 37.203125 
L 64.3125 59.625 
z
" id="DejaVuSans-215"/>
     </defs>
     <g transform="translate(55.888125 315.8488)rotate(-90)scale(0.2 -0.2)">
      <use transform="translate(0 0.684375)" xlink:href="#DejaVuSans-40"/>
      <use transform="translate(39.013672 0.684375)" xlink:href="#DejaVuSans-Oblique-82"/>
      <use transform="translate(108.496094 0.684375)" xlink:href="#DejaVuSans-Oblique-70"/>
      <use transform="translate(166.015625 0.684375)" xlink:href="#DejaVuSans-Oblique-85"/>
      <use transform="translate(239.208984 0.684375)" xlink:href="#DejaVuSans-47"/>
      <use transform="translate(272.900391 0.684375)" xlink:href="#DejaVuSans-Oblique-79"/>
      <use transform="translate(351.611328 0.684375)" xlink:href="#DejaVuSans-Oblique-68"/>
      <use transform="translate(428.613281 0.684375)" xlink:href="#DejaVuSans-41"/>
      <use transform="translate(487.109375 0.684375)" xlink:href="#DejaVuSans-215"/>
      <use transform="translate(590.380859 0.684375)" xlink:href="#DejaVuSans-49"/>
      <use transform="translate(654.003906 0.684375)" xlink:href="#DejaVuSans-48"/>
      <use transform="translate(718.583984 38.965625)scale(0.7)" xlink:href="#DejaVuSans-52"/>
     </g>
    </g>
   </g>
   <g id="line2d_48">
    <path clip-path="url(#pa7cd44a847)" d="M 70.425212 403.181418 
L 353.83889 403.067064 
L 413.923915 402.826017 
L 451.04027 402.466276 
L 478.140028 401.99018 
L 499.551001 401.398849 
L 517.274524 400.692965 
L 532.408526 399.872885 
L 545.621931 398.938765 
L 550.350088 398.543929 
L 550.350088 398.543929 
" style="fill:none;stroke:#0099ff;stroke-linecap:square;stroke-width:1.5;"/>
   </g>
   <g id="line2d_49">
    <path clip-path="url(#pa7cd44a847)" d="M 70.425212 404.839475 
L 351.189892 404.728038 
L 391.862985 404.489245 
L 416.850099 404.131794 
L 435.059355 403.65793 
L 449.433727 403.068644 
L 461.32419 402.364693 
L 471.474598 401.546229 
L 480.339187 400.612866 
L 488.212021 399.564314 
L 495.300302 398.39944 
L 501.751355 397.117104 
L 507.678784 395.714916 
L 513.167293 394.19051 
L 518.284636 392.540599 
L 523.086042 390.760819 
L 527.616498 388.845933 
L 531.91322 386.789743 
L 536.008043 384.58464 
L 539.927257 382.222221 
L 543.693366 379.69287 
L 547.326795 376.98488 
L 550.350088 374.510646 
L 550.350088 374.510646 
" style="fill:none;stroke:#3372cc;stroke-linecap:square;stroke-width:1.5;"/>
   </g>
   <g id="line2d_50">
    <path clip-path="url(#pa7cd44a847)" d="M 70.425212 398.739968 
L 288.675253 398.627971 
L 325.554953 398.388706 
L 348.283074 398.030476 
L 364.902969 397.55506 
L 378.072104 396.963075 
L 389.026755 396.253799 
L 398.424123 395.42756 
L 406.687149 394.482133 
L 414.083839 393.415618 
L 420.802388 392.225189 
L 426.974633 390.908346 
L 432.707922 389.459947 
L 438.075802 387.876582 
L 443.148037 386.150389 
L 447.980864 384.271939 
L 452.612773 382.233813 
L 457.08365 380.024037 
L 461.426419 377.629575 
L 465.668315 375.03671 
L 469.842191 372.224219 
L 473.971052 369.173031 
L 478.083448 365.856241 
L 482.207852 362.242272 
L 486.374425 358.293294 
L 490.617077 353.962947 
L 494.981252 349.187233 
L 499.526077 343.879632 
L 504.338276 337.912021 
L 509.562613 331.071143 
L 515.49189 322.928803 
L 522.996656 312.220427 
L 542.646727 283.995981 
L 548.623782 275.918431 
L 550.350088 273.664639 
L 550.350088 273.664639 
" style="fill:none;stroke:#674c9a;stroke-linecap:square;stroke-width:1.5;"/>
   </g>
   <g id="line2d_51">
    <path clip-path="url(#pa7cd44a847)" d="M 70.425212 398.194467 
L 228.34635 398.077778 
L 266.400652 397.834961 
L 290.076116 397.472835 
L 307.41491 396.994002 
L 321.168382 396.398739 
L 332.618944 395.685761 
L 342.40964 394.858463 
L 350.999433 393.914476 
L 358.676144 392.851568 
L 365.632641 391.667808 
L 372.025204 390.357092 
L 377.928164 388.922564 
L 383.45008 387.35389 
L 388.640227 385.650199 
L 393.564468 383.80097 
L 398.260135 381.800758 
L 402.756842 379.644593 
L 407.097899 377.317092 
L 411.306704 374.808567 
L 415.409588 372.104447 
L 419.433746 369.185301 
L 423.392006 366.038566 
L 427.312719 362.636207 
L 431.209678 358.95817 
L 435.102517 354.97606 
L 439.008635 350.660025 
L 442.956515 345.963372 
L 446.963152 340.847869 
L 451.063381 335.248045 
L 455.289958 329.094262 
L 459.689916 322.28957 
L 464.333957 314.690982 
L 469.33161 306.078678 
L 474.888307 296.047525 
L 481.483799 283.66141 
L 491.553802 264.208658 
L 502.67785 242.85308 
L 509.147267 230.91863 
L 514.630703 221.258852 
L 519.591252 212.961944 
L 524.219818 205.64647 
L 528.620299 199.101365 
L 532.857596 193.192335 
L 536.978132 187.823278 
L 541.015953 182.923407 
L 544.9989 178.436477 
L 548.950979 174.316491 
L 550.350088 172.935289 
L 550.350088 172.935289 
" style="fill:none;stroke:#9a2667;stroke-linecap:square;stroke-width:1.5;"/>
   </g>
   <g id="line2d_52">
    <path clip-path="url(#pa7cd44a847)" d="M 70.425212 401.888918 
L 197.969649 401.76829 
L 233.170077 401.519483 
L 255.109071 401.150661 
L 271.089653 400.668488 
L 283.813428 400.069633 
L 294.362474 399.357826 
L 303.42161 398.530414 
L 311.392089 397.584467 
L 318.529677 396.517038 
L 325.00769 395.325323 
L 330.900602 394.018535 
L 336.358241 392.583833 
L 341.446738 391.019263 
L 346.252889 389.309892 
L 350.77626 387.467072 
L 355.109857 385.461603 
L 359.240826 383.305695 
L 363.237366 380.968505 
L 367.10443 378.448056 
L 370.847308 375.743486 
L 374.510173 372.822681 
L 378.108021 369.668976 
L 381.652222 366.266351 
L 385.166757 362.582925 
L 388.668967 358.587659 
L 392.157515 354.268441 
L 395.655369 349.581614 
L 399.178148 344.486901 
L 402.746169 338.931813 
L 406.37179 332.871062 
L 410.07918 326.235236 
L 413.898614 318.936073 
L 417.85398 310.890613 
L 422.004812 301.934899 
L 426.414379 291.882104 
L 431.209678 280.38302 
L 436.620308 266.811582 
L 443.27075 249.495788 
L 465.648504 190.713833 
L 470.981394 177.64131 
L 475.73555 166.563326 
L 480.131107 156.874285 
L 484.279629 148.259057 
L 488.248935 140.520709 
L 492.085043 133.522375 
L 495.821334 127.162752 
L 499.483122 121.363633 
L 503.09202 116.0602 
L 506.665155 111.200562 
L 510.219243 106.738735 
L 513.768962 102.636282 
L 517.32973 98.858405 
L 520.915755 95.375889 
L 524.541985 92.162625 
L 528.225106 89.194815 
L 531.9824 86.452011 
L 535.832612 83.916298 
L 539.796575 81.57191 
L 543.89745 79.405191 
L 548.16297 77.403647 
L 550.350088 76.468528 
L 550.350088 76.468528 
" style="fill:none;stroke:#ce0035;stroke-linecap:square;stroke-width:1.5;"/>
   </g>
   <g id="line2d_53">
    <defs>
     <path d="M 0 3 
C 0.795609 3 1.55874 2.683901 2.12132 2.12132 
C 2.683901 1.55874 3 0.795609 3 0 
C 3 -0.795609 2.683901 -1.55874 2.12132 -2.12132 
C 1.55874 -2.683901 0.795609 -3 0 -3 
C -0.795609 -3 -1.55874 -2.683901 -2.12132 -2.12132 
C -2.683901 -1.55874 -3 -0.795609 -3 0 
C -3 0.795609 -2.683901 1.55874 -2.12132 2.12132 
C -1.55874 2.683901 -0.795609 3 0 3 
z
" id="m1fe425c7c5" style="stroke:#0099ff;"/>
    </defs>
    <g clip-path="url(#pa7cd44a847)">
     <use style="fill:#0099ff;stroke:#0099ff;" x="-1" xlink:href="#m1fe425c7c5" y="403.336943"/>
     <use style="fill:#0099ff;stroke:#0099ff;" x="179.549735" xlink:href="#m1fe425c7c5" y="403.336948"/>
     <use style="fill:#0099ff;stroke:#0099ff;" x="222.974956" xlink:href="#m1fe425c7c5" y="403.331275"/>
     <use style="fill:#0099ff;stroke:#0099ff;" x="255.824867" xlink:href="#m1fe425c7c5" y="403.238376"/>
     <use style="fill:#0099ff;stroke:#0099ff;" x="288.674779" xlink:href="#m1fe425c7c5" y="403.302796"/>
     <use style="fill:#0099ff;stroke:#0099ff;" x="332.1" xlink:href="#m1fe425c7c5" y="403.254129"/>
     <use style="fill:#0099ff;stroke:#0099ff;" x="364.949912" xlink:href="#m1fe425c7c5" y="403.294291"/>
     <use style="fill:#0099ff;stroke:#0099ff;" x="397.799823" xlink:href="#m1fe425c7c5" y="403.179277"/>
     <use style="fill:#0099ff;stroke:#0099ff;" x="441.225044" xlink:href="#m1fe425c7c5" y="402.726881"/>
     <use style="fill:#0099ff;stroke:#0099ff;" x="474.074956" xlink:href="#m1fe425c7c5" y="402.253824"/>
     <use style="fill:#0099ff;stroke:#0099ff;" x="506.924867" xlink:href="#m1fe425c7c5" y="401.42937"/>
     <use style="fill:#0099ff;stroke:#0099ff;" x="550.350088" xlink:href="#m1fe425c7c5" y="398.810891"/>
    </g>
   </g>
   <g id="line2d_54">
    <g clip-path="url(#pa7cd44a847)">
     <use style="fill:#0099ff;stroke:#0099ff;" x="-1" xlink:href="#m1fe425c7c5" y="403.354958"/>
     <use style="fill:#0099ff;stroke:#0099ff;" x="179.549735" xlink:href="#m1fe425c7c5" y="403.354886"/>
     <use style="fill:#0099ff;stroke:#0099ff;" x="222.974956" xlink:href="#m1fe425c7c5" y="403.187169"/>
     <use style="fill:#0099ff;stroke:#0099ff;" x="255.824867" xlink:href="#m1fe425c7c5" y="403.307617"/>
     <use style="fill:#0099ff;stroke:#0099ff;" x="288.674779" xlink:href="#m1fe425c7c5" y="403.093857"/>
     <use style="fill:#0099ff;stroke:#0099ff;" x="332.1" xlink:href="#m1fe425c7c5" y="403.379809"/>
     <use style="fill:#0099ff;stroke:#0099ff;" x="364.949912" xlink:href="#m1fe425c7c5" y="403.253229"/>
     <use style="fill:#0099ff;stroke:#0099ff;" x="397.799823" xlink:href="#m1fe425c7c5" y="403.223159"/>
     <use style="fill:#0099ff;stroke:#0099ff;" x="441.225044" xlink:href="#m1fe425c7c5" y="402.704434"/>
     <use style="fill:#0099ff;stroke:#0099ff;" x="474.074956" xlink:href="#m1fe425c7c5" y="402.047758"/>
     <use style="fill:#0099ff;stroke:#0099ff;" x="506.924867" xlink:href="#m1fe425c7c5" y="401.429962"/>
     <use style="fill:#0099ff;stroke:#0099ff;" x="550.350088" xlink:href="#m1fe425c7c5" y="398.784964"/>
    </g>
   </g>
   <g id="line2d_55">
    <g clip-path="url(#pa7cd44a847)">
     <use style="fill:#0099ff;stroke:#0099ff;" x="-1" xlink:href="#m1fe425c7c5" y="403.11401"/>
     <use style="fill:#0099ff;stroke:#0099ff;" x="179.549735" xlink:href="#m1fe425c7c5" y="403.114265"/>
     <use style="fill:#0099ff;stroke:#0099ff;" x="222.974956" xlink:href="#m1fe425c7c5" y="402.746804"/>
     <use style="fill:#0099ff;stroke:#0099ff;" x="255.824867" xlink:href="#m1fe425c7c5" y="402.759379"/>
     <use style="fill:#0099ff;stroke:#0099ff;" x="288.674779" xlink:href="#m1fe425c7c5" y="402.7369"/>
     <use style="fill:#0099ff;stroke:#0099ff;" x="332.1" xlink:href="#m1fe425c7c5" y="402.879789"/>
     <use style="fill:#0099ff;stroke:#0099ff;" x="364.949912" xlink:href="#m1fe425c7c5" y="402.81967"/>
     <use style="fill:#0099ff;stroke:#0099ff;" x="397.799823" xlink:href="#m1fe425c7c5" y="402.406773"/>
     <use style="fill:#0099ff;stroke:#0099ff;" x="441.225044" xlink:href="#m1fe425c7c5" y="402.387683"/>
     <use style="fill:#0099ff;stroke:#0099ff;" x="474.074956" xlink:href="#m1fe425c7c5" y="401.359302"/>
     <use style="fill:#0099ff;stroke:#0099ff;" x="506.924867" xlink:href="#m1fe425c7c5" y="400.954354"/>
     <use style="fill:#0099ff;stroke:#0099ff;" x="550.350088" xlink:href="#m1fe425c7c5" y="397.971891"/>
    </g>
   </g>
   <g id="line2d_56">
    <defs>
     <path d="M 0 3 
C 0.795609 3 1.55874 2.683901 2.12132 2.12132 
C 2.683901 1.55874 3 0.795609 3 0 
C 3 -0.795609 2.683901 -1.55874 2.12132 -2.12132 
C 1.55874 -2.683901 0.795609 -3 0 -3 
C -0.795609 -3 -1.55874 -2.683901 -2.12132 -2.12132 
C -2.683901 -1.55874 -3 -0.795609 -3 0 
C -3 0.795609 -2.683901 1.55874 -2.12132 2.12132 
C -1.55874 2.683901 -0.795609 3 0 3 
z
" id="m05f8b4ad4c" style="stroke:#3372cc;"/>
    </defs>
    <g clip-path="url(#pa7cd44a847)">
     <use style="fill:#3372cc;stroke:#3372cc;" x="-1" xlink:href="#m05f8b4ad4c" y="405.056385"/>
     <use style="fill:#3372cc;stroke:#3372cc;" x="179.549735" xlink:href="#m05f8b4ad4c" y="405.056695"/>
     <use style="fill:#3372cc;stroke:#3372cc;" x="222.974956" xlink:href="#m05f8b4ad4c" y="404.954664"/>
     <use style="fill:#3372cc;stroke:#3372cc;" x="255.824867" xlink:href="#m05f8b4ad4c" y="404.809023"/>
     <use style="fill:#3372cc;stroke:#3372cc;" x="288.674779" xlink:href="#m05f8b4ad4c" y="404.719964"/>
     <use style="fill:#3372cc;stroke:#3372cc;" x="332.1" xlink:href="#m05f8b4ad4c" y="404.863618"/>
     <use style="fill:#3372cc;stroke:#3372cc;" x="364.949912" xlink:href="#m05f8b4ad4c" y="404.56969"/>
     <use style="fill:#3372cc;stroke:#3372cc;" x="397.799823" xlink:href="#m05f8b4ad4c" y="404.344263"/>
     <use style="fill:#3372cc;stroke:#3372cc;" x="441.225044" xlink:href="#m05f8b4ad4c" y="403.20673"/>
     <use style="fill:#3372cc;stroke:#3372cc;" x="474.074956" xlink:href="#m05f8b4ad4c" y="401.343968"/>
     <use style="fill:#3372cc;stroke:#3372cc;" x="506.924867" xlink:href="#m05f8b4ad4c" y="395.917288"/>
     <use style="fill:#3372cc;stroke:#3372cc;" x="550.350088" xlink:href="#m05f8b4ad4c" y="374.49426"/>
    </g>
   </g>
   <g id="line2d_57">
    <g clip-path="url(#pa7cd44a847)">
     <use style="fill:#3372cc;stroke:#3372cc;" x="-1" xlink:href="#m05f8b4ad4c" y="404.779166"/>
     <use style="fill:#3372cc;stroke:#3372cc;" x="179.549735" xlink:href="#m05f8b4ad4c" y="404.778692"/>
     <use style="fill:#3372cc;stroke:#3372cc;" x="222.974956" xlink:href="#m05f8b4ad4c" y="404.934442"/>
     <use style="fill:#3372cc;stroke:#3372cc;" x="255.824867" xlink:href="#m05f8b4ad4c" y="404.862186"/>
     <use style="fill:#3372cc;stroke:#3372cc;" x="288.674779" xlink:href="#m05f8b4ad4c" y="404.838991"/>
     <use style="fill:#3372cc;stroke:#3372cc;" x="332.1" xlink:href="#m05f8b4ad4c" y="404.681351"/>
     <use style="fill:#3372cc;stroke:#3372cc;" x="364.949912" xlink:href="#m05f8b4ad4c" y="404.640176"/>
     <use style="fill:#3372cc;stroke:#3372cc;" x="397.799823" xlink:href="#m05f8b4ad4c" y="404.177062"/>
     <use style="fill:#3372cc;stroke:#3372cc;" x="441.225044" xlink:href="#m05f8b4ad4c" y="403.218646"/>
     <use style="fill:#3372cc;stroke:#3372cc;" x="474.074956" xlink:href="#m05f8b4ad4c" y="401.343906"/>
     <use style="fill:#3372cc;stroke:#3372cc;" x="506.924867" xlink:href="#m05f8b4ad4c" y="395.576704"/>
     <use style="fill:#3372cc;stroke:#3372cc;" x="550.350088" xlink:href="#m05f8b4ad4c" y="372.804522"/>
    </g>
   </g>
   <g id="line2d_58">
    <g clip-path="url(#pa7cd44a847)">
     <use style="fill:#3372cc;stroke:#3372cc;" x="-1" xlink:href="#m05f8b4ad4c" y="405.043572"/>
     <use style="fill:#3372cc;stroke:#3372cc;" x="179.549735" xlink:href="#m05f8b4ad4c" y="405.043692"/>
     <use style="fill:#3372cc;stroke:#3372cc;" x="222.974956" xlink:href="#m05f8b4ad4c" y="404.718446"/>
     <use style="fill:#3372cc;stroke:#3372cc;" x="255.824867" xlink:href="#m05f8b4ad4c" y="404.978522"/>
     <use style="fill:#3372cc;stroke:#3372cc;" x="288.674779" xlink:href="#m05f8b4ad4c" y="404.95535"/>
     <use style="fill:#3372cc;stroke:#3372cc;" x="332.1" xlink:href="#m05f8b4ad4c" y="404.692846"/>
     <use style="fill:#3372cc;stroke:#3372cc;" x="364.949912" xlink:href="#m05f8b4ad4c" y="404.655242"/>
     <use style="fill:#3372cc;stroke:#3372cc;" x="397.799823" xlink:href="#m05f8b4ad4c" y="404.238506"/>
     <use style="fill:#3372cc;stroke:#3372cc;" x="441.225044" xlink:href="#m05f8b4ad4c" y="403.298911"/>
     <use style="fill:#3372cc;stroke:#3372cc;" x="474.074956" xlink:href="#m05f8b4ad4c" y="401.250377"/>
     <use style="fill:#3372cc;stroke:#3372cc;" x="506.924867" xlink:href="#m05f8b4ad4c" y="396.516951"/>
     <use style="fill:#3372cc;stroke:#3372cc;" x="550.350088" xlink:href="#m05f8b4ad4c" y="376.176261"/>
    </g>
   </g>
   <g id="line2d_59">
    <defs>
     <path d="M 0 3 
C 0.795609 3 1.55874 2.683901 2.12132 2.12132 
C 2.683901 1.55874 3 0.795609 3 0 
C 3 -0.795609 2.683901 -1.55874 2.12132 -2.12132 
C 1.55874 -2.683901 0.795609 -3 0 -3 
C -0.795609 -3 -1.55874 -2.683901 -2.12132 -2.12132 
C -2.683901 -1.55874 -3 -0.795609 -3 0 
C -3 0.795609 -2.683901 1.55874 -2.12132 2.12132 
C -1.55874 2.683901 -0.795609 3 0 3 
z
" id="mfded825e0e" style="stroke:#674c9a;"/>
    </defs>
    <g clip-path="url(#pa7cd44a847)">
     <use style="fill:#674c9a;stroke:#674c9a;" x="-1" xlink:href="#mfded825e0e" y="398.979595"/>
     <use style="fill:#674c9a;stroke:#674c9a;" x="179.549735" xlink:href="#mfded825e0e" y="398.979366"/>
     <use style="fill:#674c9a;stroke:#674c9a;" x="222.974956" xlink:href="#mfded825e0e" y="398.851431"/>
     <use style="fill:#674c9a;stroke:#674c9a;" x="255.824867" xlink:href="#mfded825e0e" y="398.704342"/>
     <use style="fill:#674c9a;stroke:#674c9a;" x="288.674779" xlink:href="#mfded825e0e" y="398.558578"/>
     <use style="fill:#674c9a;stroke:#674c9a;" x="332.1" xlink:href="#mfded825e0e" y="398.045507"/>
     <use style="fill:#674c9a;stroke:#674c9a;" x="364.949912" xlink:href="#mfded825e0e" y="397.167711"/>
     <use style="fill:#674c9a;stroke:#674c9a;" x="397.799823" xlink:href="#mfded825e0e" y="394.444248"/>
     <use style="fill:#674c9a;stroke:#674c9a;" x="441.225044" xlink:href="#mfded825e0e" y="387.050266"/>
     <use style="fill:#674c9a;stroke:#674c9a;" x="474.074956" xlink:href="#mfded825e0e" y="369.570979"/>
     <use style="fill:#674c9a;stroke:#674c9a;" x="506.924867" xlink:href="#mfded825e0e" y="331.219178"/>
     <use style="fill:#674c9a;stroke:#674c9a;" x="550.350088" xlink:href="#mfded825e0e" y="275.851715"/>
    </g>
   </g>
   <g id="line2d_60">
    <g clip-path="url(#pa7cd44a847)">
     <use style="fill:#674c9a;stroke:#674c9a;" x="-1" xlink:href="#mfded825e0e" y="398.932201"/>
     <use style="fill:#674c9a;stroke:#674c9a;" x="179.549735" xlink:href="#mfded825e0e" y="398.932191"/>
     <use style="fill:#674c9a;stroke:#674c9a;" x="222.974956" xlink:href="#mfded825e0e" y="399.00402"/>
     <use style="fill:#674c9a;stroke:#674c9a;" x="255.824867" xlink:href="#mfded825e0e" y="398.766814"/>
     <use style="fill:#674c9a;stroke:#674c9a;" x="288.674779" xlink:href="#mfded825e0e" y="398.73993"/>
     <use style="fill:#674c9a;stroke:#674c9a;" x="332.1" xlink:href="#mfded825e0e" y="398.233583"/>
     <use style="fill:#674c9a;stroke:#674c9a;" x="364.949912" xlink:href="#mfded825e0e" y="397.085392"/>
     <use style="fill:#674c9a;stroke:#674c9a;" x="397.799823" xlink:href="#mfded825e0e" y="394.997809"/>
     <use style="fill:#674c9a;stroke:#674c9a;" x="441.225044" xlink:href="#mfded825e0e" y="387.081869"/>
     <use style="fill:#674c9a;stroke:#674c9a;" x="474.074956" xlink:href="#mfded825e0e" y="372.01407"/>
     <use style="fill:#674c9a;stroke:#674c9a;" x="506.924867" xlink:href="#mfded825e0e" y="337.70453"/>
     <use style="fill:#674c9a;stroke:#674c9a;" x="550.350088" xlink:href="#mfded825e0e" y="278.110204"/>
    </g>
   </g>
   <g id="line2d_61">
    <g clip-path="url(#pa7cd44a847)">
     <use style="fill:#674c9a;stroke:#674c9a;" x="-1" xlink:href="#mfded825e0e" y="399.710455"/>
     <use style="fill:#674c9a;stroke:#674c9a;" x="179.549735" xlink:href="#mfded825e0e" y="399.710088"/>
     <use style="fill:#674c9a;stroke:#674c9a;" x="222.974956" xlink:href="#mfded825e0e" y="399.224299"/>
     <use style="fill:#674c9a;stroke:#674c9a;" x="255.824867" xlink:href="#mfded825e0e" y="398.939663"/>
     <use style="fill:#674c9a;stroke:#674c9a;" x="288.674779" xlink:href="#mfded825e0e" y="398.608659"/>
     <use style="fill:#674c9a;stroke:#674c9a;" x="332.1" xlink:href="#mfded825e0e" y="397.889193"/>
     <use style="fill:#674c9a;stroke:#674c9a;" x="364.949912" xlink:href="#mfded825e0e" y="396.739259"/>
     <use style="fill:#674c9a;stroke:#674c9a;" x="397.799823" xlink:href="#mfded825e0e" y="394.183774"/>
     <use style="fill:#674c9a;stroke:#674c9a;" x="441.225044" xlink:href="#mfded825e0e" y="385.640856"/>
     <use style="fill:#674c9a;stroke:#674c9a;" x="474.074956" xlink:href="#mfded825e0e" y="368.42392"/>
     <use style="fill:#674c9a;stroke:#674c9a;" x="506.924867" xlink:href="#mfded825e0e" y="333.416339"/>
     <use style="fill:#674c9a;stroke:#674c9a;" x="550.350088" xlink:href="#mfded825e0e" y="267.246899"/>
    </g>
   </g>
   <g id="line2d_62">
    <defs>
     <path d="M 0 3 
C 0.795609 3 1.55874 2.683901 2.12132 2.12132 
C 2.683901 1.55874 3 0.795609 3 0 
C 3 -0.795609 2.683901 -1.55874 2.12132 -2.12132 
C 1.55874 -2.683901 0.795609 -3 0 -3 
C -0.795609 -3 -1.55874 -2.683901 -2.12132 -2.12132 
C -2.683901 -1.55874 -3 -0.795609 -3 0 
C -3 0.795609 -2.683901 1.55874 -2.12132 2.12132 
C -1.55874 2.683901 -0.795609 3 0 3 
z
" id="m12e046def0" style="stroke:#9a2667;"/>
    </defs>
    <g clip-path="url(#pa7cd44a847)">
     <use style="fill:#9a2667;stroke:#9a2667;" x="-1" xlink:href="#m12e046def0" y="398.633202"/>
     <use style="fill:#9a2667;stroke:#9a2667;" x="179.549735" xlink:href="#m12e046def0" y="398.632563"/>
     <use style="fill:#9a2667;stroke:#9a2667;" x="222.974956" xlink:href="#m12e046def0" y="398.274695"/>
     <use style="fill:#9a2667;stroke:#9a2667;" x="255.824867" xlink:href="#m12e046def0" y="397.707261"/>
     <use style="fill:#9a2667;stroke:#9a2667;" x="288.674779" xlink:href="#m12e046def0" y="397.102546"/>
     <use style="fill:#9a2667;stroke:#9a2667;" x="332.1" xlink:href="#m12e046def0" y="395.481792"/>
     <use style="fill:#9a2667;stroke:#9a2667;" x="364.949912" xlink:href="#m12e046def0" y="391.378719"/>
     <use style="fill:#9a2667;stroke:#9a2667;" x="397.799823" xlink:href="#m12e046def0" y="382.096386"/>
     <use style="fill:#9a2667;stroke:#9a2667;" x="441.225044" xlink:href="#m12e046def0" y="347.925607"/>
     <use style="fill:#9a2667;stroke:#9a2667;" x="474.074956" xlink:href="#m12e046def0" y="299.854619"/>
     <use style="fill:#9a2667;stroke:#9a2667;" x="506.924867" xlink:href="#m12e046def0" y="234.748756"/>
     <use style="fill:#9a2667;stroke:#9a2667;" x="550.350088" xlink:href="#m12e046def0" y="174.231615"/>
    </g>
   </g>
   <g id="line2d_63">
    <g clip-path="url(#pa7cd44a847)">
     <use style="fill:#9a2667;stroke:#9a2667;" x="-1" xlink:href="#m12e046def0" y="398.712219"/>
     <use style="fill:#9a2667;stroke:#9a2667;" x="179.549735" xlink:href="#m12e046def0" y="398.711636"/>
     <use style="fill:#9a2667;stroke:#9a2667;" x="222.974956" xlink:href="#m12e046def0" y="398.487453"/>
     <use style="fill:#9a2667;stroke:#9a2667;" x="255.824867" xlink:href="#m12e046def0" y="398.019127"/>
     <use style="fill:#9a2667;stroke:#9a2667;" x="288.674779" xlink:href="#m12e046def0" y="397.61084"/>
     <use style="fill:#9a2667;stroke:#9a2667;" x="332.1" xlink:href="#m12e046def0" y="396.080218"/>
     <use style="fill:#9a2667;stroke:#9a2667;" x="364.949912" xlink:href="#m12e046def0" y="391.82922"/>
     <use style="fill:#9a2667;stroke:#9a2667;" x="397.799823" xlink:href="#m12e046def0" y="381.650208"/>
     <use style="fill:#9a2667;stroke:#9a2667;" x="441.225044" xlink:href="#m12e046def0" y="344.047149"/>
     <use style="fill:#9a2667;stroke:#9a2667;" x="474.074956" xlink:href="#m12e046def0" y="302.15961"/>
     <use style="fill:#9a2667;stroke:#9a2667;" x="506.924867" xlink:href="#m12e046def0" y="230.313393"/>
     <use style="fill:#9a2667;stroke:#9a2667;" x="550.350088" xlink:href="#m12e046def0" y="171.667052"/>
    </g>
   </g>
   <g id="line2d_64">
    <g clip-path="url(#pa7cd44a847)">
     <use style="fill:#9a2667;stroke:#9a2667;" x="-1" xlink:href="#m12e046def0" y="398.363711"/>
     <use style="fill:#9a2667;stroke:#9a2667;" x="179.549735" xlink:href="#m12e046def0" y="398.363378"/>
     <use style="fill:#9a2667;stroke:#9a2667;" x="222.974956" xlink:href="#m12e046def0" y="398.116718"/>
     <use style="fill:#9a2667;stroke:#9a2667;" x="255.824867" xlink:href="#m12e046def0" y="397.759183"/>
     <use style="fill:#9a2667;stroke:#9a2667;" x="288.674779" xlink:href="#m12e046def0" y="397.219772"/>
     <use style="fill:#9a2667;stroke:#9a2667;" x="332.1" xlink:href="#m12e046def0" y="395.72507"/>
     <use style="fill:#9a2667;stroke:#9a2667;" x="364.949912" xlink:href="#m12e046def0" y="391.817694"/>
     <use style="fill:#9a2667;stroke:#9a2667;" x="397.799823" xlink:href="#m12e046def0" y="379.316299"/>
     <use style="fill:#9a2667;stroke:#9a2667;" x="441.225044" xlink:href="#m12e046def0" y="347.87373"/>
     <use style="fill:#9a2667;stroke:#9a2667;" x="474.074956" xlink:href="#m12e046def0" y="300.309104"/>
     <use style="fill:#9a2667;stroke:#9a2667;" x="506.924867" xlink:href="#m12e046def0" y="232.618883"/>
     <use style="fill:#9a2667;stroke:#9a2667;" x="550.350088" xlink:href="#m12e046def0" y="174.982996"/>
    </g>
   </g>
   <g id="line2d_65">
    <defs>
     <path d="M 0 3 
C 0.795609 3 1.55874 2.683901 2.12132 2.12132 
C 2.683901 1.55874 3 0.795609 3 0 
C 3 -0.795609 2.683901 -1.55874 2.12132 -2.12132 
C 1.55874 -2.683901 0.795609 -3 0 -3 
C -0.795609 -3 -1.55874 -2.683901 -2.12132 -2.12132 
C -2.683901 -1.55874 -3 -0.795609 -3 0 
C -3 0.795609 -2.683901 1.55874 -2.12132 2.12132 
C -1.55874 2.683901 -0.795609 3 0 3 
z
" id="mf712d9ea22" style="stroke:#ce0035;"/>
    </defs>
    <g clip-path="url(#pa7cd44a847)">
     <use style="fill:#ce0035;stroke:#ce0035;" x="-1" xlink:href="#mf712d9ea22" y="402.011111"/>
     <use style="fill:#ce0035;stroke:#ce0035;" x="179.549735" xlink:href="#mf712d9ea22" y="402.010781"/>
     <use style="fill:#ce0035;stroke:#ce0035;" x="222.974956" xlink:href="#mf712d9ea22" y="401.501836"/>
     <use style="fill:#ce0035;stroke:#ce0035;" x="255.824867" xlink:href="#mf712d9ea22" y="400.891261"/>
     <use style="fill:#ce0035;stroke:#ce0035;" x="288.674779" xlink:href="#mf712d9ea22" y="399.473665"/>
     <use style="fill:#ce0035;stroke:#ce0035;" x="332.1" xlink:href="#mf712d9ea22" y="394.815122"/>
     <use style="fill:#ce0035;stroke:#ce0035;" x="364.949912" xlink:href="#mf712d9ea22" y="381.230983"/>
     <use style="fill:#ce0035;stroke:#ce0035;" x="397.799823" xlink:href="#mf712d9ea22" y="343.058269"/>
     <use style="fill:#ce0035;stroke:#ce0035;" x="441.225044" xlink:href="#mf712d9ea22" y="255.708084"/>
     <use style="fill:#ce0035;stroke:#ce0035;" x="474.074956" xlink:href="#mf712d9ea22" y="174.636497"/>
     <use style="fill:#ce0035;stroke:#ce0035;" x="506.924867" xlink:href="#mf712d9ea22" y="109.738689"/>
     <use style="fill:#ce0035;stroke:#ce0035;" x="550.350088" xlink:href="#mf712d9ea22" y="79.592616"/>
    </g>
   </g>
   <g id="line2d_66">
    <g clip-path="url(#pa7cd44a847)">
     <use style="fill:#ce0035;stroke:#ce0035;" x="-1" xlink:href="#mf712d9ea22" y="401.910365"/>
     <use style="fill:#ce0035;stroke:#ce0035;" x="179.549735" xlink:href="#mf712d9ea22" y="401.910082"/>
     <use style="fill:#ce0035;stroke:#ce0035;" x="222.974956" xlink:href="#mf712d9ea22" y="401.538923"/>
     <use style="fill:#ce0035;stroke:#ce0035;" x="255.824867" xlink:href="#mf712d9ea22" y="400.760624"/>
     <use style="fill:#ce0035;stroke:#ce0035;" x="288.674779" xlink:href="#mf712d9ea22" y="399.383111"/>
     <use style="fill:#ce0035;stroke:#ce0035;" x="332.1" xlink:href="#mf712d9ea22" y="394.392608"/>
     <use style="fill:#ce0035;stroke:#ce0035;" x="364.949912" xlink:href="#mf712d9ea22" y="380.309347"/>
     <use style="fill:#ce0035;stroke:#ce0035;" x="397.799823" xlink:href="#mf712d9ea22" y="344.608323"/>
     <use style="fill:#ce0035;stroke:#ce0035;" x="441.225044" xlink:href="#mf712d9ea22" y="250.312244"/>
     <use style="fill:#ce0035;stroke:#ce0035;" x="474.074956" xlink:href="#mf712d9ea22" y="165.638868"/>
     <use style="fill:#ce0035;stroke:#ce0035;" x="506.924867" xlink:href="#mf712d9ea22" y="104.087805"/>
     <use style="fill:#ce0035;stroke:#ce0035;" x="550.350088" xlink:href="#mf712d9ea22" y="73.4328"/>
    </g>
   </g>
   <g id="line2d_67">
    <g clip-path="url(#pa7cd44a847)">
     <use style="fill:#ce0035;stroke:#ce0035;" x="-1" xlink:href="#mf712d9ea22" y="401.753254"/>
     <use style="fill:#ce0035;stroke:#ce0035;" x="179.549735" xlink:href="#mf712d9ea22" y="401.75285"/>
     <use style="fill:#ce0035;stroke:#ce0035;" x="222.974956" xlink:href="#mf712d9ea22" y="401.30092"/>
     <use style="fill:#ce0035;stroke:#ce0035;" x="255.824867" xlink:href="#mf712d9ea22" y="400.817271"/>
     <use style="fill:#ce0035;stroke:#ce0035;" x="288.674779" xlink:href="#mf712d9ea22" y="399.379907"/>
     <use style="fill:#ce0035;stroke:#ce0035;" x="332.1" xlink:href="#mf712d9ea22" y="394.113737"/>
     <use style="fill:#ce0035;stroke:#ce0035;" x="364.949912" xlink:href="#mf712d9ea22" y="381.215252"/>
     <use style="fill:#ce0035;stroke:#ce0035;" x="397.799823" xlink:href="#mf712d9ea22" y="346.652913"/>
     <use style="fill:#ce0035;stroke:#ce0035;" x="441.225044" xlink:href="#mf712d9ea22" y="259.168492"/>
     <use style="fill:#ce0035;stroke:#ce0035;" x="474.074956" xlink:href="#mf712d9ea22" y="176.929897"/>
     <use style="fill:#ce0035;stroke:#ce0035;" x="506.924867" xlink:href="#mf712d9ea22" y="109.37284"/>
     <use style="fill:#ce0035;stroke:#ce0035;" x="550.350088" xlink:href="#mf712d9ea22" y="80.81954"/>
    </g>
   </g>
   <g id="patch_3">
    <path d="M 81 421.6464 
L 81 56.8512 
" style="fill:none;stroke:#000000;stroke-linecap:square;stroke-linejoin:miter;stroke-width:0.8;"/>
   </g>
   <g id="patch_4">
    <path d="M 81 421.6464 
L 583.2 421.6464 
" style="fill:none;stroke:#000000;stroke-linecap:square;stroke-linejoin:miter;stroke-width:0.8;"/>
   </g>
   <g id="text_14">
    <!-- RamR Variant Response to Papaverine -->
    <defs>
     <path d="M 44.390625 34.1875 
Q 47.5625 33.109375 50.5625 29.59375 
Q 53.5625 26.078125 56.59375 19.921875 
L 66.609375 0 
L 56 0 
L 46.6875 18.703125 
Q 43.0625 26.03125 39.671875 28.421875 
Q 36.28125 30.8125 30.421875 30.8125 
L 19.671875 30.8125 
L 19.671875 0 
L 9.8125 0 
L 9.8125 72.90625 
L 32.078125 72.90625 
Q 44.578125 72.90625 50.734375 67.671875 
Q 56.890625 62.453125 56.890625 51.90625 
Q 56.890625 45.015625 53.6875 40.46875 
Q 50.484375 35.9375 44.390625 34.1875 
z
M 19.671875 64.796875 
L 19.671875 38.921875 
L 32.078125 38.921875 
Q 39.203125 38.921875 42.84375 42.21875 
Q 46.484375 45.515625 46.484375 51.90625 
Q 46.484375 58.296875 42.84375 61.546875 
Q 39.203125 64.796875 32.078125 64.796875 
z
" id="DejaVuSans-82"/>
     <path d="M 52 44.1875 
Q 55.375 50.25 60.0625 53.125 
Q 64.75 56 71.09375 56 
Q 79.640625 56 84.28125 50.015625 
Q 88.921875 44.046875 88.921875 33.015625 
L 88.921875 0 
L 79.890625 0 
L 79.890625 32.71875 
Q 79.890625 40.578125 77.09375 44.375 
Q 74.3125 48.1875 68.609375 48.1875 
Q 61.625 48.1875 57.5625 43.546875 
Q 53.515625 38.921875 53.515625 30.90625 
L 53.515625 0 
L 44.484375 0 
L 44.484375 32.71875 
Q 44.484375 40.625 41.703125 44.40625 
Q 38.921875 48.1875 33.109375 48.1875 
Q 26.21875 48.1875 22.15625 43.53125 
Q 18.109375 38.875 18.109375 30.90625 
L 18.109375 0 
L 9.078125 0 
L 9.078125 54.6875 
L 18.109375 54.6875 
L 18.109375 46.1875 
Q 21.1875 51.21875 25.484375 53.609375 
Q 29.78125 56 35.6875 56 
Q 41.65625 56 45.828125 52.96875 
Q 50 49.953125 52 44.1875 
z
" id="DejaVuSans-109"/>
     <path d="M 28.609375 0 
L 0.78125 72.90625 
L 11.078125 72.90625 
L 34.1875 11.53125 
L 57.328125 72.90625 
L 67.578125 72.90625 
L 39.796875 0 
z
" id="DejaVuSans-86"/>
     <path d="M 18.3125 70.21875 
L 18.3125 54.6875 
L 36.8125 54.6875 
L 36.8125 47.703125 
L 18.3125 47.703125 
L 18.3125 18.015625 
Q 18.3125 11.328125 20.140625 9.421875 
Q 21.96875 7.515625 27.59375 7.515625 
L 36.8125 7.515625 
L 36.8125 0 
L 27.59375 0 
Q 17.1875 0 13.234375 3.875 
Q 9.28125 7.765625 9.28125 18.015625 
L 9.28125 47.703125 
L 2.6875 47.703125 
L 2.6875 54.6875 
L 9.28125 54.6875 
L 9.28125 70.21875 
z
" id="DejaVuSans-116"/>
     <path d="M 44.28125 53.078125 
L 44.28125 44.578125 
Q 40.484375 46.53125 36.375 47.5 
Q 32.28125 48.484375 27.875 48.484375 
Q 21.1875 48.484375 17.84375 46.4375 
Q 14.5 44.390625 14.5 40.28125 
Q 14.5 37.15625 16.890625 35.375 
Q 19.28125 33.59375 26.515625 31.984375 
L 29.59375 31.296875 
Q 39.15625 29.25 43.1875 25.515625 
Q 47.21875 21.78125 47.21875 15.09375 
Q 47.21875 7.46875 41.1875 3.015625 
Q 35.15625 -1.421875 24.609375 -1.421875 
Q 20.21875 -1.421875 15.453125 -0.5625 
Q 10.6875 0.296875 5.421875 2 
L 5.421875 11.28125 
Q 10.40625 8.6875 15.234375 7.390625 
Q 20.0625 6.109375 24.8125 6.109375 
Q 31.15625 6.109375 34.5625 8.28125 
Q 37.984375 10.453125 37.984375 14.40625 
Q 37.984375 18.0625 35.515625 20.015625 
Q 33.0625 21.96875 24.703125 23.78125 
L 21.578125 24.515625 
Q 13.234375 26.265625 9.515625 29.90625 
Q 5.8125 33.546875 5.8125 39.890625 
Q 5.8125 47.609375 11.28125 51.796875 
Q 16.75 56 26.8125 56 
Q 31.78125 56 36.171875 55.265625 
Q 40.578125 54.546875 44.28125 53.078125 
z
" id="DejaVuSans-115"/>
     <path d="M 30.609375 48.390625 
Q 23.390625 48.390625 19.1875 42.75 
Q 14.984375 37.109375 14.984375 27.296875 
Q 14.984375 17.484375 19.15625 11.84375 
Q 23.34375 6.203125 30.609375 6.203125 
Q 37.796875 6.203125 41.984375 11.859375 
Q 46.1875 17.53125 46.1875 27.296875 
Q 46.1875 37.015625 41.984375 42.703125 
Q 37.796875 48.390625 30.609375 48.390625 
z
M 30.609375 56 
Q 42.328125 56 49.015625 48.375 
Q 55.71875 40.765625 55.71875 27.296875 
Q 55.71875 13.875 49.015625 6.21875 
Q 42.328125 -1.421875 30.609375 -1.421875 
Q 18.84375 -1.421875 12.171875 6.21875 
Q 5.515625 13.875 5.515625 27.296875 
Q 5.515625 40.765625 12.171875 48.375 
Q 18.84375 56 30.609375 56 
z
" id="DejaVuSans-111"/>
    </defs>
    <g transform="translate(119.471719 50.8512)scale(0.22 -0.22)">
     <use xlink:href="#DejaVuSans-82"/>
     <use x="69.451172" xlink:href="#DejaVuSans-97"/>
     <use x="130.730469" xlink:href="#DejaVuSans-109"/>
     <use x="228.142578" xlink:href="#DejaVuSans-82"/>
     <use x="297.625" xlink:href="#DejaVuSans-32"/>
     <use x="329.412109" xlink:href="#DejaVuSans-86"/>
     <use x="397.710938" xlink:href="#DejaVuSans-97"/>
     <use x="458.990234" xlink:href="#DejaVuSans-114"/>
     <use x="500.103516" xlink:href="#DejaVuSans-105"/>
     <use x="527.886719" xlink:href="#DejaVuSans-97"/>
     <use x="589.166016" xlink:href="#DejaVuSans-110"/>
     <use x="652.544922" xlink:href="#DejaVuSans-116"/>
     <use x="691.753906" xlink:href="#DejaVuSans-32"/>
     <use x="723.541016" xlink:href="#DejaVuSans-82"/>
     <use x="792.960938" xlink:href="#DejaVuSans-101"/>
     <use x="854.484375" xlink:href="#DejaVuSans-115"/>
     <use x="906.583984" xlink:href="#DejaVuSans-112"/>
     <use x="970.060547" xlink:href="#DejaVuSans-111"/>
     <use x="1031.242188" xlink:href="#DejaVuSans-110"/>
     <use x="1094.621094" xlink:href="#DejaVuSans-115"/>
     <use x="1146.720703" xlink:href="#DejaVuSans-101"/>
     <use x="1208.244141" xlink:href="#DejaVuSans-32"/>
     <use x="1240.03125" xlink:href="#DejaVuSans-116"/>
     <use x="1279.240234" xlink:href="#DejaVuSans-111"/>
     <use x="1340.421875" xlink:href="#DejaVuSans-32"/>
     <use x="1372.208984" xlink:href="#DejaVuSans-80"/>
     <use x="1432.449219" xlink:href="#DejaVuSans-97"/>
     <use x="1493.728516" xlink:href="#DejaVuSans-112"/>
     <use x="1557.205078" xlink:href="#DejaVuSans-97"/>
     <use x="1618.484375" xlink:href="#DejaVuSans-118"/>
     <use x="1677.664062" xlink:href="#DejaVuSans-101"/>
     <use x="1739.1875" xlink:href="#DejaVuSans-114"/>
     <use x="1780.300781" xlink:href="#DejaVuSans-105"/>
     <use x="1808.083984" xlink:href="#DejaVuSans-110"/>
     <use x="1871.462891" xlink:href="#DejaVuSans-101"/>
    </g>
   </g>
   <g id="legend_1">
    <g id="patch_5">
     <path d="M 91.5 176.886356 
L 179.153906 176.886356 
Q 182.153906 176.886356 182.153906 173.886356 
L 182.153906 67.3512 
Q 182.153906 64.3512 179.153906 64.3512 
L 91.5 64.3512 
Q 88.5 64.3512 88.5 67.3512 
L 88.5 173.886356 
Q 88.5 176.886356 91.5 176.886356 
z
" style="fill:#ffffff;opacity:0.8;stroke:#cccccc;stroke-linejoin:miter;"/>
    </g>
    <g id="line2d_68">
     <path d="M 94.5 76.205887 
L 124.5 76.205887 
" style="fill:none;stroke:#0099ff;stroke-linecap:square;stroke-width:1.5;"/>
    </g>
    <g id="line2d_69"/>
    <g id="text_15">
     <!-- WT -->
     <defs>
      <path d="M 75.296875 0 
L 64.9375 0 
L 47.859375 60.84375 
L 31.25 0 
L 20.90625 0 
L 1.953125 74.03125 
L 12.5 74.03125 
L 26.46875 13.875 
L 42.875 74.03125 
L 53.03125 74.03125 
L 69.921875 13.875 
L 83.5 74.03125 
L 94.046875 74.03125 
z
" id="Gargi-87"/>
      <path d="M 38.671875 65.71875 
L 38.671875 0 
L 29.203125 0 
L 29.203125 65.71875 
L 4.890625 65.71875 
L 4.890625 74.03125 
L 62.984375 74.03125 
L 62.984375 65.71875 
z
" id="Gargi-84"/>
     </defs>
     <g transform="translate(136.5 81.455887)scale(0.15 -0.15)">
      <use xlink:href="#Gargi-87"/>
      <use x="95.996094" xlink:href="#Gargi-84"/>
     </g>
    </g>
    <g id="line2d_70">
     <path d="M 94.5 97.812919 
L 124.5 97.812919 
" style="fill:none;stroke:#3372cc;stroke-linecap:square;stroke-width:1.5;"/>
    </g>
    <g id="line2d_71"/>
    <g id="text_16">
     <!-- PAP1 -->
     <defs>
      <path d="M 14.265625 39.75 
L 33.984375 39.75 
Q 44.34375 39.75 47.359375 47.265625 
Q 48.4375 49.703125 48.4375 52.734375 
Q 48.4375 61.8125 40.4375 64.65625 
Q 37.59375 65.71875 33.984375 65.71875 
L 14.265625 65.71875 
z
M 14.265625 31.34375 
L 14.265625 0 
L 4.890625 0 
L 4.890625 74.03125 
L 35.453125 74.03125 
Q 51.765625 74.03125 56.546875 62.015625 
Q 58.296875 57.90625 58.296875 52.34375 
Q 58.296875 42.484375 51.859375 36.625 
Q 46 31.34375 37.59375 31.34375 
z
" id="Gargi-80"/>
      <path d="M 48.640625 30.171875 
L 37.203125 63.875 
L 25.09375 30.171875 
z
M 51.265625 22.265625 
L 22.75 22.265625 
L 14.9375 0 
L 4.890625 0 
L 31.25 74.03125 
L 43.453125 74.03125 
L 69.4375 0 
L 58.890625 0 
z
" id="Gargi-65"/>
      <path d="M 22.75 51.265625 
L 6.84375 51.265625 
L 6.84375 57.71875 
Q 17.1875 58.984375 20.21875 61.328125 
Q 23.34375 63.578125 25.390625 70.796875 
L 25.875 71.96875 
L 31.734375 71.96875 
L 31.734375 0 
L 22.75 0 
z
" id="Gargi-49"/>
     </defs>
     <g transform="translate(136.5 103.062919)scale(0.15 -0.15)">
      <use xlink:href="#Gargi-80"/>
      <use x="63.183594" xlink:href="#Gargi-65"/>
      <use x="137.5" xlink:href="#Gargi-80"/>
      <use x="200.683594" xlink:href="#Gargi-49"/>
     </g>
    </g>
    <g id="line2d_72">
     <path d="M 94.5 119.41995 
L 124.5 119.41995 
" style="fill:none;stroke:#674c9a;stroke-linecap:square;stroke-width:1.5;"/>
    </g>
    <g id="line2d_73"/>
    <g id="text_17">
     <!-- PAP2 -->
     <defs>
      <path d="M 54.78125 8.796875 
L 54.78125 0 
L 6.84375 0 
Q 6.84375 12.984375 12.703125 19.828125 
Q 17.96875 25.984375 27.046875 31.15625 
L 36.421875 36.421875 
Q 46.1875 42.09375 46.1875 50.6875 
Q 46.1875 58.015625 40.046875 61.921875 
Q 36.53125 64.15625 31.9375 64.15625 
Q 24.3125 64.15625 20.3125 58.40625 
L 19.53125 57.234375 
Q 17.484375 53.90625 17.484375 47.078125 
L 8.5 47.078125 
Q 8.5 57.234375 12.40625 62.703125 
Q 19.046875 71.96875 32.234375 71.96875 
Q 42.28125 71.96875 48.640625 66.3125 
Q 55.28125 60.25 55.28125 50.875 
Q 55.28125 37.5 40.046875 29.109375 
L 29.890625 23.640625 
Q 20.703125 18.265625 18.265625 13.28125 
Q 17.28125 11.234375 16.890625 8.796875 
z
" id="Gargi-50"/>
     </defs>
     <g transform="translate(136.5 124.66995)scale(0.15 -0.15)">
      <use xlink:href="#Gargi-80"/>
      <use x="63.183594" xlink:href="#Gargi-65"/>
      <use x="137.5" xlink:href="#Gargi-80"/>
      <use x="200.683594" xlink:href="#Gargi-50"/>
     </g>
    </g>
    <g id="line2d_74">
     <path d="M 94.5 141.026981 
L 124.5 141.026981 
" style="fill:none;stroke:#9a2667;stroke-linecap:square;stroke-width:1.5;"/>
    </g>
    <g id="line2d_75"/>
    <g id="text_18">
     <!-- PAP3 -->
     <defs>
      <path d="M 26.078125 35.25 
L 26.078125 42.78125 
Q 34.578125 42.78125 37.984375 44.34375 
Q 43.75 46.96875 43.75 54 
Q 43.75 62.703125 36.625 65.4375 
Q 34.1875 66.3125 31.0625 66.3125 
Q 23.046875 66.3125 19.4375 60.84375 
Q 19.140625 60.359375 18.953125 59.96875 
Q 17.28125 57.03125 17.28125 50.875 
L 8.40625 50.875 
Q 8.40625 74.03125 27.640625 74.03125 
Q 28.71875 74.03125 30.953125 74.125 
Q 31.734375 74.125 32.421875 74.125 
Q 44.734375 74.125 50.390625 64.65625 
Q 52.828125 60.453125 52.828125 54.390625 
Q 52.828125 43.359375 42.78125 39.453125 
Q 52.25 36.140625 54.296875 28.421875 
Q 54.984375 25.78125 54.984375 22.265625 
Q 54.984375 9.859375 45.40625 3.71875 
Q 39.265625 -0.203125 30.671875 -0.203125 
Q 15.625 -0.203125 10.0625 10.25 
Q 6.84375 15.140625 6.84375 23.046875 
L 15.828125 23.046875 
Q 15.828125 9.671875 27.25 8.015625 
Q 29.296875 7.71875 30.953125 7.71875 
Q 41.5 7.71875 44.734375 15.71875 
Q 45.90625 18.5625 45.90625 22.171875 
Q 45.90625 35.25 30.953125 35.25 
L 27.15625 35.25 
z
" id="Gargi-51"/>
     </defs>
     <g transform="translate(136.5 146.276981)scale(0.15 -0.15)">
      <use xlink:href="#Gargi-80"/>
      <use x="63.183594" xlink:href="#Gargi-65"/>
      <use x="137.5" xlink:href="#Gargi-80"/>
      <use x="200.683594" xlink:href="#Gargi-51"/>
     </g>
    </g>
    <g id="line2d_76">
     <path d="M 94.5 162.634012 
L 124.5 162.634012 
" style="fill:none;stroke:#ce0035;stroke-linecap:square;stroke-width:1.5;"/>
    </g>
    <g id="line2d_77"/>
    <g id="text_19">
     <!-- PAP4 -->
     <defs>
      <path d="M 37.203125 25.296875 
L 37.203125 56.734375 
L 14.65625 25.296875 
z
M 37.203125 17.28125 
L 6.84375 17.28125 
L 6.84375 26.765625 
L 39.546875 71.96875 
L 46.1875 71.96875 
L 46.1875 25.296875 
L 56.84375 25.296875 
L 56.84375 17.28125 
L 46.1875 17.28125 
L 46.1875 0 
L 37.203125 0 
z
" id="Gargi-52"/>
     </defs>
     <g transform="translate(136.5 167.884012)scale(0.15 -0.15)">
      <use xlink:href="#Gargi-80"/>
      <use x="63.183594" xlink:href="#Gargi-65"/>
      <use x="137.5" xlink:href="#Gargi-80"/>
      <use x="200.683594" xlink:href="#Gargi-52"/>
     </g>
    </g>
   </g>
  </g>
 </g>
 <defs>
  <clipPath id="pa7cd44a847">
   <rect height="364.7952" width="502.2" x="81" y="56.8512"/>
  </clipPath>
 </defs>
</svg>
