<?xml version="1.0" encoding="utf-8" standalone="no"?>
<!DOCTYPE svg PUBLIC "-//W3C//DTD SVG 1.1//EN"
  "http://www.w3.org/Graphics/SVG/1.1/DTD/svg11.dtd">
<!-- Created with matplotlib (https://matplotlib.org/) -->
<svg height="473.76pt" version="1.1" viewBox="0 0 648 473.76" width="648pt" xmlns="http://www.w3.org/2000/svg" xmlns:xlink="http://www.w3.org/1999/xlink">
 <defs>
  <style type="text/css">
*{stroke-linecap:butt;stroke-linejoin:round;}
  </style>
 </defs>
 <g id="figure_1">
  <g id="patch_1">
   <path d="M 0 473.76 
L 648 473.76 
L 648 0 
L 0 0 
z
" style="fill:#ffffff;"/>
  </g>
  <g id="axes_1">
   <g id="patch_2">
    <path d="M 81 421.6464 
L 583.2 421.6464 
L 583.2 56.8512 
L 81 56.8512 
z
" style="fill:#ffffff;"/>
   </g>
   <g id="matplotlib.axis_1">
    <g id="xtick_1">
     <g id="line2d_1">
      <defs>
       <path d="M 0 0 
L 0 2 
" id="m69709f1198" style="stroke:#000000;"/>
      </defs>
      <g>
       <use style="stroke:#000000;" x="237.223814" xlink:href="#m69709f1198" y="421.6464"/>
      </g>
     </g>
     <g id="text_1">
      <!-- 0.1 -->
      <defs>
       <path d="M 31.78125 66.40625 
Q 24.171875 66.40625 20.328125 58.90625 
Q 16.5 51.421875 16.5 36.375 
Q 16.5 21.390625 20.328125 13.890625 
Q 24.171875 6.390625 31.78125 6.390625 
Q 39.453125 6.390625 43.28125 13.890625 
Q 47.125 21.390625 47.125 36.375 
Q 47.125 51.421875 43.28125 58.90625 
Q 39.453125 66.40625 31.78125 66.40625 
z
M 31.78125 74.21875 
Q 44.046875 74.21875 50.515625 64.515625 
Q 56.984375 54.828125 56.984375 36.375 
Q 56.984375 17.96875 50.515625 8.265625 
Q 44.046875 -1.421875 31.78125 -1.421875 
Q 19.53125 -1.421875 13.0625 8.265625 
Q 6.59375 17.96875 6.59375 36.375 
Q 6.59375 54.828125 13.0625 64.515625 
Q 19.53125 74.21875 31.78125 74.21875 
z
" id="DejaVuSans-48"/>
       <path d="M 10.6875 12.40625 
L 21 12.40625 
L 21 0 
L 10.6875 0 
z
" id="DejaVuSans-46"/>
       <path d="M 12.40625 8.296875 
L 28.515625 8.296875 
L 28.515625 63.921875 
L 10.984375 60.40625 
L 10.984375 69.390625 
L 28.421875 72.90625 
L 38.28125 72.90625 
L 38.28125 8.296875 
L 54.390625 8.296875 
L 54.390625 0 
L 12.40625 0 
z
" id="DejaVuSans-49"/>
      </defs>
      <g transform="translate(222.911002 440.823588)scale(0.18 -0.18)">
       <use xlink:href="#DejaVuSans-48"/>
       <use x="63.623047" xlink:href="#DejaVuSans-46"/>
       <use x="95.410156" xlink:href="#DejaVuSans-49"/>
      </g>
     </g>
    </g>
    <g id="xtick_2">
     <g id="line2d_2">
      <g>
       <use style="stroke:#000000;" x="410.211907" xlink:href="#m69709f1198" y="421.6464"/>
      </g>
     </g>
     <g id="text_2">
      <!-- 1.0 -->
      <g transform="translate(395.899095 440.823588)scale(0.18 -0.18)">
       <use xlink:href="#DejaVuSans-49"/>
       <use x="63.623047" xlink:href="#DejaVuSans-46"/>
       <use x="95.410156" xlink:href="#DejaVuSans-48"/>
      </g>
     </g>
    </g>
    <g id="xtick_3">
     <g id="line2d_3">
      <g>
       <use style="stroke:#000000;" x="583.2" xlink:href="#m69709f1198" y="421.6464"/>
      </g>
     </g>
     <g id="text_3">
      <!-- 10.0 -->
      <g transform="translate(563.160937 440.823588)scale(0.18 -0.18)">
       <use xlink:href="#DejaVuSans-49"/>
       <use x="63.623047" xlink:href="#DejaVuSans-48"/>
       <use x="127.246094" xlink:href="#DejaVuSans-46"/>
       <use x="159.033203" xlink:href="#DejaVuSans-48"/>
      </g>
     </g>
    </g>
    <g id="xtick_4">
     <g id="line2d_4">
      <defs>
       <path d="M 0 0 
L 0 2 
" id="m0720a0b172" style="stroke:#000000;stroke-width:0.6;"/>
      </defs>
      <g>
       <use style="stroke:#000000;stroke-width:0.6;" x="116.310326" xlink:href="#m0720a0b172" y="421.6464"/>
      </g>
     </g>
    </g>
    <g id="xtick_5">
     <g id="line2d_5">
      <g>
       <use style="stroke:#000000;stroke-width:0.6;" x="146.772018" xlink:href="#m0720a0b172" y="421.6464"/>
      </g>
     </g>
    </g>
    <g id="xtick_6">
     <g id="line2d_6">
      <g>
       <use style="stroke:#000000;stroke-width:0.6;" x="168.384931" xlink:href="#m0720a0b172" y="421.6464"/>
      </g>
     </g>
    </g>
    <g id="xtick_7">
     <g id="line2d_7">
      <g>
       <use style="stroke:#000000;stroke-width:0.6;" x="185.14921" xlink:href="#m0720a0b172" y="421.6464"/>
      </g>
     </g>
    </g>
    <g id="xtick_8">
     <g id="line2d_8">
      <g>
       <use style="stroke:#000000;stroke-width:0.6;" x="198.846622" xlink:href="#m0720a0b172" y="421.6464"/>
      </g>
     </g>
    </g>
    <g id="xtick_9">
     <g id="line2d_9">
      <g>
       <use style="stroke:#000000;stroke-width:0.6;" x="210.42762" xlink:href="#m0720a0b172" y="421.6464"/>
      </g>
     </g>
    </g>
    <g id="xtick_10">
     <g id="line2d_10">
      <g>
       <use style="stroke:#000000;stroke-width:0.6;" x="220.459536" xlink:href="#m0720a0b172" y="421.6464"/>
      </g>
     </g>
    </g>
    <g id="xtick_11">
     <g id="line2d_11">
      <g>
       <use style="stroke:#000000;stroke-width:0.6;" x="229.308313" xlink:href="#m0720a0b172" y="421.6464"/>
      </g>
     </g>
    </g>
    <g id="xtick_12">
     <g id="line2d_12">
      <g>
       <use style="stroke:#000000;stroke-width:0.6;" x="289.298419" xlink:href="#m0720a0b172" y="421.6464"/>
      </g>
     </g>
    </g>
    <g id="xtick_13">
     <g id="line2d_13">
      <g>
       <use style="stroke:#000000;stroke-width:0.6;" x="319.76011" xlink:href="#m0720a0b172" y="421.6464"/>
      </g>
     </g>
    </g>
    <g id="xtick_14">
     <g id="line2d_14">
      <g>
       <use style="stroke:#000000;stroke-width:0.6;" x="341.373024" xlink:href="#m0720a0b172" y="421.6464"/>
      </g>
     </g>
    </g>
    <g id="xtick_15">
     <g id="line2d_15">
      <g>
       <use style="stroke:#000000;stroke-width:0.6;" x="358.137302" xlink:href="#m0720a0b172" y="421.6464"/>
      </g>
     </g>
    </g>
    <g id="xtick_16">
     <g id="line2d_16">
      <g>
       <use style="stroke:#000000;stroke-width:0.6;" x="371.834715" xlink:href="#m0720a0b172" y="421.6464"/>
      </g>
     </g>
    </g>
    <g id="xtick_17">
     <g id="line2d_17">
      <g>
       <use style="stroke:#000000;stroke-width:0.6;" x="383.415713" xlink:href="#m0720a0b172" y="421.6464"/>
      </g>
     </g>
    </g>
    <g id="xtick_18">
     <g id="line2d_18">
      <g>
       <use style="stroke:#000000;stroke-width:0.6;" x="393.447629" xlink:href="#m0720a0b172" y="421.6464"/>
      </g>
     </g>
    </g>
    <g id="xtick_19">
     <g id="line2d_19">
      <g>
       <use style="stroke:#000000;stroke-width:0.6;" x="402.296406" xlink:href="#m0720a0b172" y="421.6464"/>
      </g>
     </g>
    </g>
    <g id="xtick_20">
     <g id="line2d_20">
      <g>
       <use style="stroke:#000000;stroke-width:0.6;" x="462.286512" xlink:href="#m0720a0b172" y="421.6464"/>
      </g>
     </g>
    </g>
    <g id="xtick_21">
     <g id="line2d_21">
      <g>
       <use style="stroke:#000000;stroke-width:0.6;" x="492.748203" xlink:href="#m0720a0b172" y="421.6464"/>
      </g>
     </g>
    </g>
    <g id="xtick_22">
     <g id="line2d_22">
      <g>
       <use style="stroke:#000000;stroke-width:0.6;" x="514.361117" xlink:href="#m0720a0b172" y="421.6464"/>
      </g>
     </g>
    </g>
    <g id="xtick_23">
     <g id="line2d_23">
      <g>
       <use style="stroke:#000000;stroke-width:0.6;" x="531.125395" xlink:href="#m0720a0b172" y="421.6464"/>
      </g>
     </g>
    </g>
    <g id="xtick_24">
     <g id="line2d_24">
      <g>
       <use style="stroke:#000000;stroke-width:0.6;" x="544.822808" xlink:href="#m0720a0b172" y="421.6464"/>
      </g>
     </g>
    </g>
    <g id="xtick_25">
     <g id="line2d_25">
      <g>
       <use style="stroke:#000000;stroke-width:0.6;" x="556.403805" xlink:href="#m0720a0b172" y="421.6464"/>
      </g>
     </g>
    </g>
    <g id="xtick_26">
     <g id="line2d_26">
      <g>
       <use style="stroke:#000000;stroke-width:0.6;" x="566.435722" xlink:href="#m0720a0b172" y="421.6464"/>
      </g>
     </g>
    </g>
    <g id="xtick_27">
     <g id="line2d_27">
      <g>
       <use style="stroke:#000000;stroke-width:0.6;" x="575.284499" xlink:href="#m0720a0b172" y="421.6464"/>
      </g>
     </g>
    </g>
    <g id="text_4">
     <!-- Tetrahydropapaverine (uM) -->
     <defs>
      <path d="M -0.296875 72.90625 
L 61.375 72.90625 
L 61.375 64.59375 
L 35.5 64.59375 
L 35.5 0 
L 25.59375 0 
L 25.59375 64.59375 
L -0.296875 64.59375 
z
" id="DejaVuSans-84"/>
      <path d="M 56.203125 29.59375 
L 56.203125 25.203125 
L 14.890625 25.203125 
Q 15.484375 15.921875 20.484375 11.0625 
Q 25.484375 6.203125 34.421875 6.203125 
Q 39.59375 6.203125 44.453125 7.46875 
Q 49.3125 8.734375 54.109375 11.28125 
L 54.109375 2.78125 
Q 49.265625 0.734375 44.1875 -0.34375 
Q 39.109375 -1.421875 33.890625 -1.421875 
Q 20.796875 -1.421875 13.15625 6.1875 
Q 5.515625 13.8125 5.515625 26.8125 
Q 5.515625 40.234375 12.765625 48.109375 
Q 20.015625 56 32.328125 56 
Q 43.359375 56 49.78125 48.890625 
Q 56.203125 41.796875 56.203125 29.59375 
z
M 47.21875 32.234375 
Q 47.125 39.59375 43.09375 43.984375 
Q 39.0625 48.390625 32.421875 48.390625 
Q 24.90625 48.390625 20.390625 44.140625 
Q 15.875 39.890625 15.1875 32.171875 
z
" id="DejaVuSans-101"/>
      <path d="M 18.3125 70.21875 
L 18.3125 54.6875 
L 36.8125 54.6875 
L 36.8125 47.703125 
L 18.3125 47.703125 
L 18.3125 18.015625 
Q 18.3125 11.328125 20.140625 9.421875 
Q 21.96875 7.515625 27.59375 7.515625 
L 36.8125 7.515625 
L 36.8125 0 
L 27.59375 0 
Q 17.1875 0 13.234375 3.875 
Q 9.28125 7.765625 9.28125 18.015625 
L 9.28125 47.703125 
L 2.6875 47.703125 
L 2.6875 54.6875 
L 9.28125 54.6875 
L 9.28125 70.21875 
z
" id="DejaVuSans-116"/>
      <path d="M 41.109375 46.296875 
Q 39.59375 47.171875 37.8125 47.578125 
Q 36.03125 48 33.890625 48 
Q 26.265625 48 22.1875 43.046875 
Q 18.109375 38.09375 18.109375 28.8125 
L 18.109375 0 
L 9.078125 0 
L 9.078125 54.6875 
L 18.109375 54.6875 
L 18.109375 46.1875 
Q 20.953125 51.171875 25.484375 53.578125 
Q 30.03125 56 36.53125 56 
Q 37.453125 56 38.578125 55.875 
Q 39.703125 55.765625 41.0625 55.515625 
z
" id="DejaVuSans-114"/>
      <path d="M 34.28125 27.484375 
Q 23.390625 27.484375 19.1875 25 
Q 14.984375 22.515625 14.984375 16.5 
Q 14.984375 11.71875 18.140625 8.90625 
Q 21.296875 6.109375 26.703125 6.109375 
Q 34.1875 6.109375 38.703125 11.40625 
Q 43.21875 16.703125 43.21875 25.484375 
L 43.21875 27.484375 
z
M 52.203125 31.203125 
L 52.203125 0 
L 43.21875 0 
L 43.21875 8.296875 
Q 40.140625 3.328125 35.546875 0.953125 
Q 30.953125 -1.421875 24.3125 -1.421875 
Q 15.921875 -1.421875 10.953125 3.296875 
Q 6 8.015625 6 15.921875 
Q 6 25.140625 12.171875 29.828125 
Q 18.359375 34.515625 30.609375 34.515625 
L 43.21875 34.515625 
L 43.21875 35.40625 
Q 43.21875 41.609375 39.140625 45 
Q 35.0625 48.390625 27.6875 48.390625 
Q 23 48.390625 18.546875 47.265625 
Q 14.109375 46.140625 10.015625 43.890625 
L 10.015625 52.203125 
Q 14.9375 54.109375 19.578125 55.046875 
Q 24.21875 56 28.609375 56 
Q 40.484375 56 46.34375 49.84375 
Q 52.203125 43.703125 52.203125 31.203125 
z
" id="DejaVuSans-97"/>
      <path d="M 54.890625 33.015625 
L 54.890625 0 
L 45.90625 0 
L 45.90625 32.71875 
Q 45.90625 40.484375 42.875 44.328125 
Q 39.84375 48.1875 33.796875 48.1875 
Q 26.515625 48.1875 22.3125 43.546875 
Q 18.109375 38.921875 18.109375 30.90625 
L 18.109375 0 
L 9.078125 0 
L 9.078125 75.984375 
L 18.109375 75.984375 
L 18.109375 46.1875 
Q 21.34375 51.125 25.703125 53.5625 
Q 30.078125 56 35.796875 56 
Q 45.21875 56 50.046875 50.171875 
Q 54.890625 44.34375 54.890625 33.015625 
z
" id="DejaVuSans-104"/>
      <path d="M 32.171875 -5.078125 
Q 28.375 -14.84375 24.75 -17.8125 
Q 21.140625 -20.796875 15.09375 -20.796875 
L 7.90625 -20.796875 
L 7.90625 -13.28125 
L 13.1875 -13.28125 
Q 16.890625 -13.28125 18.9375 -11.515625 
Q 21 -9.765625 23.484375 -3.21875 
L 25.09375 0.875 
L 2.984375 54.6875 
L 12.5 54.6875 
L 29.59375 11.921875 
L 46.6875 54.6875 
L 56.203125 54.6875 
z
" id="DejaVuSans-121"/>
      <path d="M 45.40625 46.390625 
L 45.40625 75.984375 
L 54.390625 75.984375 
L 54.390625 0 
L 45.40625 0 
L 45.40625 8.203125 
Q 42.578125 3.328125 38.25 0.953125 
Q 33.9375 -1.421875 27.875 -1.421875 
Q 17.96875 -1.421875 11.734375 6.484375 
Q 5.515625 14.40625 5.515625 27.296875 
Q 5.515625 40.1875 11.734375 48.09375 
Q 17.96875 56 27.875 56 
Q 33.9375 56 38.25 53.625 
Q 42.578125 51.265625 45.40625 46.390625 
z
M 14.796875 27.296875 
Q 14.796875 17.390625 18.875 11.75 
Q 22.953125 6.109375 30.078125 6.109375 
Q 37.203125 6.109375 41.296875 11.75 
Q 45.40625 17.390625 45.40625 27.296875 
Q 45.40625 37.203125 41.296875 42.84375 
Q 37.203125 48.484375 30.078125 48.484375 
Q 22.953125 48.484375 18.875 42.84375 
Q 14.796875 37.203125 14.796875 27.296875 
z
" id="DejaVuSans-100"/>
      <path d="M 30.609375 48.390625 
Q 23.390625 48.390625 19.1875 42.75 
Q 14.984375 37.109375 14.984375 27.296875 
Q 14.984375 17.484375 19.15625 11.84375 
Q 23.34375 6.203125 30.609375 6.203125 
Q 37.796875 6.203125 41.984375 11.859375 
Q 46.1875 17.53125 46.1875 27.296875 
Q 46.1875 37.015625 41.984375 42.703125 
Q 37.796875 48.390625 30.609375 48.390625 
z
M 30.609375 56 
Q 42.328125 56 49.015625 48.375 
Q 55.71875 40.765625 55.71875 27.296875 
Q 55.71875 13.875 49.015625 6.21875 
Q 42.328125 -1.421875 30.609375 -1.421875 
Q 18.84375 -1.421875 12.171875 6.21875 
Q 5.515625 13.875 5.515625 27.296875 
Q 5.515625 40.765625 12.171875 48.375 
Q 18.84375 56 30.609375 56 
z
" id="DejaVuSans-111"/>
      <path d="M 18.109375 8.203125 
L 18.109375 -20.796875 
L 9.078125 -20.796875 
L 9.078125 54.6875 
L 18.109375 54.6875 
L 18.109375 46.390625 
Q 20.953125 51.265625 25.265625 53.625 
Q 29.59375 56 35.59375 56 
Q 45.5625 56 51.78125 48.09375 
Q 58.015625 40.1875 58.015625 27.296875 
Q 58.015625 14.40625 51.78125 6.484375 
Q 45.5625 -1.421875 35.59375 -1.421875 
Q 29.59375 -1.421875 25.265625 0.953125 
Q 20.953125 3.328125 18.109375 8.203125 
z
M 48.6875 27.296875 
Q 48.6875 37.203125 44.609375 42.84375 
Q 40.53125 48.484375 33.40625 48.484375 
Q 26.265625 48.484375 22.1875 42.84375 
Q 18.109375 37.203125 18.109375 27.296875 
Q 18.109375 17.390625 22.1875 11.75 
Q 26.265625 6.109375 33.40625 6.109375 
Q 40.53125 6.109375 44.609375 11.75 
Q 48.6875 17.390625 48.6875 27.296875 
z
" id="DejaVuSans-112"/>
      <path d="M 2.984375 54.6875 
L 12.5 54.6875 
L 29.59375 8.796875 
L 46.6875 54.6875 
L 56.203125 54.6875 
L 35.6875 0 
L 23.484375 0 
z
" id="DejaVuSans-118"/>
      <path d="M 9.421875 54.6875 
L 18.40625 54.6875 
L 18.40625 0 
L 9.421875 0 
z
M 9.421875 75.984375 
L 18.40625 75.984375 
L 18.40625 64.59375 
L 9.421875 64.59375 
z
" id="DejaVuSans-105"/>
      <path d="M 54.890625 33.015625 
L 54.890625 0 
L 45.90625 0 
L 45.90625 32.71875 
Q 45.90625 40.484375 42.875 44.328125 
Q 39.84375 48.1875 33.796875 48.1875 
Q 26.515625 48.1875 22.3125 43.546875 
Q 18.109375 38.921875 18.109375 30.90625 
L 18.109375 0 
L 9.078125 0 
L 9.078125 54.6875 
L 18.109375 54.6875 
L 18.109375 46.1875 
Q 21.34375 51.125 25.703125 53.5625 
Q 30.078125 56 35.796875 56 
Q 45.21875 56 50.046875 50.171875 
Q 54.890625 44.34375 54.890625 33.015625 
z
" id="DejaVuSans-110"/>
      <path id="DejaVuSans-32"/>
      <path d="M 31 75.875 
Q 24.46875 64.65625 21.28125 53.65625 
Q 18.109375 42.671875 18.109375 31.390625 
Q 18.109375 20.125 21.3125 9.0625 
Q 24.515625 -2 31 -13.1875 
L 23.1875 -13.1875 
Q 15.875 -1.703125 12.234375 9.375 
Q 8.59375 20.453125 8.59375 31.390625 
Q 8.59375 42.28125 12.203125 53.3125 
Q 15.828125 64.359375 23.1875 75.875 
z
" id="DejaVuSans-40"/>
      <path d="M 8.5 21.578125 
L 8.5 54.6875 
L 17.484375 54.6875 
L 17.484375 21.921875 
Q 17.484375 14.15625 20.5 10.265625 
Q 23.53125 6.390625 29.59375 6.390625 
Q 36.859375 6.390625 41.078125 11.03125 
Q 45.3125 15.671875 45.3125 23.6875 
L 45.3125 54.6875 
L 54.296875 54.6875 
L 54.296875 0 
L 45.3125 0 
L 45.3125 8.40625 
Q 42.046875 3.421875 37.71875 1 
Q 33.40625 -1.421875 27.6875 -1.421875 
Q 18.265625 -1.421875 13.375 4.4375 
Q 8.5 10.296875 8.5 21.578125 
z
M 31.109375 56 
z
" id="DejaVuSans-117"/>
      <path d="M 9.8125 72.90625 
L 24.515625 72.90625 
L 43.109375 23.296875 
L 61.8125 72.90625 
L 76.515625 72.90625 
L 76.515625 0 
L 66.890625 0 
L 66.890625 64.015625 
L 48.09375 14.015625 
L 38.1875 14.015625 
L 19.390625 64.015625 
L 19.390625 0 
L 9.8125 0 
z
" id="DejaVuSans-77"/>
      <path d="M 8.015625 75.875 
L 15.828125 75.875 
Q 23.140625 64.359375 26.78125 53.3125 
Q 30.421875 42.28125 30.421875 31.390625 
Q 30.421875 20.453125 26.78125 9.375 
Q 23.140625 -1.703125 15.828125 -13.1875 
L 8.015625 -13.1875 
Q 14.5 -2 17.703125 9.0625 
Q 20.90625 20.125 20.90625 31.390625 
Q 20.90625 42.671875 17.703125 53.65625 
Q 14.5 64.65625 8.015625 75.875 
z
" id="DejaVuSans-41"/>
     </defs>
     <g transform="translate(194.523438 463.7639)scale(0.2 -0.2)">
      <use xlink:href="#DejaVuSans-84"/>
      <use x="60.818359" xlink:href="#DejaVuSans-101"/>
      <use x="122.341797" xlink:href="#DejaVuSans-116"/>
      <use x="161.550781" xlink:href="#DejaVuSans-114"/>
      <use x="202.664062" xlink:href="#DejaVuSans-97"/>
      <use x="263.943359" xlink:href="#DejaVuSans-104"/>
      <use x="327.322266" xlink:href="#DejaVuSans-121"/>
      <use x="386.501953" xlink:href="#DejaVuSans-100"/>
      <use x="449.978516" xlink:href="#DejaVuSans-114"/>
      <use x="491.060547" xlink:href="#DejaVuSans-111"/>
      <use x="552.242188" xlink:href="#DejaVuSans-112"/>
      <use x="615.71875" xlink:href="#DejaVuSans-97"/>
      <use x="676.998047" xlink:href="#DejaVuSans-112"/>
      <use x="740.474609" xlink:href="#DejaVuSans-97"/>
      <use x="801.753906" xlink:href="#DejaVuSans-118"/>
      <use x="860.933594" xlink:href="#DejaVuSans-101"/>
      <use x="922.457031" xlink:href="#DejaVuSans-114"/>
      <use x="963.570312" xlink:href="#DejaVuSans-105"/>
      <use x="991.353516" xlink:href="#DejaVuSans-110"/>
      <use x="1054.732422" xlink:href="#DejaVuSans-101"/>
      <use x="1116.255859" xlink:href="#DejaVuSans-32"/>
      <use x="1148.042969" xlink:href="#DejaVuSans-40"/>
      <use x="1187.056641" xlink:href="#DejaVuSans-117"/>
      <use x="1250.435547" xlink:href="#DejaVuSans-77"/>
      <use x="1336.714844" xlink:href="#DejaVuSans-41"/>
     </g>
    </g>
   </g>
   <g id="matplotlib.axis_2">
    <g id="ytick_1">
     <g id="line2d_28">
      <defs>
       <path d="M 0 0 
L -2 0 
" id="m4b48e744fb" style="stroke:#000000;"/>
      </defs>
      <g>
       <use style="stroke:#000000;" x="81" xlink:href="#m4b48e744fb" y="405.0648"/>
      </g>
     </g>
     <g id="text_5">
      <!-- 0 -->
      <g transform="translate(64.0475 411.903394)scale(0.18 -0.18)">
       <use xlink:href="#DejaVuSans-48"/>
      </g>
     </g>
    </g>
    <g id="ytick_2">
     <g id="line2d_29">
      <g>
       <use style="stroke:#000000;" x="81" xlink:href="#m4b48e744fb" y="348.823298"/>
      </g>
     </g>
     <g id="text_6">
      <!-- 1 -->
      <g transform="translate(64.0475 355.661892)scale(0.18 -0.18)">
       <use xlink:href="#DejaVuSans-49"/>
      </g>
     </g>
    </g>
    <g id="ytick_3">
     <g id="line2d_30">
      <g>
       <use style="stroke:#000000;" x="81" xlink:href="#m4b48e744fb" y="292.581797"/>
      </g>
     </g>
     <g id="text_7">
      <!-- 2 -->
      <defs>
       <path d="M 19.1875 8.296875 
L 53.609375 8.296875 
L 53.609375 0 
L 7.328125 0 
L 7.328125 8.296875 
Q 12.9375 14.109375 22.625 23.890625 
Q 32.328125 33.6875 34.8125 36.53125 
Q 39.546875 41.84375 41.421875 45.53125 
Q 43.3125 49.21875 43.3125 52.78125 
Q 43.3125 58.59375 39.234375 62.25 
Q 35.15625 65.921875 28.609375 65.921875 
Q 23.96875 65.921875 18.8125 64.3125 
Q 13.671875 62.703125 7.8125 59.421875 
L 7.8125 69.390625 
Q 13.765625 71.78125 18.9375 73 
Q 24.125 74.21875 28.421875 74.21875 
Q 39.75 74.21875 46.484375 68.546875 
Q 53.21875 62.890625 53.21875 53.421875 
Q 53.21875 48.921875 51.53125 44.890625 
Q 49.859375 40.875 45.40625 35.40625 
Q 44.1875 33.984375 37.640625 27.21875 
Q 31.109375 20.453125 19.1875 8.296875 
z
" id="DejaVuSans-50"/>
      </defs>
      <g transform="translate(64.0475 299.420391)scale(0.18 -0.18)">
       <use xlink:href="#DejaVuSans-50"/>
      </g>
     </g>
    </g>
    <g id="ytick_4">
     <g id="line2d_31">
      <g>
       <use style="stroke:#000000;" x="81" xlink:href="#m4b48e744fb" y="236.340295"/>
      </g>
     </g>
     <g id="text_8">
      <!-- 3 -->
      <defs>
       <path d="M 40.578125 39.3125 
Q 47.65625 37.796875 51.625 33 
Q 55.609375 28.21875 55.609375 21.1875 
Q 55.609375 10.40625 48.1875 4.484375 
Q 40.765625 -1.421875 27.09375 -1.421875 
Q 22.515625 -1.421875 17.65625 -0.515625 
Q 12.796875 0.390625 7.625 2.203125 
L 7.625 11.71875 
Q 11.71875 9.328125 16.59375 8.109375 
Q 21.484375 6.890625 26.8125 6.890625 
Q 36.078125 6.890625 40.9375 10.546875 
Q 45.796875 14.203125 45.796875 21.1875 
Q 45.796875 27.640625 41.28125 31.265625 
Q 36.765625 34.90625 28.71875 34.90625 
L 20.21875 34.90625 
L 20.21875 43.015625 
L 29.109375 43.015625 
Q 36.375 43.015625 40.234375 45.921875 
Q 44.09375 48.828125 44.09375 54.296875 
Q 44.09375 59.90625 40.109375 62.90625 
Q 36.140625 65.921875 28.71875 65.921875 
Q 24.65625 65.921875 20.015625 65.03125 
Q 15.375 64.15625 9.8125 62.3125 
L 9.8125 71.09375 
Q 15.4375 72.65625 20.34375 73.4375 
Q 25.25 74.21875 29.59375 74.21875 
Q 40.828125 74.21875 47.359375 69.109375 
Q 53.90625 64.015625 53.90625 55.328125 
Q 53.90625 49.265625 50.4375 45.09375 
Q 46.96875 40.921875 40.578125 39.3125 
z
" id="DejaVuSans-51"/>
      </defs>
      <g transform="translate(64.0475 243.178889)scale(0.18 -0.18)">
       <use xlink:href="#DejaVuSans-51"/>
      </g>
     </g>
    </g>
    <g id="ytick_5">
     <g id="line2d_32">
      <g>
       <use style="stroke:#000000;" x="81" xlink:href="#m4b48e744fb" y="180.098794"/>
      </g>
     </g>
     <g id="text_9">
      <!-- 4 -->
      <defs>
       <path d="M 37.796875 64.3125 
L 12.890625 25.390625 
L 37.796875 25.390625 
z
M 35.203125 72.90625 
L 47.609375 72.90625 
L 47.609375 25.390625 
L 58.015625 25.390625 
L 58.015625 17.1875 
L 47.609375 17.1875 
L 47.609375 0 
L 37.796875 0 
L 37.796875 17.1875 
L 4.890625 17.1875 
L 4.890625 26.703125 
z
" id="DejaVuSans-52"/>
      </defs>
      <g transform="translate(64.0475 186.937387)scale(0.18 -0.18)">
       <use xlink:href="#DejaVuSans-52"/>
      </g>
     </g>
    </g>
    <g id="ytick_6">
     <g id="line2d_33">
      <g>
       <use style="stroke:#000000;" x="81" xlink:href="#m4b48e744fb" y="123.857292"/>
      </g>
     </g>
     <g id="text_10">
      <!-- 5 -->
      <defs>
       <path d="M 10.796875 72.90625 
L 49.515625 72.90625 
L 49.515625 64.59375 
L 19.828125 64.59375 
L 19.828125 46.734375 
Q 21.96875 47.46875 24.109375 47.828125 
Q 26.265625 48.1875 28.421875 48.1875 
Q 40.625 48.1875 47.75 41.5 
Q 54.890625 34.8125 54.890625 23.390625 
Q 54.890625 11.625 47.5625 5.09375 
Q 40.234375 -1.421875 26.90625 -1.421875 
Q 22.3125 -1.421875 17.546875 -0.640625 
Q 12.796875 0.140625 7.71875 1.703125 
L 7.71875 11.625 
Q 12.109375 9.234375 16.796875 8.0625 
Q 21.484375 6.890625 26.703125 6.890625 
Q 35.15625 6.890625 40.078125 11.328125 
Q 45.015625 15.765625 45.015625 23.390625 
Q 45.015625 31 40.078125 35.4375 
Q 35.15625 39.890625 26.703125 39.890625 
Q 22.75 39.890625 18.8125 39.015625 
Q 14.890625 38.140625 10.796875 36.28125 
z
" id="DejaVuSans-53"/>
      </defs>
      <g transform="translate(64.0475 130.695886)scale(0.18 -0.18)">
       <use xlink:href="#DejaVuSans-53"/>
      </g>
     </g>
    </g>
    <g id="ytick_7">
     <g id="line2d_34">
      <g>
       <use style="stroke:#000000;" x="81" xlink:href="#m4b48e744fb" y="67.61579"/>
      </g>
     </g>
     <g id="text_11">
      <!-- 6 -->
      <defs>
       <path d="M 33.015625 40.375 
Q 26.375 40.375 22.484375 35.828125 
Q 18.609375 31.296875 18.609375 23.390625 
Q 18.609375 15.53125 22.484375 10.953125 
Q 26.375 6.390625 33.015625 6.390625 
Q 39.65625 6.390625 43.53125 10.953125 
Q 47.40625 15.53125 47.40625 23.390625 
Q 47.40625 31.296875 43.53125 35.828125 
Q 39.65625 40.375 33.015625 40.375 
z
M 52.59375 71.296875 
L 52.59375 62.3125 
Q 48.875 64.0625 45.09375 64.984375 
Q 41.3125 65.921875 37.59375 65.921875 
Q 27.828125 65.921875 22.671875 59.328125 
Q 17.53125 52.734375 16.796875 39.40625 
Q 19.671875 43.65625 24.015625 45.921875 
Q 28.375 48.1875 33.59375 48.1875 
Q 44.578125 48.1875 50.953125 41.515625 
Q 57.328125 34.859375 57.328125 23.390625 
Q 57.328125 12.15625 50.6875 5.359375 
Q 44.046875 -1.421875 33.015625 -1.421875 
Q 20.359375 -1.421875 13.671875 8.265625 
Q 6.984375 17.96875 6.984375 36.375 
Q 6.984375 53.65625 15.1875 63.9375 
Q 23.390625 74.21875 37.203125 74.21875 
Q 40.921875 74.21875 44.703125 73.484375 
Q 48.484375 72.75 52.59375 71.296875 
z
" id="DejaVuSans-54"/>
      </defs>
      <g transform="translate(64.0475 74.454384)scale(0.18 -0.18)">
       <use xlink:href="#DejaVuSans-54"/>
      </g>
     </g>
    </g>
    <g id="text_12">
     <!-- $(RFU/OD) \times 10^4$ -->
     <defs>
      <path d="M 25.203125 64.796875 
L 20.21875 38.921875 
L 32.90625 38.921875 
Q 40.375 38.921875 44.984375 43.046875 
Q 49.609375 47.171875 49.609375 53.8125 
Q 49.609375 59.125 46.5 61.953125 
Q 43.40625 64.796875 37.59375 64.796875 
z
M 43.3125 35.015625 
Q 46.4375 34.28125 48.515625 31.390625 
Q 50.59375 28.515625 53.328125 19.921875 
L 59.515625 0 
L 49.125 0 
L 43.40625 18.703125 
Q 41.21875 25.921875 38.328125 28.359375 
Q 35.453125 30.8125 29.5 30.8125 
L 18.609375 30.8125 
L 12.59375 0 
L 2.6875 0 
L 16.890625 72.90625 
L 39.109375 72.90625 
Q 49.21875 72.90625 54.609375 68.328125 
Q 60.015625 63.765625 60.015625 55.171875 
Q 60.015625 47.5625 55.421875 41.984375 
Q 50.828125 36.421875 43.3125 35.015625 
z
" id="DejaVuSans-Oblique-82"/>
      <path d="M 16.890625 72.90625 
L 58.6875 72.90625 
L 57.078125 64.59375 
L 25.09375 64.59375 
L 20.90625 43.109375 
L 49.8125 43.109375 
L 48.1875 34.8125 
L 19.28125 34.8125 
L 12.5 0 
L 2.6875 0 
z
" id="DejaVuSans-Oblique-70"/>
      <path d="M 15.484375 72.90625 
L 25.390625 72.90625 
L 16.796875 28.609375 
Q 16.265625 25.640625 16.046875 23.703125 
Q 15.828125 21.78125 15.828125 20.3125 
Q 15.828125 13.578125 19.578125 10.078125 
Q 23.34375 6.59375 30.609375 6.59375 
Q 40.046875 6.59375 45.28125 11.765625 
Q 50.53125 16.9375 52.78125 28.609375 
L 61.375 72.90625 
L 71.296875 72.90625 
L 62.5 27.390625 
Q 59.625 12.640625 51.5625 5.609375 
Q 43.5 -1.421875 29.5 -1.421875 
Q 18.5625 -1.421875 12.1875 4.078125 
Q 5.8125 9.578125 5.8125 19 
Q 5.8125 20.703125 6.046875 22.828125 
Q 6.296875 24.953125 6.78125 27.390625 
z
" id="DejaVuSans-Oblique-85"/>
      <path d="M 25.390625 72.90625 
L 33.6875 72.90625 
L 8.296875 -9.28125 
L 0 -9.28125 
z
" id="DejaVuSans-47"/>
      <path d="M 45.609375 66.21875 
Q 37.5 66.21875 31.296875 62.28125 
Q 25.09375 58.34375 20.515625 50.296875 
Q 17.578125 45.171875 16.03125 39.40625 
Q 14.5 33.640625 14.5 27.78125 
Q 14.5 17.625 19.359375 12.109375 
Q 24.21875 6.59375 33.109375 6.59375 
Q 41.109375 6.59375 47.375 10.5625 
Q 53.65625 14.546875 58.109375 22.40625 
Q 61.078125 27.6875 62.640625 33.46875 
Q 64.203125 39.265625 64.203125 45.015625 
Q 64.203125 55.125 59.3125 60.671875 
Q 54.4375 66.21875 45.609375 66.21875 
z
M 32.8125 -1.421875 
Q 19.390625 -1.421875 11.6875 6.53125 
Q 4 14.5 4 28.328125 
Q 4 36.234375 7 44.484375 
Q 10.015625 52.734375 15.28125 59.1875 
Q 21.484375 66.75 29.09375 70.484375 
Q 36.71875 74.21875 45.90625 74.21875 
Q 59.28125 74.21875 66.984375 66.328125 
Q 74.703125 58.453125 74.703125 44.828125 
Q 74.703125 36.421875 71.765625 28.3125 
Q 68.84375 20.21875 63.375 13.625 
Q 57.125 6 49.578125 2.28125 
Q 42.046875 -1.421875 32.8125 -1.421875 
z
" id="DejaVuSans-Oblique-79"/>
      <path d="M 16.890625 72.90625 
L 38.09375 72.90625 
Q 54.984375 72.90625 63.59375 65.75 
Q 72.21875 58.59375 72.21875 44.484375 
Q 72.21875 35.15625 68.9375 26.53125 
Q 65.671875 17.921875 59.90625 12.015625 
Q 54.109375 5.953125 45.171875 2.96875 
Q 36.234375 0 24.03125 0 
L 2.6875 0 
z
M 25.203125 64.796875 
L 14.203125 8.109375 
L 27.09375 8.109375 
Q 43.65625 8.109375 52.734375 17.625 
Q 61.8125 27.15625 61.8125 44.484375 
Q 61.8125 54.984375 55.953125 59.890625 
Q 50.09375 64.796875 37.59375 64.796875 
z
" id="DejaVuSans-Oblique-68"/>
      <path d="M 70.125 53.71875 
L 47.796875 31.296875 
L 70.125 8.984375 
L 64.3125 3.078125 
L 41.890625 25.484375 
L 19.484375 3.078125 
L 13.71875 8.984375 
L 35.984375 31.296875 
L 13.71875 53.71875 
L 19.484375 59.625 
L 41.890625 37.203125 
L 64.3125 59.625 
z
" id="DejaVuSans-215"/>
     </defs>
     <g transform="translate(55.888125 315.8488)rotate(-90)scale(0.2 -0.2)">
      <use transform="translate(0 0.684375)" xlink:href="#DejaVuSans-40"/>
      <use transform="translate(39.013672 0.684375)" xlink:href="#DejaVuSans-Oblique-82"/>
      <use transform="translate(108.496094 0.684375)" xlink:href="#DejaVuSans-Oblique-70"/>
      <use transform="translate(166.015625 0.684375)" xlink:href="#DejaVuSans-Oblique-85"/>
      <use transform="translate(239.208984 0.684375)" xlink:href="#DejaVuSans-47"/>
      <use transform="translate(272.900391 0.684375)" xlink:href="#DejaVuSans-Oblique-79"/>
      <use transform="translate(351.611328 0.684375)" xlink:href="#DejaVuSans-Oblique-68"/>
      <use transform="translate(428.613281 0.684375)" xlink:href="#DejaVuSans-41"/>
      <use transform="translate(487.109375 0.684375)" xlink:href="#DejaVuSans-215"/>
      <use transform="translate(590.380859 0.684375)" xlink:href="#DejaVuSans-49"/>
      <use transform="translate(654.003906 0.684375)" xlink:href="#DejaVuSans-48"/>
      <use transform="translate(718.583984 38.965625)scale(0.7)" xlink:href="#DejaVuSans-52"/>
     </g>
    </g>
   </g>
   <g id="line2d_35">
    <path clip-path="url(#p821c32bca2)" d="M 80.699638 405.060441 
L 199.965922 404.934597 
L 237.711316 404.683702 
L 261.585126 404.313916 
L 279.224312 403.826821 
L 293.268142 403.223558 
L 304.988988 402.503254 
L 315.072328 401.665698 
L 323.949236 400.709445 
L 331.897888 399.633362 
L 339.124159 398.433905 
L 345.769105 397.108184 
L 351.939079 395.652736 
L 357.716156 394.063597 
L 363.171932 392.334006 
L 368.363175 390.45633 
L 373.335469 388.422251 
L 378.125781 386.222988 
L 382.769736 383.846641 
L 387.301401 381.277895 
L 391.748305 378.50105 
L 396.132624 375.500589 
L 400.489205 372.248533 
L 404.841323 368.720688 
L 409.218175 364.884479 
L 413.652433 360.699705 
L 418.181481 356.116733 
L 422.8572 351.065262 
L 427.745308 345.452448 
L 432.953372 339.127586 
L 438.659181 331.840029 
L 445.254864 323.041798 
L 454.158598 310.760987 
L 470.086978 288.76032 
L 476.812762 279.892958 
L 482.572367 272.659539 
L 487.817466 266.42312 
L 492.741441 260.909052 
L 497.451889 255.963922 
L 502.01838 251.489016 
L 506.490179 247.415463 
L 510.907606 243.690008 
L 515.302564 240.272621 
L 519.704251 237.13031 
L 524.140624 234.235518 
L 528.637723 231.566045 
L 531.125395 230.19826 
L 531.125395 230.19826 
" style="fill:none;stroke:#0099ff;stroke-linecap:square;stroke-width:1.5;"/>
   </g>
   <g id="line2d_36">
    <path clip-path="url(#p821c32bca2)" d="M 80.699638 405.047933 
L 165.318817 404.89825 
L 201.189528 404.625593 
L 224.793591 404.234349 
L 242.517953 403.726441 
L 256.790793 403.101486 
L 268.755444 402.360795 
L 279.116848 401.501079 
L 288.258996 400.523384 
L 296.476685 399.424214 
L 303.945316 398.204212 
L 310.822817 396.858588 
L 317.226865 395.381314 
L 323.235315 393.768729 
L 328.909551 392.017097 
L 334.309061 390.118864 
L 339.481336 388.065872 
L 344.464678 385.849595 
L 349.298667 383.457004 
L 354.015142 380.874637 
L 358.639731 378.089064 
L 363.207053 375.07774 
L 367.737683 371.823302 
L 372.259989 368.299927 
L 376.807257 364.47353 
L 381.409747 360.307906 
L 386.109769 355.75122 
L 390.951608 350.744045 
L 396.010196 345.188455 
L 401.381722 338.953402 
L 407.24746 331.79618 
L 413.971113 323.229132 
L 422.771439 311.628139 
L 441.404538 286.976255 
L 448.250258 278.355872 
L 454.166969 271.255406 
L 459.577578 265.103777 
L 464.670066 259.645915 
L 469.548377 254.739707 
L 474.283 250.29018 
L 478.925221 246.230087 
L 483.514157 242.510016 
L 488.081742 239.091878 
L 492.658747 235.943192 
L 497.272901 233.038005 
L 501.951944 230.354279 
L 506.723411 227.873796 
L 511.616152 225.581091 
L 516.662746 223.462402 
L 521.897862 221.506579 
L 527.362695 219.703512 
L 531.125395 218.590941 
L 531.125395 218.590941 
" style="fill:none;stroke:#7a05ff;stroke-linecap:square;stroke-width:1.5;"/>
   </g>
   <g id="line2d_37">
    <path clip-path="url(#p821c32bca2)" d="M 80.699638 404.972814 
L 128.586471 404.74802 
L 157.054695 404.404602 
L 177.650681 403.942657 
L 193.79813 403.36536 
L 207.137578 402.672274 
L 218.558217 401.860939 
L 228.554005 400.931484 
L 237.449612 399.884278 
L 245.469904 398.71996 
L 252.807613 397.433617 
L 259.603619 396.018854 
L 265.938137 394.474661 
L 271.874631 392.800519 
L 277.486171 390.988862 
L 282.830466 389.031073 
L 287.934552 386.926005 
L 292.857265 384.655857 
L 297.611797 382.21897 
L 302.241524 379.595957 
L 306.751464 376.78548 
L 311.188608 373.757621 
L 315.550597 370.511577 
L 319.873469 367.01703 
L 324.173904 363.253965 
L 328.47596 359.192771 
L 332.798013 354.805374 
L 337.173442 350.044164 
L 341.617545 344.876499 
L 346.166631 339.242303 
L 350.862579 333.068238 
L 355.764476 326.250999 
L 360.954477 318.645686 
L 366.564933 310.021497 
L 372.85526 299.932716 
L 380.494794 287.238147 
L 408.453003 240.357937 
L 414.590272 230.758193 
L 420.112516 222.525655 
L 425.250345 215.259113 
L 430.125497 208.743877 
L 434.814565 202.843807 
L 439.37091 197.464125 
L 443.834916 192.534263 
L 448.236672 188.001753 
L 452.602279 183.82342 
L 456.954249 179.964039 
L 461.315615 176.392041 
L 465.705505 173.082885 
L 470.146209 170.013017 
L 474.6583 167.163575 
L 479.264602 164.517411 
L 483.9884 162.060251 
L 488.857171 159.778729 
L 493.89957 157.662126 
L 499.148587 155.700937 
L 504.64269 153.886821 
L 510.427214 152.212564 
L 516.555198 150.67228 
L 523.092017 149.260758 
L 530.117197 147.973866 
L 531.125395 147.806668 
L 531.125395 147.806668 
" style="fill:none;stroke:#ff0099;stroke-linecap:square;stroke-width:1.5;"/>
   </g>
   <g id="line2d_38">
    <path clip-path="url(#p821c32bca2)" d="M 80.699638 404.376219 
L 104.542026 403.906246 
L 123.30058 403.321343 
L 138.857268 402.619558 
L 152.089492 401.806491 
L 163.737121 400.872617 
L 174.080591 399.824717 
L 183.478698 398.65153 
L 192.036713 397.361549 
L 199.904215 395.954329 
L 207.249625 394.416979 
L 214.144957 392.747576 
L 220.647872 390.944625 
L 226.805281 389.007092 
L 232.655885 386.934429 
L 238.26906 384.711116 
L 243.664434 382.33619 
L 248.891374 379.79299 
L 253.958787 377.080756 
L 258.903188 374.182442 
L 263.753582 371.080551 
L 268.50815 367.775428 
L 273.189401 364.250667 
L 277.837031 360.471904 
L 282.461086 356.423561 
L 287.068904 352.091733 
L 291.683793 347.445769 
L 296.322892 342.45752 
L 301.014205 337.083466 
L 305.77742 331.285168 
L 310.639251 325.012414 
L 315.630013 318.206356 
L 320.805356 310.767552 
L 326.223712 302.583902 
L 331.972425 293.491437 
L 338.209023 283.202106 
L 345.226857 271.181769 
L 353.792588 256.045804 
L 384.041708 202.180267 
L 390.903051 190.668131 
L 397.046768 180.78623 
L 402.738279 172.045925 
L 408.121568 164.180648 
L 413.281928 157.029961 
L 418.276016 150.485503 
L 423.145525 144.467095 
L 427.926535 138.908483 
L 432.641892 133.764347 
L 437.31737 128.990285 
L 441.972792 124.552319 
L 446.627654 120.420236 
L 451.300549 116.56797 
L 456.010739 112.972097 
L 460.773312 109.615162 
L 465.608531 106.478503 
L 470.535967 103.546793 
L 475.576628 100.806451 
L 480.754033 98.24516 
L 486.091683 95.853163 
L 491.619856 93.620222 
L 497.369513 91.538663 
L 503.377328 89.601391 
L 509.686328 87.802162 
L 516.346041 86.135902 
L 523.417379 84.5979 
L 530.974235 83.184221 
L 531.125395 83.158143 
L 531.125395 83.158143 
" style="fill:none;stroke:#ff0000;stroke-linecap:square;stroke-width:1.5;"/>
   </g>
   <g id="line2d_39">
    <defs>
     <path d="M 0 3 
C 0.795609 3 1.55874 2.683901 2.12132 2.12132 
C 2.683901 1.55874 3 0.795609 3 0 
C 3 -0.795609 2.683901 -1.55874 2.12132 -2.12132 
C 1.55874 -2.683901 0.795609 -3 0 -3 
C -0.795609 -3 -1.55874 -2.683901 -2.12132 -2.12132 
C -2.683901 -1.55874 -3 -0.795609 -3 0 
C -3 0.795609 -2.683901 1.55874 -2.12132 2.12132 
C -1.55874 2.683901 -0.795609 3 0 3 
z
" id="m37d15a54af" style="stroke:#0099ff;"/>
    </defs>
    <g clip-path="url(#p821c32bca2)">
     <use style="fill:#0099ff;stroke:#0099ff;" x="-1" xlink:href="#m37d15a54af" y="403.524288"/>
     <use style="fill:#0099ff;stroke:#0099ff;" x="237.223814" xlink:href="#m37d15a54af" y="403.523937"/>
     <use style="fill:#0099ff;stroke:#0099ff;" x="306.062698" xlink:href="#m37d15a54af" y="402.349802"/>
     <use style="fill:#0099ff;stroke:#0099ff;" x="358.137302" xlink:href="#m37d15a54af" y="396.619217"/>
     <use style="fill:#0099ff;stroke:#0099ff;" x="388.598993" xlink:href="#m37d15a54af" y="381.646077"/>
     <use style="fill:#0099ff;stroke:#0099ff;" x="410.211907" xlink:href="#m37d15a54af" y="359.45112"/>
     <use style="fill:#0099ff;stroke:#0099ff;" x="479.05079" xlink:href="#m37d15a54af" y="273.515169"/>
     <use style="fill:#0099ff;stroke:#0099ff;" x="531.125395" xlink:href="#m37d15a54af" y="229.729018"/>
    </g>
   </g>
   <g id="line2d_40">
    <g clip-path="url(#p821c32bca2)">
     <use style="fill:#0099ff;stroke:#0099ff;" x="-1" xlink:href="#m37d15a54af" y="403.563839"/>
     <use style="fill:#0099ff;stroke:#0099ff;" x="237.223814" xlink:href="#m37d15a54af" y="403.563597"/>
     <use style="fill:#0099ff;stroke:#0099ff;" x="306.062698" xlink:href="#m37d15a54af" y="402.435916"/>
     <use style="fill:#0099ff;stroke:#0099ff;" x="358.137302" xlink:href="#m37d15a54af" y="396.243652"/>
     <use style="fill:#0099ff;stroke:#0099ff;" x="388.598993" xlink:href="#m37d15a54af" y="384.522637"/>
     <use style="fill:#0099ff;stroke:#0099ff;" x="410.211907" xlink:href="#m37d15a54af" y="363.055749"/>
     <use style="fill:#0099ff;stroke:#0099ff;" x="479.05079" xlink:href="#m37d15a54af" y="281.128129"/>
     <use style="fill:#0099ff;stroke:#0099ff;" x="531.125395" xlink:href="#m37d15a54af" y="224.500764"/>
    </g>
   </g>
   <g id="line2d_41">
    <g clip-path="url(#p821c32bca2)">
     <use style="fill:#0099ff;stroke:#0099ff;" x="-1" xlink:href="#m37d15a54af" y="403.466567"/>
     <use style="fill:#0099ff;stroke:#0099ff;" x="237.223814" xlink:href="#m37d15a54af" y="403.466165"/>
     <use style="fill:#0099ff;stroke:#0099ff;" x="306.062698" xlink:href="#m37d15a54af" y="402.816364"/>
     <use style="fill:#0099ff;stroke:#0099ff;" x="358.137302" xlink:href="#m37d15a54af" y="395.131752"/>
     <use style="fill:#0099ff;stroke:#0099ff;" x="388.598993" xlink:href="#m37d15a54af" y="383.04123"/>
     <use style="fill:#0099ff;stroke:#0099ff;" x="410.211907" xlink:href="#m37d15a54af" y="358.691961"/>
     <use style="fill:#0099ff;stroke:#0099ff;" x="479.05079" xlink:href="#m37d15a54af" y="279.675647"/>
     <use style="fill:#0099ff;stroke:#0099ff;" x="531.125395" xlink:href="#m37d15a54af" y="235.061567"/>
    </g>
   </g>
   <g id="line2d_42">
    <defs>
     <path d="M 0 3 
C 0.795609 3 1.55874 2.683901 2.12132 2.12132 
C 2.683901 1.55874 3 0.795609 3 0 
C 3 -0.795609 2.683901 -1.55874 2.12132 -2.12132 
C 1.55874 -2.683901 0.795609 -3 0 -3 
C -0.795609 -3 -1.55874 -2.683901 -2.12132 -2.12132 
C -2.683901 -1.55874 -3 -0.795609 -3 0 
C -3 0.795609 -2.683901 1.55874 -2.12132 2.12132 
C -1.55874 2.683901 -0.795609 3 0 3 
z
" id="m99616f2f99" style="stroke:#7a05ff;"/>
    </defs>
    <g clip-path="url(#p821c32bca2)">
     <use style="fill:#7a05ff;stroke:#7a05ff;" x="-1" xlink:href="#m99616f2f99" y="403.11449"/>
     <use style="fill:#7a05ff;stroke:#7a05ff;" x="237.223814" xlink:href="#m99616f2f99" y="403.113657"/>
     <use style="fill:#7a05ff;stroke:#7a05ff;" x="306.062698" xlink:href="#m99616f2f99" y="400.296025"/>
     <use style="fill:#7a05ff;stroke:#7a05ff;" x="358.137302" xlink:href="#m99616f2f99" y="383.430533"/>
     <use style="fill:#7a05ff;stroke:#7a05ff;" x="388.598993" xlink:href="#m99616f2f99" y="353.360844"/>
     <use style="fill:#7a05ff;stroke:#7a05ff;" x="410.211907" xlink:href="#m99616f2f99" y="325.264133"/>
     <use style="fill:#7a05ff;stroke:#7a05ff;" x="479.05079" xlink:href="#m99616f2f99" y="257.777636"/>
     <use style="fill:#7a05ff;stroke:#7a05ff;" x="531.125395" xlink:href="#m99616f2f99" y="225.430229"/>
    </g>
   </g>
   <g id="line2d_43">
    <g clip-path="url(#p821c32bca2)">
     <use style="fill:#7a05ff;stroke:#7a05ff;" x="-1" xlink:href="#m99616f2f99" y="403.150499"/>
     <use style="fill:#7a05ff;stroke:#7a05ff;" x="237.223814" xlink:href="#m99616f2f99" y="403.149712"/>
     <use style="fill:#7a05ff;stroke:#7a05ff;" x="306.062698" xlink:href="#m99616f2f99" y="399.679815"/>
     <use style="fill:#7a05ff;stroke:#7a05ff;" x="358.137302" xlink:href="#m99616f2f99" y="381.145825"/>
     <use style="fill:#7a05ff;stroke:#7a05ff;" x="388.598993" xlink:href="#m99616f2f99" y="351.291695"/>
     <use style="fill:#7a05ff;stroke:#7a05ff;" x="410.211907" xlink:href="#m99616f2f99" y="325.704353"/>
     <use style="fill:#7a05ff;stroke:#7a05ff;" x="479.05079" xlink:href="#m99616f2f99" y="243.283782"/>
     <use style="fill:#7a05ff;stroke:#7a05ff;" x="531.125395" xlink:href="#m99616f2f99" y="212.644639"/>
    </g>
   </g>
   <g id="line2d_44">
    <g clip-path="url(#p821c32bca2)">
     <use style="fill:#7a05ff;stroke:#7a05ff;" x="-1" xlink:href="#m99616f2f99" y="403.011669"/>
     <use style="fill:#7a05ff;stroke:#7a05ff;" x="237.223814" xlink:href="#m99616f2f99" y="403.010736"/>
     <use style="fill:#7a05ff;stroke:#7a05ff;" x="306.062698" xlink:href="#m99616f2f99" y="399.42549"/>
     <use style="fill:#7a05ff;stroke:#7a05ff;" x="358.137302" xlink:href="#m99616f2f99" y="381.782763"/>
     <use style="fill:#7a05ff;stroke:#7a05ff;" x="388.598993" xlink:href="#m99616f2f99" y="351.305997"/>
     <use style="fill:#7a05ff;stroke:#7a05ff;" x="410.211907" xlink:href="#m99616f2f99" y="324.56331"/>
     <use style="fill:#7a05ff;stroke:#7a05ff;" x="479.05079" xlink:href="#m99616f2f99" y="247.357221"/>
     <use style="fill:#7a05ff;stroke:#7a05ff;" x="531.125395" xlink:href="#m99616f2f99" y="211.923588"/>
    </g>
   </g>
   <g id="line2d_45">
    <defs>
     <path d="M 0 3 
C 0.795609 3 1.55874 2.683901 2.12132 2.12132 
C 2.683901 1.55874 3 0.795609 3 0 
C 3 -0.795609 2.683901 -1.55874 2.12132 -2.12132 
C 1.55874 -2.683901 0.795609 -3 0 -3 
C -0.795609 -3 -1.55874 -2.683901 -2.12132 -2.12132 
C -2.683901 -1.55874 -3 -0.795609 -3 0 
C -3 0.795609 -2.683901 1.55874 -2.12132 2.12132 
C -1.55874 2.683901 -0.795609 3 0 3 
z
" id="m51d382c054" style="stroke:#ff0099;"/>
    </defs>
    <g clip-path="url(#p821c32bca2)">
     <use style="fill:#ff0099;stroke:#ff0099;" x="-1" xlink:href="#m51d382c054" y="401.329724"/>
     <use style="fill:#ff0099;stroke:#ff0099;" x="237.223814" xlink:href="#m51d382c054" y="401.326579"/>
     <use style="fill:#ff0099;stroke:#ff0099;" x="306.062698" xlink:href="#m51d382c054" y="377.856697"/>
     <use style="fill:#ff0099;stroke:#ff0099;" x="358.137302" xlink:href="#m51d382c054" y="319.817865"/>
     <use style="fill:#ff0099;stroke:#ff0099;" x="388.598993" xlink:href="#m51d382c054" y="272.647825"/>
     <use style="fill:#ff0099;stroke:#ff0099;" x="410.211907" xlink:href="#m51d382c054" y="229.515948"/>
     <use style="fill:#ff0099;stroke:#ff0099;" x="479.05079" xlink:href="#m51d382c054" y="168.638474"/>
     <use style="fill:#ff0099;stroke:#ff0099;" x="531.125395" xlink:href="#m51d382c054" y="138.88898"/>
    </g>
   </g>
   <g id="line2d_46">
    <g clip-path="url(#p821c32bca2)">
     <use style="fill:#ff0099;stroke:#ff0099;" x="-1" xlink:href="#m51d382c054" y="401.194833"/>
     <use style="fill:#ff0099;stroke:#ff0099;" x="237.223814" xlink:href="#m51d382c054" y="401.191501"/>
     <use style="fill:#ff0099;stroke:#ff0099;" x="306.062698" xlink:href="#m51d382c054" y="382.368263"/>
     <use style="fill:#ff0099;stroke:#ff0099;" x="358.137302" xlink:href="#m51d382c054" y="329.548814"/>
     <use style="fill:#ff0099;stroke:#ff0099;" x="388.598993" xlink:href="#m51d382c054" y="279.89348"/>
     <use style="fill:#ff0099;stroke:#ff0099;" x="410.211907" xlink:href="#m51d382c054" y="246.063355"/>
     <use style="fill:#ff0099;stroke:#ff0099;" x="479.05079" xlink:href="#m51d382c054" y="181.109716"/>
     <use style="fill:#ff0099;stroke:#ff0099;" x="531.125395" xlink:href="#m51d382c054" y="149.943532"/>
    </g>
   </g>
   <g id="line2d_47">
    <g clip-path="url(#p821c32bca2)">
     <use style="fill:#ff0099;stroke:#ff0099;" x="-1" xlink:href="#m51d382c054" y="400.868378"/>
     <use style="fill:#ff0099;stroke:#ff0099;" x="237.223814" xlink:href="#m51d382c054" y="400.864656"/>
     <use style="fill:#ff0099;stroke:#ff0099;" x="306.062698" xlink:href="#m51d382c054" y="378.674045"/>
     <use style="fill:#ff0099;stroke:#ff0099;" x="358.137302" xlink:href="#m51d382c054" y="318.194642"/>
     <use style="fill:#ff0099;stroke:#ff0099;" x="388.598993" xlink:href="#m51d382c054" y="266.624747"/>
     <use style="fill:#ff0099;stroke:#ff0099;" x="410.211907" xlink:href="#m51d382c054" y="230.897092"/>
     <use style="fill:#ff0099;stroke:#ff0099;" x="479.05079" xlink:href="#m51d382c054" y="163.154683"/>
     <use style="fill:#ff0099;stroke:#ff0099;" x="531.125395" xlink:href="#m51d382c054" y="140.968436"/>
    </g>
   </g>
   <g id="line2d_48">
    <defs>
     <path d="M 0 3 
C 0.795609 3 1.55874 2.683901 2.12132 2.12132 
C 2.683901 1.55874 3 0.795609 3 0 
C 3 -0.795609 2.683901 -1.55874 2.12132 -2.12132 
C 1.55874 -2.683901 0.795609 -3 0 -3 
C -0.795609 -3 -1.55874 -2.683901 -2.12132 -2.12132 
C -2.683901 -1.55874 -3 -0.795609 -3 0 
C -3 0.795609 -2.683901 1.55874 -2.12132 2.12132 
C -1.55874 2.683901 -0.795609 3 0 3 
z
" id="mda85037a4f" style="stroke:#ff0000;"/>
    </defs>
    <g clip-path="url(#p821c32bca2)">
     <use style="fill:#ff0000;stroke:#ff0000;" x="-1" xlink:href="#mda85037a4f" y="393.241091"/>
     <use style="fill:#ff0000;stroke:#ff0000;" x="237.223814" xlink:href="#mda85037a4f" y="393.227205"/>
     <use style="fill:#ff0000;stroke:#ff0000;" x="306.062698" xlink:href="#mda85037a4f" y="338.028874"/>
     <use style="fill:#ff0000;stroke:#ff0000;" x="358.137302" xlink:href="#mda85037a4f" y="245.823952"/>
     <use style="fill:#ff0000;stroke:#ff0000;" x="388.598993" xlink:href="#mda85037a4f" y="191.805565"/>
     <use style="fill:#ff0000;stroke:#ff0000;" x="410.211907" xlink:href="#mda85037a4f" y="176.355365"/>
     <use style="fill:#ff0000;stroke:#ff0000;" x="479.05079" xlink:href="#mda85037a4f" y="112.791685"/>
     <use style="fill:#ff0000;stroke:#ff0000;" x="531.125395" xlink:href="#mda85037a4f" y="77.019227"/>
    </g>
   </g>
   <g id="line2d_49">
    <g clip-path="url(#p821c32bca2)">
     <use style="fill:#ff0000;stroke:#ff0000;" x="-1" xlink:href="#mda85037a4f" y="393.200501"/>
     <use style="fill:#ff0000;stroke:#ff0000;" x="237.223814" xlink:href="#mda85037a4f" y="393.186785"/>
     <use style="fill:#ff0000;stroke:#ff0000;" x="306.062698" xlink:href="#mda85037a4f" y="331.715027"/>
     <use style="fill:#ff0000;stroke:#ff0000;" x="358.137302" xlink:href="#mda85037a4f" y="246.501355"/>
     <use style="fill:#ff0000;stroke:#ff0000;" x="388.598993" xlink:href="#mda85037a4f" y="199.131095"/>
     <use style="fill:#ff0000;stroke:#ff0000;" x="410.211907" xlink:href="#mda85037a4f" y="158.924565"/>
     <use style="fill:#ff0000;stroke:#ff0000;" x="479.05079" xlink:href="#mda85037a4f" y="96.716383"/>
     <use style="fill:#ff0000;stroke:#ff0000;" x="531.125395" xlink:href="#mda85037a4f" y="73.4328"/>
    </g>
   </g>
   <g id="line2d_50">
    <g clip-path="url(#p821c32bca2)">
     <use style="fill:#ff0000;stroke:#ff0000;" x="-1" xlink:href="#mda85037a4f" y="392.595396"/>
     <use style="fill:#ff0000;stroke:#ff0000;" x="237.223814" xlink:href="#mda85037a4f" y="392.580902"/>
     <use style="fill:#ff0000;stroke:#ff0000;" x="306.062698" xlink:href="#mda85037a4f" y="329.79522"/>
     <use style="fill:#ff0000;stroke:#ff0000;" x="358.137302" xlink:href="#mda85037a4f" y="225.596086"/>
     <use style="fill:#ff0000;stroke:#ff0000;" x="388.598993" xlink:href="#mda85037a4f" y="194.678306"/>
     <use style="fill:#ff0000;stroke:#ff0000;" x="410.211907" xlink:href="#mda85037a4f" y="164.636276"/>
     <use style="fill:#ff0000;stroke:#ff0000;" x="479.05079" xlink:href="#mda85037a4f" y="101.864534"/>
     <use style="fill:#ff0000;stroke:#ff0000;" x="531.125395" xlink:href="#mda85037a4f" y="81.88997"/>
    </g>
   </g>
   <g id="patch_3">
    <path d="M 81 421.6464 
L 81 56.8512 
" style="fill:none;stroke:#000000;stroke-linecap:square;stroke-linejoin:miter;stroke-width:0.8;"/>
   </g>
   <g id="patch_4">
    <path d="M 81 421.6464 
L 583.2 421.6464 
" style="fill:none;stroke:#000000;stroke-linecap:square;stroke-linejoin:miter;stroke-width:0.8;"/>
   </g>
   <g id="text_13">
    <!-- One plasmid THP sensor circuit comparison -->
    <defs>
     <path d="M 39.40625 66.21875 
Q 28.65625 66.21875 22.328125 58.203125 
Q 16.015625 50.203125 16.015625 36.375 
Q 16.015625 22.609375 22.328125 14.59375 
Q 28.65625 6.59375 39.40625 6.59375 
Q 50.140625 6.59375 56.421875 14.59375 
Q 62.703125 22.609375 62.703125 36.375 
Q 62.703125 50.203125 56.421875 58.203125 
Q 50.140625 66.21875 39.40625 66.21875 
z
M 39.40625 74.21875 
Q 54.734375 74.21875 63.90625 63.9375 
Q 73.09375 53.65625 73.09375 36.375 
Q 73.09375 19.140625 63.90625 8.859375 
Q 54.734375 -1.421875 39.40625 -1.421875 
Q 24.03125 -1.421875 14.8125 8.828125 
Q 5.609375 19.09375 5.609375 36.375 
Q 5.609375 53.65625 14.8125 63.9375 
Q 24.03125 74.21875 39.40625 74.21875 
z
" id="DejaVuSans-79"/>
     <path d="M 9.421875 75.984375 
L 18.40625 75.984375 
L 18.40625 0 
L 9.421875 0 
z
" id="DejaVuSans-108"/>
     <path d="M 44.28125 53.078125 
L 44.28125 44.578125 
Q 40.484375 46.53125 36.375 47.5 
Q 32.28125 48.484375 27.875 48.484375 
Q 21.1875 48.484375 17.84375 46.4375 
Q 14.5 44.390625 14.5 40.28125 
Q 14.5 37.15625 16.890625 35.375 
Q 19.28125 33.59375 26.515625 31.984375 
L 29.59375 31.296875 
Q 39.15625 29.25 43.1875 25.515625 
Q 47.21875 21.78125 47.21875 15.09375 
Q 47.21875 7.46875 41.1875 3.015625 
Q 35.15625 -1.421875 24.609375 -1.421875 
Q 20.21875 -1.421875 15.453125 -0.5625 
Q 10.6875 0.296875 5.421875 2 
L 5.421875 11.28125 
Q 10.40625 8.6875 15.234375 7.390625 
Q 20.0625 6.109375 24.8125 6.109375 
Q 31.15625 6.109375 34.5625 8.28125 
Q 37.984375 10.453125 37.984375 14.40625 
Q 37.984375 18.0625 35.515625 20.015625 
Q 33.0625 21.96875 24.703125 23.78125 
L 21.578125 24.515625 
Q 13.234375 26.265625 9.515625 29.90625 
Q 5.8125 33.546875 5.8125 39.890625 
Q 5.8125 47.609375 11.28125 51.796875 
Q 16.75 56 26.8125 56 
Q 31.78125 56 36.171875 55.265625 
Q 40.578125 54.546875 44.28125 53.078125 
z
" id="DejaVuSans-115"/>
     <path d="M 52 44.1875 
Q 55.375 50.25 60.0625 53.125 
Q 64.75 56 71.09375 56 
Q 79.640625 56 84.28125 50.015625 
Q 88.921875 44.046875 88.921875 33.015625 
L 88.921875 0 
L 79.890625 0 
L 79.890625 32.71875 
Q 79.890625 40.578125 77.09375 44.375 
Q 74.3125 48.1875 68.609375 48.1875 
Q 61.625 48.1875 57.5625 43.546875 
Q 53.515625 38.921875 53.515625 30.90625 
L 53.515625 0 
L 44.484375 0 
L 44.484375 32.71875 
Q 44.484375 40.625 41.703125 44.40625 
Q 38.921875 48.1875 33.109375 48.1875 
Q 26.21875 48.1875 22.15625 43.53125 
Q 18.109375 38.875 18.109375 30.90625 
L 18.109375 0 
L 9.078125 0 
L 9.078125 54.6875 
L 18.109375 54.6875 
L 18.109375 46.1875 
Q 21.1875 51.21875 25.484375 53.609375 
Q 29.78125 56 35.6875 56 
Q 41.65625 56 45.828125 52.96875 
Q 50 49.953125 52 44.1875 
z
" id="DejaVuSans-109"/>
     <path d="M 9.8125 72.90625 
L 19.671875 72.90625 
L 19.671875 43.015625 
L 55.515625 43.015625 
L 55.515625 72.90625 
L 65.375 72.90625 
L 65.375 0 
L 55.515625 0 
L 55.515625 34.71875 
L 19.671875 34.71875 
L 19.671875 0 
L 9.8125 0 
z
" id="DejaVuSans-72"/>
     <path d="M 19.671875 64.796875 
L 19.671875 37.40625 
L 32.078125 37.40625 
Q 38.96875 37.40625 42.71875 40.96875 
Q 46.484375 44.53125 46.484375 51.125 
Q 46.484375 57.671875 42.71875 61.234375 
Q 38.96875 64.796875 32.078125 64.796875 
z
M 9.8125 72.90625 
L 32.078125 72.90625 
Q 44.34375 72.90625 50.609375 67.359375 
Q 56.890625 61.8125 56.890625 51.125 
Q 56.890625 40.328125 50.609375 34.8125 
Q 44.34375 29.296875 32.078125 29.296875 
L 19.671875 29.296875 
L 19.671875 0 
L 9.8125 0 
z
" id="DejaVuSans-80"/>
     <path d="M 48.78125 52.59375 
L 48.78125 44.1875 
Q 44.96875 46.296875 41.140625 47.34375 
Q 37.3125 48.390625 33.40625 48.390625 
Q 24.65625 48.390625 19.8125 42.84375 
Q 14.984375 37.3125 14.984375 27.296875 
Q 14.984375 17.28125 19.8125 11.734375 
Q 24.65625 6.203125 33.40625 6.203125 
Q 37.3125 6.203125 41.140625 7.25 
Q 44.96875 8.296875 48.78125 10.40625 
L 48.78125 2.09375 
Q 45.015625 0.34375 40.984375 -0.53125 
Q 36.96875 -1.421875 32.421875 -1.421875 
Q 20.0625 -1.421875 12.78125 6.34375 
Q 5.515625 14.109375 5.515625 27.296875 
Q 5.515625 40.671875 12.859375 48.328125 
Q 20.21875 56 33.015625 56 
Q 37.15625 56 41.109375 55.140625 
Q 45.0625 54.296875 48.78125 52.59375 
z
" id="DejaVuSans-99"/>
    </defs>
    <g transform="translate(92.642031 50.8512)scale(0.22 -0.22)">
     <use xlink:href="#DejaVuSans-79"/>
     <use x="78.710938" xlink:href="#DejaVuSans-110"/>
     <use x="142.089844" xlink:href="#DejaVuSans-101"/>
     <use x="203.613281" xlink:href="#DejaVuSans-32"/>
     <use x="235.400391" xlink:href="#DejaVuSans-112"/>
     <use x="298.876953" xlink:href="#DejaVuSans-108"/>
     <use x="326.660156" xlink:href="#DejaVuSans-97"/>
     <use x="387.939453" xlink:href="#DejaVuSans-115"/>
     <use x="440.039062" xlink:href="#DejaVuSans-109"/>
     <use x="537.451172" xlink:href="#DejaVuSans-105"/>
     <use x="565.234375" xlink:href="#DejaVuSans-100"/>
     <use x="628.710938" xlink:href="#DejaVuSans-32"/>
     <use x="660.498047" xlink:href="#DejaVuSans-84"/>
     <use x="721.582031" xlink:href="#DejaVuSans-72"/>
     <use x="796.777344" xlink:href="#DejaVuSans-80"/>
     <use x="857.080078" xlink:href="#DejaVuSans-32"/>
     <use x="888.867188" xlink:href="#DejaVuSans-115"/>
     <use x="940.966797" xlink:href="#DejaVuSans-101"/>
     <use x="1002.490234" xlink:href="#DejaVuSans-110"/>
     <use x="1065.869141" xlink:href="#DejaVuSans-115"/>
     <use x="1117.96875" xlink:href="#DejaVuSans-111"/>
     <use x="1179.150391" xlink:href="#DejaVuSans-114"/>
     <use x="1220.263672" xlink:href="#DejaVuSans-32"/>
     <use x="1252.050781" xlink:href="#DejaVuSans-99"/>
     <use x="1307.03125" xlink:href="#DejaVuSans-105"/>
     <use x="1334.814453" xlink:href="#DejaVuSans-114"/>
     <use x="1375.896484" xlink:href="#DejaVuSans-99"/>
     <use x="1430.876953" xlink:href="#DejaVuSans-117"/>
     <use x="1494.255859" xlink:href="#DejaVuSans-105"/>
     <use x="1522.039062" xlink:href="#DejaVuSans-116"/>
     <use x="1561.248047" xlink:href="#DejaVuSans-32"/>
     <use x="1593.035156" xlink:href="#DejaVuSans-99"/>
     <use x="1648.015625" xlink:href="#DejaVuSans-111"/>
     <use x="1709.197266" xlink:href="#DejaVuSans-109"/>
     <use x="1806.609375" xlink:href="#DejaVuSans-112"/>
     <use x="1870.085938" xlink:href="#DejaVuSans-97"/>
     <use x="1931.365234" xlink:href="#DejaVuSans-114"/>
     <use x="1972.478516" xlink:href="#DejaVuSans-105"/>
     <use x="2000.261719" xlink:href="#DejaVuSans-115"/>
     <use x="2052.361328" xlink:href="#DejaVuSans-111"/>
     <use x="2113.542969" xlink:href="#DejaVuSans-110"/>
    </g>
   </g>
   <g id="legend_1">
    <g id="patch_5">
     <path d="M 91.5 156.91995 
L 235.907812 156.91995 
Q 238.907812 156.91995 238.907812 153.91995 
L 238.907812 67.3512 
Q 238.907812 64.3512 235.907812 64.3512 
L 91.5 64.3512 
Q 88.5 64.3512 88.5 67.3512 
L 88.5 153.91995 
Q 88.5 156.91995 91.5 156.91995 
z
" style="fill:#ffffff;opacity:0.8;stroke:#cccccc;stroke-linejoin:miter;"/>
    </g>
    <g id="line2d_51">
     <path d="M 94.5 76.498856 
L 124.5 76.498856 
" style="fill:none;stroke:#0099ff;stroke-linecap:square;stroke-width:1.5;"/>
    </g>
    <g id="line2d_52"/>
    <g id="text_14">
     <!-- Auto-THP3 -->
     <defs>
      <path d="M 34.1875 63.1875 
L 20.796875 26.90625 
L 47.609375 26.90625 
z
M 28.609375 72.90625 
L 39.796875 72.90625 
L 67.578125 0 
L 57.328125 0 
L 50.6875 18.703125 
L 17.828125 18.703125 
L 11.1875 0 
L 0.78125 0 
z
" id="DejaVuSans-65"/>
      <path d="M 4.890625 31.390625 
L 31.203125 31.390625 
L 31.203125 23.390625 
L 4.890625 23.390625 
z
" id="DejaVuSans-45"/>
     </defs>
     <g transform="translate(136.5 81.748856)scale(0.15 -0.15)">
      <use xlink:href="#DejaVuSans-65"/>
      <use x="68.408203" xlink:href="#DejaVuSans-117"/>
      <use x="131.787109" xlink:href="#DejaVuSans-116"/>
      <use x="170.996094" xlink:href="#DejaVuSans-111"/>
      <use x="232.193359" xlink:href="#DejaVuSans-45"/>
      <use x="268.136719" xlink:href="#DejaVuSans-84"/>
      <use x="329.220703" xlink:href="#DejaVuSans-72"/>
      <use x="404.416016" xlink:href="#DejaVuSans-80"/>
      <use x="464.71875" xlink:href="#DejaVuSans-51"/>
     </g>
    </g>
    <g id="line2d_53">
     <path d="M 94.5 98.516044 
L 124.5 98.516044 
" style="fill:none;stroke:#7a05ff;stroke-linecap:square;stroke-width:1.5;"/>
    </g>
    <g id="line2d_54"/>
    <g id="text_15">
     <!-- P106-THP3 -->
     <g transform="translate(136.5 103.766044)scale(0.15 -0.15)">
      <use xlink:href="#DejaVuSans-80"/>
      <use x="60.302734" xlink:href="#DejaVuSans-49"/>
      <use x="123.925781" xlink:href="#DejaVuSans-48"/>
      <use x="187.548828" xlink:href="#DejaVuSans-54"/>
      <use x="251.171875" xlink:href="#DejaVuSans-45"/>
      <use x="287.115234" xlink:href="#DejaVuSans-84"/>
      <use x="348.199219" xlink:href="#DejaVuSans-72"/>
      <use x="423.394531" xlink:href="#DejaVuSans-80"/>
      <use x="483.697266" xlink:href="#DejaVuSans-51"/>
     </g>
    </g>
    <g id="line2d_55">
     <path d="M 94.5 120.533231 
L 124.5 120.533231 
" style="fill:none;stroke:#ff0099;stroke-linecap:square;stroke-width:1.5;"/>
    </g>
    <g id="line2d_56"/>
    <g id="text_16">
     <!-- Auto-THP4.1 -->
     <g transform="translate(136.5 125.783231)scale(0.15 -0.15)">
      <use xlink:href="#DejaVuSans-65"/>
      <use x="68.408203" xlink:href="#DejaVuSans-117"/>
      <use x="131.787109" xlink:href="#DejaVuSans-116"/>
      <use x="170.996094" xlink:href="#DejaVuSans-111"/>
      <use x="232.193359" xlink:href="#DejaVuSans-45"/>
      <use x="268.136719" xlink:href="#DejaVuSans-84"/>
      <use x="329.220703" xlink:href="#DejaVuSans-72"/>
      <use x="404.416016" xlink:href="#DejaVuSans-80"/>
      <use x="464.71875" xlink:href="#DejaVuSans-52"/>
      <use x="528.341797" xlink:href="#DejaVuSans-46"/>
      <use x="560.128906" xlink:href="#DejaVuSans-49"/>
     </g>
    </g>
    <g id="line2d_57">
     <path d="M 94.5 142.550419 
L 124.5 142.550419 
" style="fill:none;stroke:#ff0000;stroke-linecap:square;stroke-width:1.5;"/>
    </g>
    <g id="line2d_58"/>
    <g id="text_17">
     <!-- P106-THP4.1 -->
     <g transform="translate(136.5 147.800419)scale(0.15 -0.15)">
      <use xlink:href="#DejaVuSans-80"/>
      <use x="60.302734" xlink:href="#DejaVuSans-49"/>
      <use x="123.925781" xlink:href="#DejaVuSans-48"/>
      <use x="187.548828" xlink:href="#DejaVuSans-54"/>
      <use x="251.171875" xlink:href="#DejaVuSans-45"/>
      <use x="287.115234" xlink:href="#DejaVuSans-84"/>
      <use x="348.199219" xlink:href="#DejaVuSans-72"/>
      <use x="423.394531" xlink:href="#DejaVuSans-80"/>
      <use x="483.697266" xlink:href="#DejaVuSans-52"/>
      <use x="547.320312" xlink:href="#DejaVuSans-46"/>
      <use x="579.107422" xlink:href="#DejaVuSans-49"/>
     </g>
    </g>
   </g>
  </g>
 </g>
 <defs>
  <clipPath id="p821c32bca2">
   <rect height="364.7952" width="502.2" x="81" y="56.8512"/>
  </clipPath>
 </defs>
</svg>
