<?xml version="1.0" encoding="utf-8" standalone="no"?>
<!DOCTYPE svg PUBLIC "-//W3C//DTD SVG 1.1//EN"
  "http://www.w3.org/Graphics/SVG/1.1/DTD/svg11.dtd">
<!-- Created with matplotlib (https://matplotlib.org/) -->
<svg height="473.76pt" version="1.1" viewBox="0 0 648 473.76" width="648pt" xmlns="http://www.w3.org/2000/svg" xmlns:xlink="http://www.w3.org/1999/xlink">
 <defs>
  <style type="text/css">
*{stroke-linecap:butt;stroke-linejoin:round;}
  </style>
 </defs>
 <g id="figure_1">
  <g id="patch_1">
   <path d="M 0 473.76 
L 648 473.76 
L 648 0 
L 0 0 
z
" style="fill:#ffffff;"/>
  </g>
  <g id="axes_1">
   <g id="patch_2">
    <path d="M 81 421.6464 
L 583.2 421.6464 
L 583.2 56.8512 
L 81 56.8512 
z
" style="fill:#ffffff;"/>
   </g>
   <g id="matplotlib.axis_1">
    <g id="xtick_1">
     <g id="line2d_1">
      <defs>
       <path d="M 0 0 
L 0 2 
" id="mc3c095daa2" style="stroke:#000000;"/>
      </defs>
      <g>
       <use style="stroke:#000000;" x="179.549735" xlink:href="#mc3c095daa2" y="421.6464"/>
      </g>
     </g>
     <g id="text_1">
      <!-- 0.1 -->
      <defs>
       <path d="M 31.78125 66.40625 
Q 24.171875 66.40625 20.328125 58.90625 
Q 16.5 51.421875 16.5 36.375 
Q 16.5 21.390625 20.328125 13.890625 
Q 24.171875 6.390625 31.78125 6.390625 
Q 39.453125 6.390625 43.28125 13.890625 
Q 47.125 21.390625 47.125 36.375 
Q 47.125 51.421875 43.28125 58.90625 
Q 39.453125 66.40625 31.78125 66.40625 
z
M 31.78125 74.21875 
Q 44.046875 74.21875 50.515625 64.515625 
Q 56.984375 54.828125 56.984375 36.375 
Q 56.984375 17.96875 50.515625 8.265625 
Q 44.046875 -1.421875 31.78125 -1.421875 
Q 19.53125 -1.421875 13.0625 8.265625 
Q 6.59375 17.96875 6.59375 36.375 
Q 6.59375 54.828125 13.0625 64.515625 
Q 19.53125 74.21875 31.78125 74.21875 
z
" id="DejaVuSans-48"/>
       <path d="M 10.6875 12.40625 
L 21 12.40625 
L 21 0 
L 10.6875 0 
z
" id="DejaVuSans-46"/>
       <path d="M 12.40625 8.296875 
L 28.515625 8.296875 
L 28.515625 63.921875 
L 10.984375 60.40625 
L 10.984375 69.390625 
L 28.421875 72.90625 
L 38.28125 72.90625 
L 38.28125 8.296875 
L 54.390625 8.296875 
L 54.390625 0 
L 12.40625 0 
z
" id="DejaVuSans-49"/>
      </defs>
      <g transform="translate(165.236922 440.823588)scale(0.18 -0.18)">
       <use xlink:href="#DejaVuSans-48"/>
       <use x="63.623047" xlink:href="#DejaVuSans-46"/>
       <use x="95.410156" xlink:href="#DejaVuSans-49"/>
      </g>
     </g>
    </g>
    <g id="xtick_2">
     <g id="line2d_2">
      <g>
       <use style="stroke:#000000;" x="288.674779" xlink:href="#mc3c095daa2" y="421.6464"/>
      </g>
     </g>
     <g id="text_2">
      <!-- 1.0 -->
      <g transform="translate(274.361966 440.823588)scale(0.18 -0.18)">
       <use xlink:href="#DejaVuSans-49"/>
       <use x="63.623047" xlink:href="#DejaVuSans-46"/>
       <use x="95.410156" xlink:href="#DejaVuSans-48"/>
      </g>
     </g>
    </g>
    <g id="xtick_3">
     <g id="line2d_3">
      <g>
       <use style="stroke:#000000;" x="397.799823" xlink:href="#mc3c095daa2" y="421.6464"/>
      </g>
     </g>
     <g id="text_3">
      <!-- 10.0 -->
      <g transform="translate(377.760761 440.823588)scale(0.18 -0.18)">
       <use xlink:href="#DejaVuSans-49"/>
       <use x="63.623047" xlink:href="#DejaVuSans-48"/>
       <use x="127.246094" xlink:href="#DejaVuSans-46"/>
       <use x="159.033203" xlink:href="#DejaVuSans-48"/>
      </g>
     </g>
    </g>
    <g id="xtick_4">
     <g id="line2d_4">
      <g>
       <use style="stroke:#000000;" x="506.924867" xlink:href="#mc3c095daa2" y="421.6464"/>
      </g>
     </g>
     <g id="text_4">
      <!-- 100.0 -->
      <g transform="translate(481.159555 440.823588)scale(0.18 -0.18)">
       <use xlink:href="#DejaVuSans-49"/>
       <use x="63.623047" xlink:href="#DejaVuSans-48"/>
       <use x="127.246094" xlink:href="#DejaVuSans-48"/>
       <use x="190.869141" xlink:href="#DejaVuSans-46"/>
       <use x="222.65625" xlink:href="#DejaVuSans-48"/>
      </g>
     </g>
    </g>
    <g id="xtick_5">
     <g id="line2d_5">
      <defs>
       <path d="M 0 0 
L 0 2 
" id="m0c2a0c49d3" style="stroke:#000000;stroke-width:0.6;"/>
      </defs>
      <g>
       <use style="stroke:#000000;stroke-width:0.6;" x="103.274602" xlink:href="#m0c2a0c49d3" y="421.6464"/>
      </g>
     </g>
    </g>
    <g id="xtick_6">
     <g id="line2d_6">
      <g>
       <use style="stroke:#000000;stroke-width:0.6;" x="122.490569" xlink:href="#m0c2a0c49d3" y="421.6464"/>
      </g>
     </g>
    </g>
    <g id="xtick_7">
     <g id="line2d_7">
      <g>
       <use style="stroke:#000000;stroke-width:0.6;" x="136.124514" xlink:href="#m0c2a0c49d3" y="421.6464"/>
      </g>
     </g>
    </g>
    <g id="xtick_8">
     <g id="line2d_8">
      <g>
       <use style="stroke:#000000;stroke-width:0.6;" x="146.699823" xlink:href="#m0c2a0c49d3" y="421.6464"/>
      </g>
     </g>
    </g>
    <g id="xtick_9">
     <g id="line2d_9">
      <g>
       <use style="stroke:#000000;stroke-width:0.6;" x="155.34048" xlink:href="#m0c2a0c49d3" y="421.6464"/>
      </g>
     </g>
    </g>
    <g id="xtick_10">
     <g id="line2d_10">
      <g>
       <use style="stroke:#000000;stroke-width:0.6;" x="162.646052" xlink:href="#m0c2a0c49d3" y="421.6464"/>
      </g>
     </g>
    </g>
    <g id="xtick_11">
     <g id="line2d_11">
      <g>
       <use style="stroke:#000000;stroke-width:0.6;" x="168.974425" xlink:href="#m0c2a0c49d3" y="421.6464"/>
      </g>
     </g>
    </g>
    <g id="xtick_12">
     <g id="line2d_12">
      <g>
       <use style="stroke:#000000;stroke-width:0.6;" x="174.556447" xlink:href="#m0c2a0c49d3" y="421.6464"/>
      </g>
     </g>
    </g>
    <g id="xtick_13">
     <g id="line2d_13">
      <g>
       <use style="stroke:#000000;stroke-width:0.6;" x="212.399646" xlink:href="#m0c2a0c49d3" y="421.6464"/>
      </g>
     </g>
    </g>
    <g id="xtick_14">
     <g id="line2d_14">
      <g>
       <use style="stroke:#000000;stroke-width:0.6;" x="231.615613" xlink:href="#m0c2a0c49d3" y="421.6464"/>
      </g>
     </g>
    </g>
    <g id="xtick_15">
     <g id="line2d_15">
      <g>
       <use style="stroke:#000000;stroke-width:0.6;" x="245.249558" xlink:href="#m0c2a0c49d3" y="421.6464"/>
      </g>
     </g>
    </g>
    <g id="xtick_16">
     <g id="line2d_16">
      <g>
       <use style="stroke:#000000;stroke-width:0.6;" x="255.824867" xlink:href="#m0c2a0c49d3" y="421.6464"/>
      </g>
     </g>
    </g>
    <g id="xtick_17">
     <g id="line2d_17">
      <g>
       <use style="stroke:#000000;stroke-width:0.6;" x="264.465524" xlink:href="#m0c2a0c49d3" y="421.6464"/>
      </g>
     </g>
    </g>
    <g id="xtick_18">
     <g id="line2d_18">
      <g>
       <use style="stroke:#000000;stroke-width:0.6;" x="271.771096" xlink:href="#m0c2a0c49d3" y="421.6464"/>
      </g>
     </g>
    </g>
    <g id="xtick_19">
     <g id="line2d_19">
      <g>
       <use style="stroke:#000000;stroke-width:0.6;" x="278.09947" xlink:href="#m0c2a0c49d3" y="421.6464"/>
      </g>
     </g>
    </g>
    <g id="xtick_20">
     <g id="line2d_20">
      <g>
       <use style="stroke:#000000;stroke-width:0.6;" x="283.681491" xlink:href="#m0c2a0c49d3" y="421.6464"/>
      </g>
     </g>
    </g>
    <g id="xtick_21">
     <g id="line2d_21">
      <g>
       <use style="stroke:#000000;stroke-width:0.6;" x="321.524691" xlink:href="#m0c2a0c49d3" y="421.6464"/>
      </g>
     </g>
    </g>
    <g id="xtick_22">
     <g id="line2d_22">
      <g>
       <use style="stroke:#000000;stroke-width:0.6;" x="340.740657" xlink:href="#m0c2a0c49d3" y="421.6464"/>
      </g>
     </g>
    </g>
    <g id="xtick_23">
     <g id="line2d_23">
      <g>
       <use style="stroke:#000000;stroke-width:0.6;" x="354.374602" xlink:href="#m0c2a0c49d3" y="421.6464"/>
      </g>
     </g>
    </g>
    <g id="xtick_24">
     <g id="line2d_24">
      <g>
       <use style="stroke:#000000;stroke-width:0.6;" x="364.949912" xlink:href="#m0c2a0c49d3" y="421.6464"/>
      </g>
     </g>
    </g>
    <g id="xtick_25">
     <g id="line2d_25">
      <g>
       <use style="stroke:#000000;stroke-width:0.6;" x="373.590569" xlink:href="#m0c2a0c49d3" y="421.6464"/>
      </g>
     </g>
    </g>
    <g id="xtick_26">
     <g id="line2d_26">
      <g>
       <use style="stroke:#000000;stroke-width:0.6;" x="380.89614" xlink:href="#m0c2a0c49d3" y="421.6464"/>
      </g>
     </g>
    </g>
    <g id="xtick_27">
     <g id="line2d_27">
      <g>
       <use style="stroke:#000000;stroke-width:0.6;" x="387.224514" xlink:href="#m0c2a0c49d3" y="421.6464"/>
      </g>
     </g>
    </g>
    <g id="xtick_28">
     <g id="line2d_28">
      <g>
       <use style="stroke:#000000;stroke-width:0.6;" x="392.806535" xlink:href="#m0c2a0c49d3" y="421.6464"/>
      </g>
     </g>
    </g>
    <g id="xtick_29">
     <g id="line2d_29">
      <g>
       <use style="stroke:#000000;stroke-width:0.6;" x="430.649735" xlink:href="#m0c2a0c49d3" y="421.6464"/>
      </g>
     </g>
    </g>
    <g id="xtick_30">
     <g id="line2d_30">
      <g>
       <use style="stroke:#000000;stroke-width:0.6;" x="449.865701" xlink:href="#m0c2a0c49d3" y="421.6464"/>
      </g>
     </g>
    </g>
    <g id="xtick_31">
     <g id="line2d_31">
      <g>
       <use style="stroke:#000000;stroke-width:0.6;" x="463.499646" xlink:href="#m0c2a0c49d3" y="421.6464"/>
      </g>
     </g>
    </g>
    <g id="xtick_32">
     <g id="line2d_32">
      <g>
       <use style="stroke:#000000;stroke-width:0.6;" x="474.074956" xlink:href="#m0c2a0c49d3" y="421.6464"/>
      </g>
     </g>
    </g>
    <g id="xtick_33">
     <g id="line2d_33">
      <g>
       <use style="stroke:#000000;stroke-width:0.6;" x="482.715613" xlink:href="#m0c2a0c49d3" y="421.6464"/>
      </g>
     </g>
    </g>
    <g id="xtick_34">
     <g id="line2d_34">
      <g>
       <use style="stroke:#000000;stroke-width:0.6;" x="490.021184" xlink:href="#m0c2a0c49d3" y="421.6464"/>
      </g>
     </g>
    </g>
    <g id="xtick_35">
     <g id="line2d_35">
      <g>
       <use style="stroke:#000000;stroke-width:0.6;" x="496.349558" xlink:href="#m0c2a0c49d3" y="421.6464"/>
      </g>
     </g>
    </g>
    <g id="xtick_36">
     <g id="line2d_36">
      <g>
       <use style="stroke:#000000;stroke-width:0.6;" x="501.931579" xlink:href="#m0c2a0c49d3" y="421.6464"/>
      </g>
     </g>
    </g>
    <g id="xtick_37">
     <g id="line2d_37">
      <g>
       <use style="stroke:#000000;stroke-width:0.6;" x="539.774779" xlink:href="#m0c2a0c49d3" y="421.6464"/>
      </g>
     </g>
    </g>
    <g id="xtick_38">
     <g id="line2d_38">
      <g>
       <use style="stroke:#000000;stroke-width:0.6;" x="558.990745" xlink:href="#m0c2a0c49d3" y="421.6464"/>
      </g>
     </g>
    </g>
    <g id="xtick_39">
     <g id="line2d_39">
      <g>
       <use style="stroke:#000000;stroke-width:0.6;" x="572.624691" xlink:href="#m0c2a0c49d3" y="421.6464"/>
      </g>
     </g>
    </g>
    <g id="xtick_40">
     <g id="line2d_40">
      <g>
       <use style="stroke:#000000;stroke-width:0.6;" x="583.2" xlink:href="#m0c2a0c49d3" y="421.6464"/>
      </g>
     </g>
    </g>
    <g id="text_5">
     <!-- Rotundine (uM) -->
     <defs>
      <path d="M 44.390625 34.1875 
Q 47.5625 33.109375 50.5625 29.59375 
Q 53.5625 26.078125 56.59375 19.921875 
L 66.609375 0 
L 56 0 
L 46.6875 18.703125 
Q 43.0625 26.03125 39.671875 28.421875 
Q 36.28125 30.8125 30.421875 30.8125 
L 19.671875 30.8125 
L 19.671875 0 
L 9.8125 0 
L 9.8125 72.90625 
L 32.078125 72.90625 
Q 44.578125 72.90625 50.734375 67.671875 
Q 56.890625 62.453125 56.890625 51.90625 
Q 56.890625 45.015625 53.6875 40.46875 
Q 50.484375 35.9375 44.390625 34.1875 
z
M 19.671875 64.796875 
L 19.671875 38.921875 
L 32.078125 38.921875 
Q 39.203125 38.921875 42.84375 42.21875 
Q 46.484375 45.515625 46.484375 51.90625 
Q 46.484375 58.296875 42.84375 61.546875 
Q 39.203125 64.796875 32.078125 64.796875 
z
" id="DejaVuSans-82"/>
      <path d="M 30.609375 48.390625 
Q 23.390625 48.390625 19.1875 42.75 
Q 14.984375 37.109375 14.984375 27.296875 
Q 14.984375 17.484375 19.15625 11.84375 
Q 23.34375 6.203125 30.609375 6.203125 
Q 37.796875 6.203125 41.984375 11.859375 
Q 46.1875 17.53125 46.1875 27.296875 
Q 46.1875 37.015625 41.984375 42.703125 
Q 37.796875 48.390625 30.609375 48.390625 
z
M 30.609375 56 
Q 42.328125 56 49.015625 48.375 
Q 55.71875 40.765625 55.71875 27.296875 
Q 55.71875 13.875 49.015625 6.21875 
Q 42.328125 -1.421875 30.609375 -1.421875 
Q 18.84375 -1.421875 12.171875 6.21875 
Q 5.515625 13.875 5.515625 27.296875 
Q 5.515625 40.765625 12.171875 48.375 
Q 18.84375 56 30.609375 56 
z
" id="DejaVuSans-111"/>
      <path d="M 18.3125 70.21875 
L 18.3125 54.6875 
L 36.8125 54.6875 
L 36.8125 47.703125 
L 18.3125 47.703125 
L 18.3125 18.015625 
Q 18.3125 11.328125 20.140625 9.421875 
Q 21.96875 7.515625 27.59375 7.515625 
L 36.8125 7.515625 
L 36.8125 0 
L 27.59375 0 
Q 17.1875 0 13.234375 3.875 
Q 9.28125 7.765625 9.28125 18.015625 
L 9.28125 47.703125 
L 2.6875 47.703125 
L 2.6875 54.6875 
L 9.28125 54.6875 
L 9.28125 70.21875 
z
" id="DejaVuSans-116"/>
      <path d="M 8.5 21.578125 
L 8.5 54.6875 
L 17.484375 54.6875 
L 17.484375 21.921875 
Q 17.484375 14.15625 20.5 10.265625 
Q 23.53125 6.390625 29.59375 6.390625 
Q 36.859375 6.390625 41.078125 11.03125 
Q 45.3125 15.671875 45.3125 23.6875 
L 45.3125 54.6875 
L 54.296875 54.6875 
L 54.296875 0 
L 45.3125 0 
L 45.3125 8.40625 
Q 42.046875 3.421875 37.71875 1 
Q 33.40625 -1.421875 27.6875 -1.421875 
Q 18.265625 -1.421875 13.375 4.4375 
Q 8.5 10.296875 8.5 21.578125 
z
M 31.109375 56 
z
" id="DejaVuSans-117"/>
      <path d="M 54.890625 33.015625 
L 54.890625 0 
L 45.90625 0 
L 45.90625 32.71875 
Q 45.90625 40.484375 42.875 44.328125 
Q 39.84375 48.1875 33.796875 48.1875 
Q 26.515625 48.1875 22.3125 43.546875 
Q 18.109375 38.921875 18.109375 30.90625 
L 18.109375 0 
L 9.078125 0 
L 9.078125 54.6875 
L 18.109375 54.6875 
L 18.109375 46.1875 
Q 21.34375 51.125 25.703125 53.5625 
Q 30.078125 56 35.796875 56 
Q 45.21875 56 50.046875 50.171875 
Q 54.890625 44.34375 54.890625 33.015625 
z
" id="DejaVuSans-110"/>
      <path d="M 45.40625 46.390625 
L 45.40625 75.984375 
L 54.390625 75.984375 
L 54.390625 0 
L 45.40625 0 
L 45.40625 8.203125 
Q 42.578125 3.328125 38.25 0.953125 
Q 33.9375 -1.421875 27.875 -1.421875 
Q 17.96875 -1.421875 11.734375 6.484375 
Q 5.515625 14.40625 5.515625 27.296875 
Q 5.515625 40.1875 11.734375 48.09375 
Q 17.96875 56 27.875 56 
Q 33.9375 56 38.25 53.625 
Q 42.578125 51.265625 45.40625 46.390625 
z
M 14.796875 27.296875 
Q 14.796875 17.390625 18.875 11.75 
Q 22.953125 6.109375 30.078125 6.109375 
Q 37.203125 6.109375 41.296875 11.75 
Q 45.40625 17.390625 45.40625 27.296875 
Q 45.40625 37.203125 41.296875 42.84375 
Q 37.203125 48.484375 30.078125 48.484375 
Q 22.953125 48.484375 18.875 42.84375 
Q 14.796875 37.203125 14.796875 27.296875 
z
" id="DejaVuSans-100"/>
      <path d="M 9.421875 54.6875 
L 18.40625 54.6875 
L 18.40625 0 
L 9.421875 0 
z
M 9.421875 75.984375 
L 18.40625 75.984375 
L 18.40625 64.59375 
L 9.421875 64.59375 
z
" id="DejaVuSans-105"/>
      <path d="M 56.203125 29.59375 
L 56.203125 25.203125 
L 14.890625 25.203125 
Q 15.484375 15.921875 20.484375 11.0625 
Q 25.484375 6.203125 34.421875 6.203125 
Q 39.59375 6.203125 44.453125 7.46875 
Q 49.3125 8.734375 54.109375 11.28125 
L 54.109375 2.78125 
Q 49.265625 0.734375 44.1875 -0.34375 
Q 39.109375 -1.421875 33.890625 -1.421875 
Q 20.796875 -1.421875 13.15625 6.1875 
Q 5.515625 13.8125 5.515625 26.8125 
Q 5.515625 40.234375 12.765625 48.109375 
Q 20.015625 56 32.328125 56 
Q 43.359375 56 49.78125 48.890625 
Q 56.203125 41.796875 56.203125 29.59375 
z
M 47.21875 32.234375 
Q 47.125 39.59375 43.09375 43.984375 
Q 39.0625 48.390625 32.421875 48.390625 
Q 24.90625 48.390625 20.390625 44.140625 
Q 15.875 39.890625 15.1875 32.171875 
z
" id="DejaVuSans-101"/>
      <path id="DejaVuSans-32"/>
      <path d="M 31 75.875 
Q 24.46875 64.65625 21.28125 53.65625 
Q 18.109375 42.671875 18.109375 31.390625 
Q 18.109375 20.125 21.3125 9.0625 
Q 24.515625 -2 31 -13.1875 
L 23.1875 -13.1875 
Q 15.875 -1.703125 12.234375 9.375 
Q 8.59375 20.453125 8.59375 31.390625 
Q 8.59375 42.28125 12.203125 53.3125 
Q 15.828125 64.359375 23.1875 75.875 
z
" id="DejaVuSans-40"/>
      <path d="M 9.8125 72.90625 
L 24.515625 72.90625 
L 43.109375 23.296875 
L 61.8125 72.90625 
L 76.515625 72.90625 
L 76.515625 0 
L 66.890625 0 
L 66.890625 64.015625 
L 48.09375 14.015625 
L 38.1875 14.015625 
L 19.390625 64.015625 
L 19.390625 0 
L 9.8125 0 
z
" id="DejaVuSans-77"/>
      <path d="M 8.015625 75.875 
L 15.828125 75.875 
Q 23.140625 64.359375 26.78125 53.3125 
Q 30.421875 42.28125 30.421875 31.390625 
Q 30.421875 20.453125 26.78125 9.375 
Q 23.140625 -1.703125 15.828125 -13.1875 
L 8.015625 -13.1875 
Q 14.5 -2 17.703125 9.0625 
Q 20.90625 20.125 20.90625 31.390625 
Q 20.90625 42.671875 17.703125 53.65625 
Q 14.5 64.65625 8.015625 75.875 
z
" id="DejaVuSans-41"/>
     </defs>
     <g transform="translate(254.879688 463.7639)scale(0.2 -0.2)">
      <use xlink:href="#DejaVuSans-82"/>
      <use x="69.419922" xlink:href="#DejaVuSans-111"/>
      <use x="130.601562" xlink:href="#DejaVuSans-116"/>
      <use x="169.810547" xlink:href="#DejaVuSans-117"/>
      <use x="233.189453" xlink:href="#DejaVuSans-110"/>
      <use x="296.568359" xlink:href="#DejaVuSans-100"/>
      <use x="360.044922" xlink:href="#DejaVuSans-105"/>
      <use x="387.828125" xlink:href="#DejaVuSans-110"/>
      <use x="451.207031" xlink:href="#DejaVuSans-101"/>
      <use x="512.730469" xlink:href="#DejaVuSans-32"/>
      <use x="544.517578" xlink:href="#DejaVuSans-40"/>
      <use x="583.53125" xlink:href="#DejaVuSans-117"/>
      <use x="646.910156" xlink:href="#DejaVuSans-77"/>
      <use x="733.189453" xlink:href="#DejaVuSans-41"/>
     </g>
    </g>
   </g>
   <g id="matplotlib.axis_2">
    <g id="ytick_1">
     <g id="line2d_41">
      <defs>
       <path d="M 0 0 
L -2 0 
" id="mb99649012c" style="stroke:#000000;"/>
      </defs>
      <g>
       <use style="stroke:#000000;" x="81" xlink:href="#mb99649012c" y="405.0648"/>
      </g>
     </g>
     <g id="text_6">
      <!-- 0 -->
      <g transform="translate(64.0475 411.903394)scale(0.18 -0.18)">
       <use xlink:href="#DejaVuSans-48"/>
      </g>
     </g>
    </g>
    <g id="ytick_2">
     <g id="line2d_42">
      <g>
       <use style="stroke:#000000;" x="81" xlink:href="#mb99649012c" y="348.622309"/>
      </g>
     </g>
     <g id="text_7">
      <!-- 1 -->
      <g transform="translate(64.0475 355.460902)scale(0.18 -0.18)">
       <use xlink:href="#DejaVuSans-49"/>
      </g>
     </g>
    </g>
    <g id="ytick_3">
     <g id="line2d_43">
      <g>
       <use style="stroke:#000000;" x="81" xlink:href="#mb99649012c" y="292.179817"/>
      </g>
     </g>
     <g id="text_8">
      <!-- 2 -->
      <defs>
       <path d="M 19.1875 8.296875 
L 53.609375 8.296875 
L 53.609375 0 
L 7.328125 0 
L 7.328125 8.296875 
Q 12.9375 14.109375 22.625 23.890625 
Q 32.328125 33.6875 34.8125 36.53125 
Q 39.546875 41.84375 41.421875 45.53125 
Q 43.3125 49.21875 43.3125 52.78125 
Q 43.3125 58.59375 39.234375 62.25 
Q 35.15625 65.921875 28.609375 65.921875 
Q 23.96875 65.921875 18.8125 64.3125 
Q 13.671875 62.703125 7.8125 59.421875 
L 7.8125 69.390625 
Q 13.765625 71.78125 18.9375 73 
Q 24.125 74.21875 28.421875 74.21875 
Q 39.75 74.21875 46.484375 68.546875 
Q 53.21875 62.890625 53.21875 53.421875 
Q 53.21875 48.921875 51.53125 44.890625 
Q 49.859375 40.875 45.40625 35.40625 
Q 44.1875 33.984375 37.640625 27.21875 
Q 31.109375 20.453125 19.1875 8.296875 
z
" id="DejaVuSans-50"/>
      </defs>
      <g transform="translate(64.0475 299.018411)scale(0.18 -0.18)">
       <use xlink:href="#DejaVuSans-50"/>
      </g>
     </g>
    </g>
    <g id="ytick_4">
     <g id="line2d_44">
      <g>
       <use style="stroke:#000000;" x="81" xlink:href="#mb99649012c" y="235.737326"/>
      </g>
     </g>
     <g id="text_9">
      <!-- 3 -->
      <defs>
       <path d="M 40.578125 39.3125 
Q 47.65625 37.796875 51.625 33 
Q 55.609375 28.21875 55.609375 21.1875 
Q 55.609375 10.40625 48.1875 4.484375 
Q 40.765625 -1.421875 27.09375 -1.421875 
Q 22.515625 -1.421875 17.65625 -0.515625 
Q 12.796875 0.390625 7.625 2.203125 
L 7.625 11.71875 
Q 11.71875 9.328125 16.59375 8.109375 
Q 21.484375 6.890625 26.8125 6.890625 
Q 36.078125 6.890625 40.9375 10.546875 
Q 45.796875 14.203125 45.796875 21.1875 
Q 45.796875 27.640625 41.28125 31.265625 
Q 36.765625 34.90625 28.71875 34.90625 
L 20.21875 34.90625 
L 20.21875 43.015625 
L 29.109375 43.015625 
Q 36.375 43.015625 40.234375 45.921875 
Q 44.09375 48.828125 44.09375 54.296875 
Q 44.09375 59.90625 40.109375 62.90625 
Q 36.140625 65.921875 28.71875 65.921875 
Q 24.65625 65.921875 20.015625 65.03125 
Q 15.375 64.15625 9.8125 62.3125 
L 9.8125 71.09375 
Q 15.4375 72.65625 20.34375 73.4375 
Q 25.25 74.21875 29.59375 74.21875 
Q 40.828125 74.21875 47.359375 69.109375 
Q 53.90625 64.015625 53.90625 55.328125 
Q 53.90625 49.265625 50.4375 45.09375 
Q 46.96875 40.921875 40.578125 39.3125 
z
" id="DejaVuSans-51"/>
      </defs>
      <g transform="translate(64.0475 242.575919)scale(0.18 -0.18)">
       <use xlink:href="#DejaVuSans-51"/>
      </g>
     </g>
    </g>
    <g id="ytick_5">
     <g id="line2d_45">
      <g>
       <use style="stroke:#000000;" x="81" xlink:href="#mb99649012c" y="179.294834"/>
      </g>
     </g>
     <g id="text_10">
      <!-- 4 -->
      <defs>
       <path d="M 37.796875 64.3125 
L 12.890625 25.390625 
L 37.796875 25.390625 
z
M 35.203125 72.90625 
L 47.609375 72.90625 
L 47.609375 25.390625 
L 58.015625 25.390625 
L 58.015625 17.1875 
L 47.609375 17.1875 
L 47.609375 0 
L 37.796875 0 
L 37.796875 17.1875 
L 4.890625 17.1875 
L 4.890625 26.703125 
z
" id="DejaVuSans-52"/>
      </defs>
      <g transform="translate(64.0475 186.133428)scale(0.18 -0.18)">
       <use xlink:href="#DejaVuSans-52"/>
      </g>
     </g>
    </g>
    <g id="ytick_6">
     <g id="line2d_46">
      <g>
       <use style="stroke:#000000;" x="81" xlink:href="#mb99649012c" y="122.852343"/>
      </g>
     </g>
     <g id="text_11">
      <!-- 5 -->
      <defs>
       <path d="M 10.796875 72.90625 
L 49.515625 72.90625 
L 49.515625 64.59375 
L 19.828125 64.59375 
L 19.828125 46.734375 
Q 21.96875 47.46875 24.109375 47.828125 
Q 26.265625 48.1875 28.421875 48.1875 
Q 40.625 48.1875 47.75 41.5 
Q 54.890625 34.8125 54.890625 23.390625 
Q 54.890625 11.625 47.5625 5.09375 
Q 40.234375 -1.421875 26.90625 -1.421875 
Q 22.3125 -1.421875 17.546875 -0.640625 
Q 12.796875 0.140625 7.71875 1.703125 
L 7.71875 11.625 
Q 12.109375 9.234375 16.796875 8.0625 
Q 21.484375 6.890625 26.703125 6.890625 
Q 35.15625 6.890625 40.078125 11.328125 
Q 45.015625 15.765625 45.015625 23.390625 
Q 45.015625 31 40.078125 35.4375 
Q 35.15625 39.890625 26.703125 39.890625 
Q 22.75 39.890625 18.8125 39.015625 
Q 14.890625 38.140625 10.796875 36.28125 
z
" id="DejaVuSans-53"/>
      </defs>
      <g transform="translate(64.0475 129.690937)scale(0.18 -0.18)">
       <use xlink:href="#DejaVuSans-53"/>
      </g>
     </g>
    </g>
    <g id="ytick_7">
     <g id="line2d_47">
      <g>
       <use style="stroke:#000000;" x="81" xlink:href="#mb99649012c" y="66.409851"/>
      </g>
     </g>
     <g id="text_12">
      <!-- 6 -->
      <defs>
       <path d="M 33.015625 40.375 
Q 26.375 40.375 22.484375 35.828125 
Q 18.609375 31.296875 18.609375 23.390625 
Q 18.609375 15.53125 22.484375 10.953125 
Q 26.375 6.390625 33.015625 6.390625 
Q 39.65625 6.390625 43.53125 10.953125 
Q 47.40625 15.53125 47.40625 23.390625 
Q 47.40625 31.296875 43.53125 35.828125 
Q 39.65625 40.375 33.015625 40.375 
z
M 52.59375 71.296875 
L 52.59375 62.3125 
Q 48.875 64.0625 45.09375 64.984375 
Q 41.3125 65.921875 37.59375 65.921875 
Q 27.828125 65.921875 22.671875 59.328125 
Q 17.53125 52.734375 16.796875 39.40625 
Q 19.671875 43.65625 24.015625 45.921875 
Q 28.375 48.1875 33.59375 48.1875 
Q 44.578125 48.1875 50.953125 41.515625 
Q 57.328125 34.859375 57.328125 23.390625 
Q 57.328125 12.15625 50.6875 5.359375 
Q 44.046875 -1.421875 33.015625 -1.421875 
Q 20.359375 -1.421875 13.671875 8.265625 
Q 6.984375 17.96875 6.984375 36.375 
Q 6.984375 53.65625 15.1875 63.9375 
Q 23.390625 74.21875 37.203125 74.21875 
Q 40.921875 74.21875 44.703125 73.484375 
Q 48.484375 72.75 52.59375 71.296875 
z
" id="DejaVuSans-54"/>
      </defs>
      <g transform="translate(64.0475 73.248445)scale(0.18 -0.18)">
       <use xlink:href="#DejaVuSans-54"/>
      </g>
     </g>
    </g>
    <g id="text_13">
     <!-- $(RFU/OD) \times 10^4$ -->
     <defs>
      <path d="M 25.203125 64.796875 
L 20.21875 38.921875 
L 32.90625 38.921875 
Q 40.375 38.921875 44.984375 43.046875 
Q 49.609375 47.171875 49.609375 53.8125 
Q 49.609375 59.125 46.5 61.953125 
Q 43.40625 64.796875 37.59375 64.796875 
z
M 43.3125 35.015625 
Q 46.4375 34.28125 48.515625 31.390625 
Q 50.59375 28.515625 53.328125 19.921875 
L 59.515625 0 
L 49.125 0 
L 43.40625 18.703125 
Q 41.21875 25.921875 38.328125 28.359375 
Q 35.453125 30.8125 29.5 30.8125 
L 18.609375 30.8125 
L 12.59375 0 
L 2.6875 0 
L 16.890625 72.90625 
L 39.109375 72.90625 
Q 49.21875 72.90625 54.609375 68.328125 
Q 60.015625 63.765625 60.015625 55.171875 
Q 60.015625 47.5625 55.421875 41.984375 
Q 50.828125 36.421875 43.3125 35.015625 
z
" id="DejaVuSans-Oblique-82"/>
      <path d="M 16.890625 72.90625 
L 58.6875 72.90625 
L 57.078125 64.59375 
L 25.09375 64.59375 
L 20.90625 43.109375 
L 49.8125 43.109375 
L 48.1875 34.8125 
L 19.28125 34.8125 
L 12.5 0 
L 2.6875 0 
z
" id="DejaVuSans-Oblique-70"/>
      <path d="M 15.484375 72.90625 
L 25.390625 72.90625 
L 16.796875 28.609375 
Q 16.265625 25.640625 16.046875 23.703125 
Q 15.828125 21.78125 15.828125 20.3125 
Q 15.828125 13.578125 19.578125 10.078125 
Q 23.34375 6.59375 30.609375 6.59375 
Q 40.046875 6.59375 45.28125 11.765625 
Q 50.53125 16.9375 52.78125 28.609375 
L 61.375 72.90625 
L 71.296875 72.90625 
L 62.5 27.390625 
Q 59.625 12.640625 51.5625 5.609375 
Q 43.5 -1.421875 29.5 -1.421875 
Q 18.5625 -1.421875 12.1875 4.078125 
Q 5.8125 9.578125 5.8125 19 
Q 5.8125 20.703125 6.046875 22.828125 
Q 6.296875 24.953125 6.78125 27.390625 
z
" id="DejaVuSans-Oblique-85"/>
      <path d="M 25.390625 72.90625 
L 33.6875 72.90625 
L 8.296875 -9.28125 
L 0 -9.28125 
z
" id="DejaVuSans-47"/>
      <path d="M 45.609375 66.21875 
Q 37.5 66.21875 31.296875 62.28125 
Q 25.09375 58.34375 20.515625 50.296875 
Q 17.578125 45.171875 16.03125 39.40625 
Q 14.5 33.640625 14.5 27.78125 
Q 14.5 17.625 19.359375 12.109375 
Q 24.21875 6.59375 33.109375 6.59375 
Q 41.109375 6.59375 47.375 10.5625 
Q 53.65625 14.546875 58.109375 22.40625 
Q 61.078125 27.6875 62.640625 33.46875 
Q 64.203125 39.265625 64.203125 45.015625 
Q 64.203125 55.125 59.3125 60.671875 
Q 54.4375 66.21875 45.609375 66.21875 
z
M 32.8125 -1.421875 
Q 19.390625 -1.421875 11.6875 6.53125 
Q 4 14.5 4 28.328125 
Q 4 36.234375 7 44.484375 
Q 10.015625 52.734375 15.28125 59.1875 
Q 21.484375 66.75 29.09375 70.484375 
Q 36.71875 74.21875 45.90625 74.21875 
Q 59.28125 74.21875 66.984375 66.328125 
Q 74.703125 58.453125 74.703125 44.828125 
Q 74.703125 36.421875 71.765625 28.3125 
Q 68.84375 20.21875 63.375 13.625 
Q 57.125 6 49.578125 2.28125 
Q 42.046875 -1.421875 32.8125 -1.421875 
z
" id="DejaVuSans-Oblique-79"/>
      <path d="M 16.890625 72.90625 
L 38.09375 72.90625 
Q 54.984375 72.90625 63.59375 65.75 
Q 72.21875 58.59375 72.21875 44.484375 
Q 72.21875 35.15625 68.9375 26.53125 
Q 65.671875 17.921875 59.90625 12.015625 
Q 54.109375 5.953125 45.171875 2.96875 
Q 36.234375 0 24.03125 0 
L 2.6875 0 
z
M 25.203125 64.796875 
L 14.203125 8.109375 
L 27.09375 8.109375 
Q 43.65625 8.109375 52.734375 17.625 
Q 61.8125 27.15625 61.8125 44.484375 
Q 61.8125 54.984375 55.953125 59.890625 
Q 50.09375 64.796875 37.59375 64.796875 
z
" id="DejaVuSans-Oblique-68"/>
      <path d="M 70.125 53.71875 
L 47.796875 31.296875 
L 70.125 8.984375 
L 64.3125 3.078125 
L 41.890625 25.484375 
L 19.484375 3.078125 
L 13.71875 8.984375 
L 35.984375 31.296875 
L 13.71875 53.71875 
L 19.484375 59.625 
L 41.890625 37.203125 
L 64.3125 59.625 
z
" id="DejaVuSans-215"/>
     </defs>
     <g transform="translate(55.888125 315.8488)rotate(-90)scale(0.2 -0.2)">
      <use transform="translate(0 0.684375)" xlink:href="#DejaVuSans-40"/>
      <use transform="translate(39.013672 0.684375)" xlink:href="#DejaVuSans-Oblique-82"/>
      <use transform="translate(108.496094 0.684375)" xlink:href="#DejaVuSans-Oblique-70"/>
      <use transform="translate(166.015625 0.684375)" xlink:href="#DejaVuSans-Oblique-85"/>
      <use transform="translate(239.208984 0.684375)" xlink:href="#DejaVuSans-47"/>
      <use transform="translate(272.900391 0.684375)" xlink:href="#DejaVuSans-Oblique-79"/>
      <use transform="translate(351.611328 0.684375)" xlink:href="#DejaVuSans-Oblique-68"/>
      <use transform="translate(428.613281 0.684375)" xlink:href="#DejaVuSans-41"/>
      <use transform="translate(487.109375 0.684375)" xlink:href="#DejaVuSans-215"/>
      <use transform="translate(590.380859 0.684375)" xlink:href="#DejaVuSans-49"/>
      <use transform="translate(654.003906 0.684375)" xlink:href="#DejaVuSans-48"/>
      <use transform="translate(718.583984 38.965625)scale(0.7)" xlink:href="#DejaVuSans-52"/>
     </g>
    </g>
   </g>
   <g id="line2d_48">
    <path clip-path="url(#pdc660cc5df)" d="M 70.425164 396.199502 
L 162.646525 394.628479 
L 243.745385 393.018489 
L 318.969371 391.303949 
L 389.367709 389.479065 
L 455.58491 387.54233 
L 518.107167 385.493349 
L 550.350088 384.344775 
L 550.350088 384.344775 
" style="fill:none;stroke:#0099ff;stroke-linecap:square;stroke-width:1.5;"/>
   </g>
   <g id="line2d_49">
    <path clip-path="url(#pdc660cc5df)" d="M 70.425164 405.062876 
L 222.97543 404.943818 
L 263.86986 404.698489 
L 289.497447 404.333024 
L 308.362789 403.84972 
L 323.383928 403.249546 
L 335.966746 402.530065 
L 346.84683 401.69002 
L 356.489478 400.726374 
L 365.186757 399.637204 
L 373.174534 398.415237 
L 380.590965 397.057709 
L 387.564402 395.556763 
L 394.182302 393.906484 
L 400.539441 392.093274 
L 406.706789 390.103656 
L 412.754515 387.918987 
L 418.745737 385.517782 
L 424.753168 382.869537 
L 430.862996 379.931665 
L 437.201689 376.634324 
L 443.946766 372.87072 
L 451.44691 368.424287 
L 460.662135 362.688138 
L 487.871417 345.579976 
L 495.335115 341.25841 
L 502.055639 337.620494 
L 508.385982 334.444184 
L 514.506677 331.620216 
L 520.534103 329.083206 
L 526.554188 326.790142 
L 532.639102 324.710428 
L 538.855262 322.821391 
L 545.269253 321.105593 
L 550.350088 319.902114 
L 550.350088 319.902114 
" style="fill:none;stroke:#3372cc;stroke-linecap:square;stroke-width:1.5;"/>
   </g>
   <g id="line2d_50">
    <path clip-path="url(#pdc660cc5df)" d="M 70.425164 405.064799 
L 298.58238 404.95411 
L 321.347109 404.715593 
L 335.351251 404.357647 
L 345.580143 403.882289 
L 353.688866 403.289484 
L 360.428667 402.579333 
L 366.213011 401.751426 
L 371.30541 400.8026 
L 375.884515 399.726571 
L 380.059904 398.519216 
L 383.912916 397.175264 
L 387.505548 395.688288 
L 390.899775 394.0436 
L 394.131123 392.231042 
L 397.240139 390.231472 
L 400.247794 388.031922 
L 403.181793 385.610127 
L 406.074222 382.932582 
L 408.94093 379.973484 
L 411.803057 376.697018 
L 414.68502 373.056869 
L 417.612797 368.996817 
L 420.61973 364.441255 
L 423.742833 359.298431 
L 427.032214 353.444281 
L 430.573133 346.677657 
L 434.532857 338.615844 
L 439.335275 328.306357 
L 456.855875 290.1843 
L 460.743829 282.562202 
L 464.255312 276.156585 
L 467.538069 270.622046 
L 470.669242 265.771633 
L 473.699543 261.481304 
L 476.664487 257.663683 
L 479.594219 254.249736 
L 482.512257 251.187582 
L 485.440318 248.434591 
L 488.401556 245.953661 
L 491.419234 243.714311 
L 494.51709 241.691703 
L 497.723567 239.863685 
L 501.069878 238.212432 
L 504.594097 236.722516 
L 508.340006 235.382019 
L 512.363915 234.180548 
L 516.735277 233.110318 
L 521.547412 232.164703 
L 526.925448 231.338839 
L 533.047784 230.628849 
L 540.181672 230.031697 
L 548.756305 229.544899 
L 550.350088 229.47522 
L 550.350088 229.47522 
" style="fill:none;stroke:#674c9a;stroke-linecap:square;stroke-width:1.5;"/>
   </g>
   <g id="line2d_51">
    <path clip-path="url(#pdc660cc5df)" d="M 70.425164 405.06363 
L 194.642497 404.94715 
L 224.834194 404.704191 
L 243.438637 404.346166 
L 257.226204 403.867637 
L 268.076785 403.277101 
L 277.2029 402.561798 
L 284.980468 401.732619 
L 291.770899 400.789932 
L 297.807027 399.733953 
L 303.334731 398.544257 
L 308.362789 397.23863 
L 313.050091 395.793931 
L 317.444551 394.206502 
L 321.584368 392.473179 
L 325.50051 390.59135 
L 329.21844 388.558997 
L 332.806081 386.344176 
L 336.271521 383.942505 
L 339.622203 381.350663 
L 342.902723 378.532371 
L 346.147299 375.448329 
L 349.315919 372.129321 
L 352.471268 368.500853 
L 355.603079 364.559629 
L 358.757226 360.228243 
L 361.917019 355.506389 
L 365.115969 350.319302 
L 368.355787 344.635076 
L 371.65639 338.388339 
L 375.049385 331.482403 
L 378.554701 323.834906 
L 382.215241 315.30582 
L 386.085836 305.713563 
L 390.265107 294.749531 
L 394.930853 281.866213 
L 400.494689 265.819314 
L 409.258312 239.755696 
L 418.132533 213.593978 
L 423.529895 198.372348 
L 428.113168 186.095827 
L 432.251948 175.6319 
L 436.110961 166.468625 
L 439.77221 158.33839 
L 443.288903 151.06239 
L 446.697884 144.512823 
L 450.027823 138.590336 
L 453.297299 133.223017 
L 456.527591 128.342035 
L 459.734835 123.894166 
L 462.933967 119.83386 
L 466.138512 116.122679 
L 469.363029 112.725825 
L 472.624565 109.611007 
L 475.936472 106.754153 
L 479.314991 104.132394 
L 482.781206 101.723476 
L 486.354313 99.510873 
L 490.060572 97.477709 
L 493.925355 95.611907 
L 497.981829 93.901533 
L 502.26918 92.336623 
L 506.834023 90.909099 
L 511.732248 89.612648 
L 517.036786 88.441483 
L 522.840246 87.391221 
L 529.264324 86.458501 
L 536.477791 85.640408 
L 544.720591 84.934735 
L 550.350088 84.561717 
L 550.350088 84.561717 
" style="fill:none;stroke:#9a2667;stroke-linecap:square;stroke-width:1.5;"/>
   </g>
   <g id="line2d_52">
    <path clip-path="url(#pdc660cc5df)" d="M 70.425164 405.063998 
L 189.168063 404.949303 
L 216.375465 404.704351 
L 233.170075 404.337594 
L 245.250032 403.860841 
L 254.867886 403.267394 
L 262.859322 402.55895 
L 269.695658 401.737381 
L 275.669031 400.804735 
L 281.112275 399.732785 
L 285.994248 398.548483 
L 290.534017 397.218182 
L 294.676679 395.775591 
L 298.58238 394.181882 
L 302.279569 392.432299 
L 305.791724 390.52268 
L 309.13846 388.449522 
L 312.336337 386.210042 
L 315.466834 383.746193 
L 318.529677 381.049131 
L 321.525164 378.111432 
L 324.454034 374.927311 
L 327.369748 371.426864 
L 330.264453 367.601589 
L 333.178153 363.375856 
L 336.097604 358.742168 
L 339.052673 353.624324 
L 342.026824 348.021556 
L 345.078252 341.788139 
L 348.181916 334.935535 
L 351.411131 327.256196 
L 354.787956 318.636832 
L 358.350421 308.9186 
L 362.194095 297.769015 
L 366.466139 284.672487 
L 371.55343 268.323396 
L 379.348267 242.412198 
L 387.872194 214.294748 
L 392.859638 198.610981 
L 397.084025 186.040138 
L 400.907041 175.346398 
L 404.465144 166.040959 
L 407.841817 157.821135 
L 411.083428 150.50473 
L 414.226474 143.950231 
L 417.299768 138.047898 
L 420.318638 132.724874 
L 423.302163 127.90914 
L 426.265153 123.54391 
L 429.218887 119.583688 
L 432.183172 115.977939 
L 435.167187 112.695726 
L 438.187099 109.702634 
L 441.253945 106.974175 
L 444.392145 104.478818 
L 447.617829 102.197687 
L 450.951575 100.112601 
L 454.419043 98.206711 
L 458.047142 96.467046 
L 461.873012 94.880354 
L 465.939178 93.436524 
L 470.296032 92.127773 
L 475.006954 90.94766 
L 480.15404 89.890833 
L 485.845018 88.953161 
L 492.229046 88.131136 
L 499.517767 87.422126 
L 508.028493 86.824052 
L 518.268784 86.335207 
L 531.129145 85.953936 
L 548.39122 85.678296 
L 550.350088 85.6578 
L 550.350088 85.6578 
" style="fill:none;stroke:#ce0035;stroke-linecap:square;stroke-width:1.5;"/>
   </g>
   <g id="line2d_53">
    <defs>
     <path d="M 0 3 
C 0.795609 3 1.55874 2.683901 2.12132 2.12132 
C 2.683901 1.55874 3 0.795609 3 0 
C 3 -0.795609 2.683901 -1.55874 2.12132 -2.12132 
C 1.55874 -2.683901 0.795609 -3 0 -3 
C -0.795609 -3 -1.55874 -2.683901 -2.12132 -2.12132 
C -2.683901 -1.55874 -3 -0.795609 -3 0 
C -3 0.795609 -2.683901 1.55874 -2.12132 2.12132 
C -1.55874 2.683901 -0.795609 3 0 3 
z
" id="m910603441f" style="stroke:#0099ff;"/>
    </defs>
    <g clip-path="url(#pdc660cc5df)">
     <use style="fill:#0099ff;stroke:#0099ff;" x="-1" xlink:href="#m910603441f" y="392.702618"/>
     <use style="fill:#0099ff;stroke:#0099ff;" x="179.549735" xlink:href="#m910603441f" y="392.701636"/>
     <use style="fill:#0099ff;stroke:#0099ff;" x="222.974956" xlink:href="#m910603441f" y="392.554455"/>
     <use style="fill:#0099ff;stroke:#0099ff;" x="255.824867" xlink:href="#m910603441f" y="392.480266"/>
     <use style="fill:#0099ff;stroke:#0099ff;" x="288.674779" xlink:href="#m910603441f" y="392.314058"/>
     <use style="fill:#0099ff;stroke:#0099ff;" x="332.1" xlink:href="#m910603441f" y="391.856147"/>
     <use style="fill:#0099ff;stroke:#0099ff;" x="364.949912" xlink:href="#m910603441f" y="391.684382"/>
     <use style="fill:#0099ff;stroke:#0099ff;" x="397.799823" xlink:href="#m910603441f" y="391.14892"/>
     <use style="fill:#0099ff;stroke:#0099ff;" x="441.225044" xlink:href="#m910603441f" y="388.92274"/>
     <use style="fill:#0099ff;stroke:#0099ff;" x="474.074956" xlink:href="#m910603441f" y="385.178636"/>
     <use style="fill:#0099ff;stroke:#0099ff;" x="506.924867" xlink:href="#m910603441f" y="384.844194"/>
     <use style="fill:#0099ff;stroke:#0099ff;" x="550.350088" xlink:href="#m910603441f" y="383.457742"/>
    </g>
   </g>
   <g id="line2d_54">
    <g clip-path="url(#pdc660cc5df)">
     <use style="fill:#0099ff;stroke:#0099ff;" x="-1" xlink:href="#m910603441f" y="392.59168"/>
     <use style="fill:#0099ff;stroke:#0099ff;" x="179.549735" xlink:href="#m910603441f" y="392.591848"/>
     <use style="fill:#0099ff;stroke:#0099ff;" x="222.974956" xlink:href="#m910603441f" y="392.260491"/>
     <use style="fill:#0099ff;stroke:#0099ff;" x="255.824867" xlink:href="#m910603441f" y="392.227718"/>
     <use style="fill:#0099ff;stroke:#0099ff;" x="288.674779" xlink:href="#m910603441f" y="391.935783"/>
     <use style="fill:#0099ff;stroke:#0099ff;" x="332.1" xlink:href="#m910603441f" y="391.769653"/>
     <use style="fill:#0099ff;stroke:#0099ff;" x="364.949912" xlink:href="#m910603441f" y="391.392418"/>
     <use style="fill:#0099ff;stroke:#0099ff;" x="397.799823" xlink:href="#m910603441f" y="390.825112"/>
     <use style="fill:#0099ff;stroke:#0099ff;" x="441.225044" xlink:href="#m910603441f" y="388.660472"/>
     <use style="fill:#0099ff;stroke:#0099ff;" x="474.074956" xlink:href="#m910603441f" y="385.038352"/>
     <use style="fill:#0099ff;stroke:#0099ff;" x="506.924867" xlink:href="#m910603441f" y="384.690943"/>
     <use style="fill:#0099ff;stroke:#0099ff;" x="550.350088" xlink:href="#m910603441f" y="383.855579"/>
    </g>
   </g>
   <g id="line2d_55">
    <g clip-path="url(#pdc660cc5df)">
     <use style="fill:#0099ff;stroke:#0099ff;" x="-1" xlink:href="#m910603441f" y="392.830697"/>
     <use style="fill:#0099ff;stroke:#0099ff;" x="179.549735" xlink:href="#m910603441f" y="392.831143"/>
     <use style="fill:#0099ff;stroke:#0099ff;" x="222.974956" xlink:href="#m910603441f" y="392.749184"/>
     <use style="fill:#0099ff;stroke:#0099ff;" x="255.824867" xlink:href="#m910603441f" y="392.513311"/>
     <use style="fill:#0099ff;stroke:#0099ff;" x="288.674779" xlink:href="#m910603441f" y="392.294703"/>
     <use style="fill:#0099ff;stroke:#0099ff;" x="332.1" xlink:href="#m910603441f" y="392.077249"/>
     <use style="fill:#0099ff;stroke:#0099ff;" x="364.949912" xlink:href="#m910603441f" y="391.983648"/>
     <use style="fill:#0099ff;stroke:#0099ff;" x="397.799823" xlink:href="#m910603441f" y="391.167001"/>
     <use style="fill:#0099ff;stroke:#0099ff;" x="441.225044" xlink:href="#m910603441f" y="389.39723"/>
     <use style="fill:#0099ff;stroke:#0099ff;" x="474.074956" xlink:href="#m910603441f" y="386.069776"/>
     <use style="fill:#0099ff;stroke:#0099ff;" x="506.924867" xlink:href="#m910603441f" y="386.029663"/>
     <use style="fill:#0099ff;stroke:#0099ff;" x="550.350088" xlink:href="#m910603441f" y="384.181464"/>
    </g>
   </g>
   <g id="line2d_56">
    <defs>
     <path d="M 0 3 
C 0.795609 3 1.55874 2.683901 2.12132 2.12132 
C 2.683901 1.55874 3 0.795609 3 0 
C 3 -0.795609 2.683901 -1.55874 2.12132 -2.12132 
C 1.55874 -2.683901 0.795609 -3 0 -3 
C -0.795609 -3 -1.55874 -2.683901 -2.12132 -2.12132 
C -2.683901 -1.55874 -3 -0.795609 -3 0 
C -3 0.795609 -2.683901 1.55874 -2.12132 2.12132 
C -1.55874 2.683901 -0.795609 3 0 3 
z
" id="m50eb0f364c" style="stroke:#3372cc;"/>
    </defs>
    <g clip-path="url(#pdc660cc5df)">
     <use style="fill:#3372cc;stroke:#3372cc;" x="-1" xlink:href="#m50eb0f364c" y="400.181822"/>
     <use style="fill:#3372cc;stroke:#3372cc;" x="179.549735" xlink:href="#m50eb0f364c" y="400.181801"/>
     <use style="fill:#3372cc;stroke:#3372cc;" x="222.974956" xlink:href="#m50eb0f364c" y="400.247455"/>
     <use style="fill:#3372cc;stroke:#3372cc;" x="255.824867" xlink:href="#m50eb0f364c" y="400.145756"/>
     <use style="fill:#3372cc;stroke:#3372cc;" x="288.674779" xlink:href="#m50eb0f364c" y="399.855433"/>
     <use style="fill:#3372cc;stroke:#3372cc;" x="332.1" xlink:href="#m50eb0f364c" y="399.139086"/>
     <use style="fill:#3372cc;stroke:#3372cc;" x="364.949912" xlink:href="#m50eb0f364c" y="397.874662"/>
     <use style="fill:#3372cc;stroke:#3372cc;" x="397.799823" xlink:href="#m50eb0f364c" y="394.393764"/>
     <use style="fill:#3372cc;stroke:#3372cc;" x="441.225044" xlink:href="#m50eb0f364c" y="379.157679"/>
     <use style="fill:#3372cc;stroke:#3372cc;" x="474.074956" xlink:href="#m50eb0f364c" y="346.024907"/>
     <use style="fill:#3372cc;stroke:#3372cc;" x="506.924867" xlink:href="#m50eb0f364c" y="339.237317"/>
     <use style="fill:#3372cc;stroke:#3372cc;" x="550.350088" xlink:href="#m50eb0f364c" y="314.800149"/>
    </g>
   </g>
   <g id="line2d_57">
    <g clip-path="url(#pdc660cc5df)">
     <use style="fill:#3372cc;stroke:#3372cc;" x="-1" xlink:href="#m50eb0f364c" y="400.231931"/>
     <use style="fill:#3372cc;stroke:#3372cc;" x="179.549735" xlink:href="#m50eb0f364c" y="400.231677"/>
     <use style="fill:#3372cc;stroke:#3372cc;" x="222.974956" xlink:href="#m50eb0f364c" y="400.050951"/>
     <use style="fill:#3372cc;stroke:#3372cc;" x="255.824867" xlink:href="#m50eb0f364c" y="400.065842"/>
     <use style="fill:#3372cc;stroke:#3372cc;" x="288.674779" xlink:href="#m50eb0f364c" y="399.775785"/>
     <use style="fill:#3372cc;stroke:#3372cc;" x="332.1" xlink:href="#m50eb0f364c" y="399.095128"/>
     <use style="fill:#3372cc;stroke:#3372cc;" x="364.949912" xlink:href="#m50eb0f364c" y="397.828057"/>
     <use style="fill:#3372cc;stroke:#3372cc;" x="397.799823" xlink:href="#m50eb0f364c" y="394.180656"/>
     <use style="fill:#3372cc;stroke:#3372cc;" x="441.225044" xlink:href="#m50eb0f364c" y="378.73718"/>
     <use style="fill:#3372cc;stroke:#3372cc;" x="474.074956" xlink:href="#m50eb0f364c" y="345.397427"/>
     <use style="fill:#3372cc;stroke:#3372cc;" x="506.924867" xlink:href="#m50eb0f364c" y="334.962529"/>
     <use style="fill:#3372cc;stroke:#3372cc;" x="550.350088" xlink:href="#m50eb0f364c" y="316.301491"/>
    </g>
   </g>
   <g id="line2d_58">
    <g clip-path="url(#pdc660cc5df)">
     <use style="fill:#3372cc;stroke:#3372cc;" x="-1" xlink:href="#m50eb0f364c" y="400.550469"/>
     <use style="fill:#3372cc;stroke:#3372cc;" x="179.549735" xlink:href="#m50eb0f364c" y="400.550094"/>
     <use style="fill:#3372cc;stroke:#3372cc;" x="222.974956" xlink:href="#m50eb0f364c" y="400.458676"/>
     <use style="fill:#3372cc;stroke:#3372cc;" x="255.824867" xlink:href="#m50eb0f364c" y="400.362532"/>
     <use style="fill:#3372cc;stroke:#3372cc;" x="288.674779" xlink:href="#m50eb0f364c" y="400.077368"/>
     <use style="fill:#3372cc;stroke:#3372cc;" x="332.1" xlink:href="#m50eb0f364c" y="399.685104"/>
     <use style="fill:#3372cc;stroke:#3372cc;" x="364.949912" xlink:href="#m50eb0f364c" y="398.484455"/>
     <use style="fill:#3372cc;stroke:#3372cc;" x="397.799823" xlink:href="#m50eb0f364c" y="395.113864"/>
     <use style="fill:#3372cc;stroke:#3372cc;" x="441.225044" xlink:href="#m50eb0f364c" y="380.730361"/>
     <use style="fill:#3372cc;stroke:#3372cc;" x="474.074956" xlink:href="#m50eb0f364c" y="350.069734"/>
     <use style="fill:#3372cc;stroke:#3372cc;" x="506.924867" xlink:href="#m50eb0f364c" y="342.242537"/>
     <use style="fill:#3372cc;stroke:#3372cc;" x="550.350088" xlink:href="#m50eb0f364c" y="326.615574"/>
    </g>
   </g>
   <g id="line2d_59">
    <defs>
     <path d="M 0 3 
C 0.795609 3 1.55874 2.683901 2.12132 2.12132 
C 2.683901 1.55874 3 0.795609 3 0 
C 3 -0.795609 2.683901 -1.55874 2.12132 -2.12132 
C 1.55874 -2.683901 0.795609 -3 0 -3 
C -0.795609 -3 -1.55874 -2.683901 -2.12132 -2.12132 
C -2.683901 -1.55874 -3 -0.795609 -3 0 
C -3 0.795609 -2.683901 1.55874 -2.12132 2.12132 
C -1.55874 2.683901 -0.795609 3 0 3 
z
" id="m4de0ddb2fa" style="stroke:#674c9a;"/>
    </defs>
    <g clip-path="url(#pdc660cc5df)">
     <use style="fill:#674c9a;stroke:#674c9a;" x="-1" xlink:href="#m4de0ddb2fa" y="401.545246"/>
     <use style="fill:#674c9a;stroke:#674c9a;" x="179.549735" xlink:href="#m4de0ddb2fa" y="401.545255"/>
     <use style="fill:#674c9a;stroke:#674c9a;" x="222.974956" xlink:href="#m4de0ddb2fa" y="401.394006"/>
     <use style="fill:#674c9a;stroke:#674c9a;" x="255.824867" xlink:href="#m4de0ddb2fa" y="401.198932"/>
     <use style="fill:#674c9a;stroke:#674c9a;" x="288.674779" xlink:href="#m4de0ddb2fa" y="400.70793"/>
     <use style="fill:#674c9a;stroke:#674c9a;" x="332.1" xlink:href="#m4de0ddb2fa" y="399.236388"/>
     <use style="fill:#674c9a;stroke:#674c9a;" x="364.949912" xlink:href="#m4de0ddb2fa" y="395.556919"/>
     <use style="fill:#674c9a;stroke:#674c9a;" x="397.799823" xlink:href="#m4de0ddb2fa" y="382.313656"/>
     <use style="fill:#674c9a;stroke:#674c9a;" x="441.225044" xlink:href="#m4de0ddb2fa" y="325.0039"/>
     <use style="fill:#674c9a;stroke:#674c9a;" x="474.074956" xlink:href="#m4de0ddb2fa" y="242.279029"/>
     <use style="fill:#674c9a;stroke:#674c9a;" x="506.924867" xlink:href="#m4de0ddb2fa" y="235.477056"/>
     <use style="fill:#674c9a;stroke:#674c9a;" x="550.350088" xlink:href="#m4de0ddb2fa" y="223.0104"/>
    </g>
   </g>
   <g id="line2d_60">
    <g clip-path="url(#pdc660cc5df)">
     <use style="fill:#674c9a;stroke:#674c9a;" x="-1" xlink:href="#m4de0ddb2fa" y="401.596501"/>
     <use style="fill:#674c9a;stroke:#674c9a;" x="179.549735" xlink:href="#m4de0ddb2fa" y="401.596309"/>
     <use style="fill:#674c9a;stroke:#674c9a;" x="222.974956" xlink:href="#m4de0ddb2fa" y="401.429024"/>
     <use style="fill:#674c9a;stroke:#674c9a;" x="255.824867" xlink:href="#m4de0ddb2fa" y="401.189921"/>
     <use style="fill:#674c9a;stroke:#674c9a;" x="288.674779" xlink:href="#m4de0ddb2fa" y="400.960711"/>
     <use style="fill:#674c9a;stroke:#674c9a;" x="332.1" xlink:href="#m4de0ddb2fa" y="399.549606"/>
     <use style="fill:#674c9a;stroke:#674c9a;" x="364.949912" xlink:href="#m4de0ddb2fa" y="396.300254"/>
     <use style="fill:#674c9a;stroke:#674c9a;" x="397.799823" xlink:href="#m4de0ddb2fa" y="385.328977"/>
     <use style="fill:#674c9a;stroke:#674c9a;" x="441.225044" xlink:href="#m4de0ddb2fa" y="331.800999"/>
     <use style="fill:#674c9a;stroke:#674c9a;" x="474.074956" xlink:href="#m4de0ddb2fa" y="250.539765"/>
     <use style="fill:#674c9a;stroke:#674c9a;" x="506.924867" xlink:href="#m4de0ddb2fa" y="249.517712"/>
     <use style="fill:#674c9a;stroke:#674c9a;" x="550.350088" xlink:href="#m4de0ddb2fa" y="239.182099"/>
    </g>
   </g>
   <g id="line2d_61">
    <g clip-path="url(#pdc660cc5df)">
     <use style="fill:#674c9a;stroke:#674c9a;" x="-1" xlink:href="#m4de0ddb2fa" y="401.843089"/>
     <use style="fill:#674c9a;stroke:#674c9a;" x="179.549735" xlink:href="#m4de0ddb2fa" y="401.842821"/>
     <use style="fill:#674c9a;stroke:#674c9a;" x="222.974956" xlink:href="#m4de0ddb2fa" y="401.798094"/>
     <use style="fill:#674c9a;stroke:#674c9a;" x="255.824867" xlink:href="#m4de0ddb2fa" y="401.533681"/>
     <use style="fill:#674c9a;stroke:#674c9a;" x="288.674779" xlink:href="#m4de0ddb2fa" y="401.098896"/>
     <use style="fill:#674c9a;stroke:#674c9a;" x="332.1" xlink:href="#m4de0ddb2fa" y="399.720024"/>
     <use style="fill:#674c9a;stroke:#674c9a;" x="364.949912" xlink:href="#m4de0ddb2fa" y="396.605452"/>
     <use style="fill:#674c9a;stroke:#674c9a;" x="397.799823" xlink:href="#m4de0ddb2fa" y="384.937373"/>
     <use style="fill:#674c9a;stroke:#674c9a;" x="441.225044" xlink:href="#m4de0ddb2fa" y="336.58858"/>
     <use style="fill:#674c9a;stroke:#674c9a;" x="474.074956" xlink:href="#m4de0ddb2fa" y="260.716506"/>
     <use style="fill:#674c9a;stroke:#674c9a;" x="506.924867" xlink:href="#m4de0ddb2fa" y="245.988222"/>
     <use style="fill:#674c9a;stroke:#674c9a;" x="550.350088" xlink:href="#m4de0ddb2fa" y="219.98037"/>
    </g>
   </g>
   <g id="line2d_62">
    <defs>
     <path d="M 0 3 
C 0.795609 3 1.55874 2.683901 2.12132 2.12132 
C 2.683901 1.55874 3 0.795609 3 0 
C 3 -0.795609 2.683901 -1.55874 2.12132 -2.12132 
C 1.55874 -2.683901 0.795609 -3 0 -3 
C -0.795609 -3 -1.55874 -2.683901 -2.12132 -2.12132 
C -2.683901 -1.55874 -3 -0.795609 -3 0 
C -3 0.795609 -2.683901 1.55874 -2.12132 2.12132 
C -1.55874 2.683901 -0.795609 3 0 3 
z
" id="mcd83fddb5c" style="stroke:#9a2667;"/>
    </defs>
    <g clip-path="url(#pdc660cc5df)">
     <use style="fill:#9a2667;stroke:#9a2667;" x="-1" xlink:href="#mcd83fddb5c" y="400.468318"/>
     <use style="fill:#9a2667;stroke:#9a2667;" x="179.549735" xlink:href="#mcd83fddb5c" y="400.467931"/>
     <use style="fill:#9a2667;stroke:#9a2667;" x="222.974956" xlink:href="#mcd83fddb5c" y="399.809659"/>
     <use style="fill:#9a2667;stroke:#9a2667;" x="255.824867" xlink:href="#mcd83fddb5c" y="398.773595"/>
     <use style="fill:#9a2667;stroke:#9a2667;" x="288.674779" xlink:href="#mcd83fddb5c" y="395.668827"/>
     <use style="fill:#9a2667;stroke:#9a2667;" x="332.1" xlink:href="#mcd83fddb5c" y="382.252587"/>
     <use style="fill:#9a2667;stroke:#9a2667;" x="364.949912" xlink:href="#mcd83fddb5c" y="347.515566"/>
     <use style="fill:#9a2667;stroke:#9a2667;" x="397.799823" xlink:href="#mcd83fddb5c" y="266.49658"/>
     <use style="fill:#9a2667;stroke:#9a2667;" x="441.225044" xlink:href="#mcd83fddb5c" y="153.698265"/>
     <use style="fill:#9a2667;stroke:#9a2667;" x="474.074956" xlink:href="#mcd83fddb5c" y="84.61067"/>
     <use style="fill:#9a2667;stroke:#9a2667;" x="506.924867" xlink:href="#mcd83fddb5c" y="77.260061"/>
     <use style="fill:#9a2667;stroke:#9a2667;" x="550.350088" xlink:href="#mcd83fddb5c" y="73.4328"/>
    </g>
   </g>
   <g id="line2d_63">
    <g clip-path="url(#pdc660cc5df)">
     <use style="fill:#9a2667;stroke:#9a2667;" x="-1" xlink:href="#mcd83fddb5c" y="400.710988"/>
     <use style="fill:#9a2667;stroke:#9a2667;" x="179.549735" xlink:href="#mcd83fddb5c" y="400.710313"/>
     <use style="fill:#9a2667;stroke:#9a2667;" x="222.974956" xlink:href="#mcd83fddb5c" y="400.053143"/>
     <use style="fill:#9a2667;stroke:#9a2667;" x="255.824867" xlink:href="#mcd83fddb5c" y="399.098442"/>
     <use style="fill:#9a2667;stroke:#9a2667;" x="288.674779" xlink:href="#mcd83fddb5c" y="396.134041"/>
     <use style="fill:#9a2667;stroke:#9a2667;" x="332.1" xlink:href="#mcd83fddb5c" y="383.427428"/>
     <use style="fill:#9a2667;stroke:#9a2667;" x="364.949912" xlink:href="#mcd83fddb5c" y="351.620901"/>
     <use style="fill:#9a2667;stroke:#9a2667;" x="397.799823" xlink:href="#mcd83fddb5c" y="278.500188"/>
     <use style="fill:#9a2667;stroke:#9a2667;" x="441.225044" xlink:href="#mcd83fddb5c" y="162.524675"/>
     <use style="fill:#9a2667;stroke:#9a2667;" x="474.074956" xlink:href="#mcd83fddb5c" y="103.241571"/>
     <use style="fill:#9a2667;stroke:#9a2667;" x="506.924867" xlink:href="#mcd83fddb5c" y="98.2717"/>
     <use style="fill:#9a2667;stroke:#9a2667;" x="550.350088" xlink:href="#mcd83fddb5c" y="93.474133"/>
    </g>
   </g>
   <g id="line2d_64">
    <g clip-path="url(#pdc660cc5df)">
     <use style="fill:#9a2667;stroke:#9a2667;" x="-1" xlink:href="#mcd83fddb5c" y="400.784418"/>
     <use style="fill:#9a2667;stroke:#9a2667;" x="179.549735" xlink:href="#mcd83fddb5c" y="400.783898"/>
     <use style="fill:#9a2667;stroke:#9a2667;" x="222.974956" xlink:href="#mcd83fddb5c" y="400.048718"/>
     <use style="fill:#9a2667;stroke:#9a2667;" x="255.824867" xlink:href="#mcd83fddb5c" y="399.252558"/>
     <use style="fill:#9a2667;stroke:#9a2667;" x="288.674779" xlink:href="#mcd83fddb5c" y="396.314978"/>
     <use style="fill:#9a2667;stroke:#9a2667;" x="332.1" xlink:href="#mcd83fddb5c" y="384.573051"/>
     <use style="fill:#9a2667;stroke:#9a2667;" x="364.949912" xlink:href="#mcd83fddb5c" y="350.633256"/>
     <use style="fill:#9a2667;stroke:#9a2667;" x="397.799823" xlink:href="#mcd83fddb5c" y="280.697066"/>
     <use style="fill:#9a2667;stroke:#9a2667;" x="441.225044" xlink:href="#mcd83fddb5c" y="163.951072"/>
     <use style="fill:#9a2667;stroke:#9a2667;" x="474.074956" xlink:href="#mcd83fddb5c" y="99.14518"/>
     <use style="fill:#9a2667;stroke:#9a2667;" x="506.924867" xlink:href="#mcd83fddb5c" y="101.593452"/>
     <use style="fill:#9a2667;stroke:#9a2667;" x="550.350088" xlink:href="#mcd83fddb5c" y="105.605614"/>
    </g>
   </g>
   <g id="line2d_65">
    <defs>
     <path d="M 0 3 
C 0.795609 3 1.55874 2.683901 2.12132 2.12132 
C 2.683901 1.55874 3 0.795609 3 0 
C 3 -0.795609 2.683901 -1.55874 2.12132 -2.12132 
C 1.55874 -2.683901 0.795609 -3 0 -3 
C -0.795609 -3 -1.55874 -2.683901 -2.12132 -2.12132 
C -2.683901 -1.55874 -3 -0.795609 -3 0 
C -3 0.795609 -2.683901 1.55874 -2.12132 2.12132 
C -1.55874 2.683901 -0.795609 3 0 3 
z
" id="m30e8022cc1" style="stroke:#ce0035;"/>
    </defs>
    <g clip-path="url(#pdc660cc5df)">
     <use style="fill:#ce0035;stroke:#ce0035;" x="-1" xlink:href="#m30e8022cc1" y="404.601254"/>
     <use style="fill:#ce0035;stroke:#ce0035;" x="179.549735" xlink:href="#m30e8022cc1" y="404.601581"/>
     <use style="fill:#ce0035;stroke:#ce0035;" x="222.974956" xlink:href="#m30e8022cc1" y="404.307767"/>
     <use style="fill:#ce0035;stroke:#ce0035;" x="255.824867" xlink:href="#m30e8022cc1" y="403.771629"/>
     <use style="fill:#ce0035;stroke:#ce0035;" x="288.674779" xlink:href="#m30e8022cc1" y="399.261016"/>
     <use style="fill:#ce0035;stroke:#ce0035;" x="332.1" xlink:href="#m30e8022cc1" y="366.685465"/>
     <use style="fill:#ce0035;stroke:#ce0035;" x="364.949912" xlink:href="#m30e8022cc1" y="296.335263"/>
     <use style="fill:#ce0035;stroke:#ce0035;" x="397.799823" xlink:href="#m30e8022cc1" y="193.881775"/>
     <use style="fill:#ce0035;stroke:#ce0035;" x="441.225044" xlink:href="#m30e8022cc1" y="106.332315"/>
     <use style="fill:#ce0035;stroke:#ce0035;" x="474.074956" xlink:href="#m30e8022cc1" y="83.729333"/>
     <use style="fill:#ce0035;stroke:#ce0035;" x="506.924867" xlink:href="#m30e8022cc1" y="87.278696"/>
     <use style="fill:#ce0035;stroke:#ce0035;" x="550.350088" xlink:href="#m30e8022cc1" y="94.625325"/>
    </g>
   </g>
   <g id="line2d_66">
    <g clip-path="url(#pdc660cc5df)">
     <use style="fill:#ce0035;stroke:#ce0035;" x="-1" xlink:href="#m30e8022cc1" y="404.674776"/>
     <use style="fill:#ce0035;stroke:#ce0035;" x="179.549735" xlink:href="#m30e8022cc1" y="404.674845"/>
     <use style="fill:#ce0035;stroke:#ce0035;" x="222.974956" xlink:href="#m30e8022cc1" y="404.25946"/>
     <use style="fill:#ce0035;stroke:#ce0035;" x="255.824867" xlink:href="#m30e8022cc1" y="403.611231"/>
     <use style="fill:#ce0035;stroke:#ce0035;" x="288.674779" xlink:href="#m30e8022cc1" y="398.749087"/>
     <use style="fill:#ce0035;stroke:#ce0035;" x="332.1" xlink:href="#m30e8022cc1" y="357.895597"/>
     <use style="fill:#ce0035;stroke:#ce0035;" x="364.949912" xlink:href="#m30e8022cc1" y="281.724621"/>
     <use style="fill:#ce0035;stroke:#ce0035;" x="397.799823" xlink:href="#m30e8022cc1" y="174.28992"/>
     <use style="fill:#ce0035;stroke:#ce0035;" x="441.225044" xlink:href="#m30e8022cc1" y="96.861346"/>
     <use style="fill:#ce0035;stroke:#ce0035;" x="474.074956" xlink:href="#m30e8022cc1" y="76.732737"/>
     <use style="fill:#ce0035;stroke:#ce0035;" x="506.924867" xlink:href="#m30e8022cc1" y="83.894092"/>
     <use style="fill:#ce0035;stroke:#ce0035;" x="550.350088" xlink:href="#m30e8022cc1" y="86.324284"/>
    </g>
   </g>
   <g id="line2d_67">
    <g clip-path="url(#pdc660cc5df)">
     <use style="fill:#ce0035;stroke:#ce0035;" x="-1" xlink:href="#m30e8022cc1" y="404.670426"/>
     <use style="fill:#ce0035;stroke:#ce0035;" x="179.549735" xlink:href="#m30e8022cc1" y="404.670702"/>
     <use style="fill:#ce0035;stroke:#ce0035;" x="222.974956" xlink:href="#m30e8022cc1" y="404.51873"/>
     <use style="fill:#ce0035;stroke:#ce0035;" x="255.824867" xlink:href="#m30e8022cc1" y="403.871033"/>
     <use style="fill:#ce0035;stroke:#ce0035;" x="288.674779" xlink:href="#m30e8022cc1" y="399.255331"/>
     <use style="fill:#ce0035;stroke:#ce0035;" x="332.1" xlink:href="#m30e8022cc1" y="360.552579"/>
     <use style="fill:#ce0035;stroke:#ce0035;" x="364.949912" xlink:href="#m30e8022cc1" y="292.24443"/>
     <use style="fill:#ce0035;stroke:#ce0035;" x="397.799823" xlink:href="#m30e8022cc1" y="189.735468"/>
     <use style="fill:#ce0035;stroke:#ce0035;" x="441.225044" xlink:href="#m30e8022cc1" y="111.411281"/>
     <use style="fill:#ce0035;stroke:#ce0035;" x="474.074956" xlink:href="#m30e8022cc1" y="90.131785"/>
     <use style="fill:#ce0035;stroke:#ce0035;" x="506.924867" xlink:href="#m30e8022cc1" y="92.931817"/>
     <use style="fill:#ce0035;stroke:#ce0035;" x="550.350088" xlink:href="#m30e8022cc1" y="97.321259"/>
    </g>
   </g>
   <g id="patch_3">
    <path d="M 81 421.6464 
L 81 56.8512 
" style="fill:none;stroke:#000000;stroke-linecap:square;stroke-linejoin:miter;stroke-width:0.8;"/>
   </g>
   <g id="patch_4">
    <path d="M 81 421.6464 
L 583.2 421.6464 
" style="fill:none;stroke:#000000;stroke-linecap:square;stroke-linejoin:miter;stroke-width:0.8;"/>
   </g>
   <g id="text_14">
    <!-- RamR Variant Response to Rotundine -->
    <defs>
     <path d="M 34.28125 27.484375 
Q 23.390625 27.484375 19.1875 25 
Q 14.984375 22.515625 14.984375 16.5 
Q 14.984375 11.71875 18.140625 8.90625 
Q 21.296875 6.109375 26.703125 6.109375 
Q 34.1875 6.109375 38.703125 11.40625 
Q 43.21875 16.703125 43.21875 25.484375 
L 43.21875 27.484375 
z
M 52.203125 31.203125 
L 52.203125 0 
L 43.21875 0 
L 43.21875 8.296875 
Q 40.140625 3.328125 35.546875 0.953125 
Q 30.953125 -1.421875 24.3125 -1.421875 
Q 15.921875 -1.421875 10.953125 3.296875 
Q 6 8.015625 6 15.921875 
Q 6 25.140625 12.171875 29.828125 
Q 18.359375 34.515625 30.609375 34.515625 
L 43.21875 34.515625 
L 43.21875 35.40625 
Q 43.21875 41.609375 39.140625 45 
Q 35.0625 48.390625 27.6875 48.390625 
Q 23 48.390625 18.546875 47.265625 
Q 14.109375 46.140625 10.015625 43.890625 
L 10.015625 52.203125 
Q 14.9375 54.109375 19.578125 55.046875 
Q 24.21875 56 28.609375 56 
Q 40.484375 56 46.34375 49.84375 
Q 52.203125 43.703125 52.203125 31.203125 
z
" id="DejaVuSans-97"/>
     <path d="M 52 44.1875 
Q 55.375 50.25 60.0625 53.125 
Q 64.75 56 71.09375 56 
Q 79.640625 56 84.28125 50.015625 
Q 88.921875 44.046875 88.921875 33.015625 
L 88.921875 0 
L 79.890625 0 
L 79.890625 32.71875 
Q 79.890625 40.578125 77.09375 44.375 
Q 74.3125 48.1875 68.609375 48.1875 
Q 61.625 48.1875 57.5625 43.546875 
Q 53.515625 38.921875 53.515625 30.90625 
L 53.515625 0 
L 44.484375 0 
L 44.484375 32.71875 
Q 44.484375 40.625 41.703125 44.40625 
Q 38.921875 48.1875 33.109375 48.1875 
Q 26.21875 48.1875 22.15625 43.53125 
Q 18.109375 38.875 18.109375 30.90625 
L 18.109375 0 
L 9.078125 0 
L 9.078125 54.6875 
L 18.109375 54.6875 
L 18.109375 46.1875 
Q 21.1875 51.21875 25.484375 53.609375 
Q 29.78125 56 35.6875 56 
Q 41.65625 56 45.828125 52.96875 
Q 50 49.953125 52 44.1875 
z
" id="DejaVuSans-109"/>
     <path d="M 28.609375 0 
L 0.78125 72.90625 
L 11.078125 72.90625 
L 34.1875 11.53125 
L 57.328125 72.90625 
L 67.578125 72.90625 
L 39.796875 0 
z
" id="DejaVuSans-86"/>
     <path d="M 41.109375 46.296875 
Q 39.59375 47.171875 37.8125 47.578125 
Q 36.03125 48 33.890625 48 
Q 26.265625 48 22.1875 43.046875 
Q 18.109375 38.09375 18.109375 28.8125 
L 18.109375 0 
L 9.078125 0 
L 9.078125 54.6875 
L 18.109375 54.6875 
L 18.109375 46.1875 
Q 20.953125 51.171875 25.484375 53.578125 
Q 30.03125 56 36.53125 56 
Q 37.453125 56 38.578125 55.875 
Q 39.703125 55.765625 41.0625 55.515625 
z
" id="DejaVuSans-114"/>
     <path d="M 44.28125 53.078125 
L 44.28125 44.578125 
Q 40.484375 46.53125 36.375 47.5 
Q 32.28125 48.484375 27.875 48.484375 
Q 21.1875 48.484375 17.84375 46.4375 
Q 14.5 44.390625 14.5 40.28125 
Q 14.5 37.15625 16.890625 35.375 
Q 19.28125 33.59375 26.515625 31.984375 
L 29.59375 31.296875 
Q 39.15625 29.25 43.1875 25.515625 
Q 47.21875 21.78125 47.21875 15.09375 
Q 47.21875 7.46875 41.1875 3.015625 
Q 35.15625 -1.421875 24.609375 -1.421875 
Q 20.21875 -1.421875 15.453125 -0.5625 
Q 10.6875 0.296875 5.421875 2 
L 5.421875 11.28125 
Q 10.40625 8.6875 15.234375 7.390625 
Q 20.0625 6.109375 24.8125 6.109375 
Q 31.15625 6.109375 34.5625 8.28125 
Q 37.984375 10.453125 37.984375 14.40625 
Q 37.984375 18.0625 35.515625 20.015625 
Q 33.0625 21.96875 24.703125 23.78125 
L 21.578125 24.515625 
Q 13.234375 26.265625 9.515625 29.90625 
Q 5.8125 33.546875 5.8125 39.890625 
Q 5.8125 47.609375 11.28125 51.796875 
Q 16.75 56 26.8125 56 
Q 31.78125 56 36.171875 55.265625 
Q 40.578125 54.546875 44.28125 53.078125 
z
" id="DejaVuSans-115"/>
     <path d="M 18.109375 8.203125 
L 18.109375 -20.796875 
L 9.078125 -20.796875 
L 9.078125 54.6875 
L 18.109375 54.6875 
L 18.109375 46.390625 
Q 20.953125 51.265625 25.265625 53.625 
Q 29.59375 56 35.59375 56 
Q 45.5625 56 51.78125 48.09375 
Q 58.015625 40.1875 58.015625 27.296875 
Q 58.015625 14.40625 51.78125 6.484375 
Q 45.5625 -1.421875 35.59375 -1.421875 
Q 29.59375 -1.421875 25.265625 0.953125 
Q 20.953125 3.328125 18.109375 8.203125 
z
M 48.6875 27.296875 
Q 48.6875 37.203125 44.609375 42.84375 
Q 40.53125 48.484375 33.40625 48.484375 
Q 26.265625 48.484375 22.1875 42.84375 
Q 18.109375 37.203125 18.109375 27.296875 
Q 18.109375 17.390625 22.1875 11.75 
Q 26.265625 6.109375 33.40625 6.109375 
Q 40.53125 6.109375 44.609375 11.75 
Q 48.6875 17.390625 48.6875 27.296875 
z
" id="DejaVuSans-112"/>
    </defs>
    <g transform="translate(124.758594 50.8512)scale(0.22 -0.22)">
     <use xlink:href="#DejaVuSans-82"/>
     <use x="69.451172" xlink:href="#DejaVuSans-97"/>
     <use x="130.730469" xlink:href="#DejaVuSans-109"/>
     <use x="228.142578" xlink:href="#DejaVuSans-82"/>
     <use x="297.625" xlink:href="#DejaVuSans-32"/>
     <use x="329.412109" xlink:href="#DejaVuSans-86"/>
     <use x="397.710938" xlink:href="#DejaVuSans-97"/>
     <use x="458.990234" xlink:href="#DejaVuSans-114"/>
     <use x="500.103516" xlink:href="#DejaVuSans-105"/>
     <use x="527.886719" xlink:href="#DejaVuSans-97"/>
     <use x="589.166016" xlink:href="#DejaVuSans-110"/>
     <use x="652.544922" xlink:href="#DejaVuSans-116"/>
     <use x="691.753906" xlink:href="#DejaVuSans-32"/>
     <use x="723.541016" xlink:href="#DejaVuSans-82"/>
     <use x="792.960938" xlink:href="#DejaVuSans-101"/>
     <use x="854.484375" xlink:href="#DejaVuSans-115"/>
     <use x="906.583984" xlink:href="#DejaVuSans-112"/>
     <use x="970.060547" xlink:href="#DejaVuSans-111"/>
     <use x="1031.242188" xlink:href="#DejaVuSans-110"/>
     <use x="1094.621094" xlink:href="#DejaVuSans-115"/>
     <use x="1146.720703" xlink:href="#DejaVuSans-101"/>
     <use x="1208.244141" xlink:href="#DejaVuSans-32"/>
     <use x="1240.03125" xlink:href="#DejaVuSans-116"/>
     <use x="1279.240234" xlink:href="#DejaVuSans-111"/>
     <use x="1340.421875" xlink:href="#DejaVuSans-32"/>
     <use x="1372.208984" xlink:href="#DejaVuSans-82"/>
     <use x="1441.628906" xlink:href="#DejaVuSans-111"/>
     <use x="1502.810547" xlink:href="#DejaVuSans-116"/>
     <use x="1542.019531" xlink:href="#DejaVuSans-117"/>
     <use x="1605.398438" xlink:href="#DejaVuSans-110"/>
     <use x="1668.777344" xlink:href="#DejaVuSans-100"/>
     <use x="1732.253906" xlink:href="#DejaVuSans-105"/>
     <use x="1760.037109" xlink:href="#DejaVuSans-110"/>
     <use x="1823.416016" xlink:href="#DejaVuSans-101"/>
    </g>
   </g>
   <g id="legend_1">
    <g id="patch_5">
     <path d="M 91.5 178.937137 
L 191.414062 178.937137 
Q 194.414062 178.937137 194.414062 175.937137 
L 194.414062 67.3512 
Q 194.414062 64.3512 191.414062 64.3512 
L 91.5 64.3512 
Q 88.5 64.3512 88.5 67.3512 
L 88.5 175.937137 
Q 88.5 178.937137 91.5 178.937137 
z
" style="fill:#ffffff;opacity:0.8;stroke:#cccccc;stroke-linejoin:miter;"/>
    </g>
    <g id="line2d_68">
     <path d="M 94.5 76.498856 
L 124.5 76.498856 
" style="fill:none;stroke:#0099ff;stroke-linecap:square;stroke-width:1.5;"/>
    </g>
    <g id="line2d_69"/>
    <g id="text_15">
     <!-- WT -->
     <defs>
      <path d="M 3.328125 72.90625 
L 13.28125 72.90625 
L 28.609375 11.28125 
L 43.890625 72.90625 
L 54.984375 72.90625 
L 70.3125 11.28125 
L 85.59375 72.90625 
L 95.609375 72.90625 
L 77.296875 0 
L 64.890625 0 
L 49.515625 63.28125 
L 33.984375 0 
L 21.578125 0 
z
" id="DejaVuSans-87"/>
      <path d="M -0.296875 72.90625 
L 61.375 72.90625 
L 61.375 64.59375 
L 35.5 64.59375 
L 35.5 0 
L 25.59375 0 
L 25.59375 64.59375 
L -0.296875 64.59375 
z
" id="DejaVuSans-84"/>
     </defs>
     <g transform="translate(136.5 81.748856)scale(0.15 -0.15)">
      <use xlink:href="#DejaVuSans-87"/>
      <use x="98.876953" xlink:href="#DejaVuSans-84"/>
     </g>
    </g>
    <g id="line2d_70">
     <path d="M 94.5 98.516044 
L 124.5 98.516044 
" style="fill:none;stroke:#3372cc;stroke-linecap:square;stroke-width:1.5;"/>
    </g>
    <g id="line2d_71"/>
    <g id="text_16">
     <!-- ROTU1 -->
     <defs>
      <path d="M 39.40625 66.21875 
Q 28.65625 66.21875 22.328125 58.203125 
Q 16.015625 50.203125 16.015625 36.375 
Q 16.015625 22.609375 22.328125 14.59375 
Q 28.65625 6.59375 39.40625 6.59375 
Q 50.140625 6.59375 56.421875 14.59375 
Q 62.703125 22.609375 62.703125 36.375 
Q 62.703125 50.203125 56.421875 58.203125 
Q 50.140625 66.21875 39.40625 66.21875 
z
M 39.40625 74.21875 
Q 54.734375 74.21875 63.90625 63.9375 
Q 73.09375 53.65625 73.09375 36.375 
Q 73.09375 19.140625 63.90625 8.859375 
Q 54.734375 -1.421875 39.40625 -1.421875 
Q 24.03125 -1.421875 14.8125 8.828125 
Q 5.609375 19.09375 5.609375 36.375 
Q 5.609375 53.65625 14.8125 63.9375 
Q 24.03125 74.21875 39.40625 74.21875 
z
" id="DejaVuSans-79"/>
      <path d="M 8.6875 72.90625 
L 18.609375 72.90625 
L 18.609375 28.609375 
Q 18.609375 16.890625 22.84375 11.734375 
Q 27.09375 6.59375 36.625 6.59375 
Q 46.09375 6.59375 50.34375 11.734375 
Q 54.59375 16.890625 54.59375 28.609375 
L 54.59375 72.90625 
L 64.5 72.90625 
L 64.5 27.390625 
Q 64.5 13.140625 57.4375 5.859375 
Q 50.390625 -1.421875 36.625 -1.421875 
Q 22.796875 -1.421875 15.734375 5.859375 
Q 8.6875 13.140625 8.6875 27.390625 
z
" id="DejaVuSans-85"/>
     </defs>
     <g transform="translate(136.5 103.766044)scale(0.15 -0.15)">
      <use xlink:href="#DejaVuSans-82"/>
      <use x="69.482422" xlink:href="#DejaVuSans-79"/>
      <use x="148.193359" xlink:href="#DejaVuSans-84"/>
      <use x="209.277344" xlink:href="#DejaVuSans-85"/>
      <use x="282.470703" xlink:href="#DejaVuSans-49"/>
     </g>
    </g>
    <g id="line2d_72">
     <path d="M 94.5 120.533231 
L 124.5 120.533231 
" style="fill:none;stroke:#674c9a;stroke-linecap:square;stroke-width:1.5;"/>
    </g>
    <g id="line2d_73"/>
    <g id="text_17">
     <!-- ROTU2 -->
     <g transform="translate(136.5 125.783231)scale(0.15 -0.15)">
      <use xlink:href="#DejaVuSans-82"/>
      <use x="69.482422" xlink:href="#DejaVuSans-79"/>
      <use x="148.193359" xlink:href="#DejaVuSans-84"/>
      <use x="209.277344" xlink:href="#DejaVuSans-85"/>
      <use x="282.470703" xlink:href="#DejaVuSans-50"/>
     </g>
    </g>
    <g id="line2d_74">
     <path d="M 94.5 142.550419 
L 124.5 142.550419 
" style="fill:none;stroke:#9a2667;stroke-linecap:square;stroke-width:1.5;"/>
    </g>
    <g id="line2d_75"/>
    <g id="text_18">
     <!-- ROTU3 -->
     <g transform="translate(136.5 147.800419)scale(0.15 -0.15)">
      <use xlink:href="#DejaVuSans-82"/>
      <use x="69.482422" xlink:href="#DejaVuSans-79"/>
      <use x="148.193359" xlink:href="#DejaVuSans-84"/>
      <use x="209.277344" xlink:href="#DejaVuSans-85"/>
      <use x="282.470703" xlink:href="#DejaVuSans-51"/>
     </g>
    </g>
    <g id="line2d_76">
     <path d="M 94.5 164.567606 
L 124.5 164.567606 
" style="fill:none;stroke:#ce0035;stroke-linecap:square;stroke-width:1.5;"/>
    </g>
    <g id="line2d_77"/>
    <g id="text_19">
     <!-- ROTU4 -->
     <g transform="translate(136.5 169.817606)scale(0.15 -0.15)">
      <use xlink:href="#DejaVuSans-82"/>
      <use x="69.482422" xlink:href="#DejaVuSans-79"/>
      <use x="148.193359" xlink:href="#DejaVuSans-84"/>
      <use x="209.277344" xlink:href="#DejaVuSans-85"/>
      <use x="282.470703" xlink:href="#DejaVuSans-52"/>
     </g>
    </g>
   </g>
  </g>
 </g>
 <defs>
  <clipPath id="pdc660cc5df">
   <rect height="364.7952" width="502.2" x="81" y="56.8512"/>
  </clipPath>
 </defs>
</svg>
