<?xml version="1.0" encoding="utf-8" standalone="no"?>
<!DOCTYPE svg PUBLIC "-//W3C//DTD SVG 1.1//EN"
  "http://www.w3.org/Graphics/SVG/1.1/DTD/svg11.dtd">
<!-- Created with matplotlib (https://matplotlib.org/) -->
<svg height="473.76pt" version="1.1" viewBox="0 0 648 473.76" width="648pt" xmlns="http://www.w3.org/2000/svg" xmlns:xlink="http://www.w3.org/1999/xlink">
 <defs>
  <style type="text/css">
*{stroke-linecap:butt;stroke-linejoin:round;}
  </style>
 </defs>
 <g id="figure_1">
  <g id="patch_1">
   <path d="M 0 473.76 
L 648 473.76 
L 648 0 
L 0 0 
z
" style="fill:#ffffff;"/>
  </g>
  <g id="axes_1">
   <g id="patch_2">
    <path d="M 81 421.6464 
L 583.2 421.6464 
L 583.2 56.8512 
L 81 56.8512 
z
" style="fill:#ffffff;"/>
   </g>
   <g id="matplotlib.axis_1">
    <g id="xtick_1">
     <g id="line2d_1">
      <defs>
       <path d="M 0 0 
L 0 2 
" id="mbeab624ff1" style="stroke:#000000;"/>
      </defs>
      <g>
       <use style="stroke:#000000;" x="179.549735" xlink:href="#mbeab624ff1" y="421.6464"/>
      </g>
     </g>
     <g id="text_1">
      <!-- 0.1 -->
      <defs>
       <path d="M 31.78125 66.40625 
Q 24.171875 66.40625 20.328125 58.90625 
Q 16.5 51.421875 16.5 36.375 
Q 16.5 21.390625 20.328125 13.890625 
Q 24.171875 6.390625 31.78125 6.390625 
Q 39.453125 6.390625 43.28125 13.890625 
Q 47.125 21.390625 47.125 36.375 
Q 47.125 51.421875 43.28125 58.90625 
Q 39.453125 66.40625 31.78125 66.40625 
z
M 31.78125 74.21875 
Q 44.046875 74.21875 50.515625 64.515625 
Q 56.984375 54.828125 56.984375 36.375 
Q 56.984375 17.96875 50.515625 8.265625 
Q 44.046875 -1.421875 31.78125 -1.421875 
Q 19.53125 -1.421875 13.0625 8.265625 
Q 6.59375 17.96875 6.59375 36.375 
Q 6.59375 54.828125 13.0625 64.515625 
Q 19.53125 74.21875 31.78125 74.21875 
z
" id="DejaVuSans-48"/>
       <path d="M 10.6875 12.40625 
L 21 12.40625 
L 21 0 
L 10.6875 0 
z
" id="DejaVuSans-46"/>
       <path d="M 12.40625 8.296875 
L 28.515625 8.296875 
L 28.515625 63.921875 
L 10.984375 60.40625 
L 10.984375 69.390625 
L 28.421875 72.90625 
L 38.28125 72.90625 
L 38.28125 8.296875 
L 54.390625 8.296875 
L 54.390625 0 
L 12.40625 0 
z
" id="DejaVuSans-49"/>
      </defs>
      <g transform="translate(165.236922 440.823588)scale(0.18 -0.18)">
       <use xlink:href="#DejaVuSans-48"/>
       <use x="63.623047" xlink:href="#DejaVuSans-46"/>
       <use x="95.410156" xlink:href="#DejaVuSans-49"/>
      </g>
     </g>
    </g>
    <g id="xtick_2">
     <g id="line2d_2">
      <g>
       <use style="stroke:#000000;" x="288.674779" xlink:href="#mbeab624ff1" y="421.6464"/>
      </g>
     </g>
     <g id="text_2">
      <!-- 1.0 -->
      <g transform="translate(274.361966 440.823588)scale(0.18 -0.18)">
       <use xlink:href="#DejaVuSans-49"/>
       <use x="63.623047" xlink:href="#DejaVuSans-46"/>
       <use x="95.410156" xlink:href="#DejaVuSans-48"/>
      </g>
     </g>
    </g>
    <g id="xtick_3">
     <g id="line2d_3">
      <g>
       <use style="stroke:#000000;" x="397.799823" xlink:href="#mbeab624ff1" y="421.6464"/>
      </g>
     </g>
     <g id="text_3">
      <!-- 10.0 -->
      <g transform="translate(377.760761 440.823588)scale(0.18 -0.18)">
       <use xlink:href="#DejaVuSans-49"/>
       <use x="63.623047" xlink:href="#DejaVuSans-48"/>
       <use x="127.246094" xlink:href="#DejaVuSans-46"/>
       <use x="159.033203" xlink:href="#DejaVuSans-48"/>
      </g>
     </g>
    </g>
    <g id="xtick_4">
     <g id="line2d_4">
      <g>
       <use style="stroke:#000000;" x="506.924867" xlink:href="#mbeab624ff1" y="421.6464"/>
      </g>
     </g>
     <g id="text_4">
      <!-- 100.0 -->
      <g transform="translate(481.159555 440.823588)scale(0.18 -0.18)">
       <use xlink:href="#DejaVuSans-49"/>
       <use x="63.623047" xlink:href="#DejaVuSans-48"/>
       <use x="127.246094" xlink:href="#DejaVuSans-48"/>
       <use x="190.869141" xlink:href="#DejaVuSans-46"/>
       <use x="222.65625" xlink:href="#DejaVuSans-48"/>
      </g>
     </g>
    </g>
    <g id="xtick_5">
     <g id="line2d_5">
      <defs>
       <path d="M 0 0 
L 0 2 
" id="m51afc9b1b1" style="stroke:#000000;stroke-width:0.6;"/>
      </defs>
      <g>
       <use style="stroke:#000000;stroke-width:0.6;" x="103.274602" xlink:href="#m51afc9b1b1" y="421.6464"/>
      </g>
     </g>
    </g>
    <g id="xtick_6">
     <g id="line2d_6">
      <g>
       <use style="stroke:#000000;stroke-width:0.6;" x="122.490569" xlink:href="#m51afc9b1b1" y="421.6464"/>
      </g>
     </g>
    </g>
    <g id="xtick_7">
     <g id="line2d_7">
      <g>
       <use style="stroke:#000000;stroke-width:0.6;" x="136.124514" xlink:href="#m51afc9b1b1" y="421.6464"/>
      </g>
     </g>
    </g>
    <g id="xtick_8">
     <g id="line2d_8">
      <g>
       <use style="stroke:#000000;stroke-width:0.6;" x="146.699823" xlink:href="#m51afc9b1b1" y="421.6464"/>
      </g>
     </g>
    </g>
    <g id="xtick_9">
     <g id="line2d_9">
      <g>
       <use style="stroke:#000000;stroke-width:0.6;" x="155.34048" xlink:href="#m51afc9b1b1" y="421.6464"/>
      </g>
     </g>
    </g>
    <g id="xtick_10">
     <g id="line2d_10">
      <g>
       <use style="stroke:#000000;stroke-width:0.6;" x="162.646052" xlink:href="#m51afc9b1b1" y="421.6464"/>
      </g>
     </g>
    </g>
    <g id="xtick_11">
     <g id="line2d_11">
      <g>
       <use style="stroke:#000000;stroke-width:0.6;" x="168.974425" xlink:href="#m51afc9b1b1" y="421.6464"/>
      </g>
     </g>
    </g>
    <g id="xtick_12">
     <g id="line2d_12">
      <g>
       <use style="stroke:#000000;stroke-width:0.6;" x="174.556447" xlink:href="#m51afc9b1b1" y="421.6464"/>
      </g>
     </g>
    </g>
    <g id="xtick_13">
     <g id="line2d_13">
      <g>
       <use style="stroke:#000000;stroke-width:0.6;" x="212.399646" xlink:href="#m51afc9b1b1" y="421.6464"/>
      </g>
     </g>
    </g>
    <g id="xtick_14">
     <g id="line2d_14">
      <g>
       <use style="stroke:#000000;stroke-width:0.6;" x="231.615613" xlink:href="#m51afc9b1b1" y="421.6464"/>
      </g>
     </g>
    </g>
    <g id="xtick_15">
     <g id="line2d_15">
      <g>
       <use style="stroke:#000000;stroke-width:0.6;" x="245.249558" xlink:href="#m51afc9b1b1" y="421.6464"/>
      </g>
     </g>
    </g>
    <g id="xtick_16">
     <g id="line2d_16">
      <g>
       <use style="stroke:#000000;stroke-width:0.6;" x="255.824867" xlink:href="#m51afc9b1b1" y="421.6464"/>
      </g>
     </g>
    </g>
    <g id="xtick_17">
     <g id="line2d_17">
      <g>
       <use style="stroke:#000000;stroke-width:0.6;" x="264.465524" xlink:href="#m51afc9b1b1" y="421.6464"/>
      </g>
     </g>
    </g>
    <g id="xtick_18">
     <g id="line2d_18">
      <g>
       <use style="stroke:#000000;stroke-width:0.6;" x="271.771096" xlink:href="#m51afc9b1b1" y="421.6464"/>
      </g>
     </g>
    </g>
    <g id="xtick_19">
     <g id="line2d_19">
      <g>
       <use style="stroke:#000000;stroke-width:0.6;" x="278.09947" xlink:href="#m51afc9b1b1" y="421.6464"/>
      </g>
     </g>
    </g>
    <g id="xtick_20">
     <g id="line2d_20">
      <g>
       <use style="stroke:#000000;stroke-width:0.6;" x="283.681491" xlink:href="#m51afc9b1b1" y="421.6464"/>
      </g>
     </g>
    </g>
    <g id="xtick_21">
     <g id="line2d_21">
      <g>
       <use style="stroke:#000000;stroke-width:0.6;" x="321.524691" xlink:href="#m51afc9b1b1" y="421.6464"/>
      </g>
     </g>
    </g>
    <g id="xtick_22">
     <g id="line2d_22">
      <g>
       <use style="stroke:#000000;stroke-width:0.6;" x="340.740657" xlink:href="#m51afc9b1b1" y="421.6464"/>
      </g>
     </g>
    </g>
    <g id="xtick_23">
     <g id="line2d_23">
      <g>
       <use style="stroke:#000000;stroke-width:0.6;" x="354.374602" xlink:href="#m51afc9b1b1" y="421.6464"/>
      </g>
     </g>
    </g>
    <g id="xtick_24">
     <g id="line2d_24">
      <g>
       <use style="stroke:#000000;stroke-width:0.6;" x="364.949912" xlink:href="#m51afc9b1b1" y="421.6464"/>
      </g>
     </g>
    </g>
    <g id="xtick_25">
     <g id="line2d_25">
      <g>
       <use style="stroke:#000000;stroke-width:0.6;" x="373.590569" xlink:href="#m51afc9b1b1" y="421.6464"/>
      </g>
     </g>
    </g>
    <g id="xtick_26">
     <g id="line2d_26">
      <g>
       <use style="stroke:#000000;stroke-width:0.6;" x="380.89614" xlink:href="#m51afc9b1b1" y="421.6464"/>
      </g>
     </g>
    </g>
    <g id="xtick_27">
     <g id="line2d_27">
      <g>
       <use style="stroke:#000000;stroke-width:0.6;" x="387.224514" xlink:href="#m51afc9b1b1" y="421.6464"/>
      </g>
     </g>
    </g>
    <g id="xtick_28">
     <g id="line2d_28">
      <g>
       <use style="stroke:#000000;stroke-width:0.6;" x="392.806535" xlink:href="#m51afc9b1b1" y="421.6464"/>
      </g>
     </g>
    </g>
    <g id="xtick_29">
     <g id="line2d_29">
      <g>
       <use style="stroke:#000000;stroke-width:0.6;" x="430.649735" xlink:href="#m51afc9b1b1" y="421.6464"/>
      </g>
     </g>
    </g>
    <g id="xtick_30">
     <g id="line2d_30">
      <g>
       <use style="stroke:#000000;stroke-width:0.6;" x="449.865701" xlink:href="#m51afc9b1b1" y="421.6464"/>
      </g>
     </g>
    </g>
    <g id="xtick_31">
     <g id="line2d_31">
      <g>
       <use style="stroke:#000000;stroke-width:0.6;" x="463.499646" xlink:href="#m51afc9b1b1" y="421.6464"/>
      </g>
     </g>
    </g>
    <g id="xtick_32">
     <g id="line2d_32">
      <g>
       <use style="stroke:#000000;stroke-width:0.6;" x="474.074956" xlink:href="#m51afc9b1b1" y="421.6464"/>
      </g>
     </g>
    </g>
    <g id="xtick_33">
     <g id="line2d_33">
      <g>
       <use style="stroke:#000000;stroke-width:0.6;" x="482.715613" xlink:href="#m51afc9b1b1" y="421.6464"/>
      </g>
     </g>
    </g>
    <g id="xtick_34">
     <g id="line2d_34">
      <g>
       <use style="stroke:#000000;stroke-width:0.6;" x="490.021184" xlink:href="#m51afc9b1b1" y="421.6464"/>
      </g>
     </g>
    </g>
    <g id="xtick_35">
     <g id="line2d_35">
      <g>
       <use style="stroke:#000000;stroke-width:0.6;" x="496.349558" xlink:href="#m51afc9b1b1" y="421.6464"/>
      </g>
     </g>
    </g>
    <g id="xtick_36">
     <g id="line2d_36">
      <g>
       <use style="stroke:#000000;stroke-width:0.6;" x="501.931579" xlink:href="#m51afc9b1b1" y="421.6464"/>
      </g>
     </g>
    </g>
    <g id="xtick_37">
     <g id="line2d_37">
      <g>
       <use style="stroke:#000000;stroke-width:0.6;" x="539.774779" xlink:href="#m51afc9b1b1" y="421.6464"/>
      </g>
     </g>
    </g>
    <g id="xtick_38">
     <g id="line2d_38">
      <g>
       <use style="stroke:#000000;stroke-width:0.6;" x="558.990745" xlink:href="#m51afc9b1b1" y="421.6464"/>
      </g>
     </g>
    </g>
    <g id="xtick_39">
     <g id="line2d_39">
      <g>
       <use style="stroke:#000000;stroke-width:0.6;" x="572.624691" xlink:href="#m51afc9b1b1" y="421.6464"/>
      </g>
     </g>
    </g>
    <g id="xtick_40">
     <g id="line2d_40">
      <g>
       <use style="stroke:#000000;stroke-width:0.6;" x="583.2" xlink:href="#m51afc9b1b1" y="421.6464"/>
      </g>
     </g>
    </g>
    <g id="text_5">
     <!-- Rotundine (uM) -->
     <defs>
      <path d="M 44.390625 34.1875 
Q 47.5625 33.109375 50.5625 29.59375 
Q 53.5625 26.078125 56.59375 19.921875 
L 66.609375 0 
L 56 0 
L 46.6875 18.703125 
Q 43.0625 26.03125 39.671875 28.421875 
Q 36.28125 30.8125 30.421875 30.8125 
L 19.671875 30.8125 
L 19.671875 0 
L 9.8125 0 
L 9.8125 72.90625 
L 32.078125 72.90625 
Q 44.578125 72.90625 50.734375 67.671875 
Q 56.890625 62.453125 56.890625 51.90625 
Q 56.890625 45.015625 53.6875 40.46875 
Q 50.484375 35.9375 44.390625 34.1875 
z
M 19.671875 64.796875 
L 19.671875 38.921875 
L 32.078125 38.921875 
Q 39.203125 38.921875 42.84375 42.21875 
Q 46.484375 45.515625 46.484375 51.90625 
Q 46.484375 58.296875 42.84375 61.546875 
Q 39.203125 64.796875 32.078125 64.796875 
z
" id="DejaVuSans-82"/>
      <path d="M 30.609375 48.390625 
Q 23.390625 48.390625 19.1875 42.75 
Q 14.984375 37.109375 14.984375 27.296875 
Q 14.984375 17.484375 19.15625 11.84375 
Q 23.34375 6.203125 30.609375 6.203125 
Q 37.796875 6.203125 41.984375 11.859375 
Q 46.1875 17.53125 46.1875 27.296875 
Q 46.1875 37.015625 41.984375 42.703125 
Q 37.796875 48.390625 30.609375 48.390625 
z
M 30.609375 56 
Q 42.328125 56 49.015625 48.375 
Q 55.71875 40.765625 55.71875 27.296875 
Q 55.71875 13.875 49.015625 6.21875 
Q 42.328125 -1.421875 30.609375 -1.421875 
Q 18.84375 -1.421875 12.171875 6.21875 
Q 5.515625 13.875 5.515625 27.296875 
Q 5.515625 40.765625 12.171875 48.375 
Q 18.84375 56 30.609375 56 
z
" id="DejaVuSans-111"/>
      <path d="M 18.3125 70.21875 
L 18.3125 54.6875 
L 36.8125 54.6875 
L 36.8125 47.703125 
L 18.3125 47.703125 
L 18.3125 18.015625 
Q 18.3125 11.328125 20.140625 9.421875 
Q 21.96875 7.515625 27.59375 7.515625 
L 36.8125 7.515625 
L 36.8125 0 
L 27.59375 0 
Q 17.1875 0 13.234375 3.875 
Q 9.28125 7.765625 9.28125 18.015625 
L 9.28125 47.703125 
L 2.6875 47.703125 
L 2.6875 54.6875 
L 9.28125 54.6875 
L 9.28125 70.21875 
z
" id="DejaVuSans-116"/>
      <path d="M 8.5 21.578125 
L 8.5 54.6875 
L 17.484375 54.6875 
L 17.484375 21.921875 
Q 17.484375 14.15625 20.5 10.265625 
Q 23.53125 6.390625 29.59375 6.390625 
Q 36.859375 6.390625 41.078125 11.03125 
Q 45.3125 15.671875 45.3125 23.6875 
L 45.3125 54.6875 
L 54.296875 54.6875 
L 54.296875 0 
L 45.3125 0 
L 45.3125 8.40625 
Q 42.046875 3.421875 37.71875 1 
Q 33.40625 -1.421875 27.6875 -1.421875 
Q 18.265625 -1.421875 13.375 4.4375 
Q 8.5 10.296875 8.5 21.578125 
z
M 31.109375 56 
z
" id="DejaVuSans-117"/>
      <path d="M 54.890625 33.015625 
L 54.890625 0 
L 45.90625 0 
L 45.90625 32.71875 
Q 45.90625 40.484375 42.875 44.328125 
Q 39.84375 48.1875 33.796875 48.1875 
Q 26.515625 48.1875 22.3125 43.546875 
Q 18.109375 38.921875 18.109375 30.90625 
L 18.109375 0 
L 9.078125 0 
L 9.078125 54.6875 
L 18.109375 54.6875 
L 18.109375 46.1875 
Q 21.34375 51.125 25.703125 53.5625 
Q 30.078125 56 35.796875 56 
Q 45.21875 56 50.046875 50.171875 
Q 54.890625 44.34375 54.890625 33.015625 
z
" id="DejaVuSans-110"/>
      <path d="M 45.40625 46.390625 
L 45.40625 75.984375 
L 54.390625 75.984375 
L 54.390625 0 
L 45.40625 0 
L 45.40625 8.203125 
Q 42.578125 3.328125 38.25 0.953125 
Q 33.9375 -1.421875 27.875 -1.421875 
Q 17.96875 -1.421875 11.734375 6.484375 
Q 5.515625 14.40625 5.515625 27.296875 
Q 5.515625 40.1875 11.734375 48.09375 
Q 17.96875 56 27.875 56 
Q 33.9375 56 38.25 53.625 
Q 42.578125 51.265625 45.40625 46.390625 
z
M 14.796875 27.296875 
Q 14.796875 17.390625 18.875 11.75 
Q 22.953125 6.109375 30.078125 6.109375 
Q 37.203125 6.109375 41.296875 11.75 
Q 45.40625 17.390625 45.40625 27.296875 
Q 45.40625 37.203125 41.296875 42.84375 
Q 37.203125 48.484375 30.078125 48.484375 
Q 22.953125 48.484375 18.875 42.84375 
Q 14.796875 37.203125 14.796875 27.296875 
z
" id="DejaVuSans-100"/>
      <path d="M 9.421875 54.6875 
L 18.40625 54.6875 
L 18.40625 0 
L 9.421875 0 
z
M 9.421875 75.984375 
L 18.40625 75.984375 
L 18.40625 64.59375 
L 9.421875 64.59375 
z
" id="DejaVuSans-105"/>
      <path d="M 56.203125 29.59375 
L 56.203125 25.203125 
L 14.890625 25.203125 
Q 15.484375 15.921875 20.484375 11.0625 
Q 25.484375 6.203125 34.421875 6.203125 
Q 39.59375 6.203125 44.453125 7.46875 
Q 49.3125 8.734375 54.109375 11.28125 
L 54.109375 2.78125 
Q 49.265625 0.734375 44.1875 -0.34375 
Q 39.109375 -1.421875 33.890625 -1.421875 
Q 20.796875 -1.421875 13.15625 6.1875 
Q 5.515625 13.8125 5.515625 26.8125 
Q 5.515625 40.234375 12.765625 48.109375 
Q 20.015625 56 32.328125 56 
Q 43.359375 56 49.78125 48.890625 
Q 56.203125 41.796875 56.203125 29.59375 
z
M 47.21875 32.234375 
Q 47.125 39.59375 43.09375 43.984375 
Q 39.0625 48.390625 32.421875 48.390625 
Q 24.90625 48.390625 20.390625 44.140625 
Q 15.875 39.890625 15.1875 32.171875 
z
" id="DejaVuSans-101"/>
      <path id="DejaVuSans-32"/>
      <path d="M 31 75.875 
Q 24.46875 64.65625 21.28125 53.65625 
Q 18.109375 42.671875 18.109375 31.390625 
Q 18.109375 20.125 21.3125 9.0625 
Q 24.515625 -2 31 -13.1875 
L 23.1875 -13.1875 
Q 15.875 -1.703125 12.234375 9.375 
Q 8.59375 20.453125 8.59375 31.390625 
Q 8.59375 42.28125 12.203125 53.3125 
Q 15.828125 64.359375 23.1875 75.875 
z
" id="DejaVuSans-40"/>
      <path d="M 9.8125 72.90625 
L 24.515625 72.90625 
L 43.109375 23.296875 
L 61.8125 72.90625 
L 76.515625 72.90625 
L 76.515625 0 
L 66.890625 0 
L 66.890625 64.015625 
L 48.09375 14.015625 
L 38.1875 14.015625 
L 19.390625 64.015625 
L 19.390625 0 
L 9.8125 0 
z
" id="DejaVuSans-77"/>
      <path d="M 8.015625 75.875 
L 15.828125 75.875 
Q 23.140625 64.359375 26.78125 53.3125 
Q 30.421875 42.28125 30.421875 31.390625 
Q 30.421875 20.453125 26.78125 9.375 
Q 23.140625 -1.703125 15.828125 -13.1875 
L 8.015625 -13.1875 
Q 14.5 -2 17.703125 9.0625 
Q 20.90625 20.125 20.90625 31.390625 
Q 20.90625 42.671875 17.703125 53.65625 
Q 14.5 64.65625 8.015625 75.875 
z
" id="DejaVuSans-41"/>
     </defs>
     <g transform="translate(254.879688 463.7639)scale(0.2 -0.2)">
      <use xlink:href="#DejaVuSans-82"/>
      <use x="69.419922" xlink:href="#DejaVuSans-111"/>
      <use x="130.601562" xlink:href="#DejaVuSans-116"/>
      <use x="169.810547" xlink:href="#DejaVuSans-117"/>
      <use x="233.189453" xlink:href="#DejaVuSans-110"/>
      <use x="296.568359" xlink:href="#DejaVuSans-100"/>
      <use x="360.044922" xlink:href="#DejaVuSans-105"/>
      <use x="387.828125" xlink:href="#DejaVuSans-110"/>
      <use x="451.207031" xlink:href="#DejaVuSans-101"/>
      <use x="512.730469" xlink:href="#DejaVuSans-32"/>
      <use x="544.517578" xlink:href="#DejaVuSans-40"/>
      <use x="583.53125" xlink:href="#DejaVuSans-117"/>
      <use x="646.910156" xlink:href="#DejaVuSans-77"/>
      <use x="733.189453" xlink:href="#DejaVuSans-41"/>
     </g>
    </g>
   </g>
   <g id="matplotlib.axis_2">
    <g id="ytick_1">
     <g id="line2d_41">
      <defs>
       <path d="M 0 0 
L -2 0 
" id="m5f72701ac5" style="stroke:#000000;"/>
      </defs>
      <g>
       <use style="stroke:#000000;" x="81" xlink:href="#m5f72701ac5" y="406.200601"/>
      </g>
     </g>
     <g id="text_6">
      <!-- 0 -->
      <g transform="translate(64.0475 413.039195)scale(0.18 -0.18)">
       <use xlink:href="#DejaVuSans-48"/>
      </g>
     </g>
    </g>
    <g id="ytick_2">
     <g id="line2d_42">
      <g>
       <use style="stroke:#000000;" x="81" xlink:href="#m5f72701ac5" y="349.705397"/>
      </g>
     </g>
     <g id="text_7">
      <!-- 1 -->
      <g transform="translate(64.0475 356.543991)scale(0.18 -0.18)">
       <use xlink:href="#DejaVuSans-49"/>
      </g>
     </g>
    </g>
    <g id="ytick_3">
     <g id="line2d_43">
      <g>
       <use style="stroke:#000000;" x="81" xlink:href="#m5f72701ac5" y="293.210193"/>
      </g>
     </g>
     <g id="text_8">
      <!-- 2 -->
      <defs>
       <path d="M 19.1875 8.296875 
L 53.609375 8.296875 
L 53.609375 0 
L 7.328125 0 
L 7.328125 8.296875 
Q 12.9375 14.109375 22.625 23.890625 
Q 32.328125 33.6875 34.8125 36.53125 
Q 39.546875 41.84375 41.421875 45.53125 
Q 43.3125 49.21875 43.3125 52.78125 
Q 43.3125 58.59375 39.234375 62.25 
Q 35.15625 65.921875 28.609375 65.921875 
Q 23.96875 65.921875 18.8125 64.3125 
Q 13.671875 62.703125 7.8125 59.421875 
L 7.8125 69.390625 
Q 13.765625 71.78125 18.9375 73 
Q 24.125 74.21875 28.421875 74.21875 
Q 39.75 74.21875 46.484375 68.546875 
Q 53.21875 62.890625 53.21875 53.421875 
Q 53.21875 48.921875 51.53125 44.890625 
Q 49.859375 40.875 45.40625 35.40625 
Q 44.1875 33.984375 37.640625 27.21875 
Q 31.109375 20.453125 19.1875 8.296875 
z
" id="DejaVuSans-50"/>
      </defs>
      <g transform="translate(64.0475 300.048787)scale(0.18 -0.18)">
       <use xlink:href="#DejaVuSans-50"/>
      </g>
     </g>
    </g>
    <g id="ytick_4">
     <g id="line2d_44">
      <g>
       <use style="stroke:#000000;" x="81" xlink:href="#m5f72701ac5" y="236.714989"/>
      </g>
     </g>
     <g id="text_9">
      <!-- 3 -->
      <defs>
       <path d="M 40.578125 39.3125 
Q 47.65625 37.796875 51.625 33 
Q 55.609375 28.21875 55.609375 21.1875 
Q 55.609375 10.40625 48.1875 4.484375 
Q 40.765625 -1.421875 27.09375 -1.421875 
Q 22.515625 -1.421875 17.65625 -0.515625 
Q 12.796875 0.390625 7.625 2.203125 
L 7.625 11.71875 
Q 11.71875 9.328125 16.59375 8.109375 
Q 21.484375 6.890625 26.8125 6.890625 
Q 36.078125 6.890625 40.9375 10.546875 
Q 45.796875 14.203125 45.796875 21.1875 
Q 45.796875 27.640625 41.28125 31.265625 
Q 36.765625 34.90625 28.71875 34.90625 
L 20.21875 34.90625 
L 20.21875 43.015625 
L 29.109375 43.015625 
Q 36.375 43.015625 40.234375 45.921875 
Q 44.09375 48.828125 44.09375 54.296875 
Q 44.09375 59.90625 40.109375 62.90625 
Q 36.140625 65.921875 28.71875 65.921875 
Q 24.65625 65.921875 20.015625 65.03125 
Q 15.375 64.15625 9.8125 62.3125 
L 9.8125 71.09375 
Q 15.4375 72.65625 20.34375 73.4375 
Q 25.25 74.21875 29.59375 74.21875 
Q 40.828125 74.21875 47.359375 69.109375 
Q 53.90625 64.015625 53.90625 55.328125 
Q 53.90625 49.265625 50.4375 45.09375 
Q 46.96875 40.921875 40.578125 39.3125 
z
" id="DejaVuSans-51"/>
      </defs>
      <g transform="translate(64.0475 243.553583)scale(0.18 -0.18)">
       <use xlink:href="#DejaVuSans-51"/>
      </g>
     </g>
    </g>
    <g id="ytick_5">
     <g id="line2d_45">
      <g>
       <use style="stroke:#000000;" x="81" xlink:href="#m5f72701ac5" y="180.219785"/>
      </g>
     </g>
     <g id="text_10">
      <!-- 4 -->
      <defs>
       <path d="M 37.796875 64.3125 
L 12.890625 25.390625 
L 37.796875 25.390625 
z
M 35.203125 72.90625 
L 47.609375 72.90625 
L 47.609375 25.390625 
L 58.015625 25.390625 
L 58.015625 17.1875 
L 47.609375 17.1875 
L 47.609375 0 
L 37.796875 0 
L 37.796875 17.1875 
L 4.890625 17.1875 
L 4.890625 26.703125 
z
" id="DejaVuSans-52"/>
      </defs>
      <g transform="translate(64.0475 187.058379)scale(0.18 -0.18)">
       <use xlink:href="#DejaVuSans-52"/>
      </g>
     </g>
    </g>
    <g id="ytick_6">
     <g id="line2d_46">
      <g>
       <use style="stroke:#000000;" x="81" xlink:href="#m5f72701ac5" y="123.724581"/>
      </g>
     </g>
     <g id="text_11">
      <!-- 5 -->
      <defs>
       <path d="M 10.796875 72.90625 
L 49.515625 72.90625 
L 49.515625 64.59375 
L 19.828125 64.59375 
L 19.828125 46.734375 
Q 21.96875 47.46875 24.109375 47.828125 
Q 26.265625 48.1875 28.421875 48.1875 
Q 40.625 48.1875 47.75 41.5 
Q 54.890625 34.8125 54.890625 23.390625 
Q 54.890625 11.625 47.5625 5.09375 
Q 40.234375 -1.421875 26.90625 -1.421875 
Q 22.3125 -1.421875 17.546875 -0.640625 
Q 12.796875 0.140625 7.71875 1.703125 
L 7.71875 11.625 
Q 12.109375 9.234375 16.796875 8.0625 
Q 21.484375 6.890625 26.703125 6.890625 
Q 35.15625 6.890625 40.078125 11.328125 
Q 45.015625 15.765625 45.015625 23.390625 
Q 45.015625 31 40.078125 35.4375 
Q 35.15625 39.890625 26.703125 39.890625 
Q 22.75 39.890625 18.8125 39.015625 
Q 14.890625 38.140625 10.796875 36.28125 
z
" id="DejaVuSans-53"/>
      </defs>
      <g transform="translate(64.0475 130.563175)scale(0.18 -0.18)">
       <use xlink:href="#DejaVuSans-53"/>
      </g>
     </g>
    </g>
    <g id="ytick_7">
     <g id="line2d_47">
      <g>
       <use style="stroke:#000000;" x="81" xlink:href="#m5f72701ac5" y="67.229378"/>
      </g>
     </g>
     <g id="text_12">
      <!-- 6 -->
      <defs>
       <path d="M 33.015625 40.375 
Q 26.375 40.375 22.484375 35.828125 
Q 18.609375 31.296875 18.609375 23.390625 
Q 18.609375 15.53125 22.484375 10.953125 
Q 26.375 6.390625 33.015625 6.390625 
Q 39.65625 6.390625 43.53125 10.953125 
Q 47.40625 15.53125 47.40625 23.390625 
Q 47.40625 31.296875 43.53125 35.828125 
Q 39.65625 40.375 33.015625 40.375 
z
M 52.59375 71.296875 
L 52.59375 62.3125 
Q 48.875 64.0625 45.09375 64.984375 
Q 41.3125 65.921875 37.59375 65.921875 
Q 27.828125 65.921875 22.671875 59.328125 
Q 17.53125 52.734375 16.796875 39.40625 
Q 19.671875 43.65625 24.015625 45.921875 
Q 28.375 48.1875 33.59375 48.1875 
Q 44.578125 48.1875 50.953125 41.515625 
Q 57.328125 34.859375 57.328125 23.390625 
Q 57.328125 12.15625 50.6875 5.359375 
Q 44.046875 -1.421875 33.015625 -1.421875 
Q 20.359375 -1.421875 13.671875 8.265625 
Q 6.984375 17.96875 6.984375 36.375 
Q 6.984375 53.65625 15.1875 63.9375 
Q 23.390625 74.21875 37.203125 74.21875 
Q 40.921875 74.21875 44.703125 73.484375 
Q 48.484375 72.75 52.59375 71.296875 
z
" id="DejaVuSans-54"/>
      </defs>
      <g transform="translate(64.0475 74.067971)scale(0.18 -0.18)">
       <use xlink:href="#DejaVuSans-54"/>
      </g>
     </g>
    </g>
    <g id="text_13">
     <!-- $(RFU/OD) \times 10^4$ -->
     <defs>
      <path d="M 25.203125 64.796875 
L 20.21875 38.921875 
L 32.90625 38.921875 
Q 40.375 38.921875 44.984375 43.046875 
Q 49.609375 47.171875 49.609375 53.8125 
Q 49.609375 59.125 46.5 61.953125 
Q 43.40625 64.796875 37.59375 64.796875 
z
M 43.3125 35.015625 
Q 46.4375 34.28125 48.515625 31.390625 
Q 50.59375 28.515625 53.328125 19.921875 
L 59.515625 0 
L 49.125 0 
L 43.40625 18.703125 
Q 41.21875 25.921875 38.328125 28.359375 
Q 35.453125 30.8125 29.5 30.8125 
L 18.609375 30.8125 
L 12.59375 0 
L 2.6875 0 
L 16.890625 72.90625 
L 39.109375 72.90625 
Q 49.21875 72.90625 54.609375 68.328125 
Q 60.015625 63.765625 60.015625 55.171875 
Q 60.015625 47.5625 55.421875 41.984375 
Q 50.828125 36.421875 43.3125 35.015625 
z
" id="DejaVuSans-Oblique-82"/>
      <path d="M 16.890625 72.90625 
L 58.6875 72.90625 
L 57.078125 64.59375 
L 25.09375 64.59375 
L 20.90625 43.109375 
L 49.8125 43.109375 
L 48.1875 34.8125 
L 19.28125 34.8125 
L 12.5 0 
L 2.6875 0 
z
" id="DejaVuSans-Oblique-70"/>
      <path d="M 15.484375 72.90625 
L 25.390625 72.90625 
L 16.796875 28.609375 
Q 16.265625 25.640625 16.046875 23.703125 
Q 15.828125 21.78125 15.828125 20.3125 
Q 15.828125 13.578125 19.578125 10.078125 
Q 23.34375 6.59375 30.609375 6.59375 
Q 40.046875 6.59375 45.28125 11.765625 
Q 50.53125 16.9375 52.78125 28.609375 
L 61.375 72.90625 
L 71.296875 72.90625 
L 62.5 27.390625 
Q 59.625 12.640625 51.5625 5.609375 
Q 43.5 -1.421875 29.5 -1.421875 
Q 18.5625 -1.421875 12.1875 4.078125 
Q 5.8125 9.578125 5.8125 19 
Q 5.8125 20.703125 6.046875 22.828125 
Q 6.296875 24.953125 6.78125 27.390625 
z
" id="DejaVuSans-Oblique-85"/>
      <path d="M 25.390625 72.90625 
L 33.6875 72.90625 
L 8.296875 -9.28125 
L 0 -9.28125 
z
" id="DejaVuSans-47"/>
      <path d="M 45.609375 66.21875 
Q 37.5 66.21875 31.296875 62.28125 
Q 25.09375 58.34375 20.515625 50.296875 
Q 17.578125 45.171875 16.03125 39.40625 
Q 14.5 33.640625 14.5 27.78125 
Q 14.5 17.625 19.359375 12.109375 
Q 24.21875 6.59375 33.109375 6.59375 
Q 41.109375 6.59375 47.375 10.5625 
Q 53.65625 14.546875 58.109375 22.40625 
Q 61.078125 27.6875 62.640625 33.46875 
Q 64.203125 39.265625 64.203125 45.015625 
Q 64.203125 55.125 59.3125 60.671875 
Q 54.4375 66.21875 45.609375 66.21875 
z
M 32.8125 -1.421875 
Q 19.390625 -1.421875 11.6875 6.53125 
Q 4 14.5 4 28.328125 
Q 4 36.234375 7 44.484375 
Q 10.015625 52.734375 15.28125 59.1875 
Q 21.484375 66.75 29.09375 70.484375 
Q 36.71875 74.21875 45.90625 74.21875 
Q 59.28125 74.21875 66.984375 66.328125 
Q 74.703125 58.453125 74.703125 44.828125 
Q 74.703125 36.421875 71.765625 28.3125 
Q 68.84375 20.21875 63.375 13.625 
Q 57.125 6 49.578125 2.28125 
Q 42.046875 -1.421875 32.8125 -1.421875 
z
" id="DejaVuSans-Oblique-79"/>
      <path d="M 16.890625 72.90625 
L 38.09375 72.90625 
Q 54.984375 72.90625 63.59375 65.75 
Q 72.21875 58.59375 72.21875 44.484375 
Q 72.21875 35.15625 68.9375 26.53125 
Q 65.671875 17.921875 59.90625 12.015625 
Q 54.109375 5.953125 45.171875 2.96875 
Q 36.234375 0 24.03125 0 
L 2.6875 0 
z
M 25.203125 64.796875 
L 14.203125 8.109375 
L 27.09375 8.109375 
Q 43.65625 8.109375 52.734375 17.625 
Q 61.8125 27.15625 61.8125 44.484375 
Q 61.8125 54.984375 55.953125 59.890625 
Q 50.09375 64.796875 37.59375 64.796875 
z
" id="DejaVuSans-Oblique-68"/>
      <path d="M 70.125 53.71875 
L 47.796875 31.296875 
L 70.125 8.984375 
L 64.3125 3.078125 
L 41.890625 25.484375 
L 19.484375 3.078125 
L 13.71875 8.984375 
L 35.984375 31.296875 
L 13.71875 53.71875 
L 19.484375 59.625 
L 41.890625 37.203125 
L 64.3125 59.625 
z
" id="DejaVuSans-215"/>
     </defs>
     <g transform="translate(55.888125 315.8488)rotate(-90)scale(0.2 -0.2)">
      <use transform="translate(0 0.684375)" xlink:href="#DejaVuSans-40"/>
      <use transform="translate(39.013672 0.684375)" xlink:href="#DejaVuSans-Oblique-82"/>
      <use transform="translate(108.496094 0.684375)" xlink:href="#DejaVuSans-Oblique-70"/>
      <use transform="translate(166.015625 0.684375)" xlink:href="#DejaVuSans-Oblique-85"/>
      <use transform="translate(239.208984 0.684375)" xlink:href="#DejaVuSans-47"/>
      <use transform="translate(272.900391 0.684375)" xlink:href="#DejaVuSans-Oblique-79"/>
      <use transform="translate(351.611328 0.684375)" xlink:href="#DejaVuSans-Oblique-68"/>
      <use transform="translate(428.613281 0.684375)" xlink:href="#DejaVuSans-41"/>
      <use transform="translate(487.109375 0.684375)" xlink:href="#DejaVuSans-215"/>
      <use transform="translate(590.380859 0.684375)" xlink:href="#DejaVuSans-49"/>
      <use transform="translate(654.003906 0.684375)" xlink:href="#DejaVuSans-48"/>
      <use transform="translate(718.583984 38.965625)scale(0.7)" xlink:href="#DejaVuSans-52"/>
     </g>
    </g>
   </g>
   <g id="line2d_48">
    <path clip-path="url(#p11263ca49f)" d="M 70.425212 392.732909 
L 319.775278 392.621748 
L 354.226743 392.381067 
L 376.427004 392.013118 
L 393.861519 391.507359 
L 409.258312 390.840364 
L 424.524511 389.953589 
L 443.442922 388.613828 
L 472.702686 386.542752 
L 488.067607 385.704274 
L 503.376352 385.094822 
L 520.43353 384.644747 
L 541.3684 384.325309 
L 550.350088 384.240602 
L 550.350088 384.240602 
" style="fill:none;stroke:#0099ff;stroke-linecap:square;stroke-width:1.5;"/>
   </g>
   <g id="line2d_49">
    <path clip-path="url(#p11263ca49f)" d="M 70.425212 400.613647 
L 287.838544 400.502255 
L 318.718617 400.263569 
L 337.808707 399.904985 
L 351.819282 399.427724 
L 362.96634 398.832136 
L 372.289797 398.116743 
L 380.351868 397.279803 
L 387.505548 396.317548 
L 393.977251 395.22606 
L 399.931693 393.999174 
L 405.493573 392.628223 
L 410.751038 391.104888 
L 415.783976 389.416217 
L 420.663632 387.544756 
L 425.445818 385.472464 
L 430.197829 383.170329 
L 434.994537 380.59787 
L 439.918589 377.702408 
L 445.104892 374.390947 
L 450.781432 370.496298 
L 457.498976 365.605606 
L 469.068975 356.847183 
L 478.076915 350.163687 
L 484.321644 345.804114 
L 489.782401 342.258488 
L 494.863727 339.221194 
L 499.748542 336.558359 
L 504.546781 334.194737 
L 509.337945 332.081867 
L 514.189596 330.185334 
L 519.163974 328.480134 
L 524.324168 326.947385 
L 529.740382 325.572184 
L 535.493408 324.343053 
L 541.682979 323.250782 
L 548.437133 322.28807 
L 550.350088 322.052945 
L 550.350088 322.052945 
" style="fill:none;stroke:#3372cc;stroke-linecap:square;stroke-width:1.5;"/>
   </g>
   <g id="line2d_50">
    <path clip-path="url(#p11263ca49f)" d="M 70.425212 400.310178 
L 321.465887 400.199215 
L 340.938189 399.961095 
L 352.931541 399.603925 
L 361.714487 399.128447 
L 368.663532 398.536658 
L 374.452035 397.826259 
L 379.435626 396.994946 
L 383.817527 396.042789 
L 387.755176 394.963436 
L 391.3499 393.750764 
L 394.678429 392.395727 
L 397.800297 390.886141 
L 400.751438 389.213396 
L 403.581998 387.35325 
L 406.312426 385.292014 
L 408.96902 383.007022 
L 411.582113 380.464168 
L 414.167794 377.635206 
L 416.754886 374.470911 
L 419.358628 370.929669 
L 421.997702 366.960065 
L 424.706182 362.478733 
L 427.522013 357.382189 
L 430.495933 351.529415 
L 433.706993 344.706161 
L 437.315056 336.499431 
L 441.758049 325.808179 
L 456.120935 290.802319 
L 459.718797 282.884098 
L 462.933967 276.33266 
L 465.925108 270.732134 
L 468.767785 265.872664 
L 471.514634 261.610004 
L 474.19849 257.849347 
L 476.84811 254.514364 
L 479.486531 251.546929 
L 482.135943 248.898814 
L 484.817268 246.531077 
L 487.553316 244.410329 
L 490.369054 242.508572 
L 493.291396 240.803126 
L 496.354475 239.27367 
L 499.59666 237.90461 
L 503.067605 236.682373 
L 506.8269 235.597074 
L 510.954041 234.640453 
L 515.556124 233.806202 
L 520.784162 233.08953 
L 526.86481 232.486621 
L 534.157822 231.994672 
L 543.292443 231.611285 
L 550.350088 231.427736 
L 550.350088 231.427736 
" style="fill:none;stroke:#674c9a;stroke-linecap:square;stroke-width:1.5;"/>
   </g>
   <g id="line2d_51">
    <path clip-path="url(#p11263ca49f)" d="M 70.425212 400.075953 
L 204.69796 399.963434 
L 233.928371 399.72453 
L 252.130557 399.363235 
L 265.249362 398.890667 
L 275.669031 398.302011 
L 284.335664 397.596965 
L 291.7709 396.774947 
L 298.293108 395.835297 
L 304.110966 394.777395 
L 309.368707 393.600741 
L 314.239336 392.284617 
L 318.718617 390.846362 
L 322.926027 389.262926 
L 326.896084 387.530664 
L 330.656939 385.646506 
L 334.23187 383.608004 
L 337.682495 381.3846 
L 341.016784 378.971482 
L 344.278668 376.333647 
L 347.467701 373.46504 
L 350.584128 370.36124 
L 353.658805 366.985007 
L 356.715561 363.297147 
L 359.772434 359.257468 
L 362.842633 354.825936 
L 365.912106 350.002084 
L 369.034554 344.675121 
L 372.208541 338.813053 
L 375.449806 332.352687 
L 378.785322 325.201852 
L 382.248152 317.24514 
L 385.888209 308.315595 
L 389.776449 298.177094 
L 394.041425 286.418308 
L 398.92428 272.278936 
L 405.210693 253.344202 
L 420.318638 207.57475 
L 425.280238 193.423252 
L 429.589878 181.786845 
L 433.523355 171.792782 
L 437.212007 163.016991 
L 440.725267 155.22315 
L 444.107585 148.252362 
L 447.393672 141.98145 
L 450.610676 136.314774 
L 453.776106 131.183303 
L 456.910369 126.520872 
L 460.025773 122.28058 
L 463.140353 118.413414 
L 466.264418 114.885816 
L 469.415347 111.660747 
L 472.607459 108.709783 
L 475.856662 106.007397 
L 479.181141 103.530619 
L 482.601416 101.259279 
L 486.139863 99.176397 
L 489.823211 97.266782 
L 493.679996 95.518612 
L 497.748019 93.920209 
L 502.068767 92.463189 
L 506.69612 91.139666 
L 511.695836 89.943626 
L 517.152462 88.870139 
L 523.176942 87.915329 
L 529.920869 87.076043 
L 537.598702 86.349809 
L 546.529058 85.734658 
L 550.350088 85.52952 
L 550.350088 85.52952 
" style="fill:none;stroke:#9a2667;stroke-linecap:square;stroke-width:1.5;"/>
   </g>
   <g id="line2d_52">
    <path clip-path="url(#p11263ca49f)" d="M 70.425212 405.064026 
L 189.168067 404.951863 
L 216.375468 404.711327 
L 233.170077 404.3504 
L 245.250033 403.88052 
L 254.867887 403.294947 
L 262.859323 402.59523 
L 269.695659 401.783108 
L 275.824672 400.833331 
L 281.251053 399.769175 
L 286.11946 398.59316 
L 290.647805 397.271788 
L 294.780953 395.838456 
L 298.678414 394.254506 
L 302.368402 392.515109 
L 305.874217 390.616029 
L 309.215333 388.553682 
L 312.408198 386.325198 
L 315.534105 383.87269 
L 318.592741 381.187199 
L 321.584368 378.261176 
L 324.509692 375.088697 
L 327.422087 371.59992 
L 330.313692 367.786144 
L 333.224457 363.571699 
L 336.141143 358.948809 
L 339.052673 353.914912 
L 342.026824 348.322763 
L 345.042199 342.174926 
L 348.148149 335.330182 
L 351.348025 327.733412 
L 354.699784 319.1925 
L 358.241348 309.545576 
L 362.043163 298.531087 
L 366.28218 285.546667 
L 371.284683 269.473459 
L 378.679021 244.869167 
L 387.842966 214.53167 
L 392.833331 198.793301 
L 397.059962 186.179209 
L 400.873741 175.480089 
L 404.434253 166.141305 
L 407.803458 157.916381 
L 411.047606 150.574139 
L 414.192952 143.998375 
L 417.260494 138.093207 
L 420.274415 132.766725 
L 423.253715 127.947216 
L 426.213137 123.578141 
L 429.163903 119.614203 
L 432.120039 116.011639 
L 435.097124 112.730949 
L 438.111243 109.738187 
L 441.173358 107.009258 
L 444.303403 104.516262 
L 447.522484 102.236102 
L 450.847241 100.153315 
L 454.307697 98.248293 
L 457.930686 96.508553 
L 461.750234 94.922421 
L 465.809582 93.479337 
L 470.157247 92.171977 
L 474.858016 90.993261 
L 479.995362 89.937519 
L 485.676504 89.000806 
L 492.051001 88.179616 
L 499.330387 87.471403 
L 507.8313 86.874179 
L 518.062228 86.386193 
L 530.916088 86.005763 
L 548.18133 85.730938 
L 550.350088 85.708442 
L 550.350088 85.708442 
" style="fill:none;stroke:#ce0035;stroke-linecap:square;stroke-width:1.5;"/>
   </g>
   <g id="line2d_53">
    <defs>
     <path d="M 0 3 
C 0.795609 3 1.55874 2.683901 2.12132 2.12132 
C 2.683901 1.55874 3 0.795609 3 0 
C 3 -0.795609 2.683901 -1.55874 2.12132 -2.12132 
C 1.55874 -2.683901 0.795609 -3 0 -3 
C -0.795609 -3 -1.55874 -2.683901 -2.12132 -2.12132 
C -2.683901 -1.55874 -3 -0.795609 -3 0 
C -3 0.795609 -2.683901 1.55874 -2.12132 2.12132 
C -1.55874 2.683901 -0.795609 3 0 3 
z
" id="mddf64aa711" style="stroke:#0099ff;"/>
    </defs>
    <g clip-path="url(#p11263ca49f)">
     <use style="fill:#0099ff;stroke:#0099ff;" x="-1" xlink:href="#mddf64aa711" y="393.000789"/>
     <use style="fill:#0099ff;stroke:#0099ff;" x="179.549735" xlink:href="#mddf64aa711" y="392.999805"/>
     <use style="fill:#0099ff;stroke:#0099ff;" x="222.974956" xlink:href="#mddf64aa711" y="392.852487"/>
     <use style="fill:#0099ff;stroke:#0099ff;" x="255.824867" xlink:href="#mddf64aa711" y="392.778229"/>
     <use style="fill:#0099ff;stroke:#0099ff;" x="288.674779" xlink:href="#mddf64aa711" y="392.611866"/>
     <use style="fill:#0099ff;stroke:#0099ff;" x="332.1" xlink:href="#mddf64aa711" y="392.153527"/>
     <use style="fill:#0099ff;stroke:#0099ff;" x="364.949912" xlink:href="#mddf64aa711" y="391.981602"/>
     <use style="fill:#0099ff;stroke:#0099ff;" x="397.799823" xlink:href="#mddf64aa711" y="391.445639"/>
     <use style="fill:#0099ff;stroke:#0099ff;" x="441.225044" xlink:href="#mddf64aa711" y="389.217381"/>
     <use style="fill:#0099ff;stroke:#0099ff;" x="474.074956" xlink:href="#mddf64aa711" y="385.46978"/>
     <use style="fill:#0099ff;stroke:#0099ff;" x="506.924867" xlink:href="#mddf64aa711" y="385.135026"/>
     <use style="fill:#0099ff;stroke:#0099ff;" x="550.350088" xlink:href="#mddf64aa711" y="383.747278"/>
    </g>
   </g>
   <g id="line2d_54">
    <g clip-path="url(#p11263ca49f)">
     <use style="fill:#0099ff;stroke:#0099ff;" x="-1" xlink:href="#mddf64aa711" y="392.889748"/>
     <use style="fill:#0099ff;stroke:#0099ff;" x="179.549735" xlink:href="#mddf64aa711" y="392.889915"/>
     <use style="fill:#0099ff;stroke:#0099ff;" x="222.974956" xlink:href="#mddf64aa711" y="392.558249"/>
     <use style="fill:#0099ff;stroke:#0099ff;" x="255.824867" xlink:href="#mddf64aa711" y="392.525445"/>
     <use style="fill:#0099ff;stroke:#0099ff;" x="288.674779" xlink:href="#mddf64aa711" y="392.233238"/>
     <use style="fill:#0099ff;stroke:#0099ff;" x="332.1" xlink:href="#mddf64aa711" y="392.066953"/>
     <use style="fill:#0099ff;stroke:#0099ff;" x="364.949912" xlink:href="#mddf64aa711" y="391.689365"/>
     <use style="fill:#0099ff;stroke:#0099ff;" x="397.799823" xlink:href="#mddf64aa711" y="391.121529"/>
     <use style="fill:#0099ff;stroke:#0099ff;" x="441.225044" xlink:href="#mddf64aa711" y="388.954868"/>
     <use style="fill:#0099ff;stroke:#0099ff;" x="474.074956" xlink:href="#mddf64aa711" y="385.329365"/>
     <use style="fill:#0099ff;stroke:#0099ff;" x="506.924867" xlink:href="#mddf64aa711" y="384.981632"/>
     <use style="fill:#0099ff;stroke:#0099ff;" x="550.350088" xlink:href="#mddf64aa711" y="384.145487"/>
    </g>
   </g>
   <g id="line2d_55">
    <g clip-path="url(#p11263ca49f)">
     <use style="fill:#0099ff;stroke:#0099ff;" x="-1" xlink:href="#mddf64aa711" y="393.128987"/>
     <use style="fill:#0099ff;stroke:#0099ff;" x="179.549735" xlink:href="#mddf64aa711" y="393.129433"/>
     <use style="fill:#0099ff;stroke:#0099ff;" x="222.974956" xlink:href="#mddf64aa711" y="393.047398"/>
     <use style="fill:#0099ff;stroke:#0099ff;" x="255.824867" xlink:href="#mddf64aa711" y="392.811305"/>
     <use style="fill:#0099ff;stroke:#0099ff;" x="288.674779" xlink:href="#mddf64aa711" y="392.592492"/>
     <use style="fill:#0099ff;stroke:#0099ff;" x="332.1" xlink:href="#mddf64aa711" y="392.374836"/>
     <use style="fill:#0099ff;stroke:#0099ff;" x="364.949912" xlink:href="#mddf64aa711" y="392.281148"/>
     <use style="fill:#0099ff;stroke:#0099ff;" x="397.799823" xlink:href="#mddf64aa711" y="391.463738"/>
     <use style="fill:#0099ff;stroke:#0099ff;" x="441.225044" xlink:href="#mddf64aa711" y="389.692313"/>
     <use style="fill:#0099ff;stroke:#0099ff;" x="474.074956" xlink:href="#mddf64aa711" y="386.361752"/>
     <use style="fill:#0099ff;stroke:#0099ff;" x="506.924867" xlink:href="#mddf64aa711" y="386.321602"/>
     <use style="fill:#0099ff;stroke:#0099ff;" x="550.350088" xlink:href="#mddf64aa711" y="384.471677"/>
    </g>
   </g>
   <g id="line2d_56">
    <defs>
     <path d="M 0 3 
C 0.795609 3 1.55874 2.683901 2.12132 2.12132 
C 2.683901 1.55874 3 0.795609 3 0 
C 3 -0.795609 2.683901 -1.55874 2.12132 -2.12132 
C 1.55874 -2.683901 0.795609 -3 0 -3 
C -0.795609 -3 -1.55874 -2.683901 -2.12132 -2.12132 
C -2.683901 -1.55874 -3 -0.795609 -3 0 
C -3 0.795609 -2.683901 1.55874 -2.12132 2.12132 
C -1.55874 2.683901 -0.795609 3 0 3 
z
" id="ma8ee394fa3" style="stroke:#3372cc;"/>
    </defs>
    <g clip-path="url(#p11263ca49f)">
     <use style="fill:#3372cc;stroke:#3372cc;" x="-1" xlink:href="#ma8ee394fa3" y="400.486978"/>
     <use style="fill:#3372cc;stroke:#3372cc;" x="179.549735" xlink:href="#ma8ee394fa3" y="400.486956"/>
     <use style="fill:#3372cc;stroke:#3372cc;" x="222.974956" xlink:href="#ma8ee394fa3" y="400.552672"/>
     <use style="fill:#3372cc;stroke:#3372cc;" x="255.824867" xlink:href="#ma8ee394fa3" y="400.450878"/>
     <use style="fill:#3372cc;stroke:#3372cc;" x="288.674779" xlink:href="#ma8ee394fa3" y="400.160284"/>
     <use style="fill:#3372cc;stroke:#3372cc;" x="332.1" xlink:href="#ma8ee394fa3" y="399.443268"/>
     <use style="fill:#3372cc;stroke:#3372cc;" x="364.949912" xlink:href="#ma8ee394fa3" y="398.177663"/>
     <use style="fill:#3372cc;stroke:#3372cc;" x="397.799823" xlink:href="#ma8ee394fa3" y="394.693514"/>
     <use style="fill:#3372cc;stroke:#3372cc;" x="441.225044" xlink:href="#ma8ee394fa3" y="379.4432"/>
     <use style="fill:#3372cc;stroke:#3372cc;" x="474.074956" xlink:href="#ma8ee394fa3" y="346.279484"/>
     <use style="fill:#3372cc;stroke:#3372cc;" x="506.924867" xlink:href="#ma8ee394fa3" y="339.485556"/>
     <use style="fill:#3372cc;stroke:#3372cc;" x="550.350088" xlink:href="#ma8ee394fa3" y="315.025565"/>
    </g>
   </g>
   <g id="line2d_57">
    <g clip-path="url(#p11263ca49f)">
     <use style="fill:#3372cc;stroke:#3372cc;" x="-1" xlink:href="#ma8ee394fa3" y="400.537134"/>
     <use style="fill:#3372cc;stroke:#3372cc;" x="179.549735" xlink:href="#ma8ee394fa3" y="400.536879"/>
     <use style="fill:#3372cc;stroke:#3372cc;" x="222.974956" xlink:href="#ma8ee394fa3" y="400.355984"/>
     <use style="fill:#3372cc;stroke:#3372cc;" x="255.824867" xlink:href="#ma8ee394fa3" y="400.37089"/>
     <use style="fill:#3372cc;stroke:#3372cc;" x="288.674779" xlink:href="#ma8ee394fa3" y="400.080562"/>
     <use style="fill:#3372cc;stroke:#3372cc;" x="332.1" xlink:href="#ma8ee394fa3" y="399.399268"/>
     <use style="fill:#3372cc;stroke:#3372cc;" x="364.949912" xlink:href="#ma8ee394fa3" y="398.131014"/>
     <use style="fill:#3372cc;stroke:#3372cc;" x="397.799823" xlink:href="#ma8ee394fa3" y="394.480207"/>
     <use style="fill:#3372cc;stroke:#3372cc;" x="441.225044" xlink:href="#ma8ee394fa3" y="379.022308"/>
     <use style="fill:#3372cc;stroke:#3372cc;" x="474.074956" xlink:href="#ma8ee394fa3" y="345.651419"/>
     <use style="fill:#3372cc;stroke:#3372cc;" x="506.924867" xlink:href="#ma8ee394fa3" y="335.206775"/>
     <use style="fill:#3372cc;stroke:#3372cc;" x="550.350088" xlink:href="#ma8ee394fa3" y="316.52831"/>
    </g>
   </g>
   <g id="line2d_58">
    <g clip-path="url(#p11263ca49f)">
     <use style="fill:#3372cc;stroke:#3372cc;" x="-1" xlink:href="#ma8ee394fa3" y="400.855969"/>
     <use style="fill:#3372cc;stroke:#3372cc;" x="179.549735" xlink:href="#ma8ee394fa3" y="400.855594"/>
     <use style="fill:#3372cc;stroke:#3372cc;" x="222.974956" xlink:href="#ma8ee394fa3" y="400.76409"/>
     <use style="fill:#3372cc;stroke:#3372cc;" x="255.824867" xlink:href="#ma8ee394fa3" y="400.667856"/>
     <use style="fill:#3372cc;stroke:#3372cc;" x="288.674779" xlink:href="#ma8ee394fa3" y="400.382426"/>
     <use style="fill:#3372cc;stroke:#3372cc;" x="332.1" xlink:href="#ma8ee394fa3" y="399.989796"/>
     <use style="fill:#3372cc;stroke:#3372cc;" x="364.949912" xlink:href="#ma8ee394fa3" y="398.788026"/>
     <use style="fill:#3372cc;stroke:#3372cc;" x="397.799823" xlink:href="#ma8ee394fa3" y="395.414287"/>
     <use style="fill:#3372cc;stroke:#3372cc;" x="441.225044" xlink:href="#ma8ee394fa3" y="381.01735"/>
     <use style="fill:#3372cc;stroke:#3372cc;" x="474.074956" xlink:href="#ma8ee394fa3" y="350.328089"/>
     <use style="fill:#3372cc;stroke:#3372cc;" x="506.924867" xlink:href="#ma8ee394fa3" y="342.493583"/>
     <use style="fill:#3372cc;stroke:#3372cc;" x="550.350088" xlink:href="#ma8ee394fa3" y="326.852025"/>
    </g>
   </g>
   <g id="line2d_59">
    <defs>
     <path d="M 0 3 
C 0.795609 3 1.55874 2.683901 2.12132 2.12132 
C 2.683901 1.55874 3 0.795609 3 0 
C 3 -0.795609 2.683901 -1.55874 2.12132 -2.12132 
C 1.55874 -2.683901 0.795609 -3 0 -3 
C -0.795609 -3 -1.55874 -2.683901 -2.12132 -2.12132 
C -2.683901 -1.55874 -3 -0.795609 -3 0 
C -3 0.795609 -2.683901 1.55874 -2.12132 2.12132 
C -1.55874 2.683901 -0.795609 3 0 3 
z
" id="m3a2fedba8c" style="stroke:#674c9a;"/>
    </defs>
    <g clip-path="url(#p11263ca49f)">
     <use style="fill:#674c9a;stroke:#674c9a;" x="-1" xlink:href="#m3a2fedba8c" y="401.851675"/>
     <use style="fill:#674c9a;stroke:#674c9a;" x="179.549735" xlink:href="#m3a2fedba8c" y="401.851684"/>
     <use style="fill:#674c9a;stroke:#674c9a;" x="222.974956" xlink:href="#m3a2fedba8c" y="401.700294"/>
     <use style="fill:#674c9a;stroke:#674c9a;" x="255.824867" xlink:href="#m3a2fedba8c" y="401.505038"/>
     <use style="fill:#674c9a;stroke:#674c9a;" x="288.674779" xlink:href="#m3a2fedba8c" y="401.013577"/>
     <use style="fill:#674c9a;stroke:#674c9a;" x="332.1" xlink:href="#m3a2fedba8c" y="399.540661"/>
     <use style="fill:#674c9a;stroke:#674c9a;" x="364.949912" xlink:href="#m3a2fedba8c" y="395.857755"/>
     <use style="fill:#674c9a;stroke:#674c9a;" x="397.799823" xlink:href="#m3a2fedba8c" y="382.602124"/>
     <use style="fill:#674c9a;stroke:#674c9a;" x="441.225044" xlink:href="#m3a2fedba8c" y="325.238846"/>
     <use style="fill:#674c9a;stroke:#674c9a;" x="474.074956" xlink:href="#m3a2fedba8c" y="242.436717"/>
     <use style="fill:#674c9a;stroke:#674c9a;" x="506.924867" xlink:href="#m3a2fedba8c" y="235.628391"/>
     <use style="fill:#674c9a;stroke:#674c9a;" x="550.350088" xlink:href="#m3a2fedba8c" y="223.150093"/>
    </g>
   </g>
   <g id="line2d_60">
    <g clip-path="url(#p11263ca49f)">
     <use style="fill:#674c9a;stroke:#674c9a;" x="-1" xlink:href="#m3a2fedba8c" y="401.902978"/>
     <use style="fill:#674c9a;stroke:#674c9a;" x="179.549735" xlink:href="#m3a2fedba8c" y="401.902786"/>
     <use style="fill:#674c9a;stroke:#674c9a;" x="222.974956" xlink:href="#m3a2fedba8c" y="401.735345"/>
     <use style="fill:#674c9a;stroke:#674c9a;" x="255.824867" xlink:href="#m3a2fedba8c" y="401.496018"/>
     <use style="fill:#674c9a;stroke:#674c9a;" x="288.674779" xlink:href="#m3a2fedba8c" y="401.266594"/>
     <use style="fill:#674c9a;stroke:#674c9a;" x="332.1" xlink:href="#m3a2fedba8c" y="399.854171"/>
     <use style="fill:#674c9a;stroke:#674c9a;" x="364.949912" xlink:href="#m3a2fedba8c" y="396.601785"/>
     <use style="fill:#674c9a;stroke:#674c9a;" x="397.799823" xlink:href="#m3a2fedba8c" y="385.620261"/>
     <use style="fill:#674c9a;stroke:#674c9a;" x="441.225044" xlink:href="#m3a2fedba8c" y="332.042293"/>
     <use style="fill:#674c9a;stroke:#674c9a;" x="474.074956" xlink:href="#m3a2fedba8c" y="250.705168"/>
     <use style="fill:#674c9a;stroke:#674c9a;" x="506.924867" xlink:href="#m3a2fedba8c" y="249.68216"/>
     <use style="fill:#674c9a;stroke:#674c9a;" x="550.350088" xlink:href="#m3a2fedba8c" y="239.336895"/>
    </g>
   </g>
   <g id="line2d_61">
    <g clip-path="url(#p11263ca49f)">
     <use style="fill:#674c9a;stroke:#674c9a;" x="-1" xlink:href="#m3a2fedba8c" y="402.149796"/>
     <use style="fill:#674c9a;stroke:#674c9a;" x="179.549735" xlink:href="#m3a2fedba8c" y="402.149528"/>
     <use style="fill:#674c9a;stroke:#674c9a;" x="222.974956" xlink:href="#m3a2fedba8c" y="402.104759"/>
     <use style="fill:#674c9a;stroke:#674c9a;" x="255.824867" xlink:href="#m3a2fedba8c" y="401.840099"/>
     <use style="fill:#674c9a;stroke:#674c9a;" x="288.674779" xlink:href="#m3a2fedba8c" y="401.404908"/>
     <use style="fill:#674c9a;stroke:#674c9a;" x="332.1" xlink:href="#m3a2fedba8c" y="400.024748"/>
     <use style="fill:#674c9a;stroke:#674c9a;" x="364.949912" xlink:href="#m3a2fedba8c" y="396.907268"/>
     <use style="fill:#674c9a;stroke:#674c9a;" x="397.799823" xlink:href="#m3a2fedba8c" y="385.228292"/>
     <use style="fill:#674c9a;stroke:#674c9a;" x="441.225044" xlink:href="#m3a2fedba8c" y="336.834345"/>
     <use style="fill:#674c9a;stroke:#674c9a;" x="474.074956" xlink:href="#m3a2fedba8c" y="260.891413"/>
     <use style="fill:#674c9a;stroke:#674c9a;" x="506.924867" xlink:href="#m3a2fedba8c" y="246.149374"/>
     <use style="fill:#674c9a;stroke:#674c9a;" x="550.350088" xlink:href="#m3a2fedba8c" y="220.117233"/>
    </g>
   </g>
   <g id="line2d_62">
    <defs>
     <path d="M 0 3 
C 0.795609 3 1.55874 2.683901 2.12132 2.12132 
C 2.683901 1.55874 3 0.795609 3 0 
C 3 -0.795609 2.683901 -1.55874 2.12132 -2.12132 
C 1.55874 -2.683901 0.795609 -3 0 -3 
C -0.795609 -3 -1.55874 -2.683901 -2.12132 -2.12132 
C -2.683901 -1.55874 -3 -0.795609 -3 0 
C -3 0.795609 -2.683901 1.55874 -2.12132 2.12132 
C -1.55874 2.683901 -0.795609 3 0 3 
z
" id="m39208231c3" style="stroke:#9a2667;"/>
    </defs>
    <g clip-path="url(#p11263ca49f)">
     <use style="fill:#9a2667;stroke:#9a2667;" x="-1" xlink:href="#m39208231c3" y="400.773742"/>
     <use style="fill:#9a2667;stroke:#9a2667;" x="179.549735" xlink:href="#m39208231c3" y="400.773354"/>
     <use style="fill:#9a2667;stroke:#9a2667;" x="222.974956" xlink:href="#m39208231c3" y="400.114467"/>
     <use style="fill:#9a2667;stroke:#9a2667;" x="255.824867" xlink:href="#m39208231c3" y="399.077435"/>
     <use style="fill:#9a2667;stroke:#9a2667;" x="288.674779" xlink:href="#m39208231c3" y="395.969768"/>
     <use style="fill:#9a2667;stroke:#9a2667;" x="332.1" xlink:href="#m39208231c3" y="382.540998"/>
     <use style="fill:#9a2667;stroke:#9a2667;" x="364.949912" xlink:href="#m39208231c3" y="347.771536"/>
     <use style="fill:#9a2667;stroke:#9a2667;" x="397.799823" xlink:href="#m39208231c3" y="266.676885"/>
     <use style="fill:#9a2667;stroke:#9a2667;" x="441.225044" xlink:href="#m39208231c3" y="153.773226"/>
     <use style="fill:#9a2667;stroke:#9a2667;" x="474.074956" xlink:href="#m39208231c3" y="84.621109"/>
     <use style="fill:#9a2667;stroke:#9a2667;" x="506.924867" xlink:href="#m39208231c3" y="77.263636"/>
     <use style="fill:#9a2667;stroke:#9a2667;" x="550.350088" xlink:href="#m39208231c3" y="73.4328"/>
    </g>
   </g>
   <g id="line2d_63">
    <g clip-path="url(#p11263ca49f)">
     <use style="fill:#9a2667;stroke:#9a2667;" x="-1" xlink:href="#m39208231c3" y="401.016638"/>
     <use style="fill:#9a2667;stroke:#9a2667;" x="179.549735" xlink:href="#m39208231c3" y="401.015962"/>
     <use style="fill:#9a2667;stroke:#9a2667;" x="222.974956" xlink:href="#m39208231c3" y="400.358178"/>
     <use style="fill:#9a2667;stroke:#9a2667;" x="255.824867" xlink:href="#m39208231c3" y="399.402586"/>
     <use style="fill:#9a2667;stroke:#9a2667;" x="288.674779" xlink:href="#m39208231c3" y="396.435416"/>
     <use style="fill:#9a2667;stroke:#9a2667;" x="332.1" xlink:href="#m39208231c3" y="383.716936"/>
     <use style="fill:#9a2667;stroke:#9a2667;" x="364.949912" xlink:href="#m39208231c3" y="351.880705"/>
     <use style="fill:#9a2667;stroke:#9a2667;" x="397.799823" xlink:href="#m39208231c3" y="278.691703"/>
     <use style="fill:#9a2667;stroke:#9a2667;" x="441.225044" xlink:href="#m39208231c3" y="162.607879"/>
     <use style="fill:#9a2667;stroke:#9a2667;" x="474.074956" xlink:href="#m39208231c3" y="103.26941"/>
     <use style="fill:#9a2667;stroke:#9a2667;" x="506.924867" xlink:href="#m39208231c3" y="98.294897"/>
     <use style="fill:#9a2667;stroke:#9a2667;" x="550.350088" xlink:href="#m39208231c3" y="93.49285"/>
    </g>
   </g>
   <g id="line2d_64">
    <g clip-path="url(#p11263ca49f)">
     <use style="fill:#9a2667;stroke:#9a2667;" x="-1" xlink:href="#m39208231c3" y="401.090137"/>
     <use style="fill:#9a2667;stroke:#9a2667;" x="179.549735" xlink:href="#m39208231c3" y="401.089616"/>
     <use style="fill:#9a2667;stroke:#9a2667;" x="222.974956" xlink:href="#m39208231c3" y="400.353749"/>
     <use style="fill:#9a2667;stroke:#9a2667;" x="255.824867" xlink:href="#m39208231c3" y="399.556846"/>
     <use style="fill:#9a2667;stroke:#9a2667;" x="288.674779" xlink:href="#m39208231c3" y="396.616522"/>
     <use style="fill:#9a2667;stroke:#9a2667;" x="332.1" xlink:href="#m39208231c3" y="384.863629"/>
     <use style="fill:#9a2667;stroke:#9a2667;" x="364.949912" xlink:href="#m39208231c3" y="350.892138"/>
     <use style="fill:#9a2667;stroke:#9a2667;" x="397.799823" xlink:href="#m39208231c3" y="280.890633"/>
     <use style="fill:#9a2667;stroke:#9a2667;" x="441.225044" xlink:href="#m39208231c3" y="164.035609"/>
     <use style="fill:#9a2667;stroke:#9a2667;" x="474.074956" xlink:href="#m39208231c3" y="99.169193"/>
     <use style="fill:#9a2667;stroke:#9a2667;" x="506.924867" xlink:href="#m39208231c3" y="101.619752"/>
     <use style="fill:#9a2667;stroke:#9a2667;" x="550.350088" xlink:href="#m39208231c3" y="105.635661"/>
    </g>
   </g>
   <g id="line2d_65">
    <defs>
     <path d="M 0 3 
C 0.795609 3 1.55874 2.683901 2.12132 2.12132 
C 2.683901 1.55874 3 0.795609 3 0 
C 3 -0.795609 2.683901 -1.55874 2.12132 -2.12132 
C 1.55874 -2.683901 0.795609 -3 0 -3 
C -0.795609 -3 -1.55874 -2.683901 -2.12132 -2.12132 
C -2.683901 -1.55874 -3 -0.795609 -3 0 
C -3 0.795609 -2.683901 1.55874 -2.12132 2.12132 
C -1.55874 2.683901 -0.795609 3 0 3 
z
" id="mdf67cdca86" style="stroke:#ce0035;"/>
    </defs>
    <g clip-path="url(#p11263ca49f)">
     <use style="fill:#ce0035;stroke:#ce0035;" x="-1" xlink:href="#mdf67cdca86" y="404.910537"/>
     <use style="fill:#ce0035;stroke:#ce0035;" x="179.549735" xlink:href="#mdf67cdca86" y="404.910865"/>
     <use style="fill:#ce0035;stroke:#ce0035;" x="222.974956" xlink:href="#mdf67cdca86" y="404.616776"/>
     <use style="fill:#ce0035;stroke:#ce0035;" x="255.824867" xlink:href="#mdf67cdca86" y="404.080138"/>
     <use style="fill:#ce0035;stroke:#ce0035;" x="288.674779" xlink:href="#mdf67cdca86" y="399.565311"/>
     <use style="fill:#ce0035;stroke:#ce0035;" x="332.1" xlink:href="#mdf67cdca86" y="366.959338"/>
     <use style="fill:#ce0035;stroke:#ce0035;" x="364.949912" xlink:href="#mdf67cdca86" y="296.543435"/>
     <use style="fill:#ce0035;stroke:#ce0035;" x="397.799823" xlink:href="#mdf67cdca86" y="193.994264"/>
     <use style="fill:#ce0035;stroke:#ce0035;" x="441.225044" xlink:href="#mdf67cdca86" y="106.36304"/>
     <use style="fill:#ce0035;stroke:#ce0035;" x="474.074956" xlink:href="#mdf67cdca86" y="83.738949"/>
     <use style="fill:#ce0035;stroke:#ce0035;" x="506.924867" xlink:href="#mdf67cdca86" y="87.291626"/>
     <use style="fill:#ce0035;stroke:#ce0035;" x="550.350088" xlink:href="#mdf67cdca86" y="94.645117"/>
    </g>
   </g>
   <g id="line2d_66">
    <g clip-path="url(#p11263ca49f)">
     <use style="fill:#ce0035;stroke:#ce0035;" x="-1" xlink:href="#mdf67cdca86" y="404.984128"/>
     <use style="fill:#ce0035;stroke:#ce0035;" x="179.549735" xlink:href="#mdf67cdca86" y="404.984197"/>
     <use style="fill:#ce0035;stroke:#ce0035;" x="222.974956" xlink:href="#mdf67cdca86" y="404.568424"/>
     <use style="fill:#ce0035;stroke:#ce0035;" x="255.824867" xlink:href="#mdf67cdca86" y="403.919589"/>
     <use style="fill:#ce0035;stroke:#ce0035;" x="288.674779" xlink:href="#mdf67cdca86" y="399.052904"/>
     <use style="fill:#ce0035;stroke:#ce0035;" x="332.1" xlink:href="#mdf67cdca86" y="358.161261"/>
     <use style="fill:#ce0035;stroke:#ce0035;" x="364.949912" xlink:href="#mdf67cdca86" y="281.919148"/>
     <use style="fill:#ce0035;stroke:#ce0035;" x="397.799823" xlink:href="#mdf67cdca86" y="174.384112"/>
     <use style="fill:#ce0035;stroke:#ce0035;" x="441.225044" xlink:href="#mdf67cdca86" y="96.883227"/>
     <use style="fill:#ce0035;stroke:#ce0035;" x="474.074956" xlink:href="#mdf67cdca86" y="76.735819"/>
     <use style="fill:#ce0035;stroke:#ce0035;" x="506.924867" xlink:href="#mdf67cdca86" y="83.903862"/>
     <use style="fill:#ce0035;stroke:#ce0035;" x="550.350088" xlink:href="#mdf67cdca86" y="86.336323"/>
    </g>
   </g>
   <g id="line2d_67">
    <g clip-path="url(#p11263ca49f)">
     <use style="fill:#ce0035;stroke:#ce0035;" x="-1" xlink:href="#mdf67cdca86" y="404.979774"/>
     <use style="fill:#ce0035;stroke:#ce0035;" x="179.549735" xlink:href="#mdf67cdca86" y="404.98005"/>
     <use style="fill:#ce0035;stroke:#ce0035;" x="222.974956" xlink:href="#mdf67cdca86" y="404.827936"/>
     <use style="fill:#ce0035;stroke:#ce0035;" x="255.824867" xlink:href="#mdf67cdca86" y="404.179634"/>
     <use style="fill:#ce0035;stroke:#ce0035;" x="288.674779" xlink:href="#mdf67cdca86" y="399.559622"/>
     <use style="fill:#ce0035;stroke:#ce0035;" x="332.1" xlink:href="#mdf67cdca86" y="360.820725"/>
     <use style="fill:#ce0035;stroke:#ce0035;" x="364.949912" xlink:href="#mdf67cdca86" y="292.448781"/>
     <use style="fill:#ce0035;stroke:#ce0035;" x="397.799823" xlink:href="#mdf67cdca86" y="189.844085"/>
     <use style="fill:#ce0035;stroke:#ce0035;" x="441.225044" xlink:href="#mdf67cdca86" y="111.44675"/>
     <use style="fill:#ce0035;stroke:#ce0035;" x="474.074956" xlink:href="#mdf67cdca86" y="90.147381"/>
     <use style="fill:#ce0035;stroke:#ce0035;" x="506.924867" xlink:href="#mdf67cdca86" y="92.950028"/>
     <use style="fill:#ce0035;stroke:#ce0035;" x="550.350088" xlink:href="#mdf67cdca86" y="97.343569"/>
    </g>
   </g>
   <g id="patch_3">
    <path d="M 81 421.6464 
L 81 56.8512 
" style="fill:none;stroke:#000000;stroke-linecap:square;stroke-linejoin:miter;stroke-width:0.8;"/>
   </g>
   <g id="patch_4">
    <path d="M 81 421.6464 
L 583.2 421.6464 
" style="fill:none;stroke:#000000;stroke-linecap:square;stroke-linejoin:miter;stroke-width:0.8;"/>
   </g>
   <g id="text_14">
    <!-- RamR Variant Response to Rotundine -->
    <defs>
     <path d="M 34.28125 27.484375 
Q 23.390625 27.484375 19.1875 25 
Q 14.984375 22.515625 14.984375 16.5 
Q 14.984375 11.71875 18.140625 8.90625 
Q 21.296875 6.109375 26.703125 6.109375 
Q 34.1875 6.109375 38.703125 11.40625 
Q 43.21875 16.703125 43.21875 25.484375 
L 43.21875 27.484375 
z
M 52.203125 31.203125 
L 52.203125 0 
L 43.21875 0 
L 43.21875 8.296875 
Q 40.140625 3.328125 35.546875 0.953125 
Q 30.953125 -1.421875 24.3125 -1.421875 
Q 15.921875 -1.421875 10.953125 3.296875 
Q 6 8.015625 6 15.921875 
Q 6 25.140625 12.171875 29.828125 
Q 18.359375 34.515625 30.609375 34.515625 
L 43.21875 34.515625 
L 43.21875 35.40625 
Q 43.21875 41.609375 39.140625 45 
Q 35.0625 48.390625 27.6875 48.390625 
Q 23 48.390625 18.546875 47.265625 
Q 14.109375 46.140625 10.015625 43.890625 
L 10.015625 52.203125 
Q 14.9375 54.109375 19.578125 55.046875 
Q 24.21875 56 28.609375 56 
Q 40.484375 56 46.34375 49.84375 
Q 52.203125 43.703125 52.203125 31.203125 
z
" id="DejaVuSans-97"/>
     <path d="M 52 44.1875 
Q 55.375 50.25 60.0625 53.125 
Q 64.75 56 71.09375 56 
Q 79.640625 56 84.28125 50.015625 
Q 88.921875 44.046875 88.921875 33.015625 
L 88.921875 0 
L 79.890625 0 
L 79.890625 32.71875 
Q 79.890625 40.578125 77.09375 44.375 
Q 74.3125 48.1875 68.609375 48.1875 
Q 61.625 48.1875 57.5625 43.546875 
Q 53.515625 38.921875 53.515625 30.90625 
L 53.515625 0 
L 44.484375 0 
L 44.484375 32.71875 
Q 44.484375 40.625 41.703125 44.40625 
Q 38.921875 48.1875 33.109375 48.1875 
Q 26.21875 48.1875 22.15625 43.53125 
Q 18.109375 38.875 18.109375 30.90625 
L 18.109375 0 
L 9.078125 0 
L 9.078125 54.6875 
L 18.109375 54.6875 
L 18.109375 46.1875 
Q 21.1875 51.21875 25.484375 53.609375 
Q 29.78125 56 35.6875 56 
Q 41.65625 56 45.828125 52.96875 
Q 50 49.953125 52 44.1875 
z
" id="DejaVuSans-109"/>
     <path d="M 28.609375 0 
L 0.78125 72.90625 
L 11.078125 72.90625 
L 34.1875 11.53125 
L 57.328125 72.90625 
L 67.578125 72.90625 
L 39.796875 0 
z
" id="DejaVuSans-86"/>
     <path d="M 41.109375 46.296875 
Q 39.59375 47.171875 37.8125 47.578125 
Q 36.03125 48 33.890625 48 
Q 26.265625 48 22.1875 43.046875 
Q 18.109375 38.09375 18.109375 28.8125 
L 18.109375 0 
L 9.078125 0 
L 9.078125 54.6875 
L 18.109375 54.6875 
L 18.109375 46.1875 
Q 20.953125 51.171875 25.484375 53.578125 
Q 30.03125 56 36.53125 56 
Q 37.453125 56 38.578125 55.875 
Q 39.703125 55.765625 41.0625 55.515625 
z
" id="DejaVuSans-114"/>
     <path d="M 44.28125 53.078125 
L 44.28125 44.578125 
Q 40.484375 46.53125 36.375 47.5 
Q 32.28125 48.484375 27.875 48.484375 
Q 21.1875 48.484375 17.84375 46.4375 
Q 14.5 44.390625 14.5 40.28125 
Q 14.5 37.15625 16.890625 35.375 
Q 19.28125 33.59375 26.515625 31.984375 
L 29.59375 31.296875 
Q 39.15625 29.25 43.1875 25.515625 
Q 47.21875 21.78125 47.21875 15.09375 
Q 47.21875 7.46875 41.1875 3.015625 
Q 35.15625 -1.421875 24.609375 -1.421875 
Q 20.21875 -1.421875 15.453125 -0.5625 
Q 10.6875 0.296875 5.421875 2 
L 5.421875 11.28125 
Q 10.40625 8.6875 15.234375 7.390625 
Q 20.0625 6.109375 24.8125 6.109375 
Q 31.15625 6.109375 34.5625 8.28125 
Q 37.984375 10.453125 37.984375 14.40625 
Q 37.984375 18.0625 35.515625 20.015625 
Q 33.0625 21.96875 24.703125 23.78125 
L 21.578125 24.515625 
Q 13.234375 26.265625 9.515625 29.90625 
Q 5.8125 33.546875 5.8125 39.890625 
Q 5.8125 47.609375 11.28125 51.796875 
Q 16.75 56 26.8125 56 
Q 31.78125 56 36.171875 55.265625 
Q 40.578125 54.546875 44.28125 53.078125 
z
" id="DejaVuSans-115"/>
     <path d="M 18.109375 8.203125 
L 18.109375 -20.796875 
L 9.078125 -20.796875 
L 9.078125 54.6875 
L 18.109375 54.6875 
L 18.109375 46.390625 
Q 20.953125 51.265625 25.265625 53.625 
Q 29.59375 56 35.59375 56 
Q 45.5625 56 51.78125 48.09375 
Q 58.015625 40.1875 58.015625 27.296875 
Q 58.015625 14.40625 51.78125 6.484375 
Q 45.5625 -1.421875 35.59375 -1.421875 
Q 29.59375 -1.421875 25.265625 0.953125 
Q 20.953125 3.328125 18.109375 8.203125 
z
M 48.6875 27.296875 
Q 48.6875 37.203125 44.609375 42.84375 
Q 40.53125 48.484375 33.40625 48.484375 
Q 26.265625 48.484375 22.1875 42.84375 
Q 18.109375 37.203125 18.109375 27.296875 
Q 18.109375 17.390625 22.1875 11.75 
Q 26.265625 6.109375 33.40625 6.109375 
Q 40.53125 6.109375 44.609375 11.75 
Q 48.6875 17.390625 48.6875 27.296875 
z
" id="DejaVuSans-112"/>
    </defs>
    <g transform="translate(124.758594 50.8512)scale(0.22 -0.22)">
     <use xlink:href="#DejaVuSans-82"/>
     <use x="69.451172" xlink:href="#DejaVuSans-97"/>
     <use x="130.730469" xlink:href="#DejaVuSans-109"/>
     <use x="228.142578" xlink:href="#DejaVuSans-82"/>
     <use x="297.625" xlink:href="#DejaVuSans-32"/>
     <use x="329.412109" xlink:href="#DejaVuSans-86"/>
     <use x="397.710938" xlink:href="#DejaVuSans-97"/>
     <use x="458.990234" xlink:href="#DejaVuSans-114"/>
     <use x="500.103516" xlink:href="#DejaVuSans-105"/>
     <use x="527.886719" xlink:href="#DejaVuSans-97"/>
     <use x="589.166016" xlink:href="#DejaVuSans-110"/>
     <use x="652.544922" xlink:href="#DejaVuSans-116"/>
     <use x="691.753906" xlink:href="#DejaVuSans-32"/>
     <use x="723.541016" xlink:href="#DejaVuSans-82"/>
     <use x="792.960938" xlink:href="#DejaVuSans-101"/>
     <use x="854.484375" xlink:href="#DejaVuSans-115"/>
     <use x="906.583984" xlink:href="#DejaVuSans-112"/>
     <use x="970.060547" xlink:href="#DejaVuSans-111"/>
     <use x="1031.242188" xlink:href="#DejaVuSans-110"/>
     <use x="1094.621094" xlink:href="#DejaVuSans-115"/>
     <use x="1146.720703" xlink:href="#DejaVuSans-101"/>
     <use x="1208.244141" xlink:href="#DejaVuSans-32"/>
     <use x="1240.03125" xlink:href="#DejaVuSans-116"/>
     <use x="1279.240234" xlink:href="#DejaVuSans-111"/>
     <use x="1340.421875" xlink:href="#DejaVuSans-32"/>
     <use x="1372.208984" xlink:href="#DejaVuSans-82"/>
     <use x="1441.628906" xlink:href="#DejaVuSans-111"/>
     <use x="1502.810547" xlink:href="#DejaVuSans-116"/>
     <use x="1542.019531" xlink:href="#DejaVuSans-117"/>
     <use x="1605.398438" xlink:href="#DejaVuSans-110"/>
     <use x="1668.777344" xlink:href="#DejaVuSans-100"/>
     <use x="1732.253906" xlink:href="#DejaVuSans-105"/>
     <use x="1760.037109" xlink:href="#DejaVuSans-110"/>
     <use x="1823.416016" xlink:href="#DejaVuSans-101"/>
    </g>
   </g>
   <g id="legend_1">
    <g id="patch_5">
     <path d="M 91.5 176.886356 
L 191.224219 176.886356 
Q 194.224219 176.886356 194.224219 173.886356 
L 194.224219 67.3512 
Q 194.224219 64.3512 191.224219 64.3512 
L 91.5 64.3512 
Q 88.5 64.3512 88.5 67.3512 
L 88.5 173.886356 
Q 88.5 176.886356 91.5 176.886356 
z
" style="fill:#ffffff;opacity:0.8;stroke:#cccccc;stroke-linejoin:miter;"/>
    </g>
    <g id="line2d_68">
     <path d="M 94.5 76.205887 
L 124.5 76.205887 
" style="fill:none;stroke:#0099ff;stroke-linecap:square;stroke-width:1.5;"/>
    </g>
    <g id="line2d_69"/>
    <g id="text_15">
     <!-- WT -->
     <defs>
      <path d="M 75.296875 0 
L 64.9375 0 
L 47.859375 60.84375 
L 31.25 0 
L 20.90625 0 
L 1.953125 74.03125 
L 12.5 74.03125 
L 26.46875 13.875 
L 42.875 74.03125 
L 53.03125 74.03125 
L 69.921875 13.875 
L 83.5 74.03125 
L 94.046875 74.03125 
z
" id="Gargi-87"/>
      <path d="M 38.671875 65.71875 
L 38.671875 0 
L 29.203125 0 
L 29.203125 65.71875 
L 4.890625 65.71875 
L 4.890625 74.03125 
L 62.984375 74.03125 
L 62.984375 65.71875 
z
" id="Gargi-84"/>
     </defs>
     <g transform="translate(136.5 81.455887)scale(0.15 -0.15)">
      <use xlink:href="#Gargi-87"/>
      <use x="95.996094" xlink:href="#Gargi-84"/>
     </g>
    </g>
    <g id="line2d_70">
     <path d="M 94.5 97.812919 
L 124.5 97.812919 
" style="fill:none;stroke:#3372cc;stroke-linecap:square;stroke-width:1.5;"/>
    </g>
    <g id="line2d_71"/>
    <g id="text_16">
     <!-- ROTU1 -->
     <defs>
      <path d="M 14.265625 40.234375 
L 37.109375 40.234375 
Q 49.421875 40.234375 51.265625 48.921875 
Q 51.65625 50.6875 51.65625 52.9375 
Q 51.65625 59.578125 47.859375 62.890625 
Q 44.53125 65.71875 37.109375 65.71875 
L 14.265625 65.71875 
z
M 14.265625 31.9375 
L 14.265625 0 
L 4.890625 0 
L 4.890625 74.03125 
L 38.96875 74.03125 
Q 56.25 74.03125 60.453125 61.8125 
Q 61.53125 58.5 61.53125 54.203125 
Q 61.53125 44.234375 54.203125 39.0625 
Q 52.25 37.796875 49.8125 36.53125 
Q 56.15625 33.796875 58.109375 29.78125 
Q 59.859375 25.984375 59.859375 17.28125 
Q 59.859375 7.515625 61.8125 4.78125 
Q 62.796875 3.421875 64.359375 2.34375 
L 64.359375 0 
L 52.9375 0 
Q 50.875 4.890625 50.875 12.109375 
L 50.875 18.65625 
Q 50.875 29.78125 42.78125 31.453125 
Q 40.921875 31.9375 38.671875 31.9375 
z
" id="Gargi-82"/>
      <path d="M 38.578125 68.171875 
Q 25.203125 68.171875 17.96875 58.015625 
Q 12.3125 50.09375 12.3125 38.28125 
Q 12.3125 22.65625 21.96875 14.359375 
Q 28.90625 8.40625 38.375 8.40625 
Q 38.484375 8.40625 38.671875 8.40625 
Q 51.65625 8.40625 59.078125 18.359375 
Q 64.9375 26.265625 64.9375 37.890625 
Q 64.9375 54.390625 54.984375 62.59375 
Q 48.25 68.171875 38.578125 68.171875 
z
M 38.578125 76.375 
Q 56.25 76.375 66.015625 64.15625 
Q 74.421875 53.71875 74.421875 37.703125 
Q 74.421875 22.953125 66.015625 12.5 
Q 63.96875 9.859375 61.625 7.90625 
Q 52.34375 0.296875 38.671875 0.296875 
Q 21.78125 0.296875 11.71875 12.015625 
Q 2.9375 22.265625 2.9375 38.28125 
Q 2.9375 56.734375 14.15625 67.28125 
Q 23.828125 76.375 38.578125 76.375 
z
" id="Gargi-79"/>
      <path d="M 52.34375 75 
L 61.8125 75 
L 61.8125 24.125 
Q 61.8125 11.140625 51.265625 4.6875 
Q 43.953125 0.203125 33.296875 0.203125 
Q 16.5 0.203125 9.078125 10.25 
Q 4.890625 15.921875 4.890625 24.125 
L 4.890625 75 
L 14.359375 75 
L 14.359375 24.125 
Q 14.359375 16.3125 19.734375 12.109375 
Q 25.09375 8.296875 33.296875 8.296875 
Q 45.90625 8.296875 50.390625 16.3125 
Q 52.34375 19.828125 52.34375 24.125 
z
" id="Gargi-85"/>
      <path d="M 22.75 51.265625 
L 6.84375 51.265625 
L 6.84375 57.71875 
Q 17.1875 58.984375 20.21875 61.328125 
Q 23.34375 63.578125 25.390625 70.796875 
L 25.875 71.96875 
L 31.734375 71.96875 
L 31.734375 0 
L 22.75 0 
z
" id="Gargi-49"/>
     </defs>
     <g transform="translate(136.5 103.062919)scale(0.15 -0.15)">
      <use xlink:href="#Gargi-82"/>
      <use x="69.238281" xlink:href="#Gargi-79"/>
      <use x="146.582031" xlink:href="#Gargi-84"/>
      <use x="214.453125" xlink:href="#Gargi-85"/>
      <use x="281.152344" xlink:href="#Gargi-49"/>
     </g>
    </g>
    <g id="line2d_72">
     <path d="M 94.5 119.41995 
L 124.5 119.41995 
" style="fill:none;stroke:#674c9a;stroke-linecap:square;stroke-width:1.5;"/>
    </g>
    <g id="line2d_73"/>
    <g id="text_17">
     <!-- ROTU2 -->
     <defs>
      <path d="M 54.78125 8.796875 
L 54.78125 0 
L 6.84375 0 
Q 6.84375 12.984375 12.703125 19.828125 
Q 17.96875 25.984375 27.046875 31.15625 
L 36.421875 36.421875 
Q 46.1875 42.09375 46.1875 50.6875 
Q 46.1875 58.015625 40.046875 61.921875 
Q 36.53125 64.15625 31.9375 64.15625 
Q 24.3125 64.15625 20.3125 58.40625 
L 19.53125 57.234375 
Q 17.484375 53.90625 17.484375 47.078125 
L 8.5 47.078125 
Q 8.5 57.234375 12.40625 62.703125 
Q 19.046875 71.96875 32.234375 71.96875 
Q 42.28125 71.96875 48.640625 66.3125 
Q 55.28125 60.25 55.28125 50.875 
Q 55.28125 37.5 40.046875 29.109375 
L 29.890625 23.640625 
Q 20.703125 18.265625 18.265625 13.28125 
Q 17.28125 11.234375 16.890625 8.796875 
z
" id="Gargi-50"/>
     </defs>
     <g transform="translate(136.5 124.66995)scale(0.15 -0.15)">
      <use xlink:href="#Gargi-82"/>
      <use x="69.238281" xlink:href="#Gargi-79"/>
      <use x="146.582031" xlink:href="#Gargi-84"/>
      <use x="214.453125" xlink:href="#Gargi-85"/>
      <use x="281.152344" xlink:href="#Gargi-50"/>
     </g>
    </g>
    <g id="line2d_74">
     <path d="M 94.5 141.026981 
L 124.5 141.026981 
" style="fill:none;stroke:#9a2667;stroke-linecap:square;stroke-width:1.5;"/>
    </g>
    <g id="line2d_75"/>
    <g id="text_18">
     <!-- ROTU3 -->
     <defs>
      <path d="M 26.078125 35.25 
L 26.078125 42.78125 
Q 34.578125 42.78125 37.984375 44.34375 
Q 43.75 46.96875 43.75 54 
Q 43.75 62.703125 36.625 65.4375 
Q 34.1875 66.3125 31.0625 66.3125 
Q 23.046875 66.3125 19.4375 60.84375 
Q 19.140625 60.359375 18.953125 59.96875 
Q 17.28125 57.03125 17.28125 50.875 
L 8.40625 50.875 
Q 8.40625 74.03125 27.640625 74.03125 
Q 28.71875 74.03125 30.953125 74.125 
Q 31.734375 74.125 32.421875 74.125 
Q 44.734375 74.125 50.390625 64.65625 
Q 52.828125 60.453125 52.828125 54.390625 
Q 52.828125 43.359375 42.78125 39.453125 
Q 52.25 36.140625 54.296875 28.421875 
Q 54.984375 25.78125 54.984375 22.265625 
Q 54.984375 9.859375 45.40625 3.71875 
Q 39.265625 -0.203125 30.671875 -0.203125 
Q 15.625 -0.203125 10.0625 10.25 
Q 6.84375 15.140625 6.84375 23.046875 
L 15.828125 23.046875 
Q 15.828125 9.671875 27.25 8.015625 
Q 29.296875 7.71875 30.953125 7.71875 
Q 41.5 7.71875 44.734375 15.71875 
Q 45.90625 18.5625 45.90625 22.171875 
Q 45.90625 35.25 30.953125 35.25 
L 27.15625 35.25 
z
" id="Gargi-51"/>
     </defs>
     <g transform="translate(136.5 146.276981)scale(0.15 -0.15)">
      <use xlink:href="#Gargi-82"/>
      <use x="69.238281" xlink:href="#Gargi-79"/>
      <use x="146.582031" xlink:href="#Gargi-84"/>
      <use x="214.453125" xlink:href="#Gargi-85"/>
      <use x="281.152344" xlink:href="#Gargi-51"/>
     </g>
    </g>
    <g id="line2d_76">
     <path d="M 94.5 162.634012 
L 124.5 162.634012 
" style="fill:none;stroke:#ce0035;stroke-linecap:square;stroke-width:1.5;"/>
    </g>
    <g id="line2d_77"/>
    <g id="text_19">
     <!-- ROTU4 -->
     <defs>
      <path d="M 37.203125 25.296875 
L 37.203125 56.734375 
L 14.65625 25.296875 
z
M 37.203125 17.28125 
L 6.84375 17.28125 
L 6.84375 26.765625 
L 39.546875 71.96875 
L 46.1875 71.96875 
L 46.1875 25.296875 
L 56.84375 25.296875 
L 56.84375 17.28125 
L 46.1875 17.28125 
L 46.1875 0 
L 37.203125 0 
z
" id="Gargi-52"/>
     </defs>
     <g transform="translate(136.5 167.884012)scale(0.15 -0.15)">
      <use xlink:href="#Gargi-82"/>
      <use x="69.238281" xlink:href="#Gargi-79"/>
      <use x="146.582031" xlink:href="#Gargi-84"/>
      <use x="214.453125" xlink:href="#Gargi-85"/>
      <use x="281.152344" xlink:href="#Gargi-52"/>
     </g>
    </g>
   </g>
  </g>
 </g>
 <defs>
  <clipPath id="p11263ca49f">
   <rect height="364.7952" width="502.2" x="81" y="56.8512"/>
  </clipPath>
 </defs>
</svg>
