<?xml version="1.0" encoding="utf-8" standalone="no"?>
<!DOCTYPE svg PUBLIC "-//W3C//DTD SVG 1.1//EN"
  "http://www.w3.org/Graphics/SVG/1.1/DTD/svg11.dtd">
<!-- Created with matplotlib (https://matplotlib.org/) -->
<svg height="473.76pt" version="1.1" viewBox="0 0 648 473.76" width="648pt" xmlns="http://www.w3.org/2000/svg" xmlns:xlink="http://www.w3.org/1999/xlink">
 <defs>
  <style type="text/css">
*{stroke-linecap:butt;stroke-linejoin:round;}
  </style>
 </defs>
 <g id="figure_1">
  <g id="patch_1">
   <path d="M 0 473.76 
L 648 473.76 
L 648 0 
L 0 0 
z
" style="fill:#ffffff;"/>
  </g>
  <g id="axes_1">
   <g id="patch_2">
    <path d="M 81 331.632 
L 583.2 331.632 
L 583.2 56.8512 
L 81 56.8512 
z
" style="fill:#ffffff;"/>
   </g>
   <g id="table_1">
    <g id="patch_3">
     <path d="M 106.11 423.2256 
L 231.66 423.2256 
L 231.66 400.3272 
L 106.11 400.3272 
z
" style="fill:#0ad12e;stroke:#000000;stroke-linejoin:miter;"/>
    </g>
    <g id="text_1">
     <!-- THP1 -->
     <defs>
      <path d="M -0.296875 72.90625 
L 61.375 72.90625 
L 61.375 64.59375 
L 35.5 64.59375 
L 35.5 0 
L 25.59375 0 
L 25.59375 64.59375 
L -0.296875 64.59375 
z
" id="DejaVuSans-84"/>
      <path d="M 9.8125 72.90625 
L 19.671875 72.90625 
L 19.671875 43.015625 
L 55.515625 43.015625 
L 55.515625 72.90625 
L 65.375 72.90625 
L 65.375 0 
L 55.515625 0 
L 55.515625 34.71875 
L 19.671875 34.71875 
L 19.671875 0 
L 9.8125 0 
z
" id="DejaVuSans-72"/>
      <path d="M 19.671875 64.796875 
L 19.671875 37.40625 
L 32.078125 37.40625 
Q 38.96875 37.40625 42.71875 40.96875 
Q 46.484375 44.53125 46.484375 51.125 
Q 46.484375 57.671875 42.71875 61.234375 
Q 38.96875 64.796875 32.078125 64.796875 
z
M 9.8125 72.90625 
L 32.078125 72.90625 
Q 44.34375 72.90625 50.609375 67.359375 
Q 56.890625 61.8125 56.890625 51.125 
Q 56.890625 40.328125 50.609375 34.8125 
Q 44.34375 29.296875 32.078125 29.296875 
L 19.671875 29.296875 
L 19.671875 0 
L 9.8125 0 
z
" id="DejaVuSans-80"/>
      <path d="M 12.40625 8.296875 
L 28.515625 8.296875 
L 28.515625 63.921875 
L 10.984375 60.40625 
L 10.984375 69.390625 
L 28.421875 72.90625 
L 38.28125 72.90625 
L 38.28125 8.296875 
L 54.390625 8.296875 
L 54.390625 0 
L 12.40625 0 
z
" id="DejaVuSans-49"/>
     </defs>
     <g transform="translate(153.272813 415.08765)scale(0.12 -0.12)">
      <use xlink:href="#DejaVuSans-84"/>
      <use x="61.083984" xlink:href="#DejaVuSans-72"/>
      <use x="136.279297" xlink:href="#DejaVuSans-80"/>
      <use x="196.582031" xlink:href="#DejaVuSans-49"/>
     </g>
    </g>
    <g id="patch_4">
     <path d="M 231.66 423.2256 
L 357.21 423.2256 
L 357.21 400.3272 
L 231.66 400.3272 
z
" style="fill:#0a95d1;stroke:#000000;stroke-linejoin:miter;"/>
    </g>
    <g id="text_2">
     <!-- THP2.1 -->
     <defs>
      <path d="M 19.1875 8.296875 
L 53.609375 8.296875 
L 53.609375 0 
L 7.328125 0 
L 7.328125 8.296875 
Q 12.9375 14.109375 22.625 23.890625 
Q 32.328125 33.6875 34.8125 36.53125 
Q 39.546875 41.84375 41.421875 45.53125 
Q 43.3125 49.21875 43.3125 52.78125 
Q 43.3125 58.59375 39.234375 62.25 
Q 35.15625 65.921875 28.609375 65.921875 
Q 23.96875 65.921875 18.8125 64.3125 
Q 13.671875 62.703125 7.8125 59.421875 
L 7.8125 69.390625 
Q 13.765625 71.78125 18.9375 73 
Q 24.125 74.21875 28.421875 74.21875 
Q 39.75 74.21875 46.484375 68.546875 
Q 53.21875 62.890625 53.21875 53.421875 
Q 53.21875 48.921875 51.53125 44.890625 
Q 49.859375 40.875 45.40625 35.40625 
Q 44.1875 33.984375 37.640625 27.21875 
Q 31.109375 20.453125 19.1875 8.296875 
z
" id="DejaVuSans-50"/>
      <path d="M 10.6875 12.40625 
L 21 12.40625 
L 21 0 
L 10.6875 0 
z
" id="DejaVuSans-46"/>
     </defs>
     <g transform="translate(273.098438 415.08765)scale(0.12 -0.12)">
      <use xlink:href="#DejaVuSans-84"/>
      <use x="61.083984" xlink:href="#DejaVuSans-72"/>
      <use x="136.279297" xlink:href="#DejaVuSans-80"/>
      <use x="196.582031" xlink:href="#DejaVuSans-50"/>
      <use x="260.205078" xlink:href="#DejaVuSans-46"/>
      <use x="291.992188" xlink:href="#DejaVuSans-49"/>
     </g>
    </g>
    <g id="patch_5">
     <path d="M 357.21 423.2256 
L 482.76 423.2256 
L 482.76 400.3272 
L 357.21 400.3272 
z
" style="fill:#710ad1;stroke:#000000;stroke-linejoin:miter;"/>
    </g>
    <g id="text_3">
     <!-- THP2.2 -->
     <g transform="translate(398.648438 415.08765)scale(0.12 -0.12)">
      <use xlink:href="#DejaVuSans-84"/>
      <use x="61.083984" xlink:href="#DejaVuSans-72"/>
      <use x="136.279297" xlink:href="#DejaVuSans-80"/>
      <use x="196.582031" xlink:href="#DejaVuSans-50"/>
      <use x="260.205078" xlink:href="#DejaVuSans-46"/>
      <use x="291.992188" xlink:href="#DejaVuSans-50"/>
     </g>
    </g>
    <g id="patch_6">
     <path d="M 482.76 423.2256 
L 608.31 423.2256 
L 608.31 400.3272 
L 482.76 400.3272 
z
" style="fill:#d10a7b;stroke:#000000;stroke-linejoin:miter;"/>
    </g>
    <g id="text_4">
     <!-- THP2.3 -->
     <defs>
      <path d="M 40.578125 39.3125 
Q 47.65625 37.796875 51.625 33 
Q 55.609375 28.21875 55.609375 21.1875 
Q 55.609375 10.40625 48.1875 4.484375 
Q 40.765625 -1.421875 27.09375 -1.421875 
Q 22.515625 -1.421875 17.65625 -0.515625 
Q 12.796875 0.390625 7.625 2.203125 
L 7.625 11.71875 
Q 11.71875 9.328125 16.59375 8.109375 
Q 21.484375 6.890625 26.8125 6.890625 
Q 36.078125 6.890625 40.9375 10.546875 
Q 45.796875 14.203125 45.796875 21.1875 
Q 45.796875 27.640625 41.28125 31.265625 
Q 36.765625 34.90625 28.71875 34.90625 
L 20.21875 34.90625 
L 20.21875 43.015625 
L 29.109375 43.015625 
Q 36.375 43.015625 40.234375 45.921875 
Q 44.09375 48.828125 44.09375 54.296875 
Q 44.09375 59.90625 40.109375 62.90625 
Q 36.140625 65.921875 28.71875 65.921875 
Q 24.65625 65.921875 20.015625 65.03125 
Q 15.375 64.15625 9.8125 62.3125 
L 9.8125 71.09375 
Q 15.4375 72.65625 20.34375 73.4375 
Q 25.25 74.21875 29.59375 74.21875 
Q 40.828125 74.21875 47.359375 69.109375 
Q 53.90625 64.015625 53.90625 55.328125 
Q 53.90625 49.265625 50.4375 45.09375 
Q 46.96875 40.921875 40.578125 39.3125 
z
" id="DejaVuSans-51"/>
     </defs>
     <g transform="translate(524.198438 415.08765)scale(0.12 -0.12)">
      <use xlink:href="#DejaVuSans-84"/>
      <use x="61.083984" xlink:href="#DejaVuSans-72"/>
      <use x="136.279297" xlink:href="#DejaVuSans-80"/>
      <use x="196.582031" xlink:href="#DejaVuSans-50"/>
      <use x="260.205078" xlink:href="#DejaVuSans-46"/>
      <use x="291.992188" xlink:href="#DejaVuSans-51"/>
     </g>
    </g>
    <g id="patch_7">
     <path d="M 19.88775 446.124 
L 106.11 446.124 
L 106.11 423.2256 
L 19.88775 423.2256 
z
" style="fill:#ffffff;stroke:#000000;stroke-linejoin:miter;"/>
    </g>
    <g id="text_5">
     <!-- EC50 (uM) -->
     <defs>
      <path d="M 9.8125 72.90625 
L 55.90625 72.90625 
L 55.90625 64.59375 
L 19.671875 64.59375 
L 19.671875 43.015625 
L 54.390625 43.015625 
L 54.390625 34.71875 
L 19.671875 34.71875 
L 19.671875 8.296875 
L 56.78125 8.296875 
L 56.78125 0 
L 9.8125 0 
z
" id="DejaVuSans-69"/>
      <path d="M 64.40625 67.28125 
L 64.40625 56.890625 
Q 59.421875 61.53125 53.78125 63.8125 
Q 48.140625 66.109375 41.796875 66.109375 
Q 29.296875 66.109375 22.65625 58.46875 
Q 16.015625 50.828125 16.015625 36.375 
Q 16.015625 21.96875 22.65625 14.328125 
Q 29.296875 6.6875 41.796875 6.6875 
Q 48.140625 6.6875 53.78125 8.984375 
Q 59.421875 11.28125 64.40625 15.921875 
L 64.40625 5.609375 
Q 59.234375 2.09375 53.4375 0.328125 
Q 47.65625 -1.421875 41.21875 -1.421875 
Q 24.65625 -1.421875 15.125 8.703125 
Q 5.609375 18.84375 5.609375 36.375 
Q 5.609375 53.953125 15.125 64.078125 
Q 24.65625 74.21875 41.21875 74.21875 
Q 47.75 74.21875 53.53125 72.484375 
Q 59.328125 70.75 64.40625 67.28125 
z
" id="DejaVuSans-67"/>
      <path d="M 10.796875 72.90625 
L 49.515625 72.90625 
L 49.515625 64.59375 
L 19.828125 64.59375 
L 19.828125 46.734375 
Q 21.96875 47.46875 24.109375 47.828125 
Q 26.265625 48.1875 28.421875 48.1875 
Q 40.625 48.1875 47.75 41.5 
Q 54.890625 34.8125 54.890625 23.390625 
Q 54.890625 11.625 47.5625 5.09375 
Q 40.234375 -1.421875 26.90625 -1.421875 
Q 22.3125 -1.421875 17.546875 -0.640625 
Q 12.796875 0.140625 7.71875 1.703125 
L 7.71875 11.625 
Q 12.109375 9.234375 16.796875 8.0625 
Q 21.484375 6.890625 26.703125 6.890625 
Q 35.15625 6.890625 40.078125 11.328125 
Q 45.015625 15.765625 45.015625 23.390625 
Q 45.015625 31 40.078125 35.4375 
Q 35.15625 39.890625 26.703125 39.890625 
Q 22.75 39.890625 18.8125 39.015625 
Q 14.890625 38.140625 10.796875 36.28125 
z
" id="DejaVuSans-53"/>
      <path d="M 31.78125 66.40625 
Q 24.171875 66.40625 20.328125 58.90625 
Q 16.5 51.421875 16.5 36.375 
Q 16.5 21.390625 20.328125 13.890625 
Q 24.171875 6.390625 31.78125 6.390625 
Q 39.453125 6.390625 43.28125 13.890625 
Q 47.125 21.390625 47.125 36.375 
Q 47.125 51.421875 43.28125 58.90625 
Q 39.453125 66.40625 31.78125 66.40625 
z
M 31.78125 74.21875 
Q 44.046875 74.21875 50.515625 64.515625 
Q 56.984375 54.828125 56.984375 36.375 
Q 56.984375 17.96875 50.515625 8.265625 
Q 44.046875 -1.421875 31.78125 -1.421875 
Q 19.53125 -1.421875 13.0625 8.265625 
Q 6.59375 17.96875 6.59375 36.375 
Q 6.59375 54.828125 13.0625 64.515625 
Q 19.53125 74.21875 31.78125 74.21875 
z
" id="DejaVuSans-48"/>
      <path id="DejaVuSans-32"/>
      <path d="M 31 75.875 
Q 24.46875 64.65625 21.28125 53.65625 
Q 18.109375 42.671875 18.109375 31.390625 
Q 18.109375 20.125 21.3125 9.0625 
Q 24.515625 -2 31 -13.1875 
L 23.1875 -13.1875 
Q 15.875 -1.703125 12.234375 9.375 
Q 8.59375 20.453125 8.59375 31.390625 
Q 8.59375 42.28125 12.203125 53.3125 
Q 15.828125 64.359375 23.1875 75.875 
z
" id="DejaVuSans-40"/>
      <path d="M 8.5 21.578125 
L 8.5 54.6875 
L 17.484375 54.6875 
L 17.484375 21.921875 
Q 17.484375 14.15625 20.5 10.265625 
Q 23.53125 6.390625 29.59375 6.390625 
Q 36.859375 6.390625 41.078125 11.03125 
Q 45.3125 15.671875 45.3125 23.6875 
L 45.3125 54.6875 
L 54.296875 54.6875 
L 54.296875 0 
L 45.3125 0 
L 45.3125 8.40625 
Q 42.046875 3.421875 37.71875 1 
Q 33.40625 -1.421875 27.6875 -1.421875 
Q 18.265625 -1.421875 13.375 4.4375 
Q 8.5 10.296875 8.5 21.578125 
z
M 31.109375 56 
z
" id="DejaVuSans-117"/>
      <path d="M 9.8125 72.90625 
L 24.515625 72.90625 
L 43.109375 23.296875 
L 61.8125 72.90625 
L 76.515625 72.90625 
L 76.515625 0 
L 66.890625 0 
L 66.890625 64.015625 
L 48.09375 14.015625 
L 38.1875 14.015625 
L 19.390625 64.015625 
L 19.390625 0 
L 9.8125 0 
z
" id="DejaVuSans-77"/>
      <path d="M 8.015625 75.875 
L 15.828125 75.875 
Q 23.140625 64.359375 26.78125 53.3125 
Q 30.421875 42.28125 30.421875 31.390625 
Q 30.421875 20.453125 26.78125 9.375 
Q 23.140625 -1.703125 15.828125 -13.1875 
L 8.015625 -13.1875 
Q 14.5 -2 17.703125 9.0625 
Q 20.90625 20.125 20.90625 31.390625 
Q 20.90625 42.671875 17.703125 53.65625 
Q 14.5 64.65625 8.015625 75.875 
z
" id="DejaVuSans-41"/>
     </defs>
     <g transform="translate(28.509975 437.98605)scale(0.12 -0.12)">
      <use xlink:href="#DejaVuSans-69"/>
      <use x="63.183594" xlink:href="#DejaVuSans-67"/>
      <use x="133.007812" xlink:href="#DejaVuSans-53"/>
      <use x="196.630859" xlink:href="#DejaVuSans-48"/>
      <use x="260.253906" xlink:href="#DejaVuSans-32"/>
      <use x="292.041016" xlink:href="#DejaVuSans-40"/>
      <use x="331.054688" xlink:href="#DejaVuSans-117"/>
      <use x="394.433594" xlink:href="#DejaVuSans-77"/>
      <use x="480.712891" xlink:href="#DejaVuSans-41"/>
     </g>
    </g>
    <g id="patch_8">
     <path d="M 106.11 446.124 
L 231.66 446.124 
L 231.66 423.2256 
L 106.11 423.2256 
z
" style="fill:#ffffff;stroke:#000000;stroke-linejoin:miter;"/>
    </g>
    <g id="text_6">
     <!-- 66.1 -->
     <defs>
      <path d="M 33.015625 40.375 
Q 26.375 40.375 22.484375 35.828125 
Q 18.609375 31.296875 18.609375 23.390625 
Q 18.609375 15.53125 22.484375 10.953125 
Q 26.375 6.390625 33.015625 6.390625 
Q 39.65625 6.390625 43.53125 10.953125 
Q 47.40625 15.53125 47.40625 23.390625 
Q 47.40625 31.296875 43.53125 35.828125 
Q 39.65625 40.375 33.015625 40.375 
z
M 52.59375 71.296875 
L 52.59375 62.3125 
Q 48.875 64.0625 45.09375 64.984375 
Q 41.3125 65.921875 37.59375 65.921875 
Q 27.828125 65.921875 22.671875 59.328125 
Q 17.53125 52.734375 16.796875 39.40625 
Q 19.671875 43.65625 24.015625 45.921875 
Q 28.375 48.1875 33.59375 48.1875 
Q 44.578125 48.1875 50.953125 41.515625 
Q 57.328125 34.859375 57.328125 23.390625 
Q 57.328125 12.15625 50.6875 5.359375 
Q 44.046875 -1.421875 33.015625 -1.421875 
Q 20.359375 -1.421875 13.671875 8.265625 
Q 6.984375 17.96875 6.984375 36.375 
Q 6.984375 53.65625 15.1875 63.9375 
Q 23.390625 74.21875 37.203125 74.21875 
Q 40.921875 74.21875 44.703125 73.484375 
Q 48.484375 72.75 52.59375 71.296875 
z
" id="DejaVuSans-54"/>
     </defs>
     <g transform="translate(192.38625 437.98605)scale(0.12 -0.12)">
      <use xlink:href="#DejaVuSans-54"/>
      <use x="63.623047" xlink:href="#DejaVuSans-54"/>
      <use x="127.246094" xlink:href="#DejaVuSans-46"/>
      <use x="159.033203" xlink:href="#DejaVuSans-49"/>
     </g>
    </g>
    <g id="patch_9">
     <path d="M 231.66 446.124 
L 357.21 446.124 
L 357.21 423.2256 
L 231.66 423.2256 
z
" style="fill:#ffffff;stroke:#000000;stroke-linejoin:miter;"/>
    </g>
    <g id="text_7">
     <!-- 5.8 -->
     <defs>
      <path d="M 31.78125 34.625 
Q 24.75 34.625 20.71875 30.859375 
Q 16.703125 27.09375 16.703125 20.515625 
Q 16.703125 13.921875 20.71875 10.15625 
Q 24.75 6.390625 31.78125 6.390625 
Q 38.8125 6.390625 42.859375 10.171875 
Q 46.921875 13.96875 46.921875 20.515625 
Q 46.921875 27.09375 42.890625 30.859375 
Q 38.875 34.625 31.78125 34.625 
z
M 21.921875 38.8125 
Q 15.578125 40.375 12.03125 44.71875 
Q 8.5 49.078125 8.5 55.328125 
Q 8.5 64.0625 14.71875 69.140625 
Q 20.953125 74.21875 31.78125 74.21875 
Q 42.671875 74.21875 48.875 69.140625 
Q 55.078125 64.0625 55.078125 55.328125 
Q 55.078125 49.078125 51.53125 44.71875 
Q 48 40.375 41.703125 38.8125 
Q 48.828125 37.15625 52.796875 32.3125 
Q 56.78125 27.484375 56.78125 20.515625 
Q 56.78125 9.90625 50.3125 4.234375 
Q 43.84375 -1.421875 31.78125 -1.421875 
Q 19.734375 -1.421875 13.25 4.234375 
Q 6.78125 9.90625 6.78125 20.515625 
Q 6.78125 27.484375 10.78125 32.3125 
Q 14.796875 37.15625 21.921875 38.8125 
z
M 18.3125 54.390625 
Q 18.3125 48.734375 21.84375 45.5625 
Q 25.390625 42.390625 31.78125 42.390625 
Q 38.140625 42.390625 41.71875 45.5625 
Q 45.3125 48.734375 45.3125 54.390625 
Q 45.3125 60.0625 41.71875 63.234375 
Q 38.140625 66.40625 31.78125 66.40625 
Q 25.390625 66.40625 21.84375 63.234375 
Q 18.3125 60.0625 18.3125 54.390625 
z
" id="DejaVuSans-56"/>
     </defs>
     <g transform="translate(325.57125 437.98605)scale(0.12 -0.12)">
      <use xlink:href="#DejaVuSans-53"/>
      <use x="63.623047" xlink:href="#DejaVuSans-46"/>
      <use x="95.410156" xlink:href="#DejaVuSans-56"/>
     </g>
    </g>
    <g id="patch_10">
     <path d="M 357.21 446.124 
L 482.76 446.124 
L 482.76 423.2256 
L 357.21 423.2256 
z
" style="fill:#ffffff;stroke:#000000;stroke-linejoin:miter;"/>
    </g>
    <g id="text_8">
     <!-- 10.5 -->
     <g transform="translate(443.48625 437.98605)scale(0.12 -0.12)">
      <use xlink:href="#DejaVuSans-49"/>
      <use x="63.623047" xlink:href="#DejaVuSans-48"/>
      <use x="127.246094" xlink:href="#DejaVuSans-46"/>
      <use x="159.033203" xlink:href="#DejaVuSans-53"/>
     </g>
    </g>
    <g id="patch_11">
     <path d="M 482.76 446.124 
L 608.31 446.124 
L 608.31 423.2256 
L 482.76 423.2256 
z
" style="fill:#ffffff;stroke:#000000;stroke-linejoin:miter;"/>
    </g>
    <g id="text_9">
     <!-- 13.4 -->
     <defs>
      <path d="M 37.796875 64.3125 
L 12.890625 25.390625 
L 37.796875 25.390625 
z
M 35.203125 72.90625 
L 47.609375 72.90625 
L 47.609375 25.390625 
L 58.015625 25.390625 
L 58.015625 17.1875 
L 47.609375 17.1875 
L 47.609375 0 
L 37.796875 0 
L 37.796875 17.1875 
L 4.890625 17.1875 
L 4.890625 26.703125 
z
" id="DejaVuSans-52"/>
     </defs>
     <g transform="translate(569.03625 437.98605)scale(0.12 -0.12)">
      <use xlink:href="#DejaVuSans-49"/>
      <use x="63.623047" xlink:href="#DejaVuSans-51"/>
      <use x="127.246094" xlink:href="#DejaVuSans-46"/>
      <use x="159.033203" xlink:href="#DejaVuSans-52"/>
     </g>
    </g>
    <g id="patch_12">
     <path d="M 19.88775 469.0224 
L 106.11 469.0224 
L 106.11 446.124 
L 19.88775 446.124 
z
" style="fill:#ffffff;stroke:#000000;stroke-linejoin:miter;"/>
    </g>
    <g id="text_10">
     <!-- Background -->
     <defs>
      <path d="M 19.671875 34.8125 
L 19.671875 8.109375 
L 35.5 8.109375 
Q 43.453125 8.109375 47.28125 11.40625 
Q 51.125 14.703125 51.125 21.484375 
Q 51.125 28.328125 47.28125 31.5625 
Q 43.453125 34.8125 35.5 34.8125 
z
M 19.671875 64.796875 
L 19.671875 42.828125 
L 34.28125 42.828125 
Q 41.5 42.828125 45.03125 45.53125 
Q 48.578125 48.25 48.578125 53.8125 
Q 48.578125 59.328125 45.03125 62.0625 
Q 41.5 64.796875 34.28125 64.796875 
z
M 9.8125 72.90625 
L 35.015625 72.90625 
Q 46.296875 72.90625 52.390625 68.21875 
Q 58.5 63.53125 58.5 54.890625 
Q 58.5 48.1875 55.375 44.234375 
Q 52.25 40.28125 46.1875 39.3125 
Q 53.46875 37.75 57.5 32.78125 
Q 61.53125 27.828125 61.53125 20.40625 
Q 61.53125 10.640625 54.890625 5.3125 
Q 48.25 0 35.984375 0 
L 9.8125 0 
z
" id="DejaVuSans-66"/>
      <path d="M 34.28125 27.484375 
Q 23.390625 27.484375 19.1875 25 
Q 14.984375 22.515625 14.984375 16.5 
Q 14.984375 11.71875 18.140625 8.90625 
Q 21.296875 6.109375 26.703125 6.109375 
Q 34.1875 6.109375 38.703125 11.40625 
Q 43.21875 16.703125 43.21875 25.484375 
L 43.21875 27.484375 
z
M 52.203125 31.203125 
L 52.203125 0 
L 43.21875 0 
L 43.21875 8.296875 
Q 40.140625 3.328125 35.546875 0.953125 
Q 30.953125 -1.421875 24.3125 -1.421875 
Q 15.921875 -1.421875 10.953125 3.296875 
Q 6 8.015625 6 15.921875 
Q 6 25.140625 12.171875 29.828125 
Q 18.359375 34.515625 30.609375 34.515625 
L 43.21875 34.515625 
L 43.21875 35.40625 
Q 43.21875 41.609375 39.140625 45 
Q 35.0625 48.390625 27.6875 48.390625 
Q 23 48.390625 18.546875 47.265625 
Q 14.109375 46.140625 10.015625 43.890625 
L 10.015625 52.203125 
Q 14.9375 54.109375 19.578125 55.046875 
Q 24.21875 56 28.609375 56 
Q 40.484375 56 46.34375 49.84375 
Q 52.203125 43.703125 52.203125 31.203125 
z
" id="DejaVuSans-97"/>
      <path d="M 48.78125 52.59375 
L 48.78125 44.1875 
Q 44.96875 46.296875 41.140625 47.34375 
Q 37.3125 48.390625 33.40625 48.390625 
Q 24.65625 48.390625 19.8125 42.84375 
Q 14.984375 37.3125 14.984375 27.296875 
Q 14.984375 17.28125 19.8125 11.734375 
Q 24.65625 6.203125 33.40625 6.203125 
Q 37.3125 6.203125 41.140625 7.25 
Q 44.96875 8.296875 48.78125 10.40625 
L 48.78125 2.09375 
Q 45.015625 0.34375 40.984375 -0.53125 
Q 36.96875 -1.421875 32.421875 -1.421875 
Q 20.0625 -1.421875 12.78125 6.34375 
Q 5.515625 14.109375 5.515625 27.296875 
Q 5.515625 40.671875 12.859375 48.328125 
Q 20.21875 56 33.015625 56 
Q 37.15625 56 41.109375 55.140625 
Q 45.0625 54.296875 48.78125 52.59375 
z
" id="DejaVuSans-99"/>
      <path d="M 9.078125 75.984375 
L 18.109375 75.984375 
L 18.109375 31.109375 
L 44.921875 54.6875 
L 56.390625 54.6875 
L 27.390625 29.109375 
L 57.625 0 
L 45.90625 0 
L 18.109375 26.703125 
L 18.109375 0 
L 9.078125 0 
z
" id="DejaVuSans-107"/>
      <path d="M 45.40625 27.984375 
Q 45.40625 37.75 41.375 43.109375 
Q 37.359375 48.484375 30.078125 48.484375 
Q 22.859375 48.484375 18.828125 43.109375 
Q 14.796875 37.75 14.796875 27.984375 
Q 14.796875 18.265625 18.828125 12.890625 
Q 22.859375 7.515625 30.078125 7.515625 
Q 37.359375 7.515625 41.375 12.890625 
Q 45.40625 18.265625 45.40625 27.984375 
z
M 54.390625 6.78125 
Q 54.390625 -7.171875 48.1875 -13.984375 
Q 42 -20.796875 29.203125 -20.796875 
Q 24.46875 -20.796875 20.265625 -20.09375 
Q 16.0625 -19.390625 12.109375 -17.921875 
L 12.109375 -9.1875 
Q 16.0625 -11.328125 19.921875 -12.34375 
Q 23.78125 -13.375 27.78125 -13.375 
Q 36.625 -13.375 41.015625 -8.765625 
Q 45.40625 -4.15625 45.40625 5.171875 
L 45.40625 9.625 
Q 42.625 4.78125 38.28125 2.390625 
Q 33.9375 0 27.875 0 
Q 17.828125 0 11.671875 7.65625 
Q 5.515625 15.328125 5.515625 27.984375 
Q 5.515625 40.671875 11.671875 48.328125 
Q 17.828125 56 27.875 56 
Q 33.9375 56 38.28125 53.609375 
Q 42.625 51.21875 45.40625 46.390625 
L 45.40625 54.6875 
L 54.390625 54.6875 
z
" id="DejaVuSans-103"/>
      <path d="M 41.109375 46.296875 
Q 39.59375 47.171875 37.8125 47.578125 
Q 36.03125 48 33.890625 48 
Q 26.265625 48 22.1875 43.046875 
Q 18.109375 38.09375 18.109375 28.8125 
L 18.109375 0 
L 9.078125 0 
L 9.078125 54.6875 
L 18.109375 54.6875 
L 18.109375 46.1875 
Q 20.953125 51.171875 25.484375 53.578125 
Q 30.03125 56 36.53125 56 
Q 37.453125 56 38.578125 55.875 
Q 39.703125 55.765625 41.0625 55.515625 
z
" id="DejaVuSans-114"/>
      <path d="M 30.609375 48.390625 
Q 23.390625 48.390625 19.1875 42.75 
Q 14.984375 37.109375 14.984375 27.296875 
Q 14.984375 17.484375 19.15625 11.84375 
Q 23.34375 6.203125 30.609375 6.203125 
Q 37.796875 6.203125 41.984375 11.859375 
Q 46.1875 17.53125 46.1875 27.296875 
Q 46.1875 37.015625 41.984375 42.703125 
Q 37.796875 48.390625 30.609375 48.390625 
z
M 30.609375 56 
Q 42.328125 56 49.015625 48.375 
Q 55.71875 40.765625 55.71875 27.296875 
Q 55.71875 13.875 49.015625 6.21875 
Q 42.328125 -1.421875 30.609375 -1.421875 
Q 18.84375 -1.421875 12.171875 6.21875 
Q 5.515625 13.875 5.515625 27.296875 
Q 5.515625 40.765625 12.171875 48.375 
Q 18.84375 56 30.609375 56 
z
" id="DejaVuSans-111"/>
      <path d="M 54.890625 33.015625 
L 54.890625 0 
L 45.90625 0 
L 45.90625 32.71875 
Q 45.90625 40.484375 42.875 44.328125 
Q 39.84375 48.1875 33.796875 48.1875 
Q 26.515625 48.1875 22.3125 43.546875 
Q 18.109375 38.921875 18.109375 30.90625 
L 18.109375 0 
L 9.078125 0 
L 9.078125 54.6875 
L 18.109375 54.6875 
L 18.109375 46.1875 
Q 21.34375 51.125 25.703125 53.5625 
Q 30.078125 56 35.796875 56 
Q 45.21875 56 50.046875 50.171875 
Q 54.890625 44.34375 54.890625 33.015625 
z
" id="DejaVuSans-110"/>
      <path d="M 45.40625 46.390625 
L 45.40625 75.984375 
L 54.390625 75.984375 
L 54.390625 0 
L 45.40625 0 
L 45.40625 8.203125 
Q 42.578125 3.328125 38.25 0.953125 
Q 33.9375 -1.421875 27.875 -1.421875 
Q 17.96875 -1.421875 11.734375 6.484375 
Q 5.515625 14.40625 5.515625 27.296875 
Q 5.515625 40.1875 11.734375 48.09375 
Q 17.96875 56 27.875 56 
Q 33.9375 56 38.25 53.625 
Q 42.578125 51.265625 45.40625 46.390625 
z
M 14.796875 27.296875 
Q 14.796875 17.390625 18.875 11.75 
Q 22.953125 6.109375 30.078125 6.109375 
Q 37.203125 6.109375 41.296875 11.75 
Q 45.40625 17.390625 45.40625 27.296875 
Q 45.40625 37.203125 41.296875 42.84375 
Q 37.203125 48.484375 30.078125 48.484375 
Q 22.953125 48.484375 18.875 42.84375 
Q 14.796875 37.203125 14.796875 27.296875 
z
" id="DejaVuSans-100"/>
     </defs>
     <g transform="translate(28.509975 460.88445)scale(0.12 -0.12)">
      <use xlink:href="#DejaVuSans-66"/>
      <use x="68.603516" xlink:href="#DejaVuSans-97"/>
      <use x="129.882812" xlink:href="#DejaVuSans-99"/>
      <use x="184.863281" xlink:href="#DejaVuSans-107"/>
      <use x="242.773438" xlink:href="#DejaVuSans-103"/>
      <use x="306.25" xlink:href="#DejaVuSans-114"/>
      <use x="347.332031" xlink:href="#DejaVuSans-111"/>
      <use x="408.513672" xlink:href="#DejaVuSans-117"/>
      <use x="471.892578" xlink:href="#DejaVuSans-110"/>
      <use x="535.271484" xlink:href="#DejaVuSans-100"/>
     </g>
    </g>
    <g id="patch_13">
     <path d="M 106.11 469.0224 
L 231.66 469.0224 
L 231.66 446.124 
L 106.11 446.124 
z
" style="fill:#ffffff;stroke:#000000;stroke-linejoin:miter;"/>
    </g>
    <g id="text_11">
     <!-- 353.7 +/- 34.5 -->
     <defs>
      <path d="M 8.203125 72.90625 
L 55.078125 72.90625 
L 55.078125 68.703125 
L 28.609375 0 
L 18.3125 0 
L 43.21875 64.59375 
L 8.203125 64.59375 
z
" id="DejaVuSans-55"/>
      <path d="M 46 62.703125 
L 46 35.5 
L 73.1875 35.5 
L 73.1875 27.203125 
L 46 27.203125 
L 46 0 
L 37.796875 0 
L 37.796875 27.203125 
L 10.59375 27.203125 
L 10.59375 35.5 
L 37.796875 35.5 
L 37.796875 62.703125 
z
" id="DejaVuSans-43"/>
      <path d="M 25.390625 72.90625 
L 33.6875 72.90625 
L 8.296875 -9.28125 
L 0 -9.28125 
z
" id="DejaVuSans-47"/>
      <path d="M 4.890625 31.390625 
L 31.203125 31.390625 
L 31.203125 23.390625 
L 4.890625 23.390625 
z
" id="DejaVuSans-45"/>
     </defs>
     <g transform="translate(131.9775 460.88445)scale(0.12 -0.12)">
      <use xlink:href="#DejaVuSans-51"/>
      <use x="63.623047" xlink:href="#DejaVuSans-53"/>
      <use x="127.246094" xlink:href="#DejaVuSans-51"/>
      <use x="190.869141" xlink:href="#DejaVuSans-46"/>
      <use x="222.65625" xlink:href="#DejaVuSans-55"/>
      <use x="286.279297" xlink:href="#DejaVuSans-32"/>
      <use x="318.066406" xlink:href="#DejaVuSans-43"/>
      <use x="401.855469" xlink:href="#DejaVuSans-47"/>
      <use x="435.546875" xlink:href="#DejaVuSans-45"/>
      <use x="471.630859" xlink:href="#DejaVuSans-32"/>
      <use x="503.417969" xlink:href="#DejaVuSans-51"/>
      <use x="567.041016" xlink:href="#DejaVuSans-52"/>
      <use x="630.664062" xlink:href="#DejaVuSans-46"/>
      <use x="662.451172" xlink:href="#DejaVuSans-53"/>
     </g>
    </g>
    <g id="patch_14">
     <path d="M 231.66 469.0224 
L 357.21 469.0224 
L 357.21 446.124 
L 231.66 446.124 
z
" style="fill:#ffffff;stroke:#000000;stroke-linejoin:miter;"/>
    </g>
    <g id="text_12">
     <!-- 702.1 +/- 18.7 -->
     <g transform="translate(257.5275 460.88445)scale(0.12 -0.12)">
      <use xlink:href="#DejaVuSans-55"/>
      <use x="63.623047" xlink:href="#DejaVuSans-48"/>
      <use x="127.246094" xlink:href="#DejaVuSans-50"/>
      <use x="190.869141" xlink:href="#DejaVuSans-46"/>
      <use x="222.65625" xlink:href="#DejaVuSans-49"/>
      <use x="286.279297" xlink:href="#DejaVuSans-32"/>
      <use x="318.066406" xlink:href="#DejaVuSans-43"/>
      <use x="401.855469" xlink:href="#DejaVuSans-47"/>
      <use x="435.546875" xlink:href="#DejaVuSans-45"/>
      <use x="471.630859" xlink:href="#DejaVuSans-32"/>
      <use x="503.417969" xlink:href="#DejaVuSans-49"/>
      <use x="567.041016" xlink:href="#DejaVuSans-56"/>
      <use x="630.664062" xlink:href="#DejaVuSans-46"/>
      <use x="662.451172" xlink:href="#DejaVuSans-55"/>
     </g>
    </g>
    <g id="patch_15">
     <path d="M 357.21 469.0224 
L 482.76 469.0224 
L 482.76 446.124 
L 357.21 446.124 
z
" style="fill:#ffffff;stroke:#000000;stroke-linejoin:miter;"/>
    </g>
    <g id="text_13">
     <!-- 370.2 +/- 12.3 -->
     <g transform="translate(383.0775 460.88445)scale(0.12 -0.12)">
      <use xlink:href="#DejaVuSans-51"/>
      <use x="63.623047" xlink:href="#DejaVuSans-55"/>
      <use x="127.246094" xlink:href="#DejaVuSans-48"/>
      <use x="190.869141" xlink:href="#DejaVuSans-46"/>
      <use x="222.65625" xlink:href="#DejaVuSans-50"/>
      <use x="286.279297" xlink:href="#DejaVuSans-32"/>
      <use x="318.066406" xlink:href="#DejaVuSans-43"/>
      <use x="401.855469" xlink:href="#DejaVuSans-47"/>
      <use x="435.546875" xlink:href="#DejaVuSans-45"/>
      <use x="471.630859" xlink:href="#DejaVuSans-32"/>
      <use x="503.417969" xlink:href="#DejaVuSans-49"/>
      <use x="567.041016" xlink:href="#DejaVuSans-50"/>
      <use x="630.664062" xlink:href="#DejaVuSans-46"/>
      <use x="662.451172" xlink:href="#DejaVuSans-51"/>
     </g>
    </g>
    <g id="patch_16">
     <path d="M 482.76 469.0224 
L 608.31 469.0224 
L 608.31 446.124 
L 482.76 446.124 
z
" style="fill:#ffffff;stroke:#000000;stroke-linejoin:miter;"/>
    </g>
    <g id="text_14">
     <!-- 385.0 +/- 27.2 -->
     <g transform="translate(508.6275 460.88445)scale(0.12 -0.12)">
      <use xlink:href="#DejaVuSans-51"/>
      <use x="63.623047" xlink:href="#DejaVuSans-56"/>
      <use x="127.246094" xlink:href="#DejaVuSans-53"/>
      <use x="190.869141" xlink:href="#DejaVuSans-46"/>
      <use x="222.65625" xlink:href="#DejaVuSans-48"/>
      <use x="286.279297" xlink:href="#DejaVuSans-32"/>
      <use x="318.066406" xlink:href="#DejaVuSans-43"/>
      <use x="401.855469" xlink:href="#DejaVuSans-47"/>
      <use x="435.546875" xlink:href="#DejaVuSans-45"/>
      <use x="471.630859" xlink:href="#DejaVuSans-32"/>
      <use x="503.417969" xlink:href="#DejaVuSans-50"/>
      <use x="567.041016" xlink:href="#DejaVuSans-55"/>
      <use x="630.664062" xlink:href="#DejaVuSans-46"/>
      <use x="662.451172" xlink:href="#DejaVuSans-50"/>
     </g>
    </g>
   </g>
   <g id="matplotlib.axis_1">
    <g id="xtick_1">
     <g id="line2d_1">
      <defs>
       <path d="M 0 0 
L 0 2 
" id="m9d3d776144" style="stroke:#000000;"/>
      </defs>
      <g>
       <use style="stroke:#000000;" x="179.549735" xlink:href="#m9d3d776144" y="331.632"/>
      </g>
     </g>
     <g id="text_15">
      <!-- 0 -->
      <g transform="translate(173.823485 350.809188)scale(0.18 -0.18)">
       <use xlink:href="#DejaVuSans-48"/>
      </g>
     </g>
    </g>
    <g id="xtick_2">
     <g id="line2d_2">
      <g>
       <use style="stroke:#000000;" x="288.674779" xlink:href="#m9d3d776144" y="331.632"/>
      </g>
     </g>
     <g id="text_16">
      <!-- 1 -->
      <g transform="translate(282.948529 350.809188)scale(0.18 -0.18)">
       <use xlink:href="#DejaVuSans-49"/>
      </g>
     </g>
    </g>
    <g id="xtick_3">
     <g id="line2d_3">
      <g>
       <use style="stroke:#000000;" x="397.799823" xlink:href="#m9d3d776144" y="331.632"/>
      </g>
     </g>
     <g id="text_17">
      <!-- 10 -->
      <g transform="translate(386.347323 350.809188)scale(0.18 -0.18)">
       <use xlink:href="#DejaVuSans-49"/>
       <use x="63.623047" xlink:href="#DejaVuSans-48"/>
      </g>
     </g>
    </g>
    <g id="xtick_4">
     <g id="line2d_4">
      <g>
       <use style="stroke:#000000;" x="506.924867" xlink:href="#m9d3d776144" y="331.632"/>
      </g>
     </g>
     <g id="text_18">
      <!-- 100 -->
      <g transform="translate(489.746117 350.809188)scale(0.18 -0.18)">
       <use xlink:href="#DejaVuSans-49"/>
       <use x="63.623047" xlink:href="#DejaVuSans-48"/>
       <use x="127.246094" xlink:href="#DejaVuSans-48"/>
      </g>
     </g>
    </g>
    <g id="xtick_5">
     <g id="line2d_5">
      <defs>
       <path d="M 0 0 
L 0 2 
" id="mff2e209d26" style="stroke:#000000;stroke-width:0.6;"/>
      </defs>
      <g>
       <use style="stroke:#000000;stroke-width:0.6;" x="103.274602" xlink:href="#mff2e209d26" y="331.632"/>
      </g>
     </g>
    </g>
    <g id="xtick_6">
     <g id="line2d_6">
      <g>
       <use style="stroke:#000000;stroke-width:0.6;" x="122.490569" xlink:href="#mff2e209d26" y="331.632"/>
      </g>
     </g>
    </g>
    <g id="xtick_7">
     <g id="line2d_7">
      <g>
       <use style="stroke:#000000;stroke-width:0.6;" x="136.124514" xlink:href="#mff2e209d26" y="331.632"/>
      </g>
     </g>
    </g>
    <g id="xtick_8">
     <g id="line2d_8">
      <g>
       <use style="stroke:#000000;stroke-width:0.6;" x="146.699823" xlink:href="#mff2e209d26" y="331.632"/>
      </g>
     </g>
    </g>
    <g id="xtick_9">
     <g id="line2d_9">
      <g>
       <use style="stroke:#000000;stroke-width:0.6;" x="155.34048" xlink:href="#mff2e209d26" y="331.632"/>
      </g>
     </g>
    </g>
    <g id="xtick_10">
     <g id="line2d_10">
      <g>
       <use style="stroke:#000000;stroke-width:0.6;" x="162.646052" xlink:href="#mff2e209d26" y="331.632"/>
      </g>
     </g>
    </g>
    <g id="xtick_11">
     <g id="line2d_11">
      <g>
       <use style="stroke:#000000;stroke-width:0.6;" x="168.974425" xlink:href="#mff2e209d26" y="331.632"/>
      </g>
     </g>
    </g>
    <g id="xtick_12">
     <g id="line2d_12">
      <g>
       <use style="stroke:#000000;stroke-width:0.6;" x="174.556447" xlink:href="#mff2e209d26" y="331.632"/>
      </g>
     </g>
    </g>
    <g id="xtick_13">
     <g id="line2d_13">
      <g>
       <use style="stroke:#000000;stroke-width:0.6;" x="212.399646" xlink:href="#mff2e209d26" y="331.632"/>
      </g>
     </g>
    </g>
    <g id="xtick_14">
     <g id="line2d_14">
      <g>
       <use style="stroke:#000000;stroke-width:0.6;" x="231.615613" xlink:href="#mff2e209d26" y="331.632"/>
      </g>
     </g>
    </g>
    <g id="xtick_15">
     <g id="line2d_15">
      <g>
       <use style="stroke:#000000;stroke-width:0.6;" x="245.249558" xlink:href="#mff2e209d26" y="331.632"/>
      </g>
     </g>
    </g>
    <g id="xtick_16">
     <g id="line2d_16">
      <g>
       <use style="stroke:#000000;stroke-width:0.6;" x="255.824867" xlink:href="#mff2e209d26" y="331.632"/>
      </g>
     </g>
    </g>
    <g id="xtick_17">
     <g id="line2d_17">
      <g>
       <use style="stroke:#000000;stroke-width:0.6;" x="264.465524" xlink:href="#mff2e209d26" y="331.632"/>
      </g>
     </g>
    </g>
    <g id="xtick_18">
     <g id="line2d_18">
      <g>
       <use style="stroke:#000000;stroke-width:0.6;" x="271.771096" xlink:href="#mff2e209d26" y="331.632"/>
      </g>
     </g>
    </g>
    <g id="xtick_19">
     <g id="line2d_19">
      <g>
       <use style="stroke:#000000;stroke-width:0.6;" x="278.09947" xlink:href="#mff2e209d26" y="331.632"/>
      </g>
     </g>
    </g>
    <g id="xtick_20">
     <g id="line2d_20">
      <g>
       <use style="stroke:#000000;stroke-width:0.6;" x="283.681491" xlink:href="#mff2e209d26" y="331.632"/>
      </g>
     </g>
    </g>
    <g id="xtick_21">
     <g id="line2d_21">
      <g>
       <use style="stroke:#000000;stroke-width:0.6;" x="321.524691" xlink:href="#mff2e209d26" y="331.632"/>
      </g>
     </g>
    </g>
    <g id="xtick_22">
     <g id="line2d_22">
      <g>
       <use style="stroke:#000000;stroke-width:0.6;" x="340.740657" xlink:href="#mff2e209d26" y="331.632"/>
      </g>
     </g>
    </g>
    <g id="xtick_23">
     <g id="line2d_23">
      <g>
       <use style="stroke:#000000;stroke-width:0.6;" x="354.374602" xlink:href="#mff2e209d26" y="331.632"/>
      </g>
     </g>
    </g>
    <g id="xtick_24">
     <g id="line2d_24">
      <g>
       <use style="stroke:#000000;stroke-width:0.6;" x="364.949912" xlink:href="#mff2e209d26" y="331.632"/>
      </g>
     </g>
    </g>
    <g id="xtick_25">
     <g id="line2d_25">
      <g>
       <use style="stroke:#000000;stroke-width:0.6;" x="373.590569" xlink:href="#mff2e209d26" y="331.632"/>
      </g>
     </g>
    </g>
    <g id="xtick_26">
     <g id="line2d_26">
      <g>
       <use style="stroke:#000000;stroke-width:0.6;" x="380.89614" xlink:href="#mff2e209d26" y="331.632"/>
      </g>
     </g>
    </g>
    <g id="xtick_27">
     <g id="line2d_27">
      <g>
       <use style="stroke:#000000;stroke-width:0.6;" x="387.224514" xlink:href="#mff2e209d26" y="331.632"/>
      </g>
     </g>
    </g>
    <g id="xtick_28">
     <g id="line2d_28">
      <g>
       <use style="stroke:#000000;stroke-width:0.6;" x="392.806535" xlink:href="#mff2e209d26" y="331.632"/>
      </g>
     </g>
    </g>
    <g id="xtick_29">
     <g id="line2d_29">
      <g>
       <use style="stroke:#000000;stroke-width:0.6;" x="430.649735" xlink:href="#mff2e209d26" y="331.632"/>
      </g>
     </g>
    </g>
    <g id="xtick_30">
     <g id="line2d_30">
      <g>
       <use style="stroke:#000000;stroke-width:0.6;" x="449.865701" xlink:href="#mff2e209d26" y="331.632"/>
      </g>
     </g>
    </g>
    <g id="xtick_31">
     <g id="line2d_31">
      <g>
       <use style="stroke:#000000;stroke-width:0.6;" x="463.499646" xlink:href="#mff2e209d26" y="331.632"/>
      </g>
     </g>
    </g>
    <g id="xtick_32">
     <g id="line2d_32">
      <g>
       <use style="stroke:#000000;stroke-width:0.6;" x="474.074956" xlink:href="#mff2e209d26" y="331.632"/>
      </g>
     </g>
    </g>
    <g id="xtick_33">
     <g id="line2d_33">
      <g>
       <use style="stroke:#000000;stroke-width:0.6;" x="482.715613" xlink:href="#mff2e209d26" y="331.632"/>
      </g>
     </g>
    </g>
    <g id="xtick_34">
     <g id="line2d_34">
      <g>
       <use style="stroke:#000000;stroke-width:0.6;" x="490.021184" xlink:href="#mff2e209d26" y="331.632"/>
      </g>
     </g>
    </g>
    <g id="xtick_35">
     <g id="line2d_35">
      <g>
       <use style="stroke:#000000;stroke-width:0.6;" x="496.349558" xlink:href="#mff2e209d26" y="331.632"/>
      </g>
     </g>
    </g>
    <g id="xtick_36">
     <g id="line2d_36">
      <g>
       <use style="stroke:#000000;stroke-width:0.6;" x="501.931579" xlink:href="#mff2e209d26" y="331.632"/>
      </g>
     </g>
    </g>
    <g id="xtick_37">
     <g id="line2d_37">
      <g>
       <use style="stroke:#000000;stroke-width:0.6;" x="539.774779" xlink:href="#mff2e209d26" y="331.632"/>
      </g>
     </g>
    </g>
    <g id="xtick_38">
     <g id="line2d_38">
      <g>
       <use style="stroke:#000000;stroke-width:0.6;" x="558.990745" xlink:href="#mff2e209d26" y="331.632"/>
      </g>
     </g>
    </g>
    <g id="xtick_39">
     <g id="line2d_39">
      <g>
       <use style="stroke:#000000;stroke-width:0.6;" x="572.624691" xlink:href="#mff2e209d26" y="331.632"/>
      </g>
     </g>
    </g>
    <g id="xtick_40">
     <g id="line2d_40">
      <g>
       <use style="stroke:#000000;stroke-width:0.6;" x="583.2" xlink:href="#mff2e209d26" y="331.632"/>
      </g>
     </g>
    </g>
    <g id="text_19">
     <!-- Tetrahydropapaverine (uM) -->
     <defs>
      <path d="M 56.203125 29.59375 
L 56.203125 25.203125 
L 14.890625 25.203125 
Q 15.484375 15.921875 20.484375 11.0625 
Q 25.484375 6.203125 34.421875 6.203125 
Q 39.59375 6.203125 44.453125 7.46875 
Q 49.3125 8.734375 54.109375 11.28125 
L 54.109375 2.78125 
Q 49.265625 0.734375 44.1875 -0.34375 
Q 39.109375 -1.421875 33.890625 -1.421875 
Q 20.796875 -1.421875 13.15625 6.1875 
Q 5.515625 13.8125 5.515625 26.8125 
Q 5.515625 40.234375 12.765625 48.109375 
Q 20.015625 56 32.328125 56 
Q 43.359375 56 49.78125 48.890625 
Q 56.203125 41.796875 56.203125 29.59375 
z
M 47.21875 32.234375 
Q 47.125 39.59375 43.09375 43.984375 
Q 39.0625 48.390625 32.421875 48.390625 
Q 24.90625 48.390625 20.390625 44.140625 
Q 15.875 39.890625 15.1875 32.171875 
z
" id="DejaVuSans-101"/>
      <path d="M 18.3125 70.21875 
L 18.3125 54.6875 
L 36.8125 54.6875 
L 36.8125 47.703125 
L 18.3125 47.703125 
L 18.3125 18.015625 
Q 18.3125 11.328125 20.140625 9.421875 
Q 21.96875 7.515625 27.59375 7.515625 
L 36.8125 7.515625 
L 36.8125 0 
L 27.59375 0 
Q 17.1875 0 13.234375 3.875 
Q 9.28125 7.765625 9.28125 18.015625 
L 9.28125 47.703125 
L 2.6875 47.703125 
L 2.6875 54.6875 
L 9.28125 54.6875 
L 9.28125 70.21875 
z
" id="DejaVuSans-116"/>
      <path d="M 54.890625 33.015625 
L 54.890625 0 
L 45.90625 0 
L 45.90625 32.71875 
Q 45.90625 40.484375 42.875 44.328125 
Q 39.84375 48.1875 33.796875 48.1875 
Q 26.515625 48.1875 22.3125 43.546875 
Q 18.109375 38.921875 18.109375 30.90625 
L 18.109375 0 
L 9.078125 0 
L 9.078125 75.984375 
L 18.109375 75.984375 
L 18.109375 46.1875 
Q 21.34375 51.125 25.703125 53.5625 
Q 30.078125 56 35.796875 56 
Q 45.21875 56 50.046875 50.171875 
Q 54.890625 44.34375 54.890625 33.015625 
z
" id="DejaVuSans-104"/>
      <path d="M 32.171875 -5.078125 
Q 28.375 -14.84375 24.75 -17.8125 
Q 21.140625 -20.796875 15.09375 -20.796875 
L 7.90625 -20.796875 
L 7.90625 -13.28125 
L 13.1875 -13.28125 
Q 16.890625 -13.28125 18.9375 -11.515625 
Q 21 -9.765625 23.484375 -3.21875 
L 25.09375 0.875 
L 2.984375 54.6875 
L 12.5 54.6875 
L 29.59375 11.921875 
L 46.6875 54.6875 
L 56.203125 54.6875 
z
" id="DejaVuSans-121"/>
      <path d="M 18.109375 8.203125 
L 18.109375 -20.796875 
L 9.078125 -20.796875 
L 9.078125 54.6875 
L 18.109375 54.6875 
L 18.109375 46.390625 
Q 20.953125 51.265625 25.265625 53.625 
Q 29.59375 56 35.59375 56 
Q 45.5625 56 51.78125 48.09375 
Q 58.015625 40.1875 58.015625 27.296875 
Q 58.015625 14.40625 51.78125 6.484375 
Q 45.5625 -1.421875 35.59375 -1.421875 
Q 29.59375 -1.421875 25.265625 0.953125 
Q 20.953125 3.328125 18.109375 8.203125 
z
M 48.6875 27.296875 
Q 48.6875 37.203125 44.609375 42.84375 
Q 40.53125 48.484375 33.40625 48.484375 
Q 26.265625 48.484375 22.1875 42.84375 
Q 18.109375 37.203125 18.109375 27.296875 
Q 18.109375 17.390625 22.1875 11.75 
Q 26.265625 6.109375 33.40625 6.109375 
Q 40.53125 6.109375 44.609375 11.75 
Q 48.6875 17.390625 48.6875 27.296875 
z
" id="DejaVuSans-112"/>
      <path d="M 2.984375 54.6875 
L 12.5 54.6875 
L 29.59375 8.796875 
L 46.6875 54.6875 
L 56.203125 54.6875 
L 35.6875 0 
L 23.484375 0 
z
" id="DejaVuSans-118"/>
      <path d="M 9.421875 54.6875 
L 18.40625 54.6875 
L 18.40625 0 
L 9.421875 0 
z
M 9.421875 75.984375 
L 18.40625 75.984375 
L 18.40625 64.59375 
L 9.421875 64.59375 
z
" id="DejaVuSans-105"/>
     </defs>
     <g transform="translate(194.523438 373.7495)scale(0.2 -0.2)">
      <use xlink:href="#DejaVuSans-84"/>
      <use x="60.818359" xlink:href="#DejaVuSans-101"/>
      <use x="122.341797" xlink:href="#DejaVuSans-116"/>
      <use x="161.550781" xlink:href="#DejaVuSans-114"/>
      <use x="202.664062" xlink:href="#DejaVuSans-97"/>
      <use x="263.943359" xlink:href="#DejaVuSans-104"/>
      <use x="327.322266" xlink:href="#DejaVuSans-121"/>
      <use x="386.501953" xlink:href="#DejaVuSans-100"/>
      <use x="449.978516" xlink:href="#DejaVuSans-114"/>
      <use x="491.060547" xlink:href="#DejaVuSans-111"/>
      <use x="552.242188" xlink:href="#DejaVuSans-112"/>
      <use x="615.71875" xlink:href="#DejaVuSans-97"/>
      <use x="676.998047" xlink:href="#DejaVuSans-112"/>
      <use x="740.474609" xlink:href="#DejaVuSans-97"/>
      <use x="801.753906" xlink:href="#DejaVuSans-118"/>
      <use x="860.933594" xlink:href="#DejaVuSans-101"/>
      <use x="922.457031" xlink:href="#DejaVuSans-114"/>
      <use x="963.570312" xlink:href="#DejaVuSans-105"/>
      <use x="991.353516" xlink:href="#DejaVuSans-110"/>
      <use x="1054.732422" xlink:href="#DejaVuSans-101"/>
      <use x="1116.255859" xlink:href="#DejaVuSans-32"/>
      <use x="1148.042969" xlink:href="#DejaVuSans-40"/>
      <use x="1187.056641" xlink:href="#DejaVuSans-117"/>
      <use x="1250.435547" xlink:href="#DejaVuSans-77"/>
      <use x="1336.714844" xlink:href="#DejaVuSans-41"/>
     </g>
    </g>
   </g>
   <g id="matplotlib.axis_2">
    <g id="ytick_1">
     <g id="line2d_41">
      <defs>
       <path d="M 0 0 
L -2 0 
" id="mfe68433c7b" style="stroke:#000000;"/>
      </defs>
      <g>
       <use style="stroke:#000000;" x="81" xlink:href="#mfe68433c7b" y="319.141964"/>
      </g>
     </g>
     <g id="text_20">
      <!-- 0 -->
      <g transform="translate(64.0475 325.980557)scale(0.18 -0.18)">
       <use xlink:href="#DejaVuSans-48"/>
      </g>
     </g>
    </g>
    <g id="ytick_2">
     <g id="line2d_42">
      <g>
       <use style="stroke:#000000;" x="81" xlink:href="#mfe68433c7b" y="260.333852"/>
      </g>
     </g>
     <g id="text_21">
      <!-- 2 -->
      <g transform="translate(64.0475 267.172446)scale(0.18 -0.18)">
       <use xlink:href="#DejaVuSans-50"/>
      </g>
     </g>
    </g>
    <g id="ytick_3">
     <g id="line2d_43">
      <g>
       <use style="stroke:#000000;" x="81" xlink:href="#mfe68433c7b" y="201.52574"/>
      </g>
     </g>
     <g id="text_22">
      <!-- 4 -->
      <g transform="translate(64.0475 208.364334)scale(0.18 -0.18)">
       <use xlink:href="#DejaVuSans-52"/>
      </g>
     </g>
    </g>
    <g id="ytick_4">
     <g id="line2d_44">
      <g>
       <use style="stroke:#000000;" x="81" xlink:href="#mfe68433c7b" y="142.717629"/>
      </g>
     </g>
     <g id="text_23">
      <!-- 6 -->
      <g transform="translate(64.0475 149.556222)scale(0.18 -0.18)">
       <use xlink:href="#DejaVuSans-54"/>
      </g>
     </g>
    </g>
    <g id="ytick_5">
     <g id="line2d_45">
      <g>
       <use style="stroke:#000000;" x="81" xlink:href="#mfe68433c7b" y="83.909517"/>
      </g>
     </g>
     <g id="text_24">
      <!-- 8 -->
      <g transform="translate(64.0475 90.748111)scale(0.18 -0.18)">
       <use xlink:href="#DejaVuSans-56"/>
      </g>
     </g>
    </g>
    <g id="text_25">
     <!-- $(RFU/OD) \times 10^4$ -->
     <defs>
      <path d="M 25.203125 64.796875 
L 20.21875 38.921875 
L 32.90625 38.921875 
Q 40.375 38.921875 44.984375 43.046875 
Q 49.609375 47.171875 49.609375 53.8125 
Q 49.609375 59.125 46.5 61.953125 
Q 43.40625 64.796875 37.59375 64.796875 
z
M 43.3125 35.015625 
Q 46.4375 34.28125 48.515625 31.390625 
Q 50.59375 28.515625 53.328125 19.921875 
L 59.515625 0 
L 49.125 0 
L 43.40625 18.703125 
Q 41.21875 25.921875 38.328125 28.359375 
Q 35.453125 30.8125 29.5 30.8125 
L 18.609375 30.8125 
L 12.59375 0 
L 2.6875 0 
L 16.890625 72.90625 
L 39.109375 72.90625 
Q 49.21875 72.90625 54.609375 68.328125 
Q 60.015625 63.765625 60.015625 55.171875 
Q 60.015625 47.5625 55.421875 41.984375 
Q 50.828125 36.421875 43.3125 35.015625 
z
" id="DejaVuSans-Oblique-82"/>
      <path d="M 16.890625 72.90625 
L 58.6875 72.90625 
L 57.078125 64.59375 
L 25.09375 64.59375 
L 20.90625 43.109375 
L 49.8125 43.109375 
L 48.1875 34.8125 
L 19.28125 34.8125 
L 12.5 0 
L 2.6875 0 
z
" id="DejaVuSans-Oblique-70"/>
      <path d="M 15.484375 72.90625 
L 25.390625 72.90625 
L 16.796875 28.609375 
Q 16.265625 25.640625 16.046875 23.703125 
Q 15.828125 21.78125 15.828125 20.3125 
Q 15.828125 13.578125 19.578125 10.078125 
Q 23.34375 6.59375 30.609375 6.59375 
Q 40.046875 6.59375 45.28125 11.765625 
Q 50.53125 16.9375 52.78125 28.609375 
L 61.375 72.90625 
L 71.296875 72.90625 
L 62.5 27.390625 
Q 59.625 12.640625 51.5625 5.609375 
Q 43.5 -1.421875 29.5 -1.421875 
Q 18.5625 -1.421875 12.1875 4.078125 
Q 5.8125 9.578125 5.8125 19 
Q 5.8125 20.703125 6.046875 22.828125 
Q 6.296875 24.953125 6.78125 27.390625 
z
" id="DejaVuSans-Oblique-85"/>
      <path d="M 45.609375 66.21875 
Q 37.5 66.21875 31.296875 62.28125 
Q 25.09375 58.34375 20.515625 50.296875 
Q 17.578125 45.171875 16.03125 39.40625 
Q 14.5 33.640625 14.5 27.78125 
Q 14.5 17.625 19.359375 12.109375 
Q 24.21875 6.59375 33.109375 6.59375 
Q 41.109375 6.59375 47.375 10.5625 
Q 53.65625 14.546875 58.109375 22.40625 
Q 61.078125 27.6875 62.640625 33.46875 
Q 64.203125 39.265625 64.203125 45.015625 
Q 64.203125 55.125 59.3125 60.671875 
Q 54.4375 66.21875 45.609375 66.21875 
z
M 32.8125 -1.421875 
Q 19.390625 -1.421875 11.6875 6.53125 
Q 4 14.5 4 28.328125 
Q 4 36.234375 7 44.484375 
Q 10.015625 52.734375 15.28125 59.1875 
Q 21.484375 66.75 29.09375 70.484375 
Q 36.71875 74.21875 45.90625 74.21875 
Q 59.28125 74.21875 66.984375 66.328125 
Q 74.703125 58.453125 74.703125 44.828125 
Q 74.703125 36.421875 71.765625 28.3125 
Q 68.84375 20.21875 63.375 13.625 
Q 57.125 6 49.578125 2.28125 
Q 42.046875 -1.421875 32.8125 -1.421875 
z
" id="DejaVuSans-Oblique-79"/>
      <path d="M 16.890625 72.90625 
L 38.09375 72.90625 
Q 54.984375 72.90625 63.59375 65.75 
Q 72.21875 58.59375 72.21875 44.484375 
Q 72.21875 35.15625 68.9375 26.53125 
Q 65.671875 17.921875 59.90625 12.015625 
Q 54.109375 5.953125 45.171875 2.96875 
Q 36.234375 0 24.03125 0 
L 2.6875 0 
z
M 25.203125 64.796875 
L 14.203125 8.109375 
L 27.09375 8.109375 
Q 43.65625 8.109375 52.734375 17.625 
Q 61.8125 27.15625 61.8125 44.484375 
Q 61.8125 54.984375 55.953125 59.890625 
Q 50.09375 64.796875 37.59375 64.796875 
z
" id="DejaVuSans-Oblique-68"/>
      <path d="M 70.125 53.71875 
L 47.796875 31.296875 
L 70.125 8.984375 
L 64.3125 3.078125 
L 41.890625 25.484375 
L 19.484375 3.078125 
L 13.71875 8.984375 
L 35.984375 31.296875 
L 13.71875 53.71875 
L 19.484375 59.625 
L 41.890625 37.203125 
L 64.3125 59.625 
z
" id="DejaVuSans-215"/>
     </defs>
     <g transform="translate(55.888125 270.8416)rotate(-90)scale(0.2 -0.2)">
      <use transform="translate(0 0.684375)" xlink:href="#DejaVuSans-40"/>
      <use transform="translate(39.013672 0.684375)" xlink:href="#DejaVuSans-Oblique-82"/>
      <use transform="translate(108.496094 0.684375)" xlink:href="#DejaVuSans-Oblique-70"/>
      <use transform="translate(166.015625 0.684375)" xlink:href="#DejaVuSans-Oblique-85"/>
      <use transform="translate(239.208984 0.684375)" xlink:href="#DejaVuSans-47"/>
      <use transform="translate(272.900391 0.684375)" xlink:href="#DejaVuSans-Oblique-79"/>
      <use transform="translate(351.611328 0.684375)" xlink:href="#DejaVuSans-Oblique-68"/>
      <use transform="translate(428.613281 0.684375)" xlink:href="#DejaVuSans-41"/>
      <use transform="translate(487.109375 0.684375)" xlink:href="#DejaVuSans-215"/>
      <use transform="translate(590.380859 0.684375)" xlink:href="#DejaVuSans-49"/>
      <use transform="translate(654.003906 0.684375)" xlink:href="#DejaVuSans-48"/>
      <use transform="translate(718.583984 38.965625)scale(0.7)" xlink:href="#DejaVuSans-52"/>
     </g>
    </g>
   </g>
   <g id="line2d_46">
    <path clip-path="url(#p74b2d185e6)" d="M 70.425164 319.141458 
L 243.12989 319.027618 
L 279.270186 318.786765 
L 301.562846 318.427903 
L 317.89438 317.95203 
L 330.85197 317.359157 
L 341.602123 316.650913 
L 350.840131 315.824321 
L 358.945879 314.879876 
L 366.189932 313.81545 
L 372.754333 312.629177 
L 378.767621 311.319565 
L 384.339806 309.881173 
L 389.551374 308.30835 
L 394.462807 306.595413 
L 399.12057 304.736814 
L 403.57151 302.722252 
L 407.851402 300.541366 
L 411.987857 298.184025 
L 416.010424 295.635245 
L 419.94142 292.880541 
L 423.804475 289.900861 
L 427.616842 286.678404 
L 431.402485 283.186078 
L 435.183341 279.393698 
L 438.978828 275.269168 
L 442.810073 270.774457 
L 446.702106 265.862336 
L 450.688369 260.469022 
L 454.804931 254.520212 
L 459.102066 247.913797 
L 463.6598 240.491416 
L 468.600513 232.010812 
L 474.174849 221.986829 
L 481.054224 209.132314 
L 503.097158 167.586556 
L 508.61977 157.869066 
L 513.5356 149.659978 
L 518.084703 142.488518 
L 522.389276 136.111395 
L 526.522073 130.380897 
L 530.533178 125.194762 
L 534.458993 120.478439 
L 538.329886 116.172375 
L 542.169837 112.23054 
L 546.001623 108.613439 
L 549.846 105.288402 
L 550.350088 104.874189 
L 550.350088 104.874189 
" style="fill:none;stroke:#0ad12e;stroke-linecap:square;stroke-width:1.5;"/>
   </g>
   <g id="line2d_47">
    <path clip-path="url(#p74b2d185e6)" d="M 70.425164 319.13939 
L 173.221835 319.020919 
L 202.559591 318.779037 
L 221.040777 318.417887 
L 234.674722 317.937975 
L 245.545313 317.337958 
L 254.62547 316.615831 
L 262.242493 315.795009 
L 268.982977 314.853378 
L 275.041308 313.788883 
L 280.553066 312.599863 
L 285.616617 311.285133 
L 290.305619 309.844043 
L 294.780952 308.236243 
L 298.965351 306.498431 
L 302.985614 304.587837 
L 306.853096 302.501227 
L 310.578148 300.236915 
L 314.1702 297.794854 
L 317.702119 295.125652 
L 321.168382 292.228928 
L 324.620811 289.053755 
L 328.04568 285.602994 
L 331.528325 281.773909 
L 335.04048 277.575892 
L 338.600335 272.970737 
L 342.256884 267.873956 
L 346.076774 262.161358 
L 350.100363 255.735858 
L 354.43428 248.385998 
L 359.267548 239.738739 
L 365.09235 228.839125 
L 375.601462 208.586253 
L 383.192774 194.211508 
L 388.525092 184.580992 
L 393.12191 176.72664 
L 397.323988 169.978495 
L 401.271813 164.052752 
L 405.048286 158.780072 
L 408.706198 154.050602 
L 412.276809 149.792892 
L 415.800186 145.933561 
L 419.305974 142.420775 
L 422.808451 139.223886 
L 426.336581 136.303235 
L 429.903856 133.637417 
L 433.540079 131.19673 
L 437.268712 128.961514 
L 441.11639 126.914434 
L 445.113625 125.040466 
L 449.294026 123.327477 
L 453.696033 121.765496 
L 458.371703 120.34434 
L 463.378521 119.057326 
L 468.791633 117.898255 
L 474.708609 116.862003 
L 481.258299 115.944615 
L 488.616496 115.143104 
L 497.039586 114.45475 
L 506.913492 113.877554 
L 518.867452 113.409693 
L 534.030262 113.049353 
L 550.350088 112.833261 
L 550.350088 112.833261 
" style="fill:none;stroke:#0a95d1;stroke-linecap:square;stroke-width:1.5;"/>
   </g>
   <g id="line2d_48">
    <path clip-path="url(#p74b2d185e6)" d="M 70.425164 319.140897 
L 195.496437 319.026448 
L 225.736933 318.783685 
L 244.352988 318.4234 
L 257.911407 317.95011 
L 268.803119 317.353934 
L 277.802811 316.644267 
L 285.490069 315.821892 
L 292.322622 314.870143 
L 298.389728 313.803551 
L 303.853631 312.622931 
L 308.907089 311.307291 
L 313.613455 309.853453 
L 318.022123 308.258855 
L 322.172371 306.521608 
L 326.095967 304.640546 
L 329.868689 302.586528 
L 333.501337 300.356467 
L 337.046346 297.917526 
L 340.503574 295.266164 
L 343.873759 292.400773 
L 347.192762 289.28792 
L 350.487769 285.893287 
L 353.778937 282.182838 
L 357.080659 278.124162 
L 360.428667 273.651775 
L 363.823369 268.740652 
L 367.285231 263.337125 
L 370.868227 257.325547 
L 374.58758 250.644685 
L 378.519121 243.118519 
L 382.77165 234.48611 
L 387.520268 224.326586 
L 393.213363 211.594293 
L 402.767512 189.573735 
L 410.904047 171.063143 
L 416.25988 159.423092 
L 420.838835 149.989768 
L 425.000753 141.914283 
L 428.894175 134.836743 
L 432.600024 128.554032 
L 436.17427 122.925508 
L 439.654781 117.853617 
L 443.070609 113.263907 
L 446.448104 109.094119 
L 449.806898 105.297576 
L 453.164866 101.83502 
L 456.541315 98.670896 
L 459.952408 95.777436 
L 463.420078 93.126493 
L 466.963377 90.696989 
L 470.605544 88.469101 
L 474.37071 86.426771 
L 478.289857 84.554536 
L 482.395103 82.840935 
L 486.72592 81.275662 
L 491.328761 79.850397 
L 496.262571 78.557729 
L 501.600465 77.391833 
L 507.436779 76.347979 
L 513.895954 75.422485 
L 521.150652 74.612223 
L 529.445893 73.914912 
L 539.153311 73.328544 
L 550.350088 72.868558 
L 550.350088 72.868558 
" style="fill:none;stroke:#710ad1;stroke-linecap:square;stroke-width:1.5;"/>
   </g>
   <g id="line2d_49">
    <path clip-path="url(#p74b2d185e6)" d="M 70.425164 319.140518 
L 196.335263 319.021728 
L 227.921302 318.777841 
L 247.562315 318.417382 
L 262.035086 317.939999 
L 273.597773 317.342717 
L 283.152435 316.63324 
L 291.436757 315.798468 
L 298.678414 314.848354 
L 305.126556 313.782586 
L 311.023848 312.584421 
L 316.400048 311.268236 
L 321.406535 309.815845 
L 326.095967 308.225144 
L 330.510137 306.494761 
L 334.727658 304.602653 
L 338.765321 302.546601 
L 342.637854 300.325601 
L 346.393311 297.916187 
L 350.067936 295.293676 
L 353.658804 292.457833 
L 357.220337 289.35986 
L 360.740461 286.001719 
L 364.258165 282.336545 
L 367.778906 278.345667 
L 371.346837 273.96194 
L 374.97273 269.150497 
L 378.679021 263.85936 
L 382.52698 257.972206 
L 386.553802 251.396924 
L 390.831199 243.978144 
L 395.506375 235.412285 
L 400.840417 225.158048 
L 407.688195 211.477003 
L 424.308292 178.078489 
L 429.722969 167.822307 
L 434.43451 159.363458 
L 438.749686 152.064462 
L 442.805489 145.633613 
L 446.685215 139.892518 
L 450.439303 134.729046 
L 454.1095 130.054833 
L 457.720342 125.812461 
L 461.299374 121.947252 
L 464.869339 118.41652 
L 468.448661 115.187056 
L 472.059251 112.22713 
L 475.72182 109.510928 
L 479.456926 107.016988 
L 483.289215 104.725271 
L 487.243835 102.619717 
L 491.348515 100.686763 
L 495.636767 98.914074 
L 500.148005 97.291157 
L 504.92894 95.809326 
L 510.035414 94.461624 
L 515.537357 93.242187 
L 521.523909 92.146215 
L 528.112344 91.169745 
L 535.461625 90.309571 
L 543.794157 89.563223 
L 550.350088 89.109323 
L 550.350088 89.109323 
" style="fill:none;stroke:#d10a7b;stroke-linecap:square;stroke-width:1.5;"/>
   </g>
   <g id="line2d_50">
    <defs>
     <path d="M 0 3 
C 0.795609 3 1.55874 2.683901 2.12132 2.12132 
C 2.683901 1.55874 3 0.795609 3 0 
C 3 -0.795609 2.683901 -1.55874 2.12132 -2.12132 
C 1.55874 -2.683901 0.795609 -3 0 -3 
C -0.795609 -3 -1.55874 -2.683901 -2.12132 -2.12132 
C -2.683901 -1.55874 -3 -0.795609 -3 0 
C -3 0.795609 -2.683901 1.55874 -2.12132 2.12132 
C -1.55874 2.683901 -0.795609 3 0 3 
z
" id="m30fd0a600e" style="stroke:#0ad12e;"/>
    </defs>
    <g clip-path="url(#p74b2d185e6)">
     <use style="fill:#0ad12e;stroke:#0ad12e;" x="-1" xlink:href="#m30fd0a600e" y="318.154265"/>
     <use style="fill:#0ad12e;stroke:#0ad12e;" x="179.549735" xlink:href="#m30fd0a600e" y="318.154188"/>
     <use style="fill:#0ad12e;stroke:#0ad12e;" x="222.974956" xlink:href="#m30fd0a600e" y="318.083948"/>
     <use style="fill:#0ad12e;stroke:#0ad12e;" x="255.824867" xlink:href="#m30fd0a600e" y="317.942866"/>
     <use style="fill:#0ad12e;stroke:#0ad12e;" x="288.674779" xlink:href="#m30fd0a600e" y="317.844906"/>
     <use style="fill:#0ad12e;stroke:#0ad12e;" x="332.1" xlink:href="#m30fd0a600e" y="317.497873"/>
     <use style="fill:#0ad12e;stroke:#0ad12e;" x="364.949912" xlink:href="#m30fd0a600e" y="314.864063"/>
     <use style="fill:#0ad12e;stroke:#0ad12e;" x="397.799823" xlink:href="#m30fd0a600e" y="308.625258"/>
     <use style="fill:#0ad12e;stroke:#0ad12e;" x="441.225044" xlink:href="#m30fd0a600e" y="264.72453"/>
     <use style="fill:#0ad12e;stroke:#0ad12e;" x="474.074956" xlink:href="#m30fd0a600e" y="216.357564"/>
     <use style="fill:#0ad12e;stroke:#0ad12e;" x="506.924867" xlink:href="#m30fd0a600e" y="156.893698"/>
     <use style="fill:#0ad12e;stroke:#0ad12e;" x="550.350088" xlink:href="#m30fd0a600e" y="99.922422"/>
    </g>
   </g>
   <g id="line2d_51">
    <g clip-path="url(#p74b2d185e6)">
     <use style="fill:#0ad12e;stroke:#0ad12e;" x="-1" xlink:href="#m30fd0a600e" y="318.145812"/>
     <use style="fill:#0ad12e;stroke:#0ad12e;" x="179.549735" xlink:href="#m30fd0a600e" y="318.145874"/>
     <use style="fill:#0ad12e;stroke:#0ad12e;" x="222.974956" xlink:href="#m30fd0a600e" y="318.090847"/>
     <use style="fill:#0ad12e;stroke:#0ad12e;" x="255.824867" xlink:href="#m30fd0a600e" y="317.959918"/>
     <use style="fill:#0ad12e;stroke:#0ad12e;" x="288.674779" xlink:href="#m30fd0a600e" y="317.800843"/>
     <use style="fill:#0ad12e;stroke:#0ad12e;" x="332.1" xlink:href="#m30fd0a600e" y="317.069458"/>
     <use style="fill:#0ad12e;stroke:#0ad12e;" x="364.949912" xlink:href="#m30fd0a600e" y="314.799438"/>
     <use style="fill:#0ad12e;stroke:#0ad12e;" x="397.799823" xlink:href="#m30fd0a600e" y="308.503456"/>
     <use style="fill:#0ad12e;stroke:#0ad12e;" x="441.225044" xlink:href="#m30fd0a600e" y="270.914679"/>
     <use style="fill:#0ad12e;stroke:#0ad12e;" x="474.074956" xlink:href="#m30fd0a600e" y="222.545867"/>
     <use style="fill:#0ad12e;stroke:#0ad12e;" x="506.924867" xlink:href="#m30fd0a600e" y="164.075365"/>
     <use style="fill:#0ad12e;stroke:#0ad12e;" x="550.350088" xlink:href="#m30fd0a600e" y="99.887843"/>
    </g>
   </g>
   <g id="line2d_52">
    <g clip-path="url(#p74b2d185e6)">
     <use style="fill:#0ad12e;stroke:#0ad12e;" x="288.674779" xlink:href="#m30fd0a600e" y="317.883091"/>
     <use style="fill:#0ad12e;stroke:#0ad12e;" x="332.1" xlink:href="#m30fd0a600e" y="317.169514"/>
     <use style="fill:#0ad12e;stroke:#0ad12e;" x="364.949912" xlink:href="#m30fd0a600e" y="315.37208"/>
     <use style="fill:#0ad12e;stroke:#0ad12e;" x="397.799823" xlink:href="#m30fd0a600e" y="310.044419"/>
     <use style="fill:#0ad12e;stroke:#0ad12e;" x="441.225044" xlink:href="#m30fd0a600e" y="277.706682"/>
     <use style="fill:#0ad12e;stroke:#0ad12e;" x="474.074956" xlink:href="#m30fd0a600e" y="223.06321"/>
     <use style="fill:#0ad12e;stroke:#0ad12e;" x="506.924867" xlink:href="#m30fd0a600e" y="167.530759"/>
     <use style="fill:#0ad12e;stroke:#0ad12e;" x="550.350088" xlink:href="#m30fd0a600e" y="112.582714"/>
    </g>
   </g>
   <g id="line2d_53">
    <defs>
     <path d="M 0 3 
C 0.795609 3 1.55874 2.683901 2.12132 2.12132 
C 2.683901 1.55874 3 0.795609 3 0 
C 3 -0.795609 2.683901 -1.55874 2.12132 -2.12132 
C 1.55874 -2.683901 0.795609 -3 0 -3 
C -0.795609 -3 -1.55874 -2.683901 -2.12132 -2.12132 
C -2.683901 -1.55874 -3 -0.795609 -3 0 
C -3 0.795609 -2.683901 1.55874 -2.12132 2.12132 
C -1.55874 2.683901 -0.795609 3 0 3 
z
" id="maef313735f" style="stroke:#0a95d1;"/>
    </defs>
    <g clip-path="url(#p74b2d185e6)">
     <use style="fill:#0a95d1;stroke:#0a95d1;" x="-1" xlink:href="#maef313735f" y="316.754341"/>
     <use style="fill:#0a95d1;stroke:#0a95d1;" x="179.549735" xlink:href="#maef313735f" y="316.75374"/>
     <use style="fill:#0a95d1;stroke:#0a95d1;" x="222.974956" xlink:href="#maef313735f" y="316.198481"/>
     <use style="fill:#0a95d1;stroke:#0a95d1;" x="255.824867" xlink:href="#maef313735f" y="314.368757"/>
     <use style="fill:#0a95d1;stroke:#0a95d1;" x="288.674779" xlink:href="#maef313735f" y="309.356351"/>
     <use style="fill:#0a95d1;stroke:#0a95d1;" x="332.1" xlink:href="#maef313735f" y="284.62187"/>
     <use style="fill:#0a95d1;stroke:#0a95d1;" x="364.949912" xlink:href="#maef313735f" y="224.017366"/>
     <use style="fill:#0a95d1;stroke:#0a95d1;" x="397.799823" xlink:href="#maef313735f" y="175.184088"/>
     <use style="fill:#0a95d1;stroke:#0a95d1;" x="441.225044" xlink:href="#maef313735f" y="129.331039"/>
     <use style="fill:#0a95d1;stroke:#0a95d1;" x="474.074956" xlink:href="#maef313735f" y="112.905991"/>
     <use style="fill:#0a95d1;stroke:#0a95d1;" x="506.924867" xlink:href="#maef313735f" y="112.758327"/>
     <use style="fill:#0a95d1;stroke:#0a95d1;" x="550.350088" xlink:href="#maef313735f" y="121.202858"/>
    </g>
   </g>
   <g id="line2d_54">
    <g clip-path="url(#p74b2d185e6)">
     <use style="fill:#0a95d1;stroke:#0a95d1;" x="-1" xlink:href="#maef313735f" y="316.754807"/>
     <use style="fill:#0a95d1;stroke:#0a95d1;" x="179.549735" xlink:href="#maef313735f" y="316.754337"/>
     <use style="fill:#0a95d1;stroke:#0a95d1;" x="222.974956" xlink:href="#maef313735f" y="316.130886"/>
     <use style="fill:#0a95d1;stroke:#0a95d1;" x="255.824867" xlink:href="#maef313735f" y="314.381107"/>
     <use style="fill:#0a95d1;stroke:#0a95d1;" x="288.674779" xlink:href="#maef313735f" y="309.626105"/>
     <use style="fill:#0a95d1;stroke:#0a95d1;" x="332.1" xlink:href="#maef313735f" y="284.987138"/>
     <use style="fill:#0a95d1;stroke:#0a95d1;" x="364.949912" xlink:href="#maef313735f" y="224.92022"/>
     <use style="fill:#0a95d1;stroke:#0a95d1;" x="397.799823" xlink:href="#maef313735f" y="171.486983"/>
     <use style="fill:#0a95d1;stroke:#0a95d1;" x="441.225044" xlink:href="#maef313735f" y="123.448529"/>
     <use style="fill:#0a95d1;stroke:#0a95d1;" x="474.074956" xlink:href="#maef313735f" y="109.195098"/>
     <use style="fill:#0a95d1;stroke:#0a95d1;" x="506.924867" xlink:href="#maef313735f" y="111.803619"/>
     <use style="fill:#0a95d1;stroke:#0a95d1;" x="550.350088" xlink:href="#maef313735f" y="116.995972"/>
    </g>
   </g>
   <g id="line2d_55">
    <g clip-path="url(#p74b2d185e6)">
     <use style="fill:#0a95d1;stroke:#0a95d1;" x="0" xlink:href="#maef313735f" y="0"/>
    </g>
   </g>
   <g id="line2d_56">
    <defs>
     <path d="M 0 3 
C 0.795609 3 1.55874 2.683901 2.12132 2.12132 
C 2.683901 1.55874 3 0.795609 3 0 
C 3 -0.795609 2.683901 -1.55874 2.12132 -2.12132 
C 1.55874 -2.683901 0.795609 -3 0 -3 
C -0.795609 -3 -1.55874 -2.683901 -2.12132 -2.12132 
C -2.683901 -1.55874 -3 -0.795609 -3 0 
C -3 0.795609 -2.683901 1.55874 -2.12132 2.12132 
C -1.55874 2.683901 -0.795609 3 0 3 
z
" id="ma03812a717" style="stroke:#710ad1;"/>
    </defs>
    <g clip-path="url(#p74b2d185e6)">
     <use style="fill:#710ad1;stroke:#710ad1;" x="-1" xlink:href="#ma03812a717" y="317.96116"/>
     <use style="fill:#710ad1;stroke:#710ad1;" x="179.549735" xlink:href="#ma03812a717" y="317.960965"/>
     <use style="fill:#710ad1;stroke:#710ad1;" x="222.974956" xlink:href="#ma03812a717" y="317.787113"/>
     <use style="fill:#710ad1;stroke:#710ad1;" x="255.824867" xlink:href="#ma03812a717" y="317.300583"/>
     <use style="fill:#710ad1;stroke:#710ad1;" x="288.674779" xlink:href="#ma03812a717" y="315.537484"/>
     <use style="fill:#710ad1;stroke:#710ad1;" x="332.1" xlink:href="#ma03812a717" y="305.824253"/>
     <use style="fill:#710ad1;stroke:#710ad1;" x="364.949912" xlink:href="#ma03812a717" y="261.827128"/>
     <use style="fill:#710ad1;stroke:#710ad1;" x="397.799823" xlink:href="#ma03812a717" y="201.404845"/>
     <use style="fill:#710ad1;stroke:#710ad1;" x="441.225044" xlink:href="#ma03812a717" y="118.60096"/>
     <use style="fill:#710ad1;stroke:#710ad1;" x="474.074956" xlink:href="#ma03812a717" y="83.899337"/>
     <use style="fill:#710ad1;stroke:#710ad1;" x="506.924867" xlink:href="#ma03812a717" y="76.65203"/>
     <use style="fill:#710ad1;stroke:#710ad1;" x="550.350088" xlink:href="#ma03812a717" y="82.211881"/>
    </g>
   </g>
   <g id="line2d_57">
    <g clip-path="url(#p74b2d185e6)">
     <use style="fill:#710ad1;stroke:#710ad1;" x="-1" xlink:href="#ma03812a717" y="317.933633"/>
     <use style="fill:#710ad1;stroke:#710ad1;" x="179.549735" xlink:href="#ma03812a717" y="317.933476"/>
     <use style="fill:#710ad1;stroke:#710ad1;" x="222.974956" xlink:href="#ma03812a717" y="317.697157"/>
     <use style="fill:#710ad1;stroke:#710ad1;" x="255.824867" xlink:href="#ma03812a717" y="317.08693"/>
     <use style="fill:#710ad1;stroke:#710ad1;" x="288.674779" xlink:href="#ma03812a717" y="315.472339"/>
     <use style="fill:#710ad1;stroke:#710ad1;" x="332.1" xlink:href="#ma03812a717" y="305.996129"/>
     <use style="fill:#710ad1;stroke:#710ad1;" x="364.949912" xlink:href="#ma03812a717" y="263.724673"/>
     <use style="fill:#710ad1;stroke:#710ad1;" x="397.799823" xlink:href="#ma03812a717" y="202.491623"/>
     <use style="fill:#710ad1;stroke:#710ad1;" x="441.225044" xlink:href="#ma03812a717" y="119.64607"/>
     <use style="fill:#710ad1;stroke:#710ad1;" x="474.074956" xlink:href="#ma03812a717" y="79.177503"/>
     <use style="fill:#710ad1;stroke:#710ad1;" x="506.924867" xlink:href="#ma03812a717" y="69.341236"/>
     <use style="fill:#710ad1;stroke:#710ad1;" x="550.350088" xlink:href="#ma03812a717" y="74.433054"/>
    </g>
   </g>
   <g id="line2d_58">
    <g clip-path="url(#p74b2d185e6)">
     <use style="fill:#710ad1;stroke:#710ad1;" x="0" xlink:href="#ma03812a717" y="0"/>
    </g>
   </g>
   <g id="line2d_59">
    <defs>
     <path d="M 0 3 
C 0.795609 3 1.55874 2.683901 2.12132 2.12132 
C 2.683901 1.55874 3 0.795609 3 0 
C 3 -0.795609 2.683901 -1.55874 2.12132 -2.12132 
C 1.55874 -2.683901 0.795609 -3 0 -3 
C -0.795609 -3 -1.55874 -2.683901 -2.12132 -2.12132 
C -2.683901 -1.55874 -3 -0.795609 -3 0 
C -3 0.795609 -2.683901 1.55874 -2.12132 2.12132 
C -1.55874 2.683901 -0.795609 3 0 3 
z
" id="m0cc382c352" style="stroke:#d10a7b;"/>
    </defs>
    <g clip-path="url(#p74b2d185e6)">
     <use style="fill:#d10a7b;stroke:#d10a7b;" x="-1" xlink:href="#m0cc382c352" y="317.881333"/>
     <use style="fill:#d10a7b;stroke:#d10a7b;" x="179.549735" xlink:href="#m0cc382c352" y="317.881026"/>
     <use style="fill:#d10a7b;stroke:#d10a7b;" x="222.974956" xlink:href="#m0cc382c352" y="317.708915"/>
     <use style="fill:#d10a7b;stroke:#d10a7b;" x="255.824867" xlink:href="#m0cc382c352" y="317.282178"/>
     <use style="fill:#d10a7b;stroke:#d10a7b;" x="288.674779" xlink:href="#m0cc382c352" y="316.185701"/>
     <use style="fill:#d10a7b;stroke:#d10a7b;" x="332.1" xlink:href="#m0cc382c352" y="309.289702"/>
     <use style="fill:#d10a7b;stroke:#d10a7b;" x="364.949912" xlink:href="#m0cc382c352" y="277.919303"/>
     <use style="fill:#d10a7b;stroke:#d10a7b;" x="397.799823" xlink:href="#m0cc382c352" y="226.834127"/>
     <use style="fill:#d10a7b;stroke:#d10a7b;" x="441.225044" xlink:href="#m0cc382c352" y="146.997163"/>
     <use style="fill:#d10a7b;stroke:#d10a7b;" x="474.074956" xlink:href="#m0cc382c352" y="101.032168"/>
     <use style="fill:#d10a7b;stroke:#d10a7b;" x="506.924867" xlink:href="#m0cc382c352" y="85.76947"/>
     <use style="fill:#d10a7b;stroke:#d10a7b;" x="550.350088" xlink:href="#m0cc382c352" y="86.434522"/>
    </g>
   </g>
   <g id="line2d_60">
    <g clip-path="url(#p74b2d185e6)">
     <use style="fill:#d10a7b;stroke:#d10a7b;" x="-1" xlink:href="#m0cc382c352" y="317.905085"/>
     <use style="fill:#d10a7b;stroke:#d10a7b;" x="179.549735" xlink:href="#m0cc382c352" y="317.905005"/>
     <use style="fill:#d10a7b;stroke:#d10a7b;" x="222.974956" xlink:href="#m0cc382c352" y="317.75605"/>
     <use style="fill:#d10a7b;stroke:#d10a7b;" x="255.824867" xlink:href="#m0cc382c352" y="317.300897"/>
     <use style="fill:#d10a7b;stroke:#d10a7b;" x="288.674779" xlink:href="#m0cc382c352" y="316.22413"/>
     <use style="fill:#d10a7b;stroke:#d10a7b;" x="332.1" xlink:href="#m0cc382c352" y="309.787244"/>
     <use style="fill:#d10a7b;stroke:#d10a7b;" x="364.949912" xlink:href="#m0cc382c352" y="280.683343"/>
     <use style="fill:#d10a7b;stroke:#d10a7b;" x="397.799823" xlink:href="#m0cc382c352" y="233.580173"/>
     <use style="fill:#d10a7b;stroke:#d10a7b;" x="441.225044" xlink:href="#m0cc382c352" y="155.56895"/>
     <use style="fill:#d10a7b;stroke:#d10a7b;" x="474.074956" xlink:href="#m0cc382c352" y="115.026605"/>
     <use style="fill:#d10a7b;stroke:#d10a7b;" x="506.924867" xlink:href="#m0cc382c352" y="99.42036"/>
     <use style="fill:#d10a7b;stroke:#d10a7b;" x="550.350088" xlink:href="#m0cc382c352" y="98.020172"/>
    </g>
   </g>
   <g id="line2d_61">
    <g clip-path="url(#p74b2d185e6)">
     <use style="fill:#d10a7b;stroke:#d10a7b;" x="0" xlink:href="#m0cc382c352" y="0"/>
    </g>
   </g>
   <g id="patch_17">
    <path d="M 81 331.632 
L 81 56.8512 
" style="fill:none;stroke:#000000;stroke-linecap:square;stroke-linejoin:miter;stroke-width:0.8;"/>
   </g>
   <g id="patch_18">
    <path d="M 81 331.632 
L 583.2 331.632 
" style="fill:none;stroke:#000000;stroke-linecap:square;stroke-linejoin:miter;stroke-width:0.8;"/>
   </g>
   <g id="text_26">
    <!-- Evolution of THP2 -->
    <defs>
     <path d="M 9.421875 75.984375 
L 18.40625 75.984375 
L 18.40625 0 
L 9.421875 0 
z
" id="DejaVuSans-108"/>
     <path d="M 37.109375 75.984375 
L 37.109375 68.5 
L 28.515625 68.5 
Q 23.6875 68.5 21.796875 66.546875 
Q 19.921875 64.59375 19.921875 59.515625 
L 19.921875 54.6875 
L 34.71875 54.6875 
L 34.71875 47.703125 
L 19.921875 47.703125 
L 19.921875 0 
L 10.890625 0 
L 10.890625 47.703125 
L 2.296875 47.703125 
L 2.296875 54.6875 
L 10.890625 54.6875 
L 10.890625 58.5 
Q 10.890625 67.625 15.140625 71.796875 
Q 19.390625 75.984375 28.609375 75.984375 
z
" id="DejaVuSans-102"/>
    </defs>
    <g transform="translate(221.297266 50.8512)scale(0.25 -0.25)">
     <use xlink:href="#DejaVuSans-69"/>
     <use x="63.183594" xlink:href="#DejaVuSans-118"/>
     <use x="122.363281" xlink:href="#DejaVuSans-111"/>
     <use x="183.544922" xlink:href="#DejaVuSans-108"/>
     <use x="211.328125" xlink:href="#DejaVuSans-117"/>
     <use x="274.707031" xlink:href="#DejaVuSans-116"/>
     <use x="313.916016" xlink:href="#DejaVuSans-105"/>
     <use x="341.699219" xlink:href="#DejaVuSans-111"/>
     <use x="402.880859" xlink:href="#DejaVuSans-110"/>
     <use x="466.259766" xlink:href="#DejaVuSans-32"/>
     <use x="498.046875" xlink:href="#DejaVuSans-111"/>
     <use x="559.228516" xlink:href="#DejaVuSans-102"/>
     <use x="594.433594" xlink:href="#DejaVuSans-32"/>
     <use x="626.220703" xlink:href="#DejaVuSans-84"/>
     <use x="687.304688" xlink:href="#DejaVuSans-72"/>
     <use x="762.5" xlink:href="#DejaVuSans-80"/>
     <use x="822.802734" xlink:href="#DejaVuSans-50"/>
    </g>
   </g>
   <g id="legend_1">
    <g id="patch_19">
     <path d="M 91.5 156.91995 
L 192.841406 156.91995 
Q 195.841406 156.91995 195.841406 153.91995 
L 195.841406 67.3512 
Q 195.841406 64.3512 192.841406 64.3512 
L 91.5 64.3512 
Q 88.5 64.3512 88.5 67.3512 
L 88.5 153.91995 
Q 88.5 156.91995 91.5 156.91995 
z
" style="fill:#ffffff;opacity:0.8;stroke:#cccccc;stroke-linejoin:miter;"/>
    </g>
    <g id="line2d_62">
     <path d="M 94.5 76.498856 
L 124.5 76.498856 
" style="fill:none;stroke:#0ad12e;stroke-linecap:square;stroke-width:1.5;"/>
    </g>
    <g id="line2d_63"/>
    <g id="text_27">
     <!-- THP1 -->
     <g transform="translate(136.5 81.748856)scale(0.15 -0.15)">
      <use xlink:href="#DejaVuSans-84"/>
      <use x="61.083984" xlink:href="#DejaVuSans-72"/>
      <use x="136.279297" xlink:href="#DejaVuSans-80"/>
      <use x="196.582031" xlink:href="#DejaVuSans-49"/>
     </g>
    </g>
    <g id="line2d_64">
     <path d="M 94.5 98.516044 
L 124.5 98.516044 
" style="fill:none;stroke:#0a95d1;stroke-linecap:square;stroke-width:1.5;"/>
    </g>
    <g id="line2d_65"/>
    <g id="text_28">
     <!-- THP2.1 -->
     <g transform="translate(136.5 103.766044)scale(0.15 -0.15)">
      <use xlink:href="#DejaVuSans-84"/>
      <use x="61.083984" xlink:href="#DejaVuSans-72"/>
      <use x="136.279297" xlink:href="#DejaVuSans-80"/>
      <use x="196.582031" xlink:href="#DejaVuSans-50"/>
      <use x="260.205078" xlink:href="#DejaVuSans-46"/>
      <use x="291.992188" xlink:href="#DejaVuSans-49"/>
     </g>
    </g>
    <g id="line2d_66">
     <path d="M 94.5 120.533231 
L 124.5 120.533231 
" style="fill:none;stroke:#710ad1;stroke-linecap:square;stroke-width:1.5;"/>
    </g>
    <g id="line2d_67"/>
    <g id="text_29">
     <!-- THP2.2 -->
     <g transform="translate(136.5 125.783231)scale(0.15 -0.15)">
      <use xlink:href="#DejaVuSans-84"/>
      <use x="61.083984" xlink:href="#DejaVuSans-72"/>
      <use x="136.279297" xlink:href="#DejaVuSans-80"/>
      <use x="196.582031" xlink:href="#DejaVuSans-50"/>
      <use x="260.205078" xlink:href="#DejaVuSans-46"/>
      <use x="291.992188" xlink:href="#DejaVuSans-50"/>
     </g>
    </g>
    <g id="line2d_68">
     <path d="M 94.5 142.550419 
L 124.5 142.550419 
" style="fill:none;stroke:#d10a7b;stroke-linecap:square;stroke-width:1.5;"/>
    </g>
    <g id="line2d_69"/>
    <g id="text_30">
     <!-- THP2.3 -->
     <g transform="translate(136.5 147.800419)scale(0.15 -0.15)">
      <use xlink:href="#DejaVuSans-84"/>
      <use x="61.083984" xlink:href="#DejaVuSans-72"/>
      <use x="136.279297" xlink:href="#DejaVuSans-80"/>
      <use x="196.582031" xlink:href="#DejaVuSans-50"/>
      <use x="260.205078" xlink:href="#DejaVuSans-46"/>
      <use x="291.992188" xlink:href="#DejaVuSans-51"/>
     </g>
    </g>
   </g>
  </g>
 </g>
 <defs>
  <clipPath id="p74b2d185e6">
   <rect height="274.7808" width="502.2" x="81" y="56.8512"/>
  </clipPath>
 </defs>
</svg>
