<?xml version="1.0" encoding="utf-8" standalone="no"?>
<!DOCTYPE svg PUBLIC "-//W3C//DTD SVG 1.1//EN"
  "http://www.w3.org/Graphics/SVG/1.1/DTD/svg11.dtd">
<!-- Created with matplotlib (https://matplotlib.org/) -->
<svg height="473.76pt" version="1.1" viewBox="0 0 648 473.76" width="648pt" xmlns="http://www.w3.org/2000/svg" xmlns:xlink="http://www.w3.org/1999/xlink">
 <defs>
  <style type="text/css">
*{stroke-linecap:butt;stroke-linejoin:round;}
  </style>
 </defs>
 <g id="figure_1">
  <g id="patch_1">
   <path d="M 0 473.76 
L 648 473.76 
L 648 0 
L 0 0 
z
" style="fill:#ffffff;"/>
  </g>
  <g id="axes_1">
   <g id="patch_2">
    <path d="M 81 421.6464 
L 583.2 421.6464 
L 583.2 56.8512 
L 81 56.8512 
z
" style="fill:#ffffff;"/>
   </g>
   <g id="matplotlib.axis_1">
    <g id="xtick_1">
     <g id="line2d_1">
      <defs>
       <path d="M 0 0 
L 0 2 
" id="macbcff292e" style="stroke:#000000;"/>
      </defs>
      <g>
       <use style="stroke:#000000;" x="179.549735" xlink:href="#macbcff292e" y="421.6464"/>
      </g>
     </g>
     <g id="text_1">
      <!-- 0.1 -->
      <defs>
       <path d="M 31.78125 66.40625 
Q 24.171875 66.40625 20.328125 58.90625 
Q 16.5 51.421875 16.5 36.375 
Q 16.5 21.390625 20.328125 13.890625 
Q 24.171875 6.390625 31.78125 6.390625 
Q 39.453125 6.390625 43.28125 13.890625 
Q 47.125 21.390625 47.125 36.375 
Q 47.125 51.421875 43.28125 58.90625 
Q 39.453125 66.40625 31.78125 66.40625 
z
M 31.78125 74.21875 
Q 44.046875 74.21875 50.515625 64.515625 
Q 56.984375 54.828125 56.984375 36.375 
Q 56.984375 17.96875 50.515625 8.265625 
Q 44.046875 -1.421875 31.78125 -1.421875 
Q 19.53125 -1.421875 13.0625 8.265625 
Q 6.59375 17.96875 6.59375 36.375 
Q 6.59375 54.828125 13.0625 64.515625 
Q 19.53125 74.21875 31.78125 74.21875 
z
" id="DejaVuSans-48"/>
       <path d="M 10.6875 12.40625 
L 21 12.40625 
L 21 0 
L 10.6875 0 
z
" id="DejaVuSans-46"/>
       <path d="M 12.40625 8.296875 
L 28.515625 8.296875 
L 28.515625 63.921875 
L 10.984375 60.40625 
L 10.984375 69.390625 
L 28.421875 72.90625 
L 38.28125 72.90625 
L 38.28125 8.296875 
L 54.390625 8.296875 
L 54.390625 0 
L 12.40625 0 
z
" id="DejaVuSans-49"/>
      </defs>
      <g transform="translate(165.236922 440.823588)scale(0.18 -0.18)">
       <use xlink:href="#DejaVuSans-48"/>
       <use x="63.623047" xlink:href="#DejaVuSans-46"/>
       <use x="95.410156" xlink:href="#DejaVuSans-49"/>
      </g>
     </g>
    </g>
    <g id="xtick_2">
     <g id="line2d_2">
      <g>
       <use style="stroke:#000000;" x="288.674779" xlink:href="#macbcff292e" y="421.6464"/>
      </g>
     </g>
     <g id="text_2">
      <!-- 1.0 -->
      <g transform="translate(274.361966 440.823588)scale(0.18 -0.18)">
       <use xlink:href="#DejaVuSans-49"/>
       <use x="63.623047" xlink:href="#DejaVuSans-46"/>
       <use x="95.410156" xlink:href="#DejaVuSans-48"/>
      </g>
     </g>
    </g>
    <g id="xtick_3">
     <g id="line2d_3">
      <g>
       <use style="stroke:#000000;" x="397.799823" xlink:href="#macbcff292e" y="421.6464"/>
      </g>
     </g>
     <g id="text_3">
      <!-- 10.0 -->
      <g transform="translate(377.760761 440.823588)scale(0.18 -0.18)">
       <use xlink:href="#DejaVuSans-49"/>
       <use x="63.623047" xlink:href="#DejaVuSans-48"/>
       <use x="127.246094" xlink:href="#DejaVuSans-46"/>
       <use x="159.033203" xlink:href="#DejaVuSans-48"/>
      </g>
     </g>
    </g>
    <g id="xtick_4">
     <g id="line2d_4">
      <g>
       <use style="stroke:#000000;" x="506.924867" xlink:href="#macbcff292e" y="421.6464"/>
      </g>
     </g>
     <g id="text_4">
      <!-- 100.0 -->
      <g transform="translate(481.159555 440.823588)scale(0.18 -0.18)">
       <use xlink:href="#DejaVuSans-49"/>
       <use x="63.623047" xlink:href="#DejaVuSans-48"/>
       <use x="127.246094" xlink:href="#DejaVuSans-48"/>
       <use x="190.869141" xlink:href="#DejaVuSans-46"/>
       <use x="222.65625" xlink:href="#DejaVuSans-48"/>
      </g>
     </g>
    </g>
    <g id="xtick_5">
     <g id="line2d_5">
      <defs>
       <path d="M 0 0 
L 0 2 
" id="mea5aa68e21" style="stroke:#000000;stroke-width:0.6;"/>
      </defs>
      <g>
       <use style="stroke:#000000;stroke-width:0.6;" x="103.274602" xlink:href="#mea5aa68e21" y="421.6464"/>
      </g>
     </g>
    </g>
    <g id="xtick_6">
     <g id="line2d_6">
      <g>
       <use style="stroke:#000000;stroke-width:0.6;" x="122.490569" xlink:href="#mea5aa68e21" y="421.6464"/>
      </g>
     </g>
    </g>
    <g id="xtick_7">
     <g id="line2d_7">
      <g>
       <use style="stroke:#000000;stroke-width:0.6;" x="136.124514" xlink:href="#mea5aa68e21" y="421.6464"/>
      </g>
     </g>
    </g>
    <g id="xtick_8">
     <g id="line2d_8">
      <g>
       <use style="stroke:#000000;stroke-width:0.6;" x="146.699823" xlink:href="#mea5aa68e21" y="421.6464"/>
      </g>
     </g>
    </g>
    <g id="xtick_9">
     <g id="line2d_9">
      <g>
       <use style="stroke:#000000;stroke-width:0.6;" x="155.34048" xlink:href="#mea5aa68e21" y="421.6464"/>
      </g>
     </g>
    </g>
    <g id="xtick_10">
     <g id="line2d_10">
      <g>
       <use style="stroke:#000000;stroke-width:0.6;" x="162.646052" xlink:href="#mea5aa68e21" y="421.6464"/>
      </g>
     </g>
    </g>
    <g id="xtick_11">
     <g id="line2d_11">
      <g>
       <use style="stroke:#000000;stroke-width:0.6;" x="168.974425" xlink:href="#mea5aa68e21" y="421.6464"/>
      </g>
     </g>
    </g>
    <g id="xtick_12">
     <g id="line2d_12">
      <g>
       <use style="stroke:#000000;stroke-width:0.6;" x="174.556447" xlink:href="#mea5aa68e21" y="421.6464"/>
      </g>
     </g>
    </g>
    <g id="xtick_13">
     <g id="line2d_13">
      <g>
       <use style="stroke:#000000;stroke-width:0.6;" x="212.399646" xlink:href="#mea5aa68e21" y="421.6464"/>
      </g>
     </g>
    </g>
    <g id="xtick_14">
     <g id="line2d_14">
      <g>
       <use style="stroke:#000000;stroke-width:0.6;" x="231.615613" xlink:href="#mea5aa68e21" y="421.6464"/>
      </g>
     </g>
    </g>
    <g id="xtick_15">
     <g id="line2d_15">
      <g>
       <use style="stroke:#000000;stroke-width:0.6;" x="245.249558" xlink:href="#mea5aa68e21" y="421.6464"/>
      </g>
     </g>
    </g>
    <g id="xtick_16">
     <g id="line2d_16">
      <g>
       <use style="stroke:#000000;stroke-width:0.6;" x="255.824867" xlink:href="#mea5aa68e21" y="421.6464"/>
      </g>
     </g>
    </g>
    <g id="xtick_17">
     <g id="line2d_17">
      <g>
       <use style="stroke:#000000;stroke-width:0.6;" x="264.465524" xlink:href="#mea5aa68e21" y="421.6464"/>
      </g>
     </g>
    </g>
    <g id="xtick_18">
     <g id="line2d_18">
      <g>
       <use style="stroke:#000000;stroke-width:0.6;" x="271.771096" xlink:href="#mea5aa68e21" y="421.6464"/>
      </g>
     </g>
    </g>
    <g id="xtick_19">
     <g id="line2d_19">
      <g>
       <use style="stroke:#000000;stroke-width:0.6;" x="278.09947" xlink:href="#mea5aa68e21" y="421.6464"/>
      </g>
     </g>
    </g>
    <g id="xtick_20">
     <g id="line2d_20">
      <g>
       <use style="stroke:#000000;stroke-width:0.6;" x="283.681491" xlink:href="#mea5aa68e21" y="421.6464"/>
      </g>
     </g>
    </g>
    <g id="xtick_21">
     <g id="line2d_21">
      <g>
       <use style="stroke:#000000;stroke-width:0.6;" x="321.524691" xlink:href="#mea5aa68e21" y="421.6464"/>
      </g>
     </g>
    </g>
    <g id="xtick_22">
     <g id="line2d_22">
      <g>
       <use style="stroke:#000000;stroke-width:0.6;" x="340.740657" xlink:href="#mea5aa68e21" y="421.6464"/>
      </g>
     </g>
    </g>
    <g id="xtick_23">
     <g id="line2d_23">
      <g>
       <use style="stroke:#000000;stroke-width:0.6;" x="354.374602" xlink:href="#mea5aa68e21" y="421.6464"/>
      </g>
     </g>
    </g>
    <g id="xtick_24">
     <g id="line2d_24">
      <g>
       <use style="stroke:#000000;stroke-width:0.6;" x="364.949912" xlink:href="#mea5aa68e21" y="421.6464"/>
      </g>
     </g>
    </g>
    <g id="xtick_25">
     <g id="line2d_25">
      <g>
       <use style="stroke:#000000;stroke-width:0.6;" x="373.590569" xlink:href="#mea5aa68e21" y="421.6464"/>
      </g>
     </g>
    </g>
    <g id="xtick_26">
     <g id="line2d_26">
      <g>
       <use style="stroke:#000000;stroke-width:0.6;" x="380.89614" xlink:href="#mea5aa68e21" y="421.6464"/>
      </g>
     </g>
    </g>
    <g id="xtick_27">
     <g id="line2d_27">
      <g>
       <use style="stroke:#000000;stroke-width:0.6;" x="387.224514" xlink:href="#mea5aa68e21" y="421.6464"/>
      </g>
     </g>
    </g>
    <g id="xtick_28">
     <g id="line2d_28">
      <g>
       <use style="stroke:#000000;stroke-width:0.6;" x="392.806535" xlink:href="#mea5aa68e21" y="421.6464"/>
      </g>
     </g>
    </g>
    <g id="xtick_29">
     <g id="line2d_29">
      <g>
       <use style="stroke:#000000;stroke-width:0.6;" x="430.649735" xlink:href="#mea5aa68e21" y="421.6464"/>
      </g>
     </g>
    </g>
    <g id="xtick_30">
     <g id="line2d_30">
      <g>
       <use style="stroke:#000000;stroke-width:0.6;" x="449.865701" xlink:href="#mea5aa68e21" y="421.6464"/>
      </g>
     </g>
    </g>
    <g id="xtick_31">
     <g id="line2d_31">
      <g>
       <use style="stroke:#000000;stroke-width:0.6;" x="463.499646" xlink:href="#mea5aa68e21" y="421.6464"/>
      </g>
     </g>
    </g>
    <g id="xtick_32">
     <g id="line2d_32">
      <g>
       <use style="stroke:#000000;stroke-width:0.6;" x="474.074956" xlink:href="#mea5aa68e21" y="421.6464"/>
      </g>
     </g>
    </g>
    <g id="xtick_33">
     <g id="line2d_33">
      <g>
       <use style="stroke:#000000;stroke-width:0.6;" x="482.715613" xlink:href="#mea5aa68e21" y="421.6464"/>
      </g>
     </g>
    </g>
    <g id="xtick_34">
     <g id="line2d_34">
      <g>
       <use style="stroke:#000000;stroke-width:0.6;" x="490.021184" xlink:href="#mea5aa68e21" y="421.6464"/>
      </g>
     </g>
    </g>
    <g id="xtick_35">
     <g id="line2d_35">
      <g>
       <use style="stroke:#000000;stroke-width:0.6;" x="496.349558" xlink:href="#mea5aa68e21" y="421.6464"/>
      </g>
     </g>
    </g>
    <g id="xtick_36">
     <g id="line2d_36">
      <g>
       <use style="stroke:#000000;stroke-width:0.6;" x="501.931579" xlink:href="#mea5aa68e21" y="421.6464"/>
      </g>
     </g>
    </g>
    <g id="xtick_37">
     <g id="line2d_37">
      <g>
       <use style="stroke:#000000;stroke-width:0.6;" x="539.774779" xlink:href="#mea5aa68e21" y="421.6464"/>
      </g>
     </g>
    </g>
    <g id="xtick_38">
     <g id="line2d_38">
      <g>
       <use style="stroke:#000000;stroke-width:0.6;" x="558.990745" xlink:href="#mea5aa68e21" y="421.6464"/>
      </g>
     </g>
    </g>
    <g id="xtick_39">
     <g id="line2d_39">
      <g>
       <use style="stroke:#000000;stroke-width:0.6;" x="572.624691" xlink:href="#mea5aa68e21" y="421.6464"/>
      </g>
     </g>
    </g>
    <g id="xtick_40">
     <g id="line2d_40">
      <g>
       <use style="stroke:#000000;stroke-width:0.6;" x="583.2" xlink:href="#mea5aa68e21" y="421.6464"/>
      </g>
     </g>
    </g>
    <g id="text_5">
     <!-- Tetrahydropapaverine (uM) -->
     <defs>
      <path d="M -0.296875 72.90625 
L 61.375 72.90625 
L 61.375 64.59375 
L 35.5 64.59375 
L 35.5 0 
L 25.59375 0 
L 25.59375 64.59375 
L -0.296875 64.59375 
z
" id="DejaVuSans-84"/>
      <path d="M 56.203125 29.59375 
L 56.203125 25.203125 
L 14.890625 25.203125 
Q 15.484375 15.921875 20.484375 11.0625 
Q 25.484375 6.203125 34.421875 6.203125 
Q 39.59375 6.203125 44.453125 7.46875 
Q 49.3125 8.734375 54.109375 11.28125 
L 54.109375 2.78125 
Q 49.265625 0.734375 44.1875 -0.34375 
Q 39.109375 -1.421875 33.890625 -1.421875 
Q 20.796875 -1.421875 13.15625 6.1875 
Q 5.515625 13.8125 5.515625 26.8125 
Q 5.515625 40.234375 12.765625 48.109375 
Q 20.015625 56 32.328125 56 
Q 43.359375 56 49.78125 48.890625 
Q 56.203125 41.796875 56.203125 29.59375 
z
M 47.21875 32.234375 
Q 47.125 39.59375 43.09375 43.984375 
Q 39.0625 48.390625 32.421875 48.390625 
Q 24.90625 48.390625 20.390625 44.140625 
Q 15.875 39.890625 15.1875 32.171875 
z
" id="DejaVuSans-101"/>
      <path d="M 18.3125 70.21875 
L 18.3125 54.6875 
L 36.8125 54.6875 
L 36.8125 47.703125 
L 18.3125 47.703125 
L 18.3125 18.015625 
Q 18.3125 11.328125 20.140625 9.421875 
Q 21.96875 7.515625 27.59375 7.515625 
L 36.8125 7.515625 
L 36.8125 0 
L 27.59375 0 
Q 17.1875 0 13.234375 3.875 
Q 9.28125 7.765625 9.28125 18.015625 
L 9.28125 47.703125 
L 2.6875 47.703125 
L 2.6875 54.6875 
L 9.28125 54.6875 
L 9.28125 70.21875 
z
" id="DejaVuSans-116"/>
      <path d="M 41.109375 46.296875 
Q 39.59375 47.171875 37.8125 47.578125 
Q 36.03125 48 33.890625 48 
Q 26.265625 48 22.1875 43.046875 
Q 18.109375 38.09375 18.109375 28.8125 
L 18.109375 0 
L 9.078125 0 
L 9.078125 54.6875 
L 18.109375 54.6875 
L 18.109375 46.1875 
Q 20.953125 51.171875 25.484375 53.578125 
Q 30.03125 56 36.53125 56 
Q 37.453125 56 38.578125 55.875 
Q 39.703125 55.765625 41.0625 55.515625 
z
" id="DejaVuSans-114"/>
      <path d="M 34.28125 27.484375 
Q 23.390625 27.484375 19.1875 25 
Q 14.984375 22.515625 14.984375 16.5 
Q 14.984375 11.71875 18.140625 8.90625 
Q 21.296875 6.109375 26.703125 6.109375 
Q 34.1875 6.109375 38.703125 11.40625 
Q 43.21875 16.703125 43.21875 25.484375 
L 43.21875 27.484375 
z
M 52.203125 31.203125 
L 52.203125 0 
L 43.21875 0 
L 43.21875 8.296875 
Q 40.140625 3.328125 35.546875 0.953125 
Q 30.953125 -1.421875 24.3125 -1.421875 
Q 15.921875 -1.421875 10.953125 3.296875 
Q 6 8.015625 6 15.921875 
Q 6 25.140625 12.171875 29.828125 
Q 18.359375 34.515625 30.609375 34.515625 
L 43.21875 34.515625 
L 43.21875 35.40625 
Q 43.21875 41.609375 39.140625 45 
Q 35.0625 48.390625 27.6875 48.390625 
Q 23 48.390625 18.546875 47.265625 
Q 14.109375 46.140625 10.015625 43.890625 
L 10.015625 52.203125 
Q 14.9375 54.109375 19.578125 55.046875 
Q 24.21875 56 28.609375 56 
Q 40.484375 56 46.34375 49.84375 
Q 52.203125 43.703125 52.203125 31.203125 
z
" id="DejaVuSans-97"/>
      <path d="M 54.890625 33.015625 
L 54.890625 0 
L 45.90625 0 
L 45.90625 32.71875 
Q 45.90625 40.484375 42.875 44.328125 
Q 39.84375 48.1875 33.796875 48.1875 
Q 26.515625 48.1875 22.3125 43.546875 
Q 18.109375 38.921875 18.109375 30.90625 
L 18.109375 0 
L 9.078125 0 
L 9.078125 75.984375 
L 18.109375 75.984375 
L 18.109375 46.1875 
Q 21.34375 51.125 25.703125 53.5625 
Q 30.078125 56 35.796875 56 
Q 45.21875 56 50.046875 50.171875 
Q 54.890625 44.34375 54.890625 33.015625 
z
" id="DejaVuSans-104"/>
      <path d="M 32.171875 -5.078125 
Q 28.375 -14.84375 24.75 -17.8125 
Q 21.140625 -20.796875 15.09375 -20.796875 
L 7.90625 -20.796875 
L 7.90625 -13.28125 
L 13.1875 -13.28125 
Q 16.890625 -13.28125 18.9375 -11.515625 
Q 21 -9.765625 23.484375 -3.21875 
L 25.09375 0.875 
L 2.984375 54.6875 
L 12.5 54.6875 
L 29.59375 11.921875 
L 46.6875 54.6875 
L 56.203125 54.6875 
z
" id="DejaVuSans-121"/>
      <path d="M 45.40625 46.390625 
L 45.40625 75.984375 
L 54.390625 75.984375 
L 54.390625 0 
L 45.40625 0 
L 45.40625 8.203125 
Q 42.578125 3.328125 38.25 0.953125 
Q 33.9375 -1.421875 27.875 -1.421875 
Q 17.96875 -1.421875 11.734375 6.484375 
Q 5.515625 14.40625 5.515625 27.296875 
Q 5.515625 40.1875 11.734375 48.09375 
Q 17.96875 56 27.875 56 
Q 33.9375 56 38.25 53.625 
Q 42.578125 51.265625 45.40625 46.390625 
z
M 14.796875 27.296875 
Q 14.796875 17.390625 18.875 11.75 
Q 22.953125 6.109375 30.078125 6.109375 
Q 37.203125 6.109375 41.296875 11.75 
Q 45.40625 17.390625 45.40625 27.296875 
Q 45.40625 37.203125 41.296875 42.84375 
Q 37.203125 48.484375 30.078125 48.484375 
Q 22.953125 48.484375 18.875 42.84375 
Q 14.796875 37.203125 14.796875 27.296875 
z
" id="DejaVuSans-100"/>
      <path d="M 30.609375 48.390625 
Q 23.390625 48.390625 19.1875 42.75 
Q 14.984375 37.109375 14.984375 27.296875 
Q 14.984375 17.484375 19.15625 11.84375 
Q 23.34375 6.203125 30.609375 6.203125 
Q 37.796875 6.203125 41.984375 11.859375 
Q 46.1875 17.53125 46.1875 27.296875 
Q 46.1875 37.015625 41.984375 42.703125 
Q 37.796875 48.390625 30.609375 48.390625 
z
M 30.609375 56 
Q 42.328125 56 49.015625 48.375 
Q 55.71875 40.765625 55.71875 27.296875 
Q 55.71875 13.875 49.015625 6.21875 
Q 42.328125 -1.421875 30.609375 -1.421875 
Q 18.84375 -1.421875 12.171875 6.21875 
Q 5.515625 13.875 5.515625 27.296875 
Q 5.515625 40.765625 12.171875 48.375 
Q 18.84375 56 30.609375 56 
z
" id="DejaVuSans-111"/>
      <path d="M 18.109375 8.203125 
L 18.109375 -20.796875 
L 9.078125 -20.796875 
L 9.078125 54.6875 
L 18.109375 54.6875 
L 18.109375 46.390625 
Q 20.953125 51.265625 25.265625 53.625 
Q 29.59375 56 35.59375 56 
Q 45.5625 56 51.78125 48.09375 
Q 58.015625 40.1875 58.015625 27.296875 
Q 58.015625 14.40625 51.78125 6.484375 
Q 45.5625 -1.421875 35.59375 -1.421875 
Q 29.59375 -1.421875 25.265625 0.953125 
Q 20.953125 3.328125 18.109375 8.203125 
z
M 48.6875 27.296875 
Q 48.6875 37.203125 44.609375 42.84375 
Q 40.53125 48.484375 33.40625 48.484375 
Q 26.265625 48.484375 22.1875 42.84375 
Q 18.109375 37.203125 18.109375 27.296875 
Q 18.109375 17.390625 22.1875 11.75 
Q 26.265625 6.109375 33.40625 6.109375 
Q 40.53125 6.109375 44.609375 11.75 
Q 48.6875 17.390625 48.6875 27.296875 
z
" id="DejaVuSans-112"/>
      <path d="M 2.984375 54.6875 
L 12.5 54.6875 
L 29.59375 8.796875 
L 46.6875 54.6875 
L 56.203125 54.6875 
L 35.6875 0 
L 23.484375 0 
z
" id="DejaVuSans-118"/>
      <path d="M 9.421875 54.6875 
L 18.40625 54.6875 
L 18.40625 0 
L 9.421875 0 
z
M 9.421875 75.984375 
L 18.40625 75.984375 
L 18.40625 64.59375 
L 9.421875 64.59375 
z
" id="DejaVuSans-105"/>
      <path d="M 54.890625 33.015625 
L 54.890625 0 
L 45.90625 0 
L 45.90625 32.71875 
Q 45.90625 40.484375 42.875 44.328125 
Q 39.84375 48.1875 33.796875 48.1875 
Q 26.515625 48.1875 22.3125 43.546875 
Q 18.109375 38.921875 18.109375 30.90625 
L 18.109375 0 
L 9.078125 0 
L 9.078125 54.6875 
L 18.109375 54.6875 
L 18.109375 46.1875 
Q 21.34375 51.125 25.703125 53.5625 
Q 30.078125 56 35.796875 56 
Q 45.21875 56 50.046875 50.171875 
Q 54.890625 44.34375 54.890625 33.015625 
z
" id="DejaVuSans-110"/>
      <path id="DejaVuSans-32"/>
      <path d="M 31 75.875 
Q 24.46875 64.65625 21.28125 53.65625 
Q 18.109375 42.671875 18.109375 31.390625 
Q 18.109375 20.125 21.3125 9.0625 
Q 24.515625 -2 31 -13.1875 
L 23.1875 -13.1875 
Q 15.875 -1.703125 12.234375 9.375 
Q 8.59375 20.453125 8.59375 31.390625 
Q 8.59375 42.28125 12.203125 53.3125 
Q 15.828125 64.359375 23.1875 75.875 
z
" id="DejaVuSans-40"/>
      <path d="M 8.5 21.578125 
L 8.5 54.6875 
L 17.484375 54.6875 
L 17.484375 21.921875 
Q 17.484375 14.15625 20.5 10.265625 
Q 23.53125 6.390625 29.59375 6.390625 
Q 36.859375 6.390625 41.078125 11.03125 
Q 45.3125 15.671875 45.3125 23.6875 
L 45.3125 54.6875 
L 54.296875 54.6875 
L 54.296875 0 
L 45.3125 0 
L 45.3125 8.40625 
Q 42.046875 3.421875 37.71875 1 
Q 33.40625 -1.421875 27.6875 -1.421875 
Q 18.265625 -1.421875 13.375 4.4375 
Q 8.5 10.296875 8.5 21.578125 
z
M 31.109375 56 
z
" id="DejaVuSans-117"/>
      <path d="M 9.8125 72.90625 
L 24.515625 72.90625 
L 43.109375 23.296875 
L 61.8125 72.90625 
L 76.515625 72.90625 
L 76.515625 0 
L 66.890625 0 
L 66.890625 64.015625 
L 48.09375 14.015625 
L 38.1875 14.015625 
L 19.390625 64.015625 
L 19.390625 0 
L 9.8125 0 
z
" id="DejaVuSans-77"/>
      <path d="M 8.015625 75.875 
L 15.828125 75.875 
Q 23.140625 64.359375 26.78125 53.3125 
Q 30.421875 42.28125 30.421875 31.390625 
Q 30.421875 20.453125 26.78125 9.375 
Q 23.140625 -1.703125 15.828125 -13.1875 
L 8.015625 -13.1875 
Q 14.5 -2 17.703125 9.0625 
Q 20.90625 20.125 20.90625 31.390625 
Q 20.90625 42.671875 17.703125 53.65625 
Q 14.5 64.65625 8.015625 75.875 
z
" id="DejaVuSans-41"/>
     </defs>
     <g transform="translate(194.523438 463.7639)scale(0.2 -0.2)">
      <use xlink:href="#DejaVuSans-84"/>
      <use x="60.818359" xlink:href="#DejaVuSans-101"/>
      <use x="122.341797" xlink:href="#DejaVuSans-116"/>
      <use x="161.550781" xlink:href="#DejaVuSans-114"/>
      <use x="202.664062" xlink:href="#DejaVuSans-97"/>
      <use x="263.943359" xlink:href="#DejaVuSans-104"/>
      <use x="327.322266" xlink:href="#DejaVuSans-121"/>
      <use x="386.501953" xlink:href="#DejaVuSans-100"/>
      <use x="449.978516" xlink:href="#DejaVuSans-114"/>
      <use x="491.060547" xlink:href="#DejaVuSans-111"/>
      <use x="552.242188" xlink:href="#DejaVuSans-112"/>
      <use x="615.71875" xlink:href="#DejaVuSans-97"/>
      <use x="676.998047" xlink:href="#DejaVuSans-112"/>
      <use x="740.474609" xlink:href="#DejaVuSans-97"/>
      <use x="801.753906" xlink:href="#DejaVuSans-118"/>
      <use x="860.933594" xlink:href="#DejaVuSans-101"/>
      <use x="922.457031" xlink:href="#DejaVuSans-114"/>
      <use x="963.570312" xlink:href="#DejaVuSans-105"/>
      <use x="991.353516" xlink:href="#DejaVuSans-110"/>
      <use x="1054.732422" xlink:href="#DejaVuSans-101"/>
      <use x="1116.255859" xlink:href="#DejaVuSans-32"/>
      <use x="1148.042969" xlink:href="#DejaVuSans-40"/>
      <use x="1187.056641" xlink:href="#DejaVuSans-117"/>
      <use x="1250.435547" xlink:href="#DejaVuSans-77"/>
      <use x="1336.714844" xlink:href="#DejaVuSans-41"/>
     </g>
    </g>
   </g>
   <g id="matplotlib.axis_2">
    <g id="ytick_1">
     <g id="line2d_41">
      <defs>
       <path d="M 0 0 
L -2 0 
" id="m6a4251db1b" style="stroke:#000000;"/>
      </defs>
      <g>
       <use style="stroke:#000000;" x="81" xlink:href="#m6a4251db1b" y="405.0648"/>
      </g>
     </g>
     <g id="text_6">
      <!-- 0 -->
      <g transform="translate(64.0475 411.903394)scale(0.18 -0.18)">
       <use xlink:href="#DejaVuSans-48"/>
      </g>
     </g>
    </g>
    <g id="ytick_2">
     <g id="line2d_42">
      <g>
       <use style="stroke:#000000;" x="81" xlink:href="#m6a4251db1b" y="360.001275"/>
      </g>
     </g>
     <g id="text_7">
      <!-- 1 -->
      <g transform="translate(64.0475 366.839869)scale(0.18 -0.18)">
       <use xlink:href="#DejaVuSans-49"/>
      </g>
     </g>
    </g>
    <g id="ytick_3">
     <g id="line2d_43">
      <g>
       <use style="stroke:#000000;" x="81" xlink:href="#m6a4251db1b" y="314.937751"/>
      </g>
     </g>
     <g id="text_8">
      <!-- 2 -->
      <defs>
       <path d="M 19.1875 8.296875 
L 53.609375 8.296875 
L 53.609375 0 
L 7.328125 0 
L 7.328125 8.296875 
Q 12.9375 14.109375 22.625 23.890625 
Q 32.328125 33.6875 34.8125 36.53125 
Q 39.546875 41.84375 41.421875 45.53125 
Q 43.3125 49.21875 43.3125 52.78125 
Q 43.3125 58.59375 39.234375 62.25 
Q 35.15625 65.921875 28.609375 65.921875 
Q 23.96875 65.921875 18.8125 64.3125 
Q 13.671875 62.703125 7.8125 59.421875 
L 7.8125 69.390625 
Q 13.765625 71.78125 18.9375 73 
Q 24.125 74.21875 28.421875 74.21875 
Q 39.75 74.21875 46.484375 68.546875 
Q 53.21875 62.890625 53.21875 53.421875 
Q 53.21875 48.921875 51.53125 44.890625 
Q 49.859375 40.875 45.40625 35.40625 
Q 44.1875 33.984375 37.640625 27.21875 
Q 31.109375 20.453125 19.1875 8.296875 
z
" id="DejaVuSans-50"/>
      </defs>
      <g transform="translate(64.0475 321.776345)scale(0.18 -0.18)">
       <use xlink:href="#DejaVuSans-50"/>
      </g>
     </g>
    </g>
    <g id="ytick_4">
     <g id="line2d_44">
      <g>
       <use style="stroke:#000000;" x="81" xlink:href="#m6a4251db1b" y="269.874226"/>
      </g>
     </g>
     <g id="text_9">
      <!-- 3 -->
      <defs>
       <path d="M 40.578125 39.3125 
Q 47.65625 37.796875 51.625 33 
Q 55.609375 28.21875 55.609375 21.1875 
Q 55.609375 10.40625 48.1875 4.484375 
Q 40.765625 -1.421875 27.09375 -1.421875 
Q 22.515625 -1.421875 17.65625 -0.515625 
Q 12.796875 0.390625 7.625 2.203125 
L 7.625 11.71875 
Q 11.71875 9.328125 16.59375 8.109375 
Q 21.484375 6.890625 26.8125 6.890625 
Q 36.078125 6.890625 40.9375 10.546875 
Q 45.796875 14.203125 45.796875 21.1875 
Q 45.796875 27.640625 41.28125 31.265625 
Q 36.765625 34.90625 28.71875 34.90625 
L 20.21875 34.90625 
L 20.21875 43.015625 
L 29.109375 43.015625 
Q 36.375 43.015625 40.234375 45.921875 
Q 44.09375 48.828125 44.09375 54.296875 
Q 44.09375 59.90625 40.109375 62.90625 
Q 36.140625 65.921875 28.71875 65.921875 
Q 24.65625 65.921875 20.015625 65.03125 
Q 15.375 64.15625 9.8125 62.3125 
L 9.8125 71.09375 
Q 15.4375 72.65625 20.34375 73.4375 
Q 25.25 74.21875 29.59375 74.21875 
Q 40.828125 74.21875 47.359375 69.109375 
Q 53.90625 64.015625 53.90625 55.328125 
Q 53.90625 49.265625 50.4375 45.09375 
Q 46.96875 40.921875 40.578125 39.3125 
z
" id="DejaVuSans-51"/>
      </defs>
      <g transform="translate(64.0475 276.71282)scale(0.18 -0.18)">
       <use xlink:href="#DejaVuSans-51"/>
      </g>
     </g>
    </g>
    <g id="ytick_5">
     <g id="line2d_45">
      <g>
       <use style="stroke:#000000;" x="81" xlink:href="#m6a4251db1b" y="224.810702"/>
      </g>
     </g>
     <g id="text_10">
      <!-- 4 -->
      <defs>
       <path d="M 37.796875 64.3125 
L 12.890625 25.390625 
L 37.796875 25.390625 
z
M 35.203125 72.90625 
L 47.609375 72.90625 
L 47.609375 25.390625 
L 58.015625 25.390625 
L 58.015625 17.1875 
L 47.609375 17.1875 
L 47.609375 0 
L 37.796875 0 
L 37.796875 17.1875 
L 4.890625 17.1875 
L 4.890625 26.703125 
z
" id="DejaVuSans-52"/>
      </defs>
      <g transform="translate(64.0475 231.649295)scale(0.18 -0.18)">
       <use xlink:href="#DejaVuSans-52"/>
      </g>
     </g>
    </g>
    <g id="ytick_6">
     <g id="line2d_46">
      <g>
       <use style="stroke:#000000;" x="81" xlink:href="#m6a4251db1b" y="179.747177"/>
      </g>
     </g>
     <g id="text_11">
      <!-- 5 -->
      <defs>
       <path d="M 10.796875 72.90625 
L 49.515625 72.90625 
L 49.515625 64.59375 
L 19.828125 64.59375 
L 19.828125 46.734375 
Q 21.96875 47.46875 24.109375 47.828125 
Q 26.265625 48.1875 28.421875 48.1875 
Q 40.625 48.1875 47.75 41.5 
Q 54.890625 34.8125 54.890625 23.390625 
Q 54.890625 11.625 47.5625 5.09375 
Q 40.234375 -1.421875 26.90625 -1.421875 
Q 22.3125 -1.421875 17.546875 -0.640625 
Q 12.796875 0.140625 7.71875 1.703125 
L 7.71875 11.625 
Q 12.109375 9.234375 16.796875 8.0625 
Q 21.484375 6.890625 26.703125 6.890625 
Q 35.15625 6.890625 40.078125 11.328125 
Q 45.015625 15.765625 45.015625 23.390625 
Q 45.015625 31 40.078125 35.4375 
Q 35.15625 39.890625 26.703125 39.890625 
Q 22.75 39.890625 18.8125 39.015625 
Q 14.890625 38.140625 10.796875 36.28125 
z
" id="DejaVuSans-53"/>
      </defs>
      <g transform="translate(64.0475 186.585771)scale(0.18 -0.18)">
       <use xlink:href="#DejaVuSans-53"/>
      </g>
     </g>
    </g>
    <g id="ytick_7">
     <g id="line2d_47">
      <g>
       <use style="stroke:#000000;" x="81" xlink:href="#m6a4251db1b" y="134.683652"/>
      </g>
     </g>
     <g id="text_12">
      <!-- 6 -->
      <defs>
       <path d="M 33.015625 40.375 
Q 26.375 40.375 22.484375 35.828125 
Q 18.609375 31.296875 18.609375 23.390625 
Q 18.609375 15.53125 22.484375 10.953125 
Q 26.375 6.390625 33.015625 6.390625 
Q 39.65625 6.390625 43.53125 10.953125 
Q 47.40625 15.53125 47.40625 23.390625 
Q 47.40625 31.296875 43.53125 35.828125 
Q 39.65625 40.375 33.015625 40.375 
z
M 52.59375 71.296875 
L 52.59375 62.3125 
Q 48.875 64.0625 45.09375 64.984375 
Q 41.3125 65.921875 37.59375 65.921875 
Q 27.828125 65.921875 22.671875 59.328125 
Q 17.53125 52.734375 16.796875 39.40625 
Q 19.671875 43.65625 24.015625 45.921875 
Q 28.375 48.1875 33.59375 48.1875 
Q 44.578125 48.1875 50.953125 41.515625 
Q 57.328125 34.859375 57.328125 23.390625 
Q 57.328125 12.15625 50.6875 5.359375 
Q 44.046875 -1.421875 33.015625 -1.421875 
Q 20.359375 -1.421875 13.671875 8.265625 
Q 6.984375 17.96875 6.984375 36.375 
Q 6.984375 53.65625 15.1875 63.9375 
Q 23.390625 74.21875 37.203125 74.21875 
Q 40.921875 74.21875 44.703125 73.484375 
Q 48.484375 72.75 52.59375 71.296875 
z
" id="DejaVuSans-54"/>
      </defs>
      <g transform="translate(64.0475 141.522246)scale(0.18 -0.18)">
       <use xlink:href="#DejaVuSans-54"/>
      </g>
     </g>
    </g>
    <g id="ytick_8">
     <g id="line2d_48">
      <g>
       <use style="stroke:#000000;" x="81" xlink:href="#m6a4251db1b" y="89.620128"/>
      </g>
     </g>
     <g id="text_13">
      <!-- 7 -->
      <defs>
       <path d="M 8.203125 72.90625 
L 55.078125 72.90625 
L 55.078125 68.703125 
L 28.609375 0 
L 18.3125 0 
L 43.21875 64.59375 
L 8.203125 64.59375 
z
" id="DejaVuSans-55"/>
      </defs>
      <g transform="translate(64.0475 96.458722)scale(0.18 -0.18)">
       <use xlink:href="#DejaVuSans-55"/>
      </g>
     </g>
    </g>
    <g id="text_14">
     <!-- $(RFU/OD) \times 10^4$ -->
     <defs>
      <path d="M 25.203125 64.796875 
L 20.21875 38.921875 
L 32.90625 38.921875 
Q 40.375 38.921875 44.984375 43.046875 
Q 49.609375 47.171875 49.609375 53.8125 
Q 49.609375 59.125 46.5 61.953125 
Q 43.40625 64.796875 37.59375 64.796875 
z
M 43.3125 35.015625 
Q 46.4375 34.28125 48.515625 31.390625 
Q 50.59375 28.515625 53.328125 19.921875 
L 59.515625 0 
L 49.125 0 
L 43.40625 18.703125 
Q 41.21875 25.921875 38.328125 28.359375 
Q 35.453125 30.8125 29.5 30.8125 
L 18.609375 30.8125 
L 12.59375 0 
L 2.6875 0 
L 16.890625 72.90625 
L 39.109375 72.90625 
Q 49.21875 72.90625 54.609375 68.328125 
Q 60.015625 63.765625 60.015625 55.171875 
Q 60.015625 47.5625 55.421875 41.984375 
Q 50.828125 36.421875 43.3125 35.015625 
z
" id="DejaVuSans-Oblique-82"/>
      <path d="M 16.890625 72.90625 
L 58.6875 72.90625 
L 57.078125 64.59375 
L 25.09375 64.59375 
L 20.90625 43.109375 
L 49.8125 43.109375 
L 48.1875 34.8125 
L 19.28125 34.8125 
L 12.5 0 
L 2.6875 0 
z
" id="DejaVuSans-Oblique-70"/>
      <path d="M 15.484375 72.90625 
L 25.390625 72.90625 
L 16.796875 28.609375 
Q 16.265625 25.640625 16.046875 23.703125 
Q 15.828125 21.78125 15.828125 20.3125 
Q 15.828125 13.578125 19.578125 10.078125 
Q 23.34375 6.59375 30.609375 6.59375 
Q 40.046875 6.59375 45.28125 11.765625 
Q 50.53125 16.9375 52.78125 28.609375 
L 61.375 72.90625 
L 71.296875 72.90625 
L 62.5 27.390625 
Q 59.625 12.640625 51.5625 5.609375 
Q 43.5 -1.421875 29.5 -1.421875 
Q 18.5625 -1.421875 12.1875 4.078125 
Q 5.8125 9.578125 5.8125 19 
Q 5.8125 20.703125 6.046875 22.828125 
Q 6.296875 24.953125 6.78125 27.390625 
z
" id="DejaVuSans-Oblique-85"/>
      <path d="M 25.390625 72.90625 
L 33.6875 72.90625 
L 8.296875 -9.28125 
L 0 -9.28125 
z
" id="DejaVuSans-47"/>
      <path d="M 45.609375 66.21875 
Q 37.5 66.21875 31.296875 62.28125 
Q 25.09375 58.34375 20.515625 50.296875 
Q 17.578125 45.171875 16.03125 39.40625 
Q 14.5 33.640625 14.5 27.78125 
Q 14.5 17.625 19.359375 12.109375 
Q 24.21875 6.59375 33.109375 6.59375 
Q 41.109375 6.59375 47.375 10.5625 
Q 53.65625 14.546875 58.109375 22.40625 
Q 61.078125 27.6875 62.640625 33.46875 
Q 64.203125 39.265625 64.203125 45.015625 
Q 64.203125 55.125 59.3125 60.671875 
Q 54.4375 66.21875 45.609375 66.21875 
z
M 32.8125 -1.421875 
Q 19.390625 -1.421875 11.6875 6.53125 
Q 4 14.5 4 28.328125 
Q 4 36.234375 7 44.484375 
Q 10.015625 52.734375 15.28125 59.1875 
Q 21.484375 66.75 29.09375 70.484375 
Q 36.71875 74.21875 45.90625 74.21875 
Q 59.28125 74.21875 66.984375 66.328125 
Q 74.703125 58.453125 74.703125 44.828125 
Q 74.703125 36.421875 71.765625 28.3125 
Q 68.84375 20.21875 63.375 13.625 
Q 57.125 6 49.578125 2.28125 
Q 42.046875 -1.421875 32.8125 -1.421875 
z
" id="DejaVuSans-Oblique-79"/>
      <path d="M 16.890625 72.90625 
L 38.09375 72.90625 
Q 54.984375 72.90625 63.59375 65.75 
Q 72.21875 58.59375 72.21875 44.484375 
Q 72.21875 35.15625 68.9375 26.53125 
Q 65.671875 17.921875 59.90625 12.015625 
Q 54.109375 5.953125 45.171875 2.96875 
Q 36.234375 0 24.03125 0 
L 2.6875 0 
z
M 25.203125 64.796875 
L 14.203125 8.109375 
L 27.09375 8.109375 
Q 43.65625 8.109375 52.734375 17.625 
Q 61.8125 27.15625 61.8125 44.484375 
Q 61.8125 54.984375 55.953125 59.890625 
Q 50.09375 64.796875 37.59375 64.796875 
z
" id="DejaVuSans-Oblique-68"/>
      <path d="M 70.125 53.71875 
L 47.796875 31.296875 
L 70.125 8.984375 
L 64.3125 3.078125 
L 41.890625 25.484375 
L 19.484375 3.078125 
L 13.71875 8.984375 
L 35.984375 31.296875 
L 13.71875 53.71875 
L 19.484375 59.625 
L 41.890625 37.203125 
L 64.3125 59.625 
z
" id="DejaVuSans-215"/>
     </defs>
     <g transform="translate(55.888125 315.8488)rotate(-90)scale(0.2 -0.2)">
      <use transform="translate(0 0.684375)" xlink:href="#DejaVuSans-40"/>
      <use transform="translate(39.013672 0.684375)" xlink:href="#DejaVuSans-Oblique-82"/>
      <use transform="translate(108.496094 0.684375)" xlink:href="#DejaVuSans-Oblique-70"/>
      <use transform="translate(166.015625 0.684375)" xlink:href="#DejaVuSans-Oblique-85"/>
      <use transform="translate(239.208984 0.684375)" xlink:href="#DejaVuSans-47"/>
      <use transform="translate(272.900391 0.684375)" xlink:href="#DejaVuSans-Oblique-79"/>
      <use transform="translate(351.611328 0.684375)" xlink:href="#DejaVuSans-Oblique-68"/>
      <use transform="translate(428.613281 0.684375)" xlink:href="#DejaVuSans-41"/>
      <use transform="translate(487.109375 0.684375)" xlink:href="#DejaVuSans-215"/>
      <use transform="translate(590.380859 0.684375)" xlink:href="#DejaVuSans-49"/>
      <use transform="translate(654.003906 0.684375)" xlink:href="#DejaVuSans-48"/>
      <use transform="translate(718.583984 38.965625)scale(0.7)" xlink:href="#DejaVuSans-52"/>
     </g>
    </g>
   </g>
   <g id="line2d_49">
    <path clip-path="url(#p3a56f91859)" d="M 70.425164 404.928742 
L 141.707009 404.665365 
L 186.173863 404.282779 
L 218.50582 403.790221 
L 244.352988 403.181303 
L 265.828502 402.459379 
L 284.335663 401.61881 
L 300.467019 400.667754 
L 314.857059 399.5999 
L 327.786846 398.420919 
L 339.581748 397.124902 
L 350.391214 395.7163 
L 360.402592 394.189725 
L 369.703736 392.548894 
L 378.412221 390.788897 
L 386.598844 388.909291 
L 394.322762 386.909576 
L 401.644724 384.785866 
L 408.602546 382.538011 
L 415.245883 380.159605 
L 421.604994 377.648071 
L 427.711482 374.998242 
L 433.584647 372.208336 
L 439.256296 369.268704 
L 444.741058 366.176028 
L 450.0593 362.922313 
L 455.222987 359.502886 
L 460.251535 355.90648 
L 465.156236 352.125344 
L 469.95089 348.148086 
L 474.645436 343.964506 
L 479.249176 339.563346 
L 483.770597 334.932443 
L 488.217296 330.058864 
L 492.597572 324.927079 
L 496.918282 319.521209 
L 501.185032 313.825089 
L 505.402345 307.82234 
L 509.576059 301.492915 
L 513.710473 294.816997 
L 517.809588 287.773342 
L 521.876967 280.339494 
L 525.916451 272.490384 
L 529.930349 264.201787 
L 533.92113 255.447254 
L 537.891791 246.19694 
L 541.843742 236.422396 
L 545.779288 226.090831 
L 549.700161 215.168433 
L 550.350088 213.294588 
L 550.350088 213.294588 
" style="fill:none;stroke:#0099ff;stroke-linecap:square;stroke-width:1.5;"/>
   </g>
   <g id="line2d_50">
    <path clip-path="url(#p3a56f91859)" d="M 70.425164 405.060055 
L 191.984282 404.931649 
L 230.819557 404.67872 
L 255.349032 404.308995 
L 273.597773 403.819858 
L 288.079114 403.216194 
L 300.189056 402.493692 
L 310.578148 401.654987 
L 319.713769 400.697251 
L 327.838726 399.625532 
L 335.218313 398.43066 
L 341.949888 397.119007 
L 348.181916 395.681577 
L 354.018293 394.108831 
L 359.480788 392.408668 
L 364.665175 390.563239 
L 369.59644 388.572339 
L 374.316101 386.427179 
L 378.856057 384.119236 
L 383.241126 381.64043 
L 387.490823 378.983308 
L 391.647626 376.121757 
L 395.717311 373.049846 
L 399.727366 369.743459 
L 403.686756 366.189851 
L 407.620828 362.358863 
L 411.546666 358.223248 
L 415.474911 353.759561 
L 419.42624 348.930054 
L 423.419616 343.694341 
L 427.47136 338.011753 
L 431.611929 331.817249 
L 435.867488 325.045904 
L 440.282569 317.597229 
L 444.912364 309.3432 
L 449.838521 300.097647 
L 455.19829 289.554528 
L 461.27144 277.101508 
L 468.826059 261.07334 
L 491.883677 211.796294 
L 497.925992 199.625644 
L 503.268967 189.353149 
L 508.190274 180.36458 
L 512.826448 172.352506 
L 517.258331 165.131166 
L 521.540449 158.573587 
L 525.710454 152.58965 
L 529.798915 147.107485 
L 533.830554 142.069865 
L 537.825788 137.430485 
L 541.80346 133.149569 
L 545.781376 129.192825 
L 549.776015 125.531233 
L 550.350088 125.029773 
L 550.350088 125.029773 
" style="fill:none;stroke:#3372cc;stroke-linecap:square;stroke-width:1.5;"/>
   </g>
   <g id="line2d_51">
    <path clip-path="url(#p3a56f91859)" d="M 70.425164 405.054316 
L 155.340954 404.917715 
L 188.190866 404.656457 
L 209.341485 404.277288 
L 225.287713 403.773566 
L 237.895068 403.157202 
L 248.401141 402.425921 
L 257.455708 401.576799 
L 265.443196 400.606738 
L 272.610395 399.51271 
L 279.125476 398.291911 
L 284.980468 396.973295 
L 290.419956 395.526255 
L 295.504515 393.948882 
L 300.281892 392.23975 
L 304.874691 390.361241 
L 309.215333 388.347464 
L 313.402978 386.159982 
L 317.444551 383.796943 
L 321.347109 381.257593 
L 325.172533 378.50077 
L 328.91529 375.525875 
L 332.572044 372.334027 
L 336.184642 368.88474 
L 339.783676 365.137688 
L 343.353367 361.097872 
L 346.916219 356.729243 
L 350.519911 351.954601 
L 354.13752 346.789834 
L 357.830072 341.12514 
L 361.587464 334.948442 
L 365.445411 328.173533 
L 369.445817 320.692402 
L 373.63052 312.386989 
L 378.072104 303.067558 
L 382.885398 292.438363 
L 388.279498 279.970975 
L 394.830045 264.241184 
L 407.803458 232.329521 
L 415.605289 213.51565 
L 421.389411 200.134644 
L 426.414379 189.057923 
L 430.998445 179.48054 
L 435.296263 171.007171 
L 439.389497 163.420895 
L 443.334255 156.571448 
L 447.16845 150.353917 
L 450.920685 144.6881 
L 454.61238 139.511926 
L 458.265968 134.768221 
L 461.89753 130.414044 
L 465.526625 126.407279 
L 469.16632 122.717822 
L 472.831791 119.316913 
L 476.540926 116.177326 
L 480.310111 113.277168 
L 484.157193 110.596913 
L 488.102871 108.11864 
L 492.169233 105.827213 
L 496.381123 103.709445 
L 500.767274 101.753746 
L 505.360728 99.950248 
L 510.199345 98.290841 
L 515.330426 96.768013 
L 520.810687 95.375709 
L 526.709753 94.10905 
L 533.115329 92.964083 
L 540.142892 91.937333 
L 547.945085 91.026185 
L 550.350088 90.78621 
L 550.350088 90.78621 
" style="fill:none;stroke:#674c9a;stroke-linecap:square;stroke-width:1.5;"/>
   </g>
   <g id="line2d_52">
    <path clip-path="url(#p3a56f91859)" d="M 70.425164 405.057878 
L 153.323952 404.930491 
L 182.977659 404.677094 
L 201.824811 404.304755 
L 215.82757 403.812388 
L 227.059598 403.196526 
L 236.133065 402.485704 
L 244.05016 401.650054 
L 251.094616 400.684405 
L 257.226204 399.627812 
L 262.859322 398.438452 
L 268.076785 397.111647 
L 272.941812 395.643136 
L 277.503805 394.029129 
L 281.802133 392.266369 
L 285.868705 390.352179 
L 289.729763 388.284507 
L 293.407163 386.061969 
L 296.919318 383.683876 
L 300.374546 381.07668 
L 303.767541 378.234375 
L 307.09469 375.152643 
L 310.353716 371.829007 
L 313.613455 368.181008 
L 316.859853 364.205294 
L 320.081629 359.901989 
L 323.326932 355.188693 
L 326.577656 350.070426 
L 329.868689 344.470247 
L 333.224457 338.316224 
L 336.660517 331.545323 
L 340.224912 324.020634 
L 343.910713 315.713955 
L 347.809146 306.371281 
L 352.006481 295.719574 
L 356.630906 283.357669 
L 361.992746 268.36415 
L 369.294714 247.223238 
L 382.116369 210.057501 
L 387.608495 194.889631 
L 392.277479 182.631495 
L 396.50311 172.147568 
L 400.449894 162.939351 
L 404.196749 154.753311 
L 407.793863 147.420617 
L 411.279966 140.811486 
L 414.68502 134.825879 
L 418.032133 129.386197 
L 421.338966 124.431597 
L 424.618798 119.913591 
L 427.887639 115.78509 
L 431.162819 112.003449 
L 434.456383 108.537429 
L 437.786219 105.354093 
L 441.163868 102.431108 
L 444.608862 99.742889 
L 448.136774 97.27128 
L 451.770487 94.99674 
L 455.532375 92.904383 
L 459.451779 90.979537 
L 463.556365 89.212479 
L 467.88497 87.59247 
L 472.482643 86.111105 
L 477.401373 84.762225 
L 482.708187 83.540158 
L 488.489048 82.440199 
L 494.857613 81.458428 
L 501.963638 80.592211 
L 510.020988 79.839035 
L 519.341183 79.197086 
L 530.410625 78.664742 
L 544.049804 78.240471 
L 550.350088 78.104114 
L 550.350088 78.104114 
" style="fill:none;stroke:#9a2667;stroke-linecap:square;stroke-width:1.5;"/>
   </g>
   <g id="line2d_53">
    <path clip-path="url(#p3a56f91859)" d="M 70.425164 405.06017 
L 160.922975 404.932451 
L 190.125518 404.674592 
L 208.060531 404.307285 
L 221.531895 403.818915 
L 232.39945 403.204943 
L 241.233941 402.490751 
L 248.952221 401.648138 
L 255.587785 400.709482 
L 261.617529 399.638663 
L 267.152927 398.430444 
L 272.108884 397.128172 
L 276.747929 395.685789 
L 281.112275 394.099212 
L 285.235953 392.364927 
L 289.146823 390.48004 
L 292.867995 388.442334 
L 296.418866 386.250309 
L 299.909454 383.834884 
L 303.334731 381.18882 
L 306.610266 378.379734 
L 309.901639 375.259758 
L 313.120879 371.898018 
L 316.333995 368.215747 
L 319.528763 364.2108 
L 322.695407 359.884807 
L 325.93431 355.076543 
L 329.16805 349.875085 
L 332.478105 344.125398 
L 335.879306 337.762951 
L 339.378956 330.736024 
L 343.015786 322.927304 
L 346.84683 314.167044 
L 350.967615 304.177422 
L 355.516412 292.550828 
L 360.843938 278.295348 
L 368.223283 257.848483 
L 379.956427 225.349413 
L 385.367409 211.062169 
L 389.972517 199.515702 
L 394.131123 189.67654 
L 398.013085 181.053437 
L 401.688404 173.421083 
L 405.230955 166.569549 
L 408.668532 160.399432 
L 412.022975 154.829302 
L 415.327806 149.767838 
L 418.593178 145.169116 
L 421.841009 140.975461 
L 425.087437 137.144067 
L 428.343849 133.642499 
L 431.623537 130.43991 
L 434.951276 127.499693 
L 438.338448 124.802754 
L 441.804889 122.326447 
L 445.370518 120.052445 
L 449.057595 117.964835 
L 452.895181 116.048081 
L 456.913773 114.290453 
L 461.150204 112.681645 
L 465.648504 111.213061 
L 470.46255 109.877548 
L 475.659984 108.66915 
L 481.325452 107.583379 
L 487.572925 106.616168 
L 494.55556 105.7645 
L 502.48827 105.026055 
L 511.691551 104.398757 
L 522.666323 103.881023 
L 536.269022 103.471277 
L 550.350088 103.216562 
L 550.350088 103.216562 
" style="fill:none;stroke:#ce0035;stroke-linecap:square;stroke-width:1.5;"/>
   </g>
   <g id="line2d_54">
    <defs>
     <path d="M 0 3 
C 0.795609 3 1.55874 2.683901 2.12132 2.12132 
C 2.683901 1.55874 3 0.795609 3 0 
C 3 -0.795609 2.683901 -1.55874 2.12132 -2.12132 
C 1.55874 -2.683901 0.795609 -3 0 -3 
C -0.795609 -3 -1.55874 -2.683901 -2.12132 -2.12132 
C -2.683901 -1.55874 -3 -0.795609 -3 0 
C -3 0.795609 -2.683901 1.55874 -2.12132 2.12132 
C -1.55874 2.683901 -0.795609 3 0 3 
z
" id="m8e227b9392" style="stroke:#0099ff;"/>
    </defs>
    <g clip-path="url(#p3a56f91859)">
     <use style="fill:#0099ff;stroke:#0099ff;" x="-1" xlink:href="#m8e227b9392" y="395.368472"/>
     <use style="fill:#0099ff;stroke:#0099ff;" x="179.549735" xlink:href="#m8e227b9392" y="395.368077"/>
     <use style="fill:#0099ff;stroke:#0099ff;" x="222.974956" xlink:href="#m8e227b9392" y="395.428149"/>
     <use style="fill:#0099ff;stroke:#0099ff;" x="255.824867" xlink:href="#m8e227b9392" y="395.000297"/>
     <use style="fill:#0099ff;stroke:#0099ff;" x="288.674779" xlink:href="#m8e227b9392" y="394.578013"/>
     <use style="fill:#0099ff;stroke:#0099ff;" x="332.1" xlink:href="#m8e227b9392" y="393.56985"/>
     <use style="fill:#0099ff;stroke:#0099ff;" x="364.949912" xlink:href="#m8e227b9392" y="391.881346"/>
     <use style="fill:#0099ff;stroke:#0099ff;" x="397.799823" xlink:href="#m8e227b9392" y="388.182022"/>
     <use style="fill:#0099ff;stroke:#0099ff;" x="441.225044" xlink:href="#m8e227b9392" y="372.335672"/>
     <use style="fill:#0099ff;stroke:#0099ff;" x="474.074956" xlink:href="#m8e227b9392" y="347.79079"/>
     <use style="fill:#0099ff;stroke:#0099ff;" x="506.924867" xlink:href="#m8e227b9392" y="297.940039"/>
     <use style="fill:#0099ff;stroke:#0099ff;" x="550.350088" xlink:href="#m8e227b9392" y="211.231001"/>
    </g>
   </g>
   <g id="line2d_55">
    <g clip-path="url(#p3a56f91859)">
     <use style="fill:#0099ff;stroke:#0099ff;" x="-1" xlink:href="#m8e227b9392" y="395.107164"/>
     <use style="fill:#0099ff;stroke:#0099ff;" x="179.549735" xlink:href="#m8e227b9392" y="395.107145"/>
     <use style="fill:#0099ff;stroke:#0099ff;" x="222.974956" xlink:href="#m8e227b9392" y="395.162991"/>
     <use style="fill:#0099ff;stroke:#0099ff;" x="255.824867" xlink:href="#m8e227b9392" y="394.768066"/>
     <use style="fill:#0099ff;stroke:#0099ff;" x="288.674779" xlink:href="#m8e227b9392" y="394.369439"/>
     <use style="fill:#0099ff;stroke:#0099ff;" x="332.1" xlink:href="#m8e227b9392" y="393.590857"/>
     <use style="fill:#0099ff;stroke:#0099ff;" x="364.949912" xlink:href="#m8e227b9392" y="391.671041"/>
     <use style="fill:#0099ff;stroke:#0099ff;" x="397.799823" xlink:href="#m8e227b9392" y="388.435848"/>
     <use style="fill:#0099ff;stroke:#0099ff;" x="441.225044" xlink:href="#m8e227b9392" y="373.276158"/>
     <use style="fill:#0099ff;stroke:#0099ff;" x="474.074956" xlink:href="#m8e227b9392" y="350.37382"/>
     <use style="fill:#0099ff;stroke:#0099ff;" x="506.924867" xlink:href="#m8e227b9392" y="299.409682"/>
     <use style="fill:#0099ff;stroke:#0099ff;" x="550.350088" xlink:href="#m8e227b9392" y="217.610363"/>
    </g>
   </g>
   <g id="line2d_56">
    <g clip-path="url(#p3a56f91859)">
     <use style="fill:#0099ff;stroke:#0099ff;" x="-1" xlink:href="#m8e227b9392" y="395.014978"/>
     <use style="fill:#0099ff;stroke:#0099ff;" x="179.549735" xlink:href="#m8e227b9392" y="395.014533"/>
     <use style="fill:#0099ff;stroke:#0099ff;" x="222.974956" xlink:href="#m8e227b9392" y="395.07446"/>
     <use style="fill:#0099ff;stroke:#0099ff;" x="255.824867" xlink:href="#m8e227b9392" y="394.727457"/>
     <use style="fill:#0099ff;stroke:#0099ff;" x="288.674779" xlink:href="#m8e227b9392" y="394.411358"/>
     <use style="fill:#0099ff;stroke:#0099ff;" x="332.1" xlink:href="#m8e227b9392" y="393.440168"/>
     <use style="fill:#0099ff;stroke:#0099ff;" x="364.949912" xlink:href="#m8e227b9392" y="391.860346"/>
     <use style="fill:#0099ff;stroke:#0099ff;" x="397.799823" xlink:href="#m8e227b9392" y="388.183161"/>
     <use style="fill:#0099ff;stroke:#0099ff;" x="441.225044" xlink:href="#m8e227b9392" y="373.389208"/>
     <use style="fill:#0099ff;stroke:#0099ff;" x="474.074956" xlink:href="#m8e227b9392" y="349.00724"/>
     <use style="fill:#0099ff;stroke:#0099ff;" x="506.924867" xlink:href="#m8e227b9392" y="306.279981"/>
     <use style="fill:#0099ff;stroke:#0099ff;" x="550.350088" xlink:href="#m8e227b9392" y="211.758164"/>
    </g>
   </g>
   <g id="line2d_57">
    <defs>
     <path d="M 0 3 
C 0.795609 3 1.55874 2.683901 2.12132 2.12132 
C 2.683901 1.55874 3 0.795609 3 0 
C 3 -0.795609 2.683901 -1.55874 2.12132 -2.12132 
C 1.55874 -2.683901 0.795609 -3 0 -3 
C -0.795609 -3 -1.55874 -2.683901 -2.12132 -2.12132 
C -2.683901 -1.55874 -3 -0.795609 -3 0 
C -3 0.795609 -2.683901 1.55874 -2.12132 2.12132 
C -1.55874 2.683901 -0.795609 3 0 3 
z
" id="ma06385decd" style="stroke:#3372cc;"/>
    </defs>
    <g clip-path="url(#p3a56f91859)">
     <use style="fill:#3372cc;stroke:#3372cc;" x="-1" xlink:href="#ma06385decd" y="401.039618"/>
     <use style="fill:#3372cc;stroke:#3372cc;" x="179.549735" xlink:href="#ma06385decd" y="401.039436"/>
     <use style="fill:#3372cc;stroke:#3372cc;" x="222.974956" xlink:href="#ma06385decd" y="400.945378"/>
     <use style="fill:#3372cc;stroke:#3372cc;" x="255.824867" xlink:href="#ma06385decd" y="400.472523"/>
     <use style="fill:#3372cc;stroke:#3372cc;" x="288.674779" xlink:href="#ma06385decd" y="399.647562"/>
     <use style="fill:#3372cc;stroke:#3372cc;" x="332.1" xlink:href="#ma06385decd" y="396.662813"/>
     <use style="fill:#3372cc;stroke:#3372cc;" x="364.949912" xlink:href="#ma06385decd" y="391.568413"/>
     <use style="fill:#3372cc;stroke:#3372cc;" x="397.799823" xlink:href="#ma06385decd" y="373.245982"/>
     <use style="fill:#3372cc;stroke:#3372cc;" x="441.225044" xlink:href="#ma06385decd" y="317.111549"/>
     <use style="fill:#3372cc;stroke:#3372cc;" x="474.074956" xlink:href="#ma06385decd" y="258.180596"/>
     <use style="fill:#3372cc;stroke:#3372cc;" x="506.924867" xlink:href="#ma06385decd" y="180.548837"/>
     <use style="fill:#3372cc;stroke:#3372cc;" x="550.350088" xlink:href="#ma06385decd" y="127.858342"/>
    </g>
   </g>
   <g id="line2d_58">
    <g clip-path="url(#p3a56f91859)">
     <use style="fill:#3372cc;stroke:#3372cc;" x="-1" xlink:href="#ma06385decd" y="401.115271"/>
     <use style="fill:#3372cc;stroke:#3372cc;" x="179.549735" xlink:href="#ma06385decd" y="401.115034"/>
     <use style="fill:#3372cc;stroke:#3372cc;" x="222.974956" xlink:href="#ma06385decd" y="400.963583"/>
     <use style="fill:#3372cc;stroke:#3372cc;" x="255.824867" xlink:href="#ma06385decd" y="400.531484"/>
     <use style="fill:#3372cc;stroke:#3372cc;" x="288.674779" xlink:href="#ma06385decd" y="399.704459"/>
     <use style="fill:#3372cc;stroke:#3372cc;" x="332.1" xlink:href="#ma06385decd" y="397.005143"/>
     <use style="fill:#3372cc;stroke:#3372cc;" x="364.949912" xlink:href="#ma06385decd" y="390.962343"/>
     <use style="fill:#3372cc;stroke:#3372cc;" x="397.799823" xlink:href="#ma06385decd" y="373.164793"/>
     <use style="fill:#3372cc;stroke:#3372cc;" x="441.225044" xlink:href="#ma06385decd" y="310.370228"/>
     <use style="fill:#3372cc;stroke:#3372cc;" x="474.074956" xlink:href="#ma06385decd" y="243.686675"/>
     <use style="fill:#3372cc;stroke:#3372cc;" x="506.924867" xlink:href="#ma06385decd" y="178.081106"/>
     <use style="fill:#3372cc;stroke:#3372cc;" x="550.350088" xlink:href="#ma06385decd" y="128.027959"/>
    </g>
   </g>
   <g id="line2d_59">
    <g clip-path="url(#p3a56f91859)">
     <use style="fill:#3372cc;stroke:#3372cc;" x="-1" xlink:href="#ma06385decd" y="401.134311"/>
     <use style="fill:#3372cc;stroke:#3372cc;" x="179.549735" xlink:href="#ma06385decd" y="401.134065"/>
     <use style="fill:#3372cc;stroke:#3372cc;" x="222.974956" xlink:href="#ma06385decd" y="401.021528"/>
     <use style="fill:#3372cc;stroke:#3372cc;" x="255.824867" xlink:href="#ma06385decd" y="400.608374"/>
     <use style="fill:#3372cc;stroke:#3372cc;" x="288.674779" xlink:href="#ma06385decd" y="399.770905"/>
     <use style="fill:#3372cc;stroke:#3372cc;" x="332.1" xlink:href="#ma06385decd" y="397.236689"/>
     <use style="fill:#3372cc;stroke:#3372cc;" x="364.949912" xlink:href="#ma06385decd" y="390.246632"/>
     <use style="fill:#3372cc;stroke:#3372cc;" x="397.799823" xlink:href="#ma06385decd" y="374.556129"/>
     <use style="fill:#3372cc;stroke:#3372cc;" x="441.225044" xlink:href="#ma06385decd" y="313.253162"/>
     <use style="fill:#3372cc;stroke:#3372cc;" x="474.074956" xlink:href="#ma06385decd" y="255.711711"/>
     <use style="fill:#3372cc;stroke:#3372cc;" x="506.924867" xlink:href="#ma06385decd" y="182.72124"/>
     <use style="fill:#3372cc;stroke:#3372cc;" x="550.350088" xlink:href="#ma06385decd" y="121.3815"/>
    </g>
   </g>
   <g id="line2d_60">
    <defs>
     <path d="M 0 3 
C 0.795609 3 1.55874 2.683901 2.12132 2.12132 
C 2.683901 1.55874 3 0.795609 3 0 
C 3 -0.795609 2.683901 -1.55874 2.12132 -2.12132 
C 1.55874 -2.683901 0.795609 -3 0 -3 
C -0.795609 -3 -1.55874 -2.683901 -2.12132 -2.12132 
C -2.683901 -1.55874 -3 -0.795609 -3 0 
C -3 0.795609 -2.683901 1.55874 -2.12132 2.12132 
C -1.55874 2.683901 -0.795609 3 0 3 
z
" id="mc6dd629934" style="stroke:#674c9a;"/>
    </defs>
    <g clip-path="url(#p3a56f91859)">
     <use style="fill:#674c9a;stroke:#674c9a;" x="-1" xlink:href="#mc6dd629934" y="402.151715"/>
     <use style="fill:#674c9a;stroke:#674c9a;" x="179.549735" xlink:href="#mc6dd629934" y="402.15116"/>
     <use style="fill:#674c9a;stroke:#674c9a;" x="222.974956" xlink:href="#mc6dd629934" y="401.593079"/>
     <use style="fill:#674c9a;stroke:#674c9a;" x="255.824867" xlink:href="#mc6dd629934" y="400.115146"/>
     <use style="fill:#674c9a;stroke:#674c9a;" x="288.674779" xlink:href="#mc6dd629934" y="395.784173"/>
     <use style="fill:#674c9a;stroke:#674c9a;" x="332.1" xlink:href="#mc6dd629934" y="377.305666"/>
     <use style="fill:#674c9a;stroke:#674c9a;" x="364.949912" xlink:href="#mc6dd629934" y="330.345487"/>
     <use style="fill:#674c9a;stroke:#674c9a;" x="397.799823" xlink:href="#mc6dd629934" y="261.351309"/>
     <use style="fill:#674c9a;stroke:#674c9a;" x="441.225044" xlink:href="#mc6dd629934" y="162.726722"/>
     <use style="fill:#674c9a;stroke:#674c9a;" x="474.074956" xlink:href="#mc6dd629934" y="117.21893"/>
     <use style="fill:#674c9a;stroke:#674c9a;" x="506.924867" xlink:href="#mc6dd629934" y="99.527327"/>
     <use style="fill:#674c9a;stroke:#674c9a;" x="550.350088" xlink:href="#mc6dd629934" y="91.941693"/>
    </g>
   </g>
   <g id="line2d_61">
    <g clip-path="url(#p3a56f91859)">
     <use style="fill:#674c9a;stroke:#674c9a;" x="-1" xlink:href="#mc6dd629934" y="402.125666"/>
     <use style="fill:#674c9a;stroke:#674c9a;" x="179.549735" xlink:href="#mc6dd629934" y="402.125223"/>
     <use style="fill:#674c9a;stroke:#674c9a;" x="222.974956" xlink:href="#mc6dd629934" y="401.44562"/>
     <use style="fill:#674c9a;stroke:#674c9a;" x="255.824867" xlink:href="#mc6dd629934" y="399.89947"/>
     <use style="fill:#674c9a;stroke:#674c9a;" x="288.674779" xlink:href="#mc6dd629934" y="395.5379"/>
     <use style="fill:#674c9a;stroke:#674c9a;" x="332.1" xlink:href="#mc6dd629934" y="374.972121"/>
     <use style="fill:#674c9a;stroke:#674c9a;" x="364.949912" xlink:href="#mc6dd629934" y="327.013191"/>
     <use style="fill:#674c9a;stroke:#674c9a;" x="397.799823" xlink:href="#mc6dd629934" y="254.045717"/>
     <use style="fill:#674c9a;stroke:#674c9a;" x="441.225044" xlink:href="#mc6dd629934" y="158.570746"/>
     <use style="fill:#674c9a;stroke:#674c9a;" x="474.074956" xlink:href="#mc6dd629934" y="118.04872"/>
     <use style="fill:#674c9a;stroke:#674c9a;" x="506.924867" xlink:href="#mc6dd629934" y="97.267111"/>
     <use style="fill:#674c9a;stroke:#674c9a;" x="550.350088" xlink:href="#mc6dd629934" y="97.491017"/>
    </g>
   </g>
   <g id="line2d_62">
    <g clip-path="url(#p3a56f91859)">
     <use style="fill:#674c9a;stroke:#674c9a;" x="-1" xlink:href="#mc6dd629934" y="402.029651"/>
     <use style="fill:#674c9a;stroke:#674c9a;" x="179.549735" xlink:href="#mc6dd629934" y="402.028969"/>
     <use style="fill:#674c9a;stroke:#674c9a;" x="222.974956" xlink:href="#mc6dd629934" y="401.425975"/>
     <use style="fill:#674c9a;stroke:#674c9a;" x="255.824867" xlink:href="#mc6dd629934" y="399.855718"/>
     <use style="fill:#674c9a;stroke:#674c9a;" x="288.674779" xlink:href="#mc6dd629934" y="395.804096"/>
     <use style="fill:#674c9a;stroke:#674c9a;" x="332.1" xlink:href="#mc6dd629934" y="374.876876"/>
     <use style="fill:#674c9a;stroke:#674c9a;" x="364.949912" xlink:href="#mc6dd629934" y="323.783059"/>
     <use style="fill:#674c9a;stroke:#674c9a;" x="397.799823" xlink:href="#mc6dd629934" y="255.537146"/>
     <use style="fill:#674c9a;stroke:#674c9a;" x="441.225044" xlink:href="#mc6dd629934" y="163.853384"/>
     <use style="fill:#674c9a;stroke:#674c9a;" x="474.074956" xlink:href="#mc6dd629934" y="117.153954"/>
     <use style="fill:#674c9a;stroke:#674c9a;" x="506.924867" xlink:href="#mc6dd629934" y="93.54029"/>
     <use style="fill:#674c9a;stroke:#674c9a;" x="550.350088" xlink:href="#mc6dd629934" y="89.679416"/>
    </g>
   </g>
   <g id="line2d_63">
    <defs>
     <path d="M 0 3 
C 0.795609 3 1.55874 2.683901 2.12132 2.12132 
C 2.683901 1.55874 3 0.795609 3 0 
C 3 -0.795609 2.683901 -1.55874 2.12132 -2.12132 
C 1.55874 -2.683901 0.795609 -3 0 -3 
C -0.795609 -3 -1.55874 -2.683901 -2.12132 -2.12132 
C -2.683901 -1.55874 -3 -0.795609 -3 0 
C -3 0.795609 -2.683901 1.55874 -2.12132 2.12132 
C -1.55874 2.683901 -0.795609 3 0 3 
z
" id="m54b34a5783" style="stroke:#9a2667;"/>
    </defs>
    <g clip-path="url(#p3a56f91859)">
     <use style="fill:#9a2667;stroke:#9a2667;" x="-1" xlink:href="#m54b34a5783" y="404.261427"/>
     <use style="fill:#9a2667;stroke:#9a2667;" x="179.549735" xlink:href="#m54b34a5783" y="404.261208"/>
     <use style="fill:#9a2667;stroke:#9a2667;" x="222.974956" xlink:href="#m54b34a5783" y="403.92003"/>
     <use style="fill:#9a2667;stroke:#9a2667;" x="255.824867" xlink:href="#m54b34a5783" y="402.552932"/>
     <use style="fill:#9a2667;stroke:#9a2667;" x="288.674779" xlink:href="#m54b34a5783" y="393.306734"/>
     <use style="fill:#9a2667;stroke:#9a2667;" x="332.1" xlink:href="#m54b34a5783" y="337.680729"/>
     <use style="fill:#9a2667;stroke:#9a2667;" x="364.949912" xlink:href="#m54b34a5783" y="253.313255"/>
     <use style="fill:#9a2667;stroke:#9a2667;" x="397.799823" xlink:href="#m54b34a5783" y="169.734462"/>
     <use style="fill:#9a2667;stroke:#9a2667;" x="441.225044" xlink:href="#m54b34a5783" y="101.8113"/>
     <use style="fill:#9a2667;stroke:#9a2667;" x="474.074956" xlink:href="#m54b34a5783" y="83.288173"/>
     <use style="fill:#9a2667;stroke:#9a2667;" x="506.924867" xlink:href="#m54b34a5783" y="83.941532"/>
     <use style="fill:#9a2667;stroke:#9a2667;" x="550.350088" xlink:href="#m54b34a5783" y="88.068663"/>
    </g>
   </g>
   <g id="line2d_64">
    <g clip-path="url(#p3a56f91859)">
     <use style="fill:#9a2667;stroke:#9a2667;" x="-1" xlink:href="#m54b34a5783" y="404.399088"/>
     <use style="fill:#9a2667;stroke:#9a2667;" x="179.549735" xlink:href="#m54b34a5783" y="404.399051"/>
     <use style="fill:#9a2667;stroke:#9a2667;" x="222.974956" xlink:href="#m54b34a5783" y="404.135828"/>
     <use style="fill:#9a2667;stroke:#9a2667;" x="255.824867" xlink:href="#m54b34a5783" y="402.630852"/>
     <use style="fill:#9a2667;stroke:#9a2667;" x="288.674779" xlink:href="#m54b34a5783" y="394.420738"/>
     <use style="fill:#9a2667;stroke:#9a2667;" x="332.1" xlink:href="#m54b34a5783" y="334.82243"/>
     <use style="fill:#9a2667;stroke:#9a2667;" x="364.949912" xlink:href="#m54b34a5783" y="264.519906"/>
     <use style="fill:#9a2667;stroke:#9a2667;" x="397.799823" xlink:href="#m54b34a5783" y="168.209032"/>
     <use style="fill:#9a2667;stroke:#9a2667;" x="441.225044" xlink:href="#m54b34a5783" y="101.718044"/>
     <use style="fill:#9a2667;stroke:#9a2667;" x="474.074956" xlink:href="#m54b34a5783" y="81.224806"/>
     <use style="fill:#9a2667;stroke:#9a2667;" x="506.924867" xlink:href="#m54b34a5783" y="79.354758"/>
     <use style="fill:#9a2667;stroke:#9a2667;" x="550.350088" xlink:href="#m54b34a5783" y="84.274298"/>
    </g>
   </g>
   <g id="line2d_65">
    <g clip-path="url(#p3a56f91859)">
     <use style="fill:#9a2667;stroke:#9a2667;" x="-1" xlink:href="#m54b34a5783" y="404.297854"/>
     <use style="fill:#9a2667;stroke:#9a2667;" x="179.549735" xlink:href="#m54b34a5783" y="404.297724"/>
     <use style="fill:#9a2667;stroke:#9a2667;" x="222.974956" xlink:href="#m54b34a5783" y="404.004593"/>
     <use style="fill:#9a2667;stroke:#9a2667;" x="255.824867" xlink:href="#m54b34a5783" y="402.424796"/>
     <use style="fill:#9a2667;stroke:#9a2667;" x="288.674779" xlink:href="#m54b34a5783" y="394.064357"/>
     <use style="fill:#9a2667;stroke:#9a2667;" x="332.1" xlink:href="#m54b34a5783" y="334.16865"/>
     <use style="fill:#9a2667;stroke:#9a2667;" x="364.949912" xlink:href="#m54b34a5783" y="264.272921"/>
     <use style="fill:#9a2667;stroke:#9a2667;" x="397.799823" xlink:href="#m54b34a5783" y="176.30329"/>
     <use style="fill:#9a2667;stroke:#9a2667;" x="441.225044" xlink:href="#m54b34a5783" y="100.754107"/>
     <use style="fill:#9a2667;stroke:#9a2667;" x="474.074956" xlink:href="#m54b34a5783" y="77.211399"/>
     <use style="fill:#9a2667;stroke:#9a2667;" x="506.924867" xlink:href="#m54b34a5783" y="73.4328"/>
     <use style="fill:#9a2667;stroke:#9a2667;" x="550.350088" xlink:href="#m54b34a5783" y="78.842575"/>
    </g>
   </g>
   <g id="line2d_66">
    <defs>
     <path d="M 0 3 
C 0.795609 3 1.55874 2.683901 2.12132 2.12132 
C 2.683901 1.55874 3 0.795609 3 0 
C 3 -0.795609 2.683901 -1.55874 2.12132 -2.12132 
C 1.55874 -2.683901 0.795609 -3 0 -3 
C -0.795609 -3 -1.55874 -2.683901 -2.12132 -2.12132 
C -2.683901 -1.55874 -3 -0.795609 -3 0 
C -3 0.795609 -2.683901 1.55874 -2.12132 2.12132 
C -1.55874 2.683901 -0.795609 3 0 3 
z
" id="md78d79e684" style="stroke:#ce0035;"/>
    </defs>
    <g clip-path="url(#p3a56f91859)">
     <use style="fill:#ce0035;stroke:#ce0035;" x="-1" xlink:href="#md78d79e684" y="404.419258"/>
     <use style="fill:#ce0035;stroke:#ce0035;" x="179.549735" xlink:href="#md78d79e684" y="404.419353"/>
     <use style="fill:#ce0035;stroke:#ce0035;" x="222.974956" xlink:href="#md78d79e684" y="404.239006"/>
     <use style="fill:#ce0035;stroke:#ce0035;" x="255.824867" xlink:href="#md78d79e684" y="403.229163"/>
     <use style="fill:#ce0035;stroke:#ce0035;" x="288.674779" xlink:href="#md78d79e684" y="396.119391"/>
     <use style="fill:#ce0035;stroke:#ce0035;" x="332.1" xlink:href="#md78d79e684" y="339.383856"/>
     <use style="fill:#ce0035;stroke:#ce0035;" x="364.949912" xlink:href="#md78d79e684" y="268.627872"/>
     <use style="fill:#ce0035;stroke:#ce0035;" x="397.799823" xlink:href="#md78d79e684" y="182.227192"/>
     <use style="fill:#ce0035;stroke:#ce0035;" x="441.225044" xlink:href="#md78d79e684" y="123.479063"/>
     <use style="fill:#ce0035;stroke:#ce0035;" x="474.074956" xlink:href="#md78d79e684" y="107.281686"/>
     <use style="fill:#ce0035;stroke:#ce0035;" x="506.924867" xlink:href="#md78d79e684" y="101.877239"/>
     <use style="fill:#ce0035;stroke:#ce0035;" x="550.350088" xlink:href="#md78d79e684" y="107.801662"/>
    </g>
   </g>
   <g id="line2d_67">
    <g clip-path="url(#p3a56f91859)">
     <use style="fill:#ce0035;stroke:#ce0035;" x="-1" xlink:href="#md78d79e684" y="404.420722"/>
     <use style="fill:#ce0035;stroke:#ce0035;" x="179.549735" xlink:href="#md78d79e684" y="404.420877"/>
     <use style="fill:#ce0035;stroke:#ce0035;" x="222.974956" xlink:href="#md78d79e684" y="404.258399"/>
     <use style="fill:#ce0035;stroke:#ce0035;" x="255.824867" xlink:href="#md78d79e684" y="403.213345"/>
     <use style="fill:#ce0035;stroke:#ce0035;" x="288.674779" xlink:href="#md78d79e684" y="396.301444"/>
     <use style="fill:#ce0035;stroke:#ce0035;" x="332.1" xlink:href="#md78d79e684" y="345.476244"/>
     <use style="fill:#ce0035;stroke:#ce0035;" x="364.949912" xlink:href="#md78d79e684" y="263.057718"/>
     <use style="fill:#ce0035;stroke:#ce0035;" x="397.799823" xlink:href="#md78d79e684" y="184.633453"/>
     <use style="fill:#ce0035;stroke:#ce0035;" x="441.225044" xlink:href="#md78d79e684" y="128.033125"/>
     <use style="fill:#ce0035;stroke:#ce0035;" x="474.074956" xlink:href="#md78d79e684" y="103.906389"/>
     <use style="fill:#ce0035;stroke:#ce0035;" x="506.924867" xlink:href="#md78d79e684" y="103.292798"/>
     <use style="fill:#ce0035;stroke:#ce0035;" x="550.350088" xlink:href="#md78d79e684" y="106.474799"/>
    </g>
   </g>
   <g id="line2d_68">
    <g clip-path="url(#p3a56f91859)">
     <use style="fill:#ce0035;stroke:#ce0035;" x="-1" xlink:href="#md78d79e684" y="404.447775"/>
     <use style="fill:#ce0035;stroke:#ce0035;" x="179.549735" xlink:href="#md78d79e684" y="404.447726"/>
     <use style="fill:#ce0035;stroke:#ce0035;" x="222.974956" xlink:href="#md78d79e684" y="404.305765"/>
     <use style="fill:#ce0035;stroke:#ce0035;" x="255.824867" xlink:href="#md78d79e684" y="403.446808"/>
     <use style="fill:#ce0035;stroke:#ce0035;" x="288.674779" xlink:href="#md78d79e684" y="396.103743"/>
     <use style="fill:#ce0035;stroke:#ce0035;" x="332.1" xlink:href="#md78d79e684" y="343.268257"/>
     <use style="fill:#ce0035;stroke:#ce0035;" x="364.949912" xlink:href="#md78d79e684" y="264.458608"/>
     <use style="fill:#ce0035;stroke:#ce0035;" x="397.799823" xlink:href="#md78d79e684" y="184.547349"/>
     <use style="fill:#ce0035;stroke:#ce0035;" x="441.225044" xlink:href="#md78d79e684" y="120.778417"/>
     <use style="fill:#ce0035;stroke:#ce0035;" x="474.074956" xlink:href="#md78d79e684" y="104.562723"/>
     <use style="fill:#ce0035;stroke:#ce0035;" x="506.924867" xlink:href="#md78d79e684" y="104.741799"/>
     <use style="fill:#ce0035;stroke:#ce0035;" x="550.350088" xlink:href="#md78d79e684" y="104.213113"/>
    </g>
   </g>
   <g id="patch_3">
    <path d="M 81 421.6464 
L 81 56.8512 
" style="fill:none;stroke:#000000;stroke-linecap:square;stroke-linejoin:miter;stroke-width:0.8;"/>
   </g>
   <g id="patch_4">
    <path d="M 81 421.6464 
L 583.2 421.6464 
" style="fill:none;stroke:#000000;stroke-linecap:square;stroke-linejoin:miter;stroke-width:0.8;"/>
   </g>
   <g id="text_15">
    <!-- RamR Variant Response to Tetrahydropapaverine -->
    <defs>
     <path d="M 44.390625 34.1875 
Q 47.5625 33.109375 50.5625 29.59375 
Q 53.5625 26.078125 56.59375 19.921875 
L 66.609375 0 
L 56 0 
L 46.6875 18.703125 
Q 43.0625 26.03125 39.671875 28.421875 
Q 36.28125 30.8125 30.421875 30.8125 
L 19.671875 30.8125 
L 19.671875 0 
L 9.8125 0 
L 9.8125 72.90625 
L 32.078125 72.90625 
Q 44.578125 72.90625 50.734375 67.671875 
Q 56.890625 62.453125 56.890625 51.90625 
Q 56.890625 45.015625 53.6875 40.46875 
Q 50.484375 35.9375 44.390625 34.1875 
z
M 19.671875 64.796875 
L 19.671875 38.921875 
L 32.078125 38.921875 
Q 39.203125 38.921875 42.84375 42.21875 
Q 46.484375 45.515625 46.484375 51.90625 
Q 46.484375 58.296875 42.84375 61.546875 
Q 39.203125 64.796875 32.078125 64.796875 
z
" id="DejaVuSans-82"/>
     <path d="M 52 44.1875 
Q 55.375 50.25 60.0625 53.125 
Q 64.75 56 71.09375 56 
Q 79.640625 56 84.28125 50.015625 
Q 88.921875 44.046875 88.921875 33.015625 
L 88.921875 0 
L 79.890625 0 
L 79.890625 32.71875 
Q 79.890625 40.578125 77.09375 44.375 
Q 74.3125 48.1875 68.609375 48.1875 
Q 61.625 48.1875 57.5625 43.546875 
Q 53.515625 38.921875 53.515625 30.90625 
L 53.515625 0 
L 44.484375 0 
L 44.484375 32.71875 
Q 44.484375 40.625 41.703125 44.40625 
Q 38.921875 48.1875 33.109375 48.1875 
Q 26.21875 48.1875 22.15625 43.53125 
Q 18.109375 38.875 18.109375 30.90625 
L 18.109375 0 
L 9.078125 0 
L 9.078125 54.6875 
L 18.109375 54.6875 
L 18.109375 46.1875 
Q 21.1875 51.21875 25.484375 53.609375 
Q 29.78125 56 35.6875 56 
Q 41.65625 56 45.828125 52.96875 
Q 50 49.953125 52 44.1875 
z
" id="DejaVuSans-109"/>
     <path d="M 28.609375 0 
L 0.78125 72.90625 
L 11.078125 72.90625 
L 34.1875 11.53125 
L 57.328125 72.90625 
L 67.578125 72.90625 
L 39.796875 0 
z
" id="DejaVuSans-86"/>
     <path d="M 44.28125 53.078125 
L 44.28125 44.578125 
Q 40.484375 46.53125 36.375 47.5 
Q 32.28125 48.484375 27.875 48.484375 
Q 21.1875 48.484375 17.84375 46.4375 
Q 14.5 44.390625 14.5 40.28125 
Q 14.5 37.15625 16.890625 35.375 
Q 19.28125 33.59375 26.515625 31.984375 
L 29.59375 31.296875 
Q 39.15625 29.25 43.1875 25.515625 
Q 47.21875 21.78125 47.21875 15.09375 
Q 47.21875 7.46875 41.1875 3.015625 
Q 35.15625 -1.421875 24.609375 -1.421875 
Q 20.21875 -1.421875 15.453125 -0.5625 
Q 10.6875 0.296875 5.421875 2 
L 5.421875 11.28125 
Q 10.40625 8.6875 15.234375 7.390625 
Q 20.0625 6.109375 24.8125 6.109375 
Q 31.15625 6.109375 34.5625 8.28125 
Q 37.984375 10.453125 37.984375 14.40625 
Q 37.984375 18.0625 35.515625 20.015625 
Q 33.0625 21.96875 24.703125 23.78125 
L 21.578125 24.515625 
Q 13.234375 26.265625 9.515625 29.90625 
Q 5.8125 33.546875 5.8125 39.890625 
Q 5.8125 47.609375 11.28125 51.796875 
Q 16.75 56 26.8125 56 
Q 31.78125 56 36.171875 55.265625 
Q 40.578125 54.546875 44.28125 53.078125 
z
" id="DejaVuSans-115"/>
    </defs>
    <g transform="translate(58.366719 50.8512)scale(0.22 -0.22)">
     <use xlink:href="#DejaVuSans-82"/>
     <use x="69.451172" xlink:href="#DejaVuSans-97"/>
     <use x="130.730469" xlink:href="#DejaVuSans-109"/>
     <use x="228.142578" xlink:href="#DejaVuSans-82"/>
     <use x="297.625" xlink:href="#DejaVuSans-32"/>
     <use x="329.412109" xlink:href="#DejaVuSans-86"/>
     <use x="397.710938" xlink:href="#DejaVuSans-97"/>
     <use x="458.990234" xlink:href="#DejaVuSans-114"/>
     <use x="500.103516" xlink:href="#DejaVuSans-105"/>
     <use x="527.886719" xlink:href="#DejaVuSans-97"/>
     <use x="589.166016" xlink:href="#DejaVuSans-110"/>
     <use x="652.544922" xlink:href="#DejaVuSans-116"/>
     <use x="691.753906" xlink:href="#DejaVuSans-32"/>
     <use x="723.541016" xlink:href="#DejaVuSans-82"/>
     <use x="792.960938" xlink:href="#DejaVuSans-101"/>
     <use x="854.484375" xlink:href="#DejaVuSans-115"/>
     <use x="906.583984" xlink:href="#DejaVuSans-112"/>
     <use x="970.060547" xlink:href="#DejaVuSans-111"/>
     <use x="1031.242188" xlink:href="#DejaVuSans-110"/>
     <use x="1094.621094" xlink:href="#DejaVuSans-115"/>
     <use x="1146.720703" xlink:href="#DejaVuSans-101"/>
     <use x="1208.244141" xlink:href="#DejaVuSans-32"/>
     <use x="1240.03125" xlink:href="#DejaVuSans-116"/>
     <use x="1279.240234" xlink:href="#DejaVuSans-111"/>
     <use x="1340.421875" xlink:href="#DejaVuSans-32"/>
     <use x="1372.208984" xlink:href="#DejaVuSans-84"/>
     <use x="1433.027344" xlink:href="#DejaVuSans-101"/>
     <use x="1494.550781" xlink:href="#DejaVuSans-116"/>
     <use x="1533.759766" xlink:href="#DejaVuSans-114"/>
     <use x="1574.873047" xlink:href="#DejaVuSans-97"/>
     <use x="1636.152344" xlink:href="#DejaVuSans-104"/>
     <use x="1699.53125" xlink:href="#DejaVuSans-121"/>
     <use x="1758.710938" xlink:href="#DejaVuSans-100"/>
     <use x="1822.1875" xlink:href="#DejaVuSans-114"/>
     <use x="1863.269531" xlink:href="#DejaVuSans-111"/>
     <use x="1924.451172" xlink:href="#DejaVuSans-112"/>
     <use x="1987.927734" xlink:href="#DejaVuSans-97"/>
     <use x="2049.207031" xlink:href="#DejaVuSans-112"/>
     <use x="2112.683594" xlink:href="#DejaVuSans-97"/>
     <use x="2173.962891" xlink:href="#DejaVuSans-118"/>
     <use x="2233.142578" xlink:href="#DejaVuSans-101"/>
     <use x="2294.666016" xlink:href="#DejaVuSans-114"/>
     <use x="2335.779297" xlink:href="#DejaVuSans-105"/>
     <use x="2363.5625" xlink:href="#DejaVuSans-110"/>
     <use x="2426.941406" xlink:href="#DejaVuSans-101"/>
    </g>
   </g>
   <g id="legend_1">
    <g id="patch_5">
     <path d="M 91.5 178.937137 
L 178.530469 178.937137 
Q 181.530469 178.937137 181.530469 175.937137 
L 181.530469 67.3512 
Q 181.530469 64.3512 178.530469 64.3512 
L 91.5 64.3512 
Q 88.5 64.3512 88.5 67.3512 
L 88.5 175.937137 
Q 88.5 178.937137 91.5 178.937137 
z
" style="fill:#ffffff;opacity:0.8;stroke:#cccccc;stroke-linejoin:miter;"/>
    </g>
    <g id="line2d_69">
     <path d="M 94.5 76.498856 
L 124.5 76.498856 
" style="fill:none;stroke:#0099ff;stroke-linecap:square;stroke-width:1.5;"/>
    </g>
    <g id="line2d_70"/>
    <g id="text_16">
     <!-- WT -->
     <defs>
      <path d="M 3.328125 72.90625 
L 13.28125 72.90625 
L 28.609375 11.28125 
L 43.890625 72.90625 
L 54.984375 72.90625 
L 70.3125 11.28125 
L 85.59375 72.90625 
L 95.609375 72.90625 
L 77.296875 0 
L 64.890625 0 
L 49.515625 63.28125 
L 33.984375 0 
L 21.578125 0 
z
" id="DejaVuSans-87"/>
     </defs>
     <g transform="translate(136.5 81.748856)scale(0.15 -0.15)">
      <use xlink:href="#DejaVuSans-87"/>
      <use x="98.876953" xlink:href="#DejaVuSans-84"/>
     </g>
    </g>
    <g id="line2d_71">
     <path d="M 94.5 98.516044 
L 124.5 98.516044 
" style="fill:none;stroke:#3372cc;stroke-linecap:square;stroke-width:1.5;"/>
    </g>
    <g id="line2d_72"/>
    <g id="text_17">
     <!-- THP1 -->
     <defs>
      <path d="M 9.8125 72.90625 
L 19.671875 72.90625 
L 19.671875 43.015625 
L 55.515625 43.015625 
L 55.515625 72.90625 
L 65.375 72.90625 
L 65.375 0 
L 55.515625 0 
L 55.515625 34.71875 
L 19.671875 34.71875 
L 19.671875 0 
L 9.8125 0 
z
" id="DejaVuSans-72"/>
      <path d="M 19.671875 64.796875 
L 19.671875 37.40625 
L 32.078125 37.40625 
Q 38.96875 37.40625 42.71875 40.96875 
Q 46.484375 44.53125 46.484375 51.125 
Q 46.484375 57.671875 42.71875 61.234375 
Q 38.96875 64.796875 32.078125 64.796875 
z
M 9.8125 72.90625 
L 32.078125 72.90625 
Q 44.34375 72.90625 50.609375 67.359375 
Q 56.890625 61.8125 56.890625 51.125 
Q 56.890625 40.328125 50.609375 34.8125 
Q 44.34375 29.296875 32.078125 29.296875 
L 19.671875 29.296875 
L 19.671875 0 
L 9.8125 0 
z
" id="DejaVuSans-80"/>
     </defs>
     <g transform="translate(136.5 103.766044)scale(0.15 -0.15)">
      <use xlink:href="#DejaVuSans-84"/>
      <use x="61.083984" xlink:href="#DejaVuSans-72"/>
      <use x="136.279297" xlink:href="#DejaVuSans-80"/>
      <use x="196.582031" xlink:href="#DejaVuSans-49"/>
     </g>
    </g>
    <g id="line2d_73">
     <path d="M 94.5 120.533231 
L 124.5 120.533231 
" style="fill:none;stroke:#674c9a;stroke-linecap:square;stroke-width:1.5;"/>
    </g>
    <g id="line2d_74"/>
    <g id="text_18">
     <!-- THP2 -->
     <g transform="translate(136.5 125.783231)scale(0.15 -0.15)">
      <use xlink:href="#DejaVuSans-84"/>
      <use x="61.083984" xlink:href="#DejaVuSans-72"/>
      <use x="136.279297" xlink:href="#DejaVuSans-80"/>
      <use x="196.582031" xlink:href="#DejaVuSans-50"/>
     </g>
    </g>
    <g id="line2d_75">
     <path d="M 94.5 142.550419 
L 124.5 142.550419 
" style="fill:none;stroke:#9a2667;stroke-linecap:square;stroke-width:1.5;"/>
    </g>
    <g id="line2d_76"/>
    <g id="text_19">
     <!-- THP3 -->
     <g transform="translate(136.5 147.800419)scale(0.15 -0.15)">
      <use xlink:href="#DejaVuSans-84"/>
      <use x="61.083984" xlink:href="#DejaVuSans-72"/>
      <use x="136.279297" xlink:href="#DejaVuSans-80"/>
      <use x="196.582031" xlink:href="#DejaVuSans-51"/>
     </g>
    </g>
    <g id="line2d_77">
     <path d="M 94.5 164.567606 
L 124.5 164.567606 
" style="fill:none;stroke:#ce0035;stroke-linecap:square;stroke-width:1.5;"/>
    </g>
    <g id="line2d_78"/>
    <g id="text_20">
     <!-- THP4 -->
     <g transform="translate(136.5 169.817606)scale(0.15 -0.15)">
      <use xlink:href="#DejaVuSans-84"/>
      <use x="61.083984" xlink:href="#DejaVuSans-72"/>
      <use x="136.279297" xlink:href="#DejaVuSans-80"/>
      <use x="196.582031" xlink:href="#DejaVuSans-52"/>
     </g>
    </g>
   </g>
  </g>
 </g>
 <defs>
  <clipPath id="p3a56f91859">
   <rect height="364.7952" width="502.2" x="81" y="56.8512"/>
  </clipPath>
 </defs>
</svg>
