<?xml version="1.0" encoding="utf-8" standalone="no"?>
<!DOCTYPE svg PUBLIC "-//W3C//DTD SVG 1.1//EN"
  "http://www.w3.org/Graphics/SVG/1.1/DTD/svg11.dtd">
<!-- Created with matplotlib (https://matplotlib.org/) -->
<svg height="473.76pt" version="1.1" viewBox="0 0 648 473.76" width="648pt" xmlns="http://www.w3.org/2000/svg" xmlns:xlink="http://www.w3.org/1999/xlink">
 <defs>
  <style type="text/css">
*{stroke-linecap:butt;stroke-linejoin:round;}
  </style>
 </defs>
 <g id="figure_1">
  <g id="patch_1">
   <path d="M 0 473.76 
L 648 473.76 
L 648 0 
L 0 0 
z
" style="fill:#ffffff;"/>
  </g>
  <g id="axes_1">
   <g id="patch_2">
    <path d="M 81 421.6464 
L 583.2 421.6464 
L 583.2 56.8512 
L 81 56.8512 
z
" style="fill:#ffffff;"/>
   </g>
   <g id="matplotlib.axis_1">
    <g id="xtick_1">
     <g id="line2d_1">
      <defs>
       <path d="M 0 0 
L 0 2 
" id="mc66bbb5c84" style="stroke:#000000;"/>
      </defs>
      <g>
       <use style="stroke:#000000;" x="179.549735" xlink:href="#mc66bbb5c84" y="421.6464"/>
      </g>
     </g>
     <g id="text_1">
      <!-- 0.1 -->
      <defs>
       <path d="M 31.78125 66.40625 
Q 24.171875 66.40625 20.328125 58.90625 
Q 16.5 51.421875 16.5 36.375 
Q 16.5 21.390625 20.328125 13.890625 
Q 24.171875 6.390625 31.78125 6.390625 
Q 39.453125 6.390625 43.28125 13.890625 
Q 47.125 21.390625 47.125 36.375 
Q 47.125 51.421875 43.28125 58.90625 
Q 39.453125 66.40625 31.78125 66.40625 
z
M 31.78125 74.21875 
Q 44.046875 74.21875 50.515625 64.515625 
Q 56.984375 54.828125 56.984375 36.375 
Q 56.984375 17.96875 50.515625 8.265625 
Q 44.046875 -1.421875 31.78125 -1.421875 
Q 19.53125 -1.421875 13.0625 8.265625 
Q 6.59375 17.96875 6.59375 36.375 
Q 6.59375 54.828125 13.0625 64.515625 
Q 19.53125 74.21875 31.78125 74.21875 
z
" id="DejaVuSans-48"/>
       <path d="M 10.6875 12.40625 
L 21 12.40625 
L 21 0 
L 10.6875 0 
z
" id="DejaVuSans-46"/>
       <path d="M 12.40625 8.296875 
L 28.515625 8.296875 
L 28.515625 63.921875 
L 10.984375 60.40625 
L 10.984375 69.390625 
L 28.421875 72.90625 
L 38.28125 72.90625 
L 38.28125 8.296875 
L 54.390625 8.296875 
L 54.390625 0 
L 12.40625 0 
z
" id="DejaVuSans-49"/>
      </defs>
      <g transform="translate(165.236922 440.823588)scale(0.18 -0.18)">
       <use xlink:href="#DejaVuSans-48"/>
       <use x="63.623047" xlink:href="#DejaVuSans-46"/>
       <use x="95.410156" xlink:href="#DejaVuSans-49"/>
      </g>
     </g>
    </g>
    <g id="xtick_2">
     <g id="line2d_2">
      <g>
       <use style="stroke:#000000;" x="288.674779" xlink:href="#mc66bbb5c84" y="421.6464"/>
      </g>
     </g>
     <g id="text_2">
      <!-- 1.0 -->
      <g transform="translate(274.361966 440.823588)scale(0.18 -0.18)">
       <use xlink:href="#DejaVuSans-49"/>
       <use x="63.623047" xlink:href="#DejaVuSans-46"/>
       <use x="95.410156" xlink:href="#DejaVuSans-48"/>
      </g>
     </g>
    </g>
    <g id="xtick_3">
     <g id="line2d_3">
      <g>
       <use style="stroke:#000000;" x="397.799823" xlink:href="#mc66bbb5c84" y="421.6464"/>
      </g>
     </g>
     <g id="text_3">
      <!-- 10.0 -->
      <g transform="translate(377.760761 440.823588)scale(0.18 -0.18)">
       <use xlink:href="#DejaVuSans-49"/>
       <use x="63.623047" xlink:href="#DejaVuSans-48"/>
       <use x="127.246094" xlink:href="#DejaVuSans-46"/>
       <use x="159.033203" xlink:href="#DejaVuSans-48"/>
      </g>
     </g>
    </g>
    <g id="xtick_4">
     <g id="line2d_4">
      <g>
       <use style="stroke:#000000;" x="506.924867" xlink:href="#mc66bbb5c84" y="421.6464"/>
      </g>
     </g>
     <g id="text_4">
      <!-- 100.0 -->
      <g transform="translate(481.159555 440.823588)scale(0.18 -0.18)">
       <use xlink:href="#DejaVuSans-49"/>
       <use x="63.623047" xlink:href="#DejaVuSans-48"/>
       <use x="127.246094" xlink:href="#DejaVuSans-48"/>
       <use x="190.869141" xlink:href="#DejaVuSans-46"/>
       <use x="222.65625" xlink:href="#DejaVuSans-48"/>
      </g>
     </g>
    </g>
    <g id="xtick_5">
     <g id="line2d_5">
      <defs>
       <path d="M 0 0 
L 0 2 
" id="m3aa77b416a" style="stroke:#000000;stroke-width:0.6;"/>
      </defs>
      <g>
       <use style="stroke:#000000;stroke-width:0.6;" x="103.274602" xlink:href="#m3aa77b416a" y="421.6464"/>
      </g>
     </g>
    </g>
    <g id="xtick_6">
     <g id="line2d_6">
      <g>
       <use style="stroke:#000000;stroke-width:0.6;" x="122.490569" xlink:href="#m3aa77b416a" y="421.6464"/>
      </g>
     </g>
    </g>
    <g id="xtick_7">
     <g id="line2d_7">
      <g>
       <use style="stroke:#000000;stroke-width:0.6;" x="136.124514" xlink:href="#m3aa77b416a" y="421.6464"/>
      </g>
     </g>
    </g>
    <g id="xtick_8">
     <g id="line2d_8">
      <g>
       <use style="stroke:#000000;stroke-width:0.6;" x="146.699823" xlink:href="#m3aa77b416a" y="421.6464"/>
      </g>
     </g>
    </g>
    <g id="xtick_9">
     <g id="line2d_9">
      <g>
       <use style="stroke:#000000;stroke-width:0.6;" x="155.34048" xlink:href="#m3aa77b416a" y="421.6464"/>
      </g>
     </g>
    </g>
    <g id="xtick_10">
     <g id="line2d_10">
      <g>
       <use style="stroke:#000000;stroke-width:0.6;" x="162.646052" xlink:href="#m3aa77b416a" y="421.6464"/>
      </g>
     </g>
    </g>
    <g id="xtick_11">
     <g id="line2d_11">
      <g>
       <use style="stroke:#000000;stroke-width:0.6;" x="168.974425" xlink:href="#m3aa77b416a" y="421.6464"/>
      </g>
     </g>
    </g>
    <g id="xtick_12">
     <g id="line2d_12">
      <g>
       <use style="stroke:#000000;stroke-width:0.6;" x="174.556447" xlink:href="#m3aa77b416a" y="421.6464"/>
      </g>
     </g>
    </g>
    <g id="xtick_13">
     <g id="line2d_13">
      <g>
       <use style="stroke:#000000;stroke-width:0.6;" x="212.399646" xlink:href="#m3aa77b416a" y="421.6464"/>
      </g>
     </g>
    </g>
    <g id="xtick_14">
     <g id="line2d_14">
      <g>
       <use style="stroke:#000000;stroke-width:0.6;" x="231.615613" xlink:href="#m3aa77b416a" y="421.6464"/>
      </g>
     </g>
    </g>
    <g id="xtick_15">
     <g id="line2d_15">
      <g>
       <use style="stroke:#000000;stroke-width:0.6;" x="245.249558" xlink:href="#m3aa77b416a" y="421.6464"/>
      </g>
     </g>
    </g>
    <g id="xtick_16">
     <g id="line2d_16">
      <g>
       <use style="stroke:#000000;stroke-width:0.6;" x="255.824867" xlink:href="#m3aa77b416a" y="421.6464"/>
      </g>
     </g>
    </g>
    <g id="xtick_17">
     <g id="line2d_17">
      <g>
       <use style="stroke:#000000;stroke-width:0.6;" x="264.465524" xlink:href="#m3aa77b416a" y="421.6464"/>
      </g>
     </g>
    </g>
    <g id="xtick_18">
     <g id="line2d_18">
      <g>
       <use style="stroke:#000000;stroke-width:0.6;" x="271.771096" xlink:href="#m3aa77b416a" y="421.6464"/>
      </g>
     </g>
    </g>
    <g id="xtick_19">
     <g id="line2d_19">
      <g>
       <use style="stroke:#000000;stroke-width:0.6;" x="278.09947" xlink:href="#m3aa77b416a" y="421.6464"/>
      </g>
     </g>
    </g>
    <g id="xtick_20">
     <g id="line2d_20">
      <g>
       <use style="stroke:#000000;stroke-width:0.6;" x="283.681491" xlink:href="#m3aa77b416a" y="421.6464"/>
      </g>
     </g>
    </g>
    <g id="xtick_21">
     <g id="line2d_21">
      <g>
       <use style="stroke:#000000;stroke-width:0.6;" x="321.524691" xlink:href="#m3aa77b416a" y="421.6464"/>
      </g>
     </g>
    </g>
    <g id="xtick_22">
     <g id="line2d_22">
      <g>
       <use style="stroke:#000000;stroke-width:0.6;" x="340.740657" xlink:href="#m3aa77b416a" y="421.6464"/>
      </g>
     </g>
    </g>
    <g id="xtick_23">
     <g id="line2d_23">
      <g>
       <use style="stroke:#000000;stroke-width:0.6;" x="354.374602" xlink:href="#m3aa77b416a" y="421.6464"/>
      </g>
     </g>
    </g>
    <g id="xtick_24">
     <g id="line2d_24">
      <g>
       <use style="stroke:#000000;stroke-width:0.6;" x="364.949912" xlink:href="#m3aa77b416a" y="421.6464"/>
      </g>
     </g>
    </g>
    <g id="xtick_25">
     <g id="line2d_25">
      <g>
       <use style="stroke:#000000;stroke-width:0.6;" x="373.590569" xlink:href="#m3aa77b416a" y="421.6464"/>
      </g>
     </g>
    </g>
    <g id="xtick_26">
     <g id="line2d_26">
      <g>
       <use style="stroke:#000000;stroke-width:0.6;" x="380.89614" xlink:href="#m3aa77b416a" y="421.6464"/>
      </g>
     </g>
    </g>
    <g id="xtick_27">
     <g id="line2d_27">
      <g>
       <use style="stroke:#000000;stroke-width:0.6;" x="387.224514" xlink:href="#m3aa77b416a" y="421.6464"/>
      </g>
     </g>
    </g>
    <g id="xtick_28">
     <g id="line2d_28">
      <g>
       <use style="stroke:#000000;stroke-width:0.6;" x="392.806535" xlink:href="#m3aa77b416a" y="421.6464"/>
      </g>
     </g>
    </g>
    <g id="xtick_29">
     <g id="line2d_29">
      <g>
       <use style="stroke:#000000;stroke-width:0.6;" x="430.649735" xlink:href="#m3aa77b416a" y="421.6464"/>
      </g>
     </g>
    </g>
    <g id="xtick_30">
     <g id="line2d_30">
      <g>
       <use style="stroke:#000000;stroke-width:0.6;" x="449.865701" xlink:href="#m3aa77b416a" y="421.6464"/>
      </g>
     </g>
    </g>
    <g id="xtick_31">
     <g id="line2d_31">
      <g>
       <use style="stroke:#000000;stroke-width:0.6;" x="463.499646" xlink:href="#m3aa77b416a" y="421.6464"/>
      </g>
     </g>
    </g>
    <g id="xtick_32">
     <g id="line2d_32">
      <g>
       <use style="stroke:#000000;stroke-width:0.6;" x="474.074956" xlink:href="#m3aa77b416a" y="421.6464"/>
      </g>
     </g>
    </g>
    <g id="xtick_33">
     <g id="line2d_33">
      <g>
       <use style="stroke:#000000;stroke-width:0.6;" x="482.715613" xlink:href="#m3aa77b416a" y="421.6464"/>
      </g>
     </g>
    </g>
    <g id="xtick_34">
     <g id="line2d_34">
      <g>
       <use style="stroke:#000000;stroke-width:0.6;" x="490.021184" xlink:href="#m3aa77b416a" y="421.6464"/>
      </g>
     </g>
    </g>
    <g id="xtick_35">
     <g id="line2d_35">
      <g>
       <use style="stroke:#000000;stroke-width:0.6;" x="496.349558" xlink:href="#m3aa77b416a" y="421.6464"/>
      </g>
     </g>
    </g>
    <g id="xtick_36">
     <g id="line2d_36">
      <g>
       <use style="stroke:#000000;stroke-width:0.6;" x="501.931579" xlink:href="#m3aa77b416a" y="421.6464"/>
      </g>
     </g>
    </g>
    <g id="xtick_37">
     <g id="line2d_37">
      <g>
       <use style="stroke:#000000;stroke-width:0.6;" x="539.774779" xlink:href="#m3aa77b416a" y="421.6464"/>
      </g>
     </g>
    </g>
    <g id="xtick_38">
     <g id="line2d_38">
      <g>
       <use style="stroke:#000000;stroke-width:0.6;" x="558.990745" xlink:href="#m3aa77b416a" y="421.6464"/>
      </g>
     </g>
    </g>
    <g id="xtick_39">
     <g id="line2d_39">
      <g>
       <use style="stroke:#000000;stroke-width:0.6;" x="572.624691" xlink:href="#m3aa77b416a" y="421.6464"/>
      </g>
     </g>
    </g>
    <g id="xtick_40">
     <g id="line2d_40">
      <g>
       <use style="stroke:#000000;stroke-width:0.6;" x="583.2" xlink:href="#m3aa77b416a" y="421.6464"/>
      </g>
     </g>
    </g>
    <g id="text_5">
     <!-- Tetrahydropapaverine (uM) -->
     <defs>
      <path d="M -0.296875 72.90625 
L 61.375 72.90625 
L 61.375 64.59375 
L 35.5 64.59375 
L 35.5 0 
L 25.59375 0 
L 25.59375 64.59375 
L -0.296875 64.59375 
z
" id="DejaVuSans-84"/>
      <path d="M 56.203125 29.59375 
L 56.203125 25.203125 
L 14.890625 25.203125 
Q 15.484375 15.921875 20.484375 11.0625 
Q 25.484375 6.203125 34.421875 6.203125 
Q 39.59375 6.203125 44.453125 7.46875 
Q 49.3125 8.734375 54.109375 11.28125 
L 54.109375 2.78125 
Q 49.265625 0.734375 44.1875 -0.34375 
Q 39.109375 -1.421875 33.890625 -1.421875 
Q 20.796875 -1.421875 13.15625 6.1875 
Q 5.515625 13.8125 5.515625 26.8125 
Q 5.515625 40.234375 12.765625 48.109375 
Q 20.015625 56 32.328125 56 
Q 43.359375 56 49.78125 48.890625 
Q 56.203125 41.796875 56.203125 29.59375 
z
M 47.21875 32.234375 
Q 47.125 39.59375 43.09375 43.984375 
Q 39.0625 48.390625 32.421875 48.390625 
Q 24.90625 48.390625 20.390625 44.140625 
Q 15.875 39.890625 15.1875 32.171875 
z
" id="DejaVuSans-101"/>
      <path d="M 18.3125 70.21875 
L 18.3125 54.6875 
L 36.8125 54.6875 
L 36.8125 47.703125 
L 18.3125 47.703125 
L 18.3125 18.015625 
Q 18.3125 11.328125 20.140625 9.421875 
Q 21.96875 7.515625 27.59375 7.515625 
L 36.8125 7.515625 
L 36.8125 0 
L 27.59375 0 
Q 17.1875 0 13.234375 3.875 
Q 9.28125 7.765625 9.28125 18.015625 
L 9.28125 47.703125 
L 2.6875 47.703125 
L 2.6875 54.6875 
L 9.28125 54.6875 
L 9.28125 70.21875 
z
" id="DejaVuSans-116"/>
      <path d="M 41.109375 46.296875 
Q 39.59375 47.171875 37.8125 47.578125 
Q 36.03125 48 33.890625 48 
Q 26.265625 48 22.1875 43.046875 
Q 18.109375 38.09375 18.109375 28.8125 
L 18.109375 0 
L 9.078125 0 
L 9.078125 54.6875 
L 18.109375 54.6875 
L 18.109375 46.1875 
Q 20.953125 51.171875 25.484375 53.578125 
Q 30.03125 56 36.53125 56 
Q 37.453125 56 38.578125 55.875 
Q 39.703125 55.765625 41.0625 55.515625 
z
" id="DejaVuSans-114"/>
      <path d="M 34.28125 27.484375 
Q 23.390625 27.484375 19.1875 25 
Q 14.984375 22.515625 14.984375 16.5 
Q 14.984375 11.71875 18.140625 8.90625 
Q 21.296875 6.109375 26.703125 6.109375 
Q 34.1875 6.109375 38.703125 11.40625 
Q 43.21875 16.703125 43.21875 25.484375 
L 43.21875 27.484375 
z
M 52.203125 31.203125 
L 52.203125 0 
L 43.21875 0 
L 43.21875 8.296875 
Q 40.140625 3.328125 35.546875 0.953125 
Q 30.953125 -1.421875 24.3125 -1.421875 
Q 15.921875 -1.421875 10.953125 3.296875 
Q 6 8.015625 6 15.921875 
Q 6 25.140625 12.171875 29.828125 
Q 18.359375 34.515625 30.609375 34.515625 
L 43.21875 34.515625 
L 43.21875 35.40625 
Q 43.21875 41.609375 39.140625 45 
Q 35.0625 48.390625 27.6875 48.390625 
Q 23 48.390625 18.546875 47.265625 
Q 14.109375 46.140625 10.015625 43.890625 
L 10.015625 52.203125 
Q 14.9375 54.109375 19.578125 55.046875 
Q 24.21875 56 28.609375 56 
Q 40.484375 56 46.34375 49.84375 
Q 52.203125 43.703125 52.203125 31.203125 
z
" id="DejaVuSans-97"/>
      <path d="M 54.890625 33.015625 
L 54.890625 0 
L 45.90625 0 
L 45.90625 32.71875 
Q 45.90625 40.484375 42.875 44.328125 
Q 39.84375 48.1875 33.796875 48.1875 
Q 26.515625 48.1875 22.3125 43.546875 
Q 18.109375 38.921875 18.109375 30.90625 
L 18.109375 0 
L 9.078125 0 
L 9.078125 75.984375 
L 18.109375 75.984375 
L 18.109375 46.1875 
Q 21.34375 51.125 25.703125 53.5625 
Q 30.078125 56 35.796875 56 
Q 45.21875 56 50.046875 50.171875 
Q 54.890625 44.34375 54.890625 33.015625 
z
" id="DejaVuSans-104"/>
      <path d="M 32.171875 -5.078125 
Q 28.375 -14.84375 24.75 -17.8125 
Q 21.140625 -20.796875 15.09375 -20.796875 
L 7.90625 -20.796875 
L 7.90625 -13.28125 
L 13.1875 -13.28125 
Q 16.890625 -13.28125 18.9375 -11.515625 
Q 21 -9.765625 23.484375 -3.21875 
L 25.09375 0.875 
L 2.984375 54.6875 
L 12.5 54.6875 
L 29.59375 11.921875 
L 46.6875 54.6875 
L 56.203125 54.6875 
z
" id="DejaVuSans-121"/>
      <path d="M 45.40625 46.390625 
L 45.40625 75.984375 
L 54.390625 75.984375 
L 54.390625 0 
L 45.40625 0 
L 45.40625 8.203125 
Q 42.578125 3.328125 38.25 0.953125 
Q 33.9375 -1.421875 27.875 -1.421875 
Q 17.96875 -1.421875 11.734375 6.484375 
Q 5.515625 14.40625 5.515625 27.296875 
Q 5.515625 40.1875 11.734375 48.09375 
Q 17.96875 56 27.875 56 
Q 33.9375 56 38.25 53.625 
Q 42.578125 51.265625 45.40625 46.390625 
z
M 14.796875 27.296875 
Q 14.796875 17.390625 18.875 11.75 
Q 22.953125 6.109375 30.078125 6.109375 
Q 37.203125 6.109375 41.296875 11.75 
Q 45.40625 17.390625 45.40625 27.296875 
Q 45.40625 37.203125 41.296875 42.84375 
Q 37.203125 48.484375 30.078125 48.484375 
Q 22.953125 48.484375 18.875 42.84375 
Q 14.796875 37.203125 14.796875 27.296875 
z
" id="DejaVuSans-100"/>
      <path d="M 30.609375 48.390625 
Q 23.390625 48.390625 19.1875 42.75 
Q 14.984375 37.109375 14.984375 27.296875 
Q 14.984375 17.484375 19.15625 11.84375 
Q 23.34375 6.203125 30.609375 6.203125 
Q 37.796875 6.203125 41.984375 11.859375 
Q 46.1875 17.53125 46.1875 27.296875 
Q 46.1875 37.015625 41.984375 42.703125 
Q 37.796875 48.390625 30.609375 48.390625 
z
M 30.609375 56 
Q 42.328125 56 49.015625 48.375 
Q 55.71875 40.765625 55.71875 27.296875 
Q 55.71875 13.875 49.015625 6.21875 
Q 42.328125 -1.421875 30.609375 -1.421875 
Q 18.84375 -1.421875 12.171875 6.21875 
Q 5.515625 13.875 5.515625 27.296875 
Q 5.515625 40.765625 12.171875 48.375 
Q 18.84375 56 30.609375 56 
z
" id="DejaVuSans-111"/>
      <path d="M 18.109375 8.203125 
L 18.109375 -20.796875 
L 9.078125 -20.796875 
L 9.078125 54.6875 
L 18.109375 54.6875 
L 18.109375 46.390625 
Q 20.953125 51.265625 25.265625 53.625 
Q 29.59375 56 35.59375 56 
Q 45.5625 56 51.78125 48.09375 
Q 58.015625 40.1875 58.015625 27.296875 
Q 58.015625 14.40625 51.78125 6.484375 
Q 45.5625 -1.421875 35.59375 -1.421875 
Q 29.59375 -1.421875 25.265625 0.953125 
Q 20.953125 3.328125 18.109375 8.203125 
z
M 48.6875 27.296875 
Q 48.6875 37.203125 44.609375 42.84375 
Q 40.53125 48.484375 33.40625 48.484375 
Q 26.265625 48.484375 22.1875 42.84375 
Q 18.109375 37.203125 18.109375 27.296875 
Q 18.109375 17.390625 22.1875 11.75 
Q 26.265625 6.109375 33.40625 6.109375 
Q 40.53125 6.109375 44.609375 11.75 
Q 48.6875 17.390625 48.6875 27.296875 
z
" id="DejaVuSans-112"/>
      <path d="M 2.984375 54.6875 
L 12.5 54.6875 
L 29.59375 8.796875 
L 46.6875 54.6875 
L 56.203125 54.6875 
L 35.6875 0 
L 23.484375 0 
z
" id="DejaVuSans-118"/>
      <path d="M 9.421875 54.6875 
L 18.40625 54.6875 
L 18.40625 0 
L 9.421875 0 
z
M 9.421875 75.984375 
L 18.40625 75.984375 
L 18.40625 64.59375 
L 9.421875 64.59375 
z
" id="DejaVuSans-105"/>
      <path d="M 54.890625 33.015625 
L 54.890625 0 
L 45.90625 0 
L 45.90625 32.71875 
Q 45.90625 40.484375 42.875 44.328125 
Q 39.84375 48.1875 33.796875 48.1875 
Q 26.515625 48.1875 22.3125 43.546875 
Q 18.109375 38.921875 18.109375 30.90625 
L 18.109375 0 
L 9.078125 0 
L 9.078125 54.6875 
L 18.109375 54.6875 
L 18.109375 46.1875 
Q 21.34375 51.125 25.703125 53.5625 
Q 30.078125 56 35.796875 56 
Q 45.21875 56 50.046875 50.171875 
Q 54.890625 44.34375 54.890625 33.015625 
z
" id="DejaVuSans-110"/>
      <path id="DejaVuSans-32"/>
      <path d="M 31 75.875 
Q 24.46875 64.65625 21.28125 53.65625 
Q 18.109375 42.671875 18.109375 31.390625 
Q 18.109375 20.125 21.3125 9.0625 
Q 24.515625 -2 31 -13.1875 
L 23.1875 -13.1875 
Q 15.875 -1.703125 12.234375 9.375 
Q 8.59375 20.453125 8.59375 31.390625 
Q 8.59375 42.28125 12.203125 53.3125 
Q 15.828125 64.359375 23.1875 75.875 
z
" id="DejaVuSans-40"/>
      <path d="M 8.5 21.578125 
L 8.5 54.6875 
L 17.484375 54.6875 
L 17.484375 21.921875 
Q 17.484375 14.15625 20.5 10.265625 
Q 23.53125 6.390625 29.59375 6.390625 
Q 36.859375 6.390625 41.078125 11.03125 
Q 45.3125 15.671875 45.3125 23.6875 
L 45.3125 54.6875 
L 54.296875 54.6875 
L 54.296875 0 
L 45.3125 0 
L 45.3125 8.40625 
Q 42.046875 3.421875 37.71875 1 
Q 33.40625 -1.421875 27.6875 -1.421875 
Q 18.265625 -1.421875 13.375 4.4375 
Q 8.5 10.296875 8.5 21.578125 
z
M 31.109375 56 
z
" id="DejaVuSans-117"/>
      <path d="M 9.8125 72.90625 
L 24.515625 72.90625 
L 43.109375 23.296875 
L 61.8125 72.90625 
L 76.515625 72.90625 
L 76.515625 0 
L 66.890625 0 
L 66.890625 64.015625 
L 48.09375 14.015625 
L 38.1875 14.015625 
L 19.390625 64.015625 
L 19.390625 0 
L 9.8125 0 
z
" id="DejaVuSans-77"/>
      <path d="M 8.015625 75.875 
L 15.828125 75.875 
Q 23.140625 64.359375 26.78125 53.3125 
Q 30.421875 42.28125 30.421875 31.390625 
Q 30.421875 20.453125 26.78125 9.375 
Q 23.140625 -1.703125 15.828125 -13.1875 
L 8.015625 -13.1875 
Q 14.5 -2 17.703125 9.0625 
Q 20.90625 20.125 20.90625 31.390625 
Q 20.90625 42.671875 17.703125 53.65625 
Q 14.5 64.65625 8.015625 75.875 
z
" id="DejaVuSans-41"/>
     </defs>
     <g transform="translate(194.523438 463.7639)scale(0.2 -0.2)">
      <use xlink:href="#DejaVuSans-84"/>
      <use x="60.818359" xlink:href="#DejaVuSans-101"/>
      <use x="122.341797" xlink:href="#DejaVuSans-116"/>
      <use x="161.550781" xlink:href="#DejaVuSans-114"/>
      <use x="202.664062" xlink:href="#DejaVuSans-97"/>
      <use x="263.943359" xlink:href="#DejaVuSans-104"/>
      <use x="327.322266" xlink:href="#DejaVuSans-121"/>
      <use x="386.501953" xlink:href="#DejaVuSans-100"/>
      <use x="449.978516" xlink:href="#DejaVuSans-114"/>
      <use x="491.060547" xlink:href="#DejaVuSans-111"/>
      <use x="552.242188" xlink:href="#DejaVuSans-112"/>
      <use x="615.71875" xlink:href="#DejaVuSans-97"/>
      <use x="676.998047" xlink:href="#DejaVuSans-112"/>
      <use x="740.474609" xlink:href="#DejaVuSans-97"/>
      <use x="801.753906" xlink:href="#DejaVuSans-118"/>
      <use x="860.933594" xlink:href="#DejaVuSans-101"/>
      <use x="922.457031" xlink:href="#DejaVuSans-114"/>
      <use x="963.570312" xlink:href="#DejaVuSans-105"/>
      <use x="991.353516" xlink:href="#DejaVuSans-110"/>
      <use x="1054.732422" xlink:href="#DejaVuSans-101"/>
      <use x="1116.255859" xlink:href="#DejaVuSans-32"/>
      <use x="1148.042969" xlink:href="#DejaVuSans-40"/>
      <use x="1187.056641" xlink:href="#DejaVuSans-117"/>
      <use x="1250.435547" xlink:href="#DejaVuSans-77"/>
      <use x="1336.714844" xlink:href="#DejaVuSans-41"/>
     </g>
    </g>
   </g>
   <g id="matplotlib.axis_2">
    <g id="ytick_1">
     <g id="line2d_41">
      <defs>
       <path d="M 0 0 
L -2 0 
" id="m4bc6a19028" style="stroke:#000000;"/>
      </defs>
      <g>
       <use style="stroke:#000000;" x="81" xlink:href="#m4bc6a19028" y="404.599241"/>
      </g>
     </g>
     <g id="text_6">
      <!-- 0 -->
      <g transform="translate(64.0475 411.437834)scale(0.18 -0.18)">
       <use xlink:href="#DejaVuSans-48"/>
      </g>
     </g>
    </g>
    <g id="ytick_2">
     <g id="line2d_42">
      <g>
       <use style="stroke:#000000;" x="81" xlink:href="#m4bc6a19028" y="359.718565"/>
      </g>
     </g>
     <g id="text_7">
      <!-- 1 -->
      <g transform="translate(64.0475 366.557159)scale(0.18 -0.18)">
       <use xlink:href="#DejaVuSans-49"/>
      </g>
     </g>
    </g>
    <g id="ytick_3">
     <g id="line2d_43">
      <g>
       <use style="stroke:#000000;" x="81" xlink:href="#m4bc6a19028" y="314.83789"/>
      </g>
     </g>
     <g id="text_8">
      <!-- 2 -->
      <defs>
       <path d="M 19.1875 8.296875 
L 53.609375 8.296875 
L 53.609375 0 
L 7.328125 0 
L 7.328125 8.296875 
Q 12.9375 14.109375 22.625 23.890625 
Q 32.328125 33.6875 34.8125 36.53125 
Q 39.546875 41.84375 41.421875 45.53125 
Q 43.3125 49.21875 43.3125 52.78125 
Q 43.3125 58.59375 39.234375 62.25 
Q 35.15625 65.921875 28.609375 65.921875 
Q 23.96875 65.921875 18.8125 64.3125 
Q 13.671875 62.703125 7.8125 59.421875 
L 7.8125 69.390625 
Q 13.765625 71.78125 18.9375 73 
Q 24.125 74.21875 28.421875 74.21875 
Q 39.75 74.21875 46.484375 68.546875 
Q 53.21875 62.890625 53.21875 53.421875 
Q 53.21875 48.921875 51.53125 44.890625 
Q 49.859375 40.875 45.40625 35.40625 
Q 44.1875 33.984375 37.640625 27.21875 
Q 31.109375 20.453125 19.1875 8.296875 
z
" id="DejaVuSans-50"/>
      </defs>
      <g transform="translate(64.0475 321.676484)scale(0.18 -0.18)">
       <use xlink:href="#DejaVuSans-50"/>
      </g>
     </g>
    </g>
    <g id="ytick_4">
     <g id="line2d_44">
      <g>
       <use style="stroke:#000000;" x="81" xlink:href="#m4bc6a19028" y="269.957215"/>
      </g>
     </g>
     <g id="text_9">
      <!-- 3 -->
      <defs>
       <path d="M 40.578125 39.3125 
Q 47.65625 37.796875 51.625 33 
Q 55.609375 28.21875 55.609375 21.1875 
Q 55.609375 10.40625 48.1875 4.484375 
Q 40.765625 -1.421875 27.09375 -1.421875 
Q 22.515625 -1.421875 17.65625 -0.515625 
Q 12.796875 0.390625 7.625 2.203125 
L 7.625 11.71875 
Q 11.71875 9.328125 16.59375 8.109375 
Q 21.484375 6.890625 26.8125 6.890625 
Q 36.078125 6.890625 40.9375 10.546875 
Q 45.796875 14.203125 45.796875 21.1875 
Q 45.796875 27.640625 41.28125 31.265625 
Q 36.765625 34.90625 28.71875 34.90625 
L 20.21875 34.90625 
L 20.21875 43.015625 
L 29.109375 43.015625 
Q 36.375 43.015625 40.234375 45.921875 
Q 44.09375 48.828125 44.09375 54.296875 
Q 44.09375 59.90625 40.109375 62.90625 
Q 36.140625 65.921875 28.71875 65.921875 
Q 24.65625 65.921875 20.015625 65.03125 
Q 15.375 64.15625 9.8125 62.3125 
L 9.8125 71.09375 
Q 15.4375 72.65625 20.34375 73.4375 
Q 25.25 74.21875 29.59375 74.21875 
Q 40.828125 74.21875 47.359375 69.109375 
Q 53.90625 64.015625 53.90625 55.328125 
Q 53.90625 49.265625 50.4375 45.09375 
Q 46.96875 40.921875 40.578125 39.3125 
z
" id="DejaVuSans-51"/>
      </defs>
      <g transform="translate(64.0475 276.795809)scale(0.18 -0.18)">
       <use xlink:href="#DejaVuSans-51"/>
      </g>
     </g>
    </g>
    <g id="ytick_5">
     <g id="line2d_45">
      <g>
       <use style="stroke:#000000;" x="81" xlink:href="#m4bc6a19028" y="225.07654"/>
      </g>
     </g>
     <g id="text_10">
      <!-- 4 -->
      <defs>
       <path d="M 37.796875 64.3125 
L 12.890625 25.390625 
L 37.796875 25.390625 
z
M 35.203125 72.90625 
L 47.609375 72.90625 
L 47.609375 25.390625 
L 58.015625 25.390625 
L 58.015625 17.1875 
L 47.609375 17.1875 
L 47.609375 0 
L 37.796875 0 
L 37.796875 17.1875 
L 4.890625 17.1875 
L 4.890625 26.703125 
z
" id="DejaVuSans-52"/>
      </defs>
      <g transform="translate(64.0475 231.915134)scale(0.18 -0.18)">
       <use xlink:href="#DejaVuSans-52"/>
      </g>
     </g>
    </g>
    <g id="ytick_6">
     <g id="line2d_46">
      <g>
       <use style="stroke:#000000;" x="81" xlink:href="#m4bc6a19028" y="180.195865"/>
      </g>
     </g>
     <g id="text_11">
      <!-- 5 -->
      <defs>
       <path d="M 10.796875 72.90625 
L 49.515625 72.90625 
L 49.515625 64.59375 
L 19.828125 64.59375 
L 19.828125 46.734375 
Q 21.96875 47.46875 24.109375 47.828125 
Q 26.265625 48.1875 28.421875 48.1875 
Q 40.625 48.1875 47.75 41.5 
Q 54.890625 34.8125 54.890625 23.390625 
Q 54.890625 11.625 47.5625 5.09375 
Q 40.234375 -1.421875 26.90625 -1.421875 
Q 22.3125 -1.421875 17.546875 -0.640625 
Q 12.796875 0.140625 7.71875 1.703125 
L 7.71875 11.625 
Q 12.109375 9.234375 16.796875 8.0625 
Q 21.484375 6.890625 26.703125 6.890625 
Q 35.15625 6.890625 40.078125 11.328125 
Q 45.015625 15.765625 45.015625 23.390625 
Q 45.015625 31 40.078125 35.4375 
Q 35.15625 39.890625 26.703125 39.890625 
Q 22.75 39.890625 18.8125 39.015625 
Q 14.890625 38.140625 10.796875 36.28125 
z
" id="DejaVuSans-53"/>
      </defs>
      <g transform="translate(64.0475 187.034459)scale(0.18 -0.18)">
       <use xlink:href="#DejaVuSans-53"/>
      </g>
     </g>
    </g>
    <g id="ytick_7">
     <g id="line2d_47">
      <g>
       <use style="stroke:#000000;" x="81" xlink:href="#m4bc6a19028" y="135.31519"/>
      </g>
     </g>
     <g id="text_12">
      <!-- 6 -->
      <defs>
       <path d="M 33.015625 40.375 
Q 26.375 40.375 22.484375 35.828125 
Q 18.609375 31.296875 18.609375 23.390625 
Q 18.609375 15.53125 22.484375 10.953125 
Q 26.375 6.390625 33.015625 6.390625 
Q 39.65625 6.390625 43.53125 10.953125 
Q 47.40625 15.53125 47.40625 23.390625 
Q 47.40625 31.296875 43.53125 35.828125 
Q 39.65625 40.375 33.015625 40.375 
z
M 52.59375 71.296875 
L 52.59375 62.3125 
Q 48.875 64.0625 45.09375 64.984375 
Q 41.3125 65.921875 37.59375 65.921875 
Q 27.828125 65.921875 22.671875 59.328125 
Q 17.53125 52.734375 16.796875 39.40625 
Q 19.671875 43.65625 24.015625 45.921875 
Q 28.375 48.1875 33.59375 48.1875 
Q 44.578125 48.1875 50.953125 41.515625 
Q 57.328125 34.859375 57.328125 23.390625 
Q 57.328125 12.15625 50.6875 5.359375 
Q 44.046875 -1.421875 33.015625 -1.421875 
Q 20.359375 -1.421875 13.671875 8.265625 
Q 6.984375 17.96875 6.984375 36.375 
Q 6.984375 53.65625 15.1875 63.9375 
Q 23.390625 74.21875 37.203125 74.21875 
Q 40.921875 74.21875 44.703125 73.484375 
Q 48.484375 72.75 52.59375 71.296875 
z
" id="DejaVuSans-54"/>
      </defs>
      <g transform="translate(64.0475 142.153784)scale(0.18 -0.18)">
       <use xlink:href="#DejaVuSans-54"/>
      </g>
     </g>
    </g>
    <g id="ytick_8">
     <g id="line2d_48">
      <g>
       <use style="stroke:#000000;" x="81" xlink:href="#m4bc6a19028" y="90.434515"/>
      </g>
     </g>
     <g id="text_13">
      <!-- 7 -->
      <defs>
       <path d="M 8.203125 72.90625 
L 55.078125 72.90625 
L 55.078125 68.703125 
L 28.609375 0 
L 18.3125 0 
L 43.21875 64.59375 
L 8.203125 64.59375 
z
" id="DejaVuSans-55"/>
      </defs>
      <g transform="translate(64.0475 97.273109)scale(0.18 -0.18)">
       <use xlink:href="#DejaVuSans-55"/>
      </g>
     </g>
    </g>
    <g id="text_14">
     <!-- $(RFU/OD) \times 10^4$ -->
     <defs>
      <path d="M 25.203125 64.796875 
L 20.21875 38.921875 
L 32.90625 38.921875 
Q 40.375 38.921875 44.984375 43.046875 
Q 49.609375 47.171875 49.609375 53.8125 
Q 49.609375 59.125 46.5 61.953125 
Q 43.40625 64.796875 37.59375 64.796875 
z
M 43.3125 35.015625 
Q 46.4375 34.28125 48.515625 31.390625 
Q 50.59375 28.515625 53.328125 19.921875 
L 59.515625 0 
L 49.125 0 
L 43.40625 18.703125 
Q 41.21875 25.921875 38.328125 28.359375 
Q 35.453125 30.8125 29.5 30.8125 
L 18.609375 30.8125 
L 12.59375 0 
L 2.6875 0 
L 16.890625 72.90625 
L 39.109375 72.90625 
Q 49.21875 72.90625 54.609375 68.328125 
Q 60.015625 63.765625 60.015625 55.171875 
Q 60.015625 47.5625 55.421875 41.984375 
Q 50.828125 36.421875 43.3125 35.015625 
z
" id="DejaVuSans-Oblique-82"/>
      <path d="M 16.890625 72.90625 
L 58.6875 72.90625 
L 57.078125 64.59375 
L 25.09375 64.59375 
L 20.90625 43.109375 
L 49.8125 43.109375 
L 48.1875 34.8125 
L 19.28125 34.8125 
L 12.5 0 
L 2.6875 0 
z
" id="DejaVuSans-Oblique-70"/>
      <path d="M 15.484375 72.90625 
L 25.390625 72.90625 
L 16.796875 28.609375 
Q 16.265625 25.640625 16.046875 23.703125 
Q 15.828125 21.78125 15.828125 20.3125 
Q 15.828125 13.578125 19.578125 10.078125 
Q 23.34375 6.59375 30.609375 6.59375 
Q 40.046875 6.59375 45.28125 11.765625 
Q 50.53125 16.9375 52.78125 28.609375 
L 61.375 72.90625 
L 71.296875 72.90625 
L 62.5 27.390625 
Q 59.625 12.640625 51.5625 5.609375 
Q 43.5 -1.421875 29.5 -1.421875 
Q 18.5625 -1.421875 12.1875 4.078125 
Q 5.8125 9.578125 5.8125 19 
Q 5.8125 20.703125 6.046875 22.828125 
Q 6.296875 24.953125 6.78125 27.390625 
z
" id="DejaVuSans-Oblique-85"/>
      <path d="M 25.390625 72.90625 
L 33.6875 72.90625 
L 8.296875 -9.28125 
L 0 -9.28125 
z
" id="DejaVuSans-47"/>
      <path d="M 45.609375 66.21875 
Q 37.5 66.21875 31.296875 62.28125 
Q 25.09375 58.34375 20.515625 50.296875 
Q 17.578125 45.171875 16.03125 39.40625 
Q 14.5 33.640625 14.5 27.78125 
Q 14.5 17.625 19.359375 12.109375 
Q 24.21875 6.59375 33.109375 6.59375 
Q 41.109375 6.59375 47.375 10.5625 
Q 53.65625 14.546875 58.109375 22.40625 
Q 61.078125 27.6875 62.640625 33.46875 
Q 64.203125 39.265625 64.203125 45.015625 
Q 64.203125 55.125 59.3125 60.671875 
Q 54.4375 66.21875 45.609375 66.21875 
z
M 32.8125 -1.421875 
Q 19.390625 -1.421875 11.6875 6.53125 
Q 4 14.5 4 28.328125 
Q 4 36.234375 7 44.484375 
Q 10.015625 52.734375 15.28125 59.1875 
Q 21.484375 66.75 29.09375 70.484375 
Q 36.71875 74.21875 45.90625 74.21875 
Q 59.28125 74.21875 66.984375 66.328125 
Q 74.703125 58.453125 74.703125 44.828125 
Q 74.703125 36.421875 71.765625 28.3125 
Q 68.84375 20.21875 63.375 13.625 
Q 57.125 6 49.578125 2.28125 
Q 42.046875 -1.421875 32.8125 -1.421875 
z
" id="DejaVuSans-Oblique-79"/>
      <path d="M 16.890625 72.90625 
L 38.09375 72.90625 
Q 54.984375 72.90625 63.59375 65.75 
Q 72.21875 58.59375 72.21875 44.484375 
Q 72.21875 35.15625 68.9375 26.53125 
Q 65.671875 17.921875 59.90625 12.015625 
Q 54.109375 5.953125 45.171875 2.96875 
Q 36.234375 0 24.03125 0 
L 2.6875 0 
z
M 25.203125 64.796875 
L 14.203125 8.109375 
L 27.09375 8.109375 
Q 43.65625 8.109375 52.734375 17.625 
Q 61.8125 27.15625 61.8125 44.484375 
Q 61.8125 54.984375 55.953125 59.890625 
Q 50.09375 64.796875 37.59375 64.796875 
z
" id="DejaVuSans-Oblique-68"/>
      <path d="M 70.125 53.71875 
L 47.796875 31.296875 
L 70.125 8.984375 
L 64.3125 3.078125 
L 41.890625 25.484375 
L 19.484375 3.078125 
L 13.71875 8.984375 
L 35.984375 31.296875 
L 13.71875 53.71875 
L 19.484375 59.625 
L 41.890625 37.203125 
L 64.3125 59.625 
z
" id="DejaVuSans-215"/>
     </defs>
     <g transform="translate(55.888125 315.8488)rotate(-90)scale(0.2 -0.2)">
      <use transform="translate(0 0.684375)" xlink:href="#DejaVuSans-40"/>
      <use transform="translate(39.013672 0.684375)" xlink:href="#DejaVuSans-Oblique-82"/>
      <use transform="translate(108.496094 0.684375)" xlink:href="#DejaVuSans-Oblique-70"/>
      <use transform="translate(166.015625 0.684375)" xlink:href="#DejaVuSans-Oblique-85"/>
      <use transform="translate(239.208984 0.684375)" xlink:href="#DejaVuSans-47"/>
      <use transform="translate(272.900391 0.684375)" xlink:href="#DejaVuSans-Oblique-79"/>
      <use transform="translate(351.611328 0.684375)" xlink:href="#DejaVuSans-Oblique-68"/>
      <use transform="translate(428.613281 0.684375)" xlink:href="#DejaVuSans-41"/>
      <use transform="translate(487.109375 0.684375)" xlink:href="#DejaVuSans-215"/>
      <use transform="translate(590.380859 0.684375)" xlink:href="#DejaVuSans-49"/>
      <use transform="translate(654.003906 0.684375)" xlink:href="#DejaVuSans-48"/>
      <use transform="translate(718.583984 38.965625)scale(0.7)" xlink:href="#DejaVuSans-52"/>
     </g>
    </g>
   </g>
   <g id="line2d_49">
    <path clip-path="url(#p41d97f6f37)" d="M 70.425212 393.719649 
L 244.653894 393.602645 
L 286.49312 393.35926 
L 312.479951 392.997071 
L 331.528325 392.517902 
L 346.638053 391.922089 
L 359.187335 391.210159 
L 369.938934 390.382243 
L 379.365752 389.437526 
L 387.769819 388.375857 
L 395.381855 387.193493 
L 402.349578 385.889008 
L 408.790835 384.459184 
L 414.792758 382.901068 
L 420.421665 381.212038 
L 425.742413 379.385053 
L 430.803984 377.413203 
L 435.644089 375.289865 
L 440.292237 373.008834 
L 444.785042 370.556884 
L 449.145894 367.923806 
L 453.396381 365.09764 
L 457.559451 362.062304 
L 461.654861 358.800427 
L 465.69943 355.293753 
L 469.709865 351.521099 
L 473.70432 347.456511 
L 477.698657 343.072748 
L 481.710248 338.337486 
L 485.758058 333.212621 
L 489.862287 327.654298 
L 494.048337 321.6069 
L 498.343888 315.006099 
L 502.786581 307.766303 
L 507.428574 299.770267 
L 512.342783 290.854781 
L 517.650175 280.755539 
L 523.574675 268.990345 
L 530.664031 254.394257 
L 542.090357 230.271904 
L 550.350088 212.914362 
L 550.350088 212.914362 
" style="fill:none;stroke:#0099ff;stroke-linecap:square;stroke-width:1.5;"/>
   </g>
   <g id="line2d_50">
    <path clip-path="url(#p41d97f6f37)" d="M 70.425212 400.188349 
L 205.389832 400.067701 
L 243.438638 399.81974 
L 267.152928 399.453233 
L 284.594639 398.969185 
L 298.389728 398.371335 
L 309.901639 397.655632 
L 319.775278 396.823726 
L 328.456897 395.87263 
L 336.184642 394.806198 
L 343.203628 393.615899 
L 349.61161 392.306851 
L 355.545318 390.870585 
L 361.075938 389.305809 
L 366.28218 387.603693 
L 371.201684 385.76337 
L 375.884516 383.776173 
L 380.386098 381.624751 
L 384.716063 379.308921 
L 388.898263 376.820577 
L 392.97784 374.134019 
L 396.963587 371.241845 
L 400.873741 368.128591 
L 404.732029 364.770654 
L 408.545913 361.155225 
L 412.337876 357.252984 
L 416.131293 353.028064 
L 419.94142 348.448545 
L 423.777089 343.48776 
L 427.66734 338.089379 
L 431.635143 332.198506 
L 435.7027 325.756667 
L 439.908844 318.673459 
L 444.303403 310.830903 
L 448.957055 302.063013 
L 453.986562 292.102087 
L 459.603167 280.470739 
L 466.345381 265.972293 
L 477.516104 241.323617 
L 487.338862 219.872571 
L 493.712888 206.481082 
L 499.145056 195.573651 
L 504.065966 186.181758 
L 508.657481 177.88952 
L 513.01854 170.465539 
L 517.212579 163.758847 
L 521.283858 157.662643 
L 525.264384 152.098149 
L 529.180686 147.00163 
L 533.054611 142.32172 
L 536.905809 138.015009 
L 540.752064 134.044912 
L 544.61052 130.379753 
L 548.497788 126.99229 
L 550.350088 125.480786 
L 550.350088 125.480786 
" style="fill:none;stroke:#3372cc;stroke-linecap:square;stroke-width:1.5;"/>
   </g>
   <g id="line2d_51">
    <path clip-path="url(#p41d97f6f37)" d="M 70.425212 401.736754 
L 159.134378 401.604538 
L 191.984286 401.347283 
L 212.988856 400.972079 
L 228.767619 400.472784 
L 241.233943 399.860338 
L 251.615418 399.13253 
L 260.557253 398.286479 
L 268.441344 397.319101 
L 275.512878 396.227369 
L 281.802133 395.036961 
L 287.596745 393.719974 
L 292.976321 392.274023 
L 298.002058 390.697166 
L 302.722078 388.987943 
L 307.25507 387.110038 
L 311.538588 385.096144 
L 315.668361 382.909081 
L 319.652181 380.54689 
L 323.497716 378.008708 
L 327.264898 375.25448 
L 330.949185 372.28341 
L 334.547971 369.096424 
L 338.143637 365.611717 
L 341.679625 361.873804 
L 345.222193 357.802599 
L 348.75231 353.40529 
L 352.316845 348.606527 
L 355.919509 343.37881 
L 359.587049 337.658486 
L 363.335538 331.392027 
L 367.172311 324.539511 
L 371.16013 316.955896 
L 375.354775 308.491412 
L 379.818106 298.972458 
L 384.684822 288.055213 
L 390.209515 275.096753 
L 397.14413 258.228739 
L 416.921384 209.777736 
L 422.457654 197.013507 
L 427.32543 186.336424 
L 431.797327 177.053039 
L 436.005257 168.821381 
L 440.020785 161.446923 
L 443.897518 154.785637 
L 447.671634 148.7371 
L 451.370452 143.224528 
L 455.01442 138.188471 
L 458.625165 133.573983 
L 462.218152 129.339792 
L 465.809582 125.448196 
L 469.417962 121.86386 
L 473.057487 118.560285 
L 476.74519 115.512059 
L 480.49672 112.698637 
L 484.333096 110.099064 
L 488.273528 107.69749 
L 492.340389 105.479412 
L 496.561345 103.431085 
L 500.966538 101.541434 
L 505.590391 99.801221 
L 510.473873 98.202474 
L 515.667586 96.7381 
L 521.232198 95.402527 
L 527.24446 94.190969 
L 533.800996 93.099774 
L 541.030379 92.125734 
L 549.106437 91.266319 
L 550.350088 91.152082 
L 550.350088 91.152082 
" style="fill:none;stroke:#674c9a;stroke-linecap:square;stroke-width:1.5;"/>
   </g>
   <g id="line2d_52">
    <path clip-path="url(#p41d97f6f37)" d="M 70.425212 404.725558 
L 153.32396 404.589119 
L 181.862496 404.336901 
L 200.320167 403.971162 
L 214.144825 403.490442 
L 225.287715 402.891107 
L 234.674724 402.168647 
L 242.819121 401.318217 
L 249.767012 400.376078 
L 256.061714 399.303634 
L 261.826768 398.096069 
L 267.152928 396.748919 
L 271.940527 395.312952 
L 276.442171 393.736062 
L 280.693489 392.014894 
L 284.723598 390.146649 
L 288.556624 388.12913 
L 292.322622 385.891688 
L 295.913073 383.497509 
L 299.439754 380.872788 
L 302.810086 378.088148 
L 306.120839 375.067438 
L 309.445208 371.727507 
L 312.694558 368.144481 
L 315.935738 364.236304 
L 319.15657 360.002828 
L 322.405544 355.36104 
L 325.663651 350.315577 
L 328.96595 344.788791 
L 332.336846 338.707995 
L 335.791704 332.00931 
L 339.338294 324.642006 
L 343.053414 316.400927 
L 346.950875 307.202333 
L 351.126491 296.762624 
L 355.689588 284.740555 
L 360.947189 270.240104 
L 367.845829 250.509759 
L 382.7391 207.738487 
L 388.119903 193.0878 
L 392.754321 181.099894 
L 396.963587 170.815566 
L 400.895944 161.782923 
L 404.639816 153.73073 
L 408.242722 146.501323 
L 411.741296 139.973386 
L 415.155604 134.06689 
L 418.516714 128.691439 
L 421.833875 123.800421 
L 425.134047 119.326745 
L 428.424633 115.237407 
L 431.722096 111.491501 
L 435.037759 108.058857 
L 438.38879 104.907381 
L 441.795525 102.007514 
L 445.270539 99.340856 
L 448.832089 96.887698 
L 452.500831 94.630582 
L 456.300569 92.554075 
L 460.26105 90.643755 
L 464.412472 88.889265 
L 468.794282 87.280386 
L 473.448086 85.810374 
L 478.430567 84.471926 
L 483.811135 83.259423 
L 489.678516 82.168327 
L 496.146698 81.195368 
L 503.372521 80.337597 
L 511.576767 79.592672 
L 521.08303 78.958835 
L 532.399528 78.434478 
L 546.388604 78.018094 
L 550.350088 77.933016 
L 550.350088 77.933016 
" style="fill:none;stroke:#9a2667;stroke-linecap:square;stroke-width:1.5;"/>
   </g>
   <g id="line2d_53">
    <path clip-path="url(#p41d97f6f37)" d="M 70.425212 405.059485 
L 159.134378 404.927834 
L 188.19087 404.668064 
L 206.743993 404.282975 
L 220.043008 403.794284 
L 230.819559 403.183133 
L 239.926483 402.444465 
L 247.562316 401.608406 
L 254.381807 400.641881 
L 260.557253 399.539629 
L 266.019988 398.342791 
L 271.089653 397.007529 
L 275.824672 395.529541 
L 280.270968 393.905052 
L 284.465329 392.130875 
L 288.437697 390.204465 
L 292.21279 388.12397 
L 295.811263 385.888268 
L 299.345253 383.427421 
L 302.722078 380.806731 
L 306.038774 377.953736 
L 309.292082 374.864871 
L 312.551594 371.460217 
L 315.802238 367.734987 
L 319.031853 363.687892 
L 322.230772 359.321452 
L 325.50051 354.474084 
L 328.762984 349.236847 
L 332.100474 343.455001 
L 335.527924 337.065394 
L 339.052673 330.017998 
L 342.751551 322.113817 
L 346.638053 313.272511 
L 350.808206 303.222029 
L 355.429586 291.487797 
L 360.869772 277.039097 
L 368.61969 255.750823 
L 379.609863 225.630524 
L 385.104846 211.249804 
L 389.748373 199.704175 
L 393.951557 189.836991 
L 397.859501 181.218781 
L 401.568188 173.567883 
L 405.139708 166.701946 
L 408.602546 160.520097 
L 411.987857 154.925858 
L 415.31962 149.84505 
L 418.608456 145.230325 
L 421.883795 141.014178 
L 425.154008 137.164319 
L 428.430842 133.647123 
L 431.739468 130.420051 
L 435.086336 127.464447 
L 438.494336 124.750132 
L 441.982459 122.255629 
L 445.569847 119.963395 
L 449.278034 117.858007 
L 453.135387 115.924184 
L 457.171746 114.150274 
L 461.423324 112.52591 
L 465.936364 111.041493 
L 470.760817 109.690918 
L 475.963805 108.467889 
L 481.629497 107.367599 
L 487.867874 106.386219 
L 494.828565 105.520567 
L 502.719301 104.768332 
L 511.846657 104.127512 
L 522.689266 103.59639 
L 536.054203 103.173409 
L 550.350088 102.89978 
L 550.350088 102.89978 
" style="fill:none;stroke:#ce0035;stroke-linecap:square;stroke-width:1.5;"/>
   </g>
   <g id="line2d_54">
    <defs>
     <path d="M 0 3 
C 0.795609 3 1.55874 2.683901 2.12132 2.12132 
C 2.683901 1.55874 3 0.795609 3 0 
C 3 -0.795609 2.683901 -1.55874 2.12132 -2.12132 
C 1.55874 -2.683901 0.795609 -3 0 -3 
C -0.795609 -3 -1.55874 -2.683901 -2.12132 -2.12132 
C -2.683901 -1.55874 -3 -0.795609 -3 0 
C -3 0.795609 -2.683901 1.55874 -2.12132 2.12132 
C -1.55874 2.683901 -0.795609 3 0 3 
z
" id="md713fcbec4" style="stroke:#0099ff;"/>
    </defs>
    <g clip-path="url(#p41d97f6f37)">
     <use style="fill:#0099ff;stroke:#0099ff;" x="-1" xlink:href="#md713fcbec4" y="394.062187"/>
     <use style="fill:#0099ff;stroke:#0099ff;" x="179.549735" xlink:href="#md713fcbec4" y="394.061794"/>
     <use style="fill:#0099ff;stroke:#0099ff;" x="222.974956" xlink:href="#md713fcbec4" y="394.121622"/>
     <use style="fill:#0099ff;stroke:#0099ff;" x="255.824867" xlink:href="#md713fcbec4" y="393.695506"/>
     <use style="fill:#0099ff;stroke:#0099ff;" x="288.674779" xlink:href="#md713fcbec4" y="393.274936"/>
     <use style="fill:#0099ff;stroke:#0099ff;" x="332.1" xlink:href="#md713fcbec4" y="392.270864"/>
     <use style="fill:#0099ff;stroke:#0099ff;" x="364.949912" xlink:href="#md713fcbec4" y="390.589211"/>
     <use style="fill:#0099ff;stroke:#0099ff;" x="397.799823" xlink:href="#md713fcbec4" y="386.904898"/>
     <use style="fill:#0099ff;stroke:#0099ff;" x="441.225044" xlink:href="#md713fcbec4" y="371.122845"/>
     <use style="fill:#0099ff;stroke:#0099ff;" x="474.074956" xlink:href="#md713fcbec4" y="346.677557"/>
     <use style="fill:#0099ff;stroke:#0099ff;" x="506.924867" xlink:href="#md713fcbec4" y="297.02908"/>
     <use style="fill:#0099ff;stroke:#0099ff;" x="550.350088" xlink:href="#md713fcbec4" y="210.671872"/>
    </g>
   </g>
   <g id="line2d_55">
    <g clip-path="url(#p41d97f6f37)">
     <use style="fill:#0099ff;stroke:#0099ff;" x="-1" xlink:href="#md713fcbec4" y="393.80194"/>
     <use style="fill:#0099ff;stroke:#0099ff;" x="179.549735" xlink:href="#md713fcbec4" y="393.801921"/>
     <use style="fill:#0099ff;stroke:#0099ff;" x="222.974956" xlink:href="#md713fcbec4" y="393.85754"/>
     <use style="fill:#0099ff;stroke:#0099ff;" x="255.824867" xlink:href="#md713fcbec4" y="393.464218"/>
     <use style="fill:#0099ff;stroke:#0099ff;" x="288.674779" xlink:href="#md713fcbec4" y="393.067208"/>
     <use style="fill:#0099ff;stroke:#0099ff;" x="332.1" xlink:href="#md713fcbec4" y="392.291785"/>
     <use style="fill:#0099ff;stroke:#0099ff;" x="364.949912" xlink:href="#md713fcbec4" y="390.37976"/>
     <use style="fill:#0099ff;stroke:#0099ff;" x="397.799823" xlink:href="#md713fcbec4" y="387.157694"/>
     <use style="fill:#0099ff;stroke:#0099ff;" x="441.225044" xlink:href="#md713fcbec4" y="372.059515"/>
     <use style="fill:#0099ff;stroke:#0099ff;" x="474.074956" xlink:href="#md713fcbec4" y="349.250105"/>
     <use style="fill:#0099ff;stroke:#0099ff;" x="506.924867" xlink:href="#md713fcbec4" y="298.49276"/>
     <use style="fill:#0099ff;stroke:#0099ff;" x="550.350088" xlink:href="#md713fcbec4" y="217.025349"/>
    </g>
   </g>
   <g id="line2d_56">
    <g clip-path="url(#p41d97f6f37)">
     <use style="fill:#0099ff;stroke:#0099ff;" x="-1" xlink:href="#md713fcbec4" y="393.710128"/>
     <use style="fill:#0099ff;stroke:#0099ff;" x="179.549735" xlink:href="#md713fcbec4" y="393.709685"/>
     <use style="fill:#0099ff;stroke:#0099ff;" x="222.974956" xlink:href="#md713fcbec4" y="393.769369"/>
     <use style="fill:#0099ff;stroke:#0099ff;" x="255.824867" xlink:href="#md713fcbec4" y="393.423774"/>
     <use style="fill:#0099ff;stroke:#0099ff;" x="288.674779" xlink:href="#md713fcbec4" y="393.108957"/>
     <use style="fill:#0099ff;stroke:#0099ff;" x="332.1" xlink:href="#md713fcbec4" y="392.141708"/>
     <use style="fill:#0099ff;stroke:#0099ff;" x="364.949912" xlink:href="#md713fcbec4" y="390.568296"/>
     <use style="fill:#0099ff;stroke:#0099ff;" x="397.799823" xlink:href="#md713fcbec4" y="386.906031"/>
     <use style="fill:#0099ff;stroke:#0099ff;" x="441.225044" xlink:href="#md713fcbec4" y="372.172107"/>
     <use style="fill:#0099ff;stroke:#0099ff;" x="474.074956" xlink:href="#md713fcbec4" y="347.889071"/>
     <use style="fill:#0099ff;stroke:#0099ff;" x="506.924867" xlink:href="#md713fcbec4" y="305.335181"/>
     <use style="fill:#0099ff;stroke:#0099ff;" x="550.350088" xlink:href="#md713fcbec4" y="211.196896"/>
    </g>
   </g>
   <g id="line2d_57">
    <defs>
     <path d="M 0 3 
C 0.795609 3 1.55874 2.683901 2.12132 2.12132 
C 2.683901 1.55874 3 0.795609 3 0 
C 3 -0.795609 2.683901 -1.55874 2.12132 -2.12132 
C 1.55874 -2.683901 0.795609 -3 0 -3 
C -0.795609 -3 -1.55874 -2.683901 -2.12132 -2.12132 
C -2.683901 -1.55874 -3 -0.795609 -3 0 
C -3 0.795609 -2.683901 1.55874 -2.12132 2.12132 
C -1.55874 2.683901 -0.795609 3 0 3 
z
" id="mb48e6cab04" style="stroke:#3372cc;"/>
    </defs>
    <g clip-path="url(#p41d97f6f37)">
     <use style="fill:#3372cc;stroke:#3372cc;" x="-1" xlink:href="#mb48e6cab04" y="399.710322"/>
     <use style="fill:#3372cc;stroke:#3372cc;" x="179.549735" xlink:href="#mb48e6cab04" y="399.710141"/>
     <use style="fill:#3372cc;stroke:#3372cc;" x="222.974956" xlink:href="#mb48e6cab04" y="399.616465"/>
     <use style="fill:#3372cc;stroke:#3372cc;" x="255.824867" xlink:href="#mb48e6cab04" y="399.145529"/>
     <use style="fill:#3372cc;stroke:#3372cc;" x="288.674779" xlink:href="#mb48e6cab04" y="398.323915"/>
     <use style="fill:#3372cc;stroke:#3372cc;" x="332.1" xlink:href="#mb48e6cab04" y="395.351276"/>
     <use style="fill:#3372cc;stroke:#3372cc;" x="364.949912" xlink:href="#mb48e6cab04" y="390.277547"/>
     <use style="fill:#3372cc;stroke:#3372cc;" x="397.799823" xlink:href="#mb48e6cab04" y="372.029461"/>
     <use style="fill:#3372cc;stroke:#3372cc;" x="441.225044" xlink:href="#mb48e6cab04" y="316.1228"/>
     <use style="fill:#3372cc;stroke:#3372cc;" x="474.074956" xlink:href="#mb48e6cab04" y="257.430964"/>
     <use style="fill:#3372cc;stroke:#3372cc;" x="506.924867" xlink:href="#mb48e6cab04" y="180.114203"/>
     <use style="fill:#3372cc;stroke:#3372cc;" x="550.350088" xlink:href="#mb48e6cab04" y="127.637506"/>
    </g>
   </g>
   <g id="line2d_58">
    <g clip-path="url(#p41d97f6f37)">
     <use style="fill:#3372cc;stroke:#3372cc;" x="-1" xlink:href="#mb48e6cab04" y="399.785669"/>
     <use style="fill:#3372cc;stroke:#3372cc;" x="179.549735" xlink:href="#mb48e6cab04" y="399.785432"/>
     <use style="fill:#3372cc;stroke:#3372cc;" x="222.974956" xlink:href="#mb48e6cab04" y="399.634596"/>
     <use style="fill:#3372cc;stroke:#3372cc;" x="255.824867" xlink:href="#mb48e6cab04" y="399.20425"/>
     <use style="fill:#3372cc;stroke:#3372cc;" x="288.674779" xlink:href="#mb48e6cab04" y="398.380581"/>
     <use style="fill:#3372cc;stroke:#3372cc;" x="332.1" xlink:href="#mb48e6cab04" y="395.692218"/>
     <use style="fill:#3372cc;stroke:#3372cc;" x="364.949912" xlink:href="#mb48e6cab04" y="389.673937"/>
     <use style="fill:#3372cc;stroke:#3372cc;" x="397.799823" xlink:href="#mb48e6cab04" y="371.948602"/>
     <use style="fill:#3372cc;stroke:#3372cc;" x="441.225044" xlink:href="#mb48e6cab04" y="309.408832"/>
     <use style="fill:#3372cc;stroke:#3372cc;" x="474.074956" xlink:href="#mb48e6cab04" y="242.995854"/>
     <use style="fill:#3372cc;stroke:#3372cc;" x="506.924867" xlink:href="#mb48e6cab04" y="177.656485"/>
     <use style="fill:#3372cc;stroke:#3372cc;" x="550.350088" xlink:href="#mb48e6cab04" y="127.806434"/>
    </g>
   </g>
   <g id="line2d_59">
    <g clip-path="url(#p41d97f6f37)">
     <use style="fill:#3372cc;stroke:#3372cc;" x="-1" xlink:href="#mb48e6cab04" y="399.804631"/>
     <use style="fill:#3372cc;stroke:#3372cc;" x="179.549735" xlink:href="#mb48e6cab04" y="399.804387"/>
     <use style="fill:#3372cc;stroke:#3372cc;" x="222.974956" xlink:href="#mb48e6cab04" y="399.692306"/>
     <use style="fill:#3372cc;stroke:#3372cc;" x="255.824867" xlink:href="#mb48e6cab04" y="399.280828"/>
     <use style="fill:#3372cc;stroke:#3372cc;" x="288.674779" xlink:href="#mb48e6cab04" y="398.446757"/>
     <use style="fill:#3372cc;stroke:#3372cc;" x="332.1" xlink:href="#mb48e6cab04" y="395.922824"/>
     <use style="fill:#3372cc;stroke:#3372cc;" x="364.949912" xlink:href="#mb48e6cab04" y="388.96113"/>
     <use style="fill:#3372cc;stroke:#3372cc;" x="397.799823" xlink:href="#mb48e6cab04" y="373.334292"/>
     <use style="fill:#3372cc;stroke:#3372cc;" x="441.225044" xlink:href="#mb48e6cab04" y="312.280068"/>
     <use style="fill:#3372cc;stroke:#3372cc;" x="474.074956" xlink:href="#mb48e6cab04" y="254.972097"/>
     <use style="fill:#3372cc;stroke:#3372cc;" x="506.924867" xlink:href="#mb48e6cab04" y="182.277792"/>
     <use style="fill:#3372cc;stroke:#3372cc;" x="550.350088" xlink:href="#mb48e6cab04" y="121.186943"/>
    </g>
   </g>
   <g id="line2d_60">
    <defs>
     <path d="M 0 3 
C 0.795609 3 1.55874 2.683901 2.12132 2.12132 
C 2.683901 1.55874 3 0.795609 3 0 
C 3 -0.795609 2.683901 -1.55874 2.12132 -2.12132 
C 1.55874 -2.683901 0.795609 -3 0 -3 
C -0.795609 -3 -1.55874 -2.683901 -2.12132 -2.12132 
C -2.683901 -1.55874 -3 -0.795609 -3 0 
C -3 0.795609 -2.683901 1.55874 -2.12132 2.12132 
C -1.55874 2.683901 -0.795609 3 0 3 
z
" id="m8cf00630c1" style="stroke:#674c9a;"/>
    </defs>
    <g clip-path="url(#p41d97f6f37)">
     <use style="fill:#674c9a;stroke:#674c9a;" x="-1" xlink:href="#m8cf00630c1" y="400.817906"/>
     <use style="fill:#674c9a;stroke:#674c9a;" x="179.549735" xlink:href="#m8cf00630c1" y="400.817354"/>
     <use style="fill:#674c9a;stroke:#674c9a;" x="222.974956" xlink:href="#m8cf00630c1" y="400.261538"/>
     <use style="fill:#674c9a;stroke:#674c9a;" x="255.824867" xlink:href="#m8cf00630c1" y="398.789602"/>
     <use style="fill:#674c9a;stroke:#674c9a;" x="288.674779" xlink:href="#m8cf00630c1" y="394.476202"/>
     <use style="fill:#674c9a;stroke:#674c9a;" x="332.1" xlink:href="#m8cf00630c1" y="376.072673"/>
     <use style="fill:#674c9a;stroke:#674c9a;" x="364.949912" xlink:href="#m8cf00630c1" y="329.30304"/>
     <use style="fill:#674c9a;stroke:#674c9a;" x="397.799823" xlink:href="#m8cf00630c1" y="260.588811"/>
     <use style="fill:#674c9a;stroke:#674c9a;" x="441.225044" xlink:href="#m8cf00630c1" y="162.364404"/>
     <use style="fill:#674c9a;stroke:#674c9a;" x="474.074956" xlink:href="#m8cf00630c1" y="117.041264"/>
     <use style="fill:#674c9a;stroke:#674c9a;" x="506.924867" xlink:href="#m8cf00630c1" y="99.421446"/>
     <use style="fill:#674c9a;stroke:#674c9a;" x="550.350088" xlink:href="#m8cf00630c1" y="91.866591"/>
    </g>
   </g>
   <g id="line2d_61">
    <g clip-path="url(#p41d97f6f37)">
     <use style="fill:#674c9a;stroke:#674c9a;" x="-1" xlink:href="#m8cf00630c1" y="400.791964"/>
     <use style="fill:#674c9a;stroke:#674c9a;" x="179.549735" xlink:href="#m8cf00630c1" y="400.791523"/>
     <use style="fill:#674c9a;stroke:#674c9a;" x="222.974956" xlink:href="#m8cf00630c1" y="400.114677"/>
     <use style="fill:#674c9a;stroke:#674c9a;" x="255.824867" xlink:href="#m8cf00630c1" y="398.5748"/>
     <use style="fill:#674c9a;stroke:#674c9a;" x="288.674779" xlink:href="#m8cf00630c1" y="394.230928"/>
     <use style="fill:#674c9a;stroke:#674c9a;" x="332.1" xlink:href="#m8cf00630c1" y="373.748597"/>
     <use style="fill:#674c9a;stroke:#674c9a;" x="364.949912" xlink:href="#m8cf00630c1" y="325.984264"/>
     <use style="fill:#674c9a;stroke:#674c9a;" x="397.799823" xlink:href="#m8cf00630c1" y="253.312863"/>
     <use style="fill:#674c9a;stroke:#674c9a;" x="441.225044" xlink:href="#m8cf00630c1" y="158.225291"/>
     <use style="fill:#674c9a;stroke:#674c9a;" x="474.074956" xlink:href="#m8cf00630c1" y="117.867687"/>
     <use style="fill:#674c9a;stroke:#674c9a;" x="506.924867" xlink:href="#m8cf00630c1" y="97.170401"/>
     <use style="fill:#674c9a;stroke:#674c9a;" x="550.350088" xlink:href="#m8cf00630c1" y="97.393398"/>
    </g>
   </g>
   <g id="line2d_62">
    <g clip-path="url(#p41d97f6f37)">
     <use style="fill:#674c9a;stroke:#674c9a;" x="-1" xlink:href="#m8cf00630c1" y="400.696339"/>
     <use style="fill:#674c9a;stroke:#674c9a;" x="179.549735" xlink:href="#m8cf00630c1" y="400.695659"/>
     <use style="fill:#674c9a;stroke:#674c9a;" x="222.974956" xlink:href="#m8cf00630c1" y="400.095112"/>
     <use style="fill:#674c9a;stroke:#674c9a;" x="255.824867" xlink:href="#m8cf00630c1" y="398.531226"/>
     <use style="fill:#674c9a;stroke:#674c9a;" x="288.674779" xlink:href="#m8cf00630c1" y="394.496044"/>
     <use style="fill:#674c9a;stroke:#674c9a;" x="332.1" xlink:href="#m8cf00630c1" y="373.653738"/>
     <use style="fill:#674c9a;stroke:#674c9a;" x="364.949912" xlink:href="#m8cf00630c1" y="322.767239"/>
     <use style="fill:#674c9a;stroke:#674c9a;" x="397.799823" xlink:href="#m8cf00630c1" y="254.798241"/>
     <use style="fill:#674c9a;stroke:#674c9a;" x="441.225044" xlink:href="#m8cf00630c1" y="163.486494"/>
     <use style="fill:#674c9a;stroke:#674c9a;" x="474.074956" xlink:href="#m8cf00630c1" y="116.976551"/>
     <use style="fill:#674c9a;stroke:#674c9a;" x="506.924867" xlink:href="#m8cf00630c1" y="93.458701"/>
     <use style="fill:#674c9a;stroke:#674c9a;" x="550.350088" xlink:href="#m8cf00630c1" y="89.613494"/>
    </g>
   </g>
   <g id="line2d_63">
    <defs>
     <path d="M 0 3 
C 0.795609 3 1.55874 2.683901 2.12132 2.12132 
C 2.683901 1.55874 3 0.795609 3 0 
C 3 -0.795609 2.683901 -1.55874 2.12132 -2.12132 
C 1.55874 -2.683901 0.795609 -3 0 -3 
C -0.795609 -3 -1.55874 -2.683901 -2.12132 -2.12132 
C -2.683901 -1.55874 -3 -0.795609 -3 0 
C -3 0.795609 -2.683901 1.55874 -2.12132 2.12132 
C -1.55874 2.683901 -0.795609 3 0 3 
z
" id="m2e52acae20" style="stroke:#9a2667;"/>
    </defs>
    <g clip-path="url(#p41d97f6f37)">
     <use style="fill:#9a2667;stroke:#9a2667;" x="-1" xlink:href="#m2e52acae20" y="402.919058"/>
     <use style="fill:#9a2667;stroke:#9a2667;" x="179.549735" xlink:href="#m2e52acae20" y="402.918841"/>
     <use style="fill:#9a2667;stroke:#9a2667;" x="222.974956" xlink:href="#m2e52acae20" y="402.579047"/>
     <use style="fill:#9a2667;stroke:#9a2667;" x="255.824867" xlink:href="#m2e52acae20" y="401.217496"/>
     <use style="fill:#9a2667;stroke:#9a2667;" x="288.674779" xlink:href="#m2e52acae20" y="392.008815"/>
     <use style="fill:#9a2667;stroke:#9a2667;" x="332.1" xlink:href="#m2e52acae20" y="336.608518"/>
     <use style="fill:#9a2667;stroke:#9a2667;" x="364.949912" xlink:href="#m2e52acae20" y="252.583373"/>
     <use style="fill:#9a2667;stroke:#9a2667;" x="397.799823" xlink:href="#m2e52acae20" y="169.343709"/>
     <use style="fill:#9a2667;stroke:#9a2667;" x="441.225044" xlink:href="#m2e52acae20" y="101.696151"/>
     <use style="fill:#9a2667;stroke:#9a2667;" x="474.074956" xlink:href="#m2e52acae20" y="83.248184"/>
     <use style="fill:#9a2667;stroke:#9a2667;" x="506.924867" xlink:href="#m2e52acae20" y="83.898891"/>
     <use style="fill:#9a2667;stroke:#9a2667;" x="550.350088" xlink:href="#m2e52acae20" y="88.009276"/>
    </g>
   </g>
   <g id="line2d_64">
    <g clip-path="url(#p41d97f6f37)">
     <use style="fill:#9a2667;stroke:#9a2667;" x="-1" xlink:href="#m2e52acae20" y="403.056161"/>
     <use style="fill:#9a2667;stroke:#9a2667;" x="179.549735" xlink:href="#m2e52acae20" y="403.056124"/>
     <use style="fill:#9a2667;stroke:#9a2667;" x="222.974956" xlink:href="#m2e52acae20" y="402.793969"/>
     <use style="fill:#9a2667;stroke:#9a2667;" x="255.824867" xlink:href="#m2e52acae20" y="401.2951"/>
     <use style="fill:#9a2667;stroke:#9a2667;" x="288.674779" xlink:href="#m2e52acae20" y="393.118299"/>
     <use style="fill:#9a2667;stroke:#9a2667;" x="332.1" xlink:href="#m2e52acae20" y="333.761816"/>
     <use style="fill:#9a2667;stroke:#9a2667;" x="364.949912" xlink:href="#m2e52acae20" y="263.744552"/>
     <use style="fill:#9a2667;stroke:#9a2667;" x="397.799823" xlink:href="#m2e52acae20" y="167.824468"/>
     <use style="fill:#9a2667;stroke:#9a2667;" x="441.225044" xlink:href="#m2e52acae20" y="101.603274"/>
     <use style="fill:#9a2667;stroke:#9a2667;" x="474.074956" xlink:href="#m2e52acae20" y="81.193189"/>
     <use style="fill:#9a2667;stroke:#9a2667;" x="506.924867" xlink:href="#m2e52acae20" y="79.330729"/>
     <use style="fill:#9a2667;stroke:#9a2667;" x="550.350088" xlink:href="#m2e52acae20" y="84.230308"/>
    </g>
   </g>
   <g id="line2d_65">
    <g clip-path="url(#p41d97f6f37)">
     <use style="fill:#9a2667;stroke:#9a2667;" x="-1" xlink:href="#m2e52acae20" y="402.955338"/>
     <use style="fill:#9a2667;stroke:#9a2667;" x="179.549735" xlink:href="#m2e52acae20" y="402.955208"/>
     <use style="fill:#9a2667;stroke:#9a2667;" x="222.974956" xlink:href="#m2e52acae20" y="402.663267"/>
     <use style="fill:#9a2667;stroke:#9a2667;" x="255.824867" xlink:href="#m2e52acae20" y="401.089879"/>
     <use style="fill:#9a2667;stroke:#9a2667;" x="288.674779" xlink:href="#m2e52acae20" y="392.763364"/>
     <use style="fill:#9a2667;stroke:#9a2667;" x="332.1" xlink:href="#m2e52acae20" y="333.110689"/>
     <use style="fill:#9a2667;stroke:#9a2667;" x="364.949912" xlink:href="#m2e52acae20" y="263.498569"/>
     <use style="fill:#9a2667;stroke:#9a2667;" x="397.799823" xlink:href="#m2e52acae20" y="175.885883"/>
     <use style="fill:#9a2667;stroke:#9a2667;" x="441.225044" xlink:href="#m2e52acae20" y="100.643249"/>
     <use style="fill:#9a2667;stroke:#9a2667;" x="474.074956" xlink:href="#m2e52acae20" y="77.196067"/>
     <use style="fill:#9a2667;stroke:#9a2667;" x="506.924867" xlink:href="#m2e52acae20" y="73.4328"/>
     <use style="fill:#9a2667;stroke:#9a2667;" x="550.350088" xlink:href="#m2e52acae20" y="78.820625"/>
    </g>
   </g>
   <g id="line2d_66">
    <defs>
     <path d="M 0 3 
C 0.795609 3 1.55874 2.683901 2.12132 2.12132 
C 2.683901 1.55874 3 0.795609 3 0 
C 3 -0.795609 2.683901 -1.55874 2.12132 -2.12132 
C 1.55874 -2.683901 0.795609 -3 0 -3 
C -0.795609 -3 -1.55874 -2.683901 -2.12132 -2.12132 
C -2.683901 -1.55874 -3 -0.795609 -3 0 
C -3 0.795609 -2.683901 1.55874 -2.12132 2.12132 
C -1.55874 2.683901 -0.795609 3 0 3 
z
" id="m568d97f5b8" style="stroke:#ce0035;"/>
    </defs>
    <g clip-path="url(#p41d97f6f37)">
     <use style="fill:#ce0035;stroke:#ce0035;" x="-1" xlink:href="#m568d97f5b8" y="403.076249"/>
     <use style="fill:#ce0035;stroke:#ce0035;" x="179.549735" xlink:href="#m568d97f5b8" y="403.076343"/>
     <use style="fill:#ce0035;stroke:#ce0035;" x="222.974956" xlink:href="#m568d97f5b8" y="402.896729"/>
     <use style="fill:#ce0035;stroke:#ce0035;" x="255.824867" xlink:href="#m568d97f5b8" y="401.890983"/>
     <use style="fill:#ce0035;stroke:#ce0035;" x="288.674779" xlink:href="#m568d97f5b8" y="394.81006"/>
     <use style="fill:#ce0035;stroke:#ce0035;" x="332.1" xlink:href="#m568d97f5b8" y="338.304734"/>
     <use style="fill:#ce0035;stroke:#ce0035;" x="364.949912" xlink:href="#m568d97f5b8" y="267.835849"/>
     <use style="fill:#ce0035;stroke:#ce0035;" x="397.799823" xlink:href="#m568d97f5b8" y="181.785748"/>
     <use style="fill:#ce0035;stroke:#ce0035;" x="441.225044" xlink:href="#m568d97f5b8" y="123.275996"/>
     <use style="fill:#ce0035;stroke:#ce0035;" x="474.074956" xlink:href="#m568d97f5b8" y="107.144341"/>
     <use style="fill:#ce0035;stroke:#ce0035;" x="506.924867" xlink:href="#m568d97f5b8" y="101.761823"/>
     <use style="fill:#ce0035;stroke:#ce0035;" x="550.350088" xlink:href="#m568d97f5b8" y="107.662207"/>
    </g>
   </g>
   <g id="line2d_67">
    <g clip-path="url(#p41d97f6f37)">
     <use style="fill:#ce0035;stroke:#ce0035;" x="-1" xlink:href="#m568d97f5b8" y="403.077707"/>
     <use style="fill:#ce0035;stroke:#ce0035;" x="179.549735" xlink:href="#m568d97f5b8" y="403.077862"/>
     <use style="fill:#ce0035;stroke:#ce0035;" x="222.974956" xlink:href="#m568d97f5b8" y="402.916043"/>
     <use style="fill:#ce0035;stroke:#ce0035;" x="255.824867" xlink:href="#m568d97f5b8" y="401.875229"/>
     <use style="fill:#ce0035;stroke:#ce0035;" x="288.674779" xlink:href="#m568d97f5b8" y="394.991374"/>
     <use style="fill:#ce0035;stroke:#ce0035;" x="332.1" xlink:href="#m568d97f5b8" y="344.372402"/>
     <use style="fill:#ce0035;stroke:#ce0035;" x="364.949912" xlink:href="#m568d97f5b8" y="262.288297"/>
     <use style="fill:#ce0035;stroke:#ce0035;" x="397.799823" xlink:href="#m568d97f5b8" y="184.182246"/>
     <use style="fill:#ce0035;stroke:#ce0035;" x="441.225044" xlink:href="#m568d97f5b8" y="127.811579"/>
     <use style="fill:#ce0035;stroke:#ce0035;" x="474.074956" xlink:href="#m568d97f5b8" y="103.782739"/>
     <use style="fill:#ce0035;stroke:#ce0035;" x="506.924867" xlink:href="#m568d97f5b8" y="103.171638"/>
     <use style="fill:#ce0035;stroke:#ce0035;" x="550.350088" xlink:href="#m568d97f5b8" y="106.340728"/>
    </g>
   </g>
   <g id="line2d_68">
    <g clip-path="url(#p41d97f6f37)">
     <use style="fill:#ce0035;stroke:#ce0035;" x="-1" xlink:href="#m568d97f5b8" y="403.10465"/>
     <use style="fill:#ce0035;stroke:#ce0035;" x="179.549735" xlink:href="#m568d97f5b8" y="403.104602"/>
     <use style="fill:#ce0035;stroke:#ce0035;" x="222.974956" xlink:href="#m568d97f5b8" y="402.963217"/>
     <use style="fill:#ce0035;stroke:#ce0035;" x="255.824867" xlink:href="#m568d97f5b8" y="402.107745"/>
     <use style="fill:#ce0035;stroke:#ce0035;" x="288.674779" xlink:href="#m568d97f5b8" y="394.794475"/>
     <use style="fill:#ce0035;stroke:#ce0035;" x="332.1" xlink:href="#m568d97f5b8" y="342.173374"/>
     <use style="fill:#ce0035;stroke:#ce0035;" x="364.949912" xlink:href="#m568d97f5b8" y="263.683503"/>
     <use style="fill:#ce0035;stroke:#ce0035;" x="397.799823" xlink:href="#m568d97f5b8" y="184.096491"/>
     <use style="fill:#ce0035;stroke:#ce0035;" x="441.225044" xlink:href="#m568d97f5b8" y="120.586308"/>
     <use style="fill:#ce0035;stroke:#ce0035;" x="474.074956" xlink:href="#m568d97f5b8" y="104.43641"/>
     <use style="fill:#ce0035;stroke:#ce0035;" x="506.924867" xlink:href="#m568d97f5b8" y="104.61476"/>
     <use style="fill:#ce0035;stroke:#ce0035;" x="550.350088" xlink:href="#m568d97f5b8" y="104.088219"/>
    </g>
   </g>
   <g id="patch_3">
    <path d="M 81 421.6464 
L 81 56.8512 
" style="fill:none;stroke:#000000;stroke-linecap:square;stroke-linejoin:miter;stroke-width:0.8;"/>
   </g>
   <g id="patch_4">
    <path d="M 81 421.6464 
L 583.2 421.6464 
" style="fill:none;stroke:#000000;stroke-linecap:square;stroke-linejoin:miter;stroke-width:0.8;"/>
   </g>
   <g id="text_15">
    <!-- RamR Variant Response to Tetrahydropapaverine -->
    <defs>
     <path d="M 44.390625 34.1875 
Q 47.5625 33.109375 50.5625 29.59375 
Q 53.5625 26.078125 56.59375 19.921875 
L 66.609375 0 
L 56 0 
L 46.6875 18.703125 
Q 43.0625 26.03125 39.671875 28.421875 
Q 36.28125 30.8125 30.421875 30.8125 
L 19.671875 30.8125 
L 19.671875 0 
L 9.8125 0 
L 9.8125 72.90625 
L 32.078125 72.90625 
Q 44.578125 72.90625 50.734375 67.671875 
Q 56.890625 62.453125 56.890625 51.90625 
Q 56.890625 45.015625 53.6875 40.46875 
Q 50.484375 35.9375 44.390625 34.1875 
z
M 19.671875 64.796875 
L 19.671875 38.921875 
L 32.078125 38.921875 
Q 39.203125 38.921875 42.84375 42.21875 
Q 46.484375 45.515625 46.484375 51.90625 
Q 46.484375 58.296875 42.84375 61.546875 
Q 39.203125 64.796875 32.078125 64.796875 
z
" id="DejaVuSans-82"/>
     <path d="M 52 44.1875 
Q 55.375 50.25 60.0625 53.125 
Q 64.75 56 71.09375 56 
Q 79.640625 56 84.28125 50.015625 
Q 88.921875 44.046875 88.921875 33.015625 
L 88.921875 0 
L 79.890625 0 
L 79.890625 32.71875 
Q 79.890625 40.578125 77.09375 44.375 
Q 74.3125 48.1875 68.609375 48.1875 
Q 61.625 48.1875 57.5625 43.546875 
Q 53.515625 38.921875 53.515625 30.90625 
L 53.515625 0 
L 44.484375 0 
L 44.484375 32.71875 
Q 44.484375 40.625 41.703125 44.40625 
Q 38.921875 48.1875 33.109375 48.1875 
Q 26.21875 48.1875 22.15625 43.53125 
Q 18.109375 38.875 18.109375 30.90625 
L 18.109375 0 
L 9.078125 0 
L 9.078125 54.6875 
L 18.109375 54.6875 
L 18.109375 46.1875 
Q 21.1875 51.21875 25.484375 53.609375 
Q 29.78125 56 35.6875 56 
Q 41.65625 56 45.828125 52.96875 
Q 50 49.953125 52 44.1875 
z
" id="DejaVuSans-109"/>
     <path d="M 28.609375 0 
L 0.78125 72.90625 
L 11.078125 72.90625 
L 34.1875 11.53125 
L 57.328125 72.90625 
L 67.578125 72.90625 
L 39.796875 0 
z
" id="DejaVuSans-86"/>
     <path d="M 44.28125 53.078125 
L 44.28125 44.578125 
Q 40.484375 46.53125 36.375 47.5 
Q 32.28125 48.484375 27.875 48.484375 
Q 21.1875 48.484375 17.84375 46.4375 
Q 14.5 44.390625 14.5 40.28125 
Q 14.5 37.15625 16.890625 35.375 
Q 19.28125 33.59375 26.515625 31.984375 
L 29.59375 31.296875 
Q 39.15625 29.25 43.1875 25.515625 
Q 47.21875 21.78125 47.21875 15.09375 
Q 47.21875 7.46875 41.1875 3.015625 
Q 35.15625 -1.421875 24.609375 -1.421875 
Q 20.21875 -1.421875 15.453125 -0.5625 
Q 10.6875 0.296875 5.421875 2 
L 5.421875 11.28125 
Q 10.40625 8.6875 15.234375 7.390625 
Q 20.0625 6.109375 24.8125 6.109375 
Q 31.15625 6.109375 34.5625 8.28125 
Q 37.984375 10.453125 37.984375 14.40625 
Q 37.984375 18.0625 35.515625 20.015625 
Q 33.0625 21.96875 24.703125 23.78125 
L 21.578125 24.515625 
Q 13.234375 26.265625 9.515625 29.90625 
Q 5.8125 33.546875 5.8125 39.890625 
Q 5.8125 47.609375 11.28125 51.796875 
Q 16.75 56 26.8125 56 
Q 31.78125 56 36.171875 55.265625 
Q 40.578125 54.546875 44.28125 53.078125 
z
" id="DejaVuSans-115"/>
    </defs>
    <g transform="translate(58.366719 50.8512)scale(0.22 -0.22)">
     <use xlink:href="#DejaVuSans-82"/>
     <use x="69.451172" xlink:href="#DejaVuSans-97"/>
     <use x="130.730469" xlink:href="#DejaVuSans-109"/>
     <use x="228.142578" xlink:href="#DejaVuSans-82"/>
     <use x="297.625" xlink:href="#DejaVuSans-32"/>
     <use x="329.412109" xlink:href="#DejaVuSans-86"/>
     <use x="397.710938" xlink:href="#DejaVuSans-97"/>
     <use x="458.990234" xlink:href="#DejaVuSans-114"/>
     <use x="500.103516" xlink:href="#DejaVuSans-105"/>
     <use x="527.886719" xlink:href="#DejaVuSans-97"/>
     <use x="589.166016" xlink:href="#DejaVuSans-110"/>
     <use x="652.544922" xlink:href="#DejaVuSans-116"/>
     <use x="691.753906" xlink:href="#DejaVuSans-32"/>
     <use x="723.541016" xlink:href="#DejaVuSans-82"/>
     <use x="792.960938" xlink:href="#DejaVuSans-101"/>
     <use x="854.484375" xlink:href="#DejaVuSans-115"/>
     <use x="906.583984" xlink:href="#DejaVuSans-112"/>
     <use x="970.060547" xlink:href="#DejaVuSans-111"/>
     <use x="1031.242188" xlink:href="#DejaVuSans-110"/>
     <use x="1094.621094" xlink:href="#DejaVuSans-115"/>
     <use x="1146.720703" xlink:href="#DejaVuSans-101"/>
     <use x="1208.244141" xlink:href="#DejaVuSans-32"/>
     <use x="1240.03125" xlink:href="#DejaVuSans-116"/>
     <use x="1279.240234" xlink:href="#DejaVuSans-111"/>
     <use x="1340.421875" xlink:href="#DejaVuSans-32"/>
     <use x="1372.208984" xlink:href="#DejaVuSans-84"/>
     <use x="1433.027344" xlink:href="#DejaVuSans-101"/>
     <use x="1494.550781" xlink:href="#DejaVuSans-116"/>
     <use x="1533.759766" xlink:href="#DejaVuSans-114"/>
     <use x="1574.873047" xlink:href="#DejaVuSans-97"/>
     <use x="1636.152344" xlink:href="#DejaVuSans-104"/>
     <use x="1699.53125" xlink:href="#DejaVuSans-121"/>
     <use x="1758.710938" xlink:href="#DejaVuSans-100"/>
     <use x="1822.1875" xlink:href="#DejaVuSans-114"/>
     <use x="1863.269531" xlink:href="#DejaVuSans-111"/>
     <use x="1924.451172" xlink:href="#DejaVuSans-112"/>
     <use x="1987.927734" xlink:href="#DejaVuSans-97"/>
     <use x="2049.207031" xlink:href="#DejaVuSans-112"/>
     <use x="2112.683594" xlink:href="#DejaVuSans-97"/>
     <use x="2173.962891" xlink:href="#DejaVuSans-118"/>
     <use x="2233.142578" xlink:href="#DejaVuSans-101"/>
     <use x="2294.666016" xlink:href="#DejaVuSans-114"/>
     <use x="2335.779297" xlink:href="#DejaVuSans-105"/>
     <use x="2363.5625" xlink:href="#DejaVuSans-110"/>
     <use x="2426.941406" xlink:href="#DejaVuSans-101"/>
    </g>
   </g>
   <g id="legend_1">
    <g id="patch_5">
     <path d="M 91.5 176.886356 
L 178.729688 176.886356 
Q 181.729688 176.886356 181.729688 173.886356 
L 181.729688 67.3512 
Q 181.729688 64.3512 178.729688 64.3512 
L 91.5 64.3512 
Q 88.5 64.3512 88.5 67.3512 
L 88.5 173.886356 
Q 88.5 176.886356 91.5 176.886356 
z
" style="fill:#ffffff;opacity:0.8;stroke:#cccccc;stroke-linejoin:miter;"/>
    </g>
    <g id="line2d_69">
     <path d="M 94.5 76.205887 
L 124.5 76.205887 
" style="fill:none;stroke:#0099ff;stroke-linecap:square;stroke-width:1.5;"/>
    </g>
    <g id="line2d_70"/>
    <g id="text_16">
     <!-- WT -->
     <defs>
      <path d="M 75.296875 0 
L 64.9375 0 
L 47.859375 60.84375 
L 31.25 0 
L 20.90625 0 
L 1.953125 74.03125 
L 12.5 74.03125 
L 26.46875 13.875 
L 42.875 74.03125 
L 53.03125 74.03125 
L 69.921875 13.875 
L 83.5 74.03125 
L 94.046875 74.03125 
z
" id="Gargi-87"/>
      <path d="M 38.671875 65.71875 
L 38.671875 0 
L 29.203125 0 
L 29.203125 65.71875 
L 4.890625 65.71875 
L 4.890625 74.03125 
L 62.984375 74.03125 
L 62.984375 65.71875 
z
" id="Gargi-84"/>
     </defs>
     <g transform="translate(136.5 81.455887)scale(0.15 -0.15)">
      <use xlink:href="#Gargi-87"/>
      <use x="95.996094" xlink:href="#Gargi-84"/>
     </g>
    </g>
    <g id="line2d_71">
     <path d="M 94.5 97.812919 
L 124.5 97.812919 
" style="fill:none;stroke:#3372cc;stroke-linecap:square;stroke-width:1.5;"/>
    </g>
    <g id="line2d_72"/>
    <g id="text_17">
     <!-- THP1 -->
     <defs>
      <path d="M 52.4375 33.6875 
L 14.453125 33.6875 
L 14.453125 0 
L 4.890625 0 
L 4.890625 74.03125 
L 14.359375 74.03125 
L 14.359375 42.09375 
L 52.4375 42.09375 
L 52.4375 74.03125 
L 61.921875 74.03125 
L 61.921875 0 
L 52.4375 0 
z
" id="Gargi-72"/>
      <path d="M 14.265625 39.75 
L 33.984375 39.75 
Q 44.34375 39.75 47.359375 47.265625 
Q 48.4375 49.703125 48.4375 52.734375 
Q 48.4375 61.8125 40.4375 64.65625 
Q 37.59375 65.71875 33.984375 65.71875 
L 14.265625 65.71875 
z
M 14.265625 31.34375 
L 14.265625 0 
L 4.890625 0 
L 4.890625 74.03125 
L 35.453125 74.03125 
Q 51.765625 74.03125 56.546875 62.015625 
Q 58.296875 57.90625 58.296875 52.34375 
Q 58.296875 42.484375 51.859375 36.625 
Q 46 31.34375 37.59375 31.34375 
z
" id="Gargi-80"/>
      <path d="M 22.75 51.265625 
L 6.84375 51.265625 
L 6.84375 57.71875 
Q 17.1875 58.984375 20.21875 61.328125 
Q 23.34375 63.578125 25.390625 70.796875 
L 25.875 71.96875 
L 31.734375 71.96875 
L 31.734375 0 
L 22.75 0 
z
" id="Gargi-49"/>
     </defs>
     <g transform="translate(136.5 103.062919)scale(0.15 -0.15)">
      <use xlink:href="#Gargi-84"/>
      <use x="67.871094" xlink:href="#Gargi-72"/>
      <use x="134.667969" xlink:href="#Gargi-80"/>
      <use x="197.851562" xlink:href="#Gargi-49"/>
     </g>
    </g>
    <g id="line2d_73">
     <path d="M 94.5 119.41995 
L 124.5 119.41995 
" style="fill:none;stroke:#674c9a;stroke-linecap:square;stroke-width:1.5;"/>
    </g>
    <g id="line2d_74"/>
    <g id="text_18">
     <!-- THP2 -->
     <defs>
      <path d="M 54.78125 8.796875 
L 54.78125 0 
L 6.84375 0 
Q 6.84375 12.984375 12.703125 19.828125 
Q 17.96875 25.984375 27.046875 31.15625 
L 36.421875 36.421875 
Q 46.1875 42.09375 46.1875 50.6875 
Q 46.1875 58.015625 40.046875 61.921875 
Q 36.53125 64.15625 31.9375 64.15625 
Q 24.3125 64.15625 20.3125 58.40625 
L 19.53125 57.234375 
Q 17.484375 53.90625 17.484375 47.078125 
L 8.5 47.078125 
Q 8.5 57.234375 12.40625 62.703125 
Q 19.046875 71.96875 32.234375 71.96875 
Q 42.28125 71.96875 48.640625 66.3125 
Q 55.28125 60.25 55.28125 50.875 
Q 55.28125 37.5 40.046875 29.109375 
L 29.890625 23.640625 
Q 20.703125 18.265625 18.265625 13.28125 
Q 17.28125 11.234375 16.890625 8.796875 
z
" id="Gargi-50"/>
     </defs>
     <g transform="translate(136.5 124.66995)scale(0.15 -0.15)">
      <use xlink:href="#Gargi-84"/>
      <use x="67.871094" xlink:href="#Gargi-72"/>
      <use x="134.667969" xlink:href="#Gargi-80"/>
      <use x="197.851562" xlink:href="#Gargi-50"/>
     </g>
    </g>
    <g id="line2d_75">
     <path d="M 94.5 141.026981 
L 124.5 141.026981 
" style="fill:none;stroke:#9a2667;stroke-linecap:square;stroke-width:1.5;"/>
    </g>
    <g id="line2d_76"/>
    <g id="text_19">
     <!-- THP3 -->
     <defs>
      <path d="M 26.078125 35.25 
L 26.078125 42.78125 
Q 34.578125 42.78125 37.984375 44.34375 
Q 43.75 46.96875 43.75 54 
Q 43.75 62.703125 36.625 65.4375 
Q 34.1875 66.3125 31.0625 66.3125 
Q 23.046875 66.3125 19.4375 60.84375 
Q 19.140625 60.359375 18.953125 59.96875 
Q 17.28125 57.03125 17.28125 50.875 
L 8.40625 50.875 
Q 8.40625 74.03125 27.640625 74.03125 
Q 28.71875 74.03125 30.953125 74.125 
Q 31.734375 74.125 32.421875 74.125 
Q 44.734375 74.125 50.390625 64.65625 
Q 52.828125 60.453125 52.828125 54.390625 
Q 52.828125 43.359375 42.78125 39.453125 
Q 52.25 36.140625 54.296875 28.421875 
Q 54.984375 25.78125 54.984375 22.265625 
Q 54.984375 9.859375 45.40625 3.71875 
Q 39.265625 -0.203125 30.671875 -0.203125 
Q 15.625 -0.203125 10.0625 10.25 
Q 6.84375 15.140625 6.84375 23.046875 
L 15.828125 23.046875 
Q 15.828125 9.671875 27.25 8.015625 
Q 29.296875 7.71875 30.953125 7.71875 
Q 41.5 7.71875 44.734375 15.71875 
Q 45.90625 18.5625 45.90625 22.171875 
Q 45.90625 35.25 30.953125 35.25 
L 27.15625 35.25 
z
" id="Gargi-51"/>
     </defs>
     <g transform="translate(136.5 146.276981)scale(0.15 -0.15)">
      <use xlink:href="#Gargi-84"/>
      <use x="67.871094" xlink:href="#Gargi-72"/>
      <use x="134.667969" xlink:href="#Gargi-80"/>
      <use x="197.851562" xlink:href="#Gargi-51"/>
     </g>
    </g>
    <g id="line2d_77">
     <path d="M 94.5 162.634012 
L 124.5 162.634012 
" style="fill:none;stroke:#ce0035;stroke-linecap:square;stroke-width:1.5;"/>
    </g>
    <g id="line2d_78"/>
    <g id="text_20">
     <!-- THP4 -->
     <defs>
      <path d="M 37.203125 25.296875 
L 37.203125 56.734375 
L 14.65625 25.296875 
z
M 37.203125 17.28125 
L 6.84375 17.28125 
L 6.84375 26.765625 
L 39.546875 71.96875 
L 46.1875 71.96875 
L 46.1875 25.296875 
L 56.84375 25.296875 
L 56.84375 17.28125 
L 46.1875 17.28125 
L 46.1875 0 
L 37.203125 0 
z
" id="Gargi-52"/>
     </defs>
     <g transform="translate(136.5 167.884012)scale(0.15 -0.15)">
      <use xlink:href="#Gargi-84"/>
      <use x="67.871094" xlink:href="#Gargi-72"/>
      <use x="134.667969" xlink:href="#Gargi-80"/>
      <use x="197.851562" xlink:href="#Gargi-52"/>
     </g>
    </g>
   </g>
  </g>
 </g>
 <defs>
  <clipPath id="p41d97f6f37">
   <rect height="364.7952" width="502.2" x="81" y="56.8512"/>
  </clipPath>
 </defs>
</svg>
