<?xml version="1.0" encoding="utf-8" standalone="no"?>
<!DOCTYPE svg PUBLIC "-//W3C//DTD SVG 1.1//EN"
  "http://www.w3.org/Graphics/SVG/1.1/DTD/svg11.dtd">
<!-- Created with matplotlib (https://matplotlib.org/) -->
<svg height="473.76pt" version="1.1" viewBox="0 0 648 473.76" width="648pt" xmlns="http://www.w3.org/2000/svg" xmlns:xlink="http://www.w3.org/1999/xlink">
 <defs>
  <style type="text/css">
*{stroke-linecap:butt;stroke-linejoin:round;}
  </style>
 </defs>
 <g id="figure_1">
  <g id="patch_1">
   <path d="M 0 473.76 
L 648 473.76 
L 648 0 
L 0 0 
z
" style="fill:#ffffff;"/>
  </g>
  <g id="axes_1">
   <g id="patch_2">
    <path d="M 81 421.6464 
L 583.2 421.6464 
L 583.2 56.8512 
L 81 56.8512 
z
" style="fill:#ffffff;"/>
   </g>
   <g id="matplotlib.axis_1">
    <g id="xtick_1">
     <g id="line2d_1">
      <defs>
       <path d="M 0 0 
L 0 2 
" id="mb460e9f899" style="stroke:#000000;"/>
      </defs>
      <g>
       <use style="stroke:#000000;" x="121.013555" xlink:href="#mb460e9f899" y="421.6464"/>
      </g>
     </g>
     <g id="text_1">
      <!-- $\mathdefault{10^{-1}}$ -->
      <defs>
       <path d="M 22.75 51.265625 
L 6.84375 51.265625 
L 6.84375 57.71875 
Q 17.1875 58.984375 20.21875 61.328125 
Q 23.34375 63.578125 25.390625 70.796875 
L 25.875 71.96875 
L 31.734375 71.96875 
L 31.734375 0 
L 22.75 0 
z
" id="Gargi-49"/>
       <path d="M 41.890625 37.5 
Q 41.890625 66.5 27.4375 66.5 
Q 12.984375 66.5 12.984375 37.203125 
Q 12.984375 7.515625 27.25 7.515625 
Q 39.265625 7.515625 41.3125 27.046875 
Q 41.890625 31.734375 41.890625 37.5 
z
M 27.4375 74.421875 
Q 37.890625 74.421875 44.046875 66.5 
Q 50.984375 56.9375 50.984375 36.625 
Q 50.984375 9.1875 37.015625 2.15625 
Q 32.71875 0.09375 27.4375 0.09375 
Q 9.578125 0.09375 5.171875 22.078125 
Q 3.90625 28.71875 3.90625 37.3125 
Q 3.90625 57.125 10.84375 66.5 
Q 16.40625 74.421875 25.984375 74.421875 
z
" id="Gargi-48"/>
       <path d="M 52.203125 4 
L 47.40625 -1 
L 37.59375 8.796875 
Q 31.703125 4.703125 25.09375 4.703125 
Q 18.296875 4.703125 12.40625 8.796875 
L 2.796875 -1 
L -2.203125 4 
L 7.59375 13.59375 
Q 3.5 19.5 3.5 26.203125 
Q 3.5 33.09375 7.59375 38.796875 
L -2.203125 48.59375 
L 2.796875 53.40625 
L 12.40625 43.796875 
Q 18.5 47.703125 25.09375 47.703125 
Q 32 47.703125 37.59375 43.796875 
L 47.40625 53.40625 
L 52.203125 48.59375 
L 42.59375 38.796875 
Q 46.5 33 46.5 26.296875 
Q 46.5 19.703125 42.59375 13.59375 
z
M 39.703125 26.40625 
Q 39.703125 32.59375 35.390625 36.9375 
Q 31.09375 41.296875 24.90625 41.296875 
Q 18.90625 41.296875 14.59375 36.890625 
Q 10.296875 32.5 10.296875 26.296875 
Q 10.296875 20 14.640625 15.546875 
Q 19 11.09375 25.09375 11.09375 
Q 31.296875 11.09375 35.5 15.546875 
Q 39.703125 20 39.703125 26.40625 
z
" id="STIXGeneral-Regular-164"/>
      </defs>
      <g transform="translate(106.973555 440.472025)scale(0.18 -0.18)">
       <use transform="translate(0 0.36875)" xlink:href="#Gargi-49"/>
       <use transform="translate(36.621094 0.36875)" xlink:href="#Gargi-48"/>
       <use transform="translate(92.435234 37.621875)scale(0.7)" xlink:href="#STIXGeneral-Regular-164"/>
       <use transform="translate(127.435224 37.621875)scale(0.7)" xlink:href="#Gargi-49"/>
      </g>
     </g>
    </g>
    <g id="xtick_2">
     <g id="line2d_2">
      <g>
       <use style="stroke:#000000;" x="253.935709" xlink:href="#mb460e9f899" y="421.6464"/>
      </g>
     </g>
     <g id="text_2">
      <!-- $\mathdefault{10^{0}}$ -->
      <g transform="translate(241.875709 440.472025)scale(0.18 -0.18)">
       <use transform="translate(0 0.651563)" xlink:href="#Gargi-49"/>
       <use transform="translate(36.621094 0.651563)" xlink:href="#Gargi-48"/>
       <use transform="translate(92.435234 37.904688)scale(0.7)" xlink:href="#Gargi-48"/>
      </g>
     </g>
    </g>
    <g id="xtick_3">
     <g id="line2d_3">
      <g>
       <use style="stroke:#000000;" x="386.857862" xlink:href="#mb460e9f899" y="421.6464"/>
      </g>
     </g>
     <g id="text_3">
      <!-- $\mathdefault{10^{1}}$ -->
      <g transform="translate(375.967862 440.472025)scale(0.18 -0.18)">
       <use transform="translate(0 0.36875)" xlink:href="#Gargi-49"/>
       <use transform="translate(36.621094 0.36875)" xlink:href="#Gargi-48"/>
       <use transform="translate(92.435234 37.621875)scale(0.7)" xlink:href="#Gargi-49"/>
      </g>
     </g>
    </g>
    <g id="xtick_4">
     <g id="line2d_4">
      <g>
       <use style="stroke:#000000;" x="519.780015" xlink:href="#mb460e9f899" y="421.6464"/>
      </g>
     </g>
     <g id="text_4">
      <!-- $\mathdefault{10^{2}}$ -->
      <defs>
       <path d="M 54.78125 8.796875 
L 54.78125 0 
L 6.84375 0 
Q 6.84375 12.984375 12.703125 19.828125 
Q 17.96875 25.984375 27.046875 31.15625 
L 36.421875 36.421875 
Q 46.1875 42.09375 46.1875 50.6875 
Q 46.1875 58.015625 40.046875 61.921875 
Q 36.53125 64.15625 31.9375 64.15625 
Q 24.3125 64.15625 20.3125 58.40625 
L 19.53125 57.234375 
Q 17.484375 53.90625 17.484375 47.078125 
L 8.5 47.078125 
Q 8.5 57.234375 12.40625 62.703125 
Q 19.046875 71.96875 32.234375 71.96875 
Q 42.28125 71.96875 48.640625 66.3125 
Q 55.28125 60.25 55.28125 50.875 
Q 55.28125 37.5 40.046875 29.109375 
L 29.890625 23.640625 
Q 20.703125 18.265625 18.265625 13.28125 
Q 17.28125 11.234375 16.890625 8.796875 
z
" id="Gargi-50"/>
      </defs>
      <g transform="translate(507.270015 440.472025)scale(0.18 -0.18)">
       <use transform="translate(0 0.36875)" xlink:href="#Gargi-49"/>
       <use transform="translate(36.621094 0.36875)" xlink:href="#Gargi-48"/>
       <use transform="translate(92.435234 37.621875)scale(0.7)" xlink:href="#Gargi-50"/>
      </g>
     </g>
    </g>
    <g id="xtick_5">
     <g id="line2d_5">
      <defs>
       <path d="M 0 0 
L 0 2 
" id="m2e66ddea92" style="stroke:#000000;stroke-width:0.6;"/>
      </defs>
      <g>
       <use style="stroke:#000000;stroke-width:0.6;" x="81" xlink:href="#m2e66ddea92" y="421.6464"/>
      </g>
     </g>
    </g>
    <g id="xtick_6">
     <g id="line2d_6">
      <g>
       <use style="stroke:#000000;stroke-width:0.6;" x="91.524942" xlink:href="#m2e66ddea92" y="421.6464"/>
      </g>
     </g>
    </g>
    <g id="xtick_7">
     <g id="line2d_7">
      <g>
       <use style="stroke:#000000;stroke-width:0.6;" x="100.423653" xlink:href="#m2e66ddea92" y="421.6464"/>
      </g>
     </g>
    </g>
    <g id="xtick_8">
     <g id="line2d_8">
      <g>
       <use style="stroke:#000000;stroke-width:0.6;" x="108.132068" xlink:href="#m2e66ddea92" y="421.6464"/>
      </g>
     </g>
    </g>
    <g id="xtick_9">
     <g id="line2d_9">
      <g>
       <use style="stroke:#000000;stroke-width:0.6;" x="114.931371" xlink:href="#m2e66ddea92" y="421.6464"/>
      </g>
     </g>
    </g>
    <g id="xtick_10">
     <g id="line2d_10">
      <g>
       <use style="stroke:#000000;stroke-width:0.6;" x="161.027111" xlink:href="#m2e66ddea92" y="421.6464"/>
      </g>
     </g>
    </g>
    <g id="xtick_11">
     <g id="line2d_11">
      <g>
       <use style="stroke:#000000;stroke-width:0.6;" x="184.43354" xlink:href="#m2e66ddea92" y="421.6464"/>
      </g>
     </g>
    </g>
    <g id="xtick_12">
     <g id="line2d_12">
      <g>
       <use style="stroke:#000000;stroke-width:0.6;" x="201.040666" xlink:href="#m2e66ddea92" y="421.6464"/>
      </g>
     </g>
    </g>
    <g id="xtick_13">
     <g id="line2d_13">
      <g>
       <use style="stroke:#000000;stroke-width:0.6;" x="213.922153" xlink:href="#m2e66ddea92" y="421.6464"/>
      </g>
     </g>
    </g>
    <g id="xtick_14">
     <g id="line2d_14">
      <g>
       <use style="stroke:#000000;stroke-width:0.6;" x="224.447095" xlink:href="#m2e66ddea92" y="421.6464"/>
      </g>
     </g>
    </g>
    <g id="xtick_15">
     <g id="line2d_15">
      <g>
       <use style="stroke:#000000;stroke-width:0.6;" x="233.345807" xlink:href="#m2e66ddea92" y="421.6464"/>
      </g>
     </g>
    </g>
    <g id="xtick_16">
     <g id="line2d_16">
      <g>
       <use style="stroke:#000000;stroke-width:0.6;" x="241.054221" xlink:href="#m2e66ddea92" y="421.6464"/>
      </g>
     </g>
    </g>
    <g id="xtick_17">
     <g id="line2d_17">
      <g>
       <use style="stroke:#000000;stroke-width:0.6;" x="247.853524" xlink:href="#m2e66ddea92" y="421.6464"/>
      </g>
     </g>
    </g>
    <g id="xtick_18">
     <g id="line2d_18">
      <g>
       <use style="stroke:#000000;stroke-width:0.6;" x="293.949264" xlink:href="#m2e66ddea92" y="421.6464"/>
      </g>
     </g>
    </g>
    <g id="xtick_19">
     <g id="line2d_19">
      <g>
       <use style="stroke:#000000;stroke-width:0.6;" x="317.355693" xlink:href="#m2e66ddea92" y="421.6464"/>
      </g>
     </g>
    </g>
    <g id="xtick_20">
     <g id="line2d_20">
      <g>
       <use style="stroke:#000000;stroke-width:0.6;" x="333.962819" xlink:href="#m2e66ddea92" y="421.6464"/>
      </g>
     </g>
    </g>
    <g id="xtick_21">
     <g id="line2d_21">
      <g>
       <use style="stroke:#000000;stroke-width:0.6;" x="346.844307" xlink:href="#m2e66ddea92" y="421.6464"/>
      </g>
     </g>
    </g>
    <g id="xtick_22">
     <g id="line2d_22">
      <g>
       <use style="stroke:#000000;stroke-width:0.6;" x="357.369248" xlink:href="#m2e66ddea92" y="421.6464"/>
      </g>
     </g>
    </g>
    <g id="xtick_23">
     <g id="line2d_23">
      <g>
       <use style="stroke:#000000;stroke-width:0.6;" x="366.26796" xlink:href="#m2e66ddea92" y="421.6464"/>
      </g>
     </g>
    </g>
    <g id="xtick_24">
     <g id="line2d_24">
      <g>
       <use style="stroke:#000000;stroke-width:0.6;" x="373.976374" xlink:href="#m2e66ddea92" y="421.6464"/>
      </g>
     </g>
    </g>
    <g id="xtick_25">
     <g id="line2d_25">
      <g>
       <use style="stroke:#000000;stroke-width:0.6;" x="380.775678" xlink:href="#m2e66ddea92" y="421.6464"/>
      </g>
     </g>
    </g>
    <g id="xtick_26">
     <g id="line2d_26">
      <g>
       <use style="stroke:#000000;stroke-width:0.6;" x="426.871417" xlink:href="#m2e66ddea92" y="421.6464"/>
      </g>
     </g>
    </g>
    <g id="xtick_27">
     <g id="line2d_27">
      <g>
       <use style="stroke:#000000;stroke-width:0.6;" x="450.277847" xlink:href="#m2e66ddea92" y="421.6464"/>
      </g>
     </g>
    </g>
    <g id="xtick_28">
     <g id="line2d_28">
      <g>
       <use style="stroke:#000000;stroke-width:0.6;" x="466.884973" xlink:href="#m2e66ddea92" y="421.6464"/>
      </g>
     </g>
    </g>
    <g id="xtick_29">
     <g id="line2d_29">
      <g>
       <use style="stroke:#000000;stroke-width:0.6;" x="479.76646" xlink:href="#m2e66ddea92" y="421.6464"/>
      </g>
     </g>
    </g>
    <g id="xtick_30">
     <g id="line2d_30">
      <g>
       <use style="stroke:#000000;stroke-width:0.6;" x="490.291402" xlink:href="#m2e66ddea92" y="421.6464"/>
      </g>
     </g>
    </g>
    <g id="xtick_31">
     <g id="line2d_31">
      <g>
       <use style="stroke:#000000;stroke-width:0.6;" x="499.190113" xlink:href="#m2e66ddea92" y="421.6464"/>
      </g>
     </g>
    </g>
    <g id="xtick_32">
     <g id="line2d_32">
      <g>
       <use style="stroke:#000000;stroke-width:0.6;" x="506.898528" xlink:href="#m2e66ddea92" y="421.6464"/>
      </g>
     </g>
    </g>
    <g id="xtick_33">
     <g id="line2d_33">
      <g>
       <use style="stroke:#000000;stroke-width:0.6;" x="513.697831" xlink:href="#m2e66ddea92" y="421.6464"/>
      </g>
     </g>
    </g>
    <g id="xtick_34">
     <g id="line2d_34">
      <g>
       <use style="stroke:#000000;stroke-width:0.6;" x="559.793571" xlink:href="#m2e66ddea92" y="421.6464"/>
      </g>
     </g>
    </g>
    <g id="xtick_35">
     <g id="line2d_35">
      <g>
       <use style="stroke:#000000;stroke-width:0.6;" x="583.2" xlink:href="#m2e66ddea92" y="421.6464"/>
      </g>
     </g>
    </g>
    <g id="text_5">
     <!-- Glaucine (uM) -->
     <defs>
      <path d="M 70.40625 40.828125 
L 70.40625 2.25 
L 64.453125 2.25 
L 62.109375 11.921875 
Q 51.5625 0.296875 36.8125 0.296875 
Q 21.390625 0.296875 11.71875 11.71875 
Q 2.9375 22.078125 2.9375 38.09375 
Q 2.9375 55.46875 13.28125 66.609375 
Q 14.75 68.171875 16.3125 69.4375 
Q 25 76.375 38.484375 76.375 
Q 56.734375 76.375 64.84375 64.65625 
Q 68.171875 59.859375 69.4375 53.125 
L 59.765625 53.125 
Q 57.625 62.796875 48.046875 66.5 
Q 43.65625 68.171875 38.375 68.171875 
Q 24.90625 68.0625 17.78125 57.8125 
Q 12.3125 50.09375 12.3125 38.578125 
Q 12.3125 26.5625 18.5625 17.671875 
Q 19.140625 16.796875 20.21875 15.828125 
Q 28.21875 8.40625 38.578125 8.40625 
Q 38.765625 8.40625 38.875 8.40625 
Q 50.203125 8.40625 57.125 16.5 
Q 62.109375 22.359375 62.109375 30.765625 
L 62.109375 32.71875 
L 39.546875 32.71875 
L 39.546875 40.828125 
z
" id="Gargi-71"/>
      <path d="M 15.328125 74.03125 
L 15.328125 0 
L 6.84375 0 
L 6.84375 74.03125 
z
" id="Gargi-108"/>
      <path d="M 38.1875 19.140625 
L 38.1875 28.609375 
Q 34.859375 27.15625 26.5625 25.984375 
Q 25.6875 25.875 24.515625 25.6875 
Q 13.765625 24.21875 12.109375 18.65625 
Q 11.71875 17.484375 11.71875 15.921875 
Q 11.71875 9.375 18.5625 7.8125 
Q 20.125 7.421875 22.171875 7.421875 
Q 29.203125 7.421875 34.765625 12.203125 
Q 38.1875 15.140625 38.1875 19.140625 
z
M 52.9375 7.328125 
L 52.9375 0.875 
Q 49.421875 0 47.171875 0 
Q 39.9375 0 38.671875 6.453125 
L 38.484375 7.8125 
Q 29.59375 0 20.40625 0 
Q 9.1875 0 4.78125 7.625 
Q 2.9375 11.140625 2.9375 15.71875 
Q 2.9375 26.078125 12.203125 29.984375 
Q 15.921875 31.453125 25.484375 32.71875 
L 29.296875 33.203125 
Q 36.71875 34.1875 37.796875 37.109375 
Q 38.1875 37.890625 38.1875 39.0625 
L 38.1875 41.3125 
Q 38.1875 47.859375 29.890625 49.03125 
Q 28.21875 49.21875 26.265625 49.21875 
Q 15.828125 49.21875 14.0625 41.609375 
Q 13.875 40.71875 13.765625 39.84375 
L 5.28125 39.84375 
Q 5.5625 47.171875 8.890625 50.875 
Q 14.453125 57.125 26.5625 57.125 
Q 44.4375 57.125 46.390625 45.3125 
Q 46.578125 43.953125 46.578125 42.578125 
L 46.578125 11.328125 
Q 46.578125 7.125 51.171875 7.125 
Q 52.046875 7.125 52.9375 7.328125 
z
" id="Gargi-97"/>
      <path d="M 47.171875 2.25 
L 39.546875 2.25 
L 39.546875 9.671875 
Q 33.890625 1.65625 26.375 0.296875 
Q 24.3125 -0.09375 21.78125 -0.09375 
Q 10.9375 -0.09375 6.734375 7.03125 
Q 4.890625 10.25 4.890625 14.453125 
L 4.890625 55.46875 
L 13.28125 55.46875 
L 13.28125 17.78125 
Q 13.28125 10.640625 19.234375 8.203125 
Q 21.484375 7.328125 24.21875 7.328125 
Q 32.90625 7.328125 36.71875 15.234375 
Q 38.765625 19.53125 38.765625 25.296875 
L 38.765625 55.46875 
L 47.171875 55.46875 
z
" id="Gargi-117"/>
      <path d="M 47.65625 37.796875 
L 39.0625 37.796875 
Q 37.796875 47.65625 29.296875 49.125 
Q 27.9375 49.3125 26.5625 49.3125 
Q 17 49.3125 13.375 39.15625 
Q 11.8125 34.578125 11.8125 28.125 
Q 11.8125 14.265625 19.828125 9.671875 
Q 22.75 7.90625 26.765625 7.90625 
Q 37.59375 7.90625 39.75 20.703125 
L 48.25 20.703125 
Q 48.25 6.84375 36.53125 2.15625 
Q 32.234375 0.09375 26.5625 0.09375 
Q 13.375 0.09375 7.125 10.75 
Q 2.9375 17.875 2.9375 28.125 
Q 2.9375 44.4375 12.3125 52.25 
Q 18.265625 57.234375 26.65625 57.234375 
Q 37.40625 57.234375 43.265625 50.296875 
L 44.046875 49.21875 
Q 47.078125 44.921875 47.65625 37.796875 
z
" id="Gargi-99"/>
      <path d="M 15.328125 74.03125 
L 15.328125 63.375 
L 6.84375 63.375 
L 6.84375 74.03125 
z
M 15.328125 53.21875 
L 15.328125 0 
L 6.9375 0 
L 6.9375 53.21875 
z
" id="Gargi-105"/>
      <path d="M 4.890625 53.21875 
L 12.703125 53.21875 
L 12.703125 44.234375 
Q 18.171875 52.9375 25.875 54.296875 
Q 27.9375 54.78125 30.375 54.78125 
Q 41.015625 54.78125 45.3125 47.65625 
Q 47.171875 44.34375 47.171875 40.234375 
L 47.171875 0 
L 38.765625 0 
L 38.765625 36.921875 
Q 38.765625 43.953125 32.8125 46.390625 
Q 30.5625 47.359375 27.828125 47.359375 
Q 19.234375 47.359375 15.53125 39.546875 
Q 13.375 35.25 13.375 29.390625 
L 13.375 0 
L 4.890625 0 
z
" id="Gargi-110"/>
      <path d="M 11.921875 32.90625 
L 41.796875 32.90625 
Q 41.890625 33.109375 41.890625 33.5 
Q 41.890625 41.703125 35.9375 46.1875 
Q 32.03125 49.125 27.15625 49.125 
Q 18.5625 49.125 14.359375 41.5 
Q 12.3125 37.890625 11.921875 32.90625 
z
M 50.984375 25.984375 
L 11.71875 25.984375 
Q 11.8125 18.65625 14.546875 14.65625 
Q 18.953125 7.71875 27.34375 7.71875 
Q 37.703125 7.71875 41.3125 18.359375 
L 49.8125 18.359375 
Q 47.5625 6.15625 37.015625 1.765625 
Q 32.515625 -0.09375 27.046875 -0.09375 
Q 13.28125 -0.09375 6.84375 11.03125 
Q 2.9375 17.96875 2.9375 28.125 
Q 2.9375 44.234375 12.40625 52.046875 
Q 18.5625 57.03125 27.25 57.03125 
Q 38.96875 57.03125 45.515625 48.640625 
Q 47.5625 46.09375 48.828125 42.96875 
Q 50.984375 37.40625 50.984375 25.984375 
z
" id="Gargi-101"/>
      <path id="Gargi-32"/>
      <path d="M 23.921875 74.03125 
L 29.59375 74.03125 
Q 15.71875 55.375 15.71875 30.46875 
Q 15.71875 28.328125 15.625 26.265625 
Q 15.53125 24.90625 15.53125 23.53125 
Q 15.53125 4.59375 28.03125 -18.953125 
Q 28.8125 -20.515625 29.59375 -21.484375 
L 23.921875 -21.484375 
Q 12.5 -6.546875 8.6875 12.984375 
Q 7.421875 19.921875 7.421875 26.265625 
Q 7.421875 44.53125 16.890625 62.703125 
Q 20.015625 68.84375 23.921875 74.03125 
z
" id="Gargi-40"/>
      <path d="M 44.828125 0 
L 34.859375 0 
L 13.875 62.015625 
L 13.875 0 
L 4.890625 0 
L 4.890625 74.03125 
L 17.96875 74.03125 
L 39.9375 9.578125 
L 61.421875 74.03125 
L 74.515625 74.03125 
L 74.515625 0 
L 65.625 0 
L 65.625 62.015625 
z
" id="Gargi-77"/>
      <path d="M 9.46875 -21.484375 
L 3.90625 -21.484375 
Q 17.78125 -1.078125 17.78125 22.078125 
Q 17.78125 23.140625 17.78125 24.125 
Q 17.78125 25.203125 17.78125 26.171875 
Q 17.78125 48.046875 5.375 71.484375 
Q 4.5 73.140625 3.90625 74.03125 
L 9.46875 74.03125 
Q 20.90625 58.984375 24.703125 39.546875 
Q 25.984375 32.625 25.984375 26.171875 
Q 25.984375 8.015625 16.609375 -10.15625 
Q 13.375 -16.3125 9.46875 -21.484375 
z
" id="Gargi-41"/>
     </defs>
     <g transform="translate(267.06875 463.349837)scale(0.2 -0.2)">
      <use xlink:href="#Gargi-71"/>
      <use x="75.292969" xlink:href="#Gargi-108"/>
      <use x="97.460938" xlink:href="#Gargi-97"/>
      <use x="155.273438" xlink:href="#Gargi-117"/>
      <use x="207.324219" xlink:href="#Gargi-99"/>
      <use x="258.496094" xlink:href="#Gargi-105"/>
      <use x="280.664062" xlink:href="#Gargi-110"/>
      <use x="332.714844" xlink:href="#Gargi-101"/>
      <use x="388.574219" xlink:href="#Gargi-32"/>
      <use x="412.988281" xlink:href="#Gargi-40"/>
      <use x="465.917969" xlink:href="#Gargi-117"/>
      <use x="517.96875" xlink:href="#Gargi-77"/>
      <use x="597.363281" xlink:href="#Gargi-41"/>
     </g>
    </g>
   </g>
   <g id="matplotlib.axis_2">
    <g id="ytick_1">
     <g id="line2d_36">
      <defs>
       <path d="M 0 0 
L -2 0 
" id="m61d1ec1c58" style="stroke:#000000;"/>
      </defs>
      <g>
       <use style="stroke:#000000;" x="81" xlink:href="#m61d1ec1c58" y="421.6464"/>
      </g>
     </g>
     <g id="text_6">
      <!-- 0 -->
      <g transform="translate(65.619687 428.309213)scale(0.18 -0.18)">
       <use xlink:href="#Gargi-48"/>
      </g>
     </g>
    </g>
    <g id="ytick_2">
     <g id="line2d_37">
      <g>
       <use style="stroke:#000000;" x="81" xlink:href="#m61d1ec1c58" y="373.00704"/>
      </g>
     </g>
     <g id="text_7">
      <!-- 1 -->
      <g transform="translate(68.9075 379.669852)scale(0.18 -0.18)">
       <use xlink:href="#Gargi-49"/>
      </g>
     </g>
    </g>
    <g id="ytick_3">
     <g id="line2d_38">
      <g>
       <use style="stroke:#000000;" x="81" xlink:href="#m61d1ec1c58" y="324.36768"/>
      </g>
     </g>
     <g id="text_8">
      <!-- 2 -->
      <g transform="translate(64.320312 331.030493)scale(0.18 -0.18)">
       <use xlink:href="#Gargi-50"/>
      </g>
     </g>
    </g>
    <g id="ytick_4">
     <g id="line2d_39">
      <g>
       <use style="stroke:#000000;" x="81" xlink:href="#m61d1ec1c58" y="275.72832"/>
      </g>
     </g>
     <g id="text_9">
      <!-- 3 -->
      <defs>
       <path d="M 26.078125 35.25 
L 26.078125 42.78125 
Q 34.578125 42.78125 37.984375 44.34375 
Q 43.75 46.96875 43.75 54 
Q 43.75 62.703125 36.625 65.4375 
Q 34.1875 66.3125 31.0625 66.3125 
Q 23.046875 66.3125 19.4375 60.84375 
Q 19.140625 60.359375 18.953125 59.96875 
Q 17.28125 57.03125 17.28125 50.875 
L 8.40625 50.875 
Q 8.40625 74.03125 27.640625 74.03125 
Q 28.71875 74.03125 30.953125 74.125 
Q 31.734375 74.125 32.421875 74.125 
Q 44.734375 74.125 50.390625 64.65625 
Q 52.828125 60.453125 52.828125 54.390625 
Q 52.828125 43.359375 42.78125 39.453125 
Q 52.25 36.140625 54.296875 28.421875 
Q 54.984375 25.78125 54.984375 22.265625 
Q 54.984375 9.859375 45.40625 3.71875 
Q 39.265625 -0.203125 30.671875 -0.203125 
Q 15.625 -0.203125 10.0625 10.25 
Q 6.84375 15.140625 6.84375 23.046875 
L 15.828125 23.046875 
Q 15.828125 9.671875 27.25 8.015625 
Q 29.296875 7.71875 30.953125 7.71875 
Q 41.5 7.71875 44.734375 15.71875 
Q 45.90625 18.5625 45.90625 22.171875 
Q 45.90625 35.25 30.953125 35.25 
L 27.15625 35.25 
z
" id="Gargi-51"/>
      </defs>
      <g transform="translate(64.725313 282.391133)scale(0.18 -0.18)">
       <use xlink:href="#Gargi-51"/>
      </g>
     </g>
    </g>
    <g id="ytick_5">
     <g id="line2d_40">
      <g>
       <use style="stroke:#000000;" x="81" xlink:href="#m61d1ec1c58" y="227.08896"/>
      </g>
     </g>
     <g id="text_10">
      <!-- 4 -->
      <defs>
       <path d="M 37.203125 25.296875 
L 37.203125 56.734375 
L 14.65625 25.296875 
z
M 37.203125 17.28125 
L 6.84375 17.28125 
L 6.84375 26.765625 
L 39.546875 71.96875 
L 46.1875 71.96875 
L 46.1875 25.296875 
L 56.84375 25.296875 
L 56.84375 17.28125 
L 46.1875 17.28125 
L 46.1875 0 
L 37.203125 0 
z
" id="Gargi-52"/>
      </defs>
      <g transform="translate(64.039062 233.751772)scale(0.18 -0.18)">
       <use xlink:href="#Gargi-52"/>
      </g>
     </g>
    </g>
    <g id="ytick_6">
     <g id="line2d_41">
      <g>
       <use style="stroke:#000000;" x="81" xlink:href="#m61d1ec1c58" y="178.4496"/>
      </g>
     </g>
     <g id="text_11">
      <!-- 5 -->
      <defs>
       <path d="M 51.65625 74.21875 
L 51.65625 65.4375 
L 21.6875 65.4375 
L 18.84375 45.3125 
Q 24.8125 49.703125 32.125 49.703125 
Q 44.34375 49.703125 50.875 40.828125 
Q 55.46875 34.671875 55.46875 25.6875 
Q 55.46875 12.59375 46.578125 5.28125 
Q 40.046875 -0.09375 30.765625 -0.09375 
Q 19.34375 -0.09375 12.796875 6.734375 
Q 11.921875 7.625 11.234375 8.5 
Q 8.5 11.921875 6.84375 19.921875 
L 15.828125 19.921875 
Q 18.953125 7.8125 30.5625 7.8125 
Q 40.828125 7.8125 44.625 16.015625 
Q 46.296875 19.734375 46.296875 24.515625 
Q 46.296875 35.546875 38.578125 39.84375 
Q 35.15625 41.796875 30.5625 41.796875 
Q 24.03125 41.796875 19.4375 37.40625 
L 17.390625 35.0625 
L 9.078125 35.0625 
L 14.453125 74.21875 
z
" id="Gargi-53"/>
      </defs>
      <g transform="translate(64.28375 185.112413)scale(0.18 -0.18)">
       <use xlink:href="#Gargi-53"/>
      </g>
     </g>
    </g>
    <g id="ytick_7">
     <g id="line2d_42">
      <g>
       <use style="stroke:#000000;" x="81" xlink:href="#m61d1ec1c58" y="129.81024"/>
      </g>
     </g>
     <g id="text_12">
      <!-- 6 -->
      <defs>
       <path d="M 29.390625 39.15625 
Q 20.796875 39.15625 16.703125 32.421875 
Q 14.546875 28.71875 14.546875 24.03125 
Q 14.546875 15.234375 20.703125 10.546875 
Q 24.3125 7.8125 29.109375 7.8125 
Q 36.8125 7.8125 40.921875 14.265625 
Q 43.453125 18.265625 43.453125 23.4375 
Q 43.453125 33.796875 36.234375 37.59375 
Q 33.296875 39.15625 29.390625 39.15625 
z
M 51.078125 55.46875 
L 42.09375 55.46875 
Q 40.328125 64.359375 32.90625 66.015625 
Q 31.546875 66.3125 30.078125 66.3125 
Q 18.75 66.3125 15.328125 51.65625 
Q 13.96875 46.1875 13.96875 38.96875 
Q 19.921875 47.078125 30.5625 47.078125 
Q 41.796875 47.078125 48.140625 38.578125 
Q 52.640625 32.625 52.640625 24.21875 
Q 52.640625 12.109375 44.234375 5.171875 
Q 37.984375 -0.09375 29 -0.09375 
Q 17.09375 -0.09375 10.9375 8.890625 
Q 4.890625 17.78125 4.890625 33.890625 
L 4.890625 35.0625 
Q 4.890625 53.8125 11.328125 63.96875 
Q 17.09375 72.5625 27.25 74.03125 
Q 28.90625 74.21875 30.671875 74.21875 
Q 42.28125 74.21875 47.953125 64.84375 
Q 50.296875 60.84375 51.078125 55.46875 
z
" id="Gargi-54"/>
      </defs>
      <g transform="translate(65.147188 136.473052)scale(0.18 -0.18)">
       <use xlink:href="#Gargi-54"/>
      </g>
     </g>
    </g>
    <g id="ytick_8">
     <g id="line2d_43">
      <g>
       <use style="stroke:#000000;" x="81" xlink:href="#m61d1ec1c58" y="81.17088"/>
      </g>
     </g>
     <g id="text_13">
      <!-- 7 -->
      <defs>
       <path d="M 54.984375 71.96875 
L 54.984375 64.453125 
Q 34.46875 37.3125 27.734375 9.765625 
Q 26.5625 4.984375 25.6875 0 
L 16.21875 0 
Q 21.296875 22.171875 30.671875 39.546875 
Q 36.234375 49.8125 45.703125 63.1875 
L 6.84375 63.1875 
L 6.84375 71.96875 
z
" id="Gargi-55"/>
      </defs>
      <g transform="translate(64.725313 87.833692)scale(0.18 -0.18)">
       <use xlink:href="#Gargi-55"/>
      </g>
     </g>
    </g>
    <g id="text_14">
     <!-- Fluorescence (RFU/OD600) -->
     <defs>
      <path d="M 14.265625 33.6875 
L 14.265625 0 
L 4.890625 0 
L 4.890625 74.03125 
L 54.5 74.03125 
L 54.5 65.71875 
L 14.265625 65.71875 
L 14.265625 42.09375 
L 49.609375 42.09375 
L 49.609375 33.6875 
z
" id="Gargi-70"/>
      <path d="M 27.046875 49.21875 
Q 17.578125 49.21875 13.765625 39.9375 
Q 11.8125 35.0625 11.8125 28.515625 
Q 11.8125 14.65625 19.734375 9.765625 
Q 22.859375 7.8125 27.046875 7.8125 
Q 36.234375 7.8125 40.140625 16.796875 
Q 42.28125 21.578125 42.28125 28.21875 
Q 42.28125 42.96875 33.984375 47.65625 
Q 30.859375 49.21875 27.046875 49.21875 
z
M 26.953125 57.125 
Q 42.28125 57.125 48.140625 43.953125 
Q 51.078125 37.3125 51.078125 28.125 
Q 51.078125 11.140625 40.71875 4 
Q 35.0625 0 27.046875 0 
Q 12.40625 0 6.34375 12.109375 
Q 2.9375 18.953125 2.9375 28.515625 
Q 2.9375 46.1875 13.671875 53.328125 
Q 19.234375 57.125 26.953125 57.125 
z
" id="Gargi-111"/>
      <path d="M 4.890625 53.21875 
L 12.703125 53.21875 
L 12.703125 43.5625 
Q 18.5625 53.03125 24.421875 54.390625 
Q 25.78125 54.78125 27.25 54.78125 
Q 28.328125 54.78125 30.46875 54.390625 
L 30.46875 45.796875 
Q 23.140625 45.703125 20.015625 43.5625 
L 19.34375 43.171875 
Q 13.375 38.765625 13.375 27.640625 
L 13.375 0 
L 4.890625 0 
z
" id="Gargi-114"/>
      <path d="M 44.046875 40.53125 
L 35.0625 40.53125 
Q 34.765625 49.03125 24.421875 49.03125 
Q 16.109375 49.03125 13.765625 44.140625 
Q 13.09375 42.671875 13.09375 41.015625 
Q 13.09375 36.53125 19.828125 34.28125 
Q 21.296875 33.796875 22.953125 33.40625 
L 31.0625 31.546875 
Q 43.0625 28.609375 45.40625 21.578125 
Q 46.09375 19.4375 46.09375 16.703125 
Q 46.09375 7.03125 37.203125 2.546875 
Q 31.84375 -0.203125 24.21875 -0.203125 
Q 4.5 -0.203125 3.03125 16.3125 
Q 2.9375 17.09375 2.9375 17.96875 
L 11.921875 17.96875 
Q 12.5 13.1875 14.359375 11.234375 
Q 17.671875 7.625 24.90625 7.625 
Q 33.40625 7.625 36.234375 12.40625 
Q 37.3125 14.0625 37.3125 15.921875 
Q 37.3125 20.609375 31.84375 22.5625 
Q 30.5625 22.953125 29.109375 23.34375 
L 21.1875 25.296875 
Q 9.078125 28.328125 5.953125 33.40625 
Q 4.296875 36.234375 4.296875 40.625 
Q 4.296875 50.09375 12.796875 54.390625 
Q 17.78125 56.9375 24.703125 56.9375 
Q 39.453125 56.9375 42.96875 46.6875 
Q 44.046875 43.84375 44.046875 40.53125 
z
" id="Gargi-115"/>
      <path d="M 14.265625 40.234375 
L 37.109375 40.234375 
Q 49.421875 40.234375 51.265625 48.921875 
Q 51.65625 50.6875 51.65625 52.9375 
Q 51.65625 59.578125 47.859375 62.890625 
Q 44.53125 65.71875 37.109375 65.71875 
L 14.265625 65.71875 
z
M 14.265625 31.9375 
L 14.265625 0 
L 4.890625 0 
L 4.890625 74.03125 
L 38.96875 74.03125 
Q 56.25 74.03125 60.453125 61.8125 
Q 61.53125 58.5 61.53125 54.203125 
Q 61.53125 44.234375 54.203125 39.0625 
Q 52.25 37.796875 49.8125 36.53125 
Q 56.15625 33.796875 58.109375 29.78125 
Q 59.859375 25.984375 59.859375 17.28125 
Q 59.859375 7.515625 61.8125 4.78125 
Q 62.796875 3.421875 64.359375 2.34375 
L 64.359375 0 
L 52.9375 0 
Q 50.875 4.890625 50.875 12.109375 
L 50.875 18.65625 
Q 50.875 29.78125 42.78125 31.453125 
Q 40.921875 31.9375 38.671875 31.9375 
z
" id="Gargi-82"/>
      <path d="M 52.34375 75 
L 61.8125 75 
L 61.8125 24.125 
Q 61.8125 11.140625 51.265625 4.6875 
Q 43.953125 0.203125 33.296875 0.203125 
Q 16.5 0.203125 9.078125 10.25 
Q 4.890625 15.921875 4.890625 24.125 
L 4.890625 75 
L 14.359375 75 
L 14.359375 24.125 
Q 14.359375 16.3125 19.734375 12.109375 
Q 25.09375 8.296875 33.296875 8.296875 
Q 45.90625 8.296875 50.390625 16.3125 
Q 52.34375 19.828125 52.34375 24.125 
z
" id="Gargi-85"/>
      <path d="M 23.25 74.03125 
L 28.8125 74.03125 
L 4.78125 -2.046875 
L -0.78125 -2.046875 
z
" id="Gargi-47"/>
      <path d="M 38.578125 68.171875 
Q 25.203125 68.171875 17.96875 58.015625 
Q 12.3125 50.09375 12.3125 38.28125 
Q 12.3125 22.65625 21.96875 14.359375 
Q 28.90625 8.40625 38.375 8.40625 
Q 38.484375 8.40625 38.671875 8.40625 
Q 51.65625 8.40625 59.078125 18.359375 
Q 64.9375 26.265625 64.9375 37.890625 
Q 64.9375 54.390625 54.984375 62.59375 
Q 48.25 68.171875 38.578125 68.171875 
z
M 38.578125 76.375 
Q 56.25 76.375 66.015625 64.15625 
Q 74.421875 53.71875 74.421875 37.703125 
Q 74.421875 22.953125 66.015625 12.5 
Q 63.96875 9.859375 61.625 7.90625 
Q 52.34375 0.296875 38.671875 0.296875 
Q 21.78125 0.296875 11.71875 12.015625 
Q 2.9375 22.265625 2.9375 38.28125 
Q 2.9375 56.734375 14.15625 67.28125 
Q 23.828125 76.375 38.578125 76.375 
z
" id="Gargi-79"/>
      <path d="M 14.265625 8.296875 
L 31.734375 8.296875 
Q 49.421875 8.296875 53.21875 26.765625 
Q 54.109375 31.25 54.109375 37.015625 
Q 54.109375 61.921875 37.015625 65.234375 
Q 34.46875 65.71875 31.734375 65.71875 
L 14.265625 65.71875 
z
M 4.890625 0 
L 4.890625 74.03125 
L 33.40625 74.03125 
Q 49.90625 74.03125 57.90625 60.640625 
Q 63.578125 51.265625 63.578125 37.109375 
Q 63.578125 15.921875 51.765625 6.15625 
Q 44.34375 0 33.40625 0 
z
" id="Gargi-68"/>
     </defs>
     <g transform="translate(55.742187 367.808175)rotate(-90)scale(0.2 -0.2)">
      <use xlink:href="#Gargi-70"/>
      <use x="59.375" xlink:href="#Gargi-108"/>
      <use x="81.542969" xlink:href="#Gargi-117"/>
      <use x="133.59375" xlink:href="#Gargi-111"/>
      <use x="187.597656" xlink:href="#Gargi-114"/>
      <use x="222.949219" xlink:href="#Gargi-101"/>
      <use x="278.808594" xlink:href="#Gargi-115"/>
      <use x="327.832031" xlink:href="#Gargi-99"/>
      <use x="379.003906" xlink:href="#Gargi-101"/>
      <use x="434.863281" xlink:href="#Gargi-110"/>
      <use x="486.914062" xlink:href="#Gargi-99"/>
      <use x="538.085938" xlink:href="#Gargi-101"/>
      <use x="593.945312" xlink:href="#Gargi-32"/>
      <use x="618.359375" xlink:href="#Gargi-40"/>
      <use x="671.289062" xlink:href="#Gargi-82"/>
      <use x="740.527344" xlink:href="#Gargi-70"/>
      <use x="799.902344" xlink:href="#Gargi-85"/>
      <use x="866.601562" xlink:href="#Gargi-47"/>
      <use x="919.53125" xlink:href="#Gargi-79"/>
      <use x="996.875" xlink:href="#Gargi-68"/>
      <use x="1065.332031" xlink:href="#Gargi-54"/>
      <use x="1122.851562" xlink:href="#Gargi-48"/>
      <use x="1177.734375" xlink:href="#Gargi-48"/>
      <use x="1232.617188" xlink:href="#Gargi-41"/>
     </g>
    </g>
   </g>
   <g id="line2d_44">
    <path clip-path="url(#p0d7f4968ea)" d="M 78.039551 416.044283 
L 143.450331 414.842905 
L 202.81761 413.530892 
L 257.163686 412.109179 
L 307.348551 410.576085 
L 353.976763 408.93159 
L 397.551507 407.17466 
L 438.445687 405.30559 
L 476.981963 403.323905 
L 513.418716 401.229623 
L 547.9744 399.022727 
L 572.675058 397.300479 
L 572.675058 397.300479 
" style="fill:none;stroke:#0099ff;stroke-linecap:square;stroke-width:1.5;"/>
   </g>
   <g id="line2d_45">
    <path clip-path="url(#p0d7f4968ea)" d="M 78.039551 421.59427 
L 160.301548 421.402756 
L 204.540942 421.088354 
L 235.172709 420.656367 
L 258.645683 420.111032 
L 277.821783 419.450254 
L 294.093979 418.672432 
L 308.200421 417.780493 
L 320.719981 416.769831 
L 331.94411 415.64432 
L 342.156842 414.400015 
L 351.527673 413.037402 
L 360.209256 411.553093 
L 368.314169 409.943974 
L 375.910542 408.211499 
L 383.086601 406.348972 
L 389.894462 404.354302 
L 396.388685 402.221553 
L 402.611406 399.945263 
L 408.595739 397.520507 
L 414.377065 394.938765 
L 419.97429 392.196451 
L 425.417865 389.282445 
L 430.730523 386.186703 
L 435.935406 382.896335 
L 441.043596 379.403989 
L 446.078763 375.691927 
L 451.057276 371.744696 
L 455.994323 367.545541 
L 460.9035 363.076983 
L 465.800239 358.317769 
L 470.703568 353.24037 
L 475.62736 347.819703 
L 480.589538 342.023843 
L 485.609155 335.816538 
L 490.708993 329.153635 
L 495.916306 321.9812 
L 501.262185 314.235635 
L 506.78715 305.834792 
L 512.546884 296.667183 
L 518.620234 286.576197 
L 525.128891 275.322919 
L 532.28679 262.492435 
L 540.547159 247.213132 
L 551.428032 226.582577 
L 572.675058 186.141831 
L 572.675058 186.141831 
" style="fill:none;stroke:#3372cc;stroke-linecap:square;stroke-width:1.5;"/>
   </g>
   <g id="line2d_46">
    <path clip-path="url(#p0d7f4968ea)" d="M 78.039551 421.646269 
L 300.492007 421.534263 
L 338.138277 421.294887 
L 361.320522 420.936516 
L 378.252432 420.461115 
L 391.647589 419.869597 
L 402.764995 419.161884 
L 412.287944 418.337823 
L 420.637273 417.396435 
L 428.085849 416.3367 
L 434.827027 415.156466 
L 441.004067 413.852079 
L 446.716755 412.420825 
L 452.04546 410.858507 
L 457.052065 409.160668 
L 461.789095 407.321056 
L 466.301726 405.331344 
L 470.625844 403.182687 
L 474.79341 400.864038 
L 478.830064 398.363917 
L 482.759228 395.668671 
L 486.602249 392.762432 
L 490.378505 389.627174 
L 494.107746 386.240722 
L 497.805234 382.581161 
L 501.48849 378.620831 
L 505.174242 374.328822 
L 508.879779 369.669442 
L 512.622084 364.603216 
L 516.423232 359.079188 
L 520.307826 353.037047 
L 524.304806 346.403714 
L 528.455383 339.078406 
L 532.813128 330.929039 
L 537.462917 321.752864 
L 542.548503 311.212675 
L 548.367132 298.623456 
L 555.834819 281.899057 
L 572.675058 243.895471 
L 572.675058 243.895471 
" style="fill:none;stroke:#674c9a;stroke-linecap:square;stroke-width:1.5;"/>
   </g>
   <g id="line2d_47">
    <path clip-path="url(#p0d7f4968ea)" d="M 78.039551 421.615726 
L 135.038773 421.448126 
L 162.453127 421.160227 
L 180.964476 420.756128 
L 194.959059 420.240822 
L 206.543248 419.596551 
L 216.186839 418.84206 
L 224.447672 417.981015 
L 231.884854 416.985173 
L 238.472313 415.883505 
L 244.554498 414.641696 
L 250.056502 413.295547 
L 255.220755 411.805098 
L 260.090584 410.165876 
L 264.581368 408.423778 
L 268.859425 406.53121 
L 272.946121 404.485303 
L 276.956578 402.226112 
L 280.79712 399.804922 
L 284.483097 397.221354 
L 288.107688 394.410873 
L 291.668412 391.368271 
L 295.163696 388.090045 
L 298.659238 384.50327 
L 302.143287 380.602908 
L 305.606144 376.387135 
L 309.095437 371.781464 
L 312.595136 366.787775 
L 316.140913 361.335141 
L 319.75898 355.355978 
L 323.467311 348.789636 
L 327.276732 341.586547 
L 331.267609 333.556084 
L 335.459192 324.615038 
L 339.987824 314.419908 
L 344.997216 302.580093 
L 350.912265 288.003249 
L 359.448613 266.304329 
L 370.920901 237.229844 
L 376.862161 222.79996 
L 381.887958 211.16361 
L 386.423852 201.210746 
L 390.642677 192.479062 
L 394.649777 184.68807 
L 398.502948 177.676071 
L 402.236695 171.33738 
L 405.878656 165.586591 
L 409.460732 160.340743 
L 412.998869 155.548793 
L 416.51422 151.158023 
L 420.02306 147.127963 
L 423.537574 143.427088 
L 427.080878 140.017004 
L 430.66299 136.876976 
L 434.296487 133.98621 
L 438.007054 131.317462 
L 441.811848 128.854575 
L 445.731085 126.582478 
L 449.790496 124.486438 
L 454.01759 122.554635 
L 458.44682 120.775901 
L 463.117563 119.141255 
L 468.074669 117.643825 
L 473.37615 116.276974 
L 479.090566 115.036031 
L 485.305766 113.916967 
L 492.140605 112.915886 
L 499.750806 112.030198 
L 508.352697 111.257836 
L 518.265751 110.596781 
L 529.978692 110.045534 
L 544.303758 109.602636 
L 562.738359 109.266473 
L 572.675058 109.153662 
L 572.675058 109.153662 
" style="fill:none;stroke:#9a2667;stroke-linecap:square;stroke-width:1.5;"/>
   </g>
   <g id="line2d_48">
    <path clip-path="url(#p0d7f4968ea)" d="M 78.039551 421.595398 
L 125.189013 421.402396 
L 149.922567 421.092136 
L 167.181986 420.664512 
L 180.451341 420.123425 
L 191.233421 419.472251 
L 200.315103 418.714123 
L 208.478424 417.812276 
L 215.629082 416.800668 
L 221.990818 415.682707 
L 227.947372 414.408784 
L 233.346384 413.027147 
L 238.283353 411.541811 
L 243.005832 409.891446 
L 247.5325 408.06856 
L 251.729876 406.139795 
L 255.782583 404.033479 
L 259.700093 401.74437 
L 263.490997 399.268202 
L 267.163103 396.601783 
L 270.723529 393.743082 
L 274.280324 390.597288 
L 277.726287 387.253186 
L 281.158482 383.613687 
L 284.568053 379.675475 
L 288.027788 375.333886 
L 291.51808 370.586199 
L 295.022207 365.435316 
L 298.592694 359.780976 
L 302.205864 353.636411 
L 305.958858 346.803966 
L 309.812556 339.318745 
L 313.88663 330.907483 
L 318.215751 321.445151 
L 322.945675 310.553777 
L 328.320509 297.594586 
L 335.071167 280.697191 
L 353.976763 233.031565 
L 359.355729 220.279997 
L 364.083544 209.631349 
L 368.413579 200.414357 
L 372.496916 192.236496 
L 376.396963 184.916797 
L 380.163672 178.315059 
L 383.821406 172.347247 
L 387.404261 166.921297 
L 390.939269 161.966642 
L 394.447668 157.429101 
L 397.933968 153.280356 
L 401.423856 149.47022 
L 404.926193 145.972959 
L 408.46685 142.749977 
L 412.055228 139.783043 
L 415.71437 137.045739 
L 419.451498 134.527047 
L 423.300091 132.201217 
L 427.281844 130.055314 
L 431.421556 128.077876 
L 435.750085 126.257962 
L 440.305022 124.585713 
L 445.129399 123.053381 
L 450.273613 121.654875 
L 455.806662 120.383558 
L 461.812736 119.234722 
L 468.395406 118.205397 
L 475.701735 117.291991 
L 483.928492 116.492345 
L 493.359943 115.804583 
L 504.427817 115.227089 
L 517.837478 114.758284 
L 534.847315 114.396673 
L 558.060362 114.140224 
L 572.675058 114.055251 
L 572.675058 114.055251 
" style="fill:none;stroke:#ce0035;stroke-linecap:square;stroke-width:1.5;"/>
   </g>
   <g id="line2d_49">
    <defs>
     <path d="M 0 3 
C 0.795609 3 1.55874 2.683901 2.12132 2.12132 
C 2.683901 1.55874 3 0.795609 3 0 
C 3 -0.795609 2.683901 -1.55874 2.12132 -2.12132 
C 1.55874 -2.683901 0.795609 -3 0 -3 
C -0.795609 -3 -1.55874 -2.683901 -2.12132 -2.12132 
C -2.683901 -1.55874 -3 -0.795609 -3 0 
C -3 0.795609 -2.683901 1.55874 -2.12132 2.12132 
C -1.55874 2.683901 -0.795609 3 0 3 
z
" id="m1c572d1752" style="stroke:#0099ff;"/>
    </defs>
    <g clip-path="url(#p0d7f4968ea)">
     <use style="fill:#0099ff;stroke:#0099ff;" x="-1" xlink:href="#m1c572d1752" y="411.195507"/>
     <use style="fill:#0099ff;stroke:#0099ff;" x="121.013555" xlink:href="#m1c572d1752" y="411.195495"/>
     <use style="fill:#0099ff;stroke:#0099ff;" x="173.908598" xlink:href="#m1c572d1752" y="411.052419"/>
     <use style="fill:#0099ff;stroke:#0099ff;" x="213.922153" xlink:href="#m1c572d1752" y="411.151495"/>
     <use style="fill:#0099ff;stroke:#0099ff;" x="253.935709" xlink:href="#m1c572d1752" y="411.252257"/>
     <use style="fill:#0099ff;stroke:#0099ff;" x="306.830752" xlink:href="#m1c572d1752" y="410.93784"/>
     <use style="fill:#0099ff;stroke:#0099ff;" x="346.844307" xlink:href="#m1c572d1752" y="410.928213"/>
     <use style="fill:#0099ff;stroke:#0099ff;" x="386.857862" xlink:href="#m1c572d1752" y="410.549319"/>
     <use style="fill:#0099ff;stroke:#0099ff;" x="439.752905" xlink:href="#m1c572d1752" y="409.187064"/>
     <use style="fill:#0099ff;stroke:#0099ff;" x="479.76646" xlink:href="#m1c572d1752" y="407.406962"/>
     <use style="fill:#0099ff;stroke:#0099ff;" x="519.780015" xlink:href="#m1c572d1752" y="403.453357"/>
     <use style="fill:#0099ff;stroke:#0099ff;" x="572.675058" xlink:href="#m1c572d1752" y="390.093807"/>
    </g>
   </g>
   <g id="line2d_50">
    <g clip-path="url(#p0d7f4968ea)">
     <use style="fill:#0099ff;stroke:#0099ff;" x="-1" xlink:href="#m1c572d1752" y="410.916996"/>
     <use style="fill:#0099ff;stroke:#0099ff;" x="121.013555" xlink:href="#m1c572d1752" y="410.917099"/>
     <use style="fill:#0099ff;stroke:#0099ff;" x="173.908598" xlink:href="#m1c572d1752" y="411.055184"/>
     <use style="fill:#0099ff;stroke:#0099ff;" x="213.922153" xlink:href="#m1c572d1752" y="411.132449"/>
     <use style="fill:#0099ff;stroke:#0099ff;" x="253.935709" xlink:href="#m1c572d1752" y="411.026858"/>
     <use style="fill:#0099ff;stroke:#0099ff;" x="306.830752" xlink:href="#m1c572d1752" y="411.133871"/>
     <use style="fill:#0099ff;stroke:#0099ff;" x="346.844307" xlink:href="#m1c572d1752" y="410.88321"/>
     <use style="fill:#0099ff;stroke:#0099ff;" x="386.857862" xlink:href="#m1c572d1752" y="410.448627"/>
     <use style="fill:#0099ff;stroke:#0099ff;" x="439.752905" xlink:href="#m1c572d1752" y="409.370495"/>
     <use style="fill:#0099ff;stroke:#0099ff;" x="479.76646" xlink:href="#m1c572d1752" y="407.337352"/>
     <use style="fill:#0099ff;stroke:#0099ff;" x="519.780015" xlink:href="#m1c572d1752" y="403.427114"/>
     <use style="fill:#0099ff;stroke:#0099ff;" x="572.675058" xlink:href="#m1c572d1752" y="389.777248"/>
    </g>
   </g>
   <g id="line2d_51">
    <g clip-path="url(#p0d7f4968ea)">
     <use style="fill:#0099ff;stroke:#0099ff;" x="-1" xlink:href="#m1c572d1752" y="410.818052"/>
     <use style="fill:#0099ff;stroke:#0099ff;" x="121.013555" xlink:href="#m1c572d1752" y="410.818093"/>
     <use style="fill:#0099ff;stroke:#0099ff;" x="173.908598" xlink:href="#m1c572d1752" y="410.950258"/>
     <use style="fill:#0099ff;stroke:#0099ff;" x="213.922153" xlink:href="#m1c572d1752" y="410.98468"/>
     <use style="fill:#0099ff;stroke:#0099ff;" x="253.935709" xlink:href="#m1c572d1752" y="410.957145"/>
     <use style="fill:#0099ff;stroke:#0099ff;" x="306.830752" xlink:href="#m1c572d1752" y="410.948632"/>
     <use style="fill:#0099ff;stroke:#0099ff;" x="346.844307" xlink:href="#m1c572d1752" y="410.759935"/>
     <use style="fill:#0099ff;stroke:#0099ff;" x="386.857862" xlink:href="#m1c572d1752" y="410.300806"/>
     <use style="fill:#0099ff;stroke:#0099ff;" x="439.752905" xlink:href="#m1c572d1752" y="409.080097"/>
     <use style="fill:#0099ff;stroke:#0099ff;" x="479.76646" xlink:href="#m1c572d1752" y="407.140233"/>
     <use style="fill:#0099ff;stroke:#0099ff;" x="519.780015" xlink:href="#m1c572d1752" y="403.266903"/>
     <use style="fill:#0099ff;stroke:#0099ff;" x="572.675058" xlink:href="#m1c572d1752" y="389.988332"/>
    </g>
   </g>
   <g id="line2d_52">
    <defs>
     <path d="M 0 3 
C 0.795609 3 1.55874 2.683901 2.12132 2.12132 
C 2.683901 1.55874 3 0.795609 3 0 
C 3 -0.795609 2.683901 -1.55874 2.12132 -2.12132 
C 1.55874 -2.683901 0.795609 -3 0 -3 
C -0.795609 -3 -1.55874 -2.683901 -2.12132 -2.12132 
C -2.683901 -1.55874 -3 -0.795609 -3 0 
C -3 0.795609 -2.683901 1.55874 -2.12132 2.12132 
C -1.55874 2.683901 -0.795609 3 0 3 
z
" id="m2cc9e6d803" style="stroke:#3372cc;"/>
    </defs>
    <g clip-path="url(#p0d7f4968ea)">
     <use style="fill:#3372cc;stroke:#3372cc;" x="-1" xlink:href="#m2cc9e6d803" y="413.95387"/>
     <use style="fill:#3372cc;stroke:#3372cc;" x="121.013555" xlink:href="#m2cc9e6d803" y="413.953686"/>
     <use style="fill:#3372cc;stroke:#3372cc;" x="173.908598" xlink:href="#m2cc9e6d803" y="413.85817"/>
     <use style="fill:#3372cc;stroke:#3372cc;" x="213.922153" xlink:href="#m2cc9e6d803" y="413.676217"/>
     <use style="fill:#3372cc;stroke:#3372cc;" x="253.935709" xlink:href="#m2cc9e6d803" y="413.27078"/>
     <use style="fill:#3372cc;stroke:#3372cc;" x="306.830752" xlink:href="#m2cc9e6d803" y="412.204061"/>
     <use style="fill:#3372cc;stroke:#3372cc;" x="346.844307" xlink:href="#m2cc9e6d803" y="409.888716"/>
     <use style="fill:#3372cc;stroke:#3372cc;" x="386.857862" xlink:href="#m2cc9e6d803" y="404.642214"/>
     <use style="fill:#3372cc;stroke:#3372cc;" x="439.752905" xlink:href="#m2cc9e6d803" y="384.226106"/>
     <use style="fill:#3372cc;stroke:#3372cc;" x="479.76646" xlink:href="#m2cc9e6d803" y="345.334453"/>
     <use style="fill:#3372cc;stroke:#3372cc;" x="519.780015" xlink:href="#m2cc9e6d803" y="278.994153"/>
     <use style="fill:#3372cc;stroke:#3372cc;" x="572.675058" xlink:href="#m2cc9e6d803" y="185.210231"/>
    </g>
   </g>
   <g id="line2d_53">
    <g clip-path="url(#p0d7f4968ea)">
     <use style="fill:#3372cc;stroke:#3372cc;" x="-1" xlink:href="#m2cc9e6d803" y="414.267949"/>
     <use style="fill:#3372cc;stroke:#3372cc;" x="121.013555" xlink:href="#m2cc9e6d803" y="414.267876"/>
     <use style="fill:#3372cc;stroke:#3372cc;" x="173.908598" xlink:href="#m2cc9e6d803" y="414.072019"/>
     <use style="fill:#3372cc;stroke:#3372cc;" x="213.922153" xlink:href="#m2cc9e6d803" y="413.845128"/>
     <use style="fill:#3372cc;stroke:#3372cc;" x="253.935709" xlink:href="#m2cc9e6d803" y="413.421803"/>
     <use style="fill:#3372cc;stroke:#3372cc;" x="306.830752" xlink:href="#m2cc9e6d803" y="412.370523"/>
     <use style="fill:#3372cc;stroke:#3372cc;" x="346.844307" xlink:href="#m2cc9e6d803" y="410.00298"/>
     <use style="fill:#3372cc;stroke:#3372cc;" x="386.857862" xlink:href="#m2cc9e6d803" y="405.111099"/>
     <use style="fill:#3372cc;stroke:#3372cc;" x="439.752905" xlink:href="#m2cc9e6d803" y="384.838075"/>
     <use style="fill:#3372cc;stroke:#3372cc;" x="479.76646" xlink:href="#m2cc9e6d803" y="346.253909"/>
     <use style="fill:#3372cc;stroke:#3372cc;" x="519.780015" xlink:href="#m2cc9e6d803" y="280.850986"/>
     <use style="fill:#3372cc;stroke:#3372cc;" x="572.675058" xlink:href="#m2cc9e6d803" y="185.390003"/>
    </g>
   </g>
   <g id="line2d_54">
    <g clip-path="url(#p0d7f4968ea)">
     <use style="fill:#3372cc;stroke:#3372cc;" x="-1" xlink:href="#m2cc9e6d803" y="414.372926"/>
     <use style="fill:#3372cc;stroke:#3372cc;" x="121.013555" xlink:href="#m2cc9e6d803" y="414.372923"/>
     <use style="fill:#3372cc;stroke:#3372cc;" x="173.908598" xlink:href="#m2cc9e6d803" y="414.169215"/>
     <use style="fill:#3372cc;stroke:#3372cc;" x="213.922153" xlink:href="#m2cc9e6d803" y="413.983556"/>
     <use style="fill:#3372cc;stroke:#3372cc;" x="253.935709" xlink:href="#m2cc9e6d803" y="413.478854"/>
     <use style="fill:#3372cc;stroke:#3372cc;" x="306.830752" xlink:href="#m2cc9e6d803" y="412.284458"/>
     <use style="fill:#3372cc;stroke:#3372cc;" x="346.844307" xlink:href="#m2cc9e6d803" y="410.108394"/>
     <use style="fill:#3372cc;stroke:#3372cc;" x="386.857862" xlink:href="#m2cc9e6d803" y="405.067617"/>
     <use style="fill:#3372cc;stroke:#3372cc;" x="439.752905" xlink:href="#m2cc9e6d803" y="384.694143"/>
     <use style="fill:#3372cc;stroke:#3372cc;" x="479.76646" xlink:href="#m2cc9e6d803" y="345.936321"/>
     <use style="fill:#3372cc;stroke:#3372cc;" x="519.780015" xlink:href="#m2cc9e6d803" y="282.329659"/>
     <use style="fill:#3372cc;stroke:#3372cc;" x="572.675058" xlink:href="#m2cc9e6d803" y="190.444646"/>
    </g>
   </g>
   <g id="line2d_55">
    <defs>
     <path d="M 0 3 
C 0.795609 3 1.55874 2.683901 2.12132 2.12132 
C 2.683901 1.55874 3 0.795609 3 0 
C 3 -0.795609 2.683901 -1.55874 2.12132 -2.12132 
C 1.55874 -2.683901 0.795609 -3 0 -3 
C -0.795609 -3 -1.55874 -2.683901 -2.12132 -2.12132 
C -2.683901 -1.55874 -3 -0.795609 -3 0 
C -3 0.795609 -2.683901 1.55874 -2.12132 2.12132 
C -1.55874 2.683901 -0.795609 3 0 3 
z
" id="maa1613fb86" style="stroke:#674c9a;"/>
    </defs>
    <g clip-path="url(#p0d7f4968ea)">
     <use style="fill:#674c9a;stroke:#674c9a;" x="-1" xlink:href="#maa1613fb86" y="420.847511"/>
     <use style="fill:#674c9a;stroke:#674c9a;" x="121.013555" xlink:href="#maa1613fb86" y="420.847504"/>
     <use style="fill:#674c9a;stroke:#674c9a;" x="173.908598" xlink:href="#maa1613fb86" y="420.924523"/>
     <use style="fill:#674c9a;stroke:#674c9a;" x="213.922153" xlink:href="#maa1613fb86" y="420.866342"/>
     <use style="fill:#674c9a;stroke:#674c9a;" x="253.935709" xlink:href="#maa1613fb86" y="420.662271"/>
     <use style="fill:#674c9a;stroke:#674c9a;" x="306.830752" xlink:href="#maa1613fb86" y="420.608737"/>
     <use style="fill:#674c9a;stroke:#674c9a;" x="346.844307" xlink:href="#maa1613fb86" y="420.252248"/>
     <use style="fill:#674c9a;stroke:#674c9a;" x="386.857862" xlink:href="#maa1613fb86" y="419.382235"/>
     <use style="fill:#674c9a;stroke:#674c9a;" x="439.752905" xlink:href="#maa1613fb86" y="413.667363"/>
     <use style="fill:#674c9a;stroke:#674c9a;" x="479.76646" xlink:href="#maa1613fb86" y="398.33589"/>
     <use style="fill:#674c9a;stroke:#674c9a;" x="519.780015" xlink:href="#maa1613fb86" y="354.405659"/>
     <use style="fill:#674c9a;stroke:#674c9a;" x="572.675058" xlink:href="#maa1613fb86" y="242.773657"/>
    </g>
   </g>
   <g id="line2d_56">
    <g clip-path="url(#p0d7f4968ea)">
     <use style="fill:#674c9a;stroke:#674c9a;" x="-1" xlink:href="#maa1613fb86" y="420.915326"/>
     <use style="fill:#674c9a;stroke:#674c9a;" x="121.013555" xlink:href="#maa1613fb86" y="420.915322"/>
     <use style="fill:#674c9a;stroke:#674c9a;" x="173.908598" xlink:href="#maa1613fb86" y="420.967668"/>
     <use style="fill:#674c9a;stroke:#674c9a;" x="213.922153" xlink:href="#maa1613fb86" y="420.800042"/>
     <use style="fill:#674c9a;stroke:#674c9a;" x="253.935709" xlink:href="#maa1613fb86" y="420.76312"/>
     <use style="fill:#674c9a;stroke:#674c9a;" x="306.830752" xlink:href="#maa1613fb86" y="420.605915"/>
     <use style="fill:#674c9a;stroke:#674c9a;" x="346.844307" xlink:href="#maa1613fb86" y="420.207193"/>
     <use style="fill:#674c9a;stroke:#674c9a;" x="386.857862" xlink:href="#maa1613fb86" y="419.37241"/>
     <use style="fill:#674c9a;stroke:#674c9a;" x="439.752905" xlink:href="#maa1613fb86" y="413.744912"/>
     <use style="fill:#674c9a;stroke:#674c9a;" x="479.76646" xlink:href="#maa1613fb86" y="397.487078"/>
     <use style="fill:#674c9a;stroke:#674c9a;" x="519.780015" xlink:href="#maa1613fb86" y="351.076515"/>
     <use style="fill:#674c9a;stroke:#674c9a;" x="572.675058" xlink:href="#maa1613fb86" y="239.342594"/>
    </g>
   </g>
   <g id="line2d_57">
    <g clip-path="url(#p0d7f4968ea)">
     <use style="fill:#674c9a;stroke:#674c9a;" x="-1" xlink:href="#maa1613fb86" y="420.849987"/>
     <use style="fill:#674c9a;stroke:#674c9a;" x="121.013555" xlink:href="#maa1613fb86" y="420.850166"/>
     <use style="fill:#674c9a;stroke:#674c9a;" x="173.908598" xlink:href="#maa1613fb86" y="420.892032"/>
     <use style="fill:#674c9a;stroke:#674c9a;" x="213.922153" xlink:href="#maa1613fb86" y="420.76582"/>
     <use style="fill:#674c9a;stroke:#674c9a;" x="253.935709" xlink:href="#maa1613fb86" y="420.660133"/>
     <use style="fill:#674c9a;stroke:#674c9a;" x="306.830752" xlink:href="#maa1613fb86" y="420.529498"/>
     <use style="fill:#674c9a;stroke:#674c9a;" x="346.844307" xlink:href="#maa1613fb86" y="420.213416"/>
     <use style="fill:#674c9a;stroke:#674c9a;" x="386.857862" xlink:href="#maa1613fb86" y="419.474784"/>
     <use style="fill:#674c9a;stroke:#674c9a;" x="439.752905" xlink:href="#maa1613fb86" y="414.622951"/>
     <use style="fill:#674c9a;stroke:#674c9a;" x="479.76646" xlink:href="#maa1613fb86" y="398.723189"/>
     <use style="fill:#674c9a;stroke:#674c9a;" x="519.780015" xlink:href="#maa1613fb86" y="355.699636"/>
     <use style="fill:#674c9a;stroke:#674c9a;" x="572.675058" xlink:href="#maa1613fb86" y="249.614604"/>
    </g>
   </g>
   <g id="line2d_58">
    <defs>
     <path d="M 0 3 
C 0.795609 3 1.55874 2.683901 2.12132 2.12132 
C 2.683901 1.55874 3 0.795609 3 0 
C 3 -0.795609 2.683901 -1.55874 2.12132 -2.12132 
C 1.55874 -2.683901 0.795609 -3 0 -3 
C -0.795609 -3 -1.55874 -2.683901 -2.12132 -2.12132 
C -2.683901 -1.55874 -3 -0.795609 -3 0 
C -3 0.795609 -2.683901 1.55874 -2.12132 2.12132 
C -1.55874 2.683901 -0.795609 3 0 3 
z
" id="mdd1c77a3d7" style="stroke:#9a2667;"/>
    </defs>
    <g clip-path="url(#p0d7f4968ea)">
     <use style="fill:#9a2667;stroke:#9a2667;" x="-1" xlink:href="#mdd1c77a3d7" y="420.379521"/>
     <use style="fill:#9a2667;stroke:#9a2667;" x="121.013555" xlink:href="#mdd1c77a3d7" y="420.379308"/>
     <use style="fill:#9a2667;stroke:#9a2667;" x="173.908598" xlink:href="#mdd1c77a3d7" y="419.69659"/>
     <use style="fill:#9a2667;stroke:#9a2667;" x="213.922153" xlink:href="#mdd1c77a3d7" y="418.215355"/>
     <use style="fill:#9a2667;stroke:#9a2667;" x="253.935709" xlink:href="#mdd1c77a3d7" y="411.926123"/>
     <use style="fill:#9a2667;stroke:#9a2667;" x="306.830752" xlink:href="#mdd1c77a3d7" y="375.025126"/>
     <use style="fill:#9a2667;stroke:#9a2667;" x="346.844307" xlink:href="#mdd1c77a3d7" y="297.26959"/>
     <use style="fill:#9a2667;stroke:#9a2667;" x="386.857862" xlink:href="#mdd1c77a3d7" y="203.916115"/>
     <use style="fill:#9a2667;stroke:#9a2667;" x="439.752905" xlink:href="#mdd1c77a3d7" y="132.163859"/>
     <use style="fill:#9a2667;stroke:#9a2667;" x="479.76646" xlink:href="#mdd1c77a3d7" y="116.113357"/>
     <use style="fill:#9a2667;stroke:#9a2667;" x="519.780015" xlink:href="#mdd1c77a3d7" y="112.861313"/>
     <use style="fill:#9a2667;stroke:#9a2667;" x="572.675058" xlink:href="#mdd1c77a3d7" y="114.489555"/>
    </g>
   </g>
   <g id="line2d_59">
    <g clip-path="url(#p0d7f4968ea)">
     <use style="fill:#9a2667;stroke:#9a2667;" x="-1" xlink:href="#mdd1c77a3d7" y="420.368239"/>
     <use style="fill:#9a2667;stroke:#9a2667;" x="121.013555" xlink:href="#mdd1c77a3d7" y="420.368068"/>
     <use style="fill:#9a2667;stroke:#9a2667;" x="173.908598" xlink:href="#mdd1c77a3d7" y="419.890256"/>
     <use style="fill:#9a2667;stroke:#9a2667;" x="213.922153" xlink:href="#mdd1c77a3d7" y="418.19956"/>
     <use style="fill:#9a2667;stroke:#9a2667;" x="253.935709" xlink:href="#mdd1c77a3d7" y="412.171446"/>
     <use style="fill:#9a2667;stroke:#9a2667;" x="306.830752" xlink:href="#mdd1c77a3d7" y="374.970551"/>
     <use style="fill:#9a2667;stroke:#9a2667;" x="346.844307" xlink:href="#mdd1c77a3d7" y="296.257021"/>
     <use style="fill:#9a2667;stroke:#9a2667;" x="386.857862" xlink:href="#mdd1c77a3d7" y="202.70674"/>
     <use style="fill:#9a2667;stroke:#9a2667;" x="439.752905" xlink:href="#mdd1c77a3d7" y="128.265397"/>
     <use style="fill:#9a2667;stroke:#9a2667;" x="479.76646" xlink:href="#mdd1c77a3d7" y="111.014182"/>
     <use style="fill:#9a2667;stroke:#9a2667;" x="519.780015" xlink:href="#mdd1c77a3d7" y="109.445709"/>
     <use style="fill:#9a2667;stroke:#9a2667;" x="572.675058" xlink:href="#mdd1c77a3d7" y="113.121488"/>
    </g>
   </g>
   <g id="line2d_60">
    <g clip-path="url(#p0d7f4968ea)">
     <use style="fill:#9a2667;stroke:#9a2667;" x="-1" xlink:href="#mdd1c77a3d7" y="420.359192"/>
     <use style="fill:#9a2667;stroke:#9a2667;" x="121.013555" xlink:href="#mdd1c77a3d7" y="420.35901"/>
     <use style="fill:#9a2667;stroke:#9a2667;" x="173.908598" xlink:href="#mdd1c77a3d7" y="419.782798"/>
     <use style="fill:#9a2667;stroke:#9a2667;" x="213.922153" xlink:href="#mdd1c77a3d7" y="418.001418"/>
     <use style="fill:#9a2667;stroke:#9a2667;" x="253.935709" xlink:href="#mdd1c77a3d7" y="411.973149"/>
     <use style="fill:#9a2667;stroke:#9a2667;" x="306.830752" xlink:href="#mdd1c77a3d7" y="376.219267"/>
     <use style="fill:#9a2667;stroke:#9a2667;" x="346.844307" xlink:href="#mdd1c77a3d7" y="295.659634"/>
     <use style="fill:#9a2667;stroke:#9a2667;" x="386.857862" xlink:href="#mdd1c77a3d7" y="202.034547"/>
     <use style="fill:#9a2667;stroke:#9a2667;" x="439.752905" xlink:href="#mdd1c77a3d7" y="124.40021"/>
     <use style="fill:#9a2667;stroke:#9a2667;" x="479.76646" xlink:href="#mdd1c77a3d7" y="105.579046"/>
     <use style="fill:#9a2667;stroke:#9a2667;" x="519.780015" xlink:href="#mdd1c77a3d7" y="107.975164"/>
     <use style="fill:#9a2667;stroke:#9a2667;" x="572.675058" xlink:href="#mdd1c77a3d7" y="114.409002"/>
    </g>
   </g>
   <g id="line2d_61">
    <defs>
     <path d="M 0 3 
C 0.795609 3 1.55874 2.683901 2.12132 2.12132 
C 2.683901 1.55874 3 0.795609 3 0 
C 3 -0.795609 2.683901 -1.55874 2.12132 -2.12132 
C 1.55874 -2.683901 0.795609 -3 0 -3 
C -0.795609 -3 -1.55874 -2.683901 -2.12132 -2.12132 
C -2.683901 -1.55874 -3 -0.795609 -3 0 
C -3 0.795609 -2.683901 1.55874 -2.12132 2.12132 
C -1.55874 2.683901 -0.795609 3 0 3 
z
" id="m5f681938f0" style="stroke:#ce0035;"/>
    </defs>
    <g clip-path="url(#p0d7f4968ea)">
     <use style="fill:#ce0035;stroke:#ce0035;" x="-1" xlink:href="#m5f681938f0" y="420.397641"/>
     <use style="fill:#ce0035;stroke:#ce0035;" x="121.013555" xlink:href="#m5f681938f0" y="420.397246"/>
     <use style="fill:#ce0035;stroke:#ce0035;" x="173.908598" xlink:href="#m5f681938f0" y="419.710062"/>
     <use style="fill:#ce0035;stroke:#ce0035;" x="213.922153" xlink:href="#m5f681938f0" y="416.788222"/>
     <use style="fill:#ce0035;stroke:#ce0035;" x="253.935709" xlink:href="#m5f681938f0" y="405.620253"/>
     <use style="fill:#ce0035;stroke:#ce0035;" x="306.830752" xlink:href="#m5f681938f0" y="343.92583"/>
     <use style="fill:#ce0035;stroke:#ce0035;" x="346.844307" xlink:href="#m5f681938f0" y="249.164198"/>
     <use style="fill:#ce0035;stroke:#ce0035;" x="386.857862" xlink:href="#m5f681938f0" y="168.185234"/>
     <use style="fill:#ce0035;stroke:#ce0035;" x="439.752905" xlink:href="#m5f681938f0" y="116.604782"/>
     <use style="fill:#ce0035;stroke:#ce0035;" x="479.76646" xlink:href="#m5f681938f0" y="108.620641"/>
     <use style="fill:#ce0035;stroke:#ce0035;" x="519.780015" xlink:href="#m5f681938f0" y="111.099955"/>
     <use style="fill:#ce0035;stroke:#ce0035;" x="572.675058" xlink:href="#m5f681938f0" y="115.738097"/>
    </g>
   </g>
   <g id="line2d_62">
    <g clip-path="url(#p0d7f4968ea)">
     <use style="fill:#ce0035;stroke:#ce0035;" x="-1" xlink:href="#m5f681938f0" y="420.597909"/>
     <use style="fill:#ce0035;stroke:#ce0035;" x="121.013555" xlink:href="#m5f681938f0" y="420.597706"/>
     <use style="fill:#ce0035;stroke:#ce0035;" x="173.908598" xlink:href="#m5f681938f0" y="419.714396"/>
     <use style="fill:#ce0035;stroke:#ce0035;" x="213.922153" xlink:href="#m5f681938f0" y="417.02976"/>
     <use style="fill:#ce0035;stroke:#ce0035;" x="253.935709" xlink:href="#m5f681938f0" y="405.95689"/>
     <use style="fill:#ce0035;stroke:#ce0035;" x="306.830752" xlink:href="#m5f681938f0" y="344.778318"/>
     <use style="fill:#ce0035;stroke:#ce0035;" x="346.844307" xlink:href="#m5f681938f0" y="250.927283"/>
     <use style="fill:#ce0035;stroke:#ce0035;" x="386.857862" xlink:href="#m5f681938f0" y="171.585343"/>
     <use style="fill:#ce0035;stroke:#ce0035;" x="439.752905" xlink:href="#m5f681938f0" y="118.920951"/>
     <use style="fill:#ce0035;stroke:#ce0035;" x="479.76646" xlink:href="#m5f681938f0" y="111.588973"/>
     <use style="fill:#ce0035;stroke:#ce0035;" x="519.780015" xlink:href="#m5f681938f0" y="116.262389"/>
     <use style="fill:#ce0035;stroke:#ce0035;" x="572.675058" xlink:href="#m5f681938f0" y="121.063027"/>
    </g>
   </g>
   <g id="line2d_63">
    <g clip-path="url(#p0d7f4968ea)">
     <use style="fill:#ce0035;stroke:#ce0035;" x="-1" xlink:href="#m5f681938f0" y="420.565162"/>
     <use style="fill:#ce0035;stroke:#ce0035;" x="121.013555" xlink:href="#m5f681938f0" y="420.564931"/>
     <use style="fill:#ce0035;stroke:#ce0035;" x="173.908598" xlink:href="#m5f681938f0" y="419.770003"/>
     <use style="fill:#ce0035;stroke:#ce0035;" x="213.922153" xlink:href="#m5f681938f0" y="416.939041"/>
     <use style="fill:#ce0035;stroke:#ce0035;" x="253.935709" xlink:href="#m5f681938f0" y="405.751738"/>
     <use style="fill:#ce0035;stroke:#ce0035;" x="306.830752" xlink:href="#m5f681938f0" y="344.558136"/>
     <use style="fill:#ce0035;stroke:#ce0035;" x="346.844307" xlink:href="#m5f681938f0" y="250.531221"/>
     <use style="fill:#ce0035;stroke:#ce0035;" x="386.857862" xlink:href="#m5f681938f0" y="172.383131"/>
     <use style="fill:#ce0035;stroke:#ce0035;" x="439.752905" xlink:href="#m5f681938f0" y="124.441648"/>
     <use style="fill:#ce0035;stroke:#ce0035;" x="479.76646" xlink:href="#m5f681938f0" y="116.045754"/>
     <use style="fill:#ce0035;stroke:#ce0035;" x="519.780015" xlink:href="#m5f681938f0" y="119.941757"/>
     <use style="fill:#ce0035;stroke:#ce0035;" x="572.675058" xlink:href="#m5f681938f0" y="124.138998"/>
    </g>
   </g>
   <g id="patch_3">
    <path d="M 81 421.6464 
L 81 56.8512 
" style="fill:none;stroke:#000000;stroke-linecap:square;stroke-linejoin:miter;stroke-width:0.8;"/>
   </g>
   <g id="patch_4">
    <path d="M 81 421.6464 
L 583.2 421.6464 
" style="fill:none;stroke:#000000;stroke-linecap:square;stroke-linejoin:miter;stroke-width:0.8;"/>
   </g>
   <g id="legend_1">
    <g id="patch_5">
     <path d="M 91.5 176.886356 
L 189.8625 176.886356 
Q 192.8625 176.886356 192.8625 173.886356 
L 192.8625 67.3512 
Q 192.8625 64.3512 189.8625 64.3512 
L 91.5 64.3512 
Q 88.5 64.3512 88.5 67.3512 
L 88.5 173.886356 
Q 88.5 176.886356 91.5 176.886356 
z
" style="fill:#ffffff;opacity:0.8;stroke:#cccccc;stroke-linejoin:miter;"/>
    </g>
    <g id="line2d_64">
     <path d="M 94.5 76.205887 
L 124.5 76.205887 
" style="fill:none;stroke:#0099ff;stroke-linecap:square;stroke-width:1.5;"/>
    </g>
    <g id="line2d_65"/>
    <g id="text_15">
     <!-- WT -->
     <defs>
      <path d="M 75.296875 0 
L 64.9375 0 
L 47.859375 60.84375 
L 31.25 0 
L 20.90625 0 
L 1.953125 74.03125 
L 12.5 74.03125 
L 26.46875 13.875 
L 42.875 74.03125 
L 53.03125 74.03125 
L 69.921875 13.875 
L 83.5 74.03125 
L 94.046875 74.03125 
z
" id="Gargi-87"/>
      <path d="M 38.671875 65.71875 
L 38.671875 0 
L 29.203125 0 
L 29.203125 65.71875 
L 4.890625 65.71875 
L 4.890625 74.03125 
L 62.984375 74.03125 
L 62.984375 65.71875 
z
" id="Gargi-84"/>
     </defs>
     <g transform="translate(136.5 81.455887)scale(0.15 -0.15)">
      <use xlink:href="#Gargi-87"/>
      <use x="95.996094" xlink:href="#Gargi-84"/>
     </g>
    </g>
    <g id="line2d_66">
     <path d="M 94.5 97.812919 
L 124.5 97.812919 
" style="fill:none;stroke:#3372cc;stroke-linecap:square;stroke-width:1.5;"/>
    </g>
    <g id="line2d_67"/>
    <g id="text_16">
     <!-- GLAU1 -->
     <defs>
      <path d="M 14.359375 74.03125 
L 14.359375 8.296875 
L 50.875 8.296875 
L 50.875 0 
L 4.890625 0 
L 4.890625 74.03125 
z
" id="Gargi-76"/>
      <path d="M 48.640625 30.171875 
L 37.203125 63.875 
L 25.09375 30.171875 
z
M 51.265625 22.265625 
L 22.75 22.265625 
L 14.9375 0 
L 4.890625 0 
L 31.25 74.03125 
L 43.453125 74.03125 
L 69.4375 0 
L 58.890625 0 
z
" id="Gargi-65"/>
     </defs>
     <g transform="translate(136.5 103.062919)scale(0.15 -0.15)">
      <use xlink:href="#Gargi-71"/>
      <use x="75.292969" xlink:href="#Gargi-76"/>
      <use x="131.054688" xlink:href="#Gargi-65"/>
      <use x="205.371094" xlink:href="#Gargi-85"/>
      <use x="272.070312" xlink:href="#Gargi-49"/>
     </g>
    </g>
    <g id="line2d_68">
     <path d="M 94.5 119.41995 
L 124.5 119.41995 
" style="fill:none;stroke:#674c9a;stroke-linecap:square;stroke-width:1.5;"/>
    </g>
    <g id="line2d_69"/>
    <g id="text_17">
     <!-- GLAU2 -->
     <g transform="translate(136.5 124.66995)scale(0.15 -0.15)">
      <use xlink:href="#Gargi-71"/>
      <use x="75.292969" xlink:href="#Gargi-76"/>
      <use x="131.054688" xlink:href="#Gargi-65"/>
      <use x="205.371094" xlink:href="#Gargi-85"/>
      <use x="272.070312" xlink:href="#Gargi-50"/>
     </g>
    </g>
    <g id="line2d_70">
     <path d="M 94.5 141.026981 
L 124.5 141.026981 
" style="fill:none;stroke:#9a2667;stroke-linecap:square;stroke-width:1.5;"/>
    </g>
    <g id="line2d_71"/>
    <g id="text_18">
     <!-- GLAU3 -->
     <g transform="translate(136.5 146.276981)scale(0.15 -0.15)">
      <use xlink:href="#Gargi-71"/>
      <use x="75.292969" xlink:href="#Gargi-76"/>
      <use x="131.054688" xlink:href="#Gargi-65"/>
      <use x="205.371094" xlink:href="#Gargi-85"/>
      <use x="272.070312" xlink:href="#Gargi-51"/>
     </g>
    </g>
    <g id="line2d_72">
     <path d="M 94.5 162.634012 
L 124.5 162.634012 
" style="fill:none;stroke:#ce0035;stroke-linecap:square;stroke-width:1.5;"/>
    </g>
    <g id="line2d_73"/>
    <g id="text_19">
     <!-- GLAU4 -->
     <g transform="translate(136.5 167.884012)scale(0.15 -0.15)">
      <use xlink:href="#Gargi-71"/>
      <use x="75.292969" xlink:href="#Gargi-76"/>
      <use x="131.054688" xlink:href="#Gargi-65"/>
      <use x="205.371094" xlink:href="#Gargi-85"/>
      <use x="272.070312" xlink:href="#Gargi-52"/>
     </g>
    </g>
   </g>
  </g>
 </g>
 <defs>
  <clipPath id="p0d7f4968ea">
   <rect height="364.7952" width="502.2" x="81" y="56.8512"/>
  </clipPath>
 </defs>
</svg>
