<?xml version="1.0" encoding="utf-8" standalone="no"?>
<!DOCTYPE svg PUBLIC "-//W3C//DTD SVG 1.1//EN"
  "http://www.w3.org/Graphics/SVG/1.1/DTD/svg11.dtd">
<!-- Created with matplotlib (https://matplotlib.org/) -->
<svg height="473.76pt" version="1.1" viewBox="0 0 648 473.76" width="648pt" xmlns="http://www.w3.org/2000/svg" xmlns:xlink="http://www.w3.org/1999/xlink">
 <defs>
  <style type="text/css">
*{stroke-linecap:butt;stroke-linejoin:round;}
  </style>
 </defs>
 <g id="figure_1">
  <g id="patch_1">
   <path d="M 0 473.76 
L 648 473.76 
L 648 0 
L 0 0 
z
" style="fill:#ffffff;"/>
  </g>
  <g id="axes_1">
   <g id="patch_2">
    <path d="M 81 421.6464 
L 583.2 421.6464 
L 583.2 56.8512 
L 81 56.8512 
z
" style="fill:#ffffff;"/>
   </g>
   <g id="matplotlib.axis_1">
    <g id="xtick_1">
     <g id="line2d_1">
      <defs>
       <path d="M 0 0 
L 0 2 
" id="macd6bad0e4" style="stroke:#000000;"/>
      </defs>
      <g>
       <use style="stroke:#000000;" x="121.013555" xlink:href="#macd6bad0e4" y="421.6464"/>
      </g>
     </g>
     <g id="text_1">
      <!-- $\mathdefault{10^{-1}}$ -->
      <defs>
       <path d="M 22.75 51.265625 
L 6.84375 51.265625 
L 6.84375 57.71875 
Q 17.1875 58.984375 20.21875 61.328125 
Q 23.34375 63.578125 25.390625 70.796875 
L 25.875 71.96875 
L 31.734375 71.96875 
L 31.734375 0 
L 22.75 0 
z
" id="Gargi-49"/>
       <path d="M 41.890625 37.5 
Q 41.890625 66.5 27.4375 66.5 
Q 12.984375 66.5 12.984375 37.203125 
Q 12.984375 7.515625 27.25 7.515625 
Q 39.265625 7.515625 41.3125 27.046875 
Q 41.890625 31.734375 41.890625 37.5 
z
M 27.4375 74.421875 
Q 37.890625 74.421875 44.046875 66.5 
Q 50.984375 56.9375 50.984375 36.625 
Q 50.984375 9.1875 37.015625 2.15625 
Q 32.71875 0.09375 27.4375 0.09375 
Q 9.578125 0.09375 5.171875 22.078125 
Q 3.90625 28.71875 3.90625 37.3125 
Q 3.90625 57.125 10.84375 66.5 
Q 16.40625 74.421875 25.984375 74.421875 
z
" id="Gargi-48"/>
       <path d="M 52.203125 4 
L 47.40625 -1 
L 37.59375 8.796875 
Q 31.703125 4.703125 25.09375 4.703125 
Q 18.296875 4.703125 12.40625 8.796875 
L 2.796875 -1 
L -2.203125 4 
L 7.59375 13.59375 
Q 3.5 19.5 3.5 26.203125 
Q 3.5 33.09375 7.59375 38.796875 
L -2.203125 48.59375 
L 2.796875 53.40625 
L 12.40625 43.796875 
Q 18.5 47.703125 25.09375 47.703125 
Q 32 47.703125 37.59375 43.796875 
L 47.40625 53.40625 
L 52.203125 48.59375 
L 42.59375 38.796875 
Q 46.5 33 46.5 26.296875 
Q 46.5 19.703125 42.59375 13.59375 
z
M 39.703125 26.40625 
Q 39.703125 32.59375 35.390625 36.9375 
Q 31.09375 41.296875 24.90625 41.296875 
Q 18.90625 41.296875 14.59375 36.890625 
Q 10.296875 32.5 10.296875 26.296875 
Q 10.296875 20 14.640625 15.546875 
Q 19 11.09375 25.09375 11.09375 
Q 31.296875 11.09375 35.5 15.546875 
Q 39.703125 20 39.703125 26.40625 
z
" id="STIXGeneral-Regular-164"/>
      </defs>
      <g transform="translate(106.973555 440.472025)scale(0.18 -0.18)">
       <use transform="translate(0 0.36875)" xlink:href="#Gargi-49"/>
       <use transform="translate(36.621094 0.36875)" xlink:href="#Gargi-48"/>
       <use transform="translate(92.435234 37.621875)scale(0.7)" xlink:href="#STIXGeneral-Regular-164"/>
       <use transform="translate(127.435224 37.621875)scale(0.7)" xlink:href="#Gargi-49"/>
      </g>
     </g>
    </g>
    <g id="xtick_2">
     <g id="line2d_2">
      <g>
       <use style="stroke:#000000;" x="253.935709" xlink:href="#macd6bad0e4" y="421.6464"/>
      </g>
     </g>
     <g id="text_2">
      <!-- $\mathdefault{10^{0}}$ -->
      <g transform="translate(241.875709 440.472025)scale(0.18 -0.18)">
       <use transform="translate(0 0.651563)" xlink:href="#Gargi-49"/>
       <use transform="translate(36.621094 0.651563)" xlink:href="#Gargi-48"/>
       <use transform="translate(92.435234 37.904688)scale(0.7)" xlink:href="#Gargi-48"/>
      </g>
     </g>
    </g>
    <g id="xtick_3">
     <g id="line2d_3">
      <g>
       <use style="stroke:#000000;" x="386.857862" xlink:href="#macd6bad0e4" y="421.6464"/>
      </g>
     </g>
     <g id="text_3">
      <!-- $\mathdefault{10^{1}}$ -->
      <g transform="translate(375.967862 440.472025)scale(0.18 -0.18)">
       <use transform="translate(0 0.36875)" xlink:href="#Gargi-49"/>
       <use transform="translate(36.621094 0.36875)" xlink:href="#Gargi-48"/>
       <use transform="translate(92.435234 37.621875)scale(0.7)" xlink:href="#Gargi-49"/>
      </g>
     </g>
    </g>
    <g id="xtick_4">
     <g id="line2d_4">
      <g>
       <use style="stroke:#000000;" x="519.780015" xlink:href="#macd6bad0e4" y="421.6464"/>
      </g>
     </g>
     <g id="text_4">
      <!-- $\mathdefault{10^{2}}$ -->
      <defs>
       <path d="M 54.78125 8.796875 
L 54.78125 0 
L 6.84375 0 
Q 6.84375 12.984375 12.703125 19.828125 
Q 17.96875 25.984375 27.046875 31.15625 
L 36.421875 36.421875 
Q 46.1875 42.09375 46.1875 50.6875 
Q 46.1875 58.015625 40.046875 61.921875 
Q 36.53125 64.15625 31.9375 64.15625 
Q 24.3125 64.15625 20.3125 58.40625 
L 19.53125 57.234375 
Q 17.484375 53.90625 17.484375 47.078125 
L 8.5 47.078125 
Q 8.5 57.234375 12.40625 62.703125 
Q 19.046875 71.96875 32.234375 71.96875 
Q 42.28125 71.96875 48.640625 66.3125 
Q 55.28125 60.25 55.28125 50.875 
Q 55.28125 37.5 40.046875 29.109375 
L 29.890625 23.640625 
Q 20.703125 18.265625 18.265625 13.28125 
Q 17.28125 11.234375 16.890625 8.796875 
z
" id="Gargi-50"/>
      </defs>
      <g transform="translate(507.270015 440.472025)scale(0.18 -0.18)">
       <use transform="translate(0 0.36875)" xlink:href="#Gargi-49"/>
       <use transform="translate(36.621094 0.36875)" xlink:href="#Gargi-48"/>
       <use transform="translate(92.435234 37.621875)scale(0.7)" xlink:href="#Gargi-50"/>
      </g>
     </g>
    </g>
    <g id="xtick_5">
     <g id="line2d_5">
      <defs>
       <path d="M 0 0 
L 0 2 
" id="m4471a76e93" style="stroke:#000000;stroke-width:0.6;"/>
      </defs>
      <g>
       <use style="stroke:#000000;stroke-width:0.6;" x="81" xlink:href="#m4471a76e93" y="421.6464"/>
      </g>
     </g>
    </g>
    <g id="xtick_6">
     <g id="line2d_6">
      <g>
       <use style="stroke:#000000;stroke-width:0.6;" x="91.524942" xlink:href="#m4471a76e93" y="421.6464"/>
      </g>
     </g>
    </g>
    <g id="xtick_7">
     <g id="line2d_7">
      <g>
       <use style="stroke:#000000;stroke-width:0.6;" x="100.423653" xlink:href="#m4471a76e93" y="421.6464"/>
      </g>
     </g>
    </g>
    <g id="xtick_8">
     <g id="line2d_8">
      <g>
       <use style="stroke:#000000;stroke-width:0.6;" x="108.132068" xlink:href="#m4471a76e93" y="421.6464"/>
      </g>
     </g>
    </g>
    <g id="xtick_9">
     <g id="line2d_9">
      <g>
       <use style="stroke:#000000;stroke-width:0.6;" x="114.931371" xlink:href="#m4471a76e93" y="421.6464"/>
      </g>
     </g>
    </g>
    <g id="xtick_10">
     <g id="line2d_10">
      <g>
       <use style="stroke:#000000;stroke-width:0.6;" x="161.027111" xlink:href="#m4471a76e93" y="421.6464"/>
      </g>
     </g>
    </g>
    <g id="xtick_11">
     <g id="line2d_11">
      <g>
       <use style="stroke:#000000;stroke-width:0.6;" x="184.43354" xlink:href="#m4471a76e93" y="421.6464"/>
      </g>
     </g>
    </g>
    <g id="xtick_12">
     <g id="line2d_12">
      <g>
       <use style="stroke:#000000;stroke-width:0.6;" x="201.040666" xlink:href="#m4471a76e93" y="421.6464"/>
      </g>
     </g>
    </g>
    <g id="xtick_13">
     <g id="line2d_13">
      <g>
       <use style="stroke:#000000;stroke-width:0.6;" x="213.922153" xlink:href="#m4471a76e93" y="421.6464"/>
      </g>
     </g>
    </g>
    <g id="xtick_14">
     <g id="line2d_14">
      <g>
       <use style="stroke:#000000;stroke-width:0.6;" x="224.447095" xlink:href="#m4471a76e93" y="421.6464"/>
      </g>
     </g>
    </g>
    <g id="xtick_15">
     <g id="line2d_15">
      <g>
       <use style="stroke:#000000;stroke-width:0.6;" x="233.345807" xlink:href="#m4471a76e93" y="421.6464"/>
      </g>
     </g>
    </g>
    <g id="xtick_16">
     <g id="line2d_16">
      <g>
       <use style="stroke:#000000;stroke-width:0.6;" x="241.054221" xlink:href="#m4471a76e93" y="421.6464"/>
      </g>
     </g>
    </g>
    <g id="xtick_17">
     <g id="line2d_17">
      <g>
       <use style="stroke:#000000;stroke-width:0.6;" x="247.853524" xlink:href="#m4471a76e93" y="421.6464"/>
      </g>
     </g>
    </g>
    <g id="xtick_18">
     <g id="line2d_18">
      <g>
       <use style="stroke:#000000;stroke-width:0.6;" x="293.949264" xlink:href="#m4471a76e93" y="421.6464"/>
      </g>
     </g>
    </g>
    <g id="xtick_19">
     <g id="line2d_19">
      <g>
       <use style="stroke:#000000;stroke-width:0.6;" x="317.355693" xlink:href="#m4471a76e93" y="421.6464"/>
      </g>
     </g>
    </g>
    <g id="xtick_20">
     <g id="line2d_20">
      <g>
       <use style="stroke:#000000;stroke-width:0.6;" x="333.962819" xlink:href="#m4471a76e93" y="421.6464"/>
      </g>
     </g>
    </g>
    <g id="xtick_21">
     <g id="line2d_21">
      <g>
       <use style="stroke:#000000;stroke-width:0.6;" x="346.844307" xlink:href="#m4471a76e93" y="421.6464"/>
      </g>
     </g>
    </g>
    <g id="xtick_22">
     <g id="line2d_22">
      <g>
       <use style="stroke:#000000;stroke-width:0.6;" x="357.369248" xlink:href="#m4471a76e93" y="421.6464"/>
      </g>
     </g>
    </g>
    <g id="xtick_23">
     <g id="line2d_23">
      <g>
       <use style="stroke:#000000;stroke-width:0.6;" x="366.26796" xlink:href="#m4471a76e93" y="421.6464"/>
      </g>
     </g>
    </g>
    <g id="xtick_24">
     <g id="line2d_24">
      <g>
       <use style="stroke:#000000;stroke-width:0.6;" x="373.976374" xlink:href="#m4471a76e93" y="421.6464"/>
      </g>
     </g>
    </g>
    <g id="xtick_25">
     <g id="line2d_25">
      <g>
       <use style="stroke:#000000;stroke-width:0.6;" x="380.775678" xlink:href="#m4471a76e93" y="421.6464"/>
      </g>
     </g>
    </g>
    <g id="xtick_26">
     <g id="line2d_26">
      <g>
       <use style="stroke:#000000;stroke-width:0.6;" x="426.871417" xlink:href="#m4471a76e93" y="421.6464"/>
      </g>
     </g>
    </g>
    <g id="xtick_27">
     <g id="line2d_27">
      <g>
       <use style="stroke:#000000;stroke-width:0.6;" x="450.277847" xlink:href="#m4471a76e93" y="421.6464"/>
      </g>
     </g>
    </g>
    <g id="xtick_28">
     <g id="line2d_28">
      <g>
       <use style="stroke:#000000;stroke-width:0.6;" x="466.884973" xlink:href="#m4471a76e93" y="421.6464"/>
      </g>
     </g>
    </g>
    <g id="xtick_29">
     <g id="line2d_29">
      <g>
       <use style="stroke:#000000;stroke-width:0.6;" x="479.76646" xlink:href="#m4471a76e93" y="421.6464"/>
      </g>
     </g>
    </g>
    <g id="xtick_30">
     <g id="line2d_30">
      <g>
       <use style="stroke:#000000;stroke-width:0.6;" x="490.291402" xlink:href="#m4471a76e93" y="421.6464"/>
      </g>
     </g>
    </g>
    <g id="xtick_31">
     <g id="line2d_31">
      <g>
       <use style="stroke:#000000;stroke-width:0.6;" x="499.190113" xlink:href="#m4471a76e93" y="421.6464"/>
      </g>
     </g>
    </g>
    <g id="xtick_32">
     <g id="line2d_32">
      <g>
       <use style="stroke:#000000;stroke-width:0.6;" x="506.898528" xlink:href="#m4471a76e93" y="421.6464"/>
      </g>
     </g>
    </g>
    <g id="xtick_33">
     <g id="line2d_33">
      <g>
       <use style="stroke:#000000;stroke-width:0.6;" x="513.697831" xlink:href="#m4471a76e93" y="421.6464"/>
      </g>
     </g>
    </g>
    <g id="xtick_34">
     <g id="line2d_34">
      <g>
       <use style="stroke:#000000;stroke-width:0.6;" x="559.793571" xlink:href="#m4471a76e93" y="421.6464"/>
      </g>
     </g>
    </g>
    <g id="xtick_35">
     <g id="line2d_35">
      <g>
       <use style="stroke:#000000;stroke-width:0.6;" x="583.2" xlink:href="#m4471a76e93" y="421.6464"/>
      </g>
     </g>
    </g>
    <g id="text_5">
     <!-- Noscapine (uM) -->
     <defs>
      <path d="M 62.796875 74.03125 
L 62.796875 0 
L 52.15625 0 
L 13.875 60.0625 
L 13.875 0 
L 4.890625 0 
L 4.890625 74.03125 
L 15.140625 74.03125 
L 53.8125 13.484375 
L 53.8125 74.03125 
z
" id="Gargi-78"/>
      <path d="M 27.046875 49.21875 
Q 17.578125 49.21875 13.765625 39.9375 
Q 11.8125 35.0625 11.8125 28.515625 
Q 11.8125 14.65625 19.734375 9.765625 
Q 22.859375 7.8125 27.046875 7.8125 
Q 36.234375 7.8125 40.140625 16.796875 
Q 42.28125 21.578125 42.28125 28.21875 
Q 42.28125 42.96875 33.984375 47.65625 
Q 30.859375 49.21875 27.046875 49.21875 
z
M 26.953125 57.125 
Q 42.28125 57.125 48.140625 43.953125 
Q 51.078125 37.3125 51.078125 28.125 
Q 51.078125 11.140625 40.71875 4 
Q 35.0625 0 27.046875 0 
Q 12.40625 0 6.34375 12.109375 
Q 2.9375 18.953125 2.9375 28.515625 
Q 2.9375 46.1875 13.671875 53.328125 
Q 19.234375 57.125 26.953125 57.125 
z
" id="Gargi-111"/>
      <path d="M 44.046875 40.53125 
L 35.0625 40.53125 
Q 34.765625 49.03125 24.421875 49.03125 
Q 16.109375 49.03125 13.765625 44.140625 
Q 13.09375 42.671875 13.09375 41.015625 
Q 13.09375 36.53125 19.828125 34.28125 
Q 21.296875 33.796875 22.953125 33.40625 
L 31.0625 31.546875 
Q 43.0625 28.609375 45.40625 21.578125 
Q 46.09375 19.4375 46.09375 16.703125 
Q 46.09375 7.03125 37.203125 2.546875 
Q 31.84375 -0.203125 24.21875 -0.203125 
Q 4.5 -0.203125 3.03125 16.3125 
Q 2.9375 17.09375 2.9375 17.96875 
L 11.921875 17.96875 
Q 12.5 13.1875 14.359375 11.234375 
Q 17.671875 7.625 24.90625 7.625 
Q 33.40625 7.625 36.234375 12.40625 
Q 37.3125 14.0625 37.3125 15.921875 
Q 37.3125 20.609375 31.84375 22.5625 
Q 30.5625 22.953125 29.109375 23.34375 
L 21.1875 25.296875 
Q 9.078125 28.328125 5.953125 33.40625 
Q 4.296875 36.234375 4.296875 40.625 
Q 4.296875 50.09375 12.796875 54.390625 
Q 17.78125 56.9375 24.703125 56.9375 
Q 39.453125 56.9375 42.96875 46.6875 
Q 44.046875 43.84375 44.046875 40.53125 
z
" id="Gargi-115"/>
      <path d="M 47.65625 37.796875 
L 39.0625 37.796875 
Q 37.796875 47.65625 29.296875 49.125 
Q 27.9375 49.3125 26.5625 49.3125 
Q 17 49.3125 13.375 39.15625 
Q 11.8125 34.578125 11.8125 28.125 
Q 11.8125 14.265625 19.828125 9.671875 
Q 22.75 7.90625 26.765625 7.90625 
Q 37.59375 7.90625 39.75 20.703125 
L 48.25 20.703125 
Q 48.25 6.84375 36.53125 2.15625 
Q 32.234375 0.09375 26.5625 0.09375 
Q 13.375 0.09375 7.125 10.75 
Q 2.9375 17.875 2.9375 28.125 
Q 2.9375 44.4375 12.3125 52.25 
Q 18.265625 57.234375 26.65625 57.234375 
Q 37.40625 57.234375 43.265625 50.296875 
L 44.046875 49.21875 
Q 47.078125 44.921875 47.65625 37.796875 
z
" id="Gargi-99"/>
      <path d="M 38.1875 19.140625 
L 38.1875 28.609375 
Q 34.859375 27.15625 26.5625 25.984375 
Q 25.6875 25.875 24.515625 25.6875 
Q 13.765625 24.21875 12.109375 18.65625 
Q 11.71875 17.484375 11.71875 15.921875 
Q 11.71875 9.375 18.5625 7.8125 
Q 20.125 7.421875 22.171875 7.421875 
Q 29.203125 7.421875 34.765625 12.203125 
Q 38.1875 15.140625 38.1875 19.140625 
z
M 52.9375 7.328125 
L 52.9375 0.875 
Q 49.421875 0 47.171875 0 
Q 39.9375 0 38.671875 6.453125 
L 38.484375 7.8125 
Q 29.59375 0 20.40625 0 
Q 9.1875 0 4.78125 7.625 
Q 2.9375 11.140625 2.9375 15.71875 
Q 2.9375 26.078125 12.203125 29.984375 
Q 15.921875 31.453125 25.484375 32.71875 
L 29.296875 33.203125 
Q 36.71875 34.1875 37.796875 37.109375 
Q 38.1875 37.890625 38.1875 39.0625 
L 38.1875 41.3125 
Q 38.1875 47.859375 29.890625 49.03125 
Q 28.21875 49.21875 26.265625 49.21875 
Q 15.828125 49.21875 14.0625 41.609375 
Q 13.875 40.71875 13.765625 39.84375 
L 5.28125 39.84375 
Q 5.5625 47.171875 8.890625 50.875 
Q 14.453125 57.125 26.5625 57.125 
Q 44.4375 57.125 46.390625 45.3125 
Q 46.578125 43.953125 46.578125 42.578125 
L 46.578125 11.328125 
Q 46.578125 7.125 51.171875 7.125 
Q 52.046875 7.125 52.9375 7.328125 
z
" id="Gargi-97"/>
      <path d="M 28.21875 48.921875 
Q 19.828125 48.921875 15.828125 40.4375 
Q 13.484375 35.359375 13.484375 28.328125 
Q 13.484375 15.625 20.40625 10.359375 
Q 23.828125 7.71875 28.21875 7.71875 
Q 36.8125 7.71875 41.015625 15.921875 
Q 43.65625 21 43.65625 28.03125 
Q 43.65625 40.921875 36.53125 46.296875 
Q 32.90625 48.921875 28.21875 48.921875 
z
M 4.890625 -20.015625 
L 4.890625 55.375 
L 12.703125 55.375 
L 12.703125 47.359375 
Q 18.75 56.9375 29.6875 56.9375 
Q 42.578125 56.9375 48.640625 45.609375 
Q 52.546875 38.375 52.546875 27.828125 
Q 52.546875 12.203125 43.453125 4.59375 
Q 37.796875 -0.203125 29.78125 -0.203125 
Q 19.921875 -0.203125 13.484375 7.71875 
L 13.484375 -20.015625 
z
" id="Gargi-112"/>
      <path d="M 15.328125 74.03125 
L 15.328125 63.375 
L 6.84375 63.375 
L 6.84375 74.03125 
z
M 15.328125 53.21875 
L 15.328125 0 
L 6.9375 0 
L 6.9375 53.21875 
z
" id="Gargi-105"/>
      <path d="M 4.890625 53.21875 
L 12.703125 53.21875 
L 12.703125 44.234375 
Q 18.171875 52.9375 25.875 54.296875 
Q 27.9375 54.78125 30.375 54.78125 
Q 41.015625 54.78125 45.3125 47.65625 
Q 47.171875 44.34375 47.171875 40.234375 
L 47.171875 0 
L 38.765625 0 
L 38.765625 36.921875 
Q 38.765625 43.953125 32.8125 46.390625 
Q 30.5625 47.359375 27.828125 47.359375 
Q 19.234375 47.359375 15.53125 39.546875 
Q 13.375 35.25 13.375 29.390625 
L 13.375 0 
L 4.890625 0 
z
" id="Gargi-110"/>
      <path d="M 11.921875 32.90625 
L 41.796875 32.90625 
Q 41.890625 33.109375 41.890625 33.5 
Q 41.890625 41.703125 35.9375 46.1875 
Q 32.03125 49.125 27.15625 49.125 
Q 18.5625 49.125 14.359375 41.5 
Q 12.3125 37.890625 11.921875 32.90625 
z
M 50.984375 25.984375 
L 11.71875 25.984375 
Q 11.8125 18.65625 14.546875 14.65625 
Q 18.953125 7.71875 27.34375 7.71875 
Q 37.703125 7.71875 41.3125 18.359375 
L 49.8125 18.359375 
Q 47.5625 6.15625 37.015625 1.765625 
Q 32.515625 -0.09375 27.046875 -0.09375 
Q 13.28125 -0.09375 6.84375 11.03125 
Q 2.9375 17.96875 2.9375 28.125 
Q 2.9375 44.234375 12.40625 52.046875 
Q 18.5625 57.03125 27.25 57.03125 
Q 38.96875 57.03125 45.515625 48.640625 
Q 47.5625 46.09375 48.828125 42.96875 
Q 50.984375 37.40625 50.984375 25.984375 
z
" id="Gargi-101"/>
      <path id="Gargi-32"/>
      <path d="M 23.921875 74.03125 
L 29.59375 74.03125 
Q 15.71875 55.375 15.71875 30.46875 
Q 15.71875 28.328125 15.625 26.265625 
Q 15.53125 24.90625 15.53125 23.53125 
Q 15.53125 4.59375 28.03125 -18.953125 
Q 28.8125 -20.515625 29.59375 -21.484375 
L 23.921875 -21.484375 
Q 12.5 -6.546875 8.6875 12.984375 
Q 7.421875 19.921875 7.421875 26.265625 
Q 7.421875 44.53125 16.890625 62.703125 
Q 20.015625 68.84375 23.921875 74.03125 
z
" id="Gargi-40"/>
      <path d="M 47.171875 2.25 
L 39.546875 2.25 
L 39.546875 9.671875 
Q 33.890625 1.65625 26.375 0.296875 
Q 24.3125 -0.09375 21.78125 -0.09375 
Q 10.9375 -0.09375 6.734375 7.03125 
Q 4.890625 10.25 4.890625 14.453125 
L 4.890625 55.46875 
L 13.28125 55.46875 
L 13.28125 17.78125 
Q 13.28125 10.640625 19.234375 8.203125 
Q 21.484375 7.328125 24.21875 7.328125 
Q 32.90625 7.328125 36.71875 15.234375 
Q 38.765625 19.53125 38.765625 25.296875 
L 38.765625 55.46875 
L 47.171875 55.46875 
z
" id="Gargi-117"/>
      <path d="M 44.828125 0 
L 34.859375 0 
L 13.875 62.015625 
L 13.875 0 
L 4.890625 0 
L 4.890625 74.03125 
L 17.96875 74.03125 
L 39.9375 9.578125 
L 61.421875 74.03125 
L 74.515625 74.03125 
L 74.515625 0 
L 65.625 0 
L 65.625 62.015625 
z
" id="Gargi-77"/>
      <path d="M 9.46875 -21.484375 
L 3.90625 -21.484375 
Q 17.78125 -1.078125 17.78125 22.078125 
Q 17.78125 23.140625 17.78125 24.125 
Q 17.78125 25.203125 17.78125 26.171875 
Q 17.78125 48.046875 5.375 71.484375 
Q 4.5 73.140625 3.90625 74.03125 
L 9.46875 74.03125 
Q 20.90625 58.984375 24.703125 39.546875 
Q 25.984375 32.625 25.984375 26.171875 
Q 25.984375 8.015625 16.609375 -10.15625 
Q 13.375 -16.3125 9.46875 -21.484375 
z
" id="Gargi-41"/>
     </defs>
     <g transform="translate(259.207813 462.881087)scale(0.2 -0.2)">
      <use xlink:href="#Gargi-78"/>
      <use x="67.675781" xlink:href="#Gargi-111"/>
      <use x="121.679688" xlink:href="#Gargi-115"/>
      <use x="170.703125" xlink:href="#Gargi-99"/>
      <use x="221.875" xlink:href="#Gargi-97"/>
      <use x="279.6875" xlink:href="#Gargi-112"/>
      <use x="337.109375" xlink:href="#Gargi-105"/>
      <use x="359.277344" xlink:href="#Gargi-110"/>
      <use x="411.328125" xlink:href="#Gargi-101"/>
      <use x="467.1875" xlink:href="#Gargi-32"/>
      <use x="491.601562" xlink:href="#Gargi-40"/>
      <use x="544.53125" xlink:href="#Gargi-117"/>
      <use x="596.582031" xlink:href="#Gargi-77"/>
      <use x="675.976562" xlink:href="#Gargi-41"/>
     </g>
    </g>
   </g>
   <g id="matplotlib.axis_2">
    <g id="ytick_1">
     <g id="line2d_36">
      <defs>
       <path d="M 0 0 
L -2 0 
" id="mfcdad5fb6f" style="stroke:#000000;"/>
      </defs>
      <g>
       <use style="stroke:#000000;" x="81" xlink:href="#mfcdad5fb6f" y="421.6464"/>
      </g>
     </g>
     <g id="text_6">
      <!-- 0 -->
      <g transform="translate(65.619687 428.309213)scale(0.18 -0.18)">
       <use xlink:href="#Gargi-48"/>
      </g>
     </g>
    </g>
    <g id="ytick_2">
     <g id="line2d_37">
      <g>
       <use style="stroke:#000000;" x="81" xlink:href="#mfcdad5fb6f" y="373.00704"/>
      </g>
     </g>
     <g id="text_7">
      <!-- 1 -->
      <g transform="translate(68.9075 379.669852)scale(0.18 -0.18)">
       <use xlink:href="#Gargi-49"/>
      </g>
     </g>
    </g>
    <g id="ytick_3">
     <g id="line2d_38">
      <g>
       <use style="stroke:#000000;" x="81" xlink:href="#mfcdad5fb6f" y="324.36768"/>
      </g>
     </g>
     <g id="text_8">
      <!-- 2 -->
      <g transform="translate(64.320312 331.030493)scale(0.18 -0.18)">
       <use xlink:href="#Gargi-50"/>
      </g>
     </g>
    </g>
    <g id="ytick_4">
     <g id="line2d_39">
      <g>
       <use style="stroke:#000000;" x="81" xlink:href="#mfcdad5fb6f" y="275.72832"/>
      </g>
     </g>
     <g id="text_9">
      <!-- 3 -->
      <defs>
       <path d="M 26.078125 35.25 
L 26.078125 42.78125 
Q 34.578125 42.78125 37.984375 44.34375 
Q 43.75 46.96875 43.75 54 
Q 43.75 62.703125 36.625 65.4375 
Q 34.1875 66.3125 31.0625 66.3125 
Q 23.046875 66.3125 19.4375 60.84375 
Q 19.140625 60.359375 18.953125 59.96875 
Q 17.28125 57.03125 17.28125 50.875 
L 8.40625 50.875 
Q 8.40625 74.03125 27.640625 74.03125 
Q 28.71875 74.03125 30.953125 74.125 
Q 31.734375 74.125 32.421875 74.125 
Q 44.734375 74.125 50.390625 64.65625 
Q 52.828125 60.453125 52.828125 54.390625 
Q 52.828125 43.359375 42.78125 39.453125 
Q 52.25 36.140625 54.296875 28.421875 
Q 54.984375 25.78125 54.984375 22.265625 
Q 54.984375 9.859375 45.40625 3.71875 
Q 39.265625 -0.203125 30.671875 -0.203125 
Q 15.625 -0.203125 10.0625 10.25 
Q 6.84375 15.140625 6.84375 23.046875 
L 15.828125 23.046875 
Q 15.828125 9.671875 27.25 8.015625 
Q 29.296875 7.71875 30.953125 7.71875 
Q 41.5 7.71875 44.734375 15.71875 
Q 45.90625 18.5625 45.90625 22.171875 
Q 45.90625 35.25 30.953125 35.25 
L 27.15625 35.25 
z
" id="Gargi-51"/>
      </defs>
      <g transform="translate(64.725313 282.391133)scale(0.18 -0.18)">
       <use xlink:href="#Gargi-51"/>
      </g>
     </g>
    </g>
    <g id="ytick_5">
     <g id="line2d_40">
      <g>
       <use style="stroke:#000000;" x="81" xlink:href="#mfcdad5fb6f" y="227.08896"/>
      </g>
     </g>
     <g id="text_10">
      <!-- 4 -->
      <defs>
       <path d="M 37.203125 25.296875 
L 37.203125 56.734375 
L 14.65625 25.296875 
z
M 37.203125 17.28125 
L 6.84375 17.28125 
L 6.84375 26.765625 
L 39.546875 71.96875 
L 46.1875 71.96875 
L 46.1875 25.296875 
L 56.84375 25.296875 
L 56.84375 17.28125 
L 46.1875 17.28125 
L 46.1875 0 
L 37.203125 0 
z
" id="Gargi-52"/>
      </defs>
      <g transform="translate(64.039062 233.751772)scale(0.18 -0.18)">
       <use xlink:href="#Gargi-52"/>
      </g>
     </g>
    </g>
    <g id="ytick_6">
     <g id="line2d_41">
      <g>
       <use style="stroke:#000000;" x="81" xlink:href="#mfcdad5fb6f" y="178.4496"/>
      </g>
     </g>
     <g id="text_11">
      <!-- 5 -->
      <defs>
       <path d="M 51.65625 74.21875 
L 51.65625 65.4375 
L 21.6875 65.4375 
L 18.84375 45.3125 
Q 24.8125 49.703125 32.125 49.703125 
Q 44.34375 49.703125 50.875 40.828125 
Q 55.46875 34.671875 55.46875 25.6875 
Q 55.46875 12.59375 46.578125 5.28125 
Q 40.046875 -0.09375 30.765625 -0.09375 
Q 19.34375 -0.09375 12.796875 6.734375 
Q 11.921875 7.625 11.234375 8.5 
Q 8.5 11.921875 6.84375 19.921875 
L 15.828125 19.921875 
Q 18.953125 7.8125 30.5625 7.8125 
Q 40.828125 7.8125 44.625 16.015625 
Q 46.296875 19.734375 46.296875 24.515625 
Q 46.296875 35.546875 38.578125 39.84375 
Q 35.15625 41.796875 30.5625 41.796875 
Q 24.03125 41.796875 19.4375 37.40625 
L 17.390625 35.0625 
L 9.078125 35.0625 
L 14.453125 74.21875 
z
" id="Gargi-53"/>
      </defs>
      <g transform="translate(64.28375 185.112413)scale(0.18 -0.18)">
       <use xlink:href="#Gargi-53"/>
      </g>
     </g>
    </g>
    <g id="ytick_7">
     <g id="line2d_42">
      <g>
       <use style="stroke:#000000;" x="81" xlink:href="#mfcdad5fb6f" y="129.81024"/>
      </g>
     </g>
     <g id="text_12">
      <!-- 6 -->
      <defs>
       <path d="M 29.390625 39.15625 
Q 20.796875 39.15625 16.703125 32.421875 
Q 14.546875 28.71875 14.546875 24.03125 
Q 14.546875 15.234375 20.703125 10.546875 
Q 24.3125 7.8125 29.109375 7.8125 
Q 36.8125 7.8125 40.921875 14.265625 
Q 43.453125 18.265625 43.453125 23.4375 
Q 43.453125 33.796875 36.234375 37.59375 
Q 33.296875 39.15625 29.390625 39.15625 
z
M 51.078125 55.46875 
L 42.09375 55.46875 
Q 40.328125 64.359375 32.90625 66.015625 
Q 31.546875 66.3125 30.078125 66.3125 
Q 18.75 66.3125 15.328125 51.65625 
Q 13.96875 46.1875 13.96875 38.96875 
Q 19.921875 47.078125 30.5625 47.078125 
Q 41.796875 47.078125 48.140625 38.578125 
Q 52.640625 32.625 52.640625 24.21875 
Q 52.640625 12.109375 44.234375 5.171875 
Q 37.984375 -0.09375 29 -0.09375 
Q 17.09375 -0.09375 10.9375 8.890625 
Q 4.890625 17.78125 4.890625 33.890625 
L 4.890625 35.0625 
Q 4.890625 53.8125 11.328125 63.96875 
Q 17.09375 72.5625 27.25 74.03125 
Q 28.90625 74.21875 30.671875 74.21875 
Q 42.28125 74.21875 47.953125 64.84375 
Q 50.296875 60.84375 51.078125 55.46875 
z
" id="Gargi-54"/>
      </defs>
      <g transform="translate(65.147188 136.473052)scale(0.18 -0.18)">
       <use xlink:href="#Gargi-54"/>
      </g>
     </g>
    </g>
    <g id="ytick_8">
     <g id="line2d_43">
      <g>
       <use style="stroke:#000000;" x="81" xlink:href="#mfcdad5fb6f" y="81.17088"/>
      </g>
     </g>
     <g id="text_13">
      <!-- 7 -->
      <defs>
       <path d="M 54.984375 71.96875 
L 54.984375 64.453125 
Q 34.46875 37.3125 27.734375 9.765625 
Q 26.5625 4.984375 25.6875 0 
L 16.21875 0 
Q 21.296875 22.171875 30.671875 39.546875 
Q 36.234375 49.8125 45.703125 63.1875 
L 6.84375 63.1875 
L 6.84375 71.96875 
z
" id="Gargi-55"/>
      </defs>
      <g transform="translate(64.725313 87.833692)scale(0.18 -0.18)">
       <use xlink:href="#Gargi-55"/>
      </g>
     </g>
    </g>
    <g id="text_14">
     <!-- Fluorescence (RFU/OD600) -->
     <defs>
      <path d="M 14.265625 33.6875 
L 14.265625 0 
L 4.890625 0 
L 4.890625 74.03125 
L 54.5 74.03125 
L 54.5 65.71875 
L 14.265625 65.71875 
L 14.265625 42.09375 
L 49.609375 42.09375 
L 49.609375 33.6875 
z
" id="Gargi-70"/>
      <path d="M 15.328125 74.03125 
L 15.328125 0 
L 6.84375 0 
L 6.84375 74.03125 
z
" id="Gargi-108"/>
      <path d="M 4.890625 53.21875 
L 12.703125 53.21875 
L 12.703125 43.5625 
Q 18.5625 53.03125 24.421875 54.390625 
Q 25.78125 54.78125 27.25 54.78125 
Q 28.328125 54.78125 30.46875 54.390625 
L 30.46875 45.796875 
Q 23.140625 45.703125 20.015625 43.5625 
L 19.34375 43.171875 
Q 13.375 38.765625 13.375 27.640625 
L 13.375 0 
L 4.890625 0 
z
" id="Gargi-114"/>
      <path d="M 14.265625 40.234375 
L 37.109375 40.234375 
Q 49.421875 40.234375 51.265625 48.921875 
Q 51.65625 50.6875 51.65625 52.9375 
Q 51.65625 59.578125 47.859375 62.890625 
Q 44.53125 65.71875 37.109375 65.71875 
L 14.265625 65.71875 
z
M 14.265625 31.9375 
L 14.265625 0 
L 4.890625 0 
L 4.890625 74.03125 
L 38.96875 74.03125 
Q 56.25 74.03125 60.453125 61.8125 
Q 61.53125 58.5 61.53125 54.203125 
Q 61.53125 44.234375 54.203125 39.0625 
Q 52.25 37.796875 49.8125 36.53125 
Q 56.15625 33.796875 58.109375 29.78125 
Q 59.859375 25.984375 59.859375 17.28125 
Q 59.859375 7.515625 61.8125 4.78125 
Q 62.796875 3.421875 64.359375 2.34375 
L 64.359375 0 
L 52.9375 0 
Q 50.875 4.890625 50.875 12.109375 
L 50.875 18.65625 
Q 50.875 29.78125 42.78125 31.453125 
Q 40.921875 31.9375 38.671875 31.9375 
z
" id="Gargi-82"/>
      <path d="M 52.34375 75 
L 61.8125 75 
L 61.8125 24.125 
Q 61.8125 11.140625 51.265625 4.6875 
Q 43.953125 0.203125 33.296875 0.203125 
Q 16.5 0.203125 9.078125 10.25 
Q 4.890625 15.921875 4.890625 24.125 
L 4.890625 75 
L 14.359375 75 
L 14.359375 24.125 
Q 14.359375 16.3125 19.734375 12.109375 
Q 25.09375 8.296875 33.296875 8.296875 
Q 45.90625 8.296875 50.390625 16.3125 
Q 52.34375 19.828125 52.34375 24.125 
z
" id="Gargi-85"/>
      <path d="M 23.25 74.03125 
L 28.8125 74.03125 
L 4.78125 -2.046875 
L -0.78125 -2.046875 
z
" id="Gargi-47"/>
      <path d="M 38.578125 68.171875 
Q 25.203125 68.171875 17.96875 58.015625 
Q 12.3125 50.09375 12.3125 38.28125 
Q 12.3125 22.65625 21.96875 14.359375 
Q 28.90625 8.40625 38.375 8.40625 
Q 38.484375 8.40625 38.671875 8.40625 
Q 51.65625 8.40625 59.078125 18.359375 
Q 64.9375 26.265625 64.9375 37.890625 
Q 64.9375 54.390625 54.984375 62.59375 
Q 48.25 68.171875 38.578125 68.171875 
z
M 38.578125 76.375 
Q 56.25 76.375 66.015625 64.15625 
Q 74.421875 53.71875 74.421875 37.703125 
Q 74.421875 22.953125 66.015625 12.5 
Q 63.96875 9.859375 61.625 7.90625 
Q 52.34375 0.296875 38.671875 0.296875 
Q 21.78125 0.296875 11.71875 12.015625 
Q 2.9375 22.265625 2.9375 38.28125 
Q 2.9375 56.734375 14.15625 67.28125 
Q 23.828125 76.375 38.578125 76.375 
z
" id="Gargi-79"/>
      <path d="M 14.265625 8.296875 
L 31.734375 8.296875 
Q 49.421875 8.296875 53.21875 26.765625 
Q 54.109375 31.25 54.109375 37.015625 
Q 54.109375 61.921875 37.015625 65.234375 
Q 34.46875 65.71875 31.734375 65.71875 
L 14.265625 65.71875 
z
M 4.890625 0 
L 4.890625 74.03125 
L 33.40625 74.03125 
Q 49.90625 74.03125 57.90625 60.640625 
Q 63.578125 51.265625 63.578125 37.109375 
Q 63.578125 15.921875 51.765625 6.15625 
Q 44.34375 0 33.40625 0 
z
" id="Gargi-68"/>
     </defs>
     <g transform="translate(55.742187 367.808175)rotate(-90)scale(0.2 -0.2)">
      <use xlink:href="#Gargi-70"/>
      <use x="59.375" xlink:href="#Gargi-108"/>
      <use x="81.542969" xlink:href="#Gargi-117"/>
      <use x="133.59375" xlink:href="#Gargi-111"/>
      <use x="187.597656" xlink:href="#Gargi-114"/>
      <use x="222.949219" xlink:href="#Gargi-101"/>
      <use x="278.808594" xlink:href="#Gargi-115"/>
      <use x="327.832031" xlink:href="#Gargi-99"/>
      <use x="379.003906" xlink:href="#Gargi-101"/>
      <use x="434.863281" xlink:href="#Gargi-110"/>
      <use x="486.914062" xlink:href="#Gargi-99"/>
      <use x="538.085938" xlink:href="#Gargi-101"/>
      <use x="593.945312" xlink:href="#Gargi-32"/>
      <use x="618.359375" xlink:href="#Gargi-40"/>
      <use x="671.289062" xlink:href="#Gargi-82"/>
      <use x="740.527344" xlink:href="#Gargi-70"/>
      <use x="799.902344" xlink:href="#Gargi-85"/>
      <use x="866.601562" xlink:href="#Gargi-47"/>
      <use x="919.53125" xlink:href="#Gargi-79"/>
      <use x="996.875" xlink:href="#Gargi-68"/>
      <use x="1065.332031" xlink:href="#Gargi-54"/>
      <use x="1122.851562" xlink:href="#Gargi-48"/>
      <use x="1177.734375" xlink:href="#Gargi-48"/>
      <use x="1232.617188" xlink:href="#Gargi-41"/>
     </g>
    </g>
   </g>
   <g id="line2d_44">
    <path clip-path="url(#pfb8f033475)" d="M 79.834328 412.80222 
L 369.841925 411.318781 
L 519.780015 410.457273 
L 519.780015 410.457273 
" style="fill:none;stroke:#0099ff;stroke-linecap:square;stroke-width:1.5;"/>
   </g>
   <g id="line2d_45">
    <path clip-path="url(#pfb8f033475)" d="M 79.834328 421.623828 
L 206.674298 421.46541 
L 263.735088 421.184689 
L 301.640213 420.786301 
L 330.191558 420.272183 
L 353.159817 419.643002 
L 372.389468 418.899573 
L 388.944651 418.042005 
L 403.485766 417.070488 
L 416.455478 415.985019 
L 428.164931 414.78545 
L 438.843491 413.471204 
L 448.662748 412.041625 
L 457.75619 410.495684 
L 466.228057 408.832308 
L 474.162649 407.05008 
L 481.631223 405.146656 
L 488.690154 403.119993 
L 495.387591 400.967448 
L 501.765593 398.685497 
L 507.858739 396.270642 
L 513.698408 393.71824 
L 519.311679 391.023107 
L 519.780015 390.786818 
L 519.780015 390.786818 
" style="fill:none;stroke:#3372cc;stroke-linecap:square;stroke-width:1.5;"/>
   </g>
   <g id="line2d_46">
    <path clip-path="url(#pfb8f033475)" d="M 79.834328 421.646311 
L 288.82185 421.534606 
L 322.348732 421.29561 
L 343.039142 420.937183 
L 358.181891 420.46126 
L 370.205113 419.86794 
L 380.228461 419.156361 
L 388.861073 418.325297 
L 396.476713 417.372722 
L 403.321066 416.295968 
L 409.56795 415.091068 
L 415.345504 413.752632 
L 420.748103 412.274735 
L 425.849884 410.65023 
L 430.715673 408.868721 
L 435.397574 406.918497 
L 439.940216 404.785809 
L 444.388344 402.451736 
L 448.781358 399.894832 
L 453.160888 397.087299 
L 457.571636 393.993837 
L 462.065875 390.567848 
L 466.715002 386.74088 
L 471.618884 382.411651 
L 476.94924 377.402685 
L 483.071901 371.333006 
L 491.301034 362.834227 
L 505.940125 347.690487 
L 512.180274 341.591841 
L 517.559787 336.639087 
L 519.780015 334.691395 
L 519.780015 334.691395 
" style="fill:none;stroke:#674c9a;stroke-linecap:square;stroke-width:1.5;"/>
   </g>
   <g id="line2d_47">
    <path clip-path="url(#pfb8f033475)" d="M 79.834328 421.609102 
L 140.437786 421.431795 
L 170.582399 421.134319 
L 191.147835 420.720204 
L 206.935508 420.187726 
L 219.738756 419.539694 
L 230.558713 418.774332 
L 239.962134 417.889451 
L 248.237674 416.891359 
L 255.698656 415.770612 
L 262.454394 414.535055 
L 268.680841 413.174126 
L 274.462653 411.686212 
L 279.902105 410.058247 
L 285.007818 408.300139 
L 289.85356 406.398689 
L 294.495663 404.339149 
L 298.951126 402.119461 
L 303.259425 399.724064 
L 307.428593 397.151451 
L 311.487496 394.386052 
L 315.478793 391.396462 
L 319.397922 388.181939 
L 323.276591 384.711283 
L 327.122587 380.969787 
L 330.956778 376.927878 
L 334.794433 372.557718 
L 338.659491 367.817396 
L 342.581035 362.651957 
L 346.567126 357.029334 
L 350.642636 350.892241 
L 354.852703 344.145765 
L 359.244071 336.682191 
L 363.87762 328.360749 
L 368.864731 318.937133 
L 374.393965 308.000059 
L 380.910795 294.595011 
L 390.412445 274.479123 
L 402.736502 248.476058 
L 409.255488 235.256126 
L 414.771732 224.560477 
L 419.754314 215.375033 
L 424.398071 207.272801 
L 428.804887 200.024505 
L 433.041858 193.477927 
L 437.153488 187.529328 
L 441.174416 182.098771 
L 445.131503 177.12447 
L 449.047343 172.55609 
L 452.940806 168.352727 
L 456.830897 164.47781 
L 460.735978 160.899838 
L 464.673142 157.592473 
L 468.660517 154.532152 
L 472.717232 151.698166 
L 476.863103 149.072801 
L 481.119215 146.640795 
L 485.509944 144.388254 
L 490.062539 142.303185 
L 494.80863 140.37502 
L 499.783874 138.595059 
L 505.030572 136.955756 
L 510.599482 135.450681 
L 516.552797 134.074363 
L 519.780015 133.416849 
L 519.780015 133.416849 
" style="fill:none;stroke:#9a2667;stroke-linecap:square;stroke-width:1.5;"/>
   </g>
   <g id="line2d_48">
    <path clip-path="url(#pfb8f033475)" d="M 79.834328 421.589199 
L 127.556298 421.394004 
L 153.648205 421.078504 
L 172.031697 420.641526 
L 186.140469 420.090348 
L 197.622666 419.426763 
L 207.454409 418.639901 
L 215.964382 417.739646 
L 223.477442 416.726721 
L 230.298484 415.585731 
L 236.476222 414.330902 
L 242.197952 412.944564 
L 247.5325 411.424174 
L 252.533933 409.767604 
L 257.245511 407.973186 
L 261.702399 406.039744 
L 265.980456 403.942264 
L 270.094282 401.677571 
L 274.056692 399.24335 
L 277.917122 396.610871 
L 281.678471 393.777018 
L 285.377328 390.710952 
L 289.01081 387.409973 
L 292.606605 383.842692 
L 296.186189 379.977115 
L 299.765867 375.781515 
L 303.357601 371.225433 
L 306.969708 366.280831 
L 310.629081 360.890371 
L 314.35472 355.001192 
L 318.158848 348.56781 
L 322.0834 341.489362 
L 326.172455 333.649255 
L 330.483538 324.893847 
L 335.10655 314.989804 
L 340.182521 303.576215 
L 346.066108 289.77895 
L 353.971661 270.623307 
L 368.833186 234.54032 
L 374.850649 220.589038 
L 379.988376 209.225044 
L 384.65203 199.43888 
L 389.000303 190.822201 
L 393.131961 183.120429 
L 397.103689 176.18016 
L 400.959999 169.883467 
L 404.727447 164.152405 
L 408.431107 158.918321 
L 412.09439 154.122202 
L 415.735377 149.718418 
L 419.367738 145.671231 
L 423.007644 141.945997 
L 426.672491 138.511323 
L 430.379843 135.340146 
L 434.144004 132.411942 
L 437.983249 129.706283 
L 441.919815 127.203835 
L 445.973125 124.890766 
L 450.168638 122.752999 
L 454.533798 120.779078 
L 459.102867 118.958132 
L 463.912369 117.282212 
L 469.007941 115.743874 
L 474.445667 114.336709 
L 480.292269 113.055974 
L 486.63506 111.897173 
L 493.583939 110.857129 
L 501.287242 109.932978 
L 509.948819 109.122442 
L 519.780015 108.428553 
L 519.780015 108.428553 
" style="fill:none;stroke:#ce0035;stroke-linecap:square;stroke-width:1.5;"/>
   </g>
   <g id="line2d_49">
    <defs>
     <path d="M 0 3 
C 0.795609 3 1.55874 2.683901 2.12132 2.12132 
C 2.683901 1.55874 3 0.795609 3 0 
C 3 -0.795609 2.683901 -1.55874 2.12132 -2.12132 
C 1.55874 -2.683901 0.795609 -3 0 -3 
C -0.795609 -3 -1.55874 -2.683901 -2.12132 -2.12132 
C -2.683901 -1.55874 -3 -0.795609 -3 0 
C -3 0.795609 -2.683901 1.55874 -2.12132 2.12132 
C -1.55874 2.683901 -0.795609 3 0 3 
z
" id="m9f2d4a6332" style="stroke:#0099ff;"/>
    </defs>
    <g clip-path="url(#pfb8f033475)">
     <use style="fill:#0099ff;stroke:#0099ff;" x="-1" xlink:href="#m9f2d4a6332" y="412.221152"/>
     <use style="fill:#0099ff;stroke:#0099ff;" x="81" xlink:href="#m9f2d4a6332" y="412.221226"/>
     <use style="fill:#0099ff;stroke:#0099ff;" x="121.013555" xlink:href="#m9f2d4a6332" y="412.293335"/>
     <use style="fill:#0099ff;stroke:#0099ff;" x="173.908598" xlink:href="#m9f2d4a6332" y="412.247564"/>
     <use style="fill:#0099ff;stroke:#0099ff;" x="213.922153" xlink:href="#m9f2d4a6332" y="412.237977"/>
     <use style="fill:#0099ff;stroke:#0099ff;" x="253.935709" xlink:href="#m9f2d4a6332" y="412.230554"/>
     <use style="fill:#0099ff;stroke:#0099ff;" x="306.830752" xlink:href="#m9f2d4a6332" y="412.205465"/>
     <use style="fill:#0099ff;stroke:#0099ff;" x="346.844307" xlink:href="#m9f2d4a6332" y="412.060894"/>
     <use style="fill:#0099ff;stroke:#0099ff;" x="386.857862" xlink:href="#m9f2d4a6332" y="411.949199"/>
     <use style="fill:#0099ff;stroke:#0099ff;" x="439.752905" xlink:href="#m9f2d4a6332" y="411.223227"/>
     <use style="fill:#0099ff;stroke:#0099ff;" x="479.76646" xlink:href="#m9f2d4a6332" y="410.189951"/>
     <use style="fill:#0099ff;stroke:#0099ff;" x="519.780015" xlink:href="#m9f2d4a6332" y="408.817877"/>
    </g>
   </g>
   <g id="line2d_50">
    <g clip-path="url(#pfb8f033475)">
     <use style="fill:#0099ff;stroke:#0099ff;" x="-1" xlink:href="#m9f2d4a6332" y="412.403792"/>
     <use style="fill:#0099ff;stroke:#0099ff;" x="81" xlink:href="#m9f2d4a6332" y="412.40382"/>
     <use style="fill:#0099ff;stroke:#0099ff;" x="121.013555" xlink:href="#m9f2d4a6332" y="412.23832"/>
     <use style="fill:#0099ff;stroke:#0099ff;" x="173.908598" xlink:href="#m9f2d4a6332" y="412.314869"/>
     <use style="fill:#0099ff;stroke:#0099ff;" x="213.922153" xlink:href="#m9f2d4a6332" y="412.270644"/>
     <use style="fill:#0099ff;stroke:#0099ff;" x="253.935709" xlink:href="#m9f2d4a6332" y="412.37564"/>
     <use style="fill:#0099ff;stroke:#0099ff;" x="306.830752" xlink:href="#m9f2d4a6332" y="412.27389"/>
     <use style="fill:#0099ff;stroke:#0099ff;" x="346.844307" xlink:href="#m9f2d4a6332" y="412.116917"/>
     <use style="fill:#0099ff;stroke:#0099ff;" x="386.857862" xlink:href="#m9f2d4a6332" y="412.091775"/>
     <use style="fill:#0099ff;stroke:#0099ff;" x="439.752905" xlink:href="#m9f2d4a6332" y="411.655395"/>
     <use style="fill:#0099ff;stroke:#0099ff;" x="479.76646" xlink:href="#m9f2d4a6332" y="410.599951"/>
     <use style="fill:#0099ff;stroke:#0099ff;" x="519.780015" xlink:href="#m9f2d4a6332" y="409.72765"/>
    </g>
   </g>
   <g id="line2d_51">
    <g clip-path="url(#pfb8f033475)">
     <use style="fill:#0099ff;stroke:#0099ff;" x="-1" xlink:href="#m9f2d4a6332" y="412.1361"/>
     <use style="fill:#0099ff;stroke:#0099ff;" x="81" xlink:href="#m9f2d4a6332" y="412.13613"/>
     <use style="fill:#0099ff;stroke:#0099ff;" x="121.013555" xlink:href="#m9f2d4a6332" y="412.072297"/>
     <use style="fill:#0099ff;stroke:#0099ff;" x="173.908598" xlink:href="#m9f2d4a6332" y="412.01325"/>
     <use style="fill:#0099ff;stroke:#0099ff;" x="213.922153" xlink:href="#m9f2d4a6332" y="411.927293"/>
     <use style="fill:#0099ff;stroke:#0099ff;" x="253.935709" xlink:href="#m9f2d4a6332" y="412.144689"/>
     <use style="fill:#0099ff;stroke:#0099ff;" x="306.830752" xlink:href="#m9f2d4a6332" y="412.030963"/>
     <use style="fill:#0099ff;stroke:#0099ff;" x="346.844307" xlink:href="#m9f2d4a6332" y="411.857821"/>
     <use style="fill:#0099ff;stroke:#0099ff;" x="386.857862" xlink:href="#m9f2d4a6332" y="411.676809"/>
     <use style="fill:#0099ff;stroke:#0099ff;" x="439.752905" xlink:href="#m9f2d4a6332" y="411.212166"/>
     <use style="fill:#0099ff;stroke:#0099ff;" x="479.76646" xlink:href="#m9f2d4a6332" y="410.267888"/>
     <use style="fill:#0099ff;stroke:#0099ff;" x="519.780015" xlink:href="#m9f2d4a6332" y="409.593916"/>
    </g>
   </g>
   <g id="line2d_52">
    <defs>
     <path d="M 0 3 
C 0.795609 3 1.55874 2.683901 2.12132 2.12132 
C 2.683901 1.55874 3 0.795609 3 0 
C 3 -0.795609 2.683901 -1.55874 2.12132 -2.12132 
C 1.55874 -2.683901 0.795609 -3 0 -3 
C -0.795609 -3 -1.55874 -2.683901 -2.12132 -2.12132 
C -2.683901 -1.55874 -3 -0.795609 -3 0 
C -3 0.795609 -2.683901 1.55874 -2.12132 2.12132 
C -1.55874 2.683901 -0.795609 3 0 3 
z
" id="m39dbafee56" style="stroke:#3372cc;"/>
    </defs>
    <g clip-path="url(#pfb8f033475)">
     <use style="fill:#3372cc;stroke:#3372cc;" x="-1" xlink:href="#m39dbafee56" y="420.152954"/>
     <use style="fill:#3372cc;stroke:#3372cc;" x="81" xlink:href="#m39dbafee56" y="420.152965"/>
     <use style="fill:#3372cc;stroke:#3372cc;" x="121.013555" xlink:href="#m39dbafee56" y="420.133554"/>
     <use style="fill:#3372cc;stroke:#3372cc;" x="173.908598" xlink:href="#m39dbafee56" y="420.050922"/>
     <use style="fill:#3372cc;stroke:#3372cc;" x="213.922153" xlink:href="#m39dbafee56" y="420.084107"/>
     <use style="fill:#3372cc;stroke:#3372cc;" x="253.935709" xlink:href="#m39dbafee56" y="420.0433"/>
     <use style="fill:#3372cc;stroke:#3372cc;" x="306.830752" xlink:href="#m39dbafee56" y="419.827252"/>
     <use style="fill:#3372cc;stroke:#3372cc;" x="346.844307" xlink:href="#m39dbafee56" y="419.518065"/>
     <use style="fill:#3372cc;stroke:#3372cc;" x="386.857862" xlink:href="#m39dbafee56" y="418.69246"/>
     <use style="fill:#3372cc;stroke:#3372cc;" x="439.752905" xlink:href="#m39dbafee56" y="414.64394"/>
     <use style="fill:#3372cc;stroke:#3372cc;" x="479.76646" xlink:href="#m39dbafee56" y="404.228066"/>
     <use style="fill:#3372cc;stroke:#3372cc;" x="519.780015" xlink:href="#m39dbafee56" y="392.032535"/>
    </g>
   </g>
   <g id="line2d_53">
    <g clip-path="url(#pfb8f033475)">
     <use style="fill:#3372cc;stroke:#3372cc;" x="-1" xlink:href="#m39dbafee56" y="420.169439"/>
     <use style="fill:#3372cc;stroke:#3372cc;" x="81" xlink:href="#m39dbafee56" y="420.169421"/>
     <use style="fill:#3372cc;stroke:#3372cc;" x="121.013555" xlink:href="#m39dbafee56" y="420.206303"/>
     <use style="fill:#3372cc;stroke:#3372cc;" x="173.908598" xlink:href="#m39dbafee56" y="420.110876"/>
     <use style="fill:#3372cc;stroke:#3372cc;" x="213.922153" xlink:href="#m39dbafee56" y="420.095163"/>
     <use style="fill:#3372cc;stroke:#3372cc;" x="253.935709" xlink:href="#m39dbafee56" y="420.085992"/>
     <use style="fill:#3372cc;stroke:#3372cc;" x="306.830752" xlink:href="#m39dbafee56" y="419.909301"/>
     <use style="fill:#3372cc;stroke:#3372cc;" x="346.844307" xlink:href="#m39dbafee56" y="419.517929"/>
     <use style="fill:#3372cc;stroke:#3372cc;" x="386.857862" xlink:href="#m39dbafee56" y="418.765916"/>
     <use style="fill:#3372cc;stroke:#3372cc;" x="439.752905" xlink:href="#m39dbafee56" y="414.971845"/>
     <use style="fill:#3372cc;stroke:#3372cc;" x="479.76646" xlink:href="#m39dbafee56" y="405.551094"/>
     <use style="fill:#3372cc;stroke:#3372cc;" x="519.780015" xlink:href="#m39dbafee56" y="389.806497"/>
    </g>
   </g>
   <g id="line2d_54">
    <g clip-path="url(#pfb8f033475)">
     <use style="fill:#3372cc;stroke:#3372cc;" x="-1" xlink:href="#m39dbafee56" y="420.14483"/>
     <use style="fill:#3372cc;stroke:#3372cc;" x="81" xlink:href="#m39dbafee56" y="420.144881"/>
     <use style="fill:#3372cc;stroke:#3372cc;" x="121.013555" xlink:href="#m39dbafee56" y="420.132519"/>
     <use style="fill:#3372cc;stroke:#3372cc;" x="173.908598" xlink:href="#m39dbafee56" y="420.129863"/>
     <use style="fill:#3372cc;stroke:#3372cc;" x="213.922153" xlink:href="#m39dbafee56" y="419.953517"/>
     <use style="fill:#3372cc;stroke:#3372cc;" x="253.935709" xlink:href="#m39dbafee56" y="419.972626"/>
     <use style="fill:#3372cc;stroke:#3372cc;" x="306.830752" xlink:href="#m39dbafee56" y="419.801173"/>
     <use style="fill:#3372cc;stroke:#3372cc;" x="346.844307" xlink:href="#m39dbafee56" y="419.50907"/>
     <use style="fill:#3372cc;stroke:#3372cc;" x="386.857862" xlink:href="#m39dbafee56" y="418.620178"/>
     <use style="fill:#3372cc;stroke:#3372cc;" x="439.752905" xlink:href="#m39dbafee56" y="414.569579"/>
     <use style="fill:#3372cc;stroke:#3372cc;" x="479.76646" xlink:href="#m39dbafee56" y="404.43538"/>
     <use style="fill:#3372cc;stroke:#3372cc;" x="519.780015" xlink:href="#m39dbafee56" y="390.87261"/>
    </g>
   </g>
   <g id="line2d_55">
    <defs>
     <path d="M 0 3 
C 0.795609 3 1.55874 2.683901 2.12132 2.12132 
C 2.683901 1.55874 3 0.795609 3 0 
C 3 -0.795609 2.683901 -1.55874 2.12132 -2.12132 
C 1.55874 -2.683901 0.795609 -3 0 -3 
C -0.795609 -3 -1.55874 -2.683901 -2.12132 -2.12132 
C -2.683901 -1.55874 -3 -0.795609 -3 0 
C -3 0.795609 -2.683901 1.55874 -2.12132 2.12132 
C -1.55874 2.683901 -0.795609 3 0 3 
z
" id="m8169a0ac67" style="stroke:#674c9a;"/>
    </defs>
    <g clip-path="url(#pfb8f033475)">
     <use style="fill:#674c9a;stroke:#674c9a;" x="-1" xlink:href="#m8169a0ac67" y="420.938933"/>
     <use style="fill:#674c9a;stroke:#674c9a;" x="81" xlink:href="#m8169a0ac67" y="420.93892"/>
     <use style="fill:#674c9a;stroke:#674c9a;" x="121.013555" xlink:href="#m8169a0ac67" y="420.897816"/>
     <use style="fill:#674c9a;stroke:#674c9a;" x="173.908598" xlink:href="#m8169a0ac67" y="420.879604"/>
     <use style="fill:#674c9a;stroke:#674c9a;" x="213.922153" xlink:href="#m8169a0ac67" y="420.770766"/>
     <use style="fill:#674c9a;stroke:#674c9a;" x="253.935709" xlink:href="#m8169a0ac67" y="420.785109"/>
     <use style="fill:#674c9a;stroke:#674c9a;" x="306.830752" xlink:href="#m8169a0ac67" y="420.496837"/>
     <use style="fill:#674c9a;stroke:#674c9a;" x="346.844307" xlink:href="#m8169a0ac67" y="419.961095"/>
     <use style="fill:#674c9a;stroke:#674c9a;" x="386.857862" xlink:href="#m8169a0ac67" y="418.098413"/>
     <use style="fill:#674c9a;stroke:#674c9a;" x="439.752905" xlink:href="#m8169a0ac67" y="404.89139"/>
     <use style="fill:#674c9a;stroke:#674c9a;" x="479.76646" xlink:href="#m8169a0ac67" y="376.816732"/>
     <use style="fill:#674c9a;stroke:#674c9a;" x="519.780015" xlink:href="#m8169a0ac67" y="337.207331"/>
    </g>
   </g>
   <g id="line2d_56">
    <g clip-path="url(#pfb8f033475)">
     <use style="fill:#674c9a;stroke:#674c9a;" x="-1" xlink:href="#m8169a0ac67" y="420.902369"/>
     <use style="fill:#674c9a;stroke:#674c9a;" x="81" xlink:href="#m8169a0ac67" y="420.902426"/>
     <use style="fill:#674c9a;stroke:#674c9a;" x="121.013555" xlink:href="#m8169a0ac67" y="420.867304"/>
     <use style="fill:#674c9a;stroke:#674c9a;" x="173.908598" xlink:href="#m8169a0ac67" y="420.805419"/>
     <use style="fill:#674c9a;stroke:#674c9a;" x="213.922153" xlink:href="#m8169a0ac67" y="420.735794"/>
     <use style="fill:#674c9a;stroke:#674c9a;" x="253.935709" xlink:href="#m8169a0ac67" y="420.671958"/>
     <use style="fill:#674c9a;stroke:#674c9a;" x="306.830752" xlink:href="#m8169a0ac67" y="420.549818"/>
     <use style="fill:#674c9a;stroke:#674c9a;" x="346.844307" xlink:href="#m8169a0ac67" y="419.934172"/>
     <use style="fill:#674c9a;stroke:#674c9a;" x="386.857862" xlink:href="#m8169a0ac67" y="418.0577"/>
     <use style="fill:#674c9a;stroke:#674c9a;" x="439.752905" xlink:href="#m8169a0ac67" y="405.834766"/>
     <use style="fill:#674c9a;stroke:#674c9a;" x="479.76646" xlink:href="#m8169a0ac67" y="376.505934"/>
     <use style="fill:#674c9a;stroke:#674c9a;" x="519.780015" xlink:href="#m8169a0ac67" y="341.099001"/>
    </g>
   </g>
   <g id="line2d_57">
    <g clip-path="url(#pfb8f033475)">
     <use style="fill:#674c9a;stroke:#674c9a;" x="-1" xlink:href="#m8169a0ac67" y="420.938366"/>
     <use style="fill:#674c9a;stroke:#674c9a;" x="81" xlink:href="#m8169a0ac67" y="420.938386"/>
     <use style="fill:#674c9a;stroke:#674c9a;" x="121.013555" xlink:href="#m8169a0ac67" y="420.932848"/>
     <use style="fill:#674c9a;stroke:#674c9a;" x="173.908598" xlink:href="#m8169a0ac67" y="420.975694"/>
     <use style="fill:#674c9a;stroke:#674c9a;" x="213.922153" xlink:href="#m8169a0ac67" y="420.872555"/>
     <use style="fill:#674c9a;stroke:#674c9a;" x="253.935709" xlink:href="#m8169a0ac67" y="420.816782"/>
     <use style="fill:#674c9a;stroke:#674c9a;" x="306.830752" xlink:href="#m8169a0ac67" y="420.561069"/>
     <use style="fill:#674c9a;stroke:#674c9a;" x="346.844307" xlink:href="#m8169a0ac67" y="420.011288"/>
     <use style="fill:#674c9a;stroke:#674c9a;" x="386.857862" xlink:href="#m8169a0ac67" y="418.162303"/>
     <use style="fill:#674c9a;stroke:#674c9a;" x="439.752905" xlink:href="#m8169a0ac67" y="405.483132"/>
     <use style="fill:#674c9a;stroke:#674c9a;" x="479.76646" xlink:href="#m8169a0ac67" y="369.938032"/>
     <use style="fill:#674c9a;stroke:#674c9a;" x="519.780015" xlink:href="#m8169a0ac67" y="325.909266"/>
    </g>
   </g>
   <g id="line2d_58">
    <defs>
     <path d="M 0 3 
C 0.795609 3 1.55874 2.683901 2.12132 2.12132 
C 2.683901 1.55874 3 0.795609 3 0 
C 3 -0.795609 2.683901 -1.55874 2.12132 -2.12132 
C 1.55874 -2.683901 0.795609 -3 0 -3 
C -0.795609 -3 -1.55874 -2.683901 -2.12132 -2.12132 
C -2.683901 -1.55874 -3 -0.795609 -3 0 
C -3 0.795609 -2.683901 1.55874 -2.12132 2.12132 
C -1.55874 2.683901 -0.795609 3 0 3 
z
" id="m8d3a8a3173" style="stroke:#9a2667;"/>
    </defs>
    <g clip-path="url(#pfb8f033475)">
     <use style="fill:#9a2667;stroke:#9a2667;" x="-1" xlink:href="#m8d3a8a3173" y="420.977074"/>
     <use style="fill:#9a2667;stroke:#9a2667;" x="81" xlink:href="#m8d3a8a3173" y="420.977068"/>
     <use style="fill:#9a2667;stroke:#9a2667;" x="121.013555" xlink:href="#m8d3a8a3173" y="420.914629"/>
     <use style="fill:#9a2667;stroke:#9a2667;" x="173.908598" xlink:href="#m8d3a8a3173" y="420.662706"/>
     <use style="fill:#9a2667;stroke:#9a2667;" x="213.922153" xlink:href="#m8d3a8a3173" y="419.944637"/>
     <use style="fill:#9a2667;stroke:#9a2667;" x="253.935709" xlink:href="#m8d3a8a3173" y="417.642809"/>
     <use style="fill:#9a2667;stroke:#9a2667;" x="306.830752" xlink:href="#m8d3a8a3173" y="399.401648"/>
     <use style="fill:#9a2667;stroke:#9a2667;" x="346.844307" xlink:href="#m8d3a8a3173" y="359.639804"/>
     <use style="fill:#9a2667;stroke:#9a2667;" x="386.857862" xlink:href="#m8d3a8a3173" y="281.537613"/>
     <use style="fill:#9a2667;stroke:#9a2667;" x="439.752905" xlink:href="#m8d3a8a3173" y="191.803541"/>
     <use style="fill:#9a2667;stroke:#9a2667;" x="479.76646" xlink:href="#m8d3a8a3173" y="148.634975"/>
     <use style="fill:#9a2667;stroke:#9a2667;" x="519.780015" xlink:href="#m8d3a8a3173" y="148.109617"/>
    </g>
   </g>
   <g id="line2d_59">
    <g clip-path="url(#pfb8f033475)">
     <use style="fill:#9a2667;stroke:#9a2667;" x="-1" xlink:href="#m8d3a8a3173" y="420.959521"/>
     <use style="fill:#9a2667;stroke:#9a2667;" x="81" xlink:href="#m8d3a8a3173" y="420.959478"/>
     <use style="fill:#9a2667;stroke:#9a2667;" x="121.013555" xlink:href="#m8d3a8a3173" y="420.877819"/>
     <use style="fill:#9a2667;stroke:#9a2667;" x="173.908598" xlink:href="#m8d3a8a3173" y="420.667292"/>
     <use style="fill:#9a2667;stroke:#9a2667;" x="213.922153" xlink:href="#m8d3a8a3173" y="419.792061"/>
     <use style="fill:#9a2667;stroke:#9a2667;" x="253.935709" xlink:href="#m8d3a8a3173" y="417.606203"/>
     <use style="fill:#9a2667;stroke:#9a2667;" x="306.830752" xlink:href="#m8d3a8a3173" y="399.607434"/>
     <use style="fill:#9a2667;stroke:#9a2667;" x="346.844307" xlink:href="#m8d3a8a3173" y="357.143973"/>
     <use style="fill:#9a2667;stroke:#9a2667;" x="386.857862" xlink:href="#m8d3a8a3173" y="283.951099"/>
     <use style="fill:#9a2667;stroke:#9a2667;" x="439.752905" xlink:href="#m8d3a8a3173" y="187.188014"/>
     <use style="fill:#9a2667;stroke:#9a2667;" x="479.76646" xlink:href="#m8d3a8a3173" y="148.658232"/>
     <use style="fill:#9a2667;stroke:#9a2667;" x="519.780015" xlink:href="#m8d3a8a3173" y="110.240769"/>
    </g>
   </g>
   <g id="line2d_60">
    <g clip-path="url(#pfb8f033475)">
     <use style="fill:#9a2667;stroke:#9a2667;" x="-1" xlink:href="#m8d3a8a3173" y="420.895056"/>
     <use style="fill:#9a2667;stroke:#9a2667;" x="81" xlink:href="#m8d3a8a3173" y="420.894975"/>
     <use style="fill:#9a2667;stroke:#9a2667;" x="121.013555" xlink:href="#m8d3a8a3173" y="420.781313"/>
     <use style="fill:#9a2667;stroke:#9a2667;" x="173.908598" xlink:href="#m8d3a8a3173" y="420.650282"/>
     <use style="fill:#9a2667;stroke:#9a2667;" x="213.922153" xlink:href="#m8d3a8a3173" y="419.760624"/>
     <use style="fill:#9a2667;stroke:#9a2667;" x="253.935709" xlink:href="#m8d3a8a3173" y="417.399125"/>
     <use style="fill:#9a2667;stroke:#9a2667;" x="306.830752" xlink:href="#m8d3a8a3173" y="397.997904"/>
     <use style="fill:#9a2667;stroke:#9a2667;" x="346.844307" xlink:href="#m8d3a8a3173" y="352.457015"/>
     <use style="fill:#9a2667;stroke:#9a2667;" x="386.857862" xlink:href="#m8d3a8a3173" y="276.609951"/>
     <use style="fill:#9a2667;stroke:#9a2667;" x="439.752905" xlink:href="#m8d3a8a3173" y="177.995113"/>
     <use style="fill:#9a2667;stroke:#9a2667;" x="479.76646" xlink:href="#m8d3a8a3173" y="144.209155"/>
     <use style="fill:#9a2667;stroke:#9a2667;" x="519.780015" xlink:href="#m8d3a8a3173" y="140.000576"/>
    </g>
   </g>
   <g id="line2d_61">
    <defs>
     <path d="M 0 3 
C 0.795609 3 1.55874 2.683901 2.12132 2.12132 
C 2.683901 1.55874 3 0.795609 3 0 
C 3 -0.795609 2.683901 -1.55874 2.12132 -2.12132 
C 1.55874 -2.683901 0.795609 -3 0 -3 
C -0.795609 -3 -1.55874 -2.683901 -2.12132 -2.12132 
C -2.683901 -1.55874 -3 -0.795609 -3 0 
C -3 0.795609 -2.683901 1.55874 -2.12132 2.12132 
C -1.55874 2.683901 -0.795609 3 0 3 
z
" id="m07e9ce0239" style="stroke:#ce0035;"/>
    </defs>
    <g clip-path="url(#pfb8f033475)">
     <use style="fill:#ce0035;stroke:#ce0035;" x="-1" xlink:href="#m07e9ce0239" y="420.909969"/>
     <use style="fill:#ce0035;stroke:#ce0035;" x="81" xlink:href="#m07e9ce0239" y="420.909893"/>
     <use style="fill:#ce0035;stroke:#ce0035;" x="121.013555" xlink:href="#m07e9ce0239" y="420.939847"/>
     <use style="fill:#ce0035;stroke:#ce0035;" x="173.908598" xlink:href="#m07e9ce0239" y="420.425698"/>
     <use style="fill:#ce0035;stroke:#ce0035;" x="213.922153" xlink:href="#m07e9ce0239" y="418.449473"/>
     <use style="fill:#ce0035;stroke:#ce0035;" x="253.935709" xlink:href="#m07e9ce0239" y="411.114248"/>
     <use style="fill:#ce0035;stroke:#ce0035;" x="306.830752" xlink:href="#m07e9ce0239" y="361.639952"/>
     <use style="fill:#ce0035;stroke:#ce0035;" x="346.844307" xlink:href="#m07e9ce0239" y="281.713038"/>
     <use style="fill:#ce0035;stroke:#ce0035;" x="386.857862" xlink:href="#m07e9ce0239" y="187.793136"/>
     <use style="fill:#ce0035;stroke:#ce0035;" x="439.752905" xlink:href="#m07e9ce0239" y="120.313297"/>
     <use style="fill:#ce0035;stroke:#ce0035;" x="479.76646" xlink:href="#m07e9ce0239" y="101.461188"/>
     <use style="fill:#ce0035;stroke:#ce0035;" x="519.780015" xlink:href="#m07e9ce0239" y="108.389582"/>
    </g>
   </g>
   <g id="line2d_62">
    <g clip-path="url(#pfb8f033475)">
     <use style="fill:#ce0035;stroke:#ce0035;" x="-1" xlink:href="#m07e9ce0239" y="421.015999"/>
     <use style="fill:#ce0035;stroke:#ce0035;" x="81" xlink:href="#m07e9ce0239" y="421.015953"/>
     <use style="fill:#ce0035;stroke:#ce0035;" x="121.013555" xlink:href="#m07e9ce0239" y="420.824743"/>
     <use style="fill:#ce0035;stroke:#ce0035;" x="173.908598" xlink:href="#m07e9ce0239" y="420.483378"/>
     <use style="fill:#ce0035;stroke:#ce0035;" x="213.922153" xlink:href="#m07e9ce0239" y="418.736069"/>
     <use style="fill:#ce0035;stroke:#ce0035;" x="253.935709" xlink:href="#m07e9ce0239" y="412.308025"/>
     <use style="fill:#ce0035;stroke:#ce0035;" x="306.830752" xlink:href="#m07e9ce0239" y="367.281094"/>
     <use style="fill:#ce0035;stroke:#ce0035;" x="346.844307" xlink:href="#m07e9ce0239" y="287.011917"/>
     <use style="fill:#ce0035;stroke:#ce0035;" x="386.857862" xlink:href="#m07e9ce0239" y="202.768754"/>
     <use style="fill:#ce0035;stroke:#ce0035;" x="439.752905" xlink:href="#m07e9ce0239" y="128.623921"/>
     <use style="fill:#ce0035;stroke:#ce0035;" x="479.76646" xlink:href="#m07e9ce0239" y="117.085507"/>
     <use style="fill:#ce0035;stroke:#ce0035;" x="519.780015" xlink:href="#m07e9ce0239" y="119.255796"/>
    </g>
   </g>
   <g id="line2d_63">
    <g clip-path="url(#pfb8f033475)">
     <use style="fill:#ce0035;stroke:#ce0035;" x="-1" xlink:href="#m07e9ce0239" y="421.001409"/>
     <use style="fill:#ce0035;stroke:#ce0035;" x="81" xlink:href="#m07e9ce0239" y="421.001376"/>
     <use style="fill:#ce0035;stroke:#ce0035;" x="121.013555" xlink:href="#m07e9ce0239" y="420.890558"/>
     <use style="fill:#ce0035;stroke:#ce0035;" x="173.908598" xlink:href="#m07e9ce0239" y="420.308953"/>
     <use style="fill:#ce0035;stroke:#ce0035;" x="213.922153" xlink:href="#m07e9ce0239" y="418.591622"/>
     <use style="fill:#ce0035;stroke:#ce0035;" x="253.935709" xlink:href="#m07e9ce0239" y="412.003338"/>
     <use style="fill:#ce0035;stroke:#ce0035;" x="306.830752" xlink:href="#m07e9ce0239" y="365.723534"/>
     <use style="fill:#ce0035;stroke:#ce0035;" x="346.844307" xlink:href="#m07e9ce0239" y="291.838191"/>
     <use style="fill:#ce0035;stroke:#ce0035;" x="386.857862" xlink:href="#m07e9ce0239" y="204.430894"/>
     <use style="fill:#ce0035;stroke:#ce0035;" x="439.752905" xlink:href="#m07e9ce0239" y="125.025511"/>
     <use style="fill:#ce0035;stroke:#ce0035;" x="479.76646" xlink:href="#m07e9ce0239" y="112.411441"/>
     <use style="fill:#ce0035;stroke:#ce0035;" x="519.780015" xlink:href="#m07e9ce0239" y="111.635694"/>
    </g>
   </g>
   <g id="patch_3">
    <path d="M 81 421.6464 
L 81 56.8512 
" style="fill:none;stroke:#000000;stroke-linecap:square;stroke-linejoin:miter;stroke-width:0.8;"/>
   </g>
   <g id="patch_4">
    <path d="M 81 421.6464 
L 583.2 421.6464 
" style="fill:none;stroke:#000000;stroke-linecap:square;stroke-linejoin:miter;stroke-width:0.8;"/>
   </g>
   <g id="legend_1">
    <g id="patch_5">
     <path d="M 91.5 176.886356 
L 180.4125 176.886356 
Q 183.4125 176.886356 183.4125 173.886356 
L 183.4125 67.3512 
Q 183.4125 64.3512 180.4125 64.3512 
L 91.5 64.3512 
Q 88.5 64.3512 88.5 67.3512 
L 88.5 173.886356 
Q 88.5 176.886356 91.5 176.886356 
z
" style="fill:#ffffff;opacity:0.8;stroke:#cccccc;stroke-linejoin:miter;"/>
    </g>
    <g id="line2d_64">
     <path d="M 94.5 76.205887 
L 124.5 76.205887 
" style="fill:none;stroke:#0099ff;stroke-linecap:square;stroke-width:1.5;"/>
    </g>
    <g id="line2d_65"/>
    <g id="text_15">
     <!-- WT -->
     <defs>
      <path d="M 75.296875 0 
L 64.9375 0 
L 47.859375 60.84375 
L 31.25 0 
L 20.90625 0 
L 1.953125 74.03125 
L 12.5 74.03125 
L 26.46875 13.875 
L 42.875 74.03125 
L 53.03125 74.03125 
L 69.921875 13.875 
L 83.5 74.03125 
L 94.046875 74.03125 
z
" id="Gargi-87"/>
      <path d="M 38.671875 65.71875 
L 38.671875 0 
L 29.203125 0 
L 29.203125 65.71875 
L 4.890625 65.71875 
L 4.890625 74.03125 
L 62.984375 74.03125 
L 62.984375 65.71875 
z
" id="Gargi-84"/>
     </defs>
     <g transform="translate(136.5 81.455887)scale(0.15 -0.15)">
      <use xlink:href="#Gargi-87"/>
      <use x="95.996094" xlink:href="#Gargi-84"/>
     </g>
    </g>
    <g id="line2d_66">
     <path d="M 94.5 97.812919 
L 124.5 97.812919 
" style="fill:none;stroke:#3372cc;stroke-linecap:square;stroke-width:1.5;"/>
    </g>
    <g id="line2d_67"/>
    <g id="text_16">
     <!-- NOS1 -->
     <defs>
      <path d="M 58.59375 53.90625 
L 49.609375 53.90625 
Q 49.609375 64.84375 38.484375 67.78125 
Q 35.0625 68.65625 31.15625 68.65625 
Q 20.515625 68.5625 16.40625 62.40625 
Q 14.65625 59.765625 14.65625 56.34375 
Q 14.65625 50.59375 20.125 47.953125 
Q 22.5625 46.78125 26.765625 45.515625 
L 45.40625 40.71875 
Q 57.515625 37.40625 60.453125 27.734375 
Q 61.140625 25.484375 61.140625 22.46875 
Q 61.140625 14.15625 55.28125 7.8125 
L 53.03125 5.859375 
Q 45.609375 0.296875 32.125 0.296875 
Q 15.234375 0.296875 7.328125 10.640625 
Q 2.9375 16.40625 2.9375 25.6875 
L 11.8125 25.6875 
L 12.203125 21.875 
Q 12.890625 17.78125 15.71875 14.546875 
Q 21.09375 8.40625 32.8125 8.40625 
Q 41.796875 8.40625 46.390625 11.625 
Q 50.875 14.75 51.5625 20.21875 
Q 51.65625 21 51.65625 21.578125 
Q 51.65625 28.90625 40.53125 32.625 
Q 39.359375 33.015625 38.09375 33.296875 
L 19.734375 38.09375 
Q 5.171875 41.890625 5.171875 55.078125 
Q 5.171875 67.484375 15.71875 72.953125 
Q 22.265625 76.375 31.453125 76.375 
Q 49.421875 76.375 55.765625 65.234375 
Q 58.59375 60.359375 58.59375 53.90625 
z
" id="Gargi-83"/>
     </defs>
     <g transform="translate(136.5 103.062919)scale(0.15 -0.15)">
      <use xlink:href="#Gargi-78"/>
      <use x="67.675781" xlink:href="#Gargi-79"/>
      <use x="145.019531" xlink:href="#Gargi-83"/>
      <use x="209.082031" xlink:href="#Gargi-49"/>
     </g>
    </g>
    <g id="line2d_68">
     <path d="M 94.5 119.41995 
L 124.5 119.41995 
" style="fill:none;stroke:#674c9a;stroke-linecap:square;stroke-width:1.5;"/>
    </g>
    <g id="line2d_69"/>
    <g id="text_17">
     <!-- NOS2 -->
     <g transform="translate(136.5 124.66995)scale(0.15 -0.15)">
      <use xlink:href="#Gargi-78"/>
      <use x="67.675781" xlink:href="#Gargi-79"/>
      <use x="145.019531" xlink:href="#Gargi-83"/>
      <use x="209.082031" xlink:href="#Gargi-50"/>
     </g>
    </g>
    <g id="line2d_70">
     <path d="M 94.5 141.026981 
L 124.5 141.026981 
" style="fill:none;stroke:#9a2667;stroke-linecap:square;stroke-width:1.5;"/>
    </g>
    <g id="line2d_71"/>
    <g id="text_18">
     <!-- NOS3 -->
     <g transform="translate(136.5 146.276981)scale(0.15 -0.15)">
      <use xlink:href="#Gargi-78"/>
      <use x="67.675781" xlink:href="#Gargi-79"/>
      <use x="145.019531" xlink:href="#Gargi-83"/>
      <use x="209.082031" xlink:href="#Gargi-51"/>
     </g>
    </g>
    <g id="line2d_72">
     <path d="M 94.5 162.634012 
L 124.5 162.634012 
" style="fill:none;stroke:#ce0035;stroke-linecap:square;stroke-width:1.5;"/>
    </g>
    <g id="line2d_73"/>
    <g id="text_19">
     <!-- NOS4 -->
     <g transform="translate(136.5 167.884012)scale(0.15 -0.15)">
      <use xlink:href="#Gargi-78"/>
      <use x="67.675781" xlink:href="#Gargi-79"/>
      <use x="145.019531" xlink:href="#Gargi-83"/>
      <use x="209.082031" xlink:href="#Gargi-52"/>
     </g>
    </g>
   </g>
  </g>
 </g>
 <defs>
  <clipPath id="pfb8f033475">
   <rect height="364.7952" width="502.2" x="81" y="56.8512"/>
  </clipPath>
 </defs>
</svg>
