<?xml version="1.0" encoding="utf-8" standalone="no"?>
<!DOCTYPE svg PUBLIC "-//W3C//DTD SVG 1.1//EN"
  "http://www.w3.org/Graphics/SVG/1.1/DTD/svg11.dtd">
<!-- Created with matplotlib (https://matplotlib.org/) -->
<svg height="473.76pt" version="1.1" viewBox="0 0 648 473.76" width="648pt" xmlns="http://www.w3.org/2000/svg" xmlns:xlink="http://www.w3.org/1999/xlink">
 <defs>
  <style type="text/css">
*{stroke-linecap:butt;stroke-linejoin:round;}
  </style>
 </defs>
 <g id="figure_1">
  <g id="patch_1">
   <path d="M 0 473.76 
L 648 473.76 
L 648 0 
L 0 0 
z
" style="fill:#ffffff;"/>
  </g>
  <g id="axes_1">
   <g id="patch_2">
    <path d="M 81 421.6464 
L 583.2 421.6464 
L 583.2 56.8512 
L 81 56.8512 
z
" style="fill:#ffffff;"/>
   </g>
   <g id="matplotlib.axis_1">
    <g id="xtick_1">
     <g id="line2d_1">
      <defs>
       <path d="M 0 0 
L 0 2 
" id="mdd9518b064" style="stroke:#000000;"/>
      </defs>
      <g>
       <use style="stroke:#000000;" x="121.013555" xlink:href="#mdd9518b064" y="421.6464"/>
      </g>
     </g>
     <g id="text_1">
      <!-- $\mathdefault{10^{-1}}$ -->
      <defs>
       <path d="M 22.75 51.265625 
L 6.84375 51.265625 
L 6.84375 57.71875 
Q 17.1875 58.984375 20.21875 61.328125 
Q 23.34375 63.578125 25.390625 70.796875 
L 25.875 71.96875 
L 31.734375 71.96875 
L 31.734375 0 
L 22.75 0 
z
" id="Gargi-49"/>
       <path d="M 41.890625 37.5 
Q 41.890625 66.5 27.4375 66.5 
Q 12.984375 66.5 12.984375 37.203125 
Q 12.984375 7.515625 27.25 7.515625 
Q 39.265625 7.515625 41.3125 27.046875 
Q 41.890625 31.734375 41.890625 37.5 
z
M 27.4375 74.421875 
Q 37.890625 74.421875 44.046875 66.5 
Q 50.984375 56.9375 50.984375 36.625 
Q 50.984375 9.1875 37.015625 2.15625 
Q 32.71875 0.09375 27.4375 0.09375 
Q 9.578125 0.09375 5.171875 22.078125 
Q 3.90625 28.71875 3.90625 37.3125 
Q 3.90625 57.125 10.84375 66.5 
Q 16.40625 74.421875 25.984375 74.421875 
z
" id="Gargi-48"/>
       <path d="M 52.203125 4 
L 47.40625 -1 
L 37.59375 8.796875 
Q 31.703125 4.703125 25.09375 4.703125 
Q 18.296875 4.703125 12.40625 8.796875 
L 2.796875 -1 
L -2.203125 4 
L 7.59375 13.59375 
Q 3.5 19.5 3.5 26.203125 
Q 3.5 33.09375 7.59375 38.796875 
L -2.203125 48.59375 
L 2.796875 53.40625 
L 12.40625 43.796875 
Q 18.5 47.703125 25.09375 47.703125 
Q 32 47.703125 37.59375 43.796875 
L 47.40625 53.40625 
L 52.203125 48.59375 
L 42.59375 38.796875 
Q 46.5 33 46.5 26.296875 
Q 46.5 19.703125 42.59375 13.59375 
z
M 39.703125 26.40625 
Q 39.703125 32.59375 35.390625 36.9375 
Q 31.09375 41.296875 24.90625 41.296875 
Q 18.90625 41.296875 14.59375 36.890625 
Q 10.296875 32.5 10.296875 26.296875 
Q 10.296875 20 14.640625 15.546875 
Q 19 11.09375 25.09375 11.09375 
Q 31.296875 11.09375 35.5 15.546875 
Q 39.703125 20 39.703125 26.40625 
z
" id="STIXGeneral-Regular-164"/>
      </defs>
      <g transform="translate(106.973555 440.472025)scale(0.18 -0.18)">
       <use transform="translate(0 0.36875)" xlink:href="#Gargi-49"/>
       <use transform="translate(36.621094 0.36875)" xlink:href="#Gargi-48"/>
       <use transform="translate(92.435234 37.621875)scale(0.7)" xlink:href="#STIXGeneral-Regular-164"/>
       <use transform="translate(127.435224 37.621875)scale(0.7)" xlink:href="#Gargi-49"/>
      </g>
     </g>
    </g>
    <g id="xtick_2">
     <g id="line2d_2">
      <g>
       <use style="stroke:#000000;" x="253.935709" xlink:href="#mdd9518b064" y="421.6464"/>
      </g>
     </g>
     <g id="text_2">
      <!-- $\mathdefault{10^{0}}$ -->
      <g transform="translate(241.875709 440.472025)scale(0.18 -0.18)">
       <use transform="translate(0 0.651563)" xlink:href="#Gargi-49"/>
       <use transform="translate(36.621094 0.651563)" xlink:href="#Gargi-48"/>
       <use transform="translate(92.435234 37.904688)scale(0.7)" xlink:href="#Gargi-48"/>
      </g>
     </g>
    </g>
    <g id="xtick_3">
     <g id="line2d_3">
      <g>
       <use style="stroke:#000000;" x="386.857862" xlink:href="#mdd9518b064" y="421.6464"/>
      </g>
     </g>
     <g id="text_3">
      <!-- $\mathdefault{10^{1}}$ -->
      <g transform="translate(375.967862 440.472025)scale(0.18 -0.18)">
       <use transform="translate(0 0.36875)" xlink:href="#Gargi-49"/>
       <use transform="translate(36.621094 0.36875)" xlink:href="#Gargi-48"/>
       <use transform="translate(92.435234 37.621875)scale(0.7)" xlink:href="#Gargi-49"/>
      </g>
     </g>
    </g>
    <g id="xtick_4">
     <g id="line2d_4">
      <g>
       <use style="stroke:#000000;" x="519.780015" xlink:href="#mdd9518b064" y="421.6464"/>
      </g>
     </g>
     <g id="text_4">
      <!-- $\mathdefault{10^{2}}$ -->
      <defs>
       <path d="M 54.78125 8.796875 
L 54.78125 0 
L 6.84375 0 
Q 6.84375 12.984375 12.703125 19.828125 
Q 17.96875 25.984375 27.046875 31.15625 
L 36.421875 36.421875 
Q 46.1875 42.09375 46.1875 50.6875 
Q 46.1875 58.015625 40.046875 61.921875 
Q 36.53125 64.15625 31.9375 64.15625 
Q 24.3125 64.15625 20.3125 58.40625 
L 19.53125 57.234375 
Q 17.484375 53.90625 17.484375 47.078125 
L 8.5 47.078125 
Q 8.5 57.234375 12.40625 62.703125 
Q 19.046875 71.96875 32.234375 71.96875 
Q 42.28125 71.96875 48.640625 66.3125 
Q 55.28125 60.25 55.28125 50.875 
Q 55.28125 37.5 40.046875 29.109375 
L 29.890625 23.640625 
Q 20.703125 18.265625 18.265625 13.28125 
Q 17.28125 11.234375 16.890625 8.796875 
z
" id="Gargi-50"/>
      </defs>
      <g transform="translate(507.270015 440.472025)scale(0.18 -0.18)">
       <use transform="translate(0 0.36875)" xlink:href="#Gargi-49"/>
       <use transform="translate(36.621094 0.36875)" xlink:href="#Gargi-48"/>
       <use transform="translate(92.435234 37.621875)scale(0.7)" xlink:href="#Gargi-50"/>
      </g>
     </g>
    </g>
    <g id="xtick_5">
     <g id="line2d_5">
      <defs>
       <path d="M 0 0 
L 0 2 
" id="m3265946599" style="stroke:#000000;stroke-width:0.6;"/>
      </defs>
      <g>
       <use style="stroke:#000000;stroke-width:0.6;" x="81" xlink:href="#m3265946599" y="421.6464"/>
      </g>
     </g>
    </g>
    <g id="xtick_6">
     <g id="line2d_6">
      <g>
       <use style="stroke:#000000;stroke-width:0.6;" x="91.524942" xlink:href="#m3265946599" y="421.6464"/>
      </g>
     </g>
    </g>
    <g id="xtick_7">
     <g id="line2d_7">
      <g>
       <use style="stroke:#000000;stroke-width:0.6;" x="100.423653" xlink:href="#m3265946599" y="421.6464"/>
      </g>
     </g>
    </g>
    <g id="xtick_8">
     <g id="line2d_8">
      <g>
       <use style="stroke:#000000;stroke-width:0.6;" x="108.132068" xlink:href="#m3265946599" y="421.6464"/>
      </g>
     </g>
    </g>
    <g id="xtick_9">
     <g id="line2d_9">
      <g>
       <use style="stroke:#000000;stroke-width:0.6;" x="114.931371" xlink:href="#m3265946599" y="421.6464"/>
      </g>
     </g>
    </g>
    <g id="xtick_10">
     <g id="line2d_10">
      <g>
       <use style="stroke:#000000;stroke-width:0.6;" x="161.027111" xlink:href="#m3265946599" y="421.6464"/>
      </g>
     </g>
    </g>
    <g id="xtick_11">
     <g id="line2d_11">
      <g>
       <use style="stroke:#000000;stroke-width:0.6;" x="184.43354" xlink:href="#m3265946599" y="421.6464"/>
      </g>
     </g>
    </g>
    <g id="xtick_12">
     <g id="line2d_12">
      <g>
       <use style="stroke:#000000;stroke-width:0.6;" x="201.040666" xlink:href="#m3265946599" y="421.6464"/>
      </g>
     </g>
    </g>
    <g id="xtick_13">
     <g id="line2d_13">
      <g>
       <use style="stroke:#000000;stroke-width:0.6;" x="213.922153" xlink:href="#m3265946599" y="421.6464"/>
      </g>
     </g>
    </g>
    <g id="xtick_14">
     <g id="line2d_14">
      <g>
       <use style="stroke:#000000;stroke-width:0.6;" x="224.447095" xlink:href="#m3265946599" y="421.6464"/>
      </g>
     </g>
    </g>
    <g id="xtick_15">
     <g id="line2d_15">
      <g>
       <use style="stroke:#000000;stroke-width:0.6;" x="233.345807" xlink:href="#m3265946599" y="421.6464"/>
      </g>
     </g>
    </g>
    <g id="xtick_16">
     <g id="line2d_16">
      <g>
       <use style="stroke:#000000;stroke-width:0.6;" x="241.054221" xlink:href="#m3265946599" y="421.6464"/>
      </g>
     </g>
    </g>
    <g id="xtick_17">
     <g id="line2d_17">
      <g>
       <use style="stroke:#000000;stroke-width:0.6;" x="247.853524" xlink:href="#m3265946599" y="421.6464"/>
      </g>
     </g>
    </g>
    <g id="xtick_18">
     <g id="line2d_18">
      <g>
       <use style="stroke:#000000;stroke-width:0.6;" x="293.949264" xlink:href="#m3265946599" y="421.6464"/>
      </g>
     </g>
    </g>
    <g id="xtick_19">
     <g id="line2d_19">
      <g>
       <use style="stroke:#000000;stroke-width:0.6;" x="317.355693" xlink:href="#m3265946599" y="421.6464"/>
      </g>
     </g>
    </g>
    <g id="xtick_20">
     <g id="line2d_20">
      <g>
       <use style="stroke:#000000;stroke-width:0.6;" x="333.962819" xlink:href="#m3265946599" y="421.6464"/>
      </g>
     </g>
    </g>
    <g id="xtick_21">
     <g id="line2d_21">
      <g>
       <use style="stroke:#000000;stroke-width:0.6;" x="346.844307" xlink:href="#m3265946599" y="421.6464"/>
      </g>
     </g>
    </g>
    <g id="xtick_22">
     <g id="line2d_22">
      <g>
       <use style="stroke:#000000;stroke-width:0.6;" x="357.369248" xlink:href="#m3265946599" y="421.6464"/>
      </g>
     </g>
    </g>
    <g id="xtick_23">
     <g id="line2d_23">
      <g>
       <use style="stroke:#000000;stroke-width:0.6;" x="366.26796" xlink:href="#m3265946599" y="421.6464"/>
      </g>
     </g>
    </g>
    <g id="xtick_24">
     <g id="line2d_24">
      <g>
       <use style="stroke:#000000;stroke-width:0.6;" x="373.976374" xlink:href="#m3265946599" y="421.6464"/>
      </g>
     </g>
    </g>
    <g id="xtick_25">
     <g id="line2d_25">
      <g>
       <use style="stroke:#000000;stroke-width:0.6;" x="380.775678" xlink:href="#m3265946599" y="421.6464"/>
      </g>
     </g>
    </g>
    <g id="xtick_26">
     <g id="line2d_26">
      <g>
       <use style="stroke:#000000;stroke-width:0.6;" x="426.871417" xlink:href="#m3265946599" y="421.6464"/>
      </g>
     </g>
    </g>
    <g id="xtick_27">
     <g id="line2d_27">
      <g>
       <use style="stroke:#000000;stroke-width:0.6;" x="450.277847" xlink:href="#m3265946599" y="421.6464"/>
      </g>
     </g>
    </g>
    <g id="xtick_28">
     <g id="line2d_28">
      <g>
       <use style="stroke:#000000;stroke-width:0.6;" x="466.884973" xlink:href="#m3265946599" y="421.6464"/>
      </g>
     </g>
    </g>
    <g id="xtick_29">
     <g id="line2d_29">
      <g>
       <use style="stroke:#000000;stroke-width:0.6;" x="479.76646" xlink:href="#m3265946599" y="421.6464"/>
      </g>
     </g>
    </g>
    <g id="xtick_30">
     <g id="line2d_30">
      <g>
       <use style="stroke:#000000;stroke-width:0.6;" x="490.291402" xlink:href="#m3265946599" y="421.6464"/>
      </g>
     </g>
    </g>
    <g id="xtick_31">
     <g id="line2d_31">
      <g>
       <use style="stroke:#000000;stroke-width:0.6;" x="499.190113" xlink:href="#m3265946599" y="421.6464"/>
      </g>
     </g>
    </g>
    <g id="xtick_32">
     <g id="line2d_32">
      <g>
       <use style="stroke:#000000;stroke-width:0.6;" x="506.898528" xlink:href="#m3265946599" y="421.6464"/>
      </g>
     </g>
    </g>
    <g id="xtick_33">
     <g id="line2d_33">
      <g>
       <use style="stroke:#000000;stroke-width:0.6;" x="513.697831" xlink:href="#m3265946599" y="421.6464"/>
      </g>
     </g>
    </g>
    <g id="xtick_34">
     <g id="line2d_34">
      <g>
       <use style="stroke:#000000;stroke-width:0.6;" x="559.793571" xlink:href="#m3265946599" y="421.6464"/>
      </g>
     </g>
    </g>
    <g id="xtick_35">
     <g id="line2d_35">
      <g>
       <use style="stroke:#000000;stroke-width:0.6;" x="583.2" xlink:href="#m3265946599" y="421.6464"/>
      </g>
     </g>
    </g>
    <g id="text_5">
     <!-- Papaverine (uM) -->
     <defs>
      <path d="M 14.265625 39.75 
L 33.984375 39.75 
Q 44.34375 39.75 47.359375 47.265625 
Q 48.4375 49.703125 48.4375 52.734375 
Q 48.4375 61.8125 40.4375 64.65625 
Q 37.59375 65.71875 33.984375 65.71875 
L 14.265625 65.71875 
z
M 14.265625 31.34375 
L 14.265625 0 
L 4.890625 0 
L 4.890625 74.03125 
L 35.453125 74.03125 
Q 51.765625 74.03125 56.546875 62.015625 
Q 58.296875 57.90625 58.296875 52.34375 
Q 58.296875 42.484375 51.859375 36.625 
Q 46 31.34375 37.59375 31.34375 
z
" id="Gargi-80"/>
      <path d="M 38.1875 19.140625 
L 38.1875 28.609375 
Q 34.859375 27.15625 26.5625 25.984375 
Q 25.6875 25.875 24.515625 25.6875 
Q 13.765625 24.21875 12.109375 18.65625 
Q 11.71875 17.484375 11.71875 15.921875 
Q 11.71875 9.375 18.5625 7.8125 
Q 20.125 7.421875 22.171875 7.421875 
Q 29.203125 7.421875 34.765625 12.203125 
Q 38.1875 15.140625 38.1875 19.140625 
z
M 52.9375 7.328125 
L 52.9375 0.875 
Q 49.421875 0 47.171875 0 
Q 39.9375 0 38.671875 6.453125 
L 38.484375 7.8125 
Q 29.59375 0 20.40625 0 
Q 9.1875 0 4.78125 7.625 
Q 2.9375 11.140625 2.9375 15.71875 
Q 2.9375 26.078125 12.203125 29.984375 
Q 15.921875 31.453125 25.484375 32.71875 
L 29.296875 33.203125 
Q 36.71875 34.1875 37.796875 37.109375 
Q 38.1875 37.890625 38.1875 39.0625 
L 38.1875 41.3125 
Q 38.1875 47.859375 29.890625 49.03125 
Q 28.21875 49.21875 26.265625 49.21875 
Q 15.828125 49.21875 14.0625 41.609375 
Q 13.875 40.71875 13.765625 39.84375 
L 5.28125 39.84375 
Q 5.5625 47.171875 8.890625 50.875 
Q 14.453125 57.125 26.5625 57.125 
Q 44.4375 57.125 46.390625 45.3125 
Q 46.578125 43.953125 46.578125 42.578125 
L 46.578125 11.328125 
Q 46.578125 7.125 51.171875 7.125 
Q 52.046875 7.125 52.9375 7.328125 
z
" id="Gargi-97"/>
      <path d="M 28.21875 48.921875 
Q 19.828125 48.921875 15.828125 40.4375 
Q 13.484375 35.359375 13.484375 28.328125 
Q 13.484375 15.625 20.40625 10.359375 
Q 23.828125 7.71875 28.21875 7.71875 
Q 36.8125 7.71875 41.015625 15.921875 
Q 43.65625 21 43.65625 28.03125 
Q 43.65625 40.921875 36.53125 46.296875 
Q 32.90625 48.921875 28.21875 48.921875 
z
M 4.890625 -20.015625 
L 4.890625 55.375 
L 12.703125 55.375 
L 12.703125 47.359375 
Q 18.75 56.9375 29.6875 56.9375 
Q 42.578125 56.9375 48.640625 45.609375 
Q 52.546875 38.375 52.546875 27.828125 
Q 52.546875 12.203125 43.453125 4.59375 
Q 37.796875 -0.203125 29.78125 -0.203125 
Q 19.921875 -0.203125 13.484375 7.71875 
L 13.484375 -20.015625 
z
" id="Gargi-112"/>
      <path d="M 29.890625 0 
L 20.703125 0 
L 1.953125 53.21875 
L 11.53125 53.21875 
L 25.78125 10.0625 
L 40.828125 53.21875 
L 50.296875 53.21875 
z
" id="Gargi-118"/>
      <path d="M 11.921875 32.90625 
L 41.796875 32.90625 
Q 41.890625 33.109375 41.890625 33.5 
Q 41.890625 41.703125 35.9375 46.1875 
Q 32.03125 49.125 27.15625 49.125 
Q 18.5625 49.125 14.359375 41.5 
Q 12.3125 37.890625 11.921875 32.90625 
z
M 50.984375 25.984375 
L 11.71875 25.984375 
Q 11.8125 18.65625 14.546875 14.65625 
Q 18.953125 7.71875 27.34375 7.71875 
Q 37.703125 7.71875 41.3125 18.359375 
L 49.8125 18.359375 
Q 47.5625 6.15625 37.015625 1.765625 
Q 32.515625 -0.09375 27.046875 -0.09375 
Q 13.28125 -0.09375 6.84375 11.03125 
Q 2.9375 17.96875 2.9375 28.125 
Q 2.9375 44.234375 12.40625 52.046875 
Q 18.5625 57.03125 27.25 57.03125 
Q 38.96875 57.03125 45.515625 48.640625 
Q 47.5625 46.09375 48.828125 42.96875 
Q 50.984375 37.40625 50.984375 25.984375 
z
" id="Gargi-101"/>
      <path d="M 4.890625 53.21875 
L 12.703125 53.21875 
L 12.703125 43.5625 
Q 18.5625 53.03125 24.421875 54.390625 
Q 25.78125 54.78125 27.25 54.78125 
Q 28.328125 54.78125 30.46875 54.390625 
L 30.46875 45.796875 
Q 23.140625 45.703125 20.015625 43.5625 
L 19.34375 43.171875 
Q 13.375 38.765625 13.375 27.640625 
L 13.375 0 
L 4.890625 0 
z
" id="Gargi-114"/>
      <path d="M 15.328125 74.03125 
L 15.328125 63.375 
L 6.84375 63.375 
L 6.84375 74.03125 
z
M 15.328125 53.21875 
L 15.328125 0 
L 6.9375 0 
L 6.9375 53.21875 
z
" id="Gargi-105"/>
      <path d="M 4.890625 53.21875 
L 12.703125 53.21875 
L 12.703125 44.234375 
Q 18.171875 52.9375 25.875 54.296875 
Q 27.9375 54.78125 30.375 54.78125 
Q 41.015625 54.78125 45.3125 47.65625 
Q 47.171875 44.34375 47.171875 40.234375 
L 47.171875 0 
L 38.765625 0 
L 38.765625 36.921875 
Q 38.765625 43.953125 32.8125 46.390625 
Q 30.5625 47.359375 27.828125 47.359375 
Q 19.234375 47.359375 15.53125 39.546875 
Q 13.375 35.25 13.375 29.390625 
L 13.375 0 
L 4.890625 0 
z
" id="Gargi-110"/>
      <path id="Gargi-32"/>
      <path d="M 23.921875 74.03125 
L 29.59375 74.03125 
Q 15.71875 55.375 15.71875 30.46875 
Q 15.71875 28.328125 15.625 26.265625 
Q 15.53125 24.90625 15.53125 23.53125 
Q 15.53125 4.59375 28.03125 -18.953125 
Q 28.8125 -20.515625 29.59375 -21.484375 
L 23.921875 -21.484375 
Q 12.5 -6.546875 8.6875 12.984375 
Q 7.421875 19.921875 7.421875 26.265625 
Q 7.421875 44.53125 16.890625 62.703125 
Q 20.015625 68.84375 23.921875 74.03125 
z
" id="Gargi-40"/>
      <path d="M 47.171875 2.25 
L 39.546875 2.25 
L 39.546875 9.671875 
Q 33.890625 1.65625 26.375 0.296875 
Q 24.3125 -0.09375 21.78125 -0.09375 
Q 10.9375 -0.09375 6.734375 7.03125 
Q 4.890625 10.25 4.890625 14.453125 
L 4.890625 55.46875 
L 13.28125 55.46875 
L 13.28125 17.78125 
Q 13.28125 10.640625 19.234375 8.203125 
Q 21.484375 7.328125 24.21875 7.328125 
Q 32.90625 7.328125 36.71875 15.234375 
Q 38.765625 19.53125 38.765625 25.296875 
L 38.765625 55.46875 
L 47.171875 55.46875 
z
" id="Gargi-117"/>
      <path d="M 44.828125 0 
L 34.859375 0 
L 13.875 62.015625 
L 13.875 0 
L 4.890625 0 
L 4.890625 74.03125 
L 17.96875 74.03125 
L 39.9375 9.578125 
L 61.421875 74.03125 
L 74.515625 74.03125 
L 74.515625 0 
L 65.625 0 
L 65.625 62.015625 
z
" id="Gargi-77"/>
      <path d="M 9.46875 -21.484375 
L 3.90625 -21.484375 
Q 17.78125 -1.078125 17.78125 22.078125 
Q 17.78125 23.140625 17.78125 24.125 
Q 17.78125 25.203125 17.78125 26.171875 
Q 17.78125 48.046875 5.375 71.484375 
Q 4.5 73.140625 3.90625 74.03125 
L 9.46875 74.03125 
Q 20.90625 58.984375 24.703125 39.546875 
Q 25.984375 32.625 25.984375 26.171875 
Q 25.984375 8.015625 16.609375 -10.15625 
Q 13.375 -16.3125 9.46875 -21.484375 
z
" id="Gargi-41"/>
     </defs>
     <g transform="translate(254.948438 462.881087)scale(0.2 -0.2)">
      <use xlink:href="#Gargi-80"/>
      <use x="63.183594" xlink:href="#Gargi-97"/>
      <use x="120.996094" xlink:href="#Gargi-112"/>
      <use x="178.417969" xlink:href="#Gargi-97"/>
      <use x="236.230469" xlink:href="#Gargi-118"/>
      <use x="288.476562" xlink:href="#Gargi-101"/>
      <use x="344.335938" xlink:href="#Gargi-114"/>
      <use x="379.6875" xlink:href="#Gargi-105"/>
      <use x="401.855469" xlink:href="#Gargi-110"/>
      <use x="453.90625" xlink:href="#Gargi-101"/>
      <use x="509.765625" xlink:href="#Gargi-32"/>
      <use x="534.179688" xlink:href="#Gargi-40"/>
      <use x="587.109375" xlink:href="#Gargi-117"/>
      <use x="639.160156" xlink:href="#Gargi-77"/>
      <use x="718.554688" xlink:href="#Gargi-41"/>
     </g>
    </g>
   </g>
   <g id="matplotlib.axis_2">
    <g id="ytick_1">
     <g id="line2d_36">
      <defs>
       <path d="M 0 0 
L -2 0 
" id="m677a2a5835" style="stroke:#000000;"/>
      </defs>
      <g>
       <use style="stroke:#000000;" x="81" xlink:href="#m677a2a5835" y="421.6464"/>
      </g>
     </g>
     <g id="text_6">
      <!-- 0 -->
      <g transform="translate(65.619687 428.309213)scale(0.18 -0.18)">
       <use xlink:href="#Gargi-48"/>
      </g>
     </g>
    </g>
    <g id="ytick_2">
     <g id="line2d_37">
      <g>
       <use style="stroke:#000000;" x="81" xlink:href="#m677a2a5835" y="373.00704"/>
      </g>
     </g>
     <g id="text_7">
      <!-- 1 -->
      <g transform="translate(68.9075 379.669852)scale(0.18 -0.18)">
       <use xlink:href="#Gargi-49"/>
      </g>
     </g>
    </g>
    <g id="ytick_3">
     <g id="line2d_38">
      <g>
       <use style="stroke:#000000;" x="81" xlink:href="#m677a2a5835" y="324.36768"/>
      </g>
     </g>
     <g id="text_8">
      <!-- 2 -->
      <g transform="translate(64.320312 331.030493)scale(0.18 -0.18)">
       <use xlink:href="#Gargi-50"/>
      </g>
     </g>
    </g>
    <g id="ytick_4">
     <g id="line2d_39">
      <g>
       <use style="stroke:#000000;" x="81" xlink:href="#m677a2a5835" y="275.72832"/>
      </g>
     </g>
     <g id="text_9">
      <!-- 3 -->
      <defs>
       <path d="M 26.078125 35.25 
L 26.078125 42.78125 
Q 34.578125 42.78125 37.984375 44.34375 
Q 43.75 46.96875 43.75 54 
Q 43.75 62.703125 36.625 65.4375 
Q 34.1875 66.3125 31.0625 66.3125 
Q 23.046875 66.3125 19.4375 60.84375 
Q 19.140625 60.359375 18.953125 59.96875 
Q 17.28125 57.03125 17.28125 50.875 
L 8.40625 50.875 
Q 8.40625 74.03125 27.640625 74.03125 
Q 28.71875 74.03125 30.953125 74.125 
Q 31.734375 74.125 32.421875 74.125 
Q 44.734375 74.125 50.390625 64.65625 
Q 52.828125 60.453125 52.828125 54.390625 
Q 52.828125 43.359375 42.78125 39.453125 
Q 52.25 36.140625 54.296875 28.421875 
Q 54.984375 25.78125 54.984375 22.265625 
Q 54.984375 9.859375 45.40625 3.71875 
Q 39.265625 -0.203125 30.671875 -0.203125 
Q 15.625 -0.203125 10.0625 10.25 
Q 6.84375 15.140625 6.84375 23.046875 
L 15.828125 23.046875 
Q 15.828125 9.671875 27.25 8.015625 
Q 29.296875 7.71875 30.953125 7.71875 
Q 41.5 7.71875 44.734375 15.71875 
Q 45.90625 18.5625 45.90625 22.171875 
Q 45.90625 35.25 30.953125 35.25 
L 27.15625 35.25 
z
" id="Gargi-51"/>
      </defs>
      <g transform="translate(64.725313 282.391133)scale(0.18 -0.18)">
       <use xlink:href="#Gargi-51"/>
      </g>
     </g>
    </g>
    <g id="ytick_5">
     <g id="line2d_40">
      <g>
       <use style="stroke:#000000;" x="81" xlink:href="#m677a2a5835" y="227.08896"/>
      </g>
     </g>
     <g id="text_10">
      <!-- 4 -->
      <defs>
       <path d="M 37.203125 25.296875 
L 37.203125 56.734375 
L 14.65625 25.296875 
z
M 37.203125 17.28125 
L 6.84375 17.28125 
L 6.84375 26.765625 
L 39.546875 71.96875 
L 46.1875 71.96875 
L 46.1875 25.296875 
L 56.84375 25.296875 
L 56.84375 17.28125 
L 46.1875 17.28125 
L 46.1875 0 
L 37.203125 0 
z
" id="Gargi-52"/>
      </defs>
      <g transform="translate(64.039062 233.751772)scale(0.18 -0.18)">
       <use xlink:href="#Gargi-52"/>
      </g>
     </g>
    </g>
    <g id="ytick_6">
     <g id="line2d_41">
      <g>
       <use style="stroke:#000000;" x="81" xlink:href="#m677a2a5835" y="178.4496"/>
      </g>
     </g>
     <g id="text_11">
      <!-- 5 -->
      <defs>
       <path d="M 51.65625 74.21875 
L 51.65625 65.4375 
L 21.6875 65.4375 
L 18.84375 45.3125 
Q 24.8125 49.703125 32.125 49.703125 
Q 44.34375 49.703125 50.875 40.828125 
Q 55.46875 34.671875 55.46875 25.6875 
Q 55.46875 12.59375 46.578125 5.28125 
Q 40.046875 -0.09375 30.765625 -0.09375 
Q 19.34375 -0.09375 12.796875 6.734375 
Q 11.921875 7.625 11.234375 8.5 
Q 8.5 11.921875 6.84375 19.921875 
L 15.828125 19.921875 
Q 18.953125 7.8125 30.5625 7.8125 
Q 40.828125 7.8125 44.625 16.015625 
Q 46.296875 19.734375 46.296875 24.515625 
Q 46.296875 35.546875 38.578125 39.84375 
Q 35.15625 41.796875 30.5625 41.796875 
Q 24.03125 41.796875 19.4375 37.40625 
L 17.390625 35.0625 
L 9.078125 35.0625 
L 14.453125 74.21875 
z
" id="Gargi-53"/>
      </defs>
      <g transform="translate(64.28375 185.112413)scale(0.18 -0.18)">
       <use xlink:href="#Gargi-53"/>
      </g>
     </g>
    </g>
    <g id="ytick_7">
     <g id="line2d_42">
      <g>
       <use style="stroke:#000000;" x="81" xlink:href="#m677a2a5835" y="129.81024"/>
      </g>
     </g>
     <g id="text_12">
      <!-- 6 -->
      <defs>
       <path d="M 29.390625 39.15625 
Q 20.796875 39.15625 16.703125 32.421875 
Q 14.546875 28.71875 14.546875 24.03125 
Q 14.546875 15.234375 20.703125 10.546875 
Q 24.3125 7.8125 29.109375 7.8125 
Q 36.8125 7.8125 40.921875 14.265625 
Q 43.453125 18.265625 43.453125 23.4375 
Q 43.453125 33.796875 36.234375 37.59375 
Q 33.296875 39.15625 29.390625 39.15625 
z
M 51.078125 55.46875 
L 42.09375 55.46875 
Q 40.328125 64.359375 32.90625 66.015625 
Q 31.546875 66.3125 30.078125 66.3125 
Q 18.75 66.3125 15.328125 51.65625 
Q 13.96875 46.1875 13.96875 38.96875 
Q 19.921875 47.078125 30.5625 47.078125 
Q 41.796875 47.078125 48.140625 38.578125 
Q 52.640625 32.625 52.640625 24.21875 
Q 52.640625 12.109375 44.234375 5.171875 
Q 37.984375 -0.09375 29 -0.09375 
Q 17.09375 -0.09375 10.9375 8.890625 
Q 4.890625 17.78125 4.890625 33.890625 
L 4.890625 35.0625 
Q 4.890625 53.8125 11.328125 63.96875 
Q 17.09375 72.5625 27.25 74.03125 
Q 28.90625 74.21875 30.671875 74.21875 
Q 42.28125 74.21875 47.953125 64.84375 
Q 50.296875 60.84375 51.078125 55.46875 
z
" id="Gargi-54"/>
      </defs>
      <g transform="translate(65.147188 136.473052)scale(0.18 -0.18)">
       <use xlink:href="#Gargi-54"/>
      </g>
     </g>
    </g>
    <g id="ytick_8">
     <g id="line2d_43">
      <g>
       <use style="stroke:#000000;" x="81" xlink:href="#m677a2a5835" y="81.17088"/>
      </g>
     </g>
     <g id="text_13">
      <!-- 7 -->
      <defs>
       <path d="M 54.984375 71.96875 
L 54.984375 64.453125 
Q 34.46875 37.3125 27.734375 9.765625 
Q 26.5625 4.984375 25.6875 0 
L 16.21875 0 
Q 21.296875 22.171875 30.671875 39.546875 
Q 36.234375 49.8125 45.703125 63.1875 
L 6.84375 63.1875 
L 6.84375 71.96875 
z
" id="Gargi-55"/>
      </defs>
      <g transform="translate(64.725313 87.833692)scale(0.18 -0.18)">
       <use xlink:href="#Gargi-55"/>
      </g>
     </g>
    </g>
    <g id="text_14">
     <!-- Fluorescence (RFU/OD600) -->
     <defs>
      <path d="M 14.265625 33.6875 
L 14.265625 0 
L 4.890625 0 
L 4.890625 74.03125 
L 54.5 74.03125 
L 54.5 65.71875 
L 14.265625 65.71875 
L 14.265625 42.09375 
L 49.609375 42.09375 
L 49.609375 33.6875 
z
" id="Gargi-70"/>
      <path d="M 15.328125 74.03125 
L 15.328125 0 
L 6.84375 0 
L 6.84375 74.03125 
z
" id="Gargi-108"/>
      <path d="M 27.046875 49.21875 
Q 17.578125 49.21875 13.765625 39.9375 
Q 11.8125 35.0625 11.8125 28.515625 
Q 11.8125 14.65625 19.734375 9.765625 
Q 22.859375 7.8125 27.046875 7.8125 
Q 36.234375 7.8125 40.140625 16.796875 
Q 42.28125 21.578125 42.28125 28.21875 
Q 42.28125 42.96875 33.984375 47.65625 
Q 30.859375 49.21875 27.046875 49.21875 
z
M 26.953125 57.125 
Q 42.28125 57.125 48.140625 43.953125 
Q 51.078125 37.3125 51.078125 28.125 
Q 51.078125 11.140625 40.71875 4 
Q 35.0625 0 27.046875 0 
Q 12.40625 0 6.34375 12.109375 
Q 2.9375 18.953125 2.9375 28.515625 
Q 2.9375 46.1875 13.671875 53.328125 
Q 19.234375 57.125 26.953125 57.125 
z
" id="Gargi-111"/>
      <path d="M 44.046875 40.53125 
L 35.0625 40.53125 
Q 34.765625 49.03125 24.421875 49.03125 
Q 16.109375 49.03125 13.765625 44.140625 
Q 13.09375 42.671875 13.09375 41.015625 
Q 13.09375 36.53125 19.828125 34.28125 
Q 21.296875 33.796875 22.953125 33.40625 
L 31.0625 31.546875 
Q 43.0625 28.609375 45.40625 21.578125 
Q 46.09375 19.4375 46.09375 16.703125 
Q 46.09375 7.03125 37.203125 2.546875 
Q 31.84375 -0.203125 24.21875 -0.203125 
Q 4.5 -0.203125 3.03125 16.3125 
Q 2.9375 17.09375 2.9375 17.96875 
L 11.921875 17.96875 
Q 12.5 13.1875 14.359375 11.234375 
Q 17.671875 7.625 24.90625 7.625 
Q 33.40625 7.625 36.234375 12.40625 
Q 37.3125 14.0625 37.3125 15.921875 
Q 37.3125 20.609375 31.84375 22.5625 
Q 30.5625 22.953125 29.109375 23.34375 
L 21.1875 25.296875 
Q 9.078125 28.328125 5.953125 33.40625 
Q 4.296875 36.234375 4.296875 40.625 
Q 4.296875 50.09375 12.796875 54.390625 
Q 17.78125 56.9375 24.703125 56.9375 
Q 39.453125 56.9375 42.96875 46.6875 
Q 44.046875 43.84375 44.046875 40.53125 
z
" id="Gargi-115"/>
      <path d="M 47.65625 37.796875 
L 39.0625 37.796875 
Q 37.796875 47.65625 29.296875 49.125 
Q 27.9375 49.3125 26.5625 49.3125 
Q 17 49.3125 13.375 39.15625 
Q 11.8125 34.578125 11.8125 28.125 
Q 11.8125 14.265625 19.828125 9.671875 
Q 22.75 7.90625 26.765625 7.90625 
Q 37.59375 7.90625 39.75 20.703125 
L 48.25 20.703125 
Q 48.25 6.84375 36.53125 2.15625 
Q 32.234375 0.09375 26.5625 0.09375 
Q 13.375 0.09375 7.125 10.75 
Q 2.9375 17.875 2.9375 28.125 
Q 2.9375 44.4375 12.3125 52.25 
Q 18.265625 57.234375 26.65625 57.234375 
Q 37.40625 57.234375 43.265625 50.296875 
L 44.046875 49.21875 
Q 47.078125 44.921875 47.65625 37.796875 
z
" id="Gargi-99"/>
      <path d="M 14.265625 40.234375 
L 37.109375 40.234375 
Q 49.421875 40.234375 51.265625 48.921875 
Q 51.65625 50.6875 51.65625 52.9375 
Q 51.65625 59.578125 47.859375 62.890625 
Q 44.53125 65.71875 37.109375 65.71875 
L 14.265625 65.71875 
z
M 14.265625 31.9375 
L 14.265625 0 
L 4.890625 0 
L 4.890625 74.03125 
L 38.96875 74.03125 
Q 56.25 74.03125 60.453125 61.8125 
Q 61.53125 58.5 61.53125 54.203125 
Q 61.53125 44.234375 54.203125 39.0625 
Q 52.25 37.796875 49.8125 36.53125 
Q 56.15625 33.796875 58.109375 29.78125 
Q 59.859375 25.984375 59.859375 17.28125 
Q 59.859375 7.515625 61.8125 4.78125 
Q 62.796875 3.421875 64.359375 2.34375 
L 64.359375 0 
L 52.9375 0 
Q 50.875 4.890625 50.875 12.109375 
L 50.875 18.65625 
Q 50.875 29.78125 42.78125 31.453125 
Q 40.921875 31.9375 38.671875 31.9375 
z
" id="Gargi-82"/>
      <path d="M 52.34375 75 
L 61.8125 75 
L 61.8125 24.125 
Q 61.8125 11.140625 51.265625 4.6875 
Q 43.953125 0.203125 33.296875 0.203125 
Q 16.5 0.203125 9.078125 10.25 
Q 4.890625 15.921875 4.890625 24.125 
L 4.890625 75 
L 14.359375 75 
L 14.359375 24.125 
Q 14.359375 16.3125 19.734375 12.109375 
Q 25.09375 8.296875 33.296875 8.296875 
Q 45.90625 8.296875 50.390625 16.3125 
Q 52.34375 19.828125 52.34375 24.125 
z
" id="Gargi-85"/>
      <path d="M 23.25 74.03125 
L 28.8125 74.03125 
L 4.78125 -2.046875 
L -0.78125 -2.046875 
z
" id="Gargi-47"/>
      <path d="M 38.578125 68.171875 
Q 25.203125 68.171875 17.96875 58.015625 
Q 12.3125 50.09375 12.3125 38.28125 
Q 12.3125 22.65625 21.96875 14.359375 
Q 28.90625 8.40625 38.375 8.40625 
Q 38.484375 8.40625 38.671875 8.40625 
Q 51.65625 8.40625 59.078125 18.359375 
Q 64.9375 26.265625 64.9375 37.890625 
Q 64.9375 54.390625 54.984375 62.59375 
Q 48.25 68.171875 38.578125 68.171875 
z
M 38.578125 76.375 
Q 56.25 76.375 66.015625 64.15625 
Q 74.421875 53.71875 74.421875 37.703125 
Q 74.421875 22.953125 66.015625 12.5 
Q 63.96875 9.859375 61.625 7.90625 
Q 52.34375 0.296875 38.671875 0.296875 
Q 21.78125 0.296875 11.71875 12.015625 
Q 2.9375 22.265625 2.9375 38.28125 
Q 2.9375 56.734375 14.15625 67.28125 
Q 23.828125 76.375 38.578125 76.375 
z
" id="Gargi-79"/>
      <path d="M 14.265625 8.296875 
L 31.734375 8.296875 
Q 49.421875 8.296875 53.21875 26.765625 
Q 54.109375 31.25 54.109375 37.015625 
Q 54.109375 61.921875 37.015625 65.234375 
Q 34.46875 65.71875 31.734375 65.71875 
L 14.265625 65.71875 
z
M 4.890625 0 
L 4.890625 74.03125 
L 33.40625 74.03125 
Q 49.90625 74.03125 57.90625 60.640625 
Q 63.578125 51.265625 63.578125 37.109375 
Q 63.578125 15.921875 51.765625 6.15625 
Q 44.34375 0 33.40625 0 
z
" id="Gargi-68"/>
     </defs>
     <g transform="translate(55.742187 367.808175)rotate(-90)scale(0.2 -0.2)">
      <use xlink:href="#Gargi-70"/>
      <use x="59.375" xlink:href="#Gargi-108"/>
      <use x="81.542969" xlink:href="#Gargi-117"/>
      <use x="133.59375" xlink:href="#Gargi-111"/>
      <use x="187.597656" xlink:href="#Gargi-114"/>
      <use x="222.949219" xlink:href="#Gargi-101"/>
      <use x="278.808594" xlink:href="#Gargi-115"/>
      <use x="327.832031" xlink:href="#Gargi-99"/>
      <use x="379.003906" xlink:href="#Gargi-101"/>
      <use x="434.863281" xlink:href="#Gargi-110"/>
      <use x="486.914062" xlink:href="#Gargi-99"/>
      <use x="538.085938" xlink:href="#Gargi-101"/>
      <use x="593.945312" xlink:href="#Gargi-32"/>
      <use x="618.359375" xlink:href="#Gargi-40"/>
      <use x="671.289062" xlink:href="#Gargi-82"/>
      <use x="740.527344" xlink:href="#Gargi-70"/>
      <use x="799.902344" xlink:href="#Gargi-85"/>
      <use x="866.601562" xlink:href="#Gargi-47"/>
      <use x="919.53125" xlink:href="#Gargi-79"/>
      <use x="996.875" xlink:href="#Gargi-68"/>
      <use x="1065.332031" xlink:href="#Gargi-54"/>
      <use x="1122.851562" xlink:href="#Gargi-48"/>
      <use x="1177.734375" xlink:href="#Gargi-48"/>
      <use x="1232.617188" xlink:href="#Gargi-41"/>
     </g>
    </g>
   </g>
   <g id="line2d_44">
    <path clip-path="url(#p7b5bfe58b9)" d="M 78.039551 419.659875 
L 230.817774 418.912189 
L 361.07291 418.056225 
L 475.335132 417.087345 
L 572.675058 416.058274 
L 572.675058 416.058274 
" style="fill:none;stroke:#0099ff;stroke-linecap:square;stroke-width:1.5;"/>
   </g>
   <g id="line2d_45">
    <path clip-path="url(#p7b5bfe58b9)" d="M 78.039551 421.644017 
L 286.406127 421.523368 
L 344.488338 421.277026 
L 380.792288 420.912068 
L 407.425246 420.430716 
L 428.51526 419.834288 
L 446.001107 419.12337 
L 460.951503 418.298151 
L 474.01424 417.35898 
L 485.622196 416.305483 
L 496.071022 415.137505 
L 505.576176 413.854532 
L 514.299799 412.455639 
L 522.365747 410.939711 
L 529.872159 409.305143 
L 536.897074 407.550085 
L 543.504609 405.672137 
L 549.748083 403.668316 
L 555.672298 401.535033 
L 561.314548 399.268364 
L 566.70751 396.863442 
L 571.879889 394.314422 
L 572.675058 393.899945 
L 572.675058 393.899945 
" style="fill:none;stroke:#3372cc;stroke-linecap:square;stroke-width:1.5;"/>
   </g>
   <g id="line2d_46">
    <path clip-path="url(#p7b5bfe58b9)" d="M 78.039551 421.424296 
L 146.313432 421.119311 
L 192.919011 420.695592 
L 228.398369 420.15657 
L 257.027053 419.505877 
L 281.158482 418.741175 
L 302.080642 417.860257 
L 320.492618 416.866545 
L 336.951476 415.759381 
L 351.846169 414.53791 
L 365.437913 413.203408 
L 377.950106 411.754477 
L 389.551132 410.189793 
L 400.36004 408.509989 
L 410.485734 406.71359 
L 420.014935 404.799222 
L 429.018029 402.765591 
L 437.55307 400.611476 
L 445.673803 398.334178 
L 453.419327 395.932751 
L 460.831421 393.403404 
L 467.943748 390.742744 
L 474.787118 387.946362 
L 481.383646 385.011591 
L 487.757266 381.933458 
L 493.927348 378.707467 
L 499.913918 375.327143 
L 505.732856 371.786617 
L 511.400295 368.07829 
L 516.928841 364.195254 
L 522.329857 360.130132 
L 527.616048 355.873041 
L 532.797005 351.414966 
L 537.882108 346.745662 
L 542.880253 341.853802 
L 547.798794 336.728062 
L 552.645441 331.355263 
L 557.426326 325.722412 
L 562.147692 319.814905 
L 566.814955 313.617595 
L 571.433349 307.114003 
L 572.675058 305.299606 
L 572.675058 305.299606 
" style="fill:none;stroke:#674c9a;stroke-linecap:square;stroke-width:1.5;"/>
   </g>
   <g id="line2d_47">
    <path clip-path="url(#p7b5bfe58b9)" d="M 78.039551 421.584286 
L 152.48865 421.383277 
L 193.743701 421.06129 
L 222.738915 420.621166 
L 245.229679 420.063667 
L 263.613171 419.391156 
L 279.235585 418.601883 
L 292.857177 417.694693 
L 304.894184 416.674689 
L 315.795977 415.530686 
L 325.716438 414.268839 
L 334.858412 412.884447 
L 343.365025 411.37318 
L 351.314361 409.737073 
L 358.818727 407.966942 
L 365.916981 406.065973 
L 372.700149 404.020321 
L 379.199484 401.828741 
L 385.456086 399.485011 
L 391.501292 396.983979 
L 397.383381 394.310245 
L 403.125417 391.455913 
L 408.753978 388.40936 
L 414.287399 385.161344 
L 419.762477 381.689134 
L 425.195437 377.979493 
L 430.608907 374.013163 
L 436.034001 369.761616 
L 441.499053 365.194683 
L 447.033126 360.278312 
L 452.671903 354.96919 
L 458.463521 349.207881 
L 464.465078 342.920675 
L 470.764323 335.995211 
L 477.488611 328.266365 
L 484.866172 319.440071 
L 493.382746 308.892013 
L 504.73766 294.445205 
L 526.578613 266.603708 
L 535.250547 255.961067 
L 542.684538 247.182553 
L 549.444143 239.538872 
L 555.772186 232.714302 
L 561.804448 226.532008 
L 567.626453 220.880447 
L 572.675058 216.238055 
L 572.675058 216.238055 
" style="fill:none;stroke:#9a2667;stroke-linecap:square;stroke-width:1.5;"/>
   </g>
   <g id="line2d_48">
    <path clip-path="url(#p7b5bfe58b9)" d="M 78.039551 421.612713 
L 151.645899 421.44189 
L 188.159755 421.14641 
L 212.756482 420.733992 
L 231.460386 420.205867 
L 246.556803 419.565292 
L 259.306943 418.808991 
L 270.398913 417.933412 
L 280.159243 416.945473 
L 288.97936 415.832752 
L 296.97217 414.603825 
L 304.354392 413.245666 
L 311.167085 411.768702 
L 317.548375 410.159708 
L 323.553794 408.417585 
L 329.228377 406.541825 
L 334.644871 404.5184 
L 339.825074 402.34708 
L 344.818124 400.013723 
L 349.633916 397.518964 
L 354.332792 394.834065 
L 358.912478 391.960552 
L 363.394254 388.885816 
L 367.814535 385.582535 
L 372.181415 382.040052 
L 376.51793 378.233809 
L 380.840361 374.141473 
L 385.159592 369.743724 
L 389.49601 365.009482 
L 393.888192 359.882083 
L 398.349402 354.328303 
L 402.907248 348.29471 
L 407.596798 341.712971 
L 412.464182 334.493035 
L 417.575037 326.507964 
L 423.030786 317.563901 
L 429.004123 307.334014 
L 435.848997 295.155297 
L 444.701806 278.917315 
L 465.32402 240.932885 
L 472.272642 228.707891 
L 478.290703 218.560535 
L 483.780593 209.732025 
L 488.924118 201.875292 
L 493.823363 194.792247 
L 498.545917 188.350915 
L 503.136895 182.460991 
L 507.634039 177.049618 
L 512.063931 172.063932 
L 516.452287 167.457088 
L 520.820367 163.191718 
L 525.186743 159.236935 
L 529.570869 155.564579 
L 533.990569 152.151287 
L 538.465578 148.975409 
L 543.014545 146.019211 
L 547.657389 143.266937 
L 552.417125 140.7039 
L 557.317964 138.317766 
L 562.386892 136.09773 
L 567.654168 134.034456 
L 572.675058 132.277586 
L 572.675058 132.277586 
" style="fill:none;stroke:#ce0035;stroke-linecap:square;stroke-width:1.5;"/>
   </g>
   <g id="line2d_49">
    <defs>
     <path d="M 0 3 
C 0.795609 3 1.55874 2.683901 2.12132 2.12132 
C 2.683901 1.55874 3 0.795609 3 0 
C 3 -0.795609 2.683901 -1.55874 2.12132 -2.12132 
C 1.55874 -2.683901 0.795609 -3 0 -3 
C -0.795609 -3 -1.55874 -2.683901 -2.12132 -2.12132 
C -2.683901 -1.55874 -3 -0.795609 -3 0 
C -3 0.795609 -2.683901 1.55874 -2.12132 2.12132 
C -1.55874 2.683901 -0.795609 3 0 3 
z
" id="md47ee1efb5" style="stroke:#0099ff;"/>
    </defs>
    <g clip-path="url(#p7b5bfe58b9)">
     <use style="fill:#0099ff;stroke:#0099ff;" x="-1" xlink:href="#md47ee1efb5" y="418.835298"/>
     <use style="fill:#0099ff;stroke:#0099ff;" x="121.013555" xlink:href="#md47ee1efb5" y="418.835301"/>
     <use style="fill:#0099ff;stroke:#0099ff;" x="173.908598" xlink:href="#md47ee1efb5" y="418.830343"/>
     <use style="fill:#0099ff;stroke:#0099ff;" x="213.922153" xlink:href="#md47ee1efb5" y="418.749161"/>
     <use style="fill:#0099ff;stroke:#0099ff;" x="253.935709" xlink:href="#md47ee1efb5" y="418.805456"/>
     <use style="fill:#0099ff;stroke:#0099ff;" x="306.830752" xlink:href="#md47ee1efb5" y="418.762927"/>
     <use style="fill:#0099ff;stroke:#0099ff;" x="346.844307" xlink:href="#md47ee1efb5" y="418.798024"/>
     <use style="fill:#0099ff;stroke:#0099ff;" x="386.857862" xlink:href="#md47ee1efb5" y="418.697516"/>
     <use style="fill:#0099ff;stroke:#0099ff;" x="439.752905" xlink:href="#md47ee1efb5" y="418.302177"/>
     <use style="fill:#0099ff;stroke:#0099ff;" x="479.76646" xlink:href="#md47ee1efb5" y="417.888782"/>
     <use style="fill:#0099ff;stroke:#0099ff;" x="519.780015" xlink:href="#md47ee1efb5" y="417.16831"/>
     <use style="fill:#0099ff;stroke:#0099ff;" x="572.675058" xlink:href="#md47ee1efb5" y="414.880078"/>
    </g>
   </g>
   <g id="line2d_50">
    <g clip-path="url(#p7b5bfe58b9)">
     <use style="fill:#0099ff;stroke:#0099ff;" x="-1" xlink:href="#md47ee1efb5" y="418.851012"/>
     <use style="fill:#0099ff;stroke:#0099ff;" x="121.013555" xlink:href="#md47ee1efb5" y="418.850977"/>
     <use style="fill:#0099ff;stroke:#0099ff;" x="173.908598" xlink:href="#md47ee1efb5" y="418.704412"/>
     <use style="fill:#0099ff;stroke:#0099ff;" x="213.922153" xlink:href="#md47ee1efb5" y="418.809669"/>
     <use style="fill:#0099ff;stroke:#0099ff;" x="253.935709" xlink:href="#md47ee1efb5" y="418.622869"/>
     <use style="fill:#0099ff;stroke:#0099ff;" x="306.830752" xlink:href="#md47ee1efb5" y="418.872756"/>
     <use style="fill:#0099ff;stroke:#0099ff;" x="346.844307" xlink:href="#md47ee1efb5" y="418.762141"/>
     <use style="fill:#0099ff;stroke:#0099ff;" x="386.857862" xlink:href="#md47ee1efb5" y="418.735863"/>
     <use style="fill:#0099ff;stroke:#0099ff;" x="439.752905" xlink:href="#md47ee1efb5" y="418.28256"/>
     <use style="fill:#0099ff;stroke:#0099ff;" x="479.76646" xlink:href="#md47ee1efb5" y="417.708706"/>
     <use style="fill:#0099ff;stroke:#0099ff;" x="519.780015" xlink:href="#md47ee1efb5" y="417.168828"/>
     <use style="fill:#0099ff;stroke:#0099ff;" x="572.675058" xlink:href="#md47ee1efb5" y="414.857421"/>
    </g>
   </g>
   <g id="line2d_51">
    <g clip-path="url(#p7b5bfe58b9)">
     <use style="fill:#0099ff;stroke:#0099ff;" x="-1" xlink:href="#md47ee1efb5" y="418.640579"/>
     <use style="fill:#0099ff;stroke:#0099ff;" x="121.013555" xlink:href="#md47ee1efb5" y="418.640703"/>
     <use style="fill:#0099ff;stroke:#0099ff;" x="173.908598" xlink:href="#md47ee1efb5" y="418.319587"/>
     <use style="fill:#0099ff;stroke:#0099ff;" x="213.922153" xlink:href="#md47ee1efb5" y="418.330576"/>
     <use style="fill:#0099ff;stroke:#0099ff;" x="253.935709" xlink:href="#md47ee1efb5" y="418.310932"/>
     <use style="fill:#0099ff;stroke:#0099ff;" x="306.830752" xlink:href="#md47ee1efb5" y="418.435799"/>
     <use style="fill:#0099ff;stroke:#0099ff;" x="346.844307" xlink:href="#md47ee1efb5" y="418.383263"/>
     <use style="fill:#0099ff;stroke:#0099ff;" x="386.857862" xlink:href="#md47ee1efb5" y="418.022441"/>
     <use style="fill:#0099ff;stroke:#0099ff;" x="439.752905" xlink:href="#md47ee1efb5" y="418.005759"/>
     <use style="fill:#0099ff;stroke:#0099ff;" x="479.76646" xlink:href="#md47ee1efb5" y="417.107079"/>
     <use style="fill:#0099ff;stroke:#0099ff;" x="519.780015" xlink:href="#md47ee1efb5" y="416.753204"/>
     <use style="fill:#0099ff;stroke:#0099ff;" x="572.675058" xlink:href="#md47ee1efb5" y="414.146895"/>
    </g>
   </g>
   <g id="line2d_52">
    <defs>
     <path d="M 0 3 
C 0.795609 3 1.55874 2.683901 2.12132 2.12132 
C 2.683901 1.55874 3 0.795609 3 0 
C 3 -0.795609 2.683901 -1.55874 2.12132 -2.12132 
C 1.55874 -2.683901 0.795609 -3 0 -3 
C -0.795609 -3 -1.55874 -2.683901 -2.12132 -2.12132 
C -2.683901 -1.55874 -3 -0.795609 -3 0 
C -3 0.795609 -2.683901 1.55874 -2.12132 2.12132 
C -1.55874 2.683901 -0.795609 3 0 3 
z
" id="m2673cd9238" style="stroke:#3372cc;"/>
    </defs>
    <g clip-path="url(#p7b5bfe58b9)">
     <use style="fill:#3372cc;stroke:#3372cc;" x="-1" xlink:href="#m2673cd9238" y="420.338"/>
     <use style="fill:#3372cc;stroke:#3372cc;" x="121.013555" xlink:href="#m2673cd9238" y="420.33815"/>
     <use style="fill:#3372cc;stroke:#3372cc;" x="173.908598" xlink:href="#m2673cd9238" y="420.248988"/>
     <use style="fill:#3372cc;stroke:#3372cc;" x="213.922153" xlink:href="#m2673cd9238" y="420.121715"/>
     <use style="fill:#3372cc;stroke:#3372cc;" x="253.935709" xlink:href="#m2673cd9238" y="420.043889"/>
     <use style="fill:#3372cc;stroke:#3372cc;" x="306.830752" xlink:href="#m2673cd9238" y="420.169424"/>
     <use style="fill:#3372cc;stroke:#3372cc;" x="346.844307" xlink:href="#m2673cd9238" y="419.912567"/>
     <use style="fill:#3372cc;stroke:#3372cc;" x="386.857862" xlink:href="#m2673cd9238" y="419.715572"/>
     <use style="fill:#3372cc;stroke:#3372cc;" x="439.752905" xlink:href="#m2673cd9238" y="418.721506"/>
     <use style="fill:#3372cc;stroke:#3372cc;" x="479.76646" xlink:href="#m2673cd9238" y="417.093679"/>
     <use style="fill:#3372cc;stroke:#3372cc;" x="519.780015" xlink:href="#m2673cd9238" y="412.351422"/>
     <use style="fill:#3372cc;stroke:#3372cc;" x="572.675058" xlink:href="#m2673cd9238" y="393.630304"/>
    </g>
   </g>
   <g id="line2d_53">
    <g clip-path="url(#p7b5bfe58b9)">
     <use style="fill:#3372cc;stroke:#3372cc;" x="-1" xlink:href="#m2673cd9238" y="420.095439"/>
     <use style="fill:#3372cc;stroke:#3372cc;" x="121.013555" xlink:href="#m2673cd9238" y="420.095209"/>
     <use style="fill:#3372cc;stroke:#3372cc;" x="173.908598" xlink:href="#m2673cd9238" y="420.231316"/>
     <use style="fill:#3372cc;stroke:#3372cc;" x="213.922153" xlink:href="#m2673cd9238" y="420.168173"/>
     <use style="fill:#3372cc;stroke:#3372cc;" x="253.935709" xlink:href="#m2673cd9238" y="420.147903"/>
     <use style="fill:#3372cc;stroke:#3372cc;" x="306.830752" xlink:href="#m2673cd9238" y="420.010145"/>
     <use style="fill:#3372cc;stroke:#3372cc;" x="346.844307" xlink:href="#m2673cd9238" y="419.974164"/>
     <use style="fill:#3372cc;stroke:#3372cc;" x="386.857862" xlink:href="#m2673cd9238" y="419.569458"/>
     <use style="fill:#3372cc;stroke:#3372cc;" x="439.752905" xlink:href="#m2673cd9238" y="418.731919"/>
     <use style="fill:#3372cc;stroke:#3372cc;" x="479.76646" xlink:href="#m2673cd9238" y="417.093625"/>
     <use style="fill:#3372cc;stroke:#3372cc;" x="519.780015" xlink:href="#m2673cd9238" y="412.053793"/>
     <use style="fill:#3372cc;stroke:#3372cc;" x="572.675058" xlink:href="#m2673cd9238" y="392.153679"/>
    </g>
   </g>
   <g id="line2d_54">
    <g clip-path="url(#p7b5bfe58b9)">
     <use style="fill:#3372cc;stroke:#3372cc;" x="-1" xlink:href="#m2673cd9238" y="420.326729"/>
     <use style="fill:#3372cc;stroke:#3372cc;" x="121.013555" xlink:href="#m2673cd9238" y="420.326787"/>
     <use style="fill:#3372cc;stroke:#3372cc;" x="173.908598" xlink:href="#m2673cd9238" y="420.042561"/>
     <use style="fill:#3372cc;stroke:#3372cc;" x="213.922153" xlink:href="#m2673cd9238" y="420.269836"/>
     <use style="fill:#3372cc;stroke:#3372cc;" x="253.935709" xlink:href="#m2673cd9238" y="420.249587"/>
     <use style="fill:#3372cc;stroke:#3372cc;" x="306.830752" xlink:href="#m2673cd9238" y="420.02019"/>
     <use style="fill:#3372cc;stroke:#3372cc;" x="346.844307" xlink:href="#m2673cd9238" y="419.987329"/>
     <use style="fill:#3372cc;stroke:#3372cc;" x="386.857862" xlink:href="#m2673cd9238" y="419.623153"/>
     <use style="fill:#3372cc;stroke:#3372cc;" x="439.752905" xlink:href="#m2673cd9238" y="418.802061"/>
     <use style="fill:#3372cc;stroke:#3372cc;" x="479.76646" xlink:href="#m2673cd9238" y="417.011892"/>
     <use style="fill:#3372cc;stroke:#3372cc;" x="519.780015" xlink:href="#m2673cd9238" y="412.875455"/>
     <use style="fill:#3372cc;stroke:#3372cc;" x="572.675058" xlink:href="#m2673cd9238" y="395.100169"/>
    </g>
   </g>
   <g id="line2d_55">
    <defs>
     <path d="M 0 3 
C 0.795609 3 1.55874 2.683901 2.12132 2.12132 
C 2.683901 1.55874 3 0.795609 3 0 
C 3 -0.795609 2.683901 -1.55874 2.12132 -2.12132 
C 1.55874 -2.683901 0.795609 -3 0 -3 
C -0.795609 -3 -1.55874 -2.683901 -2.12132 -2.12132 
C -2.683901 -1.55874 -3 -0.795609 -3 0 
C -3 0.795609 -2.683901 1.55874 -2.12132 2.12132 
C -1.55874 2.683901 -0.795609 3 0 3 
z
" id="mdf65f943cf" style="stroke:#674c9a;"/>
    </defs>
    <g clip-path="url(#p7b5bfe58b9)">
     <use style="fill:#674c9a;stroke:#674c9a;" x="-1" xlink:href="#mdf65f943cf" y="415.027416"/>
     <use style="fill:#674c9a;stroke:#674c9a;" x="121.013555" xlink:href="#mdf65f943cf" y="415.027305"/>
     <use style="fill:#674c9a;stroke:#674c9a;" x="173.908598" xlink:href="#mdf65f943cf" y="414.915505"/>
     <use style="fill:#674c9a;stroke:#674c9a;" x="213.922153" xlink:href="#mdf65f943cf" y="414.786967"/>
     <use style="fill:#674c9a;stroke:#674c9a;" x="253.935709" xlink:href="#mdf65f943cf" y="414.659587"/>
     <use style="fill:#674c9a;stroke:#674c9a;" x="306.830752" xlink:href="#mdf65f943cf" y="414.211226"/>
     <use style="fill:#674c9a;stroke:#674c9a;" x="346.844307" xlink:href="#mdf65f943cf" y="413.444139"/>
     <use style="fill:#674c9a;stroke:#674c9a;" x="386.857862" xlink:href="#mdf65f943cf" y="411.064164"/>
     <use style="fill:#674c9a;stroke:#674c9a;" x="439.752905" xlink:href="#mdf65f943cf" y="404.602724"/>
     <use style="fill:#674c9a;stroke:#674c9a;" x="479.76646" xlink:href="#mdf65f943cf" y="389.327956"/>
     <use style="fill:#674c9a;stroke:#674c9a;" x="519.780015" xlink:href="#mdf65f943cf" y="355.813154"/>
     <use style="fill:#674c9a;stroke:#674c9a;" x="572.675058" xlink:href="#mdf65f943cf" y="307.428735"/>
    </g>
   </g>
   <g id="line2d_56">
    <g clip-path="url(#p7b5bfe58b9)">
     <use style="fill:#674c9a;stroke:#674c9a;" x="-1" xlink:href="#mdf65f943cf" y="414.986085"/>
     <use style="fill:#674c9a;stroke:#674c9a;" x="121.013555" xlink:href="#mdf65f943cf" y="414.98608"/>
     <use style="fill:#674c9a;stroke:#674c9a;" x="173.908598" xlink:href="#mdf65f943cf" y="415.04885"/>
     <use style="fill:#674c9a;stroke:#674c9a;" x="213.922153" xlink:href="#mdf65f943cf" y="414.841561"/>
     <use style="fill:#674c9a;stroke:#674c9a;" x="253.935709" xlink:href="#mdf65f943cf" y="414.818067"/>
     <use style="fill:#674c9a;stroke:#674c9a;" x="306.830752" xlink:href="#mdf65f943cf" y="414.375582"/>
     <use style="fill:#674c9a;stroke:#674c9a;" x="346.844307" xlink:href="#mdf65f943cf" y="413.372202"/>
     <use style="fill:#674c9a;stroke:#674c9a;" x="386.857862" xlink:href="#mdf65f943cf" y="411.547909"/>
     <use style="fill:#674c9a;stroke:#674c9a;" x="439.752905" xlink:href="#mdf65f943cf" y="404.630342"/>
     <use style="fill:#674c9a;stroke:#674c9a;" x="479.76646" xlink:href="#mdf65f943cf" y="391.462921"/>
     <use style="fill:#674c9a;stroke:#674c9a;" x="519.780015" xlink:href="#mdf65f943cf" y="361.480562"/>
     <use style="fill:#674c9a;stroke:#674c9a;" x="572.675058" xlink:href="#mdf65f943cf" y="309.40238"/>
    </g>
   </g>
   <g id="line2d_57">
    <g clip-path="url(#p7b5bfe58b9)">
     <use style="fill:#674c9a;stroke:#674c9a;" x="-1" xlink:href="#mdf65f943cf" y="415.666045"/>
     <use style="fill:#674c9a;stroke:#674c9a;" x="121.013555" xlink:href="#mdf65f943cf" y="415.665867"/>
     <use style="fill:#674c9a;stroke:#674c9a;" x="173.908598" xlink:href="#mdf65f943cf" y="415.241347"/>
     <use style="fill:#674c9a;stroke:#674c9a;" x="213.922153" xlink:href="#mdf65f943cf" y="414.99261"/>
     <use style="fill:#674c9a;stroke:#674c9a;" x="253.935709" xlink:href="#mdf65f943cf" y="414.703352"/>
     <use style="fill:#674c9a;stroke:#674c9a;" x="306.830752" xlink:href="#mdf65f943cf" y="414.074626"/>
     <use style="fill:#674c9a;stroke:#674c9a;" x="346.844307" xlink:href="#mdf65f943cf" y="413.069724"/>
     <use style="fill:#674c9a;stroke:#674c9a;" x="386.857862" xlink:href="#mdf65f943cf" y="410.836542"/>
     <use style="fill:#674c9a;stroke:#674c9a;" x="439.752905" xlink:href="#mdf65f943cf" y="403.371072"/>
     <use style="fill:#674c9a;stroke:#674c9a;" x="479.76646" xlink:href="#mdf65f943cf" y="388.325567"/>
     <use style="fill:#674c9a;stroke:#674c9a;" x="519.780015" xlink:href="#mdf65f943cf" y="357.733205"/>
     <use style="fill:#674c9a;stroke:#674c9a;" x="572.675058" xlink:href="#mdf65f943cf" y="299.909174"/>
    </g>
   </g>
   <g id="line2d_58">
    <defs>
     <path d="M 0 3 
C 0.795609 3 1.55874 2.683901 2.12132 2.12132 
C 2.683901 1.55874 3 0.795609 3 0 
C 3 -0.795609 2.683901 -1.55874 2.12132 -2.12132 
C 1.55874 -2.683901 0.795609 -3 0 -3 
C -0.795609 -3 -1.55874 -2.683901 -2.12132 -2.12132 
C -2.683901 -1.55874 -3 -0.795609 -3 0 
C -3 0.795609 -2.683901 1.55874 -2.12132 2.12132 
C -1.55874 2.683901 -0.795609 3 0 3 
z
" id="m3a573efd0b" style="stroke:#9a2667;"/>
    </defs>
    <g clip-path="url(#p7b5bfe58b9)">
     <use style="fill:#9a2667;stroke:#9a2667;" x="-1" xlink:href="#m3a573efd0b" y="414.724551"/>
     <use style="fill:#9a2667;stroke:#9a2667;" x="121.013555" xlink:href="#m3a573efd0b" y="414.724242"/>
     <use style="fill:#9a2667;stroke:#9a2667;" x="173.908598" xlink:href="#m3a573efd0b" y="414.411508"/>
     <use style="fill:#9a2667;stroke:#9a2667;" x="213.922153" xlink:href="#m3a573efd0b" y="413.91564"/>
     <use style="fill:#9a2667;stroke:#9a2667;" x="253.935709" xlink:href="#m3a573efd0b" y="413.387193"/>
     <use style="fill:#9a2667;stroke:#9a2667;" x="306.830752" xlink:href="#m3a573efd0b" y="411.970851"/>
     <use style="fill:#9a2667;stroke:#9a2667;" x="346.844307" xlink:href="#m3a573efd0b" y="408.385265"/>
     <use style="fill:#9a2667;stroke:#9a2667;" x="386.857862" xlink:href="#m3a573efd0b" y="400.273637"/>
     <use style="fill:#9a2667;stroke:#9a2667;" x="439.752905" xlink:href="#m3a573efd0b" y="370.412538"/>
     <use style="fill:#9a2667;stroke:#9a2667;" x="479.76646" xlink:href="#m3a573efd0b" y="328.40435"/>
     <use style="fill:#9a2667;stroke:#9a2667;" x="519.780015" xlink:href="#m3a573efd0b" y="271.509756"/>
     <use style="fill:#9a2667;stroke:#9a2667;" x="572.675058" xlink:href="#m3a573efd0b" y="218.625146"/>
    </g>
   </g>
   <g id="line2d_59">
    <g clip-path="url(#p7b5bfe58b9)">
     <use style="fill:#9a2667;stroke:#9a2667;" x="-1" xlink:href="#m3a573efd0b" y="414.793624"/>
     <use style="fill:#9a2667;stroke:#9a2667;" x="121.013555" xlink:href="#m3a573efd0b" y="414.793341"/>
     <use style="fill:#9a2667;stroke:#9a2667;" x="173.908598" xlink:href="#m3a573efd0b" y="414.597432"/>
     <use style="fill:#9a2667;stroke:#9a2667;" x="213.922153" xlink:href="#m3a573efd0b" y="414.188173"/>
     <use style="fill:#9a2667;stroke:#9a2667;" x="253.935709" xlink:href="#m3a573efd0b" y="413.83138"/>
     <use style="fill:#9a2667;stroke:#9a2667;" x="306.830752" xlink:href="#m3a573efd0b" y="412.493803"/>
     <use style="fill:#9a2667;stroke:#9a2667;" x="346.844307" xlink:href="#m3a573efd0b" y="408.778949"/>
     <use style="fill:#9a2667;stroke:#9a2667;" x="386.857862" xlink:href="#m3a573efd0b" y="399.883732"/>
     <use style="fill:#9a2667;stroke:#9a2667;" x="439.752905" xlink:href="#m3a573efd0b" y="367.023238"/>
     <use style="fill:#9a2667;stroke:#9a2667;" x="479.76646" xlink:href="#m3a573efd0b" y="330.418632"/>
     <use style="fill:#9a2667;stroke:#9a2667;" x="519.780015" xlink:href="#m3a573efd0b" y="267.633789"/>
     <use style="fill:#9a2667;stroke:#9a2667;" x="572.675058" xlink:href="#m3a573efd0b" y="216.38403"/>
    </g>
   </g>
   <g id="line2d_60">
    <g clip-path="url(#p7b5bfe58b9)">
     <use style="fill:#9a2667;stroke:#9a2667;" x="-1" xlink:href="#m3a573efd0b" y="414.489168"/>
     <use style="fill:#9a2667;stroke:#9a2667;" x="121.013555" xlink:href="#m3a573efd0b" y="414.489007"/>
     <use style="fill:#9a2667;stroke:#9a2667;" x="173.908598" xlink:href="#m3a573efd0b" y="414.273456"/>
     <use style="fill:#9a2667;stroke:#9a2667;" x="213.922153" xlink:href="#m3a573efd0b" y="413.961014"/>
     <use style="fill:#9a2667;stroke:#9a2667;" x="253.935709" xlink:href="#m3a573efd0b" y="413.489634"/>
     <use style="fill:#9a2667;stroke:#9a2667;" x="306.830752" xlink:href="#m3a573efd0b" y="412.183447"/>
     <use style="fill:#9a2667;stroke:#9a2667;" x="346.844307" xlink:href="#m3a573efd0b" y="408.768876"/>
     <use style="fill:#9a2667;stroke:#9a2667;" x="386.857862" xlink:href="#m3a573efd0b" y="397.844179"/>
     <use style="fill:#9a2667;stroke:#9a2667;" x="439.752905" xlink:href="#m3a573efd0b" y="370.367204"/>
     <use style="fill:#9a2667;stroke:#9a2667;" x="479.76646" xlink:href="#m3a573efd0b" y="328.801514"/>
     <use style="fill:#9a2667;stroke:#9a2667;" x="519.780015" xlink:href="#m3a573efd0b" y="269.648506"/>
     <use style="fill:#9a2667;stroke:#9a2667;" x="572.675058" xlink:href="#m3a573efd0b" y="219.281762"/>
    </g>
   </g>
   <g id="line2d_61">
    <defs>
     <path d="M 0 3 
C 0.795609 3 1.55874 2.683901 2.12132 2.12132 
C 2.683901 1.55874 3 0.795609 3 0 
C 3 -0.795609 2.683901 -1.55874 2.12132 -2.12132 
C 1.55874 -2.683901 0.795609 -3 0 -3 
C -0.795609 -3 -1.55874 -2.683901 -2.12132 -2.12132 
C -2.683901 -1.55874 -3 -0.795609 -3 0 
C -3 0.795609 -2.683901 1.55874 -2.12132 2.12132 
C -1.55874 2.683901 -0.795609 3 0 3 
z
" id="m7ba9d6f43b" style="stroke:#ce0035;"/>
    </defs>
    <g clip-path="url(#p7b5bfe58b9)">
     <use style="fill:#ce0035;stroke:#ce0035;" x="-1" xlink:href="#m7ba9d6f43b" y="417.676552"/>
     <use style="fill:#ce0035;stroke:#ce0035;" x="121.013555" xlink:href="#m7ba9d6f43b" y="417.676393"/>
     <use style="fill:#ce0035;stroke:#ce0035;" x="173.908598" xlink:href="#m7ba9d6f43b" y="417.231637"/>
     <use style="fill:#ce0035;stroke:#ce0035;" x="213.922153" xlink:href="#m7ba9d6f43b" y="416.698069"/>
     <use style="fill:#ce0035;stroke:#ce0035;" x="253.935709" xlink:href="#m7ba9d6f43b" y="415.459262"/>
     <use style="fill:#ce0035;stroke:#ce0035;" x="306.830752" xlink:href="#m7ba9d6f43b" y="411.388263"/>
     <use style="fill:#ce0035;stroke:#ce0035;" x="346.844307" xlink:href="#m7ba9d6f43b" y="399.51738"/>
     <use style="fill:#ce0035;stroke:#ce0035;" x="386.857862" xlink:href="#m7ba9d6f43b" y="366.159078"/>
     <use style="fill:#ce0035;stroke:#ce0035;" x="439.752905" xlink:href="#m7ba9d6f43b" y="289.825655"/>
     <use style="fill:#ce0035;stroke:#ce0035;" x="479.76646" xlink:href="#m7ba9d6f43b" y="218.978963"/>
     <use style="fill:#ce0035;stroke:#ce0035;" x="519.780015" xlink:href="#m7ba9d6f43b" y="162.266184"/>
     <use style="fill:#ce0035;stroke:#ce0035;" x="572.675058" xlink:href="#m7ba9d6f43b" y="135.922189"/>
    </g>
   </g>
   <g id="line2d_62">
    <g clip-path="url(#p7b5bfe58b9)">
     <use style="fill:#ce0035;stroke:#ce0035;" x="-1" xlink:href="#m7ba9d6f43b" y="417.588531"/>
     <use style="fill:#ce0035;stroke:#ce0035;" x="121.013555" xlink:href="#m7ba9d6f43b" y="417.588394"/>
     <use style="fill:#ce0035;stroke:#ce0035;" x="173.908598" xlink:href="#m7ba9d6f43b" y="417.264046"/>
     <use style="fill:#ce0035;stroke:#ce0035;" x="213.922153" xlink:href="#m7ba9d6f43b" y="416.583908"/>
     <use style="fill:#ce0035;stroke:#ce0035;" x="253.935709" xlink:href="#m7ba9d6f43b" y="415.380129"/>
     <use style="fill:#ce0035;stroke:#ce0035;" x="306.830752" xlink:href="#m7ba9d6f43b" y="411.019037"/>
     <use style="fill:#ce0035;stroke:#ce0035;" x="346.844307" xlink:href="#m7ba9d6f43b" y="398.711982"/>
     <use style="fill:#ce0035;stroke:#ce0035;" x="386.857862" xlink:href="#m7ba9d6f43b" y="367.513636"/>
     <use style="fill:#ce0035;stroke:#ce0035;" x="439.752905" xlink:href="#m7ba9d6f43b" y="285.110348"/>
     <use style="fill:#ce0035;stroke:#ce0035;" x="479.76646" xlink:href="#m7ba9d6f43b" y="211.116132"/>
     <use style="fill:#ce0035;stroke:#ce0035;" x="519.780015" xlink:href="#m7ba9d6f43b" y="157.328"/>
     <use style="fill:#ce0035;stroke:#ce0035;" x="572.675058" xlink:href="#m7ba9d6f43b" y="130.539259"/>
    </g>
   </g>
   <g id="line2d_63">
    <g clip-path="url(#p7b5bfe58b9)">
     <use style="fill:#ce0035;stroke:#ce0035;" x="-1" xlink:href="#m7ba9d6f43b" y="417.451188"/>
     <use style="fill:#ce0035;stroke:#ce0035;" x="121.013555" xlink:href="#m7ba9d6f43b" y="417.450992"/>
     <use style="fill:#ce0035;stroke:#ce0035;" x="173.908598" xlink:href="#m7ba9d6f43b" y="417.056061"/>
     <use style="fill:#ce0035;stroke:#ce0035;" x="213.922153" xlink:href="#m7ba9d6f43b" y="416.63341"/>
     <use style="fill:#ce0035;stroke:#ce0035;" x="253.935709" xlink:href="#m7ba9d6f43b" y="415.377329"/>
     <use style="fill:#ce0035;stroke:#ce0035;" x="306.830752" xlink:href="#m7ba9d6f43b" y="410.775337"/>
     <use style="fill:#ce0035;stroke:#ce0035;" x="346.844307" xlink:href="#m7ba9d6f43b" y="399.503633"/>
     <use style="fill:#ce0035;stroke:#ce0035;" x="386.857862" xlink:href="#m7ba9d6f43b" y="369.300359"/>
     <use style="fill:#ce0035;stroke:#ce0035;" x="439.752905" xlink:href="#m7ba9d6f43b" y="292.849631"/>
     <use style="fill:#ce0035;stroke:#ce0035;" x="479.76646" xlink:href="#m7ba9d6f43b" y="220.983116"/>
     <use style="fill:#ce0035;stroke:#ce0035;" x="519.780015" xlink:href="#m7ba9d6f43b" y="161.946477"/>
     <use style="fill:#ce0035;stroke:#ce0035;" x="572.675058" xlink:href="#m7ba9d6f43b" y="136.99437"/>
    </g>
   </g>
   <g id="patch_3">
    <path d="M 81 421.6464 
L 81 56.8512 
" style="fill:none;stroke:#000000;stroke-linecap:square;stroke-linejoin:miter;stroke-width:0.8;"/>
   </g>
   <g id="patch_4">
    <path d="M 81 421.6464 
L 583.2 421.6464 
" style="fill:none;stroke:#000000;stroke-linecap:square;stroke-linejoin:miter;stroke-width:0.8;"/>
   </g>
   <g id="legend_1">
    <g id="patch_5">
     <path d="M 91.5 176.886356 
L 179.153906 176.886356 
Q 182.153906 176.886356 182.153906 173.886356 
L 182.153906 67.3512 
Q 182.153906 64.3512 179.153906 64.3512 
L 91.5 64.3512 
Q 88.5 64.3512 88.5 67.3512 
L 88.5 173.886356 
Q 88.5 176.886356 91.5 176.886356 
z
" style="fill:#ffffff;opacity:0.8;stroke:#cccccc;stroke-linejoin:miter;"/>
    </g>
    <g id="line2d_64">
     <path d="M 94.5 76.205887 
L 124.5 76.205887 
" style="fill:none;stroke:#0099ff;stroke-linecap:square;stroke-width:1.5;"/>
    </g>
    <g id="line2d_65"/>
    <g id="text_15">
     <!-- WT -->
     <defs>
      <path d="M 75.296875 0 
L 64.9375 0 
L 47.859375 60.84375 
L 31.25 0 
L 20.90625 0 
L 1.953125 74.03125 
L 12.5 74.03125 
L 26.46875 13.875 
L 42.875 74.03125 
L 53.03125 74.03125 
L 69.921875 13.875 
L 83.5 74.03125 
L 94.046875 74.03125 
z
" id="Gargi-87"/>
      <path d="M 38.671875 65.71875 
L 38.671875 0 
L 29.203125 0 
L 29.203125 65.71875 
L 4.890625 65.71875 
L 4.890625 74.03125 
L 62.984375 74.03125 
L 62.984375 65.71875 
z
" id="Gargi-84"/>
     </defs>
     <g transform="translate(136.5 81.455887)scale(0.15 -0.15)">
      <use xlink:href="#Gargi-87"/>
      <use x="95.996094" xlink:href="#Gargi-84"/>
     </g>
    </g>
    <g id="line2d_66">
     <path d="M 94.5 97.812919 
L 124.5 97.812919 
" style="fill:none;stroke:#3372cc;stroke-linecap:square;stroke-width:1.5;"/>
    </g>
    <g id="line2d_67"/>
    <g id="text_16">
     <!-- PAP1 -->
     <defs>
      <path d="M 48.640625 30.171875 
L 37.203125 63.875 
L 25.09375 30.171875 
z
M 51.265625 22.265625 
L 22.75 22.265625 
L 14.9375 0 
L 4.890625 0 
L 31.25 74.03125 
L 43.453125 74.03125 
L 69.4375 0 
L 58.890625 0 
z
" id="Gargi-65"/>
     </defs>
     <g transform="translate(136.5 103.062919)scale(0.15 -0.15)">
      <use xlink:href="#Gargi-80"/>
      <use x="63.183594" xlink:href="#Gargi-65"/>
      <use x="137.5" xlink:href="#Gargi-80"/>
      <use x="200.683594" xlink:href="#Gargi-49"/>
     </g>
    </g>
    <g id="line2d_68">
     <path d="M 94.5 119.41995 
L 124.5 119.41995 
" style="fill:none;stroke:#674c9a;stroke-linecap:square;stroke-width:1.5;"/>
    </g>
    <g id="line2d_69"/>
    <g id="text_17">
     <!-- PAP2 -->
     <g transform="translate(136.5 124.66995)scale(0.15 -0.15)">
      <use xlink:href="#Gargi-80"/>
      <use x="63.183594" xlink:href="#Gargi-65"/>
      <use x="137.5" xlink:href="#Gargi-80"/>
      <use x="200.683594" xlink:href="#Gargi-50"/>
     </g>
    </g>
    <g id="line2d_70">
     <path d="M 94.5 141.026981 
L 124.5 141.026981 
" style="fill:none;stroke:#9a2667;stroke-linecap:square;stroke-width:1.5;"/>
    </g>
    <g id="line2d_71"/>
    <g id="text_18">
     <!-- PAP3 -->
     <g transform="translate(136.5 146.276981)scale(0.15 -0.15)">
      <use xlink:href="#Gargi-80"/>
      <use x="63.183594" xlink:href="#Gargi-65"/>
      <use x="137.5" xlink:href="#Gargi-80"/>
      <use x="200.683594" xlink:href="#Gargi-51"/>
     </g>
    </g>
    <g id="line2d_72">
     <path d="M 94.5 162.634012 
L 124.5 162.634012 
" style="fill:none;stroke:#ce0035;stroke-linecap:square;stroke-width:1.5;"/>
    </g>
    <g id="line2d_73"/>
    <g id="text_19">
     <!-- PAP4 -->
     <g transform="translate(136.5 167.884012)scale(0.15 -0.15)">
      <use xlink:href="#Gargi-80"/>
      <use x="63.183594" xlink:href="#Gargi-65"/>
      <use x="137.5" xlink:href="#Gargi-80"/>
      <use x="200.683594" xlink:href="#Gargi-52"/>
     </g>
    </g>
   </g>
  </g>
 </g>
 <defs>
  <clipPath id="p7b5bfe58b9">
   <rect height="364.7952" width="502.2" x="81" y="56.8512"/>
  </clipPath>
 </defs>
</svg>
