<?xml version="1.0" encoding="utf-8" standalone="no"?>
<!DOCTYPE svg PUBLIC "-//W3C//DTD SVG 1.1//EN"
  "http://www.w3.org/Graphics/SVG/1.1/DTD/svg11.dtd">
<!-- Created with matplotlib (https://matplotlib.org/) -->
<svg height="473.76pt" version="1.1" viewBox="0 0 648 473.76" width="648pt" xmlns="http://www.w3.org/2000/svg" xmlns:xlink="http://www.w3.org/1999/xlink">
 <defs>
  <style type="text/css">
*{stroke-linecap:butt;stroke-linejoin:round;}
  </style>
 </defs>
 <g id="figure_1">
  <g id="patch_1">
   <path d="M 0 473.76 
L 648 473.76 
L 648 0 
L 0 0 
z
" style="fill:#ffffff;"/>
  </g>
  <g id="axes_1">
   <g id="patch_2">
    <path d="M 81 421.6464 
L 583.2 421.6464 
L 583.2 56.8512 
L 81 56.8512 
z
" style="fill:#ffffff;"/>
   </g>
   <g id="matplotlib.axis_1">
    <g id="xtick_1">
     <g id="line2d_1">
      <defs>
       <path d="M 0 0 
L 0 2 
" id="m066c71b6ae" style="stroke:#000000;"/>
      </defs>
      <g>
       <use style="stroke:#000000;" x="121.013555" xlink:href="#m066c71b6ae" y="421.6464"/>
      </g>
     </g>
     <g id="text_1">
      <!-- $\mathdefault{10^{-1}}$ -->
      <defs>
       <path d="M 22.75 51.265625 
L 6.84375 51.265625 
L 6.84375 57.71875 
Q 17.1875 58.984375 20.21875 61.328125 
Q 23.34375 63.578125 25.390625 70.796875 
L 25.875 71.96875 
L 31.734375 71.96875 
L 31.734375 0 
L 22.75 0 
z
" id="Gargi-49"/>
       <path d="M 41.890625 37.5 
Q 41.890625 66.5 27.4375 66.5 
Q 12.984375 66.5 12.984375 37.203125 
Q 12.984375 7.515625 27.25 7.515625 
Q 39.265625 7.515625 41.3125 27.046875 
Q 41.890625 31.734375 41.890625 37.5 
z
M 27.4375 74.421875 
Q 37.890625 74.421875 44.046875 66.5 
Q 50.984375 56.9375 50.984375 36.625 
Q 50.984375 9.1875 37.015625 2.15625 
Q 32.71875 0.09375 27.4375 0.09375 
Q 9.578125 0.09375 5.171875 22.078125 
Q 3.90625 28.71875 3.90625 37.3125 
Q 3.90625 57.125 10.84375 66.5 
Q 16.40625 74.421875 25.984375 74.421875 
z
" id="Gargi-48"/>
       <path d="M 52.203125 4 
L 47.40625 -1 
L 37.59375 8.796875 
Q 31.703125 4.703125 25.09375 4.703125 
Q 18.296875 4.703125 12.40625 8.796875 
L 2.796875 -1 
L -2.203125 4 
L 7.59375 13.59375 
Q 3.5 19.5 3.5 26.203125 
Q 3.5 33.09375 7.59375 38.796875 
L -2.203125 48.59375 
L 2.796875 53.40625 
L 12.40625 43.796875 
Q 18.5 47.703125 25.09375 47.703125 
Q 32 47.703125 37.59375 43.796875 
L 47.40625 53.40625 
L 52.203125 48.59375 
L 42.59375 38.796875 
Q 46.5 33 46.5 26.296875 
Q 46.5 19.703125 42.59375 13.59375 
z
M 39.703125 26.40625 
Q 39.703125 32.59375 35.390625 36.9375 
Q 31.09375 41.296875 24.90625 41.296875 
Q 18.90625 41.296875 14.59375 36.890625 
Q 10.296875 32.5 10.296875 26.296875 
Q 10.296875 20 14.640625 15.546875 
Q 19 11.09375 25.09375 11.09375 
Q 31.296875 11.09375 35.5 15.546875 
Q 39.703125 20 39.703125 26.40625 
z
" id="STIXGeneral-Regular-164"/>
      </defs>
      <g transform="translate(106.973555 440.472025)scale(0.18 -0.18)">
       <use transform="translate(0 0.36875)" xlink:href="#Gargi-49"/>
       <use transform="translate(36.621094 0.36875)" xlink:href="#Gargi-48"/>
       <use transform="translate(92.435234 37.621875)scale(0.7)" xlink:href="#STIXGeneral-Regular-164"/>
       <use transform="translate(127.435224 37.621875)scale(0.7)" xlink:href="#Gargi-49"/>
      </g>
     </g>
    </g>
    <g id="xtick_2">
     <g id="line2d_2">
      <g>
       <use style="stroke:#000000;" x="253.935709" xlink:href="#m066c71b6ae" y="421.6464"/>
      </g>
     </g>
     <g id="text_2">
      <!-- $\mathdefault{10^{0}}$ -->
      <g transform="translate(241.875709 440.472025)scale(0.18 -0.18)">
       <use transform="translate(0 0.651563)" xlink:href="#Gargi-49"/>
       <use transform="translate(36.621094 0.651563)" xlink:href="#Gargi-48"/>
       <use transform="translate(92.435234 37.904688)scale(0.7)" xlink:href="#Gargi-48"/>
      </g>
     </g>
    </g>
    <g id="xtick_3">
     <g id="line2d_3">
      <g>
       <use style="stroke:#000000;" x="386.857862" xlink:href="#m066c71b6ae" y="421.6464"/>
      </g>
     </g>
     <g id="text_3">
      <!-- $\mathdefault{10^{1}}$ -->
      <g transform="translate(375.967862 440.472025)scale(0.18 -0.18)">
       <use transform="translate(0 0.36875)" xlink:href="#Gargi-49"/>
       <use transform="translate(36.621094 0.36875)" xlink:href="#Gargi-48"/>
       <use transform="translate(92.435234 37.621875)scale(0.7)" xlink:href="#Gargi-49"/>
      </g>
     </g>
    </g>
    <g id="xtick_4">
     <g id="line2d_4">
      <g>
       <use style="stroke:#000000;" x="519.780015" xlink:href="#m066c71b6ae" y="421.6464"/>
      </g>
     </g>
     <g id="text_4">
      <!-- $\mathdefault{10^{2}}$ -->
      <defs>
       <path d="M 54.78125 8.796875 
L 54.78125 0 
L 6.84375 0 
Q 6.84375 12.984375 12.703125 19.828125 
Q 17.96875 25.984375 27.046875 31.15625 
L 36.421875 36.421875 
Q 46.1875 42.09375 46.1875 50.6875 
Q 46.1875 58.015625 40.046875 61.921875 
Q 36.53125 64.15625 31.9375 64.15625 
Q 24.3125 64.15625 20.3125 58.40625 
L 19.53125 57.234375 
Q 17.484375 53.90625 17.484375 47.078125 
L 8.5 47.078125 
Q 8.5 57.234375 12.40625 62.703125 
Q 19.046875 71.96875 32.234375 71.96875 
Q 42.28125 71.96875 48.640625 66.3125 
Q 55.28125 60.25 55.28125 50.875 
Q 55.28125 37.5 40.046875 29.109375 
L 29.890625 23.640625 
Q 20.703125 18.265625 18.265625 13.28125 
Q 17.28125 11.234375 16.890625 8.796875 
z
" id="Gargi-50"/>
      </defs>
      <g transform="translate(507.270015 440.472025)scale(0.18 -0.18)">
       <use transform="translate(0 0.36875)" xlink:href="#Gargi-49"/>
       <use transform="translate(36.621094 0.36875)" xlink:href="#Gargi-48"/>
       <use transform="translate(92.435234 37.621875)scale(0.7)" xlink:href="#Gargi-50"/>
      </g>
     </g>
    </g>
    <g id="xtick_5">
     <g id="line2d_5">
      <defs>
       <path d="M 0 0 
L 0 2 
" id="mce580d569e" style="stroke:#000000;stroke-width:0.6;"/>
      </defs>
      <g>
       <use style="stroke:#000000;stroke-width:0.6;" x="81" xlink:href="#mce580d569e" y="421.6464"/>
      </g>
     </g>
    </g>
    <g id="xtick_6">
     <g id="line2d_6">
      <g>
       <use style="stroke:#000000;stroke-width:0.6;" x="91.524942" xlink:href="#mce580d569e" y="421.6464"/>
      </g>
     </g>
    </g>
    <g id="xtick_7">
     <g id="line2d_7">
      <g>
       <use style="stroke:#000000;stroke-width:0.6;" x="100.423653" xlink:href="#mce580d569e" y="421.6464"/>
      </g>
     </g>
    </g>
    <g id="xtick_8">
     <g id="line2d_8">
      <g>
       <use style="stroke:#000000;stroke-width:0.6;" x="108.132068" xlink:href="#mce580d569e" y="421.6464"/>
      </g>
     </g>
    </g>
    <g id="xtick_9">
     <g id="line2d_9">
      <g>
       <use style="stroke:#000000;stroke-width:0.6;" x="114.931371" xlink:href="#mce580d569e" y="421.6464"/>
      </g>
     </g>
    </g>
    <g id="xtick_10">
     <g id="line2d_10">
      <g>
       <use style="stroke:#000000;stroke-width:0.6;" x="161.027111" xlink:href="#mce580d569e" y="421.6464"/>
      </g>
     </g>
    </g>
    <g id="xtick_11">
     <g id="line2d_11">
      <g>
       <use style="stroke:#000000;stroke-width:0.6;" x="184.43354" xlink:href="#mce580d569e" y="421.6464"/>
      </g>
     </g>
    </g>
    <g id="xtick_12">
     <g id="line2d_12">
      <g>
       <use style="stroke:#000000;stroke-width:0.6;" x="201.040666" xlink:href="#mce580d569e" y="421.6464"/>
      </g>
     </g>
    </g>
    <g id="xtick_13">
     <g id="line2d_13">
      <g>
       <use style="stroke:#000000;stroke-width:0.6;" x="213.922153" xlink:href="#mce580d569e" y="421.6464"/>
      </g>
     </g>
    </g>
    <g id="xtick_14">
     <g id="line2d_14">
      <g>
       <use style="stroke:#000000;stroke-width:0.6;" x="224.447095" xlink:href="#mce580d569e" y="421.6464"/>
      </g>
     </g>
    </g>
    <g id="xtick_15">
     <g id="line2d_15">
      <g>
       <use style="stroke:#000000;stroke-width:0.6;" x="233.345807" xlink:href="#mce580d569e" y="421.6464"/>
      </g>
     </g>
    </g>
    <g id="xtick_16">
     <g id="line2d_16">
      <g>
       <use style="stroke:#000000;stroke-width:0.6;" x="241.054221" xlink:href="#mce580d569e" y="421.6464"/>
      </g>
     </g>
    </g>
    <g id="xtick_17">
     <g id="line2d_17">
      <g>
       <use style="stroke:#000000;stroke-width:0.6;" x="247.853524" xlink:href="#mce580d569e" y="421.6464"/>
      </g>
     </g>
    </g>
    <g id="xtick_18">
     <g id="line2d_18">
      <g>
       <use style="stroke:#000000;stroke-width:0.6;" x="293.949264" xlink:href="#mce580d569e" y="421.6464"/>
      </g>
     </g>
    </g>
    <g id="xtick_19">
     <g id="line2d_19">
      <g>
       <use style="stroke:#000000;stroke-width:0.6;" x="317.355693" xlink:href="#mce580d569e" y="421.6464"/>
      </g>
     </g>
    </g>
    <g id="xtick_20">
     <g id="line2d_20">
      <g>
       <use style="stroke:#000000;stroke-width:0.6;" x="333.962819" xlink:href="#mce580d569e" y="421.6464"/>
      </g>
     </g>
    </g>
    <g id="xtick_21">
     <g id="line2d_21">
      <g>
       <use style="stroke:#000000;stroke-width:0.6;" x="346.844307" xlink:href="#mce580d569e" y="421.6464"/>
      </g>
     </g>
    </g>
    <g id="xtick_22">
     <g id="line2d_22">
      <g>
       <use style="stroke:#000000;stroke-width:0.6;" x="357.369248" xlink:href="#mce580d569e" y="421.6464"/>
      </g>
     </g>
    </g>
    <g id="xtick_23">
     <g id="line2d_23">
      <g>
       <use style="stroke:#000000;stroke-width:0.6;" x="366.26796" xlink:href="#mce580d569e" y="421.6464"/>
      </g>
     </g>
    </g>
    <g id="xtick_24">
     <g id="line2d_24">
      <g>
       <use style="stroke:#000000;stroke-width:0.6;" x="373.976374" xlink:href="#mce580d569e" y="421.6464"/>
      </g>
     </g>
    </g>
    <g id="xtick_25">
     <g id="line2d_25">
      <g>
       <use style="stroke:#000000;stroke-width:0.6;" x="380.775678" xlink:href="#mce580d569e" y="421.6464"/>
      </g>
     </g>
    </g>
    <g id="xtick_26">
     <g id="line2d_26">
      <g>
       <use style="stroke:#000000;stroke-width:0.6;" x="426.871417" xlink:href="#mce580d569e" y="421.6464"/>
      </g>
     </g>
    </g>
    <g id="xtick_27">
     <g id="line2d_27">
      <g>
       <use style="stroke:#000000;stroke-width:0.6;" x="450.277847" xlink:href="#mce580d569e" y="421.6464"/>
      </g>
     </g>
    </g>
    <g id="xtick_28">
     <g id="line2d_28">
      <g>
       <use style="stroke:#000000;stroke-width:0.6;" x="466.884973" xlink:href="#mce580d569e" y="421.6464"/>
      </g>
     </g>
    </g>
    <g id="xtick_29">
     <g id="line2d_29">
      <g>
       <use style="stroke:#000000;stroke-width:0.6;" x="479.76646" xlink:href="#mce580d569e" y="421.6464"/>
      </g>
     </g>
    </g>
    <g id="xtick_30">
     <g id="line2d_30">
      <g>
       <use style="stroke:#000000;stroke-width:0.6;" x="490.291402" xlink:href="#mce580d569e" y="421.6464"/>
      </g>
     </g>
    </g>
    <g id="xtick_31">
     <g id="line2d_31">
      <g>
       <use style="stroke:#000000;stroke-width:0.6;" x="499.190113" xlink:href="#mce580d569e" y="421.6464"/>
      </g>
     </g>
    </g>
    <g id="xtick_32">
     <g id="line2d_32">
      <g>
       <use style="stroke:#000000;stroke-width:0.6;" x="506.898528" xlink:href="#mce580d569e" y="421.6464"/>
      </g>
     </g>
    </g>
    <g id="xtick_33">
     <g id="line2d_33">
      <g>
       <use style="stroke:#000000;stroke-width:0.6;" x="513.697831" xlink:href="#mce580d569e" y="421.6464"/>
      </g>
     </g>
    </g>
    <g id="xtick_34">
     <g id="line2d_34">
      <g>
       <use style="stroke:#000000;stroke-width:0.6;" x="559.793571" xlink:href="#mce580d569e" y="421.6464"/>
      </g>
     </g>
    </g>
    <g id="xtick_35">
     <g id="line2d_35">
      <g>
       <use style="stroke:#000000;stroke-width:0.6;" x="583.2" xlink:href="#mce580d569e" y="421.6464"/>
      </g>
     </g>
    </g>
    <g id="text_5">
     <!-- Rotundine (uM) -->
     <defs>
      <path d="M 14.265625 40.234375 
L 37.109375 40.234375 
Q 49.421875 40.234375 51.265625 48.921875 
Q 51.65625 50.6875 51.65625 52.9375 
Q 51.65625 59.578125 47.859375 62.890625 
Q 44.53125 65.71875 37.109375 65.71875 
L 14.265625 65.71875 
z
M 14.265625 31.9375 
L 14.265625 0 
L 4.890625 0 
L 4.890625 74.03125 
L 38.96875 74.03125 
Q 56.25 74.03125 60.453125 61.8125 
Q 61.53125 58.5 61.53125 54.203125 
Q 61.53125 44.234375 54.203125 39.0625 
Q 52.25 37.796875 49.8125 36.53125 
Q 56.15625 33.796875 58.109375 29.78125 
Q 59.859375 25.984375 59.859375 17.28125 
Q 59.859375 7.515625 61.8125 4.78125 
Q 62.796875 3.421875 64.359375 2.34375 
L 64.359375 0 
L 52.9375 0 
Q 50.875 4.890625 50.875 12.109375 
L 50.875 18.65625 
Q 50.875 29.78125 42.78125 31.453125 
Q 40.921875 31.9375 38.671875 31.9375 
z
" id="Gargi-82"/>
      <path d="M 27.046875 49.21875 
Q 17.578125 49.21875 13.765625 39.9375 
Q 11.8125 35.0625 11.8125 28.515625 
Q 11.8125 14.65625 19.734375 9.765625 
Q 22.859375 7.8125 27.046875 7.8125 
Q 36.234375 7.8125 40.140625 16.796875 
Q 42.28125 21.578125 42.28125 28.21875 
Q 42.28125 42.96875 33.984375 47.65625 
Q 30.859375 49.21875 27.046875 49.21875 
z
M 26.953125 57.125 
Q 42.28125 57.125 48.140625 43.953125 
Q 51.078125 37.3125 51.078125 28.125 
Q 51.078125 11.140625 40.71875 4 
Q 35.0625 0 27.046875 0 
Q 12.40625 0 6.34375 12.109375 
Q 2.9375 18.953125 2.9375 28.515625 
Q 2.9375 46.1875 13.671875 53.328125 
Q 19.234375 57.125 26.953125 57.125 
z
" id="Gargi-111"/>
      <path d="M 30.171875 55.46875 
L 30.171875 48.53125 
L 21.484375 48.53125 
L 21.484375 12.109375 
Q 21.484375 8.203125 23.734375 7.625 
Q 24.609375 7.328125 26.171875 7.328125 
Q 28.71875 7.328125 30.171875 7.71875 
L 30.171875 0.59375 
Q 26.265625 -0.09375 23.25 -0.09375 
Q 14.265625 -0.09375 13.09375 6.734375 
Q 12.984375 7.421875 12.984375 8.296875 
L 12.984375 48.53125 
L 5.859375 48.53125 
L 5.859375 55.46875 
L 12.984375 55.46875 
L 12.984375 70.125 
L 21.484375 70.125 
L 21.484375 55.46875 
z
" id="Gargi-116"/>
      <path d="M 47.171875 2.25 
L 39.546875 2.25 
L 39.546875 9.671875 
Q 33.890625 1.65625 26.375 0.296875 
Q 24.3125 -0.09375 21.78125 -0.09375 
Q 10.9375 -0.09375 6.734375 7.03125 
Q 4.890625 10.25 4.890625 14.453125 
L 4.890625 55.46875 
L 13.28125 55.46875 
L 13.28125 17.78125 
Q 13.28125 10.640625 19.234375 8.203125 
Q 21.484375 7.328125 24.21875 7.328125 
Q 32.90625 7.328125 36.71875 15.234375 
Q 38.765625 19.53125 38.765625 25.296875 
L 38.765625 55.46875 
L 47.171875 55.46875 
z
" id="Gargi-117"/>
      <path d="M 4.890625 53.21875 
L 12.703125 53.21875 
L 12.703125 44.234375 
Q 18.171875 52.9375 25.875 54.296875 
Q 27.9375 54.78125 30.375 54.78125 
Q 41.015625 54.78125 45.3125 47.65625 
Q 47.171875 44.34375 47.171875 40.234375 
L 47.171875 0 
L 38.765625 0 
L 38.765625 36.921875 
Q 38.765625 43.953125 32.8125 46.390625 
Q 30.5625 47.359375 27.828125 47.359375 
Q 19.234375 47.359375 15.53125 39.546875 
Q 13.375 35.25 13.375 29.390625 
L 13.375 0 
L 4.890625 0 
z
" id="Gargi-110"/>
      <path d="M 31.15625 49.03125 
Q 22.46875 49.03125 18.359375 40.71875 
Q 15.71875 35.640625 15.71875 28.421875 
Q 15.71875 16.015625 22.75 10.546875 
Q 26.46875 7.8125 31.25 7.8125 
Q 39.65625 7.8125 43.65625 16.109375 
Q 46 21.1875 46 28.21875 
Q 46 41.5 38.765625 46.78125 
Q 35.359375 49.03125 31.15625 49.03125 
z
M 54.5 76.265625 
L 54.5 2.25 
L 46.96875 2.25 
L 46.96875 9.28125 
Q 41.109375 0 32.328125 0 
Q 31.25 0 29.984375 -0.09375 
Q 29.109375 -0.203125 28.125 -0.203125 
Q 16.796875 -0.203125 10.75 11.328125 
Q 6.84375 18.453125 6.84375 29 
Q 6.84375 44.625 15.921875 52.25 
Q 21.6875 57.03125 29.6875 57.03125 
Q 40.625 57.03125 46 48.734375 
L 46 76.265625 
z
" id="Gargi-100"/>
      <path d="M 15.328125 74.03125 
L 15.328125 63.375 
L 6.84375 63.375 
L 6.84375 74.03125 
z
M 15.328125 53.21875 
L 15.328125 0 
L 6.9375 0 
L 6.9375 53.21875 
z
" id="Gargi-105"/>
      <path d="M 11.921875 32.90625 
L 41.796875 32.90625 
Q 41.890625 33.109375 41.890625 33.5 
Q 41.890625 41.703125 35.9375 46.1875 
Q 32.03125 49.125 27.15625 49.125 
Q 18.5625 49.125 14.359375 41.5 
Q 12.3125 37.890625 11.921875 32.90625 
z
M 50.984375 25.984375 
L 11.71875 25.984375 
Q 11.8125 18.65625 14.546875 14.65625 
Q 18.953125 7.71875 27.34375 7.71875 
Q 37.703125 7.71875 41.3125 18.359375 
L 49.8125 18.359375 
Q 47.5625 6.15625 37.015625 1.765625 
Q 32.515625 -0.09375 27.046875 -0.09375 
Q 13.28125 -0.09375 6.84375 11.03125 
Q 2.9375 17.96875 2.9375 28.125 
Q 2.9375 44.234375 12.40625 52.046875 
Q 18.5625 57.03125 27.25 57.03125 
Q 38.96875 57.03125 45.515625 48.640625 
Q 47.5625 46.09375 48.828125 42.96875 
Q 50.984375 37.40625 50.984375 25.984375 
z
" id="Gargi-101"/>
      <path id="Gargi-32"/>
      <path d="M 23.921875 74.03125 
L 29.59375 74.03125 
Q 15.71875 55.375 15.71875 30.46875 
Q 15.71875 28.328125 15.625 26.265625 
Q 15.53125 24.90625 15.53125 23.53125 
Q 15.53125 4.59375 28.03125 -18.953125 
Q 28.8125 -20.515625 29.59375 -21.484375 
L 23.921875 -21.484375 
Q 12.5 -6.546875 8.6875 12.984375 
Q 7.421875 19.921875 7.421875 26.265625 
Q 7.421875 44.53125 16.890625 62.703125 
Q 20.015625 68.84375 23.921875 74.03125 
z
" id="Gargi-40"/>
      <path d="M 44.828125 0 
L 34.859375 0 
L 13.875 62.015625 
L 13.875 0 
L 4.890625 0 
L 4.890625 74.03125 
L 17.96875 74.03125 
L 39.9375 9.578125 
L 61.421875 74.03125 
L 74.515625 74.03125 
L 74.515625 0 
L 65.625 0 
L 65.625 62.015625 
z
" id="Gargi-77"/>
      <path d="M 9.46875 -21.484375 
L 3.90625 -21.484375 
Q 17.78125 -1.078125 17.78125 22.078125 
Q 17.78125 23.140625 17.78125 24.125 
Q 17.78125 25.203125 17.78125 26.171875 
Q 17.78125 48.046875 5.375 71.484375 
Q 4.5 73.140625 3.90625 74.03125 
L 9.46875 74.03125 
Q 20.90625 58.984375 24.703125 39.546875 
Q 25.984375 32.625 25.984375 26.171875 
Q 25.984375 8.015625 16.609375 -10.15625 
Q 13.375 -16.3125 9.46875 -21.484375 
z
" id="Gargi-41"/>
     </defs>
     <g transform="translate(260.840625 463.327963)scale(0.2 -0.2)">
      <use xlink:href="#Gargi-82"/>
      <use x="69.238281" xlink:href="#Gargi-111"/>
      <use x="123.242188" xlink:href="#Gargi-116"/>
      <use x="159.277344" xlink:href="#Gargi-117"/>
      <use x="211.328125" xlink:href="#Gargi-110"/>
      <use x="263.378906" xlink:href="#Gargi-100"/>
      <use x="320.800781" xlink:href="#Gargi-105"/>
      <use x="342.96875" xlink:href="#Gargi-110"/>
      <use x="395.019531" xlink:href="#Gargi-101"/>
      <use x="450.878906" xlink:href="#Gargi-32"/>
      <use x="475.292969" xlink:href="#Gargi-40"/>
      <use x="528.222656" xlink:href="#Gargi-117"/>
      <use x="580.273438" xlink:href="#Gargi-77"/>
      <use x="659.667969" xlink:href="#Gargi-41"/>
     </g>
    </g>
   </g>
   <g id="matplotlib.axis_2">
    <g id="ytick_1">
     <g id="line2d_36">
      <defs>
       <path d="M 0 0 
L -2 0 
" id="mf7eae427cf" style="stroke:#000000;"/>
      </defs>
      <g>
       <use style="stroke:#000000;" x="81" xlink:href="#mf7eae427cf" y="421.6464"/>
      </g>
     </g>
     <g id="text_6">
      <!-- 0 -->
      <g transform="translate(65.619687 428.309213)scale(0.18 -0.18)">
       <use xlink:href="#Gargi-48"/>
      </g>
     </g>
    </g>
    <g id="ytick_2">
     <g id="line2d_37">
      <g>
       <use style="stroke:#000000;" x="81" xlink:href="#mf7eae427cf" y="373.00704"/>
      </g>
     </g>
     <g id="text_7">
      <!-- 1 -->
      <g transform="translate(68.9075 379.669852)scale(0.18 -0.18)">
       <use xlink:href="#Gargi-49"/>
      </g>
     </g>
    </g>
    <g id="ytick_3">
     <g id="line2d_38">
      <g>
       <use style="stroke:#000000;" x="81" xlink:href="#mf7eae427cf" y="324.36768"/>
      </g>
     </g>
     <g id="text_8">
      <!-- 2 -->
      <g transform="translate(64.320312 331.030493)scale(0.18 -0.18)">
       <use xlink:href="#Gargi-50"/>
      </g>
     </g>
    </g>
    <g id="ytick_4">
     <g id="line2d_39">
      <g>
       <use style="stroke:#000000;" x="81" xlink:href="#mf7eae427cf" y="275.72832"/>
      </g>
     </g>
     <g id="text_9">
      <!-- 3 -->
      <defs>
       <path d="M 26.078125 35.25 
L 26.078125 42.78125 
Q 34.578125 42.78125 37.984375 44.34375 
Q 43.75 46.96875 43.75 54 
Q 43.75 62.703125 36.625 65.4375 
Q 34.1875 66.3125 31.0625 66.3125 
Q 23.046875 66.3125 19.4375 60.84375 
Q 19.140625 60.359375 18.953125 59.96875 
Q 17.28125 57.03125 17.28125 50.875 
L 8.40625 50.875 
Q 8.40625 74.03125 27.640625 74.03125 
Q 28.71875 74.03125 30.953125 74.125 
Q 31.734375 74.125 32.421875 74.125 
Q 44.734375 74.125 50.390625 64.65625 
Q 52.828125 60.453125 52.828125 54.390625 
Q 52.828125 43.359375 42.78125 39.453125 
Q 52.25 36.140625 54.296875 28.421875 
Q 54.984375 25.78125 54.984375 22.265625 
Q 54.984375 9.859375 45.40625 3.71875 
Q 39.265625 -0.203125 30.671875 -0.203125 
Q 15.625 -0.203125 10.0625 10.25 
Q 6.84375 15.140625 6.84375 23.046875 
L 15.828125 23.046875 
Q 15.828125 9.671875 27.25 8.015625 
Q 29.296875 7.71875 30.953125 7.71875 
Q 41.5 7.71875 44.734375 15.71875 
Q 45.90625 18.5625 45.90625 22.171875 
Q 45.90625 35.25 30.953125 35.25 
L 27.15625 35.25 
z
" id="Gargi-51"/>
      </defs>
      <g transform="translate(64.725313 282.391133)scale(0.18 -0.18)">
       <use xlink:href="#Gargi-51"/>
      </g>
     </g>
    </g>
    <g id="ytick_5">
     <g id="line2d_40">
      <g>
       <use style="stroke:#000000;" x="81" xlink:href="#mf7eae427cf" y="227.08896"/>
      </g>
     </g>
     <g id="text_10">
      <!-- 4 -->
      <defs>
       <path d="M 37.203125 25.296875 
L 37.203125 56.734375 
L 14.65625 25.296875 
z
M 37.203125 17.28125 
L 6.84375 17.28125 
L 6.84375 26.765625 
L 39.546875 71.96875 
L 46.1875 71.96875 
L 46.1875 25.296875 
L 56.84375 25.296875 
L 56.84375 17.28125 
L 46.1875 17.28125 
L 46.1875 0 
L 37.203125 0 
z
" id="Gargi-52"/>
      </defs>
      <g transform="translate(64.039062 233.751772)scale(0.18 -0.18)">
       <use xlink:href="#Gargi-52"/>
      </g>
     </g>
    </g>
    <g id="ytick_6">
     <g id="line2d_41">
      <g>
       <use style="stroke:#000000;" x="81" xlink:href="#mf7eae427cf" y="178.4496"/>
      </g>
     </g>
     <g id="text_11">
      <!-- 5 -->
      <defs>
       <path d="M 51.65625 74.21875 
L 51.65625 65.4375 
L 21.6875 65.4375 
L 18.84375 45.3125 
Q 24.8125 49.703125 32.125 49.703125 
Q 44.34375 49.703125 50.875 40.828125 
Q 55.46875 34.671875 55.46875 25.6875 
Q 55.46875 12.59375 46.578125 5.28125 
Q 40.046875 -0.09375 30.765625 -0.09375 
Q 19.34375 -0.09375 12.796875 6.734375 
Q 11.921875 7.625 11.234375 8.5 
Q 8.5 11.921875 6.84375 19.921875 
L 15.828125 19.921875 
Q 18.953125 7.8125 30.5625 7.8125 
Q 40.828125 7.8125 44.625 16.015625 
Q 46.296875 19.734375 46.296875 24.515625 
Q 46.296875 35.546875 38.578125 39.84375 
Q 35.15625 41.796875 30.5625 41.796875 
Q 24.03125 41.796875 19.4375 37.40625 
L 17.390625 35.0625 
L 9.078125 35.0625 
L 14.453125 74.21875 
z
" id="Gargi-53"/>
      </defs>
      <g transform="translate(64.28375 185.112413)scale(0.18 -0.18)">
       <use xlink:href="#Gargi-53"/>
      </g>
     </g>
    </g>
    <g id="ytick_7">
     <g id="line2d_42">
      <g>
       <use style="stroke:#000000;" x="81" xlink:href="#mf7eae427cf" y="129.81024"/>
      </g>
     </g>
     <g id="text_12">
      <!-- 6 -->
      <defs>
       <path d="M 29.390625 39.15625 
Q 20.796875 39.15625 16.703125 32.421875 
Q 14.546875 28.71875 14.546875 24.03125 
Q 14.546875 15.234375 20.703125 10.546875 
Q 24.3125 7.8125 29.109375 7.8125 
Q 36.8125 7.8125 40.921875 14.265625 
Q 43.453125 18.265625 43.453125 23.4375 
Q 43.453125 33.796875 36.234375 37.59375 
Q 33.296875 39.15625 29.390625 39.15625 
z
M 51.078125 55.46875 
L 42.09375 55.46875 
Q 40.328125 64.359375 32.90625 66.015625 
Q 31.546875 66.3125 30.078125 66.3125 
Q 18.75 66.3125 15.328125 51.65625 
Q 13.96875 46.1875 13.96875 38.96875 
Q 19.921875 47.078125 30.5625 47.078125 
Q 41.796875 47.078125 48.140625 38.578125 
Q 52.640625 32.625 52.640625 24.21875 
Q 52.640625 12.109375 44.234375 5.171875 
Q 37.984375 -0.09375 29 -0.09375 
Q 17.09375 -0.09375 10.9375 8.890625 
Q 4.890625 17.78125 4.890625 33.890625 
L 4.890625 35.0625 
Q 4.890625 53.8125 11.328125 63.96875 
Q 17.09375 72.5625 27.25 74.03125 
Q 28.90625 74.21875 30.671875 74.21875 
Q 42.28125 74.21875 47.953125 64.84375 
Q 50.296875 60.84375 51.078125 55.46875 
z
" id="Gargi-54"/>
      </defs>
      <g transform="translate(65.147188 136.473052)scale(0.18 -0.18)">
       <use xlink:href="#Gargi-54"/>
      </g>
     </g>
    </g>
    <g id="ytick_8">
     <g id="line2d_43">
      <g>
       <use style="stroke:#000000;" x="81" xlink:href="#mf7eae427cf" y="81.17088"/>
      </g>
     </g>
     <g id="text_13">
      <!-- 7 -->
      <defs>
       <path d="M 54.984375 71.96875 
L 54.984375 64.453125 
Q 34.46875 37.3125 27.734375 9.765625 
Q 26.5625 4.984375 25.6875 0 
L 16.21875 0 
Q 21.296875 22.171875 30.671875 39.546875 
Q 36.234375 49.8125 45.703125 63.1875 
L 6.84375 63.1875 
L 6.84375 71.96875 
z
" id="Gargi-55"/>
      </defs>
      <g transform="translate(64.725313 87.833692)scale(0.18 -0.18)">
       <use xlink:href="#Gargi-55"/>
      </g>
     </g>
    </g>
    <g id="text_14">
     <!-- Fluorescence (RFU/OD600) -->
     <defs>
      <path d="M 14.265625 33.6875 
L 14.265625 0 
L 4.890625 0 
L 4.890625 74.03125 
L 54.5 74.03125 
L 54.5 65.71875 
L 14.265625 65.71875 
L 14.265625 42.09375 
L 49.609375 42.09375 
L 49.609375 33.6875 
z
" id="Gargi-70"/>
      <path d="M 15.328125 74.03125 
L 15.328125 0 
L 6.84375 0 
L 6.84375 74.03125 
z
" id="Gargi-108"/>
      <path d="M 4.890625 53.21875 
L 12.703125 53.21875 
L 12.703125 43.5625 
Q 18.5625 53.03125 24.421875 54.390625 
Q 25.78125 54.78125 27.25 54.78125 
Q 28.328125 54.78125 30.46875 54.390625 
L 30.46875 45.796875 
Q 23.140625 45.703125 20.015625 43.5625 
L 19.34375 43.171875 
Q 13.375 38.765625 13.375 27.640625 
L 13.375 0 
L 4.890625 0 
z
" id="Gargi-114"/>
      <path d="M 44.046875 40.53125 
L 35.0625 40.53125 
Q 34.765625 49.03125 24.421875 49.03125 
Q 16.109375 49.03125 13.765625 44.140625 
Q 13.09375 42.671875 13.09375 41.015625 
Q 13.09375 36.53125 19.828125 34.28125 
Q 21.296875 33.796875 22.953125 33.40625 
L 31.0625 31.546875 
Q 43.0625 28.609375 45.40625 21.578125 
Q 46.09375 19.4375 46.09375 16.703125 
Q 46.09375 7.03125 37.203125 2.546875 
Q 31.84375 -0.203125 24.21875 -0.203125 
Q 4.5 -0.203125 3.03125 16.3125 
Q 2.9375 17.09375 2.9375 17.96875 
L 11.921875 17.96875 
Q 12.5 13.1875 14.359375 11.234375 
Q 17.671875 7.625 24.90625 7.625 
Q 33.40625 7.625 36.234375 12.40625 
Q 37.3125 14.0625 37.3125 15.921875 
Q 37.3125 20.609375 31.84375 22.5625 
Q 30.5625 22.953125 29.109375 23.34375 
L 21.1875 25.296875 
Q 9.078125 28.328125 5.953125 33.40625 
Q 4.296875 36.234375 4.296875 40.625 
Q 4.296875 50.09375 12.796875 54.390625 
Q 17.78125 56.9375 24.703125 56.9375 
Q 39.453125 56.9375 42.96875 46.6875 
Q 44.046875 43.84375 44.046875 40.53125 
z
" id="Gargi-115"/>
      <path d="M 47.65625 37.796875 
L 39.0625 37.796875 
Q 37.796875 47.65625 29.296875 49.125 
Q 27.9375 49.3125 26.5625 49.3125 
Q 17 49.3125 13.375 39.15625 
Q 11.8125 34.578125 11.8125 28.125 
Q 11.8125 14.265625 19.828125 9.671875 
Q 22.75 7.90625 26.765625 7.90625 
Q 37.59375 7.90625 39.75 20.703125 
L 48.25 20.703125 
Q 48.25 6.84375 36.53125 2.15625 
Q 32.234375 0.09375 26.5625 0.09375 
Q 13.375 0.09375 7.125 10.75 
Q 2.9375 17.875 2.9375 28.125 
Q 2.9375 44.4375 12.3125 52.25 
Q 18.265625 57.234375 26.65625 57.234375 
Q 37.40625 57.234375 43.265625 50.296875 
L 44.046875 49.21875 
Q 47.078125 44.921875 47.65625 37.796875 
z
" id="Gargi-99"/>
      <path d="M 52.34375 75 
L 61.8125 75 
L 61.8125 24.125 
Q 61.8125 11.140625 51.265625 4.6875 
Q 43.953125 0.203125 33.296875 0.203125 
Q 16.5 0.203125 9.078125 10.25 
Q 4.890625 15.921875 4.890625 24.125 
L 4.890625 75 
L 14.359375 75 
L 14.359375 24.125 
Q 14.359375 16.3125 19.734375 12.109375 
Q 25.09375 8.296875 33.296875 8.296875 
Q 45.90625 8.296875 50.390625 16.3125 
Q 52.34375 19.828125 52.34375 24.125 
z
" id="Gargi-85"/>
      <path d="M 23.25 74.03125 
L 28.8125 74.03125 
L 4.78125 -2.046875 
L -0.78125 -2.046875 
z
" id="Gargi-47"/>
      <path d="M 38.578125 68.171875 
Q 25.203125 68.171875 17.96875 58.015625 
Q 12.3125 50.09375 12.3125 38.28125 
Q 12.3125 22.65625 21.96875 14.359375 
Q 28.90625 8.40625 38.375 8.40625 
Q 38.484375 8.40625 38.671875 8.40625 
Q 51.65625 8.40625 59.078125 18.359375 
Q 64.9375 26.265625 64.9375 37.890625 
Q 64.9375 54.390625 54.984375 62.59375 
Q 48.25 68.171875 38.578125 68.171875 
z
M 38.578125 76.375 
Q 56.25 76.375 66.015625 64.15625 
Q 74.421875 53.71875 74.421875 37.703125 
Q 74.421875 22.953125 66.015625 12.5 
Q 63.96875 9.859375 61.625 7.90625 
Q 52.34375 0.296875 38.671875 0.296875 
Q 21.78125 0.296875 11.71875 12.015625 
Q 2.9375 22.265625 2.9375 38.28125 
Q 2.9375 56.734375 14.15625 67.28125 
Q 23.828125 76.375 38.578125 76.375 
z
" id="Gargi-79"/>
      <path d="M 14.265625 8.296875 
L 31.734375 8.296875 
Q 49.421875 8.296875 53.21875 26.765625 
Q 54.109375 31.25 54.109375 37.015625 
Q 54.109375 61.921875 37.015625 65.234375 
Q 34.46875 65.71875 31.734375 65.71875 
L 14.265625 65.71875 
z
M 4.890625 0 
L 4.890625 74.03125 
L 33.40625 74.03125 
Q 49.90625 74.03125 57.90625 60.640625 
Q 63.578125 51.265625 63.578125 37.109375 
Q 63.578125 15.921875 51.765625 6.15625 
Q 44.34375 0 33.40625 0 
z
" id="Gargi-68"/>
     </defs>
     <g transform="translate(55.742187 367.808175)rotate(-90)scale(0.2 -0.2)">
      <use xlink:href="#Gargi-70"/>
      <use x="59.375" xlink:href="#Gargi-108"/>
      <use x="81.542969" xlink:href="#Gargi-117"/>
      <use x="133.59375" xlink:href="#Gargi-111"/>
      <use x="187.597656" xlink:href="#Gargi-114"/>
      <use x="222.949219" xlink:href="#Gargi-101"/>
      <use x="278.808594" xlink:href="#Gargi-115"/>
      <use x="327.832031" xlink:href="#Gargi-99"/>
      <use x="379.003906" xlink:href="#Gargi-101"/>
      <use x="434.863281" xlink:href="#Gargi-110"/>
      <use x="486.914062" xlink:href="#Gargi-99"/>
      <use x="538.085938" xlink:href="#Gargi-101"/>
      <use x="593.945312" xlink:href="#Gargi-32"/>
      <use x="618.359375" xlink:href="#Gargi-40"/>
      <use x="671.289062" xlink:href="#Gargi-82"/>
      <use x="740.527344" xlink:href="#Gargi-70"/>
      <use x="799.902344" xlink:href="#Gargi-85"/>
      <use x="866.601562" xlink:href="#Gargi-47"/>
      <use x="919.53125" xlink:href="#Gargi-79"/>
      <use x="996.875" xlink:href="#Gargi-68"/>
      <use x="1065.332031" xlink:href="#Gargi-54"/>
      <use x="1122.851562" xlink:href="#Gargi-48"/>
      <use x="1177.734375" xlink:href="#Gargi-48"/>
      <use x="1232.617188" xlink:href="#Gargi-41"/>
     </g>
    </g>
   </g>
   <g id="line2d_44">
    <path clip-path="url(#p6ccd83857c)" d="M 78.039551 412.940577 
L 186.326987 411.457884 
L 285.744488 409.87535 
L 378.285926 408.182203 
L 464.926015 406.377016 
L 546.391672 404.459519 
L 572.675058 403.790904 
L 572.675058 403.790904 
" style="fill:none;stroke:#0099ff;stroke-linecap:square;stroke-width:1.5;"/>
   </g>
   <g id="line2d_45">
    <path clip-path="url(#p6ccd83857c)" d="M 78.039551 421.634085 
L 191.659455 421.491634 
L 236.748981 421.224914 
L 266.120855 420.839032 
L 288.187477 420.334267 
L 305.958858 419.711595 
L 320.946452 418.96934 
L 333.999465 418.104581 
L 345.6197 417.11568 
L 356.179028 415.996786 
L 365.896235 414.746317 
L 374.978443 413.355788 
L 383.577509 411.815885 
L 391.806763 410.117272 
L 399.763013 408.24872 
L 407.546395 406.192935 
L 415.266154 403.923833 
L 423.023073 401.411345 
L 430.959547 398.605439 
L 439.272346 395.427892 
L 448.306445 391.73171 
L 458.854612 387.166313 
L 475.188461 379.816858 
L 491.66342 372.483933 
L 501.865671 368.188183 
L 510.717123 364.698933 
L 518.935954 361.695791 
L 526.832062 359.045908 
L 534.589948 356.676282 
L 542.337989 354.542063 
L 550.181839 352.612488 
L 558.217789 350.865494 
L 566.542757 349.284511 
L 572.675058 348.257409 
L 572.675058 348.257409 
" style="fill:none;stroke:#3372cc;stroke-linecap:square;stroke-width:1.5;"/>
   </g>
   <g id="line2d_46">
    <path clip-path="url(#p6ccd83857c)" d="M 78.039551 421.646361 
L 269.744153 421.535013 
L 297.381586 421.296404 
L 314.395244 420.939183 
L 326.870199 420.463547 
L 336.745552 419.871657 
L 344.967406 419.162108 
L 352.03115 418.334694 
L 358.252999 417.386826 
L 363.847527 416.313186 
L 368.947454 415.11068 
L 373.651319 413.775347 
L 378.034244 412.302368 
L 382.170397 410.679532 
L 386.103063 408.89915 
L 389.880768 406.945616 
L 393.542172 404.801462 
L 397.106106 402.456332 
L 400.610781 399.883265 
L 404.086392 397.053991 
L 407.556479 393.940335 
L 411.057957 390.496476 
L 414.618472 386.678819 
L 418.282737 382.419487 
L 422.113472 377.619821 
L 426.196983 372.13936 
L 430.690013 365.726911 
L 435.953906 357.810372 
L 443.605261 345.85237 
L 453.514921 330.435142 
L 458.792381 322.648054 
L 463.286772 316.403467 
L 467.377736 311.092661 
L 471.224653 306.457092 
L 474.915977 302.352429 
L 478.509413 298.685368 
L 482.047795 295.389305 
L 485.564792 292.414865 
L 489.088903 289.723813 
L 492.650834 287.282345 
L 496.279557 285.063958 
L 500.005467 283.046671 
L 503.86017 281.21289 
L 507.88109 279.547141 
L 512.111749 278.036608 
L 516.601919 276.671395 
L 521.415441 275.442649 
L 526.631187 274.343601 
L 532.354151 273.368437 
L 538.722901 272.512983 
L 545.934785 271.773614 
L 554.280813 271.147497 
L 564.218863 270.632298 
L 572.675058 270.331929 
L 572.675058 270.331929 
" style="fill:none;stroke:#674c9a;stroke-linecap:square;stroke-width:1.5;"/>
   </g>
   <g id="line2d_47">
    <path clip-path="url(#p6ccd83857c)" d="M 78.039551 421.63077 
L 154.945504 421.483593 
L 187.250644 421.211043 
L 208.160366 420.824147 
L 223.964595 420.317785 
L 236.554285 419.700733 
L 247.209097 418.961475 
L 256.338995 418.111051 
L 264.461228 417.134188 
L 271.686565 416.045081 
L 278.296908 414.825605 
L 284.31281 413.493336 
L 289.9155 412.027823 
L 295.163696 410.426865 
L 300.104139 408.688794 
L 304.774666 406.812517 
L 309.261718 404.770816 
L 313.579296 402.56062 
L 317.739842 400.179878 
L 321.754468 397.627627 
L 325.674803 394.873329 
L 329.54084 391.884316 
L 333.346762 388.658855 
L 337.12252 385.164474 
L 340.858832 381.402285 
L 344.608478 377.308306 
L 348.382852 372.853117 
L 352.189236 368.010919 
L 356.056125 362.726212 
L 360.0028 356.95037 
L 364.062128 350.610472 
L 368.294266 343.581063 
L 372.737024 335.763741 
L 377.510598 326.904662 
L 382.77765 316.647564 
L 388.91402 304.19103 
L 397.419449 286.371518 
L 411.057957 257.803789 
L 417.303138 245.278223 
L 422.612806 235.115984 
L 427.417816 226.390823 
L 431.899742 218.705699 
L 436.157009 211.84037 
L 440.253538 205.650024 
L 444.238985 200.025765 
L 448.136952 194.905108 
L 451.980105 190.219788 
L 455.789175 185.923494 
L 459.583914 181.975891 
L 463.382694 178.342701 
L 467.205768 174.992343 
L 471.067143 171.902656 
L 474.988138 169.048927 
L 478.991187 166.410023 
L 483.095338 163.970753 
L 487.323357 161.716718 
L 491.703337 159.634159 
L 496.266546 157.711614 
L 501.04697 155.940079 
L 506.087041 154.311049 
L 511.435327 152.817971 
L 517.154324 151.454556 
L 523.318312 150.216335 
L 530.023425 149.099318 
L 537.395946 148.100164 
L 545.603573 147.216411 
L 554.882622 146.445825 
L 565.57689 145.78663 
L 572.675058 145.45263 
L 572.675058 145.45263 
" style="fill:none;stroke:#9a2667;stroke-linecap:square;stroke-width:1.5;"/>
   </g>
   <g id="line2d_48">
    <path clip-path="url(#p6ccd83857c)" d="M 78.039551 421.631199 
L 147.237089 421.482578 
L 175.615527 421.212409 
L 194.15167 420.826963 
L 208.160366 420.322696 
L 219.424736 419.701393 
L 228.84587 418.965031 
L 236.943022 418.115797 
L 244.042878 417.156098 
L 250.517709 416.059784 
L 256.338995 414.853072 
L 261.752838 413.505036 
L 266.702203 412.048176 
L 271.367335 410.44706 
L 275.782421 408.698413 
L 279.97569 406.799625 
L 283.970721 404.7488 
L 287.867657 402.495727 
L 291.593295 400.084707 
L 295.23431 397.463092 
L 298.792098 394.626513 
L 302.268373 391.572267 
L 305.723955 388.240111 
L 309.150917 384.626034 
L 312.595136 380.666447 
L 316.04257 376.359605 
L 319.527793 371.643426 
L 323.032942 366.523475 
L 326.624899 360.879084 
L 330.314677 354.661717 
L 334.143513 347.768292 
L 338.17183 340.048676 
L 342.469051 331.321541 
L 347.161515 321.27519 
L 352.530275 309.237579 
L 359.471811 293.087892 
L 375.788294 254.928159 
L 381.255323 242.838157 
L 386.000619 232.871858 
L 390.330966 224.284413 
L 394.39703 216.707493 
L 398.266554 209.959805 
L 402.004035 203.883366 
L 405.639404 198.391863 
L 409.206512 193.401658 
L 412.722925 188.860235 
L 416.219913 184.704106 
L 419.705317 180.904519 
L 423.20021 177.421328 
L 426.720261 174.225127 
L 430.283337 171.288618 
L 433.908135 168.588112 
L 437.618999 166.100302 
L 441.431804 163.811646 
L 445.376064 161.703766 
L 449.474287 159.766235 
L 453.764539 157.984915 
L 458.28373 156.350915 
L 463.075183 154.856896 
L 468.194713 153.495832 
L 473.710504 152.262198 
L 479.709281 151.151451 
L 486.306626 150.15956 
L 493.657958 149.283397 
L 501.975793 148.520899 
L 511.576903 147.869912 
L 522.947914 147.328867 
L 536.906729 146.896152 
L 554.978395 146.570066 
L 572.675058 146.397157 
L 572.675058 146.397157 
" style="fill:none;stroke:#ce0035;stroke-linecap:square;stroke-width:1.5;"/>
   </g>
   <g id="line2d_49">
    <defs>
     <path d="M 0 3 
C 0.795609 3 1.55874 2.683901 2.12132 2.12132 
C 2.683901 1.55874 3 0.795609 3 0 
C 3 -0.795609 2.683901 -1.55874 2.12132 -2.12132 
C 1.55874 -2.683901 0.795609 -3 0 -3 
C -0.795609 -3 -1.55874 -2.683901 -2.12132 -2.12132 
C -2.683901 -1.55874 -3 -0.795609 -3 0 
C -3 0.795609 -2.683901 1.55874 -2.12132 2.12132 
C -1.55874 2.683901 -0.795609 3 0 3 
z
" id="m80fca47b16" style="stroke:#0099ff;"/>
    </defs>
    <g clip-path="url(#p6ccd83857c)">
     <use style="fill:#0099ff;stroke:#0099ff;" x="-1" xlink:href="#m80fca47b16" y="410.992903"/>
     <use style="fill:#0099ff;stroke:#0099ff;" x="121.013555" xlink:href="#m80fca47b16" y="410.992434"/>
     <use style="fill:#0099ff;stroke:#0099ff;" x="173.908598" xlink:href="#m80fca47b16" y="410.865601"/>
     <use style="fill:#0099ff;stroke:#0099ff;" x="213.922153" xlink:href="#m80fca47b16" y="410.801668"/>
     <use style="fill:#0099ff;stroke:#0099ff;" x="253.935709" xlink:href="#m80fca47b16" y="410.658439"/>
     <use style="fill:#0099ff;stroke:#0099ff;" x="306.830752" xlink:href="#m80fca47b16" y="410.263833"/>
     <use style="fill:#0099ff;stroke:#0099ff;" x="346.844307" xlink:href="#m80fca47b16" y="410.115815"/>
     <use style="fill:#0099ff;stroke:#0099ff;" x="386.857862" xlink:href="#m80fca47b16" y="409.654379"/>
     <use style="fill:#0099ff;stroke:#0099ff;" x="439.752905" xlink:href="#m80fca47b16" y="407.735968"/>
     <use style="fill:#0099ff;stroke:#0099ff;" x="479.76646" xlink:href="#m80fca47b16" y="404.509483"/>
     <use style="fill:#0099ff;stroke:#0099ff;" x="519.780015" xlink:href="#m80fca47b16" y="404.221278"/>
     <use style="fill:#0099ff;stroke:#0099ff;" x="572.675058" xlink:href="#m80fca47b16" y="403.026501"/>
    </g>
   </g>
   <g id="line2d_50">
    <g clip-path="url(#p6ccd83857c)">
     <use style="fill:#0099ff;stroke:#0099ff;" x="-1" xlink:href="#m80fca47b16" y="410.897744"/>
     <use style="fill:#0099ff;stroke:#0099ff;" x="121.013555" xlink:href="#m80fca47b16" y="410.897824"/>
     <use style="fill:#0099ff;stroke:#0099ff;" x="173.908598" xlink:href="#m80fca47b16" y="410.612277"/>
     <use style="fill:#0099ff;stroke:#0099ff;" x="213.922153" xlink:href="#m80fca47b16" y="410.584035"/>
     <use style="fill:#0099ff;stroke:#0099ff;" x="253.935709" xlink:href="#m80fca47b16" y="410.33246"/>
     <use style="fill:#0099ff;stroke:#0099ff;" x="306.830752" xlink:href="#m80fca47b16" y="410.189297"/>
     <use style="fill:#0099ff;stroke:#0099ff;" x="346.844307" xlink:href="#m80fca47b16" y="409.864214"/>
     <use style="fill:#0099ff;stroke:#0099ff;" x="386.857862" xlink:href="#m80fca47b16" y="409.375338"/>
     <use style="fill:#0099ff;stroke:#0099ff;" x="439.752905" xlink:href="#m80fca47b16" y="407.509958"/>
     <use style="fill:#0099ff;stroke:#0099ff;" x="479.76646" xlink:href="#m80fca47b16" y="404.388593"/>
     <use style="fill:#0099ff;stroke:#0099ff;" x="519.780015" xlink:href="#m80fca47b16" y="404.089214"/>
     <use style="fill:#0099ff;stroke:#0099ff;" x="572.675058" xlink:href="#m80fca47b16" y="403.369338"/>
    </g>
   </g>
   <g id="line2d_51">
    <g clip-path="url(#p6ccd83857c)">
     <use style="fill:#0099ff;stroke:#0099ff;" x="-1" xlink:href="#m80fca47b16" y="411.103823"/>
     <use style="fill:#0099ff;stroke:#0099ff;" x="121.013555" xlink:href="#m80fca47b16" y="411.104036"/>
     <use style="fill:#0099ff;stroke:#0099ff;" x="173.908598" xlink:href="#m80fca47b16" y="411.033408"/>
     <use style="fill:#0099ff;stroke:#0099ff;" x="213.922153" xlink:href="#m80fca47b16" y="410.830145"/>
     <use style="fill:#0099ff;stroke:#0099ff;" x="253.935709" xlink:href="#m80fca47b16" y="410.641759"/>
     <use style="fill:#0099ff;stroke:#0099ff;" x="306.830752" xlink:href="#m80fca47b16" y="410.454368"/>
     <use style="fill:#0099ff;stroke:#0099ff;" x="346.844307" xlink:href="#m80fca47b16" y="410.373708"/>
     <use style="fill:#0099ff;stroke:#0099ff;" x="386.857862" xlink:href="#m80fca47b16" y="409.669961"/>
     <use style="fill:#0099ff;stroke:#0099ff;" x="439.752905" xlink:href="#m80fca47b16" y="408.144859"/>
     <use style="fill:#0099ff;stroke:#0099ff;" x="479.76646" xlink:href="#m80fca47b16" y="405.277424"/>
     <use style="fill:#0099ff;stroke:#0099ff;" x="519.780015" xlink:href="#m80fca47b16" y="405.242856"/>
     <use style="fill:#0099ff;stroke:#0099ff;" x="572.675058" xlink:href="#m80fca47b16" y="403.650169"/>
    </g>
   </g>
   <g id="line2d_52">
    <defs>
     <path d="M 0 3 
C 0.795609 3 1.55874 2.683901 2.12132 2.12132 
C 2.683901 1.55874 3 0.795609 3 0 
C 3 -0.795609 2.683901 -1.55874 2.12132 -2.12132 
C 1.55874 -2.683901 0.795609 -3 0 -3 
C -0.795609 -3 -1.55874 -2.683901 -2.12132 -2.12132 
C -2.683901 -1.55874 -3 -0.795609 -3 0 
C -3 0.795609 -2.683901 1.55874 -2.12132 2.12132 
C -1.55874 2.683901 -0.795609 3 0 3 
z
" id="mc6a14ab654" style="stroke:#3372cc;"/>
    </defs>
    <g clip-path="url(#p6ccd83857c)">
     <use style="fill:#3372cc;stroke:#3372cc;" x="-1" xlink:href="#mc6a14ab654" y="417.438482"/>
     <use style="fill:#3372cc;stroke:#3372cc;" x="121.013555" xlink:href="#mc6a14ab654" y="417.438472"/>
     <use style="fill:#3372cc;stroke:#3372cc;" x="173.908598" xlink:href="#mc6a14ab654" y="417.495049"/>
     <use style="fill:#3372cc;stroke:#3372cc;" x="213.922153" xlink:href="#mc6a14ab654" y="417.40741"/>
     <use style="fill:#3372cc;stroke:#3372cc;" x="253.935709" xlink:href="#mc6a14ab654" y="417.157224"/>
     <use style="fill:#3372cc;stroke:#3372cc;" x="306.830752" xlink:href="#mc6a14ab654" y="416.539911"/>
     <use style="fill:#3372cc;stroke:#3372cc;" x="346.844307" xlink:href="#mc6a14ab654" y="415.450293"/>
     <use style="fill:#3372cc;stroke:#3372cc;" x="386.857862" xlink:href="#mc6a14ab654" y="412.450626"/>
     <use style="fill:#3372cc;stroke:#3372cc;" x="439.752905" xlink:href="#mc6a14ab654" y="399.320919"/>
     <use style="fill:#3372cc;stroke:#3372cc;" x="479.76646" xlink:href="#mc6a14ab654" y="370.768727"/>
     <use style="fill:#3372cc;stroke:#3372cc;" x="519.780015" xlink:href="#mc6a14ab654" y="364.919517"/>
     <use style="fill:#3372cc;stroke:#3372cc;" x="572.675058" xlink:href="#mc6a14ab654" y="343.860768"/>
    </g>
   </g>
   <g id="line2d_53">
    <g clip-path="url(#p6ccd83857c)">
     <use style="fill:#3372cc;stroke:#3372cc;" x="-1" xlink:href="#mc6a14ab654" y="417.481574"/>
     <use style="fill:#3372cc;stroke:#3372cc;" x="121.013555" xlink:href="#mc6a14ab654" y="417.481453"/>
     <use style="fill:#3372cc;stroke:#3372cc;" x="173.908598" xlink:href="#mc6a14ab654" y="417.325712"/>
     <use style="fill:#3372cc;stroke:#3372cc;" x="213.922153" xlink:href="#mc6a14ab654" y="417.338544"/>
     <use style="fill:#3372cc;stroke:#3372cc;" x="253.935709" xlink:href="#mc6a14ab654" y="417.088587"/>
     <use style="fill:#3372cc;stroke:#3372cc;" x="306.830752" xlink:href="#mc6a14ab654" y="416.50203"/>
     <use style="fill:#3372cc;stroke:#3372cc;" x="346.844307" xlink:href="#mc6a14ab654" y="415.410131"/>
     <use style="fill:#3372cc;stroke:#3372cc;" x="386.857862" xlink:href="#mc6a14ab654" y="412.26698"/>
     <use style="fill:#3372cc;stroke:#3372cc;" x="439.752905" xlink:href="#mc6a14ab654" y="398.958553"/>
     <use style="fill:#3372cc;stroke:#3372cc;" x="479.76646" xlink:href="#mc6a14ab654" y="370.227996"/>
     <use style="fill:#3372cc;stroke:#3372cc;" x="519.780015" xlink:href="#mc6a14ab654" y="361.235715"/>
     <use style="fill:#3372cc;stroke:#3372cc;" x="572.675058" xlink:href="#mc6a14ab654" y="345.154551"/>
    </g>
   </g>
   <g id="line2d_54">
    <g clip-path="url(#p6ccd83857c)">
     <use style="fill:#3372cc;stroke:#3372cc;" x="-1" xlink:href="#mc6a14ab654" y="417.756028"/>
     <use style="fill:#3372cc;stroke:#3372cc;" x="121.013555" xlink:href="#mc6a14ab654" y="417.755849"/>
     <use style="fill:#3372cc;stroke:#3372cc;" x="173.908598" xlink:href="#mc6a14ab654" y="417.677069"/>
     <use style="fill:#3372cc;stroke:#3372cc;" x="213.922153" xlink:href="#mc6a14ab654" y="417.594217"/>
     <use style="fill:#3372cc;stroke:#3372cc;" x="253.935709" xlink:href="#mc6a14ab654" y="417.348477"/>
     <use style="fill:#3372cc;stroke:#3372cc;" x="306.830752" xlink:href="#mc6a14ab654" y="417.010443"/>
     <use style="fill:#3372cc;stroke:#3372cc;" x="346.844307" xlink:href="#mc6a14ab654" y="415.975783"/>
     <use style="fill:#3372cc;stroke:#3372cc;" x="386.857862" xlink:href="#mc6a14ab654" y="413.071174"/>
     <use style="fill:#3372cc;stroke:#3372cc;" x="439.752905" xlink:href="#mc6a14ab654" y="400.676178"/>
     <use style="fill:#3372cc;stroke:#3372cc;" x="479.76646" xlink:href="#mc6a14ab654" y="374.25436"/>
     <use style="fill:#3372cc;stroke:#3372cc;" x="519.780015" xlink:href="#mc6a14ab654" y="367.509267"/>
     <use style="fill:#3372cc;stroke:#3372cc;" x="572.675058" xlink:href="#mc6a14ab654" y="354.042719"/>
    </g>
   </g>
   <g id="line2d_55">
    <defs>
     <path d="M 0 3 
C 0.795609 3 1.55874 2.683901 2.12132 2.12132 
C 2.683901 1.55874 3 0.795609 3 0 
C 3 -0.795609 2.683901 -1.55874 2.12132 -2.12132 
C 1.55874 -2.683901 0.795609 -3 0 -3 
C -0.795609 -3 -1.55874 -2.683901 -2.12132 -2.12132 
C -2.683901 -1.55874 -3 -0.795609 -3 0 
C -3 0.795609 -2.683901 1.55874 -2.12132 2.12132 
C -1.55874 2.683901 -0.795609 3 0 3 
z
" id="m00d00aa744" style="stroke:#674c9a;"/>
    </defs>
    <g clip-path="url(#p6ccd83857c)">
     <use style="fill:#674c9a;stroke:#674c9a;" x="-1" xlink:href="#m00d00aa744" y="418.613425"/>
     <use style="fill:#674c9a;stroke:#674c9a;" x="121.013555" xlink:href="#m00d00aa744" y="418.613429"/>
     <use style="fill:#674c9a;stroke:#674c9a;" x="173.908598" xlink:href="#m00d00aa744" y="418.483091"/>
     <use style="fill:#674c9a;stroke:#674c9a;" x="213.922153" xlink:href="#m00d00aa744" y="418.314986"/>
     <use style="fill:#674c9a;stroke:#674c9a;" x="253.935709" xlink:href="#m00d00aa744" y="417.891864"/>
     <use style="fill:#674c9a;stroke:#674c9a;" x="306.830752" xlink:href="#m00d00aa744" y="416.623762"/>
     <use style="fill:#674c9a;stroke:#674c9a;" x="346.844307" xlink:href="#m00d00aa744" y="413.452976"/>
     <use style="fill:#674c9a;stroke:#674c9a;" x="386.857862" xlink:href="#m00d00aa744" y="402.040584"/>
     <use style="fill:#674c9a;stroke:#674c9a;" x="439.752905" xlink:href="#m00d00aa744" y="352.653859"/>
     <use style="fill:#674c9a;stroke:#674c9a;" x="479.76646" xlink:href="#m00d00aa744" y="281.365638"/>
     <use style="fill:#674c9a;stroke:#674c9a;" x="519.780015" xlink:href="#m00d00aa744" y="275.504032"/>
     <use style="fill:#674c9a;stroke:#674c9a;" x="572.675058" xlink:href="#m00d00aa744" y="264.760882"/>
    </g>
   </g>
   <g id="line2d_56">
    <g clip-path="url(#p6ccd83857c)">
     <use style="fill:#674c9a;stroke:#674c9a;" x="-1" xlink:href="#m00d00aa744" y="418.657517"/>
     <use style="fill:#674c9a;stroke:#674c9a;" x="121.013555" xlink:href="#m00d00aa744" y="418.657425"/>
     <use style="fill:#674c9a;stroke:#674c9a;" x="173.908598" xlink:href="#m00d00aa744" y="418.513267"/>
     <use style="fill:#674c9a;stroke:#674c9a;" x="213.922153" xlink:href="#m00d00aa744" y="418.30722"/>
     <use style="fill:#674c9a;stroke:#674c9a;" x="253.935709" xlink:href="#m00d00aa744" y="418.109698"/>
     <use style="fill:#674c9a;stroke:#674c9a;" x="306.830752" xlink:href="#m00d00aa744" y="416.893677"/>
     <use style="fill:#674c9a;stroke:#674c9a;" x="346.844307" xlink:href="#m00d00aa744" y="414.093546"/>
     <use style="fill:#674c9a;stroke:#674c9a;" x="386.857862" xlink:href="#m00d00aa744" y="404.63904"/>
     <use style="fill:#674c9a;stroke:#674c9a;" x="439.752905" xlink:href="#m00d00aa744" y="358.511264"/>
     <use style="fill:#674c9a;stroke:#674c9a;" x="479.76646" xlink:href="#m00d00aa744" y="288.484334"/>
     <use style="fill:#674c9a;stroke:#674c9a;" x="519.780015" xlink:href="#m00d00aa744" y="287.603578"/>
     <use style="fill:#674c9a;stroke:#674c9a;" x="572.675058" xlink:href="#m00d00aa744" y="278.696856"/>
    </g>
   </g>
   <g id="line2d_57">
    <g clip-path="url(#p6ccd83857c)">
     <use style="fill:#674c9a;stroke:#674c9a;" x="-1" xlink:href="#m00d00aa744" y="418.869985"/>
     <use style="fill:#674c9a;stroke:#674c9a;" x="121.013555" xlink:href="#m00d00aa744" y="418.869857"/>
     <use style="fill:#674c9a;stroke:#674c9a;" x="173.908598" xlink:href="#m00d00aa744" y="418.831314"/>
     <use style="fill:#674c9a;stroke:#674c9a;" x="213.922153" xlink:href="#m00d00aa744" y="418.603456"/>
     <use style="fill:#674c9a;stroke:#674c9a;" x="253.935709" xlink:href="#m00d00aa744" y="418.228779"/>
     <use style="fill:#674c9a;stroke:#674c9a;" x="306.830752" xlink:href="#m00d00aa744" y="417.040535"/>
     <use style="fill:#674c9a;stroke:#674c9a;" x="346.844307" xlink:href="#m00d00aa744" y="414.356551"/>
     <use style="fill:#674c9a;stroke:#674c9a;" x="386.857862" xlink:href="#m00d00aa744" y="404.301574"/>
     <use style="fill:#674c9a;stroke:#674c9a;" x="439.752905" xlink:href="#m00d00aa744" y="362.636965"/>
     <use style="fill:#674c9a;stroke:#674c9a;" x="479.76646" xlink:href="#m00d00aa744" y="297.254148"/>
     <use style="fill:#674c9a;stroke:#674c9a;" x="519.780015" xlink:href="#m00d00aa744" y="284.562038"/>
     <use style="fill:#674c9a;stroke:#674c9a;" x="572.675058" xlink:href="#m00d00aa744" y="262.149751"/>
    </g>
   </g>
   <g id="line2d_58">
    <defs>
     <path d="M 0 3 
C 0.795609 3 1.55874 2.683901 2.12132 2.12132 
C 2.683901 1.55874 3 0.795609 3 0 
C 3 -0.795609 2.683901 -1.55874 2.12132 -2.12132 
C 1.55874 -2.683901 0.795609 -3 0 -3 
C -0.795609 -3 -1.55874 -2.683901 -2.12132 -2.12132 
C -2.683901 -1.55874 -3 -0.795609 -3 0 
C -3 0.795609 -2.683901 1.55874 -2.12132 2.12132 
C -1.55874 2.683901 -0.795609 3 0 3 
z
" id="mff5166f512" style="stroke:#9a2667;"/>
    </defs>
    <g clip-path="url(#p6ccd83857c)">
     <use style="fill:#9a2667;stroke:#9a2667;" x="-1" xlink:href="#mff5166f512" y="417.68523"/>
     <use style="fill:#9a2667;stroke:#9a2667;" x="121.013555" xlink:href="#mff5166f512" y="417.685045"/>
     <use style="fill:#9a2667;stroke:#9a2667;" x="173.908598" xlink:href="#mff5166f512" y="417.117778"/>
     <use style="fill:#9a2667;stroke:#9a2667;" x="213.922153" xlink:href="#mff5166f512" y="416.224949"/>
     <use style="fill:#9a2667;stroke:#9a2667;" x="253.935709" xlink:href="#mff5166f512" y="413.549413"/>
     <use style="fill:#9a2667;stroke:#9a2667;" x="306.830752" xlink:href="#mff5166f512" y="401.987958"/>
     <use style="fill:#9a2667;stroke:#9a2667;" x="346.844307" xlink:href="#mff5166f512" y="372.053304"/>
     <use style="fill:#9a2667;stroke:#9a2667;" x="386.857862" xlink:href="#mff5166f512" y="302.235131"/>
     <use style="fill:#9a2667;stroke:#9a2667;" x="439.752905" xlink:href="#mff5166f512" y="205.031097"/>
     <use style="fill:#9a2667;stroke:#9a2667;" x="479.76646" xlink:href="#mff5166f512" y="145.494809"/>
     <use style="fill:#9a2667;stroke:#9a2667;" x="519.780015" xlink:href="#mff5166f512" y="139.160417"/>
     <use style="fill:#9a2667;stroke:#9a2667;" x="572.675058" xlink:href="#mff5166f512" y="135.862271"/>
    </g>
   </g>
   <g id="line2d_59">
    <g clip-path="url(#p6ccd83857c)">
     <use style="fill:#9a2667;stroke:#9a2667;" x="-1" xlink:href="#mff5166f512" y="417.89424"/>
     <use style="fill:#9a2667;stroke:#9a2667;" x="121.013555" xlink:href="#mff5166f512" y="417.893918"/>
     <use style="fill:#9a2667;stroke:#9a2667;" x="173.908598" xlink:href="#mff5166f512" y="417.3276"/>
     <use style="fill:#9a2667;stroke:#9a2667;" x="213.922153" xlink:href="#mff5166f512" y="416.504887"/>
     <use style="fill:#9a2667;stroke:#9a2667;" x="253.935709" xlink:href="#mff5166f512" y="413.950311"/>
     <use style="fill:#9a2667;stroke:#9a2667;" x="306.830752" xlink:href="#mff5166f512" y="403.000378"/>
     <use style="fill:#9a2667;stroke:#9a2667;" x="346.844307" xlink:href="#mff5166f512" y="375.591079"/>
     <use style="fill:#9a2667;stroke:#9a2667;" x="386.857862" xlink:href="#mff5166f512" y="312.579249"/>
     <use style="fill:#9a2667;stroke:#9a2667;" x="439.752905" xlink:href="#mff5166f512" y="212.637263"/>
     <use style="fill:#9a2667;stroke:#9a2667;" x="479.76646" xlink:href="#mff5166f512" y="161.550003"/>
     <use style="fill:#9a2667;stroke:#9a2667;" x="519.780015" xlink:href="#mff5166f512" y="157.267212"/>
     <use style="fill:#9a2667;stroke:#9a2667;" x="572.675058" xlink:href="#mff5166f512" y="153.132905"/>
    </g>
   </g>
   <g id="line2d_60">
    <g clip-path="url(#p6ccd83857c)">
     <use style="fill:#9a2667;stroke:#9a2667;" x="-1" xlink:href="#mff5166f512" y="417.957578"/>
     <use style="fill:#9a2667;stroke:#9a2667;" x="121.013555" xlink:href="#mff5166f512" y="417.957329"/>
     <use style="fill:#9a2667;stroke:#9a2667;" x="173.908598" xlink:href="#mff5166f512" y="417.323787"/>
     <use style="fill:#9a2667;stroke:#9a2667;" x="213.922153" xlink:href="#mff5166f512" y="416.637696"/>
     <use style="fill:#9a2667;stroke:#9a2667;" x="253.935709" xlink:href="#mff5166f512" y="414.106234"/>
     <use style="fill:#9a2667;stroke:#9a2667;" x="306.830752" xlink:href="#mff5166f512" y="403.987619"/>
     <use style="fill:#9a2667;stroke:#9a2667;" x="346.844307" xlink:href="#mff5166f512" y="374.739976"/>
     <use style="fill:#9a2667;stroke:#9a2667;" x="386.857862" xlink:href="#mff5166f512" y="314.47241"/>
     <use style="fill:#9a2667;stroke:#9a2667;" x="439.752905" xlink:href="#mff5166f512" y="213.866461"/>
     <use style="fill:#9a2667;stroke:#9a2667;" x="479.76646" xlink:href="#mff5166f512" y="158.019935"/>
     <use style="fill:#9a2667;stroke:#9a2667;" x="519.780015" xlink:href="#mff5166f512" y="160.129735"/>
     <use style="fill:#9a2667;stroke:#9a2667;" x="572.675058" xlink:href="#mff5166f512" y="163.587218"/>
    </g>
   </g>
   <g id="line2d_61">
    <defs>
     <path d="M 0 3 
C 0.795609 3 1.55874 2.683901 2.12132 2.12132 
C 2.683901 1.55874 3 0.795609 3 0 
C 3 -0.795609 2.683901 -1.55874 2.12132 -2.12132 
C 1.55874 -2.683901 0.795609 -3 0 -3 
C -0.795609 -3 -1.55874 -2.683901 -2.12132 -2.12132 
C -2.683901 -1.55874 -3 -0.795609 -3 0 
C -3 0.795609 -2.683901 1.55874 -2.12132 2.12132 
C -1.55874 2.683901 -0.795609 3 0 3 
z
" id="m8bede89855" style="stroke:#ce0035;"/>
    </defs>
    <g clip-path="url(#p6ccd83857c)">
     <use style="fill:#ce0035;stroke:#ce0035;" x="-1" xlink:href="#m8bede89855" y="421.247064"/>
     <use style="fill:#ce0035;stroke:#ce0035;" x="121.013555" xlink:href="#m8bede89855" y="421.247221"/>
     <use style="fill:#ce0035;stroke:#ce0035;" x="173.908598" xlink:href="#m8bede89855" y="420.994026"/>
     <use style="fill:#ce0035;stroke:#ce0035;" x="213.922153" xlink:href="#m8bede89855" y="420.532009"/>
     <use style="fill:#ce0035;stroke:#ce0035;" x="253.935709" xlink:href="#m8bede89855" y="416.644984"/>
     <use style="fill:#ce0035;stroke:#ce0035;" x="306.830752" xlink:href="#m8bede89855" y="388.572979"/>
     <use style="fill:#ce0035;stroke:#ce0035;" x="346.844307" xlink:href="#m8bede89855" y="327.948639"/>
     <use style="fill:#ce0035;stroke:#ce0035;" x="386.857862" xlink:href="#m8bede89855" y="239.659267"/>
     <use style="fill:#ce0035;stroke:#ce0035;" x="439.752905" xlink:href="#m8bede89855" y="164.213453"/>
     <use style="fill:#ce0035;stroke:#ce0035;" x="479.76646" xlink:href="#m8bede89855" y="144.735317"/>
     <use style="fill:#ce0035;stroke:#ce0035;" x="519.780015" xlink:href="#m8bede89855" y="147.793982"/>
     <use style="fill:#ce0035;stroke:#ce0035;" x="572.675058" xlink:href="#m8bede89855" y="154.124946"/>
    </g>
   </g>
   <g id="line2d_62">
    <g clip-path="url(#p6ccd83857c)">
     <use style="fill:#ce0035;stroke:#ce0035;" x="-1" xlink:href="#m8bede89855" y="421.310323"/>
     <use style="fill:#ce0035;stroke:#ce0035;" x="121.013555" xlink:href="#m8bede89855" y="421.310356"/>
     <use style="fill:#ce0035;stroke:#ce0035;" x="173.908598" xlink:href="#m8bede89855" y="420.952398"/>
     <use style="fill:#ce0035;stroke:#ce0035;" x="213.922153" xlink:href="#m8bede89855" y="420.393786"/>
     <use style="fill:#ce0035;stroke:#ce0035;" x="253.935709" xlink:href="#m8bede89855" y="416.203829"/>
     <use style="fill:#ce0035;stroke:#ce0035;" x="306.830752" xlink:href="#m8bede89855" y="380.998304"/>
     <use style="fill:#ce0035;stroke:#ce0035;" x="346.844307" xlink:href="#m8bede89855" y="315.357907"/>
     <use style="fill:#ce0035;stroke:#ce0035;" x="386.857862" xlink:href="#m8bede89855" y="222.775971"/>
     <use style="fill:#ce0035;stroke:#ce0035;" x="439.752905" xlink:href="#m8bede89855" y="156.051839"/>
     <use style="fill:#ce0035;stroke:#ce0035;" x="479.76646" xlink:href="#m8bede89855" y="138.705995"/>
     <use style="fill:#ce0035;stroke:#ce0035;" x="519.780015" xlink:href="#m8bede89855" y="144.877298"/>
     <use style="fill:#ce0035;stroke:#ce0035;" x="572.675058" xlink:href="#m8bede89855" y="146.971517"/>
    </g>
   </g>
   <g id="line2d_63">
    <g clip-path="url(#p6ccd83857c)">
     <use style="fill:#ce0035;stroke:#ce0035;" x="-1" xlink:href="#m8bede89855" y="421.306654"/>
     <use style="fill:#ce0035;stroke:#ce0035;" x="121.013555" xlink:href="#m8bede89855" y="421.306786"/>
     <use style="fill:#ce0035;stroke:#ce0035;" x="173.908598" xlink:href="#m8bede89855" y="421.175823"/>
     <use style="fill:#ce0035;stroke:#ce0035;" x="213.922153" xlink:href="#m8bede89855" y="420.617671"/>
     <use style="fill:#ce0035;stroke:#ce0035;" x="253.935709" xlink:href="#m8bede89855" y="416.640086"/>
     <use style="fill:#ce0035;stroke:#ce0035;" x="306.830752" xlink:href="#m8bede89855" y="383.28796"/>
     <use style="fill:#ce0035;stroke:#ce0035;" x="346.844307" xlink:href="#m8bede89855" y="324.42336"/>
     <use style="fill:#ce0035;stroke:#ce0035;" x="386.857862" xlink:href="#m8bede89855" y="236.086184"/>
     <use style="fill:#ce0035;stroke:#ce0035;" x="439.752905" xlink:href="#m8bede89855" y="168.590256"/>
     <use style="fill:#ce0035;stroke:#ce0035;" x="479.76646" xlink:href="#m8bede89855" y="150.252635"/>
     <use style="fill:#ce0035;stroke:#ce0035;" x="519.780015" xlink:href="#m8bede89855" y="152.665564"/>
     <use style="fill:#ce0035;stroke:#ce0035;" x="572.675058" xlink:href="#m8bede89855" y="156.448169"/>
    </g>
   </g>
   <g id="patch_3">
    <path d="M 81 421.6464 
L 81 56.8512 
" style="fill:none;stroke:#000000;stroke-linecap:square;stroke-linejoin:miter;stroke-width:0.8;"/>
   </g>
   <g id="patch_4">
    <path d="M 81 421.6464 
L 583.2 421.6464 
" style="fill:none;stroke:#000000;stroke-linecap:square;stroke-linejoin:miter;stroke-width:0.8;"/>
   </g>
   <g id="legend_1">
    <g id="patch_5">
     <path d="M 91.5 176.886356 
L 191.224219 176.886356 
Q 194.224219 176.886356 194.224219 173.886356 
L 194.224219 67.3512 
Q 194.224219 64.3512 191.224219 64.3512 
L 91.5 64.3512 
Q 88.5 64.3512 88.5 67.3512 
L 88.5 173.886356 
Q 88.5 176.886356 91.5 176.886356 
z
" style="fill:#ffffff;opacity:0.8;stroke:#cccccc;stroke-linejoin:miter;"/>
    </g>
    <g id="line2d_64">
     <path d="M 94.5 76.205887 
L 124.5 76.205887 
" style="fill:none;stroke:#0099ff;stroke-linecap:square;stroke-width:1.5;"/>
    </g>
    <g id="line2d_65"/>
    <g id="text_15">
     <!-- WT -->
     <defs>
      <path d="M 75.296875 0 
L 64.9375 0 
L 47.859375 60.84375 
L 31.25 0 
L 20.90625 0 
L 1.953125 74.03125 
L 12.5 74.03125 
L 26.46875 13.875 
L 42.875 74.03125 
L 53.03125 74.03125 
L 69.921875 13.875 
L 83.5 74.03125 
L 94.046875 74.03125 
z
" id="Gargi-87"/>
      <path d="M 38.671875 65.71875 
L 38.671875 0 
L 29.203125 0 
L 29.203125 65.71875 
L 4.890625 65.71875 
L 4.890625 74.03125 
L 62.984375 74.03125 
L 62.984375 65.71875 
z
" id="Gargi-84"/>
     </defs>
     <g transform="translate(136.5 81.455887)scale(0.15 -0.15)">
      <use xlink:href="#Gargi-87"/>
      <use x="95.996094" xlink:href="#Gargi-84"/>
     </g>
    </g>
    <g id="line2d_66">
     <path d="M 94.5 97.812919 
L 124.5 97.812919 
" style="fill:none;stroke:#3372cc;stroke-linecap:square;stroke-width:1.5;"/>
    </g>
    <g id="line2d_67"/>
    <g id="text_16">
     <!-- ROTU1 -->
     <g transform="translate(136.5 103.062919)scale(0.15 -0.15)">
      <use xlink:href="#Gargi-82"/>
      <use x="69.238281" xlink:href="#Gargi-79"/>
      <use x="146.582031" xlink:href="#Gargi-84"/>
      <use x="214.453125" xlink:href="#Gargi-85"/>
      <use x="281.152344" xlink:href="#Gargi-49"/>
     </g>
    </g>
    <g id="line2d_68">
     <path d="M 94.5 119.41995 
L 124.5 119.41995 
" style="fill:none;stroke:#674c9a;stroke-linecap:square;stroke-width:1.5;"/>
    </g>
    <g id="line2d_69"/>
    <g id="text_17">
     <!-- ROTU2 -->
     <g transform="translate(136.5 124.66995)scale(0.15 -0.15)">
      <use xlink:href="#Gargi-82"/>
      <use x="69.238281" xlink:href="#Gargi-79"/>
      <use x="146.582031" xlink:href="#Gargi-84"/>
      <use x="214.453125" xlink:href="#Gargi-85"/>
      <use x="281.152344" xlink:href="#Gargi-50"/>
     </g>
    </g>
    <g id="line2d_70">
     <path d="M 94.5 141.026981 
L 124.5 141.026981 
" style="fill:none;stroke:#9a2667;stroke-linecap:square;stroke-width:1.5;"/>
    </g>
    <g id="line2d_71"/>
    <g id="text_18">
     <!-- ROTU3 -->
     <g transform="translate(136.5 146.276981)scale(0.15 -0.15)">
      <use xlink:href="#Gargi-82"/>
      <use x="69.238281" xlink:href="#Gargi-79"/>
      <use x="146.582031" xlink:href="#Gargi-84"/>
      <use x="214.453125" xlink:href="#Gargi-85"/>
      <use x="281.152344" xlink:href="#Gargi-51"/>
     </g>
    </g>
    <g id="line2d_72">
     <path d="M 94.5 162.634012 
L 124.5 162.634012 
" style="fill:none;stroke:#ce0035;stroke-linecap:square;stroke-width:1.5;"/>
    </g>
    <g id="line2d_73"/>
    <g id="text_19">
     <!-- ROTU4 -->
     <g transform="translate(136.5 167.884012)scale(0.15 -0.15)">
      <use xlink:href="#Gargi-82"/>
      <use x="69.238281" xlink:href="#Gargi-79"/>
      <use x="146.582031" xlink:href="#Gargi-84"/>
      <use x="214.453125" xlink:href="#Gargi-85"/>
      <use x="281.152344" xlink:href="#Gargi-52"/>
     </g>
    </g>
   </g>
  </g>
 </g>
 <defs>
  <clipPath id="p6ccd83857c">
   <rect height="364.7952" width="502.2" x="81" y="56.8512"/>
  </clipPath>
 </defs>
</svg>
