<?xml version="1.0" encoding="utf-8" standalone="no"?>
<!DOCTYPE svg PUBLIC "-//W3C//DTD SVG 1.1//EN"
  "http://www.w3.org/Graphics/SVG/1.1/DTD/svg11.dtd">
<!-- Created with matplotlib (https://matplotlib.org/) -->
<svg height="473.76pt" version="1.1" viewBox="0 0 648 473.76" width="648pt" xmlns="http://www.w3.org/2000/svg" xmlns:xlink="http://www.w3.org/1999/xlink">
 <defs>
  <style type="text/css">
*{stroke-linecap:butt;stroke-linejoin:round;}
  </style>
 </defs>
 <g id="figure_1">
  <g id="patch_1">
   <path d="M 0 473.76 
L 648 473.76 
L 648 0 
L 0 0 
z
" style="fill:#ffffff;"/>
  </g>
  <g id="axes_1">
   <g id="patch_2">
    <path d="M 81 421.6464 
L 583.2 421.6464 
L 583.2 56.8512 
L 81 56.8512 
z
" style="fill:#ffffff;"/>
   </g>
   <g id="matplotlib.axis_1">
    <g id="xtick_1">
     <g id="line2d_1">
      <defs>
       <path d="M 0 0 
L 0 2 
" id="m7a7a3365fd" style="stroke:#000000;"/>
      </defs>
      <g>
       <use style="stroke:#000000;" x="121.013555" xlink:href="#m7a7a3365fd" y="421.6464"/>
      </g>
     </g>
     <g id="text_1">
      <!-- $\mathdefault{10^{-1}}$ -->
      <defs>
       <path d="M 22.75 51.265625 
L 6.84375 51.265625 
L 6.84375 57.71875 
Q 17.1875 58.984375 20.21875 61.328125 
Q 23.34375 63.578125 25.390625 70.796875 
L 25.875 71.96875 
L 31.734375 71.96875 
L 31.734375 0 
L 22.75 0 
z
" id="Gargi-49"/>
       <path d="M 41.890625 37.5 
Q 41.890625 66.5 27.4375 66.5 
Q 12.984375 66.5 12.984375 37.203125 
Q 12.984375 7.515625 27.25 7.515625 
Q 39.265625 7.515625 41.3125 27.046875 
Q 41.890625 31.734375 41.890625 37.5 
z
M 27.4375 74.421875 
Q 37.890625 74.421875 44.046875 66.5 
Q 50.984375 56.9375 50.984375 36.625 
Q 50.984375 9.1875 37.015625 2.15625 
Q 32.71875 0.09375 27.4375 0.09375 
Q 9.578125 0.09375 5.171875 22.078125 
Q 3.90625 28.71875 3.90625 37.3125 
Q 3.90625 57.125 10.84375 66.5 
Q 16.40625 74.421875 25.984375 74.421875 
z
" id="Gargi-48"/>
       <path d="M 52.203125 4 
L 47.40625 -1 
L 37.59375 8.796875 
Q 31.703125 4.703125 25.09375 4.703125 
Q 18.296875 4.703125 12.40625 8.796875 
L 2.796875 -1 
L -2.203125 4 
L 7.59375 13.59375 
Q 3.5 19.5 3.5 26.203125 
Q 3.5 33.09375 7.59375 38.796875 
L -2.203125 48.59375 
L 2.796875 53.40625 
L 12.40625 43.796875 
Q 18.5 47.703125 25.09375 47.703125 
Q 32 47.703125 37.59375 43.796875 
L 47.40625 53.40625 
L 52.203125 48.59375 
L 42.59375 38.796875 
Q 46.5 33 46.5 26.296875 
Q 46.5 19.703125 42.59375 13.59375 
z
M 39.703125 26.40625 
Q 39.703125 32.59375 35.390625 36.9375 
Q 31.09375 41.296875 24.90625 41.296875 
Q 18.90625 41.296875 14.59375 36.890625 
Q 10.296875 32.5 10.296875 26.296875 
Q 10.296875 20 14.640625 15.546875 
Q 19 11.09375 25.09375 11.09375 
Q 31.296875 11.09375 35.5 15.546875 
Q 39.703125 20 39.703125 26.40625 
z
" id="STIXGeneral-Regular-164"/>
      </defs>
      <g transform="translate(106.973555 440.472025)scale(0.18 -0.18)">
       <use transform="translate(0 0.36875)" xlink:href="#Gargi-49"/>
       <use transform="translate(36.621094 0.36875)" xlink:href="#Gargi-48"/>
       <use transform="translate(92.435234 37.621875)scale(0.7)" xlink:href="#STIXGeneral-Regular-164"/>
       <use transform="translate(127.435224 37.621875)scale(0.7)" xlink:href="#Gargi-49"/>
      </g>
     </g>
    </g>
    <g id="xtick_2">
     <g id="line2d_2">
      <g>
       <use style="stroke:#000000;" x="253.935709" xlink:href="#m7a7a3365fd" y="421.6464"/>
      </g>
     </g>
     <g id="text_2">
      <!-- $\mathdefault{10^{0}}$ -->
      <g transform="translate(241.875709 440.472025)scale(0.18 -0.18)">
       <use transform="translate(0 0.651563)" xlink:href="#Gargi-49"/>
       <use transform="translate(36.621094 0.651563)" xlink:href="#Gargi-48"/>
       <use transform="translate(92.435234 37.904688)scale(0.7)" xlink:href="#Gargi-48"/>
      </g>
     </g>
    </g>
    <g id="xtick_3">
     <g id="line2d_3">
      <g>
       <use style="stroke:#000000;" x="386.857862" xlink:href="#m7a7a3365fd" y="421.6464"/>
      </g>
     </g>
     <g id="text_3">
      <!-- $\mathdefault{10^{1}}$ -->
      <g transform="translate(375.967862 440.472025)scale(0.18 -0.18)">
       <use transform="translate(0 0.36875)" xlink:href="#Gargi-49"/>
       <use transform="translate(36.621094 0.36875)" xlink:href="#Gargi-48"/>
       <use transform="translate(92.435234 37.621875)scale(0.7)" xlink:href="#Gargi-49"/>
      </g>
     </g>
    </g>
    <g id="xtick_4">
     <g id="line2d_4">
      <g>
       <use style="stroke:#000000;" x="519.780015" xlink:href="#m7a7a3365fd" y="421.6464"/>
      </g>
     </g>
     <g id="text_4">
      <!-- $\mathdefault{10^{2}}$ -->
      <defs>
       <path d="M 54.78125 8.796875 
L 54.78125 0 
L 6.84375 0 
Q 6.84375 12.984375 12.703125 19.828125 
Q 17.96875 25.984375 27.046875 31.15625 
L 36.421875 36.421875 
Q 46.1875 42.09375 46.1875 50.6875 
Q 46.1875 58.015625 40.046875 61.921875 
Q 36.53125 64.15625 31.9375 64.15625 
Q 24.3125 64.15625 20.3125 58.40625 
L 19.53125 57.234375 
Q 17.484375 53.90625 17.484375 47.078125 
L 8.5 47.078125 
Q 8.5 57.234375 12.40625 62.703125 
Q 19.046875 71.96875 32.234375 71.96875 
Q 42.28125 71.96875 48.640625 66.3125 
Q 55.28125 60.25 55.28125 50.875 
Q 55.28125 37.5 40.046875 29.109375 
L 29.890625 23.640625 
Q 20.703125 18.265625 18.265625 13.28125 
Q 17.28125 11.234375 16.890625 8.796875 
z
" id="Gargi-50"/>
      </defs>
      <g transform="translate(507.270015 440.472025)scale(0.18 -0.18)">
       <use transform="translate(0 0.36875)" xlink:href="#Gargi-49"/>
       <use transform="translate(36.621094 0.36875)" xlink:href="#Gargi-48"/>
       <use transform="translate(92.435234 37.621875)scale(0.7)" xlink:href="#Gargi-50"/>
      </g>
     </g>
    </g>
    <g id="xtick_5">
     <g id="line2d_5">
      <defs>
       <path d="M 0 0 
L 0 2 
" id="m4d4a42152a" style="stroke:#000000;stroke-width:0.6;"/>
      </defs>
      <g>
       <use style="stroke:#000000;stroke-width:0.6;" x="81" xlink:href="#m4d4a42152a" y="421.6464"/>
      </g>
     </g>
    </g>
    <g id="xtick_6">
     <g id="line2d_6">
      <g>
       <use style="stroke:#000000;stroke-width:0.6;" x="91.524942" xlink:href="#m4d4a42152a" y="421.6464"/>
      </g>
     </g>
    </g>
    <g id="xtick_7">
     <g id="line2d_7">
      <g>
       <use style="stroke:#000000;stroke-width:0.6;" x="100.423653" xlink:href="#m4d4a42152a" y="421.6464"/>
      </g>
     </g>
    </g>
    <g id="xtick_8">
     <g id="line2d_8">
      <g>
       <use style="stroke:#000000;stroke-width:0.6;" x="108.132068" xlink:href="#m4d4a42152a" y="421.6464"/>
      </g>
     </g>
    </g>
    <g id="xtick_9">
     <g id="line2d_9">
      <g>
       <use style="stroke:#000000;stroke-width:0.6;" x="114.931371" xlink:href="#m4d4a42152a" y="421.6464"/>
      </g>
     </g>
    </g>
    <g id="xtick_10">
     <g id="line2d_10">
      <g>
       <use style="stroke:#000000;stroke-width:0.6;" x="161.027111" xlink:href="#m4d4a42152a" y="421.6464"/>
      </g>
     </g>
    </g>
    <g id="xtick_11">
     <g id="line2d_11">
      <g>
       <use style="stroke:#000000;stroke-width:0.6;" x="184.43354" xlink:href="#m4d4a42152a" y="421.6464"/>
      </g>
     </g>
    </g>
    <g id="xtick_12">
     <g id="line2d_12">
      <g>
       <use style="stroke:#000000;stroke-width:0.6;" x="201.040666" xlink:href="#m4d4a42152a" y="421.6464"/>
      </g>
     </g>
    </g>
    <g id="xtick_13">
     <g id="line2d_13">
      <g>
       <use style="stroke:#000000;stroke-width:0.6;" x="213.922153" xlink:href="#m4d4a42152a" y="421.6464"/>
      </g>
     </g>
    </g>
    <g id="xtick_14">
     <g id="line2d_14">
      <g>
       <use style="stroke:#000000;stroke-width:0.6;" x="224.447095" xlink:href="#m4d4a42152a" y="421.6464"/>
      </g>
     </g>
    </g>
    <g id="xtick_15">
     <g id="line2d_15">
      <g>
       <use style="stroke:#000000;stroke-width:0.6;" x="233.345807" xlink:href="#m4d4a42152a" y="421.6464"/>
      </g>
     </g>
    </g>
    <g id="xtick_16">
     <g id="line2d_16">
      <g>
       <use style="stroke:#000000;stroke-width:0.6;" x="241.054221" xlink:href="#m4d4a42152a" y="421.6464"/>
      </g>
     </g>
    </g>
    <g id="xtick_17">
     <g id="line2d_17">
      <g>
       <use style="stroke:#000000;stroke-width:0.6;" x="247.853524" xlink:href="#m4d4a42152a" y="421.6464"/>
      </g>
     </g>
    </g>
    <g id="xtick_18">
     <g id="line2d_18">
      <g>
       <use style="stroke:#000000;stroke-width:0.6;" x="293.949264" xlink:href="#m4d4a42152a" y="421.6464"/>
      </g>
     </g>
    </g>
    <g id="xtick_19">
     <g id="line2d_19">
      <g>
       <use style="stroke:#000000;stroke-width:0.6;" x="317.355693" xlink:href="#m4d4a42152a" y="421.6464"/>
      </g>
     </g>
    </g>
    <g id="xtick_20">
     <g id="line2d_20">
      <g>
       <use style="stroke:#000000;stroke-width:0.6;" x="333.962819" xlink:href="#m4d4a42152a" y="421.6464"/>
      </g>
     </g>
    </g>
    <g id="xtick_21">
     <g id="line2d_21">
      <g>
       <use style="stroke:#000000;stroke-width:0.6;" x="346.844307" xlink:href="#m4d4a42152a" y="421.6464"/>
      </g>
     </g>
    </g>
    <g id="xtick_22">
     <g id="line2d_22">
      <g>
       <use style="stroke:#000000;stroke-width:0.6;" x="357.369248" xlink:href="#m4d4a42152a" y="421.6464"/>
      </g>
     </g>
    </g>
    <g id="xtick_23">
     <g id="line2d_23">
      <g>
       <use style="stroke:#000000;stroke-width:0.6;" x="366.26796" xlink:href="#m4d4a42152a" y="421.6464"/>
      </g>
     </g>
    </g>
    <g id="xtick_24">
     <g id="line2d_24">
      <g>
       <use style="stroke:#000000;stroke-width:0.6;" x="373.976374" xlink:href="#m4d4a42152a" y="421.6464"/>
      </g>
     </g>
    </g>
    <g id="xtick_25">
     <g id="line2d_25">
      <g>
       <use style="stroke:#000000;stroke-width:0.6;" x="380.775678" xlink:href="#m4d4a42152a" y="421.6464"/>
      </g>
     </g>
    </g>
    <g id="xtick_26">
     <g id="line2d_26">
      <g>
       <use style="stroke:#000000;stroke-width:0.6;" x="426.871417" xlink:href="#m4d4a42152a" y="421.6464"/>
      </g>
     </g>
    </g>
    <g id="xtick_27">
     <g id="line2d_27">
      <g>
       <use style="stroke:#000000;stroke-width:0.6;" x="450.277847" xlink:href="#m4d4a42152a" y="421.6464"/>
      </g>
     </g>
    </g>
    <g id="xtick_28">
     <g id="line2d_28">
      <g>
       <use style="stroke:#000000;stroke-width:0.6;" x="466.884973" xlink:href="#m4d4a42152a" y="421.6464"/>
      </g>
     </g>
    </g>
    <g id="xtick_29">
     <g id="line2d_29">
      <g>
       <use style="stroke:#000000;stroke-width:0.6;" x="479.76646" xlink:href="#m4d4a42152a" y="421.6464"/>
      </g>
     </g>
    </g>
    <g id="xtick_30">
     <g id="line2d_30">
      <g>
       <use style="stroke:#000000;stroke-width:0.6;" x="490.291402" xlink:href="#m4d4a42152a" y="421.6464"/>
      </g>
     </g>
    </g>
    <g id="xtick_31">
     <g id="line2d_31">
      <g>
       <use style="stroke:#000000;stroke-width:0.6;" x="499.190113" xlink:href="#m4d4a42152a" y="421.6464"/>
      </g>
     </g>
    </g>
    <g id="xtick_32">
     <g id="line2d_32">
      <g>
       <use style="stroke:#000000;stroke-width:0.6;" x="506.898528" xlink:href="#m4d4a42152a" y="421.6464"/>
      </g>
     </g>
    </g>
    <g id="xtick_33">
     <g id="line2d_33">
      <g>
       <use style="stroke:#000000;stroke-width:0.6;" x="513.697831" xlink:href="#m4d4a42152a" y="421.6464"/>
      </g>
     </g>
    </g>
    <g id="xtick_34">
     <g id="line2d_34">
      <g>
       <use style="stroke:#000000;stroke-width:0.6;" x="559.793571" xlink:href="#m4d4a42152a" y="421.6464"/>
      </g>
     </g>
    </g>
    <g id="xtick_35">
     <g id="line2d_35">
      <g>
       <use style="stroke:#000000;stroke-width:0.6;" x="583.2" xlink:href="#m4d4a42152a" y="421.6464"/>
      </g>
     </g>
    </g>
    <g id="text_5">
     <!-- Tetrahydropapaverine (uM) -->
     <defs>
      <path d="M 38.671875 65.71875 
L 38.671875 0 
L 29.203125 0 
L 29.203125 65.71875 
L 4.890625 65.71875 
L 4.890625 74.03125 
L 62.984375 74.03125 
L 62.984375 65.71875 
z
" id="Gargi-84"/>
      <path d="M 11.921875 32.90625 
L 41.796875 32.90625 
Q 41.890625 33.109375 41.890625 33.5 
Q 41.890625 41.703125 35.9375 46.1875 
Q 32.03125 49.125 27.15625 49.125 
Q 18.5625 49.125 14.359375 41.5 
Q 12.3125 37.890625 11.921875 32.90625 
z
M 50.984375 25.984375 
L 11.71875 25.984375 
Q 11.8125 18.65625 14.546875 14.65625 
Q 18.953125 7.71875 27.34375 7.71875 
Q 37.703125 7.71875 41.3125 18.359375 
L 49.8125 18.359375 
Q 47.5625 6.15625 37.015625 1.765625 
Q 32.515625 -0.09375 27.046875 -0.09375 
Q 13.28125 -0.09375 6.84375 11.03125 
Q 2.9375 17.96875 2.9375 28.125 
Q 2.9375 44.234375 12.40625 52.046875 
Q 18.5625 57.03125 27.25 57.03125 
Q 38.96875 57.03125 45.515625 48.640625 
Q 47.5625 46.09375 48.828125 42.96875 
Q 50.984375 37.40625 50.984375 25.984375 
z
" id="Gargi-101"/>
      <path d="M 30.171875 55.46875 
L 30.171875 48.53125 
L 21.484375 48.53125 
L 21.484375 12.109375 
Q 21.484375 8.203125 23.734375 7.625 
Q 24.609375 7.328125 26.171875 7.328125 
Q 28.71875 7.328125 30.171875 7.71875 
L 30.171875 0.59375 
Q 26.265625 -0.09375 23.25 -0.09375 
Q 14.265625 -0.09375 13.09375 6.734375 
Q 12.984375 7.421875 12.984375 8.296875 
L 12.984375 48.53125 
L 5.859375 48.53125 
L 5.859375 55.46875 
L 12.984375 55.46875 
L 12.984375 70.125 
L 21.484375 70.125 
L 21.484375 55.46875 
z
" id="Gargi-116"/>
      <path d="M 4.890625 53.21875 
L 12.703125 53.21875 
L 12.703125 43.5625 
Q 18.5625 53.03125 24.421875 54.390625 
Q 25.78125 54.78125 27.25 54.78125 
Q 28.328125 54.78125 30.46875 54.390625 
L 30.46875 45.796875 
Q 23.140625 45.703125 20.015625 43.5625 
L 19.34375 43.171875 
Q 13.375 38.765625 13.375 27.640625 
L 13.375 0 
L 4.890625 0 
z
" id="Gargi-114"/>
      <path d="M 38.1875 19.140625 
L 38.1875 28.609375 
Q 34.859375 27.15625 26.5625 25.984375 
Q 25.6875 25.875 24.515625 25.6875 
Q 13.765625 24.21875 12.109375 18.65625 
Q 11.71875 17.484375 11.71875 15.921875 
Q 11.71875 9.375 18.5625 7.8125 
Q 20.125 7.421875 22.171875 7.421875 
Q 29.203125 7.421875 34.765625 12.203125 
Q 38.1875 15.140625 38.1875 19.140625 
z
M 52.9375 7.328125 
L 52.9375 0.875 
Q 49.421875 0 47.171875 0 
Q 39.9375 0 38.671875 6.453125 
L 38.484375 7.8125 
Q 29.59375 0 20.40625 0 
Q 9.1875 0 4.78125 7.625 
Q 2.9375 11.140625 2.9375 15.71875 
Q 2.9375 26.078125 12.203125 29.984375 
Q 15.921875 31.453125 25.484375 32.71875 
L 29.296875 33.203125 
Q 36.71875 34.1875 37.796875 37.109375 
Q 38.1875 37.890625 38.1875 39.0625 
L 38.1875 41.3125 
Q 38.1875 47.859375 29.890625 49.03125 
Q 28.21875 49.21875 26.265625 49.21875 
Q 15.828125 49.21875 14.0625 41.609375 
Q 13.875 40.71875 13.765625 39.84375 
L 5.28125 39.84375 
Q 5.5625 47.171875 8.890625 50.875 
Q 14.453125 57.125 26.5625 57.125 
Q 44.4375 57.125 46.390625 45.3125 
Q 46.578125 43.953125 46.578125 42.578125 
L 46.578125 11.328125 
Q 46.578125 7.125 51.171875 7.125 
Q 52.046875 7.125 52.9375 7.328125 
z
" id="Gargi-97"/>
      <path d="M 4.890625 74.03125 
L 13.28125 74.03125 
L 13.28125 45.90625 
Q 18.75 53.03125 25.484375 54.296875 
Q 27.640625 54.78125 30.375 54.78125 
Q 41.5 54.78125 45.515625 47.265625 
Q 47.078125 44.140625 47.078125 40.234375 
L 47.078125 0 
L 38.671875 0 
L 38.671875 36.921875 
Q 38.671875 42.484375 35.25 44.921875 
Q 31.9375 47.359375 27.734375 47.359375 
Q 19.140625 47.359375 15.4375 39.546875 
Q 13.28125 35.25 13.28125 29.390625 
L 13.28125 0 
L 4.890625 0 
z
" id="Gargi-104"/>
      <path d="M 39.359375 55.671875 
L 48.4375 55.671875 
L 24.8125 -8.6875 
Q 22.5625 -14.546875 19.046875 -17.1875 
Q 15.53125 -19.734375 11.03125 -19.734375 
Q 7.90625 -19.734375 5.375 -18.359375 
L 5.375 -10.75 
Q 8.109375 -11.328125 9.859375 -11.328125 
Q 14.453125 -11.328125 16.21875 -7.328125 
Q 16.5 -6.84375 16.703125 -6.15625 
L 19.921875 2.25 
L 1.953125 55.671875 
L 10.9375 55.671875 
L 24.609375 14.265625 
z
" id="Gargi-121"/>
      <path d="M 31.15625 49.03125 
Q 22.46875 49.03125 18.359375 40.71875 
Q 15.71875 35.640625 15.71875 28.421875 
Q 15.71875 16.015625 22.75 10.546875 
Q 26.46875 7.8125 31.25 7.8125 
Q 39.65625 7.8125 43.65625 16.109375 
Q 46 21.1875 46 28.21875 
Q 46 41.5 38.765625 46.78125 
Q 35.359375 49.03125 31.15625 49.03125 
z
M 54.5 76.265625 
L 54.5 2.25 
L 46.96875 2.25 
L 46.96875 9.28125 
Q 41.109375 0 32.328125 0 
Q 31.25 0 29.984375 -0.09375 
Q 29.109375 -0.203125 28.125 -0.203125 
Q 16.796875 -0.203125 10.75 11.328125 
Q 6.84375 18.453125 6.84375 29 
Q 6.84375 44.625 15.921875 52.25 
Q 21.6875 57.03125 29.6875 57.03125 
Q 40.625 57.03125 46 48.734375 
L 46 76.265625 
z
" id="Gargi-100"/>
      <path d="M 27.046875 49.21875 
Q 17.578125 49.21875 13.765625 39.9375 
Q 11.8125 35.0625 11.8125 28.515625 
Q 11.8125 14.65625 19.734375 9.765625 
Q 22.859375 7.8125 27.046875 7.8125 
Q 36.234375 7.8125 40.140625 16.796875 
Q 42.28125 21.578125 42.28125 28.21875 
Q 42.28125 42.96875 33.984375 47.65625 
Q 30.859375 49.21875 27.046875 49.21875 
z
M 26.953125 57.125 
Q 42.28125 57.125 48.140625 43.953125 
Q 51.078125 37.3125 51.078125 28.125 
Q 51.078125 11.140625 40.71875 4 
Q 35.0625 0 27.046875 0 
Q 12.40625 0 6.34375 12.109375 
Q 2.9375 18.953125 2.9375 28.515625 
Q 2.9375 46.1875 13.671875 53.328125 
Q 19.234375 57.125 26.953125 57.125 
z
" id="Gargi-111"/>
      <path d="M 28.21875 48.921875 
Q 19.828125 48.921875 15.828125 40.4375 
Q 13.484375 35.359375 13.484375 28.328125 
Q 13.484375 15.625 20.40625 10.359375 
Q 23.828125 7.71875 28.21875 7.71875 
Q 36.8125 7.71875 41.015625 15.921875 
Q 43.65625 21 43.65625 28.03125 
Q 43.65625 40.921875 36.53125 46.296875 
Q 32.90625 48.921875 28.21875 48.921875 
z
M 4.890625 -20.015625 
L 4.890625 55.375 
L 12.703125 55.375 
L 12.703125 47.359375 
Q 18.75 56.9375 29.6875 56.9375 
Q 42.578125 56.9375 48.640625 45.609375 
Q 52.546875 38.375 52.546875 27.828125 
Q 52.546875 12.203125 43.453125 4.59375 
Q 37.796875 -0.203125 29.78125 -0.203125 
Q 19.921875 -0.203125 13.484375 7.71875 
L 13.484375 -20.015625 
z
" id="Gargi-112"/>
      <path d="M 29.890625 0 
L 20.703125 0 
L 1.953125 53.21875 
L 11.53125 53.21875 
L 25.78125 10.0625 
L 40.828125 53.21875 
L 50.296875 53.21875 
z
" id="Gargi-118"/>
      <path d="M 15.328125 74.03125 
L 15.328125 63.375 
L 6.84375 63.375 
L 6.84375 74.03125 
z
M 15.328125 53.21875 
L 15.328125 0 
L 6.9375 0 
L 6.9375 53.21875 
z
" id="Gargi-105"/>
      <path d="M 4.890625 53.21875 
L 12.703125 53.21875 
L 12.703125 44.234375 
Q 18.171875 52.9375 25.875 54.296875 
Q 27.9375 54.78125 30.375 54.78125 
Q 41.015625 54.78125 45.3125 47.65625 
Q 47.171875 44.34375 47.171875 40.234375 
L 47.171875 0 
L 38.765625 0 
L 38.765625 36.921875 
Q 38.765625 43.953125 32.8125 46.390625 
Q 30.5625 47.359375 27.828125 47.359375 
Q 19.234375 47.359375 15.53125 39.546875 
Q 13.375 35.25 13.375 29.390625 
L 13.375 0 
L 4.890625 0 
z
" id="Gargi-110"/>
      <path id="Gargi-32"/>
      <path d="M 23.921875 74.03125 
L 29.59375 74.03125 
Q 15.71875 55.375 15.71875 30.46875 
Q 15.71875 28.328125 15.625 26.265625 
Q 15.53125 24.90625 15.53125 23.53125 
Q 15.53125 4.59375 28.03125 -18.953125 
Q 28.8125 -20.515625 29.59375 -21.484375 
L 23.921875 -21.484375 
Q 12.5 -6.546875 8.6875 12.984375 
Q 7.421875 19.921875 7.421875 26.265625 
Q 7.421875 44.53125 16.890625 62.703125 
Q 20.015625 68.84375 23.921875 74.03125 
z
" id="Gargi-40"/>
      <path d="M 47.171875 2.25 
L 39.546875 2.25 
L 39.546875 9.671875 
Q 33.890625 1.65625 26.375 0.296875 
Q 24.3125 -0.09375 21.78125 -0.09375 
Q 10.9375 -0.09375 6.734375 7.03125 
Q 4.890625 10.25 4.890625 14.453125 
L 4.890625 55.46875 
L 13.28125 55.46875 
L 13.28125 17.78125 
Q 13.28125 10.640625 19.234375 8.203125 
Q 21.484375 7.328125 24.21875 7.328125 
Q 32.90625 7.328125 36.71875 15.234375 
Q 38.765625 19.53125 38.765625 25.296875 
L 38.765625 55.46875 
L 47.171875 55.46875 
z
" id="Gargi-117"/>
      <path d="M 44.828125 0 
L 34.859375 0 
L 13.875 62.015625 
L 13.875 0 
L 4.890625 0 
L 4.890625 74.03125 
L 17.96875 74.03125 
L 39.9375 9.578125 
L 61.421875 74.03125 
L 74.515625 74.03125 
L 74.515625 0 
L 65.625 0 
L 65.625 62.015625 
z
" id="Gargi-77"/>
      <path d="M 9.46875 -21.484375 
L 3.90625 -21.484375 
Q 17.78125 -1.078125 17.78125 22.078125 
Q 17.78125 23.140625 17.78125 24.125 
Q 17.78125 25.203125 17.78125 26.171875 
Q 17.78125 48.046875 5.375 71.484375 
Q 4.5 73.140625 3.90625 74.03125 
L 9.46875 74.03125 
Q 20.90625 58.984375 24.703125 39.546875 
Q 25.984375 32.625 25.984375 26.171875 
Q 25.984375 8.015625 16.609375 -10.15625 
Q 13.375 -16.3125 9.46875 -21.484375 
z
" id="Gargi-41"/>
     </defs>
     <g transform="translate(205.123438 463.327963)scale(0.2 -0.2)">
      <use xlink:href="#Gargi-84"/>
      <use x="67.871094" xlink:href="#Gargi-101"/>
      <use x="123.730469" xlink:href="#Gargi-116"/>
      <use x="159.765625" xlink:href="#Gargi-114"/>
      <use x="195.117188" xlink:href="#Gargi-97"/>
      <use x="252.929688" xlink:href="#Gargi-104"/>
      <use x="306.835938" xlink:href="#Gargi-121"/>
      <use x="357.226562" xlink:href="#Gargi-100"/>
      <use x="414.648438" xlink:href="#Gargi-114"/>
      <use x="450" xlink:href="#Gargi-111"/>
      <use x="504.003906" xlink:href="#Gargi-112"/>
      <use x="561.425781" xlink:href="#Gargi-97"/>
      <use x="619.238281" xlink:href="#Gargi-112"/>
      <use x="676.660156" xlink:href="#Gargi-97"/>
      <use x="734.472656" xlink:href="#Gargi-118"/>
      <use x="786.71875" xlink:href="#Gargi-101"/>
      <use x="842.578125" xlink:href="#Gargi-114"/>
      <use x="877.929688" xlink:href="#Gargi-105"/>
      <use x="900.097656" xlink:href="#Gargi-110"/>
      <use x="952.148438" xlink:href="#Gargi-101"/>
      <use x="1008.007812" xlink:href="#Gargi-32"/>
      <use x="1032.421875" xlink:href="#Gargi-40"/>
      <use x="1085.351562" xlink:href="#Gargi-117"/>
      <use x="1137.402344" xlink:href="#Gargi-77"/>
      <use x="1216.796875" xlink:href="#Gargi-41"/>
     </g>
    </g>
   </g>
   <g id="matplotlib.axis_2">
    <g id="ytick_1">
     <g id="line2d_36">
      <defs>
       <path d="M 0 0 
L -2 0 
" id="md5bdb2cce7" style="stroke:#000000;"/>
      </defs>
      <g>
       <use style="stroke:#000000;" x="81" xlink:href="#md5bdb2cce7" y="421.6464"/>
      </g>
     </g>
     <g id="text_6">
      <!-- 0 -->
      <g transform="translate(65.619687 428.309213)scale(0.18 -0.18)">
       <use xlink:href="#Gargi-48"/>
      </g>
     </g>
    </g>
    <g id="ytick_2">
     <g id="line2d_37">
      <g>
       <use style="stroke:#000000;" x="81" xlink:href="#md5bdb2cce7" y="373.00704"/>
      </g>
     </g>
     <g id="text_7">
      <!-- 1 -->
      <g transform="translate(68.9075 379.669852)scale(0.18 -0.18)">
       <use xlink:href="#Gargi-49"/>
      </g>
     </g>
    </g>
    <g id="ytick_3">
     <g id="line2d_38">
      <g>
       <use style="stroke:#000000;" x="81" xlink:href="#md5bdb2cce7" y="324.36768"/>
      </g>
     </g>
     <g id="text_8">
      <!-- 2 -->
      <g transform="translate(64.320312 331.030493)scale(0.18 -0.18)">
       <use xlink:href="#Gargi-50"/>
      </g>
     </g>
    </g>
    <g id="ytick_4">
     <g id="line2d_39">
      <g>
       <use style="stroke:#000000;" x="81" xlink:href="#md5bdb2cce7" y="275.72832"/>
      </g>
     </g>
     <g id="text_9">
      <!-- 3 -->
      <defs>
       <path d="M 26.078125 35.25 
L 26.078125 42.78125 
Q 34.578125 42.78125 37.984375 44.34375 
Q 43.75 46.96875 43.75 54 
Q 43.75 62.703125 36.625 65.4375 
Q 34.1875 66.3125 31.0625 66.3125 
Q 23.046875 66.3125 19.4375 60.84375 
Q 19.140625 60.359375 18.953125 59.96875 
Q 17.28125 57.03125 17.28125 50.875 
L 8.40625 50.875 
Q 8.40625 74.03125 27.640625 74.03125 
Q 28.71875 74.03125 30.953125 74.125 
Q 31.734375 74.125 32.421875 74.125 
Q 44.734375 74.125 50.390625 64.65625 
Q 52.828125 60.453125 52.828125 54.390625 
Q 52.828125 43.359375 42.78125 39.453125 
Q 52.25 36.140625 54.296875 28.421875 
Q 54.984375 25.78125 54.984375 22.265625 
Q 54.984375 9.859375 45.40625 3.71875 
Q 39.265625 -0.203125 30.671875 -0.203125 
Q 15.625 -0.203125 10.0625 10.25 
Q 6.84375 15.140625 6.84375 23.046875 
L 15.828125 23.046875 
Q 15.828125 9.671875 27.25 8.015625 
Q 29.296875 7.71875 30.953125 7.71875 
Q 41.5 7.71875 44.734375 15.71875 
Q 45.90625 18.5625 45.90625 22.171875 
Q 45.90625 35.25 30.953125 35.25 
L 27.15625 35.25 
z
" id="Gargi-51"/>
      </defs>
      <g transform="translate(64.725313 282.391133)scale(0.18 -0.18)">
       <use xlink:href="#Gargi-51"/>
      </g>
     </g>
    </g>
    <g id="ytick_5">
     <g id="line2d_40">
      <g>
       <use style="stroke:#000000;" x="81" xlink:href="#md5bdb2cce7" y="227.08896"/>
      </g>
     </g>
     <g id="text_10">
      <!-- 4 -->
      <defs>
       <path d="M 37.203125 25.296875 
L 37.203125 56.734375 
L 14.65625 25.296875 
z
M 37.203125 17.28125 
L 6.84375 17.28125 
L 6.84375 26.765625 
L 39.546875 71.96875 
L 46.1875 71.96875 
L 46.1875 25.296875 
L 56.84375 25.296875 
L 56.84375 17.28125 
L 46.1875 17.28125 
L 46.1875 0 
L 37.203125 0 
z
" id="Gargi-52"/>
      </defs>
      <g transform="translate(64.039062 233.751772)scale(0.18 -0.18)">
       <use xlink:href="#Gargi-52"/>
      </g>
     </g>
    </g>
    <g id="ytick_6">
     <g id="line2d_41">
      <g>
       <use style="stroke:#000000;" x="81" xlink:href="#md5bdb2cce7" y="178.4496"/>
      </g>
     </g>
     <g id="text_11">
      <!-- 5 -->
      <defs>
       <path d="M 51.65625 74.21875 
L 51.65625 65.4375 
L 21.6875 65.4375 
L 18.84375 45.3125 
Q 24.8125 49.703125 32.125 49.703125 
Q 44.34375 49.703125 50.875 40.828125 
Q 55.46875 34.671875 55.46875 25.6875 
Q 55.46875 12.59375 46.578125 5.28125 
Q 40.046875 -0.09375 30.765625 -0.09375 
Q 19.34375 -0.09375 12.796875 6.734375 
Q 11.921875 7.625 11.234375 8.5 
Q 8.5 11.921875 6.84375 19.921875 
L 15.828125 19.921875 
Q 18.953125 7.8125 30.5625 7.8125 
Q 40.828125 7.8125 44.625 16.015625 
Q 46.296875 19.734375 46.296875 24.515625 
Q 46.296875 35.546875 38.578125 39.84375 
Q 35.15625 41.796875 30.5625 41.796875 
Q 24.03125 41.796875 19.4375 37.40625 
L 17.390625 35.0625 
L 9.078125 35.0625 
L 14.453125 74.21875 
z
" id="Gargi-53"/>
      </defs>
      <g transform="translate(64.28375 185.112413)scale(0.18 -0.18)">
       <use xlink:href="#Gargi-53"/>
      </g>
     </g>
    </g>
    <g id="ytick_7">
     <g id="line2d_42">
      <g>
       <use style="stroke:#000000;" x="81" xlink:href="#md5bdb2cce7" y="129.81024"/>
      </g>
     </g>
     <g id="text_12">
      <!-- 6 -->
      <defs>
       <path d="M 29.390625 39.15625 
Q 20.796875 39.15625 16.703125 32.421875 
Q 14.546875 28.71875 14.546875 24.03125 
Q 14.546875 15.234375 20.703125 10.546875 
Q 24.3125 7.8125 29.109375 7.8125 
Q 36.8125 7.8125 40.921875 14.265625 
Q 43.453125 18.265625 43.453125 23.4375 
Q 43.453125 33.796875 36.234375 37.59375 
Q 33.296875 39.15625 29.390625 39.15625 
z
M 51.078125 55.46875 
L 42.09375 55.46875 
Q 40.328125 64.359375 32.90625 66.015625 
Q 31.546875 66.3125 30.078125 66.3125 
Q 18.75 66.3125 15.328125 51.65625 
Q 13.96875 46.1875 13.96875 38.96875 
Q 19.921875 47.078125 30.5625 47.078125 
Q 41.796875 47.078125 48.140625 38.578125 
Q 52.640625 32.625 52.640625 24.21875 
Q 52.640625 12.109375 44.234375 5.171875 
Q 37.984375 -0.09375 29 -0.09375 
Q 17.09375 -0.09375 10.9375 8.890625 
Q 4.890625 17.78125 4.890625 33.890625 
L 4.890625 35.0625 
Q 4.890625 53.8125 11.328125 63.96875 
Q 17.09375 72.5625 27.25 74.03125 
Q 28.90625 74.21875 30.671875 74.21875 
Q 42.28125 74.21875 47.953125 64.84375 
Q 50.296875 60.84375 51.078125 55.46875 
z
" id="Gargi-54"/>
      </defs>
      <g transform="translate(65.147188 136.473052)scale(0.18 -0.18)">
       <use xlink:href="#Gargi-54"/>
      </g>
     </g>
    </g>
    <g id="ytick_8">
     <g id="line2d_43">
      <g>
       <use style="stroke:#000000;" x="81" xlink:href="#md5bdb2cce7" y="81.17088"/>
      </g>
     </g>
     <g id="text_13">
      <!-- 7 -->
      <defs>
       <path d="M 54.984375 71.96875 
L 54.984375 64.453125 
Q 34.46875 37.3125 27.734375 9.765625 
Q 26.5625 4.984375 25.6875 0 
L 16.21875 0 
Q 21.296875 22.171875 30.671875 39.546875 
Q 36.234375 49.8125 45.703125 63.1875 
L 6.84375 63.1875 
L 6.84375 71.96875 
z
" id="Gargi-55"/>
      </defs>
      <g transform="translate(64.725313 87.833692)scale(0.18 -0.18)">
       <use xlink:href="#Gargi-55"/>
      </g>
     </g>
    </g>
    <g id="text_14">
     <!-- Fluorescence (RFU/OD600) -->
     <defs>
      <path d="M 14.265625 33.6875 
L 14.265625 0 
L 4.890625 0 
L 4.890625 74.03125 
L 54.5 74.03125 
L 54.5 65.71875 
L 14.265625 65.71875 
L 14.265625 42.09375 
L 49.609375 42.09375 
L 49.609375 33.6875 
z
" id="Gargi-70"/>
      <path d="M 15.328125 74.03125 
L 15.328125 0 
L 6.84375 0 
L 6.84375 74.03125 
z
" id="Gargi-108"/>
      <path d="M 44.046875 40.53125 
L 35.0625 40.53125 
Q 34.765625 49.03125 24.421875 49.03125 
Q 16.109375 49.03125 13.765625 44.140625 
Q 13.09375 42.671875 13.09375 41.015625 
Q 13.09375 36.53125 19.828125 34.28125 
Q 21.296875 33.796875 22.953125 33.40625 
L 31.0625 31.546875 
Q 43.0625 28.609375 45.40625 21.578125 
Q 46.09375 19.4375 46.09375 16.703125 
Q 46.09375 7.03125 37.203125 2.546875 
Q 31.84375 -0.203125 24.21875 -0.203125 
Q 4.5 -0.203125 3.03125 16.3125 
Q 2.9375 17.09375 2.9375 17.96875 
L 11.921875 17.96875 
Q 12.5 13.1875 14.359375 11.234375 
Q 17.671875 7.625 24.90625 7.625 
Q 33.40625 7.625 36.234375 12.40625 
Q 37.3125 14.0625 37.3125 15.921875 
Q 37.3125 20.609375 31.84375 22.5625 
Q 30.5625 22.953125 29.109375 23.34375 
L 21.1875 25.296875 
Q 9.078125 28.328125 5.953125 33.40625 
Q 4.296875 36.234375 4.296875 40.625 
Q 4.296875 50.09375 12.796875 54.390625 
Q 17.78125 56.9375 24.703125 56.9375 
Q 39.453125 56.9375 42.96875 46.6875 
Q 44.046875 43.84375 44.046875 40.53125 
z
" id="Gargi-115"/>
      <path d="M 47.65625 37.796875 
L 39.0625 37.796875 
Q 37.796875 47.65625 29.296875 49.125 
Q 27.9375 49.3125 26.5625 49.3125 
Q 17 49.3125 13.375 39.15625 
Q 11.8125 34.578125 11.8125 28.125 
Q 11.8125 14.265625 19.828125 9.671875 
Q 22.75 7.90625 26.765625 7.90625 
Q 37.59375 7.90625 39.75 20.703125 
L 48.25 20.703125 
Q 48.25 6.84375 36.53125 2.15625 
Q 32.234375 0.09375 26.5625 0.09375 
Q 13.375 0.09375 7.125 10.75 
Q 2.9375 17.875 2.9375 28.125 
Q 2.9375 44.4375 12.3125 52.25 
Q 18.265625 57.234375 26.65625 57.234375 
Q 37.40625 57.234375 43.265625 50.296875 
L 44.046875 49.21875 
Q 47.078125 44.921875 47.65625 37.796875 
z
" id="Gargi-99"/>
      <path d="M 14.265625 40.234375 
L 37.109375 40.234375 
Q 49.421875 40.234375 51.265625 48.921875 
Q 51.65625 50.6875 51.65625 52.9375 
Q 51.65625 59.578125 47.859375 62.890625 
Q 44.53125 65.71875 37.109375 65.71875 
L 14.265625 65.71875 
z
M 14.265625 31.9375 
L 14.265625 0 
L 4.890625 0 
L 4.890625 74.03125 
L 38.96875 74.03125 
Q 56.25 74.03125 60.453125 61.8125 
Q 61.53125 58.5 61.53125 54.203125 
Q 61.53125 44.234375 54.203125 39.0625 
Q 52.25 37.796875 49.8125 36.53125 
Q 56.15625 33.796875 58.109375 29.78125 
Q 59.859375 25.984375 59.859375 17.28125 
Q 59.859375 7.515625 61.8125 4.78125 
Q 62.796875 3.421875 64.359375 2.34375 
L 64.359375 0 
L 52.9375 0 
Q 50.875 4.890625 50.875 12.109375 
L 50.875 18.65625 
Q 50.875 29.78125 42.78125 31.453125 
Q 40.921875 31.9375 38.671875 31.9375 
z
" id="Gargi-82"/>
      <path d="M 52.34375 75 
L 61.8125 75 
L 61.8125 24.125 
Q 61.8125 11.140625 51.265625 4.6875 
Q 43.953125 0.203125 33.296875 0.203125 
Q 16.5 0.203125 9.078125 10.25 
Q 4.890625 15.921875 4.890625 24.125 
L 4.890625 75 
L 14.359375 75 
L 14.359375 24.125 
Q 14.359375 16.3125 19.734375 12.109375 
Q 25.09375 8.296875 33.296875 8.296875 
Q 45.90625 8.296875 50.390625 16.3125 
Q 52.34375 19.828125 52.34375 24.125 
z
" id="Gargi-85"/>
      <path d="M 23.25 74.03125 
L 28.8125 74.03125 
L 4.78125 -2.046875 
L -0.78125 -2.046875 
z
" id="Gargi-47"/>
      <path d="M 38.578125 68.171875 
Q 25.203125 68.171875 17.96875 58.015625 
Q 12.3125 50.09375 12.3125 38.28125 
Q 12.3125 22.65625 21.96875 14.359375 
Q 28.90625 8.40625 38.375 8.40625 
Q 38.484375 8.40625 38.671875 8.40625 
Q 51.65625 8.40625 59.078125 18.359375 
Q 64.9375 26.265625 64.9375 37.890625 
Q 64.9375 54.390625 54.984375 62.59375 
Q 48.25 68.171875 38.578125 68.171875 
z
M 38.578125 76.375 
Q 56.25 76.375 66.015625 64.15625 
Q 74.421875 53.71875 74.421875 37.703125 
Q 74.421875 22.953125 66.015625 12.5 
Q 63.96875 9.859375 61.625 7.90625 
Q 52.34375 0.296875 38.671875 0.296875 
Q 21.78125 0.296875 11.71875 12.015625 
Q 2.9375 22.265625 2.9375 38.28125 
Q 2.9375 56.734375 14.15625 67.28125 
Q 23.828125 76.375 38.578125 76.375 
z
" id="Gargi-79"/>
      <path d="M 14.265625 8.296875 
L 31.734375 8.296875 
Q 49.421875 8.296875 53.21875 26.765625 
Q 54.109375 31.25 54.109375 37.015625 
Q 54.109375 61.921875 37.015625 65.234375 
Q 34.46875 65.71875 31.734375 65.71875 
L 14.265625 65.71875 
z
M 4.890625 0 
L 4.890625 74.03125 
L 33.40625 74.03125 
Q 49.90625 74.03125 57.90625 60.640625 
Q 63.578125 51.265625 63.578125 37.109375 
Q 63.578125 15.921875 51.765625 6.15625 
Q 44.34375 0 33.40625 0 
z
" id="Gargi-68"/>
     </defs>
     <g transform="translate(55.742187 367.808175)rotate(-90)scale(0.2 -0.2)">
      <use xlink:href="#Gargi-70"/>
      <use x="59.375" xlink:href="#Gargi-108"/>
      <use x="81.542969" xlink:href="#Gargi-117"/>
      <use x="133.59375" xlink:href="#Gargi-111"/>
      <use x="187.597656" xlink:href="#Gargi-114"/>
      <use x="222.949219" xlink:href="#Gargi-101"/>
      <use x="278.808594" xlink:href="#Gargi-115"/>
      <use x="327.832031" xlink:href="#Gargi-99"/>
      <use x="379.003906" xlink:href="#Gargi-101"/>
      <use x="434.863281" xlink:href="#Gargi-110"/>
      <use x="486.914062" xlink:href="#Gargi-99"/>
      <use x="538.085938" xlink:href="#Gargi-101"/>
      <use x="593.945312" xlink:href="#Gargi-32"/>
      <use x="618.359375" xlink:href="#Gargi-40"/>
      <use x="671.289062" xlink:href="#Gargi-82"/>
      <use x="740.527344" xlink:href="#Gargi-70"/>
      <use x="799.902344" xlink:href="#Gargi-85"/>
      <use x="866.601562" xlink:href="#Gargi-47"/>
      <use x="919.53125" xlink:href="#Gargi-79"/>
      <use x="996.875" xlink:href="#Gargi-68"/>
      <use x="1065.332031" xlink:href="#Gargi-54"/>
      <use x="1122.851562" xlink:href="#Gargi-48"/>
      <use x="1177.734375" xlink:href="#Gargi-48"/>
      <use x="1232.617188" xlink:href="#Gargi-41"/>
     </g>
    </g>
   </g>
   <g id="line2d_44">
    <path clip-path="url(#p450a6854ab)" d="M 78.039551 421.198251 
L 129.08222 420.802325 
L 167.181986 420.292399 
L 197.699177 419.669383 
L 223.232315 418.932752 
L 245.229679 418.081479 
L 264.581368 417.114351 
L 281.785473 416.036302 
L 297.313551 414.844694 
L 311.487496 413.537336 
L 324.496652 412.117362 
L 336.538891 410.582232 
L 347.761211 408.929781 
L 358.252999 407.162374 
L 368.114834 405.277727 
L 377.425693 403.273843 
L 386.249097 401.148946 
L 394.624552 398.905001 
L 402.611406 396.536725 
L 410.255247 394.039525 
L 417.583513 391.41255 
L 424.620585 388.654978 
L 431.401545 385.760076 
L 437.947523 382.724764 
L 444.281698 379.543476 
L 450.422562 376.211237 
L 456.389465 372.720953 
L 462.197508 369.066256 
L 467.858667 365.241416 
L 473.385822 361.238834 
L 478.791915 357.049298 
L 484.086726 352.66448 
L 489.28015 348.074604 
L 494.381772 343.268629 
L 499.398547 338.23654 
L 504.339254 332.965089 
L 509.210028 327.442237 
L 514.018228 321.653077 
L 518.768764 315.584045 
L 523.466078 309.220898 
L 528.116615 302.545125 
L 532.723239 295.541657 
L 537.291615 288.189697 
L 541.824087 280.472003 
L 546.32428 272.367783 
L 550.794807 263.856412 
L 555.239001 254.914221 
L 559.659052 245.518021 
L 564.057565 235.641999 
L 568.436642 225.259559 
L 572.675058 214.659038 
L 572.675058 214.659038 
" style="fill:none;stroke:#0099ff;stroke-linecap:square;stroke-width:1.5;"/>
   </g>
   <g id="line2d_45">
    <path clip-path="url(#p450a6854ab)" d="M 78.039551 421.60757 
L 154.945504 421.427041 
L 193.332829 421.126121 
L 219.686538 420.705673 
L 239.777996 420.1697 
L 256.061459 419.519596 
L 269.853797 418.751433 
L 281.785473 417.868843 
L 292.340102 416.869395 
L 301.82938 415.750884 
L 310.466698 414.51142 
L 318.405021 413.149494 
L 325.758043 411.66401 
L 332.612774 410.054306 
L 339.070458 408.310641 
L 345.175755 406.432679 
L 350.96604 404.420669 
L 356.52177 402.25533 
L 361.857109 399.937257 
L 367.006015 397.457535 
L 371.995017 394.807651 
L 376.844998 391.979663 
L 381.588321 388.95585 
L 386.234511 385.729833 
L 390.804643 382.285871 
L 395.326718 378.599072 
L 399.809158 374.656992 
L 404.278817 370.428561 
L 408.744101 365.896434 
L 413.227819 361.026516 
L 417.744326 355.790207 
L 422.316848 350.145665 
L 426.965725 344.050697 
L 431.72752 337.437219 
L 436.634249 330.237219 
L 441.72823 322.362678 
L 447.083991 313.667923 
L 452.800986 303.954851 
L 459.049169 292.890795 
L 466.188632 279.781039 
L 475.2946 262.564099 
L 498.573014 218.336742 
L 505.773339 205.271023 
L 512.047433 194.336984 
L 517.78372 184.779096 
L 523.161999 176.243282 
L 528.285002 168.524115 
L 533.220481 161.484805 
L 538.014851 155.029856 
L 542.703945 149.08581 
L 547.317135 143.593749 
L 551.87754 138.5074 
L 556.406187 133.787073 
L 560.922443 129.398751 
L 565.443563 125.313977 
L 569.987409 121.506936 
L 572.675058 119.390313 
L 572.675058 119.390313 
" style="fill:none;stroke:#3372cc;stroke-linecap:square;stroke-width:1.5;"/>
   </g>
   <g id="line2d_46">
    <path clip-path="url(#p450a6854ab)" d="M 78.039551 421.533885 
L 122.439572 421.296957 
L 149.922567 420.942104 
L 170.337272 420.461789 
L 186.326987 419.867423 
L 199.579713 419.156073 
L 210.961704 418.324115 
L 220.722034 417.395276 
L 229.510684 416.342081 
L 237.521265 415.160716 
L 244.893075 413.847724 
L 251.57974 412.434497 
L 257.842041 410.887014 
L 263.735088 409.202946 
L 269.303484 407.380499 
L 274.583887 405.418436 
L 279.606823 403.316097 
L 284.398016 401.073414 
L 289.057954 398.647889 
L 293.587913 396.037975 
L 297.990316 393.243257 
L 302.268373 390.264474 
L 306.483921 387.057409 
L 310.629081 383.623515 
L 314.748627 379.918905 
L 318.828624 375.947573 
L 322.901992 371.668299 
L 326.951735 367.089665 
L 331.040336 362.128033 
L 335.141911 356.799313 
L 339.30117 351.029835 
L 343.548675 344.754588 
L 347.903082 337.920414 
L 352.399344 330.444518 
L 357.080465 322.223784 
L 362.012678 313.105636 
L 367.310539 302.833674 
L 373.141099 291.029854 
L 379.887503 276.850201 
L 388.927945 257.286181 
L 406.127258 219.992993 
L 413.017219 205.656174 
L 418.899079 193.918566 
L 424.22911 183.768646 
L 429.205445 174.762925 
L 433.927296 166.67099 
L 438.463399 159.3328 
L 442.860662 152.637032 
L 447.155128 146.498574 
L 451.369675 140.858102 
L 455.530612 135.657119 
L 459.657566 130.851318 
L 463.768601 126.402644 
L 467.879949 122.278997 
L 472.009121 118.450712 
L 476.170564 114.894456 
L 480.378583 111.589739 
L 484.654396 108.51383 
L 489.012718 105.652041 
L 493.473871 102.988486 
L 498.062297 100.508109 
L 502.798951 98.200813 
L 507.712356 96.055466 
L 512.834077 94.062849 
L 518.199043 92.215539 
L 523.849319 90.506781 
L 529.834584 88.930909 
L 536.216086 87.482862 
L 543.067595 86.158718 
L 550.482778 84.955016 
L 558.581492 83.868953 
L 567.521772 82.898197 
L 572.675058 82.429491 
L 572.675058 82.429491 
" style="fill:none;stroke:#674c9a;stroke-linecap:square;stroke-width:1.5;"/>
   </g>
   <g id="line2d_47">
    <path clip-path="url(#p450a6854ab)" d="M 78.039551 421.541534 
L 118.053106 421.306979 
L 142.463515 420.951903 
L 160.301548 420.475238 
L 174.483582 419.873135 
L 185.859556 419.17458 
L 195.755311 418.348636 
L 204.540942 417.389495 
L 212.164401 416.337252 
L 219.16174 415.148187 
L 225.401865 413.869845 
L 231.246976 412.451245 
L 236.748981 410.887615 
L 241.949814 409.174671 
L 246.720569 407.374506 
L 251.278291 405.42406 
L 255.642637 403.320476 
L 259.830551 401.061535 
L 263.978151 398.568894 
L 267.960927 395.913597 
L 271.792584 393.09599 
L 275.584386 390.033371 
L 279.328619 386.721577 
L 283.019387 383.158272 
L 286.652299 379.343084 
L 290.301121 375.186614 
L 293.949841 370.68876 
L 297.58521 365.853044 
L 301.26001 360.592482 
L 304.953851 354.916781 
L 308.76143 348.651505 
L 312.647354 341.819328 
L 316.630131 334.359396 
L 320.765346 326.133079 
L 325.088733 317.028366 
L 329.696439 306.793451 
L 334.680516 295.166046 
L 340.279623 281.520268 
L 347.075333 264.34054 
L 360.778901 228.895107 
L 368.750298 208.681169 
L 374.711885 194.155116 
L 379.903785 182.077963 
L 384.637034 171.619994 
L 389.067014 162.361218 
L 393.284518 154.052831 
L 397.34729 146.533357 
L 401.289136 139.699119 
L 405.147391 133.450256 
L 408.931479 127.739908 
L 412.667578 122.499706 
L 416.375909 117.677496 
L 420.071789 113.233124 
L 423.766469 109.135137 
L 427.474972 105.351256 
L 431.214444 101.851341 
L 435.002795 98.609046 
L 438.851701 95.606866 
L 442.77855 92.825438 
L 446.803674 90.246857 
L 450.943256 87.858988 
L 455.226748 85.645183 
L 459.678009 83.595669 
L 464.32947 81.699834 
L 469.215535 79.949843 
L 474.379796 78.338072 
L 479.873734 76.858386 
L 485.760253 75.505688 
L 492.117306 74.275867 
L 499.044125 73.165561 
L 506.671355 72.171908 
L 515.173888 71.292699 
L 524.79908 70.525873 
L 535.906946 69.869838 
L 549.051742 69.323292 
L 565.159545 68.884857 
L 572.675058 68.74107 
L 572.675058 68.74107 
" style="fill:none;stroke:#9a2667;stroke-linecap:square;stroke-width:1.5;"/>
   </g>
   <g id="line2d_48">
    <path clip-path="url(#p450a6854ab)" d="M 78.039551 421.569315 
L 121.014133 421.361655 
L 146.313432 421.032267 
L 164.527387 420.579082 
L 178.351933 420.023856 
L 189.936122 419.343204 
L 199.948579 418.530947 
L 208.478424 417.619347 
L 216.186839 416.571664 
L 222.986142 415.427786 
L 229.289929 414.14348 
L 234.972614 412.766117 
L 240.328658 411.244762 
L 245.397248 409.574838 
L 250.210648 407.752335 
L 254.795766 405.773867 
L 259.175296 403.636729 
L 263.368564 401.33894 
L 267.39218 398.879289 
L 271.260531 396.257365 
L 275.086304 393.39508 
L 278.861944 390.287051 
L 282.581725 386.929747 
L 286.241427 383.321668 
L 289.838065 379.463471 
L 293.442504 375.269985 
L 297.040608 370.742624 
L 300.684967 365.796299 
L 304.354392 360.43823 
L 308.087562 354.590181 
L 311.911964 348.180107 
L 315.84538 341.146234 
L 319.943265 333.351508 
L 324.198319 324.773303 
L 328.756489 315.072116 
L 333.710285 303.990254 
L 339.30117 290.918724 
L 346.206365 274.17539 
L 368.413579 219.880613 
L 373.940861 207.221005 
L 378.852375 196.514461 
L 383.393907 187.138543 
L 387.675248 178.802486 
L 391.767011 171.315437 
L 395.724154 164.532903 
L 399.578064 158.364013 
L 403.35361 152.735945 
L 407.070436 147.58995 
L 410.753478 142.866368 
L 414.421847 138.520124 
L 418.089823 134.516795 
L 421.767657 130.829546 
L 425.477034 127.42378 
L 429.233158 124.275871 
L 433.052232 121.364748 
L 436.950231 118.672693 
L 440.947549 116.182112 
L 445.066251 113.877938 
L 449.332649 111.746329 
L 453.773595 109.776733 
L 458.425937 107.957812 
L 463.32516 106.28267 
L 468.518294 104.74394 
L 474.058867 103.336326 
L 480.020481 102.053808 
L 486.486751 100.893207 
L 493.571669 99.85096 
L 501.425055 98.924423 
L 510.252603 98.111466 
L 520.352141 97.410114 
L 532.168136 96.818967 
L 546.418971 96.336611 
L 564.374379 95.961543 
L 572.675058 95.846196 
L 572.675058 95.846196 
" style="fill:none;stroke:#ce0035;stroke-linecap:square;stroke-width:1.5;"/>
   </g>
   <g id="line2d_49">
    <defs>
     <path d="M 0 3 
C 0.795609 3 1.55874 2.683901 2.12132 2.12132 
C 2.683901 1.55874 3 0.795609 3 0 
C 3 -0.795609 2.683901 -1.55874 2.12132 -2.12132 
C 1.55874 -2.683901 0.795609 -3 0 -3 
C -0.795609 -3 -1.55874 -2.683901 -2.12132 -2.12132 
C -2.683901 -1.55874 -3 -0.795609 -3 0 
C -3 0.795609 -2.683901 1.55874 -2.12132 2.12132 
C -1.55874 2.683901 -0.795609 3 0 3 
z
" id="m87b9dec66a" style="stroke:#0099ff;"/>
    </defs>
    <g clip-path="url(#p450a6854ab)">
     <use style="fill:#0099ff;stroke:#0099ff;" x="-1" xlink:href="#m87b9dec66a" y="411.180469"/>
     <use style="fill:#0099ff;stroke:#0099ff;" x="121.013555" xlink:href="#m87b9dec66a" y="411.180233"/>
     <use style="fill:#0099ff;stroke:#0099ff;" x="173.908598" xlink:href="#m87b9dec66a" y="411.245071"/>
     <use style="fill:#0099ff;stroke:#0099ff;" x="213.922153" xlink:href="#m87b9dec66a" y="410.783269"/>
     <use style="fill:#0099ff;stroke:#0099ff;" x="253.935709" xlink:href="#m87b9dec66a" y="410.327476"/>
     <use style="fill:#0099ff;stroke:#0099ff;" x="306.830752" xlink:href="#m87b9dec66a" y="409.239315"/>
     <use style="fill:#0099ff;stroke:#0099ff;" x="346.844307" xlink:href="#m87b9dec66a" y="407.416826"/>
     <use style="fill:#0099ff;stroke:#0099ff;" x="386.857862" xlink:href="#m87b9dec66a" y="403.423957"/>
     <use style="fill:#0099ff;stroke:#0099ff;" x="439.752905" xlink:href="#m87b9dec66a" y="386.320183"/>
     <use style="fill:#0099ff;stroke:#0099ff;" x="479.76646" xlink:href="#m87b9dec66a" y="359.827641"/>
     <use style="fill:#0099ff;stroke:#0099ff;" x="519.780015" xlink:href="#m87b9dec66a" y="306.021183"/>
     <use style="fill:#0099ff;stroke:#0099ff;" x="572.675058" xlink:href="#m87b9dec66a" y="212.431697"/>
    </g>
   </g>
   <g id="line2d_50">
    <g clip-path="url(#p450a6854ab)">
     <use style="fill:#0099ff;stroke:#0099ff;" x="-1" xlink:href="#m87b9dec66a" y="410.898606"/>
     <use style="fill:#0099ff;stroke:#0099ff;" x="121.013555" xlink:href="#m87b9dec66a" y="410.898595"/>
     <use style="fill:#0099ff;stroke:#0099ff;" x="173.908598" xlink:href="#m87b9dec66a" y="410.958873"/>
     <use style="fill:#0099ff;stroke:#0099ff;" x="213.922153" xlink:href="#m87b9dec66a" y="410.53261"/>
     <use style="fill:#0099ff;stroke:#0099ff;" x="253.935709" xlink:href="#m87b9dec66a" y="410.102351"/>
     <use style="fill:#0099ff;stroke:#0099ff;" x="306.830752" xlink:href="#m87b9dec66a" y="409.261988"/>
     <use style="fill:#0099ff;stroke:#0099ff;" x="346.844307" xlink:href="#m87b9dec66a" y="407.189833"/>
     <use style="fill:#0099ff;stroke:#0099ff;" x="386.857862" xlink:href="#m87b9dec66a" y="403.697925"/>
     <use style="fill:#0099ff;stroke:#0099ff;" x="439.752905" xlink:href="#m87b9dec66a" y="387.335298"/>
     <use style="fill:#0099ff;stroke:#0099ff;" x="479.76646" xlink:href="#m87b9dec66a" y="362.615636"/>
     <use style="fill:#0099ff;stroke:#0099ff;" x="519.780015" xlink:href="#m87b9dec66a" y="307.607444"/>
     <use style="fill:#0099ff;stroke:#0099ff;" x="572.675058" xlink:href="#m87b9dec66a" y="219.317268"/>
    </g>
   </g>
   <g id="line2d_51">
    <g clip-path="url(#p450a6854ab)">
     <use style="fill:#0099ff;stroke:#0099ff;" x="-1" xlink:href="#m87b9dec66a" y="410.798901"/>
     <use style="fill:#0099ff;stroke:#0099ff;" x="121.013555" xlink:href="#m87b9dec66a" y="410.798634"/>
     <use style="fill:#0099ff;stroke:#0099ff;" x="173.908598" xlink:href="#m87b9dec66a" y="410.863317"/>
     <use style="fill:#0099ff;stroke:#0099ff;" x="213.922153" xlink:href="#m87b9dec66a" y="410.488779"/>
     <use style="fill:#0099ff;stroke:#0099ff;" x="253.935709" xlink:href="#m87b9dec66a" y="410.147596"/>
     <use style="fill:#0099ff;stroke:#0099ff;" x="306.830752" xlink:href="#m87b9dec66a" y="409.099342"/>
     <use style="fill:#0099ff;stroke:#0099ff;" x="346.844307" xlink:href="#m87b9dec66a" y="407.394159"/>
     <use style="fill:#0099ff;stroke:#0099ff;" x="386.857862" xlink:href="#m87b9dec66a" y="403.425186"/>
     <use style="fill:#0099ff;stroke:#0099ff;" x="439.752905" xlink:href="#m87b9dec66a" y="387.457319"/>
     <use style="fill:#0099ff;stroke:#0099ff;" x="479.76646" xlink:href="#m87b9dec66a" y="361.140617"/>
     <use style="fill:#0099ff;stroke:#0099ff;" x="519.780015" xlink:href="#m87b9dec66a" y="315.022907"/>
     <use style="fill:#0099ff;stroke:#0099ff;" x="572.675058" xlink:href="#m87b9dec66a" y="213.000691"/>
    </g>
   </g>
   <g id="line2d_52">
    <defs>
     <path d="M 0 3 
C 0.795609 3 1.55874 2.683901 2.12132 2.12132 
C 2.683901 1.55874 3 0.795609 3 0 
C 3 -0.795609 2.683901 -1.55874 2.12132 -2.12132 
C 1.55874 -2.683901 0.795609 -3 0 -3 
C -0.795609 -3 -1.55874 -2.683901 -2.12132 -2.12132 
C -2.683901 -1.55874 -3 -0.795609 -3 0 
C -3 0.795609 -2.683901 1.55874 -2.12132 2.12132 
C -1.55874 2.683901 -0.795609 3 0 3 
z
" id="mf5bf9763d6" style="stroke:#3372cc;"/>
    </defs>
    <g clip-path="url(#p450a6854ab)">
     <use style="fill:#3372cc;stroke:#3372cc;" x="-1" xlink:href="#mf5bf9763d6" y="417.301728"/>
     <use style="fill:#3372cc;stroke:#3372cc;" x="121.013555" xlink:href="#mf5bf9763d6" y="417.30162"/>
     <use style="fill:#3372cc;stroke:#3372cc;" x="173.908598" xlink:href="#mf5bf9763d6" y="417.200098"/>
     <use style="fill:#3372cc;stroke:#3372cc;" x="213.922153" xlink:href="#mf5bf9763d6" y="416.689722"/>
     <use style="fill:#3372cc;stroke:#3372cc;" x="253.935709" xlink:href="#mf5bf9763d6" y="415.799299"/>
     <use style="fill:#3372cc;stroke:#3372cc;" x="306.830752" xlink:href="#mf5bf9763d6" y="412.577707"/>
     <use style="fill:#3372cc;stroke:#3372cc;" x="346.844307" xlink:href="#mf5bf9763d6" y="407.079061"/>
     <use style="fill:#3372cc;stroke:#3372cc;" x="386.857862" xlink:href="#mf5bf9763d6" y="387.302727"/>
     <use style="fill:#3372cc;stroke:#3372cc;" x="439.752905" xlink:href="#mf5bf9763d6" y="326.713971"/>
     <use style="fill:#3372cc;stroke:#3372cc;" x="479.76646" xlink:href="#mf5bf9763d6" y="263.106788"/>
     <use style="fill:#3372cc;stroke:#3372cc;" x="519.780015" xlink:href="#mf5bf9763d6" y="179.314872"/>
     <use style="fill:#3372cc;stroke:#3372cc;" x="572.675058" xlink:href="#mf5bf9763d6" y="122.443335"/>
    </g>
   </g>
   <g id="line2d_53">
    <g clip-path="url(#p450a6854ab)">
     <use style="fill:#3372cc;stroke:#3372cc;" x="-1" xlink:href="#mf5bf9763d6" y="417.383358"/>
     <use style="fill:#3372cc;stroke:#3372cc;" x="121.013555" xlink:href="#mf5bf9763d6" y="417.383216"/>
     <use style="fill:#3372cc;stroke:#3372cc;" x="173.908598" xlink:href="#mf5bf9763d6" y="417.219747"/>
     <use style="fill:#3372cc;stroke:#3372cc;" x="213.922153" xlink:href="#mf5bf9763d6" y="416.753361"/>
     <use style="fill:#3372cc;stroke:#3372cc;" x="253.935709" xlink:href="#mf5bf9763d6" y="415.860711"/>
     <use style="fill:#3372cc;stroke:#3372cc;" x="306.830752" xlink:href="#mf5bf9763d6" y="412.947201"/>
     <use style="fill:#3372cc;stroke:#3372cc;" x="346.844307" xlink:href="#mf5bf9763d6" y="406.424899"/>
     <use style="fill:#3372cc;stroke:#3372cc;" x="386.857862" xlink:href="#mf5bf9763d6" y="387.215095"/>
     <use style="fill:#3372cc;stroke:#3372cc;" x="439.752905" xlink:href="#mf5bf9763d6" y="319.43772"/>
     <use style="fill:#3372cc;stroke:#3372cc;" x="479.76646" xlink:href="#mf5bf9763d6" y="247.462761"/>
     <use style="fill:#3372cc;stroke:#3372cc;" x="519.780015" xlink:href="#mf5bf9763d6" y="176.651324"/>
     <use style="fill:#3372cc;stroke:#3372cc;" x="572.675058" xlink:href="#mf5bf9763d6" y="122.626411"/>
    </g>
   </g>
   <g id="line2d_54">
    <g clip-path="url(#p450a6854ab)">
     <use style="fill:#3372cc;stroke:#3372cc;" x="-1" xlink:href="#mf5bf9763d6" y="417.403905"/>
     <use style="fill:#3372cc;stroke:#3372cc;" x="121.013555" xlink:href="#mf5bf9763d6" y="417.403758"/>
     <use style="fill:#3372cc;stroke:#3372cc;" x="173.908598" xlink:href="#mf5bf9763d6" y="417.28229"/>
     <use style="fill:#3372cc;stroke:#3372cc;" x="213.922153" xlink:href="#mf5bf9763d6" y="416.836352"/>
     <use style="fill:#3372cc;stroke:#3372cc;" x="253.935709" xlink:href="#mf5bf9763d6" y="415.932429"/>
     <use style="fill:#3372cc;stroke:#3372cc;" x="306.830752" xlink:href="#mf5bf9763d6" y="413.19712"/>
     <use style="fill:#3372cc;stroke:#3372cc;" x="346.844307" xlink:href="#mf5bf9763d6" y="405.652396"/>
     <use style="fill:#3372cc;stroke:#3372cc;" x="386.857862" xlink:href="#mf5bf9763d6" y="388.716835"/>
     <use style="fill:#3372cc;stroke:#3372cc;" x="439.752905" xlink:href="#mf5bf9763d6" y="322.549418"/>
     <use style="fill:#3372cc;stroke:#3372cc;" x="479.76646" xlink:href="#mf5bf9763d6" y="260.441995"/>
     <use style="fill:#3372cc;stroke:#3372cc;" x="519.780015" xlink:href="#mf5bf9763d6" y="181.659658"/>
     <use style="fill:#3372cc;stroke:#3372cc;" x="572.675058" xlink:href="#mf5bf9763d6" y="115.452548"/>
    </g>
   </g>
   <g id="line2d_55">
    <defs>
     <path d="M 0 3 
C 0.795609 3 1.55874 2.683901 2.12132 2.12132 
C 2.683901 1.55874 3 0.795609 3 0 
C 3 -0.795609 2.683901 -1.55874 2.12132 -2.12132 
C 1.55874 -2.683901 0.795609 -3 0 -3 
C -0.795609 -3 -1.55874 -2.683901 -2.12132 -2.12132 
C -2.683901 -1.55874 -3 -0.795609 -3 0 
C -3 0.795609 -2.683901 1.55874 -2.12132 2.12132 
C -1.55874 2.683901 -0.795609 3 0 3 
z
" id="m531e14e3bc" style="stroke:#674c9a;"/>
    </defs>
    <g clip-path="url(#p450a6854ab)">
     <use style="fill:#674c9a;stroke:#674c9a;" x="-1" xlink:href="#m531e14e3bc" y="418.501892"/>
     <use style="fill:#674c9a;stroke:#674c9a;" x="121.013555" xlink:href="#m531e14e3bc" y="418.50156"/>
     <use style="fill:#674c9a;stroke:#674c9a;" x="173.908598" xlink:href="#m531e14e3bc" y="417.899195"/>
     <use style="fill:#674c9a;stroke:#674c9a;" x="213.922153" xlink:href="#m531e14e3bc" y="416.303986"/>
     <use style="fill:#674c9a;stroke:#674c9a;" x="253.935709" xlink:href="#m531e14e3bc" y="411.629346"/>
     <use style="fill:#674c9a;stroke:#674c9a;" x="306.830752" xlink:href="#m531e14e3bc" y="391.684551"/>
     <use style="fill:#674c9a;stroke:#674c9a;" x="346.844307" xlink:href="#m531e14e3bc" y="340.998035"/>
     <use style="fill:#674c9a;stroke:#674c9a;" x="386.857862" xlink:href="#m531e14e3bc" y="266.5291"/>
     <use style="fill:#674c9a;stroke:#674c9a;" x="439.752905" xlink:href="#m531e14e3bc" y="160.078555"/>
     <use style="fill:#674c9a;stroke:#674c9a;" x="479.76646" xlink:href="#m531e14e3bc" y="110.959675"/>
     <use style="fill:#674c9a;stroke:#674c9a;" x="519.780015" xlink:href="#m531e14e3bc" y="91.864225"/>
     <use style="fill:#674c9a;stroke:#674c9a;" x="572.675058" xlink:href="#m531e14e3bc" y="83.676664"/>
    </g>
   </g>
   <g id="line2d_56">
    <g clip-path="url(#p450a6854ab)">
     <use style="fill:#674c9a;stroke:#674c9a;" x="-1" xlink:href="#m531e14e3bc" y="418.47383"/>
     <use style="fill:#674c9a;stroke:#674c9a;" x="121.013555" xlink:href="#m531e14e3bc" y="418.473565"/>
     <use style="fill:#674c9a;stroke:#674c9a;" x="173.908598" xlink:href="#m531e14e3bc" y="417.740034"/>
     <use style="fill:#674c9a;stroke:#674c9a;" x="213.922153" xlink:href="#m531e14e3bc" y="416.071195"/>
     <use style="fill:#674c9a;stroke:#674c9a;" x="253.935709" xlink:href="#m531e14e3bc" y="411.363531"/>
     <use style="fill:#674c9a;stroke:#674c9a;" x="306.830752" xlink:href="#m531e14e3bc" y="389.165837"/>
     <use style="fill:#674c9a;stroke:#674c9a;" x="346.844307" xlink:href="#m531e14e3bc" y="337.401318"/>
     <use style="fill:#674c9a;stroke:#674c9a;" x="386.857862" xlink:href="#m531e14e3bc" y="258.643803"/>
     <use style="fill:#674c9a;stroke:#674c9a;" x="439.752905" xlink:href="#m531e14e3bc" y="155.592799"/>
     <use style="fill:#674c9a;stroke:#674c9a;" x="479.76646" xlink:href="#m531e14e3bc" y="111.855309"/>
     <use style="fill:#674c9a;stroke:#674c9a;" x="519.780015" xlink:href="#m531e14e3bc" y="89.424658"/>
     <use style="fill:#674c9a;stroke:#674c9a;" x="572.675058" xlink:href="#m531e14e3bc" y="89.666332"/>
    </g>
   </g>
   <g id="line2d_57">
    <g clip-path="url(#p450a6854ab)">
     <use style="fill:#674c9a;stroke:#674c9a;" x="-1" xlink:href="#m531e14e3bc" y="418.370081"/>
     <use style="fill:#674c9a;stroke:#674c9a;" x="121.013555" xlink:href="#m531e14e3bc" y="418.369673"/>
     <use style="fill:#674c9a;stroke:#674c9a;" x="173.908598" xlink:href="#m531e14e3bc" y="417.718831"/>
     <use style="fill:#674c9a;stroke:#674c9a;" x="213.922153" xlink:href="#m531e14e3bc" y="416.023972"/>
     <use style="fill:#674c9a;stroke:#674c9a;" x="253.935709" xlink:href="#m531e14e3bc" y="411.65085"/>
     <use style="fill:#674c9a;stroke:#674c9a;" x="306.830752" xlink:href="#m531e14e3bc" y="389.063034"/>
     <use style="fill:#674c9a;stroke:#674c9a;" x="346.844307" xlink:href="#m531e14e3bc" y="333.914873"/>
     <use style="fill:#674c9a;stroke:#674c9a;" x="386.857862" xlink:href="#m531e14e3bc" y="260.253578"/>
     <use style="fill:#674c9a;stroke:#674c9a;" x="439.752905" xlink:href="#m531e14e3bc" y="161.294619"/>
     <use style="fill:#674c9a;stroke:#674c9a;" x="479.76646" xlink:href="#m531e14e3bc" y="110.889543"/>
     <use style="fill:#674c9a;stroke:#674c9a;" x="519.780015" xlink:href="#m531e14e3bc" y="85.40211"/>
     <use style="fill:#674c9a;stroke:#674c9a;" x="572.675058" xlink:href="#m531e14e3bc" y="81.234873"/>
    </g>
   </g>
   <g id="line2d_58">
    <defs>
     <path d="M 0 3 
C 0.795609 3 1.55874 2.683901 2.12132 2.12132 
C 2.683901 1.55874 3 0.795609 3 0 
C 3 -0.795609 2.683901 -1.55874 2.12132 -2.12132 
C 1.55874 -2.683901 0.795609 -3 0 -3 
C -0.795609 -3 -1.55874 -2.683901 -2.12132 -2.12132 
C -2.683901 -1.55874 -3 -0.795609 -3 0 
C -3 0.795609 -2.683901 1.55874 -2.12132 2.12132 
C -1.55874 2.683901 -0.795609 3 0 3 
z
" id="mbbb7d2684c" style="stroke:#9a2667;"/>
    </defs>
    <g clip-path="url(#p450a6854ab)">
     <use style="fill:#9a2667;stroke:#9a2667;" x="-1" xlink:href="#mbbb7d2684c" y="420.779173"/>
     <use style="fill:#9a2667;stroke:#9a2667;" x="121.013555" xlink:href="#mbbb7d2684c" y="420.779043"/>
     <use style="fill:#9a2667;stroke:#9a2667;" x="173.908598" xlink:href="#mbbb7d2684c" y="420.410792"/>
     <use style="fill:#9a2667;stroke:#9a2667;" x="213.922153" xlink:href="#mbbb7d2684c" y="418.935213"/>
     <use style="fill:#9a2667;stroke:#9a2667;" x="253.935709" xlink:href="#mbbb7d2684c" y="408.95532"/>
     <use style="fill:#9a2667;stroke:#9a2667;" x="306.830752" xlink:href="#mbbb7d2684c" y="348.915336"/>
     <use style="fill:#9a2667;stroke:#9a2667;" x="346.844307" xlink:href="#mbbb7d2684c" y="257.853219"/>
     <use style="fill:#9a2667;stroke:#9a2667;" x="386.857862" xlink:href="#mbbb7d2684c" y="167.642366"/>
     <use style="fill:#9a2667;stroke:#9a2667;" x="439.752905" xlink:href="#mbbb7d2684c" y="94.329433"/>
     <use style="fill:#9a2667;stroke:#9a2667;" x="479.76646" xlink:href="#mbbb7d2684c" y="74.336478"/>
     <use style="fill:#9a2667;stroke:#9a2667;" x="519.780015" xlink:href="#mbbb7d2684c" y="75.041682"/>
     <use style="fill:#9a2667;stroke:#9a2667;" x="572.675058" xlink:href="#mbbb7d2684c" y="79.496305"/>
    </g>
   </g>
   <g id="line2d_59">
    <g clip-path="url(#p450a6854ab)">
     <use style="fill:#9a2667;stroke:#9a2667;" x="-1" xlink:href="#mbbb7d2684c" y="420.927846"/>
     <use style="fill:#9a2667;stroke:#9a2667;" x="121.013555" xlink:href="#mbbb7d2684c" y="420.927824"/>
     <use style="fill:#9a2667;stroke:#9a2667;" x="173.908598" xlink:href="#mbbb7d2684c" y="420.643713"/>
     <use style="fill:#9a2667;stroke:#9a2667;" x="213.922153" xlink:href="#mbbb7d2684c" y="419.019316"/>
     <use style="fill:#9a2667;stroke:#9a2667;" x="253.935709" xlink:href="#mbbb7d2684c" y="410.157721"/>
     <use style="fill:#9a2667;stroke:#9a2667;" x="306.830752" xlink:href="#mbbb7d2684c" y="345.830228"/>
     <use style="fill:#9a2667;stroke:#9a2667;" x="346.844307" xlink:href="#mbbb7d2684c" y="269.949129"/>
     <use style="fill:#9a2667;stroke:#9a2667;" x="386.857862" xlink:href="#mbbb7d2684c" y="165.995891"/>
     <use style="fill:#9a2667;stroke:#9a2667;" x="439.752905" xlink:href="#mbbb7d2684c" y="94.228777"/>
     <use style="fill:#9a2667;stroke:#9a2667;" x="479.76646" xlink:href="#mbbb7d2684c" y="72.109381"/>
     <use style="fill:#9a2667;stroke:#9a2667;" x="519.780015" xlink:href="#mbbb7d2684c" y="70.090943"/>
     <use style="fill:#9a2667;stroke:#9a2667;" x="572.675058" xlink:href="#mbbb7d2684c" y="75.400853"/>
    </g>
   </g>
   <g id="line2d_60">
    <g clip-path="url(#p450a6854ab)">
     <use style="fill:#9a2667;stroke:#9a2667;" x="-1" xlink:href="#mbbb7d2684c" y="420.818534"/>
     <use style="fill:#9a2667;stroke:#9a2667;" x="121.013555" xlink:href="#mbbb7d2684c" y="420.818456"/>
     <use style="fill:#9a2667;stroke:#9a2667;" x="173.908598" xlink:href="#mbbb7d2684c" y="420.502065"/>
     <use style="fill:#9a2667;stroke:#9a2667;" x="213.922153" xlink:href="#mbbb7d2684c" y="418.796909"/>
     <use style="fill:#9a2667;stroke:#9a2667;" x="253.935709" xlink:href="#mbbb7d2684c" y="409.773061"/>
     <use style="fill:#9a2667;stroke:#9a2667;" x="306.830752" xlink:href="#mbbb7d2684c" y="345.12457"/>
     <use style="fill:#9a2667;stroke:#9a2667;" x="346.844307" xlink:href="#mbbb7d2684c" y="269.682546"/>
     <use style="fill:#9a2667;stroke:#9a2667;" x="386.857862" xlink:href="#mbbb7d2684c" y="174.732437"/>
     <use style="fill:#9a2667;stroke:#9a2667;" x="439.752905" xlink:href="#mbbb7d2684c" y="93.188352"/>
     <use style="fill:#9a2667;stroke:#9a2667;" x="479.76646" xlink:href="#mbbb7d2684c" y="67.777506"/>
     <use style="fill:#9a2667;stroke:#9a2667;" x="519.780015" xlink:href="#mbbb7d2684c" y="63.699072"/>
     <use style="fill:#9a2667;stroke:#9a2667;" x="572.675058" xlink:href="#mbbb7d2684c" y="69.538118"/>
    </g>
   </g>
   <g id="line2d_61">
    <defs>
     <path d="M 0 3 
C 0.795609 3 1.55874 2.683901 2.12132 2.12132 
C 2.683901 1.55874 3 0.795609 3 0 
C 3 -0.795609 2.683901 -1.55874 2.12132 -2.12132 
C 1.55874 -2.683901 0.795609 -3 0 -3 
C -0.795609 -3 -1.55874 -2.683901 -2.12132 -2.12132 
C -2.683901 -1.55874 -3 -0.795609 -3 0 
C -3 0.795609 -2.683901 1.55874 -2.12132 2.12132 
C -1.55874 2.683901 -0.795609 3 0 3 
z
" id="m3113bc264d" style="stroke:#ce0035;"/>
    </defs>
    <g clip-path="url(#p450a6854ab)">
     <use style="fill:#ce0035;stroke:#ce0035;" x="-1" xlink:href="#m3113bc264d" y="420.949679"/>
     <use style="fill:#ce0035;stroke:#ce0035;" x="121.013555" xlink:href="#m3113bc264d" y="420.949736"/>
     <use style="fill:#ce0035;stroke:#ce0035;" x="173.908598" xlink:href="#m3113bc264d" y="420.755079"/>
     <use style="fill:#ce0035;stroke:#ce0035;" x="213.922153" xlink:href="#m3113bc264d" y="419.665103"/>
     <use style="fill:#ce0035;stroke:#ce0035;" x="253.935709" xlink:href="#m3113bc264d" y="411.991164"/>
     <use style="fill:#ce0035;stroke:#ce0035;" x="306.830752" xlink:href="#m3113bc264d" y="350.753607"/>
     <use style="fill:#ce0035;stroke:#ce0035;" x="346.844307" xlink:href="#m3113bc264d" y="274.383066"/>
     <use style="fill:#ce0035;stroke:#ce0035;" x="386.857862" xlink:href="#m3113bc264d" y="181.126406"/>
     <use style="fill:#ce0035;stroke:#ce0035;" x="439.752905" xlink:href="#m3113bc264d" y="117.716556"/>
     <use style="fill:#ce0035;stroke:#ce0035;" x="479.76646" xlink:href="#m3113bc264d" y="100.2339"/>
     <use style="fill:#ce0035;stroke:#ce0035;" x="519.780015" xlink:href="#m3113bc264d" y="94.400605"/>
     <use style="fill:#ce0035;stroke:#ce0035;" x="572.675058" xlink:href="#m3113bc264d" y="100.795137"/>
    </g>
   </g>
   <g id="line2d_62">
    <g clip-path="url(#p450a6854ab)">
     <use style="fill:#ce0035;stroke:#ce0035;" x="-1" xlink:href="#m3113bc264d" y="420.951288"/>
     <use style="fill:#ce0035;stroke:#ce0035;" x="121.013555" xlink:href="#m3113bc264d" y="420.951381"/>
     <use style="fill:#ce0035;stroke:#ce0035;" x="173.908598" xlink:href="#m3113bc264d" y="420.77601"/>
     <use style="fill:#ce0035;stroke:#ce0035;" x="213.922153" xlink:href="#m3113bc264d" y="419.64803"/>
     <use style="fill:#ce0035;stroke:#ce0035;" x="253.935709" xlink:href="#m3113bc264d" y="412.187663"/>
     <use style="fill:#ce0035;stroke:#ce0035;" x="306.830752" xlink:href="#m3113bc264d" y="357.329433"/>
     <use style="fill:#ce0035;stroke:#ce0035;" x="346.844307" xlink:href="#m3113bc264d" y="268.370915"/>
     <use style="fill:#ce0035;stroke:#ce0035;" x="386.857862" xlink:href="#m3113bc264d" y="183.723607"/>
     <use style="fill:#ce0035;stroke:#ce0035;" x="439.752905" xlink:href="#m3113bc264d" y="122.631986"/>
     <use style="fill:#ce0035;stroke:#ce0035;" x="479.76646" xlink:href="#m3113bc264d" y="96.59077"/>
     <use style="fill:#ce0035;stroke:#ce0035;" x="519.780015" xlink:href="#m3113bc264d" y="95.92849"/>
     <use style="fill:#ce0035;stroke:#ce0035;" x="572.675058" xlink:href="#m3113bc264d" y="99.362986"/>
    </g>
   </g>
   <g id="line2d_63">
    <g clip-path="url(#p450a6854ab)">
     <use style="fill:#ce0035;stroke:#ce0035;" x="-1" xlink:href="#m3113bc264d" y="420.98039"/>
     <use style="fill:#ce0035;stroke:#ce0035;" x="121.013555" xlink:href="#m3113bc264d" y="420.980361"/>
     <use style="fill:#ce0035;stroke:#ce0035;" x="173.908598" xlink:href="#m3113bc264d" y="420.827135"/>
     <use style="fill:#ce0035;stroke:#ce0035;" x="213.922153" xlink:href="#m3113bc264d" y="419.900019"/>
     <use style="fill:#ce0035;stroke:#ce0035;" x="253.935709" xlink:href="#m3113bc264d" y="411.974275"/>
     <use style="fill:#ce0035;stroke:#ce0035;" x="306.830752" xlink:href="#m3113bc264d" y="354.94624"/>
     <use style="fill:#ce0035;stroke:#ce0035;" x="346.844307" xlink:href="#m3113bc264d" y="269.882967"/>
     <use style="fill:#ce0035;stroke:#ce0035;" x="386.857862" xlink:href="#m3113bc264d" y="183.630671"/>
     <use style="fill:#ce0035;stroke:#ce0035;" x="439.752905" xlink:href="#m3113bc264d" y="114.801611"/>
     <use style="fill:#ce0035;stroke:#ce0035;" x="479.76646" xlink:href="#m3113bc264d" y="97.299185"/>
     <use style="fill:#ce0035;stroke:#ce0035;" x="519.780015" xlink:href="#m3113bc264d" y="97.492471"/>
     <use style="fill:#ce0035;stroke:#ce0035;" x="572.675058" xlink:href="#m3113bc264d" y="96.921833"/>
    </g>
   </g>
   <g id="patch_3">
    <path d="M 81 421.6464 
L 81 56.8512 
" style="fill:none;stroke:#000000;stroke-linecap:square;stroke-linejoin:miter;stroke-width:0.8;"/>
   </g>
   <g id="patch_4">
    <path d="M 81 421.6464 
L 583.2 421.6464 
" style="fill:none;stroke:#000000;stroke-linecap:square;stroke-linejoin:miter;stroke-width:0.8;"/>
   </g>
   <g id="legend_1">
    <g id="patch_5">
     <path d="M 91.5 176.886356 
L 178.729688 176.886356 
Q 181.729688 176.886356 181.729688 173.886356 
L 181.729688 67.3512 
Q 181.729688 64.3512 178.729688 64.3512 
L 91.5 64.3512 
Q 88.5 64.3512 88.5 67.3512 
L 88.5 173.886356 
Q 88.5 176.886356 91.5 176.886356 
z
" style="fill:#ffffff;opacity:0.8;stroke:#cccccc;stroke-linejoin:miter;"/>
    </g>
    <g id="line2d_64">
     <path d="M 94.5 76.205887 
L 124.5 76.205887 
" style="fill:none;stroke:#0099ff;stroke-linecap:square;stroke-width:1.5;"/>
    </g>
    <g id="line2d_65"/>
    <g id="text_15">
     <!-- WT -->
     <defs>
      <path d="M 75.296875 0 
L 64.9375 0 
L 47.859375 60.84375 
L 31.25 0 
L 20.90625 0 
L 1.953125 74.03125 
L 12.5 74.03125 
L 26.46875 13.875 
L 42.875 74.03125 
L 53.03125 74.03125 
L 69.921875 13.875 
L 83.5 74.03125 
L 94.046875 74.03125 
z
" id="Gargi-87"/>
     </defs>
     <g transform="translate(136.5 81.455887)scale(0.15 -0.15)">
      <use xlink:href="#Gargi-87"/>
      <use x="95.996094" xlink:href="#Gargi-84"/>
     </g>
    </g>
    <g id="line2d_66">
     <path d="M 94.5 97.812919 
L 124.5 97.812919 
" style="fill:none;stroke:#3372cc;stroke-linecap:square;stroke-width:1.5;"/>
    </g>
    <g id="line2d_67"/>
    <g id="text_16">
     <!-- THP1 -->
     <defs>
      <path d="M 52.4375 33.6875 
L 14.453125 33.6875 
L 14.453125 0 
L 4.890625 0 
L 4.890625 74.03125 
L 14.359375 74.03125 
L 14.359375 42.09375 
L 52.4375 42.09375 
L 52.4375 74.03125 
L 61.921875 74.03125 
L 61.921875 0 
L 52.4375 0 
z
" id="Gargi-72"/>
      <path d="M 14.265625 39.75 
L 33.984375 39.75 
Q 44.34375 39.75 47.359375 47.265625 
Q 48.4375 49.703125 48.4375 52.734375 
Q 48.4375 61.8125 40.4375 64.65625 
Q 37.59375 65.71875 33.984375 65.71875 
L 14.265625 65.71875 
z
M 14.265625 31.34375 
L 14.265625 0 
L 4.890625 0 
L 4.890625 74.03125 
L 35.453125 74.03125 
Q 51.765625 74.03125 56.546875 62.015625 
Q 58.296875 57.90625 58.296875 52.34375 
Q 58.296875 42.484375 51.859375 36.625 
Q 46 31.34375 37.59375 31.34375 
z
" id="Gargi-80"/>
     </defs>
     <g transform="translate(136.5 103.062919)scale(0.15 -0.15)">
      <use xlink:href="#Gargi-84"/>
      <use x="67.871094" xlink:href="#Gargi-72"/>
      <use x="134.667969" xlink:href="#Gargi-80"/>
      <use x="197.851562" xlink:href="#Gargi-49"/>
     </g>
    </g>
    <g id="line2d_68">
     <path d="M 94.5 119.41995 
L 124.5 119.41995 
" style="fill:none;stroke:#674c9a;stroke-linecap:square;stroke-width:1.5;"/>
    </g>
    <g id="line2d_69"/>
    <g id="text_17">
     <!-- THP2 -->
     <g transform="translate(136.5 124.66995)scale(0.15 -0.15)">
      <use xlink:href="#Gargi-84"/>
      <use x="67.871094" xlink:href="#Gargi-72"/>
      <use x="134.667969" xlink:href="#Gargi-80"/>
      <use x="197.851562" xlink:href="#Gargi-50"/>
     </g>
    </g>
    <g id="line2d_70">
     <path d="M 94.5 141.026981 
L 124.5 141.026981 
" style="fill:none;stroke:#9a2667;stroke-linecap:square;stroke-width:1.5;"/>
    </g>
    <g id="line2d_71"/>
    <g id="text_18">
     <!-- THP3 -->
     <g transform="translate(136.5 146.276981)scale(0.15 -0.15)">
      <use xlink:href="#Gargi-84"/>
      <use x="67.871094" xlink:href="#Gargi-72"/>
      <use x="134.667969" xlink:href="#Gargi-80"/>
      <use x="197.851562" xlink:href="#Gargi-51"/>
     </g>
    </g>
    <g id="line2d_72">
     <path d="M 94.5 162.634012 
L 124.5 162.634012 
" style="fill:none;stroke:#ce0035;stroke-linecap:square;stroke-width:1.5;"/>
    </g>
    <g id="line2d_73"/>
    <g id="text_19">
     <!-- THP4 -->
     <g transform="translate(136.5 167.884012)scale(0.15 -0.15)">
      <use xlink:href="#Gargi-84"/>
      <use x="67.871094" xlink:href="#Gargi-72"/>
      <use x="134.667969" xlink:href="#Gargi-80"/>
      <use x="197.851562" xlink:href="#Gargi-52"/>
     </g>
    </g>
   </g>
  </g>
 </g>
 <defs>
  <clipPath id="p450a6854ab">
   <rect height="364.7952" width="502.2" x="81" y="56.8512"/>
  </clipPath>
 </defs>
</svg>
