<?xml version="1.0" encoding="utf-8" standalone="no"?>
<!DOCTYPE svg PUBLIC "-//W3C//DTD SVG 1.1//EN"
  "http://www.w3.org/Graphics/SVG/1.1/DTD/svg11.dtd">
<!-- Created with matplotlib (https://matplotlib.org/) -->
<svg height="473.76pt" version="1.1" viewBox="0 0 648 473.76" width="648pt" xmlns="http://www.w3.org/2000/svg" xmlns:xlink="http://www.w3.org/1999/xlink">
 <defs>
  <style type="text/css">
*{stroke-linecap:butt;stroke-linejoin:round;}
  </style>
 </defs>
 <g id="figure_1">
  <g id="patch_1">
   <path d="M 0 473.76 
L 648 473.76 
L 648 0 
L 0 0 
z
" style="fill:#ffffff;"/>
  </g>
  <g id="axes_1">
   <g id="patch_2">
    <path d="M 81 421.6464 
L 583.2 421.6464 
L 583.2 56.8512 
L 81 56.8512 
z
" style="fill:#ffffff;"/>
   </g>
   <g id="matplotlib.axis_1">
    <g id="xtick_1">
     <g id="line2d_1">
      <defs>
       <path d="M 0 0 
L 0 2 
" id="m9db7fc62a6" style="stroke:#000000;"/>
      </defs>
      <g>
       <use style="stroke:#000000;" x="81" xlink:href="#m9db7fc62a6" y="421.6464"/>
      </g>
     </g>
     <g id="text_1">
      <!-- 0 -->
      <defs>
       <path d="M 41.890625 37.5 
Q 41.890625 66.5 27.4375 66.5 
Q 12.984375 66.5 12.984375 37.203125 
Q 12.984375 7.515625 27.25 7.515625 
Q 39.265625 7.515625 41.3125 27.046875 
Q 41.890625 31.734375 41.890625 37.5 
z
M 27.4375 74.421875 
Q 37.890625 74.421875 44.046875 66.5 
Q 50.984375 56.9375 50.984375 36.625 
Q 50.984375 9.1875 37.015625 2.15625 
Q 32.71875 0.09375 27.4375 0.09375 
Q 9.578125 0.09375 5.171875 22.078125 
Q 3.90625 28.71875 3.90625 37.3125 
Q 3.90625 57.125 10.84375 66.5 
Q 16.40625 74.421875 25.984375 74.421875 
z
" id="Gargi-48"/>
      </defs>
      <g transform="translate(76.059844 440.472025)scale(0.18 -0.18)">
       <use xlink:href="#Gargi-48"/>
      </g>
     </g>
    </g>
    <g id="xtick_2">
     <g id="line2d_2">
      <g>
       <use style="stroke:#000000;" x="206.55" xlink:href="#m9db7fc62a6" y="421.6464"/>
      </g>
     </g>
     <g id="text_2">
      <!-- 1 -->
      <defs>
       <path d="M 22.75 51.265625 
L 6.84375 51.265625 
L 6.84375 57.71875 
Q 17.1875 58.984375 20.21875 61.328125 
Q 23.34375 63.578125 25.390625 70.796875 
L 25.875 71.96875 
L 31.734375 71.96875 
L 31.734375 0 
L 22.75 0 
z
" id="Gargi-49"/>
      </defs>
      <g transform="translate(203.25375 440.472025)scale(0.18 -0.18)">
       <use xlink:href="#Gargi-49"/>
      </g>
     </g>
    </g>
    <g id="xtick_3">
     <g id="line2d_3">
      <g>
       <use style="stroke:#000000;" x="332.1" xlink:href="#m9db7fc62a6" y="421.6464"/>
      </g>
     </g>
     <g id="text_3">
      <!-- 2 -->
      <defs>
       <path d="M 54.78125 8.796875 
L 54.78125 0 
L 6.84375 0 
Q 6.84375 12.984375 12.703125 19.828125 
Q 17.96875 25.984375 27.046875 31.15625 
L 36.421875 36.421875 
Q 46.1875 42.09375 46.1875 50.6875 
Q 46.1875 58.015625 40.046875 61.921875 
Q 36.53125 64.15625 31.9375 64.15625 
Q 24.3125 64.15625 20.3125 58.40625 
L 19.53125 57.234375 
Q 17.484375 53.90625 17.484375 47.078125 
L 8.5 47.078125 
Q 8.5 57.234375 12.40625 62.703125 
Q 19.046875 71.96875 32.234375 71.96875 
Q 42.28125 71.96875 48.640625 66.3125 
Q 55.28125 60.25 55.28125 50.875 
Q 55.28125 37.5 40.046875 29.109375 
L 29.890625 23.640625 
Q 20.703125 18.265625 18.265625 13.28125 
Q 17.28125 11.234375 16.890625 8.796875 
z
" id="Gargi-50"/>
      </defs>
      <g transform="translate(326.510156 440.472025)scale(0.18 -0.18)">
       <use xlink:href="#Gargi-50"/>
      </g>
     </g>
    </g>
    <g id="xtick_4">
     <g id="line2d_4">
      <g>
       <use style="stroke:#000000;" x="457.65" xlink:href="#m9db7fc62a6" y="421.6464"/>
      </g>
     </g>
     <g id="text_4">
      <!-- 3 -->
      <defs>
       <path d="M 26.078125 35.25 
L 26.078125 42.78125 
Q 34.578125 42.78125 37.984375 44.34375 
Q 43.75 46.96875 43.75 54 
Q 43.75 62.703125 36.625 65.4375 
Q 34.1875 66.3125 31.0625 66.3125 
Q 23.046875 66.3125 19.4375 60.84375 
Q 19.140625 60.359375 18.953125 59.96875 
Q 17.28125 57.03125 17.28125 50.875 
L 8.40625 50.875 
Q 8.40625 74.03125 27.640625 74.03125 
Q 28.71875 74.03125 30.953125 74.125 
Q 31.734375 74.125 32.421875 74.125 
Q 44.734375 74.125 50.390625 64.65625 
Q 52.828125 60.453125 52.828125 54.390625 
Q 52.828125 43.359375 42.78125 39.453125 
Q 52.25 36.140625 54.296875 28.421875 
Q 54.984375 25.78125 54.984375 22.265625 
Q 54.984375 9.859375 45.40625 3.71875 
Q 39.265625 -0.203125 30.671875 -0.203125 
Q 15.625 -0.203125 10.0625 10.25 
Q 6.84375 15.140625 6.84375 23.046875 
L 15.828125 23.046875 
Q 15.828125 9.671875 27.25 8.015625 
Q 29.296875 7.71875 30.953125 7.71875 
Q 41.5 7.71875 44.734375 15.71875 
Q 45.90625 18.5625 45.90625 22.171875 
Q 45.90625 35.25 30.953125 35.25 
L 27.15625 35.25 
z
" id="Gargi-51"/>
      </defs>
      <g transform="translate(452.262656 440.472025)scale(0.18 -0.18)">
       <use xlink:href="#Gargi-51"/>
      </g>
     </g>
    </g>
    <g id="xtick_5">
     <g id="line2d_5">
      <g>
       <use style="stroke:#000000;" x="583.2" xlink:href="#m9db7fc62a6" y="421.6464"/>
      </g>
     </g>
     <g id="text_5">
      <!-- 4 -->
      <defs>
       <path d="M 37.203125 25.296875 
L 37.203125 56.734375 
L 14.65625 25.296875 
z
M 37.203125 17.28125 
L 6.84375 17.28125 
L 6.84375 26.765625 
L 39.546875 71.96875 
L 46.1875 71.96875 
L 46.1875 25.296875 
L 56.84375 25.296875 
L 56.84375 17.28125 
L 46.1875 17.28125 
L 46.1875 0 
L 37.203125 0 
z
" id="Gargi-52"/>
      </defs>
      <g transform="translate(577.469531 440.472025)scale(0.18 -0.18)">
       <use xlink:href="#Gargi-52"/>
      </g>
     </g>
    </g>
    <g id="text_6">
     <!-- Round of Evolution -->
     <defs>
      <path d="M 14.265625 40.234375 
L 37.109375 40.234375 
Q 49.421875 40.234375 51.265625 48.921875 
Q 51.65625 50.6875 51.65625 52.9375 
Q 51.65625 59.578125 47.859375 62.890625 
Q 44.53125 65.71875 37.109375 65.71875 
L 14.265625 65.71875 
z
M 14.265625 31.9375 
L 14.265625 0 
L 4.890625 0 
L 4.890625 74.03125 
L 38.96875 74.03125 
Q 56.25 74.03125 60.453125 61.8125 
Q 61.53125 58.5 61.53125 54.203125 
Q 61.53125 44.234375 54.203125 39.0625 
Q 52.25 37.796875 49.8125 36.53125 
Q 56.15625 33.796875 58.109375 29.78125 
Q 59.859375 25.984375 59.859375 17.28125 
Q 59.859375 7.515625 61.8125 4.78125 
Q 62.796875 3.421875 64.359375 2.34375 
L 64.359375 0 
L 52.9375 0 
Q 50.875 4.890625 50.875 12.109375 
L 50.875 18.65625 
Q 50.875 29.78125 42.78125 31.453125 
Q 40.921875 31.9375 38.671875 31.9375 
z
" id="Gargi-82"/>
      <path d="M 27.046875 49.21875 
Q 17.578125 49.21875 13.765625 39.9375 
Q 11.8125 35.0625 11.8125 28.515625 
Q 11.8125 14.65625 19.734375 9.765625 
Q 22.859375 7.8125 27.046875 7.8125 
Q 36.234375 7.8125 40.140625 16.796875 
Q 42.28125 21.578125 42.28125 28.21875 
Q 42.28125 42.96875 33.984375 47.65625 
Q 30.859375 49.21875 27.046875 49.21875 
z
M 26.953125 57.125 
Q 42.28125 57.125 48.140625 43.953125 
Q 51.078125 37.3125 51.078125 28.125 
Q 51.078125 11.140625 40.71875 4 
Q 35.0625 0 27.046875 0 
Q 12.40625 0 6.34375 12.109375 
Q 2.9375 18.953125 2.9375 28.515625 
Q 2.9375 46.1875 13.671875 53.328125 
Q 19.234375 57.125 26.953125 57.125 
z
" id="Gargi-111"/>
      <path d="M 47.171875 2.25 
L 39.546875 2.25 
L 39.546875 9.671875 
Q 33.890625 1.65625 26.375 0.296875 
Q 24.3125 -0.09375 21.78125 -0.09375 
Q 10.9375 -0.09375 6.734375 7.03125 
Q 4.890625 10.25 4.890625 14.453125 
L 4.890625 55.46875 
L 13.28125 55.46875 
L 13.28125 17.78125 
Q 13.28125 10.640625 19.234375 8.203125 
Q 21.484375 7.328125 24.21875 7.328125 
Q 32.90625 7.328125 36.71875 15.234375 
Q 38.765625 19.53125 38.765625 25.296875 
L 38.765625 55.46875 
L 47.171875 55.46875 
z
" id="Gargi-117"/>
      <path d="M 4.890625 53.21875 
L 12.703125 53.21875 
L 12.703125 44.234375 
Q 18.171875 52.9375 25.875 54.296875 
Q 27.9375 54.78125 30.375 54.78125 
Q 41.015625 54.78125 45.3125 47.65625 
Q 47.171875 44.34375 47.171875 40.234375 
L 47.171875 0 
L 38.765625 0 
L 38.765625 36.921875 
Q 38.765625 43.953125 32.8125 46.390625 
Q 30.5625 47.359375 27.828125 47.359375 
Q 19.234375 47.359375 15.53125 39.546875 
Q 13.375 35.25 13.375 29.390625 
L 13.375 0 
L 4.890625 0 
z
" id="Gargi-110"/>
      <path d="M 31.15625 49.03125 
Q 22.46875 49.03125 18.359375 40.71875 
Q 15.71875 35.640625 15.71875 28.421875 
Q 15.71875 16.015625 22.75 10.546875 
Q 26.46875 7.8125 31.25 7.8125 
Q 39.65625 7.8125 43.65625 16.109375 
Q 46 21.1875 46 28.21875 
Q 46 41.5 38.765625 46.78125 
Q 35.359375 49.03125 31.15625 49.03125 
z
M 54.5 76.265625 
L 54.5 2.25 
L 46.96875 2.25 
L 46.96875 9.28125 
Q 41.109375 0 32.328125 0 
Q 31.25 0 29.984375 -0.09375 
Q 29.109375 -0.203125 28.125 -0.203125 
Q 16.796875 -0.203125 10.75 11.328125 
Q 6.84375 18.453125 6.84375 29 
Q 6.84375 44.625 15.921875 52.25 
Q 21.6875 57.03125 29.6875 57.03125 
Q 40.625 57.03125 46 48.734375 
L 46 76.265625 
z
" id="Gargi-100"/>
      <path id="Gargi-32"/>
      <path d="M 29.203125 53.21875 
L 29.203125 46.296875 
L 20.40625 46.296875 
L 20.40625 0 
L 12.015625 0 
L 12.015625 46.296875 
L 4.890625 46.296875 
L 4.890625 53.21875 
L 12.015625 53.21875 
L 12.015625 62.3125 
Q 12.015625 71.1875 19.4375 73.640625 
Q 21.6875 74.3125 24.421875 74.3125 
Q 26.765625 74.3125 29.203125 73.828125 
L 29.203125 66.796875 
Q 27.34375 66.890625 26.265625 66.890625 
Q 20.40625 66.890625 20.40625 61.53125 
L 20.40625 53.21875 
z
" id="Gargi-102"/>
      <path d="M 14.265625 33.6875 
L 14.265625 8.296875 
L 58.015625 8.296875 
L 58.015625 0 
L 4.890625 0 
L 4.890625 74.03125 
L 56.15625 74.03125 
L 56.15625 65.71875 
L 14.265625 65.71875 
L 14.265625 42.09375 
L 54.59375 42.09375 
L 54.59375 33.6875 
z
" id="Gargi-69"/>
      <path d="M 29.890625 0 
L 20.703125 0 
L 1.953125 53.21875 
L 11.53125 53.21875 
L 25.78125 10.0625 
L 40.828125 53.21875 
L 50.296875 53.21875 
z
" id="Gargi-118"/>
      <path d="M 15.328125 74.03125 
L 15.328125 0 
L 6.84375 0 
L 6.84375 74.03125 
z
" id="Gargi-108"/>
      <path d="M 30.171875 55.46875 
L 30.171875 48.53125 
L 21.484375 48.53125 
L 21.484375 12.109375 
Q 21.484375 8.203125 23.734375 7.625 
Q 24.609375 7.328125 26.171875 7.328125 
Q 28.71875 7.328125 30.171875 7.71875 
L 30.171875 0.59375 
Q 26.265625 -0.09375 23.25 -0.09375 
Q 14.265625 -0.09375 13.09375 6.734375 
Q 12.984375 7.421875 12.984375 8.296875 
L 12.984375 48.53125 
L 5.859375 48.53125 
L 5.859375 55.46875 
L 12.984375 55.46875 
L 12.984375 70.125 
L 21.484375 70.125 
L 21.484375 55.46875 
z
" id="Gargi-116"/>
      <path d="M 15.328125 74.03125 
L 15.328125 63.375 
L 6.84375 63.375 
L 6.84375 74.03125 
z
M 15.328125 53.21875 
L 15.328125 0 
L 6.9375 0 
L 6.9375 53.21875 
z
" id="Gargi-105"/>
     </defs>
     <g transform="translate(249.171875 462.881087)scale(0.2 -0.2)">
      <use xlink:href="#Gargi-82"/>
      <use x="69.238281" xlink:href="#Gargi-111"/>
      <use x="123.242188" xlink:href="#Gargi-117"/>
      <use x="175.292969" xlink:href="#Gargi-110"/>
      <use x="227.34375" xlink:href="#Gargi-100"/>
      <use x="284.765625" xlink:href="#Gargi-32"/>
      <use x="309.179688" xlink:href="#Gargi-111"/>
      <use x="363.183594" xlink:href="#Gargi-102"/>
      <use x="397.265625" xlink:href="#Gargi-32"/>
      <use x="421.679688" xlink:href="#Gargi-69"/>
      <use x="484.570312" xlink:href="#Gargi-118"/>
      <use x="536.816406" xlink:href="#Gargi-111"/>
      <use x="590.820312" xlink:href="#Gargi-108"/>
      <use x="612.988281" xlink:href="#Gargi-117"/>
      <use x="665.039062" xlink:href="#Gargi-116"/>
      <use x="701.074219" xlink:href="#Gargi-105"/>
      <use x="723.242188" xlink:href="#Gargi-111"/>
      <use x="777.246094" xlink:href="#Gargi-110"/>
     </g>
    </g>
   </g>
   <g id="matplotlib.axis_2">
    <g id="ytick_1">
     <g id="line2d_6">
      <defs>
       <path d="M 0 0 
L -2 0 
" id="mf94168613e" style="stroke:#000000;"/>
      </defs>
      <g>
       <use style="stroke:#000000;" x="81" xlink:href="#mf94168613e" y="380.958917"/>
      </g>
     </g>
     <g id="text_7">
      <!-- $\mathdefault{10^{0}}$ -->
      <g transform="translate(51.38 387.621729)scale(0.18 -0.18)">
       <use transform="translate(0 0.651563)" xlink:href="#Gargi-49"/>
       <use transform="translate(36.621094 0.651563)" xlink:href="#Gargi-48"/>
       <use transform="translate(92.435234 37.904688)scale(0.7)" xlink:href="#Gargi-48"/>
      </g>
     </g>
    </g>
    <g id="ytick_2">
     <g id="line2d_7">
      <g>
       <use style="stroke:#000000;" x="81" xlink:href="#mf94168613e" y="245.798022"/>
      </g>
     </g>
     <g id="text_8">
      <!-- $\mathdefault{10^{1}}$ -->
      <g transform="translate(53.72 252.460835)scale(0.18 -0.18)">
       <use transform="translate(0 0.36875)" xlink:href="#Gargi-49"/>
       <use transform="translate(36.621094 0.36875)" xlink:href="#Gargi-48"/>
       <use transform="translate(92.435234 37.621875)scale(0.7)" xlink:href="#Gargi-49"/>
      </g>
     </g>
    </g>
    <g id="ytick_3">
     <g id="line2d_8">
      <g>
       <use style="stroke:#000000;" x="81" xlink:href="#mf94168613e" y="110.637128"/>
      </g>
     </g>
     <g id="text_9">
      <!-- $\mathdefault{10^{2}}$ -->
      <g transform="translate(50.48 117.29994)scale(0.18 -0.18)">
       <use transform="translate(0 0.36875)" xlink:href="#Gargi-49"/>
       <use transform="translate(36.621094 0.36875)" xlink:href="#Gargi-48"/>
       <use transform="translate(92.435234 37.621875)scale(0.7)" xlink:href="#Gargi-50"/>
      </g>
     </g>
    </g>
    <g id="ytick_4">
     <g id="line2d_9">
      <defs>
       <path d="M 0 0 
L -2 0 
" id="m41bbd23bc2" style="stroke:#000000;stroke-width:0.6;"/>
      </defs>
      <g>
       <use style="stroke:#000000;stroke-width:0.6;" x="81" xlink:href="#m41bbd23bc2" y="421.6464"/>
      </g>
     </g>
    </g>
    <g id="ytick_5">
     <g id="line2d_10">
      <g>
       <use style="stroke:#000000;stroke-width:0.6;" x="81" xlink:href="#m41bbd23bc2" y="410.944192"/>
      </g>
     </g>
    </g>
    <g id="ytick_6">
     <g id="line2d_11">
      <g>
       <use style="stroke:#000000;stroke-width:0.6;" x="81" xlink:href="#m41bbd23bc2" y="401.895604"/>
      </g>
     </g>
    </g>
    <g id="ytick_7">
     <g id="line2d_12">
      <g>
       <use style="stroke:#000000;stroke-width:0.6;" x="81" xlink:href="#m41bbd23bc2" y="394.057361"/>
      </g>
     </g>
    </g>
    <g id="ytick_8">
     <g id="line2d_13">
      <g>
       <use style="stroke:#000000;stroke-width:0.6;" x="81" xlink:href="#m41bbd23bc2" y="387.14354"/>
      </g>
     </g>
    </g>
    <g id="ytick_9">
     <g id="line2d_14">
      <g>
       <use style="stroke:#000000;stroke-width:0.6;" x="81" xlink:href="#m41bbd23bc2" y="340.271433"/>
      </g>
     </g>
    </g>
    <g id="ytick_10">
     <g id="line2d_15">
      <g>
       <use style="stroke:#000000;stroke-width:0.6;" x="81" xlink:href="#m41bbd23bc2" y="316.470781"/>
      </g>
     </g>
    </g>
    <g id="ytick_11">
     <g id="line2d_16">
      <g>
       <use style="stroke:#000000;stroke-width:0.6;" x="81" xlink:href="#m41bbd23bc2" y="299.58395"/>
      </g>
     </g>
    </g>
    <g id="ytick_12">
     <g id="line2d_17">
      <g>
       <use style="stroke:#000000;stroke-width:0.6;" x="81" xlink:href="#m41bbd23bc2" y="286.485506"/>
      </g>
     </g>
    </g>
    <g id="ytick_13">
     <g id="line2d_18">
      <g>
       <use style="stroke:#000000;stroke-width:0.6;" x="81" xlink:href="#m41bbd23bc2" y="275.783297"/>
      </g>
     </g>
    </g>
    <g id="ytick_14">
     <g id="line2d_19">
      <g>
       <use style="stroke:#000000;stroke-width:0.6;" x="81" xlink:href="#m41bbd23bc2" y="266.734709"/>
      </g>
     </g>
    </g>
    <g id="ytick_15">
     <g id="line2d_20">
      <g>
       <use style="stroke:#000000;stroke-width:0.6;" x="81" xlink:href="#m41bbd23bc2" y="258.896466"/>
      </g>
     </g>
    </g>
    <g id="ytick_16">
     <g id="line2d_21">
      <g>
       <use style="stroke:#000000;stroke-width:0.6;" x="81" xlink:href="#m41bbd23bc2" y="251.982645"/>
      </g>
     </g>
    </g>
    <g id="ytick_17">
     <g id="line2d_22">
      <g>
       <use style="stroke:#000000;stroke-width:0.6;" x="81" xlink:href="#m41bbd23bc2" y="205.110539"/>
      </g>
     </g>
    </g>
    <g id="ytick_18">
     <g id="line2d_23">
      <g>
       <use style="stroke:#000000;stroke-width:0.6;" x="81" xlink:href="#m41bbd23bc2" y="181.309886"/>
      </g>
     </g>
    </g>
    <g id="ytick_19">
     <g id="line2d_24">
      <g>
       <use style="stroke:#000000;stroke-width:0.6;" x="81" xlink:href="#m41bbd23bc2" y="164.423055"/>
      </g>
     </g>
    </g>
    <g id="ytick_20">
     <g id="line2d_25">
      <g>
       <use style="stroke:#000000;stroke-width:0.6;" x="81" xlink:href="#m41bbd23bc2" y="151.324611"/>
      </g>
     </g>
    </g>
    <g id="ytick_21">
     <g id="line2d_26">
      <g>
       <use style="stroke:#000000;stroke-width:0.6;" x="81" xlink:href="#m41bbd23bc2" y="140.622403"/>
      </g>
     </g>
    </g>
    <g id="ytick_22">
     <g id="line2d_27">
      <g>
       <use style="stroke:#000000;stroke-width:0.6;" x="81" xlink:href="#m41bbd23bc2" y="131.573815"/>
      </g>
     </g>
    </g>
    <g id="ytick_23">
     <g id="line2d_28">
      <g>
       <use style="stroke:#000000;stroke-width:0.6;" x="81" xlink:href="#m41bbd23bc2" y="123.735572"/>
      </g>
     </g>
    </g>
    <g id="ytick_24">
     <g id="line2d_29">
      <g>
       <use style="stroke:#000000;stroke-width:0.6;" x="81" xlink:href="#m41bbd23bc2" y="116.821751"/>
      </g>
     </g>
    </g>
    <g id="ytick_25">
     <g id="line2d_30">
      <g>
       <use style="stroke:#000000;stroke-width:0.6;" x="81" xlink:href="#m41bbd23bc2" y="69.949644"/>
      </g>
     </g>
    </g>
    <g id="text_10">
     <!-- Rotundine (uM) -->
     <defs>
      <path d="M 11.921875 32.90625 
L 41.796875 32.90625 
Q 41.890625 33.109375 41.890625 33.5 
Q 41.890625 41.703125 35.9375 46.1875 
Q 32.03125 49.125 27.15625 49.125 
Q 18.5625 49.125 14.359375 41.5 
Q 12.3125 37.890625 11.921875 32.90625 
z
M 50.984375 25.984375 
L 11.71875 25.984375 
Q 11.8125 18.65625 14.546875 14.65625 
Q 18.953125 7.71875 27.34375 7.71875 
Q 37.703125 7.71875 41.3125 18.359375 
L 49.8125 18.359375 
Q 47.5625 6.15625 37.015625 1.765625 
Q 32.515625 -0.09375 27.046875 -0.09375 
Q 13.28125 -0.09375 6.84375 11.03125 
Q 2.9375 17.96875 2.9375 28.125 
Q 2.9375 44.234375 12.40625 52.046875 
Q 18.5625 57.03125 27.25 57.03125 
Q 38.96875 57.03125 45.515625 48.640625 
Q 47.5625 46.09375 48.828125 42.96875 
Q 50.984375 37.40625 50.984375 25.984375 
z
" id="Gargi-101"/>
      <path d="M 23.921875 74.03125 
L 29.59375 74.03125 
Q 15.71875 55.375 15.71875 30.46875 
Q 15.71875 28.328125 15.625 26.265625 
Q 15.53125 24.90625 15.53125 23.53125 
Q 15.53125 4.59375 28.03125 -18.953125 
Q 28.8125 -20.515625 29.59375 -21.484375 
L 23.921875 -21.484375 
Q 12.5 -6.546875 8.6875 12.984375 
Q 7.421875 19.921875 7.421875 26.265625 
Q 7.421875 44.53125 16.890625 62.703125 
Q 20.015625 68.84375 23.921875 74.03125 
z
" id="Gargi-40"/>
      <path d="M 44.828125 0 
L 34.859375 0 
L 13.875 62.015625 
L 13.875 0 
L 4.890625 0 
L 4.890625 74.03125 
L 17.96875 74.03125 
L 39.9375 9.578125 
L 61.421875 74.03125 
L 74.515625 74.03125 
L 74.515625 0 
L 65.625 0 
L 65.625 62.015625 
z
" id="Gargi-77"/>
      <path d="M 9.46875 -21.484375 
L 3.90625 -21.484375 
Q 17.78125 -1.078125 17.78125 22.078125 
Q 17.78125 23.140625 17.78125 24.125 
Q 17.78125 25.203125 17.78125 26.171875 
Q 17.78125 48.046875 5.375 71.484375 
Q 4.5 73.140625 3.90625 74.03125 
L 9.46875 74.03125 
Q 20.90625 58.984375 24.703125 39.546875 
Q 25.984375 32.625 25.984375 26.171875 
Q 25.984375 8.015625 16.609375 -10.15625 
Q 13.375 -16.3125 9.46875 -21.484375 
z
" id="Gargi-41"/>
     </defs>
     <g transform="translate(42.183125 310.508175)rotate(-90)scale(0.2 -0.2)">
      <use xlink:href="#Gargi-82"/>
      <use x="69.238281" xlink:href="#Gargi-111"/>
      <use x="123.242188" xlink:href="#Gargi-116"/>
      <use x="159.277344" xlink:href="#Gargi-117"/>
      <use x="211.328125" xlink:href="#Gargi-110"/>
      <use x="263.378906" xlink:href="#Gargi-100"/>
      <use x="320.800781" xlink:href="#Gargi-105"/>
      <use x="342.96875" xlink:href="#Gargi-110"/>
      <use x="395.019531" xlink:href="#Gargi-101"/>
      <use x="450.878906" xlink:href="#Gargi-32"/>
      <use x="475.292969" xlink:href="#Gargi-40"/>
      <use x="528.222656" xlink:href="#Gargi-117"/>
      <use x="580.273438" xlink:href="#Gargi-77"/>
      <use x="659.667969" xlink:href="#Gargi-41"/>
     </g>
    </g>
   </g>
   <g id="line2d_31">
    <path clip-path="url(#p6d51286f2d)" d="M 81 110.637128 
L 81 110.637128 
L 206.55 110.637128 
L 206.55 192.012094 
L 332.1 192.012094 
L 332.1 245.798022 
L 457.65 245.798022 
L 457.65 327.172989 
L 583.2 327.172989 
" style="fill:none;stroke:#1f77b4;stroke-linecap:square;stroke-width:4;"/>
   </g>
   <g id="patch_3">
    <path d="M 81 421.6464 
L 81 56.8512 
" style="fill:none;stroke:#000000;stroke-linecap:square;stroke-linejoin:miter;stroke-width:0.8;"/>
   </g>
   <g id="patch_4">
    <path d="M 81 421.6464 
L 583.2 421.6464 
" style="fill:none;stroke:#000000;stroke-linecap:square;stroke-linejoin:miter;stroke-width:0.8;"/>
   </g>
  </g>
 </g>
 <defs>
  <clipPath id="p6d51286f2d">
   <rect height="364.7952" width="502.2" x="81" y="56.8512"/>
  </clipPath>
 </defs>
</svg>
