<?xml version="1.0" encoding="utf-8" standalone="no"?>
<!DOCTYPE svg PUBLIC "-//W3C//DTD SVG 1.1//EN"
  "http://www.w3.org/Graphics/SVG/1.1/DTD/svg11.dtd">
<!-- Created with matplotlib (https://matplotlib.org/) -->
<svg height="473.76pt" version="1.1" viewBox="0 0 864 473.76" width="864pt" xmlns="http://www.w3.org/2000/svg" xmlns:xlink="http://www.w3.org/1999/xlink">
 <defs>
  <style type="text/css">
*{stroke-linecap:butt;stroke-linejoin:round;}
  </style>
 </defs>
 <g id="figure_1">
  <g id="patch_1">
   <path d="M 0 473.76 
L 864 473.76 
L 864 0 
L 0 0 
z
" style="fill:#ffffff;"/>
  </g>
  <g id="axes_1">
   <g id="patch_2">
    <path d="M 108 366.6 
L 864 366.6 
L 864 40.608 
L 108 40.608 
z
" style="fill:#ffffff;"/>
   </g>
   <g id="patch_3">
    <path clip-path="url(#p7e31c78d57)" d="M 142.363636 366.6 
L 160.485442 366.6 
L 160.485442 362.714051 
L 142.363636 362.714051 
z
" style="fill:#ff2929;stroke:#000000;stroke-linejoin:miter;stroke-width:4;"/>
   </g>
   <g id="patch_4">
    <path clip-path="url(#p7e31c78d57)" d="M 196.812887 366.6 
L 214.934693 366.6 
L 214.934693 362.638103 
L 196.812887 362.638103 
z
" style="fill:#ff8929;stroke:#000000;stroke-linejoin:miter;stroke-width:4;"/>
   </g>
   <g id="patch_5">
    <path clip-path="url(#p7e31c78d57)" d="M 251.262137 366.6 
L 269.383943 366.6 
L 269.383943 362.182589 
L 251.262137 362.182589 
z
" style="fill:#ffbf29;stroke:#000000;stroke-linejoin:miter;stroke-width:4;"/>
   </g>
   <g id="patch_6">
    <path clip-path="url(#p7e31c78d57)" d="M 305.711387 366.6 
L 323.833193 366.6 
L 323.833193 362.604667 
L 305.711387 362.604667 
z
" style="fill:#b1ff29;stroke:#000000;stroke-linejoin:miter;stroke-width:4;"/>
   </g>
   <g id="patch_7">
    <path clip-path="url(#p7e31c78d57)" d="M 360.160638 366.6 
L 378.282444 366.6 
L 378.282444 357.699594 
L 360.160638 357.699594 
z
" style="fill:#29ff98;stroke:#000000;stroke-linejoin:miter;stroke-width:4;"/>
   </g>
   <g id="patch_8">
    <path clip-path="url(#p7e31c78d57)" d="M 414.609888 366.6 
L 432.731694 366.6 
L 432.731694 361.761662 
L 414.609888 361.761662 
z
" style="fill:#29fff1;stroke:#000000;stroke-linejoin:miter;stroke-width:4;"/>
   </g>
   <g id="patch_9">
    <path clip-path="url(#p7e31c78d57)" d="M 469.059138 366.6 
L 487.180944 366.6 
L 487.180944 362.496652 
L 469.059138 362.496652 
z
" style="fill:#29caff;stroke:#000000;stroke-linejoin:miter;stroke-width:4;"/>
   </g>
   <g id="patch_10">
    <path clip-path="url(#p7e31c78d57)" d="M 523.508389 366.6 
L 541.630194 366.6 
L 541.630194 292.34163 
L 523.508389 292.34163 
z
" style="fill:#2994ff;stroke:#000000;stroke-linejoin:miter;stroke-width:4;"/>
   </g>
   <g id="patch_11">
    <path clip-path="url(#p7e31c78d57)" d="M 577.957639 366.6 
L 596.079445 366.6 
L 596.079445 320.977819 
L 577.957639 320.977819 
z
" style="fill:#2942ff;stroke:#000000;stroke-linejoin:miter;stroke-width:4;"/>
   </g>
   <g id="patch_12">
    <path clip-path="url(#p7e31c78d57)" d="M 632.406889 366.6 
L 650.528695 366.6 
L 650.528695 273.339983 
L 632.406889 273.339983 
z
" style="fill:#7f29ff;stroke:#000000;stroke-linejoin:miter;stroke-width:4;"/>
   </g>
   <g id="patch_13">
    <path clip-path="url(#p7e31c78d57)" d="M 686.85614 366.6 
L 704.977945 366.6 
L 704.977945 166.074554 
L 686.85614 166.074554 
z
" style="fill:#ed29ff;stroke:#000000;stroke-linejoin:miter;stroke-width:4;"/>
   </g>
   <g id="patch_14">
    <path clip-path="url(#p7e31c78d57)" d="M 741.30539 366.6 
L 759.427196 366.6 
L 759.427196 114.656319 
L 741.30539 114.656319 
z
" style="fill:#ff2982;stroke:#000000;stroke-linejoin:miter;stroke-width:4;"/>
   </g>
   <g id="patch_15">
    <path clip-path="url(#p7e31c78d57)" d="M 795.75464 366.6 
L 813.876446 366.6 
L 813.876446 64.383352 
L 795.75464 64.383352 
z
" style="fill:#ff2929;stroke:#000000;stroke-linejoin:miter;stroke-width:4;"/>
   </g>
   <g id="LineCollection_1">
    <path clip-path="url(#p7e31c78d57)" d="M 151.424539 362.837692 
L 151.424539 362.590409 
" style="fill:none;stroke:#000000;stroke-width:2;"/>
   </g>
   <g id="LineCollection_2">
    <path clip-path="url(#p7e31c78d57)" d="M 205.87379 362.710466 
L 205.87379 362.565741 
" style="fill:none;stroke:#000000;stroke-width:2;"/>
   </g>
   <g id="LineCollection_3">
    <path clip-path="url(#p7e31c78d57)" d="M 260.32304 362.186057 
L 260.32304 362.179122 
" style="fill:none;stroke:#000000;stroke-width:2;"/>
   </g>
   <g id="LineCollection_4">
    <path clip-path="url(#p7e31c78d57)" d="M 314.77229 362.630234 
L 314.77229 362.579099 
" style="fill:none;stroke:#000000;stroke-width:2;"/>
   </g>
   <g id="LineCollection_5">
    <path clip-path="url(#p7e31c78d57)" d="M 369.221541 357.813628 
L 369.221541 357.58556 
" style="fill:none;stroke:#000000;stroke-width:2;"/>
   </g>
   <g id="LineCollection_6">
    <path clip-path="url(#p7e31c78d57)" d="M 423.670791 361.87727 
L 423.670791 361.646055 
" style="fill:none;stroke:#000000;stroke-width:2;"/>
   </g>
   <g id="LineCollection_7">
    <path clip-path="url(#p7e31c78d57)" d="M 478.120041 362.723694 
L 478.120041 362.26961 
" style="fill:none;stroke:#000000;stroke-width:2;"/>
   </g>
   <g id="LineCollection_8">
    <path clip-path="url(#p7e31c78d57)" d="M 532.569292 295.112275 
L 532.569292 289.570985 
" style="fill:none;stroke:#000000;stroke-width:2;"/>
   </g>
   <g id="LineCollection_9">
    <path clip-path="url(#p7e31c78d57)" d="M 587.018542 325.223339 
L 587.018542 316.7323 
" style="fill:none;stroke:#000000;stroke-width:2;"/>
   </g>
   <g id="LineCollection_10">
    <path clip-path="url(#p7e31c78d57)" d="M 641.467792 276.171447 
L 641.467792 270.508518 
" style="fill:none;stroke:#000000;stroke-width:2;"/>
   </g>
   <g id="LineCollection_11">
    <path clip-path="url(#p7e31c78d57)" d="M 695.917042 171.918186 
L 695.917042 160.230922 
" style="fill:none;stroke:#000000;stroke-width:2;"/>
   </g>
   <g id="LineCollection_12">
    <path clip-path="url(#p7e31c78d57)" d="M 750.366293 118.594608 
L 750.366293 110.71803 
" style="fill:none;stroke:#000000;stroke-width:2;"/>
   </g>
   <g id="LineCollection_13">
    <path clip-path="url(#p7e31c78d57)" d="M 804.815543 68.661621 
L 804.815543 60.105082 
" style="fill:none;stroke:#000000;stroke-width:2;"/>
   </g>
   <g id="line2d_1">
    <defs>
     <path d="M 5 0 
L -5 -0 
" id="m53fd7fb5db" style="stroke:#000000;stroke-width:2;"/>
    </defs>
    <g clip-path="url(#p7e31c78d57)">
     <use style="stroke:#000000;stroke-width:2;" x="151.424539" xlink:href="#m53fd7fb5db" y="362.837692"/>
    </g>
   </g>
   <g id="line2d_2">
    <g clip-path="url(#p7e31c78d57)">
     <use style="stroke:#000000;stroke-width:2;" x="151.424539" xlink:href="#m53fd7fb5db" y="362.590409"/>
    </g>
   </g>
   <g id="line2d_3">
    <g clip-path="url(#p7e31c78d57)">
     <use style="stroke:#000000;stroke-width:2;" x="205.87379" xlink:href="#m53fd7fb5db" y="362.710466"/>
    </g>
   </g>
   <g id="line2d_4">
    <g clip-path="url(#p7e31c78d57)">
     <use style="stroke:#000000;stroke-width:2;" x="205.87379" xlink:href="#m53fd7fb5db" y="362.565741"/>
    </g>
   </g>
   <g id="line2d_5">
    <g clip-path="url(#p7e31c78d57)">
     <use style="stroke:#000000;stroke-width:2;" x="260.32304" xlink:href="#m53fd7fb5db" y="362.186057"/>
    </g>
   </g>
   <g id="line2d_6">
    <g clip-path="url(#p7e31c78d57)">
     <use style="stroke:#000000;stroke-width:2;" x="260.32304" xlink:href="#m53fd7fb5db" y="362.179122"/>
    </g>
   </g>
   <g id="line2d_7">
    <g clip-path="url(#p7e31c78d57)">
     <use style="stroke:#000000;stroke-width:2;" x="314.77229" xlink:href="#m53fd7fb5db" y="362.630234"/>
    </g>
   </g>
   <g id="line2d_8">
    <g clip-path="url(#p7e31c78d57)">
     <use style="stroke:#000000;stroke-width:2;" x="314.77229" xlink:href="#m53fd7fb5db" y="362.579099"/>
    </g>
   </g>
   <g id="line2d_9">
    <g clip-path="url(#p7e31c78d57)">
     <use style="stroke:#000000;stroke-width:2;" x="369.221541" xlink:href="#m53fd7fb5db" y="357.813628"/>
    </g>
   </g>
   <g id="line2d_10">
    <g clip-path="url(#p7e31c78d57)">
     <use style="stroke:#000000;stroke-width:2;" x="369.221541" xlink:href="#m53fd7fb5db" y="357.58556"/>
    </g>
   </g>
   <g id="line2d_11">
    <g clip-path="url(#p7e31c78d57)">
     <use style="stroke:#000000;stroke-width:2;" x="423.670791" xlink:href="#m53fd7fb5db" y="361.87727"/>
    </g>
   </g>
   <g id="line2d_12">
    <g clip-path="url(#p7e31c78d57)">
     <use style="stroke:#000000;stroke-width:2;" x="423.670791" xlink:href="#m53fd7fb5db" y="361.646055"/>
    </g>
   </g>
   <g id="line2d_13">
    <g clip-path="url(#p7e31c78d57)">
     <use style="stroke:#000000;stroke-width:2;" x="478.120041" xlink:href="#m53fd7fb5db" y="362.723694"/>
    </g>
   </g>
   <g id="line2d_14">
    <g clip-path="url(#p7e31c78d57)">
     <use style="stroke:#000000;stroke-width:2;" x="478.120041" xlink:href="#m53fd7fb5db" y="362.26961"/>
    </g>
   </g>
   <g id="line2d_15">
    <g clip-path="url(#p7e31c78d57)">
     <use style="stroke:#000000;stroke-width:2;" x="532.569292" xlink:href="#m53fd7fb5db" y="295.112275"/>
    </g>
   </g>
   <g id="line2d_16">
    <g clip-path="url(#p7e31c78d57)">
     <use style="stroke:#000000;stroke-width:2;" x="532.569292" xlink:href="#m53fd7fb5db" y="289.570985"/>
    </g>
   </g>
   <g id="line2d_17">
    <g clip-path="url(#p7e31c78d57)">
     <use style="stroke:#000000;stroke-width:2;" x="587.018542" xlink:href="#m53fd7fb5db" y="325.223339"/>
    </g>
   </g>
   <g id="line2d_18">
    <g clip-path="url(#p7e31c78d57)">
     <use style="stroke:#000000;stroke-width:2;" x="587.018542" xlink:href="#m53fd7fb5db" y="316.7323"/>
    </g>
   </g>
   <g id="line2d_19">
    <g clip-path="url(#p7e31c78d57)">
     <use style="stroke:#000000;stroke-width:2;" x="641.467792" xlink:href="#m53fd7fb5db" y="276.171447"/>
    </g>
   </g>
   <g id="line2d_20">
    <g clip-path="url(#p7e31c78d57)">
     <use style="stroke:#000000;stroke-width:2;" x="641.467792" xlink:href="#m53fd7fb5db" y="270.508518"/>
    </g>
   </g>
   <g id="line2d_21">
    <g clip-path="url(#p7e31c78d57)">
     <use style="stroke:#000000;stroke-width:2;" x="695.917042" xlink:href="#m53fd7fb5db" y="171.918186"/>
    </g>
   </g>
   <g id="line2d_22">
    <g clip-path="url(#p7e31c78d57)">
     <use style="stroke:#000000;stroke-width:2;" x="695.917042" xlink:href="#m53fd7fb5db" y="160.230922"/>
    </g>
   </g>
   <g id="line2d_23">
    <g clip-path="url(#p7e31c78d57)">
     <use style="stroke:#000000;stroke-width:2;" x="750.366293" xlink:href="#m53fd7fb5db" y="118.594608"/>
    </g>
   </g>
   <g id="line2d_24">
    <g clip-path="url(#p7e31c78d57)">
     <use style="stroke:#000000;stroke-width:2;" x="750.366293" xlink:href="#m53fd7fb5db" y="110.71803"/>
    </g>
   </g>
   <g id="line2d_25">
    <g clip-path="url(#p7e31c78d57)">
     <use style="stroke:#000000;stroke-width:2;" x="804.815543" xlink:href="#m53fd7fb5db" y="68.661621"/>
    </g>
   </g>
   <g id="line2d_26">
    <g clip-path="url(#p7e31c78d57)">
     <use style="stroke:#000000;stroke-width:2;" x="804.815543" xlink:href="#m53fd7fb5db" y="60.105082"/>
    </g>
   </g>
   <g id="PathCollection_1">
    <path clip-path="url(#p7e31c78d57)" d="M 142.19377 366.620186 
C 143.213803 366.620186 144.192196 366.214923 144.913468 365.493651 
C 145.63474 364.772378 146.040004 363.793986 146.040004 362.773953 
C 146.040004 361.75392 145.63474 360.775527 144.913468 360.054255 
C 144.192196 359.332983 143.213803 358.927719 142.19377 358.927719 
C 141.173737 358.927719 140.195345 359.332983 139.474072 360.054255 
C 138.7528 360.775527 138.347537 361.75392 138.347537 362.773953 
C 138.347537 363.793986 138.7528 364.772378 139.474072 365.493651 
C 140.195345 366.214923 141.173737 366.620186 142.19377 366.620186 
z
" style="fill:none;stroke:#000000;stroke-width:2.5;"/>
   </g>
   <g id="PathCollection_2">
    <path clip-path="url(#p7e31c78d57)" d="M 151.424539 366.642565 
C 152.444572 366.642565 153.422965 366.237302 154.144237 365.516029 
C 154.865509 364.794757 155.270773 363.816365 155.270773 362.796332 
C 155.270773 361.776299 154.865509 360.797906 154.144237 360.076634 
C 153.422965 359.355362 152.444572 358.950098 151.424539 358.950098 
C 150.404506 358.950098 149.426114 359.355362 148.704842 360.076634 
C 147.983569 360.797906 147.578306 361.776299 147.578306 362.796332 
C 147.578306 363.816365 147.983569 364.794757 148.704842 365.516029 
C 149.426114 366.237302 150.404506 366.642565 151.424539 366.642565 
z
" style="fill:none;stroke:#000000;stroke-width:2.5;"/>
   </g>
   <g id="PathCollection_3">
    <path clip-path="url(#p7e31c78d57)" d="M 160.655309 366.418101 
C 161.675342 366.418101 162.653734 366.012837 163.375006 365.291565 
C 164.096279 364.570293 164.501542 363.5919 164.501542 362.571867 
C 164.501542 361.551834 164.096279 360.573442 163.375006 359.852169 
C 162.653734 359.130897 161.675342 358.725634 160.655309 358.725634 
C 159.635276 358.725634 158.656883 359.130897 157.935611 359.852169 
C 157.214339 360.573442 156.809075 361.551834 156.809075 362.571867 
C 156.809075 363.5919 157.214339 364.570293 157.935611 365.291565 
C 158.656883 366.012837 159.635276 366.418101 160.655309 366.418101 
z
" style="fill:none;stroke:#000000;stroke-width:2.5;"/>
   </g>
   <g id="PathCollection_4">
    <path clip-path="url(#p7e31c78d57)" d="M 196.64302 366.512914 
C 197.663053 366.512914 198.641446 366.10765 199.362718 365.386378 
C 200.08399 364.665106 200.489254 363.686713 200.489254 362.66668 
C 200.489254 361.646647 200.08399 360.668255 199.362718 359.946982 
C 198.641446 359.22571 197.663053 358.820447 196.64302 358.820447 
C 195.622987 358.820447 194.644595 359.22571 193.923323 359.946982 
C 193.20205 360.668255 192.796787 361.646647 192.796787 362.66668 
C 192.796787 363.686713 193.20205 364.665106 193.923323 365.386378 
C 194.644595 366.10765 195.622987 366.512914 196.64302 366.512914 
z
" style="fill:none;stroke:#000000;stroke-width:2.5;"/>
   </g>
   <g id="PathCollection_5">
    <path clip-path="url(#p7e31c78d57)" d="M 205.87379 366.538048 
C 206.893823 366.538048 207.872215 366.132784 208.593487 365.411512 
C 209.31476 364.69024 209.720023 363.711847 209.720023 362.691814 
C 209.720023 361.671781 209.31476 360.693389 208.593487 359.972116 
C 207.872215 359.250844 206.893823 358.845581 205.87379 358.845581 
C 204.853757 358.845581 203.875364 359.250844 203.154092 359.972116 
C 202.43282 360.693389 202.027556 361.671781 202.027556 362.691814 
C 202.027556 363.711847 202.43282 364.69024 203.154092 365.411512 
C 203.875364 366.132784 204.853757 366.538048 205.87379 366.538048 
z
" style="fill:none;stroke:#000000;stroke-width:2.5;"/>
   </g>
   <g id="PathCollection_6">
    <path clip-path="url(#p7e31c78d57)" d="M 215.104559 366.40205 
C 216.124592 366.40205 217.102984 365.996786 217.824257 365.275514 
C 218.545529 364.554242 218.950792 363.575849 218.950792 362.555816 
C 218.950792 361.535783 218.545529 360.557391 217.824257 359.836118 
C 217.102984 359.114846 216.124592 358.709583 215.104559 358.709583 
C 214.084526 358.709583 213.106133 359.114846 212.384861 359.836118 
C 211.663589 360.557391 211.258325 361.535783 211.258325 362.555816 
C 211.258325 363.575849 211.663589 364.554242 212.384861 365.275514 
C 213.106133 365.996786 214.084526 366.40205 215.104559 366.40205 
z
" style="fill:none;stroke:#000000;stroke-width:2.5;"/>
   </g>
   <g id="PathCollection_7">
    <path clip-path="url(#p7e31c78d57)" d="M 251.092271 366.032333 
C 252.112304 366.032333 253.090696 365.62707 253.811968 364.905798 
C 254.533241 364.184525 254.938504 363.206133 254.938504 362.1861 
C 254.938504 361.166067 254.533241 360.187674 253.811968 359.466402 
C 253.090696 358.74513 252.112304 358.339866 251.092271 358.339866 
C 250.072238 358.339866 249.093845 358.74513 248.372573 359.466402 
C 247.651301 360.187674 247.246037 361.166067 247.246037 362.1861 
C 247.246037 363.206133 247.651301 364.184525 248.372573 364.905798 
C 249.093845 365.62707 250.072238 366.032333 251.092271 366.032333 
z
" style="fill:none;stroke:#000000;stroke-width:2.5;"/>
   </g>
   <g id="PathCollection_8">
    <path clip-path="url(#p7e31c78d57)" d="M 260.32304 366.0254 
C 261.343073 366.0254 262.321465 365.620137 263.042738 364.898864 
C 263.76401 364.177592 264.169273 363.1992 264.169273 362.179166 
C 264.169273 361.159133 263.76401 360.180741 263.042738 359.459469 
C 262.321465 358.738196 261.343073 358.332933 260.32304 358.332933 
C 259.303007 358.332933 258.324614 358.738196 257.603342 359.459469 
C 256.88207 360.180741 256.476806 361.159133 256.476806 362.179166 
C 256.476806 363.1992 256.88207 364.177592 257.603342 364.898864 
C 258.324614 365.620137 259.303007 366.0254 260.32304 366.0254 
z
" style="fill:none;stroke:#000000;stroke-width:2.5;"/>
   </g>
   <g id="PathCollection_9">
    <path clip-path="url(#p7e31c78d57)" d="M 269.553809 366.028735 
C 270.573842 366.028735 271.552235 365.623471 272.273507 364.902199 
C 272.994779 364.180927 273.400043 363.202534 273.400043 362.182501 
C 273.400043 361.162468 272.994779 360.184076 272.273507 359.462803 
C 271.552235 358.741531 270.573842 358.336268 269.553809 358.336268 
C 268.533776 358.336268 267.555384 358.741531 266.834111 359.462803 
C 266.112839 360.184076 265.707576 361.162468 265.707576 362.182501 
C 265.707576 363.202534 266.112839 364.180927 266.834111 364.902199 
C 267.555384 365.623471 268.533776 366.028735 269.553809 366.028735 
z
" style="fill:none;stroke:#000000;stroke-width:2.5;"/>
   </g>
   <g id="PathCollection_10">
    <path clip-path="url(#p7e31c78d57)" d="M 305.541521 366.462227 
C 306.561554 366.462227 307.539947 366.056963 308.261219 365.335691 
C 308.982491 364.614419 309.387754 363.636026 309.387754 362.615993 
C 309.387754 361.59596 308.982491 360.617568 308.261219 359.896296 
C 307.539947 359.175023 306.561554 358.76976 305.541521 358.76976 
C 304.521488 358.76976 303.543096 359.175023 302.821823 359.896296 
C 302.100551 360.617568 301.695288 361.59596 301.695288 362.615993 
C 301.695288 363.636026 302.100551 364.614419 302.821823 365.335691 
C 303.543096 366.056963 304.521488 366.462227 305.541521 366.462227 
z
" style="fill:none;stroke:#000000;stroke-width:2.5;"/>
   </g>
   <g id="PathCollection_11">
    <path clip-path="url(#p7e31c78d57)" d="M 314.77229 366.421626 
C 315.792323 366.421626 316.770716 366.016363 317.491988 365.29509 
C 318.21326 364.573818 318.618524 363.595426 318.618524 362.575393 
C 318.618524 361.55536 318.21326 360.576967 317.491988 359.855695 
C 316.770716 359.134423 315.792323 358.729159 314.77229 358.729159 
C 313.752257 358.729159 312.773865 359.134423 312.052593 359.855695 
C 311.33132 360.576967 310.926057 361.55536 310.926057 362.575393 
C 310.926057 363.595426 311.33132 364.573818 312.052593 365.29509 
C 312.773865 366.016363 313.752257 366.421626 314.77229 366.421626 
z
" style="fill:none;stroke:#000000;stroke-width:2.5;"/>
   </g>
   <g id="PathCollection_12">
    <path clip-path="url(#p7e31c78d57)" d="M 324.003059 366.468847 
C 325.023093 366.468847 326.001485 366.063584 326.722757 365.342311 
C 327.44403 364.621039 327.849293 363.642647 327.849293 362.622614 
C 327.849293 361.602581 327.44403 360.624188 326.722757 359.902916 
C 326.001485 359.181644 325.023093 358.77638 324.003059 358.77638 
C 322.983026 358.77638 322.004634 359.181644 321.283362 359.902916 
C 320.562089 360.624188 320.156826 361.602581 320.156826 362.622614 
C 320.156826 363.642647 320.562089 364.621039 321.283362 365.342311 
C 322.004634 366.063584 322.983026 366.468847 324.003059 366.468847 
z
" style="fill:none;stroke:#000000;stroke-width:2.5;"/>
   </g>
   <g id="PathCollection_13">
    <path clip-path="url(#p7e31c78d57)" d="M 359.990771 361.672668 
C 361.010804 361.672668 361.989197 361.267405 362.710469 360.546133 
C 363.431741 359.82486 363.837005 358.846468 363.837005 357.826435 
C 363.837005 356.806402 363.431741 355.828009 362.710469 355.106737 
C 361.989197 354.385465 361.010804 353.980201 359.990771 353.980201 
C 358.970738 353.980201 357.992346 354.385465 357.271074 355.106737 
C 356.549801 355.828009 356.144538 356.806402 356.144538 357.826435 
C 356.144538 358.846468 356.549801 359.82486 357.271074 360.546133 
C 357.992346 361.267405 358.970738 361.672668 359.990771 361.672668 
z
" style="fill:none;stroke:#000000;stroke-width:2.5;"/>
   </g>
   <g id="PathCollection_14">
    <path clip-path="url(#p7e31c78d57)" d="M 369.221541 361.513021 
C 370.241574 361.513021 371.219966 361.107758 371.941238 360.386486 
C 372.662511 359.665213 373.067774 358.686821 373.067774 357.666788 
C 373.067774 356.646755 372.662511 355.668362 371.941238 354.94709 
C 371.219966 354.225818 370.241574 353.820554 369.221541 353.820554 
C 368.201508 353.820554 367.223115 354.225818 366.501843 354.94709 
C 365.780571 355.668362 365.375307 356.646755 365.375307 357.666788 
C 365.375307 358.686821 365.780571 359.665213 366.501843 360.386486 
C 367.223115 361.107758 368.201508 361.513021 369.221541 361.513021 
z
" style="fill:none;stroke:#000000;stroke-width:2.5;"/>
   </g>
   <g id="PathCollection_15">
    <path clip-path="url(#p7e31c78d57)" d="M 378.45231 361.451792 
C 379.472343 361.451792 380.450735 361.046528 381.172008 360.325256 
C 381.89328 359.603984 382.298543 358.625591 382.298543 357.605558 
C 382.298543 356.585525 381.89328 355.607133 381.172008 354.885861 
C 380.450735 354.164588 379.472343 353.759325 378.45231 353.759325 
C 377.432277 353.759325 376.453884 354.164588 375.732612 354.885861 
C 375.01134 355.607133 374.606076 356.585525 374.606076 357.605558 
C 374.606076 358.625591 375.01134 359.603984 375.732612 360.325256 
C 376.453884 361.046528 377.432277 361.451792 378.45231 361.451792 
z
" style="fill:none;stroke:#000000;stroke-width:2.5;"/>
   </g>
   <g id="PathCollection_16">
    <path clip-path="url(#p7e31c78d57)" d="M 414.440022 365.563295 
C 415.460055 365.563295 416.438447 365.158032 417.159719 364.43676 
C 417.880992 363.715487 418.286255 362.737095 418.286255 361.717062 
C 418.286255 360.697029 417.880992 359.718636 417.159719 358.997364 
C 416.438447 358.276092 415.460055 357.870828 414.440022 357.870828 
C 413.419989 357.870828 412.441596 358.276092 411.720324 358.997364 
C 410.999052 359.718636 410.593788 360.697029 410.593788 361.717062 
C 410.593788 362.737095 410.999052 363.715487 411.720324 364.43676 
C 412.441596 365.158032 413.419989 365.563295 414.440022 365.563295 
z
" style="fill:none;stroke:#000000;stroke-width:2.5;"/>
   </g>
   <g id="PathCollection_17">
    <path clip-path="url(#p7e31c78d57)" d="M 423.670791 365.521232 
C 424.690824 365.521232 425.669216 365.115968 426.390489 364.394696 
C 427.111761 363.673424 427.517024 362.695031 427.517024 361.674998 
C 427.517024 360.654965 427.111761 359.676573 426.390489 358.9553 
C 425.669216 358.234028 424.690824 357.828765 423.670791 357.828765 
C 422.650758 357.828765 421.672365 358.234028 420.951093 358.9553 
C 420.229821 359.676573 419.824557 360.654965 419.824557 361.674998 
C 419.824557 362.695031 420.229821 363.673424 420.951093 364.394696 
C 421.672365 365.115968 422.650758 365.521232 423.670791 365.521232 
z
" style="fill:none;stroke:#000000;stroke-width:2.5;"/>
   </g>
   <g id="PathCollection_18">
    <path clip-path="url(#p7e31c78d57)" d="M 432.90156 365.73916 
C 433.921593 365.73916 434.899986 365.333897 435.621258 364.612624 
C 436.34253 363.891352 436.747794 362.91296 436.747794 361.892927 
C 436.747794 360.872894 436.34253 359.894501 435.621258 359.173229 
C 434.899986 358.451957 433.921593 358.046693 432.90156 358.046693 
C 431.881527 358.046693 430.903135 358.451957 430.181862 359.173229 
C 429.46059 359.894501 429.055327 360.872894 429.055327 361.892927 
C 429.055327 362.91296 429.46059 363.891352 430.181862 364.612624 
C 430.903135 365.333897 431.881527 365.73916 432.90156 365.73916 
z
" style="fill:none;stroke:#000000;stroke-width:2.5;"/>
   </g>
   <g id="PathCollection_19">
    <path clip-path="url(#p7e31c78d57)" d="M 468.889272 366.086107 
C 469.909305 366.086107 470.887697 365.680844 471.60897 364.959572 
C 472.330242 364.2383 472.735505 363.259907 472.735505 362.239874 
C 472.735505 361.219841 472.330242 360.241449 471.60897 359.520176 
C 470.887697 358.798904 469.909305 358.393641 468.889272 358.393641 
C 467.869239 358.393641 466.890847 358.798904 466.169574 359.520176 
C 465.448302 360.241449 465.043039 361.219841 465.043039 362.239874 
C 465.043039 363.259907 465.448302 364.2383 466.169574 364.959572 
C 466.890847 365.680844 467.869239 366.086107 468.889272 366.086107 
z
" style="fill:none;stroke:#000000;stroke-width:2.5;"/>
   </g>
   <g id="PathCollection_20">
    <path clip-path="url(#p7e31c78d57)" d="M 478.120041 366.425483 
C 479.140074 366.425483 480.118467 366.02022 480.839739 365.298948 
C 481.561011 364.577675 481.966275 363.599283 481.966275 362.57925 
C 481.966275 361.559217 481.561011 360.580824 480.839739 359.859552 
C 480.118467 359.13828 479.140074 358.733016 478.120041 358.733016 
C 477.100008 358.733016 476.121616 359.13828 475.400343 359.859552 
C 474.679071 360.580824 474.273808 361.559217 474.273808 362.57925 
C 474.273808 363.599283 474.679071 364.577675 475.400343 365.298948 
C 476.121616 366.02022 477.100008 366.425483 478.120041 366.425483 
z
" style="fill:none;stroke:#000000;stroke-width:2.5;"/>
   </g>
   <g id="PathCollection_21">
    <path clip-path="url(#p7e31c78d57)" d="M 487.35081 366.517065 
C 488.370843 366.517065 489.349236 366.111802 490.070508 365.39053 
C 490.79178 364.669257 491.197044 363.690865 491.197044 362.670832 
C 491.197044 361.650799 490.79178 360.672406 490.070508 359.951134 
C 489.349236 359.229862 488.370843 358.824598 487.35081 358.824598 
C 486.330777 358.824598 485.352385 359.229862 484.631113 359.951134 
C 483.90984 360.672406 483.504577 361.650799 483.504577 362.670832 
C 483.504577 363.690865 483.90984 364.669257 484.631113 365.39053 
C 485.352385 366.111802 486.330777 366.517065 487.35081 366.517065 
z
" style="fill:none;stroke:#000000;stroke-width:2.5;"/>
   </g>
   <g id="PathCollection_22">
    <path clip-path="url(#p7e31c78d57)" d="M 523.338522 298.151505 
C 524.358555 298.151505 525.336948 297.746242 526.05822 297.02497 
C 526.779492 296.303697 527.184756 295.325305 527.184756 294.305272 
C 527.184756 293.285239 526.779492 292.306847 526.05822 291.585574 
C 525.336948 290.864302 524.358555 290.459039 523.338522 290.459039 
C 522.318489 290.459039 521.340097 290.864302 520.618825 291.585574 
C 519.897552 292.306847 519.492289 293.285239 519.492289 294.305272 
C 519.492289 295.325305 519.897552 296.303697 520.618825 297.02497 
C 521.340097 297.746242 522.318489 298.151505 523.338522 298.151505 
z
" style="fill:none;stroke:#000000;stroke-width:2.5;"/>
   </g>
   <g id="PathCollection_23">
    <path clip-path="url(#p7e31c78d57)" d="M 532.569292 297.393405 
C 533.589325 297.393405 534.567717 296.988142 535.288989 296.266869 
C 536.010262 295.545597 536.415525 294.567205 536.415525 293.547172 
C 536.415525 292.527139 536.010262 291.548746 535.288989 290.827474 
C 534.567717 290.106202 533.589325 289.700938 532.569292 289.700938 
C 531.549258 289.700938 530.570866 290.106202 529.849594 290.827474 
C 529.128321 291.548746 528.723058 292.527139 528.723058 293.547172 
C 528.723058 294.567205 529.128321 295.545597 529.849594 296.266869 
C 530.570866 296.988142 531.549258 297.393405 532.569292 297.393405 
z
" style="fill:none;stroke:#000000;stroke-width:2.5;"/>
   </g>
   <g id="PathCollection_24">
    <path clip-path="url(#p7e31c78d57)" d="M 541.800061 293.01868 
C 542.820094 293.01868 543.798486 292.613416 544.519759 291.892144 
C 545.241031 291.170872 545.646294 290.192479 545.646294 289.172446 
C 545.646294 288.152413 545.241031 287.174021 544.519759 286.452749 
C 543.798486 285.731476 542.820094 285.326213 541.800061 285.326213 
C 540.780028 285.326213 539.801635 285.731476 539.080363 286.452749 
C 538.359091 287.174021 537.953827 288.152413 537.953827 289.172446 
C 537.953827 290.192479 538.359091 291.170872 539.080363 291.892144 
C 539.801635 292.613416 540.780028 293.01868 541.800061 293.01868 
z
" style="fill:none;stroke:#000000;stroke-width:2.5;"/>
   </g>
   <g id="PathCollection_25">
    <path clip-path="url(#p7e31c78d57)" d="M 577.787773 327.877116 
C 578.807806 327.877116 579.786198 327.471852 580.50747 326.75058 
C 581.228743 326.029308 581.634006 325.050915 581.634006 324.030882 
C 581.634006 323.010849 581.228743 322.032457 580.50747 321.311184 
C 579.786198 320.589912 578.807806 320.184649 577.787773 320.184649 
C 576.76774 320.184649 575.789347 320.589912 575.068075 321.311184 
C 574.346803 322.032457 573.941539 323.010849 573.941539 324.030882 
C 573.941539 325.050915 574.346803 326.029308 575.068075 326.75058 
C 575.789347 327.471852 576.76774 327.877116 577.787773 327.877116 
z
" style="fill:none;stroke:#000000;stroke-width:2.5;"/>
   </g>
   <g id="PathCollection_26">
    <path clip-path="url(#p7e31c78d57)" d="M 587.018542 319.975843 
C 588.038575 319.975843 589.016967 319.57058 589.73824 318.849308 
C 590.459512 318.128036 590.864775 317.149643 590.864775 316.12961 
C 590.864775 315.109577 590.459512 314.131185 589.73824 313.409912 
C 589.016967 312.68864 588.038575 312.283377 587.018542 312.283377 
C 585.998509 312.283377 585.020116 312.68864 584.298844 313.409912 
C 583.577572 314.131185 583.172308 315.109577 583.172308 316.12961 
C 583.172308 317.149643 583.577572 318.128036 584.298844 318.849308 
C 585.020116 319.57058 585.998509 319.975843 587.018542 319.975843 
z
" style="fill:none;stroke:#000000;stroke-width:2.5;"/>
   </g>
   <g id="PathCollection_27">
    <path clip-path="url(#p7e31c78d57)" d="M 596.249311 326.619199 
C 597.269344 326.619199 598.247737 326.213936 598.969009 325.492664 
C 599.690281 324.771391 600.095545 323.792999 600.095545 322.772966 
C 600.095545 321.752933 599.690281 320.77454 598.969009 320.053268 
C 598.247737 319.331996 597.269344 318.926732 596.249311 318.926732 
C 595.229278 318.926732 594.250886 319.331996 593.529613 320.053268 
C 592.808341 320.77454 592.403078 321.752933 592.403078 322.772966 
C 592.403078 323.792999 592.808341 324.771391 593.529613 325.492664 
C 594.250886 326.213936 595.229278 326.619199 596.249311 326.619199 
z
" style="fill:none;stroke:#000000;stroke-width:2.5;"/>
   </g>
   <g id="PathCollection_28">
    <path clip-path="url(#p7e31c78d57)" d="M 632.237023 275.460382 
C 633.257056 275.460382 634.235448 275.055119 634.956721 274.333847 
C 635.677993 273.612574 636.083256 272.634182 636.083256 271.614149 
C 636.083256 270.594116 635.677993 269.615723 634.956721 268.894451 
C 634.235448 268.173179 633.257056 267.767915 632.237023 267.767915 
C 631.21699 267.767915 630.238597 268.173179 629.517325 268.894451 
C 628.796053 269.615723 628.390789 270.594116 628.390789 271.614149 
C 628.390789 272.634182 628.796053 273.612574 629.517325 274.333847 
C 630.238597 275.055119 631.21699 275.460382 632.237023 275.460382 
z
" style="fill:none;stroke:#000000;stroke-width:2.5;"/>
   </g>
   <g id="PathCollection_29">
    <path clip-path="url(#p7e31c78d57)" d="M 641.467792 280.453985 
C 642.487825 280.453985 643.466218 280.048722 644.18749 279.32745 
C 644.908762 278.606177 645.314026 277.627785 645.314026 276.607752 
C 645.314026 275.587719 644.908762 274.609326 644.18749 273.888054 
C 643.466218 273.166782 642.487825 272.761518 641.467792 272.761518 
C 640.447759 272.761518 639.469367 273.166782 638.748094 273.888054 
C 638.026822 274.609326 637.621559 275.587719 637.621559 276.607752 
C 637.621559 277.627785 638.026822 278.606177 638.748094 279.32745 
C 639.469367 280.048722 640.447759 280.453985 641.467792 280.453985 
z
" style="fill:none;stroke:#000000;stroke-width:2.5;"/>
   </g>
   <g id="PathCollection_30">
    <path clip-path="url(#p7e31c78d57)" d="M 650.698561 275.64428 
C 651.718594 275.64428 652.696987 275.239017 653.418259 274.517745 
C 654.139531 273.796472 654.544795 272.81808 654.544795 271.798047 
C 654.544795 270.778014 654.139531 269.799621 653.418259 269.078349 
C 652.696987 268.357077 651.718594 267.951813 650.698561 267.951813 
C 649.678528 267.951813 648.700136 268.357077 647.978864 269.078349 
C 647.257591 269.799621 646.852328 270.778014 646.852328 271.798047 
C 646.852328 272.81808 647.257591 273.796472 647.978864 274.517745 
C 648.700136 275.239017 649.678528 275.64428 650.698561 275.64428 
z
" style="fill:none;stroke:#000000;stroke-width:2.5;"/>
   </g>
   <g id="PathCollection_31">
    <path clip-path="url(#p7e31c78d57)" d="M 686.686273 174.135069 
C 687.706306 174.135069 688.684699 173.729805 689.405971 173.008533 
C 690.127243 172.287261 690.532507 171.308868 690.532507 170.288835 
C 690.532507 169.268802 690.127243 168.29041 689.405971 167.569138 
C 688.684699 166.847865 687.706306 166.442602 686.686273 166.442602 
C 685.66624 166.442602 684.687848 166.847865 683.966575 167.569138 
C 683.245303 168.29041 682.84004 169.268802 682.84004 170.288835 
C 682.84004 171.308868 683.245303 172.287261 683.966575 173.008533 
C 684.687848 173.729805 685.66624 174.135069 686.686273 174.135069 
z
" style="fill:none;stroke:#000000;stroke-width:2.5;"/>
   </g>
   <g id="PathCollection_32">
    <path clip-path="url(#p7e31c78d57)" d="M 695.917042 172.377408 
C 696.937076 172.377408 697.915468 171.972144 698.63674 171.250872 
C 699.358013 170.5296 699.763276 169.551207 699.763276 168.531174 
C 699.763276 167.511141 699.358013 166.532749 698.63674 165.811477 
C 697.915468 165.090204 696.937076 164.684941 695.917042 164.684941 
C 694.897009 164.684941 693.918617 165.090204 693.197345 165.811477 
C 692.476072 166.532749 692.070809 167.511141 692.070809 168.531174 
C 692.070809 169.551207 692.476072 170.5296 693.197345 171.250872 
C 693.918617 171.972144 694.897009 172.377408 695.917042 172.377408 
z
" style="fill:none;stroke:#000000;stroke-width:2.5;"/>
   </g>
   <g id="PathCollection_33">
    <path clip-path="url(#p7e31c78d57)" d="M 705.147812 163.249887 
C 706.167845 163.249887 707.146237 162.844623 707.867509 162.123351 
C 708.588782 161.402079 708.994045 160.423686 708.994045 159.403653 
C 708.994045 158.38362 708.588782 157.405228 707.867509 156.683955 
C 707.146237 155.962683 706.167845 155.55742 705.147812 155.55742 
C 704.127779 155.55742 703.149386 155.962683 702.428114 156.683955 
C 701.706842 157.405228 701.301578 158.38362 701.301578 159.403653 
C 701.301578 160.423686 701.706842 161.402079 702.428114 162.123351 
C 703.149386 162.844623 704.127779 163.249887 705.147812 163.249887 
z
" style="fill:none;stroke:#000000;stroke-width:2.5;"/>
   </g>
   <g id="PathCollection_34">
    <path clip-path="url(#p7e31c78d57)" d="M 741.135524 117.677025 
C 742.155557 117.677025 743.133949 117.271762 743.855221 116.55049 
C 744.576494 115.829217 744.981757 114.850825 744.981757 113.830792 
C 744.981757 112.810759 744.576494 111.832366 743.855221 111.111094 
C 743.133949 110.389822 742.155557 109.984558 741.135524 109.984558 
C 740.115491 109.984558 739.137098 110.389822 738.415826 111.111094 
C 737.694554 111.832366 737.28929 112.810759 737.28929 113.830792 
C 737.28929 114.850825 737.694554 115.829217 738.415826 116.55049 
C 739.137098 117.271762 740.115491 117.677025 741.135524 117.677025 
z
" style="fill:none;stroke:#000000;stroke-width:2.5;"/>
   </g>
   <g id="PathCollection_35">
    <path clip-path="url(#p7e31c78d57)" d="M 750.366293 122.788171 
C 751.386326 122.788171 752.364718 122.382907 753.085991 121.661635 
C 753.807263 120.940363 754.212526 119.96197 754.212526 118.941937 
C 754.212526 117.921904 753.807263 116.943512 753.085991 116.222239 
C 752.364718 115.500967 751.386326 115.095704 750.366293 115.095704 
C 749.34626 115.095704 748.367867 115.500967 747.646595 116.222239 
C 746.925323 116.943512 746.520059 117.921904 746.520059 118.941937 
C 746.520059 119.96197 746.925323 120.940363 747.646595 121.661635 
C 748.367867 122.382907 749.34626 122.788171 750.366293 122.788171 
z
" style="fill:none;stroke:#000000;stroke-width:2.5;"/>
   </g>
   <g id="PathCollection_36">
    <path clip-path="url(#p7e31c78d57)" d="M 759.597062 115.042462 
C 760.617095 115.042462 761.595488 114.637198 762.31676 113.915926 
C 763.038032 113.194654 763.443295 112.216261 763.443295 111.196228 
C 763.443295 110.176195 763.038032 109.197803 762.31676 108.47653 
C 761.595488 107.755258 760.617095 107.349995 759.597062 107.349995 
C 758.577029 107.349995 757.598637 107.755258 756.877364 108.47653 
C 756.156092 109.197803 755.750829 110.176195 755.750829 111.196228 
C 755.750829 112.216261 756.156092 113.194654 756.877364 113.915926 
C 757.598637 114.637198 758.577029 115.042462 759.597062 115.042462 
z
" style="fill:none;stroke:#000000;stroke-width:2.5;"/>
   </g>
   <g id="PathCollection_37">
    <path clip-path="url(#p7e31c78d57)" d="M 795.584774 63.326671 
C 796.604807 63.326671 797.583199 62.921407 798.304472 62.200135 
C 799.025744 61.478863 799.431007 60.50047 799.431007 59.480437 
C 799.431007 58.460404 799.025744 57.482012 798.304472 56.760739 
C 797.583199 56.039467 796.604807 55.634204 795.584774 55.634204 
C 794.564741 55.634204 793.586348 56.039467 792.865076 56.760739 
C 792.143804 57.482012 791.73854 58.460404 791.73854 59.480437 
C 791.73854 60.50047 792.143804 61.478863 792.865076 62.200135 
C 793.586348 62.921407 794.564741 63.326671 795.584774 63.326671 
z
" style="fill:none;stroke:#000000;stroke-width:2.5;"/>
   </g>
   <g id="PathCollection_38">
    <path clip-path="url(#p7e31c78d57)" d="M 804.815543 71.205128 
C 805.835576 71.205128 806.813969 70.799865 807.535241 70.078593 
C 808.256513 69.35732 808.661777 68.378928 808.661777 67.358895 
C 808.661777 66.338862 808.256513 65.360469 807.535241 64.639197 
C 806.813969 63.917925 805.835576 63.512661 804.815543 63.512661 
C 803.79551 63.512661 802.817118 63.917925 802.095845 64.639197 
C 801.374573 65.360469 800.96931 66.338862 800.96931 67.358895 
C 800.96931 68.378928 801.374573 69.35732 802.095845 70.078593 
C 802.817118 70.799865 803.79551 71.205128 804.815543 71.205128 
z
" style="fill:none;stroke:#000000;stroke-width:2.5;"/>
   </g>
   <g id="PathCollection_39">
    <path clip-path="url(#p7e31c78d57)" d="M 814.046312 70.156956 
C 815.066345 70.156956 816.044738 69.751693 816.76601 69.03042 
C 817.487282 68.309148 817.892546 67.330756 817.892546 66.310723 
C 817.892546 65.290689 817.487282 64.312297 816.76601 63.591025 
C 816.044738 62.869752 815.066345 62.464489 814.046312 62.464489 
C 813.026279 62.464489 812.047887 62.869752 811.326615 63.591025 
C 810.605342 64.312297 810.200079 65.290689 810.200079 66.310723 
C 810.200079 67.330756 810.605342 68.309148 811.326615 69.03042 
C 812.047887 69.751693 813.026279 70.156956 814.046312 70.156956 
z
" style="fill:none;stroke:#000000;stroke-width:2.5;"/>
   </g>
   <g id="matplotlib.axis_1">
    <g id="xtick_1">
     <g id="line2d_27">
      <defs>
       <path d="M 0 0 
L 0 2 
" id="m4f93c74efd" style="stroke:#000000;"/>
      </defs>
      <g>
       <use style="stroke:#000000;" x="151.424539" xlink:href="#m4f93c74efd" y="366.6"/>
      </g>
     </g>
     <g id="text_1">
      <!-- Linalool -->
      <defs>
       <path d="M 9.8125 72.90625 
L 19.671875 72.90625 
L 19.671875 8.296875 
L 55.171875 8.296875 
L 55.171875 0 
L 9.8125 0 
z
" id="DejaVuSans-76"/>
       <path d="M 9.421875 54.6875 
L 18.40625 54.6875 
L 18.40625 0 
L 9.421875 0 
z
M 9.421875 75.984375 
L 18.40625 75.984375 
L 18.40625 64.59375 
L 9.421875 64.59375 
z
" id="DejaVuSans-105"/>
       <path d="M 54.890625 33.015625 
L 54.890625 0 
L 45.90625 0 
L 45.90625 32.71875 
Q 45.90625 40.484375 42.875 44.328125 
Q 39.84375 48.1875 33.796875 48.1875 
Q 26.515625 48.1875 22.3125 43.546875 
Q 18.109375 38.921875 18.109375 30.90625 
L 18.109375 0 
L 9.078125 0 
L 9.078125 54.6875 
L 18.109375 54.6875 
L 18.109375 46.1875 
Q 21.34375 51.125 25.703125 53.5625 
Q 30.078125 56 35.796875 56 
Q 45.21875 56 50.046875 50.171875 
Q 54.890625 44.34375 54.890625 33.015625 
z
" id="DejaVuSans-110"/>
       <path d="M 34.28125 27.484375 
Q 23.390625 27.484375 19.1875 25 
Q 14.984375 22.515625 14.984375 16.5 
Q 14.984375 11.71875 18.140625 8.90625 
Q 21.296875 6.109375 26.703125 6.109375 
Q 34.1875 6.109375 38.703125 11.40625 
Q 43.21875 16.703125 43.21875 25.484375 
L 43.21875 27.484375 
z
M 52.203125 31.203125 
L 52.203125 0 
L 43.21875 0 
L 43.21875 8.296875 
Q 40.140625 3.328125 35.546875 0.953125 
Q 30.953125 -1.421875 24.3125 -1.421875 
Q 15.921875 -1.421875 10.953125 3.296875 
Q 6 8.015625 6 15.921875 
Q 6 25.140625 12.171875 29.828125 
Q 18.359375 34.515625 30.609375 34.515625 
L 43.21875 34.515625 
L 43.21875 35.40625 
Q 43.21875 41.609375 39.140625 45 
Q 35.0625 48.390625 27.6875 48.390625 
Q 23 48.390625 18.546875 47.265625 
Q 14.109375 46.140625 10.015625 43.890625 
L 10.015625 52.203125 
Q 14.9375 54.109375 19.578125 55.046875 
Q 24.21875 56 28.609375 56 
Q 40.484375 56 46.34375 49.84375 
Q 52.203125 43.703125 52.203125 31.203125 
z
" id="DejaVuSans-97"/>
       <path d="M 9.421875 75.984375 
L 18.40625 75.984375 
L 18.40625 0 
L 9.421875 0 
z
" id="DejaVuSans-108"/>
       <path d="M 30.609375 48.390625 
Q 23.390625 48.390625 19.1875 42.75 
Q 14.984375 37.109375 14.984375 27.296875 
Q 14.984375 17.484375 19.15625 11.84375 
Q 23.34375 6.203125 30.609375 6.203125 
Q 37.796875 6.203125 41.984375 11.859375 
Q 46.1875 17.53125 46.1875 27.296875 
Q 46.1875 37.015625 41.984375 42.703125 
Q 37.796875 48.390625 30.609375 48.390625 
z
M 30.609375 56 
Q 42.328125 56 49.015625 48.375 
Q 55.71875 40.765625 55.71875 27.296875 
Q 55.71875 13.875 49.015625 6.21875 
Q 42.328125 -1.421875 30.609375 -1.421875 
Q 18.84375 -1.421875 12.171875 6.21875 
Q 5.515625 13.875 5.515625 27.296875 
Q 5.515625 40.765625 12.171875 48.375 
Q 18.84375 56 30.609375 56 
z
" id="DejaVuSans-111"/>
      </defs>
      <g transform="translate(132.705655 424.378172)rotate(-45)scale(0.16 -0.16)">
       <use xlink:href="#DejaVuSans-76"/>
       <use x="55.712891" xlink:href="#DejaVuSans-105"/>
       <use x="83.496094" xlink:href="#DejaVuSans-110"/>
       <use x="146.875" xlink:href="#DejaVuSans-97"/>
       <use x="208.154297" xlink:href="#DejaVuSans-108"/>
       <use x="235.9375" xlink:href="#DejaVuSans-111"/>
       <use x="297.119141" xlink:href="#DejaVuSans-111"/>
       <use x="358.300781" xlink:href="#DejaVuSans-108"/>
      </g>
     </g>
    </g>
    <g id="xtick_2">
     <g id="line2d_28">
      <g>
       <use style="stroke:#000000;" x="205.87379" xlink:href="#m4f93c74efd" y="366.6"/>
      </g>
     </g>
     <g id="text_2">
      <!-- Geraniol -->
      <defs>
       <path d="M 59.515625 10.40625 
L 59.515625 29.984375 
L 43.40625 29.984375 
L 43.40625 38.09375 
L 69.28125 38.09375 
L 69.28125 6.78125 
Q 63.578125 2.734375 56.6875 0.65625 
Q 49.8125 -1.421875 42 -1.421875 
Q 24.90625 -1.421875 15.25 8.5625 
Q 5.609375 18.5625 5.609375 36.375 
Q 5.609375 54.25 15.25 64.234375 
Q 24.90625 74.21875 42 74.21875 
Q 49.125 74.21875 55.546875 72.453125 
Q 61.96875 70.703125 67.390625 67.28125 
L 67.390625 56.78125 
Q 61.921875 61.421875 55.765625 63.765625 
Q 49.609375 66.109375 42.828125 66.109375 
Q 29.4375 66.109375 22.71875 58.640625 
Q 16.015625 51.171875 16.015625 36.375 
Q 16.015625 21.625 22.71875 14.15625 
Q 29.4375 6.6875 42.828125 6.6875 
Q 48.046875 6.6875 52.140625 7.59375 
Q 56.25 8.5 59.515625 10.40625 
z
" id="DejaVuSans-71"/>
       <path d="M 56.203125 29.59375 
L 56.203125 25.203125 
L 14.890625 25.203125 
Q 15.484375 15.921875 20.484375 11.0625 
Q 25.484375 6.203125 34.421875 6.203125 
Q 39.59375 6.203125 44.453125 7.46875 
Q 49.3125 8.734375 54.109375 11.28125 
L 54.109375 2.78125 
Q 49.265625 0.734375 44.1875 -0.34375 
Q 39.109375 -1.421875 33.890625 -1.421875 
Q 20.796875 -1.421875 13.15625 6.1875 
Q 5.515625 13.8125 5.515625 26.8125 
Q 5.515625 40.234375 12.765625 48.109375 
Q 20.015625 56 32.328125 56 
Q 43.359375 56 49.78125 48.890625 
Q 56.203125 41.796875 56.203125 29.59375 
z
M 47.21875 32.234375 
Q 47.125 39.59375 43.09375 43.984375 
Q 39.0625 48.390625 32.421875 48.390625 
Q 24.90625 48.390625 20.390625 44.140625 
Q 15.875 39.890625 15.1875 32.171875 
z
" id="DejaVuSans-101"/>
       <path d="M 41.109375 46.296875 
Q 39.59375 47.171875 37.8125 47.578125 
Q 36.03125 48 33.890625 48 
Q 26.265625 48 22.1875 43.046875 
Q 18.109375 38.09375 18.109375 28.8125 
L 18.109375 0 
L 9.078125 0 
L 9.078125 54.6875 
L 18.109375 54.6875 
L 18.109375 46.1875 
Q 20.953125 51.171875 25.484375 53.578125 
Q 30.03125 56 36.53125 56 
Q 37.453125 56 38.578125 55.875 
Q 39.703125 55.765625 41.0625 55.515625 
z
" id="DejaVuSans-114"/>
      </defs>
      <g transform="translate(185.150258 428.387468)rotate(-45)scale(0.16 -0.16)">
       <use xlink:href="#DejaVuSans-71"/>
       <use x="77.490234" xlink:href="#DejaVuSans-101"/>
       <use x="139.013672" xlink:href="#DejaVuSans-114"/>
       <use x="180.126953" xlink:href="#DejaVuSans-97"/>
       <use x="241.40625" xlink:href="#DejaVuSans-110"/>
       <use x="304.785156" xlink:href="#DejaVuSans-105"/>
       <use x="332.568359" xlink:href="#DejaVuSans-111"/>
       <use x="393.75" xlink:href="#DejaVuSans-108"/>
      </g>
     </g>
    </g>
    <g id="xtick_3">
     <g id="line2d_29">
      <g>
       <use style="stroke:#000000;" x="260.32304" xlink:href="#m4f93c74efd" y="366.6"/>
      </g>
     </g>
     <g id="text_3">
      <!-- Citral -->
      <defs>
       <path d="M 64.40625 67.28125 
L 64.40625 56.890625 
Q 59.421875 61.53125 53.78125 63.8125 
Q 48.140625 66.109375 41.796875 66.109375 
Q 29.296875 66.109375 22.65625 58.46875 
Q 16.015625 50.828125 16.015625 36.375 
Q 16.015625 21.96875 22.65625 14.328125 
Q 29.296875 6.6875 41.796875 6.6875 
Q 48.140625 6.6875 53.78125 8.984375 
Q 59.421875 11.28125 64.40625 15.921875 
L 64.40625 5.609375 
Q 59.234375 2.09375 53.4375 0.328125 
Q 47.65625 -1.421875 41.21875 -1.421875 
Q 24.65625 -1.421875 15.125 8.703125 
Q 5.609375 18.84375 5.609375 36.375 
Q 5.609375 53.953125 15.125 64.078125 
Q 24.65625 74.21875 41.21875 74.21875 
Q 47.75 74.21875 53.53125 72.484375 
Q 59.328125 70.75 64.40625 67.28125 
z
" id="DejaVuSans-67"/>
       <path d="M 18.3125 70.21875 
L 18.3125 54.6875 
L 36.8125 54.6875 
L 36.8125 47.703125 
L 18.3125 47.703125 
L 18.3125 18.015625 
Q 18.3125 11.328125 20.140625 9.421875 
Q 21.96875 7.515625 27.59375 7.515625 
L 36.8125 7.515625 
L 36.8125 0 
L 27.59375 0 
Q 17.1875 0 13.234375 3.875 
Q 9.28125 7.765625 9.28125 18.015625 
L 9.28125 47.703125 
L 2.6875 47.703125 
L 2.6875 54.6875 
L 9.28125 54.6875 
L 9.28125 70.21875 
z
" id="DejaVuSans-116"/>
      </defs>
      <g transform="translate(248.341999 410.902485)rotate(-45)scale(0.16 -0.16)">
       <use xlink:href="#DejaVuSans-67"/>
       <use x="69.824219" xlink:href="#DejaVuSans-105"/>
       <use x="97.607422" xlink:href="#DejaVuSans-116"/>
       <use x="136.816406" xlink:href="#DejaVuSans-114"/>
       <use x="177.929688" xlink:href="#DejaVuSans-97"/>
       <use x="239.208984" xlink:href="#DejaVuSans-108"/>
      </g>
     </g>
    </g>
    <g id="xtick_4">
     <g id="line2d_30">
      <g>
       <use style="stroke:#000000;" x="314.77229" xlink:href="#m4f93c74efd" y="366.6"/>
      </g>
     </g>
     <g id="text_4">
      <!-- Limonene -->
      <defs>
       <path d="M 52 44.1875 
Q 55.375 50.25 60.0625 53.125 
Q 64.75 56 71.09375 56 
Q 79.640625 56 84.28125 50.015625 
Q 88.921875 44.046875 88.921875 33.015625 
L 88.921875 0 
L 79.890625 0 
L 79.890625 32.71875 
Q 79.890625 40.578125 77.09375 44.375 
Q 74.3125 48.1875 68.609375 48.1875 
Q 61.625 48.1875 57.5625 43.546875 
Q 53.515625 38.921875 53.515625 30.90625 
L 53.515625 0 
L 44.484375 0 
L 44.484375 32.71875 
Q 44.484375 40.625 41.703125 44.40625 
Q 38.921875 48.1875 33.109375 48.1875 
Q 26.21875 48.1875 22.15625 43.53125 
Q 18.109375 38.875 18.109375 30.90625 
L 18.109375 0 
L 9.078125 0 
L 9.078125 54.6875 
L 18.109375 54.6875 
L 18.109375 46.1875 
Q 21.1875 51.21875 25.484375 53.609375 
Q 29.78125 56 35.6875 56 
Q 41.65625 56 45.828125 52.96875 
Q 50 49.953125 52 44.1875 
z
" id="DejaVuSans-109"/>
      </defs>
      <g transform="translate(290.067747 436.34949)rotate(-45)scale(0.16 -0.16)">
       <use xlink:href="#DejaVuSans-76"/>
       <use x="55.712891" xlink:href="#DejaVuSans-105"/>
       <use x="83.496094" xlink:href="#DejaVuSans-109"/>
       <use x="180.908203" xlink:href="#DejaVuSans-111"/>
       <use x="242.089844" xlink:href="#DejaVuSans-110"/>
       <use x="305.46875" xlink:href="#DejaVuSans-101"/>
       <use x="366.992188" xlink:href="#DejaVuSans-110"/>
       <use x="430.371094" xlink:href="#DejaVuSans-101"/>
      </g>
     </g>
    </g>
    <g id="xtick_5">
     <g id="line2d_31">
      <g>
       <use style="stroke:#000000;" x="369.221541" xlink:href="#m4f93c74efd" y="366.6"/>
      </g>
     </g>
     <g id="text_5">
      <!-- Carvone -->
      <defs>
       <path d="M 2.984375 54.6875 
L 12.5 54.6875 
L 29.59375 8.796875 
L 46.6875 54.6875 
L 56.203125 54.6875 
L 35.6875 0 
L 23.484375 0 
z
" id="DejaVuSans-118"/>
      </defs>
      <g transform="translate(348.726051 427.931384)rotate(-45)scale(0.16 -0.16)">
       <use xlink:href="#DejaVuSans-67"/>
       <use x="69.824219" xlink:href="#DejaVuSans-97"/>
       <use x="131.103516" xlink:href="#DejaVuSans-114"/>
       <use x="172.216797" xlink:href="#DejaVuSans-118"/>
       <use x="231.396484" xlink:href="#DejaVuSans-111"/>
       <use x="292.578125" xlink:href="#DejaVuSans-110"/>
       <use x="355.957031" xlink:href="#DejaVuSans-101"/>
      </g>
     </g>
    </g>
    <g id="xtick_6">
     <g id="line2d_32">
      <g>
       <use style="stroke:#000000;" x="423.670791" xlink:href="#m4f93c74efd" y="366.6"/>
      </g>
     </g>
     <g id="text_6">
      <!-- Camphene -->
      <defs>
       <path d="M 18.109375 8.203125 
L 18.109375 -20.796875 
L 9.078125 -20.796875 
L 9.078125 54.6875 
L 18.109375 54.6875 
L 18.109375 46.390625 
Q 20.953125 51.265625 25.265625 53.625 
Q 29.59375 56 35.59375 56 
Q 45.5625 56 51.78125 48.09375 
Q 58.015625 40.1875 58.015625 27.296875 
Q 58.015625 14.40625 51.78125 6.484375 
Q 45.5625 -1.421875 35.59375 -1.421875 
Q 29.59375 -1.421875 25.265625 0.953125 
Q 20.953125 3.328125 18.109375 8.203125 
z
M 48.6875 27.296875 
Q 48.6875 37.203125 44.609375 42.84375 
Q 40.53125 48.484375 33.40625 48.484375 
Q 26.265625 48.484375 22.1875 42.84375 
Q 18.109375 37.203125 18.109375 27.296875 
Q 18.109375 17.390625 22.1875 11.75 
Q 26.265625 6.109375 33.40625 6.109375 
Q 40.53125 6.109375 44.609375 11.75 
Q 48.6875 17.390625 48.6875 27.296875 
z
" id="DejaVuSans-112"/>
       <path d="M 54.890625 33.015625 
L 54.890625 0 
L 45.90625 0 
L 45.90625 32.71875 
Q 45.90625 40.484375 42.875 44.328125 
Q 39.84375 48.1875 33.796875 48.1875 
Q 26.515625 48.1875 22.3125 43.546875 
Q 18.109375 38.921875 18.109375 30.90625 
L 18.109375 0 
L 9.078125 0 
L 9.078125 75.984375 
L 18.109375 75.984375 
L 18.109375 46.1875 
Q 21.34375 51.125 25.703125 53.5625 
Q 30.078125 56 35.796875 56 
Q 45.21875 56 50.046875 50.171875 
Q 54.890625 44.34375 54.890625 33.015625 
z
" id="DejaVuSans-104"/>
      </defs>
      <g transform="translate(396.143124 441.995738)rotate(-45)scale(0.16 -0.16)">
       <use xlink:href="#DejaVuSans-67"/>
       <use x="69.824219" xlink:href="#DejaVuSans-97"/>
       <use x="131.103516" xlink:href="#DejaVuSans-109"/>
       <use x="228.515625" xlink:href="#DejaVuSans-112"/>
       <use x="291.992188" xlink:href="#DejaVuSans-104"/>
       <use x="355.371094" xlink:href="#DejaVuSans-101"/>
       <use x="416.894531" xlink:href="#DejaVuSans-110"/>
       <use x="480.273438" xlink:href="#DejaVuSans-101"/>
      </g>
     </g>
    </g>
    <g id="xtick_7">
     <g id="line2d_33">
      <g>
       <use style="stroke:#000000;" x="478.120041" xlink:href="#m4f93c74efd" y="366.6"/>
      </g>
     </g>
     <g id="text_7">
      <!-- a-pinene -->
      <defs>
       <path d="M 4.890625 31.390625 
L 31.203125 31.390625 
L 31.203125 23.390625 
L 4.890625 23.390625 
z
" id="DejaVuSans-45"/>
      </defs>
      <g transform="translate(456.440147 430.300191)rotate(-45)scale(0.16 -0.16)">
       <use xlink:href="#DejaVuSans-97"/>
       <use x="61.279297" xlink:href="#DejaVuSans-45"/>
       <use x="97.363281" xlink:href="#DejaVuSans-112"/>
       <use x="160.839844" xlink:href="#DejaVuSans-105"/>
       <use x="188.623047" xlink:href="#DejaVuSans-110"/>
       <use x="252.001953" xlink:href="#DejaVuSans-101"/>
       <use x="313.525391" xlink:href="#DejaVuSans-110"/>
       <use x="376.904297" xlink:href="#DejaVuSans-101"/>
      </g>
     </g>
    </g>
    <g id="xtick_8">
     <g id="line2d_34">
      <g>
       <use style="stroke:#000000;" x="532.569292" xlink:href="#m4f93c74efd" y="366.6"/>
      </g>
     </g>
     <g id="text_8">
      <!-- Verbenol -->
      <defs>
       <path d="M 28.609375 0 
L 0.78125 72.90625 
L 11.078125 72.90625 
L 34.1875 11.53125 
L 57.328125 72.90625 
L 67.578125 72.90625 
L 39.796875 0 
z
" id="DejaVuSans-86"/>
       <path d="M 48.6875 27.296875 
Q 48.6875 37.203125 44.609375 42.84375 
Q 40.53125 48.484375 33.40625 48.484375 
Q 26.265625 48.484375 22.1875 42.84375 
Q 18.109375 37.203125 18.109375 27.296875 
Q 18.109375 17.390625 22.1875 11.75 
Q 26.265625 6.109375 33.40625 6.109375 
Q 40.53125 6.109375 44.609375 11.75 
Q 48.6875 17.390625 48.6875 27.296875 
z
M 18.109375 46.390625 
Q 20.953125 51.265625 25.265625 53.625 
Q 29.59375 56 35.59375 56 
Q 45.5625 56 51.78125 48.09375 
Q 58.015625 40.1875 58.015625 27.296875 
Q 58.015625 14.40625 51.78125 6.484375 
Q 45.5625 -1.421875 35.59375 -1.421875 
Q 29.59375 -1.421875 25.265625 0.953125 
Q 20.953125 3.328125 18.109375 8.203125 
L 18.109375 0 
L 9.078125 0 
L 9.078125 75.984375 
L 18.109375 75.984375 
z
" id="DejaVuSans-98"/>
      </defs>
      <g transform="translate(510.331667 431.415652)rotate(-45)scale(0.16 -0.16)">
       <use xlink:href="#DejaVuSans-86"/>
       <use x="68.298828" xlink:href="#DejaVuSans-101"/>
       <use x="129.822266" xlink:href="#DejaVuSans-114"/>
       <use x="170.935547" xlink:href="#DejaVuSans-98"/>
       <use x="234.412109" xlink:href="#DejaVuSans-101"/>
       <use x="295.935547" xlink:href="#DejaVuSans-110"/>
       <use x="359.314453" xlink:href="#DejaVuSans-111"/>
       <use x="420.496094" xlink:href="#DejaVuSans-108"/>
      </g>
     </g>
    </g>
    <g id="xtick_9">
     <g id="line2d_35">
      <g>
       <use style="stroke:#000000;" x="587.018542" xlink:href="#m4f93c74efd" y="366.6"/>
      </g>
     </g>
     <g id="text_9">
      <!-- Eucalyptol -->
      <defs>
       <path d="M 9.8125 72.90625 
L 55.90625 72.90625 
L 55.90625 64.59375 
L 19.671875 64.59375 
L 19.671875 43.015625 
L 54.390625 43.015625 
L 54.390625 34.71875 
L 19.671875 34.71875 
L 19.671875 8.296875 
L 56.78125 8.296875 
L 56.78125 0 
L 9.8125 0 
z
" id="DejaVuSans-69"/>
       <path d="M 8.5 21.578125 
L 8.5 54.6875 
L 17.484375 54.6875 
L 17.484375 21.921875 
Q 17.484375 14.15625 20.5 10.265625 
Q 23.53125 6.390625 29.59375 6.390625 
Q 36.859375 6.390625 41.078125 11.03125 
Q 45.3125 15.671875 45.3125 23.6875 
L 45.3125 54.6875 
L 54.296875 54.6875 
L 54.296875 0 
L 45.3125 0 
L 45.3125 8.40625 
Q 42.046875 3.421875 37.71875 1 
Q 33.40625 -1.421875 27.6875 -1.421875 
Q 18.265625 -1.421875 13.375 4.4375 
Q 8.5 10.296875 8.5 21.578125 
z
M 31.109375 56 
z
" id="DejaVuSans-117"/>
       <path d="M 48.78125 52.59375 
L 48.78125 44.1875 
Q 44.96875 46.296875 41.140625 47.34375 
Q 37.3125 48.390625 33.40625 48.390625 
Q 24.65625 48.390625 19.8125 42.84375 
Q 14.984375 37.3125 14.984375 27.296875 
Q 14.984375 17.28125 19.8125 11.734375 
Q 24.65625 6.203125 33.40625 6.203125 
Q 37.3125 6.203125 41.140625 7.25 
Q 44.96875 8.296875 48.78125 10.40625 
L 48.78125 2.09375 
Q 45.015625 0.34375 40.984375 -0.53125 
Q 36.96875 -1.421875 32.421875 -1.421875 
Q 20.0625 -1.421875 12.78125 6.34375 
Q 5.515625 14.109375 5.515625 27.296875 
Q 5.515625 40.671875 12.859375 48.328125 
Q 20.21875 56 33.015625 56 
Q 37.15625 56 41.109375 55.140625 
Q 45.0625 54.296875 48.78125 52.59375 
z
" id="DejaVuSans-99"/>
       <path d="M 32.171875 -5.078125 
Q 28.375 -14.84375 24.75 -17.8125 
Q 21.140625 -20.796875 15.09375 -20.796875 
L 7.90625 -20.796875 
L 7.90625 -13.28125 
L 13.1875 -13.28125 
Q 16.890625 -13.28125 18.9375 -11.515625 
Q 21 -9.765625 23.484375 -3.21875 
L 25.09375 0.875 
L 2.984375 54.6875 
L 12.5 54.6875 
L 29.59375 11.921875 
L 46.6875 54.6875 
L 56.203125 54.6875 
z
" id="DejaVuSans-121"/>
      </defs>
      <g transform="translate(560.642575 439.692337)rotate(-45)scale(0.16 -0.16)">
       <use xlink:href="#DejaVuSans-69"/>
       <use x="63.183594" xlink:href="#DejaVuSans-117"/>
       <use x="126.5625" xlink:href="#DejaVuSans-99"/>
       <use x="181.542969" xlink:href="#DejaVuSans-97"/>
       <use x="242.822266" xlink:href="#DejaVuSans-108"/>
       <use x="270.605469" xlink:href="#DejaVuSans-121"/>
       <use x="329.785156" xlink:href="#DejaVuSans-112"/>
       <use x="393.261719" xlink:href="#DejaVuSans-116"/>
       <use x="432.470703" xlink:href="#DejaVuSans-111"/>
       <use x="493.652344" xlink:href="#DejaVuSans-108"/>
      </g>
     </g>
    </g>
    <g id="xtick_10">
     <g id="line2d_36">
      <g>
       <use style="stroke:#000000;" x="641.467792" xlink:href="#m4f93c74efd" y="366.6"/>
      </g>
     </g>
     <g id="text_10">
      <!-- Fenchol -->
      <defs>
       <path d="M 9.8125 72.90625 
L 51.703125 72.90625 
L 51.703125 64.59375 
L 19.671875 64.59375 
L 19.671875 43.109375 
L 48.578125 43.109375 
L 48.578125 34.8125 
L 19.671875 34.8125 
L 19.671875 0 
L 9.8125 0 
z
" id="DejaVuSans-70"/>
      </defs>
      <g transform="translate(622.546499 424.782991)rotate(-45)scale(0.16 -0.16)">
       <use xlink:href="#DejaVuSans-70"/>
       <use x="57.441406" xlink:href="#DejaVuSans-101"/>
       <use x="118.964844" xlink:href="#DejaVuSans-110"/>
       <use x="182.34375" xlink:href="#DejaVuSans-99"/>
       <use x="237.324219" xlink:href="#DejaVuSans-104"/>
       <use x="300.703125" xlink:href="#DejaVuSans-111"/>
       <use x="361.884766" xlink:href="#DejaVuSans-108"/>
      </g>
     </g>
    </g>
    <g id="xtick_11">
     <g id="line2d_37">
      <g>
       <use style="stroke:#000000;" x="695.917042" xlink:href="#m4f93c74efd" y="366.6"/>
      </g>
     </g>
     <g id="text_11">
      <!-- Fenchone -->
      <g transform="translate(671.501529 435.77143)rotate(-45)scale(0.16 -0.16)">
       <use xlink:href="#DejaVuSans-70"/>
       <use x="57.441406" xlink:href="#DejaVuSans-101"/>
       <use x="118.964844" xlink:href="#DejaVuSans-110"/>
       <use x="182.34375" xlink:href="#DejaVuSans-99"/>
       <use x="237.324219" xlink:href="#DejaVuSans-104"/>
       <use x="300.703125" xlink:href="#DejaVuSans-111"/>
       <use x="361.884766" xlink:href="#DejaVuSans-110"/>
       <use x="425.263672" xlink:href="#DejaVuSans-101"/>
      </g>
     </g>
    </g>
    <g id="xtick_12">
     <g id="line2d_38">
      <g>
       <use style="stroke:#000000;" x="750.366293" xlink:href="#m4f93c74efd" y="366.6"/>
      </g>
     </g>
     <g id="text_12">
      <!-- Borneol -->
      <defs>
       <path d="M 19.671875 34.8125 
L 19.671875 8.109375 
L 35.5 8.109375 
Q 43.453125 8.109375 47.28125 11.40625 
Q 51.125 14.703125 51.125 21.484375 
Q 51.125 28.328125 47.28125 31.5625 
Q 43.453125 34.8125 35.5 34.8125 
z
M 19.671875 64.796875 
L 19.671875 42.828125 
L 34.28125 42.828125 
Q 41.5 42.828125 45.03125 45.53125 
Q 48.578125 48.25 48.578125 53.8125 
Q 48.578125 59.328125 45.03125 62.0625 
Q 41.5 64.796875 34.28125 64.796875 
z
M 9.8125 72.90625 
L 35.015625 72.90625 
Q 46.296875 72.90625 52.390625 68.21875 
Q 58.5 63.53125 58.5 54.890625 
Q 58.5 48.1875 55.375 44.234375 
Q 52.25 40.28125 46.1875 39.3125 
Q 53.46875 37.75 57.5 32.78125 
Q 61.53125 27.828125 61.53125 20.40625 
Q 61.53125 10.640625 54.890625 5.3125 
Q 48.25 0 35.984375 0 
L 9.8125 0 
z
" id="DejaVuSans-66"/>
      </defs>
      <g transform="translate(731.722539 424.227912)rotate(-45)scale(0.16 -0.16)">
       <use xlink:href="#DejaVuSans-66"/>
       <use x="68.603516" xlink:href="#DejaVuSans-111"/>
       <use x="129.785156" xlink:href="#DejaVuSans-114"/>
       <use x="170.882812" xlink:href="#DejaVuSans-110"/>
       <use x="234.261719" xlink:href="#DejaVuSans-101"/>
       <use x="295.785156" xlink:href="#DejaVuSans-111"/>
       <use x="356.966797" xlink:href="#DejaVuSans-108"/>
      </g>
     </g>
    </g>
    <g id="xtick_13">
     <g id="line2d_39">
      <g>
       <use style="stroke:#000000;" x="804.815543" xlink:href="#m4f93c74efd" y="366.6"/>
      </g>
     </g>
     <g id="text_13">
      <!-- Camphor -->
      <g transform="translate(782.047589 432.476313)rotate(-45)scale(0.16 -0.16)">
       <use xlink:href="#DejaVuSans-67"/>
       <use x="69.824219" xlink:href="#DejaVuSans-97"/>
       <use x="131.103516" xlink:href="#DejaVuSans-109"/>
       <use x="228.515625" xlink:href="#DejaVuSans-112"/>
       <use x="291.992188" xlink:href="#DejaVuSans-104"/>
       <use x="355.371094" xlink:href="#DejaVuSans-111"/>
       <use x="416.552734" xlink:href="#DejaVuSans-114"/>
      </g>
     </g>
    </g>
    <g id="text_14">
     <!-- Monoterpene (1mM) -->
     <defs>
      <path d="M 9.8125 72.90625 
L 24.515625 72.90625 
L 43.109375 23.296875 
L 61.8125 72.90625 
L 76.515625 72.90625 
L 76.515625 0 
L 66.890625 0 
L 66.890625 64.015625 
L 48.09375 14.015625 
L 38.1875 14.015625 
L 19.390625 64.015625 
L 19.390625 0 
L 9.8125 0 
z
" id="DejaVuSans-77"/>
      <path id="DejaVuSans-32"/>
      <path d="M 31 75.875 
Q 24.46875 64.65625 21.28125 53.65625 
Q 18.109375 42.671875 18.109375 31.390625 
Q 18.109375 20.125 21.3125 9.0625 
Q 24.515625 -2 31 -13.1875 
L 23.1875 -13.1875 
Q 15.875 -1.703125 12.234375 9.375 
Q 8.59375 20.453125 8.59375 31.390625 
Q 8.59375 42.28125 12.203125 53.3125 
Q 15.828125 64.359375 23.1875 75.875 
z
" id="DejaVuSans-40"/>
      <path d="M 12.40625 8.296875 
L 28.515625 8.296875 
L 28.515625 63.921875 
L 10.984375 60.40625 
L 10.984375 69.390625 
L 28.421875 72.90625 
L 38.28125 72.90625 
L 38.28125 8.296875 
L 54.390625 8.296875 
L 54.390625 0 
L 12.40625 0 
z
" id="DejaVuSans-49"/>
      <path d="M 8.015625 75.875 
L 15.828125 75.875 
Q 23.140625 64.359375 26.78125 53.3125 
Q 30.421875 42.28125 30.421875 31.390625 
Q 30.421875 20.453125 26.78125 9.375 
Q 23.140625 -1.703125 15.828125 -13.1875 
L 8.015625 -13.1875 
Q 14.5 -2 17.703125 9.0625 
Q 20.90625 20.125 20.90625 31.390625 
Q 20.90625 42.671875 17.703125 53.65625 
Q 14.5 64.65625 8.015625 75.875 
z
" id="DejaVuSans-41"/>
     </defs>
     <g transform="translate(394.117031 462.025823)scale(0.18 -0.18)">
      <use xlink:href="#DejaVuSans-77"/>
      <use x="86.279297" xlink:href="#DejaVuSans-111"/>
      <use x="147.460938" xlink:href="#DejaVuSans-110"/>
      <use x="210.839844" xlink:href="#DejaVuSans-111"/>
      <use x="272.021484" xlink:href="#DejaVuSans-116"/>
      <use x="311.230469" xlink:href="#DejaVuSans-101"/>
      <use x="372.753906" xlink:href="#DejaVuSans-114"/>
      <use x="413.867188" xlink:href="#DejaVuSans-112"/>
      <use x="477.34375" xlink:href="#DejaVuSans-101"/>
      <use x="538.867188" xlink:href="#DejaVuSans-110"/>
      <use x="602.246094" xlink:href="#DejaVuSans-101"/>
      <use x="663.769531" xlink:href="#DejaVuSans-32"/>
      <use x="695.556641" xlink:href="#DejaVuSans-40"/>
      <use x="734.570312" xlink:href="#DejaVuSans-49"/>
      <use x="798.193359" xlink:href="#DejaVuSans-109"/>
      <use x="895.605469" xlink:href="#DejaVuSans-77"/>
      <use x="981.884766" xlink:href="#DejaVuSans-41"/>
     </g>
    </g>
   </g>
   <g id="matplotlib.axis_2">
    <g id="ytick_1">
     <g id="line2d_40">
      <defs>
       <path d="M 0 0 
L -2 0 
" id="m040a028943" style="stroke:#000000;"/>
      </defs>
      <g>
       <use style="stroke:#000000;" x="108" xlink:href="#m040a028943" y="366.6"/>
      </g>
     </g>
     <g id="text_15">
      <!-- 0 -->
      <defs>
       <path d="M 31.78125 66.40625 
Q 24.171875 66.40625 20.328125 58.90625 
Q 16.5 51.421875 16.5 36.375 
Q 16.5 21.390625 20.328125 13.890625 
Q 24.171875 6.390625 31.78125 6.390625 
Q 39.453125 6.390625 43.28125 13.890625 
Q 47.125 21.390625 47.125 36.375 
Q 47.125 51.421875 43.28125 58.90625 
Q 39.453125 66.40625 31.78125 66.40625 
z
M 31.78125 74.21875 
Q 44.046875 74.21875 50.515625 64.515625 
Q 56.984375 54.828125 56.984375 36.375 
Q 56.984375 17.96875 50.515625 8.265625 
Q 44.046875 -1.421875 31.78125 -1.421875 
Q 19.53125 -1.421875 13.0625 8.265625 
Q 6.59375 17.96875 6.59375 36.375 
Q 6.59375 54.828125 13.0625 64.515625 
Q 19.53125 74.21875 31.78125 74.21875 
z
" id="DejaVuSans-48"/>
      </defs>
      <g transform="translate(91.0475 373.438594)scale(0.18 -0.18)">
       <use xlink:href="#DejaVuSans-48"/>
      </g>
     </g>
    </g>
    <g id="ytick_2">
     <g id="line2d_41">
      <g>
       <use style="stroke:#000000;" x="108" xlink:href="#m040a028943" y="326.104848"/>
      </g>
     </g>
     <g id="text_16">
      <!-- 1 -->
      <g transform="translate(91.0475 332.943441)scale(0.18 -0.18)">
       <use xlink:href="#DejaVuSans-49"/>
      </g>
     </g>
    </g>
    <g id="ytick_3">
     <g id="line2d_42">
      <g>
       <use style="stroke:#000000;" x="108" xlink:href="#m040a028943" y="285.609695"/>
      </g>
     </g>
     <g id="text_17">
      <!-- 2 -->
      <defs>
       <path d="M 19.1875 8.296875 
L 53.609375 8.296875 
L 53.609375 0 
L 7.328125 0 
L 7.328125 8.296875 
Q 12.9375 14.109375 22.625 23.890625 
Q 32.328125 33.6875 34.8125 36.53125 
Q 39.546875 41.84375 41.421875 45.53125 
Q 43.3125 49.21875 43.3125 52.78125 
Q 43.3125 58.59375 39.234375 62.25 
Q 35.15625 65.921875 28.609375 65.921875 
Q 23.96875 65.921875 18.8125 64.3125 
Q 13.671875 62.703125 7.8125 59.421875 
L 7.8125 69.390625 
Q 13.765625 71.78125 18.9375 73 
Q 24.125 74.21875 28.421875 74.21875 
Q 39.75 74.21875 46.484375 68.546875 
Q 53.21875 62.890625 53.21875 53.421875 
Q 53.21875 48.921875 51.53125 44.890625 
Q 49.859375 40.875 45.40625 35.40625 
Q 44.1875 33.984375 37.640625 27.21875 
Q 31.109375 20.453125 19.1875 8.296875 
z
" id="DejaVuSans-50"/>
      </defs>
      <g transform="translate(91.0475 292.448289)scale(0.18 -0.18)">
       <use xlink:href="#DejaVuSans-50"/>
      </g>
     </g>
    </g>
    <g id="ytick_4">
     <g id="line2d_43">
      <g>
       <use style="stroke:#000000;" x="108" xlink:href="#m040a028943" y="245.114543"/>
      </g>
     </g>
     <g id="text_18">
      <!-- 3 -->
      <defs>
       <path d="M 40.578125 39.3125 
Q 47.65625 37.796875 51.625 33 
Q 55.609375 28.21875 55.609375 21.1875 
Q 55.609375 10.40625 48.1875 4.484375 
Q 40.765625 -1.421875 27.09375 -1.421875 
Q 22.515625 -1.421875 17.65625 -0.515625 
Q 12.796875 0.390625 7.625 2.203125 
L 7.625 11.71875 
Q 11.71875 9.328125 16.59375 8.109375 
Q 21.484375 6.890625 26.8125 6.890625 
Q 36.078125 6.890625 40.9375 10.546875 
Q 45.796875 14.203125 45.796875 21.1875 
Q 45.796875 27.640625 41.28125 31.265625 
Q 36.765625 34.90625 28.71875 34.90625 
L 20.21875 34.90625 
L 20.21875 43.015625 
L 29.109375 43.015625 
Q 36.375 43.015625 40.234375 45.921875 
Q 44.09375 48.828125 44.09375 54.296875 
Q 44.09375 59.90625 40.109375 62.90625 
Q 36.140625 65.921875 28.71875 65.921875 
Q 24.65625 65.921875 20.015625 65.03125 
Q 15.375 64.15625 9.8125 62.3125 
L 9.8125 71.09375 
Q 15.4375 72.65625 20.34375 73.4375 
Q 25.25 74.21875 29.59375 74.21875 
Q 40.828125 74.21875 47.359375 69.109375 
Q 53.90625 64.015625 53.90625 55.328125 
Q 53.90625 49.265625 50.4375 45.09375 
Q 46.96875 40.921875 40.578125 39.3125 
z
" id="DejaVuSans-51"/>
      </defs>
      <g transform="translate(91.0475 251.953136)scale(0.18 -0.18)">
       <use xlink:href="#DejaVuSans-51"/>
      </g>
     </g>
    </g>
    <g id="ytick_5">
     <g id="line2d_44">
      <g>
       <use style="stroke:#000000;" x="108" xlink:href="#m040a028943" y="204.61939"/>
      </g>
     </g>
     <g id="text_19">
      <!-- 4 -->
      <defs>
       <path d="M 37.796875 64.3125 
L 12.890625 25.390625 
L 37.796875 25.390625 
z
M 35.203125 72.90625 
L 47.609375 72.90625 
L 47.609375 25.390625 
L 58.015625 25.390625 
L 58.015625 17.1875 
L 47.609375 17.1875 
L 47.609375 0 
L 37.796875 0 
L 37.796875 17.1875 
L 4.890625 17.1875 
L 4.890625 26.703125 
z
" id="DejaVuSans-52"/>
      </defs>
      <g transform="translate(91.0475 211.457984)scale(0.18 -0.18)">
       <use xlink:href="#DejaVuSans-52"/>
      </g>
     </g>
    </g>
    <g id="ytick_6">
     <g id="line2d_45">
      <g>
       <use style="stroke:#000000;" x="108" xlink:href="#m040a028943" y="164.124238"/>
      </g>
     </g>
     <g id="text_20">
      <!-- 5 -->
      <defs>
       <path d="M 10.796875 72.90625 
L 49.515625 72.90625 
L 49.515625 64.59375 
L 19.828125 64.59375 
L 19.828125 46.734375 
Q 21.96875 47.46875 24.109375 47.828125 
Q 26.265625 48.1875 28.421875 48.1875 
Q 40.625 48.1875 47.75 41.5 
Q 54.890625 34.8125 54.890625 23.390625 
Q 54.890625 11.625 47.5625 5.09375 
Q 40.234375 -1.421875 26.90625 -1.421875 
Q 22.3125 -1.421875 17.546875 -0.640625 
Q 12.796875 0.140625 7.71875 1.703125 
L 7.71875 11.625 
Q 12.109375 9.234375 16.796875 8.0625 
Q 21.484375 6.890625 26.703125 6.890625 
Q 35.15625 6.890625 40.078125 11.328125 
Q 45.015625 15.765625 45.015625 23.390625 
Q 45.015625 31 40.078125 35.4375 
Q 35.15625 39.890625 26.703125 39.890625 
Q 22.75 39.890625 18.8125 39.015625 
Q 14.890625 38.140625 10.796875 36.28125 
z
" id="DejaVuSans-53"/>
      </defs>
      <g transform="translate(91.0475 170.962831)scale(0.18 -0.18)">
       <use xlink:href="#DejaVuSans-53"/>
      </g>
     </g>
    </g>
    <g id="ytick_7">
     <g id="line2d_46">
      <g>
       <use style="stroke:#000000;" x="108" xlink:href="#m040a028943" y="123.629085"/>
      </g>
     </g>
     <g id="text_21">
      <!-- 6 -->
      <defs>
       <path d="M 33.015625 40.375 
Q 26.375 40.375 22.484375 35.828125 
Q 18.609375 31.296875 18.609375 23.390625 
Q 18.609375 15.53125 22.484375 10.953125 
Q 26.375 6.390625 33.015625 6.390625 
Q 39.65625 6.390625 43.53125 10.953125 
Q 47.40625 15.53125 47.40625 23.390625 
Q 47.40625 31.296875 43.53125 35.828125 
Q 39.65625 40.375 33.015625 40.375 
z
M 52.59375 71.296875 
L 52.59375 62.3125 
Q 48.875 64.0625 45.09375 64.984375 
Q 41.3125 65.921875 37.59375 65.921875 
Q 27.828125 65.921875 22.671875 59.328125 
Q 17.53125 52.734375 16.796875 39.40625 
Q 19.671875 43.65625 24.015625 45.921875 
Q 28.375 48.1875 33.59375 48.1875 
Q 44.578125 48.1875 50.953125 41.515625 
Q 57.328125 34.859375 57.328125 23.390625 
Q 57.328125 12.15625 50.6875 5.359375 
Q 44.046875 -1.421875 33.015625 -1.421875 
Q 20.359375 -1.421875 13.671875 8.265625 
Q 6.984375 17.96875 6.984375 36.375 
Q 6.984375 53.65625 15.1875 63.9375 
Q 23.390625 74.21875 37.203125 74.21875 
Q 40.921875 74.21875 44.703125 73.484375 
Q 48.484375 72.75 52.59375 71.296875 
z
" id="DejaVuSans-54"/>
      </defs>
      <g transform="translate(91.0475 130.467679)scale(0.18 -0.18)">
       <use xlink:href="#DejaVuSans-54"/>
      </g>
     </g>
    </g>
    <g id="ytick_8">
     <g id="line2d_47">
      <g>
       <use style="stroke:#000000;" x="108" xlink:href="#m040a028943" y="83.133933"/>
      </g>
     </g>
     <g id="text_22">
      <!-- 7 -->
      <defs>
       <path d="M 8.203125 72.90625 
L 55.078125 72.90625 
L 55.078125 68.703125 
L 28.609375 0 
L 18.3125 0 
L 43.21875 64.59375 
L 8.203125 64.59375 
z
" id="DejaVuSans-55"/>
      </defs>
      <g transform="translate(91.0475 89.972526)scale(0.18 -0.18)">
       <use xlink:href="#DejaVuSans-55"/>
      </g>
     </g>
    </g>
    <g id="ytick_9">
     <g id="line2d_48">
      <g>
       <use style="stroke:#000000;" x="108" xlink:href="#m040a028943" y="42.63878"/>
      </g>
     </g>
     <g id="text_23">
      <!-- 8 -->
      <defs>
       <path d="M 31.78125 34.625 
Q 24.75 34.625 20.71875 30.859375 
Q 16.703125 27.09375 16.703125 20.515625 
Q 16.703125 13.921875 20.71875 10.15625 
Q 24.75 6.390625 31.78125 6.390625 
Q 38.8125 6.390625 42.859375 10.171875 
Q 46.921875 13.96875 46.921875 20.515625 
Q 46.921875 27.09375 42.890625 30.859375 
Q 38.875 34.625 31.78125 34.625 
z
M 21.921875 38.8125 
Q 15.578125 40.375 12.03125 44.71875 
Q 8.5 49.078125 8.5 55.328125 
Q 8.5 64.0625 14.71875 69.140625 
Q 20.953125 74.21875 31.78125 74.21875 
Q 42.671875 74.21875 48.875 69.140625 
Q 55.078125 64.0625 55.078125 55.328125 
Q 55.078125 49.078125 51.53125 44.71875 
Q 48 40.375 41.703125 38.8125 
Q 48.828125 37.15625 52.796875 32.3125 
Q 56.78125 27.484375 56.78125 20.515625 
Q 56.78125 9.90625 50.3125 4.234375 
Q 43.84375 -1.421875 31.78125 -1.421875 
Q 19.734375 -1.421875 13.25 4.234375 
Q 6.78125 9.90625 6.78125 20.515625 
Q 6.78125 27.484375 10.78125 32.3125 
Q 14.796875 37.15625 21.921875 38.8125 
z
M 18.3125 54.390625 
Q 18.3125 48.734375 21.84375 45.5625 
Q 25.390625 42.390625 31.78125 42.390625 
Q 38.140625 42.390625 41.71875 45.5625 
Q 45.3125 48.734375 45.3125 54.390625 
Q 45.3125 60.0625 41.71875 63.234375 
Q 38.140625 66.40625 31.78125 66.40625 
Q 25.390625 66.40625 21.84375 63.234375 
Q 18.3125 60.0625 18.3125 54.390625 
z
" id="DejaVuSans-56"/>
      </defs>
      <g transform="translate(91.0475 49.477374)scale(0.18 -0.18)">
       <use xlink:href="#DejaVuSans-56"/>
      </g>
     </g>
    </g>
    <g id="text_24">
     <!-- $(RFU/OD) \times 10^4$ -->
     <defs>
      <path d="M 25.203125 64.796875 
L 20.21875 38.921875 
L 32.90625 38.921875 
Q 40.375 38.921875 44.984375 43.046875 
Q 49.609375 47.171875 49.609375 53.8125 
Q 49.609375 59.125 46.5 61.953125 
Q 43.40625 64.796875 37.59375 64.796875 
z
M 43.3125 35.015625 
Q 46.4375 34.28125 48.515625 31.390625 
Q 50.59375 28.515625 53.328125 19.921875 
L 59.515625 0 
L 49.125 0 
L 43.40625 18.703125 
Q 41.21875 25.921875 38.328125 28.359375 
Q 35.453125 30.8125 29.5 30.8125 
L 18.609375 30.8125 
L 12.59375 0 
L 2.6875 0 
L 16.890625 72.90625 
L 39.109375 72.90625 
Q 49.21875 72.90625 54.609375 68.328125 
Q 60.015625 63.765625 60.015625 55.171875 
Q 60.015625 47.5625 55.421875 41.984375 
Q 50.828125 36.421875 43.3125 35.015625 
z
" id="DejaVuSans-Oblique-82"/>
      <path d="M 16.890625 72.90625 
L 58.6875 72.90625 
L 57.078125 64.59375 
L 25.09375 64.59375 
L 20.90625 43.109375 
L 49.8125 43.109375 
L 48.1875 34.8125 
L 19.28125 34.8125 
L 12.5 0 
L 2.6875 0 
z
" id="DejaVuSans-Oblique-70"/>
      <path d="M 15.484375 72.90625 
L 25.390625 72.90625 
L 16.796875 28.609375 
Q 16.265625 25.640625 16.046875 23.703125 
Q 15.828125 21.78125 15.828125 20.3125 
Q 15.828125 13.578125 19.578125 10.078125 
Q 23.34375 6.59375 30.609375 6.59375 
Q 40.046875 6.59375 45.28125 11.765625 
Q 50.53125 16.9375 52.78125 28.609375 
L 61.375 72.90625 
L 71.296875 72.90625 
L 62.5 27.390625 
Q 59.625 12.640625 51.5625 5.609375 
Q 43.5 -1.421875 29.5 -1.421875 
Q 18.5625 -1.421875 12.1875 4.078125 
Q 5.8125 9.578125 5.8125 19 
Q 5.8125 20.703125 6.046875 22.828125 
Q 6.296875 24.953125 6.78125 27.390625 
z
" id="DejaVuSans-Oblique-85"/>
      <path d="M 25.390625 72.90625 
L 33.6875 72.90625 
L 8.296875 -9.28125 
L 0 -9.28125 
z
" id="DejaVuSans-47"/>
      <path d="M 45.609375 66.21875 
Q 37.5 66.21875 31.296875 62.28125 
Q 25.09375 58.34375 20.515625 50.296875 
Q 17.578125 45.171875 16.03125 39.40625 
Q 14.5 33.640625 14.5 27.78125 
Q 14.5 17.625 19.359375 12.109375 
Q 24.21875 6.59375 33.109375 6.59375 
Q 41.109375 6.59375 47.375 10.5625 
Q 53.65625 14.546875 58.109375 22.40625 
Q 61.078125 27.6875 62.640625 33.46875 
Q 64.203125 39.265625 64.203125 45.015625 
Q 64.203125 55.125 59.3125 60.671875 
Q 54.4375 66.21875 45.609375 66.21875 
z
M 32.8125 -1.421875 
Q 19.390625 -1.421875 11.6875 6.53125 
Q 4 14.5 4 28.328125 
Q 4 36.234375 7 44.484375 
Q 10.015625 52.734375 15.28125 59.1875 
Q 21.484375 66.75 29.09375 70.484375 
Q 36.71875 74.21875 45.90625 74.21875 
Q 59.28125 74.21875 66.984375 66.328125 
Q 74.703125 58.453125 74.703125 44.828125 
Q 74.703125 36.421875 71.765625 28.3125 
Q 68.84375 20.21875 63.375 13.625 
Q 57.125 6 49.578125 2.28125 
Q 42.046875 -1.421875 32.8125 -1.421875 
z
" id="DejaVuSans-Oblique-79"/>
      <path d="M 16.890625 72.90625 
L 38.09375 72.90625 
Q 54.984375 72.90625 63.59375 65.75 
Q 72.21875 58.59375 72.21875 44.484375 
Q 72.21875 35.15625 68.9375 26.53125 
Q 65.671875 17.921875 59.90625 12.015625 
Q 54.109375 5.953125 45.171875 2.96875 
Q 36.234375 0 24.03125 0 
L 2.6875 0 
z
M 25.203125 64.796875 
L 14.203125 8.109375 
L 27.09375 8.109375 
Q 43.65625 8.109375 52.734375 17.625 
Q 61.8125 27.15625 61.8125 44.484375 
Q 61.8125 54.984375 55.953125 59.890625 
Q 50.09375 64.796875 37.59375 64.796875 
z
" id="DejaVuSans-Oblique-68"/>
      <path d="M 70.125 53.71875 
L 47.796875 31.296875 
L 70.125 8.984375 
L 64.3125 3.078125 
L 41.890625 25.484375 
L 19.484375 3.078125 
L 13.71875 8.984375 
L 35.984375 31.296875 
L 13.71875 53.71875 
L 19.484375 59.625 
L 41.890625 37.203125 
L 64.3125 59.625 
z
" id="DejaVuSans-215"/>
     </defs>
     <g transform="translate(83.304063 272.544)rotate(-90)scale(0.18 -0.18)">
      <use transform="translate(0 0.684375)" xlink:href="#DejaVuSans-40"/>
      <use transform="translate(39.013672 0.684375)" xlink:href="#DejaVuSans-Oblique-82"/>
      <use transform="translate(108.496094 0.684375)" xlink:href="#DejaVuSans-Oblique-70"/>
      <use transform="translate(166.015625 0.684375)" xlink:href="#DejaVuSans-Oblique-85"/>
      <use transform="translate(239.208984 0.684375)" xlink:href="#DejaVuSans-47"/>
      <use transform="translate(272.900391 0.684375)" xlink:href="#DejaVuSans-Oblique-79"/>
      <use transform="translate(351.611328 0.684375)" xlink:href="#DejaVuSans-Oblique-68"/>
      <use transform="translate(428.613281 0.684375)" xlink:href="#DejaVuSans-41"/>
      <use transform="translate(487.109375 0.684375)" xlink:href="#DejaVuSans-215"/>
      <use transform="translate(590.380859 0.684375)" xlink:href="#DejaVuSans-49"/>
      <use transform="translate(654.003906 0.684375)" xlink:href="#DejaVuSans-48"/>
      <use transform="translate(718.583984 38.965625)scale(0.7)" xlink:href="#DejaVuSans-52"/>
     </g>
    </g>
   </g>
   <g id="patch_16">
    <path d="M 108 366.6 
L 108 40.608 
" style="fill:none;stroke:#000000;stroke-linecap:square;stroke-linejoin:miter;stroke-width:0.8;"/>
   </g>
   <g id="patch_17">
    <path d="M 108 366.6 
L 864 366.6 
" style="fill:none;stroke:#000000;stroke-linecap:square;stroke-linejoin:miter;stroke-width:0.8;"/>
   </g>
   <g id="text_25">
    <!-- Response of CamR to various monoterpenes -->
    <defs>
     <path d="M 44.390625 34.1875 
Q 47.5625 33.109375 50.5625 29.59375 
Q 53.5625 26.078125 56.59375 19.921875 
L 66.609375 0 
L 56 0 
L 46.6875 18.703125 
Q 43.0625 26.03125 39.671875 28.421875 
Q 36.28125 30.8125 30.421875 30.8125 
L 19.671875 30.8125 
L 19.671875 0 
L 9.8125 0 
L 9.8125 72.90625 
L 32.078125 72.90625 
Q 44.578125 72.90625 50.734375 67.671875 
Q 56.890625 62.453125 56.890625 51.90625 
Q 56.890625 45.015625 53.6875 40.46875 
Q 50.484375 35.9375 44.390625 34.1875 
z
M 19.671875 64.796875 
L 19.671875 38.921875 
L 32.078125 38.921875 
Q 39.203125 38.921875 42.84375 42.21875 
Q 46.484375 45.515625 46.484375 51.90625 
Q 46.484375 58.296875 42.84375 61.546875 
Q 39.203125 64.796875 32.078125 64.796875 
z
" id="DejaVuSans-82"/>
     <path d="M 44.28125 53.078125 
L 44.28125 44.578125 
Q 40.484375 46.53125 36.375 47.5 
Q 32.28125 48.484375 27.875 48.484375 
Q 21.1875 48.484375 17.84375 46.4375 
Q 14.5 44.390625 14.5 40.28125 
Q 14.5 37.15625 16.890625 35.375 
Q 19.28125 33.59375 26.515625 31.984375 
L 29.59375 31.296875 
Q 39.15625 29.25 43.1875 25.515625 
Q 47.21875 21.78125 47.21875 15.09375 
Q 47.21875 7.46875 41.1875 3.015625 
Q 35.15625 -1.421875 24.609375 -1.421875 
Q 20.21875 -1.421875 15.453125 -0.5625 
Q 10.6875 0.296875 5.421875 2 
L 5.421875 11.28125 
Q 10.40625 8.6875 15.234375 7.390625 
Q 20.0625 6.109375 24.8125 6.109375 
Q 31.15625 6.109375 34.5625 8.28125 
Q 37.984375 10.453125 37.984375 14.40625 
Q 37.984375 18.0625 35.515625 20.015625 
Q 33.0625 21.96875 24.703125 23.78125 
L 21.578125 24.515625 
Q 13.234375 26.265625 9.515625 29.90625 
Q 5.8125 33.546875 5.8125 39.890625 
Q 5.8125 47.609375 11.28125 51.796875 
Q 16.75 56 26.8125 56 
Q 31.78125 56 36.171875 55.265625 
Q 40.578125 54.546875 44.28125 53.078125 
z
" id="DejaVuSans-115"/>
     <path d="M 37.109375 75.984375 
L 37.109375 68.5 
L 28.515625 68.5 
Q 23.6875 68.5 21.796875 66.546875 
Q 19.921875 64.59375 19.921875 59.515625 
L 19.921875 54.6875 
L 34.71875 54.6875 
L 34.71875 47.703125 
L 19.921875 47.703125 
L 19.921875 0 
L 10.890625 0 
L 10.890625 47.703125 
L 2.296875 47.703125 
L 2.296875 54.6875 
L 10.890625 54.6875 
L 10.890625 58.5 
Q 10.890625 67.625 15.140625 71.796875 
Q 19.390625 75.984375 28.609375 75.984375 
z
" id="DejaVuSans-102"/>
    </defs>
    <g transform="translate(240.541875 34.608)scale(0.22 -0.22)">
     <use xlink:href="#DejaVuSans-82"/>
     <use x="69.419922" xlink:href="#DejaVuSans-101"/>
     <use x="130.943359" xlink:href="#DejaVuSans-115"/>
     <use x="183.042969" xlink:href="#DejaVuSans-112"/>
     <use x="246.519531" xlink:href="#DejaVuSans-111"/>
     <use x="307.701172" xlink:href="#DejaVuSans-110"/>
     <use x="371.080078" xlink:href="#DejaVuSans-115"/>
     <use x="423.179688" xlink:href="#DejaVuSans-101"/>
     <use x="484.703125" xlink:href="#DejaVuSans-32"/>
     <use x="516.490234" xlink:href="#DejaVuSans-111"/>
     <use x="577.671875" xlink:href="#DejaVuSans-102"/>
     <use x="612.876953" xlink:href="#DejaVuSans-32"/>
     <use x="644.664062" xlink:href="#DejaVuSans-67"/>
     <use x="714.488281" xlink:href="#DejaVuSans-97"/>
     <use x="775.767578" xlink:href="#DejaVuSans-109"/>
     <use x="873.179688" xlink:href="#DejaVuSans-82"/>
     <use x="942.662109" xlink:href="#DejaVuSans-32"/>
     <use x="974.449219" xlink:href="#DejaVuSans-116"/>
     <use x="1013.658203" xlink:href="#DejaVuSans-111"/>
     <use x="1074.839844" xlink:href="#DejaVuSans-32"/>
     <use x="1106.626953" xlink:href="#DejaVuSans-118"/>
     <use x="1165.806641" xlink:href="#DejaVuSans-97"/>
     <use x="1227.085938" xlink:href="#DejaVuSans-114"/>
     <use x="1268.199219" xlink:href="#DejaVuSans-105"/>
     <use x="1295.982422" xlink:href="#DejaVuSans-111"/>
     <use x="1357.164062" xlink:href="#DejaVuSans-117"/>
     <use x="1420.542969" xlink:href="#DejaVuSans-115"/>
     <use x="1472.642578" xlink:href="#DejaVuSans-32"/>
     <use x="1504.429688" xlink:href="#DejaVuSans-109"/>
     <use x="1601.841797" xlink:href="#DejaVuSans-111"/>
     <use x="1663.023438" xlink:href="#DejaVuSans-110"/>
     <use x="1726.402344" xlink:href="#DejaVuSans-111"/>
     <use x="1787.583984" xlink:href="#DejaVuSans-116"/>
     <use x="1826.792969" xlink:href="#DejaVuSans-101"/>
     <use x="1888.316406" xlink:href="#DejaVuSans-114"/>
     <use x="1929.429688" xlink:href="#DejaVuSans-112"/>
     <use x="1992.90625" xlink:href="#DejaVuSans-101"/>
     <use x="2054.429688" xlink:href="#DejaVuSans-110"/>
     <use x="2117.808594" xlink:href="#DejaVuSans-101"/>
     <use x="2179.332031" xlink:href="#DejaVuSans-115"/>
    </g>
   </g>
  </g>
 </g>
 <defs>
  <clipPath id="p7e31c78d57">
   <rect height="325.992" width="756" x="108" y="40.608"/>
  </clipPath>
 </defs>
</svg>
