<?xml version="1.0" encoding="utf-8" standalone="no"?>
<!DOCTYPE svg PUBLIC "-//W3C//DTD SVG 1.1//EN"
  "http://www.w3.org/Graphics/SVG/1.1/DTD/svg11.dtd">
<!-- Created with matplotlib (https://matplotlib.org/) -->
<svg height="473.76pt" version="1.1" viewBox="0 0 648 473.76" width="648pt" xmlns="http://www.w3.org/2000/svg" xmlns:xlink="http://www.w3.org/1999/xlink">
 <defs>
  <style type="text/css">
*{stroke-linecap:butt;stroke-linejoin:round;}
  </style>
 </defs>
 <g id="figure_1">
  <g id="patch_1">
   <path d="M 0 473.76 
L 648 473.76 
L 648 0 
L 0 0 
z
" style="fill:#ffffff;"/>
  </g>
  <g id="axes_1">
   <g id="patch_2">
    <path d="M 81 421.6464 
L 583.2 421.6464 
L 583.2 56.8512 
L 81 56.8512 
z
" style="fill:#ffffff;"/>
   </g>
   <g id="patch_3">
    <path clip-path="url(#p9a5b1d5a3e)" d="M 103.827273 421.6464 
L 157.538503 421.6464 
L 157.538503 124.423335 
L 103.827273 124.423335 
z
" style="fill:#008cff;stroke:#000000;stroke-linejoin:miter;stroke-width:4;"/>
   </g>
   <g id="patch_4">
    <path clip-path="url(#p9a5b1d5a3e)" d="M 238.105348 421.6464 
L 291.816578 421.6464 
L 291.816578 85.864774 
L 238.105348 85.864774 
z
" style="fill:#008cff;stroke:#000000;stroke-linejoin:miter;stroke-width:4;"/>
   </g>
   <g id="patch_5">
    <path clip-path="url(#p9a5b1d5a3e)" d="M 372.383422 421.6464 
L 426.094652 421.6464 
L 426.094652 125.079914 
L 372.383422 125.079914 
z
" style="fill:#008cff;stroke:#000000;stroke-linejoin:miter;stroke-width:4;"/>
   </g>
   <g id="patch_6">
    <path clip-path="url(#p9a5b1d5a3e)" d="M 506.661497 421.6464 
L 560.372727 421.6464 
L 560.372727 120.828823 
L 506.661497 120.828823 
z
" style="fill:#008cff;stroke:#000000;stroke-linejoin:miter;stroke-width:4;"/>
   </g>
   <g id="LineCollection_1">
    <path clip-path="url(#p9a5b1d5a3e)" d="M 130.682888 140.061139 
L 130.682888 108.785531 
" style="fill:none;stroke:#000000;stroke-width:2;"/>
   </g>
   <g id="LineCollection_2">
    <path clip-path="url(#p9a5b1d5a3e)" d="M 264.960963 94.328746 
L 264.960963 77.400801 
" style="fill:none;stroke:#000000;stroke-width:2;"/>
   </g>
   <g id="LineCollection_3">
    <path clip-path="url(#p9a5b1d5a3e)" d="M 399.239037 135.660478 
L 399.239037 114.499349 
" style="fill:none;stroke:#000000;stroke-width:2;"/>
   </g>
   <g id="LineCollection_4">
    <path clip-path="url(#p9a5b1d5a3e)" d="M 533.517112 153.62048 
L 533.517112 88.037165 
" style="fill:none;stroke:#000000;stroke-width:2;"/>
   </g>
   <g id="line2d_1">
    <defs>
     <path d="M 5 0 
L -5 -0 
" id="m093f2a3f92" style="stroke:#000000;stroke-width:2;"/>
    </defs>
    <g clip-path="url(#p9a5b1d5a3e)">
     <use style="stroke:#000000;stroke-width:2;" x="130.682888" xlink:href="#m093f2a3f92" y="140.061139"/>
    </g>
   </g>
   <g id="line2d_2">
    <g clip-path="url(#p9a5b1d5a3e)">
     <use style="stroke:#000000;stroke-width:2;" x="130.682888" xlink:href="#m093f2a3f92" y="108.785531"/>
    </g>
   </g>
   <g id="line2d_3">
    <g clip-path="url(#p9a5b1d5a3e)">
     <use style="stroke:#000000;stroke-width:2;" x="264.960963" xlink:href="#m093f2a3f92" y="94.328746"/>
    </g>
   </g>
   <g id="line2d_4">
    <g clip-path="url(#p9a5b1d5a3e)">
     <use style="stroke:#000000;stroke-width:2;" x="264.960963" xlink:href="#m093f2a3f92" y="77.400801"/>
    </g>
   </g>
   <g id="line2d_5">
    <g clip-path="url(#p9a5b1d5a3e)">
     <use style="stroke:#000000;stroke-width:2;" x="399.239037" xlink:href="#m093f2a3f92" y="135.660478"/>
    </g>
   </g>
   <g id="line2d_6">
    <g clip-path="url(#p9a5b1d5a3e)">
     <use style="stroke:#000000;stroke-width:2;" x="399.239037" xlink:href="#m093f2a3f92" y="114.499349"/>
    </g>
   </g>
   <g id="line2d_7">
    <g clip-path="url(#p9a5b1d5a3e)">
     <use style="stroke:#000000;stroke-width:2;" x="533.517112" xlink:href="#m093f2a3f92" y="153.62048"/>
    </g>
   </g>
   <g id="line2d_8">
    <g clip-path="url(#p9a5b1d5a3e)">
     <use style="stroke:#000000;stroke-width:2;" x="533.517112" xlink:href="#m093f2a3f92" y="88.037165"/>
    </g>
   </g>
   <g id="PathCollection_1">
    <path clip-path="url(#p9a5b1d5a3e)" d="M 118.182888 119.835731 
C 119.951307 119.835731 121.647535 119.13313 122.897997 117.882669 
C 124.148459 116.632207 124.851059 114.935979 124.851059 113.167559 
C 124.851059 111.39914 124.148459 109.702912 122.897997 108.45245 
C 121.647535 107.201988 119.951307 106.499388 118.182888 106.499388 
C 116.414468 106.499388 114.71824 107.201988 113.467778 108.45245 
C 112.217317 109.702912 111.514716 111.39914 111.514716 113.167559 
C 111.514716 114.935979 112.217317 116.632207 113.467778 117.882669 
C 114.71824 119.13313 116.414468 119.835731 118.182888 119.835731 
z
" style="fill:none;stroke:#000000;stroke-width:2.5;"/>
   </g>
   <g id="PathCollection_2">
    <path clip-path="url(#p9a5b1d5a3e)" d="M 130.682888 124.491494 
C 132.451307 124.491494 134.147535 123.788893 135.397997 122.538431 
C 136.648459 121.28797 137.351059 119.591742 137.351059 117.823322 
C 137.351059 116.054902 136.648459 114.358674 135.397997 113.108213 
C 134.147535 111.857751 132.451307 111.15515 130.682888 111.15515 
C 128.914468 111.15515 127.21824 111.857751 125.967778 113.108213 
C 124.717317 114.358674 124.014716 116.054902 124.014716 117.823322 
C 124.014716 119.591742 124.717317 121.28797 125.967778 122.538431 
C 127.21824 123.788893 128.914468 124.491494 130.682888 124.491494 
z
" style="fill:none;stroke:#000000;stroke-width:2.5;"/>
   </g>
   <g id="PathCollection_3">
    <path clip-path="url(#p9a5b1d5a3e)" d="M 143.182888 148.947294 
C 144.951307 148.947294 146.647535 148.244694 147.897997 146.994232 
C 149.148459 145.743771 149.851059 144.047543 149.851059 142.279123 
C 149.851059 140.510703 149.148459 138.814475 147.897997 137.564014 
C 146.647535 136.313552 144.951307 135.610951 143.182888 135.610951 
C 141.414468 135.610951 139.71824 136.313552 138.467778 137.564014 
C 137.217317 138.814475 136.514716 140.510703 136.514716 142.279123 
C 136.514716 144.047543 137.217317 145.743771 138.467778 146.994232 
C 139.71824 148.244694 141.414468 148.947294 143.182888 148.947294 
z
" style="fill:none;stroke:#000000;stroke-width:2.5;"/>
   </g>
   <g id="PathCollection_4">
    <path clip-path="url(#p9a5b1d5a3e)" d="M 252.460963 87.411846 
C 254.229382 87.411846 255.92561 86.709246 257.176072 85.458784 
C 258.426533 84.208322 259.129134 82.512094 259.129134 80.743675 
C 259.129134 78.975255 258.426533 77.279027 257.176072 76.028565 
C 255.92561 74.778104 254.229382 74.075503 252.460963 74.075503 
C 250.692543 74.075503 248.996315 74.778104 247.745853 76.028565 
C 246.495392 77.279027 245.792791 78.975255 245.792791 80.743675 
C 245.792791 82.512094 246.495392 84.208322 247.745853 85.458784 
C 248.996315 86.709246 250.692543 87.411846 252.460963 87.411846 
z
" style="fill:none;stroke:#000000;stroke-width:2.5;"/>
   </g>
   <g id="PathCollection_5">
    <path clip-path="url(#p9a5b1d5a3e)" d="M 264.960963 87.8845 
C 266.729382 87.8845 268.42561 87.1819 269.676072 85.931438 
C 270.926533 84.680977 271.629134 82.984749 271.629134 81.216329 
C 271.629134 79.447909 270.926533 77.751681 269.676072 76.50122 
C 268.42561 75.250758 266.729382 74.548157 264.960963 74.548157 
C 263.192543 74.548157 261.496315 75.250758 260.245853 76.50122 
C 258.995392 77.751681 258.292791 79.447909 258.292791 81.216329 
C 258.292791 82.984749 258.995392 84.680977 260.245853 85.931438 
C 261.496315 87.1819 263.192543 87.8845 264.960963 87.8845 
z
" style="fill:none;stroke:#000000;stroke-width:2.5;"/>
   </g>
   <g id="PathCollection_6">
    <path clip-path="url(#p9a5b1d5a3e)" d="M 277.460963 102.302489 
C 279.229382 102.302489 280.92561 101.599888 282.176072 100.349426 
C 283.426533 99.098965 284.129134 97.402737 284.129134 95.634317 
C 284.129134 93.865897 283.426533 92.169669 282.176072 90.919208 
C 280.92561 89.668746 279.229382 88.966146 277.460963 88.966146 
C 275.692543 88.966146 273.996315 89.668746 272.745853 90.919208 
C 271.495392 92.169669 270.792791 93.865897 270.792791 95.634317 
C 270.792791 97.402737 271.495392 99.098965 272.745853 100.349426 
C 273.996315 101.599888 275.692543 102.302489 277.460963 102.302489 
z
" style="fill:none;stroke:#000000;stroke-width:2.5;"/>
   </g>
   <g id="PathCollection_7">
    <path clip-path="url(#p9a5b1d5a3e)" d="M 386.739037 122.657717 
C 388.507457 122.657717 390.203685 121.955116 391.454147 120.704654 
C 392.704608 119.454193 393.407209 117.757965 393.407209 115.989545 
C 393.407209 114.221125 392.704608 112.524897 391.454147 111.274436 
C 390.203685 110.023974 388.507457 109.321374 386.739037 109.321374 
C 384.970618 109.321374 383.27439 110.023974 382.023928 111.274436 
C 380.773467 112.524897 380.070866 114.221125 380.070866 115.989545 
C 380.070866 117.757965 380.773467 119.454193 382.023928 120.704654 
C 383.27439 121.955116 384.970618 122.657717 386.739037 122.657717 
z
" style="fill:none;stroke:#000000;stroke-width:2.5;"/>
   </g>
   <g id="PathCollection_8">
    <path clip-path="url(#p9a5b1d5a3e)" d="M 399.239037 143.362374 
C 401.007457 143.362374 402.703685 142.659774 403.954147 141.409312 
C 405.204608 140.15885 405.907209 138.462622 405.907209 136.694203 
C 405.907209 134.925783 405.204608 133.229555 403.954147 131.979093 
C 402.703685 130.728632 401.007457 130.026031 399.239037 130.026031 
C 397.470618 130.026031 395.77439 130.728632 394.523928 131.979093 
C 393.273467 133.229555 392.570866 134.925783 392.570866 136.694203 
C 392.570866 138.462622 393.273467 140.15885 394.523928 141.409312 
C 395.77439 142.659774 397.470618 143.362374 399.239037 143.362374 
z
" style="fill:none;stroke:#000000;stroke-width:2.5;"/>
   </g>
   <g id="PathCollection_9">
    <path clip-path="url(#p9a5b1d5a3e)" d="M 411.739037 129.224165 
C 413.507457 129.224165 415.203685 128.521564 416.454147 127.271102 
C 417.704608 126.020641 418.407209 124.324413 418.407209 122.555993 
C 418.407209 120.787573 417.704608 119.091345 416.454147 117.840884 
C 415.203685 116.590422 413.507457 115.887822 411.739037 115.887822 
C 409.970618 115.887822 408.27439 116.590422 407.023928 117.840884 
C 405.773467 119.091345 405.070866 120.787573 405.070866 122.555993 
C 405.070866 124.324413 405.773467 126.020641 407.023928 127.271102 
C 408.27439 128.521564 409.970618 129.224165 411.739037 129.224165 
z
" style="fill:none;stroke:#000000;stroke-width:2.5;"/>
   </g>
   <g id="PathCollection_10">
    <path clip-path="url(#p9a5b1d5a3e)" d="M 521.017112 131.250334 
C 522.785532 131.250334 524.48176 130.547734 525.732222 129.297272 
C 526.982683 128.046811 527.685284 126.350583 527.685284 124.582163 
C 527.685284 122.813743 526.982683 121.117515 525.732222 119.867054 
C 524.48176 118.616592 522.785532 117.913991 521.017112 117.913991 
C 519.248693 117.913991 517.552465 118.616592 516.302003 119.867054 
C 515.051541 121.117515 514.348941 122.813743 514.348941 124.582163 
C 514.348941 126.350583 515.051541 128.046811 516.302003 129.297272 
C 517.552465 130.547734 519.248693 131.250334 521.017112 131.250334 
z
" style="fill:none;stroke:#000000;stroke-width:2.5;"/>
   </g>
   <g id="PathCollection_11">
    <path clip-path="url(#p9a5b1d5a3e)" d="M 533.517112 158.250481 
C 535.285532 158.250481 536.98176 157.54788 538.232222 156.297418 
C 539.482683 155.046957 540.185284 153.350729 540.185284 151.582309 
C 540.185284 149.813889 539.482683 148.117661 538.232222 146.8672 
C 536.98176 145.616738 535.285532 144.914138 533.517112 144.914138 
C 531.748693 144.914138 530.052465 145.616738 528.802003 146.8672 
C 527.551541 148.117661 526.848941 149.813889 526.848941 151.582309 
C 526.848941 153.350729 527.551541 155.046957 528.802003 156.297418 
C 530.052465 157.54788 531.748693 158.250481 533.517112 158.250481 
z
" style="fill:none;stroke:#000000;stroke-width:2.5;"/>
   </g>
   <g id="PathCollection_12">
    <path clip-path="url(#p9a5b1d5a3e)" d="M 546.017112 92.990168 
C 547.785532 92.990168 549.48176 92.287567 550.732222 91.037105 
C 551.982683 89.786644 552.685284 88.090416 552.685284 86.321996 
C 552.685284 84.553576 551.982683 82.857348 550.732222 81.606887 
C 549.48176 80.356425 547.785532 79.653824 546.017112 79.653824 
C 544.248693 79.653824 542.552465 80.356425 541.302003 81.606887 
C 540.051541 82.857348 539.348941 84.553576 539.348941 86.321996 
C 539.348941 88.090416 540.051541 89.786644 541.302003 91.037105 
C 542.552465 92.287567 544.248693 92.990168 546.017112 92.990168 
z
" style="fill:none;stroke:#000000;stroke-width:2.5;"/>
   </g>
   <g id="matplotlib.axis_1">
    <g id="xtick_1">
     <g id="line2d_9">
      <defs>
       <path d="M 0 0 
L 0 2 
" id="m78549276cd" style="stroke:#000000;"/>
      </defs>
      <g>
       <use style="stroke:#000000;" x="130.682888" xlink:href="#m78549276cd" y="421.6464"/>
      </g>
     </g>
     <g id="text_1">
      <!-- Gen4 -->
      <defs>
       <path d="M 59.515625 10.40625 
L 59.515625 29.984375 
L 43.40625 29.984375 
L 43.40625 38.09375 
L 69.28125 38.09375 
L 69.28125 6.78125 
Q 63.578125 2.734375 56.6875 0.65625 
Q 49.8125 -1.421875 42 -1.421875 
Q 24.90625 -1.421875 15.25 8.5625 
Q 5.609375 18.5625 5.609375 36.375 
Q 5.609375 54.25 15.25 64.234375 
Q 24.90625 74.21875 42 74.21875 
Q 49.125 74.21875 55.546875 72.453125 
Q 61.96875 70.703125 67.390625 67.28125 
L 67.390625 56.78125 
Q 61.921875 61.421875 55.765625 63.765625 
Q 49.609375 66.109375 42.828125 66.109375 
Q 29.4375 66.109375 22.71875 58.640625 
Q 16.015625 51.171875 16.015625 36.375 
Q 16.015625 21.625 22.71875 14.15625 
Q 29.4375 6.6875 42.828125 6.6875 
Q 48.046875 6.6875 52.140625 7.59375 
Q 56.25 8.5 59.515625 10.40625 
z
" id="DejaVuSans-71"/>
       <path d="M 56.203125 29.59375 
L 56.203125 25.203125 
L 14.890625 25.203125 
Q 15.484375 15.921875 20.484375 11.0625 
Q 25.484375 6.203125 34.421875 6.203125 
Q 39.59375 6.203125 44.453125 7.46875 
Q 49.3125 8.734375 54.109375 11.28125 
L 54.109375 2.78125 
Q 49.265625 0.734375 44.1875 -0.34375 
Q 39.109375 -1.421875 33.890625 -1.421875 
Q 20.796875 -1.421875 13.15625 6.1875 
Q 5.515625 13.8125 5.515625 26.8125 
Q 5.515625 40.234375 12.765625 48.109375 
Q 20.015625 56 32.328125 56 
Q 43.359375 56 49.78125 48.890625 
Q 56.203125 41.796875 56.203125 29.59375 
z
M 47.21875 32.234375 
Q 47.125 39.59375 43.09375 43.984375 
Q 39.0625 48.390625 32.421875 48.390625 
Q 24.90625 48.390625 20.390625 44.140625 
Q 15.875 39.890625 15.1875 32.171875 
z
" id="DejaVuSans-101"/>
       <path d="M 54.890625 33.015625 
L 54.890625 0 
L 45.90625 0 
L 45.90625 32.71875 
Q 45.90625 40.484375 42.875 44.328125 
Q 39.84375 48.1875 33.796875 48.1875 
Q 26.515625 48.1875 22.3125 43.546875 
Q 18.109375 38.921875 18.109375 30.90625 
L 18.109375 0 
L 9.078125 0 
L 9.078125 54.6875 
L 18.109375 54.6875 
L 18.109375 46.1875 
Q 21.34375 51.125 25.703125 53.5625 
Q 30.078125 56 35.796875 56 
Q 45.21875 56 50.046875 50.171875 
Q 54.890625 44.34375 54.890625 33.015625 
z
" id="DejaVuSans-110"/>
       <path d="M 37.796875 64.3125 
L 12.890625 25.390625 
L 37.796875 25.390625 
z
M 35.203125 72.90625 
L 47.609375 72.90625 
L 47.609375 25.390625 
L 58.015625 25.390625 
L 58.015625 17.1875 
L 47.609375 17.1875 
L 47.609375 0 
L 37.796875 0 
L 37.796875 17.1875 
L 4.890625 17.1875 
L 4.890625 26.703125 
z
" id="DejaVuSans-52"/>
      </defs>
      <g transform="translate(109.401638 439.3039)scale(0.16 -0.16)">
       <use xlink:href="#DejaVuSans-71"/>
       <use x="77.490234" xlink:href="#DejaVuSans-101"/>
       <use x="139.013672" xlink:href="#DejaVuSans-110"/>
       <use x="202.392578" xlink:href="#DejaVuSans-52"/>
      </g>
     </g>
    </g>
    <g id="xtick_2">
     <g id="line2d_10">
      <g>
       <use style="stroke:#000000;" x="264.960963" xlink:href="#m78549276cd" y="421.6464"/>
      </g>
     </g>
     <g id="text_2">
      <!-- Gen5.1 -->
      <defs>
       <path d="M 10.796875 72.90625 
L 49.515625 72.90625 
L 49.515625 64.59375 
L 19.828125 64.59375 
L 19.828125 46.734375 
Q 21.96875 47.46875 24.109375 47.828125 
Q 26.265625 48.1875 28.421875 48.1875 
Q 40.625 48.1875 47.75 41.5 
Q 54.890625 34.8125 54.890625 23.390625 
Q 54.890625 11.625 47.5625 5.09375 
Q 40.234375 -1.421875 26.90625 -1.421875 
Q 22.3125 -1.421875 17.546875 -0.640625 
Q 12.796875 0.140625 7.71875 1.703125 
L 7.71875 11.625 
Q 12.109375 9.234375 16.796875 8.0625 
Q 21.484375 6.890625 26.703125 6.890625 
Q 35.15625 6.890625 40.078125 11.328125 
Q 45.015625 15.765625 45.015625 23.390625 
Q 45.015625 31 40.078125 35.4375 
Q 35.15625 39.890625 26.703125 39.890625 
Q 22.75 39.890625 18.8125 39.015625 
Q 14.890625 38.140625 10.796875 36.28125 
z
" id="DejaVuSans-53"/>
       <path d="M 10.6875 12.40625 
L 21 12.40625 
L 21 0 
L 10.6875 0 
z
" id="DejaVuSans-46"/>
       <path d="M 12.40625 8.296875 
L 28.515625 8.296875 
L 28.515625 63.921875 
L 10.984375 60.40625 
L 10.984375 69.390625 
L 28.421875 72.90625 
L 38.28125 72.90625 
L 38.28125 8.296875 
L 54.390625 8.296875 
L 54.390625 0 
L 12.40625 0 
z
" id="DejaVuSans-49"/>
      </defs>
      <g transform="translate(236.047213 439.3039)scale(0.16 -0.16)">
       <use xlink:href="#DejaVuSans-71"/>
       <use x="77.490234" xlink:href="#DejaVuSans-101"/>
       <use x="139.013672" xlink:href="#DejaVuSans-110"/>
       <use x="202.392578" xlink:href="#DejaVuSans-53"/>
       <use x="266.015625" xlink:href="#DejaVuSans-46"/>
       <use x="297.802734" xlink:href="#DejaVuSans-49"/>
      </g>
     </g>
    </g>
    <g id="xtick_3">
     <g id="line2d_11">
      <g>
       <use style="stroke:#000000;" x="399.239037" xlink:href="#m78549276cd" y="421.6464"/>
      </g>
     </g>
     <g id="text_3">
      <!-- Gen5.2 -->
      <defs>
       <path d="M 19.1875 8.296875 
L 53.609375 8.296875 
L 53.609375 0 
L 7.328125 0 
L 7.328125 8.296875 
Q 12.9375 14.109375 22.625 23.890625 
Q 32.328125 33.6875 34.8125 36.53125 
Q 39.546875 41.84375 41.421875 45.53125 
Q 43.3125 49.21875 43.3125 52.78125 
Q 43.3125 58.59375 39.234375 62.25 
Q 35.15625 65.921875 28.609375 65.921875 
Q 23.96875 65.921875 18.8125 64.3125 
Q 13.671875 62.703125 7.8125 59.421875 
L 7.8125 69.390625 
Q 13.765625 71.78125 18.9375 73 
Q 24.125 74.21875 28.421875 74.21875 
Q 39.75 74.21875 46.484375 68.546875 
Q 53.21875 62.890625 53.21875 53.421875 
Q 53.21875 48.921875 51.53125 44.890625 
Q 49.859375 40.875 45.40625 35.40625 
Q 44.1875 33.984375 37.640625 27.21875 
Q 31.109375 20.453125 19.1875 8.296875 
z
" id="DejaVuSans-50"/>
      </defs>
      <g transform="translate(370.325287 439.3039)scale(0.16 -0.16)">
       <use xlink:href="#DejaVuSans-71"/>
       <use x="77.490234" xlink:href="#DejaVuSans-101"/>
       <use x="139.013672" xlink:href="#DejaVuSans-110"/>
       <use x="202.392578" xlink:href="#DejaVuSans-53"/>
       <use x="266.015625" xlink:href="#DejaVuSans-46"/>
       <use x="297.802734" xlink:href="#DejaVuSans-50"/>
      </g>
     </g>
    </g>
    <g id="xtick_4">
     <g id="line2d_12">
      <g>
       <use style="stroke:#000000;" x="533.517112" xlink:href="#m78549276cd" y="421.6464"/>
      </g>
     </g>
     <g id="text_4">
      <!-- Gen5.3 -->
      <defs>
       <path d="M 40.578125 39.3125 
Q 47.65625 37.796875 51.625 33 
Q 55.609375 28.21875 55.609375 21.1875 
Q 55.609375 10.40625 48.1875 4.484375 
Q 40.765625 -1.421875 27.09375 -1.421875 
Q 22.515625 -1.421875 17.65625 -0.515625 
Q 12.796875 0.390625 7.625 2.203125 
L 7.625 11.71875 
Q 11.71875 9.328125 16.59375 8.109375 
Q 21.484375 6.890625 26.8125 6.890625 
Q 36.078125 6.890625 40.9375 10.546875 
Q 45.796875 14.203125 45.796875 21.1875 
Q 45.796875 27.640625 41.28125 31.265625 
Q 36.765625 34.90625 28.71875 34.90625 
L 20.21875 34.90625 
L 20.21875 43.015625 
L 29.109375 43.015625 
Q 36.375 43.015625 40.234375 45.921875 
Q 44.09375 48.828125 44.09375 54.296875 
Q 44.09375 59.90625 40.109375 62.90625 
Q 36.140625 65.921875 28.71875 65.921875 
Q 24.65625 65.921875 20.015625 65.03125 
Q 15.375 64.15625 9.8125 62.3125 
L 9.8125 71.09375 
Q 15.4375 72.65625 20.34375 73.4375 
Q 25.25 74.21875 29.59375 74.21875 
Q 40.828125 74.21875 47.359375 69.109375 
Q 53.90625 64.015625 53.90625 55.328125 
Q 53.90625 49.265625 50.4375 45.09375 
Q 46.96875 40.921875 40.578125 39.3125 
z
" id="DejaVuSans-51"/>
      </defs>
      <g transform="translate(504.603362 439.3039)scale(0.16 -0.16)">
       <use xlink:href="#DejaVuSans-71"/>
       <use x="77.490234" xlink:href="#DejaVuSans-101"/>
       <use x="139.013672" xlink:href="#DejaVuSans-110"/>
       <use x="202.392578" xlink:href="#DejaVuSans-53"/>
       <use x="266.015625" xlink:href="#DejaVuSans-46"/>
       <use x="297.802734" xlink:href="#DejaVuSans-51"/>
      </g>
     </g>
    </g>
    <g id="text_5">
     <!-- GfOMT1 Variant -->
     <defs>
      <path d="M 37.109375 75.984375 
L 37.109375 68.5 
L 28.515625 68.5 
Q 23.6875 68.5 21.796875 66.546875 
Q 19.921875 64.59375 19.921875 59.515625 
L 19.921875 54.6875 
L 34.71875 54.6875 
L 34.71875 47.703125 
L 19.921875 47.703125 
L 19.921875 0 
L 10.890625 0 
L 10.890625 47.703125 
L 2.296875 47.703125 
L 2.296875 54.6875 
L 10.890625 54.6875 
L 10.890625 58.5 
Q 10.890625 67.625 15.140625 71.796875 
Q 19.390625 75.984375 28.609375 75.984375 
z
" id="DejaVuSans-102"/>
      <path d="M 39.40625 66.21875 
Q 28.65625 66.21875 22.328125 58.203125 
Q 16.015625 50.203125 16.015625 36.375 
Q 16.015625 22.609375 22.328125 14.59375 
Q 28.65625 6.59375 39.40625 6.59375 
Q 50.140625 6.59375 56.421875 14.59375 
Q 62.703125 22.609375 62.703125 36.375 
Q 62.703125 50.203125 56.421875 58.203125 
Q 50.140625 66.21875 39.40625 66.21875 
z
M 39.40625 74.21875 
Q 54.734375 74.21875 63.90625 63.9375 
Q 73.09375 53.65625 73.09375 36.375 
Q 73.09375 19.140625 63.90625 8.859375 
Q 54.734375 -1.421875 39.40625 -1.421875 
Q 24.03125 -1.421875 14.8125 8.828125 
Q 5.609375 19.09375 5.609375 36.375 
Q 5.609375 53.65625 14.8125 63.9375 
Q 24.03125 74.21875 39.40625 74.21875 
z
" id="DejaVuSans-79"/>
      <path d="M 9.8125 72.90625 
L 24.515625 72.90625 
L 43.109375 23.296875 
L 61.8125 72.90625 
L 76.515625 72.90625 
L 76.515625 0 
L 66.890625 0 
L 66.890625 64.015625 
L 48.09375 14.015625 
L 38.1875 14.015625 
L 19.390625 64.015625 
L 19.390625 0 
L 9.8125 0 
z
" id="DejaVuSans-77"/>
      <path d="M -0.296875 72.90625 
L 61.375 72.90625 
L 61.375 64.59375 
L 35.5 64.59375 
L 35.5 0 
L 25.59375 0 
L 25.59375 64.59375 
L -0.296875 64.59375 
z
" id="DejaVuSans-84"/>
      <path id="DejaVuSans-32"/>
      <path d="M 28.609375 0 
L 0.78125 72.90625 
L 11.078125 72.90625 
L 34.1875 11.53125 
L 57.328125 72.90625 
L 67.578125 72.90625 
L 39.796875 0 
z
" id="DejaVuSans-86"/>
      <path d="M 34.28125 27.484375 
Q 23.390625 27.484375 19.1875 25 
Q 14.984375 22.515625 14.984375 16.5 
Q 14.984375 11.71875 18.140625 8.90625 
Q 21.296875 6.109375 26.703125 6.109375 
Q 34.1875 6.109375 38.703125 11.40625 
Q 43.21875 16.703125 43.21875 25.484375 
L 43.21875 27.484375 
z
M 52.203125 31.203125 
L 52.203125 0 
L 43.21875 0 
L 43.21875 8.296875 
Q 40.140625 3.328125 35.546875 0.953125 
Q 30.953125 -1.421875 24.3125 -1.421875 
Q 15.921875 -1.421875 10.953125 3.296875 
Q 6 8.015625 6 15.921875 
Q 6 25.140625 12.171875 29.828125 
Q 18.359375 34.515625 30.609375 34.515625 
L 43.21875 34.515625 
L 43.21875 35.40625 
Q 43.21875 41.609375 39.140625 45 
Q 35.0625 48.390625 27.6875 48.390625 
Q 23 48.390625 18.546875 47.265625 
Q 14.109375 46.140625 10.015625 43.890625 
L 10.015625 52.203125 
Q 14.9375 54.109375 19.578125 55.046875 
Q 24.21875 56 28.609375 56 
Q 40.484375 56 46.34375 49.84375 
Q 52.203125 43.703125 52.203125 31.203125 
z
" id="DejaVuSans-97"/>
      <path d="M 41.109375 46.296875 
Q 39.59375 47.171875 37.8125 47.578125 
Q 36.03125 48 33.890625 48 
Q 26.265625 48 22.1875 43.046875 
Q 18.109375 38.09375 18.109375 28.8125 
L 18.109375 0 
L 9.078125 0 
L 9.078125 54.6875 
L 18.109375 54.6875 
L 18.109375 46.1875 
Q 20.953125 51.171875 25.484375 53.578125 
Q 30.03125 56 36.53125 56 
Q 37.453125 56 38.578125 55.875 
Q 39.703125 55.765625 41.0625 55.515625 
z
" id="DejaVuSans-114"/>
      <path d="M 9.421875 54.6875 
L 18.40625 54.6875 
L 18.40625 0 
L 9.421875 0 
z
M 9.421875 75.984375 
L 18.40625 75.984375 
L 18.40625 64.59375 
L 9.421875 64.59375 
z
" id="DejaVuSans-105"/>
      <path d="M 18.3125 70.21875 
L 18.3125 54.6875 
L 36.8125 54.6875 
L 36.8125 47.703125 
L 18.3125 47.703125 
L 18.3125 18.015625 
Q 18.3125 11.328125 20.140625 9.421875 
Q 21.96875 7.515625 27.59375 7.515625 
L 36.8125 7.515625 
L 36.8125 0 
L 27.59375 0 
Q 17.1875 0 13.234375 3.875 
Q 9.28125 7.765625 9.28125 18.015625 
L 9.28125 47.703125 
L 2.6875 47.703125 
L 2.6875 54.6875 
L 9.28125 54.6875 
L 9.28125 70.21875 
z
" id="DejaVuSans-116"/>
     </defs>
     <g transform="translate(260.415 460.308587)scale(0.18 -0.18)">
      <use xlink:href="#DejaVuSans-71"/>
      <use x="77.490234" xlink:href="#DejaVuSans-102"/>
      <use x="112.695312" xlink:href="#DejaVuSans-79"/>
      <use x="191.40625" xlink:href="#DejaVuSans-77"/>
      <use x="277.685547" xlink:href="#DejaVuSans-84"/>
      <use x="338.769531" xlink:href="#DejaVuSans-49"/>
      <use x="402.392578" xlink:href="#DejaVuSans-32"/>
      <use x="434.179688" xlink:href="#DejaVuSans-86"/>
      <use x="502.478516" xlink:href="#DejaVuSans-97"/>
      <use x="563.757812" xlink:href="#DejaVuSans-114"/>
      <use x="604.871094" xlink:href="#DejaVuSans-105"/>
      <use x="632.654297" xlink:href="#DejaVuSans-97"/>
      <use x="693.933594" xlink:href="#DejaVuSans-110"/>
      <use x="757.3125" xlink:href="#DejaVuSans-116"/>
     </g>
    </g>
   </g>
   <g id="matplotlib.axis_2">
    <g id="ytick_1">
     <g id="line2d_13">
      <defs>
       <path d="M 0 0 
L -2 0 
" id="m54c1511617" style="stroke:#000000;"/>
      </defs>
      <g>
       <use style="stroke:#000000;" x="81" xlink:href="#m54c1511617" y="421.6464"/>
      </g>
     </g>
     <g id="text_6">
      <!-- 0 -->
      <defs>
       <path d="M 31.78125 66.40625 
Q 24.171875 66.40625 20.328125 58.90625 
Q 16.5 51.421875 16.5 36.375 
Q 16.5 21.390625 20.328125 13.890625 
Q 24.171875 6.390625 31.78125 6.390625 
Q 39.453125 6.390625 43.28125 13.890625 
Q 47.125 21.390625 47.125 36.375 
Q 47.125 51.421875 43.28125 58.90625 
Q 39.453125 66.40625 31.78125 66.40625 
z
M 31.78125 74.21875 
Q 44.046875 74.21875 50.515625 64.515625 
Q 56.984375 54.828125 56.984375 36.375 
Q 56.984375 17.96875 50.515625 8.265625 
Q 44.046875 -1.421875 31.78125 -1.421875 
Q 19.53125 -1.421875 13.0625 8.265625 
Q 6.59375 17.96875 6.59375 36.375 
Q 6.59375 54.828125 13.0625 64.515625 
Q 19.53125 74.21875 31.78125 74.21875 
z
" id="DejaVuSans-48"/>
      </defs>
      <g transform="translate(64.0475 428.484994)scale(0.18 -0.18)">
       <use xlink:href="#DejaVuSans-48"/>
      </g>
     </g>
    </g>
    <g id="ytick_2">
     <g id="line2d_14">
      <g>
       <use style="stroke:#000000;" x="81" xlink:href="#m54c1511617" y="353.303613"/>
      </g>
     </g>
     <g id="text_7">
      <!-- 1 -->
      <g transform="translate(64.0475 360.142206)scale(0.18 -0.18)">
       <use xlink:href="#DejaVuSans-49"/>
      </g>
     </g>
    </g>
    <g id="ytick_3">
     <g id="line2d_15">
      <g>
       <use style="stroke:#000000;" x="81" xlink:href="#m54c1511617" y="284.960825"/>
      </g>
     </g>
     <g id="text_8">
      <!-- 2 -->
      <g transform="translate(64.0475 291.799419)scale(0.18 -0.18)">
       <use xlink:href="#DejaVuSans-50"/>
      </g>
     </g>
    </g>
    <g id="ytick_4">
     <g id="line2d_16">
      <g>
       <use style="stroke:#000000;" x="81" xlink:href="#m54c1511617" y="216.618038"/>
      </g>
     </g>
     <g id="text_9">
      <!-- 3 -->
      <g transform="translate(64.0475 223.456631)scale(0.18 -0.18)">
       <use xlink:href="#DejaVuSans-51"/>
      </g>
     </g>
    </g>
    <g id="ytick_5">
     <g id="line2d_17">
      <g>
       <use style="stroke:#000000;" x="81" xlink:href="#m54c1511617" y="148.27525"/>
      </g>
     </g>
     <g id="text_10">
      <!-- 4 -->
      <g transform="translate(64.0475 155.113844)scale(0.18 -0.18)">
       <use xlink:href="#DejaVuSans-52"/>
      </g>
     </g>
    </g>
    <g id="ytick_6">
     <g id="line2d_18">
      <g>
       <use style="stroke:#000000;" x="81" xlink:href="#m54c1511617" y="79.932463"/>
      </g>
     </g>
     <g id="text_11">
      <!-- 5 -->
      <g transform="translate(64.0475 86.771057)scale(0.18 -0.18)">
       <use xlink:href="#DejaVuSans-53"/>
      </g>
     </g>
    </g>
    <g id="text_12">
     <!-- $(RFU/OD) \times 10^4$ -->
     <defs>
      <path d="M 31 75.875 
Q 24.46875 64.65625 21.28125 53.65625 
Q 18.109375 42.671875 18.109375 31.390625 
Q 18.109375 20.125 21.3125 9.0625 
Q 24.515625 -2 31 -13.1875 
L 23.1875 -13.1875 
Q 15.875 -1.703125 12.234375 9.375 
Q 8.59375 20.453125 8.59375 31.390625 
Q 8.59375 42.28125 12.203125 53.3125 
Q 15.828125 64.359375 23.1875 75.875 
z
" id="DejaVuSans-40"/>
      <path d="M 25.203125 64.796875 
L 20.21875 38.921875 
L 32.90625 38.921875 
Q 40.375 38.921875 44.984375 43.046875 
Q 49.609375 47.171875 49.609375 53.8125 
Q 49.609375 59.125 46.5 61.953125 
Q 43.40625 64.796875 37.59375 64.796875 
z
M 43.3125 35.015625 
Q 46.4375 34.28125 48.515625 31.390625 
Q 50.59375 28.515625 53.328125 19.921875 
L 59.515625 0 
L 49.125 0 
L 43.40625 18.703125 
Q 41.21875 25.921875 38.328125 28.359375 
Q 35.453125 30.8125 29.5 30.8125 
L 18.609375 30.8125 
L 12.59375 0 
L 2.6875 0 
L 16.890625 72.90625 
L 39.109375 72.90625 
Q 49.21875 72.90625 54.609375 68.328125 
Q 60.015625 63.765625 60.015625 55.171875 
Q 60.015625 47.5625 55.421875 41.984375 
Q 50.828125 36.421875 43.3125 35.015625 
z
" id="DejaVuSans-Oblique-82"/>
      <path d="M 16.890625 72.90625 
L 58.6875 72.90625 
L 57.078125 64.59375 
L 25.09375 64.59375 
L 20.90625 43.109375 
L 49.8125 43.109375 
L 48.1875 34.8125 
L 19.28125 34.8125 
L 12.5 0 
L 2.6875 0 
z
" id="DejaVuSans-Oblique-70"/>
      <path d="M 15.484375 72.90625 
L 25.390625 72.90625 
L 16.796875 28.609375 
Q 16.265625 25.640625 16.046875 23.703125 
Q 15.828125 21.78125 15.828125 20.3125 
Q 15.828125 13.578125 19.578125 10.078125 
Q 23.34375 6.59375 30.609375 6.59375 
Q 40.046875 6.59375 45.28125 11.765625 
Q 50.53125 16.9375 52.78125 28.609375 
L 61.375 72.90625 
L 71.296875 72.90625 
L 62.5 27.390625 
Q 59.625 12.640625 51.5625 5.609375 
Q 43.5 -1.421875 29.5 -1.421875 
Q 18.5625 -1.421875 12.1875 4.078125 
Q 5.8125 9.578125 5.8125 19 
Q 5.8125 20.703125 6.046875 22.828125 
Q 6.296875 24.953125 6.78125 27.390625 
z
" id="DejaVuSans-Oblique-85"/>
      <path d="M 25.390625 72.90625 
L 33.6875 72.90625 
L 8.296875 -9.28125 
L 0 -9.28125 
z
" id="DejaVuSans-47"/>
      <path d="M 45.609375 66.21875 
Q 37.5 66.21875 31.296875 62.28125 
Q 25.09375 58.34375 20.515625 50.296875 
Q 17.578125 45.171875 16.03125 39.40625 
Q 14.5 33.640625 14.5 27.78125 
Q 14.5 17.625 19.359375 12.109375 
Q 24.21875 6.59375 33.109375 6.59375 
Q 41.109375 6.59375 47.375 10.5625 
Q 53.65625 14.546875 58.109375 22.40625 
Q 61.078125 27.6875 62.640625 33.46875 
Q 64.203125 39.265625 64.203125 45.015625 
Q 64.203125 55.125 59.3125 60.671875 
Q 54.4375 66.21875 45.609375 66.21875 
z
M 32.8125 -1.421875 
Q 19.390625 -1.421875 11.6875 6.53125 
Q 4 14.5 4 28.328125 
Q 4 36.234375 7 44.484375 
Q 10.015625 52.734375 15.28125 59.1875 
Q 21.484375 66.75 29.09375 70.484375 
Q 36.71875 74.21875 45.90625 74.21875 
Q 59.28125 74.21875 66.984375 66.328125 
Q 74.703125 58.453125 74.703125 44.828125 
Q 74.703125 36.421875 71.765625 28.3125 
Q 68.84375 20.21875 63.375 13.625 
Q 57.125 6 49.578125 2.28125 
Q 42.046875 -1.421875 32.8125 -1.421875 
z
" id="DejaVuSans-Oblique-79"/>
      <path d="M 16.890625 72.90625 
L 38.09375 72.90625 
Q 54.984375 72.90625 63.59375 65.75 
Q 72.21875 58.59375 72.21875 44.484375 
Q 72.21875 35.15625 68.9375 26.53125 
Q 65.671875 17.921875 59.90625 12.015625 
Q 54.109375 5.953125 45.171875 2.96875 
Q 36.234375 0 24.03125 0 
L 2.6875 0 
z
M 25.203125 64.796875 
L 14.203125 8.109375 
L 27.09375 8.109375 
Q 43.65625 8.109375 52.734375 17.625 
Q 61.8125 27.15625 61.8125 44.484375 
Q 61.8125 54.984375 55.953125 59.890625 
Q 50.09375 64.796875 37.59375 64.796875 
z
" id="DejaVuSans-Oblique-68"/>
      <path d="M 8.015625 75.875 
L 15.828125 75.875 
Q 23.140625 64.359375 26.78125 53.3125 
Q 30.421875 42.28125 30.421875 31.390625 
Q 30.421875 20.453125 26.78125 9.375 
Q 23.140625 -1.703125 15.828125 -13.1875 
L 8.015625 -13.1875 
Q 14.5 -2 17.703125 9.0625 
Q 20.90625 20.125 20.90625 31.390625 
Q 20.90625 42.671875 17.703125 53.65625 
Q 14.5 64.65625 8.015625 75.875 
z
" id="DejaVuSans-41"/>
      <path d="M 70.125 53.71875 
L 47.796875 31.296875 
L 70.125 8.984375 
L 64.3125 3.078125 
L 41.890625 25.484375 
L 19.484375 3.078125 
L 13.71875 8.984375 
L 35.984375 31.296875 
L 13.71875 53.71875 
L 19.484375 59.625 
L 41.890625 37.203125 
L 64.3125 59.625 
z
" id="DejaVuSans-215"/>
     </defs>
     <g transform="translate(56.304063 308.1888)rotate(-90)scale(0.18 -0.18)">
      <use transform="translate(0 0.684375)" xlink:href="#DejaVuSans-40"/>
      <use transform="translate(39.013672 0.684375)" xlink:href="#DejaVuSans-Oblique-82"/>
      <use transform="translate(108.496094 0.684375)" xlink:href="#DejaVuSans-Oblique-70"/>
      <use transform="translate(166.015625 0.684375)" xlink:href="#DejaVuSans-Oblique-85"/>
      <use transform="translate(239.208984 0.684375)" xlink:href="#DejaVuSans-47"/>
      <use transform="translate(272.900391 0.684375)" xlink:href="#DejaVuSans-Oblique-79"/>
      <use transform="translate(351.611328 0.684375)" xlink:href="#DejaVuSans-Oblique-68"/>
      <use transform="translate(428.613281 0.684375)" xlink:href="#DejaVuSans-41"/>
      <use transform="translate(487.109375 0.684375)" xlink:href="#DejaVuSans-215"/>
      <use transform="translate(590.380859 0.684375)" xlink:href="#DejaVuSans-49"/>
      <use transform="translate(654.003906 0.684375)" xlink:href="#DejaVuSans-48"/>
      <use transform="translate(718.583984 38.965625)scale(0.7)" xlink:href="#DejaVuSans-52"/>
     </g>
    </g>
   </g>
   <g id="patch_7">
    <path d="M 81 421.6464 
L 81 56.8512 
" style="fill:none;stroke:#000000;stroke-linecap:square;stroke-linejoin:miter;stroke-width:0.8;"/>
   </g>
   <g id="patch_8">
    <path d="M 81 421.6464 
L 583.2 421.6464 
" style="fill:none;stroke:#000000;stroke-linecap:square;stroke-linejoin:miter;stroke-width:0.8;"/>
   </g>
   <g id="text_13">
    <!-- Round 5 of OMT evolution -->
    <defs>
     <path d="M 44.390625 34.1875 
Q 47.5625 33.109375 50.5625 29.59375 
Q 53.5625 26.078125 56.59375 19.921875 
L 66.609375 0 
L 56 0 
L 46.6875 18.703125 
Q 43.0625 26.03125 39.671875 28.421875 
Q 36.28125 30.8125 30.421875 30.8125 
L 19.671875 30.8125 
L 19.671875 0 
L 9.8125 0 
L 9.8125 72.90625 
L 32.078125 72.90625 
Q 44.578125 72.90625 50.734375 67.671875 
Q 56.890625 62.453125 56.890625 51.90625 
Q 56.890625 45.015625 53.6875 40.46875 
Q 50.484375 35.9375 44.390625 34.1875 
z
M 19.671875 64.796875 
L 19.671875 38.921875 
L 32.078125 38.921875 
Q 39.203125 38.921875 42.84375 42.21875 
Q 46.484375 45.515625 46.484375 51.90625 
Q 46.484375 58.296875 42.84375 61.546875 
Q 39.203125 64.796875 32.078125 64.796875 
z
" id="DejaVuSans-82"/>
     <path d="M 30.609375 48.390625 
Q 23.390625 48.390625 19.1875 42.75 
Q 14.984375 37.109375 14.984375 27.296875 
Q 14.984375 17.484375 19.15625 11.84375 
Q 23.34375 6.203125 30.609375 6.203125 
Q 37.796875 6.203125 41.984375 11.859375 
Q 46.1875 17.53125 46.1875 27.296875 
Q 46.1875 37.015625 41.984375 42.703125 
Q 37.796875 48.390625 30.609375 48.390625 
z
M 30.609375 56 
Q 42.328125 56 49.015625 48.375 
Q 55.71875 40.765625 55.71875 27.296875 
Q 55.71875 13.875 49.015625 6.21875 
Q 42.328125 -1.421875 30.609375 -1.421875 
Q 18.84375 -1.421875 12.171875 6.21875 
Q 5.515625 13.875 5.515625 27.296875 
Q 5.515625 40.765625 12.171875 48.375 
Q 18.84375 56 30.609375 56 
z
" id="DejaVuSans-111"/>
     <path d="M 8.5 21.578125 
L 8.5 54.6875 
L 17.484375 54.6875 
L 17.484375 21.921875 
Q 17.484375 14.15625 20.5 10.265625 
Q 23.53125 6.390625 29.59375 6.390625 
Q 36.859375 6.390625 41.078125 11.03125 
Q 45.3125 15.671875 45.3125 23.6875 
L 45.3125 54.6875 
L 54.296875 54.6875 
L 54.296875 0 
L 45.3125 0 
L 45.3125 8.40625 
Q 42.046875 3.421875 37.71875 1 
Q 33.40625 -1.421875 27.6875 -1.421875 
Q 18.265625 -1.421875 13.375 4.4375 
Q 8.5 10.296875 8.5 21.578125 
z
M 31.109375 56 
z
" id="DejaVuSans-117"/>
     <path d="M 45.40625 46.390625 
L 45.40625 75.984375 
L 54.390625 75.984375 
L 54.390625 0 
L 45.40625 0 
L 45.40625 8.203125 
Q 42.578125 3.328125 38.25 0.953125 
Q 33.9375 -1.421875 27.875 -1.421875 
Q 17.96875 -1.421875 11.734375 6.484375 
Q 5.515625 14.40625 5.515625 27.296875 
Q 5.515625 40.1875 11.734375 48.09375 
Q 17.96875 56 27.875 56 
Q 33.9375 56 38.25 53.625 
Q 42.578125 51.265625 45.40625 46.390625 
z
M 14.796875 27.296875 
Q 14.796875 17.390625 18.875 11.75 
Q 22.953125 6.109375 30.078125 6.109375 
Q 37.203125 6.109375 41.296875 11.75 
Q 45.40625 17.390625 45.40625 27.296875 
Q 45.40625 37.203125 41.296875 42.84375 
Q 37.203125 48.484375 30.078125 48.484375 
Q 22.953125 48.484375 18.875 42.84375 
Q 14.796875 37.203125 14.796875 27.296875 
z
" id="DejaVuSans-100"/>
     <path d="M 2.984375 54.6875 
L 12.5 54.6875 
L 29.59375 8.796875 
L 46.6875 54.6875 
L 56.203125 54.6875 
L 35.6875 0 
L 23.484375 0 
z
" id="DejaVuSans-118"/>
     <path d="M 9.421875 75.984375 
L 18.40625 75.984375 
L 18.40625 0 
L 9.421875 0 
z
" id="DejaVuSans-108"/>
    </defs>
    <g transform="translate(189.246094 50.8512)scale(0.22 -0.22)">
     <use xlink:href="#DejaVuSans-82"/>
     <use x="69.419922" xlink:href="#DejaVuSans-111"/>
     <use x="130.601562" xlink:href="#DejaVuSans-117"/>
     <use x="193.980469" xlink:href="#DejaVuSans-110"/>
     <use x="257.359375" xlink:href="#DejaVuSans-100"/>
     <use x="320.835938" xlink:href="#DejaVuSans-32"/>
     <use x="352.623047" xlink:href="#DejaVuSans-53"/>
     <use x="416.246094" xlink:href="#DejaVuSans-32"/>
     <use x="448.033203" xlink:href="#DejaVuSans-111"/>
     <use x="509.214844" xlink:href="#DejaVuSans-102"/>
     <use x="544.419922" xlink:href="#DejaVuSans-32"/>
     <use x="576.207031" xlink:href="#DejaVuSans-79"/>
     <use x="654.917969" xlink:href="#DejaVuSans-77"/>
     <use x="741.197266" xlink:href="#DejaVuSans-84"/>
     <use x="802.28125" xlink:href="#DejaVuSans-32"/>
     <use x="834.068359" xlink:href="#DejaVuSans-101"/>
     <use x="895.591797" xlink:href="#DejaVuSans-118"/>
     <use x="954.771484" xlink:href="#DejaVuSans-111"/>
     <use x="1015.953125" xlink:href="#DejaVuSans-108"/>
     <use x="1043.736328" xlink:href="#DejaVuSans-117"/>
     <use x="1107.115234" xlink:href="#DejaVuSans-116"/>
     <use x="1146.324219" xlink:href="#DejaVuSans-105"/>
     <use x="1174.107422" xlink:href="#DejaVuSans-111"/>
     <use x="1235.289062" xlink:href="#DejaVuSans-110"/>
    </g>
   </g>
  </g>
 </g>
 <defs>
  <clipPath id="p9a5b1d5a3e">
   <rect height="364.7952" width="502.2" x="81" y="56.8512"/>
  </clipPath>
 </defs>
</svg>
