<?xml version="1.0" encoding="utf-8" standalone="no"?>
<!DOCTYPE svg PUBLIC "-//W3C//DTD SVG 1.1//EN"
  "http://www.w3.org/Graphics/SVG/1.1/DTD/svg11.dtd">
<!-- Created with matplotlib (https://matplotlib.org/) -->
<svg height="473.76pt" version="1.1" viewBox="0 0 648 473.76" width="648pt" xmlns="http://www.w3.org/2000/svg" xmlns:xlink="http://www.w3.org/1999/xlink">
 <defs>
  <style type="text/css">
*{stroke-linecap:butt;stroke-linejoin:round;}
  </style>
 </defs>
 <g id="figure_1">
  <g id="patch_1">
   <path d="M 0 473.76 
L 648 473.76 
L 648 0 
L 0 0 
z
" style="fill:#ffffff;"/>
  </g>
  <g id="axes_1">
   <g id="patch_2">
    <path d="M 81 421.6464 
L 583.2 421.6464 
L 583.2 56.8512 
L 81 56.8512 
z
" style="fill:#ffffff;"/>
   </g>
   <g id="patch_3">
    <path clip-path="url(#p71d8a375b1)" d="M 103.827273 421.6464 
L 137.637811 421.6464 
L 137.637811 260.481273 
L 103.827273 260.481273 
z
" style="fill:#008cff;stroke:#000000;stroke-linejoin:miter;stroke-width:4;"/>
   </g>
   <g id="patch_4">
    <path clip-path="url(#p71d8a375b1)" d="M 188.353619 421.6464 
L 222.164157 421.6464 
L 222.164157 193.186325 
L 188.353619 193.186325 
z
" style="fill:#008cff;stroke:#000000;stroke-linejoin:miter;stroke-width:4;"/>
   </g>
   <g id="patch_5">
    <path clip-path="url(#p71d8a375b1)" d="M 272.879965 421.6464 
L 306.690503 421.6464 
L 306.690503 219.092758 
L 272.879965 219.092758 
z
" style="fill:#008cff;stroke:#000000;stroke-linejoin:miter;stroke-width:4;"/>
   </g>
   <g id="patch_6">
    <path clip-path="url(#p71d8a375b1)" d="M 357.406311 421.6464 
L 391.216849 421.6464 
L 391.216849 95.100586 
L 357.406311 95.100586 
z
" style="fill:#008cff;stroke:#000000;stroke-linejoin:miter;stroke-width:4;"/>
   </g>
   <g id="patch_7">
    <path clip-path="url(#p71d8a375b1)" d="M 441.932657 421.6464 
L 475.743195 421.6464 
L 475.743195 251.966628 
L 441.932657 251.966628 
z
" style="fill:#008cff;stroke:#000000;stroke-linejoin:miter;stroke-width:4;"/>
   </g>
   <g id="patch_8">
    <path clip-path="url(#p71d8a375b1)" d="M 526.459003 421.6464 
L 560.269541 421.6464 
L 560.269541 237.942065 
L 526.459003 237.942065 
z
" style="fill:#008cff;stroke:#000000;stroke-linejoin:miter;stroke-width:4;"/>
   </g>
   <g id="LineCollection_1">
    <path clip-path="url(#p71d8a375b1)" d="M 120.732542 262.531692 
L 120.732542 258.430854 
" style="fill:none;stroke:#000000;stroke-width:2;"/>
   </g>
   <g id="LineCollection_2">
    <path clip-path="url(#p71d8a375b1)" d="M 205.258888 199.564671 
L 205.258888 186.807979 
" style="fill:none;stroke:#000000;stroke-width:2;"/>
   </g>
   <g id="LineCollection_3">
    <path clip-path="url(#p71d8a375b1)" d="M 289.785234 226.752287 
L 289.785234 211.433229 
" style="fill:none;stroke:#000000;stroke-width:2;"/>
   </g>
   <g id="LineCollection_4">
    <path clip-path="url(#p71d8a375b1)" d="M 374.31158 109.240005 
L 374.31158 80.961168 
" style="fill:none;stroke:#000000;stroke-width:2;"/>
   </g>
   <g id="LineCollection_5">
    <path clip-path="url(#p71d8a375b1)" d="M 458.837926 256.472428 
L 458.837926 247.460828 
" style="fill:none;stroke:#000000;stroke-width:2;"/>
   </g>
   <g id="LineCollection_6">
    <path clip-path="url(#p71d8a375b1)" d="M 543.364272 249.550412 
L 543.364272 226.333717 
" style="fill:none;stroke:#000000;stroke-width:2;"/>
   </g>
   <g id="line2d_1">
    <defs>
     <path d="M 5 0 
L -5 -0 
" id="m756771aa0f" style="stroke:#000000;stroke-width:2;"/>
    </defs>
    <g clip-path="url(#p71d8a375b1)">
     <use style="stroke:#000000;stroke-width:2;" x="120.732542" xlink:href="#m756771aa0f" y="262.531692"/>
    </g>
   </g>
   <g id="line2d_2">
    <g clip-path="url(#p71d8a375b1)">
     <use style="stroke:#000000;stroke-width:2;" x="120.732542" xlink:href="#m756771aa0f" y="258.430854"/>
    </g>
   </g>
   <g id="line2d_3">
    <g clip-path="url(#p71d8a375b1)">
     <use style="stroke:#000000;stroke-width:2;" x="205.258888" xlink:href="#m756771aa0f" y="199.564671"/>
    </g>
   </g>
   <g id="line2d_4">
    <g clip-path="url(#p71d8a375b1)">
     <use style="stroke:#000000;stroke-width:2;" x="205.258888" xlink:href="#m756771aa0f" y="186.807979"/>
    </g>
   </g>
   <g id="line2d_5">
    <g clip-path="url(#p71d8a375b1)">
     <use style="stroke:#000000;stroke-width:2;" x="289.785234" xlink:href="#m756771aa0f" y="226.752287"/>
    </g>
   </g>
   <g id="line2d_6">
    <g clip-path="url(#p71d8a375b1)">
     <use style="stroke:#000000;stroke-width:2;" x="289.785234" xlink:href="#m756771aa0f" y="211.433229"/>
    </g>
   </g>
   <g id="line2d_7">
    <g clip-path="url(#p71d8a375b1)">
     <use style="stroke:#000000;stroke-width:2;" x="374.31158" xlink:href="#m756771aa0f" y="109.240005"/>
    </g>
   </g>
   <g id="line2d_8">
    <g clip-path="url(#p71d8a375b1)">
     <use style="stroke:#000000;stroke-width:2;" x="374.31158" xlink:href="#m756771aa0f" y="80.961168"/>
    </g>
   </g>
   <g id="line2d_9">
    <g clip-path="url(#p71d8a375b1)">
     <use style="stroke:#000000;stroke-width:2;" x="458.837926" xlink:href="#m756771aa0f" y="256.472428"/>
    </g>
   </g>
   <g id="line2d_10">
    <g clip-path="url(#p71d8a375b1)">
     <use style="stroke:#000000;stroke-width:2;" x="458.837926" xlink:href="#m756771aa0f" y="247.460828"/>
    </g>
   </g>
   <g id="line2d_11">
    <g clip-path="url(#p71d8a375b1)">
     <use style="stroke:#000000;stroke-width:2;" x="543.364272" xlink:href="#m756771aa0f" y="249.550412"/>
    </g>
   </g>
   <g id="line2d_12">
    <g clip-path="url(#p71d8a375b1)">
     <use style="stroke:#000000;stroke-width:2;" x="543.364272" xlink:href="#m756771aa0f" y="226.333717"/>
    </g>
   </g>
   <g id="PathCollection_1">
    <path clip-path="url(#p71d8a375b1)" d="M 112.399209 265.784449 
C 113.785743 265.784449 115.115675 265.233573 116.096103 264.253145 
C 117.07653 263.272718 117.627406 261.942785 117.627406 260.556251 
C 117.627406 259.169717 117.07653 257.839785 116.096103 256.859357 
C 115.115675 255.878929 113.785743 255.328053 112.399209 255.328053 
C 111.012674 255.328053 109.682742 255.878929 108.702315 256.859357 
C 107.721887 257.839785 107.171011 259.169717 107.171011 260.556251 
C 107.171011 261.942785 107.721887 263.272718 108.702315 264.253145 
C 109.682742 265.233573 111.012674 265.784449 112.399209 265.784449 
z
" style="fill:none;stroke:#000000;stroke-width:2.5;"/>
   </g>
   <g id="PathCollection_2">
    <path clip-path="url(#p71d8a375b1)" d="M 120.732542 263.622591 
C 122.119076 263.622591 123.449008 263.071715 124.429436 262.091287 
C 125.409864 261.11086 125.96074 259.780927 125.96074 258.394393 
C 125.96074 257.007859 125.409864 255.677927 124.429436 254.697499 
C 123.449008 253.717071 122.119076 253.166195 120.732542 253.166195 
C 119.346008 253.166195 118.016076 253.717071 117.035648 254.697499 
C 116.05522 255.677927 115.504344 257.007859 115.504344 258.394393 
C 115.504344 259.780927 116.05522 261.11086 117.035648 262.091287 
C 118.016076 263.071715 119.346008 263.622591 120.732542 263.622591 
z
" style="fill:none;stroke:#000000;stroke-width:2.5;"/>
   </g>
   <g id="PathCollection_3">
    <path clip-path="url(#p71d8a375b1)" d="M 129.065875 267.721372 
C 130.45241 267.721372 131.782342 267.170496 132.762769 266.190068 
C 133.743197 265.20964 134.294073 263.879708 134.294073 262.493174 
C 134.294073 261.10664 133.743197 259.776708 132.762769 258.79628 
C 131.782342 257.815852 130.45241 257.264976 129.065875 257.264976 
C 127.679341 257.264976 126.349409 257.815852 125.368981 258.79628 
C 124.388553 259.776708 123.837678 261.10664 123.837678 262.493174 
C 123.837678 263.879708 124.388553 265.20964 125.368981 266.190068 
C 126.349409 267.170496 127.679341 267.721372 129.065875 267.721372 
z
" style="fill:none;stroke:#000000;stroke-width:2.5;"/>
   </g>
   <g id="PathCollection_4">
    <path clip-path="url(#p71d8a375b1)" d="M 196.925555 192.847262 
C 198.312089 192.847262 199.642021 192.296386 200.622449 191.315959 
C 201.602876 190.335531 202.153752 189.005599 202.153752 187.619065 
C 202.153752 186.23253 201.602876 184.902598 200.622449 183.92217 
C 199.642021 182.941743 198.312089 182.390867 196.925555 182.390867 
C 195.53902 182.390867 194.209088 182.941743 193.228661 183.92217 
C 192.248233 184.902598 191.697357 186.23253 191.697357 187.619065 
C 191.697357 189.005599 192.248233 190.335531 193.228661 191.315959 
C 194.209088 192.296386 195.53902 192.847262 196.925555 192.847262 
z
" style="fill:none;stroke:#000000;stroke-width:2.5;"/>
   </g>
   <g id="PathCollection_5">
    <path clip-path="url(#p71d8a375b1)" d="M 205.258888 205.373977 
C 206.645422 205.373977 207.975354 204.823101 208.955782 203.842674 
C 209.93621 202.862246 210.487086 201.532314 210.487086 200.14578 
C 210.487086 198.759245 209.93621 197.429313 208.955782 196.448885 
C 207.975354 195.468458 206.645422 194.917582 205.258888 194.917582 
C 203.872354 194.917582 202.542422 195.468458 201.561994 196.448885 
C 200.581566 197.429313 200.03069 198.759245 200.03069 200.14578 
C 200.03069 201.532314 200.581566 202.862246 201.561994 203.842674 
C 202.542422 204.823101 203.872354 205.373977 205.258888 205.373977 
z
" style="fill:none;stroke:#000000;stroke-width:2.5;"/>
   </g>
   <g id="PathCollection_6">
    <path clip-path="url(#p71d8a375b1)" d="M 213.592221 197.02233 
C 214.978756 197.02233 216.308688 196.471454 217.289115 195.491026 
C 218.269543 194.510598 218.820419 193.180666 218.820419 191.794132 
C 218.820419 190.407598 218.269543 189.077666 217.289115 188.097238 
C 216.308688 187.11681 214.978756 186.565934 213.592221 186.565934 
C 212.205687 186.565934 210.875755 187.11681 209.895327 188.097238 
C 208.914899 189.077666 208.364024 190.407598 208.364024 191.794132 
C 208.364024 193.180666 208.914899 194.510598 209.895327 195.491026 
C 210.875755 196.471454 212.205687 197.02233 213.592221 197.02233 
z
" style="fill:none;stroke:#000000;stroke-width:2.5;"/>
   </g>
   <g id="PathCollection_7">
    <path clip-path="url(#p71d8a375b1)" d="M 281.451901 231.960219 
C 282.838435 231.960219 284.168367 231.409343 285.148795 230.428916 
C 286.129223 229.448488 286.680098 228.118556 286.680098 226.732022 
C 286.680098 225.345487 286.129223 224.015555 285.148795 223.035127 
C 284.168367 222.0547 282.838435 221.503824 281.451901 221.503824 
C 280.065366 221.503824 278.735434 222.0547 277.755007 223.035127 
C 276.774579 224.015555 276.223703 225.345487 276.223703 226.732022 
C 276.223703 228.118556 276.774579 229.448488 277.755007 230.428916 
C 278.735434 231.409343 280.065366 231.960219 281.451901 231.960219 
z
" style="fill:none;stroke:#000000;stroke-width:2.5;"/>
   </g>
   <g id="PathCollection_8">
    <path clip-path="url(#p71d8a375b1)" d="M 289.785234 224.361327 
C 291.171768 224.361327 292.5017 223.810451 293.482128 222.830024 
C 294.462556 221.849596 295.013432 220.519664 295.013432 219.133129 
C 295.013432 217.746595 294.462556 216.416663 293.482128 215.436235 
C 292.5017 214.455808 291.171768 213.904932 289.785234 213.904932 
C 288.3987 213.904932 287.068768 214.455808 286.08834 215.436235 
C 285.107912 216.416663 284.557036 217.746595 284.557036 219.133129 
C 284.557036 220.519664 285.107912 221.849596 286.08834 222.830024 
C 287.068768 223.810451 288.3987 224.361327 289.785234 224.361327 
z
" style="fill:none;stroke:#000000;stroke-width:2.5;"/>
   </g>
   <g id="PathCollection_9">
    <path clip-path="url(#p71d8a375b1)" d="M 298.118567 216.641321 
C 299.505102 216.641321 300.835034 216.090445 301.815461 215.110018 
C 302.795889 214.12959 303.346765 212.799658 303.346765 211.413123 
C 303.346765 210.026589 302.795889 208.696657 301.815461 207.716229 
C 300.835034 206.735802 299.505102 206.184926 298.118567 206.184926 
C 296.732033 206.184926 295.402101 206.735802 294.421673 207.716229 
C 293.441245 208.696657 292.89037 210.026589 292.89037 211.413123 
C 292.89037 212.799658 293.441245 214.12959 294.421673 215.110018 
C 295.402101 216.090445 296.732033 216.641321 298.118567 216.641321 
z
" style="fill:none;stroke:#000000;stroke-width:2.5;"/>
   </g>
   <g id="PathCollection_10">
    <path clip-path="url(#p71d8a375b1)" d="M 365.978247 104.735629 
C 367.364781 104.735629 368.694713 104.184753 369.675141 103.204325 
C 370.655569 102.223897 371.206444 100.893965 371.206444 99.507431 
C 371.206444 98.120897 370.655569 96.790965 369.675141 95.810537 
C 368.694713 94.830109 367.364781 94.279233 365.978247 94.279233 
C 364.591712 94.279233 363.26178 94.830109 362.281353 95.810537 
C 361.300925 96.790965 360.750049 98.120897 360.750049 99.507431 
C 360.750049 100.893965 361.300925 102.223897 362.281353 103.204325 
C 363.26178 104.184753 364.591712 104.735629 365.978247 104.735629 
z
" style="fill:none;stroke:#000000;stroke-width:2.5;"/>
   </g>
   <g id="PathCollection_11">
    <path clip-path="url(#p71d8a375b1)" d="M 374.31158 111.739984 
C 375.698114 111.739984 377.028046 111.189108 378.008474 110.208681 
C 378.988902 109.228253 379.539778 107.898321 379.539778 106.511786 
C 379.539778 105.125252 378.988902 103.79532 378.008474 102.814892 
C 377.028046 101.834465 375.698114 101.283589 374.31158 101.283589 
C 372.925046 101.283589 371.595114 101.834465 370.614686 102.814892 
C 369.634258 103.79532 369.083382 105.125252 369.083382 106.511786 
C 369.083382 107.898321 369.634258 109.228253 370.614686 110.208681 
C 371.595114 111.189108 372.925046 111.739984 374.31158 111.739984 
z
" style="fill:none;stroke:#000000;stroke-width:2.5;"/>
   </g>
   <g id="PathCollection_12">
    <path clip-path="url(#p71d8a375b1)" d="M 382.644913 84.510739 
C 384.031448 84.510739 385.36138 83.959863 386.341807 82.979435 
C 387.322235 81.999008 387.873111 80.669076 387.873111 79.282541 
C 387.873111 77.896007 387.322235 76.566075 386.341807 75.585647 
C 385.36138 74.60522 384.031448 74.054344 382.644913 74.054344 
C 381.258379 74.054344 379.928447 74.60522 378.948019 75.585647 
C 377.967591 76.566075 377.416716 77.896007 377.416716 79.282541 
C 377.416716 80.669076 377.967591 81.999008 378.948019 82.979435 
C 379.928447 83.959863 381.258379 84.510739 382.644913 84.510739 
z
" style="fill:none;stroke:#000000;stroke-width:2.5;"/>
   </g>
   <g id="PathCollection_13">
    <path clip-path="url(#p71d8a375b1)" d="M 450.504593 261.428821 
C 451.891127 261.428821 453.221059 260.877945 454.201487 259.897517 
C 455.181915 258.91709 455.73279 257.587158 455.73279 256.200623 
C 455.73279 254.814089 455.181915 253.484157 454.201487 252.503729 
C 453.221059 251.523301 451.891127 250.972426 450.504593 250.972426 
C 449.118058 250.972426 447.788126 251.523301 446.807699 252.503729 
C 445.827271 253.484157 445.276395 254.814089 445.276395 256.200623 
C 445.276395 257.587158 445.827271 258.91709 446.807699 259.897517 
C 447.788126 260.877945 449.118058 261.428821 450.504593 261.428821 
z
" style="fill:none;stroke:#000000;stroke-width:2.5;"/>
   </g>
   <g id="PathCollection_14">
    <path clip-path="url(#p71d8a375b1)" d="M 458.837926 257.696453 
C 460.22446 257.696453 461.554392 257.145577 462.53482 256.165149 
C 463.515248 255.184721 464.066124 253.854789 464.066124 252.468255 
C 464.066124 251.081721 463.515248 249.751789 462.53482 248.771361 
C 461.554392 247.790933 460.22446 247.240057 458.837926 247.240057 
C 457.451392 247.240057 456.12146 247.790933 455.141032 248.771361 
C 454.160604 249.751789 453.609728 251.081721 453.609728 252.468255 
C 453.609728 253.854789 454.160604 255.184721 455.141032 256.165149 
C 456.12146 257.145577 457.451392 257.696453 458.837926 257.696453 
z
" style="fill:none;stroke:#000000;stroke-width:2.5;"/>
   </g>
   <g id="PathCollection_15">
    <path clip-path="url(#p71d8a375b1)" d="M 467.171259 252.459203 
C 468.557794 252.459203 469.887726 251.908327 470.868153 250.927899 
C 471.848581 249.947471 472.399457 248.617539 472.399457 247.231005 
C 472.399457 245.844471 471.848581 244.514539 470.868153 243.534111 
C 469.887726 242.553683 468.557794 242.002807 467.171259 242.002807 
C 465.784725 242.002807 464.454793 242.553683 463.474365 243.534111 
C 462.493938 244.514539 461.943062 245.844471 461.943062 247.231005 
C 461.943062 248.617539 462.493938 249.947471 463.474365 250.927899 
C 464.454793 251.908327 465.784725 252.459203 467.171259 252.459203 
z
" style="fill:none;stroke:#000000;stroke-width:2.5;"/>
   </g>
   <g id="PathCollection_16">
    <path clip-path="url(#p71d8a375b1)" d="M 535.030939 235.195832 
C 536.417473 235.195832 537.747405 234.644957 538.727833 233.664529 
C 539.708261 232.684101 540.259136 231.354169 540.259136 229.967635 
C 540.259136 228.5811 539.708261 227.251168 538.727833 226.270741 
C 537.747405 225.290313 536.417473 224.739437 535.030939 224.739437 
C 533.644404 224.739437 532.314472 225.290313 531.334045 226.270741 
C 530.353617 227.251168 529.802741 228.5811 529.802741 229.967635 
C 529.802741 231.354169 530.353617 232.684101 531.334045 233.664529 
C 532.314472 234.644957 533.644404 235.195832 535.030939 235.195832 
z
" style="fill:none;stroke:#000000;stroke-width:2.5;"/>
   </g>
   <g id="PathCollection_17">
    <path clip-path="url(#p71d8a375b1)" d="M 543.364272 237.826879 
C 544.750806 237.826879 546.080738 237.276003 547.061166 236.295575 
C 548.041594 235.315147 548.59247 233.985215 548.59247 232.598681 
C 548.59247 231.212147 548.041594 229.882215 547.061166 228.901787 
C 546.080738 227.921359 544.750806 227.370483 543.364272 227.370483 
C 541.977738 227.370483 540.647806 227.921359 539.667378 228.901787 
C 538.68695 229.882215 538.136074 231.212147 538.136074 232.598681 
C 538.136074 233.985215 538.68695 235.315147 539.667378 236.295575 
C 540.647806 237.276003 541.977738 237.826879 543.364272 237.826879 
z
" style="fill:none;stroke:#000000;stroke-width:2.5;"/>
   </g>
   <g id="PathCollection_18">
    <path clip-path="url(#p71d8a375b1)" d="M 551.697605 256.488077 
C 553.08414 256.488077 554.414072 255.937201 555.394499 254.956773 
C 556.374927 253.976345 556.925803 252.646413 556.925803 251.259879 
C 556.925803 249.873345 556.374927 248.543413 555.394499 247.562985 
C 554.414072 246.582557 553.08414 246.031681 551.697605 246.031681 
C 550.311071 246.031681 548.981139 246.582557 548.000711 247.562985 
C 547.020284 248.543413 546.469408 249.873345 546.469408 251.259879 
C 546.469408 252.646413 547.020284 253.976345 548.000711 254.956773 
C 548.981139 255.937201 550.311071 256.488077 551.697605 256.488077 
z
" style="fill:none;stroke:#000000;stroke-width:2.5;"/>
   </g>
   <g id="matplotlib.axis_1">
    <g id="xtick_1">
     <g id="line2d_13">
      <defs>
       <path d="M 0 0 
L 0 2 
" id="mfb0dc0adb3" style="stroke:#000000;"/>
      </defs>
      <g>
       <use style="stroke:#000000;" x="120.732542" xlink:href="#mfb0dc0adb3" y="421.6464"/>
      </g>
     </g>
     <g id="text_1">
      <!-- Gen3 -->
      <defs>
       <path d="M 59.515625 10.40625 
L 59.515625 29.984375 
L 43.40625 29.984375 
L 43.40625 38.09375 
L 69.28125 38.09375 
L 69.28125 6.78125 
Q 63.578125 2.734375 56.6875 0.65625 
Q 49.8125 -1.421875 42 -1.421875 
Q 24.90625 -1.421875 15.25 8.5625 
Q 5.609375 18.5625 5.609375 36.375 
Q 5.609375 54.25 15.25 64.234375 
Q 24.90625 74.21875 42 74.21875 
Q 49.125 74.21875 55.546875 72.453125 
Q 61.96875 70.703125 67.390625 67.28125 
L 67.390625 56.78125 
Q 61.921875 61.421875 55.765625 63.765625 
Q 49.609375 66.109375 42.828125 66.109375 
Q 29.4375 66.109375 22.71875 58.640625 
Q 16.015625 51.171875 16.015625 36.375 
Q 16.015625 21.625 22.71875 14.15625 
Q 29.4375 6.6875 42.828125 6.6875 
Q 48.046875 6.6875 52.140625 7.59375 
Q 56.25 8.5 59.515625 10.40625 
z
" id="DejaVuSans-71"/>
       <path d="M 56.203125 29.59375 
L 56.203125 25.203125 
L 14.890625 25.203125 
Q 15.484375 15.921875 20.484375 11.0625 
Q 25.484375 6.203125 34.421875 6.203125 
Q 39.59375 6.203125 44.453125 7.46875 
Q 49.3125 8.734375 54.109375 11.28125 
L 54.109375 2.78125 
Q 49.265625 0.734375 44.1875 -0.34375 
Q 39.109375 -1.421875 33.890625 -1.421875 
Q 20.796875 -1.421875 13.15625 6.1875 
Q 5.515625 13.8125 5.515625 26.8125 
Q 5.515625 40.234375 12.765625 48.109375 
Q 20.015625 56 32.328125 56 
Q 43.359375 56 49.78125 48.890625 
Q 56.203125 41.796875 56.203125 29.59375 
z
M 47.21875 32.234375 
Q 47.125 39.59375 43.09375 43.984375 
Q 39.0625 48.390625 32.421875 48.390625 
Q 24.90625 48.390625 20.390625 44.140625 
Q 15.875 39.890625 15.1875 32.171875 
z
" id="DejaVuSans-101"/>
       <path d="M 54.890625 33.015625 
L 54.890625 0 
L 45.90625 0 
L 45.90625 32.71875 
Q 45.90625 40.484375 42.875 44.328125 
Q 39.84375 48.1875 33.796875 48.1875 
Q 26.515625 48.1875 22.3125 43.546875 
Q 18.109375 38.921875 18.109375 30.90625 
L 18.109375 0 
L 9.078125 0 
L 9.078125 54.6875 
L 18.109375 54.6875 
L 18.109375 46.1875 
Q 21.34375 51.125 25.703125 53.5625 
Q 30.078125 56 35.796875 56 
Q 45.21875 56 50.046875 50.171875 
Q 54.890625 44.34375 54.890625 33.015625 
z
" id="DejaVuSans-110"/>
       <path d="M 40.578125 39.3125 
Q 47.65625 37.796875 51.625 33 
Q 55.609375 28.21875 55.609375 21.1875 
Q 55.609375 10.40625 48.1875 4.484375 
Q 40.765625 -1.421875 27.09375 -1.421875 
Q 22.515625 -1.421875 17.65625 -0.515625 
Q 12.796875 0.390625 7.625 2.203125 
L 7.625 11.71875 
Q 11.71875 9.328125 16.59375 8.109375 
Q 21.484375 6.890625 26.8125 6.890625 
Q 36.078125 6.890625 40.9375 10.546875 
Q 45.796875 14.203125 45.796875 21.1875 
Q 45.796875 27.640625 41.28125 31.265625 
Q 36.765625 34.90625 28.71875 34.90625 
L 20.21875 34.90625 
L 20.21875 43.015625 
L 29.109375 43.015625 
Q 36.375 43.015625 40.234375 45.921875 
Q 44.09375 48.828125 44.09375 54.296875 
Q 44.09375 59.90625 40.109375 62.90625 
Q 36.140625 65.921875 28.71875 65.921875 
Q 24.65625 65.921875 20.015625 65.03125 
Q 15.375 64.15625 9.8125 62.3125 
L 9.8125 71.09375 
Q 15.4375 72.65625 20.34375 73.4375 
Q 25.25 74.21875 29.59375 74.21875 
Q 40.828125 74.21875 47.359375 69.109375 
Q 53.90625 64.015625 53.90625 55.328125 
Q 53.90625 49.265625 50.4375 45.09375 
Q 46.96875 40.921875 40.578125 39.3125 
z
" id="DejaVuSans-51"/>
      </defs>
      <g transform="translate(99.451292 439.3039)scale(0.16 -0.16)">
       <use xlink:href="#DejaVuSans-71"/>
       <use x="77.490234" xlink:href="#DejaVuSans-101"/>
       <use x="139.013672" xlink:href="#DejaVuSans-110"/>
       <use x="202.392578" xlink:href="#DejaVuSans-51"/>
      </g>
     </g>
    </g>
    <g id="xtick_2">
     <g id="line2d_14">
      <g>
       <use style="stroke:#000000;" x="205.258888" xlink:href="#mfb0dc0adb3" y="421.6464"/>
      </g>
     </g>
     <g id="text_2">
      <!-- Gen4.1 -->
      <defs>
       <path d="M 37.796875 64.3125 
L 12.890625 25.390625 
L 37.796875 25.390625 
z
M 35.203125 72.90625 
L 47.609375 72.90625 
L 47.609375 25.390625 
L 58.015625 25.390625 
L 58.015625 17.1875 
L 47.609375 17.1875 
L 47.609375 0 
L 37.796875 0 
L 37.796875 17.1875 
L 4.890625 17.1875 
L 4.890625 26.703125 
z
" id="DejaVuSans-52"/>
       <path d="M 10.6875 12.40625 
L 21 12.40625 
L 21 0 
L 10.6875 0 
z
" id="DejaVuSans-46"/>
       <path d="M 12.40625 8.296875 
L 28.515625 8.296875 
L 28.515625 63.921875 
L 10.984375 60.40625 
L 10.984375 69.390625 
L 28.421875 72.90625 
L 38.28125 72.90625 
L 38.28125 8.296875 
L 54.390625 8.296875 
L 54.390625 0 
L 12.40625 0 
z
" id="DejaVuSans-49"/>
      </defs>
      <g transform="translate(176.345138 439.3039)scale(0.16 -0.16)">
       <use xlink:href="#DejaVuSans-71"/>
       <use x="77.490234" xlink:href="#DejaVuSans-101"/>
       <use x="139.013672" xlink:href="#DejaVuSans-110"/>
       <use x="202.392578" xlink:href="#DejaVuSans-52"/>
       <use x="266.015625" xlink:href="#DejaVuSans-46"/>
       <use x="297.802734" xlink:href="#DejaVuSans-49"/>
      </g>
     </g>
    </g>
    <g id="xtick_3">
     <g id="line2d_15">
      <g>
       <use style="stroke:#000000;" x="289.785234" xlink:href="#mfb0dc0adb3" y="421.6464"/>
      </g>
     </g>
     <g id="text_3">
      <!-- Gen4.2 -->
      <defs>
       <path d="M 19.1875 8.296875 
L 53.609375 8.296875 
L 53.609375 0 
L 7.328125 0 
L 7.328125 8.296875 
Q 12.9375 14.109375 22.625 23.890625 
Q 32.328125 33.6875 34.8125 36.53125 
Q 39.546875 41.84375 41.421875 45.53125 
Q 43.3125 49.21875 43.3125 52.78125 
Q 43.3125 58.59375 39.234375 62.25 
Q 35.15625 65.921875 28.609375 65.921875 
Q 23.96875 65.921875 18.8125 64.3125 
Q 13.671875 62.703125 7.8125 59.421875 
L 7.8125 69.390625 
Q 13.765625 71.78125 18.9375 73 
Q 24.125 74.21875 28.421875 74.21875 
Q 39.75 74.21875 46.484375 68.546875 
Q 53.21875 62.890625 53.21875 53.421875 
Q 53.21875 48.921875 51.53125 44.890625 
Q 49.859375 40.875 45.40625 35.40625 
Q 44.1875 33.984375 37.640625 27.21875 
Q 31.109375 20.453125 19.1875 8.296875 
z
" id="DejaVuSans-50"/>
      </defs>
      <g transform="translate(260.871484 439.3039)scale(0.16 -0.16)">
       <use xlink:href="#DejaVuSans-71"/>
       <use x="77.490234" xlink:href="#DejaVuSans-101"/>
       <use x="139.013672" xlink:href="#DejaVuSans-110"/>
       <use x="202.392578" xlink:href="#DejaVuSans-52"/>
       <use x="266.015625" xlink:href="#DejaVuSans-46"/>
       <use x="297.802734" xlink:href="#DejaVuSans-50"/>
      </g>
     </g>
    </g>
    <g id="xtick_4">
     <g id="line2d_16">
      <g>
       <use style="stroke:#000000;" x="374.31158" xlink:href="#mfb0dc0adb3" y="421.6464"/>
      </g>
     </g>
     <g id="text_4">
      <!-- Gen4.3 -->
      <g transform="translate(345.39783 439.3039)scale(0.16 -0.16)">
       <use xlink:href="#DejaVuSans-71"/>
       <use x="77.490234" xlink:href="#DejaVuSans-101"/>
       <use x="139.013672" xlink:href="#DejaVuSans-110"/>
       <use x="202.392578" xlink:href="#DejaVuSans-52"/>
       <use x="266.015625" xlink:href="#DejaVuSans-46"/>
       <use x="297.802734" xlink:href="#DejaVuSans-51"/>
      </g>
     </g>
    </g>
    <g id="xtick_5">
     <g id="line2d_17">
      <g>
       <use style="stroke:#000000;" x="458.837926" xlink:href="#mfb0dc0adb3" y="421.6464"/>
      </g>
     </g>
     <g id="text_5">
      <!-- Gen4.4 -->
      <g transform="translate(429.924176 439.3039)scale(0.16 -0.16)">
       <use xlink:href="#DejaVuSans-71"/>
       <use x="77.490234" xlink:href="#DejaVuSans-101"/>
       <use x="139.013672" xlink:href="#DejaVuSans-110"/>
       <use x="202.392578" xlink:href="#DejaVuSans-52"/>
       <use x="266.015625" xlink:href="#DejaVuSans-46"/>
       <use x="297.802734" xlink:href="#DejaVuSans-52"/>
      </g>
     </g>
    </g>
    <g id="xtick_6">
     <g id="line2d_18">
      <g>
       <use style="stroke:#000000;" x="543.364272" xlink:href="#mfb0dc0adb3" y="421.6464"/>
      </g>
     </g>
     <g id="text_6">
      <!-- Gen4.5 -->
      <defs>
       <path d="M 10.796875 72.90625 
L 49.515625 72.90625 
L 49.515625 64.59375 
L 19.828125 64.59375 
L 19.828125 46.734375 
Q 21.96875 47.46875 24.109375 47.828125 
Q 26.265625 48.1875 28.421875 48.1875 
Q 40.625 48.1875 47.75 41.5 
Q 54.890625 34.8125 54.890625 23.390625 
Q 54.890625 11.625 47.5625 5.09375 
Q 40.234375 -1.421875 26.90625 -1.421875 
Q 22.3125 -1.421875 17.546875 -0.640625 
Q 12.796875 0.140625 7.71875 1.703125 
L 7.71875 11.625 
Q 12.109375 9.234375 16.796875 8.0625 
Q 21.484375 6.890625 26.703125 6.890625 
Q 35.15625 6.890625 40.078125 11.328125 
Q 45.015625 15.765625 45.015625 23.390625 
Q 45.015625 31 40.078125 35.4375 
Q 35.15625 39.890625 26.703125 39.890625 
Q 22.75 39.890625 18.8125 39.015625 
Q 14.890625 38.140625 10.796875 36.28125 
z
" id="DejaVuSans-53"/>
      </defs>
      <g transform="translate(514.450522 439.3039)scale(0.16 -0.16)">
       <use xlink:href="#DejaVuSans-71"/>
       <use x="77.490234" xlink:href="#DejaVuSans-101"/>
       <use x="139.013672" xlink:href="#DejaVuSans-110"/>
       <use x="202.392578" xlink:href="#DejaVuSans-52"/>
       <use x="266.015625" xlink:href="#DejaVuSans-46"/>
       <use x="297.802734" xlink:href="#DejaVuSans-53"/>
      </g>
     </g>
    </g>
    <g id="text_7">
     <!-- GfOMT1 Variant -->
     <defs>
      <path d="M 37.109375 75.984375 
L 37.109375 68.5 
L 28.515625 68.5 
Q 23.6875 68.5 21.796875 66.546875 
Q 19.921875 64.59375 19.921875 59.515625 
L 19.921875 54.6875 
L 34.71875 54.6875 
L 34.71875 47.703125 
L 19.921875 47.703125 
L 19.921875 0 
L 10.890625 0 
L 10.890625 47.703125 
L 2.296875 47.703125 
L 2.296875 54.6875 
L 10.890625 54.6875 
L 10.890625 58.5 
Q 10.890625 67.625 15.140625 71.796875 
Q 19.390625 75.984375 28.609375 75.984375 
z
" id="DejaVuSans-102"/>
      <path d="M 39.40625 66.21875 
Q 28.65625 66.21875 22.328125 58.203125 
Q 16.015625 50.203125 16.015625 36.375 
Q 16.015625 22.609375 22.328125 14.59375 
Q 28.65625 6.59375 39.40625 6.59375 
Q 50.140625 6.59375 56.421875 14.59375 
Q 62.703125 22.609375 62.703125 36.375 
Q 62.703125 50.203125 56.421875 58.203125 
Q 50.140625 66.21875 39.40625 66.21875 
z
M 39.40625 74.21875 
Q 54.734375 74.21875 63.90625 63.9375 
Q 73.09375 53.65625 73.09375 36.375 
Q 73.09375 19.140625 63.90625 8.859375 
Q 54.734375 -1.421875 39.40625 -1.421875 
Q 24.03125 -1.421875 14.8125 8.828125 
Q 5.609375 19.09375 5.609375 36.375 
Q 5.609375 53.65625 14.8125 63.9375 
Q 24.03125 74.21875 39.40625 74.21875 
z
" id="DejaVuSans-79"/>
      <path d="M 9.8125 72.90625 
L 24.515625 72.90625 
L 43.109375 23.296875 
L 61.8125 72.90625 
L 76.515625 72.90625 
L 76.515625 0 
L 66.890625 0 
L 66.890625 64.015625 
L 48.09375 14.015625 
L 38.1875 14.015625 
L 19.390625 64.015625 
L 19.390625 0 
L 9.8125 0 
z
" id="DejaVuSans-77"/>
      <path d="M -0.296875 72.90625 
L 61.375 72.90625 
L 61.375 64.59375 
L 35.5 64.59375 
L 35.5 0 
L 25.59375 0 
L 25.59375 64.59375 
L -0.296875 64.59375 
z
" id="DejaVuSans-84"/>
      <path id="DejaVuSans-32"/>
      <path d="M 28.609375 0 
L 0.78125 72.90625 
L 11.078125 72.90625 
L 34.1875 11.53125 
L 57.328125 72.90625 
L 67.578125 72.90625 
L 39.796875 0 
z
" id="DejaVuSans-86"/>
      <path d="M 34.28125 27.484375 
Q 23.390625 27.484375 19.1875 25 
Q 14.984375 22.515625 14.984375 16.5 
Q 14.984375 11.71875 18.140625 8.90625 
Q 21.296875 6.109375 26.703125 6.109375 
Q 34.1875 6.109375 38.703125 11.40625 
Q 43.21875 16.703125 43.21875 25.484375 
L 43.21875 27.484375 
z
M 52.203125 31.203125 
L 52.203125 0 
L 43.21875 0 
L 43.21875 8.296875 
Q 40.140625 3.328125 35.546875 0.953125 
Q 30.953125 -1.421875 24.3125 -1.421875 
Q 15.921875 -1.421875 10.953125 3.296875 
Q 6 8.015625 6 15.921875 
Q 6 25.140625 12.171875 29.828125 
Q 18.359375 34.515625 30.609375 34.515625 
L 43.21875 34.515625 
L 43.21875 35.40625 
Q 43.21875 41.609375 39.140625 45 
Q 35.0625 48.390625 27.6875 48.390625 
Q 23 48.390625 18.546875 47.265625 
Q 14.109375 46.140625 10.015625 43.890625 
L 10.015625 52.203125 
Q 14.9375 54.109375 19.578125 55.046875 
Q 24.21875 56 28.609375 56 
Q 40.484375 56 46.34375 49.84375 
Q 52.203125 43.703125 52.203125 31.203125 
z
" id="DejaVuSans-97"/>
      <path d="M 41.109375 46.296875 
Q 39.59375 47.171875 37.8125 47.578125 
Q 36.03125 48 33.890625 48 
Q 26.265625 48 22.1875 43.046875 
Q 18.109375 38.09375 18.109375 28.8125 
L 18.109375 0 
L 9.078125 0 
L 9.078125 54.6875 
L 18.109375 54.6875 
L 18.109375 46.1875 
Q 20.953125 51.171875 25.484375 53.578125 
Q 30.03125 56 36.53125 56 
Q 37.453125 56 38.578125 55.875 
Q 39.703125 55.765625 41.0625 55.515625 
z
" id="DejaVuSans-114"/>
      <path d="M 9.421875 54.6875 
L 18.40625 54.6875 
L 18.40625 0 
L 9.421875 0 
z
M 9.421875 75.984375 
L 18.40625 75.984375 
L 18.40625 64.59375 
L 9.421875 64.59375 
z
" id="DejaVuSans-105"/>
      <path d="M 18.3125 70.21875 
L 18.3125 54.6875 
L 36.8125 54.6875 
L 36.8125 47.703125 
L 18.3125 47.703125 
L 18.3125 18.015625 
Q 18.3125 11.328125 20.140625 9.421875 
Q 21.96875 7.515625 27.59375 7.515625 
L 36.8125 7.515625 
L 36.8125 0 
L 27.59375 0 
Q 17.1875 0 13.234375 3.875 
Q 9.28125 7.765625 9.28125 18.015625 
L 9.28125 47.703125 
L 2.6875 47.703125 
L 2.6875 54.6875 
L 9.28125 54.6875 
L 9.28125 70.21875 
z
" id="DejaVuSans-116"/>
     </defs>
     <g transform="translate(260.415 460.308587)scale(0.18 -0.18)">
      <use xlink:href="#DejaVuSans-71"/>
      <use x="77.490234" xlink:href="#DejaVuSans-102"/>
      <use x="112.695312" xlink:href="#DejaVuSans-79"/>
      <use x="191.40625" xlink:href="#DejaVuSans-77"/>
      <use x="277.685547" xlink:href="#DejaVuSans-84"/>
      <use x="338.769531" xlink:href="#DejaVuSans-49"/>
      <use x="402.392578" xlink:href="#DejaVuSans-32"/>
      <use x="434.179688" xlink:href="#DejaVuSans-86"/>
      <use x="502.478516" xlink:href="#DejaVuSans-97"/>
      <use x="563.757812" xlink:href="#DejaVuSans-114"/>
      <use x="604.871094" xlink:href="#DejaVuSans-105"/>
      <use x="632.654297" xlink:href="#DejaVuSans-97"/>
      <use x="693.933594" xlink:href="#DejaVuSans-110"/>
      <use x="757.3125" xlink:href="#DejaVuSans-116"/>
     </g>
    </g>
   </g>
   <g id="matplotlib.axis_2">
    <g id="ytick_1">
     <g id="line2d_19">
      <defs>
       <path d="M 0 0 
L -2 0 
" id="mb96cb6823d" style="stroke:#000000;"/>
      </defs>
      <g>
       <use style="stroke:#000000;" x="81" xlink:href="#mb96cb6823d" y="421.6464"/>
      </g>
     </g>
     <g id="text_8">
      <!-- 0 -->
      <defs>
       <path d="M 31.78125 66.40625 
Q 24.171875 66.40625 20.328125 58.90625 
Q 16.5 51.421875 16.5 36.375 
Q 16.5 21.390625 20.328125 13.890625 
Q 24.171875 6.390625 31.78125 6.390625 
Q 39.453125 6.390625 43.28125 13.890625 
Q 47.125 21.390625 47.125 36.375 
Q 47.125 51.421875 43.28125 58.90625 
Q 39.453125 66.40625 31.78125 66.40625 
z
M 31.78125 74.21875 
Q 44.046875 74.21875 50.515625 64.515625 
Q 56.984375 54.828125 56.984375 36.375 
Q 56.984375 17.96875 50.515625 8.265625 
Q 44.046875 -1.421875 31.78125 -1.421875 
Q 19.53125 -1.421875 13.0625 8.265625 
Q 6.59375 17.96875 6.59375 36.375 
Q 6.59375 54.828125 13.0625 64.515625 
Q 19.53125 74.21875 31.78125 74.21875 
z
" id="DejaVuSans-48"/>
      </defs>
      <g transform="translate(64.0475 428.484994)scale(0.18 -0.18)">
       <use xlink:href="#DejaVuSans-48"/>
      </g>
     </g>
    </g>
    <g id="ytick_2">
     <g id="line2d_20">
      <g>
       <use style="stroke:#000000;" x="81" xlink:href="#mb96cb6823d" y="341.17602"/>
      </g>
     </g>
     <g id="text_9">
      <!-- 1 -->
      <g transform="translate(64.0475 348.014614)scale(0.18 -0.18)">
       <use xlink:href="#DejaVuSans-49"/>
      </g>
     </g>
    </g>
    <g id="ytick_3">
     <g id="line2d_21">
      <g>
       <use style="stroke:#000000;" x="81" xlink:href="#mb96cb6823d" y="260.70564"/>
      </g>
     </g>
     <g id="text_10">
      <!-- 2 -->
      <g transform="translate(64.0475 267.544234)scale(0.18 -0.18)">
       <use xlink:href="#DejaVuSans-50"/>
      </g>
     </g>
    </g>
    <g id="ytick_4">
     <g id="line2d_22">
      <g>
       <use style="stroke:#000000;" x="81" xlink:href="#mb96cb6823d" y="180.23526"/>
      </g>
     </g>
     <g id="text_11">
      <!-- 3 -->
      <g transform="translate(64.0475 187.073853)scale(0.18 -0.18)">
       <use xlink:href="#DejaVuSans-51"/>
      </g>
     </g>
    </g>
    <g id="ytick_5">
     <g id="line2d_23">
      <g>
       <use style="stroke:#000000;" x="81" xlink:href="#mb96cb6823d" y="99.76488"/>
      </g>
     </g>
     <g id="text_12">
      <!-- 4 -->
      <g transform="translate(64.0475 106.603473)scale(0.18 -0.18)">
       <use xlink:href="#DejaVuSans-52"/>
      </g>
     </g>
    </g>
    <g id="text_13">
     <!-- $(RFU/OD) \times 10^4$ -->
     <defs>
      <path d="M 31 75.875 
Q 24.46875 64.65625 21.28125 53.65625 
Q 18.109375 42.671875 18.109375 31.390625 
Q 18.109375 20.125 21.3125 9.0625 
Q 24.515625 -2 31 -13.1875 
L 23.1875 -13.1875 
Q 15.875 -1.703125 12.234375 9.375 
Q 8.59375 20.453125 8.59375 31.390625 
Q 8.59375 42.28125 12.203125 53.3125 
Q 15.828125 64.359375 23.1875 75.875 
z
" id="DejaVuSans-40"/>
      <path d="M 25.203125 64.796875 
L 20.21875 38.921875 
L 32.90625 38.921875 
Q 40.375 38.921875 44.984375 43.046875 
Q 49.609375 47.171875 49.609375 53.8125 
Q 49.609375 59.125 46.5 61.953125 
Q 43.40625 64.796875 37.59375 64.796875 
z
M 43.3125 35.015625 
Q 46.4375 34.28125 48.515625 31.390625 
Q 50.59375 28.515625 53.328125 19.921875 
L 59.515625 0 
L 49.125 0 
L 43.40625 18.703125 
Q 41.21875 25.921875 38.328125 28.359375 
Q 35.453125 30.8125 29.5 30.8125 
L 18.609375 30.8125 
L 12.59375 0 
L 2.6875 0 
L 16.890625 72.90625 
L 39.109375 72.90625 
Q 49.21875 72.90625 54.609375 68.328125 
Q 60.015625 63.765625 60.015625 55.171875 
Q 60.015625 47.5625 55.421875 41.984375 
Q 50.828125 36.421875 43.3125 35.015625 
z
" id="DejaVuSans-Oblique-82"/>
      <path d="M 16.890625 72.90625 
L 58.6875 72.90625 
L 57.078125 64.59375 
L 25.09375 64.59375 
L 20.90625 43.109375 
L 49.8125 43.109375 
L 48.1875 34.8125 
L 19.28125 34.8125 
L 12.5 0 
L 2.6875 0 
z
" id="DejaVuSans-Oblique-70"/>
      <path d="M 15.484375 72.90625 
L 25.390625 72.90625 
L 16.796875 28.609375 
Q 16.265625 25.640625 16.046875 23.703125 
Q 15.828125 21.78125 15.828125 20.3125 
Q 15.828125 13.578125 19.578125 10.078125 
Q 23.34375 6.59375 30.609375 6.59375 
Q 40.046875 6.59375 45.28125 11.765625 
Q 50.53125 16.9375 52.78125 28.609375 
L 61.375 72.90625 
L 71.296875 72.90625 
L 62.5 27.390625 
Q 59.625 12.640625 51.5625 5.609375 
Q 43.5 -1.421875 29.5 -1.421875 
Q 18.5625 -1.421875 12.1875 4.078125 
Q 5.8125 9.578125 5.8125 19 
Q 5.8125 20.703125 6.046875 22.828125 
Q 6.296875 24.953125 6.78125 27.390625 
z
" id="DejaVuSans-Oblique-85"/>
      <path d="M 25.390625 72.90625 
L 33.6875 72.90625 
L 8.296875 -9.28125 
L 0 -9.28125 
z
" id="DejaVuSans-47"/>
      <path d="M 45.609375 66.21875 
Q 37.5 66.21875 31.296875 62.28125 
Q 25.09375 58.34375 20.515625 50.296875 
Q 17.578125 45.171875 16.03125 39.40625 
Q 14.5 33.640625 14.5 27.78125 
Q 14.5 17.625 19.359375 12.109375 
Q 24.21875 6.59375 33.109375 6.59375 
Q 41.109375 6.59375 47.375 10.5625 
Q 53.65625 14.546875 58.109375 22.40625 
Q 61.078125 27.6875 62.640625 33.46875 
Q 64.203125 39.265625 64.203125 45.015625 
Q 64.203125 55.125 59.3125 60.671875 
Q 54.4375 66.21875 45.609375 66.21875 
z
M 32.8125 -1.421875 
Q 19.390625 -1.421875 11.6875 6.53125 
Q 4 14.5 4 28.328125 
Q 4 36.234375 7 44.484375 
Q 10.015625 52.734375 15.28125 59.1875 
Q 21.484375 66.75 29.09375 70.484375 
Q 36.71875 74.21875 45.90625 74.21875 
Q 59.28125 74.21875 66.984375 66.328125 
Q 74.703125 58.453125 74.703125 44.828125 
Q 74.703125 36.421875 71.765625 28.3125 
Q 68.84375 20.21875 63.375 13.625 
Q 57.125 6 49.578125 2.28125 
Q 42.046875 -1.421875 32.8125 -1.421875 
z
" id="DejaVuSans-Oblique-79"/>
      <path d="M 16.890625 72.90625 
L 38.09375 72.90625 
Q 54.984375 72.90625 63.59375 65.75 
Q 72.21875 58.59375 72.21875 44.484375 
Q 72.21875 35.15625 68.9375 26.53125 
Q 65.671875 17.921875 59.90625 12.015625 
Q 54.109375 5.953125 45.171875 2.96875 
Q 36.234375 0 24.03125 0 
L 2.6875 0 
z
M 25.203125 64.796875 
L 14.203125 8.109375 
L 27.09375 8.109375 
Q 43.65625 8.109375 52.734375 17.625 
Q 61.8125 27.15625 61.8125 44.484375 
Q 61.8125 54.984375 55.953125 59.890625 
Q 50.09375 64.796875 37.59375 64.796875 
z
" id="DejaVuSans-Oblique-68"/>
      <path d="M 8.015625 75.875 
L 15.828125 75.875 
Q 23.140625 64.359375 26.78125 53.3125 
Q 30.421875 42.28125 30.421875 31.390625 
Q 30.421875 20.453125 26.78125 9.375 
Q 23.140625 -1.703125 15.828125 -13.1875 
L 8.015625 -13.1875 
Q 14.5 -2 17.703125 9.0625 
Q 20.90625 20.125 20.90625 31.390625 
Q 20.90625 42.671875 17.703125 53.65625 
Q 14.5 64.65625 8.015625 75.875 
z
" id="DejaVuSans-41"/>
      <path d="M 70.125 53.71875 
L 47.796875 31.296875 
L 70.125 8.984375 
L 64.3125 3.078125 
L 41.890625 25.484375 
L 19.484375 3.078125 
L 13.71875 8.984375 
L 35.984375 31.296875 
L 13.71875 53.71875 
L 19.484375 59.625 
L 41.890625 37.203125 
L 64.3125 59.625 
z
" id="DejaVuSans-215"/>
     </defs>
     <g transform="translate(56.304063 308.1888)rotate(-90)scale(0.18 -0.18)">
      <use transform="translate(0 0.684375)" xlink:href="#DejaVuSans-40"/>
      <use transform="translate(39.013672 0.684375)" xlink:href="#DejaVuSans-Oblique-82"/>
      <use transform="translate(108.496094 0.684375)" xlink:href="#DejaVuSans-Oblique-70"/>
      <use transform="translate(166.015625 0.684375)" xlink:href="#DejaVuSans-Oblique-85"/>
      <use transform="translate(239.208984 0.684375)" xlink:href="#DejaVuSans-47"/>
      <use transform="translate(272.900391 0.684375)" xlink:href="#DejaVuSans-Oblique-79"/>
      <use transform="translate(351.611328 0.684375)" xlink:href="#DejaVuSans-Oblique-68"/>
      <use transform="translate(428.613281 0.684375)" xlink:href="#DejaVuSans-41"/>
      <use transform="translate(487.109375 0.684375)" xlink:href="#DejaVuSans-215"/>
      <use transform="translate(590.380859 0.684375)" xlink:href="#DejaVuSans-49"/>
      <use transform="translate(654.003906 0.684375)" xlink:href="#DejaVuSans-48"/>
      <use transform="translate(718.583984 38.965625)scale(0.7)" xlink:href="#DejaVuSans-52"/>
     </g>
    </g>
   </g>
   <g id="patch_9">
    <path d="M 81 421.6464 
L 81 56.8512 
" style="fill:none;stroke:#000000;stroke-linecap:square;stroke-linejoin:miter;stroke-width:0.8;"/>
   </g>
   <g id="patch_10">
    <path d="M 81 421.6464 
L 583.2 421.6464 
" style="fill:none;stroke:#000000;stroke-linecap:square;stroke-linejoin:miter;stroke-width:0.8;"/>
   </g>
   <g id="text_14">
    <!-- Round 4 of OMT evolution -->
    <defs>
     <path d="M 44.390625 34.1875 
Q 47.5625 33.109375 50.5625 29.59375 
Q 53.5625 26.078125 56.59375 19.921875 
L 66.609375 0 
L 56 0 
L 46.6875 18.703125 
Q 43.0625 26.03125 39.671875 28.421875 
Q 36.28125 30.8125 30.421875 30.8125 
L 19.671875 30.8125 
L 19.671875 0 
L 9.8125 0 
L 9.8125 72.90625 
L 32.078125 72.90625 
Q 44.578125 72.90625 50.734375 67.671875 
Q 56.890625 62.453125 56.890625 51.90625 
Q 56.890625 45.015625 53.6875 40.46875 
Q 50.484375 35.9375 44.390625 34.1875 
z
M 19.671875 64.796875 
L 19.671875 38.921875 
L 32.078125 38.921875 
Q 39.203125 38.921875 42.84375 42.21875 
Q 46.484375 45.515625 46.484375 51.90625 
Q 46.484375 58.296875 42.84375 61.546875 
Q 39.203125 64.796875 32.078125 64.796875 
z
" id="DejaVuSans-82"/>
     <path d="M 30.609375 48.390625 
Q 23.390625 48.390625 19.1875 42.75 
Q 14.984375 37.109375 14.984375 27.296875 
Q 14.984375 17.484375 19.15625 11.84375 
Q 23.34375 6.203125 30.609375 6.203125 
Q 37.796875 6.203125 41.984375 11.859375 
Q 46.1875 17.53125 46.1875 27.296875 
Q 46.1875 37.015625 41.984375 42.703125 
Q 37.796875 48.390625 30.609375 48.390625 
z
M 30.609375 56 
Q 42.328125 56 49.015625 48.375 
Q 55.71875 40.765625 55.71875 27.296875 
Q 55.71875 13.875 49.015625 6.21875 
Q 42.328125 -1.421875 30.609375 -1.421875 
Q 18.84375 -1.421875 12.171875 6.21875 
Q 5.515625 13.875 5.515625 27.296875 
Q 5.515625 40.765625 12.171875 48.375 
Q 18.84375 56 30.609375 56 
z
" id="DejaVuSans-111"/>
     <path d="M 8.5 21.578125 
L 8.5 54.6875 
L 17.484375 54.6875 
L 17.484375 21.921875 
Q 17.484375 14.15625 20.5 10.265625 
Q 23.53125 6.390625 29.59375 6.390625 
Q 36.859375 6.390625 41.078125 11.03125 
Q 45.3125 15.671875 45.3125 23.6875 
L 45.3125 54.6875 
L 54.296875 54.6875 
L 54.296875 0 
L 45.3125 0 
L 45.3125 8.40625 
Q 42.046875 3.421875 37.71875 1 
Q 33.40625 -1.421875 27.6875 -1.421875 
Q 18.265625 -1.421875 13.375 4.4375 
Q 8.5 10.296875 8.5 21.578125 
z
M 31.109375 56 
z
" id="DejaVuSans-117"/>
     <path d="M 45.40625 46.390625 
L 45.40625 75.984375 
L 54.390625 75.984375 
L 54.390625 0 
L 45.40625 0 
L 45.40625 8.203125 
Q 42.578125 3.328125 38.25 0.953125 
Q 33.9375 -1.421875 27.875 -1.421875 
Q 17.96875 -1.421875 11.734375 6.484375 
Q 5.515625 14.40625 5.515625 27.296875 
Q 5.515625 40.1875 11.734375 48.09375 
Q 17.96875 56 27.875 56 
Q 33.9375 56 38.25 53.625 
Q 42.578125 51.265625 45.40625 46.390625 
z
M 14.796875 27.296875 
Q 14.796875 17.390625 18.875 11.75 
Q 22.953125 6.109375 30.078125 6.109375 
Q 37.203125 6.109375 41.296875 11.75 
Q 45.40625 17.390625 45.40625 27.296875 
Q 45.40625 37.203125 41.296875 42.84375 
Q 37.203125 48.484375 30.078125 48.484375 
Q 22.953125 48.484375 18.875 42.84375 
Q 14.796875 37.203125 14.796875 27.296875 
z
" id="DejaVuSans-100"/>
     <path d="M 2.984375 54.6875 
L 12.5 54.6875 
L 29.59375 8.796875 
L 46.6875 54.6875 
L 56.203125 54.6875 
L 35.6875 0 
L 23.484375 0 
z
" id="DejaVuSans-118"/>
     <path d="M 9.421875 75.984375 
L 18.40625 75.984375 
L 18.40625 0 
L 9.421875 0 
z
" id="DejaVuSans-108"/>
    </defs>
    <g transform="translate(189.246094 50.8512)scale(0.22 -0.22)">
     <use xlink:href="#DejaVuSans-82"/>
     <use x="69.419922" xlink:href="#DejaVuSans-111"/>
     <use x="130.601562" xlink:href="#DejaVuSans-117"/>
     <use x="193.980469" xlink:href="#DejaVuSans-110"/>
     <use x="257.359375" xlink:href="#DejaVuSans-100"/>
     <use x="320.835938" xlink:href="#DejaVuSans-32"/>
     <use x="352.623047" xlink:href="#DejaVuSans-52"/>
     <use x="416.246094" xlink:href="#DejaVuSans-32"/>
     <use x="448.033203" xlink:href="#DejaVuSans-111"/>
     <use x="509.214844" xlink:href="#DejaVuSans-102"/>
     <use x="544.419922" xlink:href="#DejaVuSans-32"/>
     <use x="576.207031" xlink:href="#DejaVuSans-79"/>
     <use x="654.917969" xlink:href="#DejaVuSans-77"/>
     <use x="741.197266" xlink:href="#DejaVuSans-84"/>
     <use x="802.28125" xlink:href="#DejaVuSans-32"/>
     <use x="834.068359" xlink:href="#DejaVuSans-101"/>
     <use x="895.591797" xlink:href="#DejaVuSans-118"/>
     <use x="954.771484" xlink:href="#DejaVuSans-111"/>
     <use x="1015.953125" xlink:href="#DejaVuSans-108"/>
     <use x="1043.736328" xlink:href="#DejaVuSans-117"/>
     <use x="1107.115234" xlink:href="#DejaVuSans-116"/>
     <use x="1146.324219" xlink:href="#DejaVuSans-105"/>
     <use x="1174.107422" xlink:href="#DejaVuSans-111"/>
     <use x="1235.289062" xlink:href="#DejaVuSans-110"/>
    </g>
   </g>
  </g>
 </g>
 <defs>
  <clipPath id="p71d8a375b1">
   <rect height="364.7952" width="502.2" x="81" y="56.8512"/>
  </clipPath>
 </defs>
</svg>
