<?xml version="1.0" encoding="utf-8" standalone="no"?>
<!DOCTYPE svg PUBLIC "-//W3C//DTD SVG 1.1//EN"
  "http://www.w3.org/Graphics/SVG/1.1/DTD/svg11.dtd">
<!-- Created with matplotlib (https://matplotlib.org/) -->
<svg height="473.76pt" version="1.1" viewBox="0 0 648 473.76" width="648pt" xmlns="http://www.w3.org/2000/svg" xmlns:xlink="http://www.w3.org/1999/xlink">
 <defs>
  <style type="text/css">
*{stroke-linecap:butt;stroke-linejoin:round;}
  </style>
 </defs>
 <g id="figure_1">
  <g id="patch_1">
   <path d="M 0 473.76 
L 648 473.76 
L 648 0 
L 0 0 
z
" style="fill:#ffffff;"/>
  </g>
  <g id="axes_1">
   <g id="patch_2">
    <path d="M 81 421.6464 
L 583.2 421.6464 
L 583.2 56.8512 
L 81 56.8512 
z
" style="fill:#ffffff;"/>
   </g>
   <g id="patch_3">
    <path clip-path="url(#p830caef3ea)" d="M 103.827273 421.6464 
L 144.771147 421.6464 
L 144.771147 197.738393 
L 103.827273 197.738393 
z
" style="fill:#008cff;stroke:#000000;stroke-linejoin:miter;stroke-width:4;"/>
   </g>
   <g id="patch_4">
    <path clip-path="url(#p830caef3ea)" d="M 206.186957 421.6464 
L 247.130831 421.6464 
L 247.130831 94.146222 
L 206.186957 94.146222 
z
" style="fill:#008cff;stroke:#000000;stroke-linejoin:miter;stroke-width:4;"/>
   </g>
   <g id="patch_5">
    <path clip-path="url(#p830caef3ea)" d="M 308.546642 421.6464 
L 349.490516 421.6464 
L 349.490516 128.419588 
L 308.546642 128.419588 
z
" style="fill:#008cff;stroke:#000000;stroke-linejoin:miter;stroke-width:4;"/>
   </g>
   <g id="patch_6">
    <path clip-path="url(#p830caef3ea)" d="M 410.906327 421.6464 
L 451.8502 421.6464 
L 451.8502 88.583441 
L 410.906327 88.583441 
z
" style="fill:#008cff;stroke:#000000;stroke-linejoin:miter;stroke-width:4;"/>
   </g>
   <g id="patch_7">
    <path clip-path="url(#p830caef3ea)" d="M 513.266011 421.6464 
L 554.209885 421.6464 
L 554.209885 88.729457 
L 513.266011 88.729457 
z
" style="fill:#008cff;stroke:#000000;stroke-linejoin:miter;stroke-width:4;"/>
   </g>
   <g id="LineCollection_1">
    <path clip-path="url(#p830caef3ea)" d="M 124.29921 219.422254 
L 124.29921 176.054532 
" style="fill:none;stroke:#000000;stroke-width:2;"/>
   </g>
   <g id="LineCollection_2">
    <path clip-path="url(#p830caef3ea)" d="M 226.658894 97.491971 
L 226.658894 90.800473 
" style="fill:none;stroke:#000000;stroke-width:2;"/>
   </g>
   <g id="LineCollection_3">
    <path clip-path="url(#p830caef3ea)" d="M 329.018579 150.469533 
L 329.018579 106.369643 
" style="fill:none;stroke:#000000;stroke-width:2;"/>
   </g>
   <g id="LineCollection_4">
    <path clip-path="url(#p830caef3ea)" d="M 431.378264 95.866951 
L 431.378264 81.299932 
" style="fill:none;stroke:#000000;stroke-width:2;"/>
   </g>
   <g id="LineCollection_5">
    <path clip-path="url(#p830caef3ea)" d="M 533.737948 93.866704 
L 533.737948 83.592211 
" style="fill:none;stroke:#000000;stroke-width:2;"/>
   </g>
   <g id="line2d_1">
    <defs>
     <path d="M 5 0 
L -5 -0 
" id="mdbee2e510b" style="stroke:#000000;stroke-width:2;"/>
    </defs>
    <g clip-path="url(#p830caef3ea)">
     <use style="stroke:#000000;stroke-width:2;" x="124.29921" xlink:href="#mdbee2e510b" y="219.422254"/>
    </g>
   </g>
   <g id="line2d_2">
    <g clip-path="url(#p830caef3ea)">
     <use style="stroke:#000000;stroke-width:2;" x="124.29921" xlink:href="#mdbee2e510b" y="176.054532"/>
    </g>
   </g>
   <g id="line2d_3">
    <g clip-path="url(#p830caef3ea)">
     <use style="stroke:#000000;stroke-width:2;" x="226.658894" xlink:href="#mdbee2e510b" y="97.491971"/>
    </g>
   </g>
   <g id="line2d_4">
    <g clip-path="url(#p830caef3ea)">
     <use style="stroke:#000000;stroke-width:2;" x="226.658894" xlink:href="#mdbee2e510b" y="90.800473"/>
    </g>
   </g>
   <g id="line2d_5">
    <g clip-path="url(#p830caef3ea)">
     <use style="stroke:#000000;stroke-width:2;" x="329.018579" xlink:href="#mdbee2e510b" y="150.469533"/>
    </g>
   </g>
   <g id="line2d_6">
    <g clip-path="url(#p830caef3ea)">
     <use style="stroke:#000000;stroke-width:2;" x="329.018579" xlink:href="#mdbee2e510b" y="106.369643"/>
    </g>
   </g>
   <g id="line2d_7">
    <g clip-path="url(#p830caef3ea)">
     <use style="stroke:#000000;stroke-width:2;" x="431.378264" xlink:href="#mdbee2e510b" y="95.866951"/>
    </g>
   </g>
   <g id="line2d_8">
    <g clip-path="url(#p830caef3ea)">
     <use style="stroke:#000000;stroke-width:2;" x="431.378264" xlink:href="#mdbee2e510b" y="81.299932"/>
    </g>
   </g>
   <g id="line2d_9">
    <g clip-path="url(#p830caef3ea)">
     <use style="stroke:#000000;stroke-width:2;" x="533.737948" xlink:href="#mdbee2e510b" y="93.866704"/>
    </g>
   </g>
   <g id="line2d_10">
    <g clip-path="url(#p830caef3ea)">
     <use style="stroke:#000000;stroke-width:2;" x="533.737948" xlink:href="#mdbee2e510b" y="83.592211"/>
    </g>
   </g>
   <g id="PathCollection_1">
    <path clip-path="url(#p830caef3ea)" d="M 109.29921 233.669204 
C 110.846028 233.669204 112.329701 233.054647 113.423467 231.960881 
C 114.517233 230.867115 115.13179 229.383442 115.13179 227.836623 
C 115.13179 226.289805 114.517233 224.806132 113.423467 223.712366 
C 112.329701 222.6186 110.846028 222.004043 109.29921 222.004043 
C 107.752391 222.004043 106.268718 222.6186 105.174952 223.712366 
C 104.081186 224.806132 103.466629 226.289805 103.466629 227.836623 
C 103.466629 229.383442 104.081186 230.867115 105.174952 231.960881 
C 106.268718 233.054647 107.752391 233.669204 109.29921 233.669204 
z
" style="fill:none;stroke:#000000;stroke-width:2.5;"/>
   </g>
   <g id="PathCollection_2">
    <path clip-path="url(#p830caef3ea)" d="M 119.29921 193.127203 
C 120.846028 193.127203 122.329701 192.512646 123.423467 191.41888 
C 124.517233 190.325114 125.13179 188.841441 125.13179 187.294623 
C 125.13179 185.747804 124.517233 184.264131 123.423467 183.170365 
C 122.329701 182.0766 120.846028 181.462042 119.29921 181.462042 
C 117.752391 181.462042 116.268718 182.0766 115.174952 183.170365 
C 114.081186 184.264131 113.466629 185.747804 113.466629 187.294623 
C 113.466629 188.841441 114.081186 190.325114 115.174952 191.41888 
C 116.268718 192.512646 117.752391 193.127203 119.29921 193.127203 
z
" style="fill:none;stroke:#000000;stroke-width:2.5;"/>
   </g>
   <g id="PathCollection_3">
    <path clip-path="url(#p830caef3ea)" d="M 129.29921 203.804678 
C 130.846028 203.804678 132.329701 203.19012 133.423467 202.096354 
C 134.517233 201.002589 135.13179 199.518916 135.13179 197.972097 
C 135.13179 196.425279 134.517233 194.941606 133.423467 193.84784 
C 132.329701 192.754074 130.846028 192.139516 129.29921 192.139516 
C 127.752391 192.139516 126.268718 192.754074 125.174952 193.84784 
C 124.081186 194.941606 123.466629 196.425279 123.466629 197.972097 
C 123.466629 199.518916 124.081186 201.002589 125.174952 202.096354 
C 126.268718 203.19012 127.752391 203.804678 129.29921 203.804678 
z
" style="fill:none;stroke:#000000;stroke-width:2.5;"/>
   </g>
   <g id="PathCollection_4">
    <path clip-path="url(#p830caef3ea)" d="M 139.29921 183.682809 
C 140.846028 183.682809 142.329701 183.068251 143.423467 181.974486 
C 144.517233 180.88072 145.13179 179.397047 145.13179 177.850228 
C 145.13179 176.30341 144.517233 174.819737 143.423467 173.725971 
C 142.329701 172.632205 140.846028 172.017648 139.29921 172.017648 
C 137.752391 172.017648 136.268718 172.632205 135.174952 173.725971 
C 134.081186 174.819737 133.466629 176.30341 133.466629 177.850228 
C 133.466629 179.397047 134.081186 180.88072 135.174952 181.974486 
C 136.268718 183.068251 137.752391 183.682809 139.29921 183.682809 
z
" style="fill:none;stroke:#000000;stroke-width:2.5;"/>
   </g>
   <g id="PathCollection_5">
    <path clip-path="url(#p830caef3ea)" d="M 211.658894 104.917001 
C 213.205713 104.917001 214.689386 104.302443 215.783152 103.208677 
C 216.876917 102.114911 217.491475 100.631238 217.491475 99.08442 
C 217.491475 97.537601 216.876917 96.053928 215.783152 94.960163 
C 214.689386 93.866397 213.205713 93.251839 211.658894 93.251839 
C 210.112076 93.251839 208.628403 93.866397 207.534637 94.960163 
C 206.440871 96.053928 205.826314 97.537601 205.826314 99.08442 
C 205.826314 100.631238 206.440871 102.114911 207.534637 103.208677 
C 208.628403 104.302443 210.112076 104.917001 211.658894 104.917001 
z
" style="fill:none;stroke:#000000;stroke-width:2.5;"/>
   </g>
   <g id="PathCollection_6">
    <path clip-path="url(#p830caef3ea)" d="M 221.658894 98.049862 
C 223.205713 98.049862 224.689386 97.435305 225.783152 96.341539 
C 226.876917 95.247773 227.491475 93.7641 227.491475 92.217281 
C 227.491475 90.670463 226.876917 89.18679 225.783152 88.093024 
C 224.689386 86.999258 223.205713 86.384701 221.658894 86.384701 
C 220.112076 86.384701 218.628403 86.999258 217.534637 88.093024 
C 216.440871 89.18679 215.826314 90.670463 215.826314 92.217281 
C 215.826314 93.7641 216.440871 95.247773 217.534637 96.341539 
C 218.628403 97.435305 220.112076 98.049862 221.658894 98.049862 
z
" style="fill:none;stroke:#000000;stroke-width:2.5;"/>
   </g>
   <g id="PathCollection_7">
    <path clip-path="url(#p830caef3ea)" d="M 231.658894 99.162538 
C 233.205713 99.162538 234.689386 98.547981 235.783152 97.454215 
C 236.876917 96.360449 237.491475 94.876776 237.491475 93.329958 
C 237.491475 91.783139 236.876917 90.299466 235.783152 89.2057 
C 234.689386 88.111934 233.205713 87.497377 231.658894 87.497377 
C 230.112076 87.497377 228.628403 88.111934 227.534637 89.2057 
C 226.440871 90.299466 225.826314 91.783139 225.826314 93.329958 
C 225.826314 94.876776 226.440871 96.360449 227.534637 97.454215 
C 228.628403 98.547981 230.112076 99.162538 231.658894 99.162538 
z
" style="fill:none;stroke:#000000;stroke-width:2.5;"/>
   </g>
   <g id="PathCollection_8">
    <path clip-path="url(#p830caef3ea)" d="M 241.658894 97.785811 
C 243.205713 97.785811 244.689386 97.171253 245.783152 96.077488 
C 246.876917 94.983722 247.491475 93.500049 247.491475 91.95323 
C 247.491475 90.406412 246.876917 88.922739 245.783152 87.828973 
C 244.689386 86.735207 243.205713 86.120649 241.658894 86.120649 
C 240.112076 86.120649 238.628403 86.735207 237.534637 87.828973 
C 236.440871 88.922739 235.826314 90.406412 235.826314 91.95323 
C 235.826314 93.500049 236.440871 94.983722 237.534637 96.077488 
C 238.628403 97.171253 240.112076 97.785811 241.658894 97.785811 
z
" style="fill:none;stroke:#000000;stroke-width:2.5;"/>
   </g>
   <g id="PathCollection_9">
    <path clip-path="url(#p830caef3ea)" d="M 314.018579 128.663859 
C 315.565397 128.663859 317.04907 128.049302 318.142836 126.955536 
C 319.236602 125.86177 319.85116 124.378097 319.85116 122.831278 
C 319.85116 121.28446 319.236602 119.800787 318.142836 118.707021 
C 317.04907 117.613255 315.565397 116.998698 314.018579 116.998698 
C 312.47176 116.998698 310.988087 117.613255 309.894322 118.707021 
C 308.800556 119.800787 308.185998 121.28446 308.185998 122.831278 
C 308.185998 124.378097 308.800556 125.86177 309.894322 126.955536 
C 310.988087 128.049302 312.47176 128.663859 314.018579 128.663859 
z
" style="fill:none;stroke:#000000;stroke-width:2.5;"/>
   </g>
   <g id="PathCollection_10">
    <path clip-path="url(#p830caef3ea)" d="M 324.018579 105.394679 
C 325.565397 105.394679 327.04907 104.780121 328.142836 103.686356 
C 329.236602 102.59259 329.85116 101.108917 329.85116 99.562098 
C 329.85116 98.01528 329.236602 96.531607 328.142836 95.437841 
C 327.04907 94.344075 325.565397 93.729518 324.018579 93.729518 
C 322.47176 93.729518 320.988087 94.344075 319.894322 95.437841 
C 318.800556 96.531607 318.185998 98.01528 318.185998 99.562098 
C 318.185998 101.108917 318.800556 102.59259 319.894322 103.686356 
C 320.988087 104.780121 322.47176 105.394679 324.018579 105.394679 
z
" style="fill:none;stroke:#000000;stroke-width:2.5;"/>
   </g>
   <g id="PathCollection_11">
    <path clip-path="url(#p830caef3ea)" d="M 334.018579 152.299603 
C 335.565397 152.299603 337.04907 151.685046 338.142836 150.59128 
C 339.236602 149.497514 339.85116 148.013841 339.85116 146.467023 
C 339.85116 144.920204 339.236602 143.436531 338.142836 142.342765 
C 337.04907 141.249 335.565397 140.634442 334.018579 140.634442 
C 332.47176 140.634442 330.988087 141.249 329.894322 142.342765 
C 328.800556 143.436531 328.185998 144.920204 328.185998 146.467023 
C 328.185998 148.013841 328.800556 149.497514 329.894322 150.59128 
C 330.988087 151.685046 332.47176 152.299603 334.018579 152.299603 
z
" style="fill:none;stroke:#000000;stroke-width:2.5;"/>
   </g>
   <g id="PathCollection_12">
    <path clip-path="url(#p830caef3ea)" d="M 344.018579 150.650535 
C 345.565397 150.650535 347.04907 150.035977 348.142836 148.942212 
C 349.236602 147.848446 349.85116 146.364773 349.85116 144.817954 
C 349.85116 143.271136 349.236602 141.787463 348.142836 140.693697 
C 347.04907 139.599931 345.565397 138.985374 344.018579 138.985374 
C 342.47176 138.985374 340.988087 139.599931 339.894322 140.693697 
C 338.800556 141.787463 338.185998 143.271136 338.185998 144.817954 
C 338.185998 146.364773 338.800556 147.848446 339.894322 148.942212 
C 340.988087 150.035977 342.47176 150.650535 344.018579 150.650535 
z
" style="fill:none;stroke:#000000;stroke-width:2.5;"/>
   </g>
   <g id="PathCollection_13">
    <path clip-path="url(#p830caef3ea)" d="M 416.378264 91.085449 
C 417.925082 91.085449 419.408755 90.470891 420.502521 89.377125 
C 421.596287 88.283359 422.210844 86.799686 422.210844 85.252868 
C 422.210844 83.70605 421.596287 82.222376 420.502521 81.128611 
C 419.408755 80.034845 417.925082 79.420287 416.378264 79.420287 
C 414.831445 79.420287 413.347772 80.034845 412.254006 81.128611 
C 411.16024 82.222376 410.545683 83.70605 410.545683 85.252868 
C 410.545683 86.799686 411.16024 88.283359 412.254006 89.377125 
C 413.347772 90.470891 414.831445 91.085449 416.378264 91.085449 
z
" style="fill:none;stroke:#000000;stroke-width:2.5;"/>
   </g>
   <g id="PathCollection_14">
    <path clip-path="url(#p830caef3ea)" d="M 426.378264 85.72241 
C 427.925082 85.72241 429.408755 85.107853 430.502521 84.014087 
C 431.596287 82.920321 432.210844 81.436648 432.210844 79.889829 
C 432.210844 78.343011 431.596287 76.859338 430.502521 75.765572 
C 429.408755 74.671806 427.925082 74.057249 426.378264 74.057249 
C 424.831445 74.057249 423.347772 74.671806 422.254006 75.765572 
C 421.16024 76.859338 420.545683 78.343011 420.545683 79.889829 
C 420.545683 81.436648 421.16024 82.920321 422.254006 84.014087 
C 423.347772 85.107853 424.831445 85.72241 426.378264 85.72241 
z
" style="fill:none;stroke:#000000;stroke-width:2.5;"/>
   </g>
   <g id="PathCollection_15">
    <path clip-path="url(#p830caef3ea)" d="M 436.378264 100.122816 
C 437.925082 100.122816 439.408755 99.508258 440.502521 98.414492 
C 441.596287 97.320726 442.210844 95.837053 442.210844 94.290235 
C 442.210844 92.743416 441.596287 91.259743 440.502521 90.165978 
C 439.408755 89.072212 437.925082 88.457654 436.378264 88.457654 
C 434.831445 88.457654 433.347772 89.072212 432.254006 90.165978 
C 431.16024 91.259743 430.545683 92.743416 430.545683 94.290235 
C 430.545683 95.837053 431.16024 97.320726 432.254006 98.414492 
C 433.347772 99.508258 434.831445 100.122816 436.378264 100.122816 
z
" style="fill:none;stroke:#000000;stroke-width:2.5;"/>
   </g>
   <g id="PathCollection_16">
    <path clip-path="url(#p830caef3ea)" d="M 446.378264 100.733413 
C 447.925082 100.733413 449.408755 100.118856 450.502521 99.02509 
C 451.596287 97.931324 452.210844 96.447651 452.210844 94.900833 
C 452.210844 93.354014 451.596287 91.870341 450.502521 90.776575 
C 449.408755 89.682809 447.925082 89.068252 446.378264 89.068252 
C 444.831445 89.068252 443.347772 89.682809 442.254006 90.776575 
C 441.16024 91.870341 440.545683 93.354014 440.545683 94.900833 
C 440.545683 96.447651 441.16024 97.931324 442.254006 99.02509 
C 443.347772 100.118856 444.831445 100.733413 446.378264 100.733413 
z
" style="fill:none;stroke:#000000;stroke-width:2.5;"/>
   </g>
   <g id="PathCollection_17">
    <path clip-path="url(#p830caef3ea)" d="M 518.737948 97.27207 
C 520.284767 97.27207 521.76844 96.657512 522.862206 95.563746 
C 523.955971 94.469981 524.570529 92.986308 524.570529 91.439489 
C 524.570529 89.892671 523.955971 88.408998 522.862206 87.315232 
C 521.76844 86.221466 520.284767 85.606908 518.737948 85.606908 
C 517.19113 85.606908 515.707457 86.221466 514.613691 87.315232 
C 513.519925 88.408998 512.905368 89.892671 512.905368 91.439489 
C 512.905368 92.986308 513.519925 94.469981 514.613691 95.563746 
C 515.707457 96.657512 517.19113 97.27207 518.737948 97.27207 
z
" style="fill:none;stroke:#000000;stroke-width:2.5;"/>
   </g>
   <g id="PathCollection_18">
    <path clip-path="url(#p830caef3ea)" d="M 528.737948 91.807209 
C 530.284767 91.807209 531.76844 91.192651 532.862206 90.098885 
C 533.955971 89.005119 534.570529 87.521446 534.570529 85.974628 
C 534.570529 84.427809 533.955971 82.944136 532.862206 81.850371 
C 531.76844 80.756605 530.284767 80.142047 528.737948 80.142047 
C 527.19113 80.142047 525.707457 80.756605 524.613691 81.850371 
C 523.519925 82.944136 522.905368 84.427809 522.905368 85.974628 
C 522.905368 87.521446 523.519925 89.005119 524.613691 90.098885 
C 525.707457 91.192651 527.19113 91.807209 528.737948 91.807209 
z
" style="fill:none;stroke:#000000;stroke-width:2.5;"/>
   </g>
   <g id="PathCollection_19">
    <path clip-path="url(#p830caef3ea)" d="M 538.737948 100.251868 
C 540.284767 100.251868 541.76844 99.637311 542.862206 98.543545 
C 543.955971 97.449779 544.570529 95.966106 544.570529 94.419288 
C 544.570529 92.872469 543.955971 91.388796 542.862206 90.29503 
C 541.76844 89.201264 540.284767 88.586707 538.737948 88.586707 
C 537.19113 88.586707 535.707457 89.201264 534.613691 90.29503 
C 533.519925 91.388796 532.905368 92.872469 532.905368 94.419288 
C 532.905368 95.966106 533.519925 97.449779 534.613691 98.543545 
C 535.707457 99.637311 537.19113 100.251868 538.737948 100.251868 
z
" style="fill:none;stroke:#000000;stroke-width:2.5;"/>
   </g>
   <g id="PathCollection_20">
    <path clip-path="url(#p830caef3ea)" d="M 548.737948 88.917006 
C 550.284767 88.917006 551.76844 88.302448 552.862206 87.208682 
C 553.955971 86.114917 554.570529 84.631244 554.570529 83.084425 
C 554.570529 81.537607 553.955971 80.053934 552.862206 78.960168 
C 551.76844 77.866402 550.284767 77.251844 548.737948 77.251844 
C 547.19113 77.251844 545.707457 77.866402 544.613691 78.960168 
C 543.519925 80.053934 542.905368 81.537607 542.905368 83.084425 
C 542.905368 84.631244 543.519925 86.114917 544.613691 87.208682 
C 545.707457 88.302448 547.19113 88.917006 548.737948 88.917006 
z
" style="fill:none;stroke:#000000;stroke-width:2.5;"/>
   </g>
   <g id="matplotlib.axis_1">
    <g id="xtick_1">
     <g id="line2d_11">
      <defs>
       <path d="M 0 0 
L 0 2 
" id="mcff893fc37" style="stroke:#000000;"/>
      </defs>
      <g>
       <use style="stroke:#000000;" x="124.29921" xlink:href="#mcff893fc37" y="421.6464"/>
      </g>
     </g>
     <g id="text_1">
      <!-- WT -->
      <defs>
       <path d="M 3.328125 72.90625 
L 13.28125 72.90625 
L 28.609375 11.28125 
L 43.890625 72.90625 
L 54.984375 72.90625 
L 70.3125 11.28125 
L 85.59375 72.90625 
L 95.609375 72.90625 
L 77.296875 0 
L 64.890625 0 
L 49.515625 63.28125 
L 33.984375 0 
L 21.578125 0 
z
" id="DejaVuSans-87"/>
       <path d="M -0.296875 72.90625 
L 61.375 72.90625 
L 61.375 64.59375 
L 35.5 64.59375 
L 35.5 0 
L 25.59375 0 
L 25.59375 64.59375 
L -0.296875 64.59375 
z
" id="DejaVuSans-84"/>
      </defs>
      <g transform="translate(111.50296 439.3039)scale(0.16 -0.16)">
       <use xlink:href="#DejaVuSans-87"/>
       <use x="98.876953" xlink:href="#DejaVuSans-84"/>
      </g>
     </g>
    </g>
    <g id="xtick_2">
     <g id="line2d_12">
      <g>
       <use style="stroke:#000000;" x="226.658894" xlink:href="#mcff893fc37" y="421.6464"/>
      </g>
     </g>
     <g id="text_2">
      <!-- Gen1.1 -->
      <defs>
       <path d="M 59.515625 10.40625 
L 59.515625 29.984375 
L 43.40625 29.984375 
L 43.40625 38.09375 
L 69.28125 38.09375 
L 69.28125 6.78125 
Q 63.578125 2.734375 56.6875 0.65625 
Q 49.8125 -1.421875 42 -1.421875 
Q 24.90625 -1.421875 15.25 8.5625 
Q 5.609375 18.5625 5.609375 36.375 
Q 5.609375 54.25 15.25 64.234375 
Q 24.90625 74.21875 42 74.21875 
Q 49.125 74.21875 55.546875 72.453125 
Q 61.96875 70.703125 67.390625 67.28125 
L 67.390625 56.78125 
Q 61.921875 61.421875 55.765625 63.765625 
Q 49.609375 66.109375 42.828125 66.109375 
Q 29.4375 66.109375 22.71875 58.640625 
Q 16.015625 51.171875 16.015625 36.375 
Q 16.015625 21.625 22.71875 14.15625 
Q 29.4375 6.6875 42.828125 6.6875 
Q 48.046875 6.6875 52.140625 7.59375 
Q 56.25 8.5 59.515625 10.40625 
z
" id="DejaVuSans-71"/>
       <path d="M 56.203125 29.59375 
L 56.203125 25.203125 
L 14.890625 25.203125 
Q 15.484375 15.921875 20.484375 11.0625 
Q 25.484375 6.203125 34.421875 6.203125 
Q 39.59375 6.203125 44.453125 7.46875 
Q 49.3125 8.734375 54.109375 11.28125 
L 54.109375 2.78125 
Q 49.265625 0.734375 44.1875 -0.34375 
Q 39.109375 -1.421875 33.890625 -1.421875 
Q 20.796875 -1.421875 13.15625 6.1875 
Q 5.515625 13.8125 5.515625 26.8125 
Q 5.515625 40.234375 12.765625 48.109375 
Q 20.015625 56 32.328125 56 
Q 43.359375 56 49.78125 48.890625 
Q 56.203125 41.796875 56.203125 29.59375 
z
M 47.21875 32.234375 
Q 47.125 39.59375 43.09375 43.984375 
Q 39.0625 48.390625 32.421875 48.390625 
Q 24.90625 48.390625 20.390625 44.140625 
Q 15.875 39.890625 15.1875 32.171875 
z
" id="DejaVuSans-101"/>
       <path d="M 54.890625 33.015625 
L 54.890625 0 
L 45.90625 0 
L 45.90625 32.71875 
Q 45.90625 40.484375 42.875 44.328125 
Q 39.84375 48.1875 33.796875 48.1875 
Q 26.515625 48.1875 22.3125 43.546875 
Q 18.109375 38.921875 18.109375 30.90625 
L 18.109375 0 
L 9.078125 0 
L 9.078125 54.6875 
L 18.109375 54.6875 
L 18.109375 46.1875 
Q 21.34375 51.125 25.703125 53.5625 
Q 30.078125 56 35.796875 56 
Q 45.21875 56 50.046875 50.171875 
Q 54.890625 44.34375 54.890625 33.015625 
z
" id="DejaVuSans-110"/>
       <path d="M 12.40625 8.296875 
L 28.515625 8.296875 
L 28.515625 63.921875 
L 10.984375 60.40625 
L 10.984375 69.390625 
L 28.421875 72.90625 
L 38.28125 72.90625 
L 38.28125 8.296875 
L 54.390625 8.296875 
L 54.390625 0 
L 12.40625 0 
z
" id="DejaVuSans-49"/>
       <path d="M 10.6875 12.40625 
L 21 12.40625 
L 21 0 
L 10.6875 0 
z
" id="DejaVuSans-46"/>
      </defs>
      <g transform="translate(197.745144 439.3039)scale(0.16 -0.16)">
       <use xlink:href="#DejaVuSans-71"/>
       <use x="77.490234" xlink:href="#DejaVuSans-101"/>
       <use x="139.013672" xlink:href="#DejaVuSans-110"/>
       <use x="202.392578" xlink:href="#DejaVuSans-49"/>
       <use x="266.015625" xlink:href="#DejaVuSans-46"/>
       <use x="297.802734" xlink:href="#DejaVuSans-49"/>
      </g>
     </g>
    </g>
    <g id="xtick_3">
     <g id="line2d_13">
      <g>
       <use style="stroke:#000000;" x="329.018579" xlink:href="#mcff893fc37" y="421.6464"/>
      </g>
     </g>
     <g id="text_3">
      <!-- Gen1.2 -->
      <defs>
       <path d="M 19.1875 8.296875 
L 53.609375 8.296875 
L 53.609375 0 
L 7.328125 0 
L 7.328125 8.296875 
Q 12.9375 14.109375 22.625 23.890625 
Q 32.328125 33.6875 34.8125 36.53125 
Q 39.546875 41.84375 41.421875 45.53125 
Q 43.3125 49.21875 43.3125 52.78125 
Q 43.3125 58.59375 39.234375 62.25 
Q 35.15625 65.921875 28.609375 65.921875 
Q 23.96875 65.921875 18.8125 64.3125 
Q 13.671875 62.703125 7.8125 59.421875 
L 7.8125 69.390625 
Q 13.765625 71.78125 18.9375 73 
Q 24.125 74.21875 28.421875 74.21875 
Q 39.75 74.21875 46.484375 68.546875 
Q 53.21875 62.890625 53.21875 53.421875 
Q 53.21875 48.921875 51.53125 44.890625 
Q 49.859375 40.875 45.40625 35.40625 
Q 44.1875 33.984375 37.640625 27.21875 
Q 31.109375 20.453125 19.1875 8.296875 
z
" id="DejaVuSans-50"/>
      </defs>
      <g transform="translate(300.104829 439.3039)scale(0.16 -0.16)">
       <use xlink:href="#DejaVuSans-71"/>
       <use x="77.490234" xlink:href="#DejaVuSans-101"/>
       <use x="139.013672" xlink:href="#DejaVuSans-110"/>
       <use x="202.392578" xlink:href="#DejaVuSans-49"/>
       <use x="266.015625" xlink:href="#DejaVuSans-46"/>
       <use x="297.802734" xlink:href="#DejaVuSans-50"/>
      </g>
     </g>
    </g>
    <g id="xtick_4">
     <g id="line2d_14">
      <g>
       <use style="stroke:#000000;" x="431.378264" xlink:href="#mcff893fc37" y="421.6464"/>
      </g>
     </g>
     <g id="text_4">
      <!-- Gen1.3 -->
      <defs>
       <path d="M 40.578125 39.3125 
Q 47.65625 37.796875 51.625 33 
Q 55.609375 28.21875 55.609375 21.1875 
Q 55.609375 10.40625 48.1875 4.484375 
Q 40.765625 -1.421875 27.09375 -1.421875 
Q 22.515625 -1.421875 17.65625 -0.515625 
Q 12.796875 0.390625 7.625 2.203125 
L 7.625 11.71875 
Q 11.71875 9.328125 16.59375 8.109375 
Q 21.484375 6.890625 26.8125 6.890625 
Q 36.078125 6.890625 40.9375 10.546875 
Q 45.796875 14.203125 45.796875 21.1875 
Q 45.796875 27.640625 41.28125 31.265625 
Q 36.765625 34.90625 28.71875 34.90625 
L 20.21875 34.90625 
L 20.21875 43.015625 
L 29.109375 43.015625 
Q 36.375 43.015625 40.234375 45.921875 
Q 44.09375 48.828125 44.09375 54.296875 
Q 44.09375 59.90625 40.109375 62.90625 
Q 36.140625 65.921875 28.71875 65.921875 
Q 24.65625 65.921875 20.015625 65.03125 
Q 15.375 64.15625 9.8125 62.3125 
L 9.8125 71.09375 
Q 15.4375 72.65625 20.34375 73.4375 
Q 25.25 74.21875 29.59375 74.21875 
Q 40.828125 74.21875 47.359375 69.109375 
Q 53.90625 64.015625 53.90625 55.328125 
Q 53.90625 49.265625 50.4375 45.09375 
Q 46.96875 40.921875 40.578125 39.3125 
z
" id="DejaVuSans-51"/>
      </defs>
      <g transform="translate(402.464514 439.3039)scale(0.16 -0.16)">
       <use xlink:href="#DejaVuSans-71"/>
       <use x="77.490234" xlink:href="#DejaVuSans-101"/>
       <use x="139.013672" xlink:href="#DejaVuSans-110"/>
       <use x="202.392578" xlink:href="#DejaVuSans-49"/>
       <use x="266.015625" xlink:href="#DejaVuSans-46"/>
       <use x="297.802734" xlink:href="#DejaVuSans-51"/>
      </g>
     </g>
    </g>
    <g id="xtick_5">
     <g id="line2d_15">
      <g>
       <use style="stroke:#000000;" x="533.737948" xlink:href="#mcff893fc37" y="421.6464"/>
      </g>
     </g>
     <g id="text_5">
      <!-- Gen1.4 -->
      <defs>
       <path d="M 37.796875 64.3125 
L 12.890625 25.390625 
L 37.796875 25.390625 
z
M 35.203125 72.90625 
L 47.609375 72.90625 
L 47.609375 25.390625 
L 58.015625 25.390625 
L 58.015625 17.1875 
L 47.609375 17.1875 
L 47.609375 0 
L 37.796875 0 
L 37.796875 17.1875 
L 4.890625 17.1875 
L 4.890625 26.703125 
z
" id="DejaVuSans-52"/>
      </defs>
      <g transform="translate(504.824198 439.3039)scale(0.16 -0.16)">
       <use xlink:href="#DejaVuSans-71"/>
       <use x="77.490234" xlink:href="#DejaVuSans-101"/>
       <use x="139.013672" xlink:href="#DejaVuSans-110"/>
       <use x="202.392578" xlink:href="#DejaVuSans-49"/>
       <use x="266.015625" xlink:href="#DejaVuSans-46"/>
       <use x="297.802734" xlink:href="#DejaVuSans-52"/>
      </g>
     </g>
    </g>
    <g id="text_6">
     <!-- GfOMT1 Variant -->
     <defs>
      <path d="M 37.109375 75.984375 
L 37.109375 68.5 
L 28.515625 68.5 
Q 23.6875 68.5 21.796875 66.546875 
Q 19.921875 64.59375 19.921875 59.515625 
L 19.921875 54.6875 
L 34.71875 54.6875 
L 34.71875 47.703125 
L 19.921875 47.703125 
L 19.921875 0 
L 10.890625 0 
L 10.890625 47.703125 
L 2.296875 47.703125 
L 2.296875 54.6875 
L 10.890625 54.6875 
L 10.890625 58.5 
Q 10.890625 67.625 15.140625 71.796875 
Q 19.390625 75.984375 28.609375 75.984375 
z
" id="DejaVuSans-102"/>
      <path d="M 39.40625 66.21875 
Q 28.65625 66.21875 22.328125 58.203125 
Q 16.015625 50.203125 16.015625 36.375 
Q 16.015625 22.609375 22.328125 14.59375 
Q 28.65625 6.59375 39.40625 6.59375 
Q 50.140625 6.59375 56.421875 14.59375 
Q 62.703125 22.609375 62.703125 36.375 
Q 62.703125 50.203125 56.421875 58.203125 
Q 50.140625 66.21875 39.40625 66.21875 
z
M 39.40625 74.21875 
Q 54.734375 74.21875 63.90625 63.9375 
Q 73.09375 53.65625 73.09375 36.375 
Q 73.09375 19.140625 63.90625 8.859375 
Q 54.734375 -1.421875 39.40625 -1.421875 
Q 24.03125 -1.421875 14.8125 8.828125 
Q 5.609375 19.09375 5.609375 36.375 
Q 5.609375 53.65625 14.8125 63.9375 
Q 24.03125 74.21875 39.40625 74.21875 
z
" id="DejaVuSans-79"/>
      <path d="M 9.8125 72.90625 
L 24.515625 72.90625 
L 43.109375 23.296875 
L 61.8125 72.90625 
L 76.515625 72.90625 
L 76.515625 0 
L 66.890625 0 
L 66.890625 64.015625 
L 48.09375 14.015625 
L 38.1875 14.015625 
L 19.390625 64.015625 
L 19.390625 0 
L 9.8125 0 
z
" id="DejaVuSans-77"/>
      <path id="DejaVuSans-32"/>
      <path d="M 28.609375 0 
L 0.78125 72.90625 
L 11.078125 72.90625 
L 34.1875 11.53125 
L 57.328125 72.90625 
L 67.578125 72.90625 
L 39.796875 0 
z
" id="DejaVuSans-86"/>
      <path d="M 34.28125 27.484375 
Q 23.390625 27.484375 19.1875 25 
Q 14.984375 22.515625 14.984375 16.5 
Q 14.984375 11.71875 18.140625 8.90625 
Q 21.296875 6.109375 26.703125 6.109375 
Q 34.1875 6.109375 38.703125 11.40625 
Q 43.21875 16.703125 43.21875 25.484375 
L 43.21875 27.484375 
z
M 52.203125 31.203125 
L 52.203125 0 
L 43.21875 0 
L 43.21875 8.296875 
Q 40.140625 3.328125 35.546875 0.953125 
Q 30.953125 -1.421875 24.3125 -1.421875 
Q 15.921875 -1.421875 10.953125 3.296875 
Q 6 8.015625 6 15.921875 
Q 6 25.140625 12.171875 29.828125 
Q 18.359375 34.515625 30.609375 34.515625 
L 43.21875 34.515625 
L 43.21875 35.40625 
Q 43.21875 41.609375 39.140625 45 
Q 35.0625 48.390625 27.6875 48.390625 
Q 23 48.390625 18.546875 47.265625 
Q 14.109375 46.140625 10.015625 43.890625 
L 10.015625 52.203125 
Q 14.9375 54.109375 19.578125 55.046875 
Q 24.21875 56 28.609375 56 
Q 40.484375 56 46.34375 49.84375 
Q 52.203125 43.703125 52.203125 31.203125 
z
" id="DejaVuSans-97"/>
      <path d="M 41.109375 46.296875 
Q 39.59375 47.171875 37.8125 47.578125 
Q 36.03125 48 33.890625 48 
Q 26.265625 48 22.1875 43.046875 
Q 18.109375 38.09375 18.109375 28.8125 
L 18.109375 0 
L 9.078125 0 
L 9.078125 54.6875 
L 18.109375 54.6875 
L 18.109375 46.1875 
Q 20.953125 51.171875 25.484375 53.578125 
Q 30.03125 56 36.53125 56 
Q 37.453125 56 38.578125 55.875 
Q 39.703125 55.765625 41.0625 55.515625 
z
" id="DejaVuSans-114"/>
      <path d="M 9.421875 54.6875 
L 18.40625 54.6875 
L 18.40625 0 
L 9.421875 0 
z
M 9.421875 75.984375 
L 18.40625 75.984375 
L 18.40625 64.59375 
L 9.421875 64.59375 
z
" id="DejaVuSans-105"/>
      <path d="M 18.3125 70.21875 
L 18.3125 54.6875 
L 36.8125 54.6875 
L 36.8125 47.703125 
L 18.3125 47.703125 
L 18.3125 18.015625 
Q 18.3125 11.328125 20.140625 9.421875 
Q 21.96875 7.515625 27.59375 7.515625 
L 36.8125 7.515625 
L 36.8125 0 
L 27.59375 0 
Q 17.1875 0 13.234375 3.875 
Q 9.28125 7.765625 9.28125 18.015625 
L 9.28125 47.703125 
L 2.6875 47.703125 
L 2.6875 54.6875 
L 9.28125 54.6875 
L 9.28125 70.21875 
z
" id="DejaVuSans-116"/>
     </defs>
     <g transform="translate(260.415 460.308587)scale(0.18 -0.18)">
      <use xlink:href="#DejaVuSans-71"/>
      <use x="77.490234" xlink:href="#DejaVuSans-102"/>
      <use x="112.695312" xlink:href="#DejaVuSans-79"/>
      <use x="191.40625" xlink:href="#DejaVuSans-77"/>
      <use x="277.685547" xlink:href="#DejaVuSans-84"/>
      <use x="338.769531" xlink:href="#DejaVuSans-49"/>
      <use x="402.392578" xlink:href="#DejaVuSans-32"/>
      <use x="434.179688" xlink:href="#DejaVuSans-86"/>
      <use x="502.478516" xlink:href="#DejaVuSans-97"/>
      <use x="563.757812" xlink:href="#DejaVuSans-114"/>
      <use x="604.871094" xlink:href="#DejaVuSans-105"/>
      <use x="632.654297" xlink:href="#DejaVuSans-97"/>
      <use x="693.933594" xlink:href="#DejaVuSans-110"/>
      <use x="757.3125" xlink:href="#DejaVuSans-116"/>
     </g>
    </g>
   </g>
   <g id="matplotlib.axis_2">
    <g id="ytick_1">
     <g id="line2d_16">
      <defs>
       <path d="M 0 0 
L -2 0 
" id="m1f01058485" style="stroke:#000000;"/>
      </defs>
      <g>
       <use style="stroke:#000000;" x="81" xlink:href="#m1f01058485" y="421.6464"/>
      </g>
     </g>
     <g id="text_7">
      <!-- 0 -->
      <defs>
       <path d="M 31.78125 66.40625 
Q 24.171875 66.40625 20.328125 58.90625 
Q 16.5 51.421875 16.5 36.375 
Q 16.5 21.390625 20.328125 13.890625 
Q 24.171875 6.390625 31.78125 6.390625 
Q 39.453125 6.390625 43.28125 13.890625 
Q 47.125 21.390625 47.125 36.375 
Q 47.125 51.421875 43.28125 58.90625 
Q 39.453125 66.40625 31.78125 66.40625 
z
M 31.78125 74.21875 
Q 44.046875 74.21875 50.515625 64.515625 
Q 56.984375 54.828125 56.984375 36.375 
Q 56.984375 17.96875 50.515625 8.265625 
Q 44.046875 -1.421875 31.78125 -1.421875 
Q 19.53125 -1.421875 13.0625 8.265625 
Q 6.59375 17.96875 6.59375 36.375 
Q 6.59375 54.828125 13.0625 64.515625 
Q 19.53125 74.21875 31.78125 74.21875 
z
" id="DejaVuSans-48"/>
      </defs>
      <g transform="translate(64.0475 428.484994)scale(0.18 -0.18)">
       <use xlink:href="#DejaVuSans-48"/>
      </g>
     </g>
    </g>
    <g id="ytick_2">
     <g id="line2d_17">
      <g>
       <use style="stroke:#000000;" x="81" xlink:href="#m1f01058485" y="364.988916"/>
      </g>
     </g>
     <g id="text_8">
      <!-- 1 -->
      <g transform="translate(64.0475 371.82751)scale(0.18 -0.18)">
       <use xlink:href="#DejaVuSans-49"/>
      </g>
     </g>
    </g>
    <g id="ytick_3">
     <g id="line2d_18">
      <g>
       <use style="stroke:#000000;" x="81" xlink:href="#m1f01058485" y="308.331432"/>
      </g>
     </g>
     <g id="text_9">
      <!-- 2 -->
      <g transform="translate(64.0475 315.170026)scale(0.18 -0.18)">
       <use xlink:href="#DejaVuSans-50"/>
      </g>
     </g>
    </g>
    <g id="ytick_4">
     <g id="line2d_19">
      <g>
       <use style="stroke:#000000;" x="81" xlink:href="#m1f01058485" y="251.673948"/>
      </g>
     </g>
     <g id="text_10">
      <!-- 3 -->
      <g transform="translate(64.0475 258.512542)scale(0.18 -0.18)">
       <use xlink:href="#DejaVuSans-51"/>
      </g>
     </g>
    </g>
    <g id="ytick_5">
     <g id="line2d_20">
      <g>
       <use style="stroke:#000000;" x="81" xlink:href="#m1f01058485" y="195.016464"/>
      </g>
     </g>
     <g id="text_11">
      <!-- 4 -->
      <g transform="translate(64.0475 201.855058)scale(0.18 -0.18)">
       <use xlink:href="#DejaVuSans-52"/>
      </g>
     </g>
    </g>
    <g id="ytick_6">
     <g id="line2d_21">
      <g>
       <use style="stroke:#000000;" x="81" xlink:href="#m1f01058485" y="138.35898"/>
      </g>
     </g>
     <g id="text_12">
      <!-- 5 -->
      <defs>
       <path d="M 10.796875 72.90625 
L 49.515625 72.90625 
L 49.515625 64.59375 
L 19.828125 64.59375 
L 19.828125 46.734375 
Q 21.96875 47.46875 24.109375 47.828125 
Q 26.265625 48.1875 28.421875 48.1875 
Q 40.625 48.1875 47.75 41.5 
Q 54.890625 34.8125 54.890625 23.390625 
Q 54.890625 11.625 47.5625 5.09375 
Q 40.234375 -1.421875 26.90625 -1.421875 
Q 22.3125 -1.421875 17.546875 -0.640625 
Q 12.796875 0.140625 7.71875 1.703125 
L 7.71875 11.625 
Q 12.109375 9.234375 16.796875 8.0625 
Q 21.484375 6.890625 26.703125 6.890625 
Q 35.15625 6.890625 40.078125 11.328125 
Q 45.015625 15.765625 45.015625 23.390625 
Q 45.015625 31 40.078125 35.4375 
Q 35.15625 39.890625 26.703125 39.890625 
Q 22.75 39.890625 18.8125 39.015625 
Q 14.890625 38.140625 10.796875 36.28125 
z
" id="DejaVuSans-53"/>
      </defs>
      <g transform="translate(64.0475 145.197574)scale(0.18 -0.18)">
       <use xlink:href="#DejaVuSans-53"/>
      </g>
     </g>
    </g>
    <g id="ytick_7">
     <g id="line2d_22">
      <g>
       <use style="stroke:#000000;" x="81" xlink:href="#m1f01058485" y="81.701496"/>
      </g>
     </g>
     <g id="text_13">
      <!-- 6 -->
      <defs>
       <path d="M 33.015625 40.375 
Q 26.375 40.375 22.484375 35.828125 
Q 18.609375 31.296875 18.609375 23.390625 
Q 18.609375 15.53125 22.484375 10.953125 
Q 26.375 6.390625 33.015625 6.390625 
Q 39.65625 6.390625 43.53125 10.953125 
Q 47.40625 15.53125 47.40625 23.390625 
Q 47.40625 31.296875 43.53125 35.828125 
Q 39.65625 40.375 33.015625 40.375 
z
M 52.59375 71.296875 
L 52.59375 62.3125 
Q 48.875 64.0625 45.09375 64.984375 
Q 41.3125 65.921875 37.59375 65.921875 
Q 27.828125 65.921875 22.671875 59.328125 
Q 17.53125 52.734375 16.796875 39.40625 
Q 19.671875 43.65625 24.015625 45.921875 
Q 28.375 48.1875 33.59375 48.1875 
Q 44.578125 48.1875 50.953125 41.515625 
Q 57.328125 34.859375 57.328125 23.390625 
Q 57.328125 12.15625 50.6875 5.359375 
Q 44.046875 -1.421875 33.015625 -1.421875 
Q 20.359375 -1.421875 13.671875 8.265625 
Q 6.984375 17.96875 6.984375 36.375 
Q 6.984375 53.65625 15.1875 63.9375 
Q 23.390625 74.21875 37.203125 74.21875 
Q 40.921875 74.21875 44.703125 73.484375 
Q 48.484375 72.75 52.59375 71.296875 
z
" id="DejaVuSans-54"/>
      </defs>
      <g transform="translate(64.0475 88.54009)scale(0.18 -0.18)">
       <use xlink:href="#DejaVuSans-54"/>
      </g>
     </g>
    </g>
    <g id="text_14">
     <!-- $(RFU/OD) \times 10^4$ -->
     <defs>
      <path d="M 31 75.875 
Q 24.46875 64.65625 21.28125 53.65625 
Q 18.109375 42.671875 18.109375 31.390625 
Q 18.109375 20.125 21.3125 9.0625 
Q 24.515625 -2 31 -13.1875 
L 23.1875 -13.1875 
Q 15.875 -1.703125 12.234375 9.375 
Q 8.59375 20.453125 8.59375 31.390625 
Q 8.59375 42.28125 12.203125 53.3125 
Q 15.828125 64.359375 23.1875 75.875 
z
" id="DejaVuSans-40"/>
      <path d="M 25.203125 64.796875 
L 20.21875 38.921875 
L 32.90625 38.921875 
Q 40.375 38.921875 44.984375 43.046875 
Q 49.609375 47.171875 49.609375 53.8125 
Q 49.609375 59.125 46.5 61.953125 
Q 43.40625 64.796875 37.59375 64.796875 
z
M 43.3125 35.015625 
Q 46.4375 34.28125 48.515625 31.390625 
Q 50.59375 28.515625 53.328125 19.921875 
L 59.515625 0 
L 49.125 0 
L 43.40625 18.703125 
Q 41.21875 25.921875 38.328125 28.359375 
Q 35.453125 30.8125 29.5 30.8125 
L 18.609375 30.8125 
L 12.59375 0 
L 2.6875 0 
L 16.890625 72.90625 
L 39.109375 72.90625 
Q 49.21875 72.90625 54.609375 68.328125 
Q 60.015625 63.765625 60.015625 55.171875 
Q 60.015625 47.5625 55.421875 41.984375 
Q 50.828125 36.421875 43.3125 35.015625 
z
" id="DejaVuSans-Oblique-82"/>
      <path d="M 16.890625 72.90625 
L 58.6875 72.90625 
L 57.078125 64.59375 
L 25.09375 64.59375 
L 20.90625 43.109375 
L 49.8125 43.109375 
L 48.1875 34.8125 
L 19.28125 34.8125 
L 12.5 0 
L 2.6875 0 
z
" id="DejaVuSans-Oblique-70"/>
      <path d="M 15.484375 72.90625 
L 25.390625 72.90625 
L 16.796875 28.609375 
Q 16.265625 25.640625 16.046875 23.703125 
Q 15.828125 21.78125 15.828125 20.3125 
Q 15.828125 13.578125 19.578125 10.078125 
Q 23.34375 6.59375 30.609375 6.59375 
Q 40.046875 6.59375 45.28125 11.765625 
Q 50.53125 16.9375 52.78125 28.609375 
L 61.375 72.90625 
L 71.296875 72.90625 
L 62.5 27.390625 
Q 59.625 12.640625 51.5625 5.609375 
Q 43.5 -1.421875 29.5 -1.421875 
Q 18.5625 -1.421875 12.1875 4.078125 
Q 5.8125 9.578125 5.8125 19 
Q 5.8125 20.703125 6.046875 22.828125 
Q 6.296875 24.953125 6.78125 27.390625 
z
" id="DejaVuSans-Oblique-85"/>
      <path d="M 25.390625 72.90625 
L 33.6875 72.90625 
L 8.296875 -9.28125 
L 0 -9.28125 
z
" id="DejaVuSans-47"/>
      <path d="M 45.609375 66.21875 
Q 37.5 66.21875 31.296875 62.28125 
Q 25.09375 58.34375 20.515625 50.296875 
Q 17.578125 45.171875 16.03125 39.40625 
Q 14.5 33.640625 14.5 27.78125 
Q 14.5 17.625 19.359375 12.109375 
Q 24.21875 6.59375 33.109375 6.59375 
Q 41.109375 6.59375 47.375 10.5625 
Q 53.65625 14.546875 58.109375 22.40625 
Q 61.078125 27.6875 62.640625 33.46875 
Q 64.203125 39.265625 64.203125 45.015625 
Q 64.203125 55.125 59.3125 60.671875 
Q 54.4375 66.21875 45.609375 66.21875 
z
M 32.8125 -1.421875 
Q 19.390625 -1.421875 11.6875 6.53125 
Q 4 14.5 4 28.328125 
Q 4 36.234375 7 44.484375 
Q 10.015625 52.734375 15.28125 59.1875 
Q 21.484375 66.75 29.09375 70.484375 
Q 36.71875 74.21875 45.90625 74.21875 
Q 59.28125 74.21875 66.984375 66.328125 
Q 74.703125 58.453125 74.703125 44.828125 
Q 74.703125 36.421875 71.765625 28.3125 
Q 68.84375 20.21875 63.375 13.625 
Q 57.125 6 49.578125 2.28125 
Q 42.046875 -1.421875 32.8125 -1.421875 
z
" id="DejaVuSans-Oblique-79"/>
      <path d="M 16.890625 72.90625 
L 38.09375 72.90625 
Q 54.984375 72.90625 63.59375 65.75 
Q 72.21875 58.59375 72.21875 44.484375 
Q 72.21875 35.15625 68.9375 26.53125 
Q 65.671875 17.921875 59.90625 12.015625 
Q 54.109375 5.953125 45.171875 2.96875 
Q 36.234375 0 24.03125 0 
L 2.6875 0 
z
M 25.203125 64.796875 
L 14.203125 8.109375 
L 27.09375 8.109375 
Q 43.65625 8.109375 52.734375 17.625 
Q 61.8125 27.15625 61.8125 44.484375 
Q 61.8125 54.984375 55.953125 59.890625 
Q 50.09375 64.796875 37.59375 64.796875 
z
" id="DejaVuSans-Oblique-68"/>
      <path d="M 8.015625 75.875 
L 15.828125 75.875 
Q 23.140625 64.359375 26.78125 53.3125 
Q 30.421875 42.28125 30.421875 31.390625 
Q 30.421875 20.453125 26.78125 9.375 
Q 23.140625 -1.703125 15.828125 -13.1875 
L 8.015625 -13.1875 
Q 14.5 -2 17.703125 9.0625 
Q 20.90625 20.125 20.90625 31.390625 
Q 20.90625 42.671875 17.703125 53.65625 
Q 14.5 64.65625 8.015625 75.875 
z
" id="DejaVuSans-41"/>
      <path d="M 70.125 53.71875 
L 47.796875 31.296875 
L 70.125 8.984375 
L 64.3125 3.078125 
L 41.890625 25.484375 
L 19.484375 3.078125 
L 13.71875 8.984375 
L 35.984375 31.296875 
L 13.71875 53.71875 
L 19.484375 59.625 
L 41.890625 37.203125 
L 64.3125 59.625 
z
" id="DejaVuSans-215"/>
     </defs>
     <g transform="translate(56.304063 308.1888)rotate(-90)scale(0.18 -0.18)">
      <use transform="translate(0 0.684375)" xlink:href="#DejaVuSans-40"/>
      <use transform="translate(39.013672 0.684375)" xlink:href="#DejaVuSans-Oblique-82"/>
      <use transform="translate(108.496094 0.684375)" xlink:href="#DejaVuSans-Oblique-70"/>
      <use transform="translate(166.015625 0.684375)" xlink:href="#DejaVuSans-Oblique-85"/>
      <use transform="translate(239.208984 0.684375)" xlink:href="#DejaVuSans-47"/>
      <use transform="translate(272.900391 0.684375)" xlink:href="#DejaVuSans-Oblique-79"/>
      <use transform="translate(351.611328 0.684375)" xlink:href="#DejaVuSans-Oblique-68"/>
      <use transform="translate(428.613281 0.684375)" xlink:href="#DejaVuSans-41"/>
      <use transform="translate(487.109375 0.684375)" xlink:href="#DejaVuSans-215"/>
      <use transform="translate(590.380859 0.684375)" xlink:href="#DejaVuSans-49"/>
      <use transform="translate(654.003906 0.684375)" xlink:href="#DejaVuSans-48"/>
      <use transform="translate(718.583984 38.965625)scale(0.7)" xlink:href="#DejaVuSans-52"/>
     </g>
    </g>
   </g>
   <g id="patch_8">
    <path d="M 81 421.6464 
L 81 56.8512 
" style="fill:none;stroke:#000000;stroke-linecap:square;stroke-linejoin:miter;stroke-width:0.8;"/>
   </g>
   <g id="patch_9">
    <path d="M 81 421.6464 
L 583.2 421.6464 
" style="fill:none;stroke:#000000;stroke-linecap:square;stroke-linejoin:miter;stroke-width:0.8;"/>
   </g>
   <g id="text_15">
    <!-- Round 1 of OMT evolution -->
    <defs>
     <path d="M 44.390625 34.1875 
Q 47.5625 33.109375 50.5625 29.59375 
Q 53.5625 26.078125 56.59375 19.921875 
L 66.609375 0 
L 56 0 
L 46.6875 18.703125 
Q 43.0625 26.03125 39.671875 28.421875 
Q 36.28125 30.8125 30.421875 30.8125 
L 19.671875 30.8125 
L 19.671875 0 
L 9.8125 0 
L 9.8125 72.90625 
L 32.078125 72.90625 
Q 44.578125 72.90625 50.734375 67.671875 
Q 56.890625 62.453125 56.890625 51.90625 
Q 56.890625 45.015625 53.6875 40.46875 
Q 50.484375 35.9375 44.390625 34.1875 
z
M 19.671875 64.796875 
L 19.671875 38.921875 
L 32.078125 38.921875 
Q 39.203125 38.921875 42.84375 42.21875 
Q 46.484375 45.515625 46.484375 51.90625 
Q 46.484375 58.296875 42.84375 61.546875 
Q 39.203125 64.796875 32.078125 64.796875 
z
" id="DejaVuSans-82"/>
     <path d="M 30.609375 48.390625 
Q 23.390625 48.390625 19.1875 42.75 
Q 14.984375 37.109375 14.984375 27.296875 
Q 14.984375 17.484375 19.15625 11.84375 
Q 23.34375 6.203125 30.609375 6.203125 
Q 37.796875 6.203125 41.984375 11.859375 
Q 46.1875 17.53125 46.1875 27.296875 
Q 46.1875 37.015625 41.984375 42.703125 
Q 37.796875 48.390625 30.609375 48.390625 
z
M 30.609375 56 
Q 42.328125 56 49.015625 48.375 
Q 55.71875 40.765625 55.71875 27.296875 
Q 55.71875 13.875 49.015625 6.21875 
Q 42.328125 -1.421875 30.609375 -1.421875 
Q 18.84375 -1.421875 12.171875 6.21875 
Q 5.515625 13.875 5.515625 27.296875 
Q 5.515625 40.765625 12.171875 48.375 
Q 18.84375 56 30.609375 56 
z
" id="DejaVuSans-111"/>
     <path d="M 8.5 21.578125 
L 8.5 54.6875 
L 17.484375 54.6875 
L 17.484375 21.921875 
Q 17.484375 14.15625 20.5 10.265625 
Q 23.53125 6.390625 29.59375 6.390625 
Q 36.859375 6.390625 41.078125 11.03125 
Q 45.3125 15.671875 45.3125 23.6875 
L 45.3125 54.6875 
L 54.296875 54.6875 
L 54.296875 0 
L 45.3125 0 
L 45.3125 8.40625 
Q 42.046875 3.421875 37.71875 1 
Q 33.40625 -1.421875 27.6875 -1.421875 
Q 18.265625 -1.421875 13.375 4.4375 
Q 8.5 10.296875 8.5 21.578125 
z
M 31.109375 56 
z
" id="DejaVuSans-117"/>
     <path d="M 45.40625 46.390625 
L 45.40625 75.984375 
L 54.390625 75.984375 
L 54.390625 0 
L 45.40625 0 
L 45.40625 8.203125 
Q 42.578125 3.328125 38.25 0.953125 
Q 33.9375 -1.421875 27.875 -1.421875 
Q 17.96875 -1.421875 11.734375 6.484375 
Q 5.515625 14.40625 5.515625 27.296875 
Q 5.515625 40.1875 11.734375 48.09375 
Q 17.96875 56 27.875 56 
Q 33.9375 56 38.25 53.625 
Q 42.578125 51.265625 45.40625 46.390625 
z
M 14.796875 27.296875 
Q 14.796875 17.390625 18.875 11.75 
Q 22.953125 6.109375 30.078125 6.109375 
Q 37.203125 6.109375 41.296875 11.75 
Q 45.40625 17.390625 45.40625 27.296875 
Q 45.40625 37.203125 41.296875 42.84375 
Q 37.203125 48.484375 30.078125 48.484375 
Q 22.953125 48.484375 18.875 42.84375 
Q 14.796875 37.203125 14.796875 27.296875 
z
" id="DejaVuSans-100"/>
     <path d="M 2.984375 54.6875 
L 12.5 54.6875 
L 29.59375 8.796875 
L 46.6875 54.6875 
L 56.203125 54.6875 
L 35.6875 0 
L 23.484375 0 
z
" id="DejaVuSans-118"/>
     <path d="M 9.421875 75.984375 
L 18.40625 75.984375 
L 18.40625 0 
L 9.421875 0 
z
" id="DejaVuSans-108"/>
    </defs>
    <g transform="translate(189.246094 50.8512)scale(0.22 -0.22)">
     <use xlink:href="#DejaVuSans-82"/>
     <use x="69.419922" xlink:href="#DejaVuSans-111"/>
     <use x="130.601562" xlink:href="#DejaVuSans-117"/>
     <use x="193.980469" xlink:href="#DejaVuSans-110"/>
     <use x="257.359375" xlink:href="#DejaVuSans-100"/>
     <use x="320.835938" xlink:href="#DejaVuSans-32"/>
     <use x="352.623047" xlink:href="#DejaVuSans-49"/>
     <use x="416.246094" xlink:href="#DejaVuSans-32"/>
     <use x="448.033203" xlink:href="#DejaVuSans-111"/>
     <use x="509.214844" xlink:href="#DejaVuSans-102"/>
     <use x="544.419922" xlink:href="#DejaVuSans-32"/>
     <use x="576.207031" xlink:href="#DejaVuSans-79"/>
     <use x="654.917969" xlink:href="#DejaVuSans-77"/>
     <use x="741.197266" xlink:href="#DejaVuSans-84"/>
     <use x="802.28125" xlink:href="#DejaVuSans-32"/>
     <use x="834.068359" xlink:href="#DejaVuSans-101"/>
     <use x="895.591797" xlink:href="#DejaVuSans-118"/>
     <use x="954.771484" xlink:href="#DejaVuSans-111"/>
     <use x="1015.953125" xlink:href="#DejaVuSans-108"/>
     <use x="1043.736328" xlink:href="#DejaVuSans-117"/>
     <use x="1107.115234" xlink:href="#DejaVuSans-116"/>
     <use x="1146.324219" xlink:href="#DejaVuSans-105"/>
     <use x="1174.107422" xlink:href="#DejaVuSans-111"/>
     <use x="1235.289062" xlink:href="#DejaVuSans-110"/>
    </g>
   </g>
  </g>
 </g>
 <defs>
  <clipPath id="p830caef3ea">
   <rect height="364.7952" width="502.2" x="81" y="56.8512"/>
  </clipPath>
 </defs>
</svg>
