<?xml version="1.0" encoding="utf-8" standalone="no"?>
<!DOCTYPE svg PUBLIC "-//W3C//DTD SVG 1.1//EN"
  "http://www.w3.org/Graphics/SVG/1.1/DTD/svg11.dtd">
<!-- Created with matplotlib (https://matplotlib.org/) -->
<svg height="473.76pt" version="1.1" viewBox="0 0 648 473.76" width="648pt" xmlns="http://www.w3.org/2000/svg" xmlns:xlink="http://www.w3.org/1999/xlink">
 <defs>
  <style type="text/css">
*{stroke-linecap:butt;stroke-linejoin:round;}
  </style>
 </defs>
 <g id="figure_1">
  <g id="patch_1">
   <path d="M 0 473.76 
L 648 473.76 
L 648 0 
L 0 0 
z
" style="fill:#ffffff;"/>
  </g>
  <g id="axes_1">
   <g id="patch_2">
    <path d="M 81 421.6464 
L 583.2 421.6464 
L 583.2 56.8512 
L 81 56.8512 
z
" style="fill:#ffffff;"/>
   </g>
   <g id="patch_3">
    <path clip-path="url(#p5e811825d5)" d="M 103.827273 421.6464 
L 145.331405 421.6464 
L 145.331405 276.214625 
L 103.827273 276.214625 
z
" style="fill:#008cff;stroke:#000000;stroke-linejoin:miter;stroke-width:4;"/>
   </g>
   <g id="patch_4">
    <path clip-path="url(#p5e811825d5)" d="M 207.587603 421.6464 
L 249.091736 421.6464 
L 249.091736 151.894737 
L 207.587603 151.894737 
z
" style="fill:#008cff;stroke:#000000;stroke-linejoin:miter;stroke-width:4;"/>
   </g>
   <g id="patch_5">
    <path clip-path="url(#p5e811825d5)" d="M 311.347934 421.6464 
L 352.852066 421.6464 
L 352.852066 225.412657 
L 311.347934 225.412657 
z
" style="fill:#008cff;stroke:#000000;stroke-linejoin:miter;stroke-width:4;"/>
   </g>
   <g id="patch_6">
    <path clip-path="url(#p5e811825d5)" d="M 415.108264 421.6464 
L 456.612397 421.6464 
L 456.612397 102.041194 
L 415.108264 102.041194 
z
" style="fill:#008cff;stroke:#000000;stroke-linejoin:miter;stroke-width:4;"/>
   </g>
   <g id="patch_7">
    <path clip-path="url(#p5e811825d5)" d="M 518.868595 421.6464 
L 560.372727 421.6464 
L 560.372727 197.021913 
L 518.868595 197.021913 
z
" style="fill:#008cff;stroke:#000000;stroke-linejoin:miter;stroke-width:4;"/>
   </g>
   <g id="LineCollection_1">
    <path clip-path="url(#p5e811825d5)" d="M 124.579339 292.661164 
L 124.579339 259.768086 
" style="fill:none;stroke:#000000;stroke-width:2;"/>
   </g>
   <g id="LineCollection_2">
    <path clip-path="url(#p5e811825d5)" d="M 228.339669 164.539068 
L 228.339669 139.250407 
" style="fill:none;stroke:#000000;stroke-width:2;"/>
   </g>
   <g id="LineCollection_3">
    <path clip-path="url(#p5e811825d5)" d="M 332.1 240.210491 
L 332.1 210.614823 
" style="fill:none;stroke:#000000;stroke-width:2;"/>
   </g>
   <g id="LineCollection_4">
    <path clip-path="url(#p5e811825d5)" d="M 435.860331 121.315193 
L 435.860331 82.767195 
" style="fill:none;stroke:#000000;stroke-width:2;"/>
   </g>
   <g id="LineCollection_5">
    <path clip-path="url(#p5e811825d5)" d="M 539.620661 202.775672 
L 539.620661 191.268155 
" style="fill:none;stroke:#000000;stroke-width:2;"/>
   </g>
   <g id="line2d_1">
    <defs>
     <path d="M 5 0 
L -5 -0 
" id="mcd8c7f5068" style="stroke:#000000;stroke-width:2;"/>
    </defs>
    <g clip-path="url(#p5e811825d5)">
     <use style="stroke:#000000;stroke-width:2;" x="124.579339" xlink:href="#mcd8c7f5068" y="292.661164"/>
    </g>
   </g>
   <g id="line2d_2">
    <g clip-path="url(#p5e811825d5)">
     <use style="stroke:#000000;stroke-width:2;" x="124.579339" xlink:href="#mcd8c7f5068" y="259.768086"/>
    </g>
   </g>
   <g id="line2d_3">
    <g clip-path="url(#p5e811825d5)">
     <use style="stroke:#000000;stroke-width:2;" x="228.339669" xlink:href="#mcd8c7f5068" y="164.539068"/>
    </g>
   </g>
   <g id="line2d_4">
    <g clip-path="url(#p5e811825d5)">
     <use style="stroke:#000000;stroke-width:2;" x="228.339669" xlink:href="#mcd8c7f5068" y="139.250407"/>
    </g>
   </g>
   <g id="line2d_5">
    <g clip-path="url(#p5e811825d5)">
     <use style="stroke:#000000;stroke-width:2;" x="332.1" xlink:href="#mcd8c7f5068" y="240.210491"/>
    </g>
   </g>
   <g id="line2d_6">
    <g clip-path="url(#p5e811825d5)">
     <use style="stroke:#000000;stroke-width:2;" x="332.1" xlink:href="#mcd8c7f5068" y="210.614823"/>
    </g>
   </g>
   <g id="line2d_7">
    <g clip-path="url(#p5e811825d5)">
     <use style="stroke:#000000;stroke-width:2;" x="435.860331" xlink:href="#mcd8c7f5068" y="121.315193"/>
    </g>
   </g>
   <g id="line2d_8">
    <g clip-path="url(#p5e811825d5)">
     <use style="stroke:#000000;stroke-width:2;" x="435.860331" xlink:href="#mcd8c7f5068" y="82.767195"/>
    </g>
   </g>
   <g id="line2d_9">
    <g clip-path="url(#p5e811825d5)">
     <use style="stroke:#000000;stroke-width:2;" x="539.620661" xlink:href="#mcd8c7f5068" y="202.775672"/>
    </g>
   </g>
   <g id="line2d_10">
    <g clip-path="url(#p5e811825d5)">
     <use style="stroke:#000000;stroke-width:2;" x="539.620661" xlink:href="#mcd8c7f5068" y="191.268155"/>
    </g>
   </g>
   <g id="PathCollection_1">
    <path clip-path="url(#p5e811825d5)" d="M 114.579339 300.800274 
C 116.126157 300.800274 117.60983 300.185716 118.703596 299.09195 
C 119.797362 297.998185 120.41192 296.514511 120.41192 294.967693 
C 120.41192 293.420875 119.797362 291.937201 118.703596 290.843436 
C 117.60983 289.74967 116.126157 289.135112 114.579339 289.135112 
C 113.03252 289.135112 111.548847 289.74967 110.455081 290.843436 
C 109.361316 291.937201 108.746758 293.420875 108.746758 294.967693 
C 108.746758 296.514511 109.361316 297.998185 110.455081 299.09195 
C 111.548847 300.185716 113.03252 300.800274 114.579339 300.800274 
z
" style="fill:none;stroke:#000000;stroke-width:2.5;"/>
   </g>
   <g id="PathCollection_2">
    <path clip-path="url(#p5e811825d5)" d="M 124.579339 275.264989 
C 126.126157 275.264989 127.60983 274.650432 128.703596 273.556666 
C 129.797362 272.4629 130.41192 270.979227 130.41192 269.432409 
C 130.41192 267.88559 129.797362 266.401917 128.703596 265.308151 
C 127.60983 264.214385 126.126157 263.599828 124.579339 263.599828 
C 123.03252 263.599828 121.548847 264.214385 120.455081 265.308151 
C 119.361316 266.401917 118.746758 267.88559 118.746758 269.432409 
C 118.746758 270.979227 119.361316 272.4629 120.455081 273.556666 
C 121.548847 274.650432 123.03252 275.264989 124.579339 275.264989 
z
" style="fill:none;stroke:#000000;stroke-width:2.5;"/>
   </g>
   <g id="PathCollection_3">
    <path clip-path="url(#p5e811825d5)" d="M 134.579339 270.076354 
C 136.126157 270.076354 137.60983 269.461796 138.703596 268.368031 
C 139.797362 267.274265 140.41192 265.790592 140.41192 264.243773 
C 140.41192 262.696955 139.797362 261.213282 138.703596 260.119516 
C 137.60983 259.02575 136.126157 258.411193 134.579339 258.411193 
C 133.03252 258.411193 131.548847 259.02575 130.455081 260.119516 
C 129.361316 261.213282 128.746758 262.696955 128.746758 264.243773 
C 128.746758 265.790592 129.361316 267.274265 130.455081 268.368031 
C 131.548847 269.461796 133.03252 270.076354 134.579339 270.076354 
z
" style="fill:none;stroke:#000000;stroke-width:2.5;"/>
   </g>
   <g id="PathCollection_4">
    <path clip-path="url(#p5e811825d5)" d="M 218.339669 149.171652 
C 219.886488 149.171652 221.370161 148.557094 222.463927 147.463328 
C 223.557693 146.369562 224.17225 144.885889 224.17225 143.339071 
C 224.17225 141.792252 223.557693 140.308579 222.463927 139.214814 
C 221.370161 138.121048 219.886488 137.50649 218.339669 137.50649 
C 216.792851 137.50649 215.309178 138.121048 214.215412 139.214814 
C 213.121646 140.308579 212.507089 141.792252 212.507089 143.339071 
C 212.507089 144.885889 213.121646 146.369562 214.215412 147.463328 
C 215.309178 148.557094 216.792851 149.171652 218.339669 149.171652 
z
" style="fill:none;stroke:#000000;stroke-width:2.5;"/>
   </g>
   <g id="PathCollection_5">
    <path clip-path="url(#p5e811825d5)" d="M 228.339669 172.251103 
C 229.886488 172.251103 231.370161 171.636545 232.463927 170.542779 
C 233.557693 169.449013 234.17225 167.96534 234.17225 166.418522 
C 234.17225 164.871703 233.557693 163.38803 232.463927 162.294265 
C 231.370161 161.200499 229.886488 160.585941 228.339669 160.585941 
C 226.792851 160.585941 225.309178 161.200499 224.215412 162.294265 
C 223.121646 163.38803 222.507089 164.871703 222.507089 166.418522 
C 222.507089 167.96534 223.121646 169.449013 224.215412 170.542779 
C 225.309178 171.636545 226.792851 172.251103 228.339669 172.251103 
z
" style="fill:none;stroke:#000000;stroke-width:2.5;"/>
   </g>
   <g id="PathCollection_6">
    <path clip-path="url(#p5e811825d5)" d="M 238.339669 151.7592 
C 239.886488 151.7592 241.370161 151.144642 242.463927 150.050876 
C 243.557693 148.957111 244.17225 147.473438 244.17225 145.926619 
C 244.17225 144.379801 243.557693 142.896128 242.463927 141.802362 
C 241.370161 140.708596 239.886488 140.094038 238.339669 140.094038 
C 236.792851 140.094038 235.309178 140.708596 234.215412 141.802362 
C 233.121646 142.896128 232.507089 144.379801 232.507089 145.926619 
C 232.507089 147.473438 233.121646 148.957111 234.215412 150.050876 
C 235.309178 151.144642 236.792851 151.7592 238.339669 151.7592 
z
" style="fill:none;stroke:#000000;stroke-width:2.5;"/>
   </g>
   <g id="PathCollection_7">
    <path clip-path="url(#p5e811825d5)" d="M 322.1 229.276676 
C 323.646818 229.276676 325.130492 228.662119 326.224257 227.568353 
C 327.318023 226.474587 327.932581 224.990914 327.932581 223.444095 
C 327.932581 221.897277 327.318023 220.413604 326.224257 219.319838 
C 325.130492 218.226072 323.646818 217.611515 322.1 217.611515 
C 320.553182 217.611515 319.069508 218.226072 317.975743 219.319838 
C 316.881977 220.413604 316.267419 221.897277 316.267419 223.444095 
C 316.267419 224.990914 316.881977 226.474587 317.975743 227.568353 
C 319.069508 228.662119 320.553182 229.276676 322.1 229.276676 
z
" style="fill:none;stroke:#000000;stroke-width:2.5;"/>
   </g>
   <g id="PathCollection_8">
    <path clip-path="url(#p5e811825d5)" d="M 332.1 217.530217 
C 333.646818 217.530217 335.130492 216.91566 336.224257 215.821894 
C 337.318023 214.728128 337.932581 213.244455 337.932581 211.697637 
C 337.932581 210.150818 337.318023 208.667145 336.224257 207.573379 
C 335.130492 206.479613 333.646818 205.865056 332.1 205.865056 
C 330.553182 205.865056 329.069508 206.479613 327.975743 207.573379 
C 326.881977 208.667145 326.267419 210.150818 326.267419 211.697637 
C 326.267419 213.244455 326.881977 214.728128 327.975743 215.821894 
C 329.069508 216.91566 330.553182 217.530217 332.1 217.530217 
z
" style="fill:none;stroke:#000000;stroke-width:2.5;"/>
   </g>
   <g id="PathCollection_9">
    <path clip-path="url(#p5e811825d5)" d="M 342.1 246.92882 
C 343.646818 246.92882 345.130492 246.314262 346.224257 245.220496 
C 347.318023 244.12673 347.932581 242.643057 347.932581 241.096239 
C 347.932581 239.54942 347.318023 238.065747 346.224257 236.971981 
C 345.130492 235.878216 343.646818 235.263658 342.1 235.263658 
C 340.553182 235.263658 339.069508 235.878216 337.975743 236.971981 
C 336.881977 238.065747 336.267419 239.54942 336.267419 241.096239 
C 336.267419 242.643057 336.881977 244.12673 337.975743 245.220496 
C 339.069508 246.314262 340.553182 246.92882 342.1 246.92882 
z
" style="fill:none;stroke:#000000;stroke-width:2.5;"/>
   </g>
   <g id="PathCollection_10">
    <path clip-path="url(#p5e811825d5)" d="M 425.860331 117.65786 
C 427.407149 117.65786 428.890822 117.043303 429.984588 115.949537 
C 431.078354 114.855771 431.692911 113.372098 431.692911 111.82528 
C 431.692911 110.278461 431.078354 108.794788 429.984588 107.701022 
C 428.890822 106.607256 427.407149 105.992699 425.860331 105.992699 
C 424.313512 105.992699 422.829839 106.607256 421.736073 107.701022 
C 420.642307 108.794788 420.02775 110.278461 420.02775 111.82528 
C 420.02775 113.372098 420.642307 114.855771 421.736073 115.949537 
C 422.829839 117.043303 424.313512 117.65786 425.860331 117.65786 
z
" style="fill:none;stroke:#000000;stroke-width:2.5;"/>
   </g>
   <g id="PathCollection_11">
    <path clip-path="url(#p5e811825d5)" d="M 435.860331 85.670152 
C 437.407149 85.670152 438.890822 85.055594 439.984588 83.961829 
C 441.078354 82.868063 441.692911 81.38439 441.692911 79.837571 
C 441.692911 78.290753 441.078354 76.80708 439.984588 75.713314 
C 438.890822 74.619548 437.407149 74.004991 435.860331 74.004991 
C 434.313512 74.004991 432.829839 74.619548 431.736073 75.713314 
C 430.642307 76.80708 430.02775 78.290753 430.02775 79.837571 
C 430.02775 81.38439 430.642307 82.868063 431.736073 83.961829 
C 432.829839 85.055594 434.313512 85.670152 435.860331 85.670152 
z
" style="fill:none;stroke:#000000;stroke-width:2.5;"/>
   </g>
   <g id="PathCollection_12">
    <path clip-path="url(#p5e811825d5)" d="M 445.860331 120.293311 
C 447.407149 120.293311 448.890822 119.678754 449.984588 118.584988 
C 451.078354 117.491222 451.692911 116.007549 451.692911 114.460731 
C 451.692911 112.913912 451.078354 111.430239 449.984588 110.336473 
C 448.890822 109.242708 447.407149 108.62815 445.860331 108.62815 
C 444.313512 108.62815 442.829839 109.242708 441.736073 110.336473 
C 440.642307 111.430239 440.02775 112.913912 440.02775 114.460731 
C 440.02775 116.007549 440.642307 117.491222 441.736073 118.584988 
C 442.829839 119.678754 444.313512 120.293311 445.860331 120.293311 
z
" style="fill:none;stroke:#000000;stroke-width:2.5;"/>
   </g>
   <g id="PathCollection_13">
    <path clip-path="url(#p5e811825d5)" d="M 529.620661 208.843027 
C 531.16748 208.843027 532.651153 208.22847 533.744919 207.134704 
C 534.838684 206.040938 535.453242 204.557265 535.453242 203.010447 
C 535.453242 201.463628 534.838684 199.979955 533.744919 198.886189 
C 532.651153 197.792423 531.16748 197.177866 529.620661 197.177866 
C 528.073843 197.177866 526.59017 197.792423 525.496404 198.886189 
C 524.402638 199.979955 523.78808 201.463628 523.78808 203.010447 
C 523.78808 204.557265 524.402638 206.040938 525.496404 207.134704 
C 526.59017 208.22847 528.073843 208.843027 529.620661 208.843027 
z
" style="fill:none;stroke:#000000;stroke-width:2.5;"/>
   </g>
   <g id="PathCollection_14">
    <path clip-path="url(#p5e811825d5)" d="M 539.620661 202.351981 
C 541.16748 202.351981 542.651153 201.737424 543.744919 200.643658 
C 544.838684 199.549892 545.453242 198.066219 545.453242 196.519401 
C 545.453242 194.972582 544.838684 193.488909 543.744919 192.395143 
C 542.651153 191.301378 541.16748 190.68682 539.620661 190.68682 
C 538.073843 190.68682 536.59017 191.301378 535.496404 192.395143 
C 534.402638 193.488909 533.78808 194.972582 533.78808 196.519401 
C 533.78808 198.066219 534.402638 199.549892 535.496404 200.643658 
C 536.59017 201.737424 538.073843 202.351981 539.620661 202.351981 
z
" style="fill:none;stroke:#000000;stroke-width:2.5;"/>
   </g>
   <g id="PathCollection_15">
    <path clip-path="url(#p5e811825d5)" d="M 549.620661 197.368473 
C 551.16748 197.368473 552.651153 196.753916 553.744919 195.66015 
C 554.838684 194.566384 555.453242 193.082711 555.453242 191.535892 
C 555.453242 189.989074 554.838684 188.505401 553.744919 187.411635 
C 552.651153 186.317869 551.16748 185.703312 549.620661 185.703312 
C 548.073843 185.703312 546.59017 186.317869 545.496404 187.411635 
C 544.402638 188.505401 543.78808 189.989074 543.78808 191.535892 
C 543.78808 193.082711 544.402638 194.566384 545.496404 195.66015 
C 546.59017 196.753916 548.073843 197.368473 549.620661 197.368473 
z
" style="fill:none;stroke:#000000;stroke-width:2.5;"/>
   </g>
   <g id="matplotlib.axis_1">
    <g id="xtick_1">
     <g id="line2d_11">
      <defs>
       <path d="M 0 0 
L 0 2 
" id="m3291bc1ce4" style="stroke:#000000;"/>
      </defs>
      <g>
       <use style="stroke:#000000;" x="124.579339" xlink:href="#m3291bc1ce4" y="421.6464"/>
      </g>
     </g>
     <g id="text_1">
      <!-- Gen2 -->
      <defs>
       <path d="M 59.515625 10.40625 
L 59.515625 29.984375 
L 43.40625 29.984375 
L 43.40625 38.09375 
L 69.28125 38.09375 
L 69.28125 6.78125 
Q 63.578125 2.734375 56.6875 0.65625 
Q 49.8125 -1.421875 42 -1.421875 
Q 24.90625 -1.421875 15.25 8.5625 
Q 5.609375 18.5625 5.609375 36.375 
Q 5.609375 54.25 15.25 64.234375 
Q 24.90625 74.21875 42 74.21875 
Q 49.125 74.21875 55.546875 72.453125 
Q 61.96875 70.703125 67.390625 67.28125 
L 67.390625 56.78125 
Q 61.921875 61.421875 55.765625 63.765625 
Q 49.609375 66.109375 42.828125 66.109375 
Q 29.4375 66.109375 22.71875 58.640625 
Q 16.015625 51.171875 16.015625 36.375 
Q 16.015625 21.625 22.71875 14.15625 
Q 29.4375 6.6875 42.828125 6.6875 
Q 48.046875 6.6875 52.140625 7.59375 
Q 56.25 8.5 59.515625 10.40625 
z
" id="DejaVuSans-71"/>
       <path d="M 56.203125 29.59375 
L 56.203125 25.203125 
L 14.890625 25.203125 
Q 15.484375 15.921875 20.484375 11.0625 
Q 25.484375 6.203125 34.421875 6.203125 
Q 39.59375 6.203125 44.453125 7.46875 
Q 49.3125 8.734375 54.109375 11.28125 
L 54.109375 2.78125 
Q 49.265625 0.734375 44.1875 -0.34375 
Q 39.109375 -1.421875 33.890625 -1.421875 
Q 20.796875 -1.421875 13.15625 6.1875 
Q 5.515625 13.8125 5.515625 26.8125 
Q 5.515625 40.234375 12.765625 48.109375 
Q 20.015625 56 32.328125 56 
Q 43.359375 56 49.78125 48.890625 
Q 56.203125 41.796875 56.203125 29.59375 
z
M 47.21875 32.234375 
Q 47.125 39.59375 43.09375 43.984375 
Q 39.0625 48.390625 32.421875 48.390625 
Q 24.90625 48.390625 20.390625 44.140625 
Q 15.875 39.890625 15.1875 32.171875 
z
" id="DejaVuSans-101"/>
       <path d="M 54.890625 33.015625 
L 54.890625 0 
L 45.90625 0 
L 45.90625 32.71875 
Q 45.90625 40.484375 42.875 44.328125 
Q 39.84375 48.1875 33.796875 48.1875 
Q 26.515625 48.1875 22.3125 43.546875 
Q 18.109375 38.921875 18.109375 30.90625 
L 18.109375 0 
L 9.078125 0 
L 9.078125 54.6875 
L 18.109375 54.6875 
L 18.109375 46.1875 
Q 21.34375 51.125 25.703125 53.5625 
Q 30.078125 56 35.796875 56 
Q 45.21875 56 50.046875 50.171875 
Q 54.890625 44.34375 54.890625 33.015625 
z
" id="DejaVuSans-110"/>
       <path d="M 19.1875 8.296875 
L 53.609375 8.296875 
L 53.609375 0 
L 7.328125 0 
L 7.328125 8.296875 
Q 12.9375 14.109375 22.625 23.890625 
Q 32.328125 33.6875 34.8125 36.53125 
Q 39.546875 41.84375 41.421875 45.53125 
Q 43.3125 49.21875 43.3125 52.78125 
Q 43.3125 58.59375 39.234375 62.25 
Q 35.15625 65.921875 28.609375 65.921875 
Q 23.96875 65.921875 18.8125 64.3125 
Q 13.671875 62.703125 7.8125 59.421875 
L 7.8125 69.390625 
Q 13.765625 71.78125 18.9375 73 
Q 24.125 74.21875 28.421875 74.21875 
Q 39.75 74.21875 46.484375 68.546875 
Q 53.21875 62.890625 53.21875 53.421875 
Q 53.21875 48.921875 51.53125 44.890625 
Q 49.859375 40.875 45.40625 35.40625 
Q 44.1875 33.984375 37.640625 27.21875 
Q 31.109375 20.453125 19.1875 8.296875 
z
" id="DejaVuSans-50"/>
      </defs>
      <g transform="translate(103.298089 439.3039)scale(0.16 -0.16)">
       <use xlink:href="#DejaVuSans-71"/>
       <use x="77.490234" xlink:href="#DejaVuSans-101"/>
       <use x="139.013672" xlink:href="#DejaVuSans-110"/>
       <use x="202.392578" xlink:href="#DejaVuSans-50"/>
      </g>
     </g>
    </g>
    <g id="xtick_2">
     <g id="line2d_12">
      <g>
       <use style="stroke:#000000;" x="228.339669" xlink:href="#m3291bc1ce4" y="421.6464"/>
      </g>
     </g>
     <g id="text_2">
      <!-- Gen3.1 -->
      <defs>
       <path d="M 40.578125 39.3125 
Q 47.65625 37.796875 51.625 33 
Q 55.609375 28.21875 55.609375 21.1875 
Q 55.609375 10.40625 48.1875 4.484375 
Q 40.765625 -1.421875 27.09375 -1.421875 
Q 22.515625 -1.421875 17.65625 -0.515625 
Q 12.796875 0.390625 7.625 2.203125 
L 7.625 11.71875 
Q 11.71875 9.328125 16.59375 8.109375 
Q 21.484375 6.890625 26.8125 6.890625 
Q 36.078125 6.890625 40.9375 10.546875 
Q 45.796875 14.203125 45.796875 21.1875 
Q 45.796875 27.640625 41.28125 31.265625 
Q 36.765625 34.90625 28.71875 34.90625 
L 20.21875 34.90625 
L 20.21875 43.015625 
L 29.109375 43.015625 
Q 36.375 43.015625 40.234375 45.921875 
Q 44.09375 48.828125 44.09375 54.296875 
Q 44.09375 59.90625 40.109375 62.90625 
Q 36.140625 65.921875 28.71875 65.921875 
Q 24.65625 65.921875 20.015625 65.03125 
Q 15.375 64.15625 9.8125 62.3125 
L 9.8125 71.09375 
Q 15.4375 72.65625 20.34375 73.4375 
Q 25.25 74.21875 29.59375 74.21875 
Q 40.828125 74.21875 47.359375 69.109375 
Q 53.90625 64.015625 53.90625 55.328125 
Q 53.90625 49.265625 50.4375 45.09375 
Q 46.96875 40.921875 40.578125 39.3125 
z
" id="DejaVuSans-51"/>
       <path d="M 10.6875 12.40625 
L 21 12.40625 
L 21 0 
L 10.6875 0 
z
" id="DejaVuSans-46"/>
       <path d="M 12.40625 8.296875 
L 28.515625 8.296875 
L 28.515625 63.921875 
L 10.984375 60.40625 
L 10.984375 69.390625 
L 28.421875 72.90625 
L 38.28125 72.90625 
L 38.28125 8.296875 
L 54.390625 8.296875 
L 54.390625 0 
L 12.40625 0 
z
" id="DejaVuSans-49"/>
      </defs>
      <g transform="translate(199.425919 439.3039)scale(0.16 -0.16)">
       <use xlink:href="#DejaVuSans-71"/>
       <use x="77.490234" xlink:href="#DejaVuSans-101"/>
       <use x="139.013672" xlink:href="#DejaVuSans-110"/>
       <use x="202.392578" xlink:href="#DejaVuSans-51"/>
       <use x="266.015625" xlink:href="#DejaVuSans-46"/>
       <use x="297.802734" xlink:href="#DejaVuSans-49"/>
      </g>
     </g>
    </g>
    <g id="xtick_3">
     <g id="line2d_13">
      <g>
       <use style="stroke:#000000;" x="332.1" xlink:href="#m3291bc1ce4" y="421.6464"/>
      </g>
     </g>
     <g id="text_3">
      <!-- Gen3.2 -->
      <g transform="translate(303.18625 439.3039)scale(0.16 -0.16)">
       <use xlink:href="#DejaVuSans-71"/>
       <use x="77.490234" xlink:href="#DejaVuSans-101"/>
       <use x="139.013672" xlink:href="#DejaVuSans-110"/>
       <use x="202.392578" xlink:href="#DejaVuSans-51"/>
       <use x="266.015625" xlink:href="#DejaVuSans-46"/>
       <use x="297.802734" xlink:href="#DejaVuSans-50"/>
      </g>
     </g>
    </g>
    <g id="xtick_4">
     <g id="line2d_14">
      <g>
       <use style="stroke:#000000;" x="435.860331" xlink:href="#m3291bc1ce4" y="421.6464"/>
      </g>
     </g>
     <g id="text_4">
      <!-- Gen3.3 -->
      <g transform="translate(406.946581 439.3039)scale(0.16 -0.16)">
       <use xlink:href="#DejaVuSans-71"/>
       <use x="77.490234" xlink:href="#DejaVuSans-101"/>
       <use x="139.013672" xlink:href="#DejaVuSans-110"/>
       <use x="202.392578" xlink:href="#DejaVuSans-51"/>
       <use x="266.015625" xlink:href="#DejaVuSans-46"/>
       <use x="297.802734" xlink:href="#DejaVuSans-51"/>
      </g>
     </g>
    </g>
    <g id="xtick_5">
     <g id="line2d_15">
      <g>
       <use style="stroke:#000000;" x="539.620661" xlink:href="#m3291bc1ce4" y="421.6464"/>
      </g>
     </g>
     <g id="text_5">
      <!-- Gen3.4 -->
      <defs>
       <path d="M 37.796875 64.3125 
L 12.890625 25.390625 
L 37.796875 25.390625 
z
M 35.203125 72.90625 
L 47.609375 72.90625 
L 47.609375 25.390625 
L 58.015625 25.390625 
L 58.015625 17.1875 
L 47.609375 17.1875 
L 47.609375 0 
L 37.796875 0 
L 37.796875 17.1875 
L 4.890625 17.1875 
L 4.890625 26.703125 
z
" id="DejaVuSans-52"/>
      </defs>
      <g transform="translate(510.706911 439.3039)scale(0.16 -0.16)">
       <use xlink:href="#DejaVuSans-71"/>
       <use x="77.490234" xlink:href="#DejaVuSans-101"/>
       <use x="139.013672" xlink:href="#DejaVuSans-110"/>
       <use x="202.392578" xlink:href="#DejaVuSans-51"/>
       <use x="266.015625" xlink:href="#DejaVuSans-46"/>
       <use x="297.802734" xlink:href="#DejaVuSans-52"/>
      </g>
     </g>
    </g>
    <g id="text_6">
     <!-- GfOMT1 Variant -->
     <defs>
      <path d="M 37.109375 75.984375 
L 37.109375 68.5 
L 28.515625 68.5 
Q 23.6875 68.5 21.796875 66.546875 
Q 19.921875 64.59375 19.921875 59.515625 
L 19.921875 54.6875 
L 34.71875 54.6875 
L 34.71875 47.703125 
L 19.921875 47.703125 
L 19.921875 0 
L 10.890625 0 
L 10.890625 47.703125 
L 2.296875 47.703125 
L 2.296875 54.6875 
L 10.890625 54.6875 
L 10.890625 58.5 
Q 10.890625 67.625 15.140625 71.796875 
Q 19.390625 75.984375 28.609375 75.984375 
z
" id="DejaVuSans-102"/>
      <path d="M 39.40625 66.21875 
Q 28.65625 66.21875 22.328125 58.203125 
Q 16.015625 50.203125 16.015625 36.375 
Q 16.015625 22.609375 22.328125 14.59375 
Q 28.65625 6.59375 39.40625 6.59375 
Q 50.140625 6.59375 56.421875 14.59375 
Q 62.703125 22.609375 62.703125 36.375 
Q 62.703125 50.203125 56.421875 58.203125 
Q 50.140625 66.21875 39.40625 66.21875 
z
M 39.40625 74.21875 
Q 54.734375 74.21875 63.90625 63.9375 
Q 73.09375 53.65625 73.09375 36.375 
Q 73.09375 19.140625 63.90625 8.859375 
Q 54.734375 -1.421875 39.40625 -1.421875 
Q 24.03125 -1.421875 14.8125 8.828125 
Q 5.609375 19.09375 5.609375 36.375 
Q 5.609375 53.65625 14.8125 63.9375 
Q 24.03125 74.21875 39.40625 74.21875 
z
" id="DejaVuSans-79"/>
      <path d="M 9.8125 72.90625 
L 24.515625 72.90625 
L 43.109375 23.296875 
L 61.8125 72.90625 
L 76.515625 72.90625 
L 76.515625 0 
L 66.890625 0 
L 66.890625 64.015625 
L 48.09375 14.015625 
L 38.1875 14.015625 
L 19.390625 64.015625 
L 19.390625 0 
L 9.8125 0 
z
" id="DejaVuSans-77"/>
      <path d="M -0.296875 72.90625 
L 61.375 72.90625 
L 61.375 64.59375 
L 35.5 64.59375 
L 35.5 0 
L 25.59375 0 
L 25.59375 64.59375 
L -0.296875 64.59375 
z
" id="DejaVuSans-84"/>
      <path id="DejaVuSans-32"/>
      <path d="M 28.609375 0 
L 0.78125 72.90625 
L 11.078125 72.90625 
L 34.1875 11.53125 
L 57.328125 72.90625 
L 67.578125 72.90625 
L 39.796875 0 
z
" id="DejaVuSans-86"/>
      <path d="M 34.28125 27.484375 
Q 23.390625 27.484375 19.1875 25 
Q 14.984375 22.515625 14.984375 16.5 
Q 14.984375 11.71875 18.140625 8.90625 
Q 21.296875 6.109375 26.703125 6.109375 
Q 34.1875 6.109375 38.703125 11.40625 
Q 43.21875 16.703125 43.21875 25.484375 
L 43.21875 27.484375 
z
M 52.203125 31.203125 
L 52.203125 0 
L 43.21875 0 
L 43.21875 8.296875 
Q 40.140625 3.328125 35.546875 0.953125 
Q 30.953125 -1.421875 24.3125 -1.421875 
Q 15.921875 -1.421875 10.953125 3.296875 
Q 6 8.015625 6 15.921875 
Q 6 25.140625 12.171875 29.828125 
Q 18.359375 34.515625 30.609375 34.515625 
L 43.21875 34.515625 
L 43.21875 35.40625 
Q 43.21875 41.609375 39.140625 45 
Q 35.0625 48.390625 27.6875 48.390625 
Q 23 48.390625 18.546875 47.265625 
Q 14.109375 46.140625 10.015625 43.890625 
L 10.015625 52.203125 
Q 14.9375 54.109375 19.578125 55.046875 
Q 24.21875 56 28.609375 56 
Q 40.484375 56 46.34375 49.84375 
Q 52.203125 43.703125 52.203125 31.203125 
z
" id="DejaVuSans-97"/>
      <path d="M 41.109375 46.296875 
Q 39.59375 47.171875 37.8125 47.578125 
Q 36.03125 48 33.890625 48 
Q 26.265625 48 22.1875 43.046875 
Q 18.109375 38.09375 18.109375 28.8125 
L 18.109375 0 
L 9.078125 0 
L 9.078125 54.6875 
L 18.109375 54.6875 
L 18.109375 46.1875 
Q 20.953125 51.171875 25.484375 53.578125 
Q 30.03125 56 36.53125 56 
Q 37.453125 56 38.578125 55.875 
Q 39.703125 55.765625 41.0625 55.515625 
z
" id="DejaVuSans-114"/>
      <path d="M 9.421875 54.6875 
L 18.40625 54.6875 
L 18.40625 0 
L 9.421875 0 
z
M 9.421875 75.984375 
L 18.40625 75.984375 
L 18.40625 64.59375 
L 9.421875 64.59375 
z
" id="DejaVuSans-105"/>
      <path d="M 18.3125 70.21875 
L 18.3125 54.6875 
L 36.8125 54.6875 
L 36.8125 47.703125 
L 18.3125 47.703125 
L 18.3125 18.015625 
Q 18.3125 11.328125 20.140625 9.421875 
Q 21.96875 7.515625 27.59375 7.515625 
L 36.8125 7.515625 
L 36.8125 0 
L 27.59375 0 
Q 17.1875 0 13.234375 3.875 
Q 9.28125 7.765625 9.28125 18.015625 
L 9.28125 47.703125 
L 2.6875 47.703125 
L 2.6875 54.6875 
L 9.28125 54.6875 
L 9.28125 70.21875 
z
" id="DejaVuSans-116"/>
     </defs>
     <g transform="translate(260.415 460.308587)scale(0.18 -0.18)">
      <use xlink:href="#DejaVuSans-71"/>
      <use x="77.490234" xlink:href="#DejaVuSans-102"/>
      <use x="112.695312" xlink:href="#DejaVuSans-79"/>
      <use x="191.40625" xlink:href="#DejaVuSans-77"/>
      <use x="277.685547" xlink:href="#DejaVuSans-84"/>
      <use x="338.769531" xlink:href="#DejaVuSans-49"/>
      <use x="402.392578" xlink:href="#DejaVuSans-32"/>
      <use x="434.179688" xlink:href="#DejaVuSans-86"/>
      <use x="502.478516" xlink:href="#DejaVuSans-97"/>
      <use x="563.757812" xlink:href="#DejaVuSans-114"/>
      <use x="604.871094" xlink:href="#DejaVuSans-105"/>
      <use x="632.654297" xlink:href="#DejaVuSans-97"/>
      <use x="693.933594" xlink:href="#DejaVuSans-110"/>
      <use x="757.3125" xlink:href="#DejaVuSans-116"/>
     </g>
    </g>
   </g>
   <g id="matplotlib.axis_2">
    <g id="ytick_1">
     <g id="line2d_16">
      <defs>
       <path d="M 0 0 
L -2 0 
" id="m988a6256ea" style="stroke:#000000;"/>
      </defs>
      <g>
       <use style="stroke:#000000;" x="81" xlink:href="#m988a6256ea" y="421.6464"/>
      </g>
     </g>
     <g id="text_7">
      <!-- 0 -->
      <defs>
       <path d="M 31.78125 66.40625 
Q 24.171875 66.40625 20.328125 58.90625 
Q 16.5 51.421875 16.5 36.375 
Q 16.5 21.390625 20.328125 13.890625 
Q 24.171875 6.390625 31.78125 6.390625 
Q 39.453125 6.390625 43.28125 13.890625 
Q 47.125 21.390625 47.125 36.375 
Q 47.125 51.421875 43.28125 58.90625 
Q 39.453125 66.40625 31.78125 66.40625 
z
M 31.78125 74.21875 
Q 44.046875 74.21875 50.515625 64.515625 
Q 56.984375 54.828125 56.984375 36.375 
Q 56.984375 17.96875 50.515625 8.265625 
Q 44.046875 -1.421875 31.78125 -1.421875 
Q 19.53125 -1.421875 13.0625 8.265625 
Q 6.59375 17.96875 6.59375 36.375 
Q 6.59375 54.828125 13.0625 64.515625 
Q 19.53125 74.21875 31.78125 74.21875 
z
" id="DejaVuSans-48"/>
      </defs>
      <g transform="translate(64.0475 428.484994)scale(0.18 -0.18)">
       <use xlink:href="#DejaVuSans-48"/>
      </g>
     </g>
    </g>
    <g id="ytick_2">
     <g id="line2d_17">
      <g>
       <use style="stroke:#000000;" x="81" xlink:href="#m988a6256ea" y="364.238428"/>
      </g>
     </g>
     <g id="text_8">
      <!-- 1 -->
      <g transform="translate(64.0475 371.077022)scale(0.18 -0.18)">
       <use xlink:href="#DejaVuSans-49"/>
      </g>
     </g>
    </g>
    <g id="ytick_3">
     <g id="line2d_18">
      <g>
       <use style="stroke:#000000;" x="81" xlink:href="#m988a6256ea" y="306.830456"/>
      </g>
     </g>
     <g id="text_9">
      <!-- 2 -->
      <g transform="translate(64.0475 313.66905)scale(0.18 -0.18)">
       <use xlink:href="#DejaVuSans-50"/>
      </g>
     </g>
    </g>
    <g id="ytick_4">
     <g id="line2d_19">
      <g>
       <use style="stroke:#000000;" x="81" xlink:href="#m988a6256ea" y="249.422485"/>
      </g>
     </g>
     <g id="text_10">
      <!-- 3 -->
      <g transform="translate(64.0475 256.261078)scale(0.18 -0.18)">
       <use xlink:href="#DejaVuSans-51"/>
      </g>
     </g>
    </g>
    <g id="ytick_5">
     <g id="line2d_20">
      <g>
       <use style="stroke:#000000;" x="81" xlink:href="#m988a6256ea" y="192.014513"/>
      </g>
     </g>
     <g id="text_11">
      <!-- 4 -->
      <g transform="translate(64.0475 198.853107)scale(0.18 -0.18)">
       <use xlink:href="#DejaVuSans-52"/>
      </g>
     </g>
    </g>
    <g id="ytick_6">
     <g id="line2d_21">
      <g>
       <use style="stroke:#000000;" x="81" xlink:href="#m988a6256ea" y="134.606541"/>
      </g>
     </g>
     <g id="text_12">
      <!-- 5 -->
      <defs>
       <path d="M 10.796875 72.90625 
L 49.515625 72.90625 
L 49.515625 64.59375 
L 19.828125 64.59375 
L 19.828125 46.734375 
Q 21.96875 47.46875 24.109375 47.828125 
Q 26.265625 48.1875 28.421875 48.1875 
Q 40.625 48.1875 47.75 41.5 
Q 54.890625 34.8125 54.890625 23.390625 
Q 54.890625 11.625 47.5625 5.09375 
Q 40.234375 -1.421875 26.90625 -1.421875 
Q 22.3125 -1.421875 17.546875 -0.640625 
Q 12.796875 0.140625 7.71875 1.703125 
L 7.71875 11.625 
Q 12.109375 9.234375 16.796875 8.0625 
Q 21.484375 6.890625 26.703125 6.890625 
Q 35.15625 6.890625 40.078125 11.328125 
Q 45.015625 15.765625 45.015625 23.390625 
Q 45.015625 31 40.078125 35.4375 
Q 35.15625 39.890625 26.703125 39.890625 
Q 22.75 39.890625 18.8125 39.015625 
Q 14.890625 38.140625 10.796875 36.28125 
z
" id="DejaVuSans-53"/>
      </defs>
      <g transform="translate(64.0475 141.445135)scale(0.18 -0.18)">
       <use xlink:href="#DejaVuSans-53"/>
      </g>
     </g>
    </g>
    <g id="ytick_7">
     <g id="line2d_22">
      <g>
       <use style="stroke:#000000;" x="81" xlink:href="#m988a6256ea" y="77.198569"/>
      </g>
     </g>
     <g id="text_13">
      <!-- 6 -->
      <defs>
       <path d="M 33.015625 40.375 
Q 26.375 40.375 22.484375 35.828125 
Q 18.609375 31.296875 18.609375 23.390625 
Q 18.609375 15.53125 22.484375 10.953125 
Q 26.375 6.390625 33.015625 6.390625 
Q 39.65625 6.390625 43.53125 10.953125 
Q 47.40625 15.53125 47.40625 23.390625 
Q 47.40625 31.296875 43.53125 35.828125 
Q 39.65625 40.375 33.015625 40.375 
z
M 52.59375 71.296875 
L 52.59375 62.3125 
Q 48.875 64.0625 45.09375 64.984375 
Q 41.3125 65.921875 37.59375 65.921875 
Q 27.828125 65.921875 22.671875 59.328125 
Q 17.53125 52.734375 16.796875 39.40625 
Q 19.671875 43.65625 24.015625 45.921875 
Q 28.375 48.1875 33.59375 48.1875 
Q 44.578125 48.1875 50.953125 41.515625 
Q 57.328125 34.859375 57.328125 23.390625 
Q 57.328125 12.15625 50.6875 5.359375 
Q 44.046875 -1.421875 33.015625 -1.421875 
Q 20.359375 -1.421875 13.671875 8.265625 
Q 6.984375 17.96875 6.984375 36.375 
Q 6.984375 53.65625 15.1875 63.9375 
Q 23.390625 74.21875 37.203125 74.21875 
Q 40.921875 74.21875 44.703125 73.484375 
Q 48.484375 72.75 52.59375 71.296875 
z
" id="DejaVuSans-54"/>
      </defs>
      <g transform="translate(64.0475 84.037163)scale(0.18 -0.18)">
       <use xlink:href="#DejaVuSans-54"/>
      </g>
     </g>
    </g>
    <g id="text_14">
     <!-- $(RFU/OD) \times 10^4$ -->
     <defs>
      <path d="M 31 75.875 
Q 24.46875 64.65625 21.28125 53.65625 
Q 18.109375 42.671875 18.109375 31.390625 
Q 18.109375 20.125 21.3125 9.0625 
Q 24.515625 -2 31 -13.1875 
L 23.1875 -13.1875 
Q 15.875 -1.703125 12.234375 9.375 
Q 8.59375 20.453125 8.59375 31.390625 
Q 8.59375 42.28125 12.203125 53.3125 
Q 15.828125 64.359375 23.1875 75.875 
z
" id="DejaVuSans-40"/>
      <path d="M 25.203125 64.796875 
L 20.21875 38.921875 
L 32.90625 38.921875 
Q 40.375 38.921875 44.984375 43.046875 
Q 49.609375 47.171875 49.609375 53.8125 
Q 49.609375 59.125 46.5 61.953125 
Q 43.40625 64.796875 37.59375 64.796875 
z
M 43.3125 35.015625 
Q 46.4375 34.28125 48.515625 31.390625 
Q 50.59375 28.515625 53.328125 19.921875 
L 59.515625 0 
L 49.125 0 
L 43.40625 18.703125 
Q 41.21875 25.921875 38.328125 28.359375 
Q 35.453125 30.8125 29.5 30.8125 
L 18.609375 30.8125 
L 12.59375 0 
L 2.6875 0 
L 16.890625 72.90625 
L 39.109375 72.90625 
Q 49.21875 72.90625 54.609375 68.328125 
Q 60.015625 63.765625 60.015625 55.171875 
Q 60.015625 47.5625 55.421875 41.984375 
Q 50.828125 36.421875 43.3125 35.015625 
z
" id="DejaVuSans-Oblique-82"/>
      <path d="M 16.890625 72.90625 
L 58.6875 72.90625 
L 57.078125 64.59375 
L 25.09375 64.59375 
L 20.90625 43.109375 
L 49.8125 43.109375 
L 48.1875 34.8125 
L 19.28125 34.8125 
L 12.5 0 
L 2.6875 0 
z
" id="DejaVuSans-Oblique-70"/>
      <path d="M 15.484375 72.90625 
L 25.390625 72.90625 
L 16.796875 28.609375 
Q 16.265625 25.640625 16.046875 23.703125 
Q 15.828125 21.78125 15.828125 20.3125 
Q 15.828125 13.578125 19.578125 10.078125 
Q 23.34375 6.59375 30.609375 6.59375 
Q 40.046875 6.59375 45.28125 11.765625 
Q 50.53125 16.9375 52.78125 28.609375 
L 61.375 72.90625 
L 71.296875 72.90625 
L 62.5 27.390625 
Q 59.625 12.640625 51.5625 5.609375 
Q 43.5 -1.421875 29.5 -1.421875 
Q 18.5625 -1.421875 12.1875 4.078125 
Q 5.8125 9.578125 5.8125 19 
Q 5.8125 20.703125 6.046875 22.828125 
Q 6.296875 24.953125 6.78125 27.390625 
z
" id="DejaVuSans-Oblique-85"/>
      <path d="M 25.390625 72.90625 
L 33.6875 72.90625 
L 8.296875 -9.28125 
L 0 -9.28125 
z
" id="DejaVuSans-47"/>
      <path d="M 45.609375 66.21875 
Q 37.5 66.21875 31.296875 62.28125 
Q 25.09375 58.34375 20.515625 50.296875 
Q 17.578125 45.171875 16.03125 39.40625 
Q 14.5 33.640625 14.5 27.78125 
Q 14.5 17.625 19.359375 12.109375 
Q 24.21875 6.59375 33.109375 6.59375 
Q 41.109375 6.59375 47.375 10.5625 
Q 53.65625 14.546875 58.109375 22.40625 
Q 61.078125 27.6875 62.640625 33.46875 
Q 64.203125 39.265625 64.203125 45.015625 
Q 64.203125 55.125 59.3125 60.671875 
Q 54.4375 66.21875 45.609375 66.21875 
z
M 32.8125 -1.421875 
Q 19.390625 -1.421875 11.6875 6.53125 
Q 4 14.5 4 28.328125 
Q 4 36.234375 7 44.484375 
Q 10.015625 52.734375 15.28125 59.1875 
Q 21.484375 66.75 29.09375 70.484375 
Q 36.71875 74.21875 45.90625 74.21875 
Q 59.28125 74.21875 66.984375 66.328125 
Q 74.703125 58.453125 74.703125 44.828125 
Q 74.703125 36.421875 71.765625 28.3125 
Q 68.84375 20.21875 63.375 13.625 
Q 57.125 6 49.578125 2.28125 
Q 42.046875 -1.421875 32.8125 -1.421875 
z
" id="DejaVuSans-Oblique-79"/>
      <path d="M 16.890625 72.90625 
L 38.09375 72.90625 
Q 54.984375 72.90625 63.59375 65.75 
Q 72.21875 58.59375 72.21875 44.484375 
Q 72.21875 35.15625 68.9375 26.53125 
Q 65.671875 17.921875 59.90625 12.015625 
Q 54.109375 5.953125 45.171875 2.96875 
Q 36.234375 0 24.03125 0 
L 2.6875 0 
z
M 25.203125 64.796875 
L 14.203125 8.109375 
L 27.09375 8.109375 
Q 43.65625 8.109375 52.734375 17.625 
Q 61.8125 27.15625 61.8125 44.484375 
Q 61.8125 54.984375 55.953125 59.890625 
Q 50.09375 64.796875 37.59375 64.796875 
z
" id="DejaVuSans-Oblique-68"/>
      <path d="M 8.015625 75.875 
L 15.828125 75.875 
Q 23.140625 64.359375 26.78125 53.3125 
Q 30.421875 42.28125 30.421875 31.390625 
Q 30.421875 20.453125 26.78125 9.375 
Q 23.140625 -1.703125 15.828125 -13.1875 
L 8.015625 -13.1875 
Q 14.5 -2 17.703125 9.0625 
Q 20.90625 20.125 20.90625 31.390625 
Q 20.90625 42.671875 17.703125 53.65625 
Q 14.5 64.65625 8.015625 75.875 
z
" id="DejaVuSans-41"/>
      <path d="M 70.125 53.71875 
L 47.796875 31.296875 
L 70.125 8.984375 
L 64.3125 3.078125 
L 41.890625 25.484375 
L 19.484375 3.078125 
L 13.71875 8.984375 
L 35.984375 31.296875 
L 13.71875 53.71875 
L 19.484375 59.625 
L 41.890625 37.203125 
L 64.3125 59.625 
z
" id="DejaVuSans-215"/>
     </defs>
     <g transform="translate(56.304063 308.1888)rotate(-90)scale(0.18 -0.18)">
      <use transform="translate(0 0.684375)" xlink:href="#DejaVuSans-40"/>
      <use transform="translate(39.013672 0.684375)" xlink:href="#DejaVuSans-Oblique-82"/>
      <use transform="translate(108.496094 0.684375)" xlink:href="#DejaVuSans-Oblique-70"/>
      <use transform="translate(166.015625 0.684375)" xlink:href="#DejaVuSans-Oblique-85"/>
      <use transform="translate(239.208984 0.684375)" xlink:href="#DejaVuSans-47"/>
      <use transform="translate(272.900391 0.684375)" xlink:href="#DejaVuSans-Oblique-79"/>
      <use transform="translate(351.611328 0.684375)" xlink:href="#DejaVuSans-Oblique-68"/>
      <use transform="translate(428.613281 0.684375)" xlink:href="#DejaVuSans-41"/>
      <use transform="translate(487.109375 0.684375)" xlink:href="#DejaVuSans-215"/>
      <use transform="translate(590.380859 0.684375)" xlink:href="#DejaVuSans-49"/>
      <use transform="translate(654.003906 0.684375)" xlink:href="#DejaVuSans-48"/>
      <use transform="translate(718.583984 38.965625)scale(0.7)" xlink:href="#DejaVuSans-52"/>
     </g>
    </g>
   </g>
   <g id="patch_8">
    <path d="M 81 421.6464 
L 81 56.8512 
" style="fill:none;stroke:#000000;stroke-linecap:square;stroke-linejoin:miter;stroke-width:0.8;"/>
   </g>
   <g id="patch_9">
    <path d="M 81 421.6464 
L 583.2 421.6464 
" style="fill:none;stroke:#000000;stroke-linecap:square;stroke-linejoin:miter;stroke-width:0.8;"/>
   </g>
   <g id="text_15">
    <!-- Round 3 of OMT evolution -->
    <defs>
     <path d="M 44.390625 34.1875 
Q 47.5625 33.109375 50.5625 29.59375 
Q 53.5625 26.078125 56.59375 19.921875 
L 66.609375 0 
L 56 0 
L 46.6875 18.703125 
Q 43.0625 26.03125 39.671875 28.421875 
Q 36.28125 30.8125 30.421875 30.8125 
L 19.671875 30.8125 
L 19.671875 0 
L 9.8125 0 
L 9.8125 72.90625 
L 32.078125 72.90625 
Q 44.578125 72.90625 50.734375 67.671875 
Q 56.890625 62.453125 56.890625 51.90625 
Q 56.890625 45.015625 53.6875 40.46875 
Q 50.484375 35.9375 44.390625 34.1875 
z
M 19.671875 64.796875 
L 19.671875 38.921875 
L 32.078125 38.921875 
Q 39.203125 38.921875 42.84375 42.21875 
Q 46.484375 45.515625 46.484375 51.90625 
Q 46.484375 58.296875 42.84375 61.546875 
Q 39.203125 64.796875 32.078125 64.796875 
z
" id="DejaVuSans-82"/>
     <path d="M 30.609375 48.390625 
Q 23.390625 48.390625 19.1875 42.75 
Q 14.984375 37.109375 14.984375 27.296875 
Q 14.984375 17.484375 19.15625 11.84375 
Q 23.34375 6.203125 30.609375 6.203125 
Q 37.796875 6.203125 41.984375 11.859375 
Q 46.1875 17.53125 46.1875 27.296875 
Q 46.1875 37.015625 41.984375 42.703125 
Q 37.796875 48.390625 30.609375 48.390625 
z
M 30.609375 56 
Q 42.328125 56 49.015625 48.375 
Q 55.71875 40.765625 55.71875 27.296875 
Q 55.71875 13.875 49.015625 6.21875 
Q 42.328125 -1.421875 30.609375 -1.421875 
Q 18.84375 -1.421875 12.171875 6.21875 
Q 5.515625 13.875 5.515625 27.296875 
Q 5.515625 40.765625 12.171875 48.375 
Q 18.84375 56 30.609375 56 
z
" id="DejaVuSans-111"/>
     <path d="M 8.5 21.578125 
L 8.5 54.6875 
L 17.484375 54.6875 
L 17.484375 21.921875 
Q 17.484375 14.15625 20.5 10.265625 
Q 23.53125 6.390625 29.59375 6.390625 
Q 36.859375 6.390625 41.078125 11.03125 
Q 45.3125 15.671875 45.3125 23.6875 
L 45.3125 54.6875 
L 54.296875 54.6875 
L 54.296875 0 
L 45.3125 0 
L 45.3125 8.40625 
Q 42.046875 3.421875 37.71875 1 
Q 33.40625 -1.421875 27.6875 -1.421875 
Q 18.265625 -1.421875 13.375 4.4375 
Q 8.5 10.296875 8.5 21.578125 
z
M 31.109375 56 
z
" id="DejaVuSans-117"/>
     <path d="M 45.40625 46.390625 
L 45.40625 75.984375 
L 54.390625 75.984375 
L 54.390625 0 
L 45.40625 0 
L 45.40625 8.203125 
Q 42.578125 3.328125 38.25 0.953125 
Q 33.9375 -1.421875 27.875 -1.421875 
Q 17.96875 -1.421875 11.734375 6.484375 
Q 5.515625 14.40625 5.515625 27.296875 
Q 5.515625 40.1875 11.734375 48.09375 
Q 17.96875 56 27.875 56 
Q 33.9375 56 38.25 53.625 
Q 42.578125 51.265625 45.40625 46.390625 
z
M 14.796875 27.296875 
Q 14.796875 17.390625 18.875 11.75 
Q 22.953125 6.109375 30.078125 6.109375 
Q 37.203125 6.109375 41.296875 11.75 
Q 45.40625 17.390625 45.40625 27.296875 
Q 45.40625 37.203125 41.296875 42.84375 
Q 37.203125 48.484375 30.078125 48.484375 
Q 22.953125 48.484375 18.875 42.84375 
Q 14.796875 37.203125 14.796875 27.296875 
z
" id="DejaVuSans-100"/>
     <path d="M 2.984375 54.6875 
L 12.5 54.6875 
L 29.59375 8.796875 
L 46.6875 54.6875 
L 56.203125 54.6875 
L 35.6875 0 
L 23.484375 0 
z
" id="DejaVuSans-118"/>
     <path d="M 9.421875 75.984375 
L 18.40625 75.984375 
L 18.40625 0 
L 9.421875 0 
z
" id="DejaVuSans-108"/>
    </defs>
    <g transform="translate(189.246094 50.8512)scale(0.22 -0.22)">
     <use xlink:href="#DejaVuSans-82"/>
     <use x="69.419922" xlink:href="#DejaVuSans-111"/>
     <use x="130.601562" xlink:href="#DejaVuSans-117"/>
     <use x="193.980469" xlink:href="#DejaVuSans-110"/>
     <use x="257.359375" xlink:href="#DejaVuSans-100"/>
     <use x="320.835938" xlink:href="#DejaVuSans-32"/>
     <use x="352.623047" xlink:href="#DejaVuSans-51"/>
     <use x="416.246094" xlink:href="#DejaVuSans-32"/>
     <use x="448.033203" xlink:href="#DejaVuSans-111"/>
     <use x="509.214844" xlink:href="#DejaVuSans-102"/>
     <use x="544.419922" xlink:href="#DejaVuSans-32"/>
     <use x="576.207031" xlink:href="#DejaVuSans-79"/>
     <use x="654.917969" xlink:href="#DejaVuSans-77"/>
     <use x="741.197266" xlink:href="#DejaVuSans-84"/>
     <use x="802.28125" xlink:href="#DejaVuSans-32"/>
     <use x="834.068359" xlink:href="#DejaVuSans-101"/>
     <use x="895.591797" xlink:href="#DejaVuSans-118"/>
     <use x="954.771484" xlink:href="#DejaVuSans-111"/>
     <use x="1015.953125" xlink:href="#DejaVuSans-108"/>
     <use x="1043.736328" xlink:href="#DejaVuSans-117"/>
     <use x="1107.115234" xlink:href="#DejaVuSans-116"/>
     <use x="1146.324219" xlink:href="#DejaVuSans-105"/>
     <use x="1174.107422" xlink:href="#DejaVuSans-111"/>
     <use x="1235.289062" xlink:href="#DejaVuSans-110"/>
    </g>
   </g>
  </g>
 </g>
 <defs>
  <clipPath id="p5e811825d5">
   <rect height="364.7952" width="502.2" x="81" y="56.8512"/>
  </clipPath>
 </defs>
</svg>
