<?xml version="1.0" encoding="utf-8" standalone="no"?>
<!DOCTYPE svg PUBLIC "-//W3C//DTD SVG 1.1//EN"
  "http://www.w3.org/Graphics/SVG/1.1/DTD/svg11.dtd">
<!-- Created with matplotlib (https://matplotlib.org/) -->
<svg height="473.76pt" version="1.1" viewBox="0 0 648 473.76" width="648pt" xmlns="http://www.w3.org/2000/svg" xmlns:xlink="http://www.w3.org/1999/xlink">
 <defs>
  <style type="text/css">
*{stroke-linecap:butt;stroke-linejoin:round;}
  </style>
 </defs>
 <g id="figure_1">
  <g id="patch_1">
   <path d="M 0 473.76 
L 648 473.76 
L 648 0 
L 0 0 
z
" style="fill:#ffffff;"/>
  </g>
  <g id="axes_1">
   <g id="patch_2">
    <path d="M 81 421.6464 
L 583.2 421.6464 
L 583.2 56.8512 
L 81 56.8512 
z
" style="fill:#ffffff;"/>
   </g>
   <g id="patch_3">
    <path clip-path="url(#pe17bc8e935)" d="M 103.827273 421.6464 
L 144.647111 421.6464 
L 144.647111 83.122223 
L 103.827273 83.122223 
z
" style="fill:#fff200;stroke:#000000;stroke-linejoin:miter;stroke-width:4;"/>
   </g>
   <g id="patch_4">
    <path clip-path="url(#pe17bc8e935)" d="M 205.876868 421.6464 
L 246.696706 421.6464 
L 246.696706 345.792182 
L 205.876868 345.792182 
z
" style="fill:#fff200;stroke:#000000;stroke-linejoin:miter;stroke-width:4;"/>
   </g>
   <g id="patch_5">
    <path clip-path="url(#pe17bc8e935)" d="M 307.926463 421.6464 
L 348.7463 421.6464 
L 348.7463 370.914332 
L 307.926463 370.914332 
z
" style="fill:#fff200;stroke:#000000;stroke-linejoin:miter;stroke-width:4;"/>
   </g>
   <g id="patch_6">
    <path clip-path="url(#pe17bc8e935)" d="M 409.976057 421.6464 
L 450.795895 421.6464 
L 450.795895 374.918001 
L 409.976057 374.918001 
z
" style="fill:#fff200;stroke:#000000;stroke-linejoin:miter;stroke-width:4;"/>
   </g>
   <g id="patch_7">
    <path clip-path="url(#pe17bc8e935)" d="M 512.025652 421.6464 
L 552.84549 421.6464 
L 552.84549 376.439934 
L 512.025652 376.439934 
z
" style="fill:#fff200;stroke:#000000;stroke-linejoin:miter;stroke-width:4;"/>
   </g>
   <g id="LineCollection_1">
    <path clip-path="url(#pe17bc8e935)" d="M 124.237192 88.157272 
L 124.237192 78.087175 
" style="fill:none;stroke:#000000;stroke-width:2;"/>
   </g>
   <g id="LineCollection_2">
    <path clip-path="url(#pe17bc8e935)" d="M 226.286787 348.070357 
L 226.286787 343.514007 
" style="fill:none;stroke:#000000;stroke-width:2;"/>
   </g>
   <g id="LineCollection_3">
    <path clip-path="url(#pe17bc8e935)" d="M 328.336382 373.426942 
L 328.336382 368.401722 
" style="fill:none;stroke:#000000;stroke-width:2;"/>
   </g>
   <g id="LineCollection_4">
    <path clip-path="url(#pe17bc8e935)" d="M 430.385976 375.687805 
L 430.385976 374.148198 
" style="fill:none;stroke:#000000;stroke-width:2;"/>
   </g>
   <g id="LineCollection_5">
    <path clip-path="url(#pe17bc8e935)" d="M 532.435571 377.383543 
L 532.435571 375.496325 
" style="fill:none;stroke:#000000;stroke-width:2;"/>
   </g>
   <g id="line2d_1">
    <defs>
     <path d="M 5 0 
L -5 -0 
" id="m30dc1bdd1a" style="stroke:#000000;stroke-width:2;"/>
    </defs>
    <g clip-path="url(#pe17bc8e935)">
     <use style="stroke:#000000;stroke-width:2;" x="124.237192" xlink:href="#m30dc1bdd1a" y="88.157272"/>
    </g>
   </g>
   <g id="line2d_2">
    <g clip-path="url(#pe17bc8e935)">
     <use style="stroke:#000000;stroke-width:2;" x="124.237192" xlink:href="#m30dc1bdd1a" y="78.087175"/>
    </g>
   </g>
   <g id="line2d_3">
    <g clip-path="url(#pe17bc8e935)">
     <use style="stroke:#000000;stroke-width:2;" x="226.286787" xlink:href="#m30dc1bdd1a" y="348.070357"/>
    </g>
   </g>
   <g id="line2d_4">
    <g clip-path="url(#pe17bc8e935)">
     <use style="stroke:#000000;stroke-width:2;" x="226.286787" xlink:href="#m30dc1bdd1a" y="343.514007"/>
    </g>
   </g>
   <g id="line2d_5">
    <g clip-path="url(#pe17bc8e935)">
     <use style="stroke:#000000;stroke-width:2;" x="328.336382" xlink:href="#m30dc1bdd1a" y="373.426942"/>
    </g>
   </g>
   <g id="line2d_6">
    <g clip-path="url(#pe17bc8e935)">
     <use style="stroke:#000000;stroke-width:2;" x="328.336382" xlink:href="#m30dc1bdd1a" y="368.401722"/>
    </g>
   </g>
   <g id="line2d_7">
    <g clip-path="url(#pe17bc8e935)">
     <use style="stroke:#000000;stroke-width:2;" x="430.385976" xlink:href="#m30dc1bdd1a" y="375.687805"/>
    </g>
   </g>
   <g id="line2d_8">
    <g clip-path="url(#pe17bc8e935)">
     <use style="stroke:#000000;stroke-width:2;" x="430.385976" xlink:href="#m30dc1bdd1a" y="374.148198"/>
    </g>
   </g>
   <g id="line2d_9">
    <g clip-path="url(#pe17bc8e935)">
     <use style="stroke:#000000;stroke-width:2;" x="532.435571" xlink:href="#m30dc1bdd1a" y="377.383543"/>
    </g>
   </g>
   <g id="line2d_10">
    <g clip-path="url(#pe17bc8e935)">
     <use style="stroke:#000000;stroke-width:2;" x="532.435571" xlink:href="#m30dc1bdd1a" y="375.496325"/>
    </g>
   </g>
   <g id="PathCollection_1">
    <path clip-path="url(#pe17bc8e935)" d="M 108.237192 86.300153 
C 109.78401 86.300153 111.267683 85.685595 112.361449 84.591829 
C 113.455215 83.498063 114.069772 82.01439 114.069772 80.467572 
C 114.069772 78.920753 113.455215 77.43708 112.361449 76.343315 
C 111.267683 75.249549 109.78401 74.634991 108.237192 74.634991 
C 106.690373 74.634991 105.2067 75.249549 104.112934 76.343315 
C 103.019169 77.43708 102.404611 78.920753 102.404611 80.467572 
C 102.404611 82.01439 103.019169 83.498063 104.112934 84.591829 
C 105.2067 85.685595 106.690373 86.300153 108.237192 86.300153 
z
" style="fill:none;stroke:#000000;stroke-width:2.5;"/>
   </g>
   <g id="PathCollection_2">
    <path clip-path="url(#pe17bc8e935)" d="M 124.237192 94.761676 
C 125.78401 94.761676 127.267683 94.147118 128.361449 93.053352 
C 129.455215 91.959587 130.069772 90.475914 130.069772 88.929095 
C 130.069772 87.382277 129.455215 85.898604 128.361449 84.804838 
C 127.267683 83.711072 125.78401 83.096514 124.237192 83.096514 
C 122.690373 83.096514 121.2067 83.711072 120.112934 84.804838 
C 119.019169 85.898604 118.404611 87.382277 118.404611 88.929095 
C 118.404611 90.475914 119.019169 91.959587 120.112934 93.053352 
C 121.2067 94.147118 122.690373 94.761676 124.237192 94.761676 
z
" style="fill:none;stroke:#000000;stroke-width:2.5;"/>
   </g>
   <g id="PathCollection_3">
    <path clip-path="url(#pe17bc8e935)" d="M 140.237192 85.802584 
C 141.78401 85.802584 143.267683 85.188026 144.361449 84.09426 
C 145.455215 83.000495 146.069772 81.516822 146.069772 79.970003 
C 146.069772 78.423185 145.455215 76.939512 144.361449 75.845746 
C 143.267683 74.75198 141.78401 74.137422 140.237192 74.137422 
C 138.690373 74.137422 137.2067 74.75198 136.112934 75.845746 
C 135.019169 76.939512 134.404611 78.423185 134.404611 79.970003 
C 134.404611 81.516822 135.019169 83.000495 136.112934 84.09426 
C 137.2067 85.188026 138.690373 85.802584 140.237192 85.802584 
z
" style="fill:none;stroke:#000000;stroke-width:2.5;"/>
   </g>
   <g id="PathCollection_4">
    <path clip-path="url(#pe17bc8e935)" d="M 210.286787 351.719678 
C 211.833605 351.719678 213.317278 351.10512 214.411044 350.011354 
C 215.50481 348.917589 216.119367 347.433916 216.119367 345.887097 
C 216.119367 344.340279 215.50481 342.856606 214.411044 341.76284 
C 213.317278 340.669074 211.833605 340.054516 210.286787 340.054516 
C 208.739968 340.054516 207.256295 340.669074 206.162529 341.76284 
C 205.068763 342.856606 204.454206 344.340279 204.454206 345.887097 
C 204.454206 347.433916 205.068763 348.917589 206.162529 350.011354 
C 207.256295 351.10512 208.739968 351.719678 210.286787 351.719678 
z
" style="fill:none;stroke:#000000;stroke-width:2.5;"/>
   </g>
   <g id="PathCollection_5">
    <path clip-path="url(#pe17bc8e935)" d="M 226.286787 353.853996 
C 227.833605 353.853996 229.317278 353.239439 230.411044 352.145673 
C 231.50481 351.051907 232.119367 349.568234 232.119367 348.021416 
C 232.119367 346.474597 231.50481 344.990924 230.411044 343.897158 
C 229.317278 342.803393 227.833605 342.188835 226.286787 342.188835 
C 224.739968 342.188835 223.256295 342.803393 222.162529 343.897158 
C 221.068763 344.990924 220.454206 346.474597 220.454206 348.021416 
C 220.454206 349.568234 221.068763 351.051907 222.162529 352.145673 
C 223.256295 353.239439 224.739968 353.853996 226.286787 353.853996 
z
" style="fill:none;stroke:#000000;stroke-width:2.5;"/>
   </g>
   <g id="PathCollection_6">
    <path clip-path="url(#pe17bc8e935)" d="M 242.286787 349.300614 
C 243.833605 349.300614 245.317278 348.686056 246.411044 347.592291 
C 247.50481 346.498525 248.119367 345.014852 248.119367 343.468033 
C 248.119367 341.921215 247.50481 340.437542 246.411044 339.343776 
C 245.317278 338.25001 243.833605 337.635453 242.286787 337.635453 
C 240.739968 337.635453 239.256295 338.25001 238.162529 339.343776 
C 237.068763 340.437542 236.454206 341.921215 236.454206 343.468033 
C 236.454206 345.014852 237.068763 346.498525 238.162529 347.592291 
C 239.256295 348.686056 240.739968 349.300614 242.286787 349.300614 
z
" style="fill:none;stroke:#000000;stroke-width:2.5;"/>
   </g>
   <g id="PathCollection_7">
    <path clip-path="url(#pe17bc8e935)" d="M 312.336382 379.00478 
C 313.8832 379.00478 315.366873 378.390222 316.460639 377.296456 
C 317.554405 376.20269 318.168962 374.719017 318.168962 373.172199 
C 318.168962 371.62538 317.554405 370.141707 316.460639 369.047942 
C 315.366873 367.954176 313.8832 367.339618 312.336382 367.339618 
C 310.789563 367.339618 309.30589 367.954176 308.212124 369.047942 
C 307.118358 370.141707 306.503801 371.62538 306.503801 373.172199 
C 306.503801 374.719017 307.118358 376.20269 308.212124 377.296456 
C 309.30589 378.390222 310.789563 379.00478 312.336382 379.00478 
z
" style="fill:none;stroke:#000000;stroke-width:2.5;"/>
   </g>
   <g id="PathCollection_8">
    <path clip-path="url(#pe17bc8e935)" d="M 328.336382 374.040089 
C 329.8832 374.040089 331.366873 373.425532 332.460639 372.331766 
C 333.554405 371.238 334.168962 369.754327 334.168962 368.207508 
C 334.168962 366.66069 333.554405 365.177017 332.460639 364.083251 
C 331.366873 362.989485 329.8832 362.374928 328.336382 362.374928 
C 326.789563 362.374928 325.30589 362.989485 324.212124 364.083251 
C 323.118358 365.177017 322.503801 366.66069 322.503801 368.207508 
C 322.503801 369.754327 323.118358 371.238 324.212124 372.331766 
C 325.30589 373.425532 326.789563 374.040089 328.336382 374.040089 
z
" style="fill:none;stroke:#000000;stroke-width:2.5;"/>
   </g>
   <g id="PathCollection_9">
    <path clip-path="url(#pe17bc8e935)" d="M 344.336382 377.195869 
C 345.8832 377.195869 347.366873 376.581312 348.460639 375.487546 
C 349.554405 374.39378 350.168962 372.910107 350.168962 371.363289 
C 350.168962 369.81647 349.554405 368.332797 348.460639 367.239031 
C 347.366873 366.145266 345.8832 365.530708 344.336382 365.530708 
C 342.789563 365.530708 341.30589 366.145266 340.212124 367.239031 
C 339.118358 368.332797 338.503801 369.81647 338.503801 371.363289 
C 338.503801 372.910107 339.118358 374.39378 340.212124 375.487546 
C 341.30589 376.581312 342.789563 377.195869 344.336382 377.195869 
z
" style="fill:none;stroke:#000000;stroke-width:2.5;"/>
   </g>
   <g id="PathCollection_10">
    <path clip-path="url(#pe17bc8e935)" d="M 414.385976 379.862922 
C 415.932795 379.862922 417.416468 379.248365 418.510234 378.154599 
C 419.604 377.060833 420.218557 375.57716 420.218557 374.030342 
C 420.218557 372.483523 419.604 370.99985 418.510234 369.906084 
C 417.416468 368.812318 415.932795 368.197761 414.385976 368.197761 
C 412.839158 368.197761 411.355485 368.812318 410.261719 369.906084 
C 409.167953 370.99985 408.553396 372.483523 408.553396 374.030342 
C 408.553396 375.57716 409.167953 377.060833 410.261719 378.154599 
C 411.355485 379.248365 412.839158 379.862922 414.385976 379.862922 
z
" style="fill:none;stroke:#000000;stroke-width:2.5;"/>
   </g>
   <g id="PathCollection_11">
    <path clip-path="url(#pe17bc8e935)" d="M 430.385976 381.234936 
C 431.932795 381.234936 433.416468 380.620378 434.510234 379.526612 
C 435.604 378.432847 436.218557 376.949174 436.218557 375.402355 
C 436.218557 373.855537 435.604 372.371864 434.510234 371.278098 
C 433.416468 370.184332 431.932795 369.569774 430.385976 369.569774 
C 428.839158 369.569774 427.355485 370.184332 426.261719 371.278098 
C 425.167953 372.371864 424.553396 373.855537 424.553396 375.402355 
C 424.553396 376.949174 425.167953 378.432847 426.261719 379.526612 
C 427.355485 380.620378 428.839158 381.234936 430.385976 381.234936 
z
" style="fill:none;stroke:#000000;stroke-width:2.5;"/>
   </g>
   <g id="PathCollection_12">
    <path clip-path="url(#pe17bc8e935)" d="M 446.385976 381.153888 
C 447.932795 381.153888 449.416468 380.53933 450.510234 379.445565 
C 451.604 378.351799 452.218557 376.868126 452.218557 375.321307 
C 452.218557 373.774489 451.604 372.290816 450.510234 371.19705 
C 449.416468 370.103284 447.932795 369.488727 446.385976 369.488727 
C 444.839158 369.488727 443.355485 370.103284 442.261719 371.19705 
C 441.167953 372.290816 440.553396 373.774489 440.553396 375.321307 
C 440.553396 376.868126 441.167953 378.351799 442.261719 379.445565 
C 443.355485 380.53933 444.839158 381.153888 446.385976 381.153888 
z
" style="fill:none;stroke:#000000;stroke-width:2.5;"/>
   </g>
   <g id="PathCollection_13">
    <path clip-path="url(#pe17bc8e935)" d="M 516.435571 381.405628 
C 517.98239 381.405628 519.466063 380.79107 520.559829 379.697304 
C 521.653595 378.603539 522.268152 377.119866 522.268152 375.573047 
C 522.268152 374.026229 521.653595 372.542556 520.559829 371.44879 
C 519.466063 370.355024 517.98239 369.740466 516.435571 369.740466 
C 514.888753 369.740466 513.40508 370.355024 512.311314 371.44879 
C 511.217548 372.542556 510.602991 374.026229 510.602991 375.573047 
C 510.602991 377.119866 511.217548 378.603539 512.311314 379.697304 
C 513.40508 380.79107 514.888753 381.405628 516.435571 381.405628 
z
" style="fill:none;stroke:#000000;stroke-width:2.5;"/>
   </g>
   <g id="PathCollection_14">
    <path clip-path="url(#pe17bc8e935)" d="M 532.435571 383.277603 
C 533.98239 383.277603 535.466063 382.663046 536.559829 381.56928 
C 537.653595 380.475514 538.268152 378.991841 538.268152 377.445023 
C 538.268152 375.898204 537.653595 374.414531 536.559829 373.320765 
C 535.466063 372.227 533.98239 371.612442 532.435571 371.612442 
C 530.888753 371.612442 529.40508 372.227 528.311314 373.320765 
C 527.217548 374.414531 526.602991 375.898204 526.602991 377.445023 
C 526.602991 378.991841 527.217548 380.475514 528.311314 381.56928 
C 529.40508 382.663046 530.888753 383.277603 532.435571 383.277603 
z
" style="fill:none;stroke:#000000;stroke-width:2.5;"/>
   </g>
   <g id="PathCollection_15">
    <path clip-path="url(#pe17bc8e935)" d="M 548.435571 382.134313 
C 549.98239 382.134313 551.466063 381.519756 552.559829 380.42599 
C 553.653595 379.332224 554.268152 377.848551 554.268152 376.301733 
C 554.268152 374.754914 553.653595 373.271241 552.559829 372.177475 
C 551.466063 371.083709 549.98239 370.469152 548.435571 370.469152 
C 546.888753 370.469152 545.40508 371.083709 544.311314 372.177475 
C 543.217548 373.271241 542.602991 374.754914 542.602991 376.301733 
C 542.602991 377.848551 543.217548 379.332224 544.311314 380.42599 
C 545.40508 381.519756 546.888753 382.134313 548.435571 382.134313 
z
" style="fill:none;stroke:#000000;stroke-width:2.5;"/>
   </g>
   <g id="matplotlib.axis_1">
    <g id="xtick_1">
     <g id="line2d_11">
      <defs>
       <path d="M 0 0 
L 0 2 
" id="me243893d61" style="stroke:#000000;"/>
      </defs>
      <g>
       <use style="stroke:#000000;" x="124.237192" xlink:href="#me243893d61" y="421.6464"/>
      </g>
     </g>
     <g id="text_1">
      <!-- WT -->
      <defs>
       <path d="M 3.328125 72.90625 
L 13.28125 72.90625 
L 28.609375 11.28125 
L 43.890625 72.90625 
L 54.984375 72.90625 
L 70.3125 11.28125 
L 85.59375 72.90625 
L 95.609375 72.90625 
L 77.296875 0 
L 64.890625 0 
L 49.515625 63.28125 
L 33.984375 0 
L 21.578125 0 
z
" id="DejaVuSans-87"/>
       <path d="M -0.296875 72.90625 
L 61.375 72.90625 
L 61.375 64.59375 
L 35.5 64.59375 
L 35.5 0 
L 25.59375 0 
L 25.59375 64.59375 
L -0.296875 64.59375 
z
" id="DejaVuSans-84"/>
      </defs>
      <g transform="translate(111.440942 439.3039)scale(0.16 -0.16)">
       <use xlink:href="#DejaVuSans-87"/>
       <use x="98.876953" xlink:href="#DejaVuSans-84"/>
      </g>
     </g>
    </g>
    <g id="xtick_2">
     <g id="line2d_12">
      <g>
       <use style="stroke:#000000;" x="226.286787" xlink:href="#me243893d61" y="421.6464"/>
      </g>
     </g>
     <g id="text_2">
      <!-- NOS1 -->
      <defs>
       <path d="M 9.8125 72.90625 
L 23.09375 72.90625 
L 55.421875 11.921875 
L 55.421875 72.90625 
L 64.984375 72.90625 
L 64.984375 0 
L 51.703125 0 
L 19.390625 60.984375 
L 19.390625 0 
L 9.8125 0 
z
" id="DejaVuSans-78"/>
       <path d="M 39.40625 66.21875 
Q 28.65625 66.21875 22.328125 58.203125 
Q 16.015625 50.203125 16.015625 36.375 
Q 16.015625 22.609375 22.328125 14.59375 
Q 28.65625 6.59375 39.40625 6.59375 
Q 50.140625 6.59375 56.421875 14.59375 
Q 62.703125 22.609375 62.703125 36.375 
Q 62.703125 50.203125 56.421875 58.203125 
Q 50.140625 66.21875 39.40625 66.21875 
z
M 39.40625 74.21875 
Q 54.734375 74.21875 63.90625 63.9375 
Q 73.09375 53.65625 73.09375 36.375 
Q 73.09375 19.140625 63.90625 8.859375 
Q 54.734375 -1.421875 39.40625 -1.421875 
Q 24.03125 -1.421875 14.8125 8.828125 
Q 5.609375 19.09375 5.609375 36.375 
Q 5.609375 53.65625 14.8125 63.9375 
Q 24.03125 74.21875 39.40625 74.21875 
z
" id="DejaVuSans-79"/>
       <path d="M 53.515625 70.515625 
L 53.515625 60.890625 
Q 47.90625 63.578125 42.921875 64.890625 
Q 37.9375 66.21875 33.296875 66.21875 
Q 25.25 66.21875 20.875 63.09375 
Q 16.5 59.96875 16.5 54.203125 
Q 16.5 49.359375 19.40625 46.890625 
Q 22.3125 44.4375 30.421875 42.921875 
L 36.375 41.703125 
Q 47.40625 39.59375 52.65625 34.296875 
Q 57.90625 29 57.90625 20.125 
Q 57.90625 9.515625 50.796875 4.046875 
Q 43.703125 -1.421875 29.984375 -1.421875 
Q 24.8125 -1.421875 18.96875 -0.25 
Q 13.140625 0.921875 6.890625 3.21875 
L 6.890625 13.375 
Q 12.890625 10.015625 18.65625 8.296875 
Q 24.421875 6.59375 29.984375 6.59375 
Q 38.421875 6.59375 43.015625 9.90625 
Q 47.609375 13.234375 47.609375 19.390625 
Q 47.609375 24.75 44.3125 27.78125 
Q 41.015625 30.8125 33.5 32.328125 
L 27.484375 33.5 
Q 16.453125 35.6875 11.515625 40.375 
Q 6.59375 45.0625 6.59375 53.421875 
Q 6.59375 63.09375 13.40625 68.65625 
Q 20.21875 74.21875 32.171875 74.21875 
Q 37.3125 74.21875 42.625 73.28125 
Q 47.953125 72.359375 53.515625 70.515625 
z
" id="DejaVuSans-83"/>
       <path d="M 12.40625 8.296875 
L 28.515625 8.296875 
L 28.515625 63.921875 
L 10.984375 60.40625 
L 10.984375 69.390625 
L 28.421875 72.90625 
L 38.28125 72.90625 
L 38.28125 8.296875 
L 54.390625 8.296875 
L 54.390625 0 
L 12.40625 0 
z
" id="DejaVuSans-49"/>
      </defs>
      <g transform="translate(203.835537 439.3039)scale(0.16 -0.16)">
       <use xlink:href="#DejaVuSans-78"/>
       <use x="74.804688" xlink:href="#DejaVuSans-79"/>
       <use x="153.515625" xlink:href="#DejaVuSans-83"/>
       <use x="216.992188" xlink:href="#DejaVuSans-49"/>
      </g>
     </g>
    </g>
    <g id="xtick_3">
     <g id="line2d_13">
      <g>
       <use style="stroke:#000000;" x="328.336382" xlink:href="#me243893d61" y="421.6464"/>
      </g>
     </g>
     <g id="text_3">
      <!-- NOS2 -->
      <defs>
       <path d="M 19.1875 8.296875 
L 53.609375 8.296875 
L 53.609375 0 
L 7.328125 0 
L 7.328125 8.296875 
Q 12.9375 14.109375 22.625 23.890625 
Q 32.328125 33.6875 34.8125 36.53125 
Q 39.546875 41.84375 41.421875 45.53125 
Q 43.3125 49.21875 43.3125 52.78125 
Q 43.3125 58.59375 39.234375 62.25 
Q 35.15625 65.921875 28.609375 65.921875 
Q 23.96875 65.921875 18.8125 64.3125 
Q 13.671875 62.703125 7.8125 59.421875 
L 7.8125 69.390625 
Q 13.765625 71.78125 18.9375 73 
Q 24.125 74.21875 28.421875 74.21875 
Q 39.75 74.21875 46.484375 68.546875 
Q 53.21875 62.890625 53.21875 53.421875 
Q 53.21875 48.921875 51.53125 44.890625 
Q 49.859375 40.875 45.40625 35.40625 
Q 44.1875 33.984375 37.640625 27.21875 
Q 31.109375 20.453125 19.1875 8.296875 
z
" id="DejaVuSans-50"/>
      </defs>
      <g transform="translate(305.885132 439.3039)scale(0.16 -0.16)">
       <use xlink:href="#DejaVuSans-78"/>
       <use x="74.804688" xlink:href="#DejaVuSans-79"/>
       <use x="153.515625" xlink:href="#DejaVuSans-83"/>
       <use x="216.992188" xlink:href="#DejaVuSans-50"/>
      </g>
     </g>
    </g>
    <g id="xtick_4">
     <g id="line2d_14">
      <g>
       <use style="stroke:#000000;" x="430.385976" xlink:href="#me243893d61" y="421.6464"/>
      </g>
     </g>
     <g id="text_4">
      <!-- NOS3 -->
      <defs>
       <path d="M 40.578125 39.3125 
Q 47.65625 37.796875 51.625 33 
Q 55.609375 28.21875 55.609375 21.1875 
Q 55.609375 10.40625 48.1875 4.484375 
Q 40.765625 -1.421875 27.09375 -1.421875 
Q 22.515625 -1.421875 17.65625 -0.515625 
Q 12.796875 0.390625 7.625 2.203125 
L 7.625 11.71875 
Q 11.71875 9.328125 16.59375 8.109375 
Q 21.484375 6.890625 26.8125 6.890625 
Q 36.078125 6.890625 40.9375 10.546875 
Q 45.796875 14.203125 45.796875 21.1875 
Q 45.796875 27.640625 41.28125 31.265625 
Q 36.765625 34.90625 28.71875 34.90625 
L 20.21875 34.90625 
L 20.21875 43.015625 
L 29.109375 43.015625 
Q 36.375 43.015625 40.234375 45.921875 
Q 44.09375 48.828125 44.09375 54.296875 
Q 44.09375 59.90625 40.109375 62.90625 
Q 36.140625 65.921875 28.71875 65.921875 
Q 24.65625 65.921875 20.015625 65.03125 
Q 15.375 64.15625 9.8125 62.3125 
L 9.8125 71.09375 
Q 15.4375 72.65625 20.34375 73.4375 
Q 25.25 74.21875 29.59375 74.21875 
Q 40.828125 74.21875 47.359375 69.109375 
Q 53.90625 64.015625 53.90625 55.328125 
Q 53.90625 49.265625 50.4375 45.09375 
Q 46.96875 40.921875 40.578125 39.3125 
z
" id="DejaVuSans-51"/>
      </defs>
      <g transform="translate(407.934726 439.3039)scale(0.16 -0.16)">
       <use xlink:href="#DejaVuSans-78"/>
       <use x="74.804688" xlink:href="#DejaVuSans-79"/>
       <use x="153.515625" xlink:href="#DejaVuSans-83"/>
       <use x="216.992188" xlink:href="#DejaVuSans-51"/>
      </g>
     </g>
    </g>
    <g id="xtick_5">
     <g id="line2d_15">
      <g>
       <use style="stroke:#000000;" x="532.435571" xlink:href="#me243893d61" y="421.6464"/>
      </g>
     </g>
     <g id="text_5">
      <!-- NOS4 -->
      <defs>
       <path d="M 37.796875 64.3125 
L 12.890625 25.390625 
L 37.796875 25.390625 
z
M 35.203125 72.90625 
L 47.609375 72.90625 
L 47.609375 25.390625 
L 58.015625 25.390625 
L 58.015625 17.1875 
L 47.609375 17.1875 
L 47.609375 0 
L 37.796875 0 
L 37.796875 17.1875 
L 4.890625 17.1875 
L 4.890625 26.703125 
z
" id="DejaVuSans-52"/>
      </defs>
      <g transform="translate(509.984321 439.3039)scale(0.16 -0.16)">
       <use xlink:href="#DejaVuSans-78"/>
       <use x="74.804688" xlink:href="#DejaVuSans-79"/>
       <use x="153.515625" xlink:href="#DejaVuSans-83"/>
       <use x="216.992188" xlink:href="#DejaVuSans-52"/>
      </g>
     </g>
    </g>
    <g id="text_6">
     <!-- RamR variant -->
     <defs>
      <path d="M 44.390625 34.1875 
Q 47.5625 33.109375 50.5625 29.59375 
Q 53.5625 26.078125 56.59375 19.921875 
L 66.609375 0 
L 56 0 
L 46.6875 18.703125 
Q 43.0625 26.03125 39.671875 28.421875 
Q 36.28125 30.8125 30.421875 30.8125 
L 19.671875 30.8125 
L 19.671875 0 
L 9.8125 0 
L 9.8125 72.90625 
L 32.078125 72.90625 
Q 44.578125 72.90625 50.734375 67.671875 
Q 56.890625 62.453125 56.890625 51.90625 
Q 56.890625 45.015625 53.6875 40.46875 
Q 50.484375 35.9375 44.390625 34.1875 
z
M 19.671875 64.796875 
L 19.671875 38.921875 
L 32.078125 38.921875 
Q 39.203125 38.921875 42.84375 42.21875 
Q 46.484375 45.515625 46.484375 51.90625 
Q 46.484375 58.296875 42.84375 61.546875 
Q 39.203125 64.796875 32.078125 64.796875 
z
" id="DejaVuSans-82"/>
      <path d="M 34.28125 27.484375 
Q 23.390625 27.484375 19.1875 25 
Q 14.984375 22.515625 14.984375 16.5 
Q 14.984375 11.71875 18.140625 8.90625 
Q 21.296875 6.109375 26.703125 6.109375 
Q 34.1875 6.109375 38.703125 11.40625 
Q 43.21875 16.703125 43.21875 25.484375 
L 43.21875 27.484375 
z
M 52.203125 31.203125 
L 52.203125 0 
L 43.21875 0 
L 43.21875 8.296875 
Q 40.140625 3.328125 35.546875 0.953125 
Q 30.953125 -1.421875 24.3125 -1.421875 
Q 15.921875 -1.421875 10.953125 3.296875 
Q 6 8.015625 6 15.921875 
Q 6 25.140625 12.171875 29.828125 
Q 18.359375 34.515625 30.609375 34.515625 
L 43.21875 34.515625 
L 43.21875 35.40625 
Q 43.21875 41.609375 39.140625 45 
Q 35.0625 48.390625 27.6875 48.390625 
Q 23 48.390625 18.546875 47.265625 
Q 14.109375 46.140625 10.015625 43.890625 
L 10.015625 52.203125 
Q 14.9375 54.109375 19.578125 55.046875 
Q 24.21875 56 28.609375 56 
Q 40.484375 56 46.34375 49.84375 
Q 52.203125 43.703125 52.203125 31.203125 
z
" id="DejaVuSans-97"/>
      <path d="M 52 44.1875 
Q 55.375 50.25 60.0625 53.125 
Q 64.75 56 71.09375 56 
Q 79.640625 56 84.28125 50.015625 
Q 88.921875 44.046875 88.921875 33.015625 
L 88.921875 0 
L 79.890625 0 
L 79.890625 32.71875 
Q 79.890625 40.578125 77.09375 44.375 
Q 74.3125 48.1875 68.609375 48.1875 
Q 61.625 48.1875 57.5625 43.546875 
Q 53.515625 38.921875 53.515625 30.90625 
L 53.515625 0 
L 44.484375 0 
L 44.484375 32.71875 
Q 44.484375 40.625 41.703125 44.40625 
Q 38.921875 48.1875 33.109375 48.1875 
Q 26.21875 48.1875 22.15625 43.53125 
Q 18.109375 38.875 18.109375 30.90625 
L 18.109375 0 
L 9.078125 0 
L 9.078125 54.6875 
L 18.109375 54.6875 
L 18.109375 46.1875 
Q 21.1875 51.21875 25.484375 53.609375 
Q 29.78125 56 35.6875 56 
Q 41.65625 56 45.828125 52.96875 
Q 50 49.953125 52 44.1875 
z
" id="DejaVuSans-109"/>
      <path id="DejaVuSans-32"/>
      <path d="M 2.984375 54.6875 
L 12.5 54.6875 
L 29.59375 8.796875 
L 46.6875 54.6875 
L 56.203125 54.6875 
L 35.6875 0 
L 23.484375 0 
z
" id="DejaVuSans-118"/>
      <path d="M 41.109375 46.296875 
Q 39.59375 47.171875 37.8125 47.578125 
Q 36.03125 48 33.890625 48 
Q 26.265625 48 22.1875 43.046875 
Q 18.109375 38.09375 18.109375 28.8125 
L 18.109375 0 
L 9.078125 0 
L 9.078125 54.6875 
L 18.109375 54.6875 
L 18.109375 46.1875 
Q 20.953125 51.171875 25.484375 53.578125 
Q 30.03125 56 36.53125 56 
Q 37.453125 56 38.578125 55.875 
Q 39.703125 55.765625 41.0625 55.515625 
z
" id="DejaVuSans-114"/>
      <path d="M 9.421875 54.6875 
L 18.40625 54.6875 
L 18.40625 0 
L 9.421875 0 
z
M 9.421875 75.984375 
L 18.40625 75.984375 
L 18.40625 64.59375 
L 9.421875 64.59375 
z
" id="DejaVuSans-105"/>
      <path d="M 54.890625 33.015625 
L 54.890625 0 
L 45.90625 0 
L 45.90625 32.71875 
Q 45.90625 40.484375 42.875 44.328125 
Q 39.84375 48.1875 33.796875 48.1875 
Q 26.515625 48.1875 22.3125 43.546875 
Q 18.109375 38.921875 18.109375 30.90625 
L 18.109375 0 
L 9.078125 0 
L 9.078125 54.6875 
L 18.109375 54.6875 
L 18.109375 46.1875 
Q 21.34375 51.125 25.703125 53.5625 
Q 30.078125 56 35.796875 56 
Q 45.21875 56 50.046875 50.171875 
Q 54.890625 44.34375 54.890625 33.015625 
z
" id="DejaVuSans-110"/>
      <path d="M 18.3125 70.21875 
L 18.3125 54.6875 
L 36.8125 54.6875 
L 36.8125 47.703125 
L 18.3125 47.703125 
L 18.3125 18.015625 
Q 18.3125 11.328125 20.140625 9.421875 
Q 21.96875 7.515625 27.59375 7.515625 
L 36.8125 7.515625 
L 36.8125 0 
L 27.59375 0 
Q 17.1875 0 13.234375 3.875 
Q 9.28125 7.765625 9.28125 18.015625 
L 9.28125 47.703125 
L 2.6875 47.703125 
L 2.6875 54.6875 
L 9.28125 54.6875 
L 9.28125 70.21875 
z
" id="DejaVuSans-116"/>
     </defs>
     <g transform="translate(270.66375 460.308587)scale(0.18 -0.18)">
      <use xlink:href="#DejaVuSans-82"/>
      <use x="69.451172" xlink:href="#DejaVuSans-97"/>
      <use x="130.730469" xlink:href="#DejaVuSans-109"/>
      <use x="228.142578" xlink:href="#DejaVuSans-82"/>
      <use x="297.625" xlink:href="#DejaVuSans-32"/>
      <use x="329.412109" xlink:href="#DejaVuSans-118"/>
      <use x="388.591797" xlink:href="#DejaVuSans-97"/>
      <use x="449.871094" xlink:href="#DejaVuSans-114"/>
      <use x="490.984375" xlink:href="#DejaVuSans-105"/>
      <use x="518.767578" xlink:href="#DejaVuSans-97"/>
      <use x="580.046875" xlink:href="#DejaVuSans-110"/>
      <use x="643.425781" xlink:href="#DejaVuSans-116"/>
     </g>
    </g>
   </g>
   <g id="matplotlib.axis_2">
    <g id="ytick_1">
     <g id="line2d_16">
      <defs>
       <path d="M 0 0 
L -2 0 
" id="mcb7a94aefd" style="stroke:#000000;"/>
      </defs>
      <g>
       <use style="stroke:#000000;" x="81" xlink:href="#mcb7a94aefd" y="421.6464"/>
      </g>
     </g>
     <g id="text_7">
      <!-- 0.0 -->
      <defs>
       <path d="M 31.78125 66.40625 
Q 24.171875 66.40625 20.328125 58.90625 
Q 16.5 51.421875 16.5 36.375 
Q 16.5 21.390625 20.328125 13.890625 
Q 24.171875 6.390625 31.78125 6.390625 
Q 39.453125 6.390625 43.28125 13.890625 
Q 47.125 21.390625 47.125 36.375 
Q 47.125 51.421875 43.28125 58.90625 
Q 39.453125 66.40625 31.78125 66.40625 
z
M 31.78125 74.21875 
Q 44.046875 74.21875 50.515625 64.515625 
Q 56.984375 54.828125 56.984375 36.375 
Q 56.984375 17.96875 50.515625 8.265625 
Q 44.046875 -1.421875 31.78125 -1.421875 
Q 19.53125 -1.421875 13.0625 8.265625 
Q 6.59375 17.96875 6.59375 36.375 
Q 6.59375 54.828125 13.0625 64.515625 
Q 19.53125 74.21875 31.78125 74.21875 
z
" id="DejaVuSans-48"/>
       <path d="M 10.6875 12.40625 
L 21 12.40625 
L 21 0 
L 10.6875 0 
z
" id="DejaVuSans-46"/>
      </defs>
      <g transform="translate(46.874375 428.484994)scale(0.18 -0.18)">
       <use xlink:href="#DejaVuSans-48"/>
       <use x="63.623047" xlink:href="#DejaVuSans-46"/>
       <use x="95.410156" xlink:href="#DejaVuSans-48"/>
      </g>
     </g>
    </g>
    <g id="ytick_2">
     <g id="line2d_17">
      <g>
       <use style="stroke:#000000;" x="81" xlink:href="#mcb7a94aefd" y="341.288293"/>
      </g>
     </g>
     <g id="text_8">
      <!-- 0.5 -->
      <defs>
       <path d="M 10.796875 72.90625 
L 49.515625 72.90625 
L 49.515625 64.59375 
L 19.828125 64.59375 
L 19.828125 46.734375 
Q 21.96875 47.46875 24.109375 47.828125 
Q 26.265625 48.1875 28.421875 48.1875 
Q 40.625 48.1875 47.75 41.5 
Q 54.890625 34.8125 54.890625 23.390625 
Q 54.890625 11.625 47.5625 5.09375 
Q 40.234375 -1.421875 26.90625 -1.421875 
Q 22.3125 -1.421875 17.546875 -0.640625 
Q 12.796875 0.140625 7.71875 1.703125 
L 7.71875 11.625 
Q 12.109375 9.234375 16.796875 8.0625 
Q 21.484375 6.890625 26.703125 6.890625 
Q 35.15625 6.890625 40.078125 11.328125 
Q 45.015625 15.765625 45.015625 23.390625 
Q 45.015625 31 40.078125 35.4375 
Q 35.15625 39.890625 26.703125 39.890625 
Q 22.75 39.890625 18.8125 39.015625 
Q 14.890625 38.140625 10.796875 36.28125 
z
" id="DejaVuSans-53"/>
      </defs>
      <g transform="translate(46.874375 348.126886)scale(0.18 -0.18)">
       <use xlink:href="#DejaVuSans-48"/>
       <use x="63.623047" xlink:href="#DejaVuSans-46"/>
       <use x="95.410156" xlink:href="#DejaVuSans-53"/>
      </g>
     </g>
    </g>
    <g id="ytick_3">
     <g id="line2d_18">
      <g>
       <use style="stroke:#000000;" x="81" xlink:href="#mcb7a94aefd" y="260.930185"/>
      </g>
     </g>
     <g id="text_9">
      <!-- 1.0 -->
      <g transform="translate(46.874375 267.768779)scale(0.18 -0.18)">
       <use xlink:href="#DejaVuSans-49"/>
       <use x="63.623047" xlink:href="#DejaVuSans-46"/>
       <use x="95.410156" xlink:href="#DejaVuSans-48"/>
      </g>
     </g>
    </g>
    <g id="ytick_4">
     <g id="line2d_19">
      <g>
       <use style="stroke:#000000;" x="81" xlink:href="#mcb7a94aefd" y="180.572078"/>
      </g>
     </g>
     <g id="text_10">
      <!-- 1.5 -->
      <g transform="translate(46.874375 187.410672)scale(0.18 -0.18)">
       <use xlink:href="#DejaVuSans-49"/>
       <use x="63.623047" xlink:href="#DejaVuSans-46"/>
       <use x="95.410156" xlink:href="#DejaVuSans-53"/>
      </g>
     </g>
    </g>
    <g id="ytick_5">
     <g id="line2d_20">
      <g>
       <use style="stroke:#000000;" x="81" xlink:href="#mcb7a94aefd" y="100.21397"/>
      </g>
     </g>
     <g id="text_11">
      <!-- 2.0 -->
      <g transform="translate(46.874375 107.052564)scale(0.18 -0.18)">
       <use xlink:href="#DejaVuSans-50"/>
       <use x="63.623047" xlink:href="#DejaVuSans-46"/>
       <use x="95.410156" xlink:href="#DejaVuSans-48"/>
      </g>
     </g>
    </g>
    <g id="text_12">
     <!-- $(RFU/OD) \times 10^3$ -->
     <defs>
      <path d="M 31 75.875 
Q 24.46875 64.65625 21.28125 53.65625 
Q 18.109375 42.671875 18.109375 31.390625 
Q 18.109375 20.125 21.3125 9.0625 
Q 24.515625 -2 31 -13.1875 
L 23.1875 -13.1875 
Q 15.875 -1.703125 12.234375 9.375 
Q 8.59375 20.453125 8.59375 31.390625 
Q 8.59375 42.28125 12.203125 53.3125 
Q 15.828125 64.359375 23.1875 75.875 
z
" id="DejaVuSans-40"/>
      <path d="M 25.203125 64.796875 
L 20.21875 38.921875 
L 32.90625 38.921875 
Q 40.375 38.921875 44.984375 43.046875 
Q 49.609375 47.171875 49.609375 53.8125 
Q 49.609375 59.125 46.5 61.953125 
Q 43.40625 64.796875 37.59375 64.796875 
z
M 43.3125 35.015625 
Q 46.4375 34.28125 48.515625 31.390625 
Q 50.59375 28.515625 53.328125 19.921875 
L 59.515625 0 
L 49.125 0 
L 43.40625 18.703125 
Q 41.21875 25.921875 38.328125 28.359375 
Q 35.453125 30.8125 29.5 30.8125 
L 18.609375 30.8125 
L 12.59375 0 
L 2.6875 0 
L 16.890625 72.90625 
L 39.109375 72.90625 
Q 49.21875 72.90625 54.609375 68.328125 
Q 60.015625 63.765625 60.015625 55.171875 
Q 60.015625 47.5625 55.421875 41.984375 
Q 50.828125 36.421875 43.3125 35.015625 
z
" id="DejaVuSans-Oblique-82"/>
      <path d="M 16.890625 72.90625 
L 58.6875 72.90625 
L 57.078125 64.59375 
L 25.09375 64.59375 
L 20.90625 43.109375 
L 49.8125 43.109375 
L 48.1875 34.8125 
L 19.28125 34.8125 
L 12.5 0 
L 2.6875 0 
z
" id="DejaVuSans-Oblique-70"/>
      <path d="M 15.484375 72.90625 
L 25.390625 72.90625 
L 16.796875 28.609375 
Q 16.265625 25.640625 16.046875 23.703125 
Q 15.828125 21.78125 15.828125 20.3125 
Q 15.828125 13.578125 19.578125 10.078125 
Q 23.34375 6.59375 30.609375 6.59375 
Q 40.046875 6.59375 45.28125 11.765625 
Q 50.53125 16.9375 52.78125 28.609375 
L 61.375 72.90625 
L 71.296875 72.90625 
L 62.5 27.390625 
Q 59.625 12.640625 51.5625 5.609375 
Q 43.5 -1.421875 29.5 -1.421875 
Q 18.5625 -1.421875 12.1875 4.078125 
Q 5.8125 9.578125 5.8125 19 
Q 5.8125 20.703125 6.046875 22.828125 
Q 6.296875 24.953125 6.78125 27.390625 
z
" id="DejaVuSans-Oblique-85"/>
      <path d="M 25.390625 72.90625 
L 33.6875 72.90625 
L 8.296875 -9.28125 
L 0 -9.28125 
z
" id="DejaVuSans-47"/>
      <path d="M 45.609375 66.21875 
Q 37.5 66.21875 31.296875 62.28125 
Q 25.09375 58.34375 20.515625 50.296875 
Q 17.578125 45.171875 16.03125 39.40625 
Q 14.5 33.640625 14.5 27.78125 
Q 14.5 17.625 19.359375 12.109375 
Q 24.21875 6.59375 33.109375 6.59375 
Q 41.109375 6.59375 47.375 10.5625 
Q 53.65625 14.546875 58.109375 22.40625 
Q 61.078125 27.6875 62.640625 33.46875 
Q 64.203125 39.265625 64.203125 45.015625 
Q 64.203125 55.125 59.3125 60.671875 
Q 54.4375 66.21875 45.609375 66.21875 
z
M 32.8125 -1.421875 
Q 19.390625 -1.421875 11.6875 6.53125 
Q 4 14.5 4 28.328125 
Q 4 36.234375 7 44.484375 
Q 10.015625 52.734375 15.28125 59.1875 
Q 21.484375 66.75 29.09375 70.484375 
Q 36.71875 74.21875 45.90625 74.21875 
Q 59.28125 74.21875 66.984375 66.328125 
Q 74.703125 58.453125 74.703125 44.828125 
Q 74.703125 36.421875 71.765625 28.3125 
Q 68.84375 20.21875 63.375 13.625 
Q 57.125 6 49.578125 2.28125 
Q 42.046875 -1.421875 32.8125 -1.421875 
z
" id="DejaVuSans-Oblique-79"/>
      <path d="M 16.890625 72.90625 
L 38.09375 72.90625 
Q 54.984375 72.90625 63.59375 65.75 
Q 72.21875 58.59375 72.21875 44.484375 
Q 72.21875 35.15625 68.9375 26.53125 
Q 65.671875 17.921875 59.90625 12.015625 
Q 54.109375 5.953125 45.171875 2.96875 
Q 36.234375 0 24.03125 0 
L 2.6875 0 
z
M 25.203125 64.796875 
L 14.203125 8.109375 
L 27.09375 8.109375 
Q 43.65625 8.109375 52.734375 17.625 
Q 61.8125 27.15625 61.8125 44.484375 
Q 61.8125 54.984375 55.953125 59.890625 
Q 50.09375 64.796875 37.59375 64.796875 
z
" id="DejaVuSans-Oblique-68"/>
      <path d="M 8.015625 75.875 
L 15.828125 75.875 
Q 23.140625 64.359375 26.78125 53.3125 
Q 30.421875 42.28125 30.421875 31.390625 
Q 30.421875 20.453125 26.78125 9.375 
Q 23.140625 -1.703125 15.828125 -13.1875 
L 8.015625 -13.1875 
Q 14.5 -2 17.703125 9.0625 
Q 20.90625 20.125 20.90625 31.390625 
Q 20.90625 42.671875 17.703125 53.65625 
Q 14.5 64.65625 8.015625 75.875 
z
" id="DejaVuSans-41"/>
      <path d="M 70.125 53.71875 
L 47.796875 31.296875 
L 70.125 8.984375 
L 64.3125 3.078125 
L 41.890625 25.484375 
L 19.484375 3.078125 
L 13.71875 8.984375 
L 35.984375 31.296875 
L 13.71875 53.71875 
L 19.484375 59.625 
L 41.890625 37.203125 
L 64.3125 59.625 
z
" id="DejaVuSans-215"/>
     </defs>
     <g transform="translate(39.130938 308.1888)rotate(-90)scale(0.18 -0.18)">
      <use transform="translate(0 0.765625)" xlink:href="#DejaVuSans-40"/>
      <use transform="translate(39.013672 0.765625)" xlink:href="#DejaVuSans-Oblique-82"/>
      <use transform="translate(108.496094 0.765625)" xlink:href="#DejaVuSans-Oblique-70"/>
      <use transform="translate(166.015625 0.765625)" xlink:href="#DejaVuSans-Oblique-85"/>
      <use transform="translate(239.208984 0.765625)" xlink:href="#DejaVuSans-47"/>
      <use transform="translate(272.900391 0.765625)" xlink:href="#DejaVuSans-Oblique-79"/>
      <use transform="translate(351.611328 0.765625)" xlink:href="#DejaVuSans-Oblique-68"/>
      <use transform="translate(428.613281 0.765625)" xlink:href="#DejaVuSans-41"/>
      <use transform="translate(487.109375 0.765625)" xlink:href="#DejaVuSans-215"/>
      <use transform="translate(590.380859 0.765625)" xlink:href="#DejaVuSans-49"/>
      <use transform="translate(654.003906 0.765625)" xlink:href="#DejaVuSans-48"/>
      <use transform="translate(718.583984 39.046875)scale(0.7)" xlink:href="#DejaVuSans-51"/>
     </g>
    </g>
   </g>
   <g id="patch_8">
    <path d="M 81 421.6464 
L 81 56.8512 
" style="fill:none;stroke:#000000;stroke-linecap:square;stroke-linejoin:miter;stroke-width:0.8;"/>
   </g>
   <g id="patch_9">
    <path d="M 81 421.6464 
L 583.2 421.6464 
" style="fill:none;stroke:#000000;stroke-linecap:square;stroke-linejoin:miter;stroke-width:0.8;"/>
   </g>
   <g id="text_13">
    <!-- Background signal of NOS variants -->
    <defs>
     <path d="M 19.671875 34.8125 
L 19.671875 8.109375 
L 35.5 8.109375 
Q 43.453125 8.109375 47.28125 11.40625 
Q 51.125 14.703125 51.125 21.484375 
Q 51.125 28.328125 47.28125 31.5625 
Q 43.453125 34.8125 35.5 34.8125 
z
M 19.671875 64.796875 
L 19.671875 42.828125 
L 34.28125 42.828125 
Q 41.5 42.828125 45.03125 45.53125 
Q 48.578125 48.25 48.578125 53.8125 
Q 48.578125 59.328125 45.03125 62.0625 
Q 41.5 64.796875 34.28125 64.796875 
z
M 9.8125 72.90625 
L 35.015625 72.90625 
Q 46.296875 72.90625 52.390625 68.21875 
Q 58.5 63.53125 58.5 54.890625 
Q 58.5 48.1875 55.375 44.234375 
Q 52.25 40.28125 46.1875 39.3125 
Q 53.46875 37.75 57.5 32.78125 
Q 61.53125 27.828125 61.53125 20.40625 
Q 61.53125 10.640625 54.890625 5.3125 
Q 48.25 0 35.984375 0 
L 9.8125 0 
z
" id="DejaVuSans-66"/>
     <path d="M 48.78125 52.59375 
L 48.78125 44.1875 
Q 44.96875 46.296875 41.140625 47.34375 
Q 37.3125 48.390625 33.40625 48.390625 
Q 24.65625 48.390625 19.8125 42.84375 
Q 14.984375 37.3125 14.984375 27.296875 
Q 14.984375 17.28125 19.8125 11.734375 
Q 24.65625 6.203125 33.40625 6.203125 
Q 37.3125 6.203125 41.140625 7.25 
Q 44.96875 8.296875 48.78125 10.40625 
L 48.78125 2.09375 
Q 45.015625 0.34375 40.984375 -0.53125 
Q 36.96875 -1.421875 32.421875 -1.421875 
Q 20.0625 -1.421875 12.78125 6.34375 
Q 5.515625 14.109375 5.515625 27.296875 
Q 5.515625 40.671875 12.859375 48.328125 
Q 20.21875 56 33.015625 56 
Q 37.15625 56 41.109375 55.140625 
Q 45.0625 54.296875 48.78125 52.59375 
z
" id="DejaVuSans-99"/>
     <path d="M 9.078125 75.984375 
L 18.109375 75.984375 
L 18.109375 31.109375 
L 44.921875 54.6875 
L 56.390625 54.6875 
L 27.390625 29.109375 
L 57.625 0 
L 45.90625 0 
L 18.109375 26.703125 
L 18.109375 0 
L 9.078125 0 
z
" id="DejaVuSans-107"/>
     <path d="M 45.40625 27.984375 
Q 45.40625 37.75 41.375 43.109375 
Q 37.359375 48.484375 30.078125 48.484375 
Q 22.859375 48.484375 18.828125 43.109375 
Q 14.796875 37.75 14.796875 27.984375 
Q 14.796875 18.265625 18.828125 12.890625 
Q 22.859375 7.515625 30.078125 7.515625 
Q 37.359375 7.515625 41.375 12.890625 
Q 45.40625 18.265625 45.40625 27.984375 
z
M 54.390625 6.78125 
Q 54.390625 -7.171875 48.1875 -13.984375 
Q 42 -20.796875 29.203125 -20.796875 
Q 24.46875 -20.796875 20.265625 -20.09375 
Q 16.0625 -19.390625 12.109375 -17.921875 
L 12.109375 -9.1875 
Q 16.0625 -11.328125 19.921875 -12.34375 
Q 23.78125 -13.375 27.78125 -13.375 
Q 36.625 -13.375 41.015625 -8.765625 
Q 45.40625 -4.15625 45.40625 5.171875 
L 45.40625 9.625 
Q 42.625 4.78125 38.28125 2.390625 
Q 33.9375 0 27.875 0 
Q 17.828125 0 11.671875 7.65625 
Q 5.515625 15.328125 5.515625 27.984375 
Q 5.515625 40.671875 11.671875 48.328125 
Q 17.828125 56 27.875 56 
Q 33.9375 56 38.28125 53.609375 
Q 42.625 51.21875 45.40625 46.390625 
L 45.40625 54.6875 
L 54.390625 54.6875 
z
" id="DejaVuSans-103"/>
     <path d="M 30.609375 48.390625 
Q 23.390625 48.390625 19.1875 42.75 
Q 14.984375 37.109375 14.984375 27.296875 
Q 14.984375 17.484375 19.15625 11.84375 
Q 23.34375 6.203125 30.609375 6.203125 
Q 37.796875 6.203125 41.984375 11.859375 
Q 46.1875 17.53125 46.1875 27.296875 
Q 46.1875 37.015625 41.984375 42.703125 
Q 37.796875 48.390625 30.609375 48.390625 
z
M 30.609375 56 
Q 42.328125 56 49.015625 48.375 
Q 55.71875 40.765625 55.71875 27.296875 
Q 55.71875 13.875 49.015625 6.21875 
Q 42.328125 -1.421875 30.609375 -1.421875 
Q 18.84375 -1.421875 12.171875 6.21875 
Q 5.515625 13.875 5.515625 27.296875 
Q 5.515625 40.765625 12.171875 48.375 
Q 18.84375 56 30.609375 56 
z
" id="DejaVuSans-111"/>
     <path d="M 8.5 21.578125 
L 8.5 54.6875 
L 17.484375 54.6875 
L 17.484375 21.921875 
Q 17.484375 14.15625 20.5 10.265625 
Q 23.53125 6.390625 29.59375 6.390625 
Q 36.859375 6.390625 41.078125 11.03125 
Q 45.3125 15.671875 45.3125 23.6875 
L 45.3125 54.6875 
L 54.296875 54.6875 
L 54.296875 0 
L 45.3125 0 
L 45.3125 8.40625 
Q 42.046875 3.421875 37.71875 1 
Q 33.40625 -1.421875 27.6875 -1.421875 
Q 18.265625 -1.421875 13.375 4.4375 
Q 8.5 10.296875 8.5 21.578125 
z
M 31.109375 56 
z
" id="DejaVuSans-117"/>
     <path d="M 45.40625 46.390625 
L 45.40625 75.984375 
L 54.390625 75.984375 
L 54.390625 0 
L 45.40625 0 
L 45.40625 8.203125 
Q 42.578125 3.328125 38.25 0.953125 
Q 33.9375 -1.421875 27.875 -1.421875 
Q 17.96875 -1.421875 11.734375 6.484375 
Q 5.515625 14.40625 5.515625 27.296875 
Q 5.515625 40.1875 11.734375 48.09375 
Q 17.96875 56 27.875 56 
Q 33.9375 56 38.25 53.625 
Q 42.578125 51.265625 45.40625 46.390625 
z
M 14.796875 27.296875 
Q 14.796875 17.390625 18.875 11.75 
Q 22.953125 6.109375 30.078125 6.109375 
Q 37.203125 6.109375 41.296875 11.75 
Q 45.40625 17.390625 45.40625 27.296875 
Q 45.40625 37.203125 41.296875 42.84375 
Q 37.203125 48.484375 30.078125 48.484375 
Q 22.953125 48.484375 18.875 42.84375 
Q 14.796875 37.203125 14.796875 27.296875 
z
" id="DejaVuSans-100"/>
     <path d="M 44.28125 53.078125 
L 44.28125 44.578125 
Q 40.484375 46.53125 36.375 47.5 
Q 32.28125 48.484375 27.875 48.484375 
Q 21.1875 48.484375 17.84375 46.4375 
Q 14.5 44.390625 14.5 40.28125 
Q 14.5 37.15625 16.890625 35.375 
Q 19.28125 33.59375 26.515625 31.984375 
L 29.59375 31.296875 
Q 39.15625 29.25 43.1875 25.515625 
Q 47.21875 21.78125 47.21875 15.09375 
Q 47.21875 7.46875 41.1875 3.015625 
Q 35.15625 -1.421875 24.609375 -1.421875 
Q 20.21875 -1.421875 15.453125 -0.5625 
Q 10.6875 0.296875 5.421875 2 
L 5.421875 11.28125 
Q 10.40625 8.6875 15.234375 7.390625 
Q 20.0625 6.109375 24.8125 6.109375 
Q 31.15625 6.109375 34.5625 8.28125 
Q 37.984375 10.453125 37.984375 14.40625 
Q 37.984375 18.0625 35.515625 20.015625 
Q 33.0625 21.96875 24.703125 23.78125 
L 21.578125 24.515625 
Q 13.234375 26.265625 9.515625 29.90625 
Q 5.8125 33.546875 5.8125 39.890625 
Q 5.8125 47.609375 11.28125 51.796875 
Q 16.75 56 26.8125 56 
Q 31.78125 56 36.171875 55.265625 
Q 40.578125 54.546875 44.28125 53.078125 
z
" id="DejaVuSans-115"/>
     <path d="M 9.421875 75.984375 
L 18.40625 75.984375 
L 18.40625 0 
L 9.421875 0 
z
" id="DejaVuSans-108"/>
     <path d="M 37.109375 75.984375 
L 37.109375 68.5 
L 28.515625 68.5 
Q 23.6875 68.5 21.796875 66.546875 
Q 19.921875 64.59375 19.921875 59.515625 
L 19.921875 54.6875 
L 34.71875 54.6875 
L 34.71875 47.703125 
L 19.921875 47.703125 
L 19.921875 0 
L 10.890625 0 
L 10.890625 47.703125 
L 2.296875 47.703125 
L 2.296875 54.6875 
L 10.890625 54.6875 
L 10.890625 58.5 
Q 10.890625 67.625 15.140625 71.796875 
Q 19.390625 75.984375 28.609375 75.984375 
z
" id="DejaVuSans-102"/>
    </defs>
    <g transform="translate(140.655313 50.8512)scale(0.22 -0.22)">
     <use xlink:href="#DejaVuSans-66"/>
     <use x="68.603516" xlink:href="#DejaVuSans-97"/>
     <use x="129.882812" xlink:href="#DejaVuSans-99"/>
     <use x="184.863281" xlink:href="#DejaVuSans-107"/>
     <use x="242.773438" xlink:href="#DejaVuSans-103"/>
     <use x="306.25" xlink:href="#DejaVuSans-114"/>
     <use x="347.332031" xlink:href="#DejaVuSans-111"/>
     <use x="408.513672" xlink:href="#DejaVuSans-117"/>
     <use x="471.892578" xlink:href="#DejaVuSans-110"/>
     <use x="535.271484" xlink:href="#DejaVuSans-100"/>
     <use x="598.748047" xlink:href="#DejaVuSans-32"/>
     <use x="630.535156" xlink:href="#DejaVuSans-115"/>
     <use x="682.634766" xlink:href="#DejaVuSans-105"/>
     <use x="710.417969" xlink:href="#DejaVuSans-103"/>
     <use x="773.894531" xlink:href="#DejaVuSans-110"/>
     <use x="837.273438" xlink:href="#DejaVuSans-97"/>
     <use x="898.552734" xlink:href="#DejaVuSans-108"/>
     <use x="926.335938" xlink:href="#DejaVuSans-32"/>
     <use x="958.123047" xlink:href="#DejaVuSans-111"/>
     <use x="1019.304688" xlink:href="#DejaVuSans-102"/>
     <use x="1054.509766" xlink:href="#DejaVuSans-32"/>
     <use x="1086.296875" xlink:href="#DejaVuSans-78"/>
     <use x="1161.101562" xlink:href="#DejaVuSans-79"/>
     <use x="1239.8125" xlink:href="#DejaVuSans-83"/>
     <use x="1303.289062" xlink:href="#DejaVuSans-32"/>
     <use x="1335.076172" xlink:href="#DejaVuSans-118"/>
     <use x="1394.255859" xlink:href="#DejaVuSans-97"/>
     <use x="1455.535156" xlink:href="#DejaVuSans-114"/>
     <use x="1496.648438" xlink:href="#DejaVuSans-105"/>
     <use x="1524.431641" xlink:href="#DejaVuSans-97"/>
     <use x="1585.710938" xlink:href="#DejaVuSans-110"/>
     <use x="1649.089844" xlink:href="#DejaVuSans-116"/>
     <use x="1688.298828" xlink:href="#DejaVuSans-115"/>
    </g>
   </g>
  </g>
 </g>
 <defs>
  <clipPath id="pe17bc8e935">
   <rect height="364.7952" width="502.2" x="81" y="56.8512"/>
  </clipPath>
 </defs>
</svg>
