<?xml version="1.0" encoding="utf-8" standalone="no"?>
<!DOCTYPE svg PUBLIC "-//W3C//DTD SVG 1.1//EN"
  "http://www.w3.org/Graphics/SVG/1.1/DTD/svg11.dtd">
<!-- Created with matplotlib (https://matplotlib.org/) -->
<svg height="473.76pt" version="1.1" viewBox="0 0 742.32 473.76" width="742.32pt" xmlns="http://www.w3.org/2000/svg" xmlns:xlink="http://www.w3.org/1999/xlink">
 <defs>
  <style type="text/css">
*{stroke-linecap:butt;stroke-linejoin:round;}
  </style>
 </defs>
 <g id="figure_1">
  <g id="patch_1">
   <path d="M 0 473.76 
L 742.32 473.76 
L 742.32 0 
L 0 0 
z
" style="fill:#ffffff;"/>
  </g>
  <g id="axes_1">
   <g id="patch_2">
    <path d="M 92.79 389.16 
L 668.088 389.16 
L 668.088 30.456 
L 92.79 30.456 
z
" style="fill:#ffffff;"/>
   </g>
   <g id="patch_3">
    <path clip-path="url(#p2bf915be07)" d="M 118.939909 389.16 
L 146.832648 389.16 
L 146.832648 367.458426 
L 118.939909 367.458426 
z
" style="fill:#7d7d7d;stroke:#000000;stroke-linejoin:miter;stroke-width:4;"/>
   </g>
   <g id="patch_4">
    <path clip-path="url(#p2bf915be07)" d="M 188.671757 389.16 
L 216.564497 389.16 
L 216.564497 167.290815 
L 188.671757 167.290815 
z
" style="fill:#ff1c2f;stroke:#000000;stroke-linejoin:miter;stroke-width:4;"/>
   </g>
   <g id="patch_5">
    <path clip-path="url(#p2bf915be07)" d="M 258.403606 389.16 
L 286.296345 389.16 
L 286.296345 363.302642 
L 258.403606 363.302642 
z
" style="fill:#ff338f;stroke:#000000;stroke-linejoin:miter;stroke-width:4;"/>
   </g>
   <g id="patch_6">
    <path clip-path="url(#p2bf915be07)" d="M 328.135454 389.16 
L 356.028194 389.16 
L 356.028194 321.727953 
L 328.135454 321.727953 
z
" style="fill:#ce00e0;stroke:#000000;stroke-linejoin:miter;stroke-width:4;"/>
   </g>
   <g id="patch_7">
    <path clip-path="url(#p2bf915be07)" d="M 397.867303 389.16 
L 425.760042 389.16 
L 425.760042 345.660999 
L 397.867303 345.660999 
z
" style="fill:#a200ff;stroke:#000000;stroke-linejoin:miter;stroke-width:4;"/>
   </g>
   <g id="patch_8">
    <path clip-path="url(#p2bf915be07)" d="M 467.599151 389.16 
L 495.49189 389.16 
L 495.49189 54.349411 
L 467.599151 54.349411 
z
" style="fill:#5242ff;stroke:#000000;stroke-linejoin:miter;stroke-width:4;"/>
   </g>
   <g id="patch_9">
    <path clip-path="url(#p2bf915be07)" d="M 537.330999 389.16 
L 565.223739 389.16 
L 565.223739 347.447824 
L 537.330999 347.447824 
z
" style="fill:#42a1ff;stroke:#000000;stroke-linejoin:miter;stroke-width:4;"/>
   </g>
   <g id="patch_10">
    <path clip-path="url(#p2bf915be07)" d="M 607.062848 389.16 
L 634.955587 389.16 
L 634.955587 367.392311 
L 607.062848 367.392311 
z
" style="fill:#02cfc1;stroke:#000000;stroke-linejoin:miter;stroke-width:4;"/>
   </g>
   <g id="LineCollection_1">
    <path clip-path="url(#p2bf915be07)" d="M 132.886279 367.680993 
L 132.886279 367.235858 
" style="fill:none;stroke:#000000;stroke-width:2;"/>
   </g>
   <g id="LineCollection_2">
    <path clip-path="url(#p2bf915be07)" d="M 202.618127 175.825772 
L 202.618127 158.755857 
" style="fill:none;stroke:#000000;stroke-width:2;"/>
   </g>
   <g id="LineCollection_3">
    <path clip-path="url(#p2bf915be07)" d="M 272.349976 364.292824 
L 272.349976 362.31246 
" style="fill:none;stroke:#000000;stroke-width:2;"/>
   </g>
   <g id="LineCollection_4">
    <path clip-path="url(#p2bf915be07)" d="M 342.081824 323.755026 
L 342.081824 319.70088 
" style="fill:none;stroke:#000000;stroke-width:2;"/>
   </g>
   <g id="LineCollection_5">
    <path clip-path="url(#p2bf915be07)" d="M 411.813672 348.962878 
L 411.813672 342.359119 
" style="fill:none;stroke:#000000;stroke-width:2;"/>
   </g>
   <g id="LineCollection_6">
    <path clip-path="url(#p2bf915be07)" d="M 481.545521 56.681003 
L 481.545521 52.017819 
" style="fill:none;stroke:#000000;stroke-width:2;"/>
   </g>
   <g id="LineCollection_7">
    <path clip-path="url(#p2bf915be07)" d="M 551.277369 348.357683 
L 551.277369 346.537965 
" style="fill:none;stroke:#000000;stroke-width:2;"/>
   </g>
   <g id="LineCollection_8">
    <path clip-path="url(#p2bf915be07)" d="M 621.009217 367.875382 
L 621.009217 366.90924 
" style="fill:none;stroke:#000000;stroke-width:2;"/>
   </g>
   <g id="line2d_1">
    <defs>
     <path d="M 5 0 
L -5 -0 
" id="md7cf692e87" style="stroke:#000000;stroke-width:2;"/>
    </defs>
    <g clip-path="url(#p2bf915be07)">
     <use style="stroke:#000000;stroke-width:2;" x="132.886279" xlink:href="#md7cf692e87" y="367.680993"/>
    </g>
   </g>
   <g id="line2d_2">
    <g clip-path="url(#p2bf915be07)">
     <use style="stroke:#000000;stroke-width:2;" x="132.886279" xlink:href="#md7cf692e87" y="367.235858"/>
    </g>
   </g>
   <g id="line2d_3">
    <g clip-path="url(#p2bf915be07)">
     <use style="stroke:#000000;stroke-width:2;" x="202.618127" xlink:href="#md7cf692e87" y="175.825772"/>
    </g>
   </g>
   <g id="line2d_4">
    <g clip-path="url(#p2bf915be07)">
     <use style="stroke:#000000;stroke-width:2;" x="202.618127" xlink:href="#md7cf692e87" y="158.755857"/>
    </g>
   </g>
   <g id="line2d_5">
    <g clip-path="url(#p2bf915be07)">
     <use style="stroke:#000000;stroke-width:2;" x="272.349976" xlink:href="#md7cf692e87" y="364.292824"/>
    </g>
   </g>
   <g id="line2d_6">
    <g clip-path="url(#p2bf915be07)">
     <use style="stroke:#000000;stroke-width:2;" x="272.349976" xlink:href="#md7cf692e87" y="362.31246"/>
    </g>
   </g>
   <g id="line2d_7">
    <g clip-path="url(#p2bf915be07)">
     <use style="stroke:#000000;stroke-width:2;" x="342.081824" xlink:href="#md7cf692e87" y="323.755026"/>
    </g>
   </g>
   <g id="line2d_8">
    <g clip-path="url(#p2bf915be07)">
     <use style="stroke:#000000;stroke-width:2;" x="342.081824" xlink:href="#md7cf692e87" y="319.70088"/>
    </g>
   </g>
   <g id="line2d_9">
    <g clip-path="url(#p2bf915be07)">
     <use style="stroke:#000000;stroke-width:2;" x="411.813672" xlink:href="#md7cf692e87" y="348.962878"/>
    </g>
   </g>
   <g id="line2d_10">
    <g clip-path="url(#p2bf915be07)">
     <use style="stroke:#000000;stroke-width:2;" x="411.813672" xlink:href="#md7cf692e87" y="342.359119"/>
    </g>
   </g>
   <g id="line2d_11">
    <g clip-path="url(#p2bf915be07)">
     <use style="stroke:#000000;stroke-width:2;" x="481.545521" xlink:href="#md7cf692e87" y="56.681003"/>
    </g>
   </g>
   <g id="line2d_12">
    <g clip-path="url(#p2bf915be07)">
     <use style="stroke:#000000;stroke-width:2;" x="481.545521" xlink:href="#md7cf692e87" y="52.017819"/>
    </g>
   </g>
   <g id="line2d_13">
    <g clip-path="url(#p2bf915be07)">
     <use style="stroke:#000000;stroke-width:2;" x="551.277369" xlink:href="#md7cf692e87" y="348.357683"/>
    </g>
   </g>
   <g id="line2d_14">
    <g clip-path="url(#p2bf915be07)">
     <use style="stroke:#000000;stroke-width:2;" x="551.277369" xlink:href="#md7cf692e87" y="346.537965"/>
    </g>
   </g>
   <g id="line2d_15">
    <g clip-path="url(#p2bf915be07)">
     <use style="stroke:#000000;stroke-width:2;" x="621.009217" xlink:href="#md7cf692e87" y="367.875382"/>
    </g>
   </g>
   <g id="line2d_16">
    <g clip-path="url(#p2bf915be07)">
     <use style="stroke:#000000;stroke-width:2;" x="621.009217" xlink:href="#md7cf692e87" y="366.90924"/>
    </g>
   </g>
   <g id="PathCollection_1">
    <path clip-path="url(#p2bf915be07)" d="M 122.886279 372.000722 
C 124.053001 372.000722 125.172094 371.537178 125.997091 370.712181 
C 126.822088 369.887184 127.285631 368.768091 127.285631 367.601369 
C 127.285631 366.434648 126.822088 365.315554 125.997091 364.490557 
C 125.172094 363.66556 124.053001 363.202017 122.886279 363.202017 
C 121.719557 363.202017 120.600464 363.66556 119.775467 364.490557 
C 118.95047 365.315554 118.486926 366.434648 118.486926 367.601369 
C 118.486926 368.768091 118.95047 369.887184 119.775467 370.712181 
C 120.600464 371.537178 121.719557 372.000722 122.886279 372.000722 
z
" style="fill:none;stroke:#000000;stroke-width:2.5;"/>
   </g>
   <g id="PathCollection_2">
    <path clip-path="url(#p2bf915be07)" d="M 132.886279 371.971269 
C 134.053001 371.971269 135.172094 371.507726 135.997091 370.682729 
C 136.822088 369.857732 137.285631 368.738639 137.285631 367.571917 
C 137.285631 366.405195 136.822088 365.286102 135.997091 364.461105 
C 135.172094 363.636108 134.053001 363.172564 132.886279 363.172564 
C 131.719557 363.172564 130.600464 363.636108 129.775467 364.461105 
C 128.95047 365.286102 128.486926 366.405195 128.486926 367.571917 
C 128.486926 368.738639 128.95047 369.857732 129.775467 370.682729 
C 130.600464 371.507726 131.719557 371.971269 132.886279 371.971269 
z
" style="fill:none;stroke:#000000;stroke-width:2.5;"/>
   </g>
   <g id="PathCollection_3">
    <path clip-path="url(#p2bf915be07)" d="M 142.886279 371.601343 
C 144.053001 371.601343 145.172094 371.137799 145.997091 370.312802 
C 146.822088 369.487805 147.285631 368.368712 147.285631 367.20199 
C 147.285631 366.035268 146.822088 364.916175 145.997091 364.091178 
C 145.172094 363.266181 144.053001 362.802638 142.886279 362.802638 
C 141.719557 362.802638 140.600464 363.266181 139.775467 364.091178 
C 138.95047 364.916175 138.486926 366.035268 138.486926 367.20199 
C 138.486926 368.368712 138.95047 369.487805 139.775467 370.312802 
C 140.600464 371.137799 141.719557 371.601343 142.886279 371.601343 
z
" style="fill:none;stroke:#000000;stroke-width:2.5;"/>
   </g>
   <g id="PathCollection_4">
    <path clip-path="url(#p2bf915be07)" d="M 192.618127 181.283969 
C 193.784849 181.283969 194.903942 180.820425 195.728939 179.995428 
C 196.553936 179.170431 197.01748 178.051338 197.01748 176.884616 
C 197.01748 175.717894 196.553936 174.598801 195.728939 173.773804 
C 194.903942 172.948807 193.784849 172.485264 192.618127 172.485264 
C 191.451405 172.485264 190.332312 172.948807 189.507315 173.773804 
C 188.682318 174.598801 188.218775 175.717894 188.218775 176.884616 
C 188.218775 178.051338 188.682318 179.170431 189.507315 179.995428 
C 190.332312 180.820425 191.451405 181.283969 192.618127 181.283969 
z
" style="fill:none;stroke:#000000;stroke-width:2.5;"/>
   </g>
   <g id="PathCollection_5">
    <path clip-path="url(#p2bf915be07)" d="M 202.618127 168.846397 
C 203.784849 168.846397 204.903942 168.382853 205.728939 167.557856 
C 206.553936 166.732859 207.01748 165.613766 207.01748 164.447044 
C 207.01748 163.280322 206.553936 162.161229 205.728939 161.336232 
C 204.903942 160.511235 203.784849 160.047692 202.618127 160.047692 
C 201.451405 160.047692 200.332312 160.511235 199.507315 161.336232 
C 198.682318 162.161229 198.218775 163.280322 198.218775 164.447044 
C 198.218775 165.613766 198.682318 166.732859 199.507315 167.557856 
C 200.332312 168.382853 201.451405 168.846397 202.618127 168.846397 
z
" style="fill:none;stroke:#000000;stroke-width:2.5;"/>
   </g>
   <g id="PathCollection_6">
    <path clip-path="url(#p2bf915be07)" d="M 212.618127 164.940136 
C 213.784849 164.940136 214.903942 164.476592 215.728939 163.651595 
C 216.553936 162.826598 217.01748 161.707505 217.01748 160.540783 
C 217.01748 159.374061 216.553936 158.254968 215.728939 157.429971 
C 214.903942 156.604974 213.784849 156.141431 212.618127 156.141431 
C 211.451405 156.141431 210.332312 156.604974 209.507315 157.429971 
C 208.682318 158.254968 208.218775 159.374061 208.218775 160.540783 
C 208.218775 161.707505 208.682318 162.826598 209.507315 163.651595 
C 210.332312 164.476592 211.451405 164.940136 212.618127 164.940136 
z
" style="fill:none;stroke:#000000;stroke-width:2.5;"/>
   </g>
   <g id="PathCollection_7">
    <path clip-path="url(#p2bf915be07)" d="M 262.349976 368.59045 
C 263.516697 368.59045 264.635791 368.126907 265.460788 367.30191 
C 266.285785 366.476913 266.749328 365.35782 266.749328 364.191098 
C 266.749328 363.024376 266.285785 361.905283 265.460788 361.080286 
C 264.635791 360.255289 263.516697 359.791745 262.349976 359.791745 
C 261.183254 359.791745 260.064161 360.255289 259.239164 361.080286 
C 258.414167 361.905283 257.950623 363.024376 257.950623 364.191098 
C 257.950623 365.35782 258.414167 366.476913 259.239164 367.30191 
C 260.064161 368.126907 261.183254 368.59045 262.349976 368.59045 
z
" style="fill:none;stroke:#000000;stroke-width:2.5;"/>
   </g>
   <g id="PathCollection_8">
    <path clip-path="url(#p2bf915be07)" d="M 272.349976 367.88102 
C 273.516697 367.88102 274.635791 367.417476 275.460788 366.592479 
C 276.285785 365.767482 276.749328 364.648389 276.749328 363.481667 
C 276.749328 362.314945 276.285785 361.195852 275.460788 360.370855 
C 274.635791 359.545858 273.516697 359.082315 272.349976 359.082315 
C 271.183254 359.082315 270.064161 359.545858 269.239164 360.370855 
C 268.414167 361.195852 267.950623 362.314945 267.950623 363.481667 
C 267.950623 364.648389 268.414167 365.767482 269.239164 366.592479 
C 270.064161 367.417476 271.183254 367.88102 272.349976 367.88102 
z
" style="fill:none;stroke:#000000;stroke-width:2.5;"/>
   </g>
   <g id="PathCollection_9">
    <path clip-path="url(#p2bf915be07)" d="M 282.349976 366.634513 
C 283.516697 366.634513 284.635791 366.17097 285.460788 365.345973 
C 286.285785 364.520976 286.749328 363.401883 286.749328 362.235161 
C 286.749328 361.068439 286.285785 359.949346 285.460788 359.124349 
C 284.635791 358.299352 283.516697 357.835808 282.349976 357.835808 
C 281.183254 357.835808 280.064161 358.299352 279.239164 359.124349 
C 278.414167 359.949346 277.950623 361.068439 277.950623 362.235161 
C 277.950623 363.401883 278.414167 364.520976 279.239164 365.345973 
C 280.064161 366.17097 281.183254 366.634513 282.349976 366.634513 
z
" style="fill:none;stroke:#000000;stroke-width:2.5;"/>
   </g>
   <g id="PathCollection_10">
    <path clip-path="url(#p2bf915be07)" d="M 332.081824 326.508192 
C 333.248546 326.508192 334.367639 326.044648 335.192636 325.219651 
C 336.017633 324.394654 336.481176 323.275561 336.481176 322.108839 
C 336.481176 320.942118 336.017633 319.823024 335.192636 318.998027 
C 334.367639 318.17303 333.248546 317.709487 332.081824 317.709487 
C 330.915102 317.709487 329.796009 318.17303 328.971012 318.998027 
C 328.146015 319.823024 327.682471 320.942118 327.682471 322.108839 
C 327.682471 323.275561 328.146015 324.394654 328.971012 325.219651 
C 329.796009 326.044648 330.915102 326.508192 332.081824 326.508192 
z
" style="fill:none;stroke:#000000;stroke-width:2.5;"/>
   </g>
   <g id="PathCollection_11">
    <path clip-path="url(#p2bf915be07)" d="M 342.081824 327.936917 
C 343.248546 327.936917 344.367639 327.473374 345.192636 326.648377 
C 346.017633 325.82338 346.481176 324.704287 346.481176 323.537565 
C 346.481176 322.370843 346.017633 321.25175 345.192636 320.426753 
C 344.367639 319.601756 343.248546 319.138212 342.081824 319.138212 
C 340.915102 319.138212 339.796009 319.601756 338.971012 320.426753 
C 338.146015 321.25175 337.682471 322.370843 337.682471 323.537565 
C 337.682471 324.704287 338.146015 325.82338 338.971012 326.648377 
C 339.796009 327.473374 340.915102 327.936917 342.081824 327.936917 
z
" style="fill:none;stroke:#000000;stroke-width:2.5;"/>
   </g>
   <g id="PathCollection_12">
    <path clip-path="url(#p2bf915be07)" d="M 352.081824 323.936807 
C 353.248546 323.936807 354.367639 323.473264 355.192636 322.648267 
C 356.017633 321.82327 356.481176 320.704177 356.481176 319.537455 
C 356.481176 318.370733 356.017633 317.25164 355.192636 316.426643 
C 354.367639 315.601646 353.248546 315.138102 352.081824 315.138102 
C 350.915102 315.138102 349.796009 315.601646 348.971012 316.426643 
C 348.146015 317.25164 347.682471 318.370733 347.682471 319.537455 
C 347.682471 320.704177 348.146015 321.82327 348.971012 322.648267 
C 349.796009 323.473264 350.915102 323.936807 352.081824 323.936807 
z
" style="fill:none;stroke:#000000;stroke-width:2.5;"/>
   </g>
   <g id="PathCollection_13">
    <path clip-path="url(#p2bf915be07)" d="M 401.813672 348.052273 
C 402.980394 348.052273 404.099487 347.588729 404.924484 346.763732 
C 405.749481 345.938735 406.213025 344.819642 406.213025 343.65292 
C 406.213025 342.486198 405.749481 341.367105 404.924484 340.542108 
C 404.099487 339.717111 402.980394 339.253568 401.813672 339.253568 
C 400.64695 339.253568 399.527857 339.717111 398.70286 340.542108 
C 397.877863 341.367105 397.41432 342.486198 397.41432 343.65292 
C 397.41432 344.819642 397.877863 345.938735 398.70286 346.763732 
C 399.527857 347.588729 400.64695 348.052273 401.813672 348.052273 
z
" style="fill:none;stroke:#000000;stroke-width:2.5;"/>
   </g>
   <g id="PathCollection_14">
    <path clip-path="url(#p2bf915be07)" d="M 411.813672 348.25759 
C 412.980394 348.25759 414.099487 347.794047 414.924484 346.96905 
C 415.749481 346.144053 416.213025 345.02496 416.213025 343.858238 
C 416.213025 342.691516 415.749481 341.572423 414.924484 340.747426 
C 414.099487 339.922429 412.980394 339.458885 411.813672 339.458885 
C 410.64695 339.458885 409.527857 339.922429 408.70286 340.747426 
C 407.877863 341.572423 407.41432 342.691516 407.41432 343.858238 
C 407.41432 345.02496 407.877863 346.144053 408.70286 346.96905 
C 409.527857 347.794047 410.64695 348.25759 411.813672 348.25759 
z
" style="fill:none;stroke:#000000;stroke-width:2.5;"/>
   </g>
   <g id="PathCollection_15">
    <path clip-path="url(#p2bf915be07)" d="M 421.813672 353.87119 
C 422.980394 353.87119 424.099487 353.407647 424.924484 352.58265 
C 425.749481 351.757653 426.213025 350.63856 426.213025 349.471838 
C 426.213025 348.305116 425.749481 347.186023 424.924484 346.361026 
C 424.099487 345.536029 422.980394 345.072485 421.813672 345.072485 
C 420.64695 345.072485 419.527857 345.536029 418.70286 346.361026 
C 417.877863 347.186023 417.41432 348.305116 417.41432 349.471838 
C 417.41432 350.63856 417.877863 351.757653 418.70286 352.58265 
C 419.527857 353.407647 420.64695 353.87119 421.813672 353.87119 
z
" style="fill:none;stroke:#000000;stroke-width:2.5;"/>
   </g>
   <g id="PathCollection_16">
    <path clip-path="url(#p2bf915be07)" d="M 471.545521 60.69781 
C 472.712243 60.69781 473.831336 60.234267 474.656333 59.40927 
C 475.48133 58.584273 475.944873 57.465179 475.944873 56.298458 
C 475.944873 55.131736 475.48133 54.012643 474.656333 53.187646 
C 473.831336 52.362649 472.712243 51.899105 471.545521 51.899105 
C 470.378799 51.899105 469.259706 52.362649 468.434709 53.187646 
C 467.609712 54.012643 467.146168 55.131736 467.146168 56.298458 
C 467.146168 57.465179 467.609712 58.584273 468.434709 59.40927 
C 469.259706 60.234267 470.378799 60.69781 471.545521 60.69781 
z
" style="fill:none;stroke:#000000;stroke-width:2.5;"/>
   </g>
   <g id="PathCollection_17">
    <path clip-path="url(#p2bf915be07)" d="M 481.545521 59.382729 
C 482.712243 59.382729 483.831336 58.919185 484.656333 58.094188 
C 485.48133 57.269191 485.944873 56.150098 485.944873 54.983376 
C 485.944873 53.816654 485.48133 52.697561 484.656333 51.872564 
C 483.831336 51.047567 482.712243 50.584024 481.545521 50.584024 
C 480.378799 50.584024 479.259706 51.047567 478.434709 51.872564 
C 477.609712 52.697561 477.146168 53.816654 477.146168 54.983376 
C 477.146168 56.150098 477.609712 57.269191 478.434709 58.094188 
C 479.259706 58.919185 480.378799 59.382729 481.545521 59.382729 
z
" style="fill:none;stroke:#000000;stroke-width:2.5;"/>
   </g>
   <g id="PathCollection_18">
    <path clip-path="url(#p2bf915be07)" d="M 491.545521 56.165751 
C 492.712243 56.165751 493.831336 55.702208 494.656333 54.877211 
C 495.48133 54.052214 495.944873 52.933121 495.944873 51.766399 
C 495.944873 50.599677 495.48133 49.480584 494.656333 48.655587 
C 493.831336 47.83059 492.712243 47.367046 491.545521 47.367046 
C 490.378799 47.367046 489.259706 47.83059 488.434709 48.655587 
C 487.609712 49.480584 487.146168 50.599677 487.146168 51.766399 
C 487.146168 52.933121 487.609712 54.052214 488.434709 54.877211 
C 489.259706 55.702208 490.378799 56.165751 491.545521 56.165751 
z
" style="fill:none;stroke:#000000;stroke-width:2.5;"/>
   </g>
   <g id="PathCollection_19">
    <path clip-path="url(#p2bf915be07)" d="M 541.277369 352.840888 
C 542.444091 352.840888 543.563184 352.377345 544.388181 351.552348 
C 545.213178 350.727351 545.676722 349.608258 545.676722 348.441536 
C 545.676722 347.274814 545.213178 346.155721 544.388181 345.330724 
C 543.563184 344.505727 542.444091 344.042183 541.277369 344.042183 
C 540.110647 344.042183 538.991554 344.505727 538.166557 345.330724 
C 537.34156 346.155721 536.878017 347.274814 536.878017 348.441536 
C 536.878017 349.608258 537.34156 350.727351 538.166557 351.552348 
C 538.991554 352.377345 540.110647 352.840888 541.277369 352.840888 
z
" style="fill:none;stroke:#000000;stroke-width:2.5;"/>
   </g>
   <g id="PathCollection_20">
    <path clip-path="url(#p2bf915be07)" d="M 551.277369 351.645694 
C 552.444091 351.645694 553.563184 351.18215 554.388181 350.357153 
C 555.213178 349.532156 555.676722 348.413063 555.676722 347.246341 
C 555.676722 346.079619 555.213178 344.960526 554.388181 344.135529 
C 553.563184 343.310532 552.444091 342.846989 551.277369 342.846989 
C 550.110647 342.846989 548.991554 343.310532 548.166557 344.135529 
C 547.34156 344.960526 546.878017 346.079619 546.878017 347.246341 
C 546.878017 348.413063 547.34156 349.532156 548.166557 350.357153 
C 548.991554 351.18215 550.110647 351.645694 551.277369 351.645694 
z
" style="fill:none;stroke:#000000;stroke-width:2.5;"/>
   </g>
   <g id="PathCollection_21">
    <path clip-path="url(#p2bf915be07)" d="M 561.277369 351.054947 
C 562.444091 351.054947 563.563184 350.591403 564.388181 349.766406 
C 565.213178 348.941409 565.676722 347.822316 565.676722 346.655594 
C 565.676722 345.488872 565.213178 344.369779 564.388181 343.544782 
C 563.563184 342.719785 562.444091 342.256242 561.277369 342.256242 
C 560.110647 342.256242 558.991554 342.719785 558.166557 343.544782 
C 557.34156 344.369779 556.878017 345.488872 556.878017 346.655594 
C 556.878017 347.822316 557.34156 348.941409 558.166557 349.766406 
C 558.991554 350.591403 560.110647 351.054947 561.277369 351.054947 
z
" style="fill:none;stroke:#000000;stroke-width:2.5;"/>
   </g>
   <g id="PathCollection_22">
    <path clip-path="url(#p2bf915be07)" d="M 611.009217 372.095583 
C 612.175939 372.095583 613.295032 371.632039 614.120029 370.807042 
C 614.945026 369.982045 615.40857 368.862952 615.40857 367.69623 
C 615.40857 366.529508 614.945026 365.410415 614.120029 364.585418 
C 613.295032 363.760421 612.175939 363.296878 611.009217 363.296878 
C 609.842496 363.296878 608.723402 363.760421 607.898405 364.585418 
C 607.073408 365.410415 606.609865 366.529508 606.609865 367.69623 
C 606.609865 368.862952 607.073408 369.982045 607.898405 370.807042 
C 608.723402 371.632039 609.842496 372.095583 611.009217 372.095583 
z
" style="fill:none;stroke:#000000;stroke-width:2.5;"/>
   </g>
   <g id="PathCollection_23">
    <path clip-path="url(#p2bf915be07)" d="M 621.009217 372.044775 
C 622.175939 372.044775 623.295032 371.581231 624.120029 370.756234 
C 624.945026 369.931237 625.40857 368.812144 625.40857 367.645422 
C 625.40857 366.4787 624.945026 365.359607 624.120029 364.53461 
C 623.295032 363.709613 622.175939 363.246069 621.009217 363.246069 
C 619.842496 363.246069 618.723402 363.709613 617.898405 364.53461 
C 617.073408 365.359607 616.609865 366.4787 616.609865 367.645422 
C 616.609865 368.812144 617.073408 369.931237 617.898405 370.756234 
C 618.723402 371.581231 619.842496 372.044775 621.009217 372.044775 
z
" style="fill:none;stroke:#000000;stroke-width:2.5;"/>
   </g>
   <g id="PathCollection_24">
    <path clip-path="url(#p2bf915be07)" d="M 631.009217 371.234633 
C 632.175939 371.234633 633.295032 370.77109 634.120029 369.946093 
C 634.945026 369.121096 635.40857 368.002003 635.40857 366.835281 
C 635.40857 365.668559 634.945026 364.549466 634.120029 363.724469 
C 633.295032 362.899472 632.175939 362.435928 631.009217 362.435928 
C 629.842496 362.435928 628.723402 362.899472 627.898405 363.724469 
C 627.073408 364.549466 626.609865 365.668559 626.609865 366.835281 
C 626.609865 368.002003 627.073408 369.121096 627.898405 369.946093 
C 628.723402 370.77109 629.842496 371.234633 631.009217 371.234633 
z
" style="fill:none;stroke:#000000;stroke-width:2.5;"/>
   </g>
   <g id="matplotlib.axis_1">
    <g id="xtick_1">
     <g id="line2d_17">
      <defs>
       <path d="M 0 0 
L 0 2 
" id="m68bd4285ef" style="stroke:#000000;"/>
      </defs>
      <g>
       <use style="stroke:#000000;" x="132.886279" xlink:href="#m68bd4285ef" y="389.16"/>
      </g>
     </g>
     <g id="text_1">
      <!-- TAA -->
      <defs>
       <path d="M -0.296875 72.90625 
L 61.375 72.90625 
L 61.375 64.59375 
L 35.5 64.59375 
L 35.5 0 
L 25.59375 0 
L 25.59375 64.59375 
L -0.296875 64.59375 
z
" id="DejaVuSans-84"/>
       <path d="M 34.1875 63.1875 
L 20.796875 26.90625 
L 47.609375 26.90625 
z
M 28.609375 72.90625 
L 39.796875 72.90625 
L 67.578125 0 
L 57.328125 0 
L 50.6875 18.703125 
L 17.828125 18.703125 
L 11.1875 0 
L 0.78125 0 
z
" id="DejaVuSans-65"/>
      </defs>
      <g transform="translate(124.81819 425.63658)rotate(-45)scale(0.16 -0.16)">
       <use xlink:href="#DejaVuSans-84"/>
       <use x="60.974609" xlink:href="#DejaVuSans-65"/>
       <use x="129.414062" xlink:href="#DejaVuSans-65"/>
      </g>
     </g>
    </g>
    <g id="xtick_2">
     <g id="line2d_18">
      <g>
       <use style="stroke:#000000;" x="202.618127" xlink:href="#m68bd4285ef" y="389.16"/>
      </g>
     </g>
     <g id="text_2">
      <!-- 4OMT -->
      <defs>
       <path d="M 37.796875 64.3125 
L 12.890625 25.390625 
L 37.796875 25.390625 
z
M 35.203125 72.90625 
L 47.609375 72.90625 
L 47.609375 25.390625 
L 58.015625 25.390625 
L 58.015625 17.1875 
L 47.609375 17.1875 
L 47.609375 0 
L 37.796875 0 
L 37.796875 17.1875 
L 4.890625 17.1875 
L 4.890625 26.703125 
z
" id="DejaVuSans-52"/>
       <path d="M 39.40625 66.21875 
Q 28.65625 66.21875 22.328125 58.203125 
Q 16.015625 50.203125 16.015625 36.375 
Q 16.015625 22.609375 22.328125 14.59375 
Q 28.65625 6.59375 39.40625 6.59375 
Q 50.140625 6.59375 56.421875 14.59375 
Q 62.703125 22.609375 62.703125 36.375 
Q 62.703125 50.203125 56.421875 58.203125 
Q 50.140625 66.21875 39.40625 66.21875 
z
M 39.40625 74.21875 
Q 54.734375 74.21875 63.90625 63.9375 
Q 73.09375 53.65625 73.09375 36.375 
Q 73.09375 19.140625 63.90625 8.859375 
Q 54.734375 -1.421875 39.40625 -1.421875 
Q 24.03125 -1.421875 14.8125 8.828125 
Q 5.609375 19.09375 5.609375 36.375 
Q 5.609375 53.65625 14.8125 63.9375 
Q 24.03125 74.21875 39.40625 74.21875 
z
" id="DejaVuSans-79"/>
       <path d="M 9.8125 72.90625 
L 24.515625 72.90625 
L 43.109375 23.296875 
L 61.8125 72.90625 
L 76.515625 72.90625 
L 76.515625 0 
L 66.890625 0 
L 66.890625 64.015625 
L 48.09375 14.015625 
L 38.1875 14.015625 
L 19.390625 64.015625 
L 19.390625 0 
L 9.8125 0 
z
" id="DejaVuSans-77"/>
      </defs>
      <g transform="translate(189.35192 436.032818)rotate(-45)scale(0.16 -0.16)">
       <use xlink:href="#DejaVuSans-52"/>
       <use x="63.623047" xlink:href="#DejaVuSans-79"/>
       <use x="142.333984" xlink:href="#DejaVuSans-77"/>
       <use x="228.613281" xlink:href="#DejaVuSans-84"/>
      </g>
     </g>
    </g>
    <g id="xtick_3">
     <g id="line2d_19">
      <g>
       <use style="stroke:#000000;" x="272.349976" xlink:href="#m68bd4285ef" y="389.16"/>
      </g>
     </g>
     <g id="text_3">
      <!-- 6OMT -->
      <defs>
       <path d="M 33.015625 40.375 
Q 26.375 40.375 22.484375 35.828125 
Q 18.609375 31.296875 18.609375 23.390625 
Q 18.609375 15.53125 22.484375 10.953125 
Q 26.375 6.390625 33.015625 6.390625 
Q 39.65625 6.390625 43.53125 10.953125 
Q 47.40625 15.53125 47.40625 23.390625 
Q 47.40625 31.296875 43.53125 35.828125 
Q 39.65625 40.375 33.015625 40.375 
z
M 52.59375 71.296875 
L 52.59375 62.3125 
Q 48.875 64.0625 45.09375 64.984375 
Q 41.3125 65.921875 37.59375 65.921875 
Q 27.828125 65.921875 22.671875 59.328125 
Q 17.53125 52.734375 16.796875 39.40625 
Q 19.671875 43.65625 24.015625 45.921875 
Q 28.375 48.1875 33.59375 48.1875 
Q 44.578125 48.1875 50.953125 41.515625 
Q 57.328125 34.859375 57.328125 23.390625 
Q 57.328125 12.15625 50.6875 5.359375 
Q 44.046875 -1.421875 33.015625 -1.421875 
Q 20.359375 -1.421875 13.671875 8.265625 
Q 6.984375 17.96875 6.984375 36.375 
Q 6.984375 53.65625 15.1875 63.9375 
Q 23.390625 74.21875 37.203125 74.21875 
Q 40.921875 74.21875 44.703125 73.484375 
Q 48.484375 72.75 52.59375 71.296875 
z
" id="DejaVuSans-54"/>
      </defs>
      <g transform="translate(259.083768 436.032818)rotate(-45)scale(0.16 -0.16)">
       <use xlink:href="#DejaVuSans-54"/>
       <use x="63.623047" xlink:href="#DejaVuSans-79"/>
       <use x="142.333984" xlink:href="#DejaVuSans-77"/>
       <use x="228.613281" xlink:href="#DejaVuSans-84"/>
      </g>
     </g>
    </g>
    <g id="xtick_4">
     <g id="line2d_20">
      <g>
       <use style="stroke:#000000;" x="342.081824" xlink:href="#m68bd4285ef" y="389.16"/>
      </g>
     </g>
     <g id="text_4">
      <!-- EcOMT -->
      <defs>
       <path d="M 9.8125 72.90625 
L 55.90625 72.90625 
L 55.90625 64.59375 
L 19.671875 64.59375 
L 19.671875 43.015625 
L 54.390625 43.015625 
L 54.390625 34.71875 
L 19.671875 34.71875 
L 19.671875 8.296875 
L 56.78125 8.296875 
L 56.78125 0 
L 9.8125 0 
z
" id="DejaVuSans-69"/>
       <path d="M 48.78125 52.59375 
L 48.78125 44.1875 
Q 44.96875 46.296875 41.140625 47.34375 
Q 37.3125 48.390625 33.40625 48.390625 
Q 24.65625 48.390625 19.8125 42.84375 
Q 14.984375 37.3125 14.984375 27.296875 
Q 14.984375 17.28125 19.8125 11.734375 
Q 24.65625 6.203125 33.40625 6.203125 
Q 37.3125 6.203125 41.140625 7.25 
Q 44.96875 8.296875 48.78125 10.40625 
L 48.78125 2.09375 
Q 45.015625 0.34375 40.984375 -0.53125 
Q 36.96875 -1.421875 32.421875 -1.421875 
Q 20.0625 -1.421875 12.78125 6.34375 
Q 5.515625 14.109375 5.515625 27.296875 
Q 5.515625 40.671875 12.859375 48.328125 
Q 20.21875 56 33.015625 56 
Q 37.15625 56 41.109375 55.140625 
Q 45.0625 54.296875 48.78125 52.59375 
z
" id="DejaVuSans-99"/>
      </defs>
      <g transform="translate(325.72998 442.204092)rotate(-45)scale(0.16 -0.16)">
       <use xlink:href="#DejaVuSans-69"/>
       <use x="63.183594" xlink:href="#DejaVuSans-99"/>
       <use x="118.164062" xlink:href="#DejaVuSans-79"/>
       <use x="196.875" xlink:href="#DejaVuSans-77"/>
       <use x="283.154297" xlink:href="#DejaVuSans-84"/>
      </g>
     </g>
    </g>
    <g id="xtick_5">
     <g id="line2d_21">
      <g>
       <use style="stroke:#000000;" x="411.813672" xlink:href="#m68bd4285ef" y="389.16"/>
      </g>
     </g>
     <g id="text_5">
      <!-- PbOMT -->
      <defs>
       <path d="M 19.671875 64.796875 
L 19.671875 37.40625 
L 32.078125 37.40625 
Q 38.96875 37.40625 42.71875 40.96875 
Q 46.484375 44.53125 46.484375 51.125 
Q 46.484375 57.671875 42.71875 61.234375 
Q 38.96875 64.796875 32.078125 64.796875 
z
M 9.8125 72.90625 
L 32.078125 72.90625 
Q 44.34375 72.90625 50.609375 67.359375 
Q 56.890625 61.8125 56.890625 51.125 
Q 56.890625 40.328125 50.609375 34.8125 
Q 44.34375 29.296875 32.078125 29.296875 
L 19.671875 29.296875 
L 19.671875 0 
L 9.8125 0 
z
" id="DejaVuSans-80"/>
       <path d="M 48.6875 27.296875 
Q 48.6875 37.203125 44.609375 42.84375 
Q 40.53125 48.484375 33.40625 48.484375 
Q 26.265625 48.484375 22.1875 42.84375 
Q 18.109375 37.203125 18.109375 27.296875 
Q 18.109375 17.390625 22.1875 11.75 
Q 26.265625 6.109375 33.40625 6.109375 
Q 40.53125 6.109375 44.609375 11.75 
Q 48.6875 17.390625 48.6875 27.296875 
z
M 18.109375 46.390625 
Q 20.953125 51.265625 25.265625 53.625 
Q 29.59375 56 35.59375 56 
Q 45.5625 56 51.78125 48.09375 
Q 58.015625 40.1875 58.015625 27.296875 
Q 58.015625 14.40625 51.78125 6.484375 
Q 45.5625 -1.421875 35.59375 -1.421875 
Q 29.59375 -1.421875 25.265625 0.953125 
Q 20.953125 3.328125 18.109375 8.203125 
L 18.109375 0 
L 9.078125 0 
L 9.078125 75.984375 
L 18.109375 75.984375 
z
" id="DejaVuSans-98"/>
      </defs>
      <g transform="translate(395.144514 442.838721)rotate(-45)scale(0.16 -0.16)">
       <use xlink:href="#DejaVuSans-80"/>
       <use x="60.302734" xlink:href="#DejaVuSans-98"/>
       <use x="123.779297" xlink:href="#DejaVuSans-79"/>
       <use x="202.490234" xlink:href="#DejaVuSans-77"/>
       <use x="288.769531" xlink:href="#DejaVuSans-84"/>
      </g>
     </g>
    </g>
    <g id="xtick_6">
     <g id="line2d_22">
      <g>
       <use style="stroke:#000000;" x="481.545521" xlink:href="#m68bd4285ef" y="389.16"/>
      </g>
     </g>
     <g id="text_6">
      <!-- Gf1OMT -->
      <defs>
       <path d="M 59.515625 10.40625 
L 59.515625 29.984375 
L 43.40625 29.984375 
L 43.40625 38.09375 
L 69.28125 38.09375 
L 69.28125 6.78125 
Q 63.578125 2.734375 56.6875 0.65625 
Q 49.8125 -1.421875 42 -1.421875 
Q 24.90625 -1.421875 15.25 8.5625 
Q 5.609375 18.5625 5.609375 36.375 
Q 5.609375 54.25 15.25 64.234375 
Q 24.90625 74.21875 42 74.21875 
Q 49.125 74.21875 55.546875 72.453125 
Q 61.96875 70.703125 67.390625 67.28125 
L 67.390625 56.78125 
Q 61.921875 61.421875 55.765625 63.765625 
Q 49.609375 66.109375 42.828125 66.109375 
Q 29.4375 66.109375 22.71875 58.640625 
Q 16.015625 51.171875 16.015625 36.375 
Q 16.015625 21.625 22.71875 14.15625 
Q 29.4375 6.6875 42.828125 6.6875 
Q 48.046875 6.6875 52.140625 7.59375 
Q 56.25 8.5 59.515625 10.40625 
z
" id="DejaVuSans-71"/>
       <path d="M 37.109375 75.984375 
L 37.109375 68.5 
L 28.515625 68.5 
Q 23.6875 68.5 21.796875 66.546875 
Q 19.921875 64.59375 19.921875 59.515625 
L 19.921875 54.6875 
L 34.71875 54.6875 
L 34.71875 47.703125 
L 19.921875 47.703125 
L 19.921875 0 
L 10.890625 0 
L 10.890625 47.703125 
L 2.296875 47.703125 
L 2.296875 54.6875 
L 10.890625 54.6875 
L 10.890625 58.5 
Q 10.890625 67.625 15.140625 71.796875 
Q 19.390625 75.984375 28.609375 75.984375 
z
" id="DejaVuSans-102"/>
       <path d="M 12.40625 8.296875 
L 28.515625 8.296875 
L 28.515625 63.921875 
L 10.984375 60.40625 
L 10.984375 69.390625 
L 28.421875 72.90625 
L 38.28125 72.90625 
L 38.28125 8.296875 
L 54.390625 8.296875 
L 54.390625 0 
L 12.40625 0 
z
" id="DejaVuSans-49"/>
      </defs>
      <g transform="translate(461.904746 448.781953)rotate(-45)scale(0.16 -0.16)">
       <use xlink:href="#DejaVuSans-71"/>
       <use x="77.490234" xlink:href="#DejaVuSans-102"/>
       <use x="112.695312" xlink:href="#DejaVuSans-49"/>
       <use x="176.318359" xlink:href="#DejaVuSans-79"/>
       <use x="255.029297" xlink:href="#DejaVuSans-77"/>
       <use x="341.308594" xlink:href="#DejaVuSans-84"/>
      </g>
     </g>
    </g>
    <g id="xtick_7">
     <g id="line2d_23">
      <g>
       <use style="stroke:#000000;" x="551.277369" xlink:href="#m68bd4285ef" y="389.16"/>
      </g>
     </g>
     <g id="text_7">
      <!-- Gf2OMT -->
      <defs>
       <path d="M 19.1875 8.296875 
L 53.609375 8.296875 
L 53.609375 0 
L 7.328125 0 
L 7.328125 8.296875 
Q 12.9375 14.109375 22.625 23.890625 
Q 32.328125 33.6875 34.8125 36.53125 
Q 39.546875 41.84375 41.421875 45.53125 
Q 43.3125 49.21875 43.3125 52.78125 
Q 43.3125 58.59375 39.234375 62.25 
Q 35.15625 65.921875 28.609375 65.921875 
Q 23.96875 65.921875 18.8125 64.3125 
Q 13.671875 62.703125 7.8125 59.421875 
L 7.8125 69.390625 
Q 13.765625 71.78125 18.9375 73 
Q 24.125 74.21875 28.421875 74.21875 
Q 39.75 74.21875 46.484375 68.546875 
Q 53.21875 62.890625 53.21875 53.421875 
Q 53.21875 48.921875 51.53125 44.890625 
Q 49.859375 40.875 45.40625 35.40625 
Q 44.1875 33.984375 37.640625 27.21875 
Q 31.109375 20.453125 19.1875 8.296875 
z
" id="DejaVuSans-50"/>
      </defs>
      <g transform="translate(531.636594 448.781953)rotate(-45)scale(0.16 -0.16)">
       <use xlink:href="#DejaVuSans-71"/>
       <use x="77.490234" xlink:href="#DejaVuSans-102"/>
       <use x="112.695312" xlink:href="#DejaVuSans-50"/>
       <use x="176.318359" xlink:href="#DejaVuSans-79"/>
       <use x="255.029297" xlink:href="#DejaVuSans-77"/>
       <use x="341.308594" xlink:href="#DejaVuSans-84"/>
      </g>
     </g>
    </g>
    <g id="xtick_8">
     <g id="line2d_24">
      <g>
       <use style="stroke:#000000;" x="621.009217" xlink:href="#m68bd4285ef" y="389.16"/>
      </g>
     </g>
     <g id="text_8">
      <!-- Gf6OMT -->
      <g transform="translate(601.368443 448.781953)rotate(-45)scale(0.16 -0.16)">
       <use xlink:href="#DejaVuSans-71"/>
       <use x="77.490234" xlink:href="#DejaVuSans-102"/>
       <use x="112.695312" xlink:href="#DejaVuSans-54"/>
       <use x="176.318359" xlink:href="#DejaVuSans-79"/>
       <use x="255.029297" xlink:href="#DejaVuSans-77"/>
       <use x="341.308594" xlink:href="#DejaVuSans-84"/>
      </g>
     </g>
    </g>
    <g id="text_9">
     <!-- O-methyltransferase -->
     <defs>
      <path d="M 4.890625 31.390625 
L 31.203125 31.390625 
L 31.203125 23.390625 
L 4.890625 23.390625 
z
" id="DejaVuSans-45"/>
      <path d="M 52 44.1875 
Q 55.375 50.25 60.0625 53.125 
Q 64.75 56 71.09375 56 
Q 79.640625 56 84.28125 50.015625 
Q 88.921875 44.046875 88.921875 33.015625 
L 88.921875 0 
L 79.890625 0 
L 79.890625 32.71875 
Q 79.890625 40.578125 77.09375 44.375 
Q 74.3125 48.1875 68.609375 48.1875 
Q 61.625 48.1875 57.5625 43.546875 
Q 53.515625 38.921875 53.515625 30.90625 
L 53.515625 0 
L 44.484375 0 
L 44.484375 32.71875 
Q 44.484375 40.625 41.703125 44.40625 
Q 38.921875 48.1875 33.109375 48.1875 
Q 26.21875 48.1875 22.15625 43.53125 
Q 18.109375 38.875 18.109375 30.90625 
L 18.109375 0 
L 9.078125 0 
L 9.078125 54.6875 
L 18.109375 54.6875 
L 18.109375 46.1875 
Q 21.1875 51.21875 25.484375 53.609375 
Q 29.78125 56 35.6875 56 
Q 41.65625 56 45.828125 52.96875 
Q 50 49.953125 52 44.1875 
z
" id="DejaVuSans-109"/>
      <path d="M 56.203125 29.59375 
L 56.203125 25.203125 
L 14.890625 25.203125 
Q 15.484375 15.921875 20.484375 11.0625 
Q 25.484375 6.203125 34.421875 6.203125 
Q 39.59375 6.203125 44.453125 7.46875 
Q 49.3125 8.734375 54.109375 11.28125 
L 54.109375 2.78125 
Q 49.265625 0.734375 44.1875 -0.34375 
Q 39.109375 -1.421875 33.890625 -1.421875 
Q 20.796875 -1.421875 13.15625 6.1875 
Q 5.515625 13.8125 5.515625 26.8125 
Q 5.515625 40.234375 12.765625 48.109375 
Q 20.015625 56 32.328125 56 
Q 43.359375 56 49.78125 48.890625 
Q 56.203125 41.796875 56.203125 29.59375 
z
M 47.21875 32.234375 
Q 47.125 39.59375 43.09375 43.984375 
Q 39.0625 48.390625 32.421875 48.390625 
Q 24.90625 48.390625 20.390625 44.140625 
Q 15.875 39.890625 15.1875 32.171875 
z
" id="DejaVuSans-101"/>
      <path d="M 18.3125 70.21875 
L 18.3125 54.6875 
L 36.8125 54.6875 
L 36.8125 47.703125 
L 18.3125 47.703125 
L 18.3125 18.015625 
Q 18.3125 11.328125 20.140625 9.421875 
Q 21.96875 7.515625 27.59375 7.515625 
L 36.8125 7.515625 
L 36.8125 0 
L 27.59375 0 
Q 17.1875 0 13.234375 3.875 
Q 9.28125 7.765625 9.28125 18.015625 
L 9.28125 47.703125 
L 2.6875 47.703125 
L 2.6875 54.6875 
L 9.28125 54.6875 
L 9.28125 70.21875 
z
" id="DejaVuSans-116"/>
      <path d="M 54.890625 33.015625 
L 54.890625 0 
L 45.90625 0 
L 45.90625 32.71875 
Q 45.90625 40.484375 42.875 44.328125 
Q 39.84375 48.1875 33.796875 48.1875 
Q 26.515625 48.1875 22.3125 43.546875 
Q 18.109375 38.921875 18.109375 30.90625 
L 18.109375 0 
L 9.078125 0 
L 9.078125 75.984375 
L 18.109375 75.984375 
L 18.109375 46.1875 
Q 21.34375 51.125 25.703125 53.5625 
Q 30.078125 56 35.796875 56 
Q 45.21875 56 50.046875 50.171875 
Q 54.890625 44.34375 54.890625 33.015625 
z
" id="DejaVuSans-104"/>
      <path d="M 32.171875 -5.078125 
Q 28.375 -14.84375 24.75 -17.8125 
Q 21.140625 -20.796875 15.09375 -20.796875 
L 7.90625 -20.796875 
L 7.90625 -13.28125 
L 13.1875 -13.28125 
Q 16.890625 -13.28125 18.9375 -11.515625 
Q 21 -9.765625 23.484375 -3.21875 
L 25.09375 0.875 
L 2.984375 54.6875 
L 12.5 54.6875 
L 29.59375 11.921875 
L 46.6875 54.6875 
L 56.203125 54.6875 
z
" id="DejaVuSans-121"/>
      <path d="M 9.421875 75.984375 
L 18.40625 75.984375 
L 18.40625 0 
L 9.421875 0 
z
" id="DejaVuSans-108"/>
      <path d="M 41.109375 46.296875 
Q 39.59375 47.171875 37.8125 47.578125 
Q 36.03125 48 33.890625 48 
Q 26.265625 48 22.1875 43.046875 
Q 18.109375 38.09375 18.109375 28.8125 
L 18.109375 0 
L 9.078125 0 
L 9.078125 54.6875 
L 18.109375 54.6875 
L 18.109375 46.1875 
Q 20.953125 51.171875 25.484375 53.578125 
Q 30.03125 56 36.53125 56 
Q 37.453125 56 38.578125 55.875 
Q 39.703125 55.765625 41.0625 55.515625 
z
" id="DejaVuSans-114"/>
      <path d="M 34.28125 27.484375 
Q 23.390625 27.484375 19.1875 25 
Q 14.984375 22.515625 14.984375 16.5 
Q 14.984375 11.71875 18.140625 8.90625 
Q 21.296875 6.109375 26.703125 6.109375 
Q 34.1875 6.109375 38.703125 11.40625 
Q 43.21875 16.703125 43.21875 25.484375 
L 43.21875 27.484375 
z
M 52.203125 31.203125 
L 52.203125 0 
L 43.21875 0 
L 43.21875 8.296875 
Q 40.140625 3.328125 35.546875 0.953125 
Q 30.953125 -1.421875 24.3125 -1.421875 
Q 15.921875 -1.421875 10.953125 3.296875 
Q 6 8.015625 6 15.921875 
Q 6 25.140625 12.171875 29.828125 
Q 18.359375 34.515625 30.609375 34.515625 
L 43.21875 34.515625 
L 43.21875 35.40625 
Q 43.21875 41.609375 39.140625 45 
Q 35.0625 48.390625 27.6875 48.390625 
Q 23 48.390625 18.546875 47.265625 
Q 14.109375 46.140625 10.015625 43.890625 
L 10.015625 52.203125 
Q 14.9375 54.109375 19.578125 55.046875 
Q 24.21875 56 28.609375 56 
Q 40.484375 56 46.34375 49.84375 
Q 52.203125 43.703125 52.203125 31.203125 
z
" id="DejaVuSans-97"/>
      <path d="M 54.890625 33.015625 
L 54.890625 0 
L 45.90625 0 
L 45.90625 32.71875 
Q 45.90625 40.484375 42.875 44.328125 
Q 39.84375 48.1875 33.796875 48.1875 
Q 26.515625 48.1875 22.3125 43.546875 
Q 18.109375 38.921875 18.109375 30.90625 
L 18.109375 0 
L 9.078125 0 
L 9.078125 54.6875 
L 18.109375 54.6875 
L 18.109375 46.1875 
Q 21.34375 51.125 25.703125 53.5625 
Q 30.078125 56 35.796875 56 
Q 45.21875 56 50.046875 50.171875 
Q 54.890625 44.34375 54.890625 33.015625 
z
" id="DejaVuSans-110"/>
      <path d="M 44.28125 53.078125 
L 44.28125 44.578125 
Q 40.484375 46.53125 36.375 47.5 
Q 32.28125 48.484375 27.875 48.484375 
Q 21.1875 48.484375 17.84375 46.4375 
Q 14.5 44.390625 14.5 40.28125 
Q 14.5 37.15625 16.890625 35.375 
Q 19.28125 33.59375 26.515625 31.984375 
L 29.59375 31.296875 
Q 39.15625 29.25 43.1875 25.515625 
Q 47.21875 21.78125 47.21875 15.09375 
Q 47.21875 7.46875 41.1875 3.015625 
Q 35.15625 -1.421875 24.609375 -1.421875 
Q 20.21875 -1.421875 15.453125 -0.5625 
Q 10.6875 0.296875 5.421875 2 
L 5.421875 11.28125 
Q 10.40625 8.6875 15.234375 7.390625 
Q 20.0625 6.109375 24.8125 6.109375 
Q 31.15625 6.109375 34.5625 8.28125 
Q 37.984375 10.453125 37.984375 14.40625 
Q 37.984375 18.0625 35.515625 20.015625 
Q 33.0625 21.96875 24.703125 23.78125 
L 21.578125 24.515625 
Q 13.234375 26.265625 9.515625 29.90625 
Q 5.8125 33.546875 5.8125 39.890625 
Q 5.8125 47.609375 11.28125 51.796875 
Q 16.75 56 26.8125 56 
Q 31.78125 56 36.171875 55.265625 
Q 40.578125 54.546875 44.28125 53.078125 
z
" id="DejaVuSans-115"/>
     </defs>
     <g transform="translate(287.45775 468.812038)scale(0.18 -0.18)">
      <use xlink:href="#DejaVuSans-79"/>
      <use x="78.742188" xlink:href="#DejaVuSans-45"/>
      <use x="114.826172" xlink:href="#DejaVuSans-109"/>
      <use x="212.238281" xlink:href="#DejaVuSans-101"/>
      <use x="273.761719" xlink:href="#DejaVuSans-116"/>
      <use x="312.970703" xlink:href="#DejaVuSans-104"/>
      <use x="376.349609" xlink:href="#DejaVuSans-121"/>
      <use x="435.529297" xlink:href="#DejaVuSans-108"/>
      <use x="463.3125" xlink:href="#DejaVuSans-116"/>
      <use x="502.521484" xlink:href="#DejaVuSans-114"/>
      <use x="543.634766" xlink:href="#DejaVuSans-97"/>
      <use x="604.914062" xlink:href="#DejaVuSans-110"/>
      <use x="668.292969" xlink:href="#DejaVuSans-115"/>
      <use x="720.392578" xlink:href="#DejaVuSans-102"/>
      <use x="755.597656" xlink:href="#DejaVuSans-101"/>
      <use x="817.121094" xlink:href="#DejaVuSans-114"/>
      <use x="858.234375" xlink:href="#DejaVuSans-97"/>
      <use x="919.513672" xlink:href="#DejaVuSans-115"/>
      <use x="971.613281" xlink:href="#DejaVuSans-101"/>
     </g>
    </g>
   </g>
   <g id="matplotlib.axis_2">
    <g id="ytick_1">
     <g id="line2d_25">
      <defs>
       <path d="M 0 0 
L -2 0 
" id="m238a81c0af" style="stroke:#000000;"/>
      </defs>
      <g>
       <use style="stroke:#000000;" x="92.79" xlink:href="#m238a81c0af" y="389.16"/>
      </g>
     </g>
     <g id="text_10">
      <!-- 0 -->
      <defs>
       <path d="M 31.78125 66.40625 
Q 24.171875 66.40625 20.328125 58.90625 
Q 16.5 51.421875 16.5 36.375 
Q 16.5 21.390625 20.328125 13.890625 
Q 24.171875 6.390625 31.78125 6.390625 
Q 39.453125 6.390625 43.28125 13.890625 
Q 47.125 21.390625 47.125 36.375 
Q 47.125 51.421875 43.28125 58.90625 
Q 39.453125 66.40625 31.78125 66.40625 
z
M 31.78125 74.21875 
Q 44.046875 74.21875 50.515625 64.515625 
Q 56.984375 54.828125 56.984375 36.375 
Q 56.984375 17.96875 50.515625 8.265625 
Q 44.046875 -1.421875 31.78125 -1.421875 
Q 19.53125 -1.421875 13.0625 8.265625 
Q 6.59375 17.96875 6.59375 36.375 
Q 6.59375 54.828125 13.0625 64.515625 
Q 19.53125 74.21875 31.78125 74.21875 
z
" id="DejaVuSans-48"/>
      </defs>
      <g transform="translate(75.8375 395.998594)scale(0.18 -0.18)">
       <use xlink:href="#DejaVuSans-48"/>
      </g>
     </g>
    </g>
    <g id="ytick_2">
     <g id="line2d_26">
      <g>
       <use style="stroke:#000000;" x="92.79" xlink:href="#m238a81c0af" y="319.947601"/>
      </g>
     </g>
     <g id="text_11">
      <!-- 2 -->
      <g transform="translate(75.8375 326.786195)scale(0.18 -0.18)">
       <use xlink:href="#DejaVuSans-50"/>
      </g>
     </g>
    </g>
    <g id="ytick_3">
     <g id="line2d_27">
      <g>
       <use style="stroke:#000000;" x="92.79" xlink:href="#m238a81c0af" y="250.735202"/>
      </g>
     </g>
     <g id="text_12">
      <!-- 4 -->
      <g transform="translate(75.8375 257.573796)scale(0.18 -0.18)">
       <use xlink:href="#DejaVuSans-52"/>
      </g>
     </g>
    </g>
    <g id="ytick_4">
     <g id="line2d_28">
      <g>
       <use style="stroke:#000000;" x="92.79" xlink:href="#m238a81c0af" y="181.522803"/>
      </g>
     </g>
     <g id="text_13">
      <!-- 6 -->
      <g transform="translate(75.8375 188.361397)scale(0.18 -0.18)">
       <use xlink:href="#DejaVuSans-54"/>
      </g>
     </g>
    </g>
    <g id="ytick_5">
     <g id="line2d_29">
      <g>
       <use style="stroke:#000000;" x="92.79" xlink:href="#m238a81c0af" y="112.310404"/>
      </g>
     </g>
     <g id="text_14">
      <!-- 8 -->
      <defs>
       <path d="M 31.78125 34.625 
Q 24.75 34.625 20.71875 30.859375 
Q 16.703125 27.09375 16.703125 20.515625 
Q 16.703125 13.921875 20.71875 10.15625 
Q 24.75 6.390625 31.78125 6.390625 
Q 38.8125 6.390625 42.859375 10.171875 
Q 46.921875 13.96875 46.921875 20.515625 
Q 46.921875 27.09375 42.890625 30.859375 
Q 38.875 34.625 31.78125 34.625 
z
M 21.921875 38.8125 
Q 15.578125 40.375 12.03125 44.71875 
Q 8.5 49.078125 8.5 55.328125 
Q 8.5 64.0625 14.71875 69.140625 
Q 20.953125 74.21875 31.78125 74.21875 
Q 42.671875 74.21875 48.875 69.140625 
Q 55.078125 64.0625 55.078125 55.328125 
Q 55.078125 49.078125 51.53125 44.71875 
Q 48 40.375 41.703125 38.8125 
Q 48.828125 37.15625 52.796875 32.3125 
Q 56.78125 27.484375 56.78125 20.515625 
Q 56.78125 9.90625 50.3125 4.234375 
Q 43.84375 -1.421875 31.78125 -1.421875 
Q 19.734375 -1.421875 13.25 4.234375 
Q 6.78125 9.90625 6.78125 20.515625 
Q 6.78125 27.484375 10.78125 32.3125 
Q 14.796875 37.15625 21.921875 38.8125 
z
M 18.3125 54.390625 
Q 18.3125 48.734375 21.84375 45.5625 
Q 25.390625 42.390625 31.78125 42.390625 
Q 38.140625 42.390625 41.71875 45.5625 
Q 45.3125 48.734375 45.3125 54.390625 
Q 45.3125 60.0625 41.71875 63.234375 
Q 38.140625 66.40625 31.78125 66.40625 
Q 25.390625 66.40625 21.84375 63.234375 
Q 18.3125 60.0625 18.3125 54.390625 
z
" id="DejaVuSans-56"/>
      </defs>
      <g transform="translate(75.8375 119.148998)scale(0.18 -0.18)">
       <use xlink:href="#DejaVuSans-56"/>
      </g>
     </g>
    </g>
    <g id="ytick_6">
     <g id="line2d_30">
      <g>
       <use style="stroke:#000000;" x="92.79" xlink:href="#m238a81c0af" y="43.098006"/>
      </g>
     </g>
     <g id="text_15">
      <!-- 10 -->
      <g transform="translate(64.385 49.936599)scale(0.18 -0.18)">
       <use xlink:href="#DejaVuSans-49"/>
       <use x="63.623047" xlink:href="#DejaVuSans-48"/>
      </g>
     </g>
    </g>
    <g id="text_16">
     <!-- $(RFU/OD) \times 10^3$ -->
     <defs>
      <path d="M 31 75.875 
Q 24.46875 64.65625 21.28125 53.65625 
Q 18.109375 42.671875 18.109375 31.390625 
Q 18.109375 20.125 21.3125 9.0625 
Q 24.515625 -2 31 -13.1875 
L 23.1875 -13.1875 
Q 15.875 -1.703125 12.234375 9.375 
Q 8.59375 20.453125 8.59375 31.390625 
Q 8.59375 42.28125 12.203125 53.3125 
Q 15.828125 64.359375 23.1875 75.875 
z
" id="DejaVuSans-40"/>
      <path d="M 25.203125 64.796875 
L 20.21875 38.921875 
L 32.90625 38.921875 
Q 40.375 38.921875 44.984375 43.046875 
Q 49.609375 47.171875 49.609375 53.8125 
Q 49.609375 59.125 46.5 61.953125 
Q 43.40625 64.796875 37.59375 64.796875 
z
M 43.3125 35.015625 
Q 46.4375 34.28125 48.515625 31.390625 
Q 50.59375 28.515625 53.328125 19.921875 
L 59.515625 0 
L 49.125 0 
L 43.40625 18.703125 
Q 41.21875 25.921875 38.328125 28.359375 
Q 35.453125 30.8125 29.5 30.8125 
L 18.609375 30.8125 
L 12.59375 0 
L 2.6875 0 
L 16.890625 72.90625 
L 39.109375 72.90625 
Q 49.21875 72.90625 54.609375 68.328125 
Q 60.015625 63.765625 60.015625 55.171875 
Q 60.015625 47.5625 55.421875 41.984375 
Q 50.828125 36.421875 43.3125 35.015625 
z
" id="DejaVuSans-Oblique-82"/>
      <path d="M 16.890625 72.90625 
L 58.6875 72.90625 
L 57.078125 64.59375 
L 25.09375 64.59375 
L 20.90625 43.109375 
L 49.8125 43.109375 
L 48.1875 34.8125 
L 19.28125 34.8125 
L 12.5 0 
L 2.6875 0 
z
" id="DejaVuSans-Oblique-70"/>
      <path d="M 15.484375 72.90625 
L 25.390625 72.90625 
L 16.796875 28.609375 
Q 16.265625 25.640625 16.046875 23.703125 
Q 15.828125 21.78125 15.828125 20.3125 
Q 15.828125 13.578125 19.578125 10.078125 
Q 23.34375 6.59375 30.609375 6.59375 
Q 40.046875 6.59375 45.28125 11.765625 
Q 50.53125 16.9375 52.78125 28.609375 
L 61.375 72.90625 
L 71.296875 72.90625 
L 62.5 27.390625 
Q 59.625 12.640625 51.5625 5.609375 
Q 43.5 -1.421875 29.5 -1.421875 
Q 18.5625 -1.421875 12.1875 4.078125 
Q 5.8125 9.578125 5.8125 19 
Q 5.8125 20.703125 6.046875 22.828125 
Q 6.296875 24.953125 6.78125 27.390625 
z
" id="DejaVuSans-Oblique-85"/>
      <path d="M 25.390625 72.90625 
L 33.6875 72.90625 
L 8.296875 -9.28125 
L 0 -9.28125 
z
" id="DejaVuSans-47"/>
      <path d="M 45.609375 66.21875 
Q 37.5 66.21875 31.296875 62.28125 
Q 25.09375 58.34375 20.515625 50.296875 
Q 17.578125 45.171875 16.03125 39.40625 
Q 14.5 33.640625 14.5 27.78125 
Q 14.5 17.625 19.359375 12.109375 
Q 24.21875 6.59375 33.109375 6.59375 
Q 41.109375 6.59375 47.375 10.5625 
Q 53.65625 14.546875 58.109375 22.40625 
Q 61.078125 27.6875 62.640625 33.46875 
Q 64.203125 39.265625 64.203125 45.015625 
Q 64.203125 55.125 59.3125 60.671875 
Q 54.4375 66.21875 45.609375 66.21875 
z
M 32.8125 -1.421875 
Q 19.390625 -1.421875 11.6875 6.53125 
Q 4 14.5 4 28.328125 
Q 4 36.234375 7 44.484375 
Q 10.015625 52.734375 15.28125 59.1875 
Q 21.484375 66.75 29.09375 70.484375 
Q 36.71875 74.21875 45.90625 74.21875 
Q 59.28125 74.21875 66.984375 66.328125 
Q 74.703125 58.453125 74.703125 44.828125 
Q 74.703125 36.421875 71.765625 28.3125 
Q 68.84375 20.21875 63.375 13.625 
Q 57.125 6 49.578125 2.28125 
Q 42.046875 -1.421875 32.8125 -1.421875 
z
" id="DejaVuSans-Oblique-79"/>
      <path d="M 16.890625 72.90625 
L 38.09375 72.90625 
Q 54.984375 72.90625 63.59375 65.75 
Q 72.21875 58.59375 72.21875 44.484375 
Q 72.21875 35.15625 68.9375 26.53125 
Q 65.671875 17.921875 59.90625 12.015625 
Q 54.109375 5.953125 45.171875 2.96875 
Q 36.234375 0 24.03125 0 
L 2.6875 0 
z
M 25.203125 64.796875 
L 14.203125 8.109375 
L 27.09375 8.109375 
Q 43.65625 8.109375 52.734375 17.625 
Q 61.8125 27.15625 61.8125 44.484375 
Q 61.8125 54.984375 55.953125 59.890625 
Q 50.09375 64.796875 37.59375 64.796875 
z
" id="DejaVuSans-Oblique-68"/>
      <path d="M 8.015625 75.875 
L 15.828125 75.875 
Q 23.140625 64.359375 26.78125 53.3125 
Q 30.421875 42.28125 30.421875 31.390625 
Q 30.421875 20.453125 26.78125 9.375 
Q 23.140625 -1.703125 15.828125 -13.1875 
L 8.015625 -13.1875 
Q 14.5 -2 17.703125 9.0625 
Q 20.90625 20.125 20.90625 31.390625 
Q 20.90625 42.671875 17.703125 53.65625 
Q 14.5 64.65625 8.015625 75.875 
z
" id="DejaVuSans-41"/>
      <path d="M 70.125 53.71875 
L 47.796875 31.296875 
L 70.125 8.984375 
L 64.3125 3.078125 
L 41.890625 25.484375 
L 19.484375 3.078125 
L 13.71875 8.984375 
L 35.984375 31.296875 
L 13.71875 53.71875 
L 19.484375 59.625 
L 41.890625 37.203125 
L 64.3125 59.625 
z
" id="DejaVuSans-215"/>
      <path d="M 40.578125 39.3125 
Q 47.65625 37.796875 51.625 33 
Q 55.609375 28.21875 55.609375 21.1875 
Q 55.609375 10.40625 48.1875 4.484375 
Q 40.765625 -1.421875 27.09375 -1.421875 
Q 22.515625 -1.421875 17.65625 -0.515625 
Q 12.796875 0.390625 7.625 2.203125 
L 7.625 11.71875 
Q 11.71875 9.328125 16.59375 8.109375 
Q 21.484375 6.890625 26.8125 6.890625 
Q 36.078125 6.890625 40.9375 10.546875 
Q 45.796875 14.203125 45.796875 21.1875 
Q 45.796875 27.640625 41.28125 31.265625 
Q 36.765625 34.90625 28.71875 34.90625 
L 20.21875 34.90625 
L 20.21875 43.015625 
L 29.109375 43.015625 
Q 36.375 43.015625 40.234375 45.921875 
Q 44.09375 48.828125 44.09375 54.296875 
Q 44.09375 59.90625 40.109375 62.90625 
Q 36.140625 65.921875 28.71875 65.921875 
Q 24.65625 65.921875 20.015625 65.03125 
Q 15.375 64.15625 9.8125 62.3125 
L 9.8125 71.09375 
Q 15.4375 72.65625 20.34375 73.4375 
Q 25.25 74.21875 29.59375 74.21875 
Q 40.828125 74.21875 47.359375 69.109375 
Q 53.90625 64.015625 53.90625 55.328125 
Q 53.90625 49.265625 50.4375 45.09375 
Q 46.96875 40.921875 40.578125 39.3125 
z
" id="DejaVuSans-51"/>
     </defs>
     <g transform="translate(56.641563 278.748)rotate(-90)scale(0.18 -0.18)">
      <use transform="translate(0 0.765625)" xlink:href="#DejaVuSans-40"/>
      <use transform="translate(39.013672 0.765625)" xlink:href="#DejaVuSans-Oblique-82"/>
      <use transform="translate(108.496094 0.765625)" xlink:href="#DejaVuSans-Oblique-70"/>
      <use transform="translate(166.015625 0.765625)" xlink:href="#DejaVuSans-Oblique-85"/>
      <use transform="translate(239.208984 0.765625)" xlink:href="#DejaVuSans-47"/>
      <use transform="translate(272.900391 0.765625)" xlink:href="#DejaVuSans-Oblique-79"/>
      <use transform="translate(351.611328 0.765625)" xlink:href="#DejaVuSans-Oblique-68"/>
      <use transform="translate(428.613281 0.765625)" xlink:href="#DejaVuSans-41"/>
      <use transform="translate(487.109375 0.765625)" xlink:href="#DejaVuSans-215"/>
      <use transform="translate(590.380859 0.765625)" xlink:href="#DejaVuSans-49"/>
      <use transform="translate(654.003906 0.765625)" xlink:href="#DejaVuSans-48"/>
      <use transform="translate(718.583984 39.046875)scale(0.7)" xlink:href="#DejaVuSans-51"/>
     </g>
    </g>
   </g>
   <g id="patch_11">
    <path d="M 92.79 389.16 
L 92.79 30.456 
" style="fill:none;stroke:#000000;stroke-linecap:square;stroke-linejoin:miter;stroke-width:0.8;"/>
   </g>
   <g id="patch_12">
    <path d="M 92.79 389.16 
L 668.088 389.16 
" style="fill:none;stroke:#000000;stroke-linecap:square;stroke-linejoin:miter;stroke-width:0.8;"/>
   </g>
   <g id="text_17">
    <!-- OMT screen with THP4.1 sensor -->
    <defs>
     <path id="DejaVuSans-32"/>
     <path d="M 4.203125 54.6875 
L 13.1875 54.6875 
L 24.421875 12.015625 
L 35.59375 54.6875 
L 46.1875 54.6875 
L 57.421875 12.015625 
L 68.609375 54.6875 
L 77.59375 54.6875 
L 63.28125 0 
L 52.6875 0 
L 40.921875 44.828125 
L 29.109375 0 
L 18.5 0 
z
" id="DejaVuSans-119"/>
     <path d="M 9.421875 54.6875 
L 18.40625 54.6875 
L 18.40625 0 
L 9.421875 0 
z
M 9.421875 75.984375 
L 18.40625 75.984375 
L 18.40625 64.59375 
L 9.421875 64.59375 
z
" id="DejaVuSans-105"/>
     <path d="M 9.8125 72.90625 
L 19.671875 72.90625 
L 19.671875 43.015625 
L 55.515625 43.015625 
L 55.515625 72.90625 
L 65.375 72.90625 
L 65.375 0 
L 55.515625 0 
L 55.515625 34.71875 
L 19.671875 34.71875 
L 19.671875 0 
L 9.8125 0 
z
" id="DejaVuSans-72"/>
     <path d="M 10.6875 12.40625 
L 21 12.40625 
L 21 0 
L 10.6875 0 
z
" id="DejaVuSans-46"/>
     <path d="M 30.609375 48.390625 
Q 23.390625 48.390625 19.1875 42.75 
Q 14.984375 37.109375 14.984375 27.296875 
Q 14.984375 17.484375 19.15625 11.84375 
Q 23.34375 6.203125 30.609375 6.203125 
Q 37.796875 6.203125 41.984375 11.859375 
Q 46.1875 17.53125 46.1875 27.296875 
Q 46.1875 37.015625 41.984375 42.703125 
Q 37.796875 48.390625 30.609375 48.390625 
z
M 30.609375 56 
Q 42.328125 56 49.015625 48.375 
Q 55.71875 40.765625 55.71875 27.296875 
Q 55.71875 13.875 49.015625 6.21875 
Q 42.328125 -1.421875 30.609375 -1.421875 
Q 18.84375 -1.421875 12.171875 6.21875 
Q 5.515625 13.875 5.515625 27.296875 
Q 5.515625 40.765625 12.171875 48.375 
Q 18.84375 56 30.609375 56 
z
" id="DejaVuSans-111"/>
    </defs>
    <g transform="translate(205.875875 24.456)scale(0.22 -0.22)">
     <use xlink:href="#DejaVuSans-79"/>
     <use x="78.710938" xlink:href="#DejaVuSans-77"/>
     <use x="164.990234" xlink:href="#DejaVuSans-84"/>
     <use x="226.074219" xlink:href="#DejaVuSans-32"/>
     <use x="257.861328" xlink:href="#DejaVuSans-115"/>
     <use x="309.960938" xlink:href="#DejaVuSans-99"/>
     <use x="364.941406" xlink:href="#DejaVuSans-114"/>
     <use x="406.023438" xlink:href="#DejaVuSans-101"/>
     <use x="467.546875" xlink:href="#DejaVuSans-101"/>
     <use x="529.070312" xlink:href="#DejaVuSans-110"/>
     <use x="592.449219" xlink:href="#DejaVuSans-32"/>
     <use x="624.236328" xlink:href="#DejaVuSans-119"/>
     <use x="706.023438" xlink:href="#DejaVuSans-105"/>
     <use x="733.806641" xlink:href="#DejaVuSans-116"/>
     <use x="773.015625" xlink:href="#DejaVuSans-104"/>
     <use x="836.394531" xlink:href="#DejaVuSans-32"/>
     <use x="868.181641" xlink:href="#DejaVuSans-84"/>
     <use x="929.265625" xlink:href="#DejaVuSans-72"/>
     <use x="1004.460938" xlink:href="#DejaVuSans-80"/>
     <use x="1064.763672" xlink:href="#DejaVuSans-52"/>
     <use x="1128.386719" xlink:href="#DejaVuSans-46"/>
     <use x="1160.173828" xlink:href="#DejaVuSans-49"/>
     <use x="1223.796875" xlink:href="#DejaVuSans-32"/>
     <use x="1255.583984" xlink:href="#DejaVuSans-115"/>
     <use x="1307.683594" xlink:href="#DejaVuSans-101"/>
     <use x="1369.207031" xlink:href="#DejaVuSans-110"/>
     <use x="1432.585938" xlink:href="#DejaVuSans-115"/>
     <use x="1484.685547" xlink:href="#DejaVuSans-111"/>
     <use x="1545.867188" xlink:href="#DejaVuSans-114"/>
    </g>
   </g>
  </g>
 </g>
 <defs>
  <clipPath id="p2bf915be07">
   <rect height="358.704" width="575.298" x="92.79" y="30.456"/>
  </clipPath>
 </defs>
</svg>
