<?xml version="1.0" encoding="utf-8" standalone="no"?>
<!DOCTYPE svg PUBLIC "-//W3C//DTD SVG 1.1//EN"
  "http://www.w3.org/Graphics/SVG/1.1/DTD/svg11.dtd">
<!-- Created with matplotlib (https://matplotlib.org/) -->
<svg height="473.76pt" version="1.1" viewBox="0 0 864 473.76" width="864pt" xmlns="http://www.w3.org/2000/svg" xmlns:xlink="http://www.w3.org/1999/xlink">
 <defs>
  <style type="text/css">
*{stroke-linecap:butt;stroke-linejoin:round;}
  </style>
 </defs>
 <g id="figure_1">
  <g id="patch_1">
   <path d="M 0 473.76 
L 864 473.76 
L 864 0 
L 0 0 
z
" style="fill:#ffffff;"/>
  </g>
  <g id="axes_1">
   <g id="patch_2">
    <path d="M 108 400.44 
L 777.6 400.44 
L 777.6 56.8512 
L 108 56.8512 
z
" style="fill:#ffffff;"/>
   </g>
   <g id="patch_3">
    <path clip-path="url(#pec312cd59c)" d="M 138.436364 400.44 
L 172.231407 400.44 
L 172.231407 84.691127 
L 138.436364 84.691127 
z
" style="fill:#42b3ff;stroke:#000000;stroke-linejoin:miter;stroke-width:4;"/>
   </g>
   <g id="patch_4">
    <path clip-path="url(#pec312cd59c)" d="M 218.092044 400.44 
L 251.887087 400.44 
L 251.887087 344.488001 
L 218.092044 344.488001 
z
" style="fill:#42b3ff;stroke:#000000;stroke-linejoin:miter;stroke-width:4;"/>
   </g>
   <g id="patch_5">
    <path clip-path="url(#pec312cd59c)" d="M 297.747724 400.44 
L 331.542767 400.44 
L 331.542767 380.344923 
L 297.747724 380.344923 
z
" style="fill:#42b3ff;stroke:#000000;stroke-linejoin:miter;stroke-width:4;"/>
   </g>
   <g id="patch_6">
    <path clip-path="url(#pec312cd59c)" d="M 377.403404 400.44 
L 411.198447 400.44 
L 411.198447 379.359552 
L 377.403404 379.359552 
z
" style="fill:#42b3ff;stroke:#000000;stroke-linejoin:miter;stroke-width:4;"/>
   </g>
   <g id="patch_7">
    <path clip-path="url(#pec312cd59c)" d="M 457.059085 400.44 
L 490.854128 400.44 
L 490.854128 391.610531 
L 457.059085 391.610531 
z
" style="fill:#42b3ff;stroke:#000000;stroke-linejoin:miter;stroke-width:4;"/>
   </g>
   <g id="patch_8">
    <path clip-path="url(#pec312cd59c)" d="M 536.714765 400.44 
L 570.509808 400.44 
L 570.509808 394.052666 
L 536.714765 394.052666 
z
" style="fill:#42b3ff;stroke:#000000;stroke-linejoin:miter;stroke-width:4;"/>
   </g>
   <g id="patch_9">
    <path clip-path="url(#pec312cd59c)" d="M 616.370445 400.44 
L 650.165488 400.44 
L 650.165488 392.817008 
L 616.370445 392.817008 
z
" style="fill:#42b3ff;stroke:#000000;stroke-linejoin:miter;stroke-width:4;"/>
   </g>
   <g id="patch_10">
    <path clip-path="url(#pec312cd59c)" d="M 696.026125 400.44 
L 729.821168 400.44 
L 729.821168 393.412167 
L 696.026125 393.412167 
z
" style="fill:#42b3ff;stroke:#000000;stroke-linejoin:miter;stroke-width:4;"/>
   </g>
   <g id="LineCollection_1">
    <path clip-path="url(#pec312cd59c)" d="M 155.333885 93.317399 
L 155.333885 76.064854 
" style="fill:none;stroke:#000000;stroke-width:2;"/>
   </g>
   <g id="LineCollection_2">
    <path clip-path="url(#pec312cd59c)" d="M 234.989565 347.384766 
L 234.989565 341.591235 
" style="fill:none;stroke:#000000;stroke-width:2;"/>
   </g>
   <g id="LineCollection_3">
    <path clip-path="url(#pec312cd59c)" d="M 314.645246 380.472766 
L 314.645246 380.217079 
" style="fill:none;stroke:#000000;stroke-width:2;"/>
   </g>
   <g id="LineCollection_4">
    <path clip-path="url(#pec312cd59c)" d="M 394.300926 379.924221 
L 394.300926 378.794882 
" style="fill:none;stroke:#000000;stroke-width:2;"/>
   </g>
   <g id="LineCollection_5">
    <path clip-path="url(#pec312cd59c)" d="M 473.956606 391.681783 
L 473.956606 391.539278 
" style="fill:none;stroke:#000000;stroke-width:2;"/>
   </g>
   <g id="LineCollection_6">
    <path clip-path="url(#pec312cd59c)" d="M 553.612286 394.339471 
L 553.612286 393.765861 
" style="fill:none;stroke:#000000;stroke-width:2;"/>
   </g>
   <g id="LineCollection_7">
    <path clip-path="url(#pec312cd59c)" d="M 633.267966 393.010035 
L 633.267966 392.623982 
" style="fill:none;stroke:#000000;stroke-width:2;"/>
   </g>
   <g id="LineCollection_8">
    <path clip-path="url(#pec312cd59c)" d="M 712.923647 393.67893 
L 712.923647 393.145403 
" style="fill:none;stroke:#000000;stroke-width:2;"/>
   </g>
   <g id="line2d_1">
    <defs>
     <path d="M 5 0 
L -5 -0 
" id="me6149566c8" style="stroke:#000000;stroke-width:2;"/>
    </defs>
    <g clip-path="url(#pec312cd59c)">
     <use style="stroke:#000000;stroke-width:2;" x="155.333885" xlink:href="#me6149566c8" y="93.317399"/>
    </g>
   </g>
   <g id="line2d_2">
    <g clip-path="url(#pec312cd59c)">
     <use style="stroke:#000000;stroke-width:2;" x="155.333885" xlink:href="#me6149566c8" y="76.064854"/>
    </g>
   </g>
   <g id="line2d_3">
    <g clip-path="url(#pec312cd59c)">
     <use style="stroke:#000000;stroke-width:2;" x="234.989565" xlink:href="#me6149566c8" y="347.384766"/>
    </g>
   </g>
   <g id="line2d_4">
    <g clip-path="url(#pec312cd59c)">
     <use style="stroke:#000000;stroke-width:2;" x="234.989565" xlink:href="#me6149566c8" y="341.591235"/>
    </g>
   </g>
   <g id="line2d_5">
    <g clip-path="url(#pec312cd59c)">
     <use style="stroke:#000000;stroke-width:2;" x="314.645246" xlink:href="#me6149566c8" y="380.472766"/>
    </g>
   </g>
   <g id="line2d_6">
    <g clip-path="url(#pec312cd59c)">
     <use style="stroke:#000000;stroke-width:2;" x="314.645246" xlink:href="#me6149566c8" y="380.217079"/>
    </g>
   </g>
   <g id="line2d_7">
    <g clip-path="url(#pec312cd59c)">
     <use style="stroke:#000000;stroke-width:2;" x="394.300926" xlink:href="#me6149566c8" y="379.924221"/>
    </g>
   </g>
   <g id="line2d_8">
    <g clip-path="url(#pec312cd59c)">
     <use style="stroke:#000000;stroke-width:2;" x="394.300926" xlink:href="#me6149566c8" y="378.794882"/>
    </g>
   </g>
   <g id="line2d_9">
    <g clip-path="url(#pec312cd59c)">
     <use style="stroke:#000000;stroke-width:2;" x="473.956606" xlink:href="#me6149566c8" y="391.681783"/>
    </g>
   </g>
   <g id="line2d_10">
    <g clip-path="url(#pec312cd59c)">
     <use style="stroke:#000000;stroke-width:2;" x="473.956606" xlink:href="#me6149566c8" y="391.539278"/>
    </g>
   </g>
   <g id="line2d_11">
    <g clip-path="url(#pec312cd59c)">
     <use style="stroke:#000000;stroke-width:2;" x="553.612286" xlink:href="#me6149566c8" y="394.339471"/>
    </g>
   </g>
   <g id="line2d_12">
    <g clip-path="url(#pec312cd59c)">
     <use style="stroke:#000000;stroke-width:2;" x="553.612286" xlink:href="#me6149566c8" y="393.765861"/>
    </g>
   </g>
   <g id="line2d_13">
    <g clip-path="url(#pec312cd59c)">
     <use style="stroke:#000000;stroke-width:2;" x="633.267966" xlink:href="#me6149566c8" y="393.010035"/>
    </g>
   </g>
   <g id="line2d_14">
    <g clip-path="url(#pec312cd59c)">
     <use style="stroke:#000000;stroke-width:2;" x="633.267966" xlink:href="#me6149566c8" y="392.623982"/>
    </g>
   </g>
   <g id="line2d_15">
    <g clip-path="url(#pec312cd59c)">
     <use style="stroke:#000000;stroke-width:2;" x="712.923647" xlink:href="#me6149566c8" y="393.67893"/>
    </g>
   </g>
   <g id="line2d_16">
    <g clip-path="url(#pec312cd59c)">
     <use style="stroke:#000000;stroke-width:2;" x="712.923647" xlink:href="#me6149566c8" y="393.145403"/>
    </g>
   </g>
   <g id="PathCollection_1">
    <path clip-path="url(#pec312cd59c)" d="M 140.333885 86.827785 
C 141.732406 86.827785 143.073835 86.272147 144.062739 85.283243 
C 145.051642 84.29434 145.60728 82.952911 145.60728 81.55439 
C 145.60728 80.155869 145.051642 78.81444 144.062739 77.825536 
C 143.073835 76.836633 141.732406 76.280994 140.333885 76.280994 
C 138.935364 76.280994 137.593935 76.836633 136.605032 77.825536 
C 135.616128 78.81444 135.06049 80.155869 135.06049 81.55439 
C 135.06049 82.952911 135.616128 84.29434 136.605032 85.283243 
C 137.593935 86.272147 138.935364 86.827785 140.333885 86.827785 
z
" style="fill:none;stroke:#000000;stroke-width:2.5;"/>
   </g>
   <g id="PathCollection_2">
    <path clip-path="url(#pec312cd59c)" d="M 155.333885 99.720274 
C 156.732406 99.720274 158.073835 99.164635 159.062739 98.175732 
C 160.051642 97.186828 160.60728 95.845399 160.60728 94.446878 
C 160.60728 93.048357 160.051642 91.706928 159.062739 90.718025 
C 158.073835 89.729121 156.732406 89.173483 155.333885 89.173483 
C 153.935364 89.173483 152.593935 89.729121 151.605032 90.718025 
C 150.616128 91.706928 150.06049 93.048357 150.06049 94.446878 
C 150.06049 95.845399 150.616128 97.186828 151.605032 98.175732 
C 152.593935 99.164635 153.935364 99.720274 155.333885 99.720274 
z
" style="fill:none;stroke:#000000;stroke-width:2.5;"/>
   </g>
   <g id="PathCollection_3">
    <path clip-path="url(#pec312cd59c)" d="M 170.333885 83.345508 
C 171.732406 83.345508 173.073835 82.789869 174.062739 81.800966 
C 175.051642 80.812062 175.60728 79.470633 175.60728 78.072112 
C 175.60728 76.673591 175.051642 75.332162 174.062739 74.343259 
C 173.073835 73.354355 171.732406 72.798717 170.333885 72.798717 
C 168.935364 72.798717 167.593935 73.354355 166.605032 74.343259 
C 165.616128 75.332162 165.06049 76.673591 165.06049 78.072112 
C 165.06049 79.470633 165.616128 80.812062 166.605032 81.800966 
C 167.593935 82.789869 168.935364 83.345508 170.333885 83.345508 
z
" style="fill:none;stroke:#000000;stroke-width:2.5;"/>
   </g>
   <g id="PathCollection_4">
    <path clip-path="url(#pec312cd59c)" d="M 219.989565 351.097518 
C 221.388086 351.097518 222.729515 350.54188 223.718419 349.552976 
C 224.707322 348.564073 225.262961 347.222643 225.262961 345.824123 
C 225.262961 344.425602 224.707322 343.084173 223.718419 342.095269 
C 222.729515 341.106366 221.388086 340.550727 219.989565 340.550727 
C 218.591045 340.550727 217.249615 341.106366 216.260712 342.095269 
C 215.271808 343.084173 214.71617 344.425602 214.71617 345.824123 
C 214.71617 347.222643 215.271808 348.564073 216.260712 349.552976 
C 217.249615 350.54188 218.591045 351.097518 219.989565 351.097518 
z
" style="fill:none;stroke:#000000;stroke-width:2.5;"/>
   </g>
   <g id="PathCollection_5">
    <path clip-path="url(#pec312cd59c)" d="M 234.989565 351.748958 
C 236.388086 351.748958 237.729515 351.19332 238.718419 350.204417 
C 239.707322 349.215513 240.262961 347.874084 240.262961 346.475563 
C 240.262961 345.077042 239.707322 343.735613 238.718419 342.746709 
C 237.729515 341.757806 236.388086 341.202168 234.989565 341.202168 
C 233.591045 341.202168 232.249615 341.757806 231.260712 342.746709 
C 230.271808 343.735613 229.71617 345.077042 229.71617 346.475563 
C 229.71617 347.874084 230.271808 349.215513 231.260712 350.204417 
C 232.249615 351.19332 233.591045 351.748958 234.989565 351.748958 
z
" style="fill:none;stroke:#000000;stroke-width:2.5;"/>
   </g>
   <g id="PathCollection_6">
    <path clip-path="url(#pec312cd59c)" d="M 249.989565 346.437712 
C 251.388086 346.437712 252.729515 345.882073 253.718419 344.89317 
C 254.707322 343.904266 255.262961 342.562837 255.262961 341.164316 
C 255.262961 339.765796 254.707322 338.424366 253.718419 337.435463 
C 252.729515 336.446559 251.388086 335.890921 249.989565 335.890921 
C 248.591045 335.890921 247.249615 336.446559 246.260712 337.435463 
C 245.271808 338.424366 244.71617 339.765796 244.71617 341.164316 
C 244.71617 342.562837 245.271808 343.904266 246.260712 344.89317 
C 247.249615 345.882073 248.591045 346.437712 249.989565 346.437712 
z
" style="fill:none;stroke:#000000;stroke-width:2.5;"/>
   </g>
   <g id="PathCollection_7">
    <path clip-path="url(#pec312cd59c)" d="M 299.645246 385.758233 
C 301.043766 385.758233 302.385196 385.202595 303.374099 384.213691 
C 304.363003 383.224788 304.918641 381.883358 304.918641 380.484838 
C 304.918641 379.086317 304.363003 377.744887 303.374099 376.755984 
C 302.385196 375.76708 301.043766 375.211442 299.645246 375.211442 
C 298.246725 375.211442 296.905296 375.76708 295.916392 376.755984 
C 294.927488 377.744887 294.37185 379.086317 294.37185 380.484838 
C 294.37185 381.883358 294.927488 383.224788 295.916392 384.213691 
C 296.905296 385.202595 298.246725 385.758233 299.645246 385.758233 
z
" style="fill:none;stroke:#000000;stroke-width:2.5;"/>
   </g>
   <g id="PathCollection_8">
    <path clip-path="url(#pec312cd59c)" d="M 314.645246 385.589127 
C 316.043766 385.589127 317.385196 385.033489 318.374099 384.044585 
C 319.363003 383.055682 319.918641 381.714253 319.918641 380.315732 
C 319.918641 378.917211 319.363003 377.575782 318.374099 376.586878 
C 317.385196 375.597975 316.043766 375.042336 314.645246 375.042336 
C 313.246725 375.042336 311.905296 375.597975 310.916392 376.586878 
C 309.927488 377.575782 309.37185 378.917211 309.37185 380.315732 
C 309.37185 381.714253 309.927488 383.055682 310.916392 384.044585 
C 311.905296 385.033489 313.246725 385.589127 314.645246 385.589127 
z
" style="fill:none;stroke:#000000;stroke-width:2.5;"/>
   </g>
   <g id="PathCollection_9">
    <path clip-path="url(#pec312cd59c)" d="M 329.645246 385.507594 
C 331.043766 385.507594 332.385196 384.951956 333.374099 383.963052 
C 334.363003 382.974149 334.918641 381.63272 334.918641 380.234199 
C 334.918641 378.835678 334.363003 377.494249 333.374099 376.505345 
C 332.385196 375.516442 331.043766 374.960803 329.645246 374.960803 
C 328.246725 374.960803 326.905296 375.516442 325.916392 376.505345 
C 324.927488 377.494249 324.37185 378.835678 324.37185 380.234199 
C 324.37185 381.63272 324.927488 382.974149 325.916392 383.963052 
C 326.905296 384.951956 328.246725 385.507594 329.645246 385.507594 
z
" style="fill:none;stroke:#000000;stroke-width:2.5;"/>
   </g>
   <g id="PathCollection_10">
    <path clip-path="url(#pec312cd59c)" d="M 379.300926 385.056446 
C 380.699447 385.056446 382.040876 384.500808 383.029779 383.511904 
C 384.018683 382.523 384.574321 381.181571 384.574321 379.78305 
C 384.574321 378.38453 384.018683 377.0431 383.029779 376.054197 
C 382.040876 375.065293 380.699447 374.509655 379.300926 374.509655 
C 377.902405 374.509655 376.560976 375.065293 375.572072 376.054197 
C 374.583169 377.0431 374.02753 378.38453 374.02753 379.78305 
C 374.02753 381.181571 374.583169 382.523 375.572072 383.511904 
C 376.560976 384.500808 377.902405 385.056446 379.300926 385.056446 
z
" style="fill:none;stroke:#000000;stroke-width:2.5;"/>
   </g>
   <g id="PathCollection_11">
    <path clip-path="url(#pec312cd59c)" d="M 394.300926 383.991851 
C 395.699447 383.991851 397.040876 383.436213 398.029779 382.44731 
C 399.018683 381.458406 399.574321 380.116977 399.574321 378.718456 
C 399.574321 377.319935 399.018683 375.978506 398.029779 374.989603 
C 397.040876 374.000699 395.699447 373.445061 394.300926 373.445061 
C 392.902405 373.445061 391.560976 374.000699 390.572072 374.989603 
C 389.583169 375.978506 389.02753 377.319935 389.02753 378.718456 
C 389.02753 380.116977 389.583169 381.458406 390.572072 382.44731 
C 391.560976 383.436213 392.902405 383.991851 394.300926 383.991851 
z
" style="fill:none;stroke:#000000;stroke-width:2.5;"/>
   </g>
   <g id="PathCollection_12">
    <path clip-path="url(#pec312cd59c)" d="M 409.300926 384.850544 
C 410.699447 384.850544 412.040876 384.294906 413.029779 383.306003 
C 414.018683 382.317099 414.574321 380.97567 414.574321 379.577149 
C 414.574321 378.178628 414.018683 376.837199 413.029779 375.848296 
C 412.040876 374.859392 410.699447 374.303754 409.300926 374.303754 
C 407.902405 374.303754 406.560976 374.859392 405.572072 375.848296 
C 404.583169 376.837199 404.02753 378.178628 404.02753 379.577149 
C 404.02753 380.97567 404.583169 382.317099 405.572072 383.306003 
C 406.560976 384.294906 407.902405 384.850544 409.300926 384.850544 
z
" style="fill:none;stroke:#000000;stroke-width:2.5;"/>
   </g>
   <g id="PathCollection_13">
    <path clip-path="url(#pec312cd59c)" d="M 458.956606 396.836914 
C 460.355127 396.836914 461.696556 396.281276 462.68546 395.292373 
C 463.674363 394.303469 464.230001 392.96204 464.230001 391.563519 
C 464.230001 390.164998 463.674363 388.823569 462.68546 387.834665 
C 461.696556 386.845762 460.355127 386.290124 458.956606 386.290124 
C 457.558085 386.290124 456.216656 386.845762 455.227752 387.834665 
C 454.238849 388.823569 453.683211 390.164998 453.683211 391.563519 
C 453.683211 392.96204 454.238849 394.303469 455.227752 395.292373 
C 456.216656 396.281276 457.558085 396.836914 458.956606 396.836914 
z
" style="fill:none;stroke:#000000;stroke-width:2.5;"/>
   </g>
   <g id="PathCollection_14">
    <path clip-path="url(#pec312cd59c)" d="M 473.956606 396.848956 
C 475.355127 396.848956 476.696556 396.293318 477.68546 395.304414 
C 478.674363 394.315511 479.230001 392.974082 479.230001 391.575561 
C 479.230001 390.17704 478.674363 388.835611 477.68546 387.846707 
C 476.696556 386.857804 475.355127 386.302166 473.956606 386.302166 
C 472.558085 386.302166 471.216656 386.857804 470.227752 387.846707 
C 469.238849 388.835611 468.683211 390.17704 468.683211 391.575561 
C 468.683211 392.974082 469.238849 394.315511 470.227752 395.304414 
C 471.216656 396.293318 472.558085 396.848956 473.956606 396.848956 
z
" style="fill:none;stroke:#000000;stroke-width:2.5;"/>
   </g>
   <g id="PathCollection_15">
    <path clip-path="url(#pec312cd59c)" d="M 488.956606 396.965907 
C 490.355127 396.965907 491.696556 396.410269 492.68546 395.421366 
C 493.674363 394.432462 494.230001 393.091033 494.230001 391.692512 
C 494.230001 390.293991 493.674363 388.952562 492.68546 387.963658 
C 491.696556 386.974755 490.355127 386.419117 488.956606 386.419117 
C 487.558085 386.419117 486.216656 386.974755 485.227752 387.963658 
C 484.238849 388.952562 483.683211 390.293991 483.683211 391.692512 
C 483.683211 393.091033 484.238849 394.432462 485.227752 395.421366 
C 486.216656 396.410269 487.558085 396.965907 488.956606 396.965907 
z
" style="fill:none;stroke:#000000;stroke-width:2.5;"/>
   </g>
   <g id="PathCollection_16">
    <path clip-path="url(#pec312cd59c)" d="M 538.612286 398.996058 
C 540.010807 398.996058 541.352236 398.44042 542.34114 397.451517 
C 543.330043 396.462613 543.885682 395.121184 543.885682 393.722663 
C 543.885682 392.324142 543.330043 390.982713 542.34114 389.993809 
C 541.352236 389.004906 540.010807 388.449268 538.612286 388.449268 
C 537.213765 388.449268 535.872336 389.004906 534.883433 389.993809 
C 533.894529 390.982713 533.338891 392.324142 533.338891 393.722663 
C 533.338891 395.121184 533.894529 396.462613 534.883433 397.451517 
C 535.872336 398.44042 537.213765 398.996058 538.612286 398.996058 
z
" style="fill:none;stroke:#000000;stroke-width:2.5;"/>
   </g>
   <g id="PathCollection_17">
    <path clip-path="url(#pec312cd59c)" d="M 553.612286 399.466963 
C 555.010807 399.466963 556.352236 398.911325 557.34114 397.922421 
C 558.330043 396.933518 558.885682 395.592088 558.885682 394.193568 
C 558.885682 392.795047 558.330043 391.453618 557.34114 390.464714 
C 556.352236 389.47581 555.010807 388.920172 553.612286 388.920172 
C 552.213765 388.920172 550.872336 389.47581 549.883433 390.464714 
C 548.894529 391.453618 548.338891 392.795047 548.338891 394.193568 
C 548.338891 395.592088 548.894529 396.933518 549.883433 397.922421 
C 550.872336 398.911325 552.213765 399.466963 553.612286 399.466963 
z
" style="fill:none;stroke:#000000;stroke-width:2.5;"/>
   </g>
   <g id="PathCollection_18">
    <path clip-path="url(#pec312cd59c)" d="M 568.612286 399.515162 
C 570.010807 399.515162 571.352236 398.959524 572.34114 397.970621 
C 573.330043 396.981717 573.885682 395.640288 573.885682 394.241767 
C 573.885682 392.843246 573.330043 391.501817 572.34114 390.512914 
C 571.352236 389.52401 570.010807 388.968372 568.612286 388.968372 
C 567.213765 388.968372 565.872336 389.52401 564.883433 390.512914 
C 563.894529 391.501817 563.338891 392.843246 563.338891 394.241767 
C 563.338891 395.640288 563.894529 396.981717 564.883433 397.970621 
C 565.872336 398.959524 567.213765 399.515162 568.612286 399.515162 
z
" style="fill:none;stroke:#000000;stroke-width:2.5;"/>
   </g>
   <g id="PathCollection_19">
    <path clip-path="url(#pec312cd59c)" d="M 618.267966 397.948893 
C 619.666487 397.948893 621.007917 397.393255 621.99682 396.404352 
C 622.985724 395.415448 623.541362 394.074019 623.541362 392.675498 
C 623.541362 391.276977 622.985724 389.935548 621.99682 388.946644 
C 621.007917 387.957741 619.666487 387.402103 618.267966 387.402103 
C 616.869446 387.402103 615.528016 387.957741 614.539113 388.946644 
C 613.550209 389.935548 612.994571 391.276977 612.994571 392.675498 
C 612.994571 394.074019 613.550209 395.415448 614.539113 396.404352 
C 615.528016 397.393255 616.869446 397.948893 618.267966 397.948893 
z
" style="fill:none;stroke:#000000;stroke-width:2.5;"/>
   </g>
   <g id="PathCollection_20">
    <path clip-path="url(#pec312cd59c)" d="M 633.267966 398.012026 
C 634.666487 398.012026 636.007917 397.456388 636.99682 396.467485 
C 637.985724 395.478581 638.541362 394.137152 638.541362 392.738631 
C 638.541362 391.34011 637.985724 389.998681 636.99682 389.009777 
C 636.007917 388.020874 634.666487 387.465236 633.267966 387.465236 
C 631.869446 387.465236 630.528016 388.020874 629.539113 389.009777 
C 628.550209 389.998681 627.994571 391.34011 627.994571 392.738631 
C 627.994571 394.137152 628.550209 395.478581 629.539113 396.467485 
C 630.528016 397.456388 631.869446 398.012026 633.267966 398.012026 
z
" style="fill:none;stroke:#000000;stroke-width:2.5;"/>
   </g>
   <g id="PathCollection_21">
    <path clip-path="url(#pec312cd59c)" d="M 648.267966 398.310291 
C 649.666487 398.310291 651.007917 397.754653 651.99682 396.765749 
C 652.985724 395.776846 653.541362 394.435416 653.541362 393.036896 
C 653.541362 391.638375 652.985724 390.296946 651.99682 389.308042 
C 651.007917 388.319139 649.666487 387.7635 648.267966 387.7635 
C 646.869446 387.7635 645.528016 388.319139 644.539113 389.308042 
C 643.550209 390.296946 642.994571 391.638375 642.994571 393.036896 
C 642.994571 394.435416 643.550209 395.776846 644.539113 396.765749 
C 645.528016 397.754653 646.869446 398.310291 648.267966 398.310291 
z
" style="fill:none;stroke:#000000;stroke-width:2.5;"/>
   </g>
   <g id="PathCollection_22">
    <path clip-path="url(#pec312cd59c)" d="M 697.923647 398.753377 
C 699.322167 398.753377 700.663597 398.197739 701.6525 397.208835 
C 702.641404 396.219931 703.197042 394.878502 703.197042 393.479981 
C 703.197042 392.081461 702.641404 390.740031 701.6525 389.751128 
C 700.663597 388.762224 699.322167 388.206586 697.923647 388.206586 
C 696.525126 388.206586 695.183697 388.762224 694.194793 389.751128 
C 693.20589 390.740031 692.650251 392.081461 692.650251 393.479981 
C 692.650251 394.878502 693.20589 396.219931 694.194793 397.208835 
C 695.183697 398.197739 696.525126 398.753377 697.923647 398.753377 
z
" style="fill:none;stroke:#000000;stroke-width:2.5;"/>
   </g>
   <g id="PathCollection_23">
    <path clip-path="url(#pec312cd59c)" d="M 712.923647 398.911873 
C 714.322167 398.911873 715.663597 398.356235 716.6525 397.367331 
C 717.641404 396.378428 718.197042 395.036998 718.197042 393.638478 
C 718.197042 392.239957 717.641404 390.898528 716.6525 389.909624 
C 715.663597 388.920721 714.322167 388.365082 712.923647 388.365082 
C 711.525126 388.365082 710.183697 388.920721 709.194793 389.909624 
C 708.20589 390.898528 707.650251 392.239957 707.650251 393.638478 
C 707.650251 395.036998 708.20589 396.378428 709.194793 397.367331 
C 710.183697 398.356235 711.525126 398.911873 712.923647 398.911873 
z
" style="fill:none;stroke:#000000;stroke-width:2.5;"/>
   </g>
   <g id="PathCollection_24">
    <path clip-path="url(#pec312cd59c)" d="M 727.923647 398.391436 
C 729.322167 398.391436 730.663597 397.835798 731.6525 396.846895 
C 732.641404 395.857991 733.197042 394.516562 733.197042 393.118041 
C 733.197042 391.71952 732.641404 390.378091 731.6525 389.389188 
C 730.663597 388.400284 729.322167 387.844646 727.923647 387.844646 
C 726.525126 387.844646 725.183697 388.400284 724.194793 389.389188 
C 723.20589 390.378091 722.650251 391.71952 722.650251 393.118041 
C 722.650251 394.516562 723.20589 395.857991 724.194793 396.846895 
C 725.183697 397.835798 726.525126 398.391436 727.923647 398.391436 
z
" style="fill:none;stroke:#000000;stroke-width:2.5;"/>
   </g>
   <g id="matplotlib.axis_1">
    <g id="xtick_1">
     <g id="line2d_17">
      <defs>
       <path d="M 0 0 
L 0 2 
" id="m9a0f1edbcc" style="stroke:#000000;"/>
      </defs>
      <g>
       <use style="stroke:#000000;" x="155.333885" xlink:href="#m9a0f1edbcc" y="400.44"/>
      </g>
     </g>
     <g id="text_1">
      <!-- P1000 -->
      <defs>
       <path d="M 19.671875 64.796875 
L 19.671875 37.40625 
L 32.078125 37.40625 
Q 38.96875 37.40625 42.71875 40.96875 
Q 46.484375 44.53125 46.484375 51.125 
Q 46.484375 57.671875 42.71875 61.234375 
Q 38.96875 64.796875 32.078125 64.796875 
z
M 9.8125 72.90625 
L 32.078125 72.90625 
Q 44.34375 72.90625 50.609375 67.359375 
Q 56.890625 61.8125 56.890625 51.125 
Q 56.890625 40.328125 50.609375 34.8125 
Q 44.34375 29.296875 32.078125 29.296875 
L 19.671875 29.296875 
L 19.671875 0 
L 9.8125 0 
z
" id="DejaVuSans-80"/>
       <path d="M 12.40625 8.296875 
L 28.515625 8.296875 
L 28.515625 63.921875 
L 10.984375 60.40625 
L 10.984375 69.390625 
L 28.421875 72.90625 
L 38.28125 72.90625 
L 38.28125 8.296875 
L 54.390625 8.296875 
L 54.390625 0 
L 12.40625 0 
z
" id="DejaVuSans-49"/>
       <path d="M 31.78125 66.40625 
Q 24.171875 66.40625 20.328125 58.90625 
Q 16.5 51.421875 16.5 36.375 
Q 16.5 21.390625 20.328125 13.890625 
Q 24.171875 6.390625 31.78125 6.390625 
Q 39.453125 6.390625 43.28125 13.890625 
Q 47.125 21.390625 47.125 36.375 
Q 47.125 51.421875 43.28125 58.90625 
Q 39.453125 66.40625 31.78125 66.40625 
z
M 31.78125 74.21875 
Q 44.046875 74.21875 50.515625 64.515625 
Q 56.984375 54.828125 56.984375 36.375 
Q 56.984375 17.96875 50.515625 8.265625 
Q 44.046875 -1.421875 31.78125 -1.421875 
Q 19.53125 -1.421875 13.0625 8.265625 
Q 6.59375 17.96875 6.59375 36.375 
Q 6.59375 54.828125 13.0625 64.515625 
Q 19.53125 74.21875 31.78125 74.21875 
z
" id="DejaVuSans-48"/>
      </defs>
      <g transform="translate(140.648161 450.151851)rotate(-45)scale(0.16 -0.16)">
       <use xlink:href="#DejaVuSans-80"/>
       <use x="60.302734" xlink:href="#DejaVuSans-49"/>
       <use x="123.925781" xlink:href="#DejaVuSans-48"/>
       <use x="187.548828" xlink:href="#DejaVuSans-48"/>
       <use x="251.171875" xlink:href="#DejaVuSans-48"/>
      </g>
     </g>
    </g>
    <g id="xtick_2">
     <g id="line2d_18">
      <g>
       <use style="stroke:#000000;" x="234.989565" xlink:href="#m9a0f1edbcc" y="400.44"/>
      </g>
     </g>
     <g id="text_2">
      <!-- P750 -->
      <defs>
       <path d="M 8.203125 72.90625 
L 55.078125 72.90625 
L 55.078125 68.703125 
L 28.609375 0 
L 18.3125 0 
L 43.21875 64.59375 
L 8.203125 64.59375 
z
" id="DejaVuSans-55"/>
       <path d="M 10.796875 72.90625 
L 49.515625 72.90625 
L 49.515625 64.59375 
L 19.828125 64.59375 
L 19.828125 46.734375 
Q 21.96875 47.46875 24.109375 47.828125 
Q 26.265625 48.1875 28.421875 48.1875 
Q 40.625 48.1875 47.75 41.5 
Q 54.890625 34.8125 54.890625 23.390625 
Q 54.890625 11.625 47.5625 5.09375 
Q 40.234375 -1.421875 26.90625 -1.421875 
Q 22.3125 -1.421875 17.546875 -0.640625 
Q 12.796875 0.140625 7.71875 1.703125 
L 7.71875 11.625 
Q 12.109375 9.234375 16.796875 8.0625 
Q 21.484375 6.890625 26.703125 6.890625 
Q 35.15625 6.890625 40.078125 11.328125 
Q 45.015625 15.765625 45.015625 23.390625 
Q 45.015625 31 40.078125 35.4375 
Q 35.15625 39.890625 26.703125 39.890625 
Q 22.75 39.890625 18.8125 39.015625 
Q 14.890625 38.140625 10.796875 36.28125 
z
" id="DejaVuSans-53"/>
      </defs>
      <g transform="translate(223.903015 442.953504)rotate(-45)scale(0.16 -0.16)">
       <use xlink:href="#DejaVuSans-80"/>
       <use x="60.302734" xlink:href="#DejaVuSans-55"/>
       <use x="123.925781" xlink:href="#DejaVuSans-53"/>
       <use x="187.548828" xlink:href="#DejaVuSans-48"/>
      </g>
     </g>
    </g>
    <g id="xtick_3">
     <g id="line2d_19">
      <g>
       <use style="stroke:#000000;" x="314.645246" xlink:href="#m9a0f1edbcc" y="400.44"/>
      </g>
     </g>
     <g id="text_3">
      <!-- P500 -->
      <g transform="translate(303.558695 442.953504)rotate(-45)scale(0.16 -0.16)">
       <use xlink:href="#DejaVuSans-80"/>
       <use x="60.302734" xlink:href="#DejaVuSans-53"/>
       <use x="123.925781" xlink:href="#DejaVuSans-48"/>
       <use x="187.548828" xlink:href="#DejaVuSans-48"/>
      </g>
     </g>
    </g>
    <g id="xtick_4">
     <g id="line2d_20">
      <g>
       <use style="stroke:#000000;" x="394.300926" xlink:href="#m9a0f1edbcc" y="400.44"/>
      </g>
     </g>
     <g id="text_4">
      <!-- P250 -->
      <defs>
       <path d="M 19.1875 8.296875 
L 53.609375 8.296875 
L 53.609375 0 
L 7.328125 0 
L 7.328125 8.296875 
Q 12.9375 14.109375 22.625 23.890625 
Q 32.328125 33.6875 34.8125 36.53125 
Q 39.546875 41.84375 41.421875 45.53125 
Q 43.3125 49.21875 43.3125 52.78125 
Q 43.3125 58.59375 39.234375 62.25 
Q 35.15625 65.921875 28.609375 65.921875 
Q 23.96875 65.921875 18.8125 64.3125 
Q 13.671875 62.703125 7.8125 59.421875 
L 7.8125 69.390625 
Q 13.765625 71.78125 18.9375 73 
Q 24.125 74.21875 28.421875 74.21875 
Q 39.75 74.21875 46.484375 68.546875 
Q 53.21875 62.890625 53.21875 53.421875 
Q 53.21875 48.921875 51.53125 44.890625 
Q 49.859375 40.875 45.40625 35.40625 
Q 44.1875 33.984375 37.640625 27.21875 
Q 31.109375 20.453125 19.1875 8.296875 
z
" id="DejaVuSans-50"/>
      </defs>
      <g transform="translate(383.214375 442.953504)rotate(-45)scale(0.16 -0.16)">
       <use xlink:href="#DejaVuSans-80"/>
       <use x="60.302734" xlink:href="#DejaVuSans-50"/>
       <use x="123.925781" xlink:href="#DejaVuSans-53"/>
       <use x="187.548828" xlink:href="#DejaVuSans-48"/>
      </g>
     </g>
    </g>
    <g id="xtick_5">
     <g id="line2d_21">
      <g>
       <use style="stroke:#000000;" x="473.956606" xlink:href="#m9a0f1edbcc" y="400.44"/>
      </g>
     </g>
     <g id="text_5">
      <!-- P150 -->
      <g transform="translate(462.870056 442.953504)rotate(-45)scale(0.16 -0.16)">
       <use xlink:href="#DejaVuSans-80"/>
       <use x="60.302734" xlink:href="#DejaVuSans-49"/>
       <use x="123.925781" xlink:href="#DejaVuSans-53"/>
       <use x="187.548828" xlink:href="#DejaVuSans-48"/>
      </g>
     </g>
    </g>
    <g id="xtick_6">
     <g id="line2d_22">
      <g>
       <use style="stroke:#000000;" x="553.612286" xlink:href="#m9a0f1edbcc" y="400.44"/>
      </g>
     </g>
     <g id="text_6">
      <!-- P50 -->
      <g transform="translate(546.124909 435.755157)rotate(-45)scale(0.16 -0.16)">
       <use xlink:href="#DejaVuSans-80"/>
       <use x="60.302734" xlink:href="#DejaVuSans-53"/>
       <use x="123.925781" xlink:href="#DejaVuSans-48"/>
      </g>
     </g>
    </g>
    <g id="xtick_7">
     <g id="line2d_23">
      <g>
       <use style="stroke:#000000;" x="633.267966" xlink:href="#m9a0f1edbcc" y="400.44"/>
      </g>
     </g>
     <g id="text_7">
      <!-- P10 -->
      <g transform="translate(625.78059 435.755157)rotate(-45)scale(0.16 -0.16)">
       <use xlink:href="#DejaVuSans-80"/>
       <use x="60.302734" xlink:href="#DejaVuSans-49"/>
       <use x="123.925781" xlink:href="#DejaVuSans-48"/>
      </g>
     </g>
    </g>
    <g id="xtick_8">
     <g id="line2d_24">
      <g>
       <use style="stroke:#000000;" x="712.923647" xlink:href="#m9a0f1edbcc" y="400.44"/>
      </g>
     </g>
     <g id="text_8">
      <!-- P1 -->
      <g transform="translate(709.035443 428.55681)rotate(-45)scale(0.16 -0.16)">
       <use xlink:href="#DejaVuSans-80"/>
       <use x="60.302734" xlink:href="#DejaVuSans-49"/>
      </g>
     </g>
    </g>
    <g id="text_9">
     <!-- Promoter -->
     <defs>
      <path d="M 41.109375 46.296875 
Q 39.59375 47.171875 37.8125 47.578125 
Q 36.03125 48 33.890625 48 
Q 26.265625 48 22.1875 43.046875 
Q 18.109375 38.09375 18.109375 28.8125 
L 18.109375 0 
L 9.078125 0 
L 9.078125 54.6875 
L 18.109375 54.6875 
L 18.109375 46.1875 
Q 20.953125 51.171875 25.484375 53.578125 
Q 30.03125 56 36.53125 56 
Q 37.453125 56 38.578125 55.875 
Q 39.703125 55.765625 41.0625 55.515625 
z
" id="DejaVuSans-114"/>
      <path d="M 30.609375 48.390625 
Q 23.390625 48.390625 19.1875 42.75 
Q 14.984375 37.109375 14.984375 27.296875 
Q 14.984375 17.484375 19.15625 11.84375 
Q 23.34375 6.203125 30.609375 6.203125 
Q 37.796875 6.203125 41.984375 11.859375 
Q 46.1875 17.53125 46.1875 27.296875 
Q 46.1875 37.015625 41.984375 42.703125 
Q 37.796875 48.390625 30.609375 48.390625 
z
M 30.609375 56 
Q 42.328125 56 49.015625 48.375 
Q 55.71875 40.765625 55.71875 27.296875 
Q 55.71875 13.875 49.015625 6.21875 
Q 42.328125 -1.421875 30.609375 -1.421875 
Q 18.84375 -1.421875 12.171875 6.21875 
Q 5.515625 13.875 5.515625 27.296875 
Q 5.515625 40.765625 12.171875 48.375 
Q 18.84375 56 30.609375 56 
z
" id="DejaVuSans-111"/>
      <path d="M 52 44.1875 
Q 55.375 50.25 60.0625 53.125 
Q 64.75 56 71.09375 56 
Q 79.640625 56 84.28125 50.015625 
Q 88.921875 44.046875 88.921875 33.015625 
L 88.921875 0 
L 79.890625 0 
L 79.890625 32.71875 
Q 79.890625 40.578125 77.09375 44.375 
Q 74.3125 48.1875 68.609375 48.1875 
Q 61.625 48.1875 57.5625 43.546875 
Q 53.515625 38.921875 53.515625 30.90625 
L 53.515625 0 
L 44.484375 0 
L 44.484375 32.71875 
Q 44.484375 40.625 41.703125 44.40625 
Q 38.921875 48.1875 33.109375 48.1875 
Q 26.21875 48.1875 22.15625 43.53125 
Q 18.109375 38.875 18.109375 30.90625 
L 18.109375 0 
L 9.078125 0 
L 9.078125 54.6875 
L 18.109375 54.6875 
L 18.109375 46.1875 
Q 21.1875 51.21875 25.484375 53.609375 
Q 29.78125 56 35.6875 56 
Q 41.65625 56 45.828125 52.96875 
Q 50 49.953125 52 44.1875 
z
" id="DejaVuSans-109"/>
      <path d="M 18.3125 70.21875 
L 18.3125 54.6875 
L 36.8125 54.6875 
L 36.8125 47.703125 
L 18.3125 47.703125 
L 18.3125 18.015625 
Q 18.3125 11.328125 20.140625 9.421875 
Q 21.96875 7.515625 27.59375 7.515625 
L 36.8125 7.515625 
L 36.8125 0 
L 27.59375 0 
Q 17.1875 0 13.234375 3.875 
Q 9.28125 7.765625 9.28125 18.015625 
L 9.28125 47.703125 
L 2.6875 47.703125 
L 2.6875 54.6875 
L 9.28125 54.6875 
L 9.28125 70.21875 
z
" id="DejaVuSans-116"/>
      <path d="M 56.203125 29.59375 
L 56.203125 25.203125 
L 14.890625 25.203125 
Q 15.484375 15.921875 20.484375 11.0625 
Q 25.484375 6.203125 34.421875 6.203125 
Q 39.59375 6.203125 44.453125 7.46875 
Q 49.3125 8.734375 54.109375 11.28125 
L 54.109375 2.78125 
Q 49.265625 0.734375 44.1875 -0.34375 
Q 39.109375 -1.421875 33.890625 -1.421875 
Q 20.796875 -1.421875 13.15625 6.1875 
Q 5.515625 13.8125 5.515625 26.8125 
Q 5.515625 40.234375 12.765625 48.109375 
Q 20.015625 56 32.328125 56 
Q 43.359375 56 49.78125 48.890625 
Q 56.203125 41.796875 56.203125 29.59375 
z
M 47.21875 32.234375 
Q 47.125 39.59375 43.09375 43.984375 
Q 39.0625 48.390625 32.421875 48.390625 
Q 24.90625 48.390625 20.390625 44.140625 
Q 15.875 39.890625 15.1875 32.171875 
z
" id="DejaVuSans-101"/>
     </defs>
     <g transform="translate(401.131406 470.181937)scale(0.18 -0.18)">
      <use xlink:href="#DejaVuSans-80"/>
      <use x="60.287109" xlink:href="#DejaVuSans-114"/>
      <use x="101.369141" xlink:href="#DejaVuSans-111"/>
      <use x="162.550781" xlink:href="#DejaVuSans-109"/>
      <use x="259.962891" xlink:href="#DejaVuSans-111"/>
      <use x="321.144531" xlink:href="#DejaVuSans-116"/>
      <use x="360.353516" xlink:href="#DejaVuSans-101"/>
      <use x="421.876953" xlink:href="#DejaVuSans-114"/>
     </g>
    </g>
   </g>
   <g id="matplotlib.axis_2">
    <g id="ytick_1">
     <g id="line2d_25">
      <defs>
       <path d="M 0 0 
L -2 0 
" id="m79fa81bce5" style="stroke:#000000;"/>
      </defs>
      <g>
       <use style="stroke:#000000;" x="108" xlink:href="#m79fa81bce5" y="400.44"/>
      </g>
     </g>
     <g id="text_10">
      <!-- 0.00 -->
      <defs>
       <path d="M 10.6875 12.40625 
L 21 12.40625 
L 21 0 
L 10.6875 0 
z
" id="DejaVuSans-46"/>
      </defs>
      <g transform="translate(62.421875 407.278594)scale(0.18 -0.18)">
       <use xlink:href="#DejaVuSans-48"/>
       <use x="63.623047" xlink:href="#DejaVuSans-46"/>
       <use x="95.410156" xlink:href="#DejaVuSans-48"/>
       <use x="159.033203" xlink:href="#DejaVuSans-48"/>
      </g>
     </g>
    </g>
    <g id="ytick_2">
     <g id="line2d_26">
      <g>
       <use style="stroke:#000000;" x="108" xlink:href="#m79fa81bce5" y="360.705751"/>
      </g>
     </g>
     <g id="text_11">
      <!-- 0.25 -->
      <g transform="translate(62.421875 367.544345)scale(0.18 -0.18)">
       <use xlink:href="#DejaVuSans-48"/>
       <use x="63.623047" xlink:href="#DejaVuSans-46"/>
       <use x="95.410156" xlink:href="#DejaVuSans-50"/>
       <use x="159.033203" xlink:href="#DejaVuSans-53"/>
      </g>
     </g>
    </g>
    <g id="ytick_3">
     <g id="line2d_27">
      <g>
       <use style="stroke:#000000;" x="108" xlink:href="#m79fa81bce5" y="320.971502"/>
      </g>
     </g>
     <g id="text_12">
      <!-- 0.50 -->
      <g transform="translate(62.421875 327.810095)scale(0.18 -0.18)">
       <use xlink:href="#DejaVuSans-48"/>
       <use x="63.623047" xlink:href="#DejaVuSans-46"/>
       <use x="95.410156" xlink:href="#DejaVuSans-53"/>
       <use x="159.033203" xlink:href="#DejaVuSans-48"/>
      </g>
     </g>
    </g>
    <g id="ytick_4">
     <g id="line2d_28">
      <g>
       <use style="stroke:#000000;" x="108" xlink:href="#m79fa81bce5" y="281.237253"/>
      </g>
     </g>
     <g id="text_13">
      <!-- 0.75 -->
      <g transform="translate(62.421875 288.075846)scale(0.18 -0.18)">
       <use xlink:href="#DejaVuSans-48"/>
       <use x="63.623047" xlink:href="#DejaVuSans-46"/>
       <use x="95.410156" xlink:href="#DejaVuSans-55"/>
       <use x="159.033203" xlink:href="#DejaVuSans-53"/>
      </g>
     </g>
    </g>
    <g id="ytick_5">
     <g id="line2d_29">
      <g>
       <use style="stroke:#000000;" x="108" xlink:href="#m79fa81bce5" y="241.503003"/>
      </g>
     </g>
     <g id="text_14">
      <!-- 1.00 -->
      <g transform="translate(62.421875 248.341597)scale(0.18 -0.18)">
       <use xlink:href="#DejaVuSans-49"/>
       <use x="63.623047" xlink:href="#DejaVuSans-46"/>
       <use x="95.410156" xlink:href="#DejaVuSans-48"/>
       <use x="159.033203" xlink:href="#DejaVuSans-48"/>
      </g>
     </g>
    </g>
    <g id="ytick_6">
     <g id="line2d_30">
      <g>
       <use style="stroke:#000000;" x="108" xlink:href="#m79fa81bce5" y="201.768754"/>
      </g>
     </g>
     <g id="text_15">
      <!-- 1.25 -->
      <g transform="translate(62.421875 208.607348)scale(0.18 -0.18)">
       <use xlink:href="#DejaVuSans-49"/>
       <use x="63.623047" xlink:href="#DejaVuSans-46"/>
       <use x="95.410156" xlink:href="#DejaVuSans-50"/>
       <use x="159.033203" xlink:href="#DejaVuSans-53"/>
      </g>
     </g>
    </g>
    <g id="ytick_7">
     <g id="line2d_31">
      <g>
       <use style="stroke:#000000;" x="108" xlink:href="#m79fa81bce5" y="162.034505"/>
      </g>
     </g>
     <g id="text_16">
      <!-- 1.50 -->
      <g transform="translate(62.421875 168.873099)scale(0.18 -0.18)">
       <use xlink:href="#DejaVuSans-49"/>
       <use x="63.623047" xlink:href="#DejaVuSans-46"/>
       <use x="95.410156" xlink:href="#DejaVuSans-53"/>
       <use x="159.033203" xlink:href="#DejaVuSans-48"/>
      </g>
     </g>
    </g>
    <g id="ytick_8">
     <g id="line2d_32">
      <g>
       <use style="stroke:#000000;" x="108" xlink:href="#m79fa81bce5" y="122.300256"/>
      </g>
     </g>
     <g id="text_17">
      <!-- 1.75 -->
      <g transform="translate(62.421875 129.13885)scale(0.18 -0.18)">
       <use xlink:href="#DejaVuSans-49"/>
       <use x="63.623047" xlink:href="#DejaVuSans-46"/>
       <use x="95.410156" xlink:href="#DejaVuSans-55"/>
       <use x="159.033203" xlink:href="#DejaVuSans-53"/>
      </g>
     </g>
    </g>
    <g id="ytick_9">
     <g id="line2d_33">
      <g>
       <use style="stroke:#000000;" x="108" xlink:href="#m79fa81bce5" y="82.566007"/>
      </g>
     </g>
     <g id="text_18">
      <!-- 2.00 -->
      <g transform="translate(62.421875 89.4046)scale(0.18 -0.18)">
       <use xlink:href="#DejaVuSans-50"/>
       <use x="63.623047" xlink:href="#DejaVuSans-46"/>
       <use x="95.410156" xlink:href="#DejaVuSans-48"/>
       <use x="159.033203" xlink:href="#DejaVuSans-48"/>
      </g>
     </g>
    </g>
    <g id="text_19">
     <!-- $(RFU/OD) \times 10^3$ -->
     <defs>
      <path d="M 31 75.875 
Q 24.46875 64.65625 21.28125 53.65625 
Q 18.109375 42.671875 18.109375 31.390625 
Q 18.109375 20.125 21.3125 9.0625 
Q 24.515625 -2 31 -13.1875 
L 23.1875 -13.1875 
Q 15.875 -1.703125 12.234375 9.375 
Q 8.59375 20.453125 8.59375 31.390625 
Q 8.59375 42.28125 12.203125 53.3125 
Q 15.828125 64.359375 23.1875 75.875 
z
" id="DejaVuSans-40"/>
      <path d="M 25.203125 64.796875 
L 20.21875 38.921875 
L 32.90625 38.921875 
Q 40.375 38.921875 44.984375 43.046875 
Q 49.609375 47.171875 49.609375 53.8125 
Q 49.609375 59.125 46.5 61.953125 
Q 43.40625 64.796875 37.59375 64.796875 
z
M 43.3125 35.015625 
Q 46.4375 34.28125 48.515625 31.390625 
Q 50.59375 28.515625 53.328125 19.921875 
L 59.515625 0 
L 49.125 0 
L 43.40625 18.703125 
Q 41.21875 25.921875 38.328125 28.359375 
Q 35.453125 30.8125 29.5 30.8125 
L 18.609375 30.8125 
L 12.59375 0 
L 2.6875 0 
L 16.890625 72.90625 
L 39.109375 72.90625 
Q 49.21875 72.90625 54.609375 68.328125 
Q 60.015625 63.765625 60.015625 55.171875 
Q 60.015625 47.5625 55.421875 41.984375 
Q 50.828125 36.421875 43.3125 35.015625 
z
" id="DejaVuSans-Oblique-82"/>
      <path d="M 16.890625 72.90625 
L 58.6875 72.90625 
L 57.078125 64.59375 
L 25.09375 64.59375 
L 20.90625 43.109375 
L 49.8125 43.109375 
L 48.1875 34.8125 
L 19.28125 34.8125 
L 12.5 0 
L 2.6875 0 
z
" id="DejaVuSans-Oblique-70"/>
      <path d="M 15.484375 72.90625 
L 25.390625 72.90625 
L 16.796875 28.609375 
Q 16.265625 25.640625 16.046875 23.703125 
Q 15.828125 21.78125 15.828125 20.3125 
Q 15.828125 13.578125 19.578125 10.078125 
Q 23.34375 6.59375 30.609375 6.59375 
Q 40.046875 6.59375 45.28125 11.765625 
Q 50.53125 16.9375 52.78125 28.609375 
L 61.375 72.90625 
L 71.296875 72.90625 
L 62.5 27.390625 
Q 59.625 12.640625 51.5625 5.609375 
Q 43.5 -1.421875 29.5 -1.421875 
Q 18.5625 -1.421875 12.1875 4.078125 
Q 5.8125 9.578125 5.8125 19 
Q 5.8125 20.703125 6.046875 22.828125 
Q 6.296875 24.953125 6.78125 27.390625 
z
" id="DejaVuSans-Oblique-85"/>
      <path d="M 25.390625 72.90625 
L 33.6875 72.90625 
L 8.296875 -9.28125 
L 0 -9.28125 
z
" id="DejaVuSans-47"/>
      <path d="M 45.609375 66.21875 
Q 37.5 66.21875 31.296875 62.28125 
Q 25.09375 58.34375 20.515625 50.296875 
Q 17.578125 45.171875 16.03125 39.40625 
Q 14.5 33.640625 14.5 27.78125 
Q 14.5 17.625 19.359375 12.109375 
Q 24.21875 6.59375 33.109375 6.59375 
Q 41.109375 6.59375 47.375 10.5625 
Q 53.65625 14.546875 58.109375 22.40625 
Q 61.078125 27.6875 62.640625 33.46875 
Q 64.203125 39.265625 64.203125 45.015625 
Q 64.203125 55.125 59.3125 60.671875 
Q 54.4375 66.21875 45.609375 66.21875 
z
M 32.8125 -1.421875 
Q 19.390625 -1.421875 11.6875 6.53125 
Q 4 14.5 4 28.328125 
Q 4 36.234375 7 44.484375 
Q 10.015625 52.734375 15.28125 59.1875 
Q 21.484375 66.75 29.09375 70.484375 
Q 36.71875 74.21875 45.90625 74.21875 
Q 59.28125 74.21875 66.984375 66.328125 
Q 74.703125 58.453125 74.703125 44.828125 
Q 74.703125 36.421875 71.765625 28.3125 
Q 68.84375 20.21875 63.375 13.625 
Q 57.125 6 49.578125 2.28125 
Q 42.046875 -1.421875 32.8125 -1.421875 
z
" id="DejaVuSans-Oblique-79"/>
      <path d="M 16.890625 72.90625 
L 38.09375 72.90625 
Q 54.984375 72.90625 63.59375 65.75 
Q 72.21875 58.59375 72.21875 44.484375 
Q 72.21875 35.15625 68.9375 26.53125 
Q 65.671875 17.921875 59.90625 12.015625 
Q 54.109375 5.953125 45.171875 2.96875 
Q 36.234375 0 24.03125 0 
L 2.6875 0 
z
M 25.203125 64.796875 
L 14.203125 8.109375 
L 27.09375 8.109375 
Q 43.65625 8.109375 52.734375 17.625 
Q 61.8125 27.15625 61.8125 44.484375 
Q 61.8125 54.984375 55.953125 59.890625 
Q 50.09375 64.796875 37.59375 64.796875 
z
" id="DejaVuSans-Oblique-68"/>
      <path d="M 8.015625 75.875 
L 15.828125 75.875 
Q 23.140625 64.359375 26.78125 53.3125 
Q 30.421875 42.28125 30.421875 31.390625 
Q 30.421875 20.453125 26.78125 9.375 
Q 23.140625 -1.703125 15.828125 -13.1875 
L 8.015625 -13.1875 
Q 14.5 -2 17.703125 9.0625 
Q 20.90625 20.125 20.90625 31.390625 
Q 20.90625 42.671875 17.703125 53.65625 
Q 14.5 64.65625 8.015625 75.875 
z
" id="DejaVuSans-41"/>
      <path d="M 70.125 53.71875 
L 47.796875 31.296875 
L 70.125 8.984375 
L 64.3125 3.078125 
L 41.890625 25.484375 
L 19.484375 3.078125 
L 13.71875 8.984375 
L 35.984375 31.296875 
L 13.71875 53.71875 
L 19.484375 59.625 
L 41.890625 37.203125 
L 64.3125 59.625 
z
" id="DejaVuSans-215"/>
      <path d="M 40.578125 39.3125 
Q 47.65625 37.796875 51.625 33 
Q 55.609375 28.21875 55.609375 21.1875 
Q 55.609375 10.40625 48.1875 4.484375 
Q 40.765625 -1.421875 27.09375 -1.421875 
Q 22.515625 -1.421875 17.65625 -0.515625 
Q 12.796875 0.390625 7.625 2.203125 
L 7.625 11.71875 
Q 11.71875 9.328125 16.59375 8.109375 
Q 21.484375 6.890625 26.8125 6.890625 
Q 36.078125 6.890625 40.9375 10.546875 
Q 45.796875 14.203125 45.796875 21.1875 
Q 45.796875 27.640625 41.28125 31.265625 
Q 36.765625 34.90625 28.71875 34.90625 
L 20.21875 34.90625 
L 20.21875 43.015625 
L 29.109375 43.015625 
Q 36.375 43.015625 40.234375 45.921875 
Q 44.09375 48.828125 44.09375 54.296875 
Q 44.09375 59.90625 40.109375 62.90625 
Q 36.140625 65.921875 28.71875 65.921875 
Q 24.65625 65.921875 20.015625 65.03125 
Q 15.375 64.15625 9.8125 62.3125 
L 9.8125 71.09375 
Q 15.4375 72.65625 20.34375 73.4375 
Q 25.25 74.21875 29.59375 74.21875 
Q 40.828125 74.21875 47.359375 69.109375 
Q 53.90625 64.015625 53.90625 55.328125 
Q 53.90625 49.265625 50.4375 45.09375 
Q 46.96875 40.921875 40.578125 39.3125 
z
" id="DejaVuSans-51"/>
     </defs>
     <g transform="translate(54.678438 297.5856)rotate(-90)scale(0.18 -0.18)">
      <use transform="translate(0 0.765625)" xlink:href="#DejaVuSans-40"/>
      <use transform="translate(39.013672 0.765625)" xlink:href="#DejaVuSans-Oblique-82"/>
      <use transform="translate(108.496094 0.765625)" xlink:href="#DejaVuSans-Oblique-70"/>
      <use transform="translate(166.015625 0.765625)" xlink:href="#DejaVuSans-Oblique-85"/>
      <use transform="translate(239.208984 0.765625)" xlink:href="#DejaVuSans-47"/>
      <use transform="translate(272.900391 0.765625)" xlink:href="#DejaVuSans-Oblique-79"/>
      <use transform="translate(351.611328 0.765625)" xlink:href="#DejaVuSans-Oblique-68"/>
      <use transform="translate(428.613281 0.765625)" xlink:href="#DejaVuSans-41"/>
      <use transform="translate(487.109375 0.765625)" xlink:href="#DejaVuSans-215"/>
      <use transform="translate(590.380859 0.765625)" xlink:href="#DejaVuSans-49"/>
      <use transform="translate(654.003906 0.765625)" xlink:href="#DejaVuSans-48"/>
      <use transform="translate(718.583984 39.046875)scale(0.7)" xlink:href="#DejaVuSans-51"/>
     </g>
    </g>
   </g>
   <g id="patch_11">
    <path d="M 108 400.44 
L 108 56.8512 
" style="fill:none;stroke:#000000;stroke-linecap:square;stroke-linejoin:miter;stroke-width:0.8;"/>
   </g>
   <g id="patch_12">
    <path d="M 108 400.44 
L 777.6 400.44 
" style="fill:none;stroke:#000000;stroke-linecap:square;stroke-linejoin:miter;stroke-width:0.8;"/>
   </g>
   <g id="text_20">
    <!-- Pcamr promoter comparison uninduced -->
    <defs>
     <path d="M 48.78125 52.59375 
L 48.78125 44.1875 
Q 44.96875 46.296875 41.140625 47.34375 
Q 37.3125 48.390625 33.40625 48.390625 
Q 24.65625 48.390625 19.8125 42.84375 
Q 14.984375 37.3125 14.984375 27.296875 
Q 14.984375 17.28125 19.8125 11.734375 
Q 24.65625 6.203125 33.40625 6.203125 
Q 37.3125 6.203125 41.140625 7.25 
Q 44.96875 8.296875 48.78125 10.40625 
L 48.78125 2.09375 
Q 45.015625 0.34375 40.984375 -0.53125 
Q 36.96875 -1.421875 32.421875 -1.421875 
Q 20.0625 -1.421875 12.78125 6.34375 
Q 5.515625 14.109375 5.515625 27.296875 
Q 5.515625 40.671875 12.859375 48.328125 
Q 20.21875 56 33.015625 56 
Q 37.15625 56 41.109375 55.140625 
Q 45.0625 54.296875 48.78125 52.59375 
z
" id="DejaVuSans-99"/>
     <path d="M 34.28125 27.484375 
Q 23.390625 27.484375 19.1875 25 
Q 14.984375 22.515625 14.984375 16.5 
Q 14.984375 11.71875 18.140625 8.90625 
Q 21.296875 6.109375 26.703125 6.109375 
Q 34.1875 6.109375 38.703125 11.40625 
Q 43.21875 16.703125 43.21875 25.484375 
L 43.21875 27.484375 
z
M 52.203125 31.203125 
L 52.203125 0 
L 43.21875 0 
L 43.21875 8.296875 
Q 40.140625 3.328125 35.546875 0.953125 
Q 30.953125 -1.421875 24.3125 -1.421875 
Q 15.921875 -1.421875 10.953125 3.296875 
Q 6 8.015625 6 15.921875 
Q 6 25.140625 12.171875 29.828125 
Q 18.359375 34.515625 30.609375 34.515625 
L 43.21875 34.515625 
L 43.21875 35.40625 
Q 43.21875 41.609375 39.140625 45 
Q 35.0625 48.390625 27.6875 48.390625 
Q 23 48.390625 18.546875 47.265625 
Q 14.109375 46.140625 10.015625 43.890625 
L 10.015625 52.203125 
Q 14.9375 54.109375 19.578125 55.046875 
Q 24.21875 56 28.609375 56 
Q 40.484375 56 46.34375 49.84375 
Q 52.203125 43.703125 52.203125 31.203125 
z
" id="DejaVuSans-97"/>
     <path id="DejaVuSans-32"/>
     <path d="M 18.109375 8.203125 
L 18.109375 -20.796875 
L 9.078125 -20.796875 
L 9.078125 54.6875 
L 18.109375 54.6875 
L 18.109375 46.390625 
Q 20.953125 51.265625 25.265625 53.625 
Q 29.59375 56 35.59375 56 
Q 45.5625 56 51.78125 48.09375 
Q 58.015625 40.1875 58.015625 27.296875 
Q 58.015625 14.40625 51.78125 6.484375 
Q 45.5625 -1.421875 35.59375 -1.421875 
Q 29.59375 -1.421875 25.265625 0.953125 
Q 20.953125 3.328125 18.109375 8.203125 
z
M 48.6875 27.296875 
Q 48.6875 37.203125 44.609375 42.84375 
Q 40.53125 48.484375 33.40625 48.484375 
Q 26.265625 48.484375 22.1875 42.84375 
Q 18.109375 37.203125 18.109375 27.296875 
Q 18.109375 17.390625 22.1875 11.75 
Q 26.265625 6.109375 33.40625 6.109375 
Q 40.53125 6.109375 44.609375 11.75 
Q 48.6875 17.390625 48.6875 27.296875 
z
" id="DejaVuSans-112"/>
     <path d="M 9.421875 54.6875 
L 18.40625 54.6875 
L 18.40625 0 
L 9.421875 0 
z
M 9.421875 75.984375 
L 18.40625 75.984375 
L 18.40625 64.59375 
L 9.421875 64.59375 
z
" id="DejaVuSans-105"/>
     <path d="M 44.28125 53.078125 
L 44.28125 44.578125 
Q 40.484375 46.53125 36.375 47.5 
Q 32.28125 48.484375 27.875 48.484375 
Q 21.1875 48.484375 17.84375 46.4375 
Q 14.5 44.390625 14.5 40.28125 
Q 14.5 37.15625 16.890625 35.375 
Q 19.28125 33.59375 26.515625 31.984375 
L 29.59375 31.296875 
Q 39.15625 29.25 43.1875 25.515625 
Q 47.21875 21.78125 47.21875 15.09375 
Q 47.21875 7.46875 41.1875 3.015625 
Q 35.15625 -1.421875 24.609375 -1.421875 
Q 20.21875 -1.421875 15.453125 -0.5625 
Q 10.6875 0.296875 5.421875 2 
L 5.421875 11.28125 
Q 10.40625 8.6875 15.234375 7.390625 
Q 20.0625 6.109375 24.8125 6.109375 
Q 31.15625 6.109375 34.5625 8.28125 
Q 37.984375 10.453125 37.984375 14.40625 
Q 37.984375 18.0625 35.515625 20.015625 
Q 33.0625 21.96875 24.703125 23.78125 
L 21.578125 24.515625 
Q 13.234375 26.265625 9.515625 29.90625 
Q 5.8125 33.546875 5.8125 39.890625 
Q 5.8125 47.609375 11.28125 51.796875 
Q 16.75 56 26.8125 56 
Q 31.78125 56 36.171875 55.265625 
Q 40.578125 54.546875 44.28125 53.078125 
z
" id="DejaVuSans-115"/>
     <path d="M 54.890625 33.015625 
L 54.890625 0 
L 45.90625 0 
L 45.90625 32.71875 
Q 45.90625 40.484375 42.875 44.328125 
Q 39.84375 48.1875 33.796875 48.1875 
Q 26.515625 48.1875 22.3125 43.546875 
Q 18.109375 38.921875 18.109375 30.90625 
L 18.109375 0 
L 9.078125 0 
L 9.078125 54.6875 
L 18.109375 54.6875 
L 18.109375 46.1875 
Q 21.34375 51.125 25.703125 53.5625 
Q 30.078125 56 35.796875 56 
Q 45.21875 56 50.046875 50.171875 
Q 54.890625 44.34375 54.890625 33.015625 
z
" id="DejaVuSans-110"/>
     <path d="M 8.5 21.578125 
L 8.5 54.6875 
L 17.484375 54.6875 
L 17.484375 21.921875 
Q 17.484375 14.15625 20.5 10.265625 
Q 23.53125 6.390625 29.59375 6.390625 
Q 36.859375 6.390625 41.078125 11.03125 
Q 45.3125 15.671875 45.3125 23.6875 
L 45.3125 54.6875 
L 54.296875 54.6875 
L 54.296875 0 
L 45.3125 0 
L 45.3125 8.40625 
Q 42.046875 3.421875 37.71875 1 
Q 33.40625 -1.421875 27.6875 -1.421875 
Q 18.265625 -1.421875 13.375 4.4375 
Q 8.5 10.296875 8.5 21.578125 
z
M 31.109375 56 
z
" id="DejaVuSans-117"/>
     <path d="M 45.40625 46.390625 
L 45.40625 75.984375 
L 54.390625 75.984375 
L 54.390625 0 
L 45.40625 0 
L 45.40625 8.203125 
Q 42.578125 3.328125 38.25 0.953125 
Q 33.9375 -1.421875 27.875 -1.421875 
Q 17.96875 -1.421875 11.734375 6.484375 
Q 5.515625 14.40625 5.515625 27.296875 
Q 5.515625 40.1875 11.734375 48.09375 
Q 17.96875 56 27.875 56 
Q 33.9375 56 38.25 53.625 
Q 42.578125 51.265625 45.40625 46.390625 
z
M 14.796875 27.296875 
Q 14.796875 17.390625 18.875 11.75 
Q 22.953125 6.109375 30.078125 6.109375 
Q 37.203125 6.109375 41.296875 11.75 
Q 45.40625 17.390625 45.40625 27.296875 
Q 45.40625 37.203125 41.296875 42.84375 
Q 37.203125 48.484375 30.078125 48.484375 
Q 22.953125 48.484375 18.875 42.84375 
Q 14.796875 37.203125 14.796875 27.296875 
z
" id="DejaVuSans-100"/>
    </defs>
    <g transform="translate(224.420781 50.8512)scale(0.22 -0.22)">
     <use xlink:href="#DejaVuSans-80"/>
     <use x="60.302734" xlink:href="#DejaVuSans-99"/>
     <use x="115.283203" xlink:href="#DejaVuSans-97"/>
     <use x="176.5625" xlink:href="#DejaVuSans-109"/>
     <use x="273.974609" xlink:href="#DejaVuSans-114"/>
     <use x="315.087891" xlink:href="#DejaVuSans-32"/>
     <use x="346.875" xlink:href="#DejaVuSans-112"/>
     <use x="410.351562" xlink:href="#DejaVuSans-114"/>
     <use x="451.433594" xlink:href="#DejaVuSans-111"/>
     <use x="512.615234" xlink:href="#DejaVuSans-109"/>
     <use x="610.027344" xlink:href="#DejaVuSans-111"/>
     <use x="671.208984" xlink:href="#DejaVuSans-116"/>
     <use x="710.417969" xlink:href="#DejaVuSans-101"/>
     <use x="771.941406" xlink:href="#DejaVuSans-114"/>
     <use x="813.054688" xlink:href="#DejaVuSans-32"/>
     <use x="844.841797" xlink:href="#DejaVuSans-99"/>
     <use x="899.822266" xlink:href="#DejaVuSans-111"/>
     <use x="961.003906" xlink:href="#DejaVuSans-109"/>
     <use x="1058.416016" xlink:href="#DejaVuSans-112"/>
     <use x="1121.892578" xlink:href="#DejaVuSans-97"/>
     <use x="1183.171875" xlink:href="#DejaVuSans-114"/>
     <use x="1224.285156" xlink:href="#DejaVuSans-105"/>
     <use x="1252.068359" xlink:href="#DejaVuSans-115"/>
     <use x="1304.167969" xlink:href="#DejaVuSans-111"/>
     <use x="1365.349609" xlink:href="#DejaVuSans-110"/>
     <use x="1428.728516" xlink:href="#DejaVuSans-32"/>
     <use x="1460.515625" xlink:href="#DejaVuSans-117"/>
     <use x="1523.894531" xlink:href="#DejaVuSans-110"/>
     <use x="1587.273438" xlink:href="#DejaVuSans-105"/>
     <use x="1615.056641" xlink:href="#DejaVuSans-110"/>
     <use x="1678.435547" xlink:href="#DejaVuSans-100"/>
     <use x="1741.912109" xlink:href="#DejaVuSans-117"/>
     <use x="1805.291016" xlink:href="#DejaVuSans-99"/>
     <use x="1860.271484" xlink:href="#DejaVuSans-101"/>
     <use x="1921.794922" xlink:href="#DejaVuSans-100"/>
    </g>
   </g>
  </g>
 </g>
 <defs>
  <clipPath id="pec312cd59c">
   <rect height="343.5888" width="669.6" x="108" y="56.8512"/>
  </clipPath>
 </defs>
</svg>
