<?xml version="1.0" encoding="utf-8" standalone="no"?>
<!DOCTYPE svg PUBLIC "-//W3C//DTD SVG 1.1//EN"
  "http://www.w3.org/Graphics/SVG/1.1/DTD/svg11.dtd">
<!-- Created with matplotlib (https://matplotlib.org/) -->
<svg height="473.76pt" version="1.1" viewBox="0 0 864 473.76" width="864pt" xmlns="http://www.w3.org/2000/svg" xmlns:xlink="http://www.w3.org/1999/xlink">
 <defs>
  <style type="text/css">
*{stroke-linecap:butt;stroke-linejoin:round;}
  </style>
 </defs>
 <g id="figure_1">
  <g id="patch_1">
   <path d="M 0 473.76 
L 864 473.76 
L 864 0 
L 0 0 
z
" style="fill:#ffffff;"/>
  </g>
  <g id="axes_1">
   <g id="patch_2">
    <path d="M 108 403.824 
L 777.6 403.824 
L 777.6 56.8512 
L 108 56.8512 
z
" style="fill:#ffffff;"/>
   </g>
   <g id="patch_3">
    <path clip-path="url(#pd57aa8975d)" d="M 138.436364 403.824 
L 172.231407 403.824 
L 172.231407 80.632597 
L 138.436364 80.632597 
z
" style="fill:#6242ff;stroke:#000000;stroke-linejoin:miter;stroke-width:4;"/>
   </g>
   <g id="patch_4">
    <path clip-path="url(#pd57aa8975d)" d="M 218.092044 403.824 
L 251.887087 403.824 
L 251.887087 205.002383 
L 218.092044 205.002383 
z
" style="fill:#6242ff;stroke:#000000;stroke-linejoin:miter;stroke-width:4;"/>
   </g>
   <g id="patch_5">
    <path clip-path="url(#pd57aa8975d)" d="M 297.747724 403.824 
L 331.542767 403.824 
L 331.542767 300.001768 
L 297.747724 300.001768 
z
" style="fill:#6242ff;stroke:#000000;stroke-linejoin:miter;stroke-width:4;"/>
   </g>
   <g id="patch_6">
    <path clip-path="url(#pd57aa8975d)" d="M 377.403404 403.824 
L 411.198447 403.824 
L 411.198447 365.152618 
L 377.403404 365.152618 
z
" style="fill:#6242ff;stroke:#000000;stroke-linejoin:miter;stroke-width:4;"/>
   </g>
   <g id="patch_7">
    <path clip-path="url(#pd57aa8975d)" d="M 457.059085 403.824 
L 490.854128 403.824 
L 490.854128 380.395041 
L 457.059085 380.395041 
z
" style="fill:#6242ff;stroke:#000000;stroke-linejoin:miter;stroke-width:4;"/>
   </g>
   <g id="patch_8">
    <path clip-path="url(#pd57aa8975d)" d="M 536.714765 403.824 
L 570.509808 403.824 
L 570.509808 400.013652 
L 536.714765 400.013652 
z
" style="fill:#6242ff;stroke:#000000;stroke-linejoin:miter;stroke-width:4;"/>
   </g>
   <g id="patch_9">
    <path clip-path="url(#pd57aa8975d)" d="M 616.370445 403.824 
L 650.165488 403.824 
L 650.165488 402.118525 
L 616.370445 402.118525 
z
" style="fill:#6242ff;stroke:#000000;stroke-linejoin:miter;stroke-width:4;"/>
   </g>
   <g id="patch_10">
    <path clip-path="url(#pd57aa8975d)" d="M 696.026125 403.824 
L 729.821168 403.824 
L 729.821168 403.546409 
L 696.026125 403.546409 
z
" style="fill:#6242ff;stroke:#000000;stroke-linejoin:miter;stroke-width:4;"/>
   </g>
   <g id="LineCollection_1">
    <path clip-path="url(#pd57aa8975d)" d="M 155.333885 82.741424 
L 155.333885 78.52377 
" style="fill:none;stroke:#000000;stroke-width:2;"/>
   </g>
   <g id="LineCollection_2">
    <path clip-path="url(#pd57aa8975d)" d="M 234.989565 209.598577 
L 234.989565 200.406189 
" style="fill:none;stroke:#000000;stroke-width:2;"/>
   </g>
   <g id="LineCollection_3">
    <path clip-path="url(#pd57aa8975d)" d="M 314.645246 301.638014 
L 314.645246 298.365522 
" style="fill:none;stroke:#000000;stroke-width:2;"/>
   </g>
   <g id="LineCollection_4">
    <path clip-path="url(#pd57aa8975d)" d="M 394.300926 365.776115 
L 394.300926 364.529122 
" style="fill:none;stroke:#000000;stroke-width:2;"/>
   </g>
   <g id="LineCollection_5">
    <path clip-path="url(#pd57aa8975d)" d="M 473.956606 380.701116 
L 473.956606 380.088965 
" style="fill:none;stroke:#000000;stroke-width:2;"/>
   </g>
   <g id="LineCollection_6">
    <path clip-path="url(#pd57aa8975d)" d="M 553.612286 400.036086 
L 553.612286 399.991217 
" style="fill:none;stroke:#000000;stroke-width:2;"/>
   </g>
   <g id="LineCollection_7">
    <path clip-path="url(#pd57aa8975d)" d="M 633.267966 402.14624 
L 633.267966 402.09081 
" style="fill:none;stroke:#000000;stroke-width:2;"/>
   </g>
   <g id="LineCollection_8">
    <path clip-path="url(#pd57aa8975d)" d="M 712.923647 403.549604 
L 712.923647 403.543214 
" style="fill:none;stroke:#000000;stroke-width:2;"/>
   </g>
   <g id="line2d_1">
    <defs>
     <path d="M 5 0 
L -5 -0 
" id="mf3d5a396a4" style="stroke:#000000;stroke-width:2;"/>
    </defs>
    <g clip-path="url(#pd57aa8975d)">
     <use style="stroke:#000000;stroke-width:2;" x="155.333885" xlink:href="#mf3d5a396a4" y="82.741424"/>
    </g>
   </g>
   <g id="line2d_2">
    <g clip-path="url(#pd57aa8975d)">
     <use style="stroke:#000000;stroke-width:2;" x="155.333885" xlink:href="#mf3d5a396a4" y="78.52377"/>
    </g>
   </g>
   <g id="line2d_3">
    <g clip-path="url(#pd57aa8975d)">
     <use style="stroke:#000000;stroke-width:2;" x="234.989565" xlink:href="#mf3d5a396a4" y="209.598577"/>
    </g>
   </g>
   <g id="line2d_4">
    <g clip-path="url(#pd57aa8975d)">
     <use style="stroke:#000000;stroke-width:2;" x="234.989565" xlink:href="#mf3d5a396a4" y="200.406189"/>
    </g>
   </g>
   <g id="line2d_5">
    <g clip-path="url(#pd57aa8975d)">
     <use style="stroke:#000000;stroke-width:2;" x="314.645246" xlink:href="#mf3d5a396a4" y="301.638014"/>
    </g>
   </g>
   <g id="line2d_6">
    <g clip-path="url(#pd57aa8975d)">
     <use style="stroke:#000000;stroke-width:2;" x="314.645246" xlink:href="#mf3d5a396a4" y="298.365522"/>
    </g>
   </g>
   <g id="line2d_7">
    <g clip-path="url(#pd57aa8975d)">
     <use style="stroke:#000000;stroke-width:2;" x="394.300926" xlink:href="#mf3d5a396a4" y="365.776115"/>
    </g>
   </g>
   <g id="line2d_8">
    <g clip-path="url(#pd57aa8975d)">
     <use style="stroke:#000000;stroke-width:2;" x="394.300926" xlink:href="#mf3d5a396a4" y="364.529122"/>
    </g>
   </g>
   <g id="line2d_9">
    <g clip-path="url(#pd57aa8975d)">
     <use style="stroke:#000000;stroke-width:2;" x="473.956606" xlink:href="#mf3d5a396a4" y="380.701116"/>
    </g>
   </g>
   <g id="line2d_10">
    <g clip-path="url(#pd57aa8975d)">
     <use style="stroke:#000000;stroke-width:2;" x="473.956606" xlink:href="#mf3d5a396a4" y="380.088965"/>
    </g>
   </g>
   <g id="line2d_11">
    <g clip-path="url(#pd57aa8975d)">
     <use style="stroke:#000000;stroke-width:2;" x="553.612286" xlink:href="#mf3d5a396a4" y="400.036086"/>
    </g>
   </g>
   <g id="line2d_12">
    <g clip-path="url(#pd57aa8975d)">
     <use style="stroke:#000000;stroke-width:2;" x="553.612286" xlink:href="#mf3d5a396a4" y="399.991217"/>
    </g>
   </g>
   <g id="line2d_13">
    <g clip-path="url(#pd57aa8975d)">
     <use style="stroke:#000000;stroke-width:2;" x="633.267966" xlink:href="#mf3d5a396a4" y="402.14624"/>
    </g>
   </g>
   <g id="line2d_14">
    <g clip-path="url(#pd57aa8975d)">
     <use style="stroke:#000000;stroke-width:2;" x="633.267966" xlink:href="#mf3d5a396a4" y="402.09081"/>
    </g>
   </g>
   <g id="line2d_15">
    <g clip-path="url(#pd57aa8975d)">
     <use style="stroke:#000000;stroke-width:2;" x="712.923647" xlink:href="#mf3d5a396a4" y="403.549604"/>
    </g>
   </g>
   <g id="line2d_16">
    <g clip-path="url(#pd57aa8975d)">
     <use style="stroke:#000000;stroke-width:2;" x="712.923647" xlink:href="#mf3d5a396a4" y="403.543214"/>
    </g>
   </g>
   <g id="PathCollection_1">
    <path clip-path="url(#pd57aa8975d)" d="M 140.333885 83.757812 
C 141.732406 83.757812 143.073835 83.202173 144.062739 82.21327 
C 145.051642 81.224366 145.60728 79.882937 145.60728 78.484416 
C 145.60728 77.085895 145.051642 75.744466 144.062739 74.755563 
C 143.073835 73.766659 141.732406 73.211021 140.333885 73.211021 
C 138.935364 73.211021 137.593935 73.766659 136.605032 74.755563 
C 135.616128 75.744466 135.06049 77.085895 135.06049 78.484416 
C 135.06049 79.882937 135.616128 81.224366 136.605032 82.21327 
C 137.593935 83.202173 138.935364 83.757812 140.333885 83.757812 
z
" style="fill:none;stroke:#000000;stroke-width:2.5;"/>
   </g>
   <g id="PathCollection_2">
    <path clip-path="url(#pd57aa8975d)" d="M 155.333885 85.987035 
C 156.732406 85.987035 158.073835 85.431397 159.062739 84.442494 
C 160.051642 83.45359 160.60728 82.112161 160.60728 80.71364 
C 160.60728 79.315119 160.051642 77.97369 159.062739 76.984787 
C 158.073835 75.995883 156.732406 75.440245 155.333885 75.440245 
C 153.935364 75.440245 152.593935 75.995883 151.605032 76.984787 
C 150.616128 77.97369 150.06049 79.315119 150.06049 80.71364 
C 150.06049 82.112161 150.616128 83.45359 151.605032 84.442494 
C 152.593935 85.431397 153.935364 85.987035 155.333885 85.987035 
z
" style="fill:none;stroke:#000000;stroke-width:2.5;"/>
   </g>
   <g id="PathCollection_3">
    <path clip-path="url(#pd57aa8975d)" d="M 170.333885 87.973129 
C 171.732406 87.973129 173.073835 87.417491 174.062739 86.428588 
C 175.051642 85.439684 175.60728 84.098255 175.60728 82.699734 
C 175.60728 81.301213 175.051642 79.959784 174.062739 78.97088 
C 173.073835 77.981977 171.732406 77.426339 170.333885 77.426339 
C 168.935364 77.426339 167.593935 77.981977 166.605032 78.97088 
C 165.616128 79.959784 165.06049 81.301213 165.06049 82.699734 
C 165.06049 84.098255 165.616128 85.439684 166.605032 86.428588 
C 167.593935 87.417491 168.935364 87.973129 170.333885 87.973129 
z
" style="fill:none;stroke:#000000;stroke-width:2.5;"/>
   </g>
   <g id="PathCollection_4">
    <path clip-path="url(#pd57aa8975d)" d="M 219.989565 214.702264 
C 221.388086 214.702264 222.729515 214.146626 223.718419 213.157722 
C 224.707322 212.168819 225.262961 210.827389 225.262961 209.428868 
C 225.262961 208.030348 224.707322 206.688918 223.718419 205.700015 
C 222.729515 204.711111 221.388086 204.155473 219.989565 204.155473 
C 218.591045 204.155473 217.249615 204.711111 216.260712 205.700015 
C 215.271808 206.688918 214.71617 208.030348 214.71617 209.428868 
C 214.71617 210.827389 215.271808 212.168819 216.260712 213.157722 
C 217.249615 214.146626 218.591045 214.702264 219.989565 214.702264 
z
" style="fill:none;stroke:#000000;stroke-width:2.5;"/>
   </g>
   <g id="PathCollection_5">
    <path clip-path="url(#pd57aa8975d)" d="M 234.989565 210.598214 
C 236.388086 210.598214 237.729515 210.042576 238.718419 209.053672 
C 239.707322 208.064769 240.262961 206.72334 240.262961 205.324819 
C 240.262961 203.926298 239.707322 202.584869 238.718419 201.595965 
C 237.729515 200.607062 236.388086 200.051424 234.989565 200.051424 
C 233.591045 200.051424 232.249615 200.607062 231.260712 201.595965 
C 230.271808 202.584869 229.71617 203.926298 229.71617 205.324819 
C 229.71617 206.72334 230.271808 208.064769 231.260712 209.053672 
C 232.249615 210.042576 233.591045 210.598214 234.989565 210.598214 
z
" style="fill:none;stroke:#000000;stroke-width:2.5;"/>
   </g>
   <g id="PathCollection_6">
    <path clip-path="url(#pd57aa8975d)" d="M 249.989565 205.526856 
C 251.388086 205.526856 252.729515 204.971218 253.718419 203.982315 
C 254.707322 202.993411 255.262961 201.651982 255.262961 200.253461 
C 255.262961 198.85494 254.707322 197.513511 253.718419 196.524608 
C 252.729515 195.535704 251.388086 194.980066 249.989565 194.980066 
C 248.591045 194.980066 247.249615 195.535704 246.260712 196.524608 
C 245.271808 197.513511 244.71617 198.85494 244.71617 200.253461 
C 244.71617 201.651982 245.271808 202.993411 246.260712 203.982315 
C 247.249615 204.971218 248.591045 205.526856 249.989565 205.526856 
z
" style="fill:none;stroke:#000000;stroke-width:2.5;"/>
   </g>
   <g id="PathCollection_7">
    <path clip-path="url(#pd57aa8975d)" d="M 299.645246 306.631633 
C 301.043766 306.631633 302.385196 306.075995 303.374099 305.087092 
C 304.363003 304.098188 304.918641 302.756759 304.918641 301.358238 
C 304.918641 299.959717 304.363003 298.618288 303.374099 297.629385 
C 302.385196 296.640481 301.043766 296.084843 299.645246 296.084843 
C 298.246725 296.084843 296.905296 296.640481 295.916392 297.629385 
C 294.927488 298.618288 294.37185 299.959717 294.37185 301.358238 
C 294.37185 302.756759 294.927488 304.098188 295.916392 305.087092 
C 296.905296 306.075995 298.246725 306.631633 299.645246 306.631633 
z
" style="fill:none;stroke:#000000;stroke-width:2.5;"/>
   </g>
   <g id="PathCollection_8">
    <path clip-path="url(#pd57aa8975d)" d="M 314.645246 303.457941 
C 316.043766 303.457941 317.385196 302.902302 318.374099 301.913399 
C 319.363003 300.924495 319.918641 299.583066 319.918641 298.184545 
C 319.918641 296.786025 319.363003 295.444595 318.374099 294.455692 
C 317.385196 293.466788 316.043766 292.91115 314.645246 292.91115 
C 313.246725 292.91115 311.905296 293.466788 310.916392 294.455692 
C 309.927488 295.444595 309.37185 296.786025 309.37185 298.184545 
C 309.37185 299.583066 309.927488 300.924495 310.916392 301.913399 
C 311.905296 302.902302 313.246725 303.457941 314.645246 303.457941 
z
" style="fill:none;stroke:#000000;stroke-width:2.5;"/>
   </g>
   <g id="PathCollection_9">
    <path clip-path="url(#pd57aa8975d)" d="M 329.645246 305.735916 
C 331.043766 305.735916 332.385196 305.180278 333.374099 304.191374 
C 334.363003 303.202471 334.918641 301.861042 334.918641 300.462521 
C 334.918641 299.064 334.363003 297.722571 333.374099 296.733667 
C 332.385196 295.744764 331.043766 295.189126 329.645246 295.189126 
C 328.246725 295.189126 326.905296 295.744764 325.916392 296.733667 
C 324.927488 297.722571 324.37185 299.064 324.37185 300.462521 
C 324.37185 301.861042 324.927488 303.202471 325.916392 304.191374 
C 326.905296 305.180278 328.246725 305.735916 329.645246 305.735916 
z
" style="fill:none;stroke:#000000;stroke-width:2.5;"/>
   </g>
   <g id="PathCollection_10">
    <path clip-path="url(#pd57aa8975d)" d="M 379.300926 370.395132 
C 380.699447 370.395132 382.040876 369.839493 383.029779 368.85059 
C 384.018683 367.861686 384.574321 366.520257 384.574321 365.121736 
C 384.574321 363.723216 384.018683 362.381786 383.029779 361.392883 
C 382.040876 360.403979 380.699447 359.848341 379.300926 359.848341 
C 377.902405 359.848341 376.560976 360.403979 375.572072 361.392883 
C 374.583169 362.381786 374.02753 363.723216 374.02753 365.121736 
C 374.02753 366.520257 374.583169 367.861686 375.572072 368.85059 
C 376.560976 369.839493 377.902405 370.395132 379.300926 370.395132 
z
" style="fill:none;stroke:#000000;stroke-width:2.5;"/>
   </g>
   <g id="PathCollection_11">
    <path clip-path="url(#pd57aa8975d)" d="M 394.300926 369.818532 
C 395.699447 369.818532 397.040876 369.262894 398.029779 368.27399 
C 399.018683 367.285087 399.574321 365.943657 399.574321 364.545136 
C 399.574321 363.146616 399.018683 361.805186 398.029779 360.816283 
C 397.040876 359.827379 395.699447 359.271741 394.300926 359.271741 
C 392.902405 359.271741 391.560976 359.827379 390.572072 360.816283 
C 389.583169 361.805186 389.02753 363.146616 389.02753 364.545136 
C 389.02753 365.943657 389.583169 367.285087 390.572072 368.27399 
C 391.560976 369.262894 392.902405 369.818532 394.300926 369.818532 
z
" style="fill:none;stroke:#000000;stroke-width:2.5;"/>
   </g>
   <g id="PathCollection_12">
    <path clip-path="url(#pd57aa8975d)" d="M 409.300926 371.064377 
C 410.699447 371.064377 412.040876 370.508739 413.029779 369.519836 
C 414.018683 368.530932 414.574321 367.189503 414.574321 365.790982 
C 414.574321 364.392461 414.018683 363.051032 413.029779 362.062128 
C 412.040876 361.073225 410.699447 360.517587 409.300926 360.517587 
C 407.902405 360.517587 406.560976 361.073225 405.572072 362.062128 
C 404.583169 363.051032 404.02753 364.392461 404.02753 365.790982 
C 404.02753 367.189503 404.583169 368.530932 405.572072 369.519836 
C 406.560976 370.508739 407.902405 371.064377 409.300926 371.064377 
z
" style="fill:none;stroke:#000000;stroke-width:2.5;"/>
   </g>
   <g id="PathCollection_13">
    <path clip-path="url(#pd57aa8975d)" d="M 458.956606 385.911073 
C 460.355127 385.911073 461.696556 385.355435 462.68546 384.366531 
C 463.674363 383.377628 464.230001 382.036199 464.230001 380.637678 
C 464.230001 379.239157 463.674363 377.897728 462.68546 376.908824 
C 461.696556 375.919921 460.355127 375.364282 458.956606 375.364282 
C 457.558085 375.364282 456.216656 375.919921 455.227752 376.908824 
C 454.238849 377.897728 453.683211 379.239157 453.683211 380.637678 
C 453.683211 382.036199 454.238849 383.377628 455.227752 384.366531 
C 456.216656 385.355435 457.558085 385.911073 458.956606 385.911073 
z
" style="fill:none;stroke:#000000;stroke-width:2.5;"/>
   </g>
   <g id="PathCollection_14">
    <path clip-path="url(#pd57aa8975d)" d="M 473.956606 385.769666 
C 475.355127 385.769666 476.696556 385.214028 477.68546 384.225124 
C 478.674363 383.23622 479.230001 381.894791 479.230001 380.49627 
C 479.230001 379.09775 478.674363 377.75632 477.68546 376.767417 
C 476.696556 375.778513 475.355127 375.222875 473.956606 375.222875 
C 472.558085 375.222875 471.216656 375.778513 470.227752 376.767417 
C 469.238849 377.75632 468.683211 379.09775 468.683211 380.49627 
C 468.683211 381.894791 469.238849 383.23622 470.227752 384.225124 
C 471.216656 385.214028 472.558085 385.769666 473.956606 385.769666 
z
" style="fill:none;stroke:#000000;stroke-width:2.5;"/>
   </g>
   <g id="PathCollection_15">
    <path clip-path="url(#pd57aa8975d)" d="M 488.956606 385.324569 
C 490.355127 385.324569 491.696556 384.768931 492.68546 383.780027 
C 493.674363 382.791124 494.230001 381.449694 494.230001 380.051174 
C 494.230001 378.652653 493.674363 377.311223 492.68546 376.32232 
C 491.696556 375.333416 490.355127 374.777778 488.956606 374.777778 
C 487.558085 374.777778 486.216656 375.333416 485.227752 376.32232 
C 484.238849 377.311223 483.683211 378.652653 483.683211 380.051174 
C 483.683211 381.449694 484.238849 382.791124 485.227752 383.780027 
C 486.216656 384.768931 487.558085 385.324569 488.956606 385.324569 
z
" style="fill:none;stroke:#000000;stroke-width:2.5;"/>
   </g>
   <g id="PathCollection_16">
    <path clip-path="url(#pd57aa8975d)" d="M 538.612286 405.276597 
C 540.010807 405.276597 541.352236 404.720959 542.34114 403.732056 
C 543.330043 402.743152 543.885682 401.401723 543.885682 400.003202 
C 543.885682 398.604681 543.330043 397.263252 542.34114 396.274349 
C 541.352236 395.285445 540.010807 394.729807 538.612286 394.729807 
C 537.213765 394.729807 535.872336 395.285445 534.883433 396.274349 
C 533.894529 397.263252 533.338891 398.604681 533.338891 400.003202 
C 533.338891 401.401723 533.894529 402.743152 534.883433 403.732056 
C 535.872336 404.720959 537.213765 405.276597 538.612286 405.276597 
z
" style="fill:none;stroke:#000000;stroke-width:2.5;"/>
   </g>
   <g id="PathCollection_17">
    <path clip-path="url(#pd57aa8975d)" d="M 553.612286 405.271744 
C 555.010807 405.271744 556.352236 404.716105 557.34114 403.727202 
C 558.330043 402.738298 558.885682 401.396869 558.885682 399.998348 
C 558.885682 398.599828 558.330043 397.258398 557.34114 396.269495 
C 556.352236 395.280591 555.010807 394.724953 553.612286 394.724953 
C 552.213765 394.724953 550.872336 395.280591 549.883433 396.269495 
C 548.894529 397.258398 548.338891 398.599828 548.338891 399.998348 
C 548.338891 401.396869 548.894529 402.738298 549.883433 403.727202 
C 550.872336 404.716105 552.213765 405.271744 553.612286 405.271744 
z
" style="fill:none;stroke:#000000;stroke-width:2.5;"/>
   </g>
   <g id="PathCollection_18">
    <path clip-path="url(#pd57aa8975d)" d="M 568.612286 405.3128 
C 570.010807 405.3128 571.352236 404.757162 572.34114 403.768258 
C 573.330043 402.779355 573.885682 401.437926 573.885682 400.039405 
C 573.885682 398.640884 573.330043 397.299455 572.34114 396.310551 
C 571.352236 395.321648 570.010807 394.76601 568.612286 394.76601 
C 567.213765 394.76601 565.872336 395.321648 564.883433 396.310551 
C 563.894529 397.299455 563.338891 398.640884 563.338891 400.039405 
C 563.338891 401.437926 563.894529 402.779355 564.883433 403.768258 
C 565.872336 404.757162 567.213765 405.3128 568.612286 405.3128 
z
" style="fill:none;stroke:#000000;stroke-width:2.5;"/>
   </g>
   <g id="PathCollection_19">
    <path clip-path="url(#pd57aa8975d)" d="M 618.267966 407.406141 
C 619.666487 407.406141 621.007917 406.850502 621.99682 405.861599 
C 622.985724 404.872695 623.541362 403.531266 623.541362 402.132745 
C 623.541362 400.734224 622.985724 399.392795 621.99682 398.403892 
C 621.007917 397.414988 619.666487 396.85935 618.267966 396.85935 
C 616.869446 396.85935 615.528016 397.414988 614.539113 398.403892 
C 613.550209 399.392795 612.994571 400.734224 612.994571 402.132745 
C 612.994571 403.531266 613.550209 404.872695 614.539113 405.861599 
C 615.528016 406.850502 616.869446 407.406141 618.267966 407.406141 
z
" style="fill:none;stroke:#000000;stroke-width:2.5;"/>
   </g>
   <g id="PathCollection_20">
    <path clip-path="url(#pd57aa8975d)" d="M 633.267966 407.359982 
C 634.666487 407.359982 636.007917 406.804343 636.99682 405.81544 
C 637.985724 404.826536 638.541362 403.485107 638.541362 402.086586 
C 638.541362 400.688065 637.985724 399.346636 636.99682 398.357733 
C 636.007917 397.368829 634.666487 396.813191 633.267966 396.813191 
C 631.869446 396.813191 630.528016 397.368829 629.539113 398.357733 
C 628.550209 399.346636 627.994571 400.688065 627.994571 402.086586 
C 627.994571 403.485107 628.550209 404.826536 629.539113 405.81544 
C 630.528016 406.804343 631.869446 407.359982 633.267966 407.359982 
z
" style="fill:none;stroke:#000000;stroke-width:2.5;"/>
   </g>
   <g id="PathCollection_21">
    <path clip-path="url(#pd57aa8975d)" d="M 648.267966 407.409639 
C 649.666487 407.409639 651.007917 406.854001 651.99682 405.865098 
C 652.985724 404.876194 653.541362 403.534765 653.541362 402.136244 
C 653.541362 400.737723 652.985724 399.396294 651.99682 398.407391 
C 651.007917 397.418487 649.666487 396.862849 648.267966 396.862849 
C 646.869446 396.862849 645.528016 397.418487 644.539113 398.407391 
C 643.550209 399.396294 642.994571 400.737723 642.994571 402.136244 
C 642.994571 403.534765 643.550209 404.876194 644.539113 405.865098 
C 645.528016 406.854001 646.869446 407.409639 648.267966 407.409639 
z
" style="fill:none;stroke:#000000;stroke-width:2.5;"/>
   </g>
   <g id="PathCollection_22">
    <path clip-path="url(#pd57aa8975d)" d="M 697.923647 408.822742 
C 699.322167 408.822742 700.663597 408.267104 701.6525 407.2782 
C 702.641404 406.289297 703.197042 404.947868 703.197042 403.549347 
C 703.197042 402.150826 702.641404 400.809397 701.6525 399.820493 
C 700.663597 398.83159 699.322167 398.275951 697.923647 398.275951 
C 696.525126 398.275951 695.183697 398.83159 694.194793 399.820493 
C 693.20589 400.809397 692.650251 402.150826 692.650251 403.549347 
C 692.650251 404.947868 693.20589 406.289297 694.194793 407.2782 
C 695.183697 408.267104 696.525126 408.822742 697.923647 408.822742 
z
" style="fill:none;stroke:#000000;stroke-width:2.5;"/>
   </g>
   <g id="PathCollection_23">
    <path clip-path="url(#pd57aa8975d)" d="M 712.923647 408.820269 
C 714.322167 408.820269 715.663597 408.26463 716.6525 407.275727 
C 717.641404 406.286823 718.197042 404.945394 718.197042 403.546873 
C 718.197042 402.148353 717.641404 400.806923 716.6525 399.81802 
C 715.663597 398.829116 714.322167 398.273478 712.923647 398.273478 
C 711.525126 398.273478 710.183697 398.829116 709.194793 399.81802 
C 708.20589 400.806923 707.650251 402.148353 707.650251 403.546873 
C 707.650251 404.945394 708.20589 406.286823 709.194793 407.275727 
C 710.183697 408.26463 711.525126 408.820269 712.923647 408.820269 
z
" style="fill:none;stroke:#000000;stroke-width:2.5;"/>
   </g>
   <g id="PathCollection_24">
    <path clip-path="url(#pd57aa8975d)" d="M 727.923647 408.816403 
C 729.322167 408.816403 730.663597 408.260764 731.6525 407.271861 
C 732.641404 406.282957 733.197042 404.941528 733.197042 403.543007 
C 733.197042 402.144486 732.641404 400.803057 731.6525 399.814154 
C 730.663597 398.82525 729.322167 398.269612 727.923647 398.269612 
C 726.525126 398.269612 725.183697 398.82525 724.194793 399.814154 
C 723.20589 400.803057 722.650251 402.144486 722.650251 403.543007 
C 722.650251 404.941528 723.20589 406.282957 724.194793 407.271861 
C 725.183697 408.260764 726.525126 408.816403 727.923647 408.816403 
z
" style="fill:none;stroke:#000000;stroke-width:2.5;"/>
   </g>
   <g id="matplotlib.axis_1">
    <g id="xtick_1">
     <g id="line2d_17">
      <defs>
       <path d="M 0 0 
L 0 2 
" id="m51a29e5c8b" style="stroke:#000000;"/>
      </defs>
      <g>
       <use style="stroke:#000000;" x="155.333885" xlink:href="#m51a29e5c8b" y="403.824"/>
      </g>
     </g>
     <g id="text_1">
      <!-- P1000 -->
      <defs>
       <path d="M 19.671875 64.796875 
L 19.671875 37.40625 
L 32.078125 37.40625 
Q 38.96875 37.40625 42.71875 40.96875 
Q 46.484375 44.53125 46.484375 51.125 
Q 46.484375 57.671875 42.71875 61.234375 
Q 38.96875 64.796875 32.078125 64.796875 
z
M 9.8125 72.90625 
L 32.078125 72.90625 
Q 44.34375 72.90625 50.609375 67.359375 
Q 56.890625 61.8125 56.890625 51.125 
Q 56.890625 40.328125 50.609375 34.8125 
Q 44.34375 29.296875 32.078125 29.296875 
L 19.671875 29.296875 
L 19.671875 0 
L 9.8125 0 
z
" id="DejaVuSans-80"/>
       <path d="M 12.40625 8.296875 
L 28.515625 8.296875 
L 28.515625 63.921875 
L 10.984375 60.40625 
L 10.984375 69.390625 
L 28.421875 72.90625 
L 38.28125 72.90625 
L 38.28125 8.296875 
L 54.390625 8.296875 
L 54.390625 0 
L 12.40625 0 
z
" id="DejaVuSans-49"/>
       <path d="M 31.78125 66.40625 
Q 24.171875 66.40625 20.328125 58.90625 
Q 16.5 51.421875 16.5 36.375 
Q 16.5 21.390625 20.328125 13.890625 
Q 24.171875 6.390625 31.78125 6.390625 
Q 39.453125 6.390625 43.28125 13.890625 
Q 47.125 21.390625 47.125 36.375 
Q 47.125 51.421875 43.28125 58.90625 
Q 39.453125 66.40625 31.78125 66.40625 
z
M 31.78125 74.21875 
Q 44.046875 74.21875 50.515625 64.515625 
Q 56.984375 54.828125 56.984375 36.375 
Q 56.984375 17.96875 50.515625 8.265625 
Q 44.046875 -1.421875 31.78125 -1.421875 
Q 19.53125 -1.421875 13.0625 8.265625 
Q 6.59375 17.96875 6.59375 36.375 
Q 6.59375 54.828125 13.0625 64.515625 
Q 19.53125 74.21875 31.78125 74.21875 
z
" id="DejaVuSans-48"/>
      </defs>
      <g transform="translate(140.648161 453.535851)rotate(-45)scale(0.16 -0.16)">
       <use xlink:href="#DejaVuSans-80"/>
       <use x="60.302734" xlink:href="#DejaVuSans-49"/>
       <use x="123.925781" xlink:href="#DejaVuSans-48"/>
       <use x="187.548828" xlink:href="#DejaVuSans-48"/>
       <use x="251.171875" xlink:href="#DejaVuSans-48"/>
      </g>
     </g>
    </g>
    <g id="xtick_2">
     <g id="line2d_18">
      <g>
       <use style="stroke:#000000;" x="234.989565" xlink:href="#m51a29e5c8b" y="403.824"/>
      </g>
     </g>
     <g id="text_2">
      <!-- P750 -->
      <defs>
       <path d="M 8.203125 72.90625 
L 55.078125 72.90625 
L 55.078125 68.703125 
L 28.609375 0 
L 18.3125 0 
L 43.21875 64.59375 
L 8.203125 64.59375 
z
" id="DejaVuSans-55"/>
       <path d="M 10.796875 72.90625 
L 49.515625 72.90625 
L 49.515625 64.59375 
L 19.828125 64.59375 
L 19.828125 46.734375 
Q 21.96875 47.46875 24.109375 47.828125 
Q 26.265625 48.1875 28.421875 48.1875 
Q 40.625 48.1875 47.75 41.5 
Q 54.890625 34.8125 54.890625 23.390625 
Q 54.890625 11.625 47.5625 5.09375 
Q 40.234375 -1.421875 26.90625 -1.421875 
Q 22.3125 -1.421875 17.546875 -0.640625 
Q 12.796875 0.140625 7.71875 1.703125 
L 7.71875 11.625 
Q 12.109375 9.234375 16.796875 8.0625 
Q 21.484375 6.890625 26.703125 6.890625 
Q 35.15625 6.890625 40.078125 11.328125 
Q 45.015625 15.765625 45.015625 23.390625 
Q 45.015625 31 40.078125 35.4375 
Q 35.15625 39.890625 26.703125 39.890625 
Q 22.75 39.890625 18.8125 39.015625 
Q 14.890625 38.140625 10.796875 36.28125 
z
" id="DejaVuSans-53"/>
      </defs>
      <g transform="translate(223.903015 446.337504)rotate(-45)scale(0.16 -0.16)">
       <use xlink:href="#DejaVuSans-80"/>
       <use x="60.302734" xlink:href="#DejaVuSans-55"/>
       <use x="123.925781" xlink:href="#DejaVuSans-53"/>
       <use x="187.548828" xlink:href="#DejaVuSans-48"/>
      </g>
     </g>
    </g>
    <g id="xtick_3">
     <g id="line2d_19">
      <g>
       <use style="stroke:#000000;" x="314.645246" xlink:href="#m51a29e5c8b" y="403.824"/>
      </g>
     </g>
     <g id="text_3">
      <!-- P500 -->
      <g transform="translate(303.558695 446.337504)rotate(-45)scale(0.16 -0.16)">
       <use xlink:href="#DejaVuSans-80"/>
       <use x="60.302734" xlink:href="#DejaVuSans-53"/>
       <use x="123.925781" xlink:href="#DejaVuSans-48"/>
       <use x="187.548828" xlink:href="#DejaVuSans-48"/>
      </g>
     </g>
    </g>
    <g id="xtick_4">
     <g id="line2d_20">
      <g>
       <use style="stroke:#000000;" x="394.300926" xlink:href="#m51a29e5c8b" y="403.824"/>
      </g>
     </g>
     <g id="text_4">
      <!-- P250 -->
      <defs>
       <path d="M 19.1875 8.296875 
L 53.609375 8.296875 
L 53.609375 0 
L 7.328125 0 
L 7.328125 8.296875 
Q 12.9375 14.109375 22.625 23.890625 
Q 32.328125 33.6875 34.8125 36.53125 
Q 39.546875 41.84375 41.421875 45.53125 
Q 43.3125 49.21875 43.3125 52.78125 
Q 43.3125 58.59375 39.234375 62.25 
Q 35.15625 65.921875 28.609375 65.921875 
Q 23.96875 65.921875 18.8125 64.3125 
Q 13.671875 62.703125 7.8125 59.421875 
L 7.8125 69.390625 
Q 13.765625 71.78125 18.9375 73 
Q 24.125 74.21875 28.421875 74.21875 
Q 39.75 74.21875 46.484375 68.546875 
Q 53.21875 62.890625 53.21875 53.421875 
Q 53.21875 48.921875 51.53125 44.890625 
Q 49.859375 40.875 45.40625 35.40625 
Q 44.1875 33.984375 37.640625 27.21875 
Q 31.109375 20.453125 19.1875 8.296875 
z
" id="DejaVuSans-50"/>
      </defs>
      <g transform="translate(383.214375 446.337504)rotate(-45)scale(0.16 -0.16)">
       <use xlink:href="#DejaVuSans-80"/>
       <use x="60.302734" xlink:href="#DejaVuSans-50"/>
       <use x="123.925781" xlink:href="#DejaVuSans-53"/>
       <use x="187.548828" xlink:href="#DejaVuSans-48"/>
      </g>
     </g>
    </g>
    <g id="xtick_5">
     <g id="line2d_21">
      <g>
       <use style="stroke:#000000;" x="473.956606" xlink:href="#m51a29e5c8b" y="403.824"/>
      </g>
     </g>
     <g id="text_5">
      <!-- P150 -->
      <g transform="translate(462.870056 446.337504)rotate(-45)scale(0.16 -0.16)">
       <use xlink:href="#DejaVuSans-80"/>
       <use x="60.302734" xlink:href="#DejaVuSans-49"/>
       <use x="123.925781" xlink:href="#DejaVuSans-53"/>
       <use x="187.548828" xlink:href="#DejaVuSans-48"/>
      </g>
     </g>
    </g>
    <g id="xtick_6">
     <g id="line2d_22">
      <g>
       <use style="stroke:#000000;" x="553.612286" xlink:href="#m51a29e5c8b" y="403.824"/>
      </g>
     </g>
     <g id="text_6">
      <!-- P50 -->
      <g transform="translate(546.124909 439.139157)rotate(-45)scale(0.16 -0.16)">
       <use xlink:href="#DejaVuSans-80"/>
       <use x="60.302734" xlink:href="#DejaVuSans-53"/>
       <use x="123.925781" xlink:href="#DejaVuSans-48"/>
      </g>
     </g>
    </g>
    <g id="xtick_7">
     <g id="line2d_23">
      <g>
       <use style="stroke:#000000;" x="633.267966" xlink:href="#m51a29e5c8b" y="403.824"/>
      </g>
     </g>
     <g id="text_7">
      <!-- P10 -->
      <g transform="translate(625.78059 439.139157)rotate(-45)scale(0.16 -0.16)">
       <use xlink:href="#DejaVuSans-80"/>
       <use x="60.302734" xlink:href="#DejaVuSans-49"/>
       <use x="123.925781" xlink:href="#DejaVuSans-48"/>
      </g>
     </g>
    </g>
    <g id="xtick_8">
     <g id="line2d_24">
      <g>
       <use style="stroke:#000000;" x="712.923647" xlink:href="#m51a29e5c8b" y="403.824"/>
      </g>
     </g>
     <g id="text_8">
      <!-- P1 -->
      <g transform="translate(709.035443 431.94081)rotate(-45)scale(0.16 -0.16)">
       <use xlink:href="#DejaVuSans-80"/>
       <use x="60.302734" xlink:href="#DejaVuSans-49"/>
      </g>
     </g>
    </g>
    <g id="text_9">
     <!-- Promoter -->
     <defs>
      <path d="M 41.109375 46.296875 
Q 39.59375 47.171875 37.8125 47.578125 
Q 36.03125 48 33.890625 48 
Q 26.265625 48 22.1875 43.046875 
Q 18.109375 38.09375 18.109375 28.8125 
L 18.109375 0 
L 9.078125 0 
L 9.078125 54.6875 
L 18.109375 54.6875 
L 18.109375 46.1875 
Q 20.953125 51.171875 25.484375 53.578125 
Q 30.03125 56 36.53125 56 
Q 37.453125 56 38.578125 55.875 
Q 39.703125 55.765625 41.0625 55.515625 
z
" id="DejaVuSans-114"/>
      <path d="M 30.609375 48.390625 
Q 23.390625 48.390625 19.1875 42.75 
Q 14.984375 37.109375 14.984375 27.296875 
Q 14.984375 17.484375 19.15625 11.84375 
Q 23.34375 6.203125 30.609375 6.203125 
Q 37.796875 6.203125 41.984375 11.859375 
Q 46.1875 17.53125 46.1875 27.296875 
Q 46.1875 37.015625 41.984375 42.703125 
Q 37.796875 48.390625 30.609375 48.390625 
z
M 30.609375 56 
Q 42.328125 56 49.015625 48.375 
Q 55.71875 40.765625 55.71875 27.296875 
Q 55.71875 13.875 49.015625 6.21875 
Q 42.328125 -1.421875 30.609375 -1.421875 
Q 18.84375 -1.421875 12.171875 6.21875 
Q 5.515625 13.875 5.515625 27.296875 
Q 5.515625 40.765625 12.171875 48.375 
Q 18.84375 56 30.609375 56 
z
" id="DejaVuSans-111"/>
      <path d="M 52 44.1875 
Q 55.375 50.25 60.0625 53.125 
Q 64.75 56 71.09375 56 
Q 79.640625 56 84.28125 50.015625 
Q 88.921875 44.046875 88.921875 33.015625 
L 88.921875 0 
L 79.890625 0 
L 79.890625 32.71875 
Q 79.890625 40.578125 77.09375 44.375 
Q 74.3125 48.1875 68.609375 48.1875 
Q 61.625 48.1875 57.5625 43.546875 
Q 53.515625 38.921875 53.515625 30.90625 
L 53.515625 0 
L 44.484375 0 
L 44.484375 32.71875 
Q 44.484375 40.625 41.703125 44.40625 
Q 38.921875 48.1875 33.109375 48.1875 
Q 26.21875 48.1875 22.15625 43.53125 
Q 18.109375 38.875 18.109375 30.90625 
L 18.109375 0 
L 9.078125 0 
L 9.078125 54.6875 
L 18.109375 54.6875 
L 18.109375 46.1875 
Q 21.1875 51.21875 25.484375 53.609375 
Q 29.78125 56 35.6875 56 
Q 41.65625 56 45.828125 52.96875 
Q 50 49.953125 52 44.1875 
z
" id="DejaVuSans-109"/>
      <path d="M 18.3125 70.21875 
L 18.3125 54.6875 
L 36.8125 54.6875 
L 36.8125 47.703125 
L 18.3125 47.703125 
L 18.3125 18.015625 
Q 18.3125 11.328125 20.140625 9.421875 
Q 21.96875 7.515625 27.59375 7.515625 
L 36.8125 7.515625 
L 36.8125 0 
L 27.59375 0 
Q 17.1875 0 13.234375 3.875 
Q 9.28125 7.765625 9.28125 18.015625 
L 9.28125 47.703125 
L 2.6875 47.703125 
L 2.6875 54.6875 
L 9.28125 54.6875 
L 9.28125 70.21875 
z
" id="DejaVuSans-116"/>
      <path d="M 56.203125 29.59375 
L 56.203125 25.203125 
L 14.890625 25.203125 
Q 15.484375 15.921875 20.484375 11.0625 
Q 25.484375 6.203125 34.421875 6.203125 
Q 39.59375 6.203125 44.453125 7.46875 
Q 49.3125 8.734375 54.109375 11.28125 
L 54.109375 2.78125 
Q 49.265625 0.734375 44.1875 -0.34375 
Q 39.109375 -1.421875 33.890625 -1.421875 
Q 20.796875 -1.421875 13.15625 6.1875 
Q 5.515625 13.8125 5.515625 26.8125 
Q 5.515625 40.234375 12.765625 48.109375 
Q 20.015625 56 32.328125 56 
Q 43.359375 56 49.78125 48.890625 
Q 56.203125 41.796875 56.203125 29.59375 
z
M 47.21875 32.234375 
Q 47.125 39.59375 43.09375 43.984375 
Q 39.0625 48.390625 32.421875 48.390625 
Q 24.90625 48.390625 20.390625 44.140625 
Q 15.875 39.890625 15.1875 32.171875 
z
" id="DejaVuSans-101"/>
     </defs>
     <g transform="translate(401.131406 473.565937)scale(0.18 -0.18)">
      <use xlink:href="#DejaVuSans-80"/>
      <use x="60.287109" xlink:href="#DejaVuSans-114"/>
      <use x="101.369141" xlink:href="#DejaVuSans-111"/>
      <use x="162.550781" xlink:href="#DejaVuSans-109"/>
      <use x="259.962891" xlink:href="#DejaVuSans-111"/>
      <use x="321.144531" xlink:href="#DejaVuSans-116"/>
      <use x="360.353516" xlink:href="#DejaVuSans-101"/>
      <use x="421.876953" xlink:href="#DejaVuSans-114"/>
     </g>
    </g>
   </g>
   <g id="matplotlib.axis_2">
    <g id="ytick_1">
     <g id="line2d_25">
      <defs>
       <path d="M 0 0 
L -2 0 
" id="m23f5af29ba" style="stroke:#000000;"/>
      </defs>
      <g>
       <use style="stroke:#000000;" x="108" xlink:href="#m23f5af29ba" y="403.824"/>
      </g>
     </g>
     <g id="text_10">
      <!-- 0 -->
      <g transform="translate(91.0475 410.662594)scale(0.18 -0.18)">
       <use xlink:href="#DejaVuSans-48"/>
      </g>
     </g>
    </g>
    <g id="ytick_2">
     <g id="line2d_26">
      <g>
       <use style="stroke:#000000;" x="108" xlink:href="#m23f5af29ba" y="348.383281"/>
      </g>
     </g>
     <g id="text_11">
      <!-- 1 -->
      <g transform="translate(91.0475 355.221875)scale(0.18 -0.18)">
       <use xlink:href="#DejaVuSans-49"/>
      </g>
     </g>
    </g>
    <g id="ytick_3">
     <g id="line2d_27">
      <g>
       <use style="stroke:#000000;" x="108" xlink:href="#m23f5af29ba" y="292.942562"/>
      </g>
     </g>
     <g id="text_12">
      <!-- 2 -->
      <g transform="translate(91.0475 299.781156)scale(0.18 -0.18)">
       <use xlink:href="#DejaVuSans-50"/>
      </g>
     </g>
    </g>
    <g id="ytick_4">
     <g id="line2d_28">
      <g>
       <use style="stroke:#000000;" x="108" xlink:href="#m23f5af29ba" y="237.501844"/>
      </g>
     </g>
     <g id="text_13">
      <!-- 3 -->
      <defs>
       <path d="M 40.578125 39.3125 
Q 47.65625 37.796875 51.625 33 
Q 55.609375 28.21875 55.609375 21.1875 
Q 55.609375 10.40625 48.1875 4.484375 
Q 40.765625 -1.421875 27.09375 -1.421875 
Q 22.515625 -1.421875 17.65625 -0.515625 
Q 12.796875 0.390625 7.625 2.203125 
L 7.625 11.71875 
Q 11.71875 9.328125 16.59375 8.109375 
Q 21.484375 6.890625 26.8125 6.890625 
Q 36.078125 6.890625 40.9375 10.546875 
Q 45.796875 14.203125 45.796875 21.1875 
Q 45.796875 27.640625 41.28125 31.265625 
Q 36.765625 34.90625 28.71875 34.90625 
L 20.21875 34.90625 
L 20.21875 43.015625 
L 29.109375 43.015625 
Q 36.375 43.015625 40.234375 45.921875 
Q 44.09375 48.828125 44.09375 54.296875 
Q 44.09375 59.90625 40.109375 62.90625 
Q 36.140625 65.921875 28.71875 65.921875 
Q 24.65625 65.921875 20.015625 65.03125 
Q 15.375 64.15625 9.8125 62.3125 
L 9.8125 71.09375 
Q 15.4375 72.65625 20.34375 73.4375 
Q 25.25 74.21875 29.59375 74.21875 
Q 40.828125 74.21875 47.359375 69.109375 
Q 53.90625 64.015625 53.90625 55.328125 
Q 53.90625 49.265625 50.4375 45.09375 
Q 46.96875 40.921875 40.578125 39.3125 
z
" id="DejaVuSans-51"/>
      </defs>
      <g transform="translate(91.0475 244.340437)scale(0.18 -0.18)">
       <use xlink:href="#DejaVuSans-51"/>
      </g>
     </g>
    </g>
    <g id="ytick_5">
     <g id="line2d_29">
      <g>
       <use style="stroke:#000000;" x="108" xlink:href="#m23f5af29ba" y="182.061125"/>
      </g>
     </g>
     <g id="text_14">
      <!-- 4 -->
      <defs>
       <path d="M 37.796875 64.3125 
L 12.890625 25.390625 
L 37.796875 25.390625 
z
M 35.203125 72.90625 
L 47.609375 72.90625 
L 47.609375 25.390625 
L 58.015625 25.390625 
L 58.015625 17.1875 
L 47.609375 17.1875 
L 47.609375 0 
L 37.796875 0 
L 37.796875 17.1875 
L 4.890625 17.1875 
L 4.890625 26.703125 
z
" id="DejaVuSans-52"/>
      </defs>
      <g transform="translate(91.0475 188.899718)scale(0.18 -0.18)">
       <use xlink:href="#DejaVuSans-52"/>
      </g>
     </g>
    </g>
    <g id="ytick_6">
     <g id="line2d_30">
      <g>
       <use style="stroke:#000000;" x="108" xlink:href="#m23f5af29ba" y="126.620406"/>
      </g>
     </g>
     <g id="text_15">
      <!-- 5 -->
      <g transform="translate(91.0475 133.459)scale(0.18 -0.18)">
       <use xlink:href="#DejaVuSans-53"/>
      </g>
     </g>
    </g>
    <g id="ytick_7">
     <g id="line2d_31">
      <g>
       <use style="stroke:#000000;" x="108" xlink:href="#m23f5af29ba" y="71.179687"/>
      </g>
     </g>
     <g id="text_16">
      <!-- 6 -->
      <defs>
       <path d="M 33.015625 40.375 
Q 26.375 40.375 22.484375 35.828125 
Q 18.609375 31.296875 18.609375 23.390625 
Q 18.609375 15.53125 22.484375 10.953125 
Q 26.375 6.390625 33.015625 6.390625 
Q 39.65625 6.390625 43.53125 10.953125 
Q 47.40625 15.53125 47.40625 23.390625 
Q 47.40625 31.296875 43.53125 35.828125 
Q 39.65625 40.375 33.015625 40.375 
z
M 52.59375 71.296875 
L 52.59375 62.3125 
Q 48.875 64.0625 45.09375 64.984375 
Q 41.3125 65.921875 37.59375 65.921875 
Q 27.828125 65.921875 22.671875 59.328125 
Q 17.53125 52.734375 16.796875 39.40625 
Q 19.671875 43.65625 24.015625 45.921875 
Q 28.375 48.1875 33.59375 48.1875 
Q 44.578125 48.1875 50.953125 41.515625 
Q 57.328125 34.859375 57.328125 23.390625 
Q 57.328125 12.15625 50.6875 5.359375 
Q 44.046875 -1.421875 33.015625 -1.421875 
Q 20.359375 -1.421875 13.671875 8.265625 
Q 6.984375 17.96875 6.984375 36.375 
Q 6.984375 53.65625 15.1875 63.9375 
Q 23.390625 74.21875 37.203125 74.21875 
Q 40.921875 74.21875 44.703125 73.484375 
Q 48.484375 72.75 52.59375 71.296875 
z
" id="DejaVuSans-54"/>
      </defs>
      <g transform="translate(91.0475 78.018281)scale(0.18 -0.18)">
       <use xlink:href="#DejaVuSans-54"/>
      </g>
     </g>
    </g>
    <g id="text_17">
     <!-- $(RFU/OD) \times 10^4$ -->
     <defs>
      <path d="M 31 75.875 
Q 24.46875 64.65625 21.28125 53.65625 
Q 18.109375 42.671875 18.109375 31.390625 
Q 18.109375 20.125 21.3125 9.0625 
Q 24.515625 -2 31 -13.1875 
L 23.1875 -13.1875 
Q 15.875 -1.703125 12.234375 9.375 
Q 8.59375 20.453125 8.59375 31.390625 
Q 8.59375 42.28125 12.203125 53.3125 
Q 15.828125 64.359375 23.1875 75.875 
z
" id="DejaVuSans-40"/>
      <path d="M 25.203125 64.796875 
L 20.21875 38.921875 
L 32.90625 38.921875 
Q 40.375 38.921875 44.984375 43.046875 
Q 49.609375 47.171875 49.609375 53.8125 
Q 49.609375 59.125 46.5 61.953125 
Q 43.40625 64.796875 37.59375 64.796875 
z
M 43.3125 35.015625 
Q 46.4375 34.28125 48.515625 31.390625 
Q 50.59375 28.515625 53.328125 19.921875 
L 59.515625 0 
L 49.125 0 
L 43.40625 18.703125 
Q 41.21875 25.921875 38.328125 28.359375 
Q 35.453125 30.8125 29.5 30.8125 
L 18.609375 30.8125 
L 12.59375 0 
L 2.6875 0 
L 16.890625 72.90625 
L 39.109375 72.90625 
Q 49.21875 72.90625 54.609375 68.328125 
Q 60.015625 63.765625 60.015625 55.171875 
Q 60.015625 47.5625 55.421875 41.984375 
Q 50.828125 36.421875 43.3125 35.015625 
z
" id="DejaVuSans-Oblique-82"/>
      <path d="M 16.890625 72.90625 
L 58.6875 72.90625 
L 57.078125 64.59375 
L 25.09375 64.59375 
L 20.90625 43.109375 
L 49.8125 43.109375 
L 48.1875 34.8125 
L 19.28125 34.8125 
L 12.5 0 
L 2.6875 0 
z
" id="DejaVuSans-Oblique-70"/>
      <path d="M 15.484375 72.90625 
L 25.390625 72.90625 
L 16.796875 28.609375 
Q 16.265625 25.640625 16.046875 23.703125 
Q 15.828125 21.78125 15.828125 20.3125 
Q 15.828125 13.578125 19.578125 10.078125 
Q 23.34375 6.59375 30.609375 6.59375 
Q 40.046875 6.59375 45.28125 11.765625 
Q 50.53125 16.9375 52.78125 28.609375 
L 61.375 72.90625 
L 71.296875 72.90625 
L 62.5 27.390625 
Q 59.625 12.640625 51.5625 5.609375 
Q 43.5 -1.421875 29.5 -1.421875 
Q 18.5625 -1.421875 12.1875 4.078125 
Q 5.8125 9.578125 5.8125 19 
Q 5.8125 20.703125 6.046875 22.828125 
Q 6.296875 24.953125 6.78125 27.390625 
z
" id="DejaVuSans-Oblique-85"/>
      <path d="M 25.390625 72.90625 
L 33.6875 72.90625 
L 8.296875 -9.28125 
L 0 -9.28125 
z
" id="DejaVuSans-47"/>
      <path d="M 45.609375 66.21875 
Q 37.5 66.21875 31.296875 62.28125 
Q 25.09375 58.34375 20.515625 50.296875 
Q 17.578125 45.171875 16.03125 39.40625 
Q 14.5 33.640625 14.5 27.78125 
Q 14.5 17.625 19.359375 12.109375 
Q 24.21875 6.59375 33.109375 6.59375 
Q 41.109375 6.59375 47.375 10.5625 
Q 53.65625 14.546875 58.109375 22.40625 
Q 61.078125 27.6875 62.640625 33.46875 
Q 64.203125 39.265625 64.203125 45.015625 
Q 64.203125 55.125 59.3125 60.671875 
Q 54.4375 66.21875 45.609375 66.21875 
z
M 32.8125 -1.421875 
Q 19.390625 -1.421875 11.6875 6.53125 
Q 4 14.5 4 28.328125 
Q 4 36.234375 7 44.484375 
Q 10.015625 52.734375 15.28125 59.1875 
Q 21.484375 66.75 29.09375 70.484375 
Q 36.71875 74.21875 45.90625 74.21875 
Q 59.28125 74.21875 66.984375 66.328125 
Q 74.703125 58.453125 74.703125 44.828125 
Q 74.703125 36.421875 71.765625 28.3125 
Q 68.84375 20.21875 63.375 13.625 
Q 57.125 6 49.578125 2.28125 
Q 42.046875 -1.421875 32.8125 -1.421875 
z
" id="DejaVuSans-Oblique-79"/>
      <path d="M 16.890625 72.90625 
L 38.09375 72.90625 
Q 54.984375 72.90625 63.59375 65.75 
Q 72.21875 58.59375 72.21875 44.484375 
Q 72.21875 35.15625 68.9375 26.53125 
Q 65.671875 17.921875 59.90625 12.015625 
Q 54.109375 5.953125 45.171875 2.96875 
Q 36.234375 0 24.03125 0 
L 2.6875 0 
z
M 25.203125 64.796875 
L 14.203125 8.109375 
L 27.09375 8.109375 
Q 43.65625 8.109375 52.734375 17.625 
Q 61.8125 27.15625 61.8125 44.484375 
Q 61.8125 54.984375 55.953125 59.890625 
Q 50.09375 64.796875 37.59375 64.796875 
z
" id="DejaVuSans-Oblique-68"/>
      <path d="M 8.015625 75.875 
L 15.828125 75.875 
Q 23.140625 64.359375 26.78125 53.3125 
Q 30.421875 42.28125 30.421875 31.390625 
Q 30.421875 20.453125 26.78125 9.375 
Q 23.140625 -1.703125 15.828125 -13.1875 
L 8.015625 -13.1875 
Q 14.5 -2 17.703125 9.0625 
Q 20.90625 20.125 20.90625 31.390625 
Q 20.90625 42.671875 17.703125 53.65625 
Q 14.5 64.65625 8.015625 75.875 
z
" id="DejaVuSans-41"/>
      <path d="M 70.125 53.71875 
L 47.796875 31.296875 
L 70.125 8.984375 
L 64.3125 3.078125 
L 41.890625 25.484375 
L 19.484375 3.078125 
L 13.71875 8.984375 
L 35.984375 31.296875 
L 13.71875 53.71875 
L 19.484375 59.625 
L 41.890625 37.203125 
L 64.3125 59.625 
z
" id="DejaVuSans-215"/>
     </defs>
     <g transform="translate(83.304063 299.2776)rotate(-90)scale(0.18 -0.18)">
      <use transform="translate(0 0.684375)" xlink:href="#DejaVuSans-40"/>
      <use transform="translate(39.013672 0.684375)" xlink:href="#DejaVuSans-Oblique-82"/>
      <use transform="translate(108.496094 0.684375)" xlink:href="#DejaVuSans-Oblique-70"/>
      <use transform="translate(166.015625 0.684375)" xlink:href="#DejaVuSans-Oblique-85"/>
      <use transform="translate(239.208984 0.684375)" xlink:href="#DejaVuSans-47"/>
      <use transform="translate(272.900391 0.684375)" xlink:href="#DejaVuSans-Oblique-79"/>
      <use transform="translate(351.611328 0.684375)" xlink:href="#DejaVuSans-Oblique-68"/>
      <use transform="translate(428.613281 0.684375)" xlink:href="#DejaVuSans-41"/>
      <use transform="translate(487.109375 0.684375)" xlink:href="#DejaVuSans-215"/>
      <use transform="translate(590.380859 0.684375)" xlink:href="#DejaVuSans-49"/>
      <use transform="translate(654.003906 0.684375)" xlink:href="#DejaVuSans-48"/>
      <use transform="translate(718.583984 38.965625)scale(0.7)" xlink:href="#DejaVuSans-52"/>
     </g>
    </g>
   </g>
   <g id="patch_11">
    <path d="M 108 403.824 
L 108 56.8512 
" style="fill:none;stroke:#000000;stroke-linecap:square;stroke-linejoin:miter;stroke-width:0.8;"/>
   </g>
   <g id="patch_12">
    <path d="M 108 403.824 
L 777.6 403.824 
" style="fill:none;stroke:#000000;stroke-linecap:square;stroke-linejoin:miter;stroke-width:0.8;"/>
   </g>
   <g id="text_18">
    <!-- Activity of Pcamr promoters + 1mM camphor -->
    <defs>
     <path d="M 34.1875 63.1875 
L 20.796875 26.90625 
L 47.609375 26.90625 
z
M 28.609375 72.90625 
L 39.796875 72.90625 
L 67.578125 0 
L 57.328125 0 
L 50.6875 18.703125 
L 17.828125 18.703125 
L 11.1875 0 
L 0.78125 0 
z
" id="DejaVuSans-65"/>
     <path d="M 48.78125 52.59375 
L 48.78125 44.1875 
Q 44.96875 46.296875 41.140625 47.34375 
Q 37.3125 48.390625 33.40625 48.390625 
Q 24.65625 48.390625 19.8125 42.84375 
Q 14.984375 37.3125 14.984375 27.296875 
Q 14.984375 17.28125 19.8125 11.734375 
Q 24.65625 6.203125 33.40625 6.203125 
Q 37.3125 6.203125 41.140625 7.25 
Q 44.96875 8.296875 48.78125 10.40625 
L 48.78125 2.09375 
Q 45.015625 0.34375 40.984375 -0.53125 
Q 36.96875 -1.421875 32.421875 -1.421875 
Q 20.0625 -1.421875 12.78125 6.34375 
Q 5.515625 14.109375 5.515625 27.296875 
Q 5.515625 40.671875 12.859375 48.328125 
Q 20.21875 56 33.015625 56 
Q 37.15625 56 41.109375 55.140625 
Q 45.0625 54.296875 48.78125 52.59375 
z
" id="DejaVuSans-99"/>
     <path d="M 9.421875 54.6875 
L 18.40625 54.6875 
L 18.40625 0 
L 9.421875 0 
z
M 9.421875 75.984375 
L 18.40625 75.984375 
L 18.40625 64.59375 
L 9.421875 64.59375 
z
" id="DejaVuSans-105"/>
     <path d="M 2.984375 54.6875 
L 12.5 54.6875 
L 29.59375 8.796875 
L 46.6875 54.6875 
L 56.203125 54.6875 
L 35.6875 0 
L 23.484375 0 
z
" id="DejaVuSans-118"/>
     <path d="M 32.171875 -5.078125 
Q 28.375 -14.84375 24.75 -17.8125 
Q 21.140625 -20.796875 15.09375 -20.796875 
L 7.90625 -20.796875 
L 7.90625 -13.28125 
L 13.1875 -13.28125 
Q 16.890625 -13.28125 18.9375 -11.515625 
Q 21 -9.765625 23.484375 -3.21875 
L 25.09375 0.875 
L 2.984375 54.6875 
L 12.5 54.6875 
L 29.59375 11.921875 
L 46.6875 54.6875 
L 56.203125 54.6875 
z
" id="DejaVuSans-121"/>
     <path id="DejaVuSans-32"/>
     <path d="M 37.109375 75.984375 
L 37.109375 68.5 
L 28.515625 68.5 
Q 23.6875 68.5 21.796875 66.546875 
Q 19.921875 64.59375 19.921875 59.515625 
L 19.921875 54.6875 
L 34.71875 54.6875 
L 34.71875 47.703125 
L 19.921875 47.703125 
L 19.921875 0 
L 10.890625 0 
L 10.890625 47.703125 
L 2.296875 47.703125 
L 2.296875 54.6875 
L 10.890625 54.6875 
L 10.890625 58.5 
Q 10.890625 67.625 15.140625 71.796875 
Q 19.390625 75.984375 28.609375 75.984375 
z
" id="DejaVuSans-102"/>
     <path d="M 34.28125 27.484375 
Q 23.390625 27.484375 19.1875 25 
Q 14.984375 22.515625 14.984375 16.5 
Q 14.984375 11.71875 18.140625 8.90625 
Q 21.296875 6.109375 26.703125 6.109375 
Q 34.1875 6.109375 38.703125 11.40625 
Q 43.21875 16.703125 43.21875 25.484375 
L 43.21875 27.484375 
z
M 52.203125 31.203125 
L 52.203125 0 
L 43.21875 0 
L 43.21875 8.296875 
Q 40.140625 3.328125 35.546875 0.953125 
Q 30.953125 -1.421875 24.3125 -1.421875 
Q 15.921875 -1.421875 10.953125 3.296875 
Q 6 8.015625 6 15.921875 
Q 6 25.140625 12.171875 29.828125 
Q 18.359375 34.515625 30.609375 34.515625 
L 43.21875 34.515625 
L 43.21875 35.40625 
Q 43.21875 41.609375 39.140625 45 
Q 35.0625 48.390625 27.6875 48.390625 
Q 23 48.390625 18.546875 47.265625 
Q 14.109375 46.140625 10.015625 43.890625 
L 10.015625 52.203125 
Q 14.9375 54.109375 19.578125 55.046875 
Q 24.21875 56 28.609375 56 
Q 40.484375 56 46.34375 49.84375 
Q 52.203125 43.703125 52.203125 31.203125 
z
" id="DejaVuSans-97"/>
     <path d="M 18.109375 8.203125 
L 18.109375 -20.796875 
L 9.078125 -20.796875 
L 9.078125 54.6875 
L 18.109375 54.6875 
L 18.109375 46.390625 
Q 20.953125 51.265625 25.265625 53.625 
Q 29.59375 56 35.59375 56 
Q 45.5625 56 51.78125 48.09375 
Q 58.015625 40.1875 58.015625 27.296875 
Q 58.015625 14.40625 51.78125 6.484375 
Q 45.5625 -1.421875 35.59375 -1.421875 
Q 29.59375 -1.421875 25.265625 0.953125 
Q 20.953125 3.328125 18.109375 8.203125 
z
M 48.6875 27.296875 
Q 48.6875 37.203125 44.609375 42.84375 
Q 40.53125 48.484375 33.40625 48.484375 
Q 26.265625 48.484375 22.1875 42.84375 
Q 18.109375 37.203125 18.109375 27.296875 
Q 18.109375 17.390625 22.1875 11.75 
Q 26.265625 6.109375 33.40625 6.109375 
Q 40.53125 6.109375 44.609375 11.75 
Q 48.6875 17.390625 48.6875 27.296875 
z
" id="DejaVuSans-112"/>
     <path d="M 44.28125 53.078125 
L 44.28125 44.578125 
Q 40.484375 46.53125 36.375 47.5 
Q 32.28125 48.484375 27.875 48.484375 
Q 21.1875 48.484375 17.84375 46.4375 
Q 14.5 44.390625 14.5 40.28125 
Q 14.5 37.15625 16.890625 35.375 
Q 19.28125 33.59375 26.515625 31.984375 
L 29.59375 31.296875 
Q 39.15625 29.25 43.1875 25.515625 
Q 47.21875 21.78125 47.21875 15.09375 
Q 47.21875 7.46875 41.1875 3.015625 
Q 35.15625 -1.421875 24.609375 -1.421875 
Q 20.21875 -1.421875 15.453125 -0.5625 
Q 10.6875 0.296875 5.421875 2 
L 5.421875 11.28125 
Q 10.40625 8.6875 15.234375 7.390625 
Q 20.0625 6.109375 24.8125 6.109375 
Q 31.15625 6.109375 34.5625 8.28125 
Q 37.984375 10.453125 37.984375 14.40625 
Q 37.984375 18.0625 35.515625 20.015625 
Q 33.0625 21.96875 24.703125 23.78125 
L 21.578125 24.515625 
Q 13.234375 26.265625 9.515625 29.90625 
Q 5.8125 33.546875 5.8125 39.890625 
Q 5.8125 47.609375 11.28125 51.796875 
Q 16.75 56 26.8125 56 
Q 31.78125 56 36.171875 55.265625 
Q 40.578125 54.546875 44.28125 53.078125 
z
" id="DejaVuSans-115"/>
     <path d="M 46 62.703125 
L 46 35.5 
L 73.1875 35.5 
L 73.1875 27.203125 
L 46 27.203125 
L 46 0 
L 37.796875 0 
L 37.796875 27.203125 
L 10.59375 27.203125 
L 10.59375 35.5 
L 37.796875 35.5 
L 37.796875 62.703125 
z
" id="DejaVuSans-43"/>
     <path d="M 9.8125 72.90625 
L 24.515625 72.90625 
L 43.109375 23.296875 
L 61.8125 72.90625 
L 76.515625 72.90625 
L 76.515625 0 
L 66.890625 0 
L 66.890625 64.015625 
L 48.09375 14.015625 
L 38.1875 14.015625 
L 19.390625 64.015625 
L 19.390625 0 
L 9.8125 0 
z
" id="DejaVuSans-77"/>
     <path d="M 54.890625 33.015625 
L 54.890625 0 
L 45.90625 0 
L 45.90625 32.71875 
Q 45.90625 40.484375 42.875 44.328125 
Q 39.84375 48.1875 33.796875 48.1875 
Q 26.515625 48.1875 22.3125 43.546875 
Q 18.109375 38.921875 18.109375 30.90625 
L 18.109375 0 
L 9.078125 0 
L 9.078125 75.984375 
L 18.109375 75.984375 
L 18.109375 46.1875 
Q 21.34375 51.125 25.703125 53.5625 
Q 30.078125 56 35.796875 56 
Q 45.21875 56 50.046875 50.171875 
Q 54.890625 44.34375 54.890625 33.015625 
z
" id="DejaVuSans-104"/>
    </defs>
    <g transform="translate(193.089687 50.8512)scale(0.22 -0.22)">
     <use xlink:href="#DejaVuSans-65"/>
     <use x="68.392578" xlink:href="#DejaVuSans-99"/>
     <use x="123.373047" xlink:href="#DejaVuSans-116"/>
     <use x="162.582031" xlink:href="#DejaVuSans-105"/>
     <use x="190.365234" xlink:href="#DejaVuSans-118"/>
     <use x="249.544922" xlink:href="#DejaVuSans-105"/>
     <use x="277.328125" xlink:href="#DejaVuSans-116"/>
     <use x="316.537109" xlink:href="#DejaVuSans-121"/>
     <use x="375.716797" xlink:href="#DejaVuSans-32"/>
     <use x="407.503906" xlink:href="#DejaVuSans-111"/>
     <use x="468.685547" xlink:href="#DejaVuSans-102"/>
     <use x="503.890625" xlink:href="#DejaVuSans-32"/>
     <use x="535.677734" xlink:href="#DejaVuSans-80"/>
     <use x="595.980469" xlink:href="#DejaVuSans-99"/>
     <use x="650.960938" xlink:href="#DejaVuSans-97"/>
     <use x="712.240234" xlink:href="#DejaVuSans-109"/>
     <use x="809.652344" xlink:href="#DejaVuSans-114"/>
     <use x="850.765625" xlink:href="#DejaVuSans-32"/>
     <use x="882.552734" xlink:href="#DejaVuSans-112"/>
     <use x="946.029297" xlink:href="#DejaVuSans-114"/>
     <use x="987.111328" xlink:href="#DejaVuSans-111"/>
     <use x="1048.292969" xlink:href="#DejaVuSans-109"/>
     <use x="1145.705078" xlink:href="#DejaVuSans-111"/>
     <use x="1206.886719" xlink:href="#DejaVuSans-116"/>
     <use x="1246.095703" xlink:href="#DejaVuSans-101"/>
     <use x="1307.619141" xlink:href="#DejaVuSans-114"/>
     <use x="1348.732422" xlink:href="#DejaVuSans-115"/>
     <use x="1400.832031" xlink:href="#DejaVuSans-32"/>
     <use x="1432.619141" xlink:href="#DejaVuSans-43"/>
     <use x="1516.408203" xlink:href="#DejaVuSans-32"/>
     <use x="1548.195312" xlink:href="#DejaVuSans-49"/>
     <use x="1611.818359" xlink:href="#DejaVuSans-109"/>
     <use x="1709.230469" xlink:href="#DejaVuSans-77"/>
     <use x="1795.509766" xlink:href="#DejaVuSans-32"/>
     <use x="1827.296875" xlink:href="#DejaVuSans-99"/>
     <use x="1882.277344" xlink:href="#DejaVuSans-97"/>
     <use x="1943.556641" xlink:href="#DejaVuSans-109"/>
     <use x="2040.96875" xlink:href="#DejaVuSans-112"/>
     <use x="2104.445312" xlink:href="#DejaVuSans-104"/>
     <use x="2167.824219" xlink:href="#DejaVuSans-111"/>
     <use x="2229.005859" xlink:href="#DejaVuSans-114"/>
    </g>
   </g>
  </g>
 </g>
 <defs>
  <clipPath id="pd57aa8975d">
   <rect height="346.9728" width="669.6" x="108" y="56.8512"/>
  </clipPath>
 </defs>
</svg>
