<?xml version="1.0" encoding="utf-8" standalone="no"?>
<!DOCTYPE svg PUBLIC "-//W3C//DTD SVG 1.1//EN"
  "http://www.w3.org/Graphics/SVG/1.1/DTD/svg11.dtd">
<!-- Created with matplotlib (https://matplotlib.org/) -->
<svg height="473.76pt" version="1.1" viewBox="0 0 864 473.76" width="864pt" xmlns="http://www.w3.org/2000/svg" xmlns:xlink="http://www.w3.org/1999/xlink">
 <defs>
  <style type="text/css">
*{stroke-linecap:butt;stroke-linejoin:round;}
  </style>
 </defs>
 <g id="figure_1">
  <g id="patch_1">
   <path d="M 0 473.76 
L 864 473.76 
L 864 0 
L 0 0 
z
" style="fill:#ffffff;"/>
  </g>
  <g id="axes_1">
   <g id="patch_2">
    <path d="M 108 412.848 
L 777.6 412.848 
L 777.6 56.8512 
L 108 56.8512 
z
" style="fill:#ffffff;"/>
   </g>
   <g id="patch_3">
    <path clip-path="url(#p83350d25bf)" d="M 138.436364 412.848 
L 208.303213 412.848 
L 208.303213 84.958039 
L 138.436364 84.958039 
z
" style="fill:#ffb914;stroke:#000000;stroke-linejoin:miter;stroke-width:4;"/>
   </g>
   <g id="patch_4">
    <path clip-path="url(#p83350d25bf)" d="M 268.625551 412.848 
L 338.492401 412.848 
L 338.492401 287.114907 
L 268.625551 287.114907 
z
" style="fill:#ffb914;stroke:#000000;stroke-linejoin:miter;stroke-width:4;"/>
   </g>
   <g id="patch_5">
    <path clip-path="url(#p83350d25bf)" d="M 398.814739 412.848 
L 468.681588 412.848 
L 468.681588 248.794146 
L 398.814739 248.794146 
z
" style="fill:#ffb914;stroke:#000000;stroke-linejoin:miter;stroke-width:4;"/>
   </g>
   <g id="patch_6">
    <path clip-path="url(#p83350d25bf)" d="M 529.003926 412.848 
L 598.870776 412.848 
L 598.870776 287.498088 
L 529.003926 287.498088 
z
" style="fill:#ffb914;stroke:#000000;stroke-linejoin:miter;stroke-width:4;"/>
   </g>
   <g id="patch_7">
    <path clip-path="url(#p83350d25bf)" d="M 659.193114 412.848 
L 729.059963 412.848 
L 729.059963 286.09263 
L 659.193114 286.09263 
z
" style="fill:#ffb914;stroke:#000000;stroke-linejoin:miter;stroke-width:4;"/>
   </g>
   <g id="LineCollection_1">
    <path clip-path="url(#p83350d25bf)" d="M 173.369788 90.950768 
L 173.369788 78.965311 
" style="fill:none;stroke:#000000;stroke-width:2;"/>
   </g>
   <g id="LineCollection_2">
    <path clip-path="url(#p83350d25bf)" d="M 303.558976 289.259417 
L 303.558976 284.970396 
" style="fill:none;stroke:#000000;stroke-width:2;"/>
   </g>
   <g id="LineCollection_3">
    <path clip-path="url(#p83350d25bf)" d="M 433.748164 250.699776 
L 433.748164 246.888515 
" style="fill:none;stroke:#000000;stroke-width:2;"/>
   </g>
   <g id="LineCollection_4">
    <path clip-path="url(#p83350d25bf)" d="M 563.937351 289.009712 
L 563.937351 285.986465 
" style="fill:none;stroke:#000000;stroke-width:2;"/>
   </g>
   <g id="LineCollection_5">
    <path clip-path="url(#p83350d25bf)" d="M 694.126539 288.562972 
L 694.126539 283.622288 
" style="fill:none;stroke:#000000;stroke-width:2;"/>
   </g>
   <g id="line2d_1">
    <defs>
     <path d="M 5 0 
L -5 -0 
" id="m15042dacbc" style="stroke:#000000;stroke-width:2;"/>
    </defs>
    <g clip-path="url(#p83350d25bf)">
     <use style="stroke:#000000;stroke-width:2;" x="173.369788" xlink:href="#m15042dacbc" y="90.950768"/>
    </g>
   </g>
   <g id="line2d_2">
    <g clip-path="url(#p83350d25bf)">
     <use style="stroke:#000000;stroke-width:2;" x="173.369788" xlink:href="#m15042dacbc" y="78.965311"/>
    </g>
   </g>
   <g id="line2d_3">
    <g clip-path="url(#p83350d25bf)">
     <use style="stroke:#000000;stroke-width:2;" x="303.558976" xlink:href="#m15042dacbc" y="289.259417"/>
    </g>
   </g>
   <g id="line2d_4">
    <g clip-path="url(#p83350d25bf)">
     <use style="stroke:#000000;stroke-width:2;" x="303.558976" xlink:href="#m15042dacbc" y="284.970396"/>
    </g>
   </g>
   <g id="line2d_5">
    <g clip-path="url(#p83350d25bf)">
     <use style="stroke:#000000;stroke-width:2;" x="433.748164" xlink:href="#m15042dacbc" y="250.699776"/>
    </g>
   </g>
   <g id="line2d_6">
    <g clip-path="url(#p83350d25bf)">
     <use style="stroke:#000000;stroke-width:2;" x="433.748164" xlink:href="#m15042dacbc" y="246.888515"/>
    </g>
   </g>
   <g id="line2d_7">
    <g clip-path="url(#p83350d25bf)">
     <use style="stroke:#000000;stroke-width:2;" x="563.937351" xlink:href="#m15042dacbc" y="289.009712"/>
    </g>
   </g>
   <g id="line2d_8">
    <g clip-path="url(#p83350d25bf)">
     <use style="stroke:#000000;stroke-width:2;" x="563.937351" xlink:href="#m15042dacbc" y="285.986465"/>
    </g>
   </g>
   <g id="line2d_9">
    <g clip-path="url(#p83350d25bf)">
     <use style="stroke:#000000;stroke-width:2;" x="694.126539" xlink:href="#m15042dacbc" y="288.562972"/>
    </g>
   </g>
   <g id="line2d_10">
    <g clip-path="url(#p83350d25bf)">
     <use style="stroke:#000000;stroke-width:2;" x="694.126539" xlink:href="#m15042dacbc" y="283.622288"/>
    </g>
   </g>
   <g id="PathCollection_1">
    <path clip-path="url(#p83350d25bf)" d="M 149.369788 87.750258 
C 151.26801 87.750258 153.088741 86.996087 154.430986 85.653841 
C 155.773232 84.311596 156.527403 82.490865 156.527403 80.592643 
C 156.527403 78.694422 155.773232 76.873691 154.430986 75.531446 
C 153.088741 74.1892 151.26801 73.435029 149.369788 73.435029 
C 147.471567 73.435029 145.650836 74.1892 144.308591 75.531446 
C 142.966345 76.873691 142.212174 78.694422 142.212174 80.592643 
C 142.212174 82.490865 142.966345 84.311596 144.308591 85.653841 
C 145.650836 86.996087 147.471567 87.750258 149.369788 87.750258 
z
" style="fill:none;stroke:#000000;stroke-width:2.5;"/>
   </g>
   <g id="PathCollection_2">
    <path clip-path="url(#p83350d25bf)" d="M 173.369788 89.64859 
C 175.26801 89.64859 177.088741 88.894419 178.430986 87.552173 
C 179.773232 86.209928 180.527403 84.389197 180.527403 82.490975 
C 180.527403 80.592754 179.773232 78.772023 178.430986 77.429778 
C 177.088741 76.087532 175.26801 75.333361 173.369788 75.333361 
C 171.471567 75.333361 169.650836 76.087532 168.308591 77.429778 
C 166.966345 78.772023 166.212174 80.592754 166.212174 82.490975 
C 166.212174 84.389197 166.966345 86.209928 168.308591 87.552173 
C 169.650836 88.894419 171.471567 89.64859 173.369788 89.64859 
z
" style="fill:none;stroke:#000000;stroke-width:2.5;"/>
   </g>
   <g id="PathCollection_3">
    <path clip-path="url(#p83350d25bf)" d="M 197.369788 98.948113 
C 199.26801 98.948113 201.088741 98.193942 202.430986 96.851697 
C 203.773232 95.509451 204.527403 93.68872 204.527403 91.790499 
C 204.527403 89.892277 203.773232 88.071546 202.430986 86.729301 
C 201.088741 85.387055 199.26801 84.632884 197.369788 84.632884 
C 195.471567 84.632884 193.650836 85.387055 192.308591 86.729301 
C 190.966345 88.071546 190.212174 89.892277 190.212174 91.790499 
C 190.212174 93.68872 190.966345 95.509451 192.308591 96.851697 
C 193.650836 98.193942 195.471567 98.948113 197.369788 98.948113 
z
" style="fill:none;stroke:#000000;stroke-width:2.5;"/>
   </g>
   <g id="PathCollection_4">
    <path clip-path="url(#p83350d25bf)" d="M 279.558976 293.664279 
C 281.457198 293.664279 283.277929 292.910107 284.620174 291.567862 
C 285.962419 290.225616 286.716591 288.404886 286.716591 286.506664 
C 286.716591 284.608442 285.962419 282.787711 284.620174 281.445466 
C 283.277929 280.103221 281.457198 279.349049 279.558976 279.349049 
C 277.660754 279.349049 275.840023 280.103221 274.497778 281.445466 
C 273.155533 282.787711 272.401361 284.608442 272.401361 286.506664 
C 272.401361 288.404886 273.155533 290.225616 274.497778 291.567862 
C 275.840023 292.910107 277.660754 293.664279 279.558976 293.664279 
z
" style="fill:none;stroke:#000000;stroke-width:2.5;"/>
   </g>
   <g id="PathCollection_5">
    <path clip-path="url(#p83350d25bf)" d="M 303.558976 292.497832 
C 305.457198 292.497832 307.277929 291.74366 308.620174 290.401415 
C 309.962419 289.059169 310.716591 287.238438 310.716591 285.340217 
C 310.716591 283.441995 309.962419 281.621264 308.620174 280.279019 
C 307.277929 278.936774 305.457198 278.182602 303.558976 278.182602 
C 301.660754 278.182602 299.840023 278.936774 298.497778 280.279019 
C 297.155533 281.621264 296.401361 283.441995 296.401361 285.340217 
C 296.401361 287.238438 297.155533 289.059169 298.497778 290.401415 
C 299.840023 291.74366 301.660754 292.497832 303.558976 292.497832 
z
" style="fill:none;stroke:#000000;stroke-width:2.5;"/>
   </g>
   <g id="PathCollection_6">
    <path clip-path="url(#p83350d25bf)" d="M 327.558976 296.655454 
C 329.457198 296.655454 331.277929 295.901282 332.620174 294.559037 
C 333.962419 293.216792 334.716591 291.396061 334.716591 289.497839 
C 334.716591 287.599617 333.962419 285.778886 332.620174 284.436641 
C 331.277929 283.094396 329.457198 282.340224 327.558976 282.340224 
C 325.660754 282.340224 323.840023 283.094396 322.497778 284.436641 
C 321.155533 285.778886 320.401361 287.599617 320.401361 289.497839 
C 320.401361 291.396061 321.155533 293.216792 322.497778 294.559037 
C 323.840023 295.901282 325.660754 296.655454 327.558976 296.655454 
z
" style="fill:none;stroke:#000000;stroke-width:2.5;"/>
   </g>
   <g id="PathCollection_7">
    <path clip-path="url(#p83350d25bf)" d="M 409.748164 255.389845 
C 411.646385 255.389845 413.467116 254.635673 414.809361 253.293428 
C 416.151607 251.951182 416.905778 250.130451 416.905778 248.23223 
C 416.905778 246.334008 416.151607 244.513277 414.809361 243.171032 
C 413.467116 241.828787 411.646385 241.074615 409.748164 241.074615 
C 407.849942 241.074615 406.029211 241.828787 404.686966 243.171032 
C 403.34472 244.513277 402.590549 246.334008 402.590549 248.23223 
C 402.590549 250.130451 403.34472 251.951182 404.686966 253.293428 
C 406.029211 254.635673 407.849942 255.389845 409.748164 255.389845 
z
" style="fill:none;stroke:#000000;stroke-width:2.5;"/>
   </g>
   <g id="PathCollection_8">
    <path clip-path="url(#p83350d25bf)" d="M 433.748164 258.075166 
C 435.646385 258.075166 437.467116 257.320995 438.809361 255.978749 
C 440.151607 254.636504 440.905778 252.815773 440.905778 250.917551 
C 440.905778 249.01933 440.151607 247.198599 438.809361 245.856354 
C 437.467116 244.514108 435.646385 243.759937 433.748164 243.759937 
C 431.849942 243.759937 430.029211 244.514108 428.686966 245.856354 
C 427.34472 247.198599 426.590549 249.01933 426.590549 250.917551 
C 426.590549 252.815773 427.34472 254.636504 428.686966 255.978749 
C 430.029211 257.320995 431.849942 258.075166 433.748164 258.075166 
z
" style="fill:none;stroke:#000000;stroke-width:2.5;"/>
   </g>
   <g id="PathCollection_9">
    <path clip-path="url(#p83350d25bf)" d="M 457.748164 254.39027 
C 459.646385 254.39027 461.467116 253.636099 462.809361 252.293853 
C 464.151607 250.951608 464.905778 249.130877 464.905778 247.232655 
C 464.905778 245.334434 464.151607 243.513703 462.809361 242.171457 
C 461.467116 240.829212 459.646385 240.075041 457.748164 240.075041 
C 455.849942 240.075041 454.029211 240.829212 452.686966 242.171457 
C 451.34472 243.513703 450.590549 245.334434 450.590549 247.232655 
C 450.590549 249.130877 451.34472 250.951608 452.686966 252.293853 
C 454.029211 253.636099 455.849942 254.39027 457.748164 254.39027 
z
" style="fill:none;stroke:#000000;stroke-width:2.5;"/>
   </g>
   <g id="PathCollection_10">
    <path clip-path="url(#p83350d25bf)" d="M 539.937351 293.888124 
C 541.835573 293.888124 543.656304 293.133952 544.998549 291.791707 
C 546.340794 290.449461 547.094966 288.628731 547.094966 286.730509 
C 547.094966 284.832287 546.340794 283.011556 544.998549 281.669311 
C 543.656304 280.327066 541.835573 279.572894 539.937351 279.572894 
C 538.03913 279.572894 536.218399 280.327066 534.876153 281.669311 
C 533.533908 283.011556 532.779736 284.832287 532.779736 286.730509 
C 532.779736 288.628731 533.533908 290.449461 534.876153 291.791707 
C 536.218399 293.133952 538.03913 293.888124 539.937351 293.888124 
z
" style="fill:none;stroke:#000000;stroke-width:2.5;"/>
   </g>
   <g id="PathCollection_11">
    <path clip-path="url(#p83350d25bf)" d="M 563.937351 293.681877 
C 565.835573 293.681877 567.656304 292.927706 568.998549 291.58546 
C 570.340794 290.243215 571.094966 288.422484 571.094966 286.524262 
C 571.094966 284.626041 570.340794 282.80531 568.998549 281.463065 
C 567.656304 280.120819 565.835573 279.366648 563.937351 279.366648 
C 562.03913 279.366648 560.218399 280.120819 558.876153 281.463065 
C 557.533908 282.80531 556.779736 284.626041 556.779736 286.524262 
C 556.779736 288.422484 557.533908 290.243215 558.876153 291.58546 
C 560.218399 292.927706 562.03913 293.681877 563.937351 293.681877 
z
" style="fill:none;stroke:#000000;stroke-width:2.5;"/>
   </g>
   <g id="PathCollection_12">
    <path clip-path="url(#p83350d25bf)" d="M 587.937351 296.397109 
C 589.835573 296.397109 591.656304 295.642937 592.998549 294.300692 
C 594.340794 292.958446 595.094966 291.137716 595.094966 289.239494 
C 595.094966 287.341272 594.340794 285.520541 592.998549 284.178296 
C 591.656304 282.836051 589.835573 282.081879 587.937351 282.081879 
C 586.03913 282.081879 584.218399 282.836051 582.876153 284.178296 
C 581.533908 285.520541 580.779736 287.341272 580.779736 289.239494 
C 580.779736 291.137716 581.533908 292.958446 582.876153 294.300692 
C 584.218399 295.642937 586.03913 296.397109 587.937351 296.397109 
z
" style="fill:none;stroke:#000000;stroke-width:2.5;"/>
   </g>
   <g id="PathCollection_13">
    <path clip-path="url(#p83350d25bf)" d="M 670.126539 291.174199 
C 672.02476 291.174199 673.845491 290.420028 675.187737 289.077782 
C 676.529982 287.735537 677.284153 285.914806 677.284153 284.016584 
C 677.284153 282.118363 676.529982 280.297632 675.187737 278.955386 
C 673.845491 277.613141 672.02476 276.85897 670.126539 276.85897 
C 668.228317 276.85897 666.407586 277.613141 665.065341 278.955386 
C 663.723095 280.297632 662.968924 282.118363 662.968924 284.016584 
C 662.968924 285.914806 663.723095 287.735537 665.065341 289.077782 
C 666.407586 290.420028 668.228317 291.174199 670.126539 291.174199 
z
" style="fill:none;stroke:#000000;stroke-width:2.5;"/>
   </g>
   <g id="PathCollection_14">
    <path clip-path="url(#p83350d25bf)" d="M 694.126539 295.982409 
C 696.02476 295.982409 697.845491 295.228237 699.187737 293.885992 
C 700.529982 292.543746 701.284153 290.723015 701.284153 288.824794 
C 701.284153 286.926572 700.529982 285.105841 699.187737 283.763596 
C 697.845491 282.421351 696.02476 281.667179 694.126539 281.667179 
C 692.228317 281.667179 690.407586 282.421351 689.065341 283.763596 
C 687.723095 285.105841 686.968924 286.926572 686.968924 288.824794 
C 686.968924 290.723015 687.723095 292.543746 689.065341 293.885992 
C 690.407586 295.228237 692.228317 295.982409 694.126539 295.982409 
z
" style="fill:none;stroke:#000000;stroke-width:2.5;"/>
   </g>
   <g id="PathCollection_15">
    <path clip-path="url(#p83350d25bf)" d="M 718.126539 292.594126 
C 720.02476 292.594126 721.845491 291.839954 723.187737 290.497709 
C 724.529982 289.155463 725.284153 287.334732 725.284153 285.436511 
C 725.284153 283.538289 724.529982 281.717558 723.187737 280.375313 
C 721.845491 279.033068 720.02476 278.278896 718.126539 278.278896 
C 716.228317 278.278896 714.407586 279.033068 713.065341 280.375313 
C 711.723095 281.717558 710.968924 283.538289 710.968924 285.436511 
C 710.968924 287.334732 711.723095 289.155463 713.065341 290.497709 
C 714.407586 291.839954 716.228317 292.594126 718.126539 292.594126 
z
" style="fill:none;stroke:#000000;stroke-width:2.5;"/>
   </g>
   <g id="matplotlib.axis_1">
    <g id="xtick_1">
     <g id="line2d_11">
      <defs>
       <path d="M 0 0 
L 0 2 
" id="m1741e81367" style="stroke:#000000;"/>
      </defs>
      <g>
       <use style="stroke:#000000;" x="173.369788" xlink:href="#m1741e81367" y="412.848"/>
      </g>
     </g>
     <g id="text_1">
      <!-- NAT -->
      <defs>
       <path d="M 9.8125 72.90625 
L 23.09375 72.90625 
L 55.421875 11.921875 
L 55.421875 72.90625 
L 64.984375 72.90625 
L 64.984375 0 
L 51.703125 0 
L 19.390625 60.984375 
L 19.390625 0 
L 9.8125 0 
z
" id="DejaVuSans-78"/>
       <path d="M 34.1875 63.1875 
L 20.796875 26.90625 
L 47.609375 26.90625 
z
M 28.609375 72.90625 
L 39.796875 72.90625 
L 67.578125 0 
L 57.328125 0 
L 50.6875 18.703125 
L 17.828125 18.703125 
L 11.1875 0 
L 0.78125 0 
z
" id="DejaVuSans-65"/>
       <path d="M -0.296875 72.90625 
L 61.375 72.90625 
L 61.375 64.59375 
L 35.5 64.59375 
L 35.5 0 
L 25.59375 0 
L 25.59375 64.59375 
L -0.296875 64.59375 
z
" id="DejaVuSans-84"/>
      </defs>
      <g transform="translate(164.941076 450.045829)rotate(-45)scale(0.16 -0.16)">
       <use xlink:href="#DejaVuSans-78"/>
       <use x="74.804688" xlink:href="#DejaVuSans-65"/>
       <use x="143.103516" xlink:href="#DejaVuSans-84"/>
      </g>
     </g>
    </g>
    <g id="xtick_2">
     <g id="line2d_12">
      <g>
       <use style="stroke:#000000;" x="303.558976" xlink:href="#m1741e81367" y="412.848"/>
      </g>
     </g>
     <g id="text_2">
      <!-- WT -->
      <defs>
       <path d="M 3.328125 72.90625 
L 13.28125 72.90625 
L 28.609375 11.28125 
L 43.890625 72.90625 
L 54.984375 72.90625 
L 70.3125 11.28125 
L 85.59375 72.90625 
L 95.609375 72.90625 
L 77.296875 0 
L 64.890625 0 
L 49.515625 63.28125 
L 33.984375 0 
L 21.578125 0 
z
" id="DejaVuSans-87"/>
      </defs>
      <g transform="translate(297.632537 445.041281)rotate(-45)scale(0.16 -0.16)">
       <use xlink:href="#DejaVuSans-87"/>
       <use x="98.876953" xlink:href="#DejaVuSans-84"/>
      </g>
     </g>
    </g>
    <g id="xtick_3">
     <g id="line2d_13">
      <g>
       <use style="stroke:#000000;" x="433.748164" xlink:href="#m1741e81367" y="412.848"/>
      </g>
     </g>
     <g id="text_3">
      <!-- INV -->
      <defs>
       <path d="M 9.8125 72.90625 
L 19.671875 72.90625 
L 19.671875 0 
L 9.8125 0 
z
" id="DejaVuSans-73"/>
       <path d="M 28.609375 0 
L 0.78125 72.90625 
L 11.078125 72.90625 
L 34.1875 11.53125 
L 57.328125 72.90625 
L 67.578125 72.90625 
L 39.796875 0 
z
" id="DejaVuSans-86"/>
      </defs>
      <g transform="translate(427.099592 446.485547)rotate(-45)scale(0.16 -0.16)">
       <use xlink:href="#DejaVuSans-73"/>
       <use x="29.492188" xlink:href="#DejaVuSans-78"/>
       <use x="104.296875" xlink:href="#DejaVuSans-86"/>
      </g>
     </g>
    </g>
    <g id="xtick_4">
     <g id="line2d_14">
      <g>
       <use style="stroke:#000000;" x="563.937351" xlink:href="#m1741e81367" y="412.848"/>
      </g>
     </g>
     <g id="text_4">
      <!-- V2 -->
      <defs>
       <path d="M 19.1875 8.296875 
L 53.609375 8.296875 
L 53.609375 0 
L 7.328125 0 
L 7.328125 8.296875 
Q 12.9375 14.109375 22.625 23.890625 
Q 32.328125 33.6875 34.8125 36.53125 
Q 39.546875 41.84375 41.421875 45.53125 
Q 43.3125 49.21875 43.3125 52.78125 
Q 43.3125 58.59375 39.234375 62.25 
Q 35.15625 65.921875 28.609375 65.921875 
Q 23.96875 65.921875 18.8125 64.3125 
Q 13.671875 62.703125 7.8125 59.421875 
L 7.8125 69.390625 
Q 13.765625 71.78125 18.9375 73 
Q 24.125 74.21875 28.421875 74.21875 
Q 39.75 74.21875 46.484375 68.546875 
Q 53.21875 62.890625 53.21875 53.421875 
Q 53.21875 48.921875 51.53125 44.890625 
Q 49.859375 40.875 45.40625 35.40625 
Q 44.1875 33.984375 37.640625 27.21875 
Q 31.109375 20.453125 19.1875 8.296875 
z
" id="DejaVuSans-50"/>
      </defs>
      <g transform="translate(559.590412 441.882281)rotate(-45)scale(0.16 -0.16)">
       <use xlink:href="#DejaVuSans-86"/>
       <use x="68.408203" xlink:href="#DejaVuSans-50"/>
      </g>
     </g>
    </g>
    <g id="xtick_5">
     <g id="line2d_15">
      <g>
       <use style="stroke:#000000;" x="694.126539" xlink:href="#m1741e81367" y="412.848"/>
      </g>
     </g>
     <g id="text_5">
      <!-- V3 -->
      <defs>
       <path d="M 40.578125 39.3125 
Q 47.65625 37.796875 51.625 33 
Q 55.609375 28.21875 55.609375 21.1875 
Q 55.609375 10.40625 48.1875 4.484375 
Q 40.765625 -1.421875 27.09375 -1.421875 
Q 22.515625 -1.421875 17.65625 -0.515625 
Q 12.796875 0.390625 7.625 2.203125 
L 7.625 11.71875 
Q 11.71875 9.328125 16.59375 8.109375 
Q 21.484375 6.890625 26.8125 6.890625 
Q 36.078125 6.890625 40.9375 10.546875 
Q 45.796875 14.203125 45.796875 21.1875 
Q 45.796875 27.640625 41.28125 31.265625 
Q 36.765625 34.90625 28.71875 34.90625 
L 20.21875 34.90625 
L 20.21875 43.015625 
L 29.109375 43.015625 
Q 36.375 43.015625 40.234375 45.921875 
Q 44.09375 48.828125 44.09375 54.296875 
Q 44.09375 59.90625 40.109375 62.90625 
Q 36.140625 65.921875 28.71875 65.921875 
Q 24.65625 65.921875 20.015625 65.03125 
Q 15.375 64.15625 9.8125 62.3125 
L 9.8125 71.09375 
Q 15.4375 72.65625 20.34375 73.4375 
Q 25.25 74.21875 29.59375 74.21875 
Q 40.828125 74.21875 47.359375 69.109375 
Q 53.90625 64.015625 53.90625 55.328125 
Q 53.90625 49.265625 50.4375 45.09375 
Q 46.96875 40.921875 40.578125 39.3125 
z
" id="DejaVuSans-51"/>
      </defs>
      <g transform="translate(689.7796 441.882281)rotate(-45)scale(0.16 -0.16)">
       <use xlink:href="#DejaVuSans-86"/>
       <use x="68.408203" xlink:href="#DejaVuSans-51"/>
      </g>
     </g>
    </g>
    <g id="text_6">
     <!-- Promoter -->
     <defs>
      <path d="M 19.671875 64.796875 
L 19.671875 37.40625 
L 32.078125 37.40625 
Q 38.96875 37.40625 42.71875 40.96875 
Q 46.484375 44.53125 46.484375 51.125 
Q 46.484375 57.671875 42.71875 61.234375 
Q 38.96875 64.796875 32.078125 64.796875 
z
M 9.8125 72.90625 
L 32.078125 72.90625 
Q 44.34375 72.90625 50.609375 67.359375 
Q 56.890625 61.8125 56.890625 51.125 
Q 56.890625 40.328125 50.609375 34.8125 
Q 44.34375 29.296875 32.078125 29.296875 
L 19.671875 29.296875 
L 19.671875 0 
L 9.8125 0 
z
" id="DejaVuSans-80"/>
      <path d="M 41.109375 46.296875 
Q 39.59375 47.171875 37.8125 47.578125 
Q 36.03125 48 33.890625 48 
Q 26.265625 48 22.1875 43.046875 
Q 18.109375 38.09375 18.109375 28.8125 
L 18.109375 0 
L 9.078125 0 
L 9.078125 54.6875 
L 18.109375 54.6875 
L 18.109375 46.1875 
Q 20.953125 51.171875 25.484375 53.578125 
Q 30.03125 56 36.53125 56 
Q 37.453125 56 38.578125 55.875 
Q 39.703125 55.765625 41.0625 55.515625 
z
" id="DejaVuSans-114"/>
      <path d="M 30.609375 48.390625 
Q 23.390625 48.390625 19.1875 42.75 
Q 14.984375 37.109375 14.984375 27.296875 
Q 14.984375 17.484375 19.15625 11.84375 
Q 23.34375 6.203125 30.609375 6.203125 
Q 37.796875 6.203125 41.984375 11.859375 
Q 46.1875 17.53125 46.1875 27.296875 
Q 46.1875 37.015625 41.984375 42.703125 
Q 37.796875 48.390625 30.609375 48.390625 
z
M 30.609375 56 
Q 42.328125 56 49.015625 48.375 
Q 55.71875 40.765625 55.71875 27.296875 
Q 55.71875 13.875 49.015625 6.21875 
Q 42.328125 -1.421875 30.609375 -1.421875 
Q 18.84375 -1.421875 12.171875 6.21875 
Q 5.515625 13.875 5.515625 27.296875 
Q 5.515625 40.765625 12.171875 48.375 
Q 18.84375 56 30.609375 56 
z
" id="DejaVuSans-111"/>
      <path d="M 52 44.1875 
Q 55.375 50.25 60.0625 53.125 
Q 64.75 56 71.09375 56 
Q 79.640625 56 84.28125 50.015625 
Q 88.921875 44.046875 88.921875 33.015625 
L 88.921875 0 
L 79.890625 0 
L 79.890625 32.71875 
Q 79.890625 40.578125 77.09375 44.375 
Q 74.3125 48.1875 68.609375 48.1875 
Q 61.625 48.1875 57.5625 43.546875 
Q 53.515625 38.921875 53.515625 30.90625 
L 53.515625 0 
L 44.484375 0 
L 44.484375 32.71875 
Q 44.484375 40.625 41.703125 44.40625 
Q 38.921875 48.1875 33.109375 48.1875 
Q 26.21875 48.1875 22.15625 43.53125 
Q 18.109375 38.875 18.109375 30.90625 
L 18.109375 0 
L 9.078125 0 
L 9.078125 54.6875 
L 18.109375 54.6875 
L 18.109375 46.1875 
Q 21.1875 51.21875 25.484375 53.609375 
Q 29.78125 56 35.6875 56 
Q 41.65625 56 45.828125 52.96875 
Q 50 49.953125 52 44.1875 
z
" id="DejaVuSans-109"/>
      <path d="M 18.3125 70.21875 
L 18.3125 54.6875 
L 36.8125 54.6875 
L 36.8125 47.703125 
L 18.3125 47.703125 
L 18.3125 18.015625 
Q 18.3125 11.328125 20.140625 9.421875 
Q 21.96875 7.515625 27.59375 7.515625 
L 36.8125 7.515625 
L 36.8125 0 
L 27.59375 0 
Q 17.1875 0 13.234375 3.875 
Q 9.28125 7.765625 9.28125 18.015625 
L 9.28125 47.703125 
L 2.6875 47.703125 
L 2.6875 54.6875 
L 9.28125 54.6875 
L 9.28125 70.21875 
z
" id="DejaVuSans-116"/>
      <path d="M 56.203125 29.59375 
L 56.203125 25.203125 
L 14.890625 25.203125 
Q 15.484375 15.921875 20.484375 11.0625 
Q 25.484375 6.203125 34.421875 6.203125 
Q 39.59375 6.203125 44.453125 7.46875 
Q 49.3125 8.734375 54.109375 11.28125 
L 54.109375 2.78125 
Q 49.265625 0.734375 44.1875 -0.34375 
Q 39.109375 -1.421875 33.890625 -1.421875 
Q 20.796875 -1.421875 13.15625 6.1875 
Q 5.515625 13.8125 5.515625 26.8125 
Q 5.515625 40.234375 12.765625 48.109375 
Q 20.015625 56 32.328125 56 
Q 43.359375 56 49.78125 48.890625 
Q 56.203125 41.796875 56.203125 29.59375 
z
M 47.21875 32.234375 
Q 47.125 39.59375 43.09375 43.984375 
Q 39.0625 48.390625 32.421875 48.390625 
Q 24.90625 48.390625 20.390625 44.140625 
Q 15.875 39.890625 15.1875 32.171875 
z
" id="DejaVuSans-101"/>
     </defs>
     <g transform="translate(401.131406 470.075915)scale(0.18 -0.18)">
      <use xlink:href="#DejaVuSans-80"/>
      <use x="60.287109" xlink:href="#DejaVuSans-114"/>
      <use x="101.369141" xlink:href="#DejaVuSans-111"/>
      <use x="162.550781" xlink:href="#DejaVuSans-109"/>
      <use x="259.962891" xlink:href="#DejaVuSans-111"/>
      <use x="321.144531" xlink:href="#DejaVuSans-116"/>
      <use x="360.353516" xlink:href="#DejaVuSans-101"/>
      <use x="421.876953" xlink:href="#DejaVuSans-114"/>
     </g>
    </g>
   </g>
   <g id="matplotlib.axis_2">
    <g id="ytick_1">
     <g id="line2d_16">
      <defs>
       <path d="M 0 0 
L -2 0 
" id="m35a111c917" style="stroke:#000000;"/>
      </defs>
      <g>
       <use style="stroke:#000000;" x="108" xlink:href="#m35a111c917" y="412.848"/>
      </g>
     </g>
     <g id="text_7">
      <!-- 0 -->
      <defs>
       <path d="M 31.78125 66.40625 
Q 24.171875 66.40625 20.328125 58.90625 
Q 16.5 51.421875 16.5 36.375 
Q 16.5 21.390625 20.328125 13.890625 
Q 24.171875 6.390625 31.78125 6.390625 
Q 39.453125 6.390625 43.28125 13.890625 
Q 47.125 21.390625 47.125 36.375 
Q 47.125 51.421875 43.28125 58.90625 
Q 39.453125 66.40625 31.78125 66.40625 
z
M 31.78125 74.21875 
Q 44.046875 74.21875 50.515625 64.515625 
Q 56.984375 54.828125 56.984375 36.375 
Q 56.984375 17.96875 50.515625 8.265625 
Q 44.046875 -1.421875 31.78125 -1.421875 
Q 19.53125 -1.421875 13.0625 8.265625 
Q 6.59375 17.96875 6.59375 36.375 
Q 6.59375 54.828125 13.0625 64.515625 
Q 19.53125 74.21875 31.78125 74.21875 
z
" id="DejaVuSans-48"/>
      </defs>
      <g transform="translate(91.0475 419.686594)scale(0.18 -0.18)">
       <use xlink:href="#DejaVuSans-48"/>
      </g>
     </g>
    </g>
    <g id="ytick_2">
     <g id="line2d_17">
      <g>
       <use style="stroke:#000000;" x="108" xlink:href="#m35a111c917" y="360.003905"/>
      </g>
     </g>
     <g id="text_8">
      <!-- 1 -->
      <defs>
       <path d="M 12.40625 8.296875 
L 28.515625 8.296875 
L 28.515625 63.921875 
L 10.984375 60.40625 
L 10.984375 69.390625 
L 28.421875 72.90625 
L 38.28125 72.90625 
L 38.28125 8.296875 
L 54.390625 8.296875 
L 54.390625 0 
L 12.40625 0 
z
" id="DejaVuSans-49"/>
      </defs>
      <g transform="translate(91.0475 366.842499)scale(0.18 -0.18)">
       <use xlink:href="#DejaVuSans-49"/>
      </g>
     </g>
    </g>
    <g id="ytick_3">
     <g id="line2d_18">
      <g>
       <use style="stroke:#000000;" x="108" xlink:href="#m35a111c917" y="307.15981"/>
      </g>
     </g>
     <g id="text_9">
      <!-- 2 -->
      <g transform="translate(91.0475 313.998403)scale(0.18 -0.18)">
       <use xlink:href="#DejaVuSans-50"/>
      </g>
     </g>
    </g>
    <g id="ytick_4">
     <g id="line2d_19">
      <g>
       <use style="stroke:#000000;" x="108" xlink:href="#m35a111c917" y="254.315714"/>
      </g>
     </g>
     <g id="text_10">
      <!-- 3 -->
      <g transform="translate(91.0475 261.154308)scale(0.18 -0.18)">
       <use xlink:href="#DejaVuSans-51"/>
      </g>
     </g>
    </g>
    <g id="ytick_5">
     <g id="line2d_20">
      <g>
       <use style="stroke:#000000;" x="108" xlink:href="#m35a111c917" y="201.471619"/>
      </g>
     </g>
     <g id="text_11">
      <!-- 4 -->
      <defs>
       <path d="M 37.796875 64.3125 
L 12.890625 25.390625 
L 37.796875 25.390625 
z
M 35.203125 72.90625 
L 47.609375 72.90625 
L 47.609375 25.390625 
L 58.015625 25.390625 
L 58.015625 17.1875 
L 47.609375 17.1875 
L 47.609375 0 
L 37.796875 0 
L 37.796875 17.1875 
L 4.890625 17.1875 
L 4.890625 26.703125 
z
" id="DejaVuSans-52"/>
      </defs>
      <g transform="translate(91.0475 208.310213)scale(0.18 -0.18)">
       <use xlink:href="#DejaVuSans-52"/>
      </g>
     </g>
    </g>
    <g id="ytick_6">
     <g id="line2d_21">
      <g>
       <use style="stroke:#000000;" x="108" xlink:href="#m35a111c917" y="148.627524"/>
      </g>
     </g>
     <g id="text_12">
      <!-- 5 -->
      <defs>
       <path d="M 10.796875 72.90625 
L 49.515625 72.90625 
L 49.515625 64.59375 
L 19.828125 64.59375 
L 19.828125 46.734375 
Q 21.96875 47.46875 24.109375 47.828125 
Q 26.265625 48.1875 28.421875 48.1875 
Q 40.625 48.1875 47.75 41.5 
Q 54.890625 34.8125 54.890625 23.390625 
Q 54.890625 11.625 47.5625 5.09375 
Q 40.234375 -1.421875 26.90625 -1.421875 
Q 22.3125 -1.421875 17.546875 -0.640625 
Q 12.796875 0.140625 7.71875 1.703125 
L 7.71875 11.625 
Q 12.109375 9.234375 16.796875 8.0625 
Q 21.484375 6.890625 26.703125 6.890625 
Q 35.15625 6.890625 40.078125 11.328125 
Q 45.015625 15.765625 45.015625 23.390625 
Q 45.015625 31 40.078125 35.4375 
Q 35.15625 39.890625 26.703125 39.890625 
Q 22.75 39.890625 18.8125 39.015625 
Q 14.890625 38.140625 10.796875 36.28125 
z
" id="DejaVuSans-53"/>
      </defs>
      <g transform="translate(91.0475 155.466118)scale(0.18 -0.18)">
       <use xlink:href="#DejaVuSans-53"/>
      </g>
     </g>
    </g>
    <g id="ytick_7">
     <g id="line2d_22">
      <g>
       <use style="stroke:#000000;" x="108" xlink:href="#m35a111c917" y="95.783429"/>
      </g>
     </g>
     <g id="text_13">
      <!-- 6 -->
      <defs>
       <path d="M 33.015625 40.375 
Q 26.375 40.375 22.484375 35.828125 
Q 18.609375 31.296875 18.609375 23.390625 
Q 18.609375 15.53125 22.484375 10.953125 
Q 26.375 6.390625 33.015625 6.390625 
Q 39.65625 6.390625 43.53125 10.953125 
Q 47.40625 15.53125 47.40625 23.390625 
Q 47.40625 31.296875 43.53125 35.828125 
Q 39.65625 40.375 33.015625 40.375 
z
M 52.59375 71.296875 
L 52.59375 62.3125 
Q 48.875 64.0625 45.09375 64.984375 
Q 41.3125 65.921875 37.59375 65.921875 
Q 27.828125 65.921875 22.671875 59.328125 
Q 17.53125 52.734375 16.796875 39.40625 
Q 19.671875 43.65625 24.015625 45.921875 
Q 28.375 48.1875 33.59375 48.1875 
Q 44.578125 48.1875 50.953125 41.515625 
Q 57.328125 34.859375 57.328125 23.390625 
Q 57.328125 12.15625 50.6875 5.359375 
Q 44.046875 -1.421875 33.015625 -1.421875 
Q 20.359375 -1.421875 13.671875 8.265625 
Q 6.984375 17.96875 6.984375 36.375 
Q 6.984375 53.65625 15.1875 63.9375 
Q 23.390625 74.21875 37.203125 74.21875 
Q 40.921875 74.21875 44.703125 73.484375 
Q 48.484375 72.75 52.59375 71.296875 
z
" id="DejaVuSans-54"/>
      </defs>
      <g transform="translate(91.0475 102.622022)scale(0.18 -0.18)">
       <use xlink:href="#DejaVuSans-54"/>
      </g>
     </g>
    </g>
    <g id="text_14">
     <!-- $(RFU/OD) \times 10^4$ -->
     <defs>
      <path d="M 31 75.875 
Q 24.46875 64.65625 21.28125 53.65625 
Q 18.109375 42.671875 18.109375 31.390625 
Q 18.109375 20.125 21.3125 9.0625 
Q 24.515625 -2 31 -13.1875 
L 23.1875 -13.1875 
Q 15.875 -1.703125 12.234375 9.375 
Q 8.59375 20.453125 8.59375 31.390625 
Q 8.59375 42.28125 12.203125 53.3125 
Q 15.828125 64.359375 23.1875 75.875 
z
" id="DejaVuSans-40"/>
      <path d="M 25.203125 64.796875 
L 20.21875 38.921875 
L 32.90625 38.921875 
Q 40.375 38.921875 44.984375 43.046875 
Q 49.609375 47.171875 49.609375 53.8125 
Q 49.609375 59.125 46.5 61.953125 
Q 43.40625 64.796875 37.59375 64.796875 
z
M 43.3125 35.015625 
Q 46.4375 34.28125 48.515625 31.390625 
Q 50.59375 28.515625 53.328125 19.921875 
L 59.515625 0 
L 49.125 0 
L 43.40625 18.703125 
Q 41.21875 25.921875 38.328125 28.359375 
Q 35.453125 30.8125 29.5 30.8125 
L 18.609375 30.8125 
L 12.59375 0 
L 2.6875 0 
L 16.890625 72.90625 
L 39.109375 72.90625 
Q 49.21875 72.90625 54.609375 68.328125 
Q 60.015625 63.765625 60.015625 55.171875 
Q 60.015625 47.5625 55.421875 41.984375 
Q 50.828125 36.421875 43.3125 35.015625 
z
" id="DejaVuSans-Oblique-82"/>
      <path d="M 16.890625 72.90625 
L 58.6875 72.90625 
L 57.078125 64.59375 
L 25.09375 64.59375 
L 20.90625 43.109375 
L 49.8125 43.109375 
L 48.1875 34.8125 
L 19.28125 34.8125 
L 12.5 0 
L 2.6875 0 
z
" id="DejaVuSans-Oblique-70"/>
      <path d="M 15.484375 72.90625 
L 25.390625 72.90625 
L 16.796875 28.609375 
Q 16.265625 25.640625 16.046875 23.703125 
Q 15.828125 21.78125 15.828125 20.3125 
Q 15.828125 13.578125 19.578125 10.078125 
Q 23.34375 6.59375 30.609375 6.59375 
Q 40.046875 6.59375 45.28125 11.765625 
Q 50.53125 16.9375 52.78125 28.609375 
L 61.375 72.90625 
L 71.296875 72.90625 
L 62.5 27.390625 
Q 59.625 12.640625 51.5625 5.609375 
Q 43.5 -1.421875 29.5 -1.421875 
Q 18.5625 -1.421875 12.1875 4.078125 
Q 5.8125 9.578125 5.8125 19 
Q 5.8125 20.703125 6.046875 22.828125 
Q 6.296875 24.953125 6.78125 27.390625 
z
" id="DejaVuSans-Oblique-85"/>
      <path d="M 25.390625 72.90625 
L 33.6875 72.90625 
L 8.296875 -9.28125 
L 0 -9.28125 
z
" id="DejaVuSans-47"/>
      <path d="M 45.609375 66.21875 
Q 37.5 66.21875 31.296875 62.28125 
Q 25.09375 58.34375 20.515625 50.296875 
Q 17.578125 45.171875 16.03125 39.40625 
Q 14.5 33.640625 14.5 27.78125 
Q 14.5 17.625 19.359375 12.109375 
Q 24.21875 6.59375 33.109375 6.59375 
Q 41.109375 6.59375 47.375 10.5625 
Q 53.65625 14.546875 58.109375 22.40625 
Q 61.078125 27.6875 62.640625 33.46875 
Q 64.203125 39.265625 64.203125 45.015625 
Q 64.203125 55.125 59.3125 60.671875 
Q 54.4375 66.21875 45.609375 66.21875 
z
M 32.8125 -1.421875 
Q 19.390625 -1.421875 11.6875 6.53125 
Q 4 14.5 4 28.328125 
Q 4 36.234375 7 44.484375 
Q 10.015625 52.734375 15.28125 59.1875 
Q 21.484375 66.75 29.09375 70.484375 
Q 36.71875 74.21875 45.90625 74.21875 
Q 59.28125 74.21875 66.984375 66.328125 
Q 74.703125 58.453125 74.703125 44.828125 
Q 74.703125 36.421875 71.765625 28.3125 
Q 68.84375 20.21875 63.375 13.625 
Q 57.125 6 49.578125 2.28125 
Q 42.046875 -1.421875 32.8125 -1.421875 
z
" id="DejaVuSans-Oblique-79"/>
      <path d="M 16.890625 72.90625 
L 38.09375 72.90625 
Q 54.984375 72.90625 63.59375 65.75 
Q 72.21875 58.59375 72.21875 44.484375 
Q 72.21875 35.15625 68.9375 26.53125 
Q 65.671875 17.921875 59.90625 12.015625 
Q 54.109375 5.953125 45.171875 2.96875 
Q 36.234375 0 24.03125 0 
L 2.6875 0 
z
M 25.203125 64.796875 
L 14.203125 8.109375 
L 27.09375 8.109375 
Q 43.65625 8.109375 52.734375 17.625 
Q 61.8125 27.15625 61.8125 44.484375 
Q 61.8125 54.984375 55.953125 59.890625 
Q 50.09375 64.796875 37.59375 64.796875 
z
" id="DejaVuSans-Oblique-68"/>
      <path d="M 8.015625 75.875 
L 15.828125 75.875 
Q 23.140625 64.359375 26.78125 53.3125 
Q 30.421875 42.28125 30.421875 31.390625 
Q 30.421875 20.453125 26.78125 9.375 
Q 23.140625 -1.703125 15.828125 -13.1875 
L 8.015625 -13.1875 
Q 14.5 -2 17.703125 9.0625 
Q 20.90625 20.125 20.90625 31.390625 
Q 20.90625 42.671875 17.703125 53.65625 
Q 14.5 64.65625 8.015625 75.875 
z
" id="DejaVuSans-41"/>
      <path d="M 70.125 53.71875 
L 47.796875 31.296875 
L 70.125 8.984375 
L 64.3125 3.078125 
L 41.890625 25.484375 
L 19.484375 3.078125 
L 13.71875 8.984375 
L 35.984375 31.296875 
L 13.71875 53.71875 
L 19.484375 59.625 
L 41.890625 37.203125 
L 64.3125 59.625 
z
" id="DejaVuSans-215"/>
     </defs>
     <g transform="translate(83.304063 303.7896)rotate(-90)scale(0.18 -0.18)">
      <use transform="translate(0 0.684375)" xlink:href="#DejaVuSans-40"/>
      <use transform="translate(39.013672 0.684375)" xlink:href="#DejaVuSans-Oblique-82"/>
      <use transform="translate(108.496094 0.684375)" xlink:href="#DejaVuSans-Oblique-70"/>
      <use transform="translate(166.015625 0.684375)" xlink:href="#DejaVuSans-Oblique-85"/>
      <use transform="translate(239.208984 0.684375)" xlink:href="#DejaVuSans-47"/>
      <use transform="translate(272.900391 0.684375)" xlink:href="#DejaVuSans-Oblique-79"/>
      <use transform="translate(351.611328 0.684375)" xlink:href="#DejaVuSans-Oblique-68"/>
      <use transform="translate(428.613281 0.684375)" xlink:href="#DejaVuSans-41"/>
      <use transform="translate(487.109375 0.684375)" xlink:href="#DejaVuSans-215"/>
      <use transform="translate(590.380859 0.684375)" xlink:href="#DejaVuSans-49"/>
      <use transform="translate(654.003906 0.684375)" xlink:href="#DejaVuSans-48"/>
      <use transform="translate(718.583984 38.965625)scale(0.7)" xlink:href="#DejaVuSans-52"/>
     </g>
    </g>
   </g>
   <g id="patch_8">
    <path d="M 108 412.848 
L 108 56.8512 
" style="fill:none;stroke:#000000;stroke-linecap:square;stroke-linejoin:miter;stroke-width:0.8;"/>
   </g>
   <g id="patch_9">
    <path d="M 108 412.848 
L 777.6 412.848 
" style="fill:none;stroke:#000000;stroke-linecap:square;stroke-linejoin:miter;stroke-width:0.8;"/>
   </g>
   <g id="text_15">
    <!-- Comparison of Pcamr operator sequence induced -->
    <defs>
     <path d="M 64.40625 67.28125 
L 64.40625 56.890625 
Q 59.421875 61.53125 53.78125 63.8125 
Q 48.140625 66.109375 41.796875 66.109375 
Q 29.296875 66.109375 22.65625 58.46875 
Q 16.015625 50.828125 16.015625 36.375 
Q 16.015625 21.96875 22.65625 14.328125 
Q 29.296875 6.6875 41.796875 6.6875 
Q 48.140625 6.6875 53.78125 8.984375 
Q 59.421875 11.28125 64.40625 15.921875 
L 64.40625 5.609375 
Q 59.234375 2.09375 53.4375 0.328125 
Q 47.65625 -1.421875 41.21875 -1.421875 
Q 24.65625 -1.421875 15.125 8.703125 
Q 5.609375 18.84375 5.609375 36.375 
Q 5.609375 53.953125 15.125 64.078125 
Q 24.65625 74.21875 41.21875 74.21875 
Q 47.75 74.21875 53.53125 72.484375 
Q 59.328125 70.75 64.40625 67.28125 
z
" id="DejaVuSans-67"/>
     <path d="M 18.109375 8.203125 
L 18.109375 -20.796875 
L 9.078125 -20.796875 
L 9.078125 54.6875 
L 18.109375 54.6875 
L 18.109375 46.390625 
Q 20.953125 51.265625 25.265625 53.625 
Q 29.59375 56 35.59375 56 
Q 45.5625 56 51.78125 48.09375 
Q 58.015625 40.1875 58.015625 27.296875 
Q 58.015625 14.40625 51.78125 6.484375 
Q 45.5625 -1.421875 35.59375 -1.421875 
Q 29.59375 -1.421875 25.265625 0.953125 
Q 20.953125 3.328125 18.109375 8.203125 
z
M 48.6875 27.296875 
Q 48.6875 37.203125 44.609375 42.84375 
Q 40.53125 48.484375 33.40625 48.484375 
Q 26.265625 48.484375 22.1875 42.84375 
Q 18.109375 37.203125 18.109375 27.296875 
Q 18.109375 17.390625 22.1875 11.75 
Q 26.265625 6.109375 33.40625 6.109375 
Q 40.53125 6.109375 44.609375 11.75 
Q 48.6875 17.390625 48.6875 27.296875 
z
" id="DejaVuSans-112"/>
     <path d="M 34.28125 27.484375 
Q 23.390625 27.484375 19.1875 25 
Q 14.984375 22.515625 14.984375 16.5 
Q 14.984375 11.71875 18.140625 8.90625 
Q 21.296875 6.109375 26.703125 6.109375 
Q 34.1875 6.109375 38.703125 11.40625 
Q 43.21875 16.703125 43.21875 25.484375 
L 43.21875 27.484375 
z
M 52.203125 31.203125 
L 52.203125 0 
L 43.21875 0 
L 43.21875 8.296875 
Q 40.140625 3.328125 35.546875 0.953125 
Q 30.953125 -1.421875 24.3125 -1.421875 
Q 15.921875 -1.421875 10.953125 3.296875 
Q 6 8.015625 6 15.921875 
Q 6 25.140625 12.171875 29.828125 
Q 18.359375 34.515625 30.609375 34.515625 
L 43.21875 34.515625 
L 43.21875 35.40625 
Q 43.21875 41.609375 39.140625 45 
Q 35.0625 48.390625 27.6875 48.390625 
Q 23 48.390625 18.546875 47.265625 
Q 14.109375 46.140625 10.015625 43.890625 
L 10.015625 52.203125 
Q 14.9375 54.109375 19.578125 55.046875 
Q 24.21875 56 28.609375 56 
Q 40.484375 56 46.34375 49.84375 
Q 52.203125 43.703125 52.203125 31.203125 
z
" id="DejaVuSans-97"/>
     <path d="M 9.421875 54.6875 
L 18.40625 54.6875 
L 18.40625 0 
L 9.421875 0 
z
M 9.421875 75.984375 
L 18.40625 75.984375 
L 18.40625 64.59375 
L 9.421875 64.59375 
z
" id="DejaVuSans-105"/>
     <path d="M 44.28125 53.078125 
L 44.28125 44.578125 
Q 40.484375 46.53125 36.375 47.5 
Q 32.28125 48.484375 27.875 48.484375 
Q 21.1875 48.484375 17.84375 46.4375 
Q 14.5 44.390625 14.5 40.28125 
Q 14.5 37.15625 16.890625 35.375 
Q 19.28125 33.59375 26.515625 31.984375 
L 29.59375 31.296875 
Q 39.15625 29.25 43.1875 25.515625 
Q 47.21875 21.78125 47.21875 15.09375 
Q 47.21875 7.46875 41.1875 3.015625 
Q 35.15625 -1.421875 24.609375 -1.421875 
Q 20.21875 -1.421875 15.453125 -0.5625 
Q 10.6875 0.296875 5.421875 2 
L 5.421875 11.28125 
Q 10.40625 8.6875 15.234375 7.390625 
Q 20.0625 6.109375 24.8125 6.109375 
Q 31.15625 6.109375 34.5625 8.28125 
Q 37.984375 10.453125 37.984375 14.40625 
Q 37.984375 18.0625 35.515625 20.015625 
Q 33.0625 21.96875 24.703125 23.78125 
L 21.578125 24.515625 
Q 13.234375 26.265625 9.515625 29.90625 
Q 5.8125 33.546875 5.8125 39.890625 
Q 5.8125 47.609375 11.28125 51.796875 
Q 16.75 56 26.8125 56 
Q 31.78125 56 36.171875 55.265625 
Q 40.578125 54.546875 44.28125 53.078125 
z
" id="DejaVuSans-115"/>
     <path d="M 54.890625 33.015625 
L 54.890625 0 
L 45.90625 0 
L 45.90625 32.71875 
Q 45.90625 40.484375 42.875 44.328125 
Q 39.84375 48.1875 33.796875 48.1875 
Q 26.515625 48.1875 22.3125 43.546875 
Q 18.109375 38.921875 18.109375 30.90625 
L 18.109375 0 
L 9.078125 0 
L 9.078125 54.6875 
L 18.109375 54.6875 
L 18.109375 46.1875 
Q 21.34375 51.125 25.703125 53.5625 
Q 30.078125 56 35.796875 56 
Q 45.21875 56 50.046875 50.171875 
Q 54.890625 44.34375 54.890625 33.015625 
z
" id="DejaVuSans-110"/>
     <path id="DejaVuSans-32"/>
     <path d="M 37.109375 75.984375 
L 37.109375 68.5 
L 28.515625 68.5 
Q 23.6875 68.5 21.796875 66.546875 
Q 19.921875 64.59375 19.921875 59.515625 
L 19.921875 54.6875 
L 34.71875 54.6875 
L 34.71875 47.703125 
L 19.921875 47.703125 
L 19.921875 0 
L 10.890625 0 
L 10.890625 47.703125 
L 2.296875 47.703125 
L 2.296875 54.6875 
L 10.890625 54.6875 
L 10.890625 58.5 
Q 10.890625 67.625 15.140625 71.796875 
Q 19.390625 75.984375 28.609375 75.984375 
z
" id="DejaVuSans-102"/>
     <path d="M 48.78125 52.59375 
L 48.78125 44.1875 
Q 44.96875 46.296875 41.140625 47.34375 
Q 37.3125 48.390625 33.40625 48.390625 
Q 24.65625 48.390625 19.8125 42.84375 
Q 14.984375 37.3125 14.984375 27.296875 
Q 14.984375 17.28125 19.8125 11.734375 
Q 24.65625 6.203125 33.40625 6.203125 
Q 37.3125 6.203125 41.140625 7.25 
Q 44.96875 8.296875 48.78125 10.40625 
L 48.78125 2.09375 
Q 45.015625 0.34375 40.984375 -0.53125 
Q 36.96875 -1.421875 32.421875 -1.421875 
Q 20.0625 -1.421875 12.78125 6.34375 
Q 5.515625 14.109375 5.515625 27.296875 
Q 5.515625 40.671875 12.859375 48.328125 
Q 20.21875 56 33.015625 56 
Q 37.15625 56 41.109375 55.140625 
Q 45.0625 54.296875 48.78125 52.59375 
z
" id="DejaVuSans-99"/>
     <path d="M 14.796875 27.296875 
Q 14.796875 17.390625 18.875 11.75 
Q 22.953125 6.109375 30.078125 6.109375 
Q 37.203125 6.109375 41.296875 11.75 
Q 45.40625 17.390625 45.40625 27.296875 
Q 45.40625 37.203125 41.296875 42.84375 
Q 37.203125 48.484375 30.078125 48.484375 
Q 22.953125 48.484375 18.875 42.84375 
Q 14.796875 37.203125 14.796875 27.296875 
z
M 45.40625 8.203125 
Q 42.578125 3.328125 38.25 0.953125 
Q 33.9375 -1.421875 27.875 -1.421875 
Q 17.96875 -1.421875 11.734375 6.484375 
Q 5.515625 14.40625 5.515625 27.296875 
Q 5.515625 40.1875 11.734375 48.09375 
Q 17.96875 56 27.875 56 
Q 33.9375 56 38.25 53.625 
Q 42.578125 51.265625 45.40625 46.390625 
L 45.40625 54.6875 
L 54.390625 54.6875 
L 54.390625 -20.796875 
L 45.40625 -20.796875 
z
" id="DejaVuSans-113"/>
     <path d="M 8.5 21.578125 
L 8.5 54.6875 
L 17.484375 54.6875 
L 17.484375 21.921875 
Q 17.484375 14.15625 20.5 10.265625 
Q 23.53125 6.390625 29.59375 6.390625 
Q 36.859375 6.390625 41.078125 11.03125 
Q 45.3125 15.671875 45.3125 23.6875 
L 45.3125 54.6875 
L 54.296875 54.6875 
L 54.296875 0 
L 45.3125 0 
L 45.3125 8.40625 
Q 42.046875 3.421875 37.71875 1 
Q 33.40625 -1.421875 27.6875 -1.421875 
Q 18.265625 -1.421875 13.375 4.4375 
Q 8.5 10.296875 8.5 21.578125 
z
M 31.109375 56 
z
" id="DejaVuSans-117"/>
     <path d="M 45.40625 46.390625 
L 45.40625 75.984375 
L 54.390625 75.984375 
L 54.390625 0 
L 45.40625 0 
L 45.40625 8.203125 
Q 42.578125 3.328125 38.25 0.953125 
Q 33.9375 -1.421875 27.875 -1.421875 
Q 17.96875 -1.421875 11.734375 6.484375 
Q 5.515625 14.40625 5.515625 27.296875 
Q 5.515625 40.1875 11.734375 48.09375 
Q 17.96875 56 27.875 56 
Q 33.9375 56 38.25 53.625 
Q 42.578125 51.265625 45.40625 46.390625 
z
M 14.796875 27.296875 
Q 14.796875 17.390625 18.875 11.75 
Q 22.953125 6.109375 30.078125 6.109375 
Q 37.203125 6.109375 41.296875 11.75 
Q 45.40625 17.390625 45.40625 27.296875 
Q 45.40625 37.203125 41.296875 42.84375 
Q 37.203125 48.484375 30.078125 48.484375 
Q 22.953125 48.484375 18.875 42.84375 
Q 14.796875 37.203125 14.796875 27.296875 
z
" id="DejaVuSans-100"/>
    </defs>
    <g transform="translate(170.09625 50.8512)scale(0.22 -0.22)">
     <use xlink:href="#DejaVuSans-67"/>
     <use x="69.824219" xlink:href="#DejaVuSans-111"/>
     <use x="131.005859" xlink:href="#DejaVuSans-109"/>
     <use x="228.417969" xlink:href="#DejaVuSans-112"/>
     <use x="291.894531" xlink:href="#DejaVuSans-97"/>
     <use x="353.173828" xlink:href="#DejaVuSans-114"/>
     <use x="394.287109" xlink:href="#DejaVuSans-105"/>
     <use x="422.070312" xlink:href="#DejaVuSans-115"/>
     <use x="474.169922" xlink:href="#DejaVuSans-111"/>
     <use x="535.351562" xlink:href="#DejaVuSans-110"/>
     <use x="598.730469" xlink:href="#DejaVuSans-32"/>
     <use x="630.517578" xlink:href="#DejaVuSans-111"/>
     <use x="691.699219" xlink:href="#DejaVuSans-102"/>
     <use x="726.904297" xlink:href="#DejaVuSans-32"/>
     <use x="758.691406" xlink:href="#DejaVuSans-80"/>
     <use x="818.994141" xlink:href="#DejaVuSans-99"/>
     <use x="873.974609" xlink:href="#DejaVuSans-97"/>
     <use x="935.253906" xlink:href="#DejaVuSans-109"/>
     <use x="1032.666016" xlink:href="#DejaVuSans-114"/>
     <use x="1073.779297" xlink:href="#DejaVuSans-32"/>
     <use x="1105.566406" xlink:href="#DejaVuSans-111"/>
     <use x="1166.748047" xlink:href="#DejaVuSans-112"/>
     <use x="1230.224609" xlink:href="#DejaVuSans-101"/>
     <use x="1291.748047" xlink:href="#DejaVuSans-114"/>
     <use x="1332.861328" xlink:href="#DejaVuSans-97"/>
     <use x="1394.140625" xlink:href="#DejaVuSans-116"/>
     <use x="1433.349609" xlink:href="#DejaVuSans-111"/>
     <use x="1494.53125" xlink:href="#DejaVuSans-114"/>
     <use x="1535.644531" xlink:href="#DejaVuSans-32"/>
     <use x="1567.431641" xlink:href="#DejaVuSans-115"/>
     <use x="1619.53125" xlink:href="#DejaVuSans-101"/>
     <use x="1681.054688" xlink:href="#DejaVuSans-113"/>
     <use x="1744.53125" xlink:href="#DejaVuSans-117"/>
     <use x="1807.910156" xlink:href="#DejaVuSans-101"/>
     <use x="1869.433594" xlink:href="#DejaVuSans-110"/>
     <use x="1932.8125" xlink:href="#DejaVuSans-99"/>
     <use x="1987.792969" xlink:href="#DejaVuSans-101"/>
     <use x="2049.316406" xlink:href="#DejaVuSans-32"/>
     <use x="2081.103516" xlink:href="#DejaVuSans-105"/>
     <use x="2108.886719" xlink:href="#DejaVuSans-110"/>
     <use x="2172.265625" xlink:href="#DejaVuSans-100"/>
     <use x="2235.742188" xlink:href="#DejaVuSans-117"/>
     <use x="2299.121094" xlink:href="#DejaVuSans-99"/>
     <use x="2354.101562" xlink:href="#DejaVuSans-101"/>
     <use x="2415.625" xlink:href="#DejaVuSans-100"/>
    </g>
   </g>
  </g>
 </g>
 <defs>
  <clipPath id="p83350d25bf">
   <rect height="355.9968" width="669.6" x="108" y="56.8512"/>
  </clipPath>
 </defs>
</svg>
