<?xml version="1.0" encoding="utf-8" standalone="no"?>
<!DOCTYPE svg PUBLIC "-//W3C//DTD SVG 1.1//EN"
  "http://www.w3.org/Graphics/SVG/1.1/DTD/svg11.dtd">
<!-- Created with matplotlib (https://matplotlib.org/) -->
<svg height="473.76pt" version="1.1" viewBox="0 0 648 473.76" width="648pt" xmlns="http://www.w3.org/2000/svg" xmlns:xlink="http://www.w3.org/1999/xlink">
 <defs>
  <style type="text/css">
*{stroke-linecap:butt;stroke-linejoin:round;}
  </style>
 </defs>
 <g id="figure_1">
  <g id="patch_1">
   <path d="M 0 473.76 
L 648 473.76 
L 648 0 
L 0 0 
z
" style="fill:#ffffff;"/>
  </g>
  <g id="axes_1">
   <g id="patch_2">
    <path d="M 81 421.6464 
L 583.2 421.6464 
L 583.2 56.8512 
L 81 56.8512 
z
" style="fill:#ffffff;"/>
   </g>
   <g id="patch_3">
    <path clip-path="url(#p2309d26a1d)" d="M 103.827273 421.6464 
L 137.125108 421.6464 
L 137.125108 386.92782 
L 103.827273 386.92782 
z
" style="stroke:#000000;stroke-linejoin:miter;stroke-width:4;"/>
   </g>
   <g id="patch_4">
    <path clip-path="url(#p2309d26a1d)" d="M 187.07186 421.6464 
L 220.369695 421.6464 
L 220.369695 360.977948 
L 187.07186 360.977948 
z
" style="fill:#ca42ff;stroke:#000000;stroke-linejoin:miter;stroke-width:4;"/>
   </g>
   <g id="patch_5">
    <path clip-path="url(#p2309d26a1d)" d="M 270.316447 421.6464 
L 303.614282 421.6464 
L 303.614282 365.625152 
L 270.316447 365.625152 
z
" style="fill:#fff200;stroke:#000000;stroke-linejoin:miter;stroke-width:4;"/>
   </g>
   <g id="patch_6">
    <path clip-path="url(#p2309d26a1d)" d="M 353.561034 421.6464 
L 386.858869 421.6464 
L 386.858869 360.059675 
L 353.561034 360.059675 
z
" style="fill:#ff1717;stroke:#000000;stroke-linejoin:miter;stroke-width:4;"/>
   </g>
   <g id="patch_7">
    <path clip-path="url(#p2309d26a1d)" d="M 436.805621 421.6464 
L 470.103456 421.6464 
L 470.103456 300.619752 
L 436.805621 300.619752 
z
" style="fill:#3bff5b;stroke:#000000;stroke-linejoin:miter;stroke-width:4;"/>
   </g>
   <g id="patch_8">
    <path clip-path="url(#p2309d26a1d)" d="M 520.050208 421.6464 
L 553.348043 421.6464 
L 553.348043 99.888113 
L 520.050208 99.888113 
z
" style="fill:#ffc72e;stroke:#000000;stroke-linejoin:miter;stroke-width:4;"/>
   </g>
   <g id="LineCollection_1">
    <path clip-path="url(#p2309d26a1d)" d="M 120.47619 387.002205 
L 120.47619 386.853434 
" style="fill:none;stroke:#000000;stroke-width:2;"/>
   </g>
   <g id="LineCollection_2">
    <path clip-path="url(#p2309d26a1d)" d="M 203.720777 361.935828 
L 203.720777 360.020069 
" style="fill:none;stroke:#000000;stroke-width:2;"/>
   </g>
   <g id="LineCollection_3">
    <path clip-path="url(#p2309d26a1d)" d="M 286.965364 366.703855 
L 286.965364 364.54645 
" style="fill:none;stroke:#000000;stroke-width:2;"/>
   </g>
   <g id="LineCollection_4">
    <path clip-path="url(#p2309d26a1d)" d="M 370.209951 364.430885 
L 370.209951 355.688466 
" style="fill:none;stroke:#000000;stroke-width:2;"/>
   </g>
   <g id="LineCollection_5">
    <path clip-path="url(#p2309d26a1d)" d="M 453.454539 300.816879 
L 453.454539 300.422626 
" style="fill:none;stroke:#000000;stroke-width:2;"/>
   </g>
   <g id="LineCollection_6">
    <path clip-path="url(#p2309d26a1d)" d="M 536.699126 125.553827 
L 536.699126 74.2224 
" style="fill:none;stroke:#000000;stroke-width:2;"/>
   </g>
   <g id="line2d_1">
    <defs>
     <path d="M 5 0 
L -5 -0 
" id="mf9d65026b8" style="stroke:#000000;stroke-width:2;"/>
    </defs>
    <g clip-path="url(#p2309d26a1d)">
     <use style="stroke:#000000;stroke-width:2;" x="120.47619" xlink:href="#mf9d65026b8" y="387.002205"/>
    </g>
   </g>
   <g id="line2d_2">
    <g clip-path="url(#p2309d26a1d)">
     <use style="stroke:#000000;stroke-width:2;" x="120.47619" xlink:href="#mf9d65026b8" y="386.853434"/>
    </g>
   </g>
   <g id="line2d_3">
    <g clip-path="url(#p2309d26a1d)">
     <use style="stroke:#000000;stroke-width:2;" x="203.720777" xlink:href="#mf9d65026b8" y="361.935828"/>
    </g>
   </g>
   <g id="line2d_4">
    <g clip-path="url(#p2309d26a1d)">
     <use style="stroke:#000000;stroke-width:2;" x="203.720777" xlink:href="#mf9d65026b8" y="360.020069"/>
    </g>
   </g>
   <g id="line2d_5">
    <g clip-path="url(#p2309d26a1d)">
     <use style="stroke:#000000;stroke-width:2;" x="286.965364" xlink:href="#mf9d65026b8" y="366.703855"/>
    </g>
   </g>
   <g id="line2d_6">
    <g clip-path="url(#p2309d26a1d)">
     <use style="stroke:#000000;stroke-width:2;" x="286.965364" xlink:href="#mf9d65026b8" y="364.54645"/>
    </g>
   </g>
   <g id="line2d_7">
    <g clip-path="url(#p2309d26a1d)">
     <use style="stroke:#000000;stroke-width:2;" x="370.209951" xlink:href="#mf9d65026b8" y="364.430885"/>
    </g>
   </g>
   <g id="line2d_8">
    <g clip-path="url(#p2309d26a1d)">
     <use style="stroke:#000000;stroke-width:2;" x="370.209951" xlink:href="#mf9d65026b8" y="355.688466"/>
    </g>
   </g>
   <g id="line2d_9">
    <g clip-path="url(#p2309d26a1d)">
     <use style="stroke:#000000;stroke-width:2;" x="453.454539" xlink:href="#mf9d65026b8" y="300.816879"/>
    </g>
   </g>
   <g id="line2d_10">
    <g clip-path="url(#p2309d26a1d)">
     <use style="stroke:#000000;stroke-width:2;" x="453.454539" xlink:href="#mf9d65026b8" y="300.422626"/>
    </g>
   </g>
   <g id="line2d_11">
    <g clip-path="url(#p2309d26a1d)">
     <use style="stroke:#000000;stroke-width:2;" x="536.699126" xlink:href="#mf9d65026b8" y="125.553827"/>
    </g>
   </g>
   <g id="line2d_12">
    <g clip-path="url(#p2309d26a1d)">
     <use style="stroke:#000000;stroke-width:2;" x="536.699126" xlink:href="#mf9d65026b8" y="74.2224"/>
    </g>
   </g>
   <g id="PathCollection_1">
    <path clip-path="url(#p2309d26a1d)" d="M 107.142857 392.1887 
C 108.529391 392.1887 109.859323 391.637824 110.839751 390.657396 
C 111.820179 389.676968 112.371055 388.347036 112.371055 386.960502 
C 112.371055 385.573968 111.820179 384.244036 110.839751 383.263608 
C 109.859323 382.28318 108.529391 381.732304 107.142857 381.732304 
C 105.756323 381.732304 104.42639 382.28318 103.445963 383.263608 
C 102.465535 384.244036 101.914659 385.573968 101.914659 386.960502 
C 101.914659 388.347036 102.465535 389.676968 103.445963 390.657396 
C 104.42639 391.637824 105.756323 392.1887 107.142857 392.1887 
z
" style="fill:none;stroke:#000000;stroke-width:2.5;"/>
   </g>
   <g id="PathCollection_2">
    <path clip-path="url(#p2309d26a1d)" d="M 120.47619 392.070886 
C 121.862724 392.070886 123.192656 391.52001 124.173084 390.539582 
C 125.153512 389.559154 125.704388 388.229222 125.704388 386.842688 
C 125.704388 385.456154 125.153512 384.126222 124.173084 383.145794 
C 123.192656 382.165366 121.862724 381.61449 120.47619 381.61449 
C 119.089656 381.61449 117.759724 382.165366 116.779296 383.145794 
C 115.798868 384.126222 115.247992 385.456154 115.247992 386.842688 
C 115.247992 388.229222 115.798868 389.559154 116.779296 390.539582 
C 117.759724 391.52001 119.089656 392.070886 120.47619 392.070886 
z
" style="fill:none;stroke:#000000;stroke-width:2.5;"/>
   </g>
   <g id="PathCollection_3">
    <path clip-path="url(#p2309d26a1d)" d="M 133.809523 392.208467 
C 135.196058 392.208467 136.52599 391.657591 137.506418 390.677163 
C 138.486845 389.696735 139.037721 388.366803 139.037721 386.980269 
C 139.037721 385.593735 138.486845 384.263803 137.506418 383.283375 
C 136.52599 382.302947 135.196058 381.752071 133.809523 381.752071 
C 132.422989 381.752071 131.093057 382.302947 130.112629 383.283375 
C 129.132202 384.263803 128.581326 385.593735 128.581326 386.980269 
C 128.581326 388.366803 129.132202 389.696735 130.112629 390.677163 
C 131.093057 391.657591 132.422989 392.208467 133.809523 392.208467 
z
" style="fill:none;stroke:#000000;stroke-width:2.5;"/>
   </g>
   <g id="PathCollection_4">
    <path clip-path="url(#p2309d26a1d)" d="M 190.387444 365.139365 
C 191.773978 365.139365 193.10391 364.58849 194.084338 363.608062 
C 195.064766 362.627634 195.615642 361.297702 195.615642 359.911168 
C 195.615642 358.524633 195.064766 357.194701 194.084338 356.214274 
C 193.10391 355.233846 191.773978 354.68297 190.387444 354.68297 
C 189.00091 354.68297 187.670978 355.233846 186.69055 356.214274 
C 185.710122 357.194701 185.159246 358.524633 185.159246 359.911168 
C 185.159246 361.297702 185.710122 362.627634 186.69055 363.608062 
C 187.670978 364.58849 189.00091 365.139365 190.387444 365.139365 
z
" style="fill:none;stroke:#000000;stroke-width:2.5;"/>
   </g>
   <g id="PathCollection_5">
    <path clip-path="url(#p2309d26a1d)" d="M 203.720777 366.486521 
C 205.107311 366.486521 206.437244 365.935645 207.417671 364.955217 
C 208.398099 363.974789 208.948975 362.644857 208.948975 361.258323 
C 208.948975 359.871789 208.398099 358.541857 207.417671 357.561429 
C 206.437244 356.581001 205.107311 356.030125 203.720777 356.030125 
C 202.334243 356.030125 201.004311 356.581001 200.023883 357.561429 
C 199.043455 358.541857 198.492579 359.871789 198.492579 361.258323 
C 198.492579 362.644857 199.043455 363.974789 200.023883 364.955217 
C 201.004311 365.935645 202.334243 366.486521 203.720777 366.486521 
z
" style="fill:none;stroke:#000000;stroke-width:2.5;"/>
   </g>
   <g id="PathCollection_6">
    <path clip-path="url(#p2309d26a1d)" d="M 217.054111 366.992552 
C 218.440645 366.992552 219.770577 366.441677 220.751005 365.461249 
C 221.731432 364.480821 222.282308 363.150889 222.282308 361.764355 
C 222.282308 360.37782 221.731432 359.047888 220.751005 358.067461 
C 219.770577 357.087033 218.440645 356.536157 217.054111 356.536157 
C 215.667576 356.536157 214.337644 357.087033 213.357216 358.067461 
C 212.376789 359.047888 211.825913 360.37782 211.825913 361.764355 
C 211.825913 363.150889 212.376789 364.480821 213.357216 365.461249 
C 214.337644 366.441677 215.667576 366.992552 217.054111 366.992552 
z
" style="fill:none;stroke:#000000;stroke-width:2.5;"/>
   </g>
   <g id="PathCollection_7">
    <path clip-path="url(#p2309d26a1d)" d="M 273.632031 369.614934 
C 275.018565 369.614934 276.348497 369.064058 277.328925 368.08363 
C 278.309353 367.103202 278.860229 365.77327 278.860229 364.386736 
C 278.860229 363.000202 278.309353 361.670269 277.328925 360.689842 
C 276.348497 359.709414 275.018565 359.158538 273.632031 359.158538 
C 272.245497 359.158538 270.915565 359.709414 269.935137 360.689842 
C 268.954709 361.670269 268.403833 363.000202 268.403833 364.386736 
C 268.403833 365.77327 268.954709 367.103202 269.935137 368.08363 
C 270.915565 369.064058 272.245497 369.614934 273.632031 369.614934 
z
" style="fill:none;stroke:#000000;stroke-width:2.5;"/>
   </g>
   <g id="PathCollection_8">
    <path clip-path="url(#p2309d26a1d)" d="M 286.965364 371.357055 
C 288.351899 371.357055 289.681831 370.806179 290.662258 369.825751 
C 291.642686 368.845323 292.193562 367.515391 292.193562 366.128857 
C 292.193562 364.742323 291.642686 363.412391 290.662258 362.431963 
C 289.681831 361.451535 288.351899 360.900659 286.965364 360.900659 
C 285.57883 360.900659 284.248898 361.451535 283.26847 362.431963 
C 282.288042 363.412391 281.737167 364.742323 281.737167 366.128857 
C 281.737167 367.515391 282.288042 368.845323 283.26847 369.825751 
C 284.248898 370.806179 285.57883 371.357055 286.965364 371.357055 
z
" style="fill:none;stroke:#000000;stroke-width:2.5;"/>
   </g>
   <g id="PathCollection_9">
    <path clip-path="url(#p2309d26a1d)" d="M 300.298698 371.588062 
C 301.685232 371.588062 303.015164 371.037186 303.995592 370.056759 
C 304.97602 369.076331 305.526895 367.746399 305.526895 366.359865 
C 305.526895 364.97333 304.97602 363.643398 303.995592 362.662971 
C 303.015164 361.682543 301.685232 361.131667 300.298698 361.131667 
C 298.912163 361.131667 297.582231 361.682543 296.601804 362.662971 
C 295.621376 363.643398 295.0705 364.97333 295.0705 366.359865 
C 295.0705 367.746399 295.621376 369.076331 296.601804 370.056759 
C 297.582231 371.037186 298.912163 371.588062 300.298698 371.588062 
z
" style="fill:none;stroke:#000000;stroke-width:2.5;"/>
   </g>
   <g id="PathCollection_10">
    <path clip-path="url(#p2309d26a1d)" d="M 356.876618 360.295653 
C 358.263152 360.295653 359.593084 359.744777 360.573512 358.764349 
C 361.55394 357.783922 362.104816 356.453989 362.104816 355.067455 
C 362.104816 353.680921 361.55394 352.350989 360.573512 351.370561 
C 359.593084 350.390133 358.263152 349.839257 356.876618 349.839257 
C 355.490084 349.839257 354.160152 350.390133 353.179724 351.370561 
C 352.199296 352.350989 351.64842 353.680921 351.64842 355.067455 
C 351.64842 356.453989 352.199296 357.783922 353.179724 358.764349 
C 354.160152 359.744777 355.490084 360.295653 356.876618 360.295653 
z
" style="fill:none;stroke:#000000;stroke-width:2.5;"/>
   </g>
   <g id="PathCollection_11">
    <path clip-path="url(#p2309d26a1d)" d="M 370.209951 367.139176 
C 371.596486 367.139176 372.926418 366.5883 373.906846 365.607872 
C 374.887273 364.627444 375.438149 363.297512 375.438149 361.910978 
C 375.438149 360.524444 374.887273 359.194512 373.906846 358.214084 
C 372.926418 357.233656 371.596486 356.68278 370.209951 356.68278 
C 368.823417 356.68278 367.493485 357.233656 366.513057 358.214084 
C 365.53263 359.194512 364.981754 360.524444 364.981754 361.910978 
C 364.981754 363.297512 365.53263 364.627444 366.513057 365.607872 
C 367.493485 366.5883 368.823417 367.139176 370.209951 367.139176 
z
" style="fill:none;stroke:#000000;stroke-width:2.5;"/>
   </g>
   <g id="PathCollection_12">
    <path clip-path="url(#p2309d26a1d)" d="M 383.543285 368.42879 
C 384.929819 368.42879 386.259751 367.877914 387.240179 366.897486 
C 388.220607 365.917059 388.771483 364.587127 388.771483 363.200592 
C 388.771483 361.814058 388.220607 360.484126 387.240179 359.503698 
C 386.259751 358.523271 384.929819 357.972395 383.543285 357.972395 
C 382.156751 357.972395 380.826818 358.523271 379.846391 359.503698 
C 378.865963 360.484126 378.315087 361.814058 378.315087 363.200592 
C 378.315087 364.587127 378.865963 365.917059 379.846391 366.897486 
C 380.826818 367.877914 382.156751 368.42879 383.543285 368.42879 
z
" style="fill:none;stroke:#000000;stroke-width:2.5;"/>
   </g>
   <g id="PathCollection_13">
    <path clip-path="url(#p2309d26a1d)" d="M 440.121205 305.914904 
C 441.507739 305.914904 442.837672 305.364028 443.818099 304.383601 
C 444.798527 303.403173 445.349403 302.073241 445.349403 300.686707 
C 445.349403 299.300172 444.798527 297.97024 443.818099 296.989812 
C 442.837672 296.009385 441.507739 295.458509 440.121205 295.458509 
C 438.734671 295.458509 437.404739 296.009385 436.424311 296.989812 
C 435.443883 297.97024 434.893007 299.300172 434.893007 300.686707 
C 434.893007 302.073241 435.443883 303.403173 436.424311 304.383601 
C 437.404739 305.364028 438.734671 305.914904 440.121205 305.914904 
z
" style="fill:none;stroke:#000000;stroke-width:2.5;"/>
   </g>
   <g id="PathCollection_14">
    <path clip-path="url(#p2309d26a1d)" d="M 453.454539 305.626067 
C 454.841073 305.626067 456.171005 305.075191 457.151433 304.094763 
C 458.13186 303.114336 458.682736 301.784403 458.682736 300.397869 
C 458.682736 299.011335 458.13186 297.681403 457.151433 296.700975 
C 456.171005 295.720547 454.841073 295.169671 453.454539 295.169671 
C 452.068004 295.169671 450.738072 295.720547 449.757644 296.700975 
C 448.777217 297.681403 448.226341 299.011335 448.226341 300.397869 
C 448.226341 301.784403 448.777217 303.114336 449.757644 304.094763 
C 450.738072 305.075191 452.068004 305.626067 453.454539 305.626067 
z
" style="fill:none;stroke:#000000;stroke-width:2.5;"/>
   </g>
   <g id="PathCollection_15">
    <path clip-path="url(#p2309d26a1d)" d="M 466.787872 306.002879 
C 468.174406 306.002879 469.504338 305.452003 470.484766 304.471575 
C 471.465194 303.491147 472.01607 302.161215 472.01607 300.774681 
C 472.01607 299.388147 471.465194 298.058215 470.484766 297.077787 
C 469.504338 296.097359 468.174406 295.546483 466.787872 295.546483 
C 465.401338 295.546483 464.071406 296.097359 463.090978 297.077787 
C 462.11055 298.058215 461.559674 299.388147 461.559674 300.774681 
C 461.559674 302.161215 462.11055 303.491147 463.090978 304.471575 
C 464.071406 305.452003 465.401338 306.002879 466.787872 306.002879 
z
" style="fill:none;stroke:#000000;stroke-width:2.5;"/>
   </g>
   <g id="PathCollection_16">
    <path clip-path="url(#p2309d26a1d)" d="M 523.365792 134.655032 
C 524.752327 134.655032 526.082259 134.104156 527.062686 133.123729 
C 528.043114 132.143301 528.59399 130.813369 528.59399 129.426835 
C 528.59399 128.0403 528.043114 126.710368 527.062686 125.72994 
C 526.082259 124.749513 524.752327 124.198637 523.365792 124.198637 
C 521.979258 124.198637 520.649326 124.749513 519.668898 125.72994 
C 518.68847 126.710368 518.137595 128.0403 518.137595 129.426835 
C 518.137595 130.813369 518.68847 132.143301 519.668898 133.123729 
C 520.649326 134.104156 521.979258 134.655032 523.365792 134.655032 
z
" style="fill:none;stroke:#000000;stroke-width:2.5;"/>
   </g>
   <g id="PathCollection_17">
    <path clip-path="url(#p2309d26a1d)" d="M 536.699126 92.427049 
C 538.08566 92.427049 539.415592 91.876174 540.39602 90.895746 
C 541.376447 89.915318 541.927323 88.585386 541.927323 87.198852 
C 541.927323 85.812317 541.376447 84.482385 540.39602 83.501958 
C 539.415592 82.52153 538.08566 81.970654 536.699126 81.970654 
C 535.312591 81.970654 533.982659 82.52153 533.002232 83.501958 
C 532.021804 84.482385 531.470928 85.812317 531.470928 87.198852 
C 531.470928 88.585386 532.021804 89.915318 533.002232 90.895746 
C 533.982659 91.876174 535.312591 92.427049 536.699126 92.427049 
z
" style="fill:none;stroke:#000000;stroke-width:2.5;"/>
   </g>
   <g id="PathCollection_18">
    <path clip-path="url(#p2309d26a1d)" d="M 550.032459 88.266852 
C 551.418993 88.266852 552.748925 87.715976 553.729353 86.735548 
C 554.709781 85.75512 555.260657 84.425188 555.260657 83.038654 
C 555.260657 81.65212 554.709781 80.322188 553.729353 79.34176 
C 552.748925 78.361332 551.418993 77.810456 550.032459 77.810456 
C 548.645925 77.810456 547.315993 78.361332 546.335565 79.34176 
C 545.355137 80.322188 544.804261 81.65212 544.804261 83.038654 
C 544.804261 84.425188 545.355137 85.75512 546.335565 86.735548 
C 547.315993 87.715976 548.645925 88.266852 550.032459 88.266852 
z
" style="fill:none;stroke:#000000;stroke-width:2.5;"/>
   </g>
   <g id="matplotlib.axis_1">
    <g id="xtick_1">
     <g id="line2d_13">
      <defs>
       <path d="M 0 0 
L 0 2 
" id="mbe5d90eef2" style="stroke:#000000;"/>
      </defs>
      <g>
       <use style="stroke:#000000;" x="120.47619" xlink:href="#mbe5d90eef2" y="421.6464"/>
      </g>
     </g>
     <g id="text_1">
      <!-- DMSO -->
      <defs>
       <path d="M 19.671875 64.796875 
L 19.671875 8.109375 
L 31.59375 8.109375 
Q 46.6875 8.109375 53.6875 14.9375 
Q 60.6875 21.78125 60.6875 36.53125 
Q 60.6875 51.171875 53.6875 57.984375 
Q 46.6875 64.796875 31.59375 64.796875 
z
M 9.8125 72.90625 
L 30.078125 72.90625 
Q 51.265625 72.90625 61.171875 64.09375 
Q 71.09375 55.28125 71.09375 36.53125 
Q 71.09375 17.671875 61.125 8.828125 
Q 51.171875 0 30.078125 0 
L 9.8125 0 
z
" id="DejaVuSans-68"/>
       <path d="M 9.8125 72.90625 
L 24.515625 72.90625 
L 43.109375 23.296875 
L 61.8125 72.90625 
L 76.515625 72.90625 
L 76.515625 0 
L 66.890625 0 
L 66.890625 64.015625 
L 48.09375 14.015625 
L 38.1875 14.015625 
L 19.390625 64.015625 
L 19.390625 0 
L 9.8125 0 
z
" id="DejaVuSans-77"/>
       <path d="M 53.515625 70.515625 
L 53.515625 60.890625 
Q 47.90625 63.578125 42.921875 64.890625 
Q 37.9375 66.21875 33.296875 66.21875 
Q 25.25 66.21875 20.875 63.09375 
Q 16.5 59.96875 16.5 54.203125 
Q 16.5 49.359375 19.40625 46.890625 
Q 22.3125 44.4375 30.421875 42.921875 
L 36.375 41.703125 
Q 47.40625 39.59375 52.65625 34.296875 
Q 57.90625 29 57.90625 20.125 
Q 57.90625 9.515625 50.796875 4.046875 
Q 43.703125 -1.421875 29.984375 -1.421875 
Q 24.8125 -1.421875 18.96875 -0.25 
Q 13.140625 0.921875 6.890625 3.21875 
L 6.890625 13.375 
Q 12.890625 10.015625 18.65625 8.296875 
Q 24.421875 6.59375 29.984375 6.59375 
Q 38.421875 6.59375 43.015625 9.90625 
Q 47.609375 13.234375 47.609375 19.390625 
Q 47.609375 24.75 44.3125 27.78125 
Q 41.015625 30.8125 33.5 32.328125 
L 27.484375 33.5 
Q 16.453125 35.6875 11.515625 40.375 
Q 6.59375 45.0625 6.59375 53.421875 
Q 6.59375 63.09375 13.40625 68.65625 
Q 20.21875 74.21875 32.171875 74.21875 
Q 37.3125 74.21875 42.625 73.28125 
Q 47.953125 72.359375 53.515625 70.515625 
z
" id="DejaVuSans-83"/>
       <path d="M 39.40625 66.21875 
Q 28.65625 66.21875 22.328125 58.203125 
Q 16.015625 50.203125 16.015625 36.375 
Q 16.015625 22.609375 22.328125 14.59375 
Q 28.65625 6.59375 39.40625 6.59375 
Q 50.140625 6.59375 56.421875 14.59375 
Q 62.703125 22.609375 62.703125 36.375 
Q 62.703125 50.203125 56.421875 58.203125 
Q 50.140625 66.21875 39.40625 66.21875 
z
M 39.40625 74.21875 
Q 54.734375 74.21875 63.90625 63.9375 
Q 73.09375 53.65625 73.09375 36.375 
Q 73.09375 19.140625 63.90625 8.859375 
Q 54.734375 -1.421875 39.40625 -1.421875 
Q 24.03125 -1.421875 14.8125 8.828125 
Q 5.609375 19.09375 5.609375 36.375 
Q 5.609375 53.65625 14.8125 63.9375 
Q 24.03125 74.21875 39.40625 74.21875 
z
" id="DejaVuSans-79"/>
      </defs>
      <g transform="translate(96.03744 439.3039)scale(0.16 -0.16)">
       <use xlink:href="#DejaVuSans-68"/>
       <use x="77.001953" xlink:href="#DejaVuSans-77"/>
       <use x="163.28125" xlink:href="#DejaVuSans-83"/>
       <use x="226.757812" xlink:href="#DejaVuSans-79"/>
      </g>
     </g>
    </g>
    <g id="xtick_2">
     <g id="line2d_14">
      <g>
       <use style="stroke:#000000;" x="203.720777" xlink:href="#mbe5d90eef2" y="421.6464"/>
      </g>
     </g>
     <g id="text_2">
      <!-- GLAU -->
      <defs>
       <path d="M 59.515625 10.40625 
L 59.515625 29.984375 
L 43.40625 29.984375 
L 43.40625 38.09375 
L 69.28125 38.09375 
L 69.28125 6.78125 
Q 63.578125 2.734375 56.6875 0.65625 
Q 49.8125 -1.421875 42 -1.421875 
Q 24.90625 -1.421875 15.25 8.5625 
Q 5.609375 18.5625 5.609375 36.375 
Q 5.609375 54.25 15.25 64.234375 
Q 24.90625 74.21875 42 74.21875 
Q 49.125 74.21875 55.546875 72.453125 
Q 61.96875 70.703125 67.390625 67.28125 
L 67.390625 56.78125 
Q 61.921875 61.421875 55.765625 63.765625 
Q 49.609375 66.109375 42.828125 66.109375 
Q 29.4375 66.109375 22.71875 58.640625 
Q 16.015625 51.171875 16.015625 36.375 
Q 16.015625 21.625 22.71875 14.15625 
Q 29.4375 6.6875 42.828125 6.6875 
Q 48.046875 6.6875 52.140625 7.59375 
Q 56.25 8.5 59.515625 10.40625 
z
" id="DejaVuSans-71"/>
       <path d="M 9.8125 72.90625 
L 19.671875 72.90625 
L 19.671875 8.296875 
L 55.171875 8.296875 
L 55.171875 0 
L 9.8125 0 
z
" id="DejaVuSans-76"/>
       <path d="M 34.1875 63.1875 
L 20.796875 26.90625 
L 47.609375 26.90625 
z
M 28.609375 72.90625 
L 39.796875 72.90625 
L 67.578125 0 
L 57.328125 0 
L 50.6875 18.703125 
L 17.828125 18.703125 
L 11.1875 0 
L 0.78125 0 
z
" id="DejaVuSans-65"/>
       <path d="M 8.6875 72.90625 
L 18.609375 72.90625 
L 18.609375 28.609375 
Q 18.609375 16.890625 22.84375 11.734375 
Q 27.09375 6.59375 36.625 6.59375 
Q 46.09375 6.59375 50.34375 11.734375 
Q 54.59375 16.890625 54.59375 28.609375 
L 54.59375 72.90625 
L 64.5 72.90625 
L 64.5 27.390625 
Q 64.5 13.140625 57.4375 5.859375 
Q 50.390625 -1.421875 36.625 -1.421875 
Q 22.796875 -1.421875 15.734375 5.859375 
Q 8.6875 13.140625 8.6875 27.390625 
z
" id="DejaVuSans-85"/>
      </defs>
      <g transform="translate(181.734527 439.3039)scale(0.16 -0.16)">
       <use xlink:href="#DejaVuSans-71"/>
       <use x="77.490234" xlink:href="#DejaVuSans-76"/>
       <use x="133.234375" xlink:href="#DejaVuSans-65"/>
       <use x="201.642578" xlink:href="#DejaVuSans-85"/>
      </g>
     </g>
    </g>
    <g id="xtick_3">
     <g id="line2d_15">
      <g>
       <use style="stroke:#000000;" x="286.965364" xlink:href="#mbe5d90eef2" y="421.6464"/>
      </g>
     </g>
     <g id="text_3">
      <!-- NOS -->
      <defs>
       <path d="M 9.8125 72.90625 
L 23.09375 72.90625 
L 55.421875 11.921875 
L 55.421875 72.90625 
L 64.984375 72.90625 
L 64.984375 0 
L 51.703125 0 
L 19.390625 60.984375 
L 19.390625 0 
L 9.8125 0 
z
" id="DejaVuSans-78"/>
      </defs>
      <g transform="translate(269.604114 439.3039)scale(0.16 -0.16)">
       <use xlink:href="#DejaVuSans-78"/>
       <use x="74.804688" xlink:href="#DejaVuSans-79"/>
       <use x="153.515625" xlink:href="#DejaVuSans-83"/>
      </g>
     </g>
    </g>
    <g id="xtick_4">
     <g id="line2d_16">
      <g>
       <use style="stroke:#000000;" x="370.209951" xlink:href="#mbe5d90eef2" y="421.6464"/>
      </g>
     </g>
     <g id="text_4">
      <!-- PAP -->
      <defs>
       <path d="M 19.671875 64.796875 
L 19.671875 37.40625 
L 32.078125 37.40625 
Q 38.96875 37.40625 42.71875 40.96875 
Q 46.484375 44.53125 46.484375 51.125 
Q 46.484375 57.671875 42.71875 61.234375 
Q 38.96875 64.796875 32.078125 64.796875 
z
M 9.8125 72.90625 
L 32.078125 72.90625 
Q 44.34375 72.90625 50.609375 67.359375 
Q 56.890625 61.8125 56.890625 51.125 
Q 56.890625 40.328125 50.609375 34.8125 
Q 44.34375 29.296875 32.078125 29.296875 
L 19.671875 29.296875 
L 19.671875 0 
L 9.8125 0 
z
" id="DejaVuSans-80"/>
      </defs>
      <g transform="translate(355.097451 439.3039)scale(0.16 -0.16)">
       <use xlink:href="#DejaVuSans-80"/>
       <use x="60.208984" xlink:href="#DejaVuSans-65"/>
       <use x="128.617188" xlink:href="#DejaVuSans-80"/>
      </g>
     </g>
    </g>
    <g id="xtick_5">
     <g id="line2d_17">
      <g>
       <use style="stroke:#000000;" x="453.454539" xlink:href="#mbe5d90eef2" y="421.6464"/>
      </g>
     </g>
     <g id="text_5">
      <!-- ROTU -->
      <defs>
       <path d="M 44.390625 34.1875 
Q 47.5625 33.109375 50.5625 29.59375 
Q 53.5625 26.078125 56.59375 19.921875 
L 66.609375 0 
L 56 0 
L 46.6875 18.703125 
Q 43.0625 26.03125 39.671875 28.421875 
Q 36.28125 30.8125 30.421875 30.8125 
L 19.671875 30.8125 
L 19.671875 0 
L 9.8125 0 
L 9.8125 72.90625 
L 32.078125 72.90625 
Q 44.578125 72.90625 50.734375 67.671875 
Q 56.890625 62.453125 56.890625 51.90625 
Q 56.890625 45.015625 53.6875 40.46875 
Q 50.484375 35.9375 44.390625 34.1875 
z
M 19.671875 64.796875 
L 19.671875 38.921875 
L 32.078125 38.921875 
Q 39.203125 38.921875 42.84375 42.21875 
Q 46.484375 45.515625 46.484375 51.90625 
Q 46.484375 58.296875 42.84375 61.546875 
Q 39.203125 64.796875 32.078125 64.796875 
z
" id="DejaVuSans-82"/>
       <path d="M -0.296875 72.90625 
L 61.375 72.90625 
L 61.375 64.59375 
L 35.5 64.59375 
L 35.5 0 
L 25.59375 0 
L 25.59375 64.59375 
L -0.296875 64.59375 
z
" id="DejaVuSans-84"/>
      </defs>
      <g transform="translate(430.857039 439.3039)scale(0.16 -0.16)">
       <use xlink:href="#DejaVuSans-82"/>
       <use x="69.482422" xlink:href="#DejaVuSans-79"/>
       <use x="148.193359" xlink:href="#DejaVuSans-84"/>
       <use x="209.277344" xlink:href="#DejaVuSans-85"/>
      </g>
     </g>
    </g>
    <g id="xtick_6">
     <g id="line2d_18">
      <g>
       <use style="stroke:#000000;" x="536.699126" xlink:href="#mbe5d90eef2" y="421.6464"/>
      </g>
     </g>
     <g id="text_6">
      <!-- THP -->
      <defs>
       <path d="M 9.8125 72.90625 
L 19.671875 72.90625 
L 19.671875 43.015625 
L 55.515625 43.015625 
L 55.515625 72.90625 
L 65.375 72.90625 
L 65.375 0 
L 55.515625 0 
L 55.515625 34.71875 
L 19.671875 34.71875 
L 19.671875 0 
L 9.8125 0 
z
" id="DejaVuSans-72"/>
      </defs>
      <g transform="translate(520.972876 439.3039)scale(0.16 -0.16)">
       <use xlink:href="#DejaVuSans-84"/>
       <use x="61.083984" xlink:href="#DejaVuSans-72"/>
       <use x="136.279297" xlink:href="#DejaVuSans-80"/>
      </g>
     </g>
    </g>
    <g id="text_7">
     <!-- RamR variant -->
     <defs>
      <path d="M 34.28125 27.484375 
Q 23.390625 27.484375 19.1875 25 
Q 14.984375 22.515625 14.984375 16.5 
Q 14.984375 11.71875 18.140625 8.90625 
Q 21.296875 6.109375 26.703125 6.109375 
Q 34.1875 6.109375 38.703125 11.40625 
Q 43.21875 16.703125 43.21875 25.484375 
L 43.21875 27.484375 
z
M 52.203125 31.203125 
L 52.203125 0 
L 43.21875 0 
L 43.21875 8.296875 
Q 40.140625 3.328125 35.546875 0.953125 
Q 30.953125 -1.421875 24.3125 -1.421875 
Q 15.921875 -1.421875 10.953125 3.296875 
Q 6 8.015625 6 15.921875 
Q 6 25.140625 12.171875 29.828125 
Q 18.359375 34.515625 30.609375 34.515625 
L 43.21875 34.515625 
L 43.21875 35.40625 
Q 43.21875 41.609375 39.140625 45 
Q 35.0625 48.390625 27.6875 48.390625 
Q 23 48.390625 18.546875 47.265625 
Q 14.109375 46.140625 10.015625 43.890625 
L 10.015625 52.203125 
Q 14.9375 54.109375 19.578125 55.046875 
Q 24.21875 56 28.609375 56 
Q 40.484375 56 46.34375 49.84375 
Q 52.203125 43.703125 52.203125 31.203125 
z
" id="DejaVuSans-97"/>
      <path d="M 52 44.1875 
Q 55.375 50.25 60.0625 53.125 
Q 64.75 56 71.09375 56 
Q 79.640625 56 84.28125 50.015625 
Q 88.921875 44.046875 88.921875 33.015625 
L 88.921875 0 
L 79.890625 0 
L 79.890625 32.71875 
Q 79.890625 40.578125 77.09375 44.375 
Q 74.3125 48.1875 68.609375 48.1875 
Q 61.625 48.1875 57.5625 43.546875 
Q 53.515625 38.921875 53.515625 30.90625 
L 53.515625 0 
L 44.484375 0 
L 44.484375 32.71875 
Q 44.484375 40.625 41.703125 44.40625 
Q 38.921875 48.1875 33.109375 48.1875 
Q 26.21875 48.1875 22.15625 43.53125 
Q 18.109375 38.875 18.109375 30.90625 
L 18.109375 0 
L 9.078125 0 
L 9.078125 54.6875 
L 18.109375 54.6875 
L 18.109375 46.1875 
Q 21.1875 51.21875 25.484375 53.609375 
Q 29.78125 56 35.6875 56 
Q 41.65625 56 45.828125 52.96875 
Q 50 49.953125 52 44.1875 
z
" id="DejaVuSans-109"/>
      <path id="DejaVuSans-32"/>
      <path d="M 2.984375 54.6875 
L 12.5 54.6875 
L 29.59375 8.796875 
L 46.6875 54.6875 
L 56.203125 54.6875 
L 35.6875 0 
L 23.484375 0 
z
" id="DejaVuSans-118"/>
      <path d="M 41.109375 46.296875 
Q 39.59375 47.171875 37.8125 47.578125 
Q 36.03125 48 33.890625 48 
Q 26.265625 48 22.1875 43.046875 
Q 18.109375 38.09375 18.109375 28.8125 
L 18.109375 0 
L 9.078125 0 
L 9.078125 54.6875 
L 18.109375 54.6875 
L 18.109375 46.1875 
Q 20.953125 51.171875 25.484375 53.578125 
Q 30.03125 56 36.53125 56 
Q 37.453125 56 38.578125 55.875 
Q 39.703125 55.765625 41.0625 55.515625 
z
" id="DejaVuSans-114"/>
      <path d="M 9.421875 54.6875 
L 18.40625 54.6875 
L 18.40625 0 
L 9.421875 0 
z
M 9.421875 75.984375 
L 18.40625 75.984375 
L 18.40625 64.59375 
L 9.421875 64.59375 
z
" id="DejaVuSans-105"/>
      <path d="M 54.890625 33.015625 
L 54.890625 0 
L 45.90625 0 
L 45.90625 32.71875 
Q 45.90625 40.484375 42.875 44.328125 
Q 39.84375 48.1875 33.796875 48.1875 
Q 26.515625 48.1875 22.3125 43.546875 
Q 18.109375 38.921875 18.109375 30.90625 
L 18.109375 0 
L 9.078125 0 
L 9.078125 54.6875 
L 18.109375 54.6875 
L 18.109375 46.1875 
Q 21.34375 51.125 25.703125 53.5625 
Q 30.078125 56 35.796875 56 
Q 45.21875 56 50.046875 50.171875 
Q 54.890625 44.34375 54.890625 33.015625 
z
" id="DejaVuSans-110"/>
      <path d="M 18.3125 70.21875 
L 18.3125 54.6875 
L 36.8125 54.6875 
L 36.8125 47.703125 
L 18.3125 47.703125 
L 18.3125 18.015625 
Q 18.3125 11.328125 20.140625 9.421875 
Q 21.96875 7.515625 27.59375 7.515625 
L 36.8125 7.515625 
L 36.8125 0 
L 27.59375 0 
Q 17.1875 0 13.234375 3.875 
Q 9.28125 7.765625 9.28125 18.015625 
L 9.28125 47.703125 
L 2.6875 47.703125 
L 2.6875 54.6875 
L 9.28125 54.6875 
L 9.28125 70.21875 
z
" id="DejaVuSans-116"/>
     </defs>
     <g transform="translate(270.66375 460.308587)scale(0.18 -0.18)">
      <use xlink:href="#DejaVuSans-82"/>
      <use x="69.451172" xlink:href="#DejaVuSans-97"/>
      <use x="130.730469" xlink:href="#DejaVuSans-109"/>
      <use x="228.142578" xlink:href="#DejaVuSans-82"/>
      <use x="297.625" xlink:href="#DejaVuSans-32"/>
      <use x="329.412109" xlink:href="#DejaVuSans-118"/>
      <use x="388.591797" xlink:href="#DejaVuSans-97"/>
      <use x="449.871094" xlink:href="#DejaVuSans-114"/>
      <use x="490.984375" xlink:href="#DejaVuSans-105"/>
      <use x="518.767578" xlink:href="#DejaVuSans-97"/>
      <use x="580.046875" xlink:href="#DejaVuSans-110"/>
      <use x="643.425781" xlink:href="#DejaVuSans-116"/>
     </g>
    </g>
   </g>
   <g id="matplotlib.axis_2">
    <g id="ytick_1">
     <g id="line2d_19">
      <defs>
       <path d="M 0 0 
L -2 0 
" id="m76ce68927e" style="stroke:#000000;"/>
      </defs>
      <g>
       <use style="stroke:#000000;" x="81" xlink:href="#m76ce68927e" y="421.6464"/>
      </g>
     </g>
     <g id="text_8">
      <!-- 0 -->
      <defs>
       <path d="M 31.78125 66.40625 
Q 24.171875 66.40625 20.328125 58.90625 
Q 16.5 51.421875 16.5 36.375 
Q 16.5 21.390625 20.328125 13.890625 
Q 24.171875 6.390625 31.78125 6.390625 
Q 39.453125 6.390625 43.28125 13.890625 
Q 47.125 21.390625 47.125 36.375 
Q 47.125 51.421875 43.28125 58.90625 
Q 39.453125 66.40625 31.78125 66.40625 
z
M 31.78125 74.21875 
Q 44.046875 74.21875 50.515625 64.515625 
Q 56.984375 54.828125 56.984375 36.375 
Q 56.984375 17.96875 50.515625 8.265625 
Q 44.046875 -1.421875 31.78125 -1.421875 
Q 19.53125 -1.421875 13.0625 8.265625 
Q 6.59375 17.96875 6.59375 36.375 
Q 6.59375 54.828125 13.0625 64.515625 
Q 19.53125 74.21875 31.78125 74.21875 
z
" id="DejaVuSans-48"/>
      </defs>
      <g transform="translate(64.0475 428.484994)scale(0.18 -0.18)">
       <use xlink:href="#DejaVuSans-48"/>
      </g>
     </g>
    </g>
    <g id="ytick_2">
     <g id="line2d_20">
      <g>
       <use style="stroke:#000000;" x="81" xlink:href="#m76ce68927e" y="374.032124"/>
      </g>
     </g>
     <g id="text_9">
      <!-- 1 -->
      <defs>
       <path d="M 12.40625 8.296875 
L 28.515625 8.296875 
L 28.515625 63.921875 
L 10.984375 60.40625 
L 10.984375 69.390625 
L 28.421875 72.90625 
L 38.28125 72.90625 
L 38.28125 8.296875 
L 54.390625 8.296875 
L 54.390625 0 
L 12.40625 0 
z
" id="DejaVuSans-49"/>
      </defs>
      <g transform="translate(64.0475 380.870718)scale(0.18 -0.18)">
       <use xlink:href="#DejaVuSans-49"/>
      </g>
     </g>
    </g>
    <g id="ytick_3">
     <g id="line2d_21">
      <g>
       <use style="stroke:#000000;" x="81" xlink:href="#m76ce68927e" y="326.417848"/>
      </g>
     </g>
     <g id="text_10">
      <!-- 2 -->
      <defs>
       <path d="M 19.1875 8.296875 
L 53.609375 8.296875 
L 53.609375 0 
L 7.328125 0 
L 7.328125 8.296875 
Q 12.9375 14.109375 22.625 23.890625 
Q 32.328125 33.6875 34.8125 36.53125 
Q 39.546875 41.84375 41.421875 45.53125 
Q 43.3125 49.21875 43.3125 52.78125 
Q 43.3125 58.59375 39.234375 62.25 
Q 35.15625 65.921875 28.609375 65.921875 
Q 23.96875 65.921875 18.8125 64.3125 
Q 13.671875 62.703125 7.8125 59.421875 
L 7.8125 69.390625 
Q 13.765625 71.78125 18.9375 73 
Q 24.125 74.21875 28.421875 74.21875 
Q 39.75 74.21875 46.484375 68.546875 
Q 53.21875 62.890625 53.21875 53.421875 
Q 53.21875 48.921875 51.53125 44.890625 
Q 49.859375 40.875 45.40625 35.40625 
Q 44.1875 33.984375 37.640625 27.21875 
Q 31.109375 20.453125 19.1875 8.296875 
z
" id="DejaVuSans-50"/>
      </defs>
      <g transform="translate(64.0475 333.256441)scale(0.18 -0.18)">
       <use xlink:href="#DejaVuSans-50"/>
      </g>
     </g>
    </g>
    <g id="ytick_4">
     <g id="line2d_22">
      <g>
       <use style="stroke:#000000;" x="81" xlink:href="#m76ce68927e" y="278.803572"/>
      </g>
     </g>
     <g id="text_11">
      <!-- 3 -->
      <defs>
       <path d="M 40.578125 39.3125 
Q 47.65625 37.796875 51.625 33 
Q 55.609375 28.21875 55.609375 21.1875 
Q 55.609375 10.40625 48.1875 4.484375 
Q 40.765625 -1.421875 27.09375 -1.421875 
Q 22.515625 -1.421875 17.65625 -0.515625 
Q 12.796875 0.390625 7.625 2.203125 
L 7.625 11.71875 
Q 11.71875 9.328125 16.59375 8.109375 
Q 21.484375 6.890625 26.8125 6.890625 
Q 36.078125 6.890625 40.9375 10.546875 
Q 45.796875 14.203125 45.796875 21.1875 
Q 45.796875 27.640625 41.28125 31.265625 
Q 36.765625 34.90625 28.71875 34.90625 
L 20.21875 34.90625 
L 20.21875 43.015625 
L 29.109375 43.015625 
Q 36.375 43.015625 40.234375 45.921875 
Q 44.09375 48.828125 44.09375 54.296875 
Q 44.09375 59.90625 40.109375 62.90625 
Q 36.140625 65.921875 28.71875 65.921875 
Q 24.65625 65.921875 20.015625 65.03125 
Q 15.375 64.15625 9.8125 62.3125 
L 9.8125 71.09375 
Q 15.4375 72.65625 20.34375 73.4375 
Q 25.25 74.21875 29.59375 74.21875 
Q 40.828125 74.21875 47.359375 69.109375 
Q 53.90625 64.015625 53.90625 55.328125 
Q 53.90625 49.265625 50.4375 45.09375 
Q 46.96875 40.921875 40.578125 39.3125 
z
" id="DejaVuSans-51"/>
      </defs>
      <g transform="translate(64.0475 285.642165)scale(0.18 -0.18)">
       <use xlink:href="#DejaVuSans-51"/>
      </g>
     </g>
    </g>
    <g id="ytick_5">
     <g id="line2d_23">
      <g>
       <use style="stroke:#000000;" x="81" xlink:href="#m76ce68927e" y="231.189295"/>
      </g>
     </g>
     <g id="text_12">
      <!-- 4 -->
      <defs>
       <path d="M 37.796875 64.3125 
L 12.890625 25.390625 
L 37.796875 25.390625 
z
M 35.203125 72.90625 
L 47.609375 72.90625 
L 47.609375 25.390625 
L 58.015625 25.390625 
L 58.015625 17.1875 
L 47.609375 17.1875 
L 47.609375 0 
L 37.796875 0 
L 37.796875 17.1875 
L 4.890625 17.1875 
L 4.890625 26.703125 
z
" id="DejaVuSans-52"/>
      </defs>
      <g transform="translate(64.0475 238.027889)scale(0.18 -0.18)">
       <use xlink:href="#DejaVuSans-52"/>
      </g>
     </g>
    </g>
    <g id="ytick_6">
     <g id="line2d_24">
      <g>
       <use style="stroke:#000000;" x="81" xlink:href="#m76ce68927e" y="183.575019"/>
      </g>
     </g>
     <g id="text_13">
      <!-- 5 -->
      <defs>
       <path d="M 10.796875 72.90625 
L 49.515625 72.90625 
L 49.515625 64.59375 
L 19.828125 64.59375 
L 19.828125 46.734375 
Q 21.96875 47.46875 24.109375 47.828125 
Q 26.265625 48.1875 28.421875 48.1875 
Q 40.625 48.1875 47.75 41.5 
Q 54.890625 34.8125 54.890625 23.390625 
Q 54.890625 11.625 47.5625 5.09375 
Q 40.234375 -1.421875 26.90625 -1.421875 
Q 22.3125 -1.421875 17.546875 -0.640625 
Q 12.796875 0.140625 7.71875 1.703125 
L 7.71875 11.625 
Q 12.109375 9.234375 16.796875 8.0625 
Q 21.484375 6.890625 26.703125 6.890625 
Q 35.15625 6.890625 40.078125 11.328125 
Q 45.015625 15.765625 45.015625 23.390625 
Q 45.015625 31 40.078125 35.4375 
Q 35.15625 39.890625 26.703125 39.890625 
Q 22.75 39.890625 18.8125 39.015625 
Q 14.890625 38.140625 10.796875 36.28125 
z
" id="DejaVuSans-53"/>
      </defs>
      <g transform="translate(64.0475 190.413613)scale(0.18 -0.18)">
       <use xlink:href="#DejaVuSans-53"/>
      </g>
     </g>
    </g>
    <g id="ytick_7">
     <g id="line2d_25">
      <g>
       <use style="stroke:#000000;" x="81" xlink:href="#m76ce68927e" y="135.960743"/>
      </g>
     </g>
     <g id="text_14">
      <!-- 6 -->
      <defs>
       <path d="M 33.015625 40.375 
Q 26.375 40.375 22.484375 35.828125 
Q 18.609375 31.296875 18.609375 23.390625 
Q 18.609375 15.53125 22.484375 10.953125 
Q 26.375 6.390625 33.015625 6.390625 
Q 39.65625 6.390625 43.53125 10.953125 
Q 47.40625 15.53125 47.40625 23.390625 
Q 47.40625 31.296875 43.53125 35.828125 
Q 39.65625 40.375 33.015625 40.375 
z
M 52.59375 71.296875 
L 52.59375 62.3125 
Q 48.875 64.0625 45.09375 64.984375 
Q 41.3125 65.921875 37.59375 65.921875 
Q 27.828125 65.921875 22.671875 59.328125 
Q 17.53125 52.734375 16.796875 39.40625 
Q 19.671875 43.65625 24.015625 45.921875 
Q 28.375 48.1875 33.59375 48.1875 
Q 44.578125 48.1875 50.953125 41.515625 
Q 57.328125 34.859375 57.328125 23.390625 
Q 57.328125 12.15625 50.6875 5.359375 
Q 44.046875 -1.421875 33.015625 -1.421875 
Q 20.359375 -1.421875 13.671875 8.265625 
Q 6.984375 17.96875 6.984375 36.375 
Q 6.984375 53.65625 15.1875 63.9375 
Q 23.390625 74.21875 37.203125 74.21875 
Q 40.921875 74.21875 44.703125 73.484375 
Q 48.484375 72.75 52.59375 71.296875 
z
" id="DejaVuSans-54"/>
      </defs>
      <g transform="translate(64.0475 142.799337)scale(0.18 -0.18)">
       <use xlink:href="#DejaVuSans-54"/>
      </g>
     </g>
    </g>
    <g id="ytick_8">
     <g id="line2d_26">
      <g>
       <use style="stroke:#000000;" x="81" xlink:href="#m76ce68927e" y="88.346467"/>
      </g>
     </g>
     <g id="text_15">
      <!-- 7 -->
      <defs>
       <path d="M 8.203125 72.90625 
L 55.078125 72.90625 
L 55.078125 68.703125 
L 28.609375 0 
L 18.3125 0 
L 43.21875 64.59375 
L 8.203125 64.59375 
z
" id="DejaVuSans-55"/>
      </defs>
      <g transform="translate(64.0475 95.185061)scale(0.18 -0.18)">
       <use xlink:href="#DejaVuSans-55"/>
      </g>
     </g>
    </g>
    <g id="text_16">
     <!-- $(RFU/OD) \times 10^3$ -->
     <defs>
      <path d="M 31 75.875 
Q 24.46875 64.65625 21.28125 53.65625 
Q 18.109375 42.671875 18.109375 31.390625 
Q 18.109375 20.125 21.3125 9.0625 
Q 24.515625 -2 31 -13.1875 
L 23.1875 -13.1875 
Q 15.875 -1.703125 12.234375 9.375 
Q 8.59375 20.453125 8.59375 31.390625 
Q 8.59375 42.28125 12.203125 53.3125 
Q 15.828125 64.359375 23.1875 75.875 
z
" id="DejaVuSans-40"/>
      <path d="M 25.203125 64.796875 
L 20.21875 38.921875 
L 32.90625 38.921875 
Q 40.375 38.921875 44.984375 43.046875 
Q 49.609375 47.171875 49.609375 53.8125 
Q 49.609375 59.125 46.5 61.953125 
Q 43.40625 64.796875 37.59375 64.796875 
z
M 43.3125 35.015625 
Q 46.4375 34.28125 48.515625 31.390625 
Q 50.59375 28.515625 53.328125 19.921875 
L 59.515625 0 
L 49.125 0 
L 43.40625 18.703125 
Q 41.21875 25.921875 38.328125 28.359375 
Q 35.453125 30.8125 29.5 30.8125 
L 18.609375 30.8125 
L 12.59375 0 
L 2.6875 0 
L 16.890625 72.90625 
L 39.109375 72.90625 
Q 49.21875 72.90625 54.609375 68.328125 
Q 60.015625 63.765625 60.015625 55.171875 
Q 60.015625 47.5625 55.421875 41.984375 
Q 50.828125 36.421875 43.3125 35.015625 
z
" id="DejaVuSans-Oblique-82"/>
      <path d="M 16.890625 72.90625 
L 58.6875 72.90625 
L 57.078125 64.59375 
L 25.09375 64.59375 
L 20.90625 43.109375 
L 49.8125 43.109375 
L 48.1875 34.8125 
L 19.28125 34.8125 
L 12.5 0 
L 2.6875 0 
z
" id="DejaVuSans-Oblique-70"/>
      <path d="M 15.484375 72.90625 
L 25.390625 72.90625 
L 16.796875 28.609375 
Q 16.265625 25.640625 16.046875 23.703125 
Q 15.828125 21.78125 15.828125 20.3125 
Q 15.828125 13.578125 19.578125 10.078125 
Q 23.34375 6.59375 30.609375 6.59375 
Q 40.046875 6.59375 45.28125 11.765625 
Q 50.53125 16.9375 52.78125 28.609375 
L 61.375 72.90625 
L 71.296875 72.90625 
L 62.5 27.390625 
Q 59.625 12.640625 51.5625 5.609375 
Q 43.5 -1.421875 29.5 -1.421875 
Q 18.5625 -1.421875 12.1875 4.078125 
Q 5.8125 9.578125 5.8125 19 
Q 5.8125 20.703125 6.046875 22.828125 
Q 6.296875 24.953125 6.78125 27.390625 
z
" id="DejaVuSans-Oblique-85"/>
      <path d="M 25.390625 72.90625 
L 33.6875 72.90625 
L 8.296875 -9.28125 
L 0 -9.28125 
z
" id="DejaVuSans-47"/>
      <path d="M 45.609375 66.21875 
Q 37.5 66.21875 31.296875 62.28125 
Q 25.09375 58.34375 20.515625 50.296875 
Q 17.578125 45.171875 16.03125 39.40625 
Q 14.5 33.640625 14.5 27.78125 
Q 14.5 17.625 19.359375 12.109375 
Q 24.21875 6.59375 33.109375 6.59375 
Q 41.109375 6.59375 47.375 10.5625 
Q 53.65625 14.546875 58.109375 22.40625 
Q 61.078125 27.6875 62.640625 33.46875 
Q 64.203125 39.265625 64.203125 45.015625 
Q 64.203125 55.125 59.3125 60.671875 
Q 54.4375 66.21875 45.609375 66.21875 
z
M 32.8125 -1.421875 
Q 19.390625 -1.421875 11.6875 6.53125 
Q 4 14.5 4 28.328125 
Q 4 36.234375 7 44.484375 
Q 10.015625 52.734375 15.28125 59.1875 
Q 21.484375 66.75 29.09375 70.484375 
Q 36.71875 74.21875 45.90625 74.21875 
Q 59.28125 74.21875 66.984375 66.328125 
Q 74.703125 58.453125 74.703125 44.828125 
Q 74.703125 36.421875 71.765625 28.3125 
Q 68.84375 20.21875 63.375 13.625 
Q 57.125 6 49.578125 2.28125 
Q 42.046875 -1.421875 32.8125 -1.421875 
z
" id="DejaVuSans-Oblique-79"/>
      <path d="M 16.890625 72.90625 
L 38.09375 72.90625 
Q 54.984375 72.90625 63.59375 65.75 
Q 72.21875 58.59375 72.21875 44.484375 
Q 72.21875 35.15625 68.9375 26.53125 
Q 65.671875 17.921875 59.90625 12.015625 
Q 54.109375 5.953125 45.171875 2.96875 
Q 36.234375 0 24.03125 0 
L 2.6875 0 
z
M 25.203125 64.796875 
L 14.203125 8.109375 
L 27.09375 8.109375 
Q 43.65625 8.109375 52.734375 17.625 
Q 61.8125 27.15625 61.8125 44.484375 
Q 61.8125 54.984375 55.953125 59.890625 
Q 50.09375 64.796875 37.59375 64.796875 
z
" id="DejaVuSans-Oblique-68"/>
      <path d="M 8.015625 75.875 
L 15.828125 75.875 
Q 23.140625 64.359375 26.78125 53.3125 
Q 30.421875 42.28125 30.421875 31.390625 
Q 30.421875 20.453125 26.78125 9.375 
Q 23.140625 -1.703125 15.828125 -13.1875 
L 8.015625 -13.1875 
Q 14.5 -2 17.703125 9.0625 
Q 20.90625 20.125 20.90625 31.390625 
Q 20.90625 42.671875 17.703125 53.65625 
Q 14.5 64.65625 8.015625 75.875 
z
" id="DejaVuSans-41"/>
      <path d="M 70.125 53.71875 
L 47.796875 31.296875 
L 70.125 8.984375 
L 64.3125 3.078125 
L 41.890625 25.484375 
L 19.484375 3.078125 
L 13.71875 8.984375 
L 35.984375 31.296875 
L 13.71875 53.71875 
L 19.484375 59.625 
L 41.890625 37.203125 
L 64.3125 59.625 
z
" id="DejaVuSans-215"/>
     </defs>
     <g transform="translate(56.304063 308.1888)rotate(-90)scale(0.18 -0.18)">
      <use transform="translate(0 0.765625)" xlink:href="#DejaVuSans-40"/>
      <use transform="translate(39.013672 0.765625)" xlink:href="#DejaVuSans-Oblique-82"/>
      <use transform="translate(108.496094 0.765625)" xlink:href="#DejaVuSans-Oblique-70"/>
      <use transform="translate(166.015625 0.765625)" xlink:href="#DejaVuSans-Oblique-85"/>
      <use transform="translate(239.208984 0.765625)" xlink:href="#DejaVuSans-47"/>
      <use transform="translate(272.900391 0.765625)" xlink:href="#DejaVuSans-Oblique-79"/>
      <use transform="translate(351.611328 0.765625)" xlink:href="#DejaVuSans-Oblique-68"/>
      <use transform="translate(428.613281 0.765625)" xlink:href="#DejaVuSans-41"/>
      <use transform="translate(487.109375 0.765625)" xlink:href="#DejaVuSans-215"/>
      <use transform="translate(590.380859 0.765625)" xlink:href="#DejaVuSans-49"/>
      <use transform="translate(654.003906 0.765625)" xlink:href="#DejaVuSans-48"/>
      <use transform="translate(718.583984 39.046875)scale(0.7)" xlink:href="#DejaVuSans-51"/>
     </g>
    </g>
   </g>
   <g id="patch_9">
    <path d="M 81 421.6464 
L 81 56.8512 
" style="fill:none;stroke:#000000;stroke-linecap:square;stroke-linejoin:miter;stroke-width:0.8;"/>
   </g>
   <g id="patch_10">
    <path d="M 81 421.6464 
L 583.2 421.6464 
" style="fill:none;stroke:#000000;stroke-linecap:square;stroke-linejoin:miter;stroke-width:0.8;"/>
   </g>
   <g id="text_17">
    <!-- Orthogonality of WT RamR -->
    <defs>
     <path d="M 54.890625 33.015625 
L 54.890625 0 
L 45.90625 0 
L 45.90625 32.71875 
Q 45.90625 40.484375 42.875 44.328125 
Q 39.84375 48.1875 33.796875 48.1875 
Q 26.515625 48.1875 22.3125 43.546875 
Q 18.109375 38.921875 18.109375 30.90625 
L 18.109375 0 
L 9.078125 0 
L 9.078125 75.984375 
L 18.109375 75.984375 
L 18.109375 46.1875 
Q 21.34375 51.125 25.703125 53.5625 
Q 30.078125 56 35.796875 56 
Q 45.21875 56 50.046875 50.171875 
Q 54.890625 44.34375 54.890625 33.015625 
z
" id="DejaVuSans-104"/>
     <path d="M 30.609375 48.390625 
Q 23.390625 48.390625 19.1875 42.75 
Q 14.984375 37.109375 14.984375 27.296875 
Q 14.984375 17.484375 19.15625 11.84375 
Q 23.34375 6.203125 30.609375 6.203125 
Q 37.796875 6.203125 41.984375 11.859375 
Q 46.1875 17.53125 46.1875 27.296875 
Q 46.1875 37.015625 41.984375 42.703125 
Q 37.796875 48.390625 30.609375 48.390625 
z
M 30.609375 56 
Q 42.328125 56 49.015625 48.375 
Q 55.71875 40.765625 55.71875 27.296875 
Q 55.71875 13.875 49.015625 6.21875 
Q 42.328125 -1.421875 30.609375 -1.421875 
Q 18.84375 -1.421875 12.171875 6.21875 
Q 5.515625 13.875 5.515625 27.296875 
Q 5.515625 40.765625 12.171875 48.375 
Q 18.84375 56 30.609375 56 
z
" id="DejaVuSans-111"/>
     <path d="M 45.40625 27.984375 
Q 45.40625 37.75 41.375 43.109375 
Q 37.359375 48.484375 30.078125 48.484375 
Q 22.859375 48.484375 18.828125 43.109375 
Q 14.796875 37.75 14.796875 27.984375 
Q 14.796875 18.265625 18.828125 12.890625 
Q 22.859375 7.515625 30.078125 7.515625 
Q 37.359375 7.515625 41.375 12.890625 
Q 45.40625 18.265625 45.40625 27.984375 
z
M 54.390625 6.78125 
Q 54.390625 -7.171875 48.1875 -13.984375 
Q 42 -20.796875 29.203125 -20.796875 
Q 24.46875 -20.796875 20.265625 -20.09375 
Q 16.0625 -19.390625 12.109375 -17.921875 
L 12.109375 -9.1875 
Q 16.0625 -11.328125 19.921875 -12.34375 
Q 23.78125 -13.375 27.78125 -13.375 
Q 36.625 -13.375 41.015625 -8.765625 
Q 45.40625 -4.15625 45.40625 5.171875 
L 45.40625 9.625 
Q 42.625 4.78125 38.28125 2.390625 
Q 33.9375 0 27.875 0 
Q 17.828125 0 11.671875 7.65625 
Q 5.515625 15.328125 5.515625 27.984375 
Q 5.515625 40.671875 11.671875 48.328125 
Q 17.828125 56 27.875 56 
Q 33.9375 56 38.28125 53.609375 
Q 42.625 51.21875 45.40625 46.390625 
L 45.40625 54.6875 
L 54.390625 54.6875 
z
" id="DejaVuSans-103"/>
     <path d="M 9.421875 75.984375 
L 18.40625 75.984375 
L 18.40625 0 
L 9.421875 0 
z
" id="DejaVuSans-108"/>
     <path d="M 32.171875 -5.078125 
Q 28.375 -14.84375 24.75 -17.8125 
Q 21.140625 -20.796875 15.09375 -20.796875 
L 7.90625 -20.796875 
L 7.90625 -13.28125 
L 13.1875 -13.28125 
Q 16.890625 -13.28125 18.9375 -11.515625 
Q 21 -9.765625 23.484375 -3.21875 
L 25.09375 0.875 
L 2.984375 54.6875 
L 12.5 54.6875 
L 29.59375 11.921875 
L 46.6875 54.6875 
L 56.203125 54.6875 
z
" id="DejaVuSans-121"/>
     <path d="M 37.109375 75.984375 
L 37.109375 68.5 
L 28.515625 68.5 
Q 23.6875 68.5 21.796875 66.546875 
Q 19.921875 64.59375 19.921875 59.515625 
L 19.921875 54.6875 
L 34.71875 54.6875 
L 34.71875 47.703125 
L 19.921875 47.703125 
L 19.921875 0 
L 10.890625 0 
L 10.890625 47.703125 
L 2.296875 47.703125 
L 2.296875 54.6875 
L 10.890625 54.6875 
L 10.890625 58.5 
Q 10.890625 67.625 15.140625 71.796875 
Q 19.390625 75.984375 28.609375 75.984375 
z
" id="DejaVuSans-102"/>
     <path d="M 3.328125 72.90625 
L 13.28125 72.90625 
L 28.609375 11.28125 
L 43.890625 72.90625 
L 54.984375 72.90625 
L 70.3125 11.28125 
L 85.59375 72.90625 
L 95.609375 72.90625 
L 77.296875 0 
L 64.890625 0 
L 49.515625 63.28125 
L 33.984375 0 
L 21.578125 0 
z
" id="DejaVuSans-87"/>
    </defs>
    <g transform="translate(185.119375 50.8512)scale(0.22 -0.22)">
     <use xlink:href="#DejaVuSans-79"/>
     <use x="78.710938" xlink:href="#DejaVuSans-114"/>
     <use x="119.824219" xlink:href="#DejaVuSans-116"/>
     <use x="159.033203" xlink:href="#DejaVuSans-104"/>
     <use x="222.412109" xlink:href="#DejaVuSans-111"/>
     <use x="283.59375" xlink:href="#DejaVuSans-103"/>
     <use x="347.070312" xlink:href="#DejaVuSans-111"/>
     <use x="408.251953" xlink:href="#DejaVuSans-110"/>
     <use x="471.630859" xlink:href="#DejaVuSans-97"/>
     <use x="532.910156" xlink:href="#DejaVuSans-108"/>
     <use x="560.693359" xlink:href="#DejaVuSans-105"/>
     <use x="588.476562" xlink:href="#DejaVuSans-116"/>
     <use x="627.685547" xlink:href="#DejaVuSans-121"/>
     <use x="686.865234" xlink:href="#DejaVuSans-32"/>
     <use x="718.652344" xlink:href="#DejaVuSans-111"/>
     <use x="779.833984" xlink:href="#DejaVuSans-102"/>
     <use x="815.039062" xlink:href="#DejaVuSans-32"/>
     <use x="846.826172" xlink:href="#DejaVuSans-87"/>
     <use x="945.703125" xlink:href="#DejaVuSans-84"/>
     <use x="1006.787109" xlink:href="#DejaVuSans-32"/>
     <use x="1038.574219" xlink:href="#DejaVuSans-82"/>
     <use x="1108.025391" xlink:href="#DejaVuSans-97"/>
     <use x="1169.304688" xlink:href="#DejaVuSans-109"/>
     <use x="1266.716797" xlink:href="#DejaVuSans-82"/>
    </g>
   </g>
  </g>
 </g>
 <defs>
  <clipPath id="p2309d26a1d">
   <rect height="364.7952" width="502.2" x="81" y="56.8512"/>
  </clipPath>
 </defs>
</svg>
