<?xml version="1.0" encoding="utf-8" standalone="no"?>
<!DOCTYPE svg PUBLIC "-//W3C//DTD SVG 1.1//EN"
  "http://www.w3.org/Graphics/SVG/1.1/DTD/svg11.dtd">
<!-- Created with matplotlib (https://matplotlib.org/) -->
<svg height="473.76pt" version="1.1" viewBox="0 0 648 473.76" width="648pt" xmlns="http://www.w3.org/2000/svg" xmlns:xlink="http://www.w3.org/1999/xlink">
 <defs>
  <style type="text/css">
*{stroke-linecap:butt;stroke-linejoin:round;}
  </style>
 </defs>
 <g id="figure_1">
  <g id="patch_1">
   <path d="M 0 473.76 
L 648 473.76 
L 648 0 
L 0 0 
z
" style="fill:#ffffff;"/>
  </g>
  <g id="axes_1">
   <g id="patch_2">
    <path d="M 81 419.616 
L 618.685714 419.616 
L 618.685714 0 
L 81 0 
z
" style="fill:#ffffff;"/>
   </g>
   <g id="matplotlib.axis_1">
    <g id="xtick_1">
     <g id="line2d_1">
      <defs>
       <path d="M 0 0 
L 0 2 
" id="m61338f9eee" style="stroke:#000000;"/>
      </defs>
      <g>
       <use style="stroke:#000000;" x="124.758" xlink:href="#m61338f9eee" y="419.616"/>
      </g>
     </g>
     <g id="text_1">
      <!-- $\mathdefault{10^{-1}}$ -->
      <defs>
       <path d="M 22.75 51.265625 
L 6.84375 51.265625 
L 6.84375 57.71875 
Q 17.1875 58.984375 20.21875 61.328125 
Q 23.34375 63.578125 25.390625 70.796875 
L 25.875 71.96875 
L 31.734375 71.96875 
L 31.734375 0 
L 22.75 0 
z
" id="Gargi-49"/>
       <path d="M 41.890625 37.5 
Q 41.890625 66.5 27.4375 66.5 
Q 12.984375 66.5 12.984375 37.203125 
Q 12.984375 7.515625 27.25 7.515625 
Q 39.265625 7.515625 41.3125 27.046875 
Q 41.890625 31.734375 41.890625 37.5 
z
M 27.4375 74.421875 
Q 37.890625 74.421875 44.046875 66.5 
Q 50.984375 56.9375 50.984375 36.625 
Q 50.984375 9.1875 37.015625 2.15625 
Q 32.71875 0.09375 27.4375 0.09375 
Q 9.578125 0.09375 5.171875 22.078125 
Q 3.90625 28.71875 3.90625 37.3125 
Q 3.90625 57.125 10.84375 66.5 
Q 16.40625 74.421875 25.984375 74.421875 
z
" id="Gargi-48"/>
       <path d="M 52.203125 4 
L 47.40625 -1 
L 37.59375 8.796875 
Q 31.703125 4.703125 25.09375 4.703125 
Q 18.296875 4.703125 12.40625 8.796875 
L 2.796875 -1 
L -2.203125 4 
L 7.59375 13.59375 
Q 3.5 19.5 3.5 26.203125 
Q 3.5 33.09375 7.59375 38.796875 
L -2.203125 48.59375 
L 2.796875 53.40625 
L 12.40625 43.796875 
Q 18.5 47.703125 25.09375 47.703125 
Q 32 47.703125 37.59375 43.796875 
L 47.40625 53.40625 
L 52.203125 48.59375 
L 42.59375 38.796875 
Q 46.5 33 46.5 26.296875 
Q 46.5 19.703125 42.59375 13.59375 
z
M 39.703125 26.40625 
Q 39.703125 32.59375 35.390625 36.9375 
Q 31.09375 41.296875 24.90625 41.296875 
Q 18.90625 41.296875 14.59375 36.890625 
Q 10.296875 32.5 10.296875 26.296875 
Q 10.296875 20 14.640625 15.546875 
Q 19 11.09375 25.09375 11.09375 
Q 31.296875 11.09375 35.5 15.546875 
Q 39.703125 20 39.703125 26.40625 
z
" id="STIXGeneral-Regular-164"/>
      </defs>
      <g transform="translate(110.718 438.441625)scale(0.18 -0.18)">
       <use transform="translate(0 0.36875)" xlink:href="#Gargi-49"/>
       <use transform="translate(36.621094 0.36875)" xlink:href="#Gargi-48"/>
       <use transform="translate(92.435234 37.621875)scale(0.7)" xlink:href="#STIXGeneral-Regular-164"/>
       <use transform="translate(127.435224 37.621875)scale(0.7)" xlink:href="#Gargi-49"/>
      </g>
     </g>
    </g>
    <g id="xtick_2">
     <g id="line2d_2">
      <g>
       <use style="stroke:#000000;" x="270.118928" xlink:href="#m61338f9eee" y="419.616"/>
      </g>
     </g>
     <g id="text_2">
      <!-- $\mathdefault{10^{0}}$ -->
      <g transform="translate(258.058928 438.441625)scale(0.18 -0.18)">
       <use transform="translate(0 0.651563)" xlink:href="#Gargi-49"/>
       <use transform="translate(36.621094 0.651563)" xlink:href="#Gargi-48"/>
       <use transform="translate(92.435234 37.904688)scale(0.7)" xlink:href="#Gargi-48"/>
      </g>
     </g>
    </g>
    <g id="xtick_3">
     <g id="line2d_3">
      <g>
       <use style="stroke:#000000;" x="415.479857" xlink:href="#m61338f9eee" y="419.616"/>
      </g>
     </g>
     <g id="text_3">
      <!-- $\mathdefault{10^{1}}$ -->
      <g transform="translate(404.589857 438.441625)scale(0.18 -0.18)">
       <use transform="translate(0 0.36875)" xlink:href="#Gargi-49"/>
       <use transform="translate(36.621094 0.36875)" xlink:href="#Gargi-48"/>
       <use transform="translate(92.435234 37.621875)scale(0.7)" xlink:href="#Gargi-49"/>
      </g>
     </g>
    </g>
    <g id="xtick_4">
     <g id="line2d_4">
      <g>
       <use style="stroke:#000000;" x="560.840785" xlink:href="#m61338f9eee" y="419.616"/>
      </g>
     </g>
     <g id="text_4">
      <!-- $\mathdefault{10^{2}}$ -->
      <defs>
       <path d="M 54.78125 8.796875 
L 54.78125 0 
L 6.84375 0 
Q 6.84375 12.984375 12.703125 19.828125 
Q 17.96875 25.984375 27.046875 31.15625 
L 36.421875 36.421875 
Q 46.1875 42.09375 46.1875 50.6875 
Q 46.1875 58.015625 40.046875 61.921875 
Q 36.53125 64.15625 31.9375 64.15625 
Q 24.3125 64.15625 20.3125 58.40625 
L 19.53125 57.234375 
Q 17.484375 53.90625 17.484375 47.078125 
L 8.5 47.078125 
Q 8.5 57.234375 12.40625 62.703125 
Q 19.046875 71.96875 32.234375 71.96875 
Q 42.28125 71.96875 48.640625 66.3125 
Q 55.28125 60.25 55.28125 50.875 
Q 55.28125 37.5 40.046875 29.109375 
L 29.890625 23.640625 
Q 20.703125 18.265625 18.265625 13.28125 
Q 17.28125 11.234375 16.890625 8.796875 
z
" id="Gargi-50"/>
      </defs>
      <g transform="translate(548.330785 438.441625)scale(0.18 -0.18)">
       <use transform="translate(0 0.36875)" xlink:href="#Gargi-49"/>
       <use transform="translate(36.621094 0.36875)" xlink:href="#Gargi-48"/>
       <use transform="translate(92.435234 37.621875)scale(0.7)" xlink:href="#Gargi-50"/>
      </g>
     </g>
    </g>
    <g id="xtick_5">
     <g id="line2d_5">
      <defs>
       <path d="M 0 0 
L 0 2 
" id="m8d4032cb72" style="stroke:#000000;stroke-width:0.6;"/>
      </defs>
      <g>
       <use style="stroke:#000000;stroke-width:0.6;" x="81" xlink:href="#m8d4032cb72" y="419.616"/>
      </g>
     </g>
    </g>
    <g id="xtick_6">
     <g id="line2d_6">
      <g>
       <use style="stroke:#000000;stroke-width:0.6;" x="92.509859" xlink:href="#m8d4032cb72" y="419.616"/>
      </g>
     </g>
    </g>
    <g id="xtick_7">
     <g id="line2d_7">
      <g>
       <use style="stroke:#000000;stroke-width:0.6;" x="102.241307" xlink:href="#m8d4032cb72" y="419.616"/>
      </g>
     </g>
    </g>
    <g id="xtick_8">
     <g id="line2d_8">
      <g>
       <use style="stroke:#000000;stroke-width:0.6;" x="110.67107" xlink:href="#m8d4032cb72" y="419.616"/>
      </g>
     </g>
    </g>
    <g id="xtick_9">
     <g id="line2d_9">
      <g>
       <use style="stroke:#000000;stroke-width:0.6;" x="118.106648" xlink:href="#m8d4032cb72" y="419.616"/>
      </g>
     </g>
    </g>
    <g id="xtick_10">
     <g id="line2d_10">
      <g>
       <use style="stroke:#000000;stroke-width:0.6;" x="168.515999" xlink:href="#m8d4032cb72" y="419.616"/>
      </g>
     </g>
    </g>
    <g id="xtick_11">
     <g id="line2d_11">
      <g>
       <use style="stroke:#000000;stroke-width:0.6;" x="194.112788" xlink:href="#m8d4032cb72" y="419.616"/>
      </g>
     </g>
    </g>
    <g id="xtick_12">
     <g id="line2d_12">
      <g>
       <use style="stroke:#000000;stroke-width:0.6;" x="212.273999" xlink:href="#m8d4032cb72" y="419.616"/>
      </g>
     </g>
    </g>
    <g id="xtick_13">
     <g id="line2d_13">
      <g>
       <use style="stroke:#000000;stroke-width:0.6;" x="226.360928" xlink:href="#m8d4032cb72" y="419.616"/>
      </g>
     </g>
    </g>
    <g id="xtick_14">
     <g id="line2d_14">
      <g>
       <use style="stroke:#000000;stroke-width:0.6;" x="237.870788" xlink:href="#m8d4032cb72" y="419.616"/>
      </g>
     </g>
    </g>
    <g id="xtick_15">
     <g id="line2d_15">
      <g>
       <use style="stroke:#000000;stroke-width:0.6;" x="247.602235" xlink:href="#m8d4032cb72" y="419.616"/>
      </g>
     </g>
    </g>
    <g id="xtick_16">
     <g id="line2d_16">
      <g>
       <use style="stroke:#000000;stroke-width:0.6;" x="256.031999" xlink:href="#m8d4032cb72" y="419.616"/>
      </g>
     </g>
    </g>
    <g id="xtick_17">
     <g id="line2d_17">
      <g>
       <use style="stroke:#000000;stroke-width:0.6;" x="263.467577" xlink:href="#m8d4032cb72" y="419.616"/>
      </g>
     </g>
    </g>
    <g id="xtick_18">
     <g id="line2d_18">
      <g>
       <use style="stroke:#000000;stroke-width:0.6;" x="313.876928" xlink:href="#m8d4032cb72" y="419.616"/>
      </g>
     </g>
    </g>
    <g id="xtick_19">
     <g id="line2d_19">
      <g>
       <use style="stroke:#000000;stroke-width:0.6;" x="339.473717" xlink:href="#m8d4032cb72" y="419.616"/>
      </g>
     </g>
    </g>
    <g id="xtick_20">
     <g id="line2d_20">
      <g>
       <use style="stroke:#000000;stroke-width:0.6;" x="357.634928" xlink:href="#m8d4032cb72" y="419.616"/>
      </g>
     </g>
    </g>
    <g id="xtick_21">
     <g id="line2d_21">
      <g>
       <use style="stroke:#000000;stroke-width:0.6;" x="371.721857" xlink:href="#m8d4032cb72" y="419.616"/>
      </g>
     </g>
    </g>
    <g id="xtick_22">
     <g id="line2d_22">
      <g>
       <use style="stroke:#000000;stroke-width:0.6;" x="383.231716" xlink:href="#m8d4032cb72" y="419.616"/>
      </g>
     </g>
    </g>
    <g id="xtick_23">
     <g id="line2d_23">
      <g>
       <use style="stroke:#000000;stroke-width:0.6;" x="392.963164" xlink:href="#m8d4032cb72" y="419.616"/>
      </g>
     </g>
    </g>
    <g id="xtick_24">
     <g id="line2d_24">
      <g>
       <use style="stroke:#000000;stroke-width:0.6;" x="401.392927" xlink:href="#m8d4032cb72" y="419.616"/>
      </g>
     </g>
    </g>
    <g id="xtick_25">
     <g id="line2d_25">
      <g>
       <use style="stroke:#000000;stroke-width:0.6;" x="408.828505" xlink:href="#m8d4032cb72" y="419.616"/>
      </g>
     </g>
    </g>
    <g id="xtick_26">
     <g id="line2d_26">
      <g>
       <use style="stroke:#000000;stroke-width:0.6;" x="459.237856" xlink:href="#m8d4032cb72" y="419.616"/>
      </g>
     </g>
    </g>
    <g id="xtick_27">
     <g id="line2d_27">
      <g>
       <use style="stroke:#000000;stroke-width:0.6;" x="484.834645" xlink:href="#m8d4032cb72" y="419.616"/>
      </g>
     </g>
    </g>
    <g id="xtick_28">
     <g id="line2d_28">
      <g>
       <use style="stroke:#000000;stroke-width:0.6;" x="502.995856" xlink:href="#m8d4032cb72" y="419.616"/>
      </g>
     </g>
    </g>
    <g id="xtick_29">
     <g id="line2d_29">
      <g>
       <use style="stroke:#000000;stroke-width:0.6;" x="517.082785" xlink:href="#m8d4032cb72" y="419.616"/>
      </g>
     </g>
    </g>
    <g id="xtick_30">
     <g id="line2d_30">
      <g>
       <use style="stroke:#000000;stroke-width:0.6;" x="528.592645" xlink:href="#m8d4032cb72" y="419.616"/>
      </g>
     </g>
    </g>
    <g id="xtick_31">
     <g id="line2d_31">
      <g>
       <use style="stroke:#000000;stroke-width:0.6;" x="538.324092" xlink:href="#m8d4032cb72" y="419.616"/>
      </g>
     </g>
    </g>
    <g id="xtick_32">
     <g id="line2d_32">
      <g>
       <use style="stroke:#000000;stroke-width:0.6;" x="546.753856" xlink:href="#m8d4032cb72" y="419.616"/>
      </g>
     </g>
    </g>
    <g id="xtick_33">
     <g id="line2d_33">
      <g>
       <use style="stroke:#000000;stroke-width:0.6;" x="554.189434" xlink:href="#m8d4032cb72" y="419.616"/>
      </g>
     </g>
    </g>
    <g id="xtick_34">
     <g id="line2d_34">
      <g>
       <use style="stroke:#000000;stroke-width:0.6;" x="604.598785" xlink:href="#m8d4032cb72" y="419.616"/>
      </g>
     </g>
    </g>
    <g id="text_5">
     <!-- Noscapine (uM) -->
     <defs>
      <path d="M 62.796875 74.03125 
L 62.796875 0 
L 52.15625 0 
L 13.875 60.0625 
L 13.875 0 
L 4.890625 0 
L 4.890625 74.03125 
L 15.140625 74.03125 
L 53.8125 13.484375 
L 53.8125 74.03125 
z
" id="Gargi-78"/>
      <path d="M 27.046875 49.21875 
Q 17.578125 49.21875 13.765625 39.9375 
Q 11.8125 35.0625 11.8125 28.515625 
Q 11.8125 14.65625 19.734375 9.765625 
Q 22.859375 7.8125 27.046875 7.8125 
Q 36.234375 7.8125 40.140625 16.796875 
Q 42.28125 21.578125 42.28125 28.21875 
Q 42.28125 42.96875 33.984375 47.65625 
Q 30.859375 49.21875 27.046875 49.21875 
z
M 26.953125 57.125 
Q 42.28125 57.125 48.140625 43.953125 
Q 51.078125 37.3125 51.078125 28.125 
Q 51.078125 11.140625 40.71875 4 
Q 35.0625 0 27.046875 0 
Q 12.40625 0 6.34375 12.109375 
Q 2.9375 18.953125 2.9375 28.515625 
Q 2.9375 46.1875 13.671875 53.328125 
Q 19.234375 57.125 26.953125 57.125 
z
" id="Gargi-111"/>
      <path d="M 44.046875 40.53125 
L 35.0625 40.53125 
Q 34.765625 49.03125 24.421875 49.03125 
Q 16.109375 49.03125 13.765625 44.140625 
Q 13.09375 42.671875 13.09375 41.015625 
Q 13.09375 36.53125 19.828125 34.28125 
Q 21.296875 33.796875 22.953125 33.40625 
L 31.0625 31.546875 
Q 43.0625 28.609375 45.40625 21.578125 
Q 46.09375 19.4375 46.09375 16.703125 
Q 46.09375 7.03125 37.203125 2.546875 
Q 31.84375 -0.203125 24.21875 -0.203125 
Q 4.5 -0.203125 3.03125 16.3125 
Q 2.9375 17.09375 2.9375 17.96875 
L 11.921875 17.96875 
Q 12.5 13.1875 14.359375 11.234375 
Q 17.671875 7.625 24.90625 7.625 
Q 33.40625 7.625 36.234375 12.40625 
Q 37.3125 14.0625 37.3125 15.921875 
Q 37.3125 20.609375 31.84375 22.5625 
Q 30.5625 22.953125 29.109375 23.34375 
L 21.1875 25.296875 
Q 9.078125 28.328125 5.953125 33.40625 
Q 4.296875 36.234375 4.296875 40.625 
Q 4.296875 50.09375 12.796875 54.390625 
Q 17.78125 56.9375 24.703125 56.9375 
Q 39.453125 56.9375 42.96875 46.6875 
Q 44.046875 43.84375 44.046875 40.53125 
z
" id="Gargi-115"/>
      <path d="M 47.65625 37.796875 
L 39.0625 37.796875 
Q 37.796875 47.65625 29.296875 49.125 
Q 27.9375 49.3125 26.5625 49.3125 
Q 17 49.3125 13.375 39.15625 
Q 11.8125 34.578125 11.8125 28.125 
Q 11.8125 14.265625 19.828125 9.671875 
Q 22.75 7.90625 26.765625 7.90625 
Q 37.59375 7.90625 39.75 20.703125 
L 48.25 20.703125 
Q 48.25 6.84375 36.53125 2.15625 
Q 32.234375 0.09375 26.5625 0.09375 
Q 13.375 0.09375 7.125 10.75 
Q 2.9375 17.875 2.9375 28.125 
Q 2.9375 44.4375 12.3125 52.25 
Q 18.265625 57.234375 26.65625 57.234375 
Q 37.40625 57.234375 43.265625 50.296875 
L 44.046875 49.21875 
Q 47.078125 44.921875 47.65625 37.796875 
z
" id="Gargi-99"/>
      <path d="M 38.1875 19.140625 
L 38.1875 28.609375 
Q 34.859375 27.15625 26.5625 25.984375 
Q 25.6875 25.875 24.515625 25.6875 
Q 13.765625 24.21875 12.109375 18.65625 
Q 11.71875 17.484375 11.71875 15.921875 
Q 11.71875 9.375 18.5625 7.8125 
Q 20.125 7.421875 22.171875 7.421875 
Q 29.203125 7.421875 34.765625 12.203125 
Q 38.1875 15.140625 38.1875 19.140625 
z
M 52.9375 7.328125 
L 52.9375 0.875 
Q 49.421875 0 47.171875 0 
Q 39.9375 0 38.671875 6.453125 
L 38.484375 7.8125 
Q 29.59375 0 20.40625 0 
Q 9.1875 0 4.78125 7.625 
Q 2.9375 11.140625 2.9375 15.71875 
Q 2.9375 26.078125 12.203125 29.984375 
Q 15.921875 31.453125 25.484375 32.71875 
L 29.296875 33.203125 
Q 36.71875 34.1875 37.796875 37.109375 
Q 38.1875 37.890625 38.1875 39.0625 
L 38.1875 41.3125 
Q 38.1875 47.859375 29.890625 49.03125 
Q 28.21875 49.21875 26.265625 49.21875 
Q 15.828125 49.21875 14.0625 41.609375 
Q 13.875 40.71875 13.765625 39.84375 
L 5.28125 39.84375 
Q 5.5625 47.171875 8.890625 50.875 
Q 14.453125 57.125 26.5625 57.125 
Q 44.4375 57.125 46.390625 45.3125 
Q 46.578125 43.953125 46.578125 42.578125 
L 46.578125 11.328125 
Q 46.578125 7.125 51.171875 7.125 
Q 52.046875 7.125 52.9375 7.328125 
z
" id="Gargi-97"/>
      <path d="M 28.21875 48.921875 
Q 19.828125 48.921875 15.828125 40.4375 
Q 13.484375 35.359375 13.484375 28.328125 
Q 13.484375 15.625 20.40625 10.359375 
Q 23.828125 7.71875 28.21875 7.71875 
Q 36.8125 7.71875 41.015625 15.921875 
Q 43.65625 21 43.65625 28.03125 
Q 43.65625 40.921875 36.53125 46.296875 
Q 32.90625 48.921875 28.21875 48.921875 
z
M 4.890625 -20.015625 
L 4.890625 55.375 
L 12.703125 55.375 
L 12.703125 47.359375 
Q 18.75 56.9375 29.6875 56.9375 
Q 42.578125 56.9375 48.640625 45.609375 
Q 52.546875 38.375 52.546875 27.828125 
Q 52.546875 12.203125 43.453125 4.59375 
Q 37.796875 -0.203125 29.78125 -0.203125 
Q 19.921875 -0.203125 13.484375 7.71875 
L 13.484375 -20.015625 
z
" id="Gargi-112"/>
      <path d="M 15.328125 74.03125 
L 15.328125 63.375 
L 6.84375 63.375 
L 6.84375 74.03125 
z
M 15.328125 53.21875 
L 15.328125 0 
L 6.9375 0 
L 6.9375 53.21875 
z
" id="Gargi-105"/>
      <path d="M 4.890625 53.21875 
L 12.703125 53.21875 
L 12.703125 44.234375 
Q 18.171875 52.9375 25.875 54.296875 
Q 27.9375 54.78125 30.375 54.78125 
Q 41.015625 54.78125 45.3125 47.65625 
Q 47.171875 44.34375 47.171875 40.234375 
L 47.171875 0 
L 38.765625 0 
L 38.765625 36.921875 
Q 38.765625 43.953125 32.8125 46.390625 
Q 30.5625 47.359375 27.828125 47.359375 
Q 19.234375 47.359375 15.53125 39.546875 
Q 13.375 35.25 13.375 29.390625 
L 13.375 0 
L 4.890625 0 
z
" id="Gargi-110"/>
      <path d="M 11.921875 32.90625 
L 41.796875 32.90625 
Q 41.890625 33.109375 41.890625 33.5 
Q 41.890625 41.703125 35.9375 46.1875 
Q 32.03125 49.125 27.15625 49.125 
Q 18.5625 49.125 14.359375 41.5 
Q 12.3125 37.890625 11.921875 32.90625 
z
M 50.984375 25.984375 
L 11.71875 25.984375 
Q 11.8125 18.65625 14.546875 14.65625 
Q 18.953125 7.71875 27.34375 7.71875 
Q 37.703125 7.71875 41.3125 18.359375 
L 49.8125 18.359375 
Q 47.5625 6.15625 37.015625 1.765625 
Q 32.515625 -0.09375 27.046875 -0.09375 
Q 13.28125 -0.09375 6.84375 11.03125 
Q 2.9375 17.96875 2.9375 28.125 
Q 2.9375 44.234375 12.40625 52.046875 
Q 18.5625 57.03125 27.25 57.03125 
Q 38.96875 57.03125 45.515625 48.640625 
Q 47.5625 46.09375 48.828125 42.96875 
Q 50.984375 37.40625 50.984375 25.984375 
z
" id="Gargi-101"/>
      <path id="Gargi-32"/>
      <path d="M 23.921875 74.03125 
L 29.59375 74.03125 
Q 15.71875 55.375 15.71875 30.46875 
Q 15.71875 28.328125 15.625 26.265625 
Q 15.53125 24.90625 15.53125 23.53125 
Q 15.53125 4.59375 28.03125 -18.953125 
Q 28.8125 -20.515625 29.59375 -21.484375 
L 23.921875 -21.484375 
Q 12.5 -6.546875 8.6875 12.984375 
Q 7.421875 19.921875 7.421875 26.265625 
Q 7.421875 44.53125 16.890625 62.703125 
Q 20.015625 68.84375 23.921875 74.03125 
z
" id="Gargi-40"/>
      <path d="M 47.171875 2.25 
L 39.546875 2.25 
L 39.546875 9.671875 
Q 33.890625 1.65625 26.375 0.296875 
Q 24.3125 -0.09375 21.78125 -0.09375 
Q 10.9375 -0.09375 6.734375 7.03125 
Q 4.890625 10.25 4.890625 14.453125 
L 4.890625 55.46875 
L 13.28125 55.46875 
L 13.28125 17.78125 
Q 13.28125 10.640625 19.234375 8.203125 
Q 21.484375 7.328125 24.21875 7.328125 
Q 32.90625 7.328125 36.71875 15.234375 
Q 38.765625 19.53125 38.765625 25.296875 
L 38.765625 55.46875 
L 47.171875 55.46875 
z
" id="Gargi-117"/>
      <path d="M 44.828125 0 
L 34.859375 0 
L 13.875 62.015625 
L 13.875 0 
L 4.890625 0 
L 4.890625 74.03125 
L 17.96875 74.03125 
L 39.9375 9.578125 
L 61.421875 74.03125 
L 74.515625 74.03125 
L 74.515625 0 
L 65.625 0 
L 65.625 62.015625 
z
" id="Gargi-77"/>
      <path d="M 9.46875 -21.484375 
L 3.90625 -21.484375 
Q 17.78125 -1.078125 17.78125 22.078125 
Q 17.78125 23.140625 17.78125 24.125 
Q 17.78125 25.203125 17.78125 26.171875 
Q 17.78125 48.046875 5.375 71.484375 
Q 4.5 73.140625 3.90625 74.03125 
L 9.46875 74.03125 
Q 20.90625 58.984375 24.703125 39.546875 
Q 25.984375 32.625 25.984375 26.171875 
Q 25.984375 8.015625 16.609375 -10.15625 
Q 13.375 -16.3125 9.46875 -21.484375 
z
" id="Gargi-41"/>
     </defs>
     <g transform="translate(276.95067 460.850687)scale(0.2 -0.2)">
      <use xlink:href="#Gargi-78"/>
      <use x="67.675781" xlink:href="#Gargi-111"/>
      <use x="121.679688" xlink:href="#Gargi-115"/>
      <use x="170.703125" xlink:href="#Gargi-99"/>
      <use x="221.875" xlink:href="#Gargi-97"/>
      <use x="279.6875" xlink:href="#Gargi-112"/>
      <use x="337.109375" xlink:href="#Gargi-105"/>
      <use x="359.277344" xlink:href="#Gargi-110"/>
      <use x="411.328125" xlink:href="#Gargi-101"/>
      <use x="467.1875" xlink:href="#Gargi-32"/>
      <use x="491.601562" xlink:href="#Gargi-40"/>
      <use x="544.53125" xlink:href="#Gargi-117"/>
      <use x="596.582031" xlink:href="#Gargi-77"/>
      <use x="675.976562" xlink:href="#Gargi-41"/>
     </g>
    </g>
   </g>
   <g id="matplotlib.axis_2">
    <g id="ytick_1">
     <g id="line2d_35">
      <defs>
       <path d="M 0 0 
L -2 0 
" id="m18b450e10e" style="stroke:#000000;"/>
      </defs>
      <g>
       <use style="stroke:#000000;" x="81" xlink:href="#m18b450e10e" y="419.616"/>
      </g>
     </g>
     <g id="text_6">
      <!-- 0 -->
      <g transform="translate(65.619687 426.278812)scale(0.18 -0.18)">
       <use xlink:href="#Gargi-48"/>
      </g>
     </g>
    </g>
    <g id="ytick_2">
     <g id="line2d_36">
      <g>
       <use style="stroke:#000000;" x="81" xlink:href="#m18b450e10e" y="363.6672"/>
      </g>
     </g>
     <g id="text_7">
      <!-- 1 -->
      <g transform="translate(68.9075 370.330012)scale(0.18 -0.18)">
       <use xlink:href="#Gargi-49"/>
      </g>
     </g>
    </g>
    <g id="ytick_3">
     <g id="line2d_37">
      <g>
       <use style="stroke:#000000;" x="81" xlink:href="#m18b450e10e" y="307.7184"/>
      </g>
     </g>
     <g id="text_8">
      <!-- 2 -->
      <g transform="translate(64.320312 314.381212)scale(0.18 -0.18)">
       <use xlink:href="#Gargi-50"/>
      </g>
     </g>
    </g>
    <g id="ytick_4">
     <g id="line2d_38">
      <g>
       <use style="stroke:#000000;" x="81" xlink:href="#m18b450e10e" y="251.7696"/>
      </g>
     </g>
     <g id="text_9">
      <!-- 3 -->
      <defs>
       <path d="M 26.078125 35.25 
L 26.078125 42.78125 
Q 34.578125 42.78125 37.984375 44.34375 
Q 43.75 46.96875 43.75 54 
Q 43.75 62.703125 36.625 65.4375 
Q 34.1875 66.3125 31.0625 66.3125 
Q 23.046875 66.3125 19.4375 60.84375 
Q 19.140625 60.359375 18.953125 59.96875 
Q 17.28125 57.03125 17.28125 50.875 
L 8.40625 50.875 
Q 8.40625 74.03125 27.640625 74.03125 
Q 28.71875 74.03125 30.953125 74.125 
Q 31.734375 74.125 32.421875 74.125 
Q 44.734375 74.125 50.390625 64.65625 
Q 52.828125 60.453125 52.828125 54.390625 
Q 52.828125 43.359375 42.78125 39.453125 
Q 52.25 36.140625 54.296875 28.421875 
Q 54.984375 25.78125 54.984375 22.265625 
Q 54.984375 9.859375 45.40625 3.71875 
Q 39.265625 -0.203125 30.671875 -0.203125 
Q 15.625 -0.203125 10.0625 10.25 
Q 6.84375 15.140625 6.84375 23.046875 
L 15.828125 23.046875 
Q 15.828125 9.671875 27.25 8.015625 
Q 29.296875 7.71875 30.953125 7.71875 
Q 41.5 7.71875 44.734375 15.71875 
Q 45.90625 18.5625 45.90625 22.171875 
Q 45.90625 35.25 30.953125 35.25 
L 27.15625 35.25 
z
" id="Gargi-51"/>
      </defs>
      <g transform="translate(64.725313 258.432412)scale(0.18 -0.18)">
       <use xlink:href="#Gargi-51"/>
      </g>
     </g>
    </g>
    <g id="ytick_5">
     <g id="line2d_39">
      <g>
       <use style="stroke:#000000;" x="81" xlink:href="#m18b450e10e" y="195.8208"/>
      </g>
     </g>
     <g id="text_10">
      <!-- 4 -->
      <defs>
       <path d="M 37.203125 25.296875 
L 37.203125 56.734375 
L 14.65625 25.296875 
z
M 37.203125 17.28125 
L 6.84375 17.28125 
L 6.84375 26.765625 
L 39.546875 71.96875 
L 46.1875 71.96875 
L 46.1875 25.296875 
L 56.84375 25.296875 
L 56.84375 17.28125 
L 46.1875 17.28125 
L 46.1875 0 
L 37.203125 0 
z
" id="Gargi-52"/>
      </defs>
      <g transform="translate(64.039062 202.483612)scale(0.18 -0.18)">
       <use xlink:href="#Gargi-52"/>
      </g>
     </g>
    </g>
    <g id="ytick_6">
     <g id="line2d_40">
      <g>
       <use style="stroke:#000000;" x="81" xlink:href="#m18b450e10e" y="139.872"/>
      </g>
     </g>
     <g id="text_11">
      <!-- 5 -->
      <defs>
       <path d="M 51.65625 74.21875 
L 51.65625 65.4375 
L 21.6875 65.4375 
L 18.84375 45.3125 
Q 24.8125 49.703125 32.125 49.703125 
Q 44.34375 49.703125 50.875 40.828125 
Q 55.46875 34.671875 55.46875 25.6875 
Q 55.46875 12.59375 46.578125 5.28125 
Q 40.046875 -0.09375 30.765625 -0.09375 
Q 19.34375 -0.09375 12.796875 6.734375 
Q 11.921875 7.625 11.234375 8.5 
Q 8.5 11.921875 6.84375 19.921875 
L 15.828125 19.921875 
Q 18.953125 7.8125 30.5625 7.8125 
Q 40.828125 7.8125 44.625 16.015625 
Q 46.296875 19.734375 46.296875 24.515625 
Q 46.296875 35.546875 38.578125 39.84375 
Q 35.15625 41.796875 30.5625 41.796875 
Q 24.03125 41.796875 19.4375 37.40625 
L 17.390625 35.0625 
L 9.078125 35.0625 
L 14.453125 74.21875 
z
" id="Gargi-53"/>
      </defs>
      <g transform="translate(64.28375 146.534813)scale(0.18 -0.18)">
       <use xlink:href="#Gargi-53"/>
      </g>
     </g>
    </g>
    <g id="ytick_7">
     <g id="line2d_41">
      <g>
       <use style="stroke:#000000;" x="81" xlink:href="#m18b450e10e" y="83.9232"/>
      </g>
     </g>
     <g id="text_12">
      <!-- 6 -->
      <defs>
       <path d="M 29.390625 39.15625 
Q 20.796875 39.15625 16.703125 32.421875 
Q 14.546875 28.71875 14.546875 24.03125 
Q 14.546875 15.234375 20.703125 10.546875 
Q 24.3125 7.8125 29.109375 7.8125 
Q 36.8125 7.8125 40.921875 14.265625 
Q 43.453125 18.265625 43.453125 23.4375 
Q 43.453125 33.796875 36.234375 37.59375 
Q 33.296875 39.15625 29.390625 39.15625 
z
M 51.078125 55.46875 
L 42.09375 55.46875 
Q 40.328125 64.359375 32.90625 66.015625 
Q 31.546875 66.3125 30.078125 66.3125 
Q 18.75 66.3125 15.328125 51.65625 
Q 13.96875 46.1875 13.96875 38.96875 
Q 19.921875 47.078125 30.5625 47.078125 
Q 41.796875 47.078125 48.140625 38.578125 
Q 52.640625 32.625 52.640625 24.21875 
Q 52.640625 12.109375 44.234375 5.171875 
Q 37.984375 -0.09375 29 -0.09375 
Q 17.09375 -0.09375 10.9375 8.890625 
Q 4.890625 17.78125 4.890625 33.890625 
L 4.890625 35.0625 
Q 4.890625 53.8125 11.328125 63.96875 
Q 17.09375 72.5625 27.25 74.03125 
Q 28.90625 74.21875 30.671875 74.21875 
Q 42.28125 74.21875 47.953125 64.84375 
Q 50.296875 60.84375 51.078125 55.46875 
z
" id="Gargi-54"/>
      </defs>
      <g transform="translate(65.147188 90.586013)scale(0.18 -0.18)">
       <use xlink:href="#Gargi-54"/>
      </g>
     </g>
    </g>
    <g id="ytick_8">
     <g id="line2d_42">
      <g>
       <use style="stroke:#000000;" x="81" xlink:href="#m18b450e10e" y="27.9744"/>
      </g>
     </g>
     <g id="text_13">
      <!-- 7 -->
      <defs>
       <path d="M 54.984375 71.96875 
L 54.984375 64.453125 
Q 34.46875 37.3125 27.734375 9.765625 
Q 26.5625 4.984375 25.6875 0 
L 16.21875 0 
Q 21.296875 22.171875 30.671875 39.546875 
Q 36.234375 49.8125 45.703125 63.1875 
L 6.84375 63.1875 
L 6.84375 71.96875 
z
" id="Gargi-55"/>
      </defs>
      <g transform="translate(64.725313 34.637213)scale(0.18 -0.18)">
       <use xlink:href="#Gargi-55"/>
      </g>
     </g>
    </g>
    <g id="text_14">
     <!-- Fluorescence (RFU/OD600) -->
     <defs>
      <path d="M 14.265625 33.6875 
L 14.265625 0 
L 4.890625 0 
L 4.890625 74.03125 
L 54.5 74.03125 
L 54.5 65.71875 
L 14.265625 65.71875 
L 14.265625 42.09375 
L 49.609375 42.09375 
L 49.609375 33.6875 
z
" id="Gargi-70"/>
      <path d="M 15.328125 74.03125 
L 15.328125 0 
L 6.84375 0 
L 6.84375 74.03125 
z
" id="Gargi-108"/>
      <path d="M 4.890625 53.21875 
L 12.703125 53.21875 
L 12.703125 43.5625 
Q 18.5625 53.03125 24.421875 54.390625 
Q 25.78125 54.78125 27.25 54.78125 
Q 28.328125 54.78125 30.46875 54.390625 
L 30.46875 45.796875 
Q 23.140625 45.703125 20.015625 43.5625 
L 19.34375 43.171875 
Q 13.375 38.765625 13.375 27.640625 
L 13.375 0 
L 4.890625 0 
z
" id="Gargi-114"/>
      <path d="M 14.265625 40.234375 
L 37.109375 40.234375 
Q 49.421875 40.234375 51.265625 48.921875 
Q 51.65625 50.6875 51.65625 52.9375 
Q 51.65625 59.578125 47.859375 62.890625 
Q 44.53125 65.71875 37.109375 65.71875 
L 14.265625 65.71875 
z
M 14.265625 31.9375 
L 14.265625 0 
L 4.890625 0 
L 4.890625 74.03125 
L 38.96875 74.03125 
Q 56.25 74.03125 60.453125 61.8125 
Q 61.53125 58.5 61.53125 54.203125 
Q 61.53125 44.234375 54.203125 39.0625 
Q 52.25 37.796875 49.8125 36.53125 
Q 56.15625 33.796875 58.109375 29.78125 
Q 59.859375 25.984375 59.859375 17.28125 
Q 59.859375 7.515625 61.8125 4.78125 
Q 62.796875 3.421875 64.359375 2.34375 
L 64.359375 0 
L 52.9375 0 
Q 50.875 4.890625 50.875 12.109375 
L 50.875 18.65625 
Q 50.875 29.78125 42.78125 31.453125 
Q 40.921875 31.9375 38.671875 31.9375 
z
" id="Gargi-82"/>
      <path d="M 52.34375 75 
L 61.8125 75 
L 61.8125 24.125 
Q 61.8125 11.140625 51.265625 4.6875 
Q 43.953125 0.203125 33.296875 0.203125 
Q 16.5 0.203125 9.078125 10.25 
Q 4.890625 15.921875 4.890625 24.125 
L 4.890625 75 
L 14.359375 75 
L 14.359375 24.125 
Q 14.359375 16.3125 19.734375 12.109375 
Q 25.09375 8.296875 33.296875 8.296875 
Q 45.90625 8.296875 50.390625 16.3125 
Q 52.34375 19.828125 52.34375 24.125 
z
" id="Gargi-85"/>
      <path d="M 23.25 74.03125 
L 28.8125 74.03125 
L 4.78125 -2.046875 
L -0.78125 -2.046875 
z
" id="Gargi-47"/>
      <path d="M 38.578125 68.171875 
Q 25.203125 68.171875 17.96875 58.015625 
Q 12.3125 50.09375 12.3125 38.28125 
Q 12.3125 22.65625 21.96875 14.359375 
Q 28.90625 8.40625 38.375 8.40625 
Q 38.484375 8.40625 38.671875 8.40625 
Q 51.65625 8.40625 59.078125 18.359375 
Q 64.9375 26.265625 64.9375 37.890625 
Q 64.9375 54.390625 54.984375 62.59375 
Q 48.25 68.171875 38.578125 68.171875 
z
M 38.578125 76.375 
Q 56.25 76.375 66.015625 64.15625 
Q 74.421875 53.71875 74.421875 37.703125 
Q 74.421875 22.953125 66.015625 12.5 
Q 63.96875 9.859375 61.625 7.90625 
Q 52.34375 0.296875 38.671875 0.296875 
Q 21.78125 0.296875 11.71875 12.015625 
Q 2.9375 22.265625 2.9375 38.28125 
Q 2.9375 56.734375 14.15625 67.28125 
Q 23.828125 76.375 38.578125 76.375 
z
" id="Gargi-79"/>
      <path d="M 14.265625 8.296875 
L 31.734375 8.296875 
Q 49.421875 8.296875 53.21875 26.765625 
Q 54.109375 31.25 54.109375 37.015625 
Q 54.109375 61.921875 37.015625 65.234375 
Q 34.46875 65.71875 31.734375 65.71875 
L 14.265625 65.71875 
z
M 4.890625 0 
L 4.890625 74.03125 
L 33.40625 74.03125 
Q 49.90625 74.03125 57.90625 60.640625 
Q 63.578125 51.265625 63.578125 37.109375 
Q 63.578125 15.921875 51.765625 6.15625 
Q 44.34375 0 33.40625 0 
z
" id="Gargi-68"/>
     </defs>
     <g transform="translate(55.742187 338.367375)rotate(-90)scale(0.2 -0.2)">
      <use xlink:href="#Gargi-70"/>
      <use x="59.375" xlink:href="#Gargi-108"/>
      <use x="81.542969" xlink:href="#Gargi-117"/>
      <use x="133.59375" xlink:href="#Gargi-111"/>
      <use x="187.597656" xlink:href="#Gargi-114"/>
      <use x="222.949219" xlink:href="#Gargi-101"/>
      <use x="278.808594" xlink:href="#Gargi-115"/>
      <use x="327.832031" xlink:href="#Gargi-99"/>
      <use x="379.003906" xlink:href="#Gargi-101"/>
      <use x="434.863281" xlink:href="#Gargi-110"/>
      <use x="486.914062" xlink:href="#Gargi-99"/>
      <use x="538.085938" xlink:href="#Gargi-101"/>
      <use x="593.945312" xlink:href="#Gargi-32"/>
      <use x="618.359375" xlink:href="#Gargi-40"/>
      <use x="671.289062" xlink:href="#Gargi-82"/>
      <use x="740.527344" xlink:href="#Gargi-70"/>
      <use x="799.902344" xlink:href="#Gargi-85"/>
      <use x="866.601562" xlink:href="#Gargi-47"/>
      <use x="919.53125" xlink:href="#Gargi-79"/>
      <use x="996.875" xlink:href="#Gargi-68"/>
      <use x="1065.332031" xlink:href="#Gargi-54"/>
      <use x="1122.851562" xlink:href="#Gargi-48"/>
      <use x="1177.734375" xlink:href="#Gargi-48"/>
      <use x="1232.617188" xlink:href="#Gargi-41"/>
     </g>
    </g>
   </g>
   <g id="line2d_43">
    <path clip-path="url(#pc3dfd3a510)" d="M 79.725246 409.442732 
L 375.98194 407.857036 
L 560.840785 406.74539 
L 560.840785 406.74539 
" style="fill:none;stroke:#0099ff;stroke-linecap:square;stroke-width:1.5;"/>
   </g>
   <g id="line2d_44">
    <path clip-path="url(#pc3dfd3a510)" d="M 79.725246 419.590036 
L 211.958191 419.427095 
L 273.199656 419.142407 
L 314.19242 418.73983 
L 345.165174 418.221357 
L 370.111238 417.588051 
L 391.022325 416.840434 
L 409.032227 415.979055 
L 424.861045 415.003823 
L 438.989314 413.914471 
L 451.746857 412.711337 
L 463.382764 411.393894 
L 474.083451 409.96154 
L 483.994287 408.413246 
L 493.226888 406.748298 
L 501.872302 404.965583 
L 510.006969 403.063255 
L 517.692822 401.039464 
L 524.98304 398.891658 
L 531.921394 396.617296 
L 538.54619 394.213162 
L 544.890973 391.67538 
L 550.984427 388.999771 
L 556.852597 386.181182 
L 560.840785 384.118892 
L 560.840785 384.118892 
" style="fill:none;stroke:#3372cc;stroke-linecap:square;stroke-width:1.5;"/>
   </g>
   <g id="line2d_45">
    <path clip-path="url(#pc3dfd3a510)" d="M 79.725246 419.615898 
L 303.803231 419.504141 
L 340.455709 419.265046 
L 363.061428 418.906643 
L 379.594254 418.431012 
L 392.710771 417.838378 
L 403.633883 417.12813 
L 413.028238 416.299438 
L 421.307694 415.349986 
L 428.733678 414.278182 
L 435.497003 413.080473 
L 441.734598 411.752686 
L 447.551618 410.289181 
L 453.02402 408.684937 
L 458.223456 406.930342 
L 463.199231 405.017615 
L 468.001168 402.934206 
L 472.670536 400.666233 
L 477.246424 398.196275 
L 481.763071 395.50508 
L 486.258465 392.566791 
L 490.773673 389.348371 
L 495.351842 385.809896 
L 500.050084 381.894687 
L 504.942146 377.524713 
L 510.142409 372.576163 
L 515.854395 366.826198 
L 522.54114 359.766509 
L 532.295578 349.104685 
L 544.620559 335.694393 
L 551.289212 328.776825 
L 556.978895 323.188583 
L 560.840785 319.593545 
L 560.840785 319.593545 
" style="fill:none;stroke:#674c9a;stroke-linecap:square;stroke-width:1.5;"/>
   </g>
   <g id="line2d_46">
    <path clip-path="url(#pc3dfd3a510)" d="M 79.725246 419.573097 
L 142.76182 419.389366 
L 175.104821 419.083977 
L 197.193516 418.663721 
L 214.140661 418.128448 
L 227.98195 417.476058 
L 239.73745 416.703607 
L 249.905178 415.81643 
L 258.88686 414.813569 
L 266.947859 413.693965 
L 274.272703 412.45658 
L 281.048064 411.088833 
L 287.31063 409.600263 
L 293.183103 407.977427 
L 298.716229 406.218251 
L 303.951162 404.321121 
L 308.921757 402.284912 
L 313.687886 400.093634 
L 318.266701 397.745644 
L 322.700654 395.223626 
L 327.02319 392.509156 
L 331.236687 389.600355 
L 335.366389 386.478832 
L 339.432248 383.12597 
L 343.449912 379.523338 
L 347.431506 375.653143 
L 351.403674 371.479719 
L 355.370078 366.987441 
L 359.348177 362.143858 
L 363.364832 356.899829 
L 367.425599 351.229626 
L 371.558138 345.074422 
L 375.792824 338.364281 
L 380.160142 331.022387 
L 384.698727 322.952154 
L 389.478372 313.992198 
L 394.584186 303.939048 
L 400.174513 292.42907 
L 406.587281 278.698673 
L 414.858768 260.425166 
L 434.514712 216.804786 
L 441.018329 203.043152 
L 446.656475 191.62191 
L 451.796596 181.702625 
L 456.608788 172.89179 
L 461.187207 164.966265 
L 465.593065 157.778129 
L 469.86896 151.22219 
L 474.051008 145.212742 
L 478.16054 139.692706 
L 482.223125 134.60467 
L 486.25435 129.909186 
L 490.273696 125.566248 
L 494.297399 121.543826 
L 498.340426 117.814717 
L 502.419379 114.353566 
L 506.54978 111.139261 
L 510.749718 108.151797 
L 515.038071 105.373884 
L 519.43423 102.790935 
L 523.960997 100.389315 
L 528.64376 98.15717 
L 533.51021 96.084625 
L 538.592904 94.162798 
L 543.929509 92.38411 
L 549.564202 90.742149 
L 555.550814 89.231242 
L 560.840785 88.071804 
L 560.840785 88.071804 
" style="fill:none;stroke:#9a2667;stroke-linecap:square;stroke-width:1.5;"/>
   </g>
   <g id="line2d_47">
    <path clip-path="url(#pc3dfd3a510)" d="M 79.725246 419.550203 
L 129.617139 419.344022 
L 157.132904 419.021446 
L 176.788373 418.577124 
L 191.973233 418.018104 
L 204.383671 417.345566 
L 214.902184 416.56002 
L 224.177821 415.647046 
L 232.378439 414.61827 
L 239.73745 413.473795 
L 246.419439 412.213758 
L 252.628163 410.818048 
L 258.356676 409.304697 
L 263.748162 407.651375 
L 268.844174 405.855142 
L 273.619122 403.939013 
L 278.224952 401.851203 
L 282.621138 399.614508 
L 286.876417 397.199051 
L 290.999092 394.601292 
L 294.996796 391.818589 
L 298.916577 388.817182 
L 302.757894 385.593603 
L 306.520844 382.1458 
L 310.272893 378.403775 
L 313.972182 374.399548 
L 317.675043 370.061912 
L 321.369227 365.390673 
L 325.09741 360.314491 
L 328.842171 354.837821 
L 332.659115 348.856293 
L 336.545581 342.345335 
L 340.517834 335.250256 
L 344.60505 327.488967 
L 348.862159 318.92002 
L 353.325153 309.428678 
L 358.091596 298.75858 
L 363.292725 286.555726 
L 369.198004 272.114116 
L 376.604373 253.376947 
L 398.064003 198.716031 
L 403.968103 184.51114 
L 409.164932 172.57432 
L 413.933966 162.166277 
L 418.416123 152.908914 
L 422.691206 144.581677 
L 426.811227 137.036511 
L 430.812595 130.166347 
L 434.729153 123.878624 
L 438.579069 118.114148 
L 442.381022 112.817819 
L 446.153634 107.940105 
L 449.911349 103.441898 
L 453.672005 99.284523 
L 457.445644 95.442019 
L 461.248388 91.885242 
L 465.097346 88.588282 
L 469.0069 85.531224 
L 472.993749 82.695357 
L 477.075328 80.064551 
L 481.275154 77.622102 
L 485.613268 75.356749 
L 490.117122 73.256289 
L 494.816942 71.310742 
L 499.74674 69.511913 
L 504.948267 67.852247 
L 510.469932 66.325789 
L 516.371101 64.927394 
L 522.726152 63.652617 
L 529.627447 62.498091 
L 537.197325 61.460679 
L 545.595751 60.53819 
L 555.045608 59.728585 
L 560.840785 59.32831 
L 560.840785 59.32831 
" style="fill:none;stroke:#ce0035;stroke-linecap:square;stroke-width:1.5;"/>
   </g>
   <g id="line2d_48">
    <defs>
     <path d="M 0 3 
C 0.795609 3 1.55874 2.683901 2.12132 2.12132 
C 2.683901 1.55874 3 0.795609 3 0 
C 3 -0.795609 2.683901 -1.55874 2.12132 -2.12132 
C 1.55874 -2.683901 0.795609 -3 0 -3 
C -0.795609 -3 -1.55874 -2.683901 -2.12132 -2.12132 
C -2.683901 -1.55874 -3 -0.795609 -3 0 
C -3 0.795609 -2.683901 1.55874 -2.12132 2.12132 
C -1.55874 2.683901 -0.795609 3 0 3 
z
" id="md0f41da784" style="stroke:#0099ff;"/>
    </defs>
    <g clip-path="url(#pc3dfd3a510)">
     <use style="fill:#0099ff;stroke:#0099ff;" x="-1" xlink:href="#md0f41da784" y="408.774349"/>
     <use style="fill:#0099ff;stroke:#0099ff;" x="81" xlink:href="#md0f41da784" y="408.774427"/>
     <use style="fill:#0099ff;stroke:#0099ff;" x="124.758" xlink:href="#md0f41da784" y="408.857372"/>
     <use style="fill:#0099ff;stroke:#0099ff;" x="182.602929" xlink:href="#md0f41da784" y="408.804723"/>
     <use style="fill:#0099ff;stroke:#0099ff;" x="226.360928" xlink:href="#md0f41da784" y="408.793695"/>
     <use style="fill:#0099ff;stroke:#0099ff;" x="270.118928" xlink:href="#md0f41da784" y="408.785156"/>
     <use style="fill:#0099ff;stroke:#0099ff;" x="327.963857" xlink:href="#md0f41da784" y="408.756297"/>
     <use style="fill:#0099ff;stroke:#0099ff;" x="371.721857" xlink:href="#md0f41da784" y="408.59"/>
     <use style="fill:#0099ff;stroke:#0099ff;" x="415.479857" xlink:href="#md0f41da784" y="408.46152"/>
     <use style="fill:#0099ff;stroke:#0099ff;" x="473.324786" xlink:href="#md0f41da784" y="407.62645"/>
     <use style="fill:#0099ff;stroke:#0099ff;" x="517.082785" xlink:href="#md0f41da784" y="406.437896"/>
     <use style="fill:#0099ff;stroke:#0099ff;" x="560.840785" xlink:href="#md0f41da784" y="404.859628"/>
    </g>
   </g>
   <g id="line2d_49">
    <g clip-path="url(#pc3dfd3a510)">
     <use style="fill:#0099ff;stroke:#0099ff;" x="-1" xlink:href="#md0f41da784" y="408.984431"/>
     <use style="fill:#0099ff;stroke:#0099ff;" x="81" xlink:href="#md0f41da784" y="408.984461"/>
     <use style="fill:#0099ff;stroke:#0099ff;" x="124.758" xlink:href="#md0f41da784" y="408.794089"/>
     <use style="fill:#0099ff;stroke:#0099ff;" x="182.602929" xlink:href="#md0f41da784" y="408.882143"/>
     <use style="fill:#0099ff;stroke:#0099ff;" x="226.360928" xlink:href="#md0f41da784" y="408.831271"/>
     <use style="fill:#0099ff;stroke:#0099ff;" x="270.118928" xlink:href="#md0f41da784" y="408.952046"/>
     <use style="fill:#0099ff;stroke:#0099ff;" x="327.963857" xlink:href="#md0f41da784" y="408.835005"/>
     <use style="fill:#0099ff;stroke:#0099ff;" x="371.721857" xlink:href="#md0f41da784" y="408.654443"/>
     <use style="fill:#0099ff;stroke:#0099ff;" x="415.479857" xlink:href="#md0f41da784" y="408.625522"/>
     <use style="fill:#0099ff;stroke:#0099ff;" x="473.324786" xlink:href="#md0f41da784" y="408.123564"/>
     <use style="fill:#0099ff;stroke:#0099ff;" x="517.082785" xlink:href="#md0f41da784" y="406.909509"/>
     <use style="fill:#0099ff;stroke:#0099ff;" x="560.840785" xlink:href="#md0f41da784" y="405.906121"/>
    </g>
   </g>
   <g id="line2d_50">
    <g clip-path="url(#pc3dfd3a510)">
     <use style="fill:#0099ff;stroke:#0099ff;" x="-1" xlink:href="#md0f41da784" y="408.676511"/>
     <use style="fill:#0099ff;stroke:#0099ff;" x="81" xlink:href="#md0f41da784" y="408.676543"/>
     <use style="fill:#0099ff;stroke:#0099ff;" x="124.758" xlink:href="#md0f41da784" y="408.603117"/>
     <use style="fill:#0099ff;stroke:#0099ff;" x="182.602929" xlink:href="#md0f41da784" y="408.535196"/>
     <use style="fill:#0099ff;stroke:#0099ff;" x="226.360928" xlink:href="#md0f41da784" y="408.436322"/>
     <use style="fill:#0099ff;stroke:#0099ff;" x="270.118928" xlink:href="#md0f41da784" y="408.686388"/>
     <use style="fill:#0099ff;stroke:#0099ff;" x="327.963857" xlink:href="#md0f41da784" y="408.555571"/>
     <use style="fill:#0099ff;stroke:#0099ff;" x="371.721857" xlink:href="#md0f41da784" y="408.35641"/>
     <use style="fill:#0099ff;stroke:#0099ff;" x="415.479857" xlink:href="#md0f41da784" y="408.148195"/>
     <use style="fill:#0099ff;stroke:#0099ff;" x="473.324786" xlink:href="#md0f41da784" y="407.613727"/>
     <use style="fill:#0099ff;stroke:#0099ff;" x="517.082785" xlink:href="#md0f41da784" y="406.527545"/>
     <use style="fill:#0099ff;stroke:#0099ff;" x="560.840785" xlink:href="#md0f41da784" y="405.75229"/>
    </g>
   </g>
   <g id="line2d_51">
    <defs>
     <path d="M 0 3 
C 0.795609 3 1.55874 2.683901 2.12132 2.12132 
C 2.683901 1.55874 3 0.795609 3 0 
C 3 -0.795609 2.683901 -1.55874 2.12132 -2.12132 
C 1.55874 -2.683901 0.795609 -3 0 -3 
C -0.795609 -3 -1.55874 -2.683901 -2.12132 -2.12132 
C -2.683901 -1.55874 -3 -0.795609 -3 0 
C -3 0.795609 -2.683901 1.55874 -2.12132 2.12132 
C -1.55874 2.683901 -0.795609 3 0 3 
z
" id="m669fd5a917" style="stroke:#3372cc;"/>
    </defs>
    <g clip-path="url(#pc3dfd3a510)">
     <use style="fill:#3372cc;stroke:#3372cc;" x="-1" xlink:href="#m669fd5a917" y="417.898122"/>
     <use style="fill:#3372cc;stroke:#3372cc;" x="81" xlink:href="#m669fd5a917" y="417.898134"/>
     <use style="fill:#3372cc;stroke:#3372cc;" x="124.758" xlink:href="#m669fd5a917" y="417.875807"/>
     <use style="fill:#3372cc;stroke:#3372cc;" x="182.602929" xlink:href="#m669fd5a917" y="417.780757"/>
     <use style="fill:#3372cc;stroke:#3372cc;" x="226.360928" xlink:href="#m669fd5a917" y="417.818929"/>
     <use style="fill:#3372cc;stroke:#3372cc;" x="270.118928" xlink:href="#m669fd5a917" y="417.771988"/>
     <use style="fill:#3372cc;stroke:#3372cc;" x="327.963857" xlink:href="#m669fd5a917" y="417.523473"/>
     <use style="fill:#3372cc;stroke:#3372cc;" x="371.721857" xlink:href="#m669fd5a917" y="417.167822"/>
     <use style="fill:#3372cc;stroke:#3372cc;" x="415.479857" xlink:href="#m669fd5a917" y="416.218147"/>
     <use style="fill:#3372cc;stroke:#3372cc;" x="473.324786" xlink:href="#m669fd5a917" y="411.561223"/>
     <use style="fill:#3372cc;stroke:#3372cc;" x="517.082785" xlink:href="#m669fd5a917" y="399.580069"/>
     <use style="fill:#3372cc;stroke:#3372cc;" x="560.840785" xlink:href="#m669fd5a917" y="385.551814"/>
    </g>
   </g>
   <g id="line2d_52">
    <g clip-path="url(#pc3dfd3a510)">
     <use style="fill:#3372cc;stroke:#3372cc;" x="-1" xlink:href="#m669fd5a917" y="417.917082"/>
     <use style="fill:#3372cc;stroke:#3372cc;" x="81" xlink:href="#m669fd5a917" y="417.917063"/>
     <use style="fill:#3372cc;stroke:#3372cc;" x="124.758" xlink:href="#m669fd5a917" y="417.959488"/>
     <use style="fill:#3372cc;stroke:#3372cc;" x="182.602929" xlink:href="#m669fd5a917" y="417.84972"/>
     <use style="fill:#3372cc;stroke:#3372cc;" x="226.360928" xlink:href="#m669fd5a917" y="417.831645"/>
     <use style="fill:#3372cc;stroke:#3372cc;" x="270.118928" xlink:href="#m669fd5a917" y="417.821096"/>
     <use style="fill:#3372cc;stroke:#3372cc;" x="327.963857" xlink:href="#m669fd5a917" y="417.617853"/>
     <use style="fill:#3372cc;stroke:#3372cc;" x="371.721857" xlink:href="#m669fd5a917" y="417.167666"/>
     <use style="fill:#3372cc;stroke:#3372cc;" x="415.479857" xlink:href="#m669fd5a917" y="416.302642"/>
     <use style="fill:#3372cc;stroke:#3372cc;" x="473.324786" xlink:href="#m669fd5a917" y="411.938405"/>
     <use style="fill:#3372cc;stroke:#3372cc;" x="517.082785" xlink:href="#m669fd5a917" y="401.101919"/>
     <use style="fill:#3372cc;stroke:#3372cc;" x="560.840785" xlink:href="#m669fd5a917" y="382.991251"/>
    </g>
   </g>
   <g id="line2d_53">
    <g clip-path="url(#pc3dfd3a510)">
     <use style="fill:#3372cc;stroke:#3372cc;" x="-1" xlink:href="#m669fd5a917" y="417.888781"/>
     <use style="fill:#3372cc;stroke:#3372cc;" x="81" xlink:href="#m669fd5a917" y="417.888835"/>
     <use style="fill:#3372cc;stroke:#3372cc;" x="124.758" xlink:href="#m669fd5a917" y="417.874615"/>
     <use style="fill:#3372cc;stroke:#3372cc;" x="182.602929" xlink:href="#m669fd5a917" y="417.871561"/>
     <use style="fill:#3372cc;stroke:#3372cc;" x="226.360928" xlink:href="#m669fd5a917" y="417.668714"/>
     <use style="fill:#3372cc;stroke:#3372cc;" x="270.118928" xlink:href="#m669fd5a917" y="417.690695"/>
     <use style="fill:#3372cc;stroke:#3372cc;" x="327.963857" xlink:href="#m669fd5a917" y="417.493475"/>
     <use style="fill:#3372cc;stroke:#3372cc;" x="371.721857" xlink:href="#m669fd5a917" y="417.157475"/>
     <use style="fill:#3372cc;stroke:#3372cc;" x="415.479857" xlink:href="#m669fd5a917" y="416.135002"/>
     <use style="fill:#3372cc;stroke:#3372cc;" x="473.324786" xlink:href="#m669fd5a917" y="411.475686"/>
     <use style="fill:#3372cc;stroke:#3372cc;" x="517.082785" xlink:href="#m669fd5a917" y="399.818538"/>
     <use style="fill:#3372cc;stroke:#3372cc;" x="560.840785" xlink:href="#m669fd5a917" y="384.217577"/>
    </g>
   </g>
   <g id="line2d_54">
    <defs>
     <path d="M 0 3 
C 0.795609 3 1.55874 2.683901 2.12132 2.12132 
C 2.683901 1.55874 3 0.795609 3 0 
C 3 -0.795609 2.683901 -1.55874 2.12132 -2.12132 
C 1.55874 -2.683901 0.795609 -3 0 -3 
C -0.795609 -3 -1.55874 -2.683901 -2.12132 -2.12132 
C -2.683901 -1.55874 -3 -0.795609 -3 0 
C -3 0.795609 -2.683901 1.55874 -2.12132 2.12132 
C -1.55874 2.683901 -0.795609 3 0 3 
z
" id="mff71c302bc" style="stroke:#674c9a;"/>
    </defs>
    <g clip-path="url(#pc3dfd3a510)">
     <use style="fill:#674c9a;stroke:#674c9a;" x="-1" xlink:href="#mff71c302bc" y="418.802215"/>
     <use style="fill:#674c9a;stroke:#674c9a;" x="81" xlink:href="#mff71c302bc" y="418.802201"/>
     <use style="fill:#674c9a;stroke:#674c9a;" x="124.758" xlink:href="#mff71c302bc" y="418.75492"/>
     <use style="fill:#674c9a;stroke:#674c9a;" x="182.602929" xlink:href="#mff71c302bc" y="418.733972"/>
     <use style="fill:#674c9a;stroke:#674c9a;" x="226.360928" xlink:href="#mff71c302bc" y="418.608777"/>
     <use style="fill:#674c9a;stroke:#674c9a;" x="270.118928" xlink:href="#mff71c302bc" y="418.625275"/>
     <use style="fill:#674c9a;stroke:#674c9a;" x="327.963857" xlink:href="#mff71c302bc" y="418.293683"/>
     <use style="fill:#674c9a;stroke:#674c9a;" x="371.721857" xlink:href="#mff71c302bc" y="417.677431"/>
     <use style="fill:#674c9a;stroke:#674c9a;" x="415.479857" xlink:href="#mff71c302bc" y="415.534828"/>
     <use style="fill:#674c9a;stroke:#674c9a;" x="473.324786" xlink:href="#mff71c302bc" y="400.343076"/>
     <use style="fill:#674c9a;stroke:#674c9a;" x="517.082785" xlink:href="#mff71c302bc" y="368.049406"/>
     <use style="fill:#674c9a;stroke:#674c9a;" x="560.840785" xlink:href="#mff71c302bc" y="322.487571"/>
    </g>
   </g>
   <g id="line2d_55">
    <g clip-path="url(#pc3dfd3a510)">
     <use style="fill:#674c9a;stroke:#674c9a;" x="-1" xlink:href="#mff71c302bc" y="418.760163"/>
     <use style="fill:#674c9a;stroke:#674c9a;" x="81" xlink:href="#mff71c302bc" y="418.760223"/>
     <use style="fill:#674c9a;stroke:#674c9a;" x="124.758" xlink:href="#mff71c302bc" y="418.719823"/>
     <use style="fill:#674c9a;stroke:#674c9a;" x="182.602929" xlink:href="#mff71c302bc" y="418.648638"/>
     <use style="fill:#674c9a;stroke:#674c9a;" x="226.360928" xlink:href="#mff71c302bc" y="418.568549"/>
     <use style="fill:#674c9a;stroke:#674c9a;" x="270.118928" xlink:href="#mff71c302bc" y="418.495121"/>
     <use style="fill:#674c9a;stroke:#674c9a;" x="327.963857" xlink:href="#mff71c302bc" y="418.354625"/>
     <use style="fill:#674c9a;stroke:#674c9a;" x="371.721857" xlink:href="#mff71c302bc" y="417.646461"/>
     <use style="fill:#674c9a;stroke:#674c9a;" x="415.479857" xlink:href="#mff71c302bc" y="415.487996"/>
     <use style="fill:#674c9a;stroke:#674c9a;" x="473.324786" xlink:href="#mff71c302bc" y="401.42822"/>
     <use style="fill:#674c9a;stroke:#674c9a;" x="517.082785" xlink:href="#mff71c302bc" y="367.691901"/>
     <use style="fill:#674c9a;stroke:#674c9a;" x="560.840785" xlink:href="#mff71c302bc" y="326.964075"/>
    </g>
   </g>
   <g id="line2d_56">
    <g clip-path="url(#pc3dfd3a510)">
     <use style="fill:#674c9a;stroke:#674c9a;" x="-1" xlink:href="#mff71c302bc" y="418.801566"/>
     <use style="fill:#674c9a;stroke:#674c9a;" x="81" xlink:href="#mff71c302bc" y="418.801587"/>
     <use style="fill:#674c9a;stroke:#674c9a;" x="124.758" xlink:href="#mff71c302bc" y="418.795217"/>
     <use style="fill:#674c9a;stroke:#674c9a;" x="182.602929" xlink:href="#mff71c302bc" y="418.844502"/>
     <use style="fill:#674c9a;stroke:#674c9a;" x="226.360928" xlink:href="#mff71c302bc" y="418.725863"/>
     <use style="fill:#674c9a;stroke:#674c9a;" x="270.118928" xlink:href="#mff71c302bc" y="418.661709"/>
     <use style="fill:#674c9a;stroke:#674c9a;" x="327.963857" xlink:href="#mff71c302bc" y="418.367567"/>
     <use style="fill:#674c9a;stroke:#674c9a;" x="371.721857" xlink:href="#mff71c302bc" y="417.735167"/>
     <use style="fill:#674c9a;stroke:#674c9a;" x="415.479857" xlink:href="#mff71c302bc" y="415.608319"/>
     <use style="fill:#674c9a;stroke:#674c9a;" x="473.324786" xlink:href="#mff71c302bc" y="401.023743"/>
     <use style="fill:#674c9a;stroke:#674c9a;" x="517.082785" xlink:href="#mff71c302bc" y="360.136987"/>
     <use style="fill:#674c9a;stroke:#674c9a;" x="560.840785" xlink:href="#mff71c302bc" y="309.491653"/>
    </g>
   </g>
   <g id="line2d_57">
    <defs>
     <path d="M 0 3 
C 0.795609 3 1.55874 2.683901 2.12132 2.12132 
C 2.683901 1.55874 3 0.795609 3 0 
C 3 -0.795609 2.683901 -1.55874 2.12132 -2.12132 
C 1.55874 -2.683901 0.795609 -3 0 -3 
C -0.795609 -3 -1.55874 -2.683901 -2.12132 -2.12132 
C -2.683901 -1.55874 -3 -0.795609 -3 0 
C -3 0.795609 -2.683901 1.55874 -2.12132 2.12132 
C -1.55874 2.683901 -0.795609 3 0 3 
z
" id="m6058b9bfba" style="stroke:#9a2667;"/>
    </defs>
    <g clip-path="url(#pc3dfd3a510)">
     <use style="fill:#9a2667;stroke:#9a2667;" x="-1" xlink:href="#m6058b9bfba" y="418.846088"/>
     <use style="fill:#9a2667;stroke:#9a2667;" x="81" xlink:href="#m6058b9bfba" y="418.846082"/>
     <use style="fill:#9a2667;stroke:#9a2667;" x="124.758" xlink:href="#m6058b9bfba" y="418.77426"/>
     <use style="fill:#9a2667;stroke:#9a2667;" x="182.602929" xlink:href="#m6058b9bfba" y="418.484478"/>
     <use style="fill:#9a2667;stroke:#9a2667;" x="226.360928" xlink:href="#m6058b9bfba" y="417.658499"/>
     <use style="fill:#9a2667;stroke:#9a2667;" x="270.118928" xlink:href="#m6058b9bfba" y="415.010756"/>
     <use style="fill:#9a2667;stroke:#9a2667;" x="327.963857" xlink:href="#m6058b9bfba" y="394.028345"/>
     <use style="fill:#9a2667;stroke:#9a2667;" x="371.721857" xlink:href="#m6058b9bfba" y="348.291159"/>
     <use style="fill:#9a2667;stroke:#9a2667;" x="415.479857" xlink:href="#m6058b9bfba" y="258.451903"/>
     <use style="fill:#9a2667;stroke:#9a2667;" x="473.324786" xlink:href="#m6058b9bfba" y="155.232748"/>
     <use style="fill:#9a2667;stroke:#9a2667;" x="517.082785" xlink:href="#m6058b9bfba" y="105.576884"/>
     <use style="fill:#9a2667;stroke:#9a2667;" x="560.840785" xlink:href="#m6058b9bfba" y="104.972576"/>
    </g>
   </g>
   <g id="line2d_58">
    <g clip-path="url(#pc3dfd3a510)">
     <use style="fill:#9a2667;stroke:#9a2667;" x="-1" xlink:href="#m6058b9bfba" y="418.825894"/>
     <use style="fill:#9a2667;stroke:#9a2667;" x="81" xlink:href="#m6058b9bfba" y="418.825849"/>
     <use style="fill:#9a2667;stroke:#9a2667;" x="124.758" xlink:href="#m6058b9bfba" y="418.731918"/>
     <use style="fill:#9a2667;stroke:#9a2667;" x="182.602929" xlink:href="#m6058b9bfba" y="418.489754"/>
     <use style="fill:#9a2667;stroke:#9a2667;" x="226.360928" xlink:href="#m6058b9bfba" y="417.482994"/>
     <use style="fill:#9a2667;stroke:#9a2667;" x="270.118928" xlink:href="#m6058b9bfba" y="414.968649"/>
     <use style="fill:#9a2667;stroke:#9a2667;" x="327.963857" xlink:href="#m6058b9bfba" y="394.265056"/>
     <use style="fill:#9a2667;stroke:#9a2667;" x="371.721857" xlink:href="#m6058b9bfba" y="345.420258"/>
     <use style="fill:#9a2667;stroke:#9a2667;" x="415.479857" xlink:href="#m6058b9bfba" y="261.228084"/>
     <use style="fill:#9a2667;stroke:#9a2667;" x="473.324786" xlink:href="#m6058b9bfba" y="149.923608"/>
     <use style="fill:#9a2667;stroke:#9a2667;" x="517.082785" xlink:href="#m6058b9bfba" y="105.603636"/>
     <use style="fill:#9a2667;stroke:#9a2667;" x="560.840785" xlink:href="#m6058b9bfba" y="61.412863"/>
    </g>
   </g>
   <g id="line2d_59">
    <g clip-path="url(#pc3dfd3a510)">
     <use style="fill:#9a2667;stroke:#9a2667;" x="-1" xlink:href="#m6058b9bfba" y="418.751737"/>
     <use style="fill:#9a2667;stroke:#9a2667;" x="81" xlink:href="#m6058b9bfba" y="418.751652"/>
     <use style="fill:#9a2667;stroke:#9a2667;" x="124.758" xlink:href="#m6058b9bfba" y="418.62091"/>
     <use style="fill:#9a2667;stroke:#9a2667;" x="182.602929" xlink:href="#m6058b9bfba" y="418.470187"/>
     <use style="fill:#9a2667;stroke:#9a2667;" x="226.360928" xlink:href="#m6058b9bfba" y="417.446832"/>
     <use style="fill:#9a2667;stroke:#9a2667;" x="270.118928" xlink:href="#m6058b9bfba" y="414.730452"/>
     <use style="fill:#9a2667;stroke:#9a2667;" x="327.963857" xlink:href="#m6058b9bfba" y="392.413649"/>
     <use style="fill:#9a2667;stroke:#9a2667;" x="371.721857" xlink:href="#m6058b9bfba" y="340.028952"/>
     <use style="fill:#9a2667;stroke:#9a2667;" x="415.479857" xlink:href="#m6058b9bfba" y="252.78372"/>
     <use style="fill:#9a2667;stroke:#9a2667;" x="473.324786" xlink:href="#m6058b9bfba" y="139.349213"/>
     <use style="fill:#9a2667;stroke:#9a2667;" x="517.082785" xlink:href="#m6058b9bfba" y="100.48596"/>
     <use style="fill:#9a2667;stroke:#9a2667;" x="560.840785" xlink:href="#m6058b9bfba" y="95.644923"/>
    </g>
   </g>
   <g id="line2d_60">
    <defs>
     <path d="M 0 3 
C 0.795609 3 1.55874 2.683901 2.12132 2.12132 
C 2.683901 1.55874 3 0.795609 3 0 
C 3 -0.795609 2.683901 -1.55874 2.12132 -2.12132 
C 1.55874 -2.683901 0.795609 -3 0 -3 
C -0.795609 -3 -1.55874 -2.683901 -2.12132 -2.12132 
C -2.683901 -1.55874 -3 -0.795609 -3 0 
C -3 0.795609 -2.683901 1.55874 -2.12132 2.12132 
C -1.55874 2.683901 -0.795609 3 0 3 
z
" id="mff65e8a9dd" style="stroke:#ce0035;"/>
    </defs>
    <g clip-path="url(#pc3dfd3a510)">
     <use style="fill:#ce0035;stroke:#ce0035;" x="-1" xlink:href="#mff65e8a9dd" y="418.768892"/>
     <use style="fill:#ce0035;stroke:#ce0035;" x="81" xlink:href="#mff65e8a9dd" y="418.768812"/>
     <use style="fill:#ce0035;stroke:#ce0035;" x="124.758" xlink:href="#mff65e8a9dd" y="418.803267"/>
     <use style="fill:#ce0035;stroke:#ce0035;" x="182.602929" xlink:href="#mff65e8a9dd" y="418.211853"/>
     <use style="fill:#ce0035;stroke:#ce0035;" x="226.360928" xlink:href="#mff65e8a9dd" y="415.938644"/>
     <use style="fill:#ce0035;stroke:#ce0035;" x="270.118928" xlink:href="#mff65e8a9dd" y="407.501095"/>
     <use style="fill:#ce0035;stroke:#ce0035;" x="327.963857" xlink:href="#mff65e8a9dd" y="350.591885"/>
     <use style="fill:#ce0035;stroke:#ce0035;" x="371.721857" xlink:href="#mff65e8a9dd" y="258.653691"/>
     <use style="fill:#ce0035;stroke:#ce0035;" x="415.479857" xlink:href="#mff65e8a9dd" y="150.619666"/>
     <use style="fill:#ce0035;stroke:#ce0035;" x="473.324786" xlink:href="#mff65e8a9dd" y="72.999072"/>
     <use style="fill:#ce0035;stroke:#ce0035;" x="517.082785" xlink:href="#mff65e8a9dd" y="51.313901"/>
     <use style="fill:#ce0035;stroke:#ce0035;" x="560.840785" xlink:href="#mff65e8a9dd" y="59.283482"/>
    </g>
   </g>
   <g id="line2d_61">
    <g clip-path="url(#pc3dfd3a510)">
     <use style="fill:#ce0035;stroke:#ce0035;" x="-1" xlink:href="#mff65e8a9dd" y="418.890858"/>
     <use style="fill:#ce0035;stroke:#ce0035;" x="81" xlink:href="#mff65e8a9dd" y="418.89081"/>
     <use style="fill:#ce0035;stroke:#ce0035;" x="124.758" xlink:href="#mff65e8a9dd" y="418.670866"/>
     <use style="fill:#ce0035;stroke:#ce0035;" x="182.602929" xlink:href="#mff65e8a9dd" y="418.278201"/>
     <use style="fill:#ce0035;stroke:#ce0035;" x="226.360928" xlink:href="#mff65e8a9dd" y="416.268309"/>
     <use style="fill:#ce0035;stroke:#ce0035;" x="270.118928" xlink:href="#mff65e8a9dd" y="408.87427"/>
     <use style="fill:#ce0035;stroke:#ce0035;" x="327.963857" xlink:href="#mff65e8a9dd" y="357.080768"/>
     <use style="fill:#ce0035;stroke:#ce0035;" x="371.721857" xlink:href="#mff65e8a9dd" y="264.748876"/>
     <use style="fill:#ce0035;stroke:#ce0035;" x="415.479857" xlink:href="#mff65e8a9dd" y="167.845795"/>
     <use style="fill:#ce0035;stroke:#ce0035;" x="473.324786" xlink:href="#mff65e8a9dd" y="82.558603"/>
     <use style="fill:#ce0035;stroke:#ce0035;" x="517.082785" xlink:href="#mff65e8a9dd" y="69.286215"/>
     <use style="fill:#ce0035;stroke:#ce0035;" x="560.840785" xlink:href="#mff65e8a9dd" y="71.782653"/>
    </g>
   </g>
   <g id="line2d_62">
    <g clip-path="url(#pc3dfd3a510)">
     <use style="fill:#ce0035;stroke:#ce0035;" x="-1" xlink:href="#mff65e8a9dd" y="418.874078"/>
     <use style="fill:#ce0035;stroke:#ce0035;" x="81" xlink:href="#mff65e8a9dd" y="418.874043"/>
     <use style="fill:#ce0035;stroke:#ce0035;" x="124.758" xlink:href="#mff65e8a9dd" y="418.746572"/>
     <use style="fill:#ce0035;stroke:#ce0035;" x="182.602929" xlink:href="#mff65e8a9dd" y="418.077564"/>
     <use style="fill:#ce0035;stroke:#ce0035;" x="226.360928" xlink:href="#mff65e8a9dd" y="416.102155"/>
     <use style="fill:#ce0035;stroke:#ce0035;" x="270.118928" xlink:href="#mff65e8a9dd" y="408.523795"/>
     <use style="fill:#ce0035;stroke:#ce0035;" x="327.963857" xlink:href="#mff65e8a9dd" y="355.289142"/>
     <use style="fill:#ce0035;stroke:#ce0035;" x="371.721857" xlink:href="#mff65e8a9dd" y="270.300435"/>
     <use style="fill:#ce0035;stroke:#ce0035;" x="415.479857" xlink:href="#mff65e8a9dd" y="169.757718"/>
     <use style="fill:#ce0035;stroke:#ce0035;" x="473.324786" xlink:href="#mff65e8a9dd" y="78.41943"/>
     <use style="fill:#ce0035;stroke:#ce0035;" x="517.082785" xlink:href="#mff65e8a9dd" y="63.909739"/>
     <use style="fill:#ce0035;stroke:#ce0035;" x="560.840785" xlink:href="#mff65e8a9dd" y="63.017414"/>
    </g>
   </g>
   <g id="patch_3">
    <path d="M 81 419.616 
L 81 0 
" style="fill:none;stroke:#000000;stroke-linecap:square;stroke-linejoin:miter;stroke-width:0.8;"/>
   </g>
   <g id="patch_4">
    <path d="M 81 419.616 
L 618.685714 419.616 
" style="fill:none;stroke:#000000;stroke-linecap:square;stroke-linejoin:miter;stroke-width:0.8;"/>
   </g>
   <g id="legend_1">
    <g id="patch_5">
     <path d="M 91.5 120.035156 
L 180.4125 120.035156 
Q 183.4125 120.035156 183.4125 117.035156 
L 183.4125 10.5 
Q 183.4125 7.5 180.4125 7.5 
L 91.5 7.5 
Q 88.5 7.5 88.5 10.5 
L 88.5 117.035156 
Q 88.5 120.035156 91.5 120.035156 
z
" style="fill:#ffffff;opacity:0.8;stroke:#cccccc;stroke-linejoin:miter;"/>
    </g>
    <g id="line2d_63">
     <path d="M 94.5 19.354688 
L 124.5 19.354688 
" style="fill:none;stroke:#0099ff;stroke-linecap:square;stroke-width:1.5;"/>
    </g>
    <g id="line2d_64"/>
    <g id="text_15">
     <!-- WT -->
     <defs>
      <path d="M 75.296875 0 
L 64.9375 0 
L 47.859375 60.84375 
L 31.25 0 
L 20.90625 0 
L 1.953125 74.03125 
L 12.5 74.03125 
L 26.46875 13.875 
L 42.875 74.03125 
L 53.03125 74.03125 
L 69.921875 13.875 
L 83.5 74.03125 
L 94.046875 74.03125 
z
" id="Gargi-87"/>
      <path d="M 38.671875 65.71875 
L 38.671875 0 
L 29.203125 0 
L 29.203125 65.71875 
L 4.890625 65.71875 
L 4.890625 74.03125 
L 62.984375 74.03125 
L 62.984375 65.71875 
z
" id="Gargi-84"/>
     </defs>
     <g transform="translate(136.5 24.604688)scale(0.15 -0.15)">
      <use xlink:href="#Gargi-87"/>
      <use x="95.996094" xlink:href="#Gargi-84"/>
     </g>
    </g>
    <g id="line2d_65">
     <path d="M 94.5 40.961719 
L 124.5 40.961719 
" style="fill:none;stroke:#3372cc;stroke-linecap:square;stroke-width:1.5;"/>
    </g>
    <g id="line2d_66"/>
    <g id="text_16">
     <!-- NOS1 -->
     <defs>
      <path d="M 58.59375 53.90625 
L 49.609375 53.90625 
Q 49.609375 64.84375 38.484375 67.78125 
Q 35.0625 68.65625 31.15625 68.65625 
Q 20.515625 68.5625 16.40625 62.40625 
Q 14.65625 59.765625 14.65625 56.34375 
Q 14.65625 50.59375 20.125 47.953125 
Q 22.5625 46.78125 26.765625 45.515625 
L 45.40625 40.71875 
Q 57.515625 37.40625 60.453125 27.734375 
Q 61.140625 25.484375 61.140625 22.46875 
Q 61.140625 14.15625 55.28125 7.8125 
L 53.03125 5.859375 
Q 45.609375 0.296875 32.125 0.296875 
Q 15.234375 0.296875 7.328125 10.640625 
Q 2.9375 16.40625 2.9375 25.6875 
L 11.8125 25.6875 
L 12.203125 21.875 
Q 12.890625 17.78125 15.71875 14.546875 
Q 21.09375 8.40625 32.8125 8.40625 
Q 41.796875 8.40625 46.390625 11.625 
Q 50.875 14.75 51.5625 20.21875 
Q 51.65625 21 51.65625 21.578125 
Q 51.65625 28.90625 40.53125 32.625 
Q 39.359375 33.015625 38.09375 33.296875 
L 19.734375 38.09375 
Q 5.171875 41.890625 5.171875 55.078125 
Q 5.171875 67.484375 15.71875 72.953125 
Q 22.265625 76.375 31.453125 76.375 
Q 49.421875 76.375 55.765625 65.234375 
Q 58.59375 60.359375 58.59375 53.90625 
z
" id="Gargi-83"/>
     </defs>
     <g transform="translate(136.5 46.211719)scale(0.15 -0.15)">
      <use xlink:href="#Gargi-78"/>
      <use x="67.675781" xlink:href="#Gargi-79"/>
      <use x="145.019531" xlink:href="#Gargi-83"/>
      <use x="209.082031" xlink:href="#Gargi-49"/>
     </g>
    </g>
    <g id="line2d_67">
     <path d="M 94.5 62.56875 
L 124.5 62.56875 
" style="fill:none;stroke:#674c9a;stroke-linecap:square;stroke-width:1.5;"/>
    </g>
    <g id="line2d_68"/>
    <g id="text_17">
     <!-- NOS2 -->
     <g transform="translate(136.5 67.81875)scale(0.15 -0.15)">
      <use xlink:href="#Gargi-78"/>
      <use x="67.675781" xlink:href="#Gargi-79"/>
      <use x="145.019531" xlink:href="#Gargi-83"/>
      <use x="209.082031" xlink:href="#Gargi-50"/>
     </g>
    </g>
    <g id="line2d_69">
     <path d="M 94.5 84.175781 
L 124.5 84.175781 
" style="fill:none;stroke:#9a2667;stroke-linecap:square;stroke-width:1.5;"/>
    </g>
    <g id="line2d_70"/>
    <g id="text_18">
     <!-- NOS3 -->
     <g transform="translate(136.5 89.425781)scale(0.15 -0.15)">
      <use xlink:href="#Gargi-78"/>
      <use x="67.675781" xlink:href="#Gargi-79"/>
      <use x="145.019531" xlink:href="#Gargi-83"/>
      <use x="209.082031" xlink:href="#Gargi-51"/>
     </g>
    </g>
    <g id="line2d_71">
     <path d="M 94.5 105.782812 
L 124.5 105.782812 
" style="fill:none;stroke:#ce0035;stroke-linecap:square;stroke-width:1.5;"/>
    </g>
    <g id="line2d_72"/>
    <g id="text_19">
     <!-- NOS4 -->
     <g transform="translate(136.5 111.032812)scale(0.15 -0.15)">
      <use xlink:href="#Gargi-78"/>
      <use x="67.675781" xlink:href="#Gargi-79"/>
      <use x="145.019531" xlink:href="#Gargi-83"/>
      <use x="209.082031" xlink:href="#Gargi-52"/>
     </g>
    </g>
   </g>
  </g>
 </g>
 <defs>
  <clipPath id="pc3dfd3a510">
   <rect height="419.616" width="537.685714" x="81" y="0"/>
  </clipPath>
 </defs>
</svg>
